<?xml version="1.0" standalone="no"?>
<!DOCTYPE svg PUBLIC "-//W3C//DTD SVG 1.1//EN" "http://www.w3.org/Graphics/SVG/1.1/DTD/svg11.dtd" >
<svg xmlns="http://www.w3.org/2000/svg" xmlns:xlink="http://www.w3.org/1999/xlink" version="1.1">
<metadata>
Created by FontForge 20170731 at Thu Jun 30 17:45:18 2016
 By Aleksey,,,
(c)2016 Richard Miller
</metadata>
<defs>
<font id="TacticSansExtExd-Med" horiz-adv-x="1032" >
  <font-face 
    font-family="TacticSansExtExd-Med"
    font-weight="400"
    font-stretch="extra-expanded"
    units-per-em="1000"
    panose-1="0 0 6 7 0 0 0 0 0 0"
    ascent="814"
    descent="-186"
    x-height="528"
    cap-height="700"
    bbox="-896 -196 1797 872"
    underline-thickness="50"
    underline-position="-200"
    unicode-range="U+0020-FB02"
  />
<missing-glyph horiz-adv-x="720" 
d="M10 0v700h700v-700h-700zM259 350l-169 -169l107 -107l169 169l169 -169l107 107l-169 169l169 169l-107 107l-169 -169l-169 169l-107 -107z" />
    <glyph glyph-name="ellipsis" unicode="&#x2e;&#x2e;&#x2e;" horiz-adv-x="980" 
d="M220 0h-156v148h156v-148zM568 0h-156v148h156v-148zM916 0h-156v148h156v-148z" />
    <glyph glyph-name="blackbox.liga" unicode="[&#x2b;]" horiz-adv-x="940" 
d="M120 0v700h700v-700h-700z" />
    <glyph glyph-name="checkbox.liga" unicode="[]" horiz-adv-x="940" 
d="M120 0v700h700v-700h-700zM750 633h-560v-566h560v566z" />
    <glyph glyph-name="checkround.liga" unicode="&#x28;&#x29;" horiz-adv-x="940" 
d="M726 95q-105 -105 -256 -105q-152 0 -255 105q-105 103 -105 255q0 151 105 256q104 104 255 104q150 0 256 -104q104 -106 104 -256q0 -151 -104 -255zM264 142q84 -85 206 -85t206 85q84 84 84 208q0 123 -84 209q-84 84 -206 84t-206 -84q-84 -86 -84 -209
q0 -124 84 -208z" />
    <glyph glyph-name="checkstar.liga" unicode="&#x7b;&#x7d;" horiz-adv-x="940" 
d="M378 437l92 283l92 -283h297l-240 -174l91 -283l-240 175l-240 -175l91 283l-240 174h297zM522 383l-52 161l-53 -161h-169l138 -99l-53 -162l137 100l136 -100l-52 162l137 99h-169z" />
    <glyph glyph-name="blackround.liga" unicode="&#x28;&#x2b;&#x29;" horiz-adv-x="940" 
d="M726 95q-105 -105 -256 -105q-152 0 -255 105q-105 103 -105 255q0 151 105 256q104 104 255 104q150 0 256 -104q104 -106 104 -256q0 -151 -104 -255z" />
    <glyph glyph-name="filledstar.liga" unicode="&#x7b;&#x2b;&#x7d;" horiz-adv-x="940" 
d="M378 437l92 283l92 -283h297l-240 -174l91 -283l-240 175l-240 -175l91 283l-240 174h297z" />
    <glyph glyph-name="ff.liga" unicode="ff" horiz-adv-x="1360" 
d="M1344 608h-328q-38 0 -53 -15t-15 -53v-75h396v-97h-396v-368h-130v368h-464v-368h-130v368h-208v97h208v93q0 74 34.5 108t107.5 34h332v-92h-276q-38 0 -53 -15t-15 -53v-75h464v93q0 74 34.5 108t107.5 34h384v-92z" />
    <glyph glyph-name=".notdef" horiz-adv-x="720" 
d="M10 0v700h700v-700h-700zM259 350l-169 -169l107 -107l169 169l169 -169l107 107l-169 169l169 169l-107 107l-169 -169l-169 169l-107 -107z" />
    <glyph glyph-name=".null" horiz-adv-x="0" 
 />
    <glyph glyph-name="nonmarkingreturn" horiz-adv-x="333" 
 />
    <glyph glyph-name="space" unicode=" " horiz-adv-x="300" 
 />
    <glyph glyph-name="exclam" unicode="!" horiz-adv-x="284" 
d="M92 204l-24 496h148l-24 -496h-100zM220 0h-156v128h156v-128z" />
    <glyph glyph-name="quotedbl" unicode="&#x22;" horiz-adv-x="448" 
d="M64 408v292h112v-292h-112zM272 408v292h112v-292h-112z" />
    <glyph glyph-name="numbersign" unicode="#" 
d="M974 467v-80h-205l-28 -154h191v-80h-205l-27 -153h-103l27 153h-272l-27 -153h-103l27 153h-191v80h205l28 154h-191v80h205l27 153h103l-27 -153h272l27 153h103l-27 -153h191zM366 233h272l28 154h-272z" />
    <glyph glyph-name="dollar" unicode="$" 
d="M272 428l556 -31q75 -4 108.5 -37t33.5 -105v-113q0 -73 -35 -107.5t-107 -34.5h-266v-100h-93v100h-265q-72 0 -107 34.5t-35 107.5v62h128v-36q0 -38 15 -53t53 -15h512q38 0 53 15t15 53v59q0 38 -14.5 52t-53.5 16l-556 31q-74 4 -108 37.5t-34 104.5v90
q0 73 35 107.5t107 34.5h255v100h93v-100h252q72 0 107 -34.5t35 -107.5v-48h-128v22q0 38 -15 53t-53 15h-488q-38 0 -53 -15t-15 -53v-36q0 -37 15 -51.5t53 -16.5z" />
    <glyph glyph-name="percent" unicode="%" horiz-adv-x="1140" 
d="M396 306h-250q-104 0 -104 104v106q0 54 25.5 79t78.5 25h250q53 0 78.5 -25t25.5 -79v-106q0 -104 -104 -104zM226 0h-96l784 620h96zM172 372h198q28 0 40 12t12 40v78q0 28 -12 40t-40 12h-198q-28 0 -40 -12t-12 -40v-78q0 -28 12 -40t40 -12zM994 0h-250
q-104 0 -104 104v106q0 54 25.5 79t78.5 25h250q53 0 78.5 -25t25.5 -79v-106q0 -104 -104 -104zM770 66h198q28 0 40 12t12 40v78q0 28 -12 40t-40 12h-198q-28 0 -40 -12t-12 -40v-78q0 -28 12 -40t40 -12z" />
    <glyph glyph-name="ampersand" unicode="&#x26;" horiz-adv-x="1140" 
d="M284 407h840v-87h-120v-178q0 -73 -35 -107.5t-107 -34.5h-666q-72 0 -107 34.5t-35 107.5v97q0 110 89 130q-59 29 -59 120v69q0 73 35 107.5t107 34.5h606q72 0 107 -34.5t35 -107.5v-47h-128v26q0 38 -15 53t-53 15h-494q-38 0 -53 -15t-15 -53v-62q0 -37 15 -52.5
t53 -15.5zM876 163v157h-622q-38 0 -53 -15t-15 -53v-89q0 -38 15 -53t53 -15h554q38 0 53 15t15 53z" />
    <glyph glyph-name="quotesingle" unicode="'" horiz-adv-x="240" 
d="M64 408v292h112v-292h-112z" />
    <glyph glyph-name="parenleft" unicode="(" horiz-adv-x="616" 
d="M584 -100h-290q-230 0 -230 230v440q0 230 230 230h290v-98h-267q-135 0 -135 -135v-434q0 -135 135 -135h267v-98z" />
    <glyph glyph-name="parenright" unicode=")" horiz-adv-x="616" 
d="M32 800h290q230 0 230 -230v-440q0 -230 -230 -230h-290v98h267q135 0 135 135v434q0 135 -135 135h-267v98z" />
    <glyph glyph-name="asterisk" unicode="*" horiz-adv-x="458" 
d="M389 612l25 -76l-133 -35l87 -107l-64 -47l-75 117l-75 -117l-64 47l87 107l-134 35l25 76l129 -50l-8 138h80l-8 -138z" />
    <glyph glyph-name="plus" unicode="+" 
d="M575 402h389v-104h-389v-252h-118v252h-389v104h389v252h118v-252z" />
    <glyph glyph-name="comma" unicode="," horiz-adv-x="284" 
d="M149 -160h-85l51 160h-51v148h156v-71q0 -52 -20 -97z" />
    <glyph glyph-name="hyphen" unicode="-" horiz-adv-x="660" 
d="M48 298v104h564v-104h-564z" />
    <glyph glyph-name="period" unicode="." horiz-adv-x="284" 
d="M220 0h-156v148h156v-148z" />
    <glyph glyph-name="slash" unicode="/" horiz-adv-x="587" 
d="M6 -100l488 900h87l-488 -900h-87z" />
    <glyph glyph-name="zero" unicode="0" 
d="M780 0h-528q-96 0 -141 45t-45 141v328q0 96 45 141t141 45h528q96 0 141 -45t45 -141v-328q0 -96 -45 -141t-141 -45zM298 106h436q55 0 77.5 22.5t22.5 77.5v288q0 55 -22.5 77.5t-77.5 22.5h-436q-55 0 -77.5 -22.5t-22.5 -77.5v-288q0 -55 22.5 -77.5t77.5 -22.5z
" />
    <glyph glyph-name="one" unicode="1" horiz-adv-x="972" 
d="M584 700v-598h350v-102h-896v102h414v487l-384 -25v106l454 30h62z" />
    <glyph glyph-name="two" unicode="2" 
d="M955 105v-105h-889v215q0 72 34 107t108 41l558 46q37 3 52.5 19.5t15.5 54.5v48q0 37 -15.5 52.5t-52.5 15.5h-490q-37 0 -52.5 -15.5t-15.5 -52.5v-34h-128v61q0 73 35 107.5t107 34.5h602q72 0 107 -34.5t35 -107.5v-97q0 -72 -34 -107t-108 -41l-558 -46
q-38 -4 -53 -20t-15 -54v-88h757z" />
    <glyph glyph-name="three" unicode="3" 
d="M891 366q77 -24 77 -127v-97q0 -73 -35 -107.5t-107 -34.5h-620q-72 0 -107 34.5t-35 107.5v85h128v-60q0 -38 15 -53t53 -15h508q38 0 53 15t15 53v82q0 38 -15 53t-53 15h-406v92h396q37 0 52.5 15.5t15.5 52.5v56q0 38 -15 53t-53 15h-488q-38 0 -53 -15t-15 -53v-52
h-128v77q0 73 35 107.5t107 34.5h600q72 0 107 -34.5t35 -107.5v-69q0 -98 -67 -123z" />
    <glyph glyph-name="four" unicode="4" horiz-adv-x="1062" 
d="M800 260h224v-97h-224v-163h-132v163h-630v81l612 456h150v-440zM668 604l-461 -344h461v344z" />
    <glyph glyph-name="five" unicode="5" horiz-adv-x="1002" 
d="M794 0h-724v105h666q37 0 52.5 15.5t15.5 52.5v83q0 38 -15 53t-53 15h-666v376h836v-105h-704v-168h592q72 0 107 -34.5t35 -107.5v-143q0 -73 -35 -107.5t-107 -34.5z" />
    <glyph glyph-name="six" unicode="6" 
d="M299 429h525q73 0 107.5 -34t34.5 -108v-145q0 -73 -35 -107.5t-107 -34.5h-616q-72 0 -107 34.5t-35 107.5v372q0 96 45 141t141 45h684v-105h-638q-55 0 -77.5 -22.5t-22.5 -77.5v-100q28 34 101 34zM834 169v92q0 38 -15 53t-53 15h-500q-38 0 -53 -15t-15 -53v-92
q0 -37 15 -52.5t53 -15.5h500q38 0 53 15.5t15 52.5z" />
    <glyph glyph-name="seven" unicode="7" horiz-adv-x="992" 
d="M38 590v110h916v-94l-360 -262q-51 -38 -66 -72q-15 -35 -15 -107v-165h-134v168q0 96 21 145t87 94l265 183h-714z" />
    <glyph glyph-name="eight" unicode="8" 
d="M891 366q77 -24 77 -127v-97q0 -73 -35 -107.5t-107 -34.5h-620q-72 0 -107 34.5t-35 107.5v97q0 103 77 127q-67 25 -67 123v69q0 73 35 107.5t107 34.5h600q72 0 107 -34.5t35 -107.5v-69q0 -98 -67 -123zM206 535v-60q0 -37 15 -52.5t53 -15.5h484q38 0 53 15.5
t15 52.5v60q0 38 -15 53t-53 15h-484q-38 0 -53 -15t-15 -53zM836 165v87q0 38 -15 53t-53 15h-504q-38 0 -53 -15t-15 -53v-87q0 -38 15 -53t53 -15h504q38 0 53 15t15 53z" />
    <glyph glyph-name="nine" unicode="9" 
d="M208 700h616q72 0 107 -34.5t35 -107.5v-372q0 -96 -45 -141t-141 -45h-684v105h638q55 0 77.5 22.5t22.5 77.5v93q-28 -34 -101 -34h-525q-73 0 -107.5 34t-34.5 108v152q0 73 35 107.5t107 34.5zM266 364h500q38 0 53 15t15 53v99q0 37 -15.5 52.5t-52.5 15.5h-500
q-37 0 -52.5 -15.5t-15.5 -52.5v-99q0 -38 15 -53t53 -15z" />
    <glyph glyph-name="colon" unicode=":" horiz-adv-x="284" 
d="M220 396h-156v132h156v-132zM220 0h-156v132h156v-132z" />
    <glyph glyph-name="semicolon" unicode=";" horiz-adv-x="284" 
d="M220 396h-156v132h156v-132zM149 -160h-85l51 160h-51v132h156v-55q0 -52 -20 -97z" />
    <glyph glyph-name="less" unicode="&#x3c;" 
d="M68 402l896 248v-113l-717 -186l717 -187v-114l-896 248v104z" />
    <glyph glyph-name="equal" unicode="=" 
d="M68 426v100h896v-100h-896zM68 174v100h896v-100h-896z" />
    <glyph glyph-name="greater" unicode="&#x3e;" 
d="M68 536v114l896 -248v-104l-896 -248v113l717 187z" />
    <glyph glyph-name="question" unicode="?" horiz-adv-x="982" 
d="M522 192h-125v75q0 64 31.5 97t99.5 40l203 21q75 7 75 74v34q0 36 -15 51t-52 15h-500q-37 0 -52 -15t-15 -51v-41h-128v66q0 73 35 107.5t107 34.5h610q72 0 107 -34.5t35 -107.5v-67q0 -67 -38 -106t-111 -46l-201 -21q-66 -8 -66 -72v-54zM537 0h-156v116h156v-116z
" />
    <glyph glyph-name="at" unicode="@" horiz-adv-x="1190" 
d="M241 700h708q96 0 141 -45t45 -141v-222q0 -65 -29 -93.5t-93 -28.5h-105q-72 0 -91 49l-12 -8q-39 -29 -67 -36q-28 -9 -80 -9h-316q-119 0 -97 121l23 131q11 63 41.5 89.5t90.5 26.5h314q51 0 78.5 -9.5t55.5 -37.5l3 -3l16 42h82l-42 -241q-4 -25 4 -36t31 -11h50
q35 0 47.5 12t12.5 47v212q0 68 -27.5 95.5t-95.5 27.5h-669q-68 0 -95.5 -27.5t-27.5 -95.5v-318q0 -68 27.5 -95.5t95.5 -27.5h811v-68h-830q-96 0 -141 45t-45 141v328q0 96 45 141t141 45zM783 263l25 17l25 142l-19 16q-28 23 -85 23h-305q-31 0 -43.5 -11.5
t-17.5 -44.5l-19 -108q-7 -33 2 -45.5t42 -12.5h307q53 0 88 24z" />
    <glyph glyph-name="A" unicode="A" horiz-adv-x="1112" 
d="M1116 0h-158l-107 159h-596l-107 -159h-152l486 700h148zM553 601l-227 -337h454z" />
    <glyph glyph-name="B" unicode="B" horiz-adv-x="1070" 
d="M939 367q83 -21 83 -128v-97q0 -73 -35 -107.5t-107 -34.5h-816v700h796q72 0 107 -34.5t35 -107.5v-69q0 -93 -63 -122zM798 600h-598v-192h598q38 0 53 15t15 53v56q0 38 -15 53t-53 15zM886 168v83q0 38 -15 53t-53 15h-618v-219h618q38 0 53 15t15 53z" />
    <glyph glyph-name="C" unicode="C" horiz-adv-x="1080" 
d="M843 0h-602q-96 0 -141 45t-45 141v328q0 96 45 141t141 45h602q96 0 141 -45t45 -141v-74h-132v52q0 55 -22.5 77.5t-77.5 22.5h-506q-55 0 -77.5 -22.5t-22.5 -77.5v-284q0 -55 22.5 -77.5t77.5 -22.5h506q55 0 77.5 22.5t22.5 77.5v61h132v-83q0 -96 -45 -141
t-141 -45z" />
    <glyph glyph-name="D" unicode="D" horiz-adv-x="1107" 
d="M822 0h-758v700h758q112 0 171 -58.5t59 -171.5v-240q0 -113 -59 -171.5t-171 -58.5zM200 590v-480h588q128 0 128 128v224q0 128 -128 128h-588z" />
    <glyph glyph-name="E" unicode="E" horiz-adv-x="986" 
d="M200 315v-208h754v-107h-890v700h880v-107h-744v-181h704v-97h-704z" />
    <glyph glyph-name="F" unicode="F" horiz-adv-x="950" 
d="M934 700v-112h-734v-199h694v-106h-694v-283h-136v700h870z" />
    <glyph glyph-name="G" unicode="G" horiz-adv-x="1107" 
d="M55 186v328q0 96 45 141t141 45h626q96 0 141 -45t45 -141v-42h-136v21q0 55 -22.5 77.5t-77.5 22.5h-526q-55 0 -77.5 -22.5t-22.5 -77.5v-289q0 -56 22.5 -78t77.5 -22h530q55 0 77.5 22.5t22.5 77.5v72h-350v99h482v-189q0 -96 -45 -141t-141 -45h-626q-96 0 -141 45
t-45 141z" />
    <glyph glyph-name="H" unicode="H" horiz-adv-x="1096" 
d="M896 423v277h136v-700h-136v309h-696v-309h-136v700h136v-277h696z" />
    <glyph glyph-name="I" unicode="I" horiz-adv-x="276" 
d="M69 0v700h138v-700h-138z" />
    <glyph glyph-name="J" unicode="J" horiz-adv-x="992" 
d="M750 0h-532q-96 0 -141 45t-45 141v82h132v-60q0 -55 22.5 -77.5t77.5 -22.5h436q55 0 77.5 22.5t22.5 77.5v492h136v-514q0 -96 -45 -141t-141 -45z" />
    <glyph glyph-name="K" unicode="K" horiz-adv-x="1019" 
d="M394 362l619 -362h-243l-570 342v-342h-136v700h136v-325l565 325h244z" />
    <glyph glyph-name="L" unicode="L" horiz-adv-x="920" 
d="M200 700v-586h704v-114h-840v700h136z" />
    <glyph glyph-name="M" unicode="M" horiz-adv-x="1236" 
d="M621 253l435 447h116v-700h-132v526l-384 -392h-76l-384 392v-526h-132v700h121z" />
    <glyph glyph-name="N" unicode="N" horiz-adv-x="1116" 
d="M920 155v545h132v-700h-110l-746 550v-550h-132v700h116z" />
    <glyph glyph-name="O" unicode="O" horiz-adv-x="1108" 
d="M867 0h-626q-96 0 -141 45t-45 141v328q0 96 45 141t141 45h626q96 0 141 -45t45 -141v-328q0 -96 -45 -141t-141 -45zM291 110h526q55 0 77.5 22.5t22.5 77.5v280q0 55 -22.5 77.5t-77.5 22.5h-526q-55 0 -77.5 -22t-22.5 -78v-280q0 -56 22.5 -78t77.5 -22z" />
    <glyph glyph-name="P" unicode="P" horiz-adv-x="1044" 
d="M200 0h-136v700h782q88 0 127 -38.5t39 -127.5v-128q0 -89 -39 -127.5t-127 -38.5h-646v-240zM200 598v-260h591q49 0 67 17.5t18 66.5v92q0 49 -18 66.5t-67 17.5h-591z" />
    <glyph glyph-name="Q" unicode="Q" horiz-adv-x="1108" 
d="M1053 514v-328q0 -96 -45 -141t-141 -45l157 -140h-156l-151 140h-476q-96 0 -141 45t-45 141v328q0 96 45 141t141 45h626q96 0 141 -45t45 -141zM917 210v280q0 55 -22.5 77.5t-77.5 22.5h-526q-55 0 -77.5 -22t-22.5 -78v-280q0 -56 22.5 -78t77.5 -22h526
q55 0 77.5 22.5t22.5 77.5z" />
    <glyph glyph-name="R" unicode="R" horiz-adv-x="1066" 
d="M797 266l245 -266h-169l-238 262h-435v-262h-136v700h782q88 0 127 -38.5t39 -127.5v-98q0 -89 -39 -127.5t-127 -38.5zM791 602h-591v-244h591q49 0 67 17.5t18 66.5v76q0 49 -18 66.5t-67 17.5z" />
    <glyph glyph-name="S" unicode="S" horiz-adv-x="1087" 
d="M55 142v63h132v-36q0 -38 15 -53t53 -15h574q37 0 52.5 15.5t15.5 52.5v57q0 36 -14.5 50.5t-53.5 17.5l-622 31q-75 5 -108.5 37.5t-33.5 104.5v91q0 73 34.5 107.5t107.5 34.5h670q72 0 107 -34.5t35 -107.5v-49h-132v22q0 37 -15.5 52.5t-52.5 15.5h-550
q-38 0 -53 -15t-15 -53v-34q0 -36 14.5 -50.5t53.5 -17.5l622 -30q75 -5 108.5 -37.5t33.5 -104.5v-115q0 -73 -35 -107.5t-107 -34.5h-694q-73 0 -107.5 34.5t-34.5 107.5z" />
    <glyph glyph-name="T" unicode="T" horiz-adv-x="984" 
d="M16 700h952v-114h-408v-586h-136v586h-408v114z" />
    <glyph glyph-name="U" unicode="U" horiz-adv-x="1081" 
d="M838 0h-596q-96 0 -141 45t-45 141v514h136v-486q0 -55 22.5 -77.5t77.5 -22.5h496q56 0 78 22t22 78v486h136v-514q0 -96 -45 -141t-141 -45z" />
    <glyph glyph-name="V" unicode="V" horiz-adv-x="1084" 
d="M546 123l392 577h150l-484 -700h-124l-484 700h157z" />
    <glyph glyph-name="W" unicode="W" horiz-adv-x="1490" 
d="M1077 145l271 555h146l-354 -700h-117l-278 545l-278 -545h-117l-354 700h153l271 -556l276 556h104z" />
    <glyph glyph-name="X" unicode="X" horiz-adv-x="1060" 
d="M192 0h-186l431 356l-421 344h194l324 -272l324 272h186l-421 -344l431 -356h-194l-334 285z" />
    <glyph glyph-name="Y" unicode="Y" horiz-adv-x="1044" 
d="M876 700h172l-458 -443v-257h-136v257l-458 443h179l351 -346z" />
    <glyph glyph-name="Z" unicode="Z" horiz-adv-x="1056" 
d="M1014 0h-972v88l725 502h-705v110h952v-88l-725 -502h725v-110z" />
    <glyph glyph-name="bracketleft" unicode="[" horiz-adv-x="596" 
d="M564 -100h-500v900h500v-98h-382v-704h382v-98z" />
    <glyph glyph-name="backslash" unicode="\" horiz-adv-x="587" 
d="M6 800h87l488 -900h-87z" />
    <glyph glyph-name="bracketright" unicode="]" horiz-adv-x="596" 
d="M32 800h500v-900h-500v98h382v704h-382v98z" />
    <glyph glyph-name="asciicircum" unicode="^" 
d="M566 700l408 -420h-132l-325 330l-325 -330h-134l408 420h100z" />
    <glyph glyph-name="underscore" unicode="_" horiz-adv-x="944" 
d="M0 -126v86h944v-86h-944z" />
    <glyph glyph-name="grave" unicode="`" horiz-adv-x="353" 
d="M369 576h-123l-182 124h154z" />
    <glyph glyph-name="a" unicode="a" horiz-adv-x="961" 
d="M220 528h516q88 0 127 -38.5t39 -127.5v-362h-107l-14 71l-17 -13q-47 -38 -80 -48t-105 -10h-401q-124 0 -124 124v55q0 124 124 124h595v52q0 48 -18.5 66t-67.5 18h-416q-37 0 -52.5 -15t-15.5 -53v-19h-125v34q0 73 35 107.5t107 34.5zM727 114l46 34v83h-528
q-34 0 -48 -14t-14 -48v-24q0 -35 13.5 -48.5t48.5 -13.5h372q67 0 110 31z" />
    <glyph glyph-name="b" unicode="b" horiz-adv-x="975" 
d="M402 528h353q88 0 127 -38.5t39 -127.5v-196q0 -89 -39 -127.5t-127 -38.5h-353q-76 0 -116 12q-41 12 -92 54l-9 7l-14 -73h-108v700h130v-239l1 1q51 42 92 54t116 12zM792 183v162q0 49 -18 67t-67 18h-344q-83 0 -130 -35l-40 -30v-202l40 -30q47 -35 130 -35h344
q49 0 67 18t18 67z" />
    <glyph glyph-name="c" unicode="c" horiz-adv-x="942" 
d="M54 166v196q0 89 39 127.5t127 38.5h502q88 0 127 -38.5t39 -127.5v-41h-126v24q0 49 -17.5 67t-66.5 18h-410q-49 0 -66.5 -18t-17.5 -67v-162q0 -49 17.5 -67t66.5 -18h410q49 0 66.5 18t17.5 67v32h126v-49q0 -89 -39 -127.5t-127 -38.5h-502q-88 0 -127 38.5
t-39 127.5z" />
    <glyph glyph-name="d" unicode="d" horiz-adv-x="975" 
d="M782 461v239h130v-700h-108l-14 73l-9 -7q-51 -42 -91 -54t-116 -12h-354q-88 0 -127 38.5t-39 127.5v196q0 89 39 127.5t127 38.5h354q76 0 116 -12t91 -54zM743 133l39 30v202l-39 30q-49 35 -131 35h-344q-49 0 -66.5 -18t-17.5 -67v-162q0 -49 17.5 -67t66.5 -18h344
q82 0 131 35z" />
    <glyph glyph-name="e" unicode="e" horiz-adv-x="956" 
d="M220 528h516q88 0 127 -38.5t39 -127.5v-114h-719v-67q0 -49 18.5 -67t67.5 -18h440q37 0 52.5 15.5t15.5 52.5v23h125v-45q0 -73 -35 -107.5t-107 -34.5h-540q-88 0 -127 38.5t-39 127.5v196q0 89 39 127.5t127 38.5zM183 354v-28h594v28q0 49 -18.5 67t-67.5 18h-422
q-49 0 -67.5 -18t-18.5 -67z" />
    <glyph glyph-name="f" unicode="f" horiz-adv-x="766" 
d="M750 603h-329q-37 0 -52.5 -15.5t-15.5 -52.5v-70h397v-97h-397v-368h-129v368h-208v97h208v93q0 73 35 107.5t107 34.5h384v-97z" />
    <glyph glyph-name="g" unicode="g" horiz-adv-x="975" 
d="M791 455l14 73h107v-502q0 -96 -45 -141t-141 -45h-652v92h608q55 0 77.5 22.5t22.5 77.5v72l-1 -1q-52 -41 -93 -53q-40 -13 -115 -13h-353q-88 0 -127 38.5t-39 127.5v159q0 89 39 127.5t127 38.5h353q74 0 116 -12t92 -53zM742 168l40 29v171l-40 30q-44 34 -130 34
h-344q-49 0 -67 -18t-18 -67v-129q0 -49 18 -67t67 -18h344q83 0 130 35z" />
    <glyph glyph-name="h" unicode="h" horiz-adv-x="970" 
d="M406 528h339q88 0 127 -38.5t39 -127.5v-362h-129v342q0 49 -18 67t-67 18h-334q-86 0 -130 -34l-40 -30v-363h-130v700h130v-242l5 4q51 42 92 54q40 12 116 12z" />
    <glyph glyph-name="i" unicode="i" horiz-adv-x="265" 
d="M199 601h-132v99h132v-99zM199 0h-132v528h132v-528z" />
    <glyph glyph-name="j" unicode="j" horiz-adv-x="365" 
d="M299 601h-132v99h132v-99zM157 -160h-279v95h221q38 0 53 15t15 53v525h132v-546q0 -73 -35 -107.5t-107 -34.5z" />
    <glyph glyph-name="k" unicode="k" horiz-adv-x="908" 
d="M398 266l520 -266h-253l-472 248v-248h-130v700h130v-422l468 250h251z" />
    <glyph glyph-name="l" unicode="l" horiz-adv-x="266" 
d="M198 0h-131v700h131v-700z" />
    <glyph glyph-name="m" unicode="m" horiz-adv-x="1593" 
d="M1072 528h296q88 0 127 -38.5t39 -127.5v-362h-130v342q0 49 -18 67t-67 18h-286q-84 0 -130 -34l-40 -30v-363h-129v342q0 49 -18 67t-67 18h-286q-86 0 -130 -34l-40 -30v-363h-130v528h108l14 -73l9 7q51 42 92 54t116 12h295q121 0 152 -78l15 12q51 42 92 54
q40 12 116 12z" />
    <glyph glyph-name="n" unicode="n" horiz-adv-x="970" 
d="M402 528h343q88 0 127 -38.5t39 -127.5v-362h-129v342q0 49 -18 67t-67 18h-334q-86 0 -130 -34l-40 -30v-363h-130v528h108l14 -73l9 7q51 42 92 54t116 12z" />
    <glyph glyph-name="o" unicode="o" horiz-adv-x="966" 
d="M746 0h-526q-88 0 -127 38.5t-39 127.5v196q0 89 39 127.5t127 38.5h526q88 0 127 -38.5t39 -127.5v-196q0 -89 -39 -127.5t-127 -38.5zM268 98h430q49 0 66.5 18t17.5 67v162q0 49 -17.5 67t-66.5 18h-430q-49 0 -66.5 -18t-17.5 -67v-162q0 -49 17.5 -67t66.5 -18z" />
    <glyph glyph-name="p" unicode="p" horiz-adv-x="975" 
d="M402 528h353q88 0 127 -38.5t39 -127.5v-196q0 -89 -39 -127.5t-127 -38.5h-353q-76 0 -116 12q-41 12 -92 54l-1 1v-227h-130v688h108l14 -73l9 7q51 42 92 54t116 12zM792 183v162q0 49 -18 67t-67 18h-344q-83 0 -130 -35l-40 -30v-202l40 -30q47 -35 130 -35h344
q49 0 67 18t18 67z" />
    <glyph glyph-name="q" unicode="q" horiz-adv-x="975" 
d="M790 455l14 73h108v-688h-130v227l-1 -1q-51 -42 -89 -54q-39 -12 -114 -12h-358q-88 0 -127 38.5t-39 127.5v196q0 89 39 127.5t127 38.5h354q76 0 116 -12t91 -54zM743 133l39 30v202l-39 30q-49 35 -131 35h-344q-49 0 -66.5 -18t-17.5 -67v-162q0 -49 17.5 -67
t66.5 -18h344q82 0 131 35z" />
    <glyph glyph-name="r" unicode="r" horiz-adv-x="654" 
d="M398 528h240v-109h-275q-86 0 -130 -34l-40 -30v-355h-130v528h96l15 -78l16 12q51 42 92 54q40 12 116 12z" />
    <glyph glyph-name="s" unicode="s" horiz-adv-x="946" 
d="M54 116v50h125v-35q0 -24 10.5 -34t34.5 -10h494q24 0 34.5 10t10.5 34v42q0 23 -10.5 33t-34.5 12l-539 26q-115 4 -115 115v54q0 56 30 85.5t85 29.5h584q55 0 85 -30t30 -86v-45h-125v30q0 24 -10.5 34t-34.5 10h-470q-24 0 -34.5 -10t-10.5 -34v-16q0 -24 10.5 -34.5
t34.5 -12.5l539 -26q115 -4 115 -115v-78q0 -56 -30 -85.5t-85 -29.5h-608q-55 0 -85 30t-30 86z" />
    <glyph glyph-name="t" unicode="t" horiz-adv-x="786" 
d="M760 528v-97h-406v-265q0 -38 15 -53t53 -15h338v-98h-394q-73 0 -107.5 34t-34.5 108v289h-208v97h208l25 120h105v-120h406z" />
    <glyph glyph-name="u" unicode="u" horiz-adv-x="970" 
d="M777 528h130v-528h-108l-14 73l-9 -7q-51 -42 -91 -54q-41 -12 -117 -12h-343q-88 0 -127 38.5t-39 127.5v362h129v-342q0 -49 18 -67t67 -18h334q86 0 130 34l40 30v363z" />
    <glyph glyph-name="v" unicode="v" horiz-adv-x="938" 
d="M472 116l310 412h154l-412 -528h-110l-412 528h159z" />
    <glyph glyph-name="w" unicode="w" horiz-adv-x="1290" 
d="M926 127l217 401h141l-302 -528h-109l-227 401l-227 -401h-111l-302 528h147l217 -400l227 400h101z" />
    <glyph glyph-name="x" unicode="x" horiz-adv-x="921" 
d="M190 0h-188l362 269l-352 259h196l256 -192l257 192h188l-351 -259l361 -269h-196l-266 203z" />
    <glyph glyph-name="y" unicode="y" horiz-adv-x="938" 
d="M471 113l311 415h154l-422 -540q-68 -87 -125 -118q-59 -30 -164 -30h-169v98h181q57 0 89 17t69 66l1 2l-394 505h159z" />
    <glyph glyph-name="z" unicode="z" horiz-adv-x="930" 
d="M890 0h-850v74l608 360h-588v94h830v-74l-608 -360h608v-94z" />
    <glyph glyph-name="braceleft" unicode="{" horiz-adv-x="716" 
d="M316 601v-145q0 -80 -57 -106q57 -28 57 -107v-144q0 -53 24 -77t77 -24h267v-98h-296q-96 0 -143 46.5t-47 143.5v159q0 56 -56 56h-110v90h110q56 0 56 55v160q0 97 47 143.5t143 46.5h296v-98h-267q-53 0 -77 -24t-24 -77z" />
    <glyph glyph-name="bar" unicode="|" horiz-adv-x="256" 
d="M74 -100v900h108v-900h-108z" />
    <glyph glyph-name="braceright" unicode="}" horiz-adv-x="716" 
d="M574 395h110v-90h-110q-56 0 -56 -55v-160q0 -97 -47 -143.5t-143 -46.5h-296v98h267q53 0 77 24t24 77v145q0 80 57 106q-57 28 -57 107v144q0 53 -24 77t-77 24h-267v98h296q96 0 143 -46.5t47 -143.5v-159q0 -56 56 -56z" />
    <glyph glyph-name="asciitilde" unicode="~" 
d="M414 466l309 -173q28 -16 62 -16h33q19 0 26.5 7.5t7.5 26.5v193h112v-214q0 -51 -21.5 -72.5t-72.5 -21.5h-108q-49 0 -74 7q-28 8 -70 31l-309 173q-28 16 -62 16h-33q-19 0 -26.5 -7.5t-7.5 -26.5v-193h-112v214q0 51 21.5 72.5t72.5 21.5h108q48 0 75 -6
q29 -9 69 -32z" />
    <glyph glyph-name="exclamdown" unicode="&#xa1;" horiz-adv-x="284" 
d="M64 700h156v-128h-156v128zM192 496l24 -496h-148l24 496h100z" />
    <glyph glyph-name="cent" unicode="&#xa2;" 
d="M966 534v-55h-128v36q0 49 -18 67t-67 18h-470q-49 0 -67 -18t-18 -67v-200q0 -49 18 -67t67 -18h470q49 0 67 18t18 67v43h128v-62q0 -89 -39 -127.5t-127 -38.5h-236v-100h-92v100h-240q-88 0 -127 38.5t-39 127.5v238q0 89 39 127.5t127 38.5h240v100h92v-100h236
q88 0 127 -38.5t39 -127.5z" />
    <glyph glyph-name="sterling" unicode="&#xa3;" horiz-adv-x="1072" 
d="M1006 514v-60h-128v48q0 55 -22.5 77.5t-77.5 22.5h-424q-52 0 -74 -22.5t-22 -77.5v-109h488v-74h-488v-217h552q38 0 53 15t15 53v68h128v-96q0 -74 -34.5 -108t-107.5 -34h-848v102h110v217h-120v74h120v121q0 96 45 141t141 45h508q96 0 141 -45t45 -141z" />
    <glyph glyph-name="currency" unicode="&#xa4;" 
d="M907 432v-164q0 -45 -13 -74l97 -97l-59 -59l-90 90q-41 -28 -103 -28h-446q-62 0 -103 28l-90 -90l-59 59l97 97q-13 29 -13 74v164q0 45 13 74l-97 97l59 59l90 -90q41 28 103 28h446q62 0 103 -28l90 90l59 -59l-97 -97q13 -29 13 -74zM329 196h374q49 0 71.5 22.5
t22.5 71.5v120q0 49 -22.5 71.5t-71.5 22.5h-374q-49 0 -71.5 -22.5t-22.5 -71.5v-120q0 -49 22.5 -71.5t71.5 -22.5z" />
    <glyph glyph-name="yen" unicode="&#xa5;" 
d="M836 700h168l-376 -389h346v-64h-392v-90h392v-64h-392v-93h-132v93h-392v64h392v90h-392v64h346l-376 389h175l317 -345z" />
    <glyph glyph-name="brokenbar" unicode="&#xa6;" horiz-adv-x="256" 
d="M74 478v322h108v-322h-108zM74 -100v322h108v-322h-108z" />
    <glyph glyph-name="section" unicode="&#xa7;" horiz-adv-x="1226" 
d="M367 544l671 -40q72 -6 103 -37.5t31 -100.5v-69q0 -130 -115 -137q5 -28 5 -51v-67q0 -73 -35 -107.5t-107 -34.5h-604q-72 0 -107 34.5t-35 107.5v49h132v-28q0 -37 15 -52.5t53 -15.5h485q37 0 52 15t15 52v27q0 35 -14.5 49t-52.5 18l-671 40q-72 6 -103 37.5
t-31 100.5v69q0 66 27.5 98t87.5 37q-5 28 -5 53v67q0 73 35 107.5t107 34.5h604q72 0 107 -34.5t35 -107.5v-49h-132v28q0 37 -15 52.5t-53 15.5h-485q-37 0 -52 -15t-15 -52v-27q0 -35 14.5 -49t52.5 -18zM253 290l671 -39q34 -3 59 -11q29 2 41 16.5t12 46.5v44
q0 33 -13.5 46t-49.5 17l-671 39q-34 3 -59 11q-29 -2 -41 -16.5t-12 -46.5v-44q0 -33 13.5 -46t49.5 -17z" />
    <glyph glyph-name="dieresis" unicode="&#xa8;" horiz-adv-x="432" 
d="M172 588h-108v88h108v-88zM424 588h-108v88h108v-88z" />
    <glyph glyph-name="copyright" unicode="&#xa9;" horiz-adv-x="1108" 
d="M845 0h-582q-105 0 -164 58.5t-59 164.5v254q0 106 59 164.5t164 58.5h582q105 0 164 -58.5t59 -164.5v-254q0 -106 -59 -164.5t-164 -58.5zM273 50h562q179 0 179 179v242q0 179 -179 179h-562q-179 0 -179 -179v-242q0 -179 179 -179zM811 132h-514q-62 0 -91.5 29
t-29.5 92v194q0 63 29.5 92t91.5 29h514q62 0 91.5 -29t29.5 -92v-46h-99v31q0 32 -12 44.5t-44 12.5h-444q-32 0 -44 -12.5t-12 -44.5v-164q0 -32 12 -44.5t44 -12.5h444q32 0 44 12.5t12 44.5v36h99v-51q0 -63 -29.5 -92t-91.5 -29z" />
    <glyph glyph-name="ordfeminine" unicode="&#xaa;" horiz-adv-x="580" 
d="M132 700h313q53 0 77.5 -24t24.5 -78v-216h-74l-9 40l-4 -3q-30 -24 -50 -30q-20 -7 -63 -7h-242q-75 0 -75 75v35q0 75 75 75h353v26q0 27 -9.5 37t-36.5 10h-244q-21 0 -29 -8.5t-8 -29.5v-9h-87v20q0 87 88 87zM153 438h221q36 0 59 17l25 18v46h-305
q-19 0 -26.5 -7.5t-7.5 -26.5v-14q0 -19 7.5 -26t26.5 -7z" />
    <glyph glyph-name="guillemotleft" unicode="&#xab;" horiz-adv-x="1288" 
d="M52 311v77l564 198v-103l-419 -132l419 -133v-105zM672 388l564 198v-103l-419 -132l419 -133v-105l-564 198v77z" />
    <glyph glyph-name="logicalnot" unicode="&#xac;" 
d="M846 298h-778v104h896v-280h-118v176z" />
    <glyph glyph-name="uni00AD" unicode="&#xad;" horiz-adv-x="660" 
d="M48 298v104h564v-104h-564z" />
    <glyph glyph-name="registered" unicode="&#xae;" horiz-adv-x="391" 
d="M143 700h105q107 0 107 -107v-92q0 -107 -107 -107h-105q-107 0 -107 107v92q0 107 107 107zM318 503v88q0 41 -16.5 57.5t-57.5 16.5h-97q-41 0 -57.5 -16.5t-16.5 -57.5v-88q0 -40 17 -57t57 -17h97q40 0 57 17t17 57zM271 587v-27q0 -35 -34 -36l41 -55h-44l-38 52
h-32v-52h-40v155h110q20 0 28.5 -8.5t8.5 -28.5zM220 592h-56v-39h56q11 0 11 12v15q0 12 -11 12z" />
    <glyph glyph-name="overscore" unicode="&#xaf;" horiz-adv-x="520" 
d="M536 606h-472v66h472v-66z" />
    <glyph glyph-name="degree" unicode="&#xb0;" horiz-adv-x="428" 
d="M265 360h-102q-58 0 -89.5 32t-31.5 89v98q0 58 31.5 89.5t89.5 31.5h102q58 0 89.5 -31.5t31.5 -89.5v-98q0 -57 -31.5 -89t-89.5 -32zM179 431h70q61 0 61 61v76q0 32 -14.5 46.5t-46.5 14.5h-70q-32 0 -46.5 -14.5t-14.5 -46.5v-76q0 -61 61 -61z" />
    <glyph glyph-name="plusminus" unicode="&#xb1;" 
d="M575 676v-192h389v-96h-389v-192h-118v192h-389v96h389v192h118zM964 24h-896v97h896v-97z" />
    <glyph glyph-name="uni00B2" unicode="&#xb2;" horiz-adv-x="647" 
d="M596 368v-88h-551v135q0 47 22 70t70 26l322 22q18 1 25 8t7 25v21q0 17 -7 24t-25 7h-266q-17 0 -24 -7t-7 -24v-19h-109v40q0 48 22.5 70t69.5 22h366q47 0 69.5 -22t22.5 -70v-55q0 -47 -22 -70t-70 -26l-322 -22q-18 -2 -25 -9t-7 -24v-34h439z" />
    <glyph glyph-name="uni00B3" unicode="&#xb3;" horiz-adv-x="646" 
d="M554 497q49 -13 49 -80v-45q0 -48 -22 -70t-69 -22h-377q-47 0 -69.5 22t-22.5 70v55h109v-32q0 -18 6.5 -24.5t24.5 -6.5h277q18 0 24.5 6.5t6.5 24.5v32q0 17 -6.5 24t-24.5 7h-233v75h227q18 0 24.5 7t6.5 25v20q0 18 -6.5 24.5t-24.5 6.5h-265q-18 0 -24.5 -6.5
t-6.5 -24.5v-27h-109v50q0 48 22.5 70t69.5 22h365q47 0 69 -22t22 -70v-34q0 -62 -43 -77z" />
    <glyph glyph-name="acute" unicode="&#xb4;" horiz-adv-x="353" 
d="M369 700l-181 -124h-124l152 124h153z" />
    <glyph glyph-name="paragraph" unicode="&#xb6;" horiz-adv-x="950" 
d="M50 438v96q0 89 39 127.5t127 38.5h630v-700h-120v598h-202v-598h-120v272h-188q-88 0 -127 38.5t-39 127.5z" />
    <glyph glyph-name="middot" unicode="&#xb7;" horiz-adv-x="284" 
d="M220 276h-156v148h156v-148z" />
    <glyph glyph-name="cedilla" unicode="&#xb8;" horiz-adv-x="320" 
d="M296 -160h-244v47h211q13 0 13 13v13q0 13 -13 13h-139v22l26 72h54l-18 -50h110q28 0 40 -12t12 -40v-26q0 -28 -12 -40t-40 -12z" />
    <glyph glyph-name="uni00B9" unicode="&#xb9;" horiz-adv-x="610" 
d="M373 700v-335h207v-85h-549v85h229v242l-211 -14v89l269 18h55z" />
    <glyph glyph-name="ordmasculine" unicode="&#xba;" horiz-adv-x="579" 
d="M447 383h-315q-54 0 -78 23.5t-24 77.5v115q0 54 24 77.5t78 23.5h315q54 0 78 -23.5t24 -77.5v-115q0 -54 -24 -77.5t-78 -23.5zM165 451h249q27 0 37 10t10 37v87q0 27 -10 37t-37 10h-249q-27 0 -37 -10t-10 -37v-87q0 -27 10 -37t37 -10z" />
    <glyph glyph-name="guillemotright" unicode="&#xbb;" horiz-adv-x="1288" 
d="M471 349l-419 132v105l564 -198v-77l-564 -198v103zM672 481v105l564 -198v-77l-564 -198v103l419 133z" />
    <glyph glyph-name="onequarter" unicode="&#xbc;" horiz-adv-x="1389" 
d="M375 365h207v-85h-549v85h229v242l-211 -14v89l269 18h55v-335zM348 0l728 700h92l-729 -700h-91zM1226 166h130v-80h-130v-86h-108v86h-365v67l349 267h124v-254zM1118 336l-226 -170h226v170z" />
    <glyph glyph-name="onehalf" unicode="&#xbd;" horiz-adv-x="1501" 
d="M375 365h207v-85h-549v85h229v242l-211 -14v89l269 18h55v-335zM348 0l728 700h92l-729 -700h-91zM1362 177l-322 -22q-18 -2 -25 -9t-7 -24v-34h439v-88h-551v135q0 47 22 70t70 26l322 22q18 1 25 8t7 25v21q0 17 -7 24t-25 7h-266q-17 0 -24 -7t-7 -24v-19h-109v40
q0 48 22.5 70t69.5 22h366q47 0 69.5 -22t22.5 -70v-55q0 -47 -22 -70t-70 -26z" />
    <glyph glyph-name="threequarters" unicode="&#xbe;" horiz-adv-x="1425" 
d="M606 417v-45q0 -48 -22 -70t-69 -22h-377q-47 0 -69.5 22t-22.5 70v55h105v-32q0 -18 6.5 -24.5t24.5 -6.5h285q18 0 24.5 6.5t6.5 24.5v32q0 17 -6.5 24t-24.5 7h-237v75h231q18 0 24.5 7t6.5 25v20q0 18 -6.5 24.5t-24.5 6.5h-273q-18 0 -24.5 -6.5t-6.5 -24.5v-27
h-105v50q0 48 22.5 70t69.5 22h365q47 0 69 -22t22 -70v-34q0 -62 -43 -77q49 -13 49 -80zM384 0l728 700h92l-729 -700h-91zM1262 166h130v-80h-130v-86h-108v86h-365v67l349 267h124v-254zM1154 336l-226 -170h226v170z" />
    <glyph glyph-name="questiondown" unicode="&#xbf;" horiz-adv-x="982" 
d="M445 700h156v-116h-156v116zM460 508h125v-75q0 -64 -31.5 -97t-99.5 -40l-203 -21q-75 -7 -75 -74v-34q0 -36 15 -51t52 -15h500q37 0 52 15t15 51v41h128v-66q0 -73 -35 -107.5t-107 -34.5h-610q-72 0 -107 34.5t-35 107.5v67q0 67 38 106t111 46l201 21q66 8 66 72v54
z" />
    <glyph glyph-name="Agrave" unicode="&#xc0;" horiz-adv-x="1112" 
d="M463 872l151 -124h-123l-182 124h154zM1116 0h-158l-107 159h-596l-107 -159h-152l486 700h148zM553 601l-227 -337h454z" />
    <glyph glyph-name="Aacute" unicode="&#xc1;" horiz-adv-x="1112" 
d="M650 872h153l-181 -124h-124zM1116 0h-158l-107 159h-596l-107 -159h-152l486 700h148zM553 601l-227 -337h454z" />
    <glyph glyph-name="Acircumflex" unicode="&#xc2;" horiz-adv-x="1112" 
d="M678 748l-122 72l-122 -72h-105l158 124h138l158 -124h-105zM1116 0h-158l-107 159h-596l-107 -159h-152l486 700h148zM553 601l-227 -337h454z" />
    <glyph glyph-name="Atilde" unicode="&#xc3;" horiz-adv-x="1112" 
d="M423 808v-60h-81v74q0 50 50 50h115q23 0 35 -4.5t27 -18.5l47 -42q12 -9 26 -9h32q15 0 15 14v60h81v-74q0 -50 -50 -50h-115q-23 0 -35 4.5t-27 18.5l-47 42q-12 9 -26 9h-32q-15 0 -15 -14zM1116 0h-158l-107 159h-596l-107 -159h-152l486 700h148zM553 601l-227 -337
h454z" />
    <glyph glyph-name="Adieresis" unicode="&#xc4;" horiz-adv-x="1112" 
d="M376 848h108v-88h-108v88zM628 848h108v-88h-108v88zM1116 0h-158l-107 159h-596l-107 -159h-152l486 700h148zM553 601l-227 -337h454z" />
    <glyph glyph-name="Aring" unicode="&#xc5;" horiz-adv-x="1112" 
d="M683 738h-254q-29 0 -41.5 13t-12.5 41v26q0 28 12.5 41t41.5 13h254q29 0 41.5 -13t12.5 -41v-26q0 -28 -12.5 -41t-41.5 -13zM432 812v-14q0 -12 4 -16.5t16 -4.5h208q12 0 16 4.5t4 16.5v14q0 12 -4 16.5t-16 4.5h-208q-12 0 -16 -4.5t-4 -16.5zM1116 0h-158l-107 159
h-596l-107 -159h-152l486 700h148zM553 601l-227 -337h454z" />
    <glyph glyph-name="AE" unicode="&#xc6;" horiz-adv-x="1574" 
d="M895 315l141 -208h506v-107h-592l-105 159h-590l-107 -159h-152l486 700h1050v-107h-826l123 -181h663v-97h-597zM553 601l-227 -337h449z" />
    <glyph glyph-name="Ccedilla" unicode="&#xc7;" horiz-adv-x="1080" 
d="M1029 514v-74h-132v52q0 55 -22.5 77.5t-77.5 22.5h-506q-55 0 -77.5 -22.5t-22.5 -77.5v-284q0 -55 22.5 -77.5t77.5 -22.5h506q55 0 77.5 22.5t22.5 77.5v61h132v-83q0 -96 -45 -141t-141 -45h-288l-11 -30h110q28 0 40 -12t12 -40v-26q0 -28 -12 -40t-40 -12h-244v47
h211q13 0 13 13v13q0 13 -13 13h-139v22l19 52h-260q-96 0 -141 45t-45 141v328q0 96 45 141t141 45h602q96 0 141 -45t45 -141z" />
    <glyph glyph-name="Egrave" unicode="&#xc8;" horiz-adv-x="986" 
d="M400 872l151 -124h-123l-182 124h154zM200 315v-208h754v-107h-890v700h880v-107h-744v-181h704v-97h-704z" />
    <glyph glyph-name="Eacute" unicode="&#xc9;" horiz-adv-x="986" 
d="M587 872h153l-181 -124h-124zM200 315v-208h754v-107h-890v700h880v-107h-744v-181h704v-97h-704z" />
    <glyph glyph-name="Ecircumflex" unicode="&#xca;" horiz-adv-x="986" 
d="M615 748l-122 72l-122 -72h-105l158 124h138l158 -124h-105zM200 315v-208h754v-107h-890v700h880v-107h-744v-181h704v-97h-704z" />
    <glyph glyph-name="Edieresis" unicode="&#xcb;" horiz-adv-x="986" 
d="M313 848h108v-88h-108v88zM565 848h108v-88h-108v88zM200 315v-208h754v-107h-890v700h880v-107h-744v-181h704v-97h-704z" />
    <glyph glyph-name="Igrave" unicode="&#xcc;" horiz-adv-x="276" 
d="M196 748h-123l-182 124h154zM69 0v700h138v-700h-138z" />
    <glyph glyph-name="Iacute" unicode="&#xcd;" horiz-adv-x="276" 
d="M385 872l-181 -124h-124l152 124h153zM69 0v700h138v-700h-138z" />
    <glyph glyph-name="Icircumflex" unicode="&#xce;" horiz-adv-x="276" 
d="M16 748h-105l158 124h138l158 -124h-105l-122 72zM69 0v700h138v-700h-138z" />
    <glyph glyph-name="Idieresis" unicode="&#xcf;" horiz-adv-x="276" 
d="M66 760h-108v88h108v-88zM318 760h-108v88h108v-88zM69 0v700h138v-700h-138z" />
    <glyph glyph-name="Eth" unicode="&#xd0;" horiz-adv-x="1167" 
d="M124 700h758q112 0 171 -58.5t59 -171.5v-240q0 -113 -59 -171.5t-171 -58.5h-758v311h-92v78h92v311zM976 238v224q0 128 -128 128h-588v-201h408v-78h-408v-201h588q128 0 128 128z" />
    <glyph glyph-name="Ntilde" unicode="&#xd1;" horiz-adv-x="1116" 
d="M425 808v-60h-81v74q0 50 50 50h115q23 0 35 -4.5t27 -18.5l47 -42q12 -9 26 -9h32q15 0 15 14v60h81v-74q0 -50 -50 -50h-115q-23 0 -35 4.5t-27 18.5l-47 42q-12 9 -26 9h-32q-15 0 -15 -14zM920 155v545h132v-700h-110l-746 550v-550h-132v700h116z" />
    <glyph glyph-name="Ograve" unicode="&#xd2;" horiz-adv-x="1108" 
d="M612 748h-123l-182 124h154zM867 0h-626q-96 0 -141 45t-45 141v328q0 96 45 141t141 45h626q96 0 141 -45t45 -141v-328q0 -96 -45 -141t-141 -45zM291 110h526q55 0 77.5 22.5t22.5 77.5v280q0 55 -22.5 77.5t-77.5 22.5h-526q-55 0 -77.5 -22t-22.5 -78v-280
q0 -56 22.5 -78t77.5 -22z" />
    <glyph glyph-name="Oacute" unicode="&#xd3;" horiz-adv-x="1108" 
d="M801 872l-181 -124h-124l152 124h153zM867 0h-626q-96 0 -141 45t-45 141v328q0 96 45 141t141 45h626q96 0 141 -45t45 -141v-328q0 -96 -45 -141t-141 -45zM291 110h526q55 0 77.5 22.5t22.5 77.5v280q0 55 -22.5 77.5t-77.5 22.5h-526q-55 0 -77.5 -22t-22.5 -78v-280
q0 -56 22.5 -78t77.5 -22z" />
    <glyph glyph-name="Ocircumflex" unicode="&#xd4;" horiz-adv-x="1108" 
d="M432 748h-105l158 124h138l158 -124h-105l-122 72zM867 0h-626q-96 0 -141 45t-45 141v328q0 96 45 141t141 45h626q96 0 141 -45t45 -141v-328q0 -96 -45 -141t-141 -45zM291 110h526q55 0 77.5 22.5t22.5 77.5v280q0 55 -22.5 77.5t-77.5 22.5h-526q-55 0 -77.5 -22
t-22.5 -78v-280q0 -56 22.5 -78t77.5 -22z" />
    <glyph glyph-name="Otilde" unicode="&#xd5;" horiz-adv-x="1108" 
d="M421 748h-81v74q0 50 50 50h115q23 0 35 -4.5t27 -18.5l47 -42q12 -9 26 -9h32q15 0 15 14v60h81v-74q0 -50 -50 -50h-115q-23 0 -35 4.5t-27 18.5l-47 42q-12 9 -26 9h-32q-15 0 -15 -14v-60zM867 0h-626q-96 0 -141 45t-45 141v328q0 96 45 141t141 45h626
q96 0 141 -45t45 -141v-328q0 -96 -45 -141t-141 -45zM291 110h526q55 0 77.5 22.5t22.5 77.5v280q0 55 -22.5 77.5t-77.5 22.5h-526q-55 0 -77.5 -22t-22.5 -78v-280q0 -56 22.5 -78t77.5 -22z" />
    <glyph glyph-name="Odieresis" unicode="&#xd6;" horiz-adv-x="1108" 
d="M482 760h-108v88h108v-88zM734 760h-108v88h108v-88zM867 0h-626q-96 0 -141 45t-45 141v328q0 96 45 141t141 45h626q96 0 141 -45t45 -141v-328q0 -96 -45 -141t-141 -45zM291 110h526q55 0 77.5 22.5t22.5 77.5v280q0 55 -22.5 77.5t-77.5 22.5h-526q-55 0 -77.5 -22
t-22.5 -78v-280q0 -56 22.5 -78t77.5 -22z" />
    <glyph glyph-name="multiply" unicode="&#xd7;" 
d="M887 650l59 -84l-335 -216l335 -216l-59 -84l-371 239l-371 -239l-59 84l335 216l-335 216l59 84l371 -239z" />
    <glyph glyph-name="Oslash" unicode="&#xd8;" horiz-adv-x="1108" 
d="M1083 730l-84 -67q54 -43 54 -149v-328q0 -96 -45 -141t-141 -45h-626q-41 0 -66 7l-46 -37h-104l84 67q-54 43 -54 149v328q0 96 45 141t141 45h626q41 0 66 -7l46 37h104zM187 494v-288q0 -63 29 -84l592 472h-521q-55 0 -77.5 -22t-22.5 -78zM921 206v288q0 61 -29 84
l-592 -472h521q55 0 77.5 22.5t22.5 77.5z" />
    <glyph glyph-name="Ugrave" unicode="&#xd9;" horiz-adv-x="1081" 
d="M598 748h-123l-182 124h154zM838 0h-596q-96 0 -141 45t-45 141v514h136v-486q0 -55 22.5 -77.5t77.5 -22.5h496q56 0 78 22t22 78v486h136v-514q0 -96 -45 -141t-141 -45z" />
    <glyph glyph-name="Uacute" unicode="&#xda;" horiz-adv-x="1081" 
d="M787 872l-181 -124h-124l152 124h153zM838 0h-596q-96 0 -141 45t-45 141v514h136v-486q0 -55 22.5 -77.5t77.5 -22.5h496q56 0 78 22t22 78v486h136v-514q0 -96 -45 -141t-141 -45z" />
    <glyph glyph-name="Ucircumflex" unicode="&#xdb;" horiz-adv-x="1081" 
d="M418 748h-105l158 124h138l158 -124h-105l-122 72zM838 0h-596q-96 0 -141 45t-45 141v514h136v-486q0 -55 22.5 -77.5t77.5 -22.5h496q56 0 78 22t22 78v486h136v-514q0 -96 -45 -141t-141 -45z" />
    <glyph glyph-name="Udieresis" unicode="&#xdc;" horiz-adv-x="1081" 
d="M468 760h-108v88h108v-88zM720 760h-108v88h108v-88zM838 0h-596q-96 0 -141 45t-45 141v514h136v-486q0 -55 22.5 -77.5t77.5 -22.5h496q56 0 78 22t22 78v486h136v-514q0 -96 -45 -141t-141 -45z" />
    <glyph glyph-name="Yacute" unicode="&#xdd;" horiz-adv-x="1044" 
d="M616 872h153l-181 -124h-124zM876 700h172l-458 -443v-257h-136v257l-458 443h179l351 -346z" />
    <glyph glyph-name="Thorn" unicode="&#xde;" horiz-adv-x="1044" 
d="M200 590h646q88 0 127 -38.5t39 -127.5v-128q0 -89 -39 -127.5t-127 -38.5h-646v-130h-136v700h136v-110zM876 312v92q0 49 -18 66.5t-67 17.5h-591v-260h591q49 0 67 17.5t18 66.5z" />
    <glyph glyph-name="germandbls" unicode="&#xdf;" horiz-adv-x="977" 
d="M842 367q83 -21 83 -128v-97q0 -73 -34.5 -107.5t-107.5 -34.5h-326v97h270q38 0 53 15t15 53v88q0 38 -15 53t-53 15h-270v86h250q38 0 53 15t15 53v60q0 38 -15 53t-53 15h-446q-38 0 -53 -15t-15 -53v-535h-130v558q0 73 34.5 107.5t107.5 34.5h558q73 0 107.5 -34.5
t34.5 -107.5v-69q0 -93 -63 -122z" />
    <glyph glyph-name="agrave" unicode="&#xe0;" horiz-adv-x="961" 
d="M395 700l151 -124h-123l-182 124h154zM220 528h516q88 0 127 -38.5t39 -127.5v-362h-107l-14 71l-17 -13q-47 -38 -80 -48t-105 -10h-401q-124 0 -124 124v55q0 124 124 124h595v52q0 48 -18.5 66t-67.5 18h-416q-37 0 -52.5 -15t-15.5 -53v-19h-125v34q0 73 35 107.5
t107 34.5zM727 114l46 34v83h-528q-34 0 -48 -14t-14 -48v-24q0 -35 13.5 -48.5t48.5 -13.5h372q67 0 110 31z" />
    <glyph glyph-name="aacute" unicode="&#xe1;" horiz-adv-x="961" 
d="M582 700h153l-181 -124h-124zM220 528h516q88 0 127 -38.5t39 -127.5v-362h-107l-14 71l-17 -13q-47 -38 -80 -48t-105 -10h-401q-124 0 -124 124v55q0 124 124 124h595v52q0 48 -18.5 66t-67.5 18h-416q-37 0 -52.5 -15t-15.5 -53v-19h-125v34q0 73 35 107.5t107 34.5z
M727 114l46 34v83h-528q-34 0 -48 -14t-14 -48v-24q0 -35 13.5 -48.5t48.5 -13.5h372q67 0 110 31z" />
    <glyph glyph-name="acircumflex" unicode="&#xe2;" horiz-adv-x="961" 
d="M610 576l-122 72l-122 -72h-105l158 124h138l158 -124h-105zM220 528h516q88 0 127 -38.5t39 -127.5v-362h-107l-14 71l-17 -13q-47 -38 -80 -48t-105 -10h-401q-124 0 -124 124v55q0 124 124 124h595v52q0 48 -18.5 66t-67.5 18h-416q-37 0 -52.5 -15t-15.5 -53v-19
h-125v34q0 73 35 107.5t107 34.5zM727 114l46 34v83h-528q-34 0 -48 -14t-14 -48v-24q0 -35 13.5 -48.5t48.5 -13.5h372q67 0 110 31z" />
    <glyph glyph-name="atilde" unicode="&#xe3;" horiz-adv-x="961" 
d="M355 636v-60h-81v74q0 50 50 50h115q23 0 35 -4.5t27 -18.5l47 -42q12 -9 26 -9h32q15 0 15 14v60h81v-74q0 -50 -50 -50h-115q-23 0 -35 4.5t-27 18.5l-47 42q-12 9 -26 9h-32q-15 0 -15 -14zM220 528h516q88 0 127 -38.5t39 -127.5v-362h-107l-14 71l-17 -13
q-47 -38 -80 -48t-105 -10h-401q-124 0 -124 124v55q0 124 124 124h595v52q0 48 -18.5 66t-67.5 18h-416q-37 0 -52.5 -15t-15.5 -53v-19h-125v34q0 73 35 107.5t107 34.5zM727 114l46 34v83h-528q-34 0 -48 -14t-14 -48v-24q0 -35 13.5 -48.5t48.5 -13.5h372q67 0 110 31z
" />
    <glyph glyph-name="adieresis" unicode="&#xe4;" horiz-adv-x="961" 
d="M308 676h108v-88h-108v88zM560 676h108v-88h-108v88zM220 528h516q88 0 127 -38.5t39 -127.5v-362h-107l-14 71l-17 -13q-47 -38 -80 -48t-105 -10h-401q-124 0 -124 124v55q0 124 124 124h595v52q0 48 -18.5 66t-67.5 18h-416q-37 0 -52.5 -15t-15.5 -53v-19h-125v34
q0 73 35 107.5t107 34.5zM727 114l46 34v83h-528q-34 0 -48 -14t-14 -48v-24q0 -35 13.5 -48.5t48.5 -13.5h372q67 0 110 31z" />
    <glyph glyph-name="aring" unicode="&#xe5;" horiz-adv-x="961" 
d="M615 566h-254q-29 0 -41.5 13t-12.5 41v26q0 28 12.5 41t41.5 13h254q29 0 41.5 -13t12.5 -41v-26q0 -28 -12.5 -41t-41.5 -13zM364 640v-14q0 -12 4 -16.5t16 -4.5h208q12 0 16 4.5t4 16.5v14q0 12 -4 16.5t-16 4.5h-208q-12 0 -16 -4.5t-4 -16.5zM220 528h516
q88 0 127 -38.5t39 -127.5v-362h-107l-14 71l-17 -13q-47 -38 -80 -48t-105 -10h-401q-124 0 -124 124v55q0 124 124 124h595v52q0 48 -18.5 66t-67.5 18h-416q-37 0 -52.5 -15t-15.5 -53v-19h-125v34q0 73 35 107.5t107 34.5zM727 114l46 34v83h-528q-34 0 -48 -14t-14 -48
v-24q0 -35 13.5 -48.5t48.5 -13.5h372q67 0 110 31z" />
    <glyph glyph-name="ae" unicode="&#xe6;" horiz-adv-x="1675" 
d="M962 528h493q88 0 127 -38.5t39 -127.5v-114h-719v-67q0 -49 18 -67t67 -18h440q37 0 52.5 15t15.5 53v23h126v-45q0 -73 -35 -107.5t-107 -34.5h-521q-116 0 -148 69l-14 -11q-47 -38 -80 -48t-105 -10h-433q-124 0 -124 124v55q0 124 124 124h595v52q0 48 -18.5 66
t-67.5 18h-416q-37 0 -52.5 -15t-15.5 -53v-19h-125v34q0 73 35 107.5t107 34.5h493q90 0 125 -47q33 47 124 47zM902 354v-28h593v28q0 49 -18 67t-67 18h-423q-49 0 -67 -18t-18 -67zM726 114l46 34v83h-527q-34 0 -48 -14t-14 -48v-24q0 -35 13.5 -48.5t48.5 -13.5h372
q66 0 109 31z" />
    <glyph glyph-name="ccedilla" unicode="&#xe7;" horiz-adv-x="942" 
d="M888 362v-41h-126v24q0 49 -17.5 67t-66.5 18h-410q-49 0 -66.5 -18t-17.5 -67v-162q0 -49 17.5 -67t66.5 -18h410q49 0 66.5 18t17.5 67v32h126v-49q0 -89 -39 -127.5t-127 -38.5h-236l-11 -30h110q28 0 40 -12t12 -40v-26q0 -28 -12 -40t-40 -12h-244v47h211
q13 0 13 13v13q0 13 -13 13h-139v22l19 52h-212q-88 0 -127 38.5t-39 127.5v196q0 89 39 127.5t127 38.5h502q88 0 127 -38.5t39 -127.5z" />
    <glyph glyph-name="egrave" unicode="&#xe8;" horiz-adv-x="956" 
d="M385 700l151 -124h-123l-182 124h154zM220 528h516q88 0 127 -38.5t39 -127.5v-114h-719v-67q0 -49 18.5 -67t67.5 -18h440q37 0 52.5 15.5t15.5 52.5v23h125v-45q0 -73 -35 -107.5t-107 -34.5h-540q-88 0 -127 38.5t-39 127.5v196q0 89 39 127.5t127 38.5zM183 354v-28
h594v28q0 49 -18.5 67t-67.5 18h-422q-49 0 -67.5 -18t-18.5 -67z" />
    <glyph glyph-name="eacute" unicode="&#xe9;" horiz-adv-x="956" 
d="M572 700h153l-181 -124h-124zM220 528h516q88 0 127 -38.5t39 -127.5v-114h-719v-67q0 -49 18.5 -67t67.5 -18h440q37 0 52.5 15.5t15.5 52.5v23h125v-45q0 -73 -35 -107.5t-107 -34.5h-540q-88 0 -127 38.5t-39 127.5v196q0 89 39 127.5t127 38.5zM183 354v-28h594v28
q0 49 -18.5 67t-67.5 18h-422q-49 0 -67.5 -18t-18.5 -67z" />
    <glyph glyph-name="ecircumflex" unicode="&#xea;" horiz-adv-x="956" 
d="M600 576l-122 72l-122 -72h-105l158 124h138l158 -124h-105zM220 528h516q88 0 127 -38.5t39 -127.5v-114h-719v-67q0 -49 18.5 -67t67.5 -18h440q37 0 52.5 15.5t15.5 52.5v23h125v-45q0 -73 -35 -107.5t-107 -34.5h-540q-88 0 -127 38.5t-39 127.5v196q0 89 39 127.5
t127 38.5zM183 354v-28h594v28q0 49 -18.5 67t-67.5 18h-422q-49 0 -67.5 -18t-18.5 -67z" />
    <glyph glyph-name="edieresis" unicode="&#xeb;" horiz-adv-x="956" 
d="M298 676h108v-88h-108v88zM550 676h108v-88h-108v88zM220 528h516q88 0 127 -38.5t39 -127.5v-114h-719v-67q0 -49 18.5 -67t67.5 -18h440q37 0 52.5 15.5t15.5 52.5v23h125v-45q0 -73 -35 -107.5t-107 -34.5h-540q-88 0 -127 38.5t-39 127.5v196q0 89 39 127.5t127 38.5
zM183 354v-28h594v28q0 49 -18.5 67t-67.5 18h-422q-49 0 -67.5 -18t-18.5 -67z" />
    <glyph glyph-name="igrave" unicode="&#xec;" horiz-adv-x="266" 
d="M191 576h-123l-182 124h154zM198 0h-131v528h131v-528z" />
    <glyph glyph-name="iacute" unicode="&#xed;" horiz-adv-x="266" 
d="M380 700l-181 -124h-124l152 124h153zM198 0h-131v528h131v-528z" />
    <glyph glyph-name="icircumflex" unicode="&#xee;" horiz-adv-x="266" 
d="M11 576h-105l158 124h138l158 -124h-105l-122 72zM198 0h-131v528h131v-528z" />
    <glyph glyph-name="idieresis" unicode="&#xef;" horiz-adv-x="266" 
d="M61 588h-108v88h108v-88zM313 588h-108v88h108v-88zM198 0h-131v528h131v-528z" />
    <glyph glyph-name="eth" unicode="&#xf0;" horiz-adv-x="966" 
d="M571 700h155q96 0 141 -45t45 -141v-372q0 -73 -35 -107.5t-107 -34.5h-574q-72 0 -107 34.5t-35 107.5v143q0 74 34.5 108t107.5 34h484q73 0 103 -38v116q0 55 -22.5 77.5t-77.5 22.5h-209l-71 -69h-88l71 69h-252v95h349l62 60h88zM783 163v105q0 37 -15.5 52.5
t-52.5 15.5h-464q-37 0 -52.5 -15.5t-15.5 -52.5v-105q0 -38 15.5 -53t52.5 -15h464q37 0 52.5 15t15.5 53z" />
    <glyph glyph-name="ntilde" unicode="&#xf1;" horiz-adv-x="970" 
d="M352 636v-60h-81v74q0 50 50 50h115q23 0 35 -4.5t27 -18.5l47 -42q12 -9 26 -9h32q15 0 15 14v60h81v-74q0 -50 -50 -50h-115q-23 0 -35 4.5t-27 18.5l-47 42q-12 9 -26 9h-32q-15 0 -15 -14zM402 528h343q88 0 127 -38.5t39 -127.5v-362h-129v342q0 49 -18 67t-67 18
h-334q-86 0 -130 -34l-40 -30v-363h-130v528h108l14 -73l9 7q51 42 92 54t116 12z" />
    <glyph glyph-name="ograve" unicode="&#xf2;" horiz-adv-x="966" 
d="M541 576h-123l-182 124h154zM746 0h-526q-88 0 -127 38.5t-39 127.5v196q0 89 39 127.5t127 38.5h526q88 0 127 -38.5t39 -127.5v-196q0 -89 -39 -127.5t-127 -38.5zM268 98h430q49 0 66.5 18t17.5 67v162q0 49 -17.5 67t-66.5 18h-430q-49 0 -66.5 -18t-17.5 -67v-162
q0 -49 17.5 -67t66.5 -18z" />
    <glyph glyph-name="oacute" unicode="&#xf3;" horiz-adv-x="966" 
d="M730 700l-181 -124h-124l152 124h153zM746 0h-526q-88 0 -127 38.5t-39 127.5v196q0 89 39 127.5t127 38.5h526q88 0 127 -38.5t39 -127.5v-196q0 -89 -39 -127.5t-127 -38.5zM268 98h430q49 0 66.5 18t17.5 67v162q0 49 -17.5 67t-66.5 18h-430q-49 0 -66.5 -18
t-17.5 -67v-162q0 -49 17.5 -67t66.5 -18z" />
    <glyph glyph-name="ocircumflex" unicode="&#xf4;" horiz-adv-x="966" 
d="M361 576h-105l158 124h138l158 -124h-105l-122 72zM746 0h-526q-88 0 -127 38.5t-39 127.5v196q0 89 39 127.5t127 38.5h526q88 0 127 -38.5t39 -127.5v-196q0 -89 -39 -127.5t-127 -38.5zM268 98h430q49 0 66.5 18t17.5 67v162q0 49 -17.5 67t-66.5 18h-430
q-49 0 -66.5 -18t-17.5 -67v-162q0 -49 17.5 -67t66.5 -18z" />
    <glyph glyph-name="otilde" unicode="&#xf5;" horiz-adv-x="966" 
d="M350 576h-81v74q0 50 50 50h115q23 0 35 -4.5t27 -18.5l47 -42q12 -9 26 -9h32q15 0 15 14v60h81v-74q0 -50 -50 -50h-115q-23 0 -35 4.5t-27 18.5l-47 42q-12 9 -26 9h-32q-15 0 -15 -14v-60zM746 0h-526q-88 0 -127 38.5t-39 127.5v196q0 89 39 127.5t127 38.5h526
q88 0 127 -38.5t39 -127.5v-196q0 -89 -39 -127.5t-127 -38.5zM268 98h430q49 0 66.5 18t17.5 67v162q0 49 -17.5 67t-66.5 18h-430q-49 0 -66.5 -18t-17.5 -67v-162q0 -49 17.5 -67t66.5 -18z" />
    <glyph glyph-name="odieresis" unicode="&#xf6;" horiz-adv-x="966" 
d="M411 588h-108v88h108v-88zM663 588h-108v88h108v-88zM746 0h-526q-88 0 -127 38.5t-39 127.5v196q0 89 39 127.5t127 38.5h526q88 0 127 -38.5t39 -127.5v-196q0 -89 -39 -127.5t-127 -38.5zM268 98h430q49 0 66.5 18t17.5 67v162q0 49 -17.5 67t-66.5 18h-430
q-49 0 -66.5 -18t-17.5 -67v-162q0 -49 17.5 -67t66.5 -18z" />
    <glyph glyph-name="divide" unicode="&#xf7;" 
d="M594 540h-156v112h156v-112zM68 298v104h896v-104h-896zM594 48h-156v112h156v-112z" />
    <glyph glyph-name="oslash" unicode="&#xf8;" horiz-adv-x="966" 
d="M942 564l-84 -62q54 -36 54 -140v-196q0 -89 -39 -127.5t-127 -38.5h-526q-8 0 -42 2l-52 -38h-102l84 62q-54 36 -54 140v196q0 89 39 127.5t127 38.5h526q8 0 42 -2l52 38h102zM180 349v-170q0 -62 32 -77l451 332h-399q-49 0 -66.5 -18t-17.5 -67zM786 179v170
q0 62 -32 77l-451 -332h399q49 0 66.5 18t17.5 67z" />
    <glyph glyph-name="ugrave" unicode="&#xf9;" horiz-adv-x="970" 
d="M392 700l151 -124h-123l-182 124h154zM777 528h130v-528h-108l-14 73l-9 -7q-51 -42 -91 -54q-41 -12 -117 -12h-343q-88 0 -127 38.5t-39 127.5v362h129v-342q0 -49 18 -67t67 -18h334q86 0 130 34l40 30v363z" />
    <glyph glyph-name="uacute" unicode="&#xfa;" horiz-adv-x="970" 
d="M579 700h153l-181 -124h-124zM777 528h130v-528h-108l-14 73l-9 -7q-51 -42 -91 -54q-41 -12 -117 -12h-343q-88 0 -127 38.5t-39 127.5v362h129v-342q0 -49 18 -67t67 -18h334q86 0 130 34l40 30v363z" />
    <glyph glyph-name="ucircumflex" unicode="&#xfb;" horiz-adv-x="970" 
d="M607 576l-122 72l-122 -72h-105l158 124h138l158 -124h-105zM777 528h130v-528h-108l-14 73l-9 -7q-51 -42 -91 -54q-41 -12 -117 -12h-343q-88 0 -127 38.5t-39 127.5v362h129v-342q0 -49 18 -67t67 -18h334q86 0 130 34l40 30v363z" />
    <glyph glyph-name="udieresis" unicode="&#xfc;" horiz-adv-x="970" 
d="M305 676h108v-88h-108v88zM557 676h108v-88h-108v88zM777 528h130v-528h-108l-14 73l-9 -7q-51 -42 -91 -54q-41 -12 -117 -12h-343q-88 0 -127 38.5t-39 127.5v362h129v-342q0 -49 18 -67t67 -18h334q86 0 130 34l40 30v363z" />
    <glyph glyph-name="yacute" unicode="&#xfd;" horiz-adv-x="938" 
d="M563 700h153l-181 -124h-124zM471 113l311 415h154l-422 -540q-68 -87 -125 -118q-59 -30 -164 -30h-169v98h181q57 0 89 17t69 66l1 2l-394 505h159z" />
    <glyph glyph-name="thorn" unicode="&#xfe;" horiz-adv-x="975" 
d="M402 528h353q88 0 127 -38.5t39 -127.5v-196q0 -89 -39 -127.5t-127 -38.5h-353q-76 0 -116 12q-41 12 -92 54l-1 1v-227h-130v860h130v-239l1 1q51 42 92 54t116 12zM792 183v162q0 49 -18 67t-67 18h-344q-83 0 -130 -35l-40 -30v-202l40 -30q47 -35 130 -35h344
q49 0 67 18t18 67z" />
    <glyph glyph-name="ydieresis" unicode="&#xff;" horiz-adv-x="938" 
d="M289 676h108v-88h-108v88zM541 676h108v-88h-108v88zM471 113l311 415h154l-422 -540q-68 -87 -125 -118q-59 -30 -164 -30h-169v98h181q57 0 89 17t69 66l1 2l-394 505h159z" />
    <glyph glyph-name="Amacron" unicode="&#x100;" horiz-adv-x="1112" 
d="M320 844h472v-66h-472v66zM1116 0h-158l-107 159h-596l-107 -159h-152l486 700h148zM553 601l-227 -337h454z" />
    <glyph glyph-name="amacron" unicode="&#x101;" horiz-adv-x="961" 
d="M252 672h472v-66h-472v66zM220 528h516q88 0 127 -38.5t39 -127.5v-362h-107l-14 71l-17 -13q-47 -38 -80 -48t-105 -10h-401q-124 0 -124 124v55q0 124 124 124h595v52q0 48 -18.5 66t-67.5 18h-416q-37 0 -52.5 -15t-15.5 -53v-19h-125v34q0 73 35 107.5t107 34.5z
M727 114l46 34v83h-528q-34 0 -48 -14t-14 -48v-24q0 -35 13.5 -48.5t48.5 -13.5h372q67 0 110 31z" />
    <glyph glyph-name="Abreve" unicode="&#x102;" horiz-adv-x="1112" 
d="M708 748h-304q-73 0 -73 73v51h94v-36q0 -30 30 -30h202q30 0 30 30v36h94v-51q0 -73 -73 -73zM1116 0h-158l-107 159h-596l-107 -159h-152l486 700h148zM553 601l-227 -337h454z" />
    <glyph glyph-name="abreve" unicode="&#x103;" horiz-adv-x="961" 
d="M640 576h-304q-73 0 -73 73v51h94v-36q0 -30 30 -30h202q30 0 30 30v36h94v-51q0 -73 -73 -73zM220 528h516q88 0 127 -38.5t39 -127.5v-362h-107l-14 71l-17 -13q-47 -38 -80 -48t-105 -10h-401q-124 0 -124 124v55q0 124 124 124h595v52q0 48 -18.5 66t-67.5 18h-416
q-37 0 -52.5 -15t-15.5 -53v-19h-125v34q0 73 35 107.5t107 34.5zM727 114l46 34v83h-528q-34 0 -48 -14t-14 -48v-24q0 -35 13.5 -48.5t48.5 -13.5h372q67 0 110 31z" />
    <glyph glyph-name="Aogonek" unicode="&#x104;" horiz-adv-x="1112" 
d="M956 -90h173v-70h-210q-42 0 -61 19t-19 61v17q0 33 9.5 48.5t38.5 30.5l45 22l-81 121h-596l-107 -159h-152l486 700h148l486 -700h-128l-41 -17q-15 -6 -18.5 -11.5t-3.5 -18.5v-12q0 -17 7 -24t24 -7zM553 601l-227 -337h454z" />
    <glyph glyph-name="aogonek" unicode="&#x105;" horiz-adv-x="953" 
d="M820 -90h117v-70h-154q-41 0 -60.5 19t-19.5 61v16q0 31 10 47.5t39 33.5l36 20l-7 34l-17 -13q-47 -38 -80 -48t-105 -10h-401q-124 0 -124 124v55q0 124 124 124h595v52q0 48 -18.5 66t-67.5 18h-416q-37 0 -52.5 -15t-15.5 -53v-19h-125v34q0 73 35 107.5t107 34.5
h516q88 0 127 -38.5t39 -127.5v-362h-57l-33 -16q-23 -11 -23 -32v-11q0 -17 7 -24t24 -7zM727 114l46 34v83h-528q-34 0 -48 -14t-14 -48v-24q0 -35 13.5 -48.5t48.5 -13.5h372q67 0 110 31z" />
    <glyph glyph-name="Cacute" unicode="&#x106;" horiz-adv-x="1080" 
d="M787 872l-181 -124h-124l152 124h153zM843 0h-602q-96 0 -141 45t-45 141v328q0 96 45 141t141 45h602q96 0 141 -45t45 -141v-74h-132v52q0 55 -22.5 77.5t-77.5 22.5h-506q-55 0 -77.5 -22.5t-22.5 -77.5v-284q0 -55 22.5 -77.5t77.5 -22.5h506q55 0 77.5 22.5
t22.5 77.5v61h132v-83q0 -96 -45 -141t-141 -45z" />
    <glyph glyph-name="cacute" unicode="&#x107;" horiz-adv-x="942" 
d="M718 700l-181 -124h-124l152 124h153zM54 166v196q0 89 39 127.5t127 38.5h502q88 0 127 -38.5t39 -127.5v-41h-126v24q0 49 -17.5 67t-66.5 18h-410q-49 0 -66.5 -18t-17.5 -67v-162q0 -49 17.5 -67t66.5 -18h410q49 0 66.5 18t17.5 67v32h126v-49q0 -89 -39 -127.5
t-127 -38.5h-502q-88 0 -127 38.5t-39 127.5z" />
    <glyph glyph-name="Ccircumflex" unicode="&#x108;" horiz-adv-x="1080" 
d="M418 748h-105l158 124h138l158 -124h-105l-122 72zM843 0h-602q-96 0 -141 45t-45 141v328q0 96 45 141t141 45h602q96 0 141 -45t45 -141v-74h-132v52q0 55 -22.5 77.5t-77.5 22.5h-506q-55 0 -77.5 -22.5t-22.5 -77.5v-284q0 -55 22.5 -77.5t77.5 -22.5h506
q55 0 77.5 22.5t22.5 77.5v61h132v-83q0 -96 -45 -141t-141 -45z" />
    <glyph glyph-name="ccircumflex" unicode="&#x109;" horiz-adv-x="942" 
d="M349 576h-105l158 124h138l158 -124h-105l-122 72zM54 166v196q0 89 39 127.5t127 38.5h502q88 0 127 -38.5t39 -127.5v-41h-126v24q0 49 -17.5 67t-66.5 18h-410q-49 0 -66.5 -18t-17.5 -67v-162q0 -49 17.5 -67t66.5 -18h410q49 0 66.5 18t17.5 67v32h126v-49
q0 -89 -39 -127.5t-127 -38.5h-502q-88 0 -127 38.5t-39 127.5z" />
    <glyph glyph-name="Cdotaccent" unicode="&#x10a;" horiz-adv-x="1080" 
d="M605 760h-131v88h131v-88zM843 0h-602q-96 0 -141 45t-45 141v328q0 96 45 141t141 45h602q96 0 141 -45t45 -141v-74h-132v52q0 55 -22.5 77.5t-77.5 22.5h-506q-55 0 -77.5 -22.5t-22.5 -77.5v-284q0 -55 22.5 -77.5t77.5 -22.5h506q55 0 77.5 22.5t22.5 77.5v61h132
v-83q0 -96 -45 -141t-141 -45z" />
    <glyph glyph-name="cdotaccent" unicode="&#x10b;" horiz-adv-x="942" 
d="M536 588h-131v88h131v-88zM54 166v196q0 89 39 127.5t127 38.5h502q88 0 127 -38.5t39 -127.5v-41h-126v24q0 49 -17.5 67t-66.5 18h-410q-49 0 -66.5 -18t-17.5 -67v-162q0 -49 17.5 -67t66.5 -18h410q49 0 66.5 18t17.5 67v32h126v-49q0 -89 -39 -127.5t-127 -38.5
h-502q-88 0 -127 38.5t-39 127.5z" />
    <glyph glyph-name="Ccaron" unicode="&#x10c;" horiz-adv-x="1080" 
d="M662 872h105l-158 -124h-138l-158 124h105l122 -72zM843 0h-602q-96 0 -141 45t-45 141v328q0 96 45 141t141 45h602q96 0 141 -45t45 -141v-74h-132v52q0 55 -22.5 77.5t-77.5 22.5h-506q-55 0 -77.5 -22.5t-22.5 -77.5v-284q0 -55 22.5 -77.5t77.5 -22.5h506
q55 0 77.5 22.5t22.5 77.5v61h132v-83q0 -96 -45 -141t-141 -45z" />
    <glyph glyph-name="ccaron" unicode="&#x10d;" horiz-adv-x="942" 
d="M593 700h105l-158 -124h-138l-158 124h105l122 -72zM54 166v196q0 89 39 127.5t127 38.5h502q88 0 127 -38.5t39 -127.5v-41h-126v24q0 49 -17.5 67t-66.5 18h-410q-49 0 -66.5 -18t-17.5 -67v-162q0 -49 17.5 -67t66.5 -18h410q49 0 66.5 18t17.5 67v32h126v-49
q0 -89 -39 -127.5t-127 -38.5h-502q-88 0 -127 38.5t-39 127.5z" />
    <glyph glyph-name="Dcaron" unicode="&#x10e;" horiz-adv-x="1107" 
d="M680 872h105l-158 -124h-138l-158 124h105l122 -72zM822 0h-758v700h758q112 0 171 -58.5t59 -171.5v-240q0 -113 -59 -171.5t-171 -58.5zM200 590v-480h588q128 0 128 128v224q0 128 -128 128h-588z" />
    <glyph glyph-name="dcaron" unicode="&#x10f;" horiz-adv-x="1102" 
d="M781 462l1 -1v239h130v-700h-108l-14 73l-9 -7q-51 -42 -91 -54t-116 -12h-354q-88 0 -127 38.5t-39 127.5v196q0 89 39 127.5t127 38.5h354q76 0 116 -12t91 -54zM958 604v96h132v-49q0 -40 -22 -77l-37 -70h-65l45 100h-53zM743 133l39 30v202l-39 30q-49 35 -131 35
h-344q-49 0 -66.5 -18t-17.5 -67v-162q0 -49 17.5 -67t66.5 -18h344q82 0 131 35z" />
    <glyph glyph-name="Dcroat" unicode="&#x110;" horiz-adv-x="1167" 
d="M124 700h758q112 0 171 -58.5t59 -171.5v-240q0 -113 -59 -171.5t-171 -58.5h-758v311h-92v78h92v311zM976 238v224q0 128 -128 128h-588v-201h408v-78h-408v-201h588q128 0 128 128z" />
    <glyph glyph-name="dslash" unicode="&#x111;" horiz-adv-x="1016" 
d="M912 641h82v-62h-82v-579h-108l-14 73l-9 -7q-51 -42 -91 -54t-116 -12h-354q-88 0 -127 38.5t-39 127.5v196q0 89 39 127.5t127 38.5h354q76 0 116 -12t91 -54l1 -1v118h-338v62h338v59h130v-59zM743 133l39 30v202l-39 30q-49 35 -131 35h-344q-49 0 -66.5 -18
t-17.5 -67v-162q0 -49 17.5 -67t66.5 -18h344q82 0 131 35z" />
    <glyph glyph-name="Emacron" unicode="&#x112;" horiz-adv-x="986" 
d="M257 844h472v-66h-472v66zM200 315v-208h754v-107h-890v700h880v-107h-744v-181h704v-97h-704z" />
    <glyph glyph-name="emacron" unicode="&#x113;" horiz-adv-x="956" 
d="M242 672h472v-66h-472v66zM220 528h516q88 0 127 -38.5t39 -127.5v-114h-719v-67q0 -49 18.5 -67t67.5 -18h440q37 0 52.5 15.5t15.5 52.5v23h125v-45q0 -73 -35 -107.5t-107 -34.5h-540q-88 0 -127 38.5t-39 127.5v196q0 89 39 127.5t127 38.5zM183 354v-28h594v28
q0 49 -18.5 67t-67.5 18h-422q-49 0 -67.5 -18t-18.5 -67z" />
    <glyph glyph-name="Ebreve" unicode="&#x114;" horiz-adv-x="986" 
d="M645 748h-304q-73 0 -73 73v51h94v-36q0 -30 30 -30h202q30 0 30 30v36h94v-51q0 -73 -73 -73zM200 315v-208h754v-107h-890v700h880v-107h-744v-181h704v-97h-704z" />
    <glyph glyph-name="ebreve" unicode="&#x115;" horiz-adv-x="956" 
d="M630 576h-304q-73 0 -73 73v51h94v-36q0 -30 30 -30h202q30 0 30 30v36h94v-51q0 -73 -73 -73zM220 528h516q88 0 127 -38.5t39 -127.5v-114h-719v-67q0 -49 18.5 -67t67.5 -18h440q37 0 52.5 15.5t15.5 52.5v23h125v-45q0 -73 -35 -107.5t-107 -34.5h-540
q-88 0 -127 38.5t-39 127.5v196q0 89 39 127.5t127 38.5zM183 354v-28h594v28q0 49 -18.5 67t-67.5 18h-422q-49 0 -67.5 -18t-18.5 -67z" />
    <glyph glyph-name="Edotaccent" unicode="&#x116;" horiz-adv-x="986" 
d="M427 848h131v-88h-131v88zM200 315v-208h754v-107h-890v700h880v-107h-744v-181h704v-97h-704z" />
    <glyph glyph-name="edotaccent" unicode="&#x117;" horiz-adv-x="956" 
d="M412 676h131v-88h-131v88zM220 528h516q88 0 127 -38.5t39 -127.5v-114h-719v-67q0 -49 18.5 -67t67.5 -18h440q37 0 52.5 15.5t15.5 52.5v23h125v-45q0 -73 -35 -107.5t-107 -34.5h-540q-88 0 -127 38.5t-39 127.5v196q0 89 39 127.5t127 38.5zM183 354v-28h594v28
q0 49 -18.5 67t-67.5 18h-422q-49 0 -67.5 -18t-18.5 -67z" />
    <glyph glyph-name="Eogonek" unicode="&#x118;" horiz-adv-x="986" 
d="M782 0l-41 -17q-15 -6 -18.5 -11.5t-3.5 -18.5v-12q0 -17 7 -24t24 -7h173v-70h-210q-42 0 -61 19t-19 61v17q0 47 22 63h-591v700h880v-107h-744v-181h704v-97h-704v-208h754v-107h-172z" />
    <glyph glyph-name="eogonek" unicode="&#x119;" horiz-adv-x="956" 
d="M220 528h516q88 0 127 -38.5t39 -127.5v-114h-719v-67q0 -49 18.5 -67t67.5 -18h440q37 0 52.5 15.5t15.5 52.5v23h125v-45q0 -73 -35 -107.5t-107 -34.5h-197l-41 -17q-15 -6 -18.5 -11.5t-3.5 -18.5v-12q0 -17 7 -24t24 -7h173v-70h-210q-42 0 -61 19t-19 61v17
q0 47 22 63h-216q-88 0 -127 38.5t-39 127.5v196q0 89 39 127.5t127 38.5zM183 354v-28h594v28q0 49 -18.5 67t-67.5 18h-422q-49 0 -67.5 -18t-18.5 -67z" />
    <glyph glyph-name="Ecaron" unicode="&#x11a;" horiz-adv-x="986" 
d="M720 872l-158 -124h-138l-158 124h105l122 -72l122 72h105zM200 315v-208h754v-107h-890v700h880v-107h-744v-181h704v-97h-704z" />
    <glyph glyph-name="ecaron" unicode="&#x11b;" horiz-adv-x="956" 
d="M705 700l-158 -124h-138l-158 124h105l122 -72l122 72h105zM220 528h516q88 0 127 -38.5t39 -127.5v-114h-719v-67q0 -49 18.5 -67t67.5 -18h440q37 0 52.5 15.5t15.5 52.5v23h125v-45q0 -73 -35 -107.5t-107 -34.5h-540q-88 0 -127 38.5t-39 127.5v196q0 89 39 127.5
t127 38.5zM183 354v-28h594v28q0 49 -18.5 67t-67.5 18h-422q-49 0 -67.5 -18t-18.5 -67z" />
    <glyph glyph-name="Gcircumflex" unicode="&#x11c;" horiz-adv-x="1107" 
d="M432 748h-105l158 124h138l158 -124h-105l-122 72zM55 186v328q0 96 45 141t141 45h626q96 0 141 -45t45 -141v-42h-136v21q0 55 -22.5 77.5t-77.5 22.5h-526q-55 0 -77.5 -22.5t-22.5 -77.5v-289q0 -56 22.5 -78t77.5 -22h530q55 0 77.5 22.5t22.5 77.5v72h-350v99h482
v-189q0 -96 -45 -141t-141 -45h-626q-96 0 -141 45t-45 141z" />
    <glyph glyph-name="gcircumflex" unicode="&#x11d;" horiz-adv-x="975" 
d="M609 576l-122 72l-122 -72h-105l158 124h138l158 -124h-105zM791 455l14 73h107v-502q0 -96 -45 -141t-141 -45h-652v92h608q55 0 77.5 22.5t22.5 77.5v72l-1 -1q-52 -41 -93 -53q-40 -13 -115 -13h-353q-88 0 -127 38.5t-39 127.5v159q0 89 39 127.5t127 38.5h353
q74 0 116 -12t92 -53zM742 168l40 29v171l-40 30q-44 34 -130 34h-344q-49 0 -67 -18t-18 -67v-129q0 -49 18 -67t67 -18h344q83 0 130 35z" />
    <glyph glyph-name="Gbreve" unicode="&#x11e;" horiz-adv-x="1107" 
d="M706 748h-304q-73 0 -73 73v51h94v-36q0 -30 30 -30h202q30 0 30 30v36h94v-51q0 -73 -73 -73zM55 186v328q0 96 45 141t141 45h626q96 0 141 -45t45 -141v-42h-136v21q0 55 -22.5 77.5t-77.5 22.5h-526q-55 0 -77.5 -22.5t-22.5 -77.5v-289q0 -56 22.5 -78t77.5 -22h530
q55 0 77.5 22.5t22.5 77.5v72h-350v99h482v-189q0 -96 -45 -141t-141 -45h-626q-96 0 -141 45t-45 141z" />
    <glyph glyph-name="gbreve" unicode="&#x11f;" horiz-adv-x="975" 
d="M639 576h-304q-73 0 -73 73v51h94v-36q0 -30 30 -30h202q30 0 30 30v36h94v-51q0 -73 -73 -73zM791 455l14 73h107v-502q0 -96 -45 -141t-141 -45h-652v92h608q55 0 77.5 22.5t22.5 77.5v72l-1 -1q-52 -41 -93 -53q-40 -13 -115 -13h-353q-88 0 -127 38.5t-39 127.5v159
q0 89 39 127.5t127 38.5h353q74 0 116 -12t92 -53zM742 168l40 29v171l-40 30q-44 34 -130 34h-344q-49 0 -67 -18t-18 -67v-129q0 -49 18 -67t67 -18h344q83 0 130 35z" />
    <glyph glyph-name="Gdotaccent" unicode="&#x120;" horiz-adv-x="1107" 
d="M619 760h-131v88h131v-88zM55 186v328q0 96 45 141t141 45h626q96 0 141 -45t45 -141v-42h-136v21q0 55 -22.5 77.5t-77.5 22.5h-526q-55 0 -77.5 -22.5t-22.5 -77.5v-289q0 -56 22.5 -78t77.5 -22h530q55 0 77.5 22.5t22.5 77.5v72h-350v99h482v-189q0 -96 -45 -141
t-141 -45h-626q-96 0 -141 45t-45 141z" />
    <glyph glyph-name="gdotaccent" unicode="&#x121;" horiz-adv-x="975" 
d="M421 676h131v-88h-131v88zM791 455l14 73h107v-502q0 -96 -45 -141t-141 -45h-652v92h608q55 0 77.5 22.5t22.5 77.5v72l-1 -1q-52 -41 -93 -53q-40 -13 -115 -13h-353q-88 0 -127 38.5t-39 127.5v159q0 89 39 127.5t127 38.5h353q74 0 116 -12t92 -53zM742 168l40 29
v171l-40 30q-44 34 -130 34h-344q-49 0 -67 -18t-18 -67v-129q0 -49 18 -67t67 -18h344q83 0 130 35z" />
    <glyph glyph-name="Gcommaaccent" unicode="&#x122;" horiz-adv-x="1107" 
d="M55 186v328q0 96 45 141t141 45h626q96 0 141 -45t45 -141v-42h-136v21q0 55 -22.5 77.5t-77.5 22.5h-526q-55 0 -77.5 -22.5t-22.5 -77.5v-289q0 -56 22.5 -78t77.5 -22h530q55 0 77.5 22.5t22.5 77.5v72h-350v99h482v-189q0 -96 -45 -141t-141 -45h-626q-96 0 -141 45
t-45 141zM561 -196h-65l45 82h-53v84h132v-35q0 -25 -4.5 -38.5t-19.5 -35.5z" />
    <glyph glyph-name="gcommaaccent" unicode="&#x123;" horiz-adv-x="975" 
d="M504 660h45v-84h-124v35q0 25 4 39t18 35l33 57h65zM791 455l14 73h107v-502q0 -96 -45 -141t-141 -45h-652v92h608q55 0 77.5 22.5t22.5 77.5v72l-1 -1q-52 -41 -93 -53q-40 -13 -115 -13h-353q-88 0 -127 38.5t-39 127.5v159q0 89 39 127.5t127 38.5h353q74 0 116 -12
t92 -53zM742 168l40 29v171l-40 30q-44 34 -130 34h-344q-49 0 -67 -18t-18 -67v-129q0 -49 18 -67t67 -18h344q83 0 130 35z" />
    <glyph glyph-name="Hcircumflex" unicode="&#x124;" horiz-adv-x="1096" 
d="M670 748l-122 72l-122 -72h-105l158 124h138l158 -124h-105zM896 423v277h136v-700h-136v309h-696v-309h-136v700h136v-277h696z" />
    <glyph glyph-name="hcircumflex" unicode="&#x125;" horiz-adv-x="970" 
d="M355 748h-105l-122 72l-122 -72h-105l158 124h138zM406 528h339q88 0 127 -38.5t39 -127.5v-362h-129v342q0 49 -18 67t-67 18h-334q-86 0 -130 -34l-40 -30v-363h-130v700h130v-242l5 4q51 42 92 54q40 12 116 12z" />
    <glyph glyph-name="Hbar" unicode="&#x126;" horiz-adv-x="1216" 
d="M1092 599h92v-71h-92v-528h-136v309h-696v-309h-136v528h-92v71h92v101h136v-101h696v101h136v-101zM260 423h696v105h-696v-105z" />
    <glyph glyph-name="hbar" unicode="&#x127;" horiz-adv-x="1011" 
d="M453 528h339q88 0 127 -38.5t39 -127.5v-362h-129v342q0 49 -18 67t-67 18h-334q-86 0 -130 -34l-40 -30v-363h-130v579h-88v62h88v59h130v-59h332v-62h-332v-121l5 4q51 42 92 54t116 12z" />
    <glyph glyph-name="Itilde" unicode="&#x128;" horiz-adv-x="276" 
d="M5 748h-81v74q0 50 50 50h115q23 0 35 -4.5t27 -18.5l47 -42q12 -9 26 -9h32q15 0 15 14v60h81v-74q0 -50 -50 -50h-115q-23 0 -35 4.5t-27 18.5l-47 42q-12 9 -26 9h-32q-15 0 -15 -14v-60zM69 0v700h138v-700h-138z" />
    <glyph glyph-name="itilde" unicode="&#x129;" horiz-adv-x="266" 
d="M-81 576h-81v74q0 50 50 50h115q23 0 35 -4.5t27 -18.5l47 -42q12 -9 26 -9h32q15 0 15 14v60h81v-74q0 -50 -50 -50h-115q-23 0 -35 4.5t-27 18.5l-47 42q-12 9 -26 9h-32q-15 0 -15 -14v-60zM117 0h-131v528h131v-528z" />
    <glyph glyph-name="Imacron" unicode="&#x12a;" horiz-adv-x="276" 
d="M374 778h-472v66h472v-66zM69 0v700h138v-700h-138z" />
    <glyph glyph-name="imacron" unicode="&#x12b;" horiz-adv-x="266" 
d="M369 606h-472v66h472v-66zM198 0h-131v528h131v-528z" />
    <glyph glyph-name="Ibreve" unicode="&#x12c;" horiz-adv-x="276" 
d="M290 748h-304q-73 0 -73 73v51h94v-36q0 -30 30 -30h202q30 0 30 30v36h94v-51q0 -73 -73 -73zM69 0v700h138v-700h-138z" />
    <glyph glyph-name="ibreve" unicode="&#x12d;" horiz-adv-x="266" 
d="M285 576h-304q-73 0 -73 73v51h94v-36q0 -30 30 -30h202q30 0 30 30v36h94v-51q0 -73 -73 -73zM198 0h-131v528h131v-528z" />
    <glyph glyph-name="Iogonek" unicode="&#x12e;" horiz-adv-x="276" 
d="M71 -90h173v-70h-210q-42 0 -61 19t-19 61v17q0 33 9.5 48.5t38.5 30.5l67 32v652h138v-700h-104l-41 -17q-15 -6 -18.5 -11.5t-3.5 -18.5v-12q0 -17 7 -24t24 -7z" />
    <glyph glyph-name="iogonek" unicode="&#x12f;" horiz-adv-x="266" 
d="M67 676h131v-88h-131v88zM61 -90h173v-70h-210q-42 0 -61 19t-19 61v17q0 33 9.5 48.5t38.5 30.5l75 36v476h131v-528h-105l-41 -17q-15 -6 -18.5 -11.5t-3.5 -18.5v-12q0 -17 7 -24t24 -7z" />
    <glyph glyph-name="Idot" unicode="&#x130;" horiz-adv-x="276" 
d="M207 760h-138v88h138v-88zM69 0v700h138v-700h-138z" />
    <glyph glyph-name="dotlessi" unicode="&#x131;" horiz-adv-x="266" 
d="M198 0h-131v528h131v-528z" />
    <glyph glyph-name="IJ" unicode="&#x132;" horiz-adv-x="1268" 
d="M69 0v700h138v-700h-138zM1026 0h-532q-96 0 -141 45t-45 141v82h132v-60q0 -55 22.5 -77.5t77.5 -22.5h436q55 0 77.5 22.5t22.5 77.5v492h136v-514q0 -96 -45 -141t-141 -45z" />
    <glyph glyph-name="ij" unicode="&#x133;" horiz-adv-x="618" 
d="M199 601h-132v99h132v-99zM552 601h-132v99h132v-99zM199 0h-132v528h132v-528zM410 -160h-279v95h221q38 0 53 15t15 53v525h132v-546q0 -73 -35 -107.5t-107 -34.5z" />
    <glyph glyph-name="Jcircumflex" unicode="&#x134;" horiz-adv-x="992" 
d="M746 748h-105l158 124h138l158 -124h-105l-122 72zM750 0h-532q-96 0 -141 45t-45 141v82h132v-60q0 -55 22.5 -77.5t77.5 -22.5h436q55 0 77.5 22.5t22.5 77.5v492h136v-514q0 -96 -45 -141t-141 -45z" />
    <glyph glyph-name="jcircumflex" unicode="&#x135;" horiz-adv-x="366" 
d="M111 576h-105l158 124h138l158 -124h-105l-122 72zM156 -160h-278v94h221q37 0 52.5 15t15.5 53v526h131v-546q0 -74 -34.5 -108t-107.5 -34z" />
    <glyph glyph-name="Kcommaaccent" unicode="&#x136;" horiz-adv-x="1019" 
d="M1009 700l-615 -338l619 -362h-243l-570 342v-342h-136v700h136v-325l565 325h244zM467 -114h-53v84h132v-35q0 -25 -4.5 -38.5t-19.5 -35.5l-35 -57h-65z" />
    <glyph glyph-name="kcommaaccent" unicode="&#x137;" horiz-adv-x="908" 
d="M912 528l-514 -262l520 -266h-253l-472 248v-248h-130v700h130v-422l468 250h251zM411 -114h-53v84h132v-35q0 -25 -4.5 -38.5t-19.5 -35.5l-35 -57h-65z" />
    <glyph glyph-name="Lacute" unicode="&#x139;" horiz-adv-x="920" 
d="M226 872h153l-181 -124h-124zM200 700v-586h704v-114h-840v700h136z" />
    <glyph glyph-name="lacute" unicode="&#x13a;" horiz-adv-x="266" 
d="M380 872l-181 -124h-124l152 124h153zM198 0h-131v700h131v-700z" />
    <glyph glyph-name="Lcommaaccent" unicode="&#x13b;" horiz-adv-x="920" 
d="M200 700v-586h704v-114h-840v700h136zM447 -114h-53v84h132v-35q0 -25 -4.5 -38.5t-19.5 -35.5l-35 -57h-65z" />
    <glyph glyph-name="lcommaaccent" unicode="&#x13c;" horiz-adv-x="266" 
d="M198 0h-131v700h131v-700zM140 -196h-65l45 82h-53v84h132v-35q0 -25 -4.5 -38.5t-19.5 -35.5z" />
    <glyph glyph-name="Lcaron" unicode="&#x13d;" horiz-adv-x="920" 
d="M200 700v-586h704v-114h-840v700h136zM443 504h-65l45 100h-53v96h132v-49q0 -40 -22 -77z" />
    <glyph glyph-name="lcaron" unicode="&#x13e;" horiz-adv-x="394" 
d="M198 0h-131v700h131v-700zM324 504h-66l46 100h-54v96h132v-49q0 -41 -21 -77z" />
    <glyph glyph-name="Ldot" unicode="&#x13f;" horiz-adv-x="920" 
d="M200 700v-586h704v-114h-840v700h136zM452 482h156v-148h-156v148z" />
    <glyph glyph-name="ldot" unicode="&#x140;" horiz-adv-x="438" 
d="M198 0h-131v700h131v-700zM422 310h-156v148h156v-148z" />
    <glyph glyph-name="Lslash" unicode="&#x141;" horiz-adv-x="980" 
d="M260 343v-229h704v-114h-840v323l-92 -13v80l92 13v297h136v-277l462 67v-80z" />
    <glyph glyph-name="lslash" unicode="&#x142;" horiz-adv-x="351" 
d="M241 413l88 17v-80l-88 -17v-333h-131v307l-88 -17v80l88 17v313h131v-287z" />
    <glyph glyph-name="Nacute" unicode="&#x143;" horiz-adv-x="1116" 
d="M652 872h153l-181 -124h-124zM920 155v545h132v-700h-110l-746 550v-550h-132v700h116z" />
    <glyph glyph-name="nacute" unicode="&#x144;" horiz-adv-x="970" 
d="M579 700h153l-181 -124h-124zM402 528h343q88 0 127 -38.5t39 -127.5v-362h-129v342q0 49 -18 67t-67 18h-334q-86 0 -130 -34l-40 -30v-363h-130v528h108l14 -73l9 7q51 42 92 54t116 12z" />
    <glyph glyph-name="Ncommaaccent" unicode="&#x145;" horiz-adv-x="1116" 
d="M920 155v545h132v-700h-110l-746 550v-550h-132v700h116zM545 -114h-53v84h132v-35q0 -25 -4.5 -38.5t-19.5 -35.5l-35 -57h-65z" />
    <glyph glyph-name="ncommaaccent" unicode="&#x146;" horiz-adv-x="970" 
d="M402 528h343q88 0 127 -38.5t39 -127.5v-362h-129v342q0 49 -18 67t-67 18h-334q-86 0 -130 -34l-40 -30v-363h-130v528h108l14 -73l9 7q51 42 92 54t116 12zM472 -114h-53v84h132v-35q0 -25 -4.5 -38.5t-19.5 -35.5l-35 -57h-65z" />
    <glyph glyph-name="Ncaron" unicode="&#x147;" horiz-adv-x="1116" 
d="M785 872l-158 -124h-138l-158 124h105l122 -72l122 72h105zM920 155v545h132v-700h-110l-746 550v-550h-132v700h116z" />
    <glyph glyph-name="ncaron" unicode="&#x148;" horiz-adv-x="970" 
d="M712 700l-158 -124h-138l-158 124h105l122 -72l122 72h105zM402 528h343q88 0 127 -38.5t39 -127.5v-362h-129v342q0 49 -18 67t-67 18h-334q-86 0 -130 -34l-40 -30v-363h-130v528h108l14 -73l9 7q51 42 92 54t116 12z" />
    <glyph glyph-name="Eng" unicode="&#x14a;" horiz-adv-x="1116" 
d="M920 155v545h132v-684q0 -92 -42.5 -134t-133.5 -42h-192v94h146q49 0 69 17.5t21 64.5l-724 534v-550h-132v700h116z" />
    <glyph glyph-name="eng" unicode="&#x14b;" horiz-adv-x="970" 
d="M402 528h343q88 0 127 -38.5t39 -127.5v-380q0 -74 -34.5 -108t-107.5 -34h-207v94h152q38 0 53 15t15 53v340q0 49 -18 67t-67 18h-334q-86 0 -130 -34l-40 -30v-363h-130v528h108l14 -73l9 7q51 42 92 54t116 12z" />
    <glyph glyph-name="Omacron" unicode="&#x14c;" horiz-adv-x="1108" 
d="M790 778h-472v66h472v-66zM867 0h-626q-96 0 -141 45t-45 141v328q0 96 45 141t141 45h626q96 0 141 -45t45 -141v-328q0 -96 -45 -141t-141 -45zM291 110h526q55 0 77.5 22.5t22.5 77.5v280q0 55 -22.5 77.5t-77.5 22.5h-526q-55 0 -77.5 -22t-22.5 -78v-280
q0 -56 22.5 -78t77.5 -22z" />
    <glyph glyph-name="omacron" unicode="&#x14d;" horiz-adv-x="966" 
d="M719 606h-472v66h472v-66zM746 0h-526q-88 0 -127 38.5t-39 127.5v196q0 89 39 127.5t127 38.5h526q88 0 127 -38.5t39 -127.5v-196q0 -89 -39 -127.5t-127 -38.5zM268 98h430q49 0 66.5 18t17.5 67v162q0 49 -17.5 67t-66.5 18h-430q-49 0 -66.5 -18t-17.5 -67v-162
q0 -49 17.5 -67t66.5 -18z" />
    <glyph glyph-name="Obreve" unicode="&#x14e;" horiz-adv-x="1108" 
d="M706 748h-304q-73 0 -73 73v51h94v-36q0 -30 30 -30h202q30 0 30 30v36h94v-51q0 -73 -73 -73zM867 0h-626q-96 0 -141 45t-45 141v328q0 96 45 141t141 45h626q96 0 141 -45t45 -141v-328q0 -96 -45 -141t-141 -45zM291 110h526q55 0 77.5 22.5t22.5 77.5v280
q0 55 -22.5 77.5t-77.5 22.5h-526q-55 0 -77.5 -22t-22.5 -78v-280q0 -56 22.5 -78t77.5 -22z" />
    <glyph glyph-name="obreve" unicode="&#x14f;" horiz-adv-x="966" 
d="M635 576h-304q-73 0 -73 73v51h94v-36q0 -30 30 -30h202q30 0 30 30v36h94v-51q0 -73 -73 -73zM746 0h-526q-88 0 -127 38.5t-39 127.5v196q0 89 39 127.5t127 38.5h526q88 0 127 -38.5t39 -127.5v-196q0 -89 -39 -127.5t-127 -38.5zM268 98h430q49 0 66.5 18t17.5 67
v162q0 49 -17.5 67t-66.5 18h-430q-49 0 -66.5 -18t-17.5 -67v-162q0 -49 17.5 -67t66.5 -18z" />
    <glyph glyph-name="Ohungarumlaut" unicode="&#x150;" horiz-adv-x="1108" 
d="M610 872l-138 -124h-112l112 124h138zM853 872l-138 -124h-112l112 124h138zM867 0h-626q-96 0 -141 45t-45 141v328q0 96 45 141t141 45h626q96 0 141 -45t45 -141v-328q0 -96 -45 -141t-141 -45zM291 110h526q55 0 77.5 22.5t22.5 77.5v280q0 55 -22.5 77.5t-77.5 22.5
h-526q-55 0 -77.5 -22t-22.5 -78v-280q0 -56 22.5 -78t77.5 -22z" />
    <glyph glyph-name="ohungarumlaut" unicode="&#x151;" horiz-adv-x="966" 
d="M539 700l-138 -124h-112l112 124h138zM782 700l-138 -124h-112l112 124h138zM746 0h-526q-88 0 -127 38.5t-39 127.5v196q0 89 39 127.5t127 38.5h526q88 0 127 -38.5t39 -127.5v-196q0 -89 -39 -127.5t-127 -38.5zM268 98h430q49 0 66.5 18t17.5 67v162q0 49 -17.5 67
t-66.5 18h-430q-49 0 -66.5 -18t-17.5 -67v-162q0 -49 17.5 -67t66.5 -18z" />
    <glyph glyph-name="OE" unicode="&#x152;" horiz-adv-x="1829" 
d="M1043 315v-208h754v-107h-1556q-96 0 -141 45t-45 141v328q0 96 45 141t141 45h1546v-107h-744v-181h704v-97h-704zM291 109h616v482h-616q-55 0 -77.5 -22.5t-22.5 -77.5v-282q0 -55 22.5 -77.5t77.5 -22.5z" />
    <glyph glyph-name="oe" unicode="&#x153;" horiz-adv-x="1685" 
d="M972 528h493q88 0 127 -38.5t39 -127.5v-114h-719v-67q0 -49 18 -67t67 -18h440q37 0 52.5 15t15.5 53v23h126v-45q0 -73 -35 -107.5t-107 -34.5h-501q-104 0 -140 55q-37 -55 -141 -55h-487q-88 0 -127 38.5t-39 127.5v196q0 89 39 127.5t127 38.5h503q90 0 125 -47
q33 47 124 47zM912 354v-28h593v28q0 49 -18 67t-67 18h-423q-49 0 -67 -18t-18 -67zM782 183v162q0 49 -18 66.5t-67 17.5h-429q-49 0 -67 -17.5t-18 -66.5v-162q0 -49 18 -66.5t67 -17.5h429q49 0 67 17.5t18 66.5z" />
    <glyph glyph-name="Racute" unicode="&#x154;" horiz-adv-x="1066" 
d="M627 872h153l-181 -124h-124zM797 266l245 -266h-169l-238 262h-435v-262h-136v700h782q88 0 127 -38.5t39 -127.5v-98q0 -89 -39 -127.5t-127 -38.5zM791 602h-591v-244h591q49 0 67 17.5t18 66.5v76q0 49 -18 66.5t-67 17.5z" />
    <glyph glyph-name="racute" unicode="&#x155;" horiz-adv-x="654" 
d="M421 700h153l-181 -124h-124zM398 528h240v-109h-275q-86 0 -130 -34l-40 -30v-355h-130v528h96l15 -78l16 12q51 42 92 54q40 12 116 12z" />
    <glyph glyph-name="Rcommaaccent" unicode="&#x156;" horiz-adv-x="1066" 
d="M797 266l245 -266h-169l-238 262h-435v-262h-136v700h782q88 0 127 -38.5t39 -127.5v-98q0 -89 -39 -127.5t-127 -38.5zM791 602h-591v-244h591q49 0 67 17.5t18 66.5v76q0 49 -18 66.5t-67 17.5zM506 -114h-53v84h132v-35q0 -25 -4.5 -38.5t-19.5 -35.5l-35 -57h-65z
" />
    <glyph glyph-name="rcommaaccent" unicode="&#x157;" horiz-adv-x="654" 
d="M398 528h240v-109h-275q-86 0 -130 -34l-40 -30v-355h-130v528h96l15 -78l16 12q51 42 92 54q40 12 116 12zM115 -114h-53v84h132v-35q0 -25 -4.5 -38.5t-19.5 -35.5l-35 -57h-65z" />
    <glyph glyph-name="Rcaron" unicode="&#x158;" horiz-adv-x="1066" 
d="M760 872l-158 -124h-138l-158 124h105l122 -72l122 72h105zM797 266l245 -266h-169l-238 262h-435v-262h-136v700h782q88 0 127 -38.5t39 -127.5v-98q0 -89 -39 -127.5t-127 -38.5zM791 602h-591v-244h591q49 0 67 17.5t18 66.5v76q0 49 -18 66.5t-67 17.5z" />
    <glyph glyph-name="rcaron" unicode="&#x159;" horiz-adv-x="654" 
d="M554 700l-158 -124h-138l-158 124h105l122 -72l122 72h105zM398 528h240v-109h-275q-86 0 -130 -34l-40 -30v-355h-130v528h96l15 -78l16 12q51 42 92 54q40 12 116 12z" />
    <glyph glyph-name="Sacute" unicode="&#x15a;" horiz-adv-x="1087" 
d="M791 872l-181 -124h-124l152 124h153zM55 142v63h132v-36q0 -38 15 -53t53 -15h574q37 0 52.5 15.5t15.5 52.5v57q0 36 -14.5 50.5t-53.5 17.5l-622 31q-75 5 -108.5 37.5t-33.5 104.5v91q0 73 34.5 107.5t107.5 34.5h670q72 0 107 -34.5t35 -107.5v-49h-132v22
q0 37 -15.5 52.5t-52.5 15.5h-550q-38 0 -53 -15t-15 -53v-34q0 -36 14.5 -50.5t53.5 -17.5l622 -30q75 -5 108.5 -37.5t33.5 -104.5v-115q0 -73 -35 -107.5t-107 -34.5h-694q-73 0 -107.5 34.5t-34.5 107.5z" />
    <glyph glyph-name="sacute" unicode="&#x15b;" horiz-adv-x="946" 
d="M720 700l-181 -124h-124l152 124h153zM54 116v50h125v-35q0 -24 10.5 -34t34.5 -10h494q24 0 34.5 10t10.5 34v42q0 23 -10.5 33t-34.5 12l-539 26q-115 4 -115 115v54q0 56 30 85.5t85 29.5h584q55 0 85 -30t30 -86v-45h-125v30q0 24 -10.5 34t-34.5 10h-470
q-24 0 -34.5 -10t-10.5 -34v-16q0 -24 10.5 -34.5t34.5 -12.5l539 -26q115 -4 115 -115v-78q0 -56 -30 -85.5t-85 -29.5h-608q-55 0 -85 30t-30 86z" />
    <glyph glyph-name="Scircumflex" unicode="&#x15c;" horiz-adv-x="1087" 
d="M422 748h-105l158 124h138l158 -124h-105l-122 72zM55 142v63h132v-36q0 -38 15 -53t53 -15h574q37 0 52.5 15.5t15.5 52.5v57q0 36 -14.5 50.5t-53.5 17.5l-622 31q-75 5 -108.5 37.5t-33.5 104.5v91q0 73 34.5 107.5t107.5 34.5h670q72 0 107 -34.5t35 -107.5v-49h-132
v22q0 37 -15.5 52.5t-52.5 15.5h-550q-38 0 -53 -15t-15 -53v-34q0 -36 14.5 -50.5t53.5 -17.5l622 -30q75 -5 108.5 -37.5t33.5 -104.5v-115q0 -73 -35 -107.5t-107 -34.5h-694q-73 0 -107.5 34.5t-34.5 107.5z" />
    <glyph glyph-name="scircumflex" unicode="&#x15d;" horiz-adv-x="946" 
d="M351 576h-105l158 124h138l158 -124h-105l-122 72zM54 116v50h125v-35q0 -24 10.5 -34t34.5 -10h494q24 0 34.5 10t10.5 34v42q0 23 -10.5 33t-34.5 12l-539 26q-115 4 -115 115v54q0 56 30 85.5t85 29.5h584q55 0 85 -30t30 -86v-45h-125v30q0 24 -10.5 34t-34.5 10
h-470q-24 0 -34.5 -10t-10.5 -34v-16q0 -24 10.5 -34.5t34.5 -12.5l539 -26q115 -4 115 -115v-78q0 -56 -30 -85.5t-85 -29.5h-608q-55 0 -85 30t-30 86z" />
    <glyph glyph-name="Scedilla" unicode="&#x15e;" horiz-adv-x="1087" 
d="M269 429l622 -30q75 -5 108.5 -37.5t33.5 -104.5v-115q0 -73 -35 -107.5t-107 -34.5h-332l-11 -30h110q28 0 40 -12t12 -40v-26q0 -28 -12 -40t-40 -12h-244v47h211q13 0 13 13v13q0 13 -13 13h-139v22l19 52h-308q-73 0 -107.5 34.5t-34.5 107.5v63h132v-36
q0 -38 15 -53t53 -15h574q37 0 52.5 15.5t15.5 52.5v57q0 36 -14.5 50.5t-53.5 17.5l-622 31q-75 5 -108.5 37.5t-33.5 104.5v91q0 73 34.5 107.5t107.5 34.5h670q72 0 107 -34.5t35 -107.5v-49h-132v22q0 37 -15.5 52.5t-52.5 15.5h-550q-38 0 -53 -15t-15 -53v-34
q0 -36 14.5 -50.5t53.5 -17.5z" />
    <glyph glyph-name="scedilla" unicode="&#x15f;" horiz-adv-x="946" 
d="M238 334l539 -26q115 -4 115 -115v-78q0 -56 -30 -85.5t-85 -29.5h-289l-11 -30h110q28 0 40 -12t12 -40v-26q0 -28 -12 -40t-40 -12h-244v47h211q13 0 13 13v13q0 13 -13 13h-139v22l19 52h-265q-55 0 -85 30t-30 86v50h125v-35q0 -24 10.5 -34t34.5 -10h494
q24 0 34.5 10t10.5 34v42q0 23 -10.5 33t-34.5 12l-539 26q-115 4 -115 115v54q0 56 30 85.5t85 29.5h584q55 0 85 -30t30 -86v-45h-125v30q0 24 -10.5 34t-34.5 10h-470q-24 0 -34.5 -10t-10.5 -34v-16q0 -24 10.5 -34.5t34.5 -12.5z" />
    <glyph glyph-name="Scaron" unicode="&#x160;" horiz-adv-x="1087" 
d="M666 872h105l-158 -124h-138l-158 124h105l122 -72zM55 142v63h132v-36q0 -38 15 -53t53 -15h574q37 0 52.5 15.5t15.5 52.5v57q0 36 -14.5 50.5t-53.5 17.5l-622 31q-75 5 -108.5 37.5t-33.5 104.5v91q0 73 34.5 107.5t107.5 34.5h670q72 0 107 -34.5t35 -107.5v-49
h-132v22q0 37 -15.5 52.5t-52.5 15.5h-550q-38 0 -53 -15t-15 -53v-34q0 -36 14.5 -50.5t53.5 -17.5l622 -30q75 -5 108.5 -37.5t33.5 -104.5v-115q0 -73 -35 -107.5t-107 -34.5h-694q-73 0 -107.5 34.5t-34.5 107.5z" />
    <glyph glyph-name="scaron" unicode="&#x161;" horiz-adv-x="946" 
d="M595 700h105l-158 -124h-138l-158 124h105l122 -72zM54 116v50h125v-35q0 -24 10.5 -34t34.5 -10h494q24 0 34.5 10t10.5 34v42q0 23 -10.5 33t-34.5 12l-539 26q-115 4 -115 115v54q0 56 30 85.5t85 29.5h584q55 0 85 -30t30 -86v-45h-125v30q0 24 -10.5 34t-34.5 10
h-470q-24 0 -34.5 -10t-10.5 -34v-16q0 -24 10.5 -34.5t34.5 -12.5l539 -26q115 -4 115 -115v-78q0 -56 -30 -85.5t-85 -29.5h-608q-55 0 -85 30t-30 86z" />
    <glyph glyph-name="uni0162" unicode="&#x162;" horiz-adv-x="984" 
d="M560 586v-586h-53l-11 -30h110q28 0 40 -12t12 -40v-26q0 -28 -12 -40t-40 -12h-244v47h211q13 0 13 13v13q0 13 -13 13h-139v22l19 52h-29v586h-408v114h952v-114h-408z" />
    <glyph glyph-name="uni0163" unicode="&#x163;" horiz-adv-x="786" 
d="M760 528v-97h-406v-265q0 -38 15 -53t53 -15h338v-98h-332l-11 -30h110q28 0 40 -12t12 -40v-26q0 -28 -12 -40t-40 -12h-244v47h211q13 0 13 13v13q0 13 -13 13h-139v22l19 52h-8q-73 0 -107.5 34t-34.5 108v289h-208v97h208l25 120h105v-120h406z" />
    <glyph glyph-name="Tcaron" unicode="&#x164;" horiz-adv-x="984" 
d="M719 872l-158 -124h-138l-158 124h105l122 -72l122 72h105zM16 700h952v-114h-408v-586h-136v586h-408v114z" />
    <glyph glyph-name="tcaron" unicode="&#x165;" horiz-adv-x="786" 
d="M566 570h-73l42 82h-46v84h132v-35q0 -25 -4 -39t-18 -35zM760 528v-97h-406v-265q0 -38 15 -53t53 -15h338v-98h-394q-73 0 -107.5 34t-34.5 108v289h-208v97h208l25 120h105v-120h406z" />
    <glyph glyph-name="Tbar" unicode="&#x166;" horiz-adv-x="984" 
d="M968 700v-114h-408v-220h276v-80h-276v-286h-136v286h-276v80h276v220h-408v114h952z" />
    <glyph glyph-name="tbar" unicode="&#x167;" horiz-adv-x="786" 
d="M760 528v-98h-407v-122h407v-75h-407v-66q0 -37 15.5 -52.5t52.5 -15.5h339v-99h-394q-72 0 -107 34.5t-35 107.5v91h-208v75h208v122h-208v98h208l25 120h104v-120h407z" />
    <glyph glyph-name="Utilde" unicode="&#x168;" horiz-adv-x="1081" 
d="M407 748h-81v74q0 50 50 50h115q23 0 35 -4.5t27 -18.5l47 -42q12 -9 26 -9h32q15 0 15 14v60h81v-74q0 -50 -50 -50h-115q-23 0 -35 4.5t-27 18.5l-47 42q-12 9 -26 9h-32q-15 0 -15 -14v-60zM838 0h-596q-96 0 -141 45t-45 141v514h136v-486q0 -55 22.5 -77.5
t77.5 -22.5h496q56 0 78 22t22 78v486h136v-514q0 -96 -45 -141t-141 -45z" />
    <glyph glyph-name="utilde" unicode="&#x169;" horiz-adv-x="970" 
d="M352 636v-60h-81v74q0 50 50 50h115q23 0 35 -4.5t27 -18.5l47 -42q12 -9 26 -9h32q15 0 15 14v60h81v-74q0 -50 -50 -50h-115q-23 0 -35 4.5t-27 18.5l-47 42q-12 9 -26 9h-32q-15 0 -15 -14zM777 528h130v-528h-108l-14 73l-9 -7q-51 -42 -91 -54q-41 -12 -117 -12
h-343q-88 0 -127 38.5t-39 127.5v362h129v-342q0 -49 18 -67t67 -18h334q86 0 130 34l40 30v363z" />
    <glyph glyph-name="Umacron" unicode="&#x16a;" horiz-adv-x="1081" 
d="M776 778h-472v66h472v-66zM838 0h-596q-96 0 -141 45t-45 141v514h136v-486q0 -55 22.5 -77.5t77.5 -22.5h496q56 0 78 22t22 78v486h136v-514q0 -96 -45 -141t-141 -45z" />
    <glyph glyph-name="umacron" unicode="&#x16b;" horiz-adv-x="970" 
d="M249 672h472v-66h-472v66zM777 528h130v-528h-108l-14 73l-9 -7q-51 -42 -91 -54q-41 -12 -117 -12h-343q-88 0 -127 38.5t-39 127.5v362h129v-342q0 -49 18 -67t67 -18h334q86 0 130 34l40 30v363z" />
    <glyph glyph-name="Ubreve" unicode="&#x16c;" horiz-adv-x="1081" 
d="M692 748h-304q-73 0 -73 73v51h94v-36q0 -30 30 -30h202q30 0 30 30v36h94v-51q0 -73 -73 -73zM838 0h-596q-96 0 -141 45t-45 141v514h136v-486q0 -55 22.5 -77.5t77.5 -22.5h496q56 0 78 22t22 78v486h136v-514q0 -96 -45 -141t-141 -45z" />
    <glyph glyph-name="ubreve" unicode="&#x16d;" horiz-adv-x="970" 
d="M637 576h-304q-73 0 -73 73v51h94v-36q0 -30 30 -30h202q30 0 30 30v36h94v-51q0 -73 -73 -73zM777 528h130v-528h-108l-14 73l-9 -7q-51 -42 -91 -54q-41 -12 -117 -12h-343q-88 0 -127 38.5t-39 127.5v362h129v-342q0 -49 18 -67t67 -18h334q86 0 130 34l40 30v363z
" />
    <glyph glyph-name="Uring" unicode="&#x16e;" horiz-adv-x="1081" 
d="M359 792v26q0 28 12.5 41t41.5 13h254q29 0 41.5 -13t12.5 -41v-26q0 -28 -12.5 -41t-41.5 -13h-254q-29 0 -41.5 13t-12.5 41zM416 812v-14q0 -12 4 -16.5t16 -4.5h208q12 0 16 4.5t4 16.5v14q0 12 -4 16.5t-16 4.5h-208q-12 0 -16 -4.5t-4 -16.5zM838 0h-596
q-96 0 -141 45t-45 141v514h136v-486q0 -55 22.5 -77.5t77.5 -22.5h496q56 0 78 22t22 78v486h136v-514q0 -96 -45 -141t-141 -45z" />
    <glyph glyph-name="uring" unicode="&#x16f;" horiz-adv-x="970" 
d="M612 566h-254q-54 0 -54 54v26q0 54 54 54h254q54 0 54 -54v-26q0 -54 -54 -54zM361 640v-14q0 -12 4 -16.5t16 -4.5h208q12 0 16 4.5t4 16.5v14q0 12 -4 16.5t-16 4.5h-208q-12 0 -16 -4.5t-4 -16.5zM777 528h130v-528h-108l-14 73l-9 -7q-51 -42 -91 -54
q-41 -12 -117 -12h-343q-88 0 -127 38.5t-39 127.5v362h129v-342q0 -49 18 -67t67 -18h334q86 0 130 34l40 30v363z" />
    <glyph glyph-name="Uhungarumlaut" unicode="&#x170;" horiz-adv-x="1081" 
d="M596 872l-138 -124h-112l112 124h138zM839 872l-138 -124h-112l112 124h138zM838 0h-596q-96 0 -141 45t-45 141v514h136v-486q0 -55 22.5 -77.5t77.5 -22.5h496q56 0 78 22t22 78v486h136v-514q0 -96 -45 -141t-141 -45z" />
    <glyph glyph-name="uhungarumlaut" unicode="&#x171;" horiz-adv-x="970" 
d="M403 700h138l-138 -124h-112zM784 700l-138 -124h-112l112 124h138zM777 528h130v-528h-108l-14 73l-9 -7q-51 -42 -91 -54q-41 -12 -117 -12h-343q-88 0 -127 38.5t-39 127.5v362h129v-342q0 -49 18 -67t67 -18h334q86 0 130 34l40 30v363z" />
    <glyph glyph-name="Uogonek" unicode="&#x172;" horiz-adv-x="1081" 
d="M888 214v486h136v-514q0 -96 -45 -141t-141 -45h-161l-41 -17q-15 -6 -18.5 -11.5t-3.5 -18.5v-12q0 -17 7 -24t24 -7h173v-70h-210q-42 0 -61 19t-19 61v17q0 47 22 63h-308q-96 0 -141 45t-45 141v514h136v-486q0 -55 22.5 -77.5t77.5 -22.5h496q56 0 78 22t22 78z" />
    <glyph glyph-name="uogonek" unicode="&#x173;" horiz-adv-x="976" 
d="M826 -90h117v-70h-154q-42 0 -61 19t-19 61v16q0 32 9.5 48t38.5 33l35 19l-7 37l-9 -7q-51 -42 -91 -54q-41 -12 -117 -12h-343q-88 0 -127 38.5t-39 127.5v362h129v-342q0 -49 18 -67t67 -18h334q86 0 130 34l40 30v363h130v-528h-57l-33 -16q-22 -10 -22 -32v-11
q0 -17 7 -24t24 -7z" />
    <glyph glyph-name="Wcircumflex" unicode="&#x174;" horiz-adv-x="1490" 
d="M867 748l-122 72l-122 -72h-105l158 124h138l158 -124h-105zM1077 145l271 555h146l-354 -700h-117l-278 545l-278 -545h-117l-354 700h153l271 -556l276 556h104z" />
    <glyph glyph-name="wcircumflex" unicode="&#x175;" horiz-adv-x="1290" 
d="M767 576l-122 72l-122 -72h-105l158 124h138l158 -124h-105zM926 127l217 401h141l-302 -528h-109l-227 401l-227 -401h-111l-302 528h147l217 -400l227 400h101z" />
    <glyph glyph-name="Ycircumflex" unicode="&#x176;" horiz-adv-x="1044" 
d="M644 748l-122 72l-122 -72h-105l158 124h138l158 -124h-105zM876 700h172l-458 -443v-257h-136v257l-458 443h179l351 -346z" />
    <glyph glyph-name="ycircumflex" unicode="&#x177;" horiz-adv-x="938" 
d="M591 576l-122 72l-122 -72h-105l158 124h138l158 -124h-105zM471 113l311 415h154l-422 -540q-68 -87 -125 -118q-59 -30 -164 -30h-169v98h181q57 0 89 17t69 66l1 2l-394 505h159z" />
    <glyph glyph-name="Ydieresis" unicode="&#x178;" horiz-adv-x="1044" 
d="M342 848h108v-88h-108v88zM594 848h108v-88h-108v88zM876 700h172l-458 -443v-257h-136v257l-458 443h179l351 -346z" />
    <glyph glyph-name="Zacute" unicode="&#x179;" horiz-adv-x="1056" 
d="M775 872l-181 -124h-124l152 124h153zM1014 0h-972v88l725 502h-705v110h952v-88l-725 -502h725v-110z" />
    <glyph glyph-name="zacute" unicode="&#x17a;" horiz-adv-x="930" 
d="M712 700l-181 -124h-124l152 124h153zM890 0h-850v74l608 360h-588v94h830v-74l-608 -360h608v-94z" />
    <glyph glyph-name="Zdotaccent" unicode="&#x17b;" horiz-adv-x="1056" 
d="M593 760h-131v88h131v-88zM1014 0h-972v88l725 502h-705v110h952v-88l-725 -502h725v-110z" />
    <glyph glyph-name="zdotaccent" unicode="&#x17c;" horiz-adv-x="930" 
d="M530 588h-131v88h131v-88zM890 0h-850v74l608 360h-588v94h830v-74l-608 -360h608v-94z" />
    <glyph glyph-name="Zcaron" unicode="&#x17d;" horiz-adv-x="1056" 
d="M650 872h105l-158 -124h-138l-158 124h105l122 -72zM1014 0h-972v88l725 502h-705v110h952v-88l-725 -502h725v-110z" />
    <glyph glyph-name="zcaron" unicode="&#x17e;" horiz-adv-x="930" 
d="M587 700h105l-158 -124h-138l-158 124h105l122 -72zM890 0h-850v74l608 360h-588v94h830v-74l-608 -360h608v-94z" />
    <glyph glyph-name="florin" unicode="&#x192;" horiz-adv-x="952" 
d="M904 594h-231q-54 0 -76.5 -21.5t-29.5 -78.5l-17 -161h334v-86h-343l-24 -221q-11 -99 -55 -142.5t-137 -43.5h-277v106h231q54 0 76.5 21.5t29.5 78.5l21 201h-338v86h348l19 181q11 99 55 142.5t137 43.5h277v-106z" />
    <glyph glyph-name="Aringacute" unicode="&#x1fa;" horiz-adv-x="1112" 
d="M1116 0h-158l-107 159h-596l-107 -159h-152l462 666h-29q-29 0 -41.5 13t-12.5 41v26q0 28 12.5 41t41.5 13h95l70 72h142l-89 -72h36q29 0 41.5 -13t12.5 -41v-26q0 -28 -12.5 -41t-41.5 -13h-29zM432 740v-14q0 -12 4 -16.5t16 -4.5h208q12 0 16 4.5t4 16.5v14
q0 12 -4 16.5t-16 4.5h-208q-12 0 -16 -4.5t-4 -16.5zM553 601l-227 -337h454z" />
    <glyph glyph-name="aringacute" unicode="&#x1fb;" horiz-adv-x="961" 
d="M667 528h69q88 0 127 -38.5t39 -127.5v-362h-107l-14 71l-17 -13q-47 -38 -80 -48t-105 -10h-401q-124 0 -124 124v55q0 124 124 124h595v52q0 48 -18.5 66t-67.5 18h-416q-37 0 -52.5 -15t-15.5 -53v-19h-125v34q0 73 35 107.5t107 34.5h89q-2 16 -2 20v26q0 28 12.5 41
t41.5 13h95l70 72h142l-89 -72h36q29 0 41.5 -13t12.5 -41v-26q0 -4 -2 -20zM364 568v-14q0 -12 4 -16.5t16 -4.5h208q12 0 16 4.5t4 16.5v14q0 12 -4 16.5t-16 4.5h-208q-12 0 -16 -4.5t-4 -16.5zM727 114l46 34v83h-528q-34 0 -48 -14t-14 -48v-24q0 -35 13.5 -48.5
t48.5 -13.5h372q67 0 110 31z" />
    <glyph glyph-name="AEacute" unicode="&#x1fc;" horiz-adv-x="1574" 
d="M881 872h153l-181 -124h-124zM895 315l141 -208h506v-107h-592l-105 159h-590l-107 -159h-152l486 700h1050v-107h-826l123 -181h663v-97h-597zM553 601l-227 -337h449z" />
    <glyph glyph-name="aeacute" unicode="&#x1fd;" horiz-adv-x="1675" 
d="M931 700h153l-181 -124h-124zM962 528h493q88 0 127 -38.5t39 -127.5v-114h-719v-67q0 -49 18 -67t67 -18h440q37 0 52.5 15t15.5 53v23h126v-45q0 -73 -35 -107.5t-107 -34.5h-521q-116 0 -148 69l-14 -11q-47 -38 -80 -48t-105 -10h-433q-124 0 -124 124v55
q0 124 124 124h595v52q0 48 -18.5 66t-67.5 18h-416q-37 0 -52.5 -15t-15.5 -53v-19h-125v34q0 73 35 107.5t107 34.5h493q90 0 125 -47q33 47 124 47zM902 354v-28h593v28q0 49 -18 67t-67 18h-423q-49 0 -67 -18t-18 -67zM726 114l46 34v83h-527q-34 0 -48 -14t-14 -48
v-24q0 -35 13.5 -48.5t48.5 -13.5h372q66 0 109 31z" />
    <glyph glyph-name="Oslashacute" unicode="&#x1fe;" horiz-adv-x="1108" 
d="M648 872h153l-181 -124h-124zM1083 730l-84 -67q54 -43 54 -149v-328q0 -96 -45 -141t-141 -45h-626q-41 0 -66 7l-46 -37h-104l84 67q-54 43 -54 149v328q0 96 45 141t141 45h626q41 0 66 -7l46 37h104zM187 494v-288q0 -63 29 -84l592 472h-521q-55 0 -77.5 -22
t-22.5 -78zM921 206v288q0 61 -29 84l-592 -472h521q55 0 77.5 22.5t22.5 77.5z" />
    <glyph glyph-name="oslashacute" unicode="&#x1ff;" horiz-adv-x="966" 
d="M577 700h153l-181 -124h-124zM942 564l-84 -62q54 -36 54 -140v-196q0 -89 -39 -127.5t-127 -38.5h-526q-8 0 -42 2l-52 -38h-102l84 62q-54 36 -54 140v196q0 89 39 127.5t127 38.5h526q8 0 42 -2l52 38h102zM180 349v-170q0 -62 32 -77l451 332h-399q-49 0 -66.5 -18
t-17.5 -67zM786 179v170q0 62 -32 77l-451 -332h399q49 0 66.5 18t17.5 67z" />
    <glyph glyph-name="Scommaaccent" unicode="&#x218;" horiz-adv-x="1087" 
d="M55 142v63h132v-36q0 -38 15 -53t53 -15h574q37 0 52.5 15.5t15.5 52.5v57q0 36 -14.5 50.5t-53.5 17.5l-622 31q-75 5 -108.5 37.5t-33.5 104.5v91q0 73 34.5 107.5t107.5 34.5h670q72 0 107 -34.5t35 -107.5v-49h-132v22q0 37 -15.5 52.5t-52.5 15.5h-550
q-38 0 -53 -15t-15 -53v-34q0 -36 14.5 -50.5t53.5 -17.5l622 -30q75 -5 108.5 -37.5t33.5 -104.5v-115q0 -73 -35 -107.5t-107 -34.5h-694q-73 0 -107.5 34.5t-34.5 107.5zM551 -196h-65l45 82h-53v84h132v-35q0 -25 -4.5 -38.5t-19.5 -35.5z" />
    <glyph glyph-name="scommaaccent" unicode="&#x219;" horiz-adv-x="946" 
d="M54 116v50h125v-35q0 -24 10.5 -34t34.5 -10h494q24 0 34.5 10t10.5 34v42q0 23 -10.5 33t-34.5 12l-539 26q-115 4 -115 115v54q0 56 30 85.5t85 29.5h584q55 0 85 -30t30 -86v-45h-125v30q0 24 -10.5 34t-34.5 10h-470q-24 0 -34.5 -10t-10.5 -34v-16q0 -24 10.5 -34.5
t34.5 -12.5l539 -26q115 -4 115 -115v-78q0 -56 -30 -85.5t-85 -29.5h-608q-55 0 -85 30t-30 86zM480 -196h-65l45 82h-53v84h132v-35q0 -25 -4.5 -38.5t-19.5 -35.5z" />
    <glyph glyph-name="uni021A" unicode="&#x21a;" horiz-adv-x="984" 
d="M16 700h952v-114h-408v-586h-136v586h-408v114zM479 -114h-53v84h132v-35q0 -25 -4.5 -38.5t-19.5 -35.5l-35 -57h-65z" />
    <glyph glyph-name="uni021B" unicode="&#x21b;" horiz-adv-x="786" 
d="M760 528v-97h-406v-265q0 -38 15 -53t53 -15h338v-98h-394q-73 0 -107.5 34t-34.5 108v289h-208v97h208l25 120h105v-120h406zM400 -114h-53v84h132v-35q0 -25 -4.5 -38.5t-19.5 -35.5l-35 -57h-65z" />
    <glyph glyph-name="uni0237" unicode="&#x237;" horiz-adv-x="366" 
d="M156 -160h-278v94h221q37 0 52.5 15t15.5 53v526h131v-546q0 -74 -34.5 -108t-107.5 -34z" />
    <glyph glyph-name="circumflex" unicode="&#x2c6;" horiz-adv-x="502" 
d="M169 576h-105l158 124h138l158 -124h-105l-122 72z" />
    <glyph glyph-name="caron" unicode="&#x2c7;" horiz-adv-x="565" 
d="M413 700h105l-158 -124h-138l-158 124h105l122 -72z" />
    <glyph glyph-name="breve" unicode="&#x2d8;" horiz-adv-x="498" 
d="M441 576h-304q-73 0 -73 73v51h94v-36q0 -30 30 -30h202q30 0 30 30v36h94v-51q0 -73 -73 -73z" />
    <glyph glyph-name="dotaccent" unicode="&#x2d9;" horiz-adv-x="251" 
d="M195 588h-131v88h131v-88z" />
    <glyph glyph-name="ring" unicode="&#x2da;" horiz-adv-x="386" 
d="M52 620v26q0 54 54 54h254q54 0 54 -54v-26q0 -54 -54 -54h-254q-54 0 -54 54zM109 640v-14q0 -12 4 -16.5t16 -4.5h208q12 0 16 4.5t4 16.5v14q0 12 -4 16.5t-16 4.5h-208q-12 0 -16 -4.5t-4 -16.5z" />
    <glyph glyph-name="ogonek" unicode="&#x2db;" horiz-adv-x="350" 
d="M235 9l-63 -26q-15 -6 -18.5 -11.5t-3.5 -18.5v-12q0 -17 7 -24t24 -7h173v-70h-210q-42 0 -61 19t-19 61v17q0 33 9.5 48.5t38.5 30.5l83 40z" />
    <glyph glyph-name="tilde" unicode="&#x2dc;" horiz-adv-x="498" 
d="M145 576h-81v74q0 50 50 50h115q23 0 35 -4.5t27 -18.5l47 -42q12 -9 26 -9h32q15 0 15 14v60h81v-74q0 -50 -50 -50h-115q-23 0 -35 4.5t-27 18.5l-47 42q-12 9 -26 9h-32q-15 0 -15 -14v-60z" />
    <glyph glyph-name="hungarumlaut" unicode="&#x2dd;" horiz-adv-x="553" 
d="M302 700l-138 -124h-112l112 124h138zM545 700l-138 -124h-112l112 124h138z" />
    <glyph glyph-name="gravecomb" unicode="&#x300;" horiz-adv-x="0" 
d="M-64 576h-123l-182 124h154z" />
    <glyph glyph-name="acutecomb" unicode="&#x301;" horiz-adv-x="0" 
d="M-64 700l-181 -124h-124l152 124h153z" />
    <glyph glyph-name="uni0302" unicode="&#x302;" horiz-adv-x="0" 
d="M-413 576h-105l158 124h138l158 -124h-105l-122 72z" />
    <glyph glyph-name="tildecomb" unicode="&#x303;" horiz-adv-x="0" 
d="M-411 576h-81v74q0 50 50 50h115q23 0 35 -4.5t27 -18.5l47 -42q12 -9 26 -9h32q15 0 15 14v60h81v-74q0 -50 -50 -50h-115q-23 0 -35 4.5t-27 18.5l-47 42q-12 9 -26 9h-32q-15 0 -15 -14v-60z" />
    <glyph glyph-name="uni0304" unicode="&#x304;" horiz-adv-x="0" 
d="M-64 606h-472v66h472v-66z" />
    <glyph glyph-name="uni0306" unicode="&#x306;" horiz-adv-x="0" 
d="M-137 576h-304q-73 0 -73 73v51h94v-36q0 -30 30 -30h202q30 0 30 30v36h94v-51q0 -73 -73 -73z" />
    <glyph glyph-name="uni0307" unicode="&#x307;" horiz-adv-x="0" 
d="M-64 588h-131v88h131v-88z" />
    <glyph glyph-name="uni0308" unicode="&#x308;" horiz-adv-x="0" 
d="M-316 588h-108v88h108v-88zM-64 588h-108v88h108v-88z" />
    <glyph glyph-name="uni030A" unicode="&#x30a;" horiz-adv-x="0" 
d="M-414 620v26q0 54 54 54h254q54 0 54 -54v-26q0 -54 -54 -54h-254q-54 0 -54 54zM-357 640v-14q0 -12 4 -16.5t16 -4.5h208q12 0 16 4.5t4 16.5v14q0 12 -4 16.5t-16 4.5h-208q-12 0 -16 -4.5t-4 -16.5z" />
    <glyph glyph-name="uni030B" unicode="&#x30b;" horiz-adv-x="0" 
d="M-283 700l-138 -124h-112l112 124h138zM-40 700l-138 -124h-112l112 124h138z" />
    <glyph glyph-name="uni030C" unicode="&#x30c;" horiz-adv-x="0" 
d="M-169 700h105l-158 -124h-138l-158 124h105l122 -72z" />
    <glyph glyph-name="uni0312" unicode="&#x312;" horiz-adv-x="0" 
d="M-133 742h65l-41 -82h45v-84h-124v35q0 25 4 39t18 35z" />
    <glyph glyph-name="uni0326" unicode="&#x326;" horiz-adv-x="0" 
d="M-123 -196h-65l45 82h-53v84h132v-35q0 -25 -4.5 -38.5t-19.5 -35.5z" />
    <glyph glyph-name="uni0327" unicode="&#x327;" horiz-adv-x="0" 
d="M-104 -160h-244v47h211q13 0 13 13v13q0 13 -13 13h-139v22l26 72h54l-18 -50h110q28 0 40 -12t12 -40v-26q0 -28 -12 -40t-40 -12z" />
    <glyph glyph-name="uni0328" unicode="&#x328;" horiz-adv-x="0" 
d="M-183 9l-63 -26q-15 -6 -18.5 -11.5t-3.5 -18.5v-12q0 -17 7 -24t24 -7h173v-70h-210q-42 0 -61 19t-19 61v17q0 33 9.5 48.5t38.5 30.5l83 40z" />
    <glyph glyph-name="uni0335" unicode="&#x335;" horiz-adv-x="0" 
d="M-480 314v80h440v-80h-440z" />
    <glyph glyph-name="uni0336" unicode="&#x336;" horiz-adv-x="0" 
d="M-896 314v80h856v-80h-856z" />
    <glyph glyph-name="uni0337" unicode="&#x337;" horiz-adv-x="0" 
d="M-466 310v80l426 60v-80z" />
    <glyph glyph-name="uni0338" unicode="&#x338;" horiz-adv-x="0" 
d="M-624 -30l538 600h86l-538 -600h-86z" />
    <glyph glyph-name="uni0394" unicode="&#x394;" horiz-adv-x="1112" 
d="M481 700h150l485 -700h-1120zM553 602l-337 -500h673z" />
    <glyph glyph-name="uni03A9" unicode="&#x3a9;" horiz-adv-x="1107" 
d="M779 113v-12h284v-101h-424v188h178q55 0 77.5 22.5t22.5 77.5v203q0 55 -22.5 77.5t-77.5 22.5h-526q-55 0 -77.5 -22.5t-22.5 -77.5v-203q0 -55 22.5 -77.5t77.5 -22.5h178v-188h-424v101h284v12h-100q-90 0 -132 42t-42 132v227q0 96 45 141t141 45h626q96 0 141 -45
t45 -141v-227q0 -90 -42 -132t-132 -42h-100z" />
    <glyph glyph-name="uni03BC" unicode="&#x3bc;" horiz-adv-x="1033" 
d="M965 98h52v-98h-108q-98 0 -120 73l-9 -7q-51 -42 -91 -54q-41 -12 -116 -12h-344q-25 0 -44 3v-163h-122v688h130v-342q0 -49 18 -67t67 -18h334q84 0 130 34l40 30v363h129v-376q0 -30 12 -42t42 -12z" />
    <glyph glyph-name="pi" unicode="&#x3c0;" horiz-adv-x="1072" 
d="M1046 528v-97h-142v-265q0 -38 15 -53t53 -15h74v-98h-130q-73 0 -107.5 34t-34.5 108v289h-506v-431h-130v431h-122v97h1030z" />
    <glyph glyph-name="uni0401" unicode="&#x401;" horiz-adv-x="986" 
d="M313 848h108v-88h-108v88zM565 848h108v-88h-108v88zM200 315v-208h754v-107h-890v700h880v-107h-744v-181h704v-97h-704z" />
    <glyph glyph-name="uni0403" unicode="&#x403;" horiz-adv-x="920" 
d="M554 872h153l-181 -124h-124zM64 700h840v-114h-704v-586h-136v700z" />
    <glyph glyph-name="uni0405" unicode="&#x405;" horiz-adv-x="1087" 
d="M55 142v63h132v-36q0 -38 15 -53t53 -15h574q37 0 52.5 15.5t15.5 52.5v57q0 36 -14.5 50.5t-53.5 17.5l-622 31q-75 5 -108.5 37.5t-33.5 104.5v91q0 73 34.5 107.5t107.5 34.5h670q72 0 107 -34.5t35 -107.5v-49h-132v22q0 37 -15.5 52.5t-52.5 15.5h-550
q-38 0 -53 -15t-15 -53v-34q0 -36 14.5 -50.5t53.5 -17.5l622 -30q75 -5 108.5 -37.5t33.5 -104.5v-115q0 -73 -35 -107.5t-107 -34.5h-694q-73 0 -107.5 34.5t-34.5 107.5z" />
    <glyph glyph-name="uni0406" unicode="&#x406;" horiz-adv-x="276" 
d="M69 0v700h138v-700h-138z" />
    <glyph glyph-name="uni0407" unicode="&#x407;" horiz-adv-x="276" 
d="M66 760h-108v88h108v-88zM318 760h-108v88h108v-88zM69 0v700h138v-700h-138z" />
    <glyph glyph-name="uni0408" unicode="&#x408;" horiz-adv-x="992" 
d="M750 0h-532q-96 0 -141 45t-45 141v82h132v-60q0 -55 22.5 -77.5t77.5 -22.5h436q55 0 77.5 22.5t22.5 77.5v492h136v-514q0 -96 -45 -141t-141 -45z" />
    <glyph glyph-name="uni040C" unicode="&#x40c;" horiz-adv-x="1019" 
d="M460 872h153l-181 -124h-124zM394 362l619 -362h-243l-570 342v-342h-136v700h136v-325l565 325h244z" />
    <glyph glyph-name="uni040E" unicode="&#x40e;" horiz-adv-x="1044" 
d="M674 748h-304q-73 0 -73 73v51h94v-36q0 -30 30 -30h202q30 0 30 30v36h94v-51q0 -73 -73 -73zM525 327l353 373h170l-675 -700h-171l234 244l-440 456h177z" />
    <glyph glyph-name="uni0410" unicode="&#x410;" horiz-adv-x="1112" 
d="M1116 0h-158l-107 159h-596l-107 -159h-152l486 700h148zM553 601l-227 -337h454z" />
    <glyph glyph-name="uni0411" unicode="&#x411;" horiz-adv-x="1070" 
d="M880 0h-816v700h898v-101h-762v-186h680q73 0 107.5 -34t34.5 -108v-129q0 -73 -35 -107.5t-107 -34.5zM200 322v-222h618q38 0 53 15t15 53v86q0 38 -15 53t-53 15h-618z" />
    <glyph glyph-name="uni0412" unicode="&#x412;" horiz-adv-x="1070" 
d="M939 367q83 -21 83 -128v-97q0 -73 -35 -107.5t-107 -34.5h-816v700h796q72 0 107 -34.5t35 -107.5v-69q0 -93 -63 -122zM798 600h-598v-192h598q38 0 53 15t15 53v56q0 38 -15 53t-53 15zM886 168v83q0 38 -15 53t-53 15h-618v-219h618q38 0 53 15t15 53z" />
    <glyph glyph-name="uni0413" unicode="&#x413;" horiz-adv-x="920" 
d="M64 700h840v-114h-704v-586h-136v700z" />
    <glyph glyph-name="uni0414" unicode="&#x414;" horiz-adv-x="1142" 
d="M1036 700v-590h90v-230h-128v120h-854v-120h-128v230h50q48 0 65.5 17t19.5 65l33 508h852zM315 586l-26 -382q-4 -60 -20 -94h631v476h-585z" />
    <glyph glyph-name="uni0415" unicode="&#x415;" horiz-adv-x="986" 
d="M200 315v-208h754v-107h-890v700h880v-107h-744v-181h704v-97h-704z" />
    <glyph glyph-name="uni0416" unicode="&#x416;" horiz-adv-x="1774" 
d="M1149 362l619 -362h-243l-570 342v-342h-136v342l-570 -342h-243l619 362l-615 338h244l565 -325v325h136v-325l565 325h244z" />
    <glyph glyph-name="uni0417" unicode="&#x417;" horiz-adv-x="1086" 
d="M955 366q77 -24 77 -127v-97q0 -73 -35 -107.5t-107 -34.5h-694q-72 0 -107 34.5t-35 107.5v95h132v-69q0 -38 15 -53t53 -15h574q38 0 53 15t15 53v81q0 38 -15 53t-53 15h-462v93h452q38 0 53 15t15 53v54q0 38 -15 53t-53 15h-554q-38 0 -53 -15t-15 -53v-61h-132v87
q0 73 35 107.5t107 34.5h674q72 0 107 -34.5t35 -107.5v-69q0 -98 -67 -123z" />
    <glyph glyph-name="uni0418" unicode="&#x418;" horiz-adv-x="1116" 
d="M196 155l740 545h116v-700h-132v550l-746 -550h-110v700h132v-545z" />
    <glyph glyph-name="uni0419" unicode="&#x419;" horiz-adv-x="1116" 
d="M710 748h-304q-73 0 -73 73v51h94v-36q0 -30 30 -30h202q30 0 30 30v36h94v-51q0 -73 -73 -73zM196 155l740 545h116v-700h-132v550l-746 -550h-110v700h132v-545z" />
    <glyph glyph-name="uni041A" unicode="&#x41a;" horiz-adv-x="1019" 
d="M394 362l619 -362h-243l-570 342v-342h-136v700h136v-325l565 325h244z" />
    <glyph glyph-name="uni041B" unicode="&#x41b;" horiz-adv-x="1094" 
d="M110 0h-94v110h44q48 0 65.5 17t19.5 65l33 508h852v-700h-136v586h-585l-28 -418q-6 -90 -45 -129t-126 -39z" />
    <glyph glyph-name="uni041C" unicode="&#x41c;" horiz-adv-x="1236" 
d="M621 253l435 447h116v-700h-132v526l-384 -392h-76l-384 392v-526h-132v700h121z" />
    <glyph glyph-name="uni041D" unicode="&#x41d;" horiz-adv-x="1096" 
d="M896 423v277h136v-700h-136v309h-696v-309h-136v700h136v-277h696z" />
    <glyph glyph-name="uni041E" unicode="&#x41e;" horiz-adv-x="1108" 
d="M867 0h-626q-96 0 -141 45t-45 141v328q0 96 45 141t141 45h626q96 0 141 -45t45 -141v-328q0 -96 -45 -141t-141 -45zM291 110h526q55 0 77.5 22.5t22.5 77.5v280q0 55 -22.5 77.5t-77.5 22.5h-526q-55 0 -77.5 -22t-22.5 -78v-280q0 -56 22.5 -78t77.5 -22z" />
    <glyph glyph-name="uni041F" unicode="&#x41f;" horiz-adv-x="1096" 
d="M200 0h-136v700h968v-700h-136v586h-696v-586z" />
    <glyph glyph-name="uni0420" unicode="&#x420;" horiz-adv-x="1044" 
d="M200 0h-136v700h782q88 0 127 -38.5t39 -127.5v-128q0 -89 -39 -127.5t-127 -38.5h-646v-240zM200 598v-260h591q49 0 67 17.5t18 66.5v92q0 49 -18 66.5t-67 17.5h-591z" />
    <glyph glyph-name="uni0421" unicode="&#x421;" horiz-adv-x="1080" 
d="M843 0h-602q-96 0 -141 45t-45 141v328q0 96 45 141t141 45h602q96 0 141 -45t45 -141v-74h-132v52q0 55 -22.5 77.5t-77.5 22.5h-506q-55 0 -77.5 -22.5t-22.5 -77.5v-284q0 -55 22.5 -77.5t77.5 -22.5h506q55 0 77.5 22.5t22.5 77.5v61h132v-83q0 -96 -45 -141
t-141 -45z" />
    <glyph glyph-name="uni0422" unicode="&#x422;" horiz-adv-x="984" 
d="M16 700h952v-114h-408v-586h-136v586h-408v114z" />
    <glyph glyph-name="uni0423" unicode="&#x423;" horiz-adv-x="1044" 
d="M525 327l353 373h170l-675 -700h-171l234 244l-440 456h177z" />
    <glyph glyph-name="uni0424" unicode="&#x424;" horiz-adv-x="1394" 
d="M761 654h392q96 0 141 -45t45 -141v-236q0 -96 -45 -141t-141 -45h-392v-86h-128v86h-392q-96 0 -141 45t-45 141v236q0 96 45 141t141 45h392v86h128v-86zM291 148h342v404h-342q-55 0 -77.5 -22t-22.5 -78v-204q0 -56 22.5 -78t77.5 -22zM1203 248v204q0 55 -22.5 77.5
t-77.5 22.5h-342v-404h342q55 0 77.5 22.5t22.5 77.5z" />
    <glyph glyph-name="uni0425" unicode="&#x425;" horiz-adv-x="1060" 
d="M192 0h-186l431 356l-421 344h194l324 -272l324 272h186l-421 -344l431 -356h-194l-334 285z" />
    <glyph glyph-name="uni0426" unicode="&#x426;" horiz-adv-x="1138" 
d="M994 0h-930v700h136v-586h696v586h136v-586h90v-234h-128v120z" />
    <glyph glyph-name="uni0427" unicode="&#x427;" horiz-adv-x="1064" 
d="M1000 0h-136v252h-666q-88 0 -127 38.5t-39 127.5v282h136v-250q0 -49 18 -66.5t67 -17.5h611v334h136v-700z" />
    <glyph glyph-name="uni0428" unicode="&#x428;" horiz-adv-x="1592" 
d="M1528 0h-1464v700h136v-586h528v586h136v-586h528v586h136v-700z" />
    <glyph glyph-name="uni0429" unicode="&#x429;" horiz-adv-x="1634" 
d="M1490 0h-1426v700h136v-586h528v586h136v-586h528v586h136v-586h90v-234h-128v120z" />
    <glyph glyph-name="uni042A" unicode="&#x42a;" horiz-adv-x="1258" 
d="M258 590h-242v110h378v-240h666q88 0 127 -38.5t39 -127.5v-128q0 -89 -39 -127.5t-127 -38.5h-802v590zM394 362v-260h611q49 0 67 17.5t18 66.5v92q0 49 -18 66.5t-67 17.5h-611z" />
    <glyph glyph-name="uni042B" unicode="&#x42b;" horiz-adv-x="1320" 
d="M64 0v700h136v-240h646q88 0 127 -38.5t39 -127.5v-128q0 -89 -39 -127.5t-127 -38.5h-782zM1113 0v700h138v-700h-138zM791 362h-591v-260h591q49 0 67 17.5t18 66.5v92q0 49 -18 66.5t-67 17.5z" />
    <glyph glyph-name="uni042C" unicode="&#x42c;" horiz-adv-x="1044" 
d="M64 0v700h136v-240h646q88 0 127 -38.5t39 -127.5v-128q0 -89 -39 -127.5t-127 -38.5h-782zM791 362h-591v-260h591q49 0 67 17.5t18 66.5v92q0 49 -18 66.5t-67 17.5z" />
    <glyph glyph-name="uni042D" unicode="&#x42d;" horiz-adv-x="1094" 
d="M238 700h616q96 0 141 -45t45 -141v-328q0 -96 -45 -141t-141 -45h-616q-96 0 -141 45t-45 141v83h132v-69q0 -55 22.5 -77.5t77.5 -22.5h520q55 0 77.5 22.5t22.5 77.5v118h-528v85h528v97q0 55 -22.5 77.5t-77.5 22.5h-520q-55 0 -77.5 -22.5t-22.5 -77.5v-60h-132v74
q0 96 45 141t141 45z" />
    <glyph glyph-name="uni042E" unicode="&#x42e;" horiz-adv-x="1587" 
d="M720 700h626q96 0 141 -45t45 -141v-328q0 -96 -45 -141t-141 -45h-626q-96 0 -141 45t-45 141v123h-334v-309h-136v700h136v-278h334v92q0 96 45 141t141 45zM1396 210v280q0 55 -22.5 77.5t-77.5 22.5h-526q-55 0 -77.5 -22.5t-22.5 -77.5v-280q0 -55 22.5 -77.5
t77.5 -22.5h526q55 0 77.5 22.5t22.5 77.5z" />
    <glyph glyph-name="uni042F" unicode="&#x42f;" horiz-adv-x="1066" 
d="M220 700h782v-700h-136v262h-435l-238 -262h-169l245 266l-49 4q-88 0 -127 38.5t-39 127.5v98q0 89 39 127.5t127 38.5zM275 358h591v244h-591q-49 0 -67 -17.5t-18 -66.5v-76q0 -49 18 -66.5t67 -17.5z" />
    <glyph glyph-name="uni0430" unicode="&#x430;" horiz-adv-x="953" 
d="M220 528h516q88 0 127 -38.5t39 -127.5v-362h-107l-14 71l-17 -13q-47 -38 -80 -48t-105 -10h-401q-124 0 -124 124v55q0 124 124 124h595v52q0 48 -18.5 66t-67.5 18h-416q-37 0 -52.5 -15t-15.5 -53v-19h-125v34q0 73 35 107.5t107 34.5zM727 114l46 34v83h-528
q-34 0 -48 -14t-14 -48v-24q0 -35 13.5 -48.5t48.5 -13.5h372q67 0 110 31z" />
    <glyph glyph-name="uni0431" unicode="&#x431;" horiz-adv-x="967" 
d="M271 458h500q73 0 107.5 -34t34.5 -108v-174q0 -73 -34.5 -107.5t-107.5 -34.5h-574q-72 0 -107 34.5t-35 107.5v359q0 95 44.5 139t141.5 49l652 21v-97l-631 -22q-58 -2 -81.5 -25.5t-23.5 -80.5v-75q27 48 114 48zM784 164v133q0 37 -15.5 52.5t-52.5 15.5h-463
q-37 0 -52.5 -15.5t-15.5 -52.5v-133q0 -38 15.5 -53t52.5 -15h463q38 0 53 15t15 53z" />
    <glyph glyph-name="uni0432" unicode="&#x432;" horiz-adv-x="953" 
d="M844 277q61 -16 61 -97v-73q0 -107 -107 -107h-735v528h720q107 0 107 -107v-53q0 -70 -46 -91zM710 442h-517v-131h517q28 0 39.5 11.5t11.5 39.5v30q0 28 -11.5 39t-39.5 11zM775 136v49q0 29 -10.5 39.5t-39.5 10.5h-532v-149h532q28 0 39 11t11 39z" />
    <glyph glyph-name="uni0433" unicode="&#x433;" horiz-adv-x="811" 
d="M193 0h-130v528h732v-101h-602v-427z" />
    <glyph glyph-name="uni0434" unicode="&#x434;" horiz-adv-x="1023" 
d="M921 528v-430h86v-218h-122v120h-747v-120h-122v218h43q42 0 58 16t19 58l24 356h761zM284 427l-18 -246q-4 -49 -19 -83h544v329h-507z" />
    <glyph glyph-name="uni0435" unicode="&#x435;" horiz-adv-x="956" 
d="M220 528h516q88 0 127 -38.5t39 -127.5v-114h-719v-67q0 -49 18.5 -67t67.5 -18h440q37 0 52.5 15.5t15.5 52.5v23h125v-45q0 -73 -35 -107.5t-107 -34.5h-540q-88 0 -127 38.5t-39 127.5v196q0 89 39 127.5t127 38.5zM183 354v-28h594v28q0 49 -18.5 67t-67.5 18h-422
q-49 0 -67.5 -18t-18.5 -67z" />
    <glyph glyph-name="uni0436" unicode="&#x436;" horiz-adv-x="1583" 
d="M1061 266l520 -266h-253l-471 248v-248h-130v248l-472 -248h-253l520 266l-514 262h251l468 -250v250h130v-250l467 250h251z" />
    <glyph glyph-name="uni0437" unicode="&#x437;" horiz-adv-x="956" 
d="M845 275q57 -18 57 -95v-73q0 -107 -107 -107h-634q-107 0 -107 107v69h125v-39q0 -28 11.5 -39t40.5 -11h490q29 0 40.5 11t11.5 39v46q0 28 -11.5 39.5t-40.5 11.5h-389v79h382q28 0 39.5 11.5t11.5 39.5v27q0 28 -11.5 39t-39.5 11h-476q-28 0 -39.5 -11t-11.5 -39
v-33h-125v63q0 107 107 107h618q108 0 108 -107v-53q0 -72 -50 -93z" />
    <glyph glyph-name="uni0438" unicode="&#x438;" horiz-adv-x="988" 
d="M189 132l626 396h110v-528h-125v401l-633 -401h-104v528h126v-396z" />
    <glyph glyph-name="uni0439" unicode="&#x439;" horiz-adv-x="988" 
d="M646 576h-304q-73 0 -73 73v51h94v-36q0 -30 30 -30h202q30 0 30 30v36h94v-51q0 -73 -73 -73zM189 132l626 396h110v-528h-125v401l-633 -401h-104v528h126v-396z" />
    <glyph glyph-name="uni043A" unicode="&#x43a;" horiz-adv-x="920" 
d="M398 266l520 -266h-253l-472 248v-248h-130v528h130v-250l468 250h251z" />
    <glyph glyph-name="uni043B" unicode="&#x43b;" horiz-adv-x="977" 
d="M105 0h-89v98h37q41 0 57 16t19 58l24 356h761v-528h-130v427h-507l-19 -278q-6 -78 -42 -113.5t-111 -35.5z" />
    <glyph glyph-name="uni043C" unicode="&#x43c;" horiz-adv-x="1074" 
d="M185 0h-122v528h116l360 -323l362 323h110v-528h-121v389l-323 -289h-59l-323 289v-389z" />
    <glyph glyph-name="uni043D" unicode="&#x43d;" horiz-adv-x="974" 
d="M782 322v206h129v-528h-129v222h-589v-222h-130v528h130v-206h589z" />
    <glyph glyph-name="uni043E" unicode="&#x43e;" horiz-adv-x="966" 
d="M746 0h-526q-88 0 -127 38.5t-39 127.5v196q0 89 39 127.5t127 38.5h526q88 0 127 -38.5t39 -127.5v-196q0 -89 -39 -127.5t-127 -38.5zM268 98h430q49 0 66.5 18t17.5 67v162q0 49 -17.5 67t-66.5 18h-430q-49 0 -66.5 -18t-17.5 -67v-162q0 -49 17.5 -67t66.5 -18z" />
    <glyph glyph-name="uni043F" unicode="&#x43f;" horiz-adv-x="974" 
d="M193 0h-130v528h848v-528h-129v427h-589v-427z" />
    <glyph glyph-name="uni0440" unicode="&#x440;" horiz-adv-x="975" 
d="M402 528h353q88 0 127 -38.5t39 -127.5v-196q0 -89 -39 -127.5t-127 -38.5h-353q-76 0 -116 12q-41 12 -92 54l-1 1v-227h-130v688h108l14 -73l9 7q51 42 92 54t116 12zM792 183v162q0 49 -18 67t-67 18h-344q-83 0 -130 -35l-40 -30v-202l40 -30q47 -35 130 -35h344
q49 0 67 18t18 67z" />
    <glyph glyph-name="uni0441" unicode="&#x441;" horiz-adv-x="942" 
d="M54 166v196q0 89 39 127.5t127 38.5h502q88 0 127 -38.5t39 -127.5v-41h-126v24q0 49 -17.5 67t-66.5 18h-410q-49 0 -66.5 -18t-17.5 -67v-162q0 -49 17.5 -67t66.5 -18h410q49 0 66.5 18t17.5 67v32h126v-49q0 -89 -39 -127.5t-127 -38.5h-502q-88 0 -127 38.5
t-39 127.5z" />
    <glyph glyph-name="uni0442" unicode="&#x442;" horiz-adv-x="864" 
d="M367 427h-351v101h832v-101h-351v-427h-130v427z" />
    <glyph glyph-name="uni0443" unicode="&#x443;" horiz-adv-x="938" 
d="M471 113l311 415h154l-422 -540q-68 -87 -125 -118q-59 -30 -164 -30h-169v98h181q57 0 89 17t69 66l1 2l-394 505h159z" />
    <glyph glyph-name="uni0444" unicode="&#x444;" horiz-adv-x="1322" 
d="M724 528h378q88 0 127 -38.5t39 -127.5v-196q0 -89 -39 -127.5t-127 -38.5h-378v-160h-126v160h-378q-88 0 -127 38.5t-39 127.5v196q0 89 39 127.5t127 38.5h378v172h126v-172zM268 91h330v346h-330q-49 0 -66.5 -18t-17.5 -67v-176q0 -49 17.5 -67t66.5 -18zM1138 176
v176q0 49 -17.5 67t-66.5 18h-330v-346h330q49 0 66.5 18t17.5 67z" />
    <glyph glyph-name="uni0445" unicode="&#x445;" horiz-adv-x="921" 
d="M190 0h-188l362 269l-352 259h196l256 -192l257 192h188l-351 -259l361 -269h-196l-266 203z" />
    <glyph glyph-name="uni0446" unicode="&#x446;" horiz-adv-x="1013" 
d="M876 0h-813v528h130v-427h589v427h129v-427h86v-221h-121v120z" />
    <glyph glyph-name="uni0447" unicode="&#x447;" horiz-adv-x="927" 
d="M32 529l130 -1v-171q0 -38 15 -53t53 -15h504v239h130v-528h-130v188h-560q-73 0 -107.5 34.5t-34.5 107.5v199z" />
    <glyph glyph-name="uni0448" unicode="&#x448;" horiz-adv-x="1415" 
d="M1352 0h-1289v528h130v-427h450v427h129v-427h450v427h130v-528z" />
    <glyph glyph-name="uni0449" unicode="&#x449;" horiz-adv-x="1474" 
d="M1336 0h-1273v528h130v-427h460v427h129v-427h460v427h130v-427h86v-221h-122v120z" />
    <glyph glyph-name="uni044A" unicode="&#x44a;" horiz-adv-x="1072" 
d="M208 427h-192v101h322v-179h564q72 0 105 -33t33 -105v-73q0 -72 -33 -105t-105 -33h-694v427zM338 266v-179h508q36 0 50 14.5t14 50.5v49q0 36 -14 50.5t-50 14.5h-508z" />
    <glyph glyph-name="uni044B" unicode="&#x44b;" horiz-adv-x="1193" 
d="M63 0v528h130v-179h564q72 0 105 -33t33 -105v-73q0 -72 -33 -105t-105 -33h-694zM1125 0h-131v528h131v-528zM701 266h-508v-179h508q36 0 50.5 14.5t14.5 50.5v49q0 36 -14.5 50.5t-50.5 14.5z" />
    <glyph glyph-name="uni044C" unicode="&#x44c;" horiz-adv-x="927" 
d="M63 0v528h130v-179h564q72 0 105 -33t33 -105v-73q0 -72 -33 -105t-105 -33h-694zM701 266h-508v-179h508q36 0 50.5 14.5t14.5 50.5v49q0 36 -14.5 50.5t-50.5 14.5z" />
    <glyph glyph-name="uni044D" unicode="&#x44d;" horiz-adv-x="962" 
d="M220 528h522q88 0 127 -38.5t39 -127.5v-196q0 -89 -39 -127.5t-127 -38.5h-522q-88 0 -127 38.5t-39 127.5v48h125v-33q0 -49 18.5 -67t67.5 -18h428q49 0 67.5 18t18.5 67v55h-445v75h445v36q0 49 -18.5 67t-67.5 18h-428q-49 0 -67.5 -18t-18.5 -67v-26h-125v41
q0 89 39 127.5t127 38.5z" />
    <glyph glyph-name="uni044E" unicode="&#x44e;" horiz-adv-x="1369" 
d="M623 528h526q88 0 127 -38.5t39 -127.5v-196q0 -89 -39 -127.5t-127 -38.5h-526q-88 0 -127 38.5t-39 127.5v56h-264v-222h-130v528h130v-206h264v40q0 89 39 127.5t127 38.5zM1186 183v162q0 49 -18 67t-67 18h-429q-49 0 -67 -18t-18 -67v-162q0 -49 18 -67t67 -18h429
q49 0 67 18t18 67z" />
    <glyph glyph-name="uni044F" unicode="&#x44f;" horiz-adv-x="951" 
d="M194 528h694v-528h-130v194h-411l-171 -194h-148l179 199l-13 1q-72 0 -105 33t-33 105v52q0 72 33 105t105 33zM250 274h508v170h-508q-36 0 -50 -14.5t-14 -50.5v-40q0 -36 14 -50.5t50 -14.5z" />
    <glyph glyph-name="uni0451" unicode="&#x451;" horiz-adv-x="956" 
d="M298 676h108v-88h-108v88zM550 676h108v-88h-108v88zM220 528h516q88 0 127 -38.5t39 -127.5v-114h-719v-67q0 -49 18.5 -67t67.5 -18h440q37 0 52.5 15.5t15.5 52.5v23h125v-45q0 -73 -35 -107.5t-107 -34.5h-540q-88 0 -127 38.5t-39 127.5v196q0 89 39 127.5t127 38.5
zM183 354v-28h594v28q0 49 -18.5 67t-67.5 18h-422q-49 0 -67.5 -18t-18.5 -67z" />
    <glyph glyph-name="uni0453" unicode="&#x453;" horiz-adv-x="811" 
d="M653 700l-181 -124h-124l152 124h153zM193 0h-130v528h732v-101h-602v-427z" />
    <glyph glyph-name="uni0455" unicode="&#x455;" horiz-adv-x="946" 
d="M54 116v50h125v-35q0 -24 10.5 -34t34.5 -10h494q24 0 34.5 10t10.5 34v42q0 23 -10.5 33t-34.5 12l-539 26q-115 4 -115 115v54q0 56 30 85.5t85 29.5h584q55 0 85 -30t30 -86v-45h-125v30q0 24 -10.5 34t-34.5 10h-470q-24 0 -34.5 -10t-10.5 -34v-16q0 -24 10.5 -34.5
t34.5 -12.5l539 -26q115 -4 115 -115v-78q0 -56 -30 -85.5t-85 -29.5h-608q-55 0 -85 30t-30 86z" />
    <glyph glyph-name="uni0456" unicode="&#x456;" horiz-adv-x="265" 
d="M199 601h-132v99h132v-99zM199 0h-132v528h132v-528z" />
    <glyph glyph-name="uni0457" unicode="&#x457;" horiz-adv-x="266" 
d="M61 588h-108v88h108v-88zM313 588h-108v88h108v-88zM198 0h-131v528h131v-528z" />
    <glyph glyph-name="uni0458" unicode="&#x458;" horiz-adv-x="365" 
d="M299 601h-132v99h132v-99zM157 -160h-279v95h221q38 0 53 15t15 53v525h132v-546q0 -73 -35 -107.5t-107 -34.5z" />
    <glyph glyph-name="uni045C" unicode="&#x45c;" horiz-adv-x="920" 
d="M564 700h153l-181 -124h-124zM398 266l520 -266h-253l-472 248v-248h-130v528h130v-250l468 250h251z" />
    <glyph glyph-name="uni045E" unicode="&#x45e;" horiz-adv-x="938" 
d="M621 576h-304q-73 0 -73 73v51h94v-36q0 -30 30 -30h202q30 0 30 30v36h94v-51q0 -73 -73 -73zM471 113l311 415h154l-422 -540q-68 -87 -125 -118q-59 -30 -164 -30h-169v98h181q57 0 89 17t69 66l1 2l-394 505h159z" />
    <glyph glyph-name="uni0498" unicode="&#x498;" horiz-adv-x="1086" 
d="M955 366q77 -24 77 -127v-97q0 -73 -35 -107.5t-107 -34.5h-332l-11 -30h110q28 0 40 -12t12 -40v-26q0 -28 -12 -40t-40 -12h-244v47h211q13 0 13 13v13q0 13 -13 13h-139v22l19 52h-308q-72 0 -107 34.5t-35 107.5v95h132v-69q0 -38 15 -53t53 -15h574q38 0 53 15
t15 53v81q0 38 -15 53t-53 15h-462v93h452q38 0 53 15t15 53v54q0 38 -15 53t-53 15h-554q-38 0 -53 -15t-15 -53v-61h-132v87q0 73 35 107.5t107 34.5h674q72 0 107 -34.5t35 -107.5v-69q0 -98 -67 -123z" />
    <glyph glyph-name="uni0499" unicode="&#x499;" horiz-adv-x="956" 
d="M845 275q57 -18 57 -95v-73q0 -107 -107 -107h-302l-11 -30h110q28 0 40 -12t12 -40v-26q0 -28 -12 -40t-40 -12h-244v47h211q13 0 13 13v13q0 13 -13 13h-139v22l19 52h-278q-107 0 -107 107v69h125v-39q0 -28 11.5 -39t40.5 -11h490q29 0 40.5 11t11.5 39v46
q0 28 -11.5 39.5t-40.5 11.5h-389v79h382q28 0 39.5 11.5t11.5 39.5v27q0 28 -11.5 39t-39.5 11h-476q-28 0 -39.5 -11t-11.5 -39v-33h-125v63q0 107 107 107h618q108 0 108 -107v-53q0 -72 -50 -93z" />
    <glyph glyph-name="uni04BB" unicode="&#x4bb;" horiz-adv-x="970" 
d="M406 528h339q88 0 127 -38.5t39 -127.5v-362h-129v342q0 49 -18 67t-67 18h-334q-86 0 -130 -34l-40 -30v-363h-130v700h130v-242l5 4q51 42 92 54q40 12 116 12z" />
    <glyph glyph-name="uni04C0" unicode="&#x4c0;" horiz-adv-x="276" 
d="M69 0v700h138v-700h-138z" />
    <glyph glyph-name="uni04C1" unicode="&#x4c1;" horiz-adv-x="1774" 
d="M1039 748h-304q-73 0 -73 73v51h94v-36q0 -30 30 -30h202q30 0 30 30v36h94v-51q0 -73 -73 -73zM1149 362l619 -362h-243l-570 342v-342h-136v342l-570 -342h-243l619 362l-615 338h244l565 -325v325h136v-325l565 325h244z" />
    <glyph glyph-name="uni04C2" unicode="&#x4c2;" horiz-adv-x="1583" 
d="M944 576h-304q-73 0 -73 73v51h94v-36q0 -30 30 -30h202q30 0 30 30v36h94v-51q0 -73 -73 -73zM1061 266l520 -266h-253l-471 248v-248h-130v248l-472 -248h-253l520 266l-514 262h251l468 -250v250h130v-250l467 250h251z" />
    <glyph glyph-name="uni04D0" unicode="&#x4d0;" horiz-adv-x="1112" 
d="M708 748h-304q-73 0 -73 73v51h94v-36q0 -30 30 -30h202q30 0 30 30v36h94v-51q0 -73 -73 -73zM1116 0h-158l-107 159h-596l-107 -159h-152l486 700h148zM553 601l-227 -337h454z" />
    <glyph glyph-name="uni04D1" unicode="&#x4d1;" horiz-adv-x="953" 
d="M628 576h-304q-73 0 -73 73v51h94v-36q0 -30 30 -30h202q30 0 30 30v36h94v-51q0 -73 -73 -73zM220 528h516q88 0 127 -38.5t39 -127.5v-362h-107l-14 71l-17 -13q-47 -38 -80 -48t-105 -10h-401q-124 0 -124 124v55q0 124 124 124h595v52q0 48 -18.5 66t-67.5 18h-416
q-37 0 -52.5 -15t-15.5 -53v-19h-125v34q0 73 35 107.5t107 34.5zM727 114l46 34v83h-528q-34 0 -48 -14t-14 -48v-24q0 -35 13.5 -48.5t48.5 -13.5h372q67 0 110 31z" />
    <glyph glyph-name="uni04D2" unicode="&#x4d2;" horiz-adv-x="1112" 
d="M376 848h108v-88h-108v88zM628 848h108v-88h-108v88zM1116 0h-158l-107 159h-596l-107 -159h-152l486 700h148zM553 601l-227 -337h454z" />
    <glyph glyph-name="uni04D3" unicode="&#x4d3;" horiz-adv-x="953" 
d="M296 676h108v-88h-108v88zM548 676h108v-88h-108v88zM220 528h516q88 0 127 -38.5t39 -127.5v-362h-107l-14 71l-17 -13q-47 -38 -80 -48t-105 -10h-401q-124 0 -124 124v55q0 124 124 124h595v52q0 48 -18.5 66t-67.5 18h-416q-37 0 -52.5 -15t-15.5 -53v-19h-125v34
q0 73 35 107.5t107 34.5zM727 114l46 34v83h-528q-34 0 -48 -14t-14 -48v-24q0 -35 13.5 -48.5t48.5 -13.5h372q67 0 110 31z" />
    <glyph glyph-name="uni04D4" unicode="&#x4d4;" horiz-adv-x="1574" 
d="M895 315l141 -208h506v-107h-592l-105 159h-590l-107 -159h-152l486 700h1050v-107h-826l123 -181h663v-97h-597zM553 601l-227 -337h449z" />
    <glyph glyph-name="uni04D5" unicode="&#x4d5;" horiz-adv-x="1675" 
d="M962 528h493q88 0 127 -38.5t39 -127.5v-114h-719v-67q0 -49 18 -67t67 -18h440q37 0 52.5 15t15.5 53v23h126v-45q0 -73 -35 -107.5t-107 -34.5h-521q-116 0 -148 69l-14 -11q-47 -38 -80 -48t-105 -10h-433q-124 0 -124 124v55q0 124 124 124h595v52q0 48 -18.5 66
t-67.5 18h-416q-37 0 -52.5 -15t-15.5 -53v-19h-125v34q0 73 35 107.5t107 34.5h493q90 0 125 -47q33 47 124 47zM902 354v-28h593v28q0 49 -18 67t-67 18h-423q-49 0 -67 -18t-18 -67zM726 114l46 34v83h-527q-34 0 -48 -14t-14 -48v-24q0 -35 13.5 -48.5t48.5 -13.5h372
q66 0 109 31z" />
    <glyph glyph-name="uni04D6" unicode="&#x4d6;" horiz-adv-x="986" 
d="M645 748h-304q-73 0 -73 73v51h94v-36q0 -30 30 -30h202q30 0 30 30v36h94v-51q0 -73 -73 -73zM200 315v-208h754v-107h-890v700h880v-107h-744v-181h704v-97h-704z" />
    <glyph glyph-name="uni04D7" unicode="&#x4d7;" horiz-adv-x="956" 
d="M630 576h-304q-73 0 -73 73v51h94v-36q0 -30 30 -30h202q30 0 30 30v36h94v-51q0 -73 -73 -73zM220 528h516q88 0 127 -38.5t39 -127.5v-114h-719v-67q0 -49 18.5 -67t67.5 -18h440q37 0 52.5 15.5t15.5 52.5v23h125v-45q0 -73 -35 -107.5t-107 -34.5h-540
q-88 0 -127 38.5t-39 127.5v196q0 89 39 127.5t127 38.5zM183 354v-28h594v28q0 49 -18.5 67t-67.5 18h-422q-49 0 -67.5 -18t-18.5 -67z" />
    <glyph glyph-name="uni04DC" unicode="&#x4dc;" horiz-adv-x="1774" 
d="M707 848h108v-88h-108v88zM959 848h108v-88h-108v88zM1149 362l619 -362h-243l-570 342v-342h-136v342l-570 -342h-243l619 362l-615 338h244l565 -325v325h136v-325l565 325h244z" />
    <glyph glyph-name="uni04DD" unicode="&#x4dd;" horiz-adv-x="1583" 
d="M612 676h108v-88h-108v88zM864 676h108v-88h-108v88zM1061 266l520 -266h-253l-471 248v-248h-130v248l-472 -248h-253l520 266l-514 262h251l468 -250v250h130v-250l467 250h251z" />
    <glyph glyph-name="uni04DE" unicode="&#x4de;" horiz-adv-x="1086" 
d="M363 848h108v-88h-108v88zM615 848h108v-88h-108v88zM955 366q77 -24 77 -127v-97q0 -73 -35 -107.5t-107 -34.5h-694q-72 0 -107 34.5t-35 107.5v95h132v-69q0 -38 15 -53t53 -15h574q38 0 53 15t15 53v81q0 38 -15 53t-53 15h-462v93h452q38 0 53 15t15 53v54
q0 38 -15 53t-53 15h-554q-38 0 -53 -15t-15 -53v-61h-132v87q0 73 35 107.5t107 34.5h674q72 0 107 -34.5t35 -107.5v-69q0 -98 -67 -123z" />
    <glyph glyph-name="uni04DF" unicode="&#x4df;" horiz-adv-x="956" 
d="M298 676h108v-88h-108v88zM550 676h108v-88h-108v88zM845 275q57 -18 57 -95v-73q0 -107 -107 -107h-634q-107 0 -107 107v69h125v-39q0 -28 11.5 -39t40.5 -11h490q29 0 40.5 11t11.5 39v46q0 28 -11.5 39.5t-40.5 11.5h-389v79h382q28 0 39.5 11.5t11.5 39.5v27
q0 28 -11.5 39t-39.5 11h-476q-28 0 -39.5 -11t-11.5 -39v-33h-125v63q0 107 107 107h618q108 0 108 -107v-53q0 -72 -50 -93z" />
    <glyph glyph-name="uni04E2" unicode="&#x4e2;" horiz-adv-x="1116" 
d="M322 844h472v-66h-472v66zM196 155l740 545h116v-700h-132v550l-746 -550h-110v700h132v-545z" />
    <glyph glyph-name="uni04E3" unicode="&#x4e3;" horiz-adv-x="988" 
d="M258 672h472v-66h-472v66zM189 132l626 396h110v-528h-125v401l-633 -401h-104v528h126v-396z" />
    <glyph glyph-name="uni04E4" unicode="&#x4e4;" horiz-adv-x="1116" 
d="M378 848h108v-88h-108v88zM630 848h108v-88h-108v88zM196 155l740 545h116v-700h-132v550l-746 -550h-110v700h132v-545z" />
    <glyph glyph-name="uni04E5" unicode="&#x4e5;" horiz-adv-x="988" 
d="M314 676h108v-88h-108v88zM566 676h108v-88h-108v88zM189 132l626 396h110v-528h-125v401l-633 -401h-104v528h126v-396z" />
    <glyph glyph-name="uni04E6" unicode="&#x4e6;" horiz-adv-x="1108" 
d="M482 760h-108v88h108v-88zM734 760h-108v88h108v-88zM867 0h-626q-96 0 -141 45t-45 141v328q0 96 45 141t141 45h626q96 0 141 -45t45 -141v-328q0 -96 -45 -141t-141 -45zM291 110h526q55 0 77.5 22.5t22.5 77.5v280q0 55 -22.5 77.5t-77.5 22.5h-526q-55 0 -77.5 -22
t-22.5 -78v-280q0 -56 22.5 -78t77.5 -22z" />
    <glyph glyph-name="uni04E7" unicode="&#x4e7;" horiz-adv-x="966" 
d="M411 588h-108v88h108v-88zM663 588h-108v88h108v-88zM746 0h-526q-88 0 -127 38.5t-39 127.5v196q0 89 39 127.5t127 38.5h526q88 0 127 -38.5t39 -127.5v-196q0 -89 -39 -127.5t-127 -38.5zM268 98h430q49 0 66.5 18t17.5 67v162q0 49 -17.5 67t-66.5 18h-430
q-49 0 -66.5 -18t-17.5 -67v-162q0 -49 17.5 -67t66.5 -18z" />
    <glyph glyph-name="uni04EC" unicode="&#x4ec;" horiz-adv-x="1094" 
d="M367 848h108v-88h-108v88zM619 848h108v-88h-108v88zM238 700h616q96 0 141 -45t45 -141v-328q0 -96 -45 -141t-141 -45h-616q-96 0 -141 45t-45 141v83h132v-69q0 -55 22.5 -77.5t77.5 -22.5h520q55 0 77.5 22.5t22.5 77.5v118h-528v85h528v97q0 55 -22.5 77.5
t-77.5 22.5h-520q-55 0 -77.5 -22.5t-22.5 -77.5v-60h-132v74q0 96 45 141t141 45z" />
    <glyph glyph-name="uni04ED" unicode="&#x4ed;" horiz-adv-x="962" 
d="M301 676h108v-88h-108v88zM553 676h108v-88h-108v88zM220 528h522q88 0 127 -38.5t39 -127.5v-196q0 -89 -39 -127.5t-127 -38.5h-522q-88 0 -127 38.5t-39 127.5v48h125v-33q0 -49 18.5 -67t67.5 -18h428q49 0 67.5 18t18.5 67v55h-445v75h445v36q0 49 -18.5 67
t-67.5 18h-428q-49 0 -67.5 -18t-18.5 -67v-26h-125v41q0 89 39 127.5t127 38.5z" />
    <glyph glyph-name="uni04EE" unicode="&#x4ee;" horiz-adv-x="1044" 
d="M286 844h472v-66h-472v66zM525 327l353 373h170l-675 -700h-171l234 244l-440 456h177z" />
    <glyph glyph-name="uni04EF" unicode="&#x4ef;" horiz-adv-x="938" 
d="M233 672h472v-66h-472v66zM471 113l311 415h154l-422 -540q-68 -87 -125 -118q-59 -30 -164 -30h-169v98h181q57 0 89 17t69 66l1 2l-394 505h159z" />
    <glyph glyph-name="uni04F0" unicode="&#x4f0;" horiz-adv-x="1044" 
d="M342 848h108v-88h-108v88zM594 848h108v-88h-108v88zM525 327l353 373h170l-675 -700h-171l234 244l-440 456h177z" />
    <glyph glyph-name="uni04F1" unicode="&#x4f1;" horiz-adv-x="938" 
d="M289 676h108v-88h-108v88zM541 676h108v-88h-108v88zM471 113l311 415h154l-422 -540q-68 -87 -125 -118q-59 -30 -164 -30h-169v98h181q57 0 89 17t69 66l1 2l-394 505h159z" />
    <glyph glyph-name="uni04F2" unicode="&#x4f2;" horiz-adv-x="1044" 
d="M440 872h138l-138 -124h-112zM821 872l-138 -124h-112l112 124h138zM525 327l353 373h170l-675 -700h-171l234 244l-440 456h177z" />
    <glyph glyph-name="uni04F3" unicode="&#x4f3;" horiz-adv-x="938" 
d="M387 700h138l-138 -124h-112zM768 700l-138 -124h-112l112 124h138zM471 113l311 415h154l-422 -540q-68 -87 -125 -118q-59 -30 -164 -30h-169v98h181q57 0 89 17t69 66l1 2l-394 505h159z" />
    <glyph glyph-name="uni04F4" unicode="&#x4f4;" horiz-adv-x="1064" 
d="M460 760h-108v88h108v-88zM712 760h-108v88h108v-88zM1000 0h-136v252h-666q-88 0 -127 38.5t-39 127.5v282h136v-250q0 -49 18 -66.5t67 -17.5h611v334h136v-700z" />
    <glyph glyph-name="uni04F5" unicode="&#x4f5;" horiz-adv-x="600" 
d="M172 588h-108v88h108v-88zM424 588h-108v88h108v-88zM32 529l130 -1v-171q0 -38 15 -53t53 -15h504v239h130v-528h-130v188h-560q-73 0 -107.5 34.5t-34.5 107.5v199z" />
    <glyph glyph-name="uni04F8" unicode="&#x4f8;" horiz-adv-x="1320" 
d="M1110 760h-108v88h108v-88zM1362 760h-108v88h108v-88zM64 0v700h136v-240h646q88 0 127 -38.5t39 -127.5v-128q0 -89 -39 -127.5t-127 -38.5h-782zM1113 0v700h138v-700h-138zM791 362h-591v-260h591q49 0 67 17.5t18 66.5v92q0 49 -18 66.5t-67 17.5z" />
    <glyph glyph-name="uni04F9" unicode="&#x4f9;" horiz-adv-x="1193" 
d="M988 588h-108v88h108v-88zM1240 588h-108v88h108v-88zM63 0v528h130v-179h564q72 0 105 -33t33 -105v-73q0 -72 -33 -105t-105 -33h-694zM1125 0h-131v528h131v-528zM701 266h-508v-179h508q36 0 50.5 14.5t14.5 50.5v49q0 36 -14.5 50.5t-50.5 14.5z" />
    <glyph glyph-name="Wgrave" unicode="&#x1e80;" horiz-adv-x="1490" 
d="M652 872l151 -124h-123l-182 124h154zM1077 145l271 555h146l-354 -700h-117l-278 545l-278 -545h-117l-354 700h153l271 -556l276 556h104z" />
    <glyph glyph-name="wgrave" unicode="&#x1e81;" horiz-adv-x="1290" 
d="M552 700l151 -124h-123l-182 124h154zM926 127l217 401h141l-302 -528h-109l-227 401l-227 -401h-111l-302 528h147l217 -400l227 400h101z" />
    <glyph glyph-name="Wacute" unicode="&#x1e82;" horiz-adv-x="1490" 
d="M839 872h153l-181 -124h-124zM1077 145l271 555h146l-354 -700h-117l-278 545l-278 -545h-117l-354 700h153l271 -556l276 556h104z" />
    <glyph glyph-name="wacute" unicode="&#x1e83;" horiz-adv-x="1290" 
d="M739 700h153l-181 -124h-124zM926 127l217 401h141l-302 -528h-109l-227 401l-227 -401h-111l-302 528h147l217 -400l227 400h101z" />
    <glyph glyph-name="Wdieresis" unicode="&#x1e84;" horiz-adv-x="1490" 
d="M565 848h108v-88h-108v88zM817 848h108v-88h-108v88zM1077 145l271 555h146l-354 -700h-117l-278 545l-278 -545h-117l-354 700h153l271 -556l276 556h104z" />
    <glyph glyph-name="wdieresis" unicode="&#x1e85;" horiz-adv-x="1290" 
d="M465 676h108v-88h-108v88zM717 676h108v-88h-108v88zM926 127l217 401h141l-302 -528h-109l-227 401l-227 -401h-111l-302 528h147l217 -400l227 400h101z" />
    <glyph glyph-name="uni1E9E" unicode="&#x1e9e;" horiz-adv-x="1105" 
d="M634 421h279q72 0 107 -34.5t35 -107.5v-137q0 -73 -35 -107.5t-107 -34.5h-524v97h462q37 0 52.5 15.5t15.5 52.5v94q0 38 -15 53t-53 15h-442v70l346 195h-462q-55 0 -77.5 -22.5t-22.5 -77.5v-492h-136v514q0 96 45 141t141 45h766v-61z" />
    <glyph glyph-name="Ygrave" unicode="&#x1ef2;" horiz-adv-x="1044" 
d="M429 872l151 -124h-123l-182 124h154zM876 700h172l-458 -443v-257h-136v257l-458 443h179l351 -346z" />
    <glyph glyph-name="ygrave" unicode="&#x1ef3;" horiz-adv-x="938" 
d="M376 700l151 -124h-123l-182 124h154zM471 113l311 415h154l-422 -540q-68 -87 -125 -118q-59 -30 -164 -30h-169v98h181q57 0 89 17t69 66l1 2l-394 505h159z" />
    <glyph glyph-name="endash" unicode="&#x2013;" horiz-adv-x="940" 
d="M48 298v104h844v-104h-844z" />
    <glyph glyph-name="emdash" unicode="&#x2014;" horiz-adv-x="1220" 
d="M48 298v104h1124v-104h-1124z" />
    <glyph glyph-name="quoteleft" unicode="&#x2018;" horiz-adv-x="284" 
d="M135 700h85l-51 -160h51v-132h-156v55q0 52 20 97z" />
    <glyph glyph-name="quoteright" unicode="&#x2019;" horiz-adv-x="284" 
d="M149 408h-85l51 160h-51v132h156v-55q0 -52 -20 -97z" />
    <glyph glyph-name="quotesinglbase" unicode="&#x201a;" horiz-adv-x="284" 
d="M149 -160h-85l51 160h-51v132h156v-55q0 -52 -20 -97z" />
    <glyph glyph-name="quotedblleft" unicode="&#x201c;" horiz-adv-x="536" 
d="M135 700h85l-51 -160h51v-132h-156v55q0 52 20 97zM387 700h85l-51 -160h51v-132h-156v55q0 52 20 97z" />
    <glyph glyph-name="quotedblright" unicode="&#x201d;" horiz-adv-x="536" 
d="M149 408h-85l51 160h-51v132h156v-55q0 -52 -20 -97zM401 408h-85l51 160h-51v132h156v-55q0 -52 -20 -97z" />
    <glyph glyph-name="quotedblbase" unicode="&#x201e;" horiz-adv-x="536" 
d="M149 -160h-85l51 160h-51v132h156v-55q0 -52 -20 -97zM401 -160h-85l51 160h-51v132h156v-55q0 -52 -20 -97z" />
    <glyph glyph-name="dagger" unicode="&#x2020;" horiz-adv-x="614" 
d="M352 576h220v-76h-220v-226h-90v226h-220v76h220v124h90v-124z" />
    <glyph glyph-name="daggerdbl" unicode="&#x2021;" horiz-adv-x="614" 
d="M572 582v-74h-220v-138h220v-74h-220v-118h-90v118h-220v74h220v138h-220v74h220v118h90v-118h220z" />
    <glyph glyph-name="bullet" unicode="&#x2022;" horiz-adv-x="380" 
d="M245 224h-110q-71 0 -71 71v110q0 71 71 71h110q71 0 71 -71v-110q0 -71 -71 -71z" />
    <glyph glyph-name="perthousand" unicode="&#x2030;" horiz-adv-x="1650" 
d="M396 306h-250q-104 0 -104 104v106q0 54 25.5 79t78.5 25h250q53 0 78.5 -25t25.5 -79v-106q0 -104 -104 -104zM226 0h-96l784 620h96zM172 372h198q28 0 40 12t12 40v78q0 28 -12 40t-40 12h-198q-28 0 -40 -12t-12 -40v-78q0 -28 12 -40t40 -12zM994 0h-250
q-104 0 -104 104v106q0 54 25.5 79t78.5 25h250q53 0 78.5 -25t25.5 -79v-106q0 -104 -104 -104zM1504 0h-250q-104 0 -104 104v106q0 54 25.5 79t78.5 25h250q53 0 78.5 -25t25.5 -79v-106q0 -104 -104 -104zM770 66h198q28 0 40 12t12 40v78q0 28 -12 40t-40 12h-198
q-28 0 -40 -12t-12 -40v-78q0 -28 12 -40t40 -12zM1280 66h198q28 0 40 12t12 40v78q0 28 -12 40t-40 12h-198q-28 0 -40 -12t-12 -40v-78q0 -28 12 -40t40 -12z" />
    <glyph glyph-name="guilsinglleft" unicode="&#x2039;" horiz-adv-x="668" 
d="M52 388l564 198v-103l-419 -132l419 -133v-105l-564 198v77z" />
    <glyph glyph-name="guilsinglright" unicode="&#x203a;" horiz-adv-x="668" 
d="M52 481v105l564 -198v-77l-564 -198v103l419 133z" />
    <glyph glyph-name="fraction" unicode="&#x2044;" horiz-adv-x="284" 
d="M-177 0h-91l728 700h92z" />
    <glyph glyph-name="Euro" unicode="&#x20ac;" horiz-adv-x="1072" 
d="M1006 514v-74h-128v62q0 55 -22.5 77.5t-77.5 22.5h-430q-55 0 -77.5 -22.5t-22.5 -77.5v-50h498v-59h-498v-86h498v-59h-498v-50q0 -55 22.5 -77.5t77.5 -22.5h430q55 0 77.5 22.5t22.5 77.5v71h128v-83q0 -96 -45 -141t-141 -45h-518q-96 0 -141 45t-45 141v62h-110v59
h110v86h-110v59h110v62q0 96 45 141t141 45h518q96 0 141 -45t45 -141z" />
    <glyph glyph-name="trademark" unicode="&#x2122;" horiz-adv-x="795" 
d="M166 650h-134v50h325v-50h-134v-183h-57v183zM575 563l137 137h51v-233h-56v161l-118 -116h-31l-118 117v-162h-55v233h52z" />
    <glyph glyph-name="minus" unicode="&#x2212;" 
d="M68 298v104h896v-104h-896z" />
    <glyph glyph-name="approxequal" unicode="&#x2248;" 
d="M414 636l309 -173q28 -16 62 -16h33q19 0 26.5 7.5t7.5 26.5v193h112v-214q0 -51 -21.5 -72.5t-72.5 -21.5h-108q-49 0 -74 7q-28 8 -70 31l-309 173q-28 16 -62 16h-33q-19 0 -26.5 -7.5t-7.5 -26.5v-193h-112v214q0 51 21.5 72.5t72.5 21.5h108q48 0 75 -6
q29 -9 69 -32zM414 296l309 -173q28 -16 62 -16h33q19 0 26.5 7.5t7.5 26.5v193h112v-214q0 -51 -21.5 -72.5t-72.5 -21.5h-108q-49 0 -74 7q-28 8 -70 31l-309 173q-28 16 -62 16h-33q-19 0 -26.5 -7.5t-7.5 -26.5v-193h-112v214q0 51 21.5 72.5t72.5 21.5h108q48 0 75 -6
q29 -9 69 -32z" />
    <glyph glyph-name="notequal" unicode="&#x2260;" 
d="M964 526v-100h-347l-95 -152h442v-100h-503l-81 -130h-107l81 130h-286v100h347l95 152h-442v100h503l81 130h107l-81 -130h286z" />
    <glyph glyph-name="lessequal" unicode="&#x2264;" 
d="M68 492l896 184v-106l-729 -124l729 -124v-107l-896 184v93zM964 24h-896v93h896v-93z" />
    <glyph glyph-name="greaterequal" unicode="&#x2265;" 
d="M68 570v106l896 -184v-93l-896 -184v107l729 124zM964 24h-896v93h896v-93z" />
    <glyph glyph-name="fi" unicode="&#xfb01;" horiz-adv-x="1031" 
d="M224 465v93q0 73 35 107.5t107 34.5h384v-97h-329q-37 0 -52.5 -15.5t-15.5 -52.5v-70h397v-97h-397v-368h-129v368h-208v97h208zM833 601v99h132v-99h-132zM965 0h-132v528h132v-528z" />
    <glyph glyph-name="fl" unicode="&#xfb02;" 
d="M224 465v93q0 73 35 107.5t107 34.5h384v-97h-329q-37 0 -52.5 -15.5t-15.5 -52.5v-70h397v-97h-397v-368h-129v368h-208v97h208zM833 0v700h131v-700h-131z" />
    <glyph glyph-name="null" horiz-adv-x="0" 
 />
    <glyph glyph-name="A.ss01" horiz-adv-x="1097" 
d="M243 700h612q96 0 141 -45t45 -141v-514h-136v223h-712v-223h-136v514q0 96 45 141t141 45zM193 491v-162h712v162q0 55 -22.5 77.5t-77.5 22.5h-512q-55 0 -77.5 -22.5t-22.5 -77.5z" />
    <glyph glyph-name="Aacute.ss01" horiz-adv-x="1097" 
d="M645 872h153l-181 -124h-124zM243 700h612q96 0 141 -45t45 -141v-514h-136v223h-712v-223h-136v514q0 96 45 141t141 45zM193 491v-162h712v162q0 55 -22.5 77.5t-77.5 22.5h-512q-55 0 -77.5 -22.5t-22.5 -77.5z" />
    <glyph glyph-name="Abreve.ss01" horiz-adv-x="1097" 
d="M703 748h-304q-73 0 -73 73v51h94v-36q0 -30 30 -30h202q30 0 30 30v36h94v-51q0 -73 -73 -73zM243 700h612q96 0 141 -45t45 -141v-514h-136v223h-712v-223h-136v514q0 96 45 141t141 45zM193 491v-162h712v162q0 55 -22.5 77.5t-77.5 22.5h-512q-55 0 -77.5 -22.5
t-22.5 -77.5z" />
    <glyph glyph-name="Acircumflex.ss01" horiz-adv-x="1097" 
d="M673 748l-122 72l-122 -72h-105l158 124h138l158 -124h-105zM243 700h612q96 0 141 -45t45 -141v-514h-136v223h-712v-223h-136v514q0 96 45 141t141 45zM193 491v-162h712v162q0 55 -22.5 77.5t-77.5 22.5h-512q-55 0 -77.5 -22.5t-22.5 -77.5z" />
    <glyph glyph-name="Adieresis.ss01" horiz-adv-x="1097" 
d="M371 848h108v-88h-108v88zM623 848h108v-88h-108v88zM243 700h612q96 0 141 -45t45 -141v-514h-136v223h-712v-223h-136v514q0 96 45 141t141 45zM193 491v-162h712v162q0 55 -22.5 77.5t-77.5 22.5h-512q-55 0 -77.5 -22.5t-22.5 -77.5z" />
    <glyph glyph-name="Agrave.ss01" horiz-adv-x="1097" 
d="M458 872l151 -124h-123l-182 124h154zM243 700h612q96 0 141 -45t45 -141v-514h-136v223h-712v-223h-136v514q0 96 45 141t141 45zM193 491v-162h712v162q0 55 -22.5 77.5t-77.5 22.5h-512q-55 0 -77.5 -22.5t-22.5 -77.5z" />
    <glyph glyph-name="Amacron.ss01" horiz-adv-x="1097" 
d="M315 844h472v-66h-472v66zM243 700h612q96 0 141 -45t45 -141v-514h-136v223h-712v-223h-136v514q0 96 45 141t141 45zM193 491v-162h712v162q0 55 -22.5 77.5t-77.5 22.5h-512q-55 0 -77.5 -22.5t-22.5 -77.5z" />
    <glyph glyph-name="Aogonek.ss01" horiz-adv-x="1097" 
d="M900 -90h173v-70h-210q-42 0 -61 19t-19 61v17q0 33 9.5 48.5t38.5 30.5l74 36v171h-712v-223h-136v514q0 96 45 141t141 45h612q96 0 141 -45t45 -141v-514h-109l-41 -17q-15 -6 -18.5 -11.5t-3.5 -18.5v-12q0 -17 7 -24t24 -7zM193 491v-162h712v162q0 55 -22.5 77.5
t-77.5 22.5h-512q-55 0 -77.5 -22.5t-22.5 -77.5z" />
    <glyph glyph-name="Aring.ss01" horiz-adv-x="1097" 
d="M678 738h-254q-54 0 -54 54v26q0 54 54 54h254q54 0 54 -54v-26q0 -54 -54 -54zM427 812v-14q0 -12 4 -16.5t16 -4.5h208q12 0 16 4.5t4 16.5v14q0 12 -4 16.5t-16 4.5h-208q-12 0 -16 -4.5t-4 -16.5zM243 700h612q96 0 141 -45t45 -141v-514h-136v223h-712v-223h-136
v514q0 96 45 141t141 45zM193 491v-162h712v162q0 55 -22.5 77.5t-77.5 22.5h-512q-55 0 -77.5 -22.5t-22.5 -77.5z" />
    <glyph glyph-name="Aringacute.ss01" horiz-adv-x="1097" 
d="M730 700h125q96 0 141 -45t45 -141v-514h-136v223h-712v-223h-136v514q0 96 45 141t141 45h129q-2 16 -2 20v26q0 54 54 54h95l70 72h142l-89 -72h36q54 0 54 -54v-26q0 -4 -2 -20zM427 740v-14q0 -12 4 -16.5t16 -4.5h208q12 0 16 4.5t4 16.5v14q0 12 -4 16.5t-16 4.5
h-208q-12 0 -16 -4.5t-4 -16.5zM193 491v-162h712v162q0 55 -22.5 77.5t-77.5 22.5h-512q-55 0 -77.5 -22.5t-22.5 -77.5z" />
    <glyph glyph-name="Atilde.ss01" horiz-adv-x="1097" 
d="M418 808v-60h-81v74q0 50 50 50h115q23 0 35 -4.5t27 -18.5l47 -42q12 -9 26 -9h32q15 0 15 14v60h81v-74q0 -50 -50 -50h-115q-23 0 -35 4.5t-27 18.5l-47 42q-12 9 -26 9h-32q-15 0 -15 -14zM243 700h612q96 0 141 -45t45 -141v-514h-136v223h-712v-223h-136v514
q0 96 45 141t141 45zM193 491v-162h712v162q0 55 -22.5 77.5t-77.5 22.5h-512q-55 0 -77.5 -22.5t-22.5 -77.5z" />
    <glyph glyph-name="I.ss01" horiz-adv-x="780" 
d="M748 700v-99h-289v-502h289v-99h-716v99h289v502h-289v99h716z" />
    <glyph glyph-name="Iacute.ss01" horiz-adv-x="780" 
d="M484 872h153l-181 -124h-124zM748 700v-99h-289v-502h289v-99h-716v99h289v502h-289v99h716z" />
    <glyph glyph-name="Icircumflex.ss01" horiz-adv-x="780" 
d="M512 748l-122 72l-122 -72h-105l158 124h138l158 -124h-105zM748 700v-99h-289v-502h289v-99h-716v99h289v502h-289v99h716z" />
    <glyph glyph-name="Idieresis.ss01" horiz-adv-x="780" 
d="M210 848h108v-88h-108v88zM462 848h108v-88h-108v88zM748 700v-99h-289v-502h289v-99h-716v99h289v502h-289v99h716z" />
    <glyph glyph-name="Idotaccent.ss01" horiz-adv-x="780" 
d="M324 848h131v-88h-131v88zM748 700v-99h-289v-502h289v-99h-716v99h289v502h-289v99h716z" />
    <glyph glyph-name="Igrave.ss01" horiz-adv-x="780" 
d="M297 872l151 -124h-123l-182 124h154zM748 700v-99h-289v-502h289v-99h-716v99h289v502h-289v99h716z" />
    <glyph glyph-name="Imacron.ss01" horiz-adv-x="780" 
d="M154 844h472v-66h-472v66zM748 700v-99h-289v-502h289v-99h-716v99h289v502h-289v99h716z" />
    <glyph glyph-name="Iogonek.ss01" horiz-adv-x="780" 
d="M748 700v-99h-289v-502h289v-99h-141l-41 -17q-15 -6 -18.5 -11.5t-3.5 -18.5v-12q0 -17 7 -24t24 -7h173v-70h-210q-42 0 -61 19t-19 61v17q0 47 22 63h-448v99h289v502h-289v99h716z" />
    <glyph glyph-name="Itilde.ss01" horiz-adv-x="780" 
d="M257 808v-60h-81v74q0 50 50 50h115q23 0 35 -4.5t27 -18.5l47 -42q12 -9 26 -9h32q15 0 15 14v60h81v-74q0 -50 -50 -50h-115q-23 0 -35 4.5t-27 18.5l-47 42q-12 9 -26 9h-32q-15 0 -15 -14zM748 700v-99h-289v-502h289v-99h-716v99h289v502h-289v99h716z" />
    <glyph glyph-name="R.ss01" horiz-adv-x="1068" 
d="M1012 558v-123q0 -99 -71 -125q71 -26 71 -125v-185h-136v192q0 39 -16 54.5t-54 15.5h-606v-262h-136v700h806q73 0 107.5 -34t34.5 -108zM806 602h-606v-244h606q38 0 54 15.5t16 54.5v104q0 39 -16 54.5t-54 15.5z" />
    <glyph glyph-name="Racute.ss01" horiz-adv-x="1068" 
d="M628 872h153l-181 -124h-124zM1012 558v-123q0 -99 -71 -125q71 -26 71 -125v-185h-136v192q0 39 -16 54.5t-54 15.5h-606v-262h-136v700h806q73 0 107.5 -34t34.5 -108zM806 602h-606v-244h606q38 0 54 15.5t16 54.5v104q0 39 -16 54.5t-54 15.5z" />
    <glyph glyph-name="Rcaron.ss01" horiz-adv-x="1068" 
d="M761 872l-158 -124h-138l-158 124h105l122 -72l122 72h105zM1012 558v-123q0 -99 -71 -125q71 -26 71 -125v-185h-136v192q0 39 -16 54.5t-54 15.5h-606v-262h-136v700h806q73 0 107.5 -34t34.5 -108zM806 602h-606v-244h606q38 0 54 15.5t16 54.5v104q0 39 -16 54.5
t-54 15.5z" />
    <glyph glyph-name="Rcommaaccent.ss01" horiz-adv-x="1068" 
d="M1012 558v-123q0 -99 -71 -125q71 -26 71 -125v-185h-136v192q0 39 -16 54.5t-54 15.5h-606v-262h-136v700h806q73 0 107.5 -34t34.5 -108zM806 602h-606v-244h606q38 0 54 15.5t16 54.5v104q0 39 -16 54.5t-54 15.5zM521 -114h-53v84h132v-35q0 -25 -4.5 -38.5
t-19.5 -35.5l-35 -57h-65z" />
    <glyph glyph-name="i.loclTRK" horiz-adv-x="266" 
d="M198 588h-131v88h131v-88zM198 0h-131v528h131v-528z" />
    <glyph glyph-name="uni0410.ss01" horiz-adv-x="1101" 
d="M243 700h616q96 0 141 -45t45 -141v-514h-136v223h-716v-223h-136v514q0 96 45 141t141 45zM193 491v-162h716v162q0 55 -22.5 77.5t-77.5 22.5h-516q-55 0 -77.5 -22.5t-22.5 -77.5z" />
    <glyph glyph-name="uni042F.ss01" horiz-adv-x="1068" 
d="M198 700h806v-700h-136v262h-606q-38 0 -54 -15.5t-16 -54.5v-192h-136v185q0 99 71 125q-71 26 -71 125v123q0 74 34.5 108t107.5 34zM192 532v-104q0 -39 16 -54.5t54 -15.5h606v244h-606q-38 0 -54 -15.5t-16 -54.5z" />
    <glyph glyph-name="uni044F.ss01" horiz-adv-x="943" 
d="M155 528h725v-528h-130v194h-526q-28 0 -39 -11t-11 -39v-144h-126v144q0 74 53 94q-53 20 -53 95v87q0 56 26 82t81 26zM178 394v-68q0 -29 11.5 -40.5t39.5 -11.5h521v170h-521q-28 0 -39.5 -11t-11.5 -39z" />
    <glyph glyph-name="zero.tf" 
d="M780 0h-528q-96 0 -141 45t-45 141v328q0 96 45 141t141 45h528q96 0 141 -45t45 -141v-328q0 -96 -45 -141t-141 -45zM298 106h436q55 0 77.5 22.5t22.5 77.5v288q0 55 -22.5 77.5t-77.5 22.5h-436q-55 0 -77.5 -22.5t-22.5 -77.5v-288q0 -55 22.5 -77.5t77.5 -22.5z
" />
    <glyph glyph-name="one.tf" 
d="M614 700v-598h370v-102h-936v102h434v488l-404 -26v106l474 30h62z" />
    <glyph glyph-name="two.tf" 
d="M955 105v-105h-889v215q0 72 34 107t108 41l558 46q37 3 52.5 19.5t15.5 54.5v48q0 37 -15.5 52.5t-52.5 15.5h-490q-37 0 -52.5 -15.5t-15.5 -52.5v-34h-128v61q0 73 35 107.5t107 34.5h602q72 0 107 -34.5t35 -107.5v-97q0 -72 -34 -107t-108 -41l-558 -46
q-38 -4 -53 -20t-15 -54v-88h757z" />
    <glyph glyph-name="three.tf" 
d="M891 366q77 -24 77 -127v-97q0 -73 -35 -107.5t-107 -34.5h-620q-72 0 -107 34.5t-35 107.5v85h128v-60q0 -38 15 -53t53 -15h508q38 0 53 15t15 53v82q0 38 -15 53t-53 15h-406v92h396q37 0 52.5 15.5t15.5 52.5v56q0 38 -15 53t-53 15h-488q-38 0 -53 -15t-15 -53v-52
h-128v77q0 73 35 107.5t107 34.5h600q72 0 107 -34.5t35 -107.5v-69q0 -98 -67 -123z" />
    <glyph glyph-name="four.tf" 
d="M785 260h219v-97h-219v-163h-132v163h-625v81l607 456h150v-440zM653 604l-457 -344h457v344z" />
    <glyph glyph-name="five.tf" 
d="M824 0h-754v105h696q37 0 52.5 15.5t15.5 52.5v83q0 38 -15 53t-53 15h-696v376h866v-105h-734v-168h622q72 0 107 -34.5t35 -107.5v-143q0 -73 -35 -107.5t-107 -34.5z" />
    <glyph glyph-name="six.tf" 
d="M299 429h525q73 0 107.5 -34t34.5 -108v-145q0 -73 -35 -107.5t-107 -34.5h-616q-72 0 -107 34.5t-35 107.5v372q0 96 45 141t141 45h684v-105h-638q-55 0 -77.5 -22.5t-22.5 -77.5v-100q28 34 101 34zM834 169v92q0 38 -15 53t-53 15h-500q-38 0 -53 -15t-15 -53v-92
q0 -37 15 -52.5t53 -15.5h500q38 0 53 15.5t15 52.5z" />
    <glyph glyph-name="seven.tf" 
d="M48 590v110h936v-94l-370 -262q-51 -36 -66 -71t-15 -108v-165h-134v168q0 96 21 146t87 93l273 183h-732z" />
    <glyph glyph-name="eight.tf" 
d="M891 366q77 -24 77 -127v-97q0 -73 -35 -107.5t-107 -34.5h-620q-72 0 -107 34.5t-35 107.5v97q0 103 77 127q-67 25 -67 123v69q0 73 35 107.5t107 34.5h600q72 0 107 -34.5t35 -107.5v-69q0 -98 -67 -123zM206 535v-60q0 -37 15 -52.5t53 -15.5h484q38 0 53 15.5
t15 52.5v60q0 38 -15 53t-53 15h-484q-38 0 -53 -15t-15 -53zM836 165v87q0 38 -15 53t-53 15h-504q-38 0 -53 -15t-15 -53v-87q0 -38 15 -53t53 -15h504q38 0 53 15t15 53z" />
    <glyph glyph-name="nine.tf" 
d="M208 700h616q72 0 107 -34.5t35 -107.5v-372q0 -96 -45 -141t-141 -45h-684v105h638q55 0 77.5 22.5t22.5 77.5v93q-28 -34 -101 -34h-525q-73 0 -107.5 34t-34.5 108v152q0 73 35 107.5t107 34.5zM266 364h500q38 0 53 15t15 53v99q0 37 -15.5 52.5t-52.5 15.5h-500
q-37 0 -52.5 -15.5t-15.5 -52.5v-99q0 -38 15 -53t53 -15z" />
    <glyph glyph-name="zero.subs" horiz-adv-x="647" 
d="M485 -100h-322q-60 0 -89 28.5t-29 89.5v184q0 61 29 89.5t89 28.5h322q60 0 89 -28.5t29 -89.5v-184q0 -61 -29 -89.5t-89 -28.5zM203 -10h242q25 0 35 10t10 35v150q0 25 -10 35t-35 10h-242q-25 0 -35.5 -10t-10.5 -35v-150q0 -25 10.5 -35t35.5 -10z" />
    <glyph glyph-name="one.subs" horiz-adv-x="610" 
d="M373 320v-335h207v-85h-549v85h229v242l-211 -14v89l269 18h55z" />
    <glyph glyph-name="two.subs" horiz-adv-x="647" 
d="M596 -12v-88h-551v135q0 47 22 70t70 26l322 22q18 1 25 8t7 25v21q0 17 -7 24t-25 7h-266q-17 0 -24 -7t-7 -24v-19h-109v40q0 48 22.5 70t69.5 22h366q47 0 69.5 -22t22.5 -70v-55q0 -47 -22 -70t-70 -26l-322 -22q-18 -2 -25 -9t-7 -24v-34h439z" />
    <glyph glyph-name="three.subs" horiz-adv-x="646" 
d="M554 117q49 -13 49 -80v-45q0 -48 -22 -70t-69 -22h-377q-47 0 -69.5 22t-22.5 70v55h109v-32q0 -18 6.5 -24.5t24.5 -6.5h277q18 0 24.5 6.5t6.5 24.5v32q0 17 -6.5 24t-24.5 7h-233v75h227q18 0 24.5 7t6.5 25v20q0 18 -6.5 24.5t-24.5 6.5h-265q-18 0 -24.5 -6.5
t-6.5 -24.5v-27h-109v50q0 48 22.5 70t69.5 22h365q47 0 69 -22t22 -70v-34q0 -62 -43 -77z" />
    <glyph glyph-name="four.subs" horiz-adv-x="664" 
d="M504 66h130v-80h-130v-86h-108v86h-365v67l349 267h124v-254zM396 236l-226 -170h226v170z" />
    <glyph glyph-name="five.subs" horiz-adv-x="629" 
d="M493 -100h-446v88h394q18 0 25 6.5t7 24.5v30q0 17 -7 24t-25 7h-394v240h519v-88h-407v-69h334q47 0 69 -22t22 -70v-79q0 -48 -22 -70t-69 -22z" />
    <glyph glyph-name="six.subs" horiz-adv-x="647" 
d="M218 163h293q47 0 69.5 -22t22.5 -69v-80q0 -48 -22.5 -70t-69.5 -22h-374q-47 0 -69.5 22t-22.5 70v210q0 61 29 89.5t89 28.5h422v-88h-382q-25 0 -35.5 -10t-10.5 -36v-43q17 20 61 20zM491 17v35q0 18 -7 25t-25 7h-270q-18 0 -25 -7t-7 -25v-35q0 -17 7 -24t25 -7
h270q18 0 25 7t7 24z" />
    <glyph glyph-name="seven.subs" horiz-adv-x="623" 
d="M31 227v93h561v-80l-215 -156q-23 -15 -31 -34t-8 -52v-98h-115v104q0 59 13 86q13 28 52 55l122 82h-379z" />
    <glyph glyph-name="eight.subs" horiz-adv-x="646" 
d="M554 117q49 -13 49 -80v-45q0 -48 -22 -70t-69 -22h-377q-47 0 -69.5 22t-22.5 70v45q0 65 50 80q-44 15 -44 77v34q0 48 22.5 70t69.5 22h365q47 0 69 -22t22 -70v-34q0 -62 -43 -77zM161 207v-25q0 -17 7 -24t24 -7h261q18 0 24.5 7t6.5 24v25q0 17 -6.5 24t-24.5 7
h-261q-17 0 -24 -7t-7 -24zM490 13v36q0 17 -6.5 24t-24.5 7h-273q-17 0 -24 -7t-7 -24v-36q0 -17 7 -24t24 -7h273q18 0 24.5 7t6.5 24z" />
    <glyph glyph-name="nine.subs" horiz-adv-x="647" 
d="M137 320h374q47 0 69.5 -22t22.5 -70v-210q0 -61 -29 -89.5t-89 -28.5h-422v88h382q25 0 35.5 10t10.5 35v42q-17 -21 -61 -21h-293q-47 0 -69.5 22t-22.5 69v83q0 48 22.5 70t69.5 22zM189 133h270q18 0 25 7t7 24v38q0 18 -7 25t-25 7h-270q-18 0 -25 -7t-7 -25v-38
q0 -17 7 -24t25 -7z" />
    <glyph glyph-name="zero.dnom" horiz-adv-x="647" 
d="M485 0h-322q-60 0 -89 28.5t-29 89.5v184q0 61 29 89.5t89 28.5h322q60 0 89 -28.5t29 -89.5v-184q0 -61 -29 -89.5t-89 -28.5zM203 90h242q25 0 35 10t10 35v150q0 25 -10 35t-35 10h-242q-25 0 -35.5 -10t-10.5 -35v-150q0 -25 10.5 -35t35.5 -10z" />
    <glyph glyph-name="one.dnom" horiz-adv-x="610" 
d="M373 420v-335h207v-85h-549v85h229v242l-211 -14v89l269 18h55z" />
    <glyph glyph-name="two.dnom" horiz-adv-x="647" 
d="M596 88v-88h-551v135q0 47 22 70t70 26l322 22q18 1 25 8t7 25v21q0 17 -7 24t-25 7h-266q-17 0 -24 -7t-7 -24v-19h-109v40q0 48 22.5 70t69.5 22h366q47 0 69.5 -22t22.5 -70v-55q0 -47 -22 -70t-70 -26l-322 -22q-18 -2 -25 -9t-7 -24v-34h439z" />
    <glyph glyph-name="three.dnom" horiz-adv-x="646" 
d="M554 217q49 -13 49 -80v-45q0 -48 -22 -70t-69 -22h-377q-47 0 -69.5 22t-22.5 70v55h109v-32q0 -18 6.5 -24.5t24.5 -6.5h277q18 0 24.5 6.5t6.5 24.5v32q0 17 -6.5 24t-24.5 7h-233v75h227q18 0 24.5 7t6.5 25v20q0 18 -6.5 24.5t-24.5 6.5h-265q-18 0 -24.5 -6.5
t-6.5 -24.5v-27h-109v50q0 48 22.5 70t69.5 22h365q47 0 69 -22t22 -70v-34q0 -62 -43 -77z" />
    <glyph glyph-name="four.dnom" horiz-adv-x="664" 
d="M504 166h130v-80h-130v-86h-108v86h-365v67l349 267h124v-254zM396 336l-226 -170h226v170z" />
    <glyph glyph-name="five.dnom" horiz-adv-x="629" 
d="M493 0h-446v88h394q18 0 25 6.5t7 24.5v30q0 17 -7 24t-25 7h-394v240h519v-88h-407v-69h334q47 0 69 -22t22 -70v-79q0 -48 -22 -70t-69 -22z" />
    <glyph glyph-name="six.dnom" horiz-adv-x="647" 
d="M218 263h293q47 0 69.5 -22t22.5 -69v-80q0 -48 -22.5 -70t-69.5 -22h-374q-47 0 -69.5 22t-22.5 70v210q0 61 29 89.5t89 28.5h422v-88h-382q-25 0 -35.5 -10t-10.5 -36v-43q17 20 61 20zM491 117v35q0 18 -7 25t-25 7h-270q-18 0 -25 -7t-7 -25v-35q0 -17 7 -24t25 -7
h270q18 0 25 7t7 24z" />
    <glyph glyph-name="seven.dnom" horiz-adv-x="623" 
d="M31 327v93h561v-80l-215 -156q-23 -15 -31 -34t-8 -52v-98h-115v104q0 59 13 86q13 28 52 55l122 82h-379z" />
    <glyph glyph-name="eight.dnom" horiz-adv-x="646" 
d="M554 217q49 -13 49 -80v-45q0 -48 -22 -70t-69 -22h-377q-47 0 -69.5 22t-22.5 70v45q0 65 50 80q-44 15 -44 77v34q0 48 22.5 70t69.5 22h365q47 0 69 -22t22 -70v-34q0 -62 -43 -77zM161 307v-25q0 -17 7 -24t24 -7h261q18 0 24.5 7t6.5 24v25q0 17 -6.5 24t-24.5 7
h-261q-17 0 -24 -7t-7 -24zM490 113v36q0 17 -6.5 24t-24.5 7h-273q-17 0 -24 -7t-7 -24v-36q0 -17 7 -24t24 -7h273q18 0 24.5 7t6.5 24z" />
    <glyph glyph-name="nine.dnom" horiz-adv-x="647" 
d="M137 420h374q47 0 69.5 -22t22.5 -70v-210q0 -61 -29 -89.5t-89 -28.5h-422v88h382q25 0 35.5 10t10.5 35v42q-17 -21 -61 -21h-293q-47 0 -69.5 22t-22.5 69v83q0 48 22.5 70t69.5 22zM189 233h270q18 0 25 7t7 24v38q0 18 -7 25t-25 7h-270q-18 0 -25 -7t-7 -25v-38
q0 -17 7 -24t25 -7z" />
    <glyph glyph-name="zero.numr" horiz-adv-x="647" 
d="M485 280h-322q-60 0 -89 28.5t-29 89.5v184q0 61 29 89.5t89 28.5h322q60 0 89 -28.5t29 -89.5v-184q0 -61 -29 -89.5t-89 -28.5zM203 370h242q25 0 35 10t10 35v150q0 25 -10 35t-35 10h-242q-25 0 -35.5 -10t-10.5 -35v-150q0 -25 10.5 -35t35.5 -10z" />
    <glyph glyph-name="one.numr" horiz-adv-x="610" 
d="M373 700v-335h207v-85h-549v85h229v242l-211 -14v89l269 18h55z" />
    <glyph glyph-name="two.numr" horiz-adv-x="647" 
d="M596 368v-88h-551v135q0 47 22 70t70 26l322 22q18 1 25 8t7 25v21q0 17 -7 24t-25 7h-266q-17 0 -24 -7t-7 -24v-19h-109v40q0 48 22.5 70t69.5 22h366q47 0 69.5 -22t22.5 -70v-55q0 -47 -22 -70t-70 -26l-322 -22q-18 -2 -25 -9t-7 -24v-34h439z" />
    <glyph glyph-name="three.numr" horiz-adv-x="646" 
d="M554 497q49 -13 49 -80v-45q0 -48 -22 -70t-69 -22h-377q-47 0 -69.5 22t-22.5 70v55h109v-32q0 -18 6.5 -24.5t24.5 -6.5h277q18 0 24.5 6.5t6.5 24.5v32q0 17 -6.5 24t-24.5 7h-233v75h227q18 0 24.5 7t6.5 25v20q0 18 -6.5 24.5t-24.5 6.5h-265q-18 0 -24.5 -6.5
t-6.5 -24.5v-27h-109v50q0 48 22.5 70t69.5 22h365q47 0 69 -22t22 -70v-34q0 -62 -43 -77z" />
    <glyph glyph-name="four.numr" horiz-adv-x="664" 
d="M504 446h130v-80h-130v-86h-108v86h-365v67l349 267h124v-254zM396 616l-226 -170h226v170z" />
    <glyph glyph-name="five.numr" horiz-adv-x="629" 
d="M493 280h-446v88h394q18 0 25 6.5t7 24.5v30q0 17 -7 24t-25 7h-394v240h519v-88h-407v-69h334q47 0 69 -22t22 -70v-79q0 -48 -22 -70t-69 -22z" />
    <glyph glyph-name="six.numr" horiz-adv-x="647" 
d="M218 543h293q47 0 69.5 -22t22.5 -69v-80q0 -48 -22.5 -70t-69.5 -22h-374q-47 0 -69.5 22t-22.5 70v210q0 61 29 89.5t89 28.5h422v-88h-382q-25 0 -35.5 -10t-10.5 -36v-43q17 20 61 20zM491 397v35q0 18 -7 25t-25 7h-270q-18 0 -25 -7t-7 -25v-35q0 -17 7 -24t25 -7
h270q18 0 25 7t7 24z" />
    <glyph glyph-name="seven.numr" horiz-adv-x="623" 
d="M31 607v93h561v-80l-215 -156q-23 -15 -31 -34t-8 -52v-98h-115v104q0 59 13 86q13 28 52 55l122 82h-379z" />
    <glyph glyph-name="eight.numr" horiz-adv-x="646" 
d="M554 497q49 -13 49 -80v-45q0 -48 -22 -70t-69 -22h-377q-47 0 -69.5 22t-22.5 70v45q0 65 50 80q-44 15 -44 77v34q0 48 22.5 70t69.5 22h365q47 0 69 -22t22 -70v-34q0 -62 -43 -77zM161 587v-25q0 -17 7 -24t24 -7h261q18 0 24.5 7t6.5 24v25q0 17 -6.5 24t-24.5 7
h-261q-17 0 -24 -7t-7 -24zM490 393v36q0 17 -6.5 24t-24.5 7h-273q-17 0 -24 -7t-7 -24v-36q0 -17 7 -24t24 -7h273q18 0 24.5 7t6.5 24z" />
    <glyph glyph-name="nine.numr" horiz-adv-x="647" 
d="M137 700h374q47 0 69.5 -22t22.5 -70v-210q0 -61 -29 -89.5t-89 -28.5h-422v88h382q25 0 35.5 10t10.5 35v42q-17 -21 -61 -21h-293q-47 0 -69.5 22t-22.5 69v83q0 48 22.5 70t69.5 22zM189 513h270q18 0 25 7t7 24v38q0 18 -7 25t-25 7h-270q-18 0 -25 -7t-7 -25v-38
q0 -17 7 -24t25 -7z" />
    <glyph glyph-name="zero.sups" horiz-adv-x="647" 
d="M485 380h-322q-60 0 -89 28.5t-29 89.5v184q0 61 29 89.5t89 28.5h322q60 0 89 -28.5t29 -89.5v-184q0 -61 -29 -89.5t-89 -28.5zM203 470h242q25 0 35 10t10 35v150q0 25 -10 35t-35 10h-242q-25 0 -35.5 -10t-10.5 -35v-150q0 -25 10.5 -35t35.5 -10z" />
    <glyph glyph-name="one.sups" horiz-adv-x="610" 
d="M373 800v-335h207v-85h-549v85h229v242l-211 -14v89l269 18h55z" />
    <glyph glyph-name="two.sups" horiz-adv-x="647" 
d="M596 468v-88h-551v135q0 47 22 70t70 26l322 22q18 1 25 8t7 25v21q0 17 -7 24t-25 7h-266q-17 0 -24 -7t-7 -24v-19h-109v40q0 48 22.5 70t69.5 22h366q47 0 69.5 -22t22.5 -70v-55q0 -47 -22 -70t-70 -26l-322 -22q-18 -2 -25 -9t-7 -24v-34h439z" />
    <glyph glyph-name="three.sups" horiz-adv-x="646" 
d="M554 597q49 -13 49 -80v-45q0 -48 -22 -70t-69 -22h-377q-47 0 -69.5 22t-22.5 70v55h109v-32q0 -18 6.5 -24.5t24.5 -6.5h277q18 0 24.5 6.5t6.5 24.5v32q0 17 -6.5 24t-24.5 7h-233v75h227q18 0 24.5 7t6.5 25v20q0 18 -6.5 24.5t-24.5 6.5h-265q-18 0 -24.5 -6.5
t-6.5 -24.5v-27h-109v50q0 48 22.5 70t69.5 22h365q47 0 69 -22t22 -70v-34q0 -62 -43 -77z" />
    <glyph glyph-name="four.sups" horiz-adv-x="664" 
d="M504 546h130v-80h-130v-86h-108v86h-365v67l349 267h124v-254zM396 716l-226 -170h226v170z" />
    <glyph glyph-name="five.sups" horiz-adv-x="629" 
d="M493 380h-446v88h394q18 0 25 6.5t7 24.5v30q0 17 -7 24t-25 7h-394v240h519v-88h-407v-69h334q47 0 69 -22t22 -70v-79q0 -48 -22 -70t-69 -22z" />
    <glyph glyph-name="six.sups" horiz-adv-x="647" 
d="M218 643h293q47 0 69.5 -22t22.5 -69v-80q0 -48 -22.5 -70t-69.5 -22h-374q-47 0 -69.5 22t-22.5 70v210q0 61 29 89.5t89 28.5h422v-88h-382q-25 0 -35.5 -10t-10.5 -36v-43q17 20 61 20zM491 497v35q0 18 -7 25t-25 7h-270q-18 0 -25 -7t-7 -25v-35q0 -17 7 -24t25 -7
h270q18 0 25 7t7 24z" />
    <glyph glyph-name="seven.sups" horiz-adv-x="623" 
d="M31 707v93h561v-80l-215 -156q-23 -15 -31 -34t-8 -52v-98h-115v104q0 59 13 86q13 28 52 55l122 82h-379z" />
    <glyph glyph-name="eight.sups" horiz-adv-x="646" 
d="M554 597q49 -13 49 -80v-45q0 -48 -22 -70t-69 -22h-377q-47 0 -69.5 22t-22.5 70v45q0 65 50 80q-44 15 -44 77v34q0 48 22.5 70t69.5 22h365q47 0 69 -22t22 -70v-34q0 -62 -43 -77zM161 687v-25q0 -17 7 -24t24 -7h261q18 0 24.5 7t6.5 24v25q0 17 -6.5 24t-24.5 7
h-261q-17 0 -24 -7t-7 -24zM490 493v36q0 17 -6.5 24t-24.5 7h-273q-17 0 -24 -7t-7 -24v-36q0 -17 7 -24t24 -7h273q18 0 24.5 7t6.5 24z" />
    <glyph glyph-name="nine.sups" horiz-adv-x="647" 
d="M137 800h374q47 0 69.5 -22t22.5 -70v-210q0 -61 -29 -89.5t-89 -28.5h-422v88h382q25 0 35.5 10t10.5 35v42q-17 -21 -61 -21h-293q-47 0 -69.5 22t-22.5 69v83q0 48 22.5 70t69.5 22zM189 613h270q18 0 25 7t7 24v38q0 18 -7 25t-25 7h-270q-18 0 -25 -7t-7 -25v-38
q0 -17 7 -24t25 -7z" />
    <glyph glyph-name="numbersign.numr" horiz-adv-x="652" 
d="M613 600v-64h-130l-14 -92h118v-64h-128l-16 -100h-82l16 100h-136l-16 -100h-82l16 100h-119v64h129l14 92h-118v64h128l16 100h82l-16 -100h136l16 100h82l-16 -100h120zM251 444h136l14 92h-136z" />
    <glyph glyph-name="numbersign.tf" 
d="M974 517v-80h-205l-28 -174h191v-80h-203l-29 -183h-103l29 183h-272l-29 -183h-103l29 183h-193v80h205l28 174h-191v80h203l29 183h103l-29 -183h272l29 183h103l-29 -183h193zM366 263h272l28 174h-272z" />
    <glyph glyph-name="cent.numr" horiz-adv-x="647" 
d="M603 594v-38h-108v22q0 22 -8.5 30t-30.5 8h-260q-22 0 -30.5 -8t-8.5 -30v-108q0 -22 8.5 -30t30.5 -8h260q22 0 30.5 8t8.5 30v26h108v-42q0 -56 -25 -81t-81 -25h-135v-60h-75v60h-136q-56 0 -81 25t-25 81v140q0 56 25 81t81 25h136v60h75v-60h135q56 0 81 -25
t25 -81z" />
    <glyph glyph-name="dollar.numr" horiz-adv-x="647" 
d="M191 545l322 -16q49 -2 70.5 -23t21.5 -68v-66q0 -48 -22.5 -70t-69.5 -22h-152v-60h-75v60h-152q-47 0 -69.5 22t-22.5 70v38h109v-17q0 -18 6.5 -25t24.5 -7h279q18 0 25 7t7 25v21q0 17 -7 23t-25 7l-321 17q-49 2 -70.5 23t-21.5 68v56q0 48 22.5 70t69.5 22h146v60
h75v-60h144q47 0 69 -22t22 -70v-32h-108v11q0 18 -7 25t-25 7h-264q-18 0 -25 -7t-7 -25v-11q0 -17 7 -23.5t24 -7.5z" />
    <glyph glyph-name="Euro.numr" horiz-adv-x="673" 
d="M629 582v-51h-109v41q0 26 -10 36t-35 10h-240q-25 0 -35.5 -10t-10.5 -36v-18h267v-44h-267v-40h267v-44h-267v-18q0 -26 10.5 -36t35.5 -10h240q25 0 35 10t10 36v45h109v-55q0 -61 -29 -89.5t-89 -28.5h-316q-60 0 -89 28.5t-29 89.5v28h-62v44h62v40h-62v44h62v28
q0 61 29 89.5t89 28.5h316q60 0 89 -28.5t29 -89.5z" />
    <glyph glyph-name="florin.numr" horiz-adv-x="598" 
d="M562 610h-144q-25 0 -35.5 -9.5t-12.5 -35.5l-8 -78h188v-66h-195l-12 -119q-6 -63 -34 -90.5t-88 -27.5h-184v90h144q25 0 35.5 10t13.5 36l11 101h-192v66h199l10 95q7 63 34 90.5t86 27.5h184v-90z" />
    <glyph glyph-name="sterling.numr" horiz-adv-x="659" 
d="M615 582v-41h-109v31q0 26 -10 36t-35 10h-239q-22 0 -31.5 -10.5t-9.5 -35.5v-48h261v-58h-261v-100h294q17 0 24 7t7 24v40h109v-65q0 -48 -22.5 -70t-69.5 -22h-502v86h48v100h-54v58h54v58q0 61 29 89.5t89 28.5h310q60 0 89 -28.5t29 -89.5z" />
    <glyph glyph-name="yen.numr" horiz-adv-x="646" 
d="M603 425h-224v-43h225v-48h-225v-54h-112v54h-224v48h224v43h-224v48h191l-209 227h148l153 -179l153 179h143l-209 -227h190v-48z" />
    <glyph glyph-name="cent.tf" 
d="M966 534v-55h-128v36q0 49 -18 67t-67 18h-470q-49 0 -67 -18t-18 -67v-200q0 -49 18 -67t67 -18h470q49 0 67 18t18 67v43h128v-62q0 -89 -39 -127.5t-127 -38.5h-236v-100h-92v100h-240q-88 0 -127 38.5t-39 127.5v238q0 89 39 127.5t127 38.5h240v100h92v-100h236
q88 0 127 -38.5t39 -127.5z" />
    <glyph glyph-name="dollar.tf" 
d="M272 428l556 -31q75 -4 108.5 -37t33.5 -105v-113q0 -73 -35 -107.5t-107 -34.5h-266v-100h-93v100h-265q-72 0 -107 34.5t-35 107.5v62h128v-36q0 -38 15 -53t53 -15h512q38 0 53 15t15 53v59q0 38 -14.5 52t-53.5 16l-556 31q-74 4 -108 37.5t-34 104.5v90
q0 73 35 107.5t107 34.5h255v100h93v-100h252q72 0 107 -34.5t35 -107.5v-48h-128v22q0 38 -15 53t-53 15h-488q-38 0 -53 -15t-15 -53v-36q0 -37 15 -51.5t53 -16.5z" />
    <glyph glyph-name="Euro.tf" 
d="M966 514v-74h-128v62q0 55 -22.5 77.5t-77.5 22.5h-420q-55 0 -77.5 -22.5t-22.5 -77.5v-50h488v-59h-488v-86h488v-59h-488v-50q0 -55 22.5 -77.5t77.5 -22.5h420q55 0 77.5 22.5t22.5 77.5v71h128v-83q0 -96 -45 -141t-141 -45h-508q-96 0 -141 45t-45 141v62h-80v59
h80v86h-80v59h80v62q0 96 45 141t141 45h508q96 0 141 -45t45 -141z" />
    <glyph glyph-name="florin.tf" 
d="M964 594h-251q-54 0 -76.5 -21.5t-29.5 -78.5l-17 -161h354v-86h-363l-24 -221q-11 -99 -55 -142.5t-137 -43.5h-297v106h251q54 0 76.5 21.5t29.5 78.5l21 201h-358v86h368l19 181q11 99 55 142.5t137 43.5h297v-106z" />
    <glyph glyph-name="sterling.tf" 
d="M966 514v-60h-128v48q0 55 -22.5 77.5t-77.5 22.5h-414q-52 0 -74 -22.5t-22 -77.5v-109h478v-74h-478v-217h542q38 0 53 15t15 53v68h128v-96q0 -74 -34.5 -108t-107.5 -34h-808v102h80v217h-90v74h90v121q0 96 45 141t141 45h498q96 0 141 -45t45 -141z" />
    <glyph glyph-name="yen.tf" 
d="M836 700h168l-376 -389h346v-64h-392v-90h392v-64h-392v-93h-132v93h-392v64h392v90h-392v64h346l-376 389h175l317 -345z" />
    <glyph glyph-name="percent.numr" horiz-adv-x="713" 
d="M268 504h-170q-63 0 -63 63v70q0 63 63 63h170q63 0 63 -63v-70q0 -63 -63 -63zM153 280h-70l475 420h71zM120 556h128q20 0 20 21v49q0 12 -4 16.5t-16 4.5h-128q-12 0 -16.5 -4t-4.5 -17v-49q0 -21 21 -21zM615 280h-171q-63 0 -63 63v70q0 63 63 63h171q62 0 62 -63
v-70q0 -63 -62 -63zM466 333h128q11 0 15.5 4.5t4.5 16.5v49q0 12 -4.5 16.5t-15.5 4.5h-128q-12 0 -16.5 -4.5t-4.5 -16.5v-49q0 -12 4.5 -16.5t16.5 -4.5z" />
    <glyph glyph-name="perthousand.numr" horiz-adv-x="1041" 
d="M268 504h-170q-63 0 -63 63v70q0 63 63 63h170q63 0 63 -63v-70q0 -63 -63 -63zM153 280h-70l475 420h71zM120 556h128q20 0 20 21v49q0 12 -4 16.5t-16 4.5h-128q-12 0 -16.5 -4t-4.5 -17v-49q0 -21 21 -21zM615 280h-171q-63 0 -63 63v70q0 63 63 63h171q62 0 62 -63
v-70q0 -63 -62 -63zM944 280h-171q-63 0 -63 63v70q0 63 63 63h171q62 0 62 -63v-70q0 -63 -62 -63zM466 333h128q11 0 15.5 4.5t4.5 16.5v49q0 12 -4.5 16.5t-15.5 4.5h-128q-12 0 -16.5 -4.5t-4.5 -16.5v-49q0 -12 4.5 -16.5t16.5 -4.5zM795 333h128q11 0 15.5 4.5
t4.5 16.5v49q0 12 -4.5 16.5t-15.5 4.5h-128q-12 0 -16.5 -4.5t-4.5 -16.5v-49q0 -12 4.5 -16.5t16.5 -4.5z" />
    <glyph glyph-name="percent.tf" horiz-adv-x="1140" 
d="M406 376h-260q-104 0 -104 104v116q0 54 25.5 79t78.5 25h260q53 0 78.5 -25t25.5 -79v-116q0 -104 -104 -104zM226 0h-96l784 700h96zM172 442h208q28 0 40 12t12 40v88q0 28 -12 40t-40 12h-208q-28 0 -40 -12t-12 -40v-88q0 -28 12 -40t40 -12zM994 0h-260
q-104 0 -104 104v116q0 54 25.5 79t78.5 25h260q53 0 78.5 -25t25.5 -79v-116q0 -104 -104 -104zM760 66h208q28 0 40 12t12 40v88q0 28 -12 40t-40 12h-208q-28 0 -40 -12t-12 -40v-88q0 -28 12 -40t40 -12z" />
    <glyph glyph-name="perthousand.tf" horiz-adv-x="1660" 
d="M406 376h-260q-104 0 -104 104v116q0 54 25.5 79t78.5 25h260q53 0 78.5 -25t25.5 -79v-116q0 -104 -104 -104zM226 0h-96l784 700h96zM172 442h208q28 0 40 12t12 40v88q0 28 -12 40t-40 12h-208q-28 0 -40 -12t-12 -40v-88q0 -28 12 -40t40 -12zM994 0h-260
q-104 0 -104 104v116q0 54 25.5 79t78.5 25h260q53 0 78.5 -25t25.5 -79v-116q0 -104 -104 -104zM1514 0h-260q-104 0 -104 104v116q0 54 25.5 79t78.5 25h260q53 0 78.5 -25t25.5 -79v-116q0 -104 -104 -104zM760 66h208q28 0 40 12t12 40v88q0 28 -12 40t-40 12h-208
q-28 0 -40 -12t-12 -40v-88q0 -28 12 -40t40 -12zM1280 66h208q28 0 40 12t12 40v88q0 28 -12 40t-40 12h-208q-28 0 -40 -12t-12 -40v-88q0 -28 12 -40t40 -12z" />
    <glyph glyph-name="brevecombcy" horiz-adv-x="0" 
d="M-137 576h-304q-73 0 -73 73v51h94v-36q0 -30 30 -30h202q30 0 30 30v36h94v-51q0 -73 -73 -73z" />
    <glyph glyph-name="ringacutecomb" horiz-adv-x="466" 
d="M324 628h36q54 0 54 -54v-26q0 -54 -54 -54h-254q-54 0 -54 54v26q0 54 54 54h95l70 72h142zM357 554v14q0 12 -4 16.5t-16 4.5h-208q-12 0 -16 -4.5t-4 -16.5v-14q0 -12 4 -16.5t16 -4.5h208q12 0 16 4.5t4 16.5z" />
    </font>
</defs>
</svg>
