<?xml version="1.0" standalone="no"?>
<!DOCTYPE svg PUBLIC "-//W3C//DTD SVG 1.1//EN" "http://www.w3.org/Graphics/SVG/1.1/DTD/svg11.dtd" >
<svg xmlns="http://www.w3.org/2000/svg" xmlns:xlink="http://www.w3.org/1999/xlink" version="1.1">
<metadata>
Created by FontForge 20170731 at Thu Jun 30 17:45:14 2016
 By Aleksey,,,
(c)2016 Richard Miller
</metadata>
<defs>
<font id="TacticSansExd-Lgt" horiz-adv-x="864" >
  <font-face 
    font-family="TacticSansExd-Lgt"
    font-weight="400"
    font-stretch="expanded"
    units-per-em="1000"
    panose-1="0 0 4 5 0 0 0 0 0 0"
    ascent="814"
    descent="-186"
    x-height="522"
    cap-height="700"
    bbox="-884 -169 1453 878"
    underline-thickness="50"
    underline-position="-200"
    unicode-range="U+0020-FB02"
  />
<missing-glyph horiz-adv-x="720" 
d="M10 0v700h700v-700h-700zM259 350l-169 -169l107 -107l169 169l169 -169l107 107l-169 169l169 169l-107 107l-169 -169l-169 169l-107 -107z" />
    <glyph glyph-name="ellipsis" unicode="&#x2e;&#x2e;&#x2e;" horiz-adv-x="857" 
d="M159 0h-83v81h83v-81zM470 0h-83v81h83v-81zM781 0h-83v81h83v-81z" />
    <glyph glyph-name="blackbox.liga" unicode="[&#x2b;]" horiz-adv-x="940" 
d="M120 0v700h700v-700h-700z" />
    <glyph glyph-name="checkbox.liga" unicode="[]" horiz-adv-x="940" 
d="M120 0v700h700v-700h-700zM773 655h-606v-610h606v610z" />
    <glyph glyph-name="checkround.liga" unicode="&#x28;&#x29;" horiz-adv-x="940" 
d="M726 95q-105 -105 -256 -105q-152 0 -255 105q-105 103 -105 255q0 151 105 256q104 104 255 104q150 0 256 -104q104 -106 104 -256q0 -151 -104 -255zM248 126q91 -91 222 -91t222 91t91 224t-91 224t-222 91t-222 -91t-91 -224t91 -224z" />
    <glyph glyph-name="checkstar.liga" unicode="&#x7b;&#x7d;" horiz-adv-x="940" 
d="M378 437l92 283l92 -283h297l-240 -174l91 -283l-240 175l-240 -175l91 283l-240 174h297zM533 396l-63 193l-63 -193h-201l163 -118l-62 -192l163 119l163 -119l-62 192l163 118h-201z" />
    <glyph glyph-name="blackround.liga" unicode="&#x28;&#x2b;&#x29;" horiz-adv-x="940" 
d="M726 95q-105 -105 -256 -105q-152 0 -255 105q-105 103 -105 255q0 151 105 256q104 104 255 104q150 0 256 -104q104 -106 104 -256q0 -151 -104 -255z" />
    <glyph glyph-name="filledstar.liga" unicode="&#x7b;&#x2b;&#x7d;" horiz-adv-x="940" 
d="M378 437l92 283l92 -283h297l-240 -174l91 -283l-240 175l-240 -175l91 283l-240 174h297z" />
    <glyph glyph-name="ff.liga" unicode="ff" horiz-adv-x="1028" 
d="M1009 650h-237q-47 0 -66.5 -19.5t-19.5 -66.5v-103h323v-51h-323v-410h-61v410h-388v-410h-61v410h-157v51h157v109q0 67 32 98.5t98 31.5h208v-50h-191q-47 0 -66.5 -19.5t-19.5 -66.5v-103h388v109q0 67 32 98.5t98 31.5h254v-50z" />
    <glyph glyph-name=".notdef" horiz-adv-x="720" 
d="M10 0v700h700v-700h-700zM259 350l-169 -169l107 -107l169 169l169 -169l107 107l-169 169l169 169l-107 107l-169 -169l-169 169l-107 -107z" />
    <glyph glyph-name=".null" horiz-adv-x="0" 
 />
    <glyph glyph-name="nonmarkingreturn" horiz-adv-x="333" 
 />
    <glyph glyph-name="space" unicode=" " horiz-adv-x="300" 
 />
    <glyph glyph-name="exclam" unicode="!" horiz-adv-x="235" 
d="M94 171l-13 529h73l-13 -529h-47zM159 0h-83v77h83v-77z" />
    <glyph glyph-name="quotedbl" unicode="&#x22;" horiz-adv-x="380" 
d="M76 462v238h57v-238h-57zM247 462v238h57v-238h-57z" />
    <glyph glyph-name="numbersign" unicode="#" 
d="M803 448v-47h-171l-32 -182h163v-46h-171l-31 -173h-57l31 173h-254l-31 -173h-57l31 173h-163v46h171l32 182h-163v47h171l31 172h57l-31 -172h254l31 172h57l-31 -172h163zM289 219h254l32 182h-254z" />
    <glyph glyph-name="dollar" unicode="$" 
d="M235 410l422 -35q69 -6 99.5 -35.5t30.5 -94.5v-115q0 -67 -32 -98.5t-98 -31.5h-199v-100h-52v100h-199q-66 0 -98 31.5t-32 98.5v59h61v-51q0 -47 19.5 -66.5t66.5 -19.5h415q47 0 66.5 19.5t19.5 66.5v97q0 45 -18.5 63t-67.5 23l-422 35q-69 6 -99.5 35.5t-30.5 94.5
v84q0 67 32 98.5t98 31.5h189v100h52v-100h185q66 0 98 -31.5t32 -98.5v-42h-61v34q0 47 -19.5 66.5t-66.5 19.5h-391q-47 0 -66.5 -19.5t-19.5 -66.5v-66q0 -45 19 -63.5t67 -22.5z" />
    <glyph glyph-name="percent" unicode="%" horiz-adv-x="972" 
d="M318 309h-166q-104 0 -104 104v103q0 54 25.5 79t78.5 25h166q53 0 78.5 -25t25.5 -79v-103q0 -104 -104 -104zM196 0h-62l642 620h62zM162 353h146q36 0 51.5 15.5t15.5 50.5v91q0 36 -15.5 51t-51.5 15h-146q-36 0 -51.5 -15t-15.5 -51v-91q0 -35 15.5 -50.5
t51.5 -15.5zM820 0h-166q-104 0 -104 104v103q0 54 25.5 79t78.5 25h166q53 0 78.5 -25t25.5 -79v-103q0 -104 -104 -104zM664 44h146q36 0 51.5 15.5t15.5 50.5v91q0 36 -15.5 51t-51.5 15h-146q-36 0 -51.5 -15t-15.5 -51v-91q0 -35 15.5 -50.5t51.5 -15.5z" />
    <glyph glyph-name="ampersand" unicode="&#x26;" horiz-adv-x="926" 
d="M244 393h663v-49h-108v-214q0 -67 -32 -98.5t-98 -31.5h-473q-66 0 -98 31.5t-32 98.5v120q0 104 84 124q-54 27 -54 113v83q0 67 32 98.5t98 31.5h413q66 0 98 -31.5t32 -98.5v-40h-61v33q0 47 -19.5 66.5t-66.5 19.5h-378q-47 0 -66.5 -19.5t-19.5 -66.5v-84
q0 -47 19.5 -66.5t66.5 -19.5zM738 137v207h-524q-47 0 -66.5 -19.5t-19.5 -66.5v-121q0 -47 19.5 -66.5t66.5 -19.5h438q47 0 66.5 19.5t19.5 66.5z" />
    <glyph glyph-name="quotesingle" unicode="'" horiz-adv-x="209" 
d="M76 462v238h57v-238h-57z" />
    <glyph glyph-name="parenleft" unicode="(" horiz-adv-x="484" 
d="M446 -100h-155q-105 0 -160 54.5t-55 160.5v470q0 106 55 160.5t160 54.5h155v-51h-146q-166 0 -166 -166v-466q0 -166 166 -166h146v-51z" />
    <glyph glyph-name="parenright" unicode=")" horiz-adv-x="484" 
d="M38 800h155q105 0 160 -54.5t55 -160.5v-470q0 -106 -55 -160.5t-160 -54.5h-155v51h146q166 0 166 166v466q0 166 -166 166h-146v51z" />
    <glyph glyph-name="asterisk" unicode="*" horiz-adv-x="441" 
d="M377 605l16 -48l-140 -41l90 -115l-41 -28l-81 120l-82 -120l-40 28l89 116l-140 40l16 48l136 -50l-4 145h50l-5 -145z" />
    <glyph glyph-name="plus" unicode="+" 
d="M461 377h326v-54h-326v-274h-58v274h-326v54h326v274h58v-274z" />
    <glyph glyph-name="comma" unicode="," horiz-adv-x="235" 
d="M110 -160h-41l38 160h-31v81h83v-43q0 -31 -9 -56z" />
    <glyph glyph-name="hyphen" unicode="-" horiz-adv-x="516" 
d="M57 323v54h402v-54h-402z" />
    <glyph glyph-name="period" unicode="." horiz-adv-x="235" 
d="M159 0h-83v81h83v-81z" />
    <glyph glyph-name="slash" unicode="/" horiz-adv-x="520" 
d="M9 -100l452 900h50l-452 -900h-50z" />
    <glyph glyph-name="zero" unicode="0" 
d="M609 0h-354q-90 0 -132 41.5t-42 132.5v352q0 90 42 132t132 42h354q90 0 132 -42t42 -132v-352q0 -91 -42 -132.5t-132 -41.5zM270 54h324q70 0 98.5 28.5t28.5 98.5v338q0 70 -28.5 98.5t-98.5 28.5h-324q-70 0 -98.5 -28.5t-28.5 -98.5v-338q0 -70 28.5 -98.5
t98.5 -28.5z" />
    <glyph glyph-name="one" unicode="1" horiz-adv-x="804" 
d="M462 700v-648h295v-52h-710v52h353v592l-323 -27v53l357 30h28z" />
    <glyph glyph-name="two" unicode="2" 
d="M773 53v-53h-692v198q0 65 30.5 96.5t99.5 40.5l424 55q47 7 66.5 27.5t19.5 66.5v78q0 47 -19.5 66.5t-66.5 19.5h-393q-47 0 -66.5 -19.5t-19.5 -66.5v-45h-61v53q0 67 32 98.5t98 31.5h428q66 0 98 -31.5t32 -98.5v-95q0 -65 -30.5 -96.5t-99.5 -40.5l-424 -55
q-48 -7 -67 -27t-19 -67v-136h630z" />
    <glyph glyph-name="three" unicode="3" 
d="M714 370q71 -23 71 -120v-120q0 -67 -32 -98.5t-98 -31.5h-446q-66 0 -98 31.5t-32 98.5v78h61v-70q0 -47 19.5 -66.5t66.5 -19.5h411q47 0 66.5 19.5t19.5 66.5v119q0 47 -19.5 66.5t-66.5 19.5h-297v50h287q47 0 66.5 19.5t19.5 66.5v83q0 47 -19.5 66.5t-66.5 19.5
h-391q-47 0 -66.5 -19.5t-19.5 -66.5v-62h-61v70q0 67 32 98.5t98 31.5h426q66 0 98 -31.5t32 -98.5v-83q0 -90 -61 -117z" />
    <glyph glyph-name="four" unicode="4" horiz-adv-x="894" 
d="M646 239h201v-51h-201v-188h-61v188h-538v43l530 469h69v-461zM585 644l-458 -405h458v405z" />
    <glyph glyph-name="five" unicode="5" horiz-adv-x="834" 
d="M623 0h-538v53h520q47 0 66.5 19.5t19.5 66.5v132q0 47 -19.5 66.5t-66.5 19.5h-520v343h638v-53h-576v-237h476q66 0 98 -31.5t32 -98.5v-150q0 -67 -32 -98.5t-98 -31.5z" />
    <glyph glyph-name="six" unicode="6" 
d="M243 413h410q66 0 98 -31.5t32 -98.5v-153q0 -67 -32 -98.5t-98 -31.5h-442q-66 0 -98 31.5t-32 98.5v396q0 91 42 132.5t132 41.5h498v-53h-483q-70 0 -98.5 -29t-28.5 -98v-142q32 35 100 35zM721 138v137q0 47 -19.5 66.5t-66.5 19.5h-406q-47 0 -66.5 -19.5
t-19.5 -66.5v-137q0 -47 19.5 -66.5t66.5 -19.5h406q47 0 66.5 19.5t19.5 66.5z" />
    <glyph glyph-name="seven" unicode="7" horiz-adv-x="824" 
d="M47 646v54h730v-46l-308 -289q-47 -44 -61 -83q-14 -40 -14 -114v-168h-63v173q0 79 17 127q15 44 67 92l273 254h-641z" />
    <glyph glyph-name="eight" unicode="8" 
d="M714 370q71 -23 71 -120v-120q0 -67 -32 -98.5t-98 -31.5h-446q-66 0 -98 31.5t-32 98.5v120q0 97 71 120q-61 27 -61 117v83q0 67 32 98.5t98 31.5h426q66 0 98 -31.5t32 -98.5v-83q0 -90 -61 -117zM151 563v-84q0 -47 19.5 -66.5t66.5 -19.5h390q47 0 66.5 19.5
t19.5 66.5v84q0 47 -19.5 66.5t-66.5 19.5h-390q-47 0 -66.5 -19.5t-19.5 -66.5zM723 137v121q0 47 -19.5 66.5t-66.5 19.5h-410q-47 0 -66.5 -19.5t-19.5 -66.5v-121q0 -47 19.5 -66.5t66.5 -19.5h410q47 0 66.5 19.5t19.5 66.5z" />
    <glyph glyph-name="nine" unicode="9" 
d="M211 700h442q66 0 98 -31.5t32 -98.5v-396q0 -91 -42 -132.5t-132 -41.5h-498v53h483q70 0 98.5 29t28.5 98v134q-32 -35 -100 -35h-410q-66 0 -98 31.5t-32 98.5v161q0 67 32 98.5t98 31.5zM229 331h406q47 0 66.5 19.5t19.5 66.5v145q0 47 -19.5 66.5t-66.5 19.5h-406
q-47 0 -66.5 -19.5t-19.5 -66.5v-145q0 -47 19.5 -66.5t66.5 -19.5z" />
    <glyph glyph-name="colon" unicode=":" horiz-adv-x="235" 
d="M159 444h-83v78h83v-78zM159 0h-83v78h83v-78z" />
    <glyph glyph-name="semicolon" unicode=";" horiz-adv-x="235" 
d="M159 444h-83v78h83v-78zM110 -160h-41l38 160h-31v78h83v-40q0 -32 -9 -56z" />
    <glyph glyph-name="less" unicode="&#x3c;" 
d="M77 377l710 257v-57l-642 -227l642 -227v-57l-710 257v54z" />
    <glyph glyph-name="equal" unicode="=" 
d="M77 445v53h710v-53h-710zM77 202v53h710v-53h-710z" />
    <glyph glyph-name="greater" unicode="&#x3e;" 
d="M77 577v57l710 -257v-54l-710 -257v57l642 227z" />
    <glyph glyph-name="question" unicode="?" horiz-adv-x="789" 
d="M389 168h-60v81q0 63 27 94t91 43l134 22q48 9 69 31.5t21 66.5v56q0 47 -19.5 66.5t-66.5 19.5h-382q-47 0 -66.5 -19.5t-19.5 -66.5v-46h-61v54q0 67 32 98.5t98 31.5h417q66 0 98 -31.5t32 -98.5v-69q0 -63 -32.5 -97t-100.5 -46l-133 -22q-44 -8 -61 -29t-17 -66v-73
zM400 0h-83v74h83v-74z" />
    <glyph glyph-name="at" unicode="@" horiz-adv-x="1007" 
d="M240 700h527q90 0 132 -41.5t42 -132.5v-243q0 -60 -26.5 -86.5t-86.5 -26.5h-62q-71 0 -87 49l-26 -16q-36 -24 -66 -31.5t-80 -6.5h-174q-58 0 -81 27.5t-12 87.5l26 143q10 60 39.5 86t85.5 26h171q50 0 80.5 -8.5t58.5 -31.5l14 -12l12 41h43l-43 -252
q-6 -31 4.5 -44.5t40.5 -13.5h47q42 0 57.5 15t15.5 57v237q0 73 -30 103t-103 30h-510q-73 0 -103 -30t-30 -103v-346q0 -73 30 -103t103 -30h628v-44h-637q-90 0 -132 41.5t-42 132.5v352q0 90 42 132t132 42zM638 240l33 20l32 182l-25 20q-37 28 -112 28h-170
q-39 0 -54.5 -14.5t-23.5 -57.5l-24 -134q-8 -44 3 -59t53 -15h173q69 0 115 30z" />
    <glyph glyph-name="A" unicode="A" horiz-adv-x="900" 
d="M896 0h-71l-114 195h-524l-114 -195h-68l413 700h65zM449 645l-232 -398h464z" />
    <glyph glyph-name="B" unicode="B" horiz-adv-x="874" 
d="M740 372q77 -21 77 -122v-120q0 -67 -32 -98.5t-98 -31.5h-611v700h591q66 0 98 -31.5t32 -98.5v-83q0 -89 -57 -115zM648 648h-509v-255h509q47 0 66.5 19.5t19.5 66.5v83q0 47 -19.5 66.5t-66.5 19.5zM754 138v120q0 47 -19.5 66.5t-66.5 19.5h-529v-292h529
q47 0 66.5 19.5t19.5 66.5z" />
    <glyph glyph-name="C" unicode="C" horiz-adv-x="889" 
d="M652 0h-412q-90 0 -132 41.5t-42 132.5v352q0 90 42 132t132 42h412q90 0 132 -41.5t42 -132.5v-64h-62v57q0 70 -28.5 98.5t-98.5 28.5h-381q-69 0 -98 -28.5t-29 -98.5v-338q0 -70 29 -98.5t98 -28.5h381q70 0 98.5 28.5t28.5 98.5v66h62v-73q0 -91 -42 -132.5
t-132 -41.5z" />
    <glyph glyph-name="D" unicode="D" horiz-adv-x="913" 
d="M632 0h-556v700h556q105 0 160 -54.5t55 -160.5v-270q0 -106 -55 -160.5t-160 -54.5zM139 646v-592h481q164 0 164 164v264q0 164 -164 164h-481z" />
    <glyph glyph-name="E" unicode="E" horiz-adv-x="793" 
d="M139 343v-289h616v-54h-679v700h669v-54h-606v-252h566v-51h-566z" />
    <glyph glyph-name="F" unicode="F" horiz-adv-x="754" 
d="M735 700v-55h-596v-272h556v-53h-556v-320h-63v700h659z" />
    <glyph glyph-name="G" unicode="G" horiz-adv-x="913" 
d="M66 174v352q0 91 42 132.5t132 41.5h433q90 0 132 -41.5t42 -132.5v-35h-63v28q0 70 -28.5 98.5t-98.5 28.5h-401q-69 0 -98 -28.5t-29 -98.5v-339q0 -70 29 -98.5t98 -28.5h402q70 0 98.5 28.5t28.5 98.5v120h-299v52h361v-178q0 -91 -42 -132.5t-132 -41.5h-433
q-90 0 -132 42t-42 132z" />
    <glyph glyph-name="H" unicode="H" horiz-adv-x="903" 
d="M764 397v303h63v-700h-63v341h-625v-341h-63v700h63v-303h625z" />
    <glyph glyph-name="I" unicode="I" horiz-adv-x="227" 
d="M82 0v700h63v-700h-63z" />
    <glyph glyph-name="J" unicode="J" horiz-adv-x="807" 
d="M566 0h-354q-90 0 -132 41.5t-42 132.5v73h62v-66q0 -70 28.5 -98.5t98.5 -28.5h323q70 0 98.5 28.5t28.5 98.5v519h63v-526q0 -91 -42 -132.5t-132 -41.5z" />
    <glyph glyph-name="K" unicode="K" horiz-adv-x="805" 
d="M224 361l572 -361h-111l-546 350v-350h-63v700h63v-331l540 331h113z" />
    <glyph glyph-name="L" unicode="L" horiz-adv-x="724" 
d="M139 700v-645h566v-55h-629v700h63z" />
    <glyph glyph-name="M" unicode="M" horiz-adv-x="1031" 
d="M517 216l385 484h53v-700h-61v600l-360 -446h-37l-360 446v-600h-61v700h56z" />
    <glyph glyph-name="N" unicode="N" horiz-adv-x="923" 
d="M785 91v609h62v-700h-49l-660 613v-613h-62v700h54z" />
    <glyph glyph-name="O" unicode="O" horiz-adv-x="913" 
d="M673 0h-433q-90 0 -132 41.5t-42 132.5v352q0 90 42 132t132 42h433q90 0 132 -41.5t42 -132.5v-352q0 -91 -42 -132.5t-132 -41.5zM256 54h401q70 0 98.5 29t28.5 98v338q0 69 -28.5 98t-98.5 29h-401q-69 0 -98 -29t-29 -98v-338q0 -69 29 -98t98 -29z" />
    <glyph glyph-name="P" unicode="P" horiz-adv-x="845" 
d="M139 0h-63v700h577q83 0 118.5 -35.5t35.5 -118.5v-122q0 -83 -35.5 -118.5t-118.5 -35.5h-514v-270zM139 648v-327h497q62 0 85 23.5t23 85.5v109q0 62 -23 85.5t-85 23.5h-497z" />
    <glyph glyph-name="Q" unicode="Q" horiz-adv-x="913" 
d="M847 526v-352q0 -91 -42 -132.5t-132 -41.5h-6l139 -140h-79l-134 140h-353q-90 0 -132 41.5t-42 132.5v352q0 90 42 132t132 42h433q90 0 132 -41.5t42 -132.5zM129 519v-338q0 -69 29 -98t98 -29h401q70 0 98.5 29t28.5 98v338q0 69 -28.5 98t-98.5 29h-401
q-69 0 -98 -29t-29 -98z" />
    <glyph glyph-name="R" unicode="R" horiz-adv-x="874" 
d="M592 292l245 -292h-78l-242 291h-378v-291h-63v700h577q83 0 118.5 -35.5t35.5 -118.5v-99q0 -84 -35.5 -119t-118.5 -35zM636 649h-497v-308h497q62 0 85 23.5t23 85.5v90q0 62 -23 85.5t-85 23.5z" />
    <glyph glyph-name="S" unicode="S" horiz-adv-x="893" 
d="M66 130v59h62v-51q0 -47 19.5 -66.5t66.5 -19.5h464q47 0 66.5 19.5t19.5 66.5v97q0 45 -18.5 63t-67.5 23l-472 35q-69 6 -99.5 35.5t-30.5 94.5v84q0 67 32 98.5t98 31.5h477q66 0 98 -31.5t32 -98.5v-42h-62v34q0 47 -19.5 66.5t-66.5 19.5h-440q-47 0 -66.5 -19.5
t-19.5 -66.5v-66q0 -44 18.5 -62.5t67.5 -23.5l472 -34q69 -6 99.5 -35.5t30.5 -94.5v-116q0 -67 -32 -98.5t-98 -31.5h-501q-66 0 -98 31.5t-32 98.5z" />
    <glyph glyph-name="T" unicode="T" horiz-adv-x="785" 
d="M19 700h747v-55h-342v-645h-63v645h-342v55z" />
    <glyph glyph-name="U" unicode="U" horiz-adv-x="884" 
d="M644 0h-403q-90 0 -132 41.5t-42 132.5v526h63v-518q0 -70 28.5 -98.5t98.5 -28.5h371q69 0 98 28.5t29 98.5v518h63v-526q0 -91 -42 -132.5t-132 -41.5z" />
    <glyph glyph-name="V" unicode="V" horiz-adv-x="873" 
d="M438 63l362 637h68l-402 -700h-59l-402 700h71z" />
    <glyph glyph-name="W" unicode="W" horiz-adv-x="1231" 
d="M896 79l263 621h67l-301 -700h-57l-252 611l-253 -611h-57l-301 700h70l263 -621l253 621h52z" />
    <glyph glyph-name="X" unicode="X" horiz-adv-x="849" 
d="M94 0h-85l373 355l-363 345h89l318 -307l319 307h85l-363 -345l373 -355h-88l-329 318z" />
    <glyph glyph-name="Y" unicode="Y" horiz-adv-x="826" 
d="M750 700h77l-383 -440v-260h-63v261l-382 439h80l336 -390z" />
    <glyph glyph-name="Z" unicode="Z" horiz-adv-x="863" 
d="M815 0h-767v41l665 605h-645v54h747v-41l-665 -605h665v-54z" />
    <glyph glyph-name="bracketleft" unicode="[" horiz-adv-x="464" 
d="M426 -100h-350v900h350v-51h-292v-798h292v-51z" />
    <glyph glyph-name="backslash" unicode="\" horiz-adv-x="520" 
d="M9 800h50l452 -900h-50z" />
    <glyph glyph-name="bracketright" unicode="]" horiz-adv-x="464" 
d="M38 800h350v-900h-350v51h292v798h-292v51z" />
    <glyph glyph-name="asciicircum" unicode="^" 
d="M456 700l341 -420h-68l-297 368l-297 -368h-68l341 420h48z" />
    <glyph glyph-name="underscore" unicode="_" horiz-adv-x="746" 
d="M0 -88v48h746v-48h-746z" />
    <glyph glyph-name="grave" unicode="`" horiz-adv-x="336" 
d="M292 579h-64l-152 121h79z" />
    <glyph glyph-name="a" unicode="a" horiz-adv-x="781" 
d="M220 522h335q83 0 118.5 -35t35.5 -119v-368h-48l-9 80l-45 -31q-47 -33 -79 -40q-35 -9 -100 -9h-241q-121 0 -121 121v50q0 121 121 121h461v73q0 62 -23.5 85t-85.5 23h-303q-47 0 -66.5 -19.5t-19.5 -66.5v-26h-60v31q0 67 32 98.5t98 31.5zM585 86l63 43v118h-441
q-44 0 -62 -18t-18 -62v-39q0 -44 18 -62t62 -18h237q86 0 141 38z" />
    <glyph glyph-name="b" unicode="b" horiz-adv-x="795" 
d="M375 522h200q82 0 118 -35.5t36 -118.5v-214q0 -83 -36 -118.5t-118 -35.5h-200q-77 0 -117 10q-44 10 -90 45l-35 25l-9 -80h-48v700h61v-255l31 22q46 35 90 45q40 10 117 10zM667 160v202q0 62 -23 85t-85 23h-199q-108 0 -170 -44l-53 -37v-256l53 -38
q61 -43 170 -43h199q62 0 85 23t23 85z" />
    <glyph glyph-name="c" unicode="c" horiz-adv-x="764" 
d="M66 154v214q0 83 35.5 118.5t118.5 35.5h324q83 0 118.5 -35.5t35.5 -118.5v-35h-60v29q0 62 -23.5 85t-85.5 23h-293q-62 0 -85.5 -23t-23.5 -85v-202q0 -62 23.5 -85t85.5 -23h293q62 0 85.5 23t23.5 85v38h60v-44q0 -84 -35.5 -119t-118.5 -35h-324q-83 0 -118.5 35
t-35.5 119z" />
    <glyph glyph-name="d" unicode="d" horiz-adv-x="795" 
d="M658 445v255h61v-700h-48l-9 80l-35 -25q-47 -35 -90 -45q-41 -10 -118 -10h-199q-83 0 -118.5 35t-35.5 119v214q0 83 35.5 118.5t118.5 35.5h199q77 0 118 -10q43 -10 90 -45zM605 95l53 38v256l-53 37q-62 44 -170 44h-199q-62 0 -85.5 -23t-23.5 -85v-202
q0 -62 23.5 -85t85.5 -23h199q109 0 170 43z" />
    <glyph glyph-name="e" unicode="e" horiz-adv-x="775" 
d="M220 522h335q83 0 118.5 -35t35.5 -119v-106h-582v-103q0 -62 23.5 -85t85.5 -23h327q47 0 66.5 19.5t19.5 66.5v37h60v-44q0 -67 -32 -98.5t-98 -31.5h-359q-82 0 -118 35.5t-36 118.5v214q0 83 36 118.5t118 35.5zM127 365v-56h522v56q0 62 -23.5 85t-85.5 23h-304
q-62 0 -85.5 -23t-23.5 -85z" />
    <glyph glyph-name="f" unicode="f" horiz-adv-x="579" 
d="M560 649h-237q-47 0 -66.5 -19.5t-19.5 -66.5v-102h323v-51h-323v-410h-61v410h-157v51h157v109q0 67 32 98.5t98 31.5h254v-51z" />
    <glyph glyph-name="g" unicode="g" horiz-adv-x="795" 
d="M662 442l9 80h48v-508q0 -91 -42 -132.5t-132 -41.5h-459v50h445q69 0 98 28.5t29 98.5v94l-31 -22q-48 -35 -91 -45q-46 -11 -117 -11h-199q-82 0 -118 35.5t-36 118.5v181q0 83 36 118.5t118 35.5h199q77 0 118 -10q43 -10 90 -45zM605 128l53 38v224l-53 37
q-62 44 -170 44h-199q-62 0 -85.5 -23t-23.5 -85v-170q0 -62 23.5 -85.5t85.5 -23.5h199q106 0 170 44z" />
    <glyph glyph-name="h" unicode="h" horiz-adv-x="791" 
d="M376 522h189q82 0 118 -35.5t36 -118.5v-368h-62v362q0 62 -23 85t-85 23h-189q-106 0 -170 -44l-53 -38v-388h-61v700h61v-256l32 23q47 35 90 45q40 10 117 10z" />
    <glyph glyph-name="i" unicode="i" horiz-adv-x="221" 
d="M142 630h-62v70h62v-70zM142 0h-62v522h62v-522z" />
    <glyph glyph-name="j" unicode="j" horiz-adv-x="261" 
d="M182 630h-62v70h62v-70zM52 -160h-116v51h98q47 0 66.5 19.5t19.5 66.5v545h62v-552q0 -67 -32 -98.5t-98 -31.5z" />
    <glyph glyph-name="k" unicode="k" horiz-adv-x="696" 
d="M229 262l466 -262h-117l-441 252v-252h-61v700h61v-430l439 252h115z" />
    <glyph glyph-name="l" unicode="l" horiz-adv-x="221" 
d="M142 0h-62v700h62v-700z" />
    <glyph glyph-name="m" unicode="m" horiz-adv-x="1282" 
d="M912 522h144q83 0 118.5 -35.5t35.5 -118.5v-368h-61v362q0 62 -23 85t-85 23h-145q-107 0 -169 -44l-53 -38v-388h-62v362q0 62 -23 85t-85 23h-144q-106 0 -170 -44l-53 -38v-388h-61v522h48l9 -80l35 25q46 35 90 45q40 10 117 10h145q63 0 97.5 -19.5t47.5 -63.5
l39 28q48 35 91 45q40 10 117 10z" />
    <glyph glyph-name="n" unicode="n" horiz-adv-x="791" 
d="M375 522h190q82 0 118 -35.5t36 -118.5v-368h-62v362q0 62 -23 85t-85 23h-189q-106 0 -170 -44l-53 -38v-388h-61v522h48l9 -80l35 25q46 35 90 45q40 10 117 10z" />
    <glyph glyph-name="o" unicode="o" horiz-adv-x="785" 
d="M565 0h-345q-83 0 -118.5 35t-35.5 119v214q0 83 35.5 118.5t118.5 35.5h345q83 0 118.5 -35.5t35.5 -118.5v-214q0 -84 -35.5 -119t-118.5 -35zM236 52h313q62 0 85.5 23t23.5 85v202q0 62 -23.5 85t-85.5 23h-313q-62 0 -85.5 -23t-23.5 -85v-202q0 -62 23.5 -85
t85.5 -23z" />
    <glyph glyph-name="p" unicode="p" horiz-adv-x="795" 
d="M375 522h200q82 0 118 -35.5t36 -118.5v-214q0 -83 -36 -118.5t-118 -35.5h-200q-77 0 -117 10q-44 10 -90 45l-31 22v-237h-61v682h48l9 -80l35 25q46 35 90 45q40 10 117 10zM667 160v202q0 62 -23 85t-85 23h-199q-108 0 -170 -44l-53 -37v-256l53 -38q61 -43 170 -43
h199q62 0 85 23t23 85z" />
    <glyph glyph-name="q" unicode="q" horiz-adv-x="795" 
d="M662 442l9 80h48v-682h-61v237l-31 -22q-48 -35 -90 -45q-40 -10 -117 -10h-200q-83 0 -118.5 35t-35.5 119v214q0 83 35.5 118.5t118.5 35.5h199q77 0 118 -10q43 -10 90 -45zM605 95l53 38v256l-53 37q-62 44 -170 44h-199q-62 0 -85.5 -23t-23.5 -85v-202
q0 -62 23.5 -85t85.5 -23h199q109 0 170 43z" />
    <glyph glyph-name="r" unicode="r" horiz-adv-x="515" 
d="M374 522h122v-55h-136q-108 0 -170 -44l-53 -37v-386h-61v522h45l10 -81l36 26q47 35 90 45q40 10 117 10z" />
    <glyph glyph-name="s" unicode="s" horiz-adv-x="765" 
d="M66 107v46h60v-41q0 -33 15 -48t49 -15h384q34 0 49 15t15 48v60q0 33 -15 48t-49 18l-391 29q-107 8 -107 108v40q0 107 107 107h395q107 0 107 -107v-43h-60v38q0 33 -15 48t-49 15h-360q-34 0 -49 -15t-15 -48v-27q0 -33 15 -48t49 -17l391 -29q107 -9 107 -109v-73
q0 -107 -107 -107h-419q-52 0 -79.5 27.5t-27.5 79.5z" />
    <glyph glyph-name="t" unicode="t" horiz-adv-x="599" 
d="M570 522v-51h-333v-333q0 -47 19.5 -66.5t66.5 -19.5h247v-52h-264q-66 0 -98 31.5t-32 98.5v341h-157v51h157l14 120h47v-120h333z" />
    <glyph glyph-name="u" unicode="u" horiz-adv-x="791" 
d="M654 522h61v-522h-48l-9 80l-35 -25q-46 -34 -89 -45q-41 -10 -118 -10h-190q-82 0 -118 35.5t-36 118.5v368h62v-362q0 -62 23 -85t85 -23h189q106 0 170 44l53 38v388z" />
    <glyph glyph-name="v" unicode="v" horiz-adv-x="728" 
d="M366 63l283 459h70l-329 -522h-52l-329 522h73z" />
    <glyph glyph-name="w" unicode="w" horiz-adv-x="1025" 
d="M744 72l207 450h65l-247 -522h-52l-204 443l-204 -443h-53l-247 522h68l207 -450l206 450h48z" />
    <glyph glyph-name="x" unicode="x" horiz-adv-x="734" 
d="M95 0h-87l315 266l-305 256h91l260 -223l260 223h87l-304 -256l314 -266h-91l-270 232z" />
    <glyph glyph-name="y" unicode="y" horiz-adv-x="728" 
d="M364 63l285 459h70l-344 -544q-53 -84 -100 -111q-48 -27 -146 -27h-75v52h86q68 0 106 20q36 19 73 80l12 19l-322 511h73z" />
    <glyph glyph-name="z" unicode="z" horiz-adv-x="749" 
d="M703 0h-657v38l553 433h-533v51h637v-38l-553 -433h553v-51z" />
    <glyph glyph-name="braceleft" unicode="{" horiz-adv-x="549" 
d="M229 621v-174q0 -75 -52 -97q52 -24 52 -97v-174q0 -66 31 -97t97 -31h154v-51h-165q-175 0 -175 175v184q0 66 -66 66h-67v50h67q66 0 66 66v184q0 175 175 175h165v-51h-154q-66 0 -97 -31t-31 -97z" />
    <glyph glyph-name="bar" unicode="|" horiz-adv-x="228" 
d="M86 -100v900h56v-900h-56z" />
    <glyph glyph-name="braceright" unicode="}" horiz-adv-x="549" 
d="M444 375h67v-50h-67q-66 0 -66 -66v-184q0 -175 -175 -175h-165v51h154q66 0 97 31t31 97v174q0 75 52 97q-52 24 -52 97v174q0 66 -31 97t-97 31h-154v51h165q175 0 175 -175v-184q0 -66 66 -66z" />
    <glyph glyph-name="asciitilde" unicode="~" 
d="M339 454l240 -183q20 -17 35 -22.5t41 -5.5h29q26 0 36 10.5t10 35.5v215h57v-217q0 -50 -20.5 -70.5t-70.5 -20.5h-47q-42 0 -63 9q-21 7 -61 41l-240 183q-20 17 -35 22.5t-41 5.5h-29q-26 0 -36 -10.5t-10 -35.5v-215h-57v217q0 50 20.5 70.5t70.5 20.5h47q41 0 64 -9
q21 -9 60 -41z" />
    <glyph glyph-name="exclamdown" unicode="&#xa1;" horiz-adv-x="235" 
d="M76 700h83v-77h-83v77zM141 529l13 -529h-73l13 529h47z" />
    <glyph glyph-name="cent" unicode="&#xa2;" 
d="M783 546v-50h-61v44q0 62 -23 85t-85 23h-363q-62 0 -85 -23t-23 -85v-250q0 -62 23 -85t85 -23h363q62 0 85 23t23 85v54h61v-60q0 -83 -36 -118.5t-118 -35.5h-169v-100h-52v100h-173q-83 0 -118.5 35t-35.5 119v262q0 83 35.5 118.5t118.5 35.5h173v100h52v-100h169
q82 0 118 -35.5t36 -118.5z" />
    <glyph glyph-name="sterling" unicode="&#xa3;" horiz-adv-x="892" 
d="M811 526v-53h-61v48q0 70 -28.5 98.5t-98.5 28.5h-306q-69 0 -97.5 -28.5t-28.5 -98.5v-144h406v-46h-406v-278h473q47 0 66.5 19.5t19.5 66.5v72h61v-81q0 -67 -32 -98.5t-98 -31.5h-662v53h110v278h-120v46h120v149q0 91 42 132.5t132 41.5h334q90 0 132 -42t42 -132z
" />
    <glyph glyph-name="currency" unicode="&#xa4;" 
d="M729 433v-166q0 -51 -18 -85l102 -101l-34 -34l-96 96q-44 -38 -116 -38h-270q-72 0 -116 38l-96 -96l-33 34l101 101q-18 36 -18 85v166q0 49 18 85l-101 101l33 34l96 -96q44 38 116 38h270q72 0 116 -38l96 96l34 -34l-102 -101q18 -34 18 -85zM309 156h246
q118 0 118 118v152q0 118 -118 118h-246q-118 0 -118 -118v-152q0 -118 118 -118z" />
    <glyph glyph-name="yen" unicode="&#xa5;" 
d="M752 700h75l-335 -404h305v-43h-334v-111h334v-43h-334v-99h-62v99h-334v43h334v111h-334v43h305l-335 404h79l319 -390z" />
    <glyph glyph-name="brokenbar" unicode="&#xa6;" horiz-adv-x="228" 
d="M86 487v313h56v-313h-56zM86 -100v313h56v-313h-56z" />
    <glyph glyph-name="section" unicode="&#xa7;" horiz-adv-x="1033" 
d="M325 534l514 -45q70 -8 99 -36.5t29 -92.5v-69q0 -66 -30.5 -97t-94.5 -32q15 -27 15 -73v-59q0 -67 -32 -98.5t-98 -31.5h-411q-66 0 -98 31.5t-32 98.5v43h62v-36q0 -47 19.5 -66.5t66.5 -19.5h374q47 0 66.5 19.5t19.5 66.5v44q0 44 -18.5 62t-67.5 24l-514 44
q-70 8 -99 36.5t-29 92.5v69q0 66 30.5 96.5t94.5 31.5q-15 29 -15 74v59q0 67 32 98.5t98 31.5h411q66 0 98 -31.5t32 -98.5v-42h-62v35q0 47 -19.5 66.5t-66.5 19.5h-374q-47 0 -66.5 -19.5t-19.5 -66.5v-44q0 -44 18.5 -62t67.5 -23zM904 292v60q0 44 -18 62t-67 23
l-514 44q-33 3 -57 12h-34q-46 0 -65.5 -19.5t-19.5 -65.5v-60q0 -44 18 -62t67 -23l514 -44q38 -4 58 -12h33q47 0 66 19.5t19 65.5z" />
    <glyph glyph-name="dieresis" unicode="&#xa8;" horiz-adv-x="408" 
d="M132 597h-56v67h56v-67zM350 597h-55v67h55v-67z" />
    <glyph glyph-name="copyright" unicode="&#xa9;" horiz-adv-x="921" 
d="M662 0h-403q-105 0 -162 56.5t-57 162.5v262q0 106 57 162.5t162 56.5h403q105 0 162 -56.5t57 -162.5v-262q0 -106 -57 -162.5t-162 -56.5zM266 39h389q183 0 183 183v256q0 183 -183 183h-389q-183 0 -183 -183v-256q0 -183 183 -183zM630 135h-339q-58 0 -85 27
t-27 85v206q0 58 27 85t85 27h339q58 0 85 -27t27 -85v-38h-54v34q0 38 -15 53.5t-53 15.5h-318q-39 0 -54 -15.5t-15 -53.5v-198q0 -38 15 -53.5t54 -15.5h318q38 0 53 15.5t15 53.5v41h54v-45q0 -58 -27 -85t-85 -27z" />
    <glyph glyph-name="ordfeminine" unicode="&#xaa;" horiz-adv-x="470" 
d="M132 700h202q50 0 72.5 -22.5t22.5 -72.5v-219h-40l-7 45l-20 -13q-30 -20 -48 -26q-21 -6 -61 -6h-143q-73 0 -73 73v34q0 73 73 73h268v34q0 35 -12.5 47.5t-46.5 12.5h-171q-26 0 -36.5 -11t-10.5 -37v-11h-50v19q0 80 81 80zM344 447l34 23v60h-247q-24 0 -34 -10
t-10 -34v-17q0 -24 10 -34t34 -10h136q46 0 77 22z" />
    <glyph glyph-name="guillemotleft" unicode="&#xab;" horiz-adv-x="979" 
d="M58 328v42l402 207v-61l-341 -167l341 -165v-63zM519 370l402 207v-61l-341 -167l341 -165v-63l-402 207v42z" />
    <glyph glyph-name="logicalnot" unicode="&#xac;" 
d="M732 323h-655v54h710v-237h-55v183z" />
    <glyph glyph-name="uni00AD" unicode="&#xad;" horiz-adv-x="516" 
d="M57 323v54h402v-54h-402z" />
    <glyph glyph-name="registered" unicode="&#xae;" horiz-adv-x="391" 
d="M143 700h105q53 0 78.5 -25t25.5 -79v-92q0 -104 -104 -104h-105q-104 0 -104 104v92q0 54 25.5 79t78.5 25zM320 506v88q0 43 -17 59.5t-59 16.5h-97q-42 0 -59 -17t-17 -59v-88q0 -41 17.5 -58.5t58.5 -17.5h97q42 0 59 17.5t17 58.5zM235 528h-3l45 -56h-37l-44 55
h-36v-55h-34v155h109q18 0 26 -7.5t8 -26.5v-31q0 -19 -8 -26.5t-26 -7.5zM223 598h-63v-42h63q8 0 10 2.5t2 10.5v15q0 9 -2 11.5t-10 2.5z" />
    <glyph glyph-name="overscore" unicode="&#xaf;" horiz-adv-x="520" 
d="M476 620h-400v43h400v-43z" />
    <glyph glyph-name="degree" unicode="&#xb0;" horiz-adv-x="422" 
d="M256 375h-90q-56 0 -87 31t-31 87v89q0 57 31 87.5t87 30.5h90q56 0 87 -30.5t31 -87.5v-89q0 -56 -31 -87t-87 -31zM171 420h79q76 0 76 76v83q0 40 -18.5 58t-57.5 18h-79q-75 0 -75 -76v-83q0 -76 75 -76z" />
    <glyph glyph-name="plusminus" unicode="&#xb1;" 
d="M461 664v-214h326v-52h-326v-214h-58v214h-326v52h326v214h58zM787 36h-710v51h710v-51z" />
    <glyph glyph-name="uni00B2" unicode="&#xb2;" horiz-adv-x="556" 
d="M488 328v-48h-425v123q0 41 19.5 61t62.5 25l246 30q27 4 37 14.5t10 34.5v42q0 25 -11 35.5t-36 10.5h-219q-25 0 -35.5 -10.5t-10.5 -35.5v-25h-55v33q0 82 82 82h259q42 0 62 -19.5t20 -62.5v-56q0 -41 -19.5 -61t-62.5 -25l-247 -30q-26 -4 -36 -14.5t-10 -34.5v-69
h369z" />
    <glyph glyph-name="uni00B3" unicode="&#xb3;" horiz-adv-x="556" 
d="M452 501q43 -15 43 -74v-65q0 -82 -82 -82h-270q-42 0 -62 19.5t-20 62.5v49h55v-40q0 -25 10 -35t36 -10h231q25 0 35 10t10 35v62q0 26 -10 36t-35 10h-173v41h167q25 0 35 10.5t10 36.5v42q0 25 -10 35t-35 10h-219q-26 0 -36 -10t-10 -35v-35h-55v44q0 43 20 62.5
t62 19.5h258q82 0 82 -82v-45q0 -57 -37 -72z" />
    <glyph glyph-name="acute" unicode="&#xb4;" horiz-adv-x="336" 
d="M292 700l-152 -121h-64l137 121h79z" />
    <glyph glyph-name="paragraph" unicode="&#xb6;" horiz-adv-x="847" 
d="M65 462v84q0 83 35.5 118.5t118.5 35.5h512v-700h-59v648h-229v-648h-59v308h-165q-83 0 -118.5 35.5t-35.5 118.5z" />
    <glyph glyph-name="middot" unicode="&#xb7;" horiz-adv-x="235" 
d="M159 310h-83v81h83v-81z" />
    <glyph glyph-name="cedilla" unicode="&#xb8;" horiz-adv-x="320" 
d="M243 -160h-185v37h176q16 0 16 16v19q0 16 -16 16h-121v15l28 77h36l-21 -56h87q28 0 39.5 -11.5t11.5 -39.5v-22q0 -28 -11.5 -39.5t-39.5 -11.5z" />
    <glyph glyph-name="uni00B9" unicode="&#xb9;" horiz-adv-x="521" 
d="M302 700v-373h175v-47h-433v47h202v322l-184 -15v48l214 18h26z" />
    <glyph glyph-name="ordmasculine" unicode="&#xba;" horiz-adv-x="471" 
d="M339 386h-207q-50 0 -72.5 22t-22.5 73v125q0 51 22 72.5t73 21.5h207q51 0 73 -21.5t22 -72.5v-125q0 -51 -22 -73t-73 -22zM147 430h178q34 0 46.5 12.5t12.5 47.5v107q0 35 -12.5 47.5t-46.5 12.5h-178q-35 0 -47.5 -12.5t-12.5 -47.5v-107q0 -34 12.5 -47t47.5 -13z
" />
    <glyph glyph-name="guillemotright" unicode="&#xbb;" horiz-adv-x="979" 
d="M399 349l-341 165v63l402 -207v-42l-402 -207v61zM519 514v63l402 -207v-42l-402 -207v61l341 167z" />
    <glyph glyph-name="onequarter" unicode="&#xbc;" horiz-adv-x="1190" 
d="M303 327h174v-47h-433v47h202v322l-184 -15v48l214 18h27v-373zM307 0l632 700h58l-632 -700h-58zM1029 150h117v-44h-117v-106h-55v106h-315v37l307 277h63v-270zM974 370l-244 -220h244v220z" />
    <glyph glyph-name="onehalf" unicode="&#xbd;" horiz-adv-x="1295" 
d="M303 327h174v-47h-433v47h202v322l-184 -15v48l214 18h27v-373zM307 0l632 700h58l-632 -700h-58zM1150 196l-246 -30q-26 -4 -36.5 -14.5t-10.5 -34.5v-69h369v-48h-425v123q0 41 19.5 61t62.5 25l247 30q26 4 36 14.5t10 34.5v42q0 25 -10.5 35.5t-35.5 10.5h-219
q-25 0 -35.5 -10.5t-10.5 -35.5v-25h-56v33q0 82 82 82h260q81 0 81 -82v-56q0 -41 -19.5 -61t-62.5 -25z" />
    <glyph glyph-name="threequarters" unicode="&#xbe;" horiz-adv-x="1215" 
d="M496 427v-65q0 -43 -20 -62.5t-62 -19.5h-269q-43 0 -63 19.5t-20 62.5v49h55v-40q0 -25 10 -35t35 -10h233q25 0 35 10t10 35v62q0 25 -10 35.5t-35 10.5h-174v41h168q25 0 35 10.5t10 36.5v42q0 25 -10 35t-35 10h-221q-25 0 -35 -10t-10 -35v-35h-55v44q0 43 20 62.5
t63 19.5h257q42 0 62 -19.5t20 -62.5v-45q0 -57 -37 -72q43 -15 43 -74zM320 0l632 700h57l-632 -700h-57zM1053 150h117v-44h-117v-106h-54v106h-315v37l307 277h62v-270zM999 371l-245 -221h245v221z" />
    <glyph glyph-name="questiondown" unicode="&#xbf;" horiz-adv-x="789" 
d="M389 700h83v-74h-83v74zM400 532h60v-81q0 -63 -27 -94t-91 -43l-134 -22q-48 -9 -69 -31.5t-21 -66.5v-56q0 -47 19.5 -66.5t66.5 -19.5h382q47 0 66.5 19.5t19.5 66.5v46h61v-54q0 -67 -32 -98.5t-98 -31.5h-417q-66 0 -98 31.5t-32 98.5v69q0 63 32.5 97t100.5 46
l133 22q44 8 61 29t17 66v73z" />
    <glyph glyph-name="Agrave" unicode="&#xc0;" horiz-adv-x="900" 
d="M341 878l137 -121h-64l-152 121h79zM896 0h-71l-114 195h-524l-114 -195h-68l413 700h65zM449 645l-232 -398h464z" />
    <glyph glyph-name="Aacute" unicode="&#xc1;" horiz-adv-x="900" 
d="M561 878h79l-152 -121h-64zM896 0h-71l-114 195h-524l-114 -195h-68l413 700h65zM449 645l-232 -398h464z" />
    <glyph glyph-name="Acircumflex" unicode="&#xc2;" horiz-adv-x="900" 
d="M572 757l-121 87l-121 -87h-58l144 121h70l144 -121h-58zM896 0h-71l-114 195h-524l-114 -195h-68l413 700h65zM449 645l-232 -398h464z" />
    <glyph glyph-name="Atilde" unicode="&#xc3;" horiz-adv-x="900" 
d="M317 821v-64h-46v70q0 51 51 51h58q23 0 35 -4.5t30 -19.5l53 -47q14 -13 34 -13h34q11 0 15.5 4.5t4.5 15.5v64h46v-70q0 -51 -51 -51h-58q-23 0 -35 4.5t-30 19.5l-53 47q-14 13 -34 13h-34q-11 0 -15.5 -4.5t-4.5 -15.5zM896 0h-71l-114 195h-524l-114 -195h-68
l413 700h65zM449 645l-232 -398h464z" />
    <glyph glyph-name="Adieresis" unicode="&#xc4;" horiz-adv-x="900" 
d="M314 842h56v-67h-56v67zM533 842h55v-67h-55v67zM896 0h-71l-114 195h-524l-114 -195h-68l413 700h65zM449 645l-232 -398h464z" />
    <glyph glyph-name="Aring" unicode="&#xc5;" horiz-adv-x="900" 
d="M550 747h-199q-53 0 -53 53v25q0 53 53 53h199q53 0 53 -53v-25q0 -53 -53 -53zM338 821v-17q0 -13 4.5 -17.5t16.5 -4.5h183q12 0 16.5 4.5t4.5 17.5v17q0 13 -4.5 18t-16.5 5h-183q-12 0 -16.5 -5t-4.5 -18zM896 0h-71l-114 195h-524l-114 -195h-68l413 700h65z
M449 645l-232 -398h464z" />
    <glyph glyph-name="AE" unicode="&#xc6;" horiz-adv-x="1277" 
d="M687 343l165 -289h387v-54h-427l-109 194h-517l-113 -194h-68l413 700h811v-54h-714l143 -252h531v-51h-502zM449 644l-233 -398h457z" />
    <glyph glyph-name="Ccedilla" unicode="&#xc7;" horiz-adv-x="889" 
d="M826 526v-64h-62v57q0 70 -28.5 98.5t-98.5 28.5h-381q-69 0 -98 -28.5t-29 -98.5v-338q0 -70 29 -98.5t98 -28.5h381q70 0 98.5 28.5t28.5 98.5v66h62v-73q0 -91 -42 -132.5t-132 -41.5h-198l-14 -36h87q28 0 39.5 -11.5t11.5 -39.5v-22q0 -28 -11.5 -39.5t-39.5 -11.5
h-185v37h176q16 0 16 16v19q0 16 -16 16h-121v15l21 57h-178q-90 0 -132 41.5t-42 132.5v352q0 90 42 132t132 42h412q90 0 132 -41.5t42 -132.5z" />
    <glyph glyph-name="Egrave" unicode="&#xc8;" horiz-adv-x="793" 
d="M286 878l137 -121h-64l-152 121h79zM139 343v-289h616v-54h-679v700h669v-54h-606v-252h566v-51h-566z" />
    <glyph glyph-name="Eacute" unicode="&#xc9;" horiz-adv-x="793" 
d="M506 878h79l-152 -121h-64zM139 343v-289h616v-54h-679v700h669v-54h-606v-252h566v-51h-566z" />
    <glyph glyph-name="Ecircumflex" unicode="&#xca;" horiz-adv-x="793" 
d="M517 757l-121 87l-121 -87h-58l144 121h70l144 -121h-58zM139 343v-289h616v-54h-679v700h669v-54h-606v-252h566v-51h-566z" />
    <glyph glyph-name="Edieresis" unicode="&#xcb;" horiz-adv-x="793" 
d="M259 842h56v-67h-56v67zM478 842h55v-67h-55v67zM139 343v-289h616v-54h-679v700h669v-54h-606v-252h566v-51h-566z" />
    <glyph glyph-name="Igrave" unicode="&#xcc;" horiz-adv-x="227" 
d="M140 757h-64l-152 121h79zM82 0v700h63v-700h-63z" />
    <glyph glyph-name="Iacute" unicode="&#xcd;" horiz-adv-x="227" 
d="M302 878l-152 -121h-64l137 121h79zM82 0v700h63v-700h-63z" />
    <glyph glyph-name="Icircumflex" unicode="&#xce;" horiz-adv-x="227" 
d="M-8 757h-58l144 121h70l144 -121h-58l-121 87zM82 0v700h63v-700h-63z" />
    <glyph glyph-name="Idieresis" unicode="&#xcf;" horiz-adv-x="227" 
d="M32 775h-56v67h56v-67zM250 775h-55v67h55v-67zM82 0v700h63v-700h-63z" />
    <glyph glyph-name="Eth" unicode="&#xd0;" horiz-adv-x="973" 
d="M136 700h556q105 0 160 -54.5t55 -160.5v-270q0 -106 -55 -160.5t-160 -54.5h-556v327h-98v46h98v327zM844 218v264q0 164 -164 164h-481v-273h349v-46h-349v-273h481q164 0 164 164z" />
    <glyph glyph-name="Ntilde" unicode="&#xd1;" horiz-adv-x="923" 
d="M327 821v-64h-46v70q0 51 51 51h58q23 0 35 -4.5t30 -19.5l53 -47q14 -13 34 -13h34q11 0 15.5 4.5t4.5 15.5v64h46v-70q0 -51 -51 -51h-58q-23 0 -35 4.5t-30 19.5l-53 47q-14 13 -34 13h-34q-11 0 -15.5 -4.5t-4.5 -15.5zM785 91v609h62v-700h-49l-660 613v-613h-62
v700h54z" />
    <glyph glyph-name="Ograve" unicode="&#xd2;" horiz-adv-x="913" 
d="M484 757h-64l-152 121h79zM673 0h-433q-90 0 -132 41.5t-42 132.5v352q0 90 42 132t132 42h433q90 0 132 -41.5t42 -132.5v-352q0 -91 -42 -132.5t-132 -41.5zM256 54h401q70 0 98.5 29t28.5 98v338q0 69 -28.5 98t-98.5 29h-401q-69 0 -98 -29t-29 -98v-338
q0 -69 29 -98t98 -29z" />
    <glyph glyph-name="Oacute" unicode="&#xd3;" horiz-adv-x="913" 
d="M646 878l-152 -121h-64l137 121h79zM673 0h-433q-90 0 -132 41.5t-42 132.5v352q0 90 42 132t132 42h433q90 0 132 -41.5t42 -132.5v-352q0 -91 -42 -132.5t-132 -41.5zM256 54h401q70 0 98.5 29t28.5 98v338q0 69 -28.5 98t-98.5 29h-401q-69 0 -98 -29t-29 -98v-338
q0 -69 29 -98t98 -29z" />
    <glyph glyph-name="Ocircumflex" unicode="&#xd4;" horiz-adv-x="913" 
d="M336 757h-58l144 121h70l144 -121h-58l-121 87zM673 0h-433q-90 0 -132 41.5t-42 132.5v352q0 90 42 132t132 42h433q90 0 132 -41.5t42 -132.5v-352q0 -91 -42 -132.5t-132 -41.5zM256 54h401q70 0 98.5 29t28.5 98v338q0 69 -28.5 98t-98.5 29h-401q-69 0 -98 -29
t-29 -98v-338q0 -69 29 -98t98 -29z" />
    <glyph glyph-name="Otilde" unicode="&#xd5;" horiz-adv-x="913" 
d="M323 757h-46v70q0 51 51 51h58q23 0 35 -4.5t30 -19.5l53 -47q14 -13 34 -13h34q11 0 15.5 4.5t4.5 15.5v64h46v-70q0 -51 -51 -51h-58q-23 0 -35 4.5t-30 19.5l-53 47q-14 13 -34 13h-34q-11 0 -15.5 -4.5t-4.5 -15.5v-64zM673 0h-433q-90 0 -132 41.5t-42 132.5v352
q0 90 42 132t132 42h433q90 0 132 -41.5t42 -132.5v-352q0 -91 -42 -132.5t-132 -41.5zM256 54h401q70 0 98.5 29t28.5 98v338q0 69 -28.5 98t-98.5 29h-401q-69 0 -98 -29t-29 -98v-338q0 -69 29 -98t98 -29z" />
    <glyph glyph-name="Odieresis" unicode="&#xd6;" horiz-adv-x="913" 
d="M376 775h-56v67h56v-67zM594 775h-55v67h55v-67zM673 0h-433q-90 0 -132 41.5t-42 132.5v352q0 90 42 132t132 42h433q90 0 132 -41.5t42 -132.5v-352q0 -91 -42 -132.5t-132 -41.5zM256 54h401q70 0 98.5 29t28.5 98v338q0 69 -28.5 98t-98.5 29h-401q-69 0 -98 -29
t-29 -98v-338q0 -69 29 -98t98 -29z" />
    <glyph glyph-name="multiply" unicode="&#xd7;" 
d="M726 624l34 -39l-287 -235l287 -235l-34 -39l-294 241l-294 -241l-34 39l287 235l-287 235l34 39l294 -241z" />
    <glyph glyph-name="Oslash" unicode="&#xd8;" horiz-adv-x="913" 
d="M877 730l-73 -71q43 -42 43 -133v-352q0 -91 -42 -132.5t-132 -41.5h-433q-58 0 -93 16l-47 -46h-64l73 71q-43 42 -43 133v352q0 90 42 132t132 42h433q58 0 93 -16l47 46h64zM128 520v-340q0 -66 26 -95l566 554q-24 8 -62 8h-403q-70 0 -98.5 -29t-28.5 -98zM785 180
v340q0 66 -26 95l-566 -554q24 -8 62 -8h403q70 0 98.5 29t28.5 98z" />
    <glyph glyph-name="Ugrave" unicode="&#xd9;" horiz-adv-x="884" 
d="M469 757h-64l-152 121h79zM644 0h-403q-90 0 -132 41.5t-42 132.5v526h63v-518q0 -70 28.5 -98.5t98.5 -28.5h371q69 0 98 28.5t29 98.5v518h63v-526q0 -91 -42 -132.5t-132 -41.5z" />
    <glyph glyph-name="Uacute" unicode="&#xda;" horiz-adv-x="884" 
d="M631 878l-152 -121h-64l137 121h79zM644 0h-403q-90 0 -132 41.5t-42 132.5v526h63v-518q0 -70 28.5 -98.5t98.5 -28.5h371q69 0 98 28.5t29 98.5v518h63v-526q0 -91 -42 -132.5t-132 -41.5z" />
    <glyph glyph-name="Ucircumflex" unicode="&#xdb;" horiz-adv-x="884" 
d="M321 757h-58l144 121h70l144 -121h-58l-121 87zM644 0h-403q-90 0 -132 41.5t-42 132.5v526h63v-518q0 -70 28.5 -98.5t98.5 -28.5h371q69 0 98 28.5t29 98.5v518h63v-526q0 -91 -42 -132.5t-132 -41.5z" />
    <glyph glyph-name="Udieresis" unicode="&#xdc;" horiz-adv-x="884" 
d="M361 775h-56v67h56v-67zM579 775h-55v67h55v-67zM644 0h-403q-90 0 -132 41.5t-42 132.5v526h63v-518q0 -70 28.5 -98.5t98.5 -28.5h371q69 0 98 28.5t29 98.5v518h63v-526q0 -91 -42 -132.5t-132 -41.5z" />
    <glyph glyph-name="Yacute" unicode="&#xdd;" horiz-adv-x="826" 
d="M523 878h79l-152 -121h-64zM750 700h77l-383 -440v-260h-63v261l-382 439h80l336 -390z" />
    <glyph glyph-name="Thorn" unicode="&#xde;" horiz-adv-x="845" 
d="M139 575h514q83 0 118.5 -35t35.5 -119v-122q0 -84 -35.5 -119t-118.5 -35h-514v-145h-63v700h63v-125zM744 305v109q0 62 -23 85.5t-85 23.5h-497v-327h497q62 0 85 23.5t23 85.5z" />
    <glyph glyph-name="germandbls" unicode="&#xdf;" horiz-adv-x="797" 
d="M656 372q77 -21 77 -122v-120q0 -67 -32 -98.5t-98 -31.5h-230v51h212q47 0 66.5 19.5t19.5 66.5v121q0 47 -19.5 66.5t-66.5 19.5h-212v49h192q47 0 66.5 19.5t19.5 66.5v84q0 47 -19.5 66.5t-66.5 19.5h-342q-47 0 -66.5 -19.5t-19.5 -66.5v-563h-61v570q0 67 32 98.5
t98 31.5h377q66 0 98 -31.5t32 -98.5v-83q0 -88 -57 -115z" />
    <glyph glyph-name="agrave" unicode="&#xe0;" horiz-adv-x="781" 
d="M289 700l137 -121h-64l-152 121h79zM220 522h335q83 0 118.5 -35t35.5 -119v-368h-48l-9 80l-45 -31q-47 -33 -79 -40q-35 -9 -100 -9h-241q-121 0 -121 121v50q0 121 121 121h461v73q0 62 -23.5 85t-85.5 23h-303q-47 0 -66.5 -19.5t-19.5 -66.5v-26h-60v31
q0 67 32 98.5t98 31.5zM585 86l63 43v118h-441q-44 0 -62 -18t-18 -62v-39q0 -44 18 -62t62 -18h237q86 0 141 38z" />
    <glyph glyph-name="aacute" unicode="&#xe1;" horiz-adv-x="781" 
d="M509 700h79l-152 -121h-64zM220 522h335q83 0 118.5 -35t35.5 -119v-368h-48l-9 80l-45 -31q-47 -33 -79 -40q-35 -9 -100 -9h-241q-121 0 -121 121v50q0 121 121 121h461v73q0 62 -23.5 85t-85.5 23h-303q-47 0 -66.5 -19.5t-19.5 -66.5v-26h-60v31q0 67 32 98.5
t98 31.5zM585 86l63 43v118h-441q-44 0 -62 -18t-18 -62v-39q0 -44 18 -62t62 -18h237q86 0 141 38z" />
    <glyph glyph-name="acircumflex" unicode="&#xe2;" horiz-adv-x="781" 
d="M520 579l-121 87l-121 -87h-58l144 121h70l144 -121h-58zM220 522h335q83 0 118.5 -35t35.5 -119v-368h-48l-9 80l-45 -31q-47 -33 -79 -40q-35 -9 -100 -9h-241q-121 0 -121 121v50q0 121 121 121h461v73q0 62 -23.5 85t-85.5 23h-303q-47 0 -66.5 -19.5t-19.5 -66.5
v-26h-60v31q0 67 32 98.5t98 31.5zM585 86l63 43v118h-441q-44 0 -62 -18t-18 -62v-39q0 -44 18 -62t62 -18h237q86 0 141 38z" />
    <glyph glyph-name="atilde" unicode="&#xe3;" horiz-adv-x="781" 
d="M265 643v-64h-46v70q0 51 51 51h58q23 0 35 -4.5t30 -19.5l53 -47q14 -13 34 -13h34q11 0 15.5 4.5t4.5 15.5v64h46v-70q0 -51 -51 -51h-58q-23 0 -35 4.5t-30 19.5l-53 47q-14 13 -34 13h-34q-11 0 -15.5 -4.5t-4.5 -15.5zM220 522h335q83 0 118.5 -35t35.5 -119v-368
h-48l-9 80l-45 -31q-47 -33 -79 -40q-35 -9 -100 -9h-241q-121 0 -121 121v50q0 121 121 121h461v73q0 62 -23.5 85t-85.5 23h-303q-47 0 -66.5 -19.5t-19.5 -66.5v-26h-60v31q0 67 32 98.5t98 31.5zM585 86l63 43v118h-441q-44 0 -62 -18t-18 -62v-39q0 -44 18 -62t62 -18
h237q86 0 141 38z" />
    <glyph glyph-name="adieresis" unicode="&#xe4;" horiz-adv-x="781" 
d="M262 664h56v-67h-56v67zM481 664h55v-67h-55v67zM220 522h335q83 0 118.5 -35t35.5 -119v-368h-48l-9 80l-45 -31q-47 -33 -79 -40q-35 -9 -100 -9h-241q-121 0 -121 121v50q0 121 121 121h461v73q0 62 -23.5 85t-85.5 23h-303q-47 0 -66.5 -19.5t-19.5 -66.5v-26h-60v31
q0 67 32 98.5t98 31.5zM585 86l63 43v118h-441q-44 0 -62 -18t-18 -62v-39q0 -44 18 -62t62 -18h237q86 0 141 38z" />
    <glyph glyph-name="aring" unicode="&#xe5;" horiz-adv-x="781" 
d="M498 569h-199q-53 0 -53 53v25q0 53 53 53h199q53 0 53 -53v-25q0 -53 -53 -53zM286 643v-17q0 -13 4.5 -17.5t16.5 -4.5h183q12 0 16.5 4.5t4.5 17.5v17q0 13 -4.5 18t-16.5 5h-183q-12 0 -16.5 -5t-4.5 -18zM220 522h335q83 0 118.5 -35t35.5 -119v-368h-48l-9 80
l-45 -31q-47 -33 -79 -40q-35 -9 -100 -9h-241q-121 0 -121 121v50q0 121 121 121h461v73q0 62 -23.5 85t-85.5 23h-303q-47 0 -66.5 -19.5t-19.5 -66.5v-26h-60v31q0 67 32 98.5t98 31.5zM585 86l63 43v118h-441q-44 0 -62 -18t-18 -62v-39q0 -44 18 -62t62 -18h237
q86 0 141 38z" />
    <glyph glyph-name="ae" unicode="&#xe6;" horiz-adv-x="1357" 
d="M812 522h325q82 0 118 -35.5t36 -118.5v-106h-582v-103q0 -62 23 -85t85 -23h327q47 0 66.5 19.5t19.5 66.5v37h61v-44q0 -67 -32 -98.5t-98 -31.5h-353q-120 0 -145 82l-48 -33q-47 -33 -79 -40q-34 -9 -100 -9h-249q-121 0 -121 121v50q0 121 121 121h461v73
q0 62 -23.5 85t-85.5 23h-303q-47 0 -66.5 -19.5t-19.5 -66.5v-26h-60v31q0 67 32 98.5t98 31.5h325q103 0 134 -61q30 61 133 61zM709 365v-56h521v56q0 62 -23 85t-85 23h-305q-62 0 -85 -23t-23 -85zM585 86l63 43v118h-441q-44 0 -62 -18t-18 -62v-39q0 -44 18 -62
t62 -18h237q86 0 141 38z" />
    <glyph glyph-name="ccedilla" unicode="&#xe7;" horiz-adv-x="764" 
d="M698 368v-35h-60v29q0 62 -23.5 85t-85.5 23h-293q-62 0 -85.5 -23t-23.5 -85v-202q0 -62 23.5 -85t85.5 -23h293q62 0 85.5 23t23.5 85v38h60v-44q0 -84 -35.5 -119t-118.5 -35h-152l-14 -36h87q28 0 39.5 -11.5t11.5 -39.5v-22q0 -28 -11.5 -39.5t-39.5 -11.5h-185v37
h176q16 0 16 16v19q0 16 -16 16h-121v15l21 57h-136q-83 0 -118.5 35t-35.5 119v214q0 83 35.5 118.5t118.5 35.5h324q83 0 118.5 -35.5t35.5 -118.5z" />
    <glyph glyph-name="egrave" unicode="&#xe8;" horiz-adv-x="775" 
d="M278 700l137 -121h-64l-152 121h79zM220 522h335q83 0 118.5 -35t35.5 -119v-106h-582v-103q0 -62 23.5 -85t85.5 -23h327q47 0 66.5 19.5t19.5 66.5v37h60v-44q0 -67 -32 -98.5t-98 -31.5h-359q-82 0 -118 35.5t-36 118.5v214q0 83 36 118.5t118 35.5zM127 365v-56h522
v56q0 62 -23.5 85t-85.5 23h-304q-62 0 -85.5 -23t-23.5 -85z" />
    <glyph glyph-name="eacute" unicode="&#xe9;" horiz-adv-x="775" 
d="M498 700h79l-152 -121h-64zM220 522h335q83 0 118.5 -35t35.5 -119v-106h-582v-103q0 -62 23.5 -85t85.5 -23h327q47 0 66.5 19.5t19.5 66.5v37h60v-44q0 -67 -32 -98.5t-98 -31.5h-359q-82 0 -118 35.5t-36 118.5v214q0 83 36 118.5t118 35.5zM127 365v-56h522v56
q0 62 -23.5 85t-85.5 23h-304q-62 0 -85.5 -23t-23.5 -85z" />
    <glyph glyph-name="ecircumflex" unicode="&#xea;" horiz-adv-x="775" 
d="M509 579l-121 87l-121 -87h-58l144 121h70l144 -121h-58zM220 522h335q83 0 118.5 -35t35.5 -119v-106h-582v-103q0 -62 23.5 -85t85.5 -23h327q47 0 66.5 19.5t19.5 66.5v37h60v-44q0 -67 -32 -98.5t-98 -31.5h-359q-82 0 -118 35.5t-36 118.5v214q0 83 36 118.5
t118 35.5zM127 365v-56h522v56q0 62 -23.5 85t-85.5 23h-304q-62 0 -85.5 -23t-23.5 -85z" />
    <glyph glyph-name="edieresis" unicode="&#xeb;" horiz-adv-x="775" 
d="M251 664h56v-67h-56v67zM470 664h55v-67h-55v67zM220 522h335q83 0 118.5 -35t35.5 -119v-106h-582v-103q0 -62 23.5 -85t85.5 -23h327q47 0 66.5 19.5t19.5 66.5v37h60v-44q0 -67 -32 -98.5t-98 -31.5h-359q-82 0 -118 35.5t-36 118.5v214q0 83 36 118.5t118 35.5z
M127 365v-56h522v56q0 62 -23.5 85t-85.5 23h-304q-62 0 -85.5 -23t-23.5 -85z" />
    <glyph glyph-name="igrave" unicode="&#xec;" horiz-adv-x="221" 
d="M138 579h-64l-152 121h79zM142 0h-62v522h62v-522z" />
    <glyph glyph-name="iacute" unicode="&#xed;" horiz-adv-x="221" 
d="M300 700l-152 -121h-64l137 121h79zM142 0h-62v522h62v-522z" />
    <glyph glyph-name="icircumflex" unicode="&#xee;" horiz-adv-x="221" 
d="M-10 579h-58l144 121h70l144 -121h-58l-121 87zM142 0h-62v522h62v-522z" />
    <glyph glyph-name="idieresis" unicode="&#xef;" horiz-adv-x="221" 
d="M30 597h-56v67h56v-67zM248 597h-55v67h55v-67zM142 0h-62v522h62v-522z" />
    <glyph glyph-name="eth" unicode="&#xf0;" horiz-adv-x="785" 
d="M451 700h94q90 0 132 -41.5t42 -132.5v-396q0 -67 -32 -98.5t-98 -31.5h-393q-66 0 -98 31.5t-32 98.5v153q0 67 32 98.5t98 31.5h361q73 0 101 -36v145q0 70 -29 98.5t-98 28.5h-118l-61 -83h-53l61 83h-214v51h252l44 60h53zM658 137v140q0 47 -19.5 66.5t-66.5 19.5
h-359q-47 0 -66.5 -19.5t-19.5 -66.5v-140q0 -47 19.5 -66.5t66.5 -19.5h359q47 0 66.5 19.5t19.5 66.5z" />
    <glyph glyph-name="ntilde" unicode="&#xf1;" horiz-adv-x="791" 
d="M261 643v-64h-46v70q0 51 51 51h58q23 0 35 -4.5t30 -19.5l53 -47q14 -13 34 -13h34q11 0 15.5 4.5t4.5 15.5v64h46v-70q0 -51 -51 -51h-58q-23 0 -35 4.5t-30 19.5l-53 47q-14 13 -34 13h-34q-11 0 -15.5 -4.5t-4.5 -15.5zM375 522h190q82 0 118 -35.5t36 -118.5v-368
h-62v362q0 62 -23 85t-85 23h-189q-106 0 -170 -44l-53 -38v-388h-61v522h48l9 -80l35 25q46 35 90 45q40 10 117 10z" />
    <glyph glyph-name="ograve" unicode="&#xf2;" horiz-adv-x="785" 
d="M420 579h-64l-152 121h79zM565 0h-345q-83 0 -118.5 35t-35.5 119v214q0 83 35.5 118.5t118.5 35.5h345q83 0 118.5 -35.5t35.5 -118.5v-214q0 -84 -35.5 -119t-118.5 -35zM236 52h313q62 0 85.5 23t23.5 85v202q0 62 -23.5 85t-85.5 23h-313q-62 0 -85.5 -23t-23.5 -85
v-202q0 -62 23.5 -85t85.5 -23z" />
    <glyph glyph-name="oacute" unicode="&#xf3;" horiz-adv-x="785" 
d="M582 700l-152 -121h-64l137 121h79zM565 0h-345q-83 0 -118.5 35t-35.5 119v214q0 83 35.5 118.5t118.5 35.5h345q83 0 118.5 -35.5t35.5 -118.5v-214q0 -84 -35.5 -119t-118.5 -35zM236 52h313q62 0 85.5 23t23.5 85v202q0 62 -23.5 85t-85.5 23h-313q-62 0 -85.5 -23
t-23.5 -85v-202q0 -62 23.5 -85t85.5 -23z" />
    <glyph glyph-name="ocircumflex" unicode="&#xf4;" horiz-adv-x="785" 
d="M272 579h-58l144 121h70l144 -121h-58l-121 87zM565 0h-345q-83 0 -118.5 35t-35.5 119v214q0 83 35.5 118.5t118.5 35.5h345q83 0 118.5 -35.5t35.5 -118.5v-214q0 -84 -35.5 -119t-118.5 -35zM236 52h313q62 0 85.5 23t23.5 85v202q0 62 -23.5 85t-85.5 23h-313
q-62 0 -85.5 -23t-23.5 -85v-202q0 -62 23.5 -85t85.5 -23z" />
    <glyph glyph-name="otilde" unicode="&#xf5;" horiz-adv-x="785" 
d="M259 579h-46v70q0 51 51 51h58q23 0 35 -4.5t30 -19.5l53 -47q14 -13 34 -13h34q11 0 15.5 4.5t4.5 15.5v64h46v-70q0 -51 -51 -51h-58q-23 0 -35 4.5t-30 19.5l-53 47q-14 13 -34 13h-34q-11 0 -15.5 -4.5t-4.5 -15.5v-64zM565 0h-345q-83 0 -118.5 35t-35.5 119v214
q0 83 35.5 118.5t118.5 35.5h345q83 0 118.5 -35.5t35.5 -118.5v-214q0 -84 -35.5 -119t-118.5 -35zM236 52h313q62 0 85.5 23t23.5 85v202q0 62 -23.5 85t-85.5 23h-313q-62 0 -85.5 -23t-23.5 -85v-202q0 -62 23.5 -85t85.5 -23z" />
    <glyph glyph-name="odieresis" unicode="&#xf6;" horiz-adv-x="785" 
d="M312 597h-56v67h56v-67zM530 597h-55v67h55v-67zM565 0h-345q-83 0 -118.5 35t-35.5 119v214q0 83 35.5 118.5t118.5 35.5h345q83 0 118.5 -35.5t35.5 -118.5v-214q0 -84 -35.5 -119t-118.5 -35zM236 52h313q62 0 85.5 23t23.5 85v202q0 62 -23.5 85t-85.5 23h-313
q-62 0 -85.5 -23t-23.5 -85v-202q0 -62 23.5 -85t85.5 -23z" />
    <glyph glyph-name="divide" unicode="&#xf7;" 
d="M474 555h-83v73h83v-73zM77 323v54h710v-54h-710zM474 72h-83v73h83v-73z" />
    <glyph glyph-name="oslash" unicode="&#xf8;" horiz-adv-x="785" 
d="M749 561l-73 -68q43 -34 43 -125v-214q0 -84 -35.5 -119t-118.5 -35h-345q-37 0 -69 8l-51 -47h-64l73 68q-43 33 -43 125v214q0 83 35.5 118.5t118.5 35.5h345q37 0 69 -8l51 47h64zM125 364v-206q0 -67 28 -89l434 401q-30 2 -36 2h-317q-62 0 -85.5 -23t-23.5 -85z
M660 158v206q0 67 -28 89l-434 -401q30 -2 36 -2h317q62 0 85.5 23t23.5 85z" />
    <glyph glyph-name="ugrave" unicode="&#xf9;" horiz-adv-x="791" 
d="M283 700l137 -121h-64l-152 121h79zM654 522h61v-522h-48l-9 80l-35 -25q-46 -34 -89 -45q-41 -10 -118 -10h-190q-82 0 -118 35.5t-36 118.5v368h62v-362q0 -62 23 -85t85 -23h189q106 0 170 44l53 38v388z" />
    <glyph glyph-name="uacute" unicode="&#xfa;" horiz-adv-x="791" 
d="M503 700h79l-152 -121h-64zM654 522h61v-522h-48l-9 80l-35 -25q-46 -34 -89 -45q-41 -10 -118 -10h-190q-82 0 -118 35.5t-36 118.5v368h62v-362q0 -62 23 -85t85 -23h189q106 0 170 44l53 38v388z" />
    <glyph glyph-name="ucircumflex" unicode="&#xfb;" horiz-adv-x="791" 
d="M514 579l-121 87l-121 -87h-58l144 121h70l144 -121h-58zM654 522h61v-522h-48l-9 80l-35 -25q-46 -34 -89 -45q-41 -10 -118 -10h-190q-82 0 -118 35.5t-36 118.5v368h62v-362q0 -62 23 -85t85 -23h189q106 0 170 44l53 38v388z" />
    <glyph glyph-name="udieresis" unicode="&#xfc;" horiz-adv-x="791" 
d="M256 664h56v-67h-56v67zM475 664h55v-67h-55v67zM654 522h61v-522h-48l-9 80l-35 -25q-46 -34 -89 -45q-41 -10 -118 -10h-190q-82 0 -118 35.5t-36 118.5v368h62v-362q0 -62 23 -85t85 -23h189q106 0 170 44l53 38v388z" />
    <glyph glyph-name="yacute" unicode="&#xfd;" horiz-adv-x="728" 
d="M474 700h79l-152 -121h-64zM364 63l285 459h70l-344 -544q-53 -84 -100 -111q-48 -27 -146 -27h-75v52h86q68 0 106 20q36 19 73 80l12 19l-322 511h73z" />
    <glyph glyph-name="thorn" unicode="&#xfe;" horiz-adv-x="795" 
d="M375 522h200q82 0 118 -35.5t36 -118.5v-214q0 -83 -36 -118.5t-118 -35.5h-200q-77 0 -117 10q-44 10 -90 45l-31 22v-237h-61v860h61v-255l31 22q46 35 90 45q40 10 117 10zM667 160v202q0 62 -23 85t-85 23h-199q-108 0 -170 -44l-53 -37v-256l53 -38q61 -43 170 -43
h199q62 0 85 23t23 85z" />
    <glyph glyph-name="ydieresis" unicode="&#xff;" horiz-adv-x="728" 
d="M227 664h56v-67h-56v67zM446 664h55v-67h-55v67zM364 63l285 459h70l-344 -544q-53 -84 -100 -111q-48 -27 -146 -27h-75v52h86q68 0 106 20q36 19 73 80l12 19l-322 511h73z" />
    <glyph glyph-name="Amacron" unicode="&#x100;" horiz-adv-x="900" 
d="M251 841h400v-43h-400v43zM896 0h-71l-114 195h-524l-114 -195h-68l413 700h65zM449 645l-232 -398h464z" />
    <glyph glyph-name="amacron" unicode="&#x101;" horiz-adv-x="781" 
d="M199 663h400v-43h-400v43zM220 522h335q83 0 118.5 -35t35.5 -119v-368h-48l-9 80l-45 -31q-47 -33 -79 -40q-35 -9 -100 -9h-241q-121 0 -121 121v50q0 121 121 121h461v73q0 62 -23.5 85t-85.5 23h-303q-47 0 -66.5 -19.5t-19.5 -66.5v-26h-60v31q0 67 32 98.5t98 31.5
zM585 86l63 43v118h-441q-44 0 -62 -18t-18 -62v-39q0 -44 18 -62t62 -18h237q86 0 141 38z" />
    <glyph glyph-name="Abreve" unicode="&#x102;" horiz-adv-x="900" 
d="M565 757h-229q-71 0 -71 71v50h51v-45q0 -35 35 -35h200q35 0 35 35v45h51v-50q0 -71 -72 -71zM896 0h-71l-114 195h-524l-114 -195h-68l413 700h65zM449 645l-232 -398h464z" />
    <glyph glyph-name="abreve" unicode="&#x103;" horiz-adv-x="781" 
d="M513 579h-229q-71 0 -71 71v50h51v-45q0 -35 35 -35h200q35 0 35 35v45h51v-50q0 -71 -72 -71zM220 522h335q83 0 118.5 -35t35.5 -119v-368h-48l-9 80l-45 -31q-47 -33 -79 -40q-35 -9 -100 -9h-241q-121 0 -121 121v50q0 121 121 121h461v73q0 62 -23.5 85t-85.5 23
h-303q-47 0 -66.5 -19.5t-19.5 -66.5v-26h-60v31q0 67 32 98.5t98 31.5zM585 86l63 43v118h-441q-44 0 -62 -18t-18 -62v-39q0 -44 18 -62t62 -18h237q86 0 141 38z" />
    <glyph glyph-name="Aogonek" unicode="&#x104;" horiz-adv-x="900" 
d="M814 -117h119v-43h-131q-40 0 -58.5 18t-18.5 59v16q0 33 8 46.5t40 28.5l38 17l-100 170h-524l-114 -195h-68l413 700h65l413 -700h-53l-40 -17q-19 -9 -24 -17t-5 -26v-17q0 -23 9 -31.5t31 -8.5zM449 645l-232 -398h464z" />
    <glyph glyph-name="aogonek" unicode="&#x105;" horiz-adv-x="780" 
d="M660 -117h104v-43h-116q-40 0 -58.5 18t-18.5 59v15q0 31 9 46t39 30l39 19l-6 53l-45 -31q-47 -33 -79 -40q-35 -9 -100 -9h-241q-121 0 -121 121v50q0 121 121 121h461v73q0 62 -23.5 85t-85.5 23h-303q-47 0 -66.5 -19.5t-19.5 -66.5v-26h-60v31q0 67 32 98.5t98 31.5
h335q83 0 118.5 -35t35.5 -119v-368h-24l-36 -17q-18 -9 -23.5 -17.5t-5.5 -26.5v-16q0 -22 9 -31t31 -9zM585 86l63 43v118h-441q-44 0 -62 -18t-18 -62v-39q0 -44 18 -62t62 -18h237q86 0 141 38z" />
    <glyph glyph-name="Cacute" unicode="&#x106;" horiz-adv-x="889" 
d="M633 878l-152 -121h-64l137 121h79zM652 0h-412q-90 0 -132 41.5t-42 132.5v352q0 90 42 132t132 42h412q90 0 132 -41.5t42 -132.5v-64h-62v57q0 70 -28.5 98.5t-98.5 28.5h-381q-69 0 -98 -28.5t-29 -98.5v-338q0 -70 29 -98.5t98 -28.5h381q70 0 98.5 28.5t28.5 98.5
v66h62v-73q0 -91 -42 -132.5t-132 -41.5z" />
    <glyph glyph-name="cacute" unicode="&#x107;" horiz-adv-x="764" 
d="M571 700l-152 -121h-64l137 121h79zM66 154v214q0 83 35.5 118.5t118.5 35.5h324q83 0 118.5 -35.5t35.5 -118.5v-35h-60v29q0 62 -23.5 85t-85.5 23h-293q-62 0 -85.5 -23t-23.5 -85v-202q0 -62 23.5 -85t85.5 -23h293q62 0 85.5 23t23.5 85v38h60v-44q0 -84 -35.5 -119
t-118.5 -35h-324q-83 0 -118.5 35t-35.5 119z" />
    <glyph glyph-name="Ccircumflex" unicode="&#x108;" horiz-adv-x="889" 
d="M323 757h-58l144 121h70l144 -121h-58l-121 87zM652 0h-412q-90 0 -132 41.5t-42 132.5v352q0 90 42 132t132 42h412q90 0 132 -41.5t42 -132.5v-64h-62v57q0 70 -28.5 98.5t-98.5 28.5h-381q-69 0 -98 -28.5t-29 -98.5v-338q0 -70 29 -98.5t98 -28.5h381q70 0 98.5 28.5
t28.5 98.5v66h62v-73q0 -91 -42 -132.5t-132 -41.5z" />
    <glyph glyph-name="ccircumflex" unicode="&#x109;" horiz-adv-x="764" 
d="M261 579h-58l144 121h70l144 -121h-58l-121 87zM66 154v214q0 83 35.5 118.5t118.5 35.5h324q83 0 118.5 -35.5t35.5 -118.5v-35h-60v29q0 62 -23.5 85t-85.5 23h-293q-62 0 -85.5 -23t-23.5 -85v-202q0 -62 23.5 -85t85.5 -23h293q62 0 85.5 23t23.5 85v38h60v-44
q0 -84 -35.5 -119t-118.5 -35h-324q-83 0 -118.5 35t-35.5 119z" />
    <glyph glyph-name="Cdotaccent" unicode="&#x10a;" horiz-adv-x="889" 
d="M475 775h-62v67h62v-67zM652 0h-412q-90 0 -132 41.5t-42 132.5v352q0 90 42 132t132 42h412q90 0 132 -41.5t42 -132.5v-64h-62v57q0 70 -28.5 98.5t-98.5 28.5h-381q-69 0 -98 -28.5t-29 -98.5v-338q0 -70 29 -98.5t98 -28.5h381q70 0 98.5 28.5t28.5 98.5v66h62v-73
q0 -91 -42 -132.5t-132 -41.5z" />
    <glyph glyph-name="cdotaccent" unicode="&#x10b;" horiz-adv-x="764" 
d="M413 597h-62v67h62v-67zM66 154v214q0 83 35.5 118.5t118.5 35.5h324q83 0 118.5 -35.5t35.5 -118.5v-35h-60v29q0 62 -23.5 85t-85.5 23h-293q-62 0 -85.5 -23t-23.5 -85v-202q0 -62 23.5 -85t85.5 -23h293q62 0 85.5 23t23.5 85v38h60v-44q0 -84 -35.5 -119t-118.5 -35
h-324q-83 0 -118.5 35t-35.5 119z" />
    <glyph glyph-name="Ccaron" unicode="&#x10c;" horiz-adv-x="889" 
d="M541 844l-22 -39h-12l-138 24l85 49zM362 825l1 5l6 -1zM826 526v-64h-62v57q0 70 -28.5 98.5t-98.5 28.5h-381q-69 0 -98 -28.5t-29 -98.5v-338q0 -70 29 -98.5t98 -28.5h381q70 0 98.5 28.5t28.5 98.5v66h62v-73q0 -91 -42 -132.5t-132 -41.5h-412q-90 0 -132 41.5
t-42 132.5v352q0 90 42 132t132 42h412q90 0 132 -41.5t42 -132.5z" />
    <glyph glyph-name="ccaron" unicode="&#x10d;" horiz-adv-x="764" 
d="M479 666l-22 -39h-12l-138 24l85 49zM300 647l1 5l6 -1zM698 368v-35h-60v29q0 62 -23.5 85t-85.5 23h-293q-62 0 -85.5 -23t-23.5 -85v-202q0 -62 23.5 -85t85.5 -23h293q62 0 85.5 23t23.5 85v38h60v-44q0 -84 -35.5 -119t-118.5 -35h-324q-83 0 -118.5 35t-35.5 119
v214q0 83 35.5 118.5t118.5 35.5h324q83 0 118.5 -35.5t35.5 -118.5z" />
    <glyph glyph-name="Dcaron" unicode="&#x10e;" horiz-adv-x="913" 
d="M556 844l-22 -39h-12l-138 24l85 49zM377 825l1 5l6 -1zM76 700h556q105 0 160 -54.5t55 -160.5v-270q0 -106 -55 -160.5t-160 -54.5h-556v700zM784 218v264q0 164 -164 164h-481v-592h481q164 0 164 164z" />
    <glyph glyph-name="dcaron" unicode="&#x10f;" horiz-adv-x="863" 
d="M627 467l31 -22v255h61v-700h-48l-9 80l-35 -25q-47 -35 -90 -45q-41 -10 -118 -10h-199q-83 0 -118.5 35t-35.5 119v214q0 83 35.5 118.5t118.5 35.5h199q77 0 118 -10q43 -10 90 -45zM768 631v69h77v-39q0 -25 -12 -49l-31 -66h-37l34 85h-31zM605 95l53 38v256l-53 37
q-62 44 -170 44h-199q-62 0 -85.5 -23t-23.5 -85v-202q0 -62 23.5 -85t85.5 -23h199q109 0 170 43z" />
    <glyph glyph-name="Dcroat" unicode="&#x110;" horiz-adv-x="973" 
d="M136 700h556q105 0 160 -54.5t55 -160.5v-270q0 -106 -55 -160.5t-160 -54.5h-556v327h-98v46h98v327zM844 218v264q0 164 -164 164h-481v-273h349v-46h-349v-273h481q164 0 164 164z" />
    <glyph glyph-name="dslash" unicode="&#x111;" horiz-adv-x="835" 
d="M719 630h88v-43h-88v-587h-48l-9 80l-35 -25q-47 -35 -90 -45q-41 -10 -118 -10h-199q-83 0 -118.5 35t-35.5 119v214q0 83 35.5 118.5t118.5 35.5h199q77 0 118 -10q43 -10 90 -45l31 -22v142h-280v43h280v70h61v-70zM605 95l53 38v256l-53 37q-62 44 -170 44h-199
q-62 0 -85.5 -23t-23.5 -85v-202q0 -62 23.5 -85t85.5 -23h199q109 0 170 43z" />
    <glyph glyph-name="Emacron" unicode="&#x112;" horiz-adv-x="793" 
d="M196 841h400v-43h-400v43zM139 343v-289h616v-54h-679v700h669v-54h-606v-252h566v-51h-566z" />
    <glyph glyph-name="emacron" unicode="&#x113;" horiz-adv-x="775" 
d="M188 663h400v-43h-400v43zM220 522h335q83 0 118.5 -35t35.5 -119v-106h-582v-103q0 -62 23.5 -85t85.5 -23h327q47 0 66.5 19.5t19.5 66.5v37h60v-44q0 -67 -32 -98.5t-98 -31.5h-359q-82 0 -118 35.5t-36 118.5v214q0 83 36 118.5t118 35.5zM127 365v-56h522v56
q0 62 -23.5 85t-85.5 23h-304q-62 0 -85.5 -23t-23.5 -85z" />
    <glyph glyph-name="Ebreve" unicode="&#x114;" horiz-adv-x="793" 
d="M510 757h-229q-71 0 -71 71v50h51v-45q0 -35 35 -35h200q35 0 35 35v45h51v-50q0 -71 -72 -71zM139 343v-289h616v-54h-679v700h669v-54h-606v-252h566v-51h-566z" />
    <glyph glyph-name="ebreve" unicode="&#x115;" horiz-adv-x="775" 
d="M502 579h-229q-71 0 -71 71v50h51v-45q0 -35 35 -35h200q35 0 35 35v45h51v-50q0 -71 -72 -71zM220 522h335q83 0 118.5 -35t35.5 -119v-106h-582v-103q0 -62 23.5 -85t85.5 -23h327q47 0 66.5 19.5t19.5 66.5v37h60v-44q0 -67 -32 -98.5t-98 -31.5h-359q-82 0 -118 35.5
t-36 118.5v214q0 83 36 118.5t118 35.5zM127 365v-56h522v56q0 62 -23.5 85t-85.5 23h-304q-62 0 -85.5 -23t-23.5 -85z" />
    <glyph glyph-name="Edotaccent" unicode="&#x116;" horiz-adv-x="793" 
d="M365 842h62v-67h-62v67zM139 343v-289h616v-54h-679v700h669v-54h-606v-252h566v-51h-566z" />
    <glyph glyph-name="edotaccent" unicode="&#x117;" horiz-adv-x="775" 
d="M357 664h62v-67h-62v67zM220 522h335q83 0 118.5 -35t35.5 -119v-106h-582v-103q0 -62 23.5 -85t85.5 -23h327q47 0 66.5 19.5t19.5 66.5v37h60v-44q0 -67 -32 -98.5t-98 -31.5h-359q-82 0 -118 35.5t-36 118.5v214q0 83 36 118.5t118 35.5zM127 365v-56h522v56
q0 62 -23.5 85t-85.5 23h-304q-62 0 -85.5 -23t-23.5 -85z" />
    <glyph glyph-name="Eogonek" unicode="&#x118;" horiz-adv-x="793" 
d="M660 0l-40 -17q-19 -9 -24 -17t-5 -26v-17q0 -23 8.5 -31.5t31.5 -8.5h119v-43h-131q-41 0 -59 18t-18 59v16q0 28 6 41.5t27 25.5h-499v700h669v-54h-606v-252h566v-51h-566v-289h616v-54h-95z" />
    <glyph glyph-name="eogonek" unicode="&#x119;" horiz-adv-x="775" 
d="M220 522h335q83 0 118.5 -35t35.5 -119v-106h-582v-103q0 -62 23.5 -85t85.5 -23h327q47 0 66.5 19.5t19.5 66.5v37h60v-44q0 -67 -32 -98.5t-98 -31.5h-109l-40 -17q-19 -9 -24 -17t-5 -26v-17q0 -23 8.5 -31.5t31.5 -8.5h119v-43h-131q-41 0 -59 18t-18 59v16
q0 28 6 41.5t27 25.5h-165q-82 0 -118 35.5t-36 118.5v214q0 83 36 118.5t118 35.5zM127 365v-56h522v56q0 62 -23.5 85t-85.5 23h-304q-62 0 -85.5 -23t-23.5 -85z" />
    <glyph glyph-name="Ecaron" unicode="&#x11a;" horiz-adv-x="793" 
d="M493 844l-22 -39h-12l-138 24l85 49zM314 825l1 5l6 -1zM139 343v-289h616v-54h-679v700h669v-54h-606v-252h566v-51h-566z" />
    <glyph glyph-name="ecaron" unicode="&#x11b;" horiz-adv-x="775" 
d="M485 666l-22 -39h-12l-138 24l85 49zM306 647l1 5l6 -1zM220 522h335q83 0 118.5 -35t35.5 -119v-106h-582v-103q0 -62 23.5 -85t85.5 -23h327q47 0 66.5 19.5t19.5 66.5v37h60v-44q0 -67 -32 -98.5t-98 -31.5h-359q-82 0 -118 35.5t-36 118.5v214q0 83 36 118.5
t118 35.5zM127 365v-56h522v56q0 62 -23.5 85t-85.5 23h-304q-62 0 -85.5 -23t-23.5 -85z" />
    <glyph glyph-name="Gcircumflex" unicode="&#x11c;" horiz-adv-x="913" 
d="M336 757h-58l144 121h70l144 -121h-58l-121 87zM66 174v352q0 91 42 132.5t132 41.5h433q90 0 132 -41.5t42 -132.5v-35h-63v28q0 70 -28.5 98.5t-98.5 28.5h-401q-69 0 -98 -28.5t-29 -98.5v-339q0 -70 29 -98.5t98 -28.5h402q70 0 98.5 28.5t28.5 98.5v120h-299v52h361
v-178q0 -91 -42 -132.5t-132 -41.5h-433q-90 0 -132 42t-42 132z" />
    <glyph glyph-name="gcircumflex" unicode="&#x11d;" horiz-adv-x="795" 
d="M518 579l-121 87l-121 -87h-58l144 121h70l144 -121h-58zM662 442l9 80h48v-508q0 -91 -42 -132.5t-132 -41.5h-459v50h445q69 0 98 28.5t29 98.5v94l-31 -22q-48 -35 -91 -45q-46 -11 -117 -11h-199q-82 0 -118 35.5t-36 118.5v181q0 83 36 118.5t118 35.5h199
q77 0 118 -10q43 -10 90 -45zM605 128l53 38v224l-53 37q-62 44 -170 44h-199q-62 0 -85.5 -23t-23.5 -85v-170q0 -62 23.5 -85.5t85.5 -23.5h199q106 0 170 44z" />
    <glyph glyph-name="Gbreve" unicode="&#x11e;" horiz-adv-x="913" 
d="M571 757h-229q-71 0 -71 71v50h51v-45q0 -35 35 -35h200q35 0 35 35v45h51v-50q0 -71 -72 -71zM66 174v352q0 91 42 132.5t132 41.5h433q90 0 132 -41.5t42 -132.5v-35h-63v28q0 70 -28.5 98.5t-98.5 28.5h-401q-69 0 -98 -28.5t-29 -98.5v-339q0 -70 29 -98.5t98 -28.5
h402q70 0 98.5 28.5t28.5 98.5v120h-299v52h361v-178q0 -91 -42 -132.5t-132 -41.5h-433q-90 0 -132 42t-42 132z" />
    <glyph glyph-name="gbreve" unicode="&#x11f;" horiz-adv-x="795" 
d="M511 579h-229q-71 0 -71 71v50h51v-45q0 -35 35 -35h200q35 0 35 35v45h51v-50q0 -71 -72 -71zM662 442l9 80h48v-508q0 -91 -42 -132.5t-132 -41.5h-459v50h445q69 0 98 28.5t29 98.5v94l-31 -22q-48 -35 -91 -45q-46 -11 -117 -11h-199q-82 0 -118 35.5t-36 118.5v181
q0 83 36 118.5t118 35.5h199q77 0 118 -10q43 -10 90 -45zM605 128l53 38v224l-53 37q-62 44 -170 44h-199q-62 0 -85.5 -23t-23.5 -85v-170q0 -62 23.5 -85.5t85.5 -23.5h199q106 0 170 44z" />
    <glyph glyph-name="Gdotaccent" unicode="&#x120;" horiz-adv-x="913" 
d="M488 775h-62v67h62v-67zM66 174v352q0 91 42 132.5t132 41.5h433q90 0 132 -41.5t42 -132.5v-35h-63v28q0 70 -28.5 98.5t-98.5 28.5h-401q-69 0 -98 -28.5t-29 -98.5v-339q0 -70 29 -98.5t98 -28.5h402q70 0 98.5 28.5t28.5 98.5v120h-299v52h361v-178q0 -91 -42 -132.5
t-132 -41.5h-433q-90 0 -132 42t-42 132z" />
    <glyph glyph-name="gdotaccent" unicode="&#x121;" horiz-adv-x="795" 
d="M366 664h62v-67h-62v67zM662 442l9 80h48v-508q0 -91 -42 -132.5t-132 -41.5h-459v50h445q69 0 98 28.5t29 98.5v94l-31 -22q-48 -35 -91 -45q-46 -11 -117 -11h-199q-82 0 -118 35.5t-36 118.5v181q0 83 36 118.5t118 35.5h199q77 0 118 -10q43 -10 90 -45zM605 128
l53 38v224l-53 37q-62 44 -170 44h-199q-62 0 -85.5 -23t-23.5 -85v-170q0 -62 23.5 -85.5t85.5 -23.5h199q106 0 170 44z" />
    <glyph glyph-name="Gcommaaccent" unicode="&#x122;" horiz-adv-x="913" 
d="M66 174v352q0 91 42 132.5t132 41.5h433q90 0 132 -41.5t42 -132.5v-35h-63v28q0 70 -28.5 98.5t-98.5 28.5h-401q-69 0 -98 -28.5t-29 -98.5v-339q0 -70 29 -98.5t98 -28.5h402q70 0 98.5 28.5t28.5 98.5v120h-299v52h361v-178q0 -91 -42 -132.5t-132 -41.5h-433
q-90 0 -132 42t-42 132zM453 -169h-37l34 73h-31v66h77v-35q0 -26 -13 -48z" />
    <glyph glyph-name="gcommaaccent" unicode="&#x123;" horiz-adv-x="795" 
d="M405 645h30v-66h-76v35q0 26 13 48l29 56h38zM662 442l9 80h48v-508q0 -91 -42 -132.5t-132 -41.5h-459v50h445q69 0 98 28.5t29 98.5v94l-31 -22q-48 -35 -91 -45q-46 -11 -117 -11h-199q-82 0 -118 35.5t-36 118.5v181q0 83 36 118.5t118 35.5h199q77 0 118 -10
q43 -10 90 -45zM605 128l53 38v224l-53 37q-62 44 -170 44h-199q-62 0 -85.5 -23t-23.5 -85v-170q0 -62 23.5 -85.5t85.5 -23.5h199q106 0 170 44z" />
    <glyph glyph-name="Hcircumflex" unicode="&#x124;" horiz-adv-x="903" 
d="M573 757l-121 87l-121 -87h-58l144 121h70l144 -121h-58zM764 397v303h63v-700h-63v341h-625v-341h-63v700h63v-303h625z" />
    <glyph glyph-name="hcircumflex" unicode="&#x125;" horiz-adv-x="791" 
d="M285 757h-58l-121 87l-121 -87h-58l144 121h70zM376 522h189q82 0 118 -35.5t36 -118.5v-368h-62v362q0 62 -23 85t-85 23h-189q-106 0 -170 -44l-53 -38v-388h-61v700h61v-256l32 23q47 35 90 45q40 10 117 10z" />
    <glyph glyph-name="Hbar" unicode="&#x126;" horiz-adv-x="1023" 
d="M887 576h98v-45h-98v-531h-63v341h-625v-341h-63v531h-98v45h98v124h63v-124h625v124h63v-124zM199 397h625v134h-625v-134z" />
    <glyph glyph-name="hbar" unicode="&#x127;" horiz-adv-x="831" 
d="M425 522h189q82 0 118 -35.5t36 -118.5v-368h-62v362q0 62 -23 85t-85 23h-189q-106 0 -170 -44l-53 -38v-388h-61v587h-97v43h97v70h61v-70h271v-43h-271v-143l32 23q46 35 90 45q40 10 117 10z" />
    <glyph glyph-name="Itilde" unicode="&#x128;" horiz-adv-x="227" 
d="M-21 757h-46v70q0 51 51 51h58q23 0 35 -4.5t30 -19.5l53 -47q14 -13 34 -13h34q11 0 15.5 4.5t4.5 15.5v64h46v-70q0 -51 -51 -51h-58q-23 0 -35 4.5t-30 19.5l-53 47q-14 13 -34 13h-34q-11 0 -15.5 -4.5t-4.5 -15.5v-64zM82 0v700h63v-700h-63z" />
    <glyph glyph-name="itilde" unicode="&#x129;" horiz-adv-x="221" 
d="M-23 579h-46v70q0 51 51 51h58q23 0 35 -4.5t30 -19.5l53 -47q14 -13 34 -13h34q11 0 15.5 4.5t4.5 15.5v64h46v-70q0 -51 -51 -51h-58q-23 0 -35 4.5t-30 19.5l-53 47q-14 13 -34 13h-34q-11 0 -15.5 -4.5t-4.5 -15.5v-64zM142 0h-62v522h62v-522z" />
    <glyph glyph-name="Imacron" unicode="&#x12a;" horiz-adv-x="227" 
d="M313 798h-400v43h400v-43zM82 0v700h63v-700h-63z" />
    <glyph glyph-name="imacron" unicode="&#x12b;" horiz-adv-x="221" 
d="M311 620h-400v43h400v-43zM142 0h-62v522h62v-522z" />
    <glyph glyph-name="Ibreve" unicode="&#x12c;" horiz-adv-x="227" 
d="M227 757h-229q-71 0 -71 71v50h51v-45q0 -35 35 -35h200q35 0 35 35v45h51v-50q0 -71 -72 -71zM82 0v700h63v-700h-63z" />
    <glyph glyph-name="ibreve" unicode="&#x12d;" horiz-adv-x="221" 
d="M225 579h-229q-71 0 -71 71v50h51v-45q0 -35 35 -35h200q35 0 35 35v45h51v-50q0 -71 -72 -71zM142 0h-62v522h62v-522z" />
    <glyph glyph-name="Iogonek" unicode="&#x12e;" horiz-adv-x="227" 
d="M82 -117h119v-43h-131q-40 0 -58.5 18t-18.5 59v16q0 33 8 46.5t40 28.5l41 18v674h63v-700h-34l-40 -17q-19 -9 -24 -17t-5 -26v-17q0 -23 9 -31.5t31 -8.5z" />
    <glyph glyph-name="iogonek" unicode="&#x12f;" horiz-adv-x="221" 
d="M80 664h62v-67h-62v67zM73 -117h119v-43h-131q-41 0 -59 18t-18 59v16q0 33 8 46.5t40 28.5l48 21v493h62v-522h-40l-40 -17q-19 -9 -24 -17t-5 -26v-17q0 -23 8.5 -31.5t31.5 -8.5z" />
    <glyph glyph-name="Idot" unicode="&#x130;" horiz-adv-x="227" 
d="M145 775h-63v67h63v-67zM82 0v700h63v-700h-63z" />
    <glyph glyph-name="dotlessi" unicode="&#x131;" horiz-adv-x="221" 
d="M142 0h-62v522h62v-522z" />
    <glyph glyph-name="IJ" unicode="&#x132;" horiz-adv-x="1034" 
d="M82 0v700h63v-700h-63zM793 0h-354q-90 0 -132 41.5t-42 132.5v73h62v-66q0 -70 28.5 -98.5t98.5 -28.5h323q70 0 98.5 28.5t28.5 98.5v519h63v-526q0 -91 -42 -132.5t-132 -41.5z" />
    <glyph glyph-name="ij" unicode="&#x133;" horiz-adv-x="453" 
d="M142 630h-62v70h62v-70zM374 630h-62v70h62v-70zM142 0h-62v522h62v-522zM244 -160h-116v51h98q47 0 66.5 19.5t19.5 66.5v545h62v-552q0 -67 -32 -98.5t-98 -31.5z" />
    <glyph glyph-name="Jcircumflex" unicode="&#x134;" horiz-adv-x="807" 
d="M588 757h-58l144 121h70l144 -121h-58l-121 87zM566 0h-354q-90 0 -132 41.5t-42 132.5v73h62v-66q0 -70 28.5 -98.5t98.5 -28.5h323q70 0 98.5 28.5t28.5 98.5v519h63v-526q0 -91 -42 -132.5t-132 -41.5z" />
    <glyph glyph-name="jcircumflex" unicode="&#x135;" horiz-adv-x="261" 
d="M30 579h-58l144 121h70l144 -121h-58l-121 87zM52 -160h-116v51h98q47 0 66.5 19.5t19.5 66.5v545h62v-552q0 -67 -32 -98.5t-98 -31.5z" />
    <glyph glyph-name="Kcommaaccent" unicode="&#x136;" horiz-adv-x="805" 
d="M792 700l-568 -339l572 -361h-111l-546 350v-350h-63v700h63v-331l540 331h113zM383 -96h-31v66h77v-35q0 -26 -13 -48l-30 -56h-37z" />
    <glyph glyph-name="kcommaaccent" unicode="&#x137;" horiz-adv-x="696" 
d="M691 522l-462 -260l466 -262h-117l-441 252v-252h-61v700h61v-430l439 252h115zM335 -96h-31v66h77v-35q0 -26 -13 -48l-30 -56h-37z" />
    <glyph glyph-name="Lacute" unicode="&#x139;" horiz-adv-x="724" 
d="M217 878h79l-152 -121h-64zM139 700v-645h566v-55h-629v700h63z" />
    <glyph glyph-name="lacute" unicode="&#x13a;" horiz-adv-x="221" 
d="M300 878l-152 -121h-64l137 121h79zM142 0h-62v700h62v-700z" />
    <glyph glyph-name="Lcommaaccent" unicode="&#x13b;" horiz-adv-x="724" 
d="M139 700v-645h566v-55h-629v700h63zM355 -96h-31v66h77v-35q0 -26 -13 -48l-30 -56h-37z" />
    <glyph glyph-name="lcommaaccent" unicode="&#x13c;" horiz-adv-x="221" 
d="M142 0h-62v700h62v-700zM107 -169h-37l34 73h-31v66h77v-35q0 -26 -13 -48z" />
    <glyph glyph-name="Lcaron" unicode="&#x13d;" horiz-adv-x="724" 
d="M139 700v-645h566v-55h-629v700h63zM435 612l-31 -66h-37l34 85h-31v69h77v-39q0 -25 -12 -49z" />
    <glyph glyph-name="lcaron" unicode="&#x13e;" horiz-adv-x="295" 
d="M142 0h-62v700h62v-700zM234 546h-38l35 85h-31v69h77v-39q0 -22 -12 -49z" />
    <glyph glyph-name="Ldot" unicode="&#x13f;" horiz-adv-x="724" 
d="M139 700v-645h566v-55h-629v700h63zM393 443h83v-81h-83v81z" />
    <glyph glyph-name="ldot" unicode="&#x140;" horiz-adv-x="325" 
d="M142 0h-62v700h62v-700zM306 340h-83v81h83v-81z" />
    <glyph glyph-name="Lslash" unicode="&#x141;" horiz-adv-x="784" 
d="M199 352v-297h566v-55h-629v342l-98 -16v47l98 16v311h63v-301l378 62v-47z" />
    <glyph glyph-name="lslash" unicode="&#x142;" horiz-adv-x="312" 
d="M187 390l97 23v-47l-97 -23v-343h-62v329l-97 -23v47l97 23v324h62v-310z" />
    <glyph glyph-name="Nacute" unicode="&#x143;" horiz-adv-x="923" 
d="M571 878h79l-152 -121h-64zM785 91v609h62v-700h-49l-660 613v-613h-62v700h54z" />
    <glyph glyph-name="nacute" unicode="&#x144;" horiz-adv-x="791" 
d="M505 700h79l-152 -121h-64zM375 522h190q82 0 118 -35.5t36 -118.5v-368h-62v362q0 62 -23 85t-85 23h-189q-106 0 -170 -44l-53 -38v-388h-61v522h48l9 -80l35 25q46 35 90 45q40 10 117 10z" />
    <glyph glyph-name="Ncommaaccent" unicode="&#x145;" horiz-adv-x="923" 
d="M785 91v609h62v-700h-49l-660 613v-613h-62v700h54zM455 -96h-31v66h77v-35q0 -26 -13 -48l-30 -56h-37z" />
    <glyph glyph-name="ncommaaccent" unicode="&#x146;" horiz-adv-x="791" 
d="M375 522h190q82 0 118 -35.5t36 -118.5v-368h-62v362q0 62 -23 85t-85 23h-189q-106 0 -170 -44l-53 -38v-388h-61v522h48l9 -80l35 25q46 35 90 45q40 10 117 10zM388 -96h-31v66h77v-35q0 -26 -13 -48l-30 -56h-37z" />
    <glyph glyph-name="Ncaron" unicode="&#x147;" horiz-adv-x="923" 
d="M558 844l-22 -39h-12l-138 24l85 49zM379 825l1 5l6 -1zM785 91v609h62v-700h-49l-660 613v-613h-62v700h54z" />
    <glyph glyph-name="ncaron" unicode="&#x148;" horiz-adv-x="791" 
d="M492 666l-22 -39h-12l-138 24l85 49zM313 647l1 5l6 -1zM375 522h190q82 0 118 -35.5t36 -118.5v-368h-62v362q0 62 -23 85t-85 23h-189q-106 0 -170 -44l-53 -38v-388h-61v522h48l9 -80l35 25q46 35 90 45q40 10 117 10z" />
    <glyph glyph-name="Eng" unicode="&#x14a;" horiz-adv-x="923" 
d="M785 91v609h62v-696q0 -86 -39.5 -125t-124.5 -39h-131v50h116q65 0 91 26t26 91v5l-647 601v-613h-62v700h54z" />
    <glyph glyph-name="eng" unicode="&#x14b;" horiz-adv-x="780" 
d="M375 522h179q82 0 118 -35.5t36 -118.5v-398q0 -67 -32 -98.5t-98 -31.5h-87v51h69q47 0 66.5 19.5t19.5 66.5v385q0 62 -23 85t-85 23h-178q-106 0 -170 -44l-53 -38v-388h-61v522h48l9 -80l35 25q46 35 90 45q40 10 117 10z" />
    <glyph glyph-name="Omacron" unicode="&#x14c;" horiz-adv-x="913" 
d="M657 798h-400v43h400v-43zM673 0h-433q-90 0 -132 41.5t-42 132.5v352q0 90 42 132t132 42h433q90 0 132 -41.5t42 -132.5v-352q0 -91 -42 -132.5t-132 -41.5zM256 54h401q70 0 98.5 29t28.5 98v338q0 69 -28.5 98t-98.5 29h-401q-69 0 -98 -29t-29 -98v-338
q0 -69 29 -98t98 -29z" />
    <glyph glyph-name="omacron" unicode="&#x14d;" horiz-adv-x="785" 
d="M593 620h-400v43h400v-43zM565 0h-345q-83 0 -118.5 35t-35.5 119v214q0 83 35.5 118.5t118.5 35.5h345q83 0 118.5 -35.5t35.5 -118.5v-214q0 -84 -35.5 -119t-118.5 -35zM236 52h313q62 0 85.5 23t23.5 85v202q0 62 -23.5 85t-85.5 23h-313q-62 0 -85.5 -23t-23.5 -85
v-202q0 -62 23.5 -85t85.5 -23z" />
    <glyph glyph-name="Obreve" unicode="&#x14e;" horiz-adv-x="913" 
d="M571 757h-229q-71 0 -71 71v50h51v-45q0 -35 35 -35h200q35 0 35 35v45h51v-50q0 -71 -72 -71zM673 0h-433q-90 0 -132 41.5t-42 132.5v352q0 90 42 132t132 42h433q90 0 132 -41.5t42 -132.5v-352q0 -91 -42 -132.5t-132 -41.5zM256 54h401q70 0 98.5 29t28.5 98v338
q0 69 -28.5 98t-98.5 29h-401q-69 0 -98 -29t-29 -98v-338q0 -69 29 -98t98 -29z" />
    <glyph glyph-name="obreve" unicode="&#x14f;" horiz-adv-x="785" 
d="M507 579h-229q-71 0 -71 71v50h51v-45q0 -35 35 -35h200q35 0 35 35v45h51v-50q0 -71 -72 -71zM565 0h-345q-83 0 -118.5 35t-35.5 119v214q0 83 35.5 118.5t118.5 35.5h345q83 0 118.5 -35.5t35.5 -118.5v-214q0 -84 -35.5 -119t-118.5 -35zM236 52h313q62 0 85.5 23
t23.5 85v202q0 62 -23.5 85t-85.5 23h-313q-62 0 -85.5 -23t-23.5 -85v-202q0 -62 23.5 -85t85.5 -23z" />
    <glyph glyph-name="Ohungarumlaut" unicode="&#x150;" horiz-adv-x="913" 
d="M497 878l-127 -121h-60l113 121h74zM704 878l-127 -121h-60l113 121h74zM673 0h-433q-90 0 -132 41.5t-42 132.5v352q0 90 42 132t132 42h433q90 0 132 -41.5t42 -132.5v-352q0 -91 -42 -132.5t-132 -41.5zM256 54h401q70 0 98.5 29t28.5 98v338q0 69 -28.5 98t-98.5 29
h-401q-69 0 -98 -29t-29 -98v-338q0 -69 29 -98t98 -29z" />
    <glyph glyph-name="ohungarumlaut" unicode="&#x151;" horiz-adv-x="785" 
d="M433 700l-127 -121h-60l113 121h74zM640 700l-127 -121h-60l113 121h74zM565 0h-345q-83 0 -118.5 35t-35.5 119v214q0 83 35.5 118.5t118.5 35.5h345q83 0 118.5 -35.5t35.5 -118.5v-214q0 -84 -35.5 -119t-118.5 -35zM236 52h313q62 0 85.5 23t23.5 85v202
q0 62 -23.5 85t-85.5 23h-313q-62 0 -85.5 -23t-23.5 -85v-202q0 -62 23.5 -85t85.5 -23z" />
    <glyph glyph-name="OE" unicode="&#x152;" horiz-adv-x="1491" 
d="M837 343v-289h616v-54h-1213q-90 0 -132 42t-42 132v352q0 91 42 132.5t132 41.5h1203v-54h-606v-252h566v-51h-566zM256 54h518v592h-518q-69 0 -98 -29t-29 -98v-338q0 -69 29 -98t98 -29z" />
    <glyph glyph-name="oe" unicode="&#x153;" horiz-adv-x="1367" 
d="M822 522h325q82 0 118 -35.5t36 -118.5v-106h-582v-103q0 -62 23 -85t85 -23h327q47 0 66.5 19.5t19.5 66.5v37h61v-44q0 -67 -32 -98.5t-98 -31.5h-347q-106 0 -136 62q-30 -62 -136 -62h-332q-83 0 -118.5 35.5t-35.5 118.5v214q0 83 35.5 118.5t118.5 35.5h334
q104 0 134 -61q30 61 134 61zM719 365v-56h521v56q0 62 -23 85t-85 23h-305q-62 0 -85 -23t-23 -85zM658 160v202q0 62 -23.5 85t-85.5 23h-314q-62 0 -85 -23t-23 -85v-202q0 -62 23 -85t85 -23h314q62 0 85.5 23t23.5 85z" />
    <glyph glyph-name="Racute" unicode="&#x154;" horiz-adv-x="874" 
d="M547 878h79l-152 -121h-64zM592 292l245 -292h-78l-242 291h-378v-291h-63v700h577q83 0 118.5 -35.5t35.5 -118.5v-99q0 -84 -35.5 -119t-118.5 -35zM636 649h-497v-308h497q62 0 85 23.5t23 85.5v90q0 62 -23 85.5t-85 23.5z" />
    <glyph glyph-name="racute" unicode="&#x155;" horiz-adv-x="515" 
d="M368 700h79l-152 -121h-64zM374 522h122v-55h-136q-108 0 -170 -44l-53 -37v-386h-61v522h45l10 -81l36 26q47 35 90 45q40 10 117 10z" />
    <glyph glyph-name="Rcommaaccent" unicode="&#x156;" horiz-adv-x="874" 
d="M592 292l245 -292h-78l-242 291h-378v-291h-63v700h577q83 0 118.5 -35.5t35.5 -118.5v-99q0 -84 -35.5 -119t-118.5 -35zM636 649h-497v-308h497q62 0 85 23.5t23 85.5v90q0 62 -23 85.5t-85 23.5zM425 -96h-31v66h77v-35q0 -26 -13 -48l-30 -56h-37z" />
    <glyph glyph-name="rcommaaccent" unicode="&#x157;" horiz-adv-x="515" 
d="M374 522h122v-55h-136q-108 0 -170 -44l-53 -37v-386h-61v522h45l10 -81l36 26q47 35 90 45q40 10 117 10zM99 -96h-31v66h77v-35q0 -26 -13 -48l-30 -56h-37z" />
    <glyph glyph-name="Rcaron" unicode="&#x158;" horiz-adv-x="874" 
d="M534 844l-22 -39h-12l-138 24l85 49zM355 825l1 5l6 -1zM592 292l245 -292h-78l-242 291h-378v-291h-63v700h577q83 0 118.5 -35.5t35.5 -118.5v-99q0 -84 -35.5 -119t-118.5 -35zM636 649h-497v-308h497q62 0 85 23.5t23 85.5v90q0 62 -23 85.5t-85 23.5z" />
    <glyph glyph-name="rcaron" unicode="&#x159;" horiz-adv-x="515" 
d="M355 666l-22 -39h-12l-138 24l85 49zM176 647l1 5l6 -1zM374 522h122v-55h-136q-108 0 -170 -44l-53 -37v-386h-61v522h45l10 -81l36 26q47 35 90 45q40 10 117 10z" />
    <glyph glyph-name="Sacute" unicode="&#x15a;" horiz-adv-x="893" 
d="M636 878l-152 -121h-64l137 121h79zM66 130v59h62v-51q0 -47 19.5 -66.5t66.5 -19.5h464q47 0 66.5 19.5t19.5 66.5v97q0 45 -18.5 63t-67.5 23l-472 35q-69 6 -99.5 35.5t-30.5 94.5v84q0 67 32 98.5t98 31.5h477q66 0 98 -31.5t32 -98.5v-42h-62v34q0 47 -19.5 66.5
t-66.5 19.5h-440q-47 0 -66.5 -19.5t-19.5 -66.5v-66q0 -44 18.5 -62.5t67.5 -23.5l472 -34q69 -6 99.5 -35.5t30.5 -94.5v-116q0 -67 -32 -98.5t-98 -31.5h-501q-66 0 -98 31.5t-32 98.5z" />
    <glyph glyph-name="sacute" unicode="&#x15b;" horiz-adv-x="765" 
d="M572 700l-152 -121h-64l137 121h79zM66 107v46h60v-41q0 -33 15 -48t49 -15h384q34 0 49 15t15 48v60q0 33 -15 48t-49 18l-391 29q-107 8 -107 108v40q0 107 107 107h395q107 0 107 -107v-43h-60v38q0 33 -15 48t-49 15h-360q-34 0 -49 -15t-15 -48v-27q0 -33 15 -48
t49 -17l391 -29q107 -9 107 -109v-73q0 -107 -107 -107h-419q-52 0 -79.5 27.5t-27.5 79.5z" />
    <glyph glyph-name="Scircumflex" unicode="&#x15c;" horiz-adv-x="893" 
d="M326 757h-58l144 121h70l144 -121h-58l-121 87zM66 130v59h62v-51q0 -47 19.5 -66.5t66.5 -19.5h464q47 0 66.5 19.5t19.5 66.5v97q0 45 -18.5 63t-67.5 23l-472 35q-69 6 -99.5 35.5t-30.5 94.5v84q0 67 32 98.5t98 31.5h477q66 0 98 -31.5t32 -98.5v-42h-62v34
q0 47 -19.5 66.5t-66.5 19.5h-440q-47 0 -66.5 -19.5t-19.5 -66.5v-66q0 -44 18.5 -62.5t67.5 -23.5l472 -34q69 -6 99.5 -35.5t30.5 -94.5v-116q0 -67 -32 -98.5t-98 -31.5h-501q-66 0 -98 31.5t-32 98.5z" />
    <glyph glyph-name="scircumflex" unicode="&#x15d;" horiz-adv-x="765" 
d="M262 579h-58l144 121h70l144 -121h-58l-121 87zM66 107v46h60v-41q0 -33 15 -48t49 -15h384q34 0 49 15t15 48v60q0 33 -15 48t-49 18l-391 29q-107 8 -107 108v40q0 107 107 107h395q107 0 107 -107v-43h-60v38q0 33 -15 48t-49 15h-360q-34 0 -49 -15t-15 -48v-27
q0 -33 15 -48t49 -17l391 -29q107 -9 107 -109v-73q0 -107 -107 -107h-419q-52 0 -79.5 27.5t-27.5 79.5z" />
    <glyph glyph-name="Scedilla" unicode="&#x15e;" horiz-adv-x="893" 
d="M225 410l472 -34q69 -6 99.5 -35.5t30.5 -94.5v-116q0 -67 -32 -98.5t-98 -31.5h-240l-14 -36h87q28 0 39.5 -11.5t11.5 -39.5v-22q0 -28 -11.5 -39.5t-39.5 -11.5h-185v37h176q16 0 16 16v19q0 16 -16 16h-121v15l21 57h-225q-66 0 -98 31.5t-32 98.5v59h62v-51
q0 -47 19.5 -66.5t66.5 -19.5h464q47 0 66.5 19.5t19.5 66.5v97q0 45 -18.5 63t-67.5 23l-472 35q-69 6 -99.5 35.5t-30.5 94.5v84q0 67 32 98.5t98 31.5h477q66 0 98 -31.5t32 -98.5v-42h-62v34q0 47 -19.5 66.5t-66.5 19.5h-440q-47 0 -66.5 -19.5t-19.5 -66.5v-66
q0 -44 18.5 -62.5t67.5 -23.5z" />
    <glyph glyph-name="scedilla" unicode="&#x15f;" horiz-adv-x="765" 
d="M201 318l391 -29q107 -9 107 -109v-73q0 -107 -107 -107h-199l-14 -36h87q28 0 39.5 -11.5t11.5 -39.5v-22q0 -28 -11.5 -39.5t-39.5 -11.5h-185v37h176q16 0 16 16v19q0 16 -16 16h-121v15l21 57h-184q-52 0 -79.5 27.5t-27.5 79.5v46h60v-41q0 -33 15 -48t49 -15h384
q34 0 49 15t15 48v60q0 33 -15 48t-49 18l-391 29q-107 8 -107 108v40q0 107 107 107h395q107 0 107 -107v-43h-60v38q0 33 -15 48t-49 15h-360q-34 0 -49 -15t-15 -48v-27q0 -33 15 -48t49 -17z" />
    <glyph glyph-name="Scaron" unicode="&#x160;" horiz-adv-x="893" 
d="M544 844l-22 -39h-12l-138 24l85 49zM365 825l1 5l6 -1zM225 410l472 -34q69 -6 99.5 -35.5t30.5 -94.5v-116q0 -67 -32 -98.5t-98 -31.5h-501q-66 0 -98 31.5t-32 98.5v59h62v-51q0 -47 19.5 -66.5t66.5 -19.5h464q47 0 66.5 19.5t19.5 66.5v97q0 45 -18.5 63t-67.5 23
l-472 35q-69 6 -99.5 35.5t-30.5 94.5v84q0 67 32 98.5t98 31.5h477q66 0 98 -31.5t32 -98.5v-42h-62v34q0 47 -19.5 66.5t-66.5 19.5h-440q-47 0 -66.5 -19.5t-19.5 -66.5v-66q0 -44 18.5 -62.5t67.5 -23.5z" />
    <glyph glyph-name="scaron" unicode="&#x161;" horiz-adv-x="765" 
d="M480 666l-22 -39h-12l-138 24l85 49zM301 647l1 5l6 -1zM201 318l391 -29q107 -9 107 -109v-73q0 -107 -107 -107h-419q-52 0 -79.5 27.5t-27.5 79.5v46h60v-41q0 -33 15 -48t49 -15h384q34 0 49 15t15 48v60q0 33 -15 48t-49 18l-391 29q-107 8 -107 108v40
q0 107 107 107h395q107 0 107 -107v-43h-60v38q0 33 -15 48t-49 15h-360q-34 0 -49 -15t-15 -48v-27q0 -33 15 -48t49 -17z" />
    <glyph glyph-name="uni0162" unicode="&#x162;" horiz-adv-x="785" 
d="M424 645v-645h-21l-14 -36h87q28 0 39.5 -11.5t11.5 -39.5v-22q0 -28 -11.5 -39.5t-39.5 -11.5h-185v37h176q16 0 16 16v19q0 16 -16 16h-121v15l21 57h-6v645h-342v55h747v-55h-342z" />
    <glyph glyph-name="uni0163" unicode="&#x163;" horiz-adv-x="599" 
d="M570 522v-51h-333v-333q0 -47 19.5 -66.5t66.5 -19.5h247v-52h-228l-14 -36h87q28 0 39.5 -11.5t11.5 -39.5v-22q0 -28 -11.5 -39.5t-39.5 -11.5h-185v37h176q16 0 16 16v19q0 16 -16 16h-121v15l21 57q-66 0 -98 31.5t-32 98.5v341h-157v51h157l14 120h47v-120h333z" />
    <glyph glyph-name="Tcaron" unicode="&#x164;" horiz-adv-x="785" 
d="M490 844l-22 -39h-12l-138 24l85 49zM311 825l1 5l6 -1zM19 700h747v-55h-342v-645h-63v645h-342v55z" />
    <glyph glyph-name="tcaron" unicode="&#x165;" horiz-adv-x="602" 
d="M451 626l-29 -56h-38l33 73h-30v66h77v-35q0 -26 -13 -48zM570 522v-51h-333v-333q0 -47 19.5 -66.5t66.5 -19.5h247v-52h-264q-66 0 -98 31.5t-32 98.5v341h-157v51h157l14 120h47v-120h333z" />
    <glyph glyph-name="Tbar" unicode="&#x166;" horiz-adv-x="796" 
d="M766 700v-55h-342v-278h239v-47h-239v-320h-63v320h-228v47h228v278h-342v55h747z" />
    <glyph glyph-name="tbar" unicode="&#x167;" horiz-adv-x="599" 
d="M237 642v-211h333v-95h-333v-198q0 -47 19.5 -66.5t66.5 -19.5h247v-52h-264q-66 0 -98 31.5t-32 98.5v206h-157v95h157v91l14 120h47z" />
    <glyph glyph-name="Utilde" unicode="&#x168;" horiz-adv-x="884" 
d="M308 757h-46v70q0 51 51 51h58q23 0 35 -4.5t30 -19.5l53 -47q14 -13 34 -13h34q11 0 15.5 4.5t4.5 15.5v64h46v-70q0 -51 -51 -51h-58q-23 0 -35 4.5t-30 19.5l-53 47q-14 13 -34 13h-34q-11 0 -15.5 -4.5t-4.5 -15.5v-64zM644 0h-403q-90 0 -132 41.5t-42 132.5v526h63
v-518q0 -70 28.5 -98.5t98.5 -28.5h371q69 0 98 28.5t29 98.5v518h63v-526q0 -91 -42 -132.5t-132 -41.5z" />
    <glyph glyph-name="utilde" unicode="&#x169;" horiz-adv-x="791" 
d="M259 643v-64h-46v70q0 51 51 51h58q23 0 35 -4.5t30 -19.5l53 -47q14 -13 34 -13h34q11 0 15.5 4.5t4.5 15.5v64h46v-70q0 -51 -51 -51h-58q-23 0 -35 4.5t-30 19.5l-53 47q-14 13 -34 13h-34q-11 0 -15.5 -4.5t-4.5 -15.5zM654 522h61v-522h-48l-9 80l-35 -25
q-46 -34 -89 -45q-41 -10 -118 -10h-190q-82 0 -118 35.5t-36 118.5v368h62v-362q0 -62 23 -85t85 -23h189q106 0 170 44l53 38v388z" />
    <glyph glyph-name="Umacron" unicode="&#x16a;" horiz-adv-x="884" 
d="M642 798h-400v43h400v-43zM644 0h-403q-90 0 -132 41.5t-42 132.5v526h63v-518q0 -70 28.5 -98.5t98.5 -28.5h371q69 0 98 28.5t29 98.5v518h63v-526q0 -91 -42 -132.5t-132 -41.5z" />
    <glyph glyph-name="umacron" unicode="&#x16b;" horiz-adv-x="791" 
d="M193 663h400v-43h-400v43zM654 522h61v-522h-48l-9 80l-35 -25q-46 -34 -89 -45q-41 -10 -118 -10h-190q-82 0 -118 35.5t-36 118.5v368h62v-362q0 -62 23 -85t85 -23h189q106 0 170 44l53 38v388z" />
    <glyph glyph-name="Ubreve" unicode="&#x16c;" horiz-adv-x="884" 
d="M556 757h-229q-71 0 -71 71v50h51v-45q0 -35 35 -35h200q35 0 35 35v45h51v-50q0 -71 -72 -71zM644 0h-403q-90 0 -132 41.5t-42 132.5v526h63v-518q0 -70 28.5 -98.5t98.5 -28.5h371q69 0 98 28.5t29 98.5v518h63v-526q0 -91 -42 -132.5t-132 -41.5z" />
    <glyph glyph-name="ubreve" unicode="&#x16d;" horiz-adv-x="791" 
d="M507 579h-229q-71 0 -71 71v50h51v-45q0 -35 35 -35h200q35 0 35 35v45h51v-50q0 -71 -72 -71zM654 522h61v-522h-48l-9 80l-35 -25q-46 -34 -89 -45q-41 -10 -118 -10h-190q-82 0 -118 35.5t-36 118.5v368h62v-362q0 -62 23 -85t85 -23h189q106 0 170 44l53 38v388z" />
    <glyph glyph-name="Uring" unicode="&#x16e;" horiz-adv-x="884" 
d="M289 800v25q0 53 53 53h199q53 0 53 -53v-25q0 -53 -53 -53h-199q-53 0 -53 53zM329 821v-17q0 -13 4.5 -17.5t16.5 -4.5h183q12 0 16.5 4.5t4.5 17.5v17q0 13 -4.5 18t-16.5 5h-183q-12 0 -16.5 -5t-4.5 -18zM644 0h-403q-90 0 -132 41.5t-42 132.5v526h63v-518
q0 -70 28.5 -98.5t98.5 -28.5h371q69 0 98 28.5t29 98.5v518h63v-526q0 -91 -42 -132.5t-132 -41.5z" />
    <glyph glyph-name="uring" unicode="&#x16f;" horiz-adv-x="791" 
d="M492 569h-199q-53 0 -53 53v25q0 53 53 53h199q53 0 53 -53v-25q0 -53 -53 -53zM280 643v-17q0 -13 4.5 -17.5t16.5 -4.5h183q12 0 16.5 4.5t4.5 17.5v17q0 13 -4.5 18t-16.5 5h-183q-12 0 -16.5 -5t-4.5 -18zM654 522h61v-522h-48l-9 80l-35 -25q-46 -34 -89 -45
q-41 -10 -118 -10h-190q-82 0 -118 35.5t-36 118.5v368h62v-362q0 -62 23 -85t85 -23h189q106 0 170 44l53 38v388z" />
    <glyph glyph-name="Uhungarumlaut" unicode="&#x170;" horiz-adv-x="884" 
d="M482 878l-127 -121h-60l113 121h74zM689 878l-127 -121h-60l113 121h74zM644 0h-403q-90 0 -132 41.5t-42 132.5v526h63v-518q0 -70 28.5 -98.5t98.5 -28.5h371q69 0 98 28.5t29 98.5v518h63v-526q0 -91 -42 -132.5t-132 -41.5z" />
    <glyph glyph-name="uhungarumlaut" unicode="&#x171;" horiz-adv-x="791" 
d="M359 700h74l-127 -121h-60zM566 700h74l-127 -121h-60zM654 522h61v-522h-48l-9 80l-35 -25q-46 -34 -89 -45q-41 -10 -118 -10h-190q-82 0 -118 35.5t-36 118.5v368h62v-362q0 -62 23 -85t85 -23h189q106 0 170 44l53 38v388z" />
    <glyph glyph-name="Uogonek" unicode="&#x172;" horiz-adv-x="884" 
d="M755 182v518h63v-526q0 -91 -42 -132.5t-132 -41.5h-105l-40 -17q-19 -9 -24 -17t-5 -26v-17q0 -23 9 -31.5t31 -8.5h119v-43h-131q-40 0 -58.5 18t-18.5 59v16q0 28 6 41.5t27 25.5h-213q-90 0 -132 41.5t-42 132.5v526h63v-518q0 -70 28.5 -98.5t98.5 -28.5h371
q69 0 98 28.5t29 98.5z" />
    <glyph glyph-name="uogonek" unicode="&#x173;" horiz-adv-x="789" 
d="M661 -117h103v-43h-115q-41 0 -59 18t-18 59v15q0 31 9 46t39 30l44 22l-6 50l-35 -25q-46 -34 -89 -45q-41 -10 -118 -10h-190q-82 0 -118 35.5t-36 118.5v368h62v-362q0 -62 23 -85t85 -23h189q106 0 170 44l53 38v388h61v-522h-30l-35 -17q-18 -9 -23.5 -17.5
t-5.5 -26.5v-16q0 -23 8.5 -31.5t31.5 -8.5z" />
    <glyph glyph-name="Wcircumflex" unicode="&#x174;" horiz-adv-x="1231" 
d="M736 757l-121 87l-121 -87h-58l144 121h70l144 -121h-58zM896 79l263 621h67l-301 -700h-57l-252 611l-253 -611h-57l-301 700h70l263 -621l253 621h52z" />
    <glyph glyph-name="wcircumflex" unicode="&#x175;" horiz-adv-x="1025" 
d="M634 579l-121 87l-121 -87h-58l144 121h70l144 -121h-58zM744 72l207 450h65l-247 -522h-52l-204 443l-204 -443h-53l-247 522h68l207 -450l206 450h48z" />
    <glyph glyph-name="Ycircumflex" unicode="&#x176;" horiz-adv-x="826" 
d="M534 757l-121 87l-121 -87h-58l144 121h70l144 -121h-58zM750 700h77l-383 -440v-260h-63v261l-382 439h80l336 -390z" />
    <glyph glyph-name="ycircumflex" unicode="&#x177;" horiz-adv-x="728" 
d="M485 579l-121 87l-121 -87h-58l144 121h70l144 -121h-58zM364 63l285 459h70l-344 -544q-53 -84 -100 -111q-48 -27 -146 -27h-75v52h86q68 0 106 20q36 19 73 80l12 19l-322 511h73z" />
    <glyph glyph-name="Ydieresis" unicode="&#x178;" horiz-adv-x="826" 
d="M276 842h56v-67h-56v67zM495 842h55v-67h-55v67zM750 700h77l-383 -440v-260h-63v261l-382 439h80l336 -390z" />
    <glyph glyph-name="Zacute" unicode="&#x179;" horiz-adv-x="863" 
d="M621 878l-152 -121h-64l137 121h79zM815 0h-767v41l665 605h-645v54h747v-41l-665 -605h665v-54z" />
    <glyph glyph-name="zacute" unicode="&#x17a;" horiz-adv-x="749" 
d="M563 700l-152 -121h-64l137 121h79zM703 0h-657v38l553 433h-533v51h637v-38l-553 -433h553v-51z" />
    <glyph glyph-name="Zdotaccent" unicode="&#x17b;" horiz-adv-x="863" 
d="M463 775h-62v67h62v-67zM815 0h-767v41l665 605h-645v54h747v-41l-665 -605h665v-54z" />
    <glyph glyph-name="zdotaccent" unicode="&#x17c;" horiz-adv-x="749" 
d="M405 597h-62v67h62v-67zM703 0h-657v38l553 433h-533v51h637v-38l-553 -433h553v-51z" />
    <glyph glyph-name="Zcaron" unicode="&#x17d;" horiz-adv-x="863" 
d="M529 844l-22 -39h-12l-138 24l85 49zM350 825l1 5l6 -1zM68 700h747v-41l-665 -605h665v-54h-767v41l665 605h-645v54z" />
    <glyph glyph-name="zcaron" unicode="&#x17e;" horiz-adv-x="749" 
d="M471 666l-22 -39h-12l-138 24l85 49zM292 647l1 5l6 -1zM66 522h637v-38l-553 -433h553v-51h-657v38l553 433h-533v51z" />
    <glyph glyph-name="florin" unicode="&#x192;" horiz-adv-x="784" 
d="M727 646h-141q-69 0 -98 -27.5t-37 -99.5l-23 -205h279v-48h-284l-28 -252q-10 -93 -51.5 -133.5t-130.5 -40.5h-156v54h142q68 0 97 27.5t37 99.5l27 245h-283v48h288l24 212q10 93 51.5 133.5t130.5 40.5h156v-54z" />
    <glyph glyph-name="Aringacute" unicode="&#x1fa;" horiz-adv-x="900" 
d="M896 0h-71l-114 195h-524l-114 -195h-68l395 669h-49q-53 0 -53 53v25q0 53 53 53h89l78 78h76l-90 -78h46q53 0 53 -53v-25q0 -53 -53 -53h-49zM338 743v-17q0 -13 4.5 -17.5t16.5 -4.5h183q12 0 16.5 4.5t4.5 17.5v17q0 13 -4.5 18t-16.5 5h-183q-12 0 -16.5 -5
t-4.5 -18zM449 645l-232 -398h464z" />
    <glyph glyph-name="aringacute" unicode="&#x1fb;" horiz-adv-x="781" 
d="M548 522h7q83 0 118.5 -35t35.5 -119v-368h-48l-9 80l-45 -31q-47 -33 -79 -40q-35 -9 -100 -9h-241q-121 0 -121 121v50q0 121 121 121h461v73q0 62 -23.5 85t-85.5 23h-303q-47 0 -66.5 -19.5t-19.5 -66.5v-26h-60v31q0 67 32 98.5t98 31.5h29q-3 9 -3 22v25
q0 53 53 53h89l78 78h76l-90 -78h46q53 0 53 -53v-25q0 -13 -3 -22zM286 565v-17q0 -13 4.5 -17.5t16.5 -4.5h183q12 0 16.5 4.5t4.5 17.5v17q0 13 -4.5 18t-16.5 5h-183q-12 0 -16.5 -5t-4.5 -18zM585 86l63 43v118h-441q-44 0 -62 -18t-18 -62v-39q0 -44 18 -62t62 -18
h237q86 0 141 38z" />
    <glyph glyph-name="AEacute" unicode="&#x1fc;" horiz-adv-x="1277" 
d="M797 878h79l-152 -121h-64zM687 343l165 -289h387v-54h-427l-109 194h-517l-113 -194h-68l413 700h811v-54h-714l143 -252h531v-51h-502zM449 644l-233 -398h457z" />
    <glyph glyph-name="aeacute" unicode="&#x1fd;" horiz-adv-x="1357" 
d="M788 700h79l-152 -121h-64zM812 522h325q82 0 118 -35.5t36 -118.5v-106h-582v-103q0 -62 23 -85t85 -23h327q47 0 66.5 19.5t19.5 66.5v37h61v-44q0 -67 -32 -98.5t-98 -31.5h-353q-120 0 -145 82l-48 -33q-47 -33 -79 -40q-34 -9 -100 -9h-249q-121 0 -121 121v50
q0 121 121 121h461v73q0 62 -23.5 85t-85.5 23h-303q-47 0 -66.5 -19.5t-19.5 -66.5v-26h-60v31q0 67 32 98.5t98 31.5h325q103 0 134 -61q30 61 133 61zM709 365v-56h521v56q0 62 -23 85t-85 23h-305q-62 0 -85 -23t-23 -85zM585 86l63 43v118h-441q-44 0 -62 -18t-18 -62
v-39q0 -44 18 -62t62 -18h237q86 0 141 38z" />
    <glyph glyph-name="Oslashacute" unicode="&#x1fe;" horiz-adv-x="913" 
d="M567 878h79l-152 -121h-64zM877 730l-73 -71q43 -42 43 -133v-352q0 -91 -42 -132.5t-132 -41.5h-433q-58 0 -93 16l-47 -46h-64l73 71q-43 42 -43 133v352q0 90 42 132t132 42h433q58 0 93 -16l47 46h64zM128 520v-340q0 -66 26 -95l566 554q-24 8 -62 8h-403
q-70 0 -98.5 -29t-28.5 -98zM785 180v340q0 66 -26 95l-566 -554q24 -8 62 -8h403q70 0 98.5 29t28.5 98z" />
    <glyph glyph-name="oslashacute" unicode="&#x1ff;" horiz-adv-x="785" 
d="M503 700h79l-152 -121h-64zM749 561l-73 -68q43 -34 43 -125v-214q0 -84 -35.5 -119t-118.5 -35h-345q-37 0 -69 8l-51 -47h-64l73 68q-43 33 -43 125v214q0 83 35.5 118.5t118.5 35.5h345q37 0 69 -8l51 47h64zM125 364v-206q0 -67 28 -89l434 401q-30 2 -36 2h-317
q-62 0 -85.5 -23t-23.5 -85zM660 158v206q0 67 -28 89l-434 -401q30 -2 36 -2h317q62 0 85.5 23t23.5 85z" />
    <glyph glyph-name="Scommaaccent" unicode="&#x218;" horiz-adv-x="893" 
d="M66 130v59h62v-51q0 -47 19.5 -66.5t66.5 -19.5h464q47 0 66.5 19.5t19.5 66.5v97q0 45 -18.5 63t-67.5 23l-472 35q-69 6 -99.5 35.5t-30.5 94.5v84q0 67 32 98.5t98 31.5h477q66 0 98 -31.5t32 -98.5v-42h-62v34q0 47 -19.5 66.5t-66.5 19.5h-440q-47 0 -66.5 -19.5
t-19.5 -66.5v-66q0 -44 18.5 -62.5t67.5 -23.5l472 -34q69 -6 99.5 -35.5t30.5 -94.5v-116q0 -67 -32 -98.5t-98 -31.5h-501q-66 0 -98 31.5t-32 98.5zM443 -169h-37l34 73h-31v66h77v-35q0 -26 -13 -48z" />
    <glyph glyph-name="scommaaccent" unicode="&#x219;" horiz-adv-x="765" 
d="M66 107v46h60v-41q0 -33 15 -48t49 -15h384q34 0 49 15t15 48v60q0 33 -15 48t-49 18l-391 29q-107 8 -107 108v40q0 107 107 107h395q107 0 107 -107v-43h-60v38q0 33 -15 48t-49 15h-360q-34 0 -49 -15t-15 -48v-27q0 -33 15 -48t49 -17l391 -29q107 -9 107 -109v-73
q0 -107 -107 -107h-419q-52 0 -79.5 27.5t-27.5 79.5zM379 -169h-37l34 73h-31v66h77v-35q0 -26 -13 -48z" />
    <glyph glyph-name="uni021A" unicode="&#x21a;" horiz-adv-x="785" 
d="M19 645v55h747v-55h-342v-645h-63v645h-342zM386 -96h-31v66h77v-35q0 -26 -13 -48l-30 -56h-37z" />
    <glyph glyph-name="uni021B" unicode="&#x21b;" horiz-adv-x="599" 
d="M570 522v-51h-333v-333q0 -47 19.5 -66.5t66.5 -19.5h247v-52h-264q-66 0 -98 31.5t-32 98.5v341h-157v51h157l14 120h47v-120h333zM325 -96h-31v66h77v-35q0 -26 -13 -48l-30 -56h-37z" />
    <glyph glyph-name="uni0237" unicode="&#x237;" horiz-adv-x="261" 
d="M52 -160h-116v51h98q47 0 66.5 19.5t19.5 66.5v545h62v-552q0 -67 -32 -98.5t-98 -31.5z" />
    <glyph glyph-name="circumflex" unicode="&#x2c6;" horiz-adv-x="478" 
d="M134 579h-58l144 121h70l144 -121h-58l-121 87z" />
    <glyph glyph-name="caron" unicode="&#x2c7;" horiz-adv-x="508" 
d="M180 651l85 49l87 -34l-22 -39h-12zM180 651l-7 -4l1 5z" />
    <glyph glyph-name="breve" unicode="&#x2d8;" horiz-adv-x="492" 
d="M376 579h-229q-71 0 -71 71v50h51v-45q0 -35 35 -35h200q35 0 35 35v45h51v-50q0 -71 -72 -71z" />
    <glyph glyph-name="dotaccent" unicode="&#x2d9;" horiz-adv-x="213" 
d="M138 597h-62v67h62v-67z" />
    <glyph glyph-name="ring" unicode="&#x2da;" horiz-adv-x="389" 
d="M58 622v25q0 53 53 53h199q53 0 53 -53v-25q0 -53 -53 -53h-199q-53 0 -53 53zM98 643v-17q0 -13 4.5 -17.5t16.5 -4.5h183q12 0 16.5 4.5t4.5 17.5v17q0 13 -4.5 18t-16.5 5h-183q-12 0 -16.5 -5t-4.5 -18z" />
    <glyph glyph-name="ogonek" unicode="&#x2db;" horiz-adv-x="335" 
d="M206 5l-52 -22q-19 -9 -24 -17t-5 -26v-17q0 -23 8.5 -31.5t31.5 -8.5h119v-43h-131q-41 0 -59 18t-18 59v16q0 33 8 46.5t40 28.5l59 26z" />
    <glyph glyph-name="tilde" unicode="&#x2dc;" horiz-adv-x="492" 
d="M122 579h-46v70q0 51 51 51h58q23 0 35 -4.5t30 -19.5l53 -47q14 -13 34 -13h34q11 0 15.5 4.5t4.5 15.5v64h46v-70q0 -51 -51 -51h-58q-23 0 -35 4.5t-30 19.5l-53 47q-14 13 -34 13h-34q-11 0 -15.5 -4.5t-4.5 -15.5v-64z" />
    <glyph glyph-name="hungarumlaut" unicode="&#x2dd;" horiz-adv-x="521" 
d="M256 700l-127 -121h-60l113 121h74zM463 700l-127 -121h-60l113 121h74z" />
    <glyph glyph-name="gravecomb" unicode="&#x300;" horiz-adv-x="0" 
d="M-76 579h-64l-152 121h79z" />
    <glyph glyph-name="acutecomb" unicode="&#x301;" horiz-adv-x="0" 
d="M-76 700l-152 -121h-64l137 121h79z" />
    <glyph glyph-name="uni0302" unicode="&#x302;" horiz-adv-x="0" 
d="M-376 579h-58l144 121h70l144 -121h-58l-121 87z" />
    <glyph glyph-name="tildecomb" unicode="&#x303;" horiz-adv-x="0" 
d="M-391 579h-46v70q0 51 51 51h58q23 0 35 -4.5t30 -19.5l53 -47q14 -13 34 -13h34q11 0 15.5 4.5t4.5 15.5v64h46v-70q0 -51 -51 -51h-58q-23 0 -35 4.5t-30 19.5l-53 47q-14 13 -34 13h-34q-11 0 -15.5 -4.5t-4.5 -15.5v-64z" />
    <glyph glyph-name="uni0304" unicode="&#x304;" horiz-adv-x="0" 
d="M-76 620h-400v43h400v-43z" />
    <glyph glyph-name="uni0306" unicode="&#x306;" horiz-adv-x="0" 
d="M-148 579h-229q-71 0 -71 71v50h51v-45q0 -35 35 -35h200q35 0 35 35v45h51v-50q0 -71 -72 -71z" />
    <glyph glyph-name="uni0307" unicode="&#x307;" horiz-adv-x="0" 
d="M-76 597h-62v67h62v-67z" />
    <glyph glyph-name="uni0308" unicode="&#x308;" horiz-adv-x="0" 
d="M-294 597h-56v67h56v-67zM-76 597h-55v67h55v-67z" />
    <glyph glyph-name="uni030A" unicode="&#x30a;" horiz-adv-x="0" 
d="M-363 622v25q0 53 53 53h199q53 0 53 -53v-25q0 -53 -53 -53h-199q-53 0 -53 53zM-323 643v-17q0 -13 4.5 -17.5t16.5 -4.5h183q12 0 16.5 4.5t4.5 17.5v17q0 13 -4.5 18t-16.5 5h-183q-12 0 -16.5 -5t-4.5 -18z" />
    <glyph glyph-name="uni030B" unicode="&#x30b;" horiz-adv-x="0" 
d="M-269 700l-127 -121h-60l113 121h74zM-62 700l-127 -121h-60l113 121h74z" />
    <glyph glyph-name="uni030C" unicode="&#x30c;" horiz-adv-x="0" 
d="M-330 651l85 49l87 -34l-22 -39h-12zM-330 651l-7 -4l1 5z" />
    <glyph glyph-name="uni0312" unicode="&#x312;" horiz-adv-x="0" 
d="M-110 718h38l-34 -73h30v-66h-76v35q0 26 13 48z" />
    <glyph glyph-name="uni0326" unicode="&#x326;" horiz-adv-x="0" 
d="M-119 -169h-37l34 73h-31v66h77v-35q0 -26 -13 -48z" />
    <glyph glyph-name="uni0327" unicode="&#x327;" horiz-adv-x="0" 
d="M-109 -160h-185v37h176q16 0 16 16v19q0 16 -16 16h-121v15l28 77h36l-21 -56h87q28 0 39.5 -11.5t11.5 -39.5v-22q0 -28 -11.5 -39.5t-39.5 -11.5z" />
    <glyph glyph-name="uni0328" unicode="&#x328;" horiz-adv-x="0" 
d="M-154 5l-52 -22q-19 -9 -24 -17t-5 -26v-17q0 -23 8.5 -31.5t31.5 -8.5h119v-43h-131q-41 0 -59 18t-18 59v16q0 33 8 46.5t40 28.5l59 26z" />
    <glyph glyph-name="uni0335" unicode="&#x335;" horiz-adv-x="0" 
d="M-480 331v46h440v-46h-440z" />
    <glyph glyph-name="uni0336" unicode="&#x336;" horiz-adv-x="0" 
d="M-884 331v46h844v-46h-844z" />
    <glyph glyph-name="uni0337" unicode="&#x337;" horiz-adv-x="0" 
d="M-454 326v47l414 60v-47z" />
    <glyph glyph-name="uni0338" unicode="&#x338;" horiz-adv-x="0" 
d="M-606 -30l547 600h59l-547 -600h-59z" />
    <glyph glyph-name="uni0394" unicode="&#x394;" horiz-adv-x="901" 
d="M418 700h65l413 -700h-891zM449 646l-346 -594h692z" />
    <glyph glyph-name="uni03A9" unicode="&#x3a9;" horiz-adv-x="913" 
d="M597 88v-36h260v-52h-318v134h118q70 0 98.5 29t28.5 98v258q0 69 -28.5 98t-98.5 29h-401q-69 0 -98 -29t-29 -98v-258q0 -69 29 -98t98 -29h118v-134h-318v52h260v36h-79q-88 0 -129.5 41t-41.5 130v267q0 90 42 132t132 42h433q90 0 132 -41.5t42 -132.5v-267
q0 -89 -41 -130t-130 -41h-79z" />
    <glyph glyph-name="uni03BC" unicode="&#x3bc;" horiz-adv-x="850" 
d="M786 52h45v-52h-62q-96 0 -109 79l-33 -24q-48 -35 -90 -45q-41 -10 -118 -10h-186q-63 0 -97 19v-179h-60v682h61v-362q0 -62 23 -85t85 -23h190q108 0 170 44l52 38v388h62v-403q0 -37 14.5 -52t52.5 -15z" />
    <glyph glyph-name="pi" unicode="&#x3c0;" horiz-adv-x="866" 
d="M837 522v-51h-145v-333q0 -47 19.5 -66.5t66.5 -19.5h59v-52h-76q-66 0 -98 31.5t-32 98.5v341h-441v-471h-61v471h-110v51h818z" />
    <glyph glyph-name="uni0401" unicode="&#x401;" horiz-adv-x="793" 
d="M259 842h56v-67h-56v67zM478 842h55v-67h-55v67zM139 343v-289h616v-54h-679v700h669v-54h-606v-252h566v-51h-566z" />
    <glyph glyph-name="uni0403" unicode="&#x403;" horiz-adv-x="724" 
d="M472 878h79l-152 -121h-64zM76 700h629v-55h-566v-645h-63v700z" />
    <glyph glyph-name="uni0405" unicode="&#x405;" horiz-adv-x="893" 
d="M66 130v59h62v-51q0 -47 19.5 -66.5t66.5 -19.5h464q47 0 66.5 19.5t19.5 66.5v97q0 45 -18.5 63t-67.5 23l-472 35q-69 6 -99.5 35.5t-30.5 94.5v84q0 67 32 98.5t98 31.5h477q66 0 98 -31.5t32 -98.5v-42h-62v34q0 47 -19.5 66.5t-66.5 19.5h-440q-47 0 -66.5 -19.5
t-19.5 -66.5v-66q0 -44 18.5 -62.5t67.5 -23.5l472 -34q69 -6 99.5 -35.5t30.5 -94.5v-116q0 -67 -32 -98.5t-98 -31.5h-501q-66 0 -98 31.5t-32 98.5z" />
    <glyph glyph-name="uni0406" unicode="&#x406;" horiz-adv-x="227" 
d="M82 0v700h63v-700h-63z" />
    <glyph glyph-name="uni0407" unicode="&#x407;" horiz-adv-x="227" 
d="M32 775h-56v67h56v-67zM250 775h-55v67h55v-67zM82 0v700h63v-700h-63z" />
    <glyph glyph-name="uni0408" unicode="&#x408;" horiz-adv-x="807" 
d="M566 0h-354q-90 0 -132 41.5t-42 132.5v73h62v-66q0 -70 28.5 -98.5t98.5 -28.5h323q70 0 98.5 28.5t28.5 98.5v519h63v-526q0 -91 -42 -132.5t-132 -41.5z" />
    <glyph glyph-name="uni040C" unicode="&#x40c;" horiz-adv-x="805" 
d="M455 878h79l-152 -121h-64zM224 361l572 -361h-111l-546 350v-350h-63v700h63v-331l540 331h113z" />
    <glyph glyph-name="uni040E" unicode="&#x40e;" horiz-adv-x="826" 
d="M527 757h-229q-71 0 -71 71v50h51v-45q0 -35 35 -35h200q35 0 35 35v45h51v-50q0 -71 -72 -71zM414 275l337 425h76l-560 -700h-74l183 229l-377 471h79z" />
    <glyph glyph-name="uni0410" unicode="&#x410;" horiz-adv-x="890" 
d="M896 0h-71l-114 195h-524l-114 -195h-68l413 700h65zM449 645l-232 -398h464z" />
    <glyph glyph-name="uni0411" unicode="&#x411;" horiz-adv-x="874" 
d="M687 0h-611v700h681v-52h-618v-251h548q66 0 98 -31.5t32 -98.5v-137q0 -67 -32 -98.5t-98 -31.5zM139 348v-296h529q47 0 66.5 19.5t19.5 66.5v124q0 47 -19.5 66.5t-66.5 19.5h-529z" />
    <glyph glyph-name="uni0412" unicode="&#x412;" horiz-adv-x="874" 
d="M740 372q77 -21 77 -122v-120q0 -67 -32 -98.5t-98 -31.5h-611v700h591q66 0 98 -31.5t32 -98.5v-83q0 -89 -57 -115zM648 648h-509v-255h509q47 0 66.5 19.5t19.5 66.5v83q0 47 -19.5 66.5t-66.5 19.5zM754 138v120q0 47 -19.5 66.5t-66.5 19.5h-529v-292h529
q47 0 66.5 19.5t19.5 66.5z" />
    <glyph glyph-name="uni0413" unicode="&#x413;" horiz-adv-x="724" 
d="M76 700h629v-55h-566v-645h-63v700z" />
    <glyph glyph-name="uni0414" unicode="&#x414;" horiz-adv-x="907" 
d="M819 700v-646h69v-174h-61v120h-747v-120h-61v174h29q58 0 79.5 20.5t25.5 79.5l34 546h632zM247 645l-31 -485q-4 -72 -32 -106h572v591h-509z" />
    <glyph glyph-name="uni0415" unicode="&#x415;" horiz-adv-x="793" 
d="M139 343v-289h616v-54h-679v700h669v-54h-606v-252h566v-51h-566z" />
    <glyph glyph-name="uni0416" unicode="&#x416;" horiz-adv-x="1395" 
d="M815 361l571 -361h-111l-546 350v-350h-63v350l-546 -350h-111l572 361l-568 339h113l540 -330v330h63v-331l540 331h113z" />
    <glyph glyph-name="uni0417" unicode="&#x417;" horiz-adv-x="893" 
d="M756 370q71 -23 71 -120v-120q0 -67 -32 -98.5t-98 -31.5h-501q-66 0 -98 31.5t-32 98.5v88h62v-80q0 -47 19.5 -66.5t66.5 -19.5h464q47 0 66.5 19.5t19.5 66.5v119q0 47 -19.5 66.5t-66.5 19.5h-337v51h327q47 0 66.5 19.5t19.5 66.5v82q0 47 -19.5 66.5t-66.5 19.5
h-444q-47 0 -66.5 -19.5t-19.5 -66.5v-72h-62v80q0 67 32 98.5t98 31.5h481q66 0 98 -31.5t32 -98.5v-83q0 -90 -61 -117z" />
    <glyph glyph-name="uni0418" unicode="&#x418;" horiz-adv-x="923" 
d="M138 91l655 609h54v-700h-62v613l-660 -613h-49v700h62v-609z" />
    <glyph glyph-name="uni0419" unicode="&#x419;" horiz-adv-x="923" 
d="M576 757h-229q-71 0 -71 71v50h51v-45q0 -35 35 -35h200q35 0 35 35v45h51v-50q0 -71 -72 -71zM138 91l655 609h54v-700h-62v613l-660 -613h-49v700h62v-609z" />
    <glyph glyph-name="uni041A" unicode="&#x41a;" horiz-adv-x="805" 
d="M224 361l572 -361h-111l-546 350v-350h-63v700h63v-331l540 331h113z" />
    <glyph glyph-name="uni041B" unicode="&#x41b;" horiz-adv-x="895" 
d="M64 0h-45v54h29q58 0 79.5 20.5t25.5 79.5l34 546h632v-700h-63v645h-509l-31 -498q-5 -81 -39.5 -114t-112.5 -33z" />
    <glyph glyph-name="uni041C" unicode="&#x41c;" horiz-adv-x="1031" 
d="M517 216l385 484h53v-700h-61v600l-360 -446h-37l-360 446v-600h-61v700h56z" />
    <glyph glyph-name="uni041D" unicode="&#x41d;" horiz-adv-x="903" 
d="M764 397v303h63v-700h-63v341h-625v-341h-63v700h63v-303h625z" />
    <glyph glyph-name="uni041E" unicode="&#x41e;" horiz-adv-x="913" 
d="M673 0h-433q-90 0 -132 41.5t-42 132.5v352q0 90 42 132t132 42h433q90 0 132 -41.5t42 -132.5v-352q0 -91 -42 -132.5t-132 -41.5zM256 54h401q70 0 98.5 29t28.5 98v338q0 69 -28.5 98t-98.5 29h-401q-69 0 -98 -29t-29 -98v-338q0 -69 29 -98t98 -29z" />
    <glyph glyph-name="uni041F" unicode="&#x41f;" horiz-adv-x="903" 
d="M139 0h-63v700h751v-700h-63v645h-625v-645z" />
    <glyph glyph-name="uni0420" unicode="&#x420;" horiz-adv-x="845" 
d="M139 0h-63v700h577q83 0 118.5 -35.5t35.5 -118.5v-122q0 -83 -35.5 -118.5t-118.5 -35.5h-514v-270zM139 648v-327h497q62 0 85 23.5t23 85.5v109q0 62 -23 85.5t-85 23.5h-497z" />
    <glyph glyph-name="uni0421" unicode="&#x421;" horiz-adv-x="889" 
d="M652 0h-412q-90 0 -132 41.5t-42 132.5v352q0 90 42 132t132 42h412q90 0 132 -41.5t42 -132.5v-64h-62v57q0 70 -28.5 98.5t-98.5 28.5h-381q-69 0 -98 -28.5t-29 -98.5v-338q0 -70 29 -98.5t98 -28.5h381q70 0 98.5 28.5t28.5 98.5v66h62v-73q0 -91 -42 -132.5
t-132 -41.5z" />
    <glyph glyph-name="uni0422" unicode="&#x422;" horiz-adv-x="785" 
d="M19 700h747v-55h-342v-645h-63v645h-342v55z" />
    <glyph glyph-name="uni0423" unicode="&#x423;" horiz-adv-x="826" 
d="M414 275l337 425h76l-560 -700h-74l183 229l-377 471h79z" />
    <glyph glyph-name="uni0424" unicode="&#x424;" horiz-adv-x="1151" 
d="M606 651h305q90 0 132 -41.5t42 -132.5v-254q0 -91 -42 -132.5t-132 -41.5h-305v-89h-61v89h-305q-90 0 -132 41.5t-42 132.5v254q0 90 42 132t132 42h305v89h61v-89zM256 101h289v498h-289q-69 0 -98 -28.5t-29 -98.5v-244q0 -70 29 -98.5t98 -28.5zM1022 228v244
q0 70 -28.5 98.5t-98.5 28.5h-289v-498h289q70 0 98.5 28.5t28.5 98.5z" />
    <glyph glyph-name="uni0425" unicode="&#x425;" horiz-adv-x="849" 
d="M94 0h-85l373 355l-363 345h89l318 -307l319 307h85l-363 -345l373 -355h-88l-329 318z" />
    <glyph glyph-name="uni0426" unicode="&#x426;" horiz-adv-x="915" 
d="M835 0h-759v700h63v-645h625v645h63v-645h69v-175h-61v120z" />
    <glyph glyph-name="uni0427" unicode="&#x427;" horiz-adv-x="853" 
d="M777 0h-63v288h-522q-83 0 -118.5 35.5t-35.5 118.5v258h63v-248q0 -62 23 -85.5t85 -23.5h505v357h63v-700z" />
    <glyph glyph-name="uni0428" unicode="&#x428;" horiz-adv-x="1369" 
d="M1293 0h-1217v700h63v-645h514v645h63v-645h514v645h63v-700z" />
    <glyph glyph-name="uni0429" unicode="&#x429;" horiz-adv-x="1381" 
d="M1301 0h-1225v700h63v-645h514v645h63v-645h514v645h63v-645h69v-175h-61v120z" />
    <glyph glyph-name="uni042A" unicode="&#x42a;" horiz-adv-x="1020" 
d="M243 646h-224v54h287v-270h522q83 0 118.5 -35t35.5 -119v-122q0 -84 -35.5 -119t-118.5 -35h-585v646zM306 379v-327h505q62 0 85 23.5t23 85.5v109q0 62 -23 85.5t-85 23.5h-505z" />
    <glyph glyph-name="uni042B" unicode="&#x42b;" horiz-adv-x="1072" 
d="M76 0v700h63v-270h514q83 0 118.5 -35.5t35.5 -118.5v-122q0 -83 -35.5 -118.5t-118.5 -35.5h-577zM927 0v700h63v-700h-63zM636 379h-497v-327h497q62 0 85 23.5t23 85.5v109q0 62 -23 85.5t-85 23.5z" />
    <glyph glyph-name="uni042C" unicode="&#x42c;" horiz-adv-x="845" 
d="M76 0v700h63v-270h514q83 0 118.5 -35.5t35.5 -118.5v-122q0 -83 -35.5 -118.5t-118.5 -35.5h-577zM636 379h-497v-327h497q62 0 85 23.5t23 85.5v109q0 62 -23 85.5t-85 23.5z" />
    <glyph glyph-name="uni042D" unicode="&#x42d;" horiz-adv-x="900" 
d="M236 700h423q90 0 132 -41.5t42 -132.5v-352q0 -91 -42 -132.5t-132 -41.5h-423q-90 0 -132 41.5t-42 132.5v73h62v-68q0 -70 29 -98.5t98 -28.5h392q70 0 98.5 28.5t28.5 98.5v161h-415v49h415v132q0 70 -28.5 98.5t-98.5 28.5h-392q-69 0 -98 -28.5t-29 -98.5v-59h-62
v64q0 90 42 132t132 42z" />
    <glyph glyph-name="uni042E" unicode="&#x42e;" horiz-adv-x="1345" 
d="M672 700h433q90 0 132 -41.5t42 -132.5v-352q0 -91 -42 -132.5t-132 -41.5h-433q-90 0 -132 41.5t-42 132.5v167h-359v-341h-63v700h63v-303h359v129q0 90 42 132t132 42zM1216 181v338q0 69 -28.5 98t-98.5 29h-401q-70 0 -98.5 -29t-28.5 -98v-338q0 -69 28.5 -98
t98.5 -29h401q70 0 98.5 29t28.5 98z" />
    <glyph glyph-name="uni042F" unicode="&#x42f;" horiz-adv-x="874" 
d="M221 700h577v-700h-63v291h-378l-242 -291h-78l245 292l-61 1q-83 0 -118.5 35t-35.5 119v99q0 83 35.5 118.5t118.5 35.5zM238 341h497v308h-497q-62 0 -85 -23.5t-23 -85.5v-90q0 -62 23 -85.5t85 -23.5z" />
    <glyph glyph-name="uni0430" unicode="&#x430;" horiz-adv-x="780" 
d="M220 522h335q83 0 118.5 -35t35.5 -119v-368h-48l-9 80l-45 -31q-47 -33 -79 -40q-35 -9 -100 -9h-241q-121 0 -121 121v50q0 121 121 121h461v73q0 62 -23.5 85t-85.5 23h-303q-47 0 -66.5 -19.5t-19.5 -66.5v-26h-60v31q0 67 32 98.5t98 31.5zM585 86l63 43v118h-441
q-44 0 -62 -18t-18 -62v-39q0 -44 18 -62t62 -18h237q86 0 141 38z" />
    <glyph glyph-name="uni0431" unicode="&#x431;" horiz-adv-x="785" 
d="M225 458h364q66 0 98 -31.5t32 -98.5v-198q0 -67 -32 -98.5t-98 -31.5h-393q-66 0 -98 31.5t-32 98.5v385q0 89 41 129.5t133 45.5l459 20v-51l-454 -21q-71 -3 -99.5 -31t-28.5 -97v-97q29 45 108 45zM658 137v185q0 47 -19.5 66.5t-66.5 19.5h-358q-47 0 -66.5 -19.5
t-19.5 -66.5v-185q0 -47 19.5 -66.5t66.5 -19.5h358q47 0 66.5 19.5t19.5 66.5z" />
    <glyph glyph-name="uni0432" unicode="&#x432;" horiz-adv-x="773" 
d="M657 277q56 -15 56 -90v-90q0 -97 -96 -97h-541v522h526q96 0 96 -97v-62q0 -65 -41 -86zM573 473h-436v-176h436q35 0 49.5 14.5t14.5 49.5v50q0 34 -14.5 48t-49.5 14zM652 112v76q0 35 -14.5 49t-49.5 14h-451v-202h451q35 0 49.5 14t14.5 49z" />
    <glyph glyph-name="uni0433" unicode="&#x433;" horiz-adv-x="628" 
d="M137 0h-61v522h533v-52h-472v-470z" />
    <glyph glyph-name="uni0434" unicode="&#x434;" horiz-adv-x="797" 
d="M710 522v-471h68v-171h-59v120h-641v-120h-59v171h21q51 0 71.5 20t23.5 72l26 379h549zM219 470l-23 -328q-4 -60 -29 -91h482v419h-430z" />
    <glyph glyph-name="uni0435" unicode="&#x435;" horiz-adv-x="775" 
d="M220 522h335q83 0 118.5 -35t35.5 -119v-106h-582v-103q0 -62 23.5 -85t85.5 -23h327q47 0 66.5 19.5t19.5 66.5v37h60v-44q0 -67 -32 -98.5t-98 -31.5h-359q-82 0 -118 35.5t-36 118.5v214q0 83 36 118.5t118 35.5zM127 365v-56h522v56q0 62 -23.5 85t-85.5 23h-304
q-62 0 -85.5 -23t-23.5 -85z" />
    <glyph glyph-name="uni0436" unicode="&#x436;" horiz-adv-x="1193" 
d="M719 262l466 -262h-118l-440 252v-252h-61v252l-440 -252h-118l466 262l-461 260h116l437 -252v252h61v-252l437 252h116z" />
    <glyph glyph-name="uni0437" unicode="&#x437;" horiz-adv-x="775" 
d="M657 276q52 -18 52 -89v-90q0 -50 -23.5 -73.5t-73.5 -23.5h-449q-50 0 -73.5 23.5t-23.5 73.5v60h60v-45q0 -35 14.5 -49t49.5 -14h394q35 0 49.5 14t14.5 49v75q0 35 -14.5 49.5t-49.5 14.5h-274v46h267q35 0 49.5 15t14.5 50v48q0 35 -14.5 49t-49.5 14h-380
q-35 0 -49 -14t-14 -49v-38h-61v53q0 97 98 97h434q97 0 97 -97v-62q0 -67 -45 -87z" />
    <glyph glyph-name="uni0438" unicode="&#x438;" horiz-adv-x="809" 
d="M136 79l545 443h52v-522h-61v447l-549 -447h-47v522h60v-443z" />
    <glyph glyph-name="uni0439" unicode="&#x439;" horiz-adv-x="809" 
d="M518 579h-229q-71 0 -71 71v50h51v-45q0 -35 35 -35h200q35 0 35 35v45h51v-50q0 -71 -72 -71zM136 79l545 443h52v-522h-61v447l-549 -447h-47v522h60v-443z" />
    <glyph glyph-name="uni043A" unicode="&#x43a;" horiz-adv-x="703" 
d="M229 262l466 -262h-118l-440 252v-252h-61v522h61v-252l437 252h117z" />
    <glyph glyph-name="uni043B" unicode="&#x43b;" horiz-adv-x="786" 
d="M62 0h-43v51h20q51 0 71.5 20t24.5 72l26 379h549v-522h-61v470h-430l-24 -340q-5 -67 -36.5 -98.5t-96.5 -31.5z" />
    <glyph glyph-name="uni043C" unicode="&#x43c;" horiz-adv-x="895" 
d="M135 0h-59v522h55l318 -352l318 352h52v-522h-60v438l-295 -324h-33l-296 324v-438z" />
    <glyph glyph-name="uni043D" unicode="&#x43d;" horiz-adv-x="795" 
d="M657 297v225h62v-522h-62v244h-520v-244h-61v522h61v-225h520z" />
    <glyph glyph-name="uni043E" unicode="&#x43e;" horiz-adv-x="785" 
d="M565 0h-345q-83 0 -118.5 35t-35.5 119v214q0 83 35.5 118.5t118.5 35.5h345q83 0 118.5 -35.5t35.5 -118.5v-214q0 -84 -35.5 -119t-118.5 -35zM236 52h313q62 0 85.5 23t23.5 85v202q0 62 -23.5 85t-85.5 23h-313q-62 0 -85.5 -23t-23.5 -85v-202q0 -62 23.5 -85
t85.5 -23z" />
    <glyph glyph-name="uni043F" unicode="&#x43f;" horiz-adv-x="795" 
d="M137 0h-61v522h643v-522h-62v470h-520v-470z" />
    <glyph glyph-name="uni0440" unicode="&#x440;" horiz-adv-x="795" 
d="M375 522h200q82 0 118 -35.5t36 -118.5v-214q0 -83 -36 -118.5t-118 -35.5h-200q-77 0 -117 10q-44 10 -90 45l-31 22v-237h-61v682h48l9 -80l35 25q46 35 90 45q40 10 117 10zM667 160v202q0 62 -23 85t-85 23h-199q-108 0 -170 -44l-53 -37v-256l53 -38q61 -43 170 -43
h199q62 0 85 23t23 85z" />
    <glyph glyph-name="uni0441" unicode="&#x441;" horiz-adv-x="764" 
d="M66 154v214q0 83 35.5 118.5t118.5 35.5h324q83 0 118.5 -35.5t35.5 -118.5v-35h-60v29q0 62 -23.5 85t-85.5 23h-293q-62 0 -85.5 -23t-23.5 -85v-202q0 -62 23.5 -85t85.5 -23h293q62 0 85.5 23t23.5 85v38h60v-44q0 -84 -35.5 -119t-118.5 -35h-324q-83 0 -118.5 35
t-35.5 119z" />
    <glyph glyph-name="uni0442" unicode="&#x442;" horiz-adv-x="677" 
d="M308 470h-289v52h639v-52h-289v-470h-61v470z" />
    <glyph glyph-name="uni0443" unicode="&#x443;" horiz-adv-x="728" 
d="M364 63l285 459h70l-344 -544q-53 -84 -100 -111q-48 -27 -146 -27h-75v52h86q68 0 106 20q36 19 73 80l12 19l-322 511h73z" />
    <glyph glyph-name="uni0444" unicode="&#x444;" horiz-adv-x="1105" 
d="M583 522h302q82 0 118 -35.5t36 -118.5v-214q0 -83 -36 -118.5t-118 -35.5h-302v-160h-61v160h-302q-83 0 -118.5 35t-35.5 119v214q0 83 35.5 118.5t118.5 35.5h302v178h61v-178zM236 49h286v423h-286q-62 0 -85.5 -23t-23.5 -85v-206q0 -62 23.5 -85.5t85.5 -23.5z
M978 158v206q0 62 -23.5 85t-85.5 23h-286v-423h286q62 0 85.5 23.5t23.5 85.5z" />
    <glyph glyph-name="uni0445" unicode="&#x445;" horiz-adv-x="734" 
d="M95 0h-87l315 266l-305 256h91l260 -223l260 223h87l-304 -256l314 -266h-91l-270 232z" />
    <glyph glyph-name="uni0446" unicode="&#x446;" horiz-adv-x="806" 
d="M727 0h-651v522h61v-470h520v470h62v-470h68v-172h-60v120z" />
    <glyph glyph-name="uni0447" unicode="&#x447;" horiz-adv-x="741" 
d="M38 523l61 -1v-167q0 -47 19.5 -66.5t66.5 -19.5h419v253h61v-522h-61v217h-436q-66 0 -98 31.5t-32 98.5v176z" />
    <glyph glyph-name="uni0448" unicode="&#x448;" horiz-adv-x="1191" 
d="M1115 0h-1039v522h61v-470h428v470h61v-470h428v470h61v-522z" />
    <glyph glyph-name="uni0449" unicode="&#x449;" horiz-adv-x="1210" 
d="M1132 0h-1056v522h61v-470h432v470h61v-470h432v470h61v-470h68v-172h-59v120z" />
    <glyph glyph-name="uni044A" unicode="&#x44a;" 
d="M199 470h-180v52h241v-202h440q65 0 95.5 -30t30.5 -96v-68q0 -66 -30.5 -96t-95.5 -30h-501v470zM260 272v-223h422q46 0 64.5 18t18.5 64v59q0 46 -18.5 64t-64.5 18h-422z" />
    <glyph glyph-name="uni044B" unicode="&#x44b;" horiz-adv-x="962" 
d="M76 0v522h61v-202h440q65 0 95.5 -30t30.5 -96v-68q0 -66 -30.5 -96t-95.5 -30h-501zM883 0h-62v522h62v-522zM559 272h-422v-223h422q46 0 64 18t18 64v59q0 46 -18 64t-64 18z" />
    <glyph glyph-name="uni044C" unicode="&#x44c;" horiz-adv-x="741" 
d="M76 0v522h61v-202h440q65 0 95.5 -30t30.5 -96v-68q0 -66 -30.5 -96t-95.5 -30h-501zM559 272h-422v-223h422q46 0 64 18t18 64v59q0 46 -18 64t-64 18z" />
    <glyph glyph-name="uni044D" unicode="&#x44d;" horiz-adv-x="784" 
d="M220 522h344q83 0 118.5 -35.5t35.5 -118.5v-214q0 -83 -35.5 -118.5t-118.5 -35.5h-344q-83 0 -118.5 35.5t-35.5 118.5v44h60v-39q0 -62 23.5 -85t85.5 -23h313q62 0 85.5 23t23.5 85v94h-345v45h345v65q0 62 -23.5 85t-85.5 23h-313q-62 0 -85.5 -23t-23.5 -85v-30
h-60v35q0 83 35.5 118.5t118.5 35.5z" />
    <glyph glyph-name="uni044E" unicode="&#x44e;" horiz-adv-x="1147" 
d="M582 522h345q82 0 118 -35.5t36 -118.5v-214q0 -83 -36 -118.5t-118 -35.5h-345q-83 0 -118.5 35t-35.5 119v90h-291v-244h-61v522h61v-225h291v71q0 83 35.5 118.5t118.5 35.5zM1019 160v202q0 62 -23 85t-85 23h-314q-62 0 -85 -23t-23 -85v-202q0 -62 23 -85t85 -23
h314q62 0 85 23t23 85z" />
    <glyph glyph-name="uni044F" unicode="&#x44f;" horiz-adv-x="768" 
d="M191 522h501v-522h-61v214h-340l-180 -214h-74l182 215h-28q-65 0 -95.5 30t-30.5 96v55q0 66 30.5 96t95.5 30zM209 261h422v213h-422q-46 0 -64.5 -18t-18.5 -64v-49q0 -46 18.5 -64t64.5 -18z" />
    <glyph glyph-name="uni0451" unicode="&#x451;" horiz-adv-x="775" 
d="M251 664h56v-67h-56v67zM470 664h55v-67h-55v67zM220 522h335q83 0 118.5 -35t35.5 -119v-106h-582v-103q0 -62 23.5 -85t85.5 -23h327q47 0 66.5 19.5t19.5 66.5v37h60v-44q0 -67 -32 -98.5t-98 -31.5h-359q-82 0 -118 35.5t-36 118.5v214q0 83 36 118.5t118 35.5z
M127 365v-56h522v56q0 62 -23.5 85t-85.5 23h-304q-62 0 -85.5 -23t-23.5 -85z" />
    <glyph glyph-name="uni0453" unicode="&#x453;" horiz-adv-x="628" 
d="M503 700l-152 -121h-64l137 121h79zM137 0h-61v522h533v-52h-472v-470z" />
    <glyph glyph-name="uni0455" unicode="&#x455;" horiz-adv-x="765" 
d="M66 107v46h60v-41q0 -33 15 -48t49 -15h384q34 0 49 15t15 48v60q0 33 -15 48t-49 18l-391 29q-107 8 -107 108v40q0 107 107 107h395q107 0 107 -107v-43h-60v38q0 33 -15 48t-49 15h-360q-34 0 -49 -15t-15 -48v-27q0 -33 15 -48t49 -17l391 -29q107 -9 107 -109v-73
q0 -107 -107 -107h-419q-52 0 -79.5 27.5t-27.5 79.5z" />
    <glyph glyph-name="uni0456" unicode="&#x456;" horiz-adv-x="221" 
d="M142 630h-62v70h62v-70zM142 0h-62v522h62v-522z" />
    <glyph glyph-name="uni0457" unicode="&#x457;" horiz-adv-x="221" 
d="M30 597h-56v67h56v-67zM248 597h-55v67h55v-67zM142 0h-62v522h62v-522z" />
    <glyph glyph-name="uni0458" unicode="&#x458;" horiz-adv-x="261" 
d="M182 630h-62v70h62v-70zM52 -160h-116v51h98q47 0 66.5 19.5t19.5 66.5v545h62v-552q0 -67 -32 -98.5t-98 -31.5z" />
    <glyph glyph-name="uni045C" unicode="&#x45c;" horiz-adv-x="703" 
d="M463 700h79l-152 -121h-64zM229 262l466 -262h-118l-440 252v-252h-61v522h61v-252l437 252h117z" />
    <glyph glyph-name="uni045E" unicode="&#x45e;" horiz-adv-x="728" 
d="M478 579h-229q-71 0 -71 71v50h51v-45q0 -35 35 -35h200q35 0 35 35v45h51v-50q0 -71 -72 -71zM364 63l285 459h70l-344 -544q-53 -84 -100 -111q-48 -27 -146 -27h-75v52h86q68 0 106 20q36 19 73 80l12 19l-322 511h73z" />
    <glyph glyph-name="uni0498" unicode="&#x498;" horiz-adv-x="893" 
d="M756 370q71 -23 71 -120v-120q0 -67 -32 -98.5t-98 -31.5h-240l-14 -36h87q28 0 39.5 -11.5t11.5 -39.5v-22q0 -28 -11.5 -39.5t-39.5 -11.5h-185v37h176q16 0 16 16v19q0 16 -16 16h-121v15l21 57h-225q-66 0 -98 31.5t-32 98.5v88h62v-80q0 -47 19.5 -66.5t66.5 -19.5
h464q47 0 66.5 19.5t19.5 66.5v119q0 47 -19.5 66.5t-66.5 19.5h-337v51h327q47 0 66.5 19.5t19.5 66.5v82q0 47 -19.5 66.5t-66.5 19.5h-444q-47 0 -66.5 -19.5t-19.5 -66.5v-72h-62v80q0 67 32 98.5t98 31.5h481q66 0 98 -31.5t32 -98.5v-83q0 -90 -61 -117z" />
    <glyph glyph-name="uni0499" unicode="&#x499;" horiz-adv-x="775" 
d="M657 276q52 -18 52 -89v-90q0 -50 -23.5 -73.5t-73.5 -23.5h-214l-14 -36h87q28 0 39.5 -11.5t11.5 -39.5v-22q0 -28 -11.5 -39.5t-39.5 -11.5h-185v37h176q16 0 16 16v19q0 16 -16 16h-121v15l21 57h-199q-50 0 -73.5 23.5t-23.5 73.5v60h60v-45q0 -35 14.5 -49
t49.5 -14h394q35 0 49.5 14t14.5 49v75q0 35 -14.5 49.5t-49.5 14.5h-274v46h267q35 0 49.5 15t14.5 50v48q0 35 -14.5 49t-49.5 14h-380q-35 0 -49 -14t-14 -49v-38h-61v53q0 97 98 97h434q97 0 97 -97v-62q0 -67 -45 -87z" />
    <glyph glyph-name="uni04BB" unicode="&#x4bb;" horiz-adv-x="791" 
d="M376 522h189q82 0 118 -35.5t36 -118.5v-368h-62v362q0 62 -23 85t-85 23h-189q-106 0 -170 -44l-53 -38v-388h-61v700h61v-256l32 23q47 35 90 45q40 10 117 10z" />
    <glyph glyph-name="uni04C0" unicode="&#x4c0;" horiz-adv-x="227" 
d="M82 0v700h63v-700h-63z" />
    <glyph glyph-name="uni04C1" unicode="&#x4c1;" horiz-adv-x="1395" 
d="M812 757h-229q-71 0 -71 71v50h51v-45q0 -35 35 -35h200q35 0 35 35v45h51v-50q0 -71 -72 -71zM815 361l571 -361h-111l-546 350v-350h-63v350l-546 -350h-111l572 361l-568 339h113l540 -330v330h63v-331l540 331h113z" />
    <glyph glyph-name="uni04C2" unicode="&#x4c2;" horiz-adv-x="1193" 
d="M711 579h-229q-71 0 -71 71v50h51v-45q0 -35 35 -35h200q35 0 35 35v45h51v-50q0 -71 -72 -71zM719 262l466 -262h-118l-440 252v-252h-61v252l-440 -252h-118l466 262l-461 260h116l437 -252v252h61v-252l437 252h116z" />
    <glyph glyph-name="uni04D0" unicode="&#x4d0;" horiz-adv-x="890" 
d="M565 757h-229q-71 0 -71 71v50h51v-45q0 -35 35 -35h200q35 0 35 35v45h51v-50q0 -71 -72 -71zM896 0h-71l-114 195h-524l-114 -195h-68l413 700h65zM449 645l-232 -398h464z" />
    <glyph glyph-name="uni04D1" unicode="&#x4d1;" horiz-adv-x="780" 
d="M509 579h-229q-71 0 -71 71v50h51v-45q0 -35 35 -35h200q35 0 35 35v45h51v-50q0 -71 -72 -71zM220 522h335q83 0 118.5 -35t35.5 -119v-368h-48l-9 80l-45 -31q-47 -33 -79 -40q-35 -9 -100 -9h-241q-121 0 -121 121v50q0 121 121 121h461v73q0 62 -23.5 85t-85.5 23
h-303q-47 0 -66.5 -19.5t-19.5 -66.5v-26h-60v31q0 67 32 98.5t98 31.5zM585 86l63 43v118h-441q-44 0 -62 -18t-18 -62v-39q0 -44 18 -62t62 -18h237q86 0 141 38z" />
    <glyph glyph-name="uni04D2" unicode="&#x4d2;" horiz-adv-x="890" 
d="M314 842h56v-67h-56v67zM533 842h55v-67h-55v67zM896 0h-71l-114 195h-524l-114 -195h-68l413 700h65zM449 645l-232 -398h464z" />
    <glyph glyph-name="uni04D3" unicode="&#x4d3;" horiz-adv-x="780" 
d="M258 664h56v-67h-56v67zM477 664h55v-67h-55v67zM220 522h335q83 0 118.5 -35t35.5 -119v-368h-48l-9 80l-45 -31q-47 -33 -79 -40q-35 -9 -100 -9h-241q-121 0 -121 121v50q0 121 121 121h461v73q0 62 -23.5 85t-85.5 23h-303q-47 0 -66.5 -19.5t-19.5 -66.5v-26h-60v31
q0 67 32 98.5t98 31.5zM585 86l63 43v118h-441q-44 0 -62 -18t-18 -62v-39q0 -44 18 -62t62 -18h237q86 0 141 38z" />
    <glyph glyph-name="uni04D4" unicode="&#x4d4;" horiz-adv-x="1277" 
d="M687 343l165 -289h387v-54h-427l-109 194h-517l-113 -194h-68l413 700h811v-54h-714l143 -252h531v-51h-502zM449 644l-233 -398h457z" />
    <glyph glyph-name="uni04D5" unicode="&#x4d5;" horiz-adv-x="1357" 
d="M812 522h325q82 0 118 -35.5t36 -118.5v-106h-582v-103q0 -62 23 -85t85 -23h327q47 0 66.5 19.5t19.5 66.5v37h61v-44q0 -67 -32 -98.5t-98 -31.5h-353q-120 0 -145 82l-48 -33q-47 -33 -79 -40q-34 -9 -100 -9h-249q-121 0 -121 121v50q0 121 121 121h461v73
q0 62 -23.5 85t-85.5 23h-303q-47 0 -66.5 -19.5t-19.5 -66.5v-26h-60v31q0 67 32 98.5t98 31.5h325q103 0 134 -61q30 61 133 61zM709 365v-56h521v56q0 62 -23 85t-85 23h-305q-62 0 -85 -23t-23 -85zM585 86l63 43v118h-441q-44 0 -62 -18t-18 -62v-39q0 -44 18 -62
t62 -18h237q86 0 141 38z" />
    <glyph glyph-name="uni04D6" unicode="&#x4d6;" horiz-adv-x="793" 
d="M510 757h-229q-71 0 -71 71v50h51v-45q0 -35 35 -35h200q35 0 35 35v45h51v-50q0 -71 -72 -71zM139 343v-289h616v-54h-679v700h669v-54h-606v-252h566v-51h-566z" />
    <glyph glyph-name="uni04D7" unicode="&#x4d7;" horiz-adv-x="775" 
d="M502 579h-229q-71 0 -71 71v50h51v-45q0 -35 35 -35h200q35 0 35 35v45h51v-50q0 -71 -72 -71zM220 522h335q83 0 118.5 -35t35.5 -119v-106h-582v-103q0 -62 23.5 -85t85.5 -23h327q47 0 66.5 19.5t19.5 66.5v37h60v-44q0 -67 -32 -98.5t-98 -31.5h-359q-82 0 -118 35.5
t-36 118.5v214q0 83 36 118.5t118 35.5zM127 365v-56h522v56q0 62 -23.5 85t-85.5 23h-304q-62 0 -85.5 -23t-23.5 -85z" />
    <glyph glyph-name="uni04DC" unicode="&#x4dc;" horiz-adv-x="1395" 
d="M561 842h56v-67h-56v67zM780 842h55v-67h-55v67zM815 361l571 -361h-111l-546 350v-350h-63v350l-546 -350h-111l572 361l-568 339h113l540 -330v330h63v-331l540 331h113z" />
    <glyph glyph-name="uni04DD" unicode="&#x4dd;" horiz-adv-x="1193" 
d="M460 664h56v-67h-56v67zM679 664h55v-67h-55v67zM719 262l466 -262h-118l-440 252v-252h-61v252l-440 -252h-118l466 262l-461 260h116l437 -252v252h61v-252l437 252h116z" />
    <glyph glyph-name="uni04DE" unicode="&#x4de;" horiz-adv-x="893" 
d="M310 842h56v-67h-56v67zM529 842h55v-67h-55v67zM756 370q71 -23 71 -120v-120q0 -67 -32 -98.5t-98 -31.5h-501q-66 0 -98 31.5t-32 98.5v88h62v-80q0 -47 19.5 -66.5t66.5 -19.5h464q47 0 66.5 19.5t19.5 66.5v119q0 47 -19.5 66.5t-66.5 19.5h-337v51h327
q47 0 66.5 19.5t19.5 66.5v82q0 47 -19.5 66.5t-66.5 19.5h-444q-47 0 -66.5 -19.5t-19.5 -66.5v-72h-62v80q0 67 32 98.5t98 31.5h481q66 0 98 -31.5t32 -98.5v-83q0 -90 -61 -117z" />
    <glyph glyph-name="uni04DF" unicode="&#x4df;" horiz-adv-x="775" 
d="M251 664h56v-67h-56v67zM470 664h55v-67h-55v67zM657 276q52 -18 52 -89v-90q0 -50 -23.5 -73.5t-73.5 -23.5h-449q-50 0 -73.5 23.5t-23.5 73.5v60h60v-45q0 -35 14.5 -49t49.5 -14h394q35 0 49.5 14t14.5 49v75q0 35 -14.5 49.5t-49.5 14.5h-274v46h267q35 0 49.5 15
t14.5 50v48q0 35 -14.5 49t-49.5 14h-380q-35 0 -49 -14t-14 -49v-38h-61v53q0 97 98 97h434q97 0 97 -97v-62q0 -67 -45 -87z" />
    <glyph glyph-name="uni04E2" unicode="&#x4e2;" horiz-adv-x="923" 
d="M262 841h400v-43h-400v43zM138 91l655 609h54v-700h-62v613l-660 -613h-49v700h62v-609z" />
    <glyph glyph-name="uni04E3" unicode="&#x4e3;" horiz-adv-x="809" 
d="M204 663h400v-43h-400v43zM136 79l545 443h52v-522h-61v447l-549 -447h-47v522h60v-443z" />
    <glyph glyph-name="uni04E4" unicode="&#x4e4;" horiz-adv-x="923" 
d="M325 842h56v-67h-56v67zM544 842h55v-67h-55v67zM138 91l655 609h54v-700h-62v613l-660 -613h-49v700h62v-609z" />
    <glyph glyph-name="uni04E5" unicode="&#x4e5;" horiz-adv-x="809" 
d="M267 664h56v-67h-56v67zM486 664h55v-67h-55v67zM136 79l545 443h52v-522h-61v447l-549 -447h-47v522h60v-443z" />
    <glyph glyph-name="uni04E6" unicode="&#x4e6;" horiz-adv-x="913" 
d="M376 775h-56v67h56v-67zM594 775h-55v67h55v-67zM673 0h-433q-90 0 -132 41.5t-42 132.5v352q0 90 42 132t132 42h433q90 0 132 -41.5t42 -132.5v-352q0 -91 -42 -132.5t-132 -41.5zM256 54h401q70 0 98.5 29t28.5 98v338q0 69 -28.5 98t-98.5 29h-401q-69 0 -98 -29
t-29 -98v-338q0 -69 29 -98t98 -29z" />
    <glyph glyph-name="uni04E7" unicode="&#x4e7;" horiz-adv-x="785" 
d="M312 597h-56v67h56v-67zM530 597h-55v67h55v-67zM565 0h-345q-83 0 -118.5 35t-35.5 119v214q0 83 35.5 118.5t118.5 35.5h345q83 0 118.5 -35.5t35.5 -118.5v-214q0 -84 -35.5 -119t-118.5 -35zM236 52h313q62 0 85.5 23t23.5 85v202q0 62 -23.5 85t-85.5 23h-313
q-62 0 -85.5 -23t-23.5 -85v-202q0 -62 23.5 -85t85.5 -23z" />
    <glyph glyph-name="uni04EC" unicode="&#x4ec;" horiz-adv-x="900" 
d="M313 842h56v-67h-56v67zM532 842h55v-67h-55v67zM236 700h423q90 0 132 -41.5t42 -132.5v-352q0 -91 -42 -132.5t-132 -41.5h-423q-90 0 -132 41.5t-42 132.5v73h62v-68q0 -70 29 -98.5t98 -28.5h392q70 0 98.5 28.5t28.5 98.5v161h-415v49h415v132q0 70 -28.5 98.5
t-98.5 28.5h-392q-69 0 -98 -28.5t-29 -98.5v-59h-62v64q0 90 42 132t132 42z" />
    <glyph glyph-name="uni04ED" unicode="&#x4ed;" horiz-adv-x="784" 
d="M249 664h56v-67h-56v67zM468 664h55v-67h-55v67zM220 522h344q83 0 118.5 -35.5t35.5 -118.5v-214q0 -83 -35.5 -118.5t-118.5 -35.5h-344q-83 0 -118.5 35.5t-35.5 118.5v44h60v-39q0 -62 23.5 -85t85.5 -23h313q62 0 85.5 23t23.5 85v94h-345v45h345v65q0 62 -23.5 85
t-85.5 23h-313q-62 0 -85.5 -23t-23.5 -85v-30h-60v35q0 83 35.5 118.5t118.5 35.5z" />
    <glyph glyph-name="uni04EE" unicode="&#x4ee;" horiz-adv-x="826" 
d="M213 841h400v-43h-400v43zM414 275l337 425h76l-560 -700h-74l183 229l-377 471h79z" />
    <glyph glyph-name="uni04EF" unicode="&#x4ef;" horiz-adv-x="728" 
d="M164 663h400v-43h-400v43zM364 63l285 459h70l-344 -544q-53 -84 -100 -111q-48 -27 -146 -27h-75v52h86q68 0 106 20q36 19 73 80l12 19l-322 511h73z" />
    <glyph glyph-name="uni04F0" unicode="&#x4f0;" horiz-adv-x="826" 
d="M276 842h56v-67h-56v67zM495 842h55v-67h-55v67zM414 275l337 425h76l-560 -700h-74l183 229l-377 471h79z" />
    <glyph glyph-name="uni04F1" unicode="&#x4f1;" horiz-adv-x="728" 
d="M227 664h56v-67h-56v67zM446 664h55v-67h-55v67zM364 63l285 459h70l-344 -544q-53 -84 -100 -111q-48 -27 -146 -27h-75v52h86q68 0 106 20q36 19 73 80l12 19l-322 511h73z" />
    <glyph glyph-name="uni04F2" unicode="&#x4f2;" horiz-adv-x="826" 
d="M379 878h74l-127 -121h-60zM586 878h74l-127 -121h-60zM414 275l337 425h76l-560 -700h-74l183 229l-377 471h79z" />
    <glyph glyph-name="uni04F3" unicode="&#x4f3;" horiz-adv-x="728" 
d="M330 700h74l-127 -121h-60zM537 700h74l-127 -121h-60zM364 63l285 459h70l-344 -544q-53 -84 -100 -111q-48 -27 -146 -27h-75v52h86q68 0 106 20q36 19 73 80l12 19l-322 511h73z" />
    <glyph glyph-name="uni04F4" unicode="&#x4f4;" horiz-adv-x="853" 
d="M346 775h-56v67h56v-67zM564 775h-55v67h55v-67zM777 0h-63v288h-522q-83 0 -118.5 35.5t-35.5 118.5v258h63v-248q0 -62 23 -85.5t85 -23.5h505v357h63v-700z" />
    <glyph glyph-name="uni04F5" unicode="&#x4f5;" horiz-adv-x="600" 
d="M132 597h-56v67h56v-67zM350 597h-55v67h55v-67zM38 523l61 -1v-167q0 -47 19.5 -66.5t66.5 -19.5h419v253h61v-522h-61v217h-436q-66 0 -98 31.5t-32 98.5v176z" />
    <glyph glyph-name="uni04F8" unicode="&#x4f8;" horiz-adv-x="1072" 
d="M877 775h-56v67h56v-67zM1095 775h-55v67h55v-67zM76 0v700h63v-270h514q83 0 118.5 -35.5t35.5 -118.5v-122q0 -83 -35.5 -118.5t-118.5 -35.5h-577zM927 0v700h63v-700h-63zM636 379h-497v-327h497q62 0 85 23.5t23 85.5v109q0 62 -23 85.5t-85 23.5z" />
    <glyph glyph-name="uni04F9" unicode="&#x4f9;" horiz-adv-x="962" 
d="M771 597h-56v67h56v-67zM989 597h-55v67h55v-67zM76 0v522h61v-202h440q65 0 95.5 -30t30.5 -96v-68q0 -66 -30.5 -96t-95.5 -30h-501zM883 0h-62v522h62v-522zM559 272h-422v-223h422q46 0 64 18t18 64v59q0 46 -18 64t-64 18z" />
    <glyph glyph-name="Wgrave" unicode="&#x1e80;" horiz-adv-x="1231" 
d="M505 878l137 -121h-64l-152 121h79zM896 79l263 621h67l-301 -700h-57l-252 611l-253 -611h-57l-301 700h70l263 -621l253 621h52z" />
    <glyph glyph-name="wgrave" unicode="&#x1e81;" horiz-adv-x="1025" 
d="M403 700l137 -121h-64l-152 121h79zM744 72l207 450h65l-247 -522h-52l-204 443l-204 -443h-53l-247 522h68l207 -450l206 450h48z" />
    <glyph glyph-name="Wacute" unicode="&#x1e82;" horiz-adv-x="1231" 
d="M725 878h79l-152 -121h-64zM896 79l263 621h67l-301 -700h-57l-252 611l-253 -611h-57l-301 700h70l263 -621l253 621h52z" />
    <glyph glyph-name="wacute" unicode="&#x1e83;" horiz-adv-x="1025" 
d="M623 700h79l-152 -121h-64zM744 72l207 450h65l-247 -522h-52l-204 443l-204 -443h-53l-247 522h68l207 -450l206 450h48z" />
    <glyph glyph-name="Wdieresis" unicode="&#x1e84;" horiz-adv-x="1231" 
d="M478 842h56v-67h-56v67zM697 842h55v-67h-55v67zM896 79l263 621h67l-301 -700h-57l-252 611l-253 -611h-57l-301 700h70l263 -621l253 621h52z" />
    <glyph glyph-name="wdieresis" unicode="&#x1e85;" horiz-adv-x="1025" 
d="M376 664h56v-67h-56v67zM595 664h55v-67h-55v67zM744 72l207 450h65l-247 -522h-52l-204 443l-204 -443h-53l-247 522h68l207 -450l206 450h48z" />
    <glyph glyph-name="uni1E9E" unicode="&#x1e9e;" horiz-adv-x="910" 
d="M473 404h245q130 0 130 -130v-144q0 -67 -32 -98.5t-98 -31.5h-365v51h346q47 0 66.5 19.5t19.5 66.5v131q0 46 -19.5 66t-66.5 20h-326v36l323 256h-439q-70 0 -98.5 -28.5t-28.5 -98.5v-519h-63v526q0 91 42 132.5t132 41.5h561v-34z" />
    <glyph glyph-name="Ygrave" unicode="&#x1ef2;" horiz-adv-x="826" 
d="M303 878l137 -121h-64l-152 121h79zM750 700h77l-383 -440v-260h-63v261l-382 439h80l336 -390z" />
    <glyph glyph-name="ygrave" unicode="&#x1ef3;" horiz-adv-x="728" 
d="M254 700l137 -121h-64l-152 121h79zM364 63l285 459h70l-344 -544q-53 -84 -100 -111q-48 -27 -146 -27h-75v52h86q68 0 106 20q36 19 73 80l12 19l-322 511h73z" />
    <glyph glyph-name="endash" unicode="&#x2013;" horiz-adv-x="760" 
d="M57 323v54h646v-54h-646z" />
    <glyph glyph-name="emdash" unicode="&#x2014;" horiz-adv-x="1028" 
d="M57 323v54h914v-54h-914z" />
    <glyph glyph-name="quoteleft" unicode="&#x2018;" horiz-adv-x="235" 
d="M125 700h41l-38 -160h31v-78h-83v40q0 30 9 56z" />
    <glyph glyph-name="quoteright" unicode="&#x2019;" horiz-adv-x="235" 
d="M110 462h-41l38 160h-31v78h83v-40q0 -30 -9 -56z" />
    <glyph glyph-name="quotesinglbase" unicode="&#x201a;" horiz-adv-x="235" 
d="M110 -160h-41l38 160h-31v78h83v-40q0 -31 -9 -56z" />
    <glyph glyph-name="quotedblleft" unicode="&#x201c;" horiz-adv-x="432" 
d="M125 700h41l-38 -160h31v-78h-83v40q0 30 9 56zM322 700h41l-38 -160h31v-78h-83v40q0 30 9 56z" />
    <glyph glyph-name="quotedblright" unicode="&#x201d;" horiz-adv-x="432" 
d="M110 462h-41l38 160h-31v78h83v-40q0 -30 -9 -56zM307 462h-41l38 160h-31v78h83v-40q0 -30 -9 -56z" />
    <glyph glyph-name="quotedblbase" unicode="&#x201e;" horiz-adv-x="432" 
d="M110 -160h-41l38 160h-31v78h83v-40q0 -31 -9 -56zM307 -160h-41l38 160h-31v78h83v-40q0 -31 -9 -56z" />
    <glyph glyph-name="dagger" unicode="&#x2020;" horiz-adv-x="488" 
d="M269 569h171v-44h-171v-239h-50v239h-171v44h171v131h50v-131z" />
    <glyph glyph-name="daggerdbl" unicode="&#x2021;" horiz-adv-x="488" 
d="M440 573v-44h-171v-162h171v-44h-171v-127h-50v127h-171v44h171v162h-171v44h171v127h50v-127h171z" />
    <glyph glyph-name="bullet" unicode="&#x2022;" horiz-adv-x="320" 
d="M196 266h-72q-48 0 -48 48v72q0 48 48 48h72q48 0 48 -48v-72q0 -48 -48 -48z" />
    <glyph glyph-name="perthousand" unicode="&#x2030;" horiz-adv-x="1404" 
d="M318 309h-166q-104 0 -104 104v103q0 54 25.5 79t78.5 25h166q53 0 78.5 -25t25.5 -79v-103q0 -104 -104 -104zM196 0h-62l642 620h62zM162 353h146q36 0 51.5 15.5t15.5 50.5v91q0 36 -15.5 51t-51.5 15h-146q-36 0 -51.5 -15t-15.5 -51v-91q0 -35 15.5 -50.5
t51.5 -15.5zM820 0h-166q-104 0 -104 104v103q0 54 25.5 79t78.5 25h166q53 0 78.5 -25t25.5 -79v-103q0 -104 -104 -104zM1252 0h-166q-104 0 -104 104v103q0 54 25.5 79t78.5 25h166q53 0 78.5 -25t25.5 -79v-103q0 -104 -104 -104zM664 44h146q36 0 51.5 15.5t15.5 50.5
v91q0 36 -15.5 51t-51.5 15h-146q-36 0 -51.5 -15t-15.5 -51v-91q0 -35 15.5 -50.5t51.5 -15.5zM1096 44h146q36 0 51.5 15.5t15.5 50.5v91q0 36 -15.5 51t-51.5 15h-146q-36 0 -51.5 -15t-15.5 -51v-91q0 -35 15.5 -50.5t51.5 -15.5z" />
    <glyph glyph-name="guilsinglleft" unicode="&#x2039;" horiz-adv-x="518" 
d="M58 370l402 207v-61l-341 -167l341 -165v-63l-402 207v42z" />
    <glyph glyph-name="guilsinglright" unicode="&#x203a;" horiz-adv-x="518" 
d="M58 514v63l402 -207v-42l-402 -207v61l341 167z" />
    <glyph glyph-name="fraction" unicode="&#x2044;" horiz-adv-x="213" 
d="M-181 0h-57l632 700h57z" />
    <glyph glyph-name="Euro" unicode="&#x20ac;" horiz-adv-x="892" 
d="M811 526v-64h-61v59q0 70 -28.5 98.5t-98.5 28.5h-315q-70 0 -98.5 -28.5t-28.5 -98.5v-74h416v-42h-416v-110h416v-42h-416v-74q0 -70 28.5 -98.5t98.5 -28.5h315q70 0 98.5 28.5t28.5 98.5v68h61v-73q0 -91 -42 -132.5t-132 -41.5h-344q-90 0 -132 41.5t-42 132.5v79
h-110v42h110v110h-110v42h110v79q0 91 42 132.5t132 41.5h344q90 0 132 -42t42 -132z" />
    <glyph glyph-name="trademark" unicode="&#x2122;" horiz-adv-x="668" 
d="M38 700h257v-36h-109v-197h-39v197h-109v36zM479 559l116 141h35v-233h-38v176l-103 -125h-21l-103 125v-176h-38v233h37z" />
    <glyph glyph-name="minus" unicode="&#x2212;" 
d="M77 323v54h710v-54h-710z" />
    <glyph glyph-name="approxequal" unicode="&#x2248;" 
d="M339 624l240 -183q20 -17 35 -22.5t41 -5.5h29q26 0 36 10.5t10 35.5v215h57v-217q0 -50 -20.5 -70.5t-70.5 -20.5h-47q-42 0 -63 9q-21 7 -61 41l-240 183q-20 17 -35 22.5t-41 5.5h-29q-26 0 -36 -10.5t-10 -35.5v-215h-57v217q0 50 20.5 70.5t70.5 20.5h47q41 0 64 -9
q21 -9 60 -41zM339 284l240 -183q20 -17 35 -22.5t41 -5.5h29q26 0 36 10.5t10 35.5v215h57v-217q0 -50 -20.5 -70.5t-70.5 -20.5h-47q-42 0 -63 9q-21 7 -61 41l-240 183q-20 17 -35 22.5t-41 5.5h-29q-26 0 -36 -10.5t-10 -35.5v-215h-57v217q0 50 20.5 70.5t70.5 20.5h47
q41 0 64 -9q21 -9 60 -41z" />
    <glyph glyph-name="notequal" unicode="&#x2260;" 
d="M787 498v-53h-275l-104 -190h379v-53h-408l-80 -146h-56l80 146h-246v53h275l104 190h-379v53h408l80 146h56l-80 -146h246z" />
    <glyph glyph-name="lessequal" unicode="&#x2264;" 
d="M77 468l710 196v-57l-636 -164l636 -165v-56l-710 196v50zM787 36h-710v50h710v-50z" />
    <glyph glyph-name="greaterequal" unicode="&#x2265;" 
d="M77 607v57l710 -196v-50l-710 -196v56l636 165zM787 36h-710v50h710v-50z" />
    <glyph glyph-name="fi" unicode="&#xfb01;" horiz-adv-x="800" 
d="M176 461v109q0 67 32 98.5t98 31.5h254v-51h-237q-47 0 -66.5 -19.5t-19.5 -66.5v-102h323v-51h-323v-410h-61v410h-157v51h157zM659 630v70h62v-70h-62zM721 0h-62v522h62v-522z" />
    <glyph glyph-name="fl" unicode="&#xfb02;" horiz-adv-x="800" 
d="M176 461v109q0 67 32 98.5t98 31.5h254v-51h-237q-47 0 -66.5 -19.5t-19.5 -66.5v-102h323v-51h-323v-410h-61v410h-157v51h157zM659 0v700h62v-700h-62z" />
    <glyph glyph-name="null" horiz-adv-x="0" 
 />
    <glyph glyph-name="A.ss01" horiz-adv-x="896" 
d="M241 700h414q90 0 132 -41.5t42 -132.5v-526h-63v267h-636v-267h-63v526q0 91 42 132.5t132 41.5zM130 519v-198h636v198q0 69 -28.5 98t-98.5 29h-382q-70 0 -98.5 -29t-28.5 -98z" />
    <glyph glyph-name="Aacute.ss01" horiz-adv-x="896" 
d="M562 878h79l-152 -121h-64zM241 700h414q90 0 132 -41.5t42 -132.5v-526h-63v267h-636v-267h-63v526q0 91 42 132.5t132 41.5zM130 519v-198h636v198q0 69 -28.5 98t-98.5 29h-382q-70 0 -98.5 -29t-28.5 -98z" />
    <glyph glyph-name="Abreve.ss01" horiz-adv-x="896" 
d="M566 757h-229q-71 0 -71 71v50h51v-45q0 -35 35 -35h200q35 0 35 35v45h51v-50q0 -71 -72 -71zM241 700h414q90 0 132 -41.5t42 -132.5v-526h-63v267h-636v-267h-63v526q0 91 42 132.5t132 41.5zM130 519v-198h636v198q0 69 -28.5 98t-98.5 29h-382q-70 0 -98.5 -29
t-28.5 -98z" />
    <glyph glyph-name="Acircumflex.ss01" horiz-adv-x="896" 
d="M573 757l-121 87l-121 -87h-58l144 121h70l144 -121h-58zM241 700h414q90 0 132 -41.5t42 -132.5v-526h-63v267h-636v-267h-63v526q0 91 42 132.5t132 41.5zM130 519v-198h636v198q0 69 -28.5 98t-98.5 29h-382q-70 0 -98.5 -29t-28.5 -98z" />
    <glyph glyph-name="Adieresis.ss01" horiz-adv-x="896" 
d="M315 842h56v-67h-56v67zM534 842h55v-67h-55v67zM241 700h414q90 0 132 -41.5t42 -132.5v-526h-63v267h-636v-267h-63v526q0 91 42 132.5t132 41.5zM130 519v-198h636v198q0 69 -28.5 98t-98.5 29h-382q-70 0 -98.5 -29t-28.5 -98z" />
    <glyph glyph-name="Agrave.ss01" horiz-adv-x="896" 
d="M342 878l137 -121h-64l-152 121h79zM241 700h414q90 0 132 -41.5t42 -132.5v-526h-63v267h-636v-267h-63v526q0 91 42 132.5t132 41.5zM130 519v-198h636v198q0 69 -28.5 98t-98.5 29h-382q-70 0 -98.5 -29t-28.5 -98z" />
    <glyph glyph-name="Amacron.ss01" horiz-adv-x="896" 
d="M252 841h400v-43h-400v43zM241 700h414q90 0 132 -41.5t42 -132.5v-526h-63v267h-636v-267h-63v526q0 91 42 132.5t132 41.5zM130 519v-198h636v198q0 69 -28.5 98t-98.5 29h-382q-70 0 -98.5 -29t-28.5 -98z" />
    <glyph glyph-name="Aogonek.ss01" horiz-adv-x="896" 
d="M759 -117h119v-43h-131q-41 0 -59 18t-18 59v16q0 33 8 46.5t40 28.5l48 21v238h-636v-267h-63v526q0 91 42 132.5t132 41.5h414q90 0 132 -41.5t42 -132.5v-526h-41l-40 -17q-19 -9 -24 -17t-5 -26v-17q0 -23 8.5 -31.5t31.5 -8.5zM130 519v-198h636v198q0 69 -28.5 98
t-98.5 29h-382q-70 0 -98.5 -29t-28.5 -98z" />
    <glyph glyph-name="Aring.ss01" horiz-adv-x="896" 
d="M551 747h-199q-53 0 -53 53v25q0 53 53 53h199q53 0 53 -53v-25q0 -53 -53 -53zM339 821v-17q0 -13 4.5 -17.5t16.5 -4.5h183q12 0 16.5 4.5t4.5 17.5v17q0 13 -4.5 18t-16.5 5h-183q-12 0 -16.5 -5t-4.5 -18zM241 700h414q90 0 132 -41.5t42 -132.5v-526h-63v267h-636
v-267h-63v526q0 91 42 132.5t132 41.5zM130 519v-198h636v198q0 69 -28.5 98t-98.5 29h-382q-70 0 -98.5 -29t-28.5 -98z" />
    <glyph glyph-name="Aringacute.ss01" horiz-adv-x="896" 
d="M601 700h54q90 0 132 -41.5t42 -132.5v-526h-63v267h-636v-267h-63v526q0 91 42 132.5t132 41.5h61q-3 9 -3 22v25q0 53 53 53h89l78 78h76l-90 -78h46q53 0 53 -53v-25q0 -13 -3 -22zM339 743v-17q0 -13 4.5 -17.5t16.5 -4.5h183q12 0 16.5 4.5t4.5 17.5v17
q0 13 -4.5 18t-16.5 5h-183q-12 0 -16.5 -5t-4.5 -18zM130 519v-198h636v198q0 69 -28.5 98t-98.5 29h-382q-70 0 -98.5 -29t-28.5 -98z" />
    <glyph glyph-name="Atilde.ss01" horiz-adv-x="896" 
d="M318 821v-64h-46v70q0 51 51 51h58q23 0 35 -4.5t30 -19.5l53 -47q14 -13 34 -13h34q11 0 15.5 4.5t4.5 15.5v64h46v-70q0 -51 -51 -51h-58q-23 0 -35 4.5t-30 19.5l-53 47q-14 13 -34 13h-34q-11 0 -15.5 -4.5t-4.5 -15.5zM241 700h414q90 0 132 -41.5t42 -132.5v-526
h-63v267h-636v-267h-63v526q0 91 42 132.5t132 41.5zM130 519v-198h636v198q0 69 -28.5 98t-98.5 29h-382q-70 0 -98.5 -29t-28.5 -98z" />
    <glyph glyph-name="I.ss01" horiz-adv-x="647" 
d="M609 700v-49h-254v-602h254v-49h-571v49h254v602h-254v49h571z" />
    <glyph glyph-name="Iacute.ss01" horiz-adv-x="647" 
d="M434 878h79l-152 -121h-64zM609 700v-49h-254v-602h254v-49h-571v49h254v602h-254v49h571z" />
    <glyph glyph-name="Icircumflex.ss01" horiz-adv-x="647" 
d="M445 757l-121 87l-121 -87h-58l144 121h70l144 -121h-58zM609 700v-49h-254v-602h254v-49h-571v49h254v602h-254v49h571z" />
    <glyph glyph-name="Idieresis.ss01" horiz-adv-x="647" 
d="M187 842h56v-67h-56v67zM406 842h55v-67h-55v67zM609 700v-49h-254v-602h254v-49h-571v49h254v602h-254v49h571z" />
    <glyph glyph-name="Idotaccent.ss01" horiz-adv-x="647" 
d="M293 842h62v-67h-62v67zM609 700v-49h-254v-602h254v-49h-571v49h254v602h-254v49h571z" />
    <glyph glyph-name="Igrave.ss01" horiz-adv-x="647" 
d="M214 878l137 -121h-64l-152 121h79zM609 700v-49h-254v-602h254v-49h-571v49h254v602h-254v49h571z" />
    <glyph glyph-name="Imacron.ss01" horiz-adv-x="647" 
d="M124 841h400v-43h-400v43zM609 700v-49h-254v-602h254v-49h-571v49h254v602h-254v49h571z" />
    <glyph glyph-name="Iogonek.ss01" horiz-adv-x="647" 
d="M609 700v-49h-254v-602h254v-49h-90l-40 -17q-19 -9 -24 -17t-5 -26v-17q0 -23 9 -31.5t31 -8.5h119v-43h-131q-40 0 -58.5 18t-18.5 59v16q0 28 6 41.5t27 25.5h-396v49h254v602h-254v49h571z" />
    <glyph glyph-name="Itilde.ss01" horiz-adv-x="647" 
d="M190 821v-64h-46v70q0 51 51 51h58q23 0 35 -4.5t30 -19.5l53 -47q14 -13 34 -13h34q11 0 15.5 4.5t4.5 15.5v64h46v-70q0 -51 -51 -51h-58q-23 0 -35 4.5t-30 19.5l-53 47q-14 13 -34 13h-34q-11 0 -15.5 -4.5t-4.5 -15.5zM609 700v-49h-254v-602h254v-49h-571v49h254
v602h-254v49h571z" />
    <glyph glyph-name="R.ss01" horiz-adv-x="874" 
d="M807 570v-136q0 -92 -65 -118q65 -26 65 -118v-198h-63v204q0 47 -19.5 67t-67.5 20h-518v-291h-63v700h601q66 0 98 -31.5t32 -98.5zM744 428v134q0 47 -19.5 67t-67.5 20h-518v-308h518q48 0 67.5 20t19.5 67z" />
    <glyph glyph-name="Racute.ss01" horiz-adv-x="874" 
d="M547 878h79l-152 -121h-64zM807 570v-136q0 -92 -65 -118q65 -26 65 -118v-198h-63v204q0 47 -19.5 67t-67.5 20h-518v-291h-63v700h601q66 0 98 -31.5t32 -98.5zM744 428v134q0 47 -19.5 67t-67.5 20h-518v-308h518q48 0 67.5 20t19.5 67z" />
    <glyph glyph-name="Rcaron.ss01" horiz-adv-x="874" 
d="M534 844l-22 -39h-12l-138 24l85 49zM355 825l1 5l6 -1zM807 570v-136q0 -92 -65 -118q65 -26 65 -118v-198h-63v204q0 47 -19.5 67t-67.5 20h-518v-291h-63v700h601q66 0 98 -31.5t32 -98.5zM744 428v134q0 47 -19.5 67t-67.5 20h-518v-308h518q48 0 67.5 20t19.5 67z
" />
    <glyph glyph-name="Rcommaaccent.ss01" horiz-adv-x="874" 
d="M807 570v-136q0 -92 -65 -118q65 -26 65 -118v-198h-63v204q0 47 -19.5 67t-67.5 20h-518v-291h-63v700h601q66 0 98 -31.5t32 -98.5zM744 428v134q0 47 -19.5 67t-67.5 20h-518v-308h518q48 0 67.5 20t19.5 67zM430 -96h-31v66h77v-35q0 -26 -13 -48l-30 -56h-37z" />
    <glyph glyph-name="i.loclTRK" horiz-adv-x="221" 
d="M142 597h-62v67h62v-67zM142 0h-62v522h62v-522z" />
    <glyph glyph-name="uni0410.ss01" horiz-adv-x="904" 
d="M241 700h423q90 0 132 -41.5t42 -132.5v-526h-63v267h-645v-267h-63v526q0 91 42 132.5t132 41.5zM130 519v-198h645v198q0 69 -29 98t-98 29h-391q-70 0 -98.5 -29t-28.5 -98z" />
    <glyph glyph-name="uni042F.ss01" horiz-adv-x="874" 
d="M197 700h601v-700h-63v291h-518q-48 0 -67.5 -20t-19.5 -67v-204h-63v198q0 92 65 118q-65 26 -65 118v136q0 67 32 98.5t98 31.5zM130 562v-134q0 -47 19.5 -67t67.5 -20h518v308h-518q-48 0 -67.5 -20t-19.5 -67z" />
    <glyph glyph-name="uni044F.ss01" horiz-adv-x="760" 
d="M154 522h530v-522h-61v214h-442q-35 0 -49.5 -14.5t-14.5 -49.5v-150h-60v151q0 69 48 87q-48 20 -48 89v98q0 50 23.5 73.5t73.5 23.5zM118 410v-85q0 -35 15 -49.5t50 -14.5h440v213h-440q-35 0 -50 -14.5t-15 -49.5z" />
    <glyph glyph-name="zero.tf" 
d="M609 0h-354q-90 0 -132 41.5t-42 132.5v352q0 90 42 132t132 42h354q90 0 132 -42t42 -132v-352q0 -91 -42 -132.5t-132 -41.5zM270 54h324q70 0 98.5 28.5t28.5 98.5v338q0 70 -28.5 98.5t-98.5 28.5h-324q-70 0 -98.5 -28.5t-28.5 -98.5v-338q0 -70 28.5 -98.5
t98.5 -28.5z" />
    <glyph glyph-name="one.tf" 
d="M492 700v-648h315v-52h-750v52h373v592l-343 -27v53l377 30h28z" />
    <glyph glyph-name="two.tf" 
d="M773 53v-53h-692v198q0 65 30.5 96.5t99.5 40.5l424 55q47 7 66.5 27.5t19.5 66.5v78q0 47 -19.5 66.5t-66.5 19.5h-393q-47 0 -66.5 -19.5t-19.5 -66.5v-45h-61v53q0 67 32 98.5t98 31.5h428q66 0 98 -31.5t32 -98.5v-95q0 -65 -30.5 -96.5t-99.5 -40.5l-424 -55
q-48 -8 -67 -28.5t-19 -65.5v-136h630z" />
    <glyph glyph-name="three.tf" 
d="M714 370q71 -23 71 -120v-120q0 -67 -32 -98.5t-98 -31.5h-446q-66 0 -98 31.5t-32 98.5v78h61v-70q0 -47 19.5 -66.5t66.5 -19.5h411q47 0 66.5 19.5t19.5 66.5v119q0 47 -19.5 66.5t-66.5 19.5h-297v50h287q47 0 66.5 19.5t19.5 66.5v83q0 47 -19.5 66.5t-66.5 19.5
h-391q-47 0 -66.5 -19.5t-19.5 -66.5v-62h-61v70q0 67 32 98.5t98 31.5h426q66 0 98 -31.5t32 -98.5v-83q0 -90 -61 -117z" />
    <glyph glyph-name="four.tf" 
d="M631 239h196v-51h-196v-188h-61v188h-533v43l524 469h70v-461zM570 644l-453 -405h453v405z" />
    <glyph glyph-name="five.tf" 
d="M653 0h-568v53h550q47 0 66.5 19.5t19.5 66.5v132q0 47 -19.5 66.5t-66.5 19.5h-550v343h668v-53h-606v-237h506q66 0 98 -31.5t32 -98.5v-150q0 -67 -32 -98.5t-98 -31.5z" />
    <glyph glyph-name="six.tf" 
d="M243 413h410q66 0 98 -31.5t32 -98.5v-153q0 -67 -32 -98.5t-98 -31.5h-442q-66 0 -98 31.5t-32 98.5v396q0 91 42 132.5t132 41.5h498v-53h-483q-70 0 -98.5 -29t-28.5 -98v-142q32 35 100 35zM721 138v137q0 47 -19.5 66.5t-66.5 19.5h-406q-47 0 -66.5 -19.5
t-19.5 -66.5v-137q0 -47 19.5 -66.5t66.5 -19.5h406q47 0 66.5 19.5t19.5 66.5z" />
    <glyph glyph-name="seven.tf" 
d="M57 646v54h750v-46l-315 -285q-50 -43 -63 -84q-15 -41 -15 -117v-168h-63v173q0 79 18 129q18 49 70 94l278 250h-660z" />
    <glyph glyph-name="eight.tf" 
d="M714 370q71 -23 71 -120v-120q0 -67 -32 -98.5t-98 -31.5h-446q-66 0 -98 31.5t-32 98.5v120q0 97 71 120q-61 27 -61 117v83q0 67 32 98.5t98 31.5h426q66 0 98 -31.5t32 -98.5v-83q0 -90 -61 -117zM151 563v-84q0 -47 19.5 -66.5t66.5 -19.5h390q47 0 66.5 19.5
t19.5 66.5v84q0 47 -19.5 66.5t-66.5 19.5h-390q-47 0 -66.5 -19.5t-19.5 -66.5zM723 137v121q0 47 -19.5 66.5t-66.5 19.5h-410q-47 0 -66.5 -19.5t-19.5 -66.5v-121q0 -47 19.5 -66.5t66.5 -19.5h410q47 0 66.5 19.5t19.5 66.5z" />
    <glyph glyph-name="nine.tf" 
d="M211 700h442q66 0 98 -31.5t32 -98.5v-396q0 -91 -42 -132.5t-132 -41.5h-498v53h483q70 0 98.5 29t28.5 98v134q-32 -35 -100 -35h-410q-66 0 -98 31.5t-32 98.5v161q0 67 32 98.5t98 31.5zM229 331h406q47 0 66.5 19.5t19.5 66.5v145q0 47 -19.5 66.5t-66.5 19.5h-406
q-47 0 -66.5 -19.5t-19.5 -66.5v-145q0 -47 19.5 -66.5t66.5 -19.5z" />
    <glyph glyph-name="zero.subs" horiz-adv-x="556" 
d="M386 -100h-215q-56 0 -82 26t-26 82v204q0 56 26 82t82 26h215q56 0 82 -26t26 -82v-204q0 -56 -26 -82t-82 -26zM187 -52h183q37 0 52 15.5t15 52.5v189q0 36 -15 51.5t-52 15.5h-183q-37 0 -52.5 -15.5t-15.5 -51.5v-189q0 -37 15.5 -52.5t52.5 -15.5z" />
    <glyph glyph-name="one.subs" horiz-adv-x="521" 
d="M302 320v-373h175v-47h-433v47h202v322l-184 -15v48l214 18h26z" />
    <glyph glyph-name="two.subs" horiz-adv-x="556" 
d="M488 -53v-47h-425v123q0 41 19.5 61t62.5 25l246 30q27 4 37 14.5t10 34.5v42q0 25 -11 35.5t-36 10.5h-219q-25 0 -35.5 -10.5t-10.5 -35.5v-25h-55v33q0 82 82 82h259q42 0 62 -19.5t20 -62.5v-56q0 -41 -19.5 -61t-62.5 -25l-247 -30q-26 -4 -36 -14.5t-10 -34.5v-70
h369z" />
    <glyph glyph-name="three.subs" horiz-adv-x="556" 
d="M452 121q43 -15 43 -74v-65q0 -82 -82 -82h-270q-42 0 -62 19.5t-20 62.5v49h55v-40q0 -25 10 -35t36 -10h231q25 0 35 10t10 35v62q0 26 -10 36t-35 10h-173v41h167q25 0 35 10.5t10 36.5v42q0 25 -10 35t-35 10h-219q-26 0 -36 -10t-10 -35v-35h-55v44q0 43 20 62.5
t62 19.5h258q82 0 82 -82v-45q0 -57 -37 -72z" />
    <glyph glyph-name="four.subs" horiz-adv-x="575" 
d="M414 50h117v-44h-117v-106h-55v106h-315v37l308 277h62v-270zM359 270l-244 -220h244v220z" />
    <glyph glyph-name="five.subs" horiz-adv-x="538" 
d="M393 -100h-329v47h309q25 0 35.5 10.5t10.5 35.5v66q0 26 -10.5 36.5t-35.5 10.5h-309v214h393v-47h-336v-123h272q42 0 62 -19.5t20 -62.5v-86q0 -43 -20 -62.5t-62 -19.5z" />
    <glyph glyph-name="six.subs" horiz-adv-x="556" 
d="M179 151h233q82 0 82 -81v-88q0 -43 -20 -62.5t-62 -19.5h-267q-42 0 -62 19.5t-20 62.5v230q0 56 26 82t82 26h305v-47h-289q-37 0 -52.5 -15.5t-15.5 -52.5v-74q17 20 60 20zM438 -9v72q0 25 -11 35.5t-36 10.5h-226q-25 0 -35.5 -10.5t-10.5 -35.5v-72
q0 -25 10.5 -35.5t35.5 -10.5h226q25 0 36 10.5t11 35.5z" />
    <glyph glyph-name="seven.subs" horiz-adv-x="533" 
d="M44 320h445v-42h-1l-182 -170q-24 -23 -32.5 -46t-8.5 -63v-99h-58v101q0 50 10.5 78.5t40.5 55.5l148 136h-362v49z" />
    <glyph glyph-name="eight.subs" horiz-adv-x="557" 
d="M452 121q43 -15 43 -74v-65q0 -43 -20 -62.5t-62 -19.5h-269q-43 0 -63 19.5t-20 62.5v65q0 59 43 74q-37 15 -37 72v45q0 43 20 62.5t63 19.5h257q42 0 62 -19.5t20 -62.5v-45q0 -57 -37 -72zM124 230v-45q0 -25 10.5 -35t35.5 -10h217q25 0 35 10t10 35v45
q0 25 -10 35.5t-35 10.5h-217q-25 0 -35.5 -10.5t-10.5 -35.5zM438 -10v64q0 25 -10 35.5t-35 10.5h-229q-25 0 -35.5 -10.5t-10.5 -35.5v-64q0 -25 10.5 -35.5t35.5 -10.5h229q25 0 35 10.5t10 35.5z" />
    <glyph glyph-name="nine.subs" horiz-adv-x="556" 
d="M145 320h267q42 0 62 -19.5t20 -62.5v-230q0 -56 -26 -82t-82 -26h-305v47h289q37 0 52.5 15t15.5 52v73q-18 -22 -61 -22h-232q-82 0 -82 81v92q0 43 20 62.5t62 19.5zM165 108h226q26 0 36.5 10t10.5 36v74q0 25 -10.5 35.5t-36.5 10.5h-226q-25 0 -35.5 -10t-10.5 -36
v-74q0 -26 10 -36t36 -10z" />
    <glyph glyph-name="zero.dnom" horiz-adv-x="556" 
d="M386 0h-215q-56 0 -82 26t-26 82v204q0 56 26 82t82 26h215q56 0 82 -26t26 -82v-204q0 -56 -26 -82t-82 -26zM187 48h183q37 0 52 15.5t15 52.5v189q0 36 -15 51.5t-52 15.5h-183q-37 0 -52.5 -15.5t-15.5 -51.5v-189q0 -37 15.5 -52.5t52.5 -15.5z" />
    <glyph glyph-name="one.dnom" horiz-adv-x="521" 
d="M302 420v-373h175v-47h-433v47h202v322l-184 -15v48l214 18h26z" />
    <glyph glyph-name="two.dnom" horiz-adv-x="556" 
d="M488 48v-48h-425v123q0 41 19.5 61t62.5 25l246 30q27 4 37 14.5t10 34.5v42q0 25 -11 35.5t-36 10.5h-219q-25 0 -35.5 -10.5t-10.5 -35.5v-25h-55v33q0 82 82 82h259q42 0 62 -19.5t20 -62.5v-56q0 -41 -19.5 -61t-62.5 -25l-247 -30q-26 -4 -36 -14.5t-10 -34.5v-69
h369z" />
    <glyph glyph-name="three.dnom" horiz-adv-x="556" 
d="M452 221q43 -15 43 -74v-65q0 -82 -82 -82h-270q-42 0 -62 19.5t-20 62.5v49h55v-40q0 -25 10 -35t36 -10h231q25 0 35 10t10 35v62q0 26 -10 36t-35 10h-173v41h167q25 0 35 10.5t10 36.5v42q0 25 -10 35t-35 10h-219q-26 0 -36 -10t-10 -35v-35h-55v44q0 43 20 62.5
t62 19.5h258q82 0 82 -82v-45q0 -57 -37 -72z" />
    <glyph glyph-name="four.dnom" horiz-adv-x="575" 
d="M414 150h117v-44h-117v-106h-55v106h-315v37l308 277h62v-270zM359 370l-244 -220h244v220z" />
    <glyph glyph-name="five.dnom" horiz-adv-x="538" 
d="M393 0h-329v48h309q26 0 36 10t10 35v66q0 26 -10.5 36.5t-35.5 10.5h-309v214h393v-47h-336v-123h272q42 0 62 -19.5t20 -62.5v-86q0 -43 -20 -62.5t-62 -19.5z" />
    <glyph glyph-name="six.dnom" horiz-adv-x="556" 
d="M179 251h233q82 0 82 -81v-88q0 -43 -20 -62.5t-62 -19.5h-267q-42 0 -62 19.5t-20 62.5v230q0 56 26 82t82 26h305v-47h-289q-37 0 -52.5 -15.5t-15.5 -52.5v-74q17 20 60 20zM438 92v71q0 25 -11 35.5t-36 10.5h-226q-25 0 -35.5 -10.5t-10.5 -35.5v-71q0 -26 10.5 -36
t35.5 -10h226q26 0 36.5 10.5t10.5 35.5z" />
    <glyph glyph-name="seven.dnom" horiz-adv-x="533" 
d="M44 420h445v-42h-1l-182 -170q-24 -23 -32.5 -46t-8.5 -63v-99h-58v101q0 50 10.5 78.5t40.5 55.5l148 136h-362v49z" />
    <glyph glyph-name="eight.dnom" horiz-adv-x="557" 
d="M452 221q43 -15 43 -74v-65q0 -43 -20 -62.5t-62 -19.5h-269q-43 0 -63 19.5t-20 62.5v65q0 59 43 74q-37 15 -37 72v45q0 43 20 62.5t63 19.5h257q42 0 62 -19.5t20 -62.5v-45q0 -57 -37 -72zM124 330v-45q0 -25 10.5 -35t35.5 -10h217q25 0 35 10t10 35v45
q0 25 -10 35.5t-35 10.5h-217q-25 0 -35.5 -10.5t-10.5 -35.5zM438 91v63q0 25 -10 35.5t-35 10.5h-229q-25 0 -35.5 -10.5t-10.5 -35.5v-63q0 -25 10 -35.5t36 -10.5h229q25 0 35 10t10 36z" />
    <glyph glyph-name="nine.dnom" horiz-adv-x="556" 
d="M145 420h267q42 0 62 -19.5t20 -62.5v-230q0 -56 -26 -82t-82 -26h-305v47h289q37 0 52.5 15.5t15.5 51.5v73q-18 -22 -61 -22h-232q-82 0 -82 81v92q0 43 20 62.5t62 19.5zM165 208h226q26 0 36.5 10t10.5 36v74q0 25 -10.5 35.5t-36.5 10.5h-226q-25 0 -35.5 -10
t-10.5 -36v-74q0 -26 10 -36t36 -10z" />
    <glyph glyph-name="zero.numr" horiz-adv-x="556" 
d="M386 280h-215q-56 0 -82 26t-26 82v204q0 56 26 82t82 26h215q56 0 82 -26t26 -82v-204q0 -56 -26 -82t-82 -26zM187 328h183q37 0 52 15.5t15 52.5v189q0 36 -15 51.5t-52 15.5h-183q-37 0 -52.5 -15.5t-15.5 -51.5v-189q0 -37 15.5 -52.5t52.5 -15.5z" />
    <glyph glyph-name="one.numr" horiz-adv-x="521" 
d="M302 700v-373h175v-47h-433v47h202v322l-184 -15v48l214 18h26z" />
    <glyph glyph-name="two.numr" horiz-adv-x="556" 
d="M488 328v-48h-425v123q0 41 19.5 61t62.5 25l246 30q27 4 37 14.5t10 34.5v42q0 25 -11 35.5t-36 10.5h-219q-25 0 -35.5 -10.5t-10.5 -35.5v-25h-55v33q0 82 82 82h259q42 0 62 -19.5t20 -62.5v-56q0 -41 -19.5 -61t-62.5 -25l-247 -30q-26 -4 -36 -14.5t-10 -34.5v-69
h369z" />
    <glyph glyph-name="three.numr" horiz-adv-x="556" 
d="M452 501q43 -15 43 -74v-65q0 -82 -82 -82h-270q-42 0 -62 19.5t-20 62.5v49h55v-40q0 -25 10 -35t36 -10h231q25 0 35 10t10 35v62q0 26 -10 36t-35 10h-173v41h167q25 0 35 10.5t10 36.5v42q0 25 -10 35t-35 10h-219q-26 0 -36 -10t-10 -35v-35h-55v44q0 43 20 62.5
t62 19.5h258q82 0 82 -82v-45q0 -57 -37 -72z" />
    <glyph glyph-name="four.numr" horiz-adv-x="575" 
d="M414 430h117v-44h-117v-106h-55v106h-315v37l308 277h62v-270zM359 650l-244 -220h244v220z" />
    <glyph glyph-name="five.numr" horiz-adv-x="538" 
d="M393 280h-329v48h309q26 0 36 10t10 35v66q0 26 -10.5 36.5t-35.5 10.5h-309v214h393v-47h-336v-123h272q42 0 62 -19.5t20 -62.5v-86q0 -43 -20 -62.5t-62 -19.5z" />
    <glyph glyph-name="six.numr" horiz-adv-x="556" 
d="M179 531h233q82 0 82 -81v-88q0 -43 -20 -62.5t-62 -19.5h-267q-42 0 -62 19.5t-20 62.5v230q0 56 26 82t82 26h305v-47h-289q-37 0 -52.5 -15.5t-15.5 -52.5v-74q17 20 60 20zM438 372v71q0 25 -11 35.5t-36 10.5h-226q-25 0 -35.5 -10.5t-10.5 -35.5v-71
q0 -26 10.5 -36t35.5 -10h226q26 0 36.5 10.5t10.5 35.5z" />
    <glyph glyph-name="seven.numr" horiz-adv-x="533" 
d="M44 700h445v-42h-1l-182 -170q-24 -23 -32.5 -46t-8.5 -63v-99h-58v101q0 50 10.5 78.5t40.5 55.5l148 136h-362v49z" />
    <glyph glyph-name="eight.numr" horiz-adv-x="557" 
d="M452 501q43 -15 43 -74v-65q0 -43 -20 -62.5t-62 -19.5h-269q-43 0 -63 19.5t-20 62.5v65q0 59 43 74q-37 15 -37 72v45q0 43 20 62.5t63 19.5h257q42 0 62 -19.5t20 -62.5v-45q0 -57 -37 -72zM124 610v-45q0 -25 10.5 -35t35.5 -10h217q25 0 35 10t10 35v45
q0 25 -10 35.5t-35 10.5h-217q-25 0 -35.5 -10.5t-10.5 -35.5zM438 371v63q0 25 -10 35.5t-35 10.5h-229q-25 0 -35.5 -10.5t-10.5 -35.5v-63q0 -25 10 -35.5t36 -10.5h229q25 0 35 10t10 36z" />
    <glyph glyph-name="nine.numr" horiz-adv-x="556" 
d="M145 700h267q42 0 62 -19.5t20 -62.5v-230q0 -56 -26 -82t-82 -26h-305v47h289q37 0 52.5 15.5t15.5 51.5v73q-18 -22 -61 -22h-232q-82 0 -82 81v92q0 43 20 62.5t62 19.5zM165 488h226q26 0 36.5 10t10.5 36v74q0 25 -10.5 35.5t-36.5 10.5h-226q-25 0 -35.5 -10
t-10.5 -36v-74q0 -26 10 -36t36 -10z" />
    <glyph glyph-name="zero.sups" horiz-adv-x="556" 
d="M386 380h-215q-56 0 -82 26t-26 82v204q0 56 26 82t82 26h215q56 0 82 -26t26 -82v-204q0 -56 -26 -82t-82 -26zM187 428h183q37 0 52 15.5t15 52.5v189q0 36 -15 51.5t-52 15.5h-183q-37 0 -52.5 -15.5t-15.5 -51.5v-189q0 -37 15.5 -52.5t52.5 -15.5z" />
    <glyph glyph-name="one.sups" horiz-adv-x="521" 
d="M302 800v-373h175v-47h-433v47h202v322l-184 -15v48l214 18h26z" />
    <glyph glyph-name="two.sups" horiz-adv-x="556" 
d="M488 428v-48h-425v123q0 41 19.5 61t62.5 25l246 30q27 4 37 14.5t10 34.5v42q0 25 -11 35.5t-36 10.5h-219q-25 0 -35.5 -10.5t-10.5 -35.5v-25h-55v33q0 82 82 82h259q42 0 62 -19.5t20 -62.5v-56q0 -41 -19.5 -61t-62.5 -25l-247 -30q-26 -4 -36 -14.5t-10 -34.5v-69
h369z" />
    <glyph glyph-name="three.sups" horiz-adv-x="556" 
d="M452 601q43 -15 43 -74v-65q0 -82 -82 -82h-270q-42 0 -62 19.5t-20 62.5v49h55v-40q0 -25 10 -35t36 -10h231q25 0 35 10t10 35v62q0 26 -10 36t-35 10h-173v41h167q25 0 35 10.5t10 36.5v42q0 25 -10 35t-35 10h-219q-26 0 -36 -10t-10 -35v-35h-55v44q0 43 20 62.5
t62 19.5h258q82 0 82 -82v-45q0 -57 -37 -72z" />
    <glyph glyph-name="four.sups" horiz-adv-x="575" 
d="M414 530h117v-44h-117v-106h-55v106h-315v37l308 277h62v-270zM359 750l-244 -220h244v220z" />
    <glyph glyph-name="five.sups" horiz-adv-x="538" 
d="M393 380h-329v48h309q26 0 36 10t10 35v66q0 26 -10.5 36.5t-35.5 10.5h-309v214h393v-47h-336v-123h272q42 0 62 -19.5t20 -62.5v-86q0 -43 -20 -62.5t-62 -19.5z" />
    <glyph glyph-name="six.sups" horiz-adv-x="556" 
d="M179 631h233q82 0 82 -81v-88q0 -43 -20 -62.5t-62 -19.5h-267q-42 0 -62 19.5t-20 62.5v230q0 56 26 82t82 26h305v-47h-289q-37 0 -52.5 -15.5t-15.5 -52.5v-74q17 20 60 20zM438 472v71q0 25 -11 35.5t-36 10.5h-226q-25 0 -35.5 -10.5t-10.5 -35.5v-71
q0 -26 10.5 -36t35.5 -10h226q26 0 36.5 10.5t10.5 35.5z" />
    <glyph glyph-name="seven.sups" horiz-adv-x="533" 
d="M44 800h445v-42h-1l-182 -170q-24 -23 -32.5 -46t-8.5 -63v-99h-58v101q0 50 10.5 78.5t40.5 55.5l148 136h-362v49z" />
    <glyph glyph-name="eight.sups" horiz-adv-x="557" 
d="M452 601q43 -15 43 -74v-65q0 -43 -20 -62.5t-62 -19.5h-269q-43 0 -63 19.5t-20 62.5v65q0 59 43 74q-37 15 -37 72v45q0 43 20 62.5t63 19.5h257q42 0 62 -19.5t20 -62.5v-45q0 -57 -37 -72zM124 710v-45q0 -25 10.5 -35t35.5 -10h217q25 0 35 10t10 35v45
q0 25 -10 35.5t-35 10.5h-217q-25 0 -35.5 -10.5t-10.5 -35.5zM438 471v63q0 25 -10 35.5t-35 10.5h-229q-25 0 -35.5 -10.5t-10.5 -35.5v-63q0 -25 10 -35.5t36 -10.5h229q25 0 35 10t10 36z" />
    <glyph glyph-name="nine.sups" horiz-adv-x="556" 
d="M145 800h267q42 0 62 -19.5t20 -62.5v-230q0 -56 -26 -82t-82 -26h-305v47h289q37 0 52.5 15.5t15.5 51.5v73q-18 -22 -61 -22h-232q-82 0 -82 81v92q0 43 20 62.5t62 19.5zM165 588h226q26 0 36.5 10t10.5 36v74q0 25 -10.5 35.5t-36.5 10.5h-226q-25 0 -35.5 -10
t-10.5 -36v-74q0 -26 10 -36t36 -10z" />
    <glyph glyph-name="numbersign.numr" horiz-adv-x="558" 
d="M507 584v-37h-104l-18 -113h97v-38h-103l-18 -116h-47l18 116h-137l-18 -116h-46l18 116h-99v38h105l18 113h-98v37h104l18 116h46l-18 -116h137l18 116h47l-18 -116h98zM201 434h137l18 113h-137z" />
    <glyph glyph-name="numbersign.tf" 
d="M803 497v-46h-171l-32 -202h163v-47h-170l-32 -202h-57l32 202h-254l-32 -202h-57l32 202h-164v47h171l32 202h-163v46h170l32 203h57l-32 -203h254l32 203h57l-32 -203h164zM289 249h254l32 202h-254z" />
    <glyph glyph-name="cent.numr" horiz-adv-x="556" 
d="M494 604v-33h-55v26q0 33 -12 45t-45 12h-206q-33 0 -45 -12t-12 -45v-144q0 -33 12 -45.5t45 -12.5h206q33 0 45 12.5t12 45.5v31h55v-38q0 -52 -22.5 -74.5t-73.5 -22.5h-98v-60h-41v60h-100q-51 0 -73.5 22.5t-22.5 74.5v158q0 52 22.5 74t73.5 22h100v60h41v-60h98
q51 0 73.5 -22t22.5 -74z" />
    <glyph glyph-name="dollar.numr" horiz-adv-x="557" 
d="M168 531l246 -20q45 -4 64 -22t19 -59v-68q0 -43 -20 -62.5t-62 -19.5h-116v-60h-41v60h-115q-43 0 -63 19.5t-20 62.5v36h56v-28q0 -26 10 -36t35 -10h233q26 0 36 10t10 36v50q0 24 -9.5 33.5t-36.5 11.5l-246 20q-44 4 -63 22.5t-19 59.5v51q0 43 20 62.5t63 19.5h109
v60h41v-60h107q42 0 62 -19.5t20 -62.5v-27h-55v19q0 26 -10.5 36.5t-35.5 10.5h-218q-25 0 -35.5 -10.5t-10.5 -36.5v-33q0 -24 10 -34t35 -12z" />
    <glyph glyph-name="Euro.numr" horiz-adv-x="574" 
d="M511 592v-42h-55v37q0 37 -15 52.5t-53 15.5h-178q-38 0 -53 -15.5t-15 -52.5v-37h232v-31h-232v-58h232v-30h-232v-38q0 -37 15 -52.5t53 -15.5h178q38 0 53 15.5t15 52.5v42h55v-47q0 -56 -26 -82t-82 -26h-209q-56 0 -82 26t-26 82v43h-63v30h63v58h-63v31h63v42
q0 56 26 82t82 26h209q56 0 82 -26t26 -82z" />
    <glyph glyph-name="florin.numr" horiz-adv-x="509" 
d="M459 652h-89q-36 0 -52 -15t-20 -52l-12 -111h161v-39h-165l-15 -143q-6 -57 -32.5 -82.5t-80.5 -25.5h-104v48h88q36 0 51.5 15t20.5 54l15 134h-163v39h167l13 118q6 57 32 82.5t80 25.5h105v-48z" />
    <glyph glyph-name="sterling.numr" horiz-adv-x="572" 
d="M510 592v-34h-56v29q0 37 -15 52.5t-52 15.5h-174q-36 0 -51 -15.5t-15 -52.5v-76h225v-36h-225v-148h262q25 0 35 10.5t10 35.5v42h56v-53q0 -43 -20 -62.5t-63 -19.5h-398v47h61v148h-67v36h67v81q0 56 26.5 82t82.5 26h202q56 0 82.5 -26t26.5 -82z" />
    <glyph glyph-name="yen.numr" horiz-adv-x="557" 
d="M450 700h69l-192 -238h174v-32h-195v-60h195v-32h-195v-58h-56v58h-194v32h194v60h-194v32h173l-191 238h70l171 -220z" />
    <glyph glyph-name="cent.tf" 
d="M783 546v-50h-61v44q0 62 -23 85t-85 23h-363q-62 0 -85 -23t-23 -85v-250q0 -62 23 -85t85 -23h363q62 0 85 23t23 85v54h61v-60q0 -83 -36 -118.5t-118 -35.5h-169v-100h-52v100h-173q-83 0 -118.5 35t-35.5 119v262q0 83 35.5 118.5t118.5 35.5h173v100h52v-100h169
q82 0 118 -35.5t36 -118.5z" />
    <glyph glyph-name="dollar.tf" 
d="M235 410l422 -35q69 -6 99.5 -35.5t30.5 -94.5v-115q0 -67 -32 -98.5t-98 -31.5h-199v-100h-52v100h-199q-66 0 -98 31.5t-32 98.5v59h61v-51q0 -47 19.5 -66.5t66.5 -19.5h415q47 0 66.5 19.5t19.5 66.5v97q0 45 -18.5 63t-67.5 23l-422 35q-69 6 -99.5 35.5t-30.5 94.5
v84q0 67 32 98.5t98 31.5h189v100h52v-100h185q66 0 98 -31.5t32 -98.5v-42h-61v34q0 47 -19.5 66.5t-66.5 19.5h-391q-47 0 -66.5 -19.5t-19.5 -66.5v-66q0 -45 19 -63.5t67 -22.5z" />
    <glyph glyph-name="Euro.tf" 
d="M783 526v-64h-61v59q0 70 -28.5 98.5t-98.5 28.5h-305q-70 0 -98.5 -28.5t-28.5 -98.5v-74h406v-42h-406v-110h406v-42h-406v-74q0 -70 28.5 -98.5t98.5 -28.5h305q70 0 98.5 28.5t28.5 98.5v68h61v-73q0 -91 -42 -132.5t-132 -41.5h-334q-90 0 -132 41.5t-42 132.5v79
h-92v42h92v110h-92v42h92v79q0 90 42 132t132 42h334q90 0 132 -42t42 -132z" />
    <glyph glyph-name="florin.tf" 
d="M787 646h-161q-69 0 -98 -27.5t-37 -99.5l-23 -205h299v-48h-304l-28 -252q-10 -93 -51.5 -133.5t-130.5 -40.5h-176v54h162q68 0 97 27.5t37 99.5l27 245h-303v48h308l24 212q10 93 51.5 133.5t130.5 40.5h176v-54z" />
    <glyph glyph-name="sterling.tf" 
d="M783 526v-53h-61v48q0 70 -28.5 98.5t-98.5 28.5h-296q-69 0 -97.5 -28.5t-28.5 -98.5v-144h396v-46h-396v-278h463q47 0 66.5 19.5t19.5 66.5v72h61v-81q0 -67 -32 -98.5t-98 -31.5h-634v53h92v278h-102v46h102v149q0 90 42 132t132 42h324q90 0 132 -42t42 -132z" />
    <glyph glyph-name="yen.tf" 
d="M752 700h75l-335 -404h305v-43h-334v-111h334v-43h-334v-99h-62v99h-334v43h334v111h-334v43h305l-335 404h79l319 -390z" />
    <glyph glyph-name="percent.numr" horiz-adv-x="622" 
d="M220 506h-112q-62 0 -62 63v69q0 62 62 62h112q63 0 63 -62v-69q0 -63 -63 -63zM141 280h-47l387 420h47zM117 545h94q16 0 22.5 6.5t6.5 23.5v57q0 16 -6 22.5t-23 6.5h-94q-17 0 -23 -6.5t-6 -22.5v-57q0 -17 6.5 -23.5t22.5 -6.5zM514 280h-112q-63 0 -63 63v69
q0 62 63 62h112q62 0 62 -62v-69q0 -63 -62 -63zM411 319h94q16 0 22.5 6.5t6.5 23.5v57q0 16 -6 22.5t-23 6.5h-94q-17 0 -23 -6.5t-6 -22.5v-57q0 -17 6.5 -23.5t22.5 -6.5z" />
    <glyph glyph-name="perthousand.numr" horiz-adv-x="893" 
d="M220 506h-112q-62 0 -62 63v69q0 62 62 62h112q63 0 63 -62v-69q0 -63 -63 -63zM141 280h-47l387 420h47zM117 545h94q16 0 22.5 6.5t6.5 23.5v57q0 16 -6 22.5t-23 6.5h-94q-17 0 -23 -6.5t-6 -22.5v-57q0 -17 6.5 -23.5t22.5 -6.5zM514 280h-112q-63 0 -63 63v69
q0 62 63 62h112q62 0 62 -62v-69q0 -63 -62 -63zM785 280h-113q-62 0 -62 63v69q0 62 62 62h113q62 0 62 -62v-69q0 -63 -62 -63zM411 319h94q16 0 22.5 6.5t6.5 23.5v57q0 16 -6 22.5t-23 6.5h-94q-17 0 -23 -6.5t-6 -22.5v-57q0 -17 6.5 -23.5t22.5 -6.5zM682 319h93
q17 0 23.5 6.5t6.5 23.5v57q0 16 -6.5 22.5t-23.5 6.5h-93q-17 0 -23.5 -6.5t-6.5 -22.5v-57q0 -17 7 -23.5t23 -6.5z" />
    <glyph glyph-name="percent.tf" horiz-adv-x="972" 
d="M328 379h-176q-104 0 -104 104v113q0 54 25.5 79t78.5 25h176q53 0 78.5 -25t25.5 -79v-113q0 -104 -104 -104zM189 0h-60l654 700h60zM162 423h156q36 0 51.5 15.5t15.5 50.5v101q0 36 -15.5 51t-51.5 15h-156q-36 0 -51.5 -15t-15.5 -51v-101q0 -35 15.5 -50.5
t51.5 -15.5zM820 0h-176q-104 0 -104 104v113q0 54 25.5 79t78.5 25h176q53 0 78.5 -25t25.5 -79v-113q0 -104 -104 -104zM654 44h156q36 0 51.5 15.5t15.5 50.5v101q0 36 -15.5 51t-51.5 15h-156q-36 0 -51.5 -15t-15.5 -51v-101q0 -35 15.5 -50.5t51.5 -15.5z" />
    <glyph glyph-name="perthousand.tf" horiz-adv-x="1414" 
d="M328 379h-176q-104 0 -104 104v113q0 54 25.5 79t78.5 25h176q53 0 78.5 -25t25.5 -79v-113q0 -104 -104 -104zM190 0h-61l653 700h61zM162 423h156q36 0 51.5 15.5t15.5 50.5v101q0 36 -15.5 51t-51.5 15h-156q-36 0 -51.5 -15t-15.5 -51v-101q0 -35 15.5 -50.5
t51.5 -15.5zM820 0h-176q-104 0 -104 104v113q0 54 25.5 79t78.5 25h176q53 0 78.5 -25t25.5 -79v-113q0 -104 -104 -104zM1262 0h-176q-104 0 -104 104v113q0 54 25.5 79t78.5 25h176q53 0 78.5 -25t25.5 -79v-113q0 -104 -104 -104zM654 44h156q36 0 51.5 15.5t15.5 50.5
v101q0 36 -15.5 51t-51.5 15h-156q-36 0 -51.5 -15t-15.5 -51v-101q0 -35 15.5 -50.5t51.5 -15.5zM1096 44h156q36 0 51.5 15.5t15.5 50.5v101q0 36 -15.5 51t-51.5 15h-156q-36 0 -51.5 -15t-15.5 -51v-101q0 -35 15.5 -50.5t51.5 -15.5z" />
    <glyph glyph-name="brevecombcy" horiz-adv-x="0" 
d="M-148 579h-229q-71 0 -71 71v50h51v-45q0 -35 35 -35h200q35 0 35 35v45h51v-50q0 -71 -72 -71z" />
    <glyph glyph-name="ringacutecomb" horiz-adv-x="421" 
d="M264 622h46q53 0 53 -53v-25q0 -53 -53 -53h-199q-53 0 -53 53v25q0 53 53 53h89l78 78h76zM323 548v17q0 13 -4.5 18t-16.5 5h-183q-12 0 -16.5 -5t-4.5 -18v-17q0 -13 4.5 -17.5t16.5 -4.5h183q12 0 16.5 4.5t4.5 17.5z" />
    </font>
</defs>
</svg>
