<?xml version="1.0" standalone="no"?>
<!DOCTYPE svg PUBLIC "-//W3C//DTD SVG 1.1//EN" "http://www.w3.org/Graphics/SVG/1.1/DTD/svg11.dtd" >
<svg xmlns="http://www.w3.org/2000/svg" xmlns:xlink="http://www.w3.org/1999/xlink" version="1.1">
<metadata>
Created by FontForge 20170731 at Thu Jun 30 17:45:12 2016
 By Aleksey,,,
(c)2016 Richard Miller
</metadata>
<defs>
<font id="TacticSans-Reg" horiz-adv-x="752" >
  <font-face 
    font-family="TacticSans-Reg"
    font-weight="400"
    font-stretch="normal"
    units-per-em="1000"
    panose-1="0 0 5 0 0 0 0 0 0 0"
    ascent="814"
    descent="-186"
    x-height="524"
    cap-height="700"
    bbox="-888 -178 1210 876"
    underline-thickness="50"
    underline-position="-200"
    unicode-range="U+0020-FB02"
  />
<missing-glyph horiz-adv-x="720" 
d="M10 0v700h700v-700h-700zM259 350l-169 -169l107 -107l169 169l169 -169l107 107l-169 169l169 169l-107 107l-169 -169l-169 169l-107 -107z" />
    <glyph glyph-name="ellipsis" unicode="&#x2e;&#x2e;&#x2e;" horiz-adv-x="888" 
d="M176 0h-104v100h104v-100zM496 0h-104v100h104v-100zM816 0h-104v100h104v-100z" />
    <glyph glyph-name="blackbox.liga" unicode="[&#x2b;]" horiz-adv-x="940" 
d="M120 0v700h700v-700h-700z" />
    <glyph glyph-name="checkbox.liga" unicode="[]" horiz-adv-x="940" 
d="M120 0v700h700v-700h-700zM765 648h-590v-596h590v596z" />
    <glyph glyph-name="checkround.liga" unicode="&#x28;&#x29;" horiz-adv-x="940" 
d="M726 95q-105 -105 -256 -105q-152 0 -255 105q-105 103 -105 255q0 151 105 256q104 104 255 104q150 0 256 -104q104 -106 104 -256q0 -151 -104 -255zM254 131q89 -89 216 -89q128 0 217 89q88 88 88 219t-88 219q-89 89 -217 89q-127 0 -216 -89t-89 -219t89 -219z
" />
    <glyph glyph-name="checkstar.liga" unicode="&#x7b;&#x7d;" horiz-adv-x="940" 
d="M378 437l92 283l92 -283h297l-240 -174l91 -283l-240 175l-240 -175l91 283l-240 174h297zM529 392l-59 182l-59 -182h-191l155 -112l-59 -182l154 112l154 -112l-59 182l155 112h-191z" />
    <glyph glyph-name="blackround.liga" unicode="&#x28;&#x2b;&#x29;" horiz-adv-x="940" 
d="M726 95q-105 -105 -256 -105q-152 0 -255 105q-105 103 -105 255q0 151 105 256q104 104 255 104q150 0 256 -104q104 -106 104 -256q0 -151 -104 -255z" />
    <glyph glyph-name="filledstar.liga" unicode="&#x7b;&#x2b;&#x7d;" horiz-adv-x="940" 
d="M378 437l92 283l92 -283h297l-240 -174l91 -283l-240 175l-240 -175l91 283l-240 174h297z" />
    <glyph glyph-name="ff.liga" unicode="ff" horiz-adv-x="844" 
d="M826 636h-159q-44 0 -62 -18t-18 -62v-94h239v-66h-239v-396h-81v396h-293v-396h-81v396h-114v66h114v104q0 69 32.5 101.5t101.5 32.5h150v-64h-123q-44 0 -62 -18t-18 -62v-94h293v104q0 69 32.5 101.5t101.5 32.5h186v-64z" />
    <glyph glyph-name=".notdef" horiz-adv-x="720" 
d="M10 0v700h700v-700h-700zM259 350l-169 -169l107 -107l169 169l169 -169l107 107l-169 169l169 169l-107 107l-169 -169l-169 169l-107 -107z" />
    <glyph glyph-name=".null" horiz-adv-x="0" 
 />
    <glyph glyph-name="nonmarkingreturn" horiz-adv-x="333" 
 />
    <glyph glyph-name="space" unicode=" " horiz-adv-x="300" 
 />
    <glyph glyph-name="exclam" unicode="!" horiz-adv-x="248" 
d="M93 182l-16 518h94l-16 -518h-62zM176 0h-104v94h104v-94z" />
    <glyph glyph-name="quotedbl" unicode="&#x22;" horiz-adv-x="396" 
d="M72 444v256h72v-256h-72zM252 444v256h72v-256h-72z" />
    <glyph glyph-name="numbersign" unicode="#" 
d="M698 454v-58h-136l-30 -172h125v-58h-136l-29 -166h-69l29 166h-204l-29 -166h-69l29 166h-125v58h136l30 172h-125v58h136l29 166h69l-29 -166h204l29 166h69l-29 -166h125zM259 224h204l30 172h-204z" />
    <glyph glyph-name="dollar" unicode="$" 
d="M244 416l302 -33q72 -8 103 -38t31 -96v-115q0 -69 -32.5 -101.5t-101.5 -32.5h-139v-100h-62v100h-139q-69 0 -101.5 32.5t-32.5 101.5v61h80v-47q0 -44 18 -62t62 -18h286q44 0 62 18t18 62v85q0 42 -17 58.5t-63 21.5l-302 33q-72 8 -103 38t-31 96v86
q0 69 32.5 101.5t101.5 32.5h129v100h62v-100h125q69 0 101.5 -32.5t32.5 -101.5v-45h-80v31q0 44 -18 62t-62 18h-262q-44 0 -62 -18t-18 -62v-56q0 -42 17 -58.5t63 -21.5z" />
    <glyph glyph-name="percent" unicode="%" horiz-adv-x="860" 
d="M266 308h-116q-104 0 -104 104v104q0 54 25.5 79t78.5 25h116q53 0 78.5 -25t25.5 -79v-104q0 -104 -104 -104zM197 0h-64l530 620h64zM163 359h90q34 0 48 14.5t14 47.5v86q0 34 -14 48t-48 14h-90q-33 0 -47.5 -14t-14.5 -48v-86q0 -33 14.5 -47.5t47.5 -14.5zM710 0
h-116q-104 0 -104 104v104q0 54 25.5 79t78.5 25h116q53 0 78.5 -25t25.5 -79v-104q0 -104 -104 -104zM607 51h90q34 0 48 14.5t14 47.5v86q0 34 -14 48t-48 14h-90q-33 0 -47.5 -14t-14.5 -48v-86q0 -33 14.5 -47.5t47.5 -14.5z" />
    <glyph glyph-name="ampersand" unicode="&#x26;" horiz-adv-x="802" 
d="M254 398h530v-62h-100v-202q0 -69 -32.5 -101.5t-101.5 -32.5h-354q-69 0 -101.5 32.5t-32.5 101.5v112q0 107 85 126q-55 28 -55 115v79q0 69 32.5 101.5t101.5 32.5h294q69 0 101.5 -32.5t32.5 -101.5v-43h-80v32q0 44 -18 62t-62 18h-240q-44 0 -62 -18t-18 -62v-77
q0 -44 18 -62t62 -18zM604 145v191h-380q-44 0 -62 -18t-18 -62v-111q0 -44 18 -62t62 -18h300q44 0 62 18t18 62z" />
    <glyph glyph-name="quotesingle" unicode="'" horiz-adv-x="216" 
d="M72 444v256h72v-256h-72z" />
    <glyph glyph-name="parenleft" unicode="(" horiz-adv-x="408" 
d="M372 -100h-80q-220 0 -220 220v460q0 220 220 220h80v-67h-70q-155 0 -155 -155v-456q0 -155 155 -155h70v-67z" />
    <glyph glyph-name="parenright" unicode=")" horiz-adv-x="408" 
d="M36 800h80q220 0 220 -220v-460q0 -220 -220 -220h-80v67h70q155 0 155 155v456q0 155 -155 155h-70v67z" />
    <glyph glyph-name="asterisk" unicode="*" horiz-adv-x="447" 
d="M381 607l19 -57l-138 -39l89 -112l-48 -35l-79 119l-80 -119l-48 35l88 112l-137 39l19 57l133 -50l-6 143h60l-6 -142z" />
    <glyph glyph-name="plus" unicode="+" 
d="M414 385h264v-70h-264v-267h-76v267h-264v70h264v267h76v-267z" />
    <glyph glyph-name="comma" unicode="," horiz-adv-x="248" 
d="M120 -160h-53l43 160h-38v100h104v-49q0 -39 -12 -69z" />
    <glyph glyph-name="hyphen" unicode="-" horiz-adv-x="420" 
d="M54 315v70h312v-70h-312z" />
    <glyph glyph-name="period" unicode="." horiz-adv-x="248" 
d="M176 0h-104v100h104v-100z" />
    <glyph glyph-name="slash" unicode="/" horiz-adv-x="482" 
d="M8 -100l404 900h62l-404 -900h-62z" />
    <glyph glyph-name="zero" unicode="0" 
d="M498 0h-244q-92 0 -135 42.5t-43 135.5v344q0 93 43 135.5t135 42.5h244q92 0 135 -42.5t43 -135.5v-344q0 -93 -43 -135.5t-135 -42.5zM276 71h200q64 0 91 26.5t27 91.5v322q0 65 -27 91.5t-91 26.5h-200q-64 0 -91 -26.5t-27 -91.5v-322q0 -65 27 -91.5t91 -26.5z" />
    <glyph glyph-name="one" unicode="1" horiz-adv-x="692" 
d="M411 700v-631h237v-69h-604v69h285v556l-255 -26v71l299 30h38z" />
    <glyph glyph-name="two" unicode="2" 
d="M666 71v-71h-590v203q0 66 31 98t103 44l304 52q46 8 63 26.5t17 59.5v68q0 44 -18 62t-62 18h-264q-44 0 -62 -18t-18 -62v-40h-80v55q0 69 32.5 101.5t101.5 32.5h318q69 0 101.5 -32.5t32.5 -101.5v-95q0 -66 -31 -98t-103 -44l-304 -52q-46 -8 -63 -26t-17 -60v-120
h508z" />
    <glyph glyph-name="three" unicode="3" 
d="M606 368q72 -22 72 -122v-112q0 -69 -32.5 -101.5t-101.5 -32.5h-336q-69 0 -101.5 32.5t-32.5 101.5v81h80v-68q0 -44 18 -62t62 -18h282q44 0 62 18t18 62v108q0 44 -18 62t-62 18h-191v64h181q44 0 62 18t18 62v74q0 44 -18 62t-62 18h-262q-44 0 -62 -18t-18 -62v-60
h-80v73q0 69 32.5 101.5t101.5 32.5h316q69 0 101.5 -32.5t32.5 -101.5v-79q0 -92 -62 -119z" />
    <glyph glyph-name="four" unicode="4" horiz-adv-x="782" 
d="M574 246h164v-66h-164v-180h-80v180h-450v55l439 465h91v-454zM494 623l-357 -377h357v377z" />
    <glyph glyph-name="five" unicode="5" horiz-adv-x="722" 
d="M512 0h-432v71h404q44 0 62 18t18 62v115q0 44 -18 62t-62 18h-404v354h536v-71h-454v-214h350q69 0 101.5 -32.5t32.5 -101.5v-147q0 -69 -32.5 -101.5t-101.5 -32.5z" />
    <glyph glyph-name="six" unicode="6" 
d="M258 419h284q68 0 101 -32.5t33 -101.5v-151q0 -69 -32.5 -101.5t-101.5 -32.5h-332q-69 0 -101.5 32.5t-32.5 101.5v388q0 93 43 135.5t135 42.5h392v-71h-370q-64 0 -91 -26.5t-27 -91.5v-127q32 35 100 35zM594 149v122q0 44 -18 62t-62 18h-276q-44 0 -62 -18
t-18 -62v-122q0 -44 18 -62t62 -18h276q44 0 62 18t18 62z" />
    <glyph glyph-name="seven" unicode="7" horiz-adv-x="712" 
d="M44 627v73h624v-62l-262 -294q-37 -41 -47 -77q-11 -38 -11 -101v-166h-83v168q0 73 14 120q14 46 57 92l222 247h-514z" />
    <glyph glyph-name="eight" unicode="8" 
d="M606 368q72 -22 72 -122v-112q0 -69 -32.5 -101.5t-101.5 -32.5h-336q-69 0 -101.5 32.5t-32.5 101.5v112q0 100 72 122q-62 27 -62 119v79q0 69 32.5 101.5t101.5 32.5h316q69 0 101.5 -32.5t32.5 -101.5v-79q0 -92 -62 -119zM166 554v-76q0 -44 18 -62t62 -18h260
q44 0 62 18t18 62v76q0 44 -18 62t-62 18h-260q-44 0 -62 -18t-18 -62zM596 146v110q0 44 -18 62t-62 18h-280q-44 0 -62 -18t-18 -62v-110q0 -44 18 -62t62 -18h280q44 0 62 18t18 62z" />
    <glyph glyph-name="nine" unicode="9" 
d="M210 700h332q69 0 101.5 -32.5t32.5 -101.5v-388q0 -93 -43 -135.5t-135 -42.5h-392v71h370q64 0 91 26.5t27 91.5v120q-32 -35 -100 -35h-284q-69 0 -101.5 32.5t-32.5 101.5v158q0 69 32.5 101.5t101.5 32.5zM238 342h276q44 0 62 18t18 62v129q0 44 -18 62t-62 18
h-276q-44 0 -62 -18t-18 -62v-129q0 -44 18 -62t62 -18z" />
    <glyph glyph-name="colon" unicode=":" horiz-adv-x="248" 
d="M176 428h-104v96h104v-96zM176 0h-104v96h104v-96z" />
    <glyph glyph-name="semicolon" unicode=";" horiz-adv-x="248" 
d="M176 428h-104v96h104v-96zM120 -160h-53l43 160h-38v96h104v-45q0 -37 -12 -69z" />
    <glyph glyph-name="less" unicode="&#x3c;" 
d="M74 385l604 254v-73l-527 -215l527 -216v-74l-604 254v70z" />
    <glyph glyph-name="equal" unicode="=" 
d="M74 439v68h604v-68h-604zM74 193v68h604v-68h-604z" />
    <glyph glyph-name="greater" unicode="&#x3e;" 
d="M74 565v74l604 -254v-70l-604 -254v73l527 216z" />
    <glyph glyph-name="question" unicode="?" horiz-adv-x="670" 
d="M340 176h-78v79q0 63 24 92q22 29 87 45l86 21q44 11 60.5 30t16.5 60v49q0 44 -18 61.5t-61 17.5h-246q-43 0 -61 -17.5t-18 -61.5v-44h-80v58q0 69 32.5 101.5t101.5 32.5h298q69 0 101.5 -32.5t32.5 -101.5v-69q0 -63 -29 -95.5t-98 -50.5l-85 -21q-40 -10 -53 -27.5
t-13 -59.5v-67zM353 0h-104v88h104v-88z" />
    <glyph glyph-name="at" unicode="@" horiz-adv-x="885" 
d="M240 700h404q92 0 135 -42.5t43 -135.5v-236q0 -62 -27.5 -89t-88.5 -27h-63q-71 0 -89 50l-21 -15q-38 -25 -68 -33t-78 -7h-60q-59 0 -82.5 28.5t-12.5 89.5l25 138q10 61 40 87.5t88 26.5h57q49 0 79.5 -9.5t57.5 -33.5l11 -9l13 41h53l-43 -248q-5 -29 4.5 -41.5
t37.5 -12.5h42q40 0 54 14t14 54v228q0 72 -29 101t-100 29h-387q-71 0 -100 -29t-29 -101v-336q0 -72 29 -101t100 -29h509v-52h-518q-92 0 -135 42.5t-43 135.5v344q0 93 43 135.5t135 42.5zM516 247l30 20l30 169l-23 18q-32 26 -103 26h-57q-36 0 -51 -13.5t-22 -52.5
l-22 -126q-8 -40 2.5 -54t49.5 -14h60q62 0 106 27z" />
    <glyph glyph-name="A" unicode="A" horiz-adv-x="785" 
d="M780 0h-94l-85 181h-419l-85 -181h-89l341 700h90zM392 626l-178 -378h355z" />
    <glyph glyph-name="B" unicode="B" horiz-adv-x="756" 
d="M623 370q79 -21 79 -124v-112q0 -69 -32.5 -101.5t-101.5 -32.5h-496v700h476q69 0 101.5 -32.5t32.5 -101.5v-79q0 -90 -59 -117zM518 632h-362v-234h362q44 0 62 18t18 62v74q0 44 -18 62t-62 18zM618 148v108q0 44 -18 62t-62 18h-382v-268h382q44 0 62 18t18 62z" />
    <glyph glyph-name="C" unicode="C" horiz-adv-x="769" 
d="M532 0h-292q-92 0 -135 42.5t-43 135.5v344q0 93 43 135.5t135 42.5h292q92 0 135 -42.5t43 -135.5v-67h-82v55q0 65 -26.5 91.5t-91.5 26.5h-246q-64 0 -91 -27t-27 -91v-320q0 -64 27 -91t91 -27h246q65 0 91.5 26.5t26.5 91.5v64h82v-76q0 -93 -43 -135.5t-135 -42.5z
" />
    <glyph glyph-name="D" unicode="D" horiz-adv-x="794" 
d="M512 0h-440v700h440q108 0 164 -56t56 -164v-260q0 -108 -56 -164t-164 -56zM156 627v-554h340q152 0 152 152v250q0 152 -152 152h-340z" />
    <glyph glyph-name="E" unicode="E" horiz-adv-x="674" 
d="M156 333v-262h482v-71h-566v700h556v-71h-472v-229h432v-67h-432z" />
    <glyph glyph-name="F" unicode="F" horiz-adv-x="636" 
d="M618 700v-74h-462v-247h422v-72h-422v-307h-84v700h546z" />
    <glyph glyph-name="G" unicode="G" horiz-adv-x="795" 
d="M62 178v344q0 93 43 135.5t135 42.5h314q92 0 135 -42.5t43 -135.5v-37h-84v26q0 65 -26.5 91.5t-91.5 26.5h-266q-64 0 -91 -26.5t-27 -91.5v-323q0 -64 27 -91t91 -27h268q65 0 91.5 26.5t26.5 91.5v104h-228v67h310v-181q0 -93 -43 -135.5t-135 -42.5h-314
q-92 0 -135 42.5t-43 135.5z" />
    <glyph glyph-name="H" unicode="H" horiz-adv-x="784" 
d="M628 405v295h84v-700h-84v331h-472v-331h-84v700h84v-295h472z" />
    <glyph glyph-name="I" unicode="I" horiz-adv-x="240" 
d="M78 0v700h84v-700h-84z" />
    <glyph glyph-name="J" unicode="J" horiz-adv-x="697" 
d="M456 0h-242q-92 0 -135 42.5t-43 135.5v76h82v-64q0 -64 27 -91t91 -27h196q64 0 91 27t27 91v510h84v-522q0 -93 -43 -135.5t-135 -42.5z" />
    <glyph glyph-name="K" unicode="K" horiz-adv-x="713" 
d="M261 361l444 -361h-128l-421 350v-350h-84v700h84v-330l416 330h129z" />
    <glyph glyph-name="L" unicode="L" horiz-adv-x="606" 
d="M156 700v-625h432v-75h-516v700h84z" />
    <glyph glyph-name="M" unicode="M" horiz-adv-x="904" 
d="M454 237l307 463h71v-700h-80v557l-276 -410h-48l-276 410v-557h-80v700h74z" />
    <glyph glyph-name="N" unicode="N" horiz-adv-x="804" 
d="M650 132v568h82v-700h-66l-512 574v-574h-82v700h71z" />
    <glyph glyph-name="O" unicode="O" horiz-adv-x="795" 
d="M554 0h-314q-92 0 -135 42.5t-43 135.5v344q0 93 43 135.5t135 42.5h314q92 0 135 -42.5t43 -135.5v-344q0 -93 -43 -135.5t-135 -42.5zM264 73h266q65 0 91.5 26.5t26.5 91.5v318q0 65 -26.5 91.5t-91.5 26.5h-266q-64 0 -91 -26.5t-27 -91.5v-318q0 -65 27 -91.5
t91 -26.5z" />
    <glyph glyph-name="P" unicode="P" horiz-adv-x="728" 
d="M156 0h-84v700h462q84 0 121 -36.5t37 -121.5v-124q0 -85 -37 -121.5t-121 -36.5h-378v-260zM156 631v-304h352q58 0 79 21t21 79v104q0 58 -21 79t-79 21h-352z" />
    <glyph glyph-name="Q" unicode="Q" horiz-adv-x="795" 
d="M240 700h314q92 0 135 -42.5t43 -135.5v-344q0 -90 -40.5 -133t-127.5 -45l119 -140h-95l-114 140h-234q-92 0 -135 42.5t-43 135.5v344q0 93 43 135.5t135 42.5zM648 191v318q0 65 -26.5 91.5t-91.5 26.5h-266q-64 0 -91 -26.5t-27 -91.5v-318q0 -65 27 -91.5t91 -26.5
h266q65 0 91.5 26.5t26.5 91.5z" />
    <glyph glyph-name="R" unicode="R" horiz-adv-x="756" 
d="M511 284l211 -284h-97l-207 281h-262v-281h-84v700h462q84 0 121 -36.5t37 -121.5v-99q0 -85 -37 -121.5t-121 -36.5zM508 633h-352v-286h352q58 0 79 21t21 79v86q0 58 -21 79t-79 21z" />
    <glyph glyph-name="S" unicode="S" horiz-adv-x="775" 
d="M62 134v61h82v-47q0 -44 18 -62t62 -18h324q44 0 62 18t18 62v84q0 42 -17 58.5t-63 21.5l-342 33q-71 7 -102.5 37.5t-31.5 96.5v87q0 69 33 101.5t101 32.5h358q69 0 101.5 -32.5t32.5 -101.5v-45h-82v31q0 44 -18 62t-62 18h-300q-44 0 -62 -18t-18 -62v-55
q0 -42 17 -58.5t63 -21.5l342 -34q71 -6 102.5 -36.5t31.5 -97.5v-115q0 -69 -32.5 -101.5t-101.5 -32.5h-382q-68 0 -101 32.5t-33 101.5z" />
    <glyph glyph-name="T" unicode="T" horiz-adv-x="668" 
d="M18 700h632v-75h-274v-625h-84v625h-274v75z" />
    <glyph glyph-name="U" unicode="U" horiz-adv-x="766" 
d="M525 0h-284q-92 0 -135 42.5t-43 135.5v522h84v-509q0 -65 26.5 -91.5t91.5 -26.5h236q65 0 91.5 26.5t26.5 91.5v509h84v-522q0 -93 -43 -135.5t-135 -42.5z" />
    <glyph glyph-name="V" unicode="V" horiz-adv-x="760" 
d="M382 90l282 610h88l-332 -700h-80l-332 700h93z" />
    <glyph glyph-name="W" unicode="W" horiz-adv-x="1086" 
d="M780 113l210 587h88l-260 -700h-75l-200 572l-200 -572h-75l-260 700h93l209 -586l201 586h67z" />
    <glyph glyph-name="X" unicode="X" horiz-adv-x="736" 
d="M108 0h-100l305 356l-295 344h106l247 -296l246 296h101l-294 -344l304 -356h-106l-256 308z" />
    <glyph glyph-name="Y" unicode="Y" horiz-adv-x="712" 
d="M619 700h95l-316 -439v-261h-84v261l-316 439h99l262 -372z" />
    <glyph glyph-name="Z" unicode="Z" horiz-adv-x="744" 
d="M698 0h-652v57l531 570h-511v73h632v-57l-531 -570h531v-73z" />
    <glyph glyph-name="bracketleft" unicode="[" horiz-adv-x="388" 
d="M352 -100h-280v900h280v-67h-205v-766h205v-67z" />
    <glyph glyph-name="backslash" unicode="\" horiz-adv-x="482" 
d="M8 800h62l404 -900h-62z" />
    <glyph glyph-name="bracketright" unicode="]" horiz-adv-x="388" 
d="M36 800h280v-900h-280v67h205v766h-205v67z" />
    <glyph glyph-name="asciicircum" unicode="^" 
d="M409 700l279 -420h-86l-225 346l-226 -346h-87l279 420h66z" />
    <glyph glyph-name="underscore" unicode="_" horiz-adv-x="632" 
d="M0 -101v61h632v-61h-632z" />
    <glyph glyph-name="grave" unicode="`" horiz-adv-x="342" 
d="M270 578h-73l-125 122h93z" />
    <glyph glyph-name="a" unicode="a" horiz-adv-x="670" 
d="M220 524h224q84 0 121 -36.5t37 -121.5v-366h-65l-11 76l-34 -24q-47 -33 -80 -42q-33 -10 -101 -10h-127q-122 0 -122 122v51q0 122 122 122h337v66q0 58 -21 79.5t-79 21.5h-176q-44 0 -62 -18t-18 -62v-24h-79v32q0 69 32.5 101.5t101.5 32.5zM464 96l57 39v106h-305
q-40 0 -56.5 -16.5t-16.5 -56.5v-35q0 -41 16.5 -57t56.5 -16h118q79 0 130 36z" />
    <glyph glyph-name="b" unicode="b" horiz-adv-x="684" 
d="M381 524h83q84 0 121 -36.5t37 -121.5v-208q0 -85 -37 -121.5t-121 -36.5h-83q-73 0 -117 11q-41 10 -91 48l-26 19l-11 -78h-64v700h80v-250l21 15q50 38 91 48q44 11 117 11zM541 168v188q0 58 -21.5 79.5t-79.5 21.5h-83q-97 0 -156 -41l-49 -35v-238l49 -35
q59 -41 156 -41h83q58 0 79.5 21.5t21.5 79.5z" />
    <glyph glyph-name="c" unicode="c" horiz-adv-x="652" 
d="M62 158v208q0 85 37 121.5t121 36.5h212q84 0 121 -36.5t37 -121.5v-37h-79v27q0 58 -21 79.5t-79 21.5h-168q-58 0 -79 -21.5t-21 -79.5v-188q0 -58 21 -79.5t79 -21.5h168q58 0 79 21.5t21 79.5v36h79v-46q0 -85 -37 -121.5t-121 -36.5h-212q-84 0 -121 36.5t-37 121.5
z" />
    <glyph glyph-name="d" unicode="d" horiz-adv-x="684" 
d="M531 450v250h81v-700h-65l-11 78l-25 -19q-50 -38 -91 -48q-44 -11 -117 -11h-83q-84 0 -121 36.5t-37 121.5v208q0 85 37 121.5t121 36.5h83q73 0 117 -11q41 -10 91 -48zM483 108l48 35v238l-48 35q-59 41 -157 41h-83q-58 0 -79 -21.5t-21 -79.5v-188q0 -58 21 -79.5
t79 -21.5h83q98 0 157 41z" />
    <glyph glyph-name="e" unicode="e" horiz-adv-x="664" 
d="M220 524h224q84 0 121 -36.5t37 -121.5v-108h-459v-92q0 -58 21 -79t79 -21h200q44 0 62 18t18 62v33h79v-45q0 -69 -32.5 -101.5t-101.5 -32.5h-248q-84 0 -121 36.5t-37 121.5v208q0 85 37 121.5t121 36.5zM143 361v-47h380v47q0 58 -21 79t-79 21h-180q-58 0 -79 -21
t-21 -79z" />
    <glyph glyph-name="f" unicode="f" horiz-adv-x="470" 
d="M452 633h-159q-44 0 -62 -18t-18 -62v-91h239v-66h-239v-396h-81v396h-114v66h114v104q0 69 32.5 101.5t101.5 32.5h186v-67z" />
    <glyph glyph-name="g" unicode="g" horiz-adv-x="684" 
d="M536 446l11 78h65v-506q0 -93 -43 -135.5t-135 -42.5h-352v64h331q65 0 91.5 27t26.5 91v87l-20 -15q-50 -38 -91 -48q-46 -11 -117 -11h-83q-84 0 -121 36.5t-37 121.5v173q0 85 37 121.5t121 36.5h83q71 0 117 -11q41 -10 91 -48zM483 141l48 35v206l-48 35
q-59 41 -157 41h-83q-58 0 -79 -21t-21 -79v-157q0 -58 21 -79.5t79 -21.5h83q98 0 157 41z" />
    <glyph glyph-name="h" unicode="h" horiz-adv-x="679" 
d="M383 524h71q84 0 121 -36.5t37 -121.5v-366h-81v355q0 58 -21.5 79.5t-79.5 21.5h-73q-97 0 -156 -41l-49 -35v-380h-80v700h80v-252l23 17q50 38 91 48q44 11 117 11z" />
    <glyph glyph-name="i" unicode="i" horiz-adv-x="233" 
d="M157 621h-81v79h81v-79zM157 0h-81v524h81v-524z" />
    <glyph glyph-name="j" unicode="j" horiz-adv-x="233" 
d="M157 621h-81v79h81v-79zM23 -160h-46v65h19q44 0 62 18.5t18 61.5v539h81v-550q0 -69 -32.5 -101.5t-101.5 -32.5z" />
    <glyph glyph-name="k" unicode="k" horiz-adv-x="609" 
d="M253 264l350 -264h-125l-325 253v-253h-81v700h81v-429l322 253h123z" />
    <glyph glyph-name="l" unicode="l" horiz-adv-x="233" 
d="M157 0h-81v700h81v-700z" />
    <glyph glyph-name="m" unicode="m" horiz-adv-x="1070" 
d="M806 524h39q84 0 121 -36.5t37 -121.5v-366h-81v355q0 58 -21 79.5t-79 21.5h-39q-98 0 -157 -41l-48 -35v-380h-81v355q0 58 -21.5 79.5t-79.5 21.5h-39q-97 0 -156 -41l-49 -35v-380h-80v524h64l11 -78l26 19q50 38 91 48q44 11 117 11h39q121 0 148 -81l30 22
q50 38 91 48q44 11 117 11z" />
    <glyph glyph-name="n" unicode="n" horiz-adv-x="679" 
d="M381 524h73q84 0 121 -36.5t37 -121.5v-366h-81v355q0 58 -21.5 79.5t-79.5 21.5h-73q-97 0 -156 -41l-49 -35v-380h-80v524h64l11 -78l26 19q50 38 91 48q44 11 117 11z" />
    <glyph glyph-name="o" unicode="o" horiz-adv-x="674" 
d="M454 0h-234q-84 0 -121 36.5t-37 121.5v208q0 85 37 121.5t121 36.5h234q84 0 121 -36.5t37 -121.5v-208q0 -85 -37 -121.5t-121 -36.5zM243 67h188q58 0 79 21.5t21 79.5v188q0 58 -21 79.5t-79 21.5h-188q-58 0 -79 -21.5t-21 -79.5v-188q0 -58 21 -79.5t79 -21.5z" />
    <glyph glyph-name="p" unicode="p" horiz-adv-x="684" 
d="M381 524h83q84 0 121 -36.5t37 -121.5v-208q0 -85 -37 -121.5t-121 -36.5h-83q-73 0 -117 11q-41 10 -91 48l-21 15v-234h-80v684h64l11 -78l26 19q50 38 91 48q44 11 117 11zM541 168v188q0 58 -21.5 79.5t-79.5 21.5h-83q-97 0 -156 -41l-49 -35v-238l49 -35
q59 -41 156 -41h83q58 0 79.5 21.5t21.5 79.5z" />
    <glyph glyph-name="q" unicode="q" horiz-adv-x="684" 
d="M536 446l11 78h65v-684h-81v234l-20 -15q-49 -37 -90 -48q-42 -11 -116 -11h-85q-84 0 -121 36.5t-37 121.5v208q0 85 37 121.5t121 36.5h83q73 0 117 -11q41 -10 91 -48zM483 108l48 35v238l-48 35q-59 41 -157 41h-83q-58 0 -79 -21.5t-21 -79.5v-188q0 -58 21 -79.5
t79 -21.5h83q98 0 157 41z" />
    <glyph glyph-name="r" unicode="r" horiz-adv-x="438" 
d="M379 524h41v-74h-63q-97 0 -156 -41l-49 -35v-374h-80v524h58l12 -80l29 21q50 38 91 48q44 11 117 11z" />
    <glyph glyph-name="s" unicode="s" horiz-adv-x="654" 
d="M62 110v47h79v-39q0 -30 13 -43.5t44 -13.5h256q31 0 44 13.5t13 43.5v54q0 30 -13 43t-44 16l-272 28q-110 11 -110 111v44q0 54 28.5 82t81.5 28h286q53 0 81.5 -28t28.5 -82v-43h-79v35q0 30 -13 43.5t-44 13.5h-232q-31 0 -44 -13.5t-13 -43.5v-24q0 -30 13 -43
t44 -16l272 -28q110 -11 110 -111v-74q0 -54 -28.5 -82t-81.5 -28h-310q-53 0 -81.5 28t-28.5 82z" />
    <glyph glyph-name="t" unicode="t" horiz-adv-x="490" 
d="M462 524v-66h-249v-311q0 -44 18 -62t62 -18h169v-67h-196q-69 0 -101.5 32.5t-32.5 101.5v324h-114v66h114l18 120h63v-120h249z" />
    <glyph glyph-name="u" unicode="u" horiz-adv-x="679" 
d="M527 524h80v-524h-64l-11 78l-26 -19q-50 -38 -91 -48q-44 -11 -117 -11h-73q-84 0 -121 36.5t-37 121.5v366h81v-355q0 -58 21.5 -79.5t79.5 -21.5h73q97 0 156 41l49 35v380z" />
    <glyph glyph-name="v" unicode="v" horiz-adv-x="618" 
d="M311 86l211 438h88l-265 -524h-72l-265 524h91z" />
    <glyph glyph-name="w" unicode="w" horiz-adv-x="882" 
d="M633 99l158 425h83l-207 -524h-70l-155 416l-156 -416h-71l-207 524h86l160 -424l157 424h63z" />
    <glyph glyph-name="x" unicode="x" horiz-adv-x="635" 
d="M107 0h-101l257 267l-247 257h106l198 -215l198 215h101l-246 -257l256 -267h-106l-208 225z" />
    <glyph glyph-name="y" unicode="y" horiz-adv-x="618" 
d="M309 86l213 438h88l-276 -543q-43 -88 -90 -115q-47 -26 -146 -26h-46v67h57q63 0 95 18q31 19 61 76l4 7l-261 516h91z" />
    <glyph glyph-name="z" unicode="z" horiz-adv-x="638" 
d="M594 0h-550v50l431 409h-411v65h530v-50l-431 -409h431v-65z" />
    <glyph glyph-name="braceleft" unicode="{" horiz-adv-x="452" 
d="M219 614v-164q0 -74 -54 -100q54 -26 54 -100v-164q0 -62 28.5 -90.5t90.5 -28.5h78v-67h-92q-180 0 -180 180v176q0 62 -63 62h-45v63h45q63 0 63 63v176q0 180 180 180h92v-67h-78q-62 0 -90.5 -28.5t-28.5 -90.5z" />
    <glyph glyph-name="bar" unicode="|" horiz-adv-x="234" 
d="M82 -100v900h70v-900h-70z" />
    <glyph glyph-name="braceright" unicode="}" horiz-adv-x="452" 
d="M371 382h45v-63h-45q-63 0 -63 -63v-176q0 -180 -180 -180h-92v67h78q62 0 90.5 28.5t28.5 90.5v164q0 74 54 100q-54 25 -54 100v164q0 62 -28.5 90.5t-90.5 28.5h-78v67h92q180 0 180 -180v-176q0 -62 63 -62z" />
    <glyph glyph-name="asciitilde" unicode="~" 
d="M337 444l143 -160q17 -19 29 -24t36 -5h20q23 0 32 9t9 32v208h72v-216q0 -50 -21 -71t-71 -21h-51q-43 0 -65 11q-22 10 -55 49l-143 160q-17 19 -29 24t-36 5h-20q-23 0 -32 -9t-9 -32v-208h-72v216q0 50 21 71t71 21h51q41 0 65 -11q20 -9 55 -49z" />
    <glyph glyph-name="exclamdown" unicode="&#xa1;" horiz-adv-x="248" 
d="M72 700h104v-94h-104v94zM155 518l16 -518h-94l16 518h62z" />
    <glyph glyph-name="cent" unicode="&#xa2;" 
d="M676 542v-52h-80v42q0 58 -21 79t-79 21h-238q-58 0 -79 -21t-21 -79v-234q0 -58 21 -79t79 -21h238q58 0 79 21t21 79v51h80v-61q0 -85 -37 -121.5t-121 -36.5h-109v-100h-62v100h-113q-84 0 -121 36.5t-37 121.5v254q0 85 37 121.5t121 36.5h113v100h62v-100h109
q84 0 121 -36.5t37 -121.5z" />
    <glyph glyph-name="sterling" unicode="&#xa3;" horiz-adv-x="772" 
d="M696 522v-55h-80v48q0 65 -27 91.5t-91 26.5h-184q-63 0 -89.5 -27t-26.5 -91v-133h284v-55h-284v-258h338q44 0 62 18t18 62v71h80v-86q0 -69 -32.5 -101.5t-101.5 -32.5h-544v69h98v258h-108v55h108v140q0 93 43 135.5t135 42.5h224q92 0 135 -42.5t43 -135.5z" />
    <glyph glyph-name="currency" unicode="&#xa4;" 
d="M620 432v-164q0 -46 -16 -82l100 -100l-42 -42l-94 94q-43 -34 -112 -34h-160q-69 0 -112 34l-94 -94l-42 42l100 100q-16 36 -16 82v164q0 46 16 82l-100 100l42 42l94 -94q43 34 112 34h160q69 0 112 -34l94 94l42 -42l-100 -100q16 -36 16 -82zM312 170h128
q110 0 110 110v140q0 110 -110 110h-128q-110 0 -110 -110v-140q0 -110 110 -110z" />
    <glyph glyph-name="yen" unicode="&#xa5;" 
d="M627 700h91l-274 -399h244v-50h-271v-104h271v-50h-271v-97h-82v97h-271v50h271v104h-271v50h244l-274 399h96l249 -372z" />
    <glyph glyph-name="brokenbar" unicode="&#xa6;" horiz-adv-x="234" 
d="M82 484v316h70v-316h-70zM82 -100v316h70v-316h-70z" />
    <glyph glyph-name="section" unicode="&#xa7;" horiz-adv-x="914" 
d="M336 537l386 -43q70 -8 100 -37.5t30 -94.5v-70q0 -66 -29 -98t-91 -34q10 -23 10 -65v-61q0 -69 -32.5 -101.5t-101.5 -32.5h-292q-69 0 -101.5 32.5t-32.5 101.5v45h82v-34q0 -44 18 -62t62 -18h234q44 0 62 18t18 62v38q0 42 -17 58.5t-63 21.5l-386 43
q-70 8 -100 37.5t-30 94.5v70q0 66 29 98t91 34q-10 23 -10 65v61q0 69 32.5 101.5t101.5 32.5h292q69 0 101.5 -32.5t32.5 -101.5v-45h-82v34q0 44 -18 62t-62 18h-234q-44 0 -62 -18t-18 -62v-38q0 -42 17 -58.5t63 -21.5zM768 296v54q0 41 -16.5 57t-61.5 21l-386 43
q-28 3 -56 11h-24q-43 0 -60.5 -17.5t-17.5 -60.5v-54q0 -41 16.5 -57t61.5 -21l386 -43q28 -3 56 -11h24q43 0 60.5 17.5t17.5 60.5z" />
    <glyph glyph-name="dieresis" unicode="&#xa8;" horiz-adv-x="416" 
d="M140 594h-68v74h68v-74zM344 594h-68v74h68v-74z" />
    <glyph glyph-name="copyright" unicode="&#xa9;" horiz-adv-x="800" 
d="M540 0h-280q-105 0 -162.5 57t-57.5 163v260q0 106 57.5 163t162.5 57h280q105 0 162.5 -57t57.5 -163v-260q0 -106 -57.5 -163t-162.5 -57zM268 43h264q181 0 181 181v252q0 181 -181 181h-264q-181 0 -181 -181v-252q0 -181 181 -181zM507 134h-214q-59 0 -87 27.5
t-28 87.5v202q0 60 28 87.5t87 27.5h214q59 0 87 -27.5t28 -87.5v-41h-65v33q0 37 -14 51t-51 14h-183q-36 0 -50 -14t-14 -51v-186q0 -37 14 -51t50 -14h183q37 0 51 14t14 51v39h65v-47q0 -60 -28 -87.5t-87 -27.5z" />
    <glyph glyph-name="ordfeminine" unicode="&#xaa;" horiz-adv-x="403" 
d="M132 700h135q52 0 75 -22.5t23 -74.5v-218h-49l-8 44l-15 -11q-27 -21 -48.5 -27t-61.5 -6h-74q-74 0 -74 74v34q0 74 74 74h195v31q0 32 -11.5 43.5t-43.5 11.5h-97q-24 0 -34 -10t-10 -34v-11h-59v20q0 82 83 82zM273 450l31 21v55h-168q-23 0 -32 -9t-9 -32v-15
q0 -22 9.5 -31.5t31.5 -9.5h65q42 0 72 21z" />
    <glyph glyph-name="guillemotleft" unicode="&#xab;" horiz-adv-x="794" 
d="M56 322v54l312 204v-75l-249 -155l249 -155v-77zM426 376l312 204v-75l-249 -155l249 -155v-77l-312 204v54z" />
    <glyph glyph-name="logicalnot" unicode="&#xac;" 
d="M605 315h-531v70h604v-251h-73v181z" />
    <glyph glyph-name="uni00AD" unicode="&#xad;" horiz-adv-x="420" 
d="M54 315v70h312v-70h-312z" />
    <glyph glyph-name="registered" unicode="&#xae;" horiz-adv-x="391" 
d="M143 700h105q105 0 105 -105v-92q0 -105 -105 -105h-105q-105 0 -105 105v92q0 105 105 105zM319 505v88q0 42 -17 58.5t-58 16.5h-97q-41 0 -58 -16.5t-17 -58.5v-88q0 -41 17 -58t58 -17h97q41 0 58 17t17 58zM235 526h-2l44 -55h-39l-42 54h-35v-54h-35v155h109
q19 0 26.5 -8t7.5 -27v-30q0 -19 -7.5 -27t-26.5 -8zM222 596h-61v-41h61q8 0 10 2.5t2 10.5v15q0 8 -2 10.5t-10 2.5z" />
    <glyph glyph-name="overscore" unicode="&#xaf;" horiz-adv-x="520" 
d="M448 615h-376v51h376v-51z" />
    <glyph glyph-name="degree" unicode="&#xb0;" horiz-adv-x="424" 
d="M259 370h-94q-57 0 -88 31.5t-31 87.5v92q0 58 31 88.5t88 30.5h94q57 0 88 -30.5t31 -88.5v-92q0 -56 -31 -87.5t-88 -31.5zM174 424h76q71 0 71 70v82q0 37 -17 53.5t-54 16.5h-76q-37 0 -54 -16.5t-17 -53.5v-82q0 -70 71 -70z" />
    <glyph glyph-name="plusminus" unicode="&#xb1;" 
d="M414 668v-207h264v-66h-264v-207h-76v207h-264v66h264v207h76zM678 32h-604v66h604v-66z" />
    <glyph glyph-name="uni00B2" unicode="&#xb2;" horiz-adv-x="487" 
d="M423 341v-61h-365v127q0 42 20 62.5t65 27.5l174 27q23 4 32 13t9 31v34q0 22 -9 31.5t-32 9.5h-140q-23 0 -32.5 -9t-9.5 -32v-23h-69v36q0 85 85 85h193q44 0 64.5 -20.5t20.5 -64.5v-56q0 -42 -20 -62t-65 -27l-174 -27q-23 -4 -32 -13.5t-9 -30.5v-58h294z" />
    <glyph glyph-name="uni00B3" unicode="&#xb3;" horiz-adv-x="484" 
d="M384 500q45 -15 45 -76v-58q0 -45 -20.5 -65.5t-64.5 -20.5h-203q-44 0 -65 20.5t-21 65.5v51h70v-38q0 -23 8.5 -31.5t31.5 -8.5h152q23 0 31.5 8.5t8.5 31.5v52q0 23 -9 32t-31 9h-105v53h99q22 0 31 9t9 32v35q0 23 -8.5 32t-31.5 9h-140q-23 0 -31.5 -9t-8.5 -32v-32
h-70v46q0 44 21 64.5t65 20.5h191q44 0 64.5 -20.5t20.5 -64.5v-42q0 -59 -39 -73z" />
    <glyph glyph-name="acute" unicode="&#xb4;" horiz-adv-x="342" 
d="M270 700l-125 -122h-73l105 122h93z" />
    <glyph glyph-name="paragraph" unicode="&#xb6;" horiz-adv-x="806" 
d="M60 454v88q0 85 37 121.5t121 36.5h476v-700h-76v631h-196v-631h-76v296h-128q-84 0 -121 36.5t-37 121.5z" />
    <glyph glyph-name="middot" unicode="&#xb7;" horiz-adv-x="248" 
d="M176 300h-104v100h104v-100z" />
    <glyph glyph-name="cedilla" unicode="&#xb8;" horiz-adv-x="320" 
d="M213 -160h-157v40h143q15 0 15 15v17q0 15 -15 15h-105v18l28 75h40l-20 -54h71q28 0 39.5 -11.5t11.5 -39.5v-24q0 -28 -11.5 -39.5t-39.5 -11.5z" />
    <glyph glyph-name="uni00B9" unicode="&#xb9;" horiz-adv-x="451" 
d="M274 700v-360h136v-60h-369v60h161v295l-143 -14v61l182 18h33z" />
    <glyph glyph-name="ordmasculine" unicode="&#xba;" horiz-adv-x="405" 
d="M273 385h-141q-52 0 -74.5 22.5t-22.5 74.5v122q0 52 22.5 74t74.5 22h141q52 0 75 -22.5t23 -73.5v-122q0 -52 -23 -74.5t-75 -22.5zM151 437h104q32 0 43.5 12t11.5 44v100q0 32 -11.5 43.5t-43.5 11.5h-104q-32 0 -44 -11.5t-12 -43.5v-100q0 -32 12 -44t44 -12z" />
    <glyph glyph-name="guillemotright" unicode="&#xbb;" horiz-adv-x="794" 
d="M305 348l-249 155v77l312 -204v-54l-312 -204v75zM426 503v77l312 -204v-54l-312 -204v75l249 155z" />
    <glyph glyph-name="onequarter" unicode="&#xbc;" horiz-adv-x="1063" 
d="M274 340h136v-60h-369v60h161v295l-143 -14v61l182 18h33v-360zM278 0l550 700h63l-550 -700h-63zM930 155h93v-56h-93v-99h-69v99h-262v47l251 274h80v-265zM861 353l-180 -198h180v198z" />
    <glyph glyph-name="onehalf" unicode="&#xbd;" horiz-adv-x="1165" 
d="M274 340h136v-60h-369v60h161v295l-143 -14v61l182 18h33v-360zM278 0l550 700h63l-550 -700h-63zM1022 190l-173 -27q-23 -4 -32 -13.5t-9 -30.5v-58h293v-61h-365v127q0 42 20 62.5t66 27.5l173 27q24 4 32.5 13t8.5 31v34q0 22 -9 31.5t-32 9.5h-140q-23 0 -32 -9.5
t-9 -31.5v-23h-70v36q0 85 86 85h193q44 0 64.5 -20.5t20.5 -64.5v-56q0 -42 -20 -62t-66 -27z" />
    <glyph glyph-name="threequarters" unicode="&#xbe;" horiz-adv-x="1081" 
d="M432 424v-58q0 -86 -85 -86h-204q-44 0 -64.5 20.5t-20.5 65.5v51h69v-38q0 -22 9 -31t32 -9h151q23 0 32 8.5t9 31.5v52q0 23 -9 32t-32 9h-105v53h99q23 0 32 9t9 32v35q0 23 -9 32t-32 9h-139q-23 0 -32 -9t-9 -32v-32h-69v46q0 44 20.5 64.5t64.5 20.5h192
q85 0 85 -85v-42q0 -58 -39 -73q45 -15 45 -76zM276 0l550 700h63l-550 -700h-63zM947 155h93v-56h-93v-99h-69v99h-261v47l251 274h79v-265zM878 353l-180 -198h180v198z" />
    <glyph glyph-name="questiondown" unicode="&#xbf;" horiz-adv-x="670" 
d="M317 700h104v-88h-104v88zM330 524h78v-79q0 -62 -23 -91q-25 -30 -88 -46l-86 -21q-44 -11 -60.5 -30t-16.5 -60v-49q0 -44 18 -61.5t61 -17.5h246q43 0 61 17.5t18 61.5v44h80v-58q0 -69 -32.5 -101.5t-101.5 -32.5h-298q-69 0 -101.5 32.5t-32.5 101.5v69
q0 63 29 95.5t98 50.5l85 21q40 10 53 27.5t13 59.5v67z" />
    <glyph glyph-name="Agrave" unicode="&#xc0;" horiz-adv-x="785" 
d="M321 876l105 -122h-73l-125 122h93zM780 0h-94l-85 181h-419l-85 -181h-89l341 700h90zM392 626l-178 -378h355z" />
    <glyph glyph-name="Aacute" unicode="&#xc1;" horiz-adv-x="785" 
d="M467 876h93l-125 -122h-73zM780 0h-94l-85 181h-419l-85 -181h-89l341 700h90zM392 626l-178 -378h355z" />
    <glyph glyph-name="Acircumflex" unicode="&#xc2;" horiz-adv-x="785" 
d="M498 754l-104 82l-104 -82h-67l128 122h86l128 -122h-67zM780 0h-94l-85 181h-419l-85 -181h-89l341 700h90zM392 626l-178 -378h355z" />
    <glyph glyph-name="Atilde" unicode="&#xc3;" horiz-adv-x="785" 
d="M274 817v-63h-55v72q0 50 51 50h61q23 0 35.5 -5t28.5 -21l46 -43q13 -12 31 -12h25q17 0 17 18v63h55v-72q0 -50 -51 -50h-61q-23 0 -35.5 5t-28.5 21l-46 43q-14 12 -31 12h-25q-17 0 -17 -18zM780 0h-94l-85 181h-419l-85 -181h-89l341 700h90zM392 626l-178 -378h355
z" />
    <glyph glyph-name="Adieresis" unicode="&#xc4;" horiz-adv-x="785" 
d="M258 844h68v-74h-68v74zM462 844h68v-74h-68v74zM780 0h-94l-85 181h-419l-85 -181h-89l341 700h90zM392 626l-178 -378h355z" />
    <glyph glyph-name="Aring" unicode="&#xc5;" horiz-adv-x="785" 
d="M478 744h-168q-54 0 -54 54v24q0 54 54 54h168q54 0 54 -54v-24q0 -54 -54 -54zM300 818v-16q0 -13 4 -17.5t17 -4.5h146q13 0 17 4.5t4 17.5v16q0 13 -4 17.5t-17 4.5h-146q-13 0 -17 -4.5t-4 -17.5zM780 0h-94l-85 181h-419l-85 -181h-89l341 700h90zM392 626
l-178 -378h355z" />
    <glyph glyph-name="AE" unicode="&#xc6;" horiz-adv-x="1082" 
d="M610 333l120 -262h316v-71h-378l-79 179h-408l-84 -179h-89l341 700h687v-71h-561l105 -229h416v-67h-386zM391 626l-178 -380h346z" />
    <glyph glyph-name="Ccedilla" unicode="&#xc7;" horiz-adv-x="769" 
d="M710 522v-67h-82v55q0 65 -26.5 91.5t-91.5 26.5h-246q-64 0 -91 -27t-27 -91v-320q0 -64 27 -91t91 -27h246q65 0 91.5 26.5t26.5 91.5v64h82v-76q0 -93 -43 -135.5t-135 -42.5h-135l-13 -34h71q28 0 39.5 -11.5t11.5 -39.5v-24q0 -28 -11.5 -39.5t-39.5 -11.5h-157v40
h143q15 0 15 15v17q0 15 -15 15h-105v18l21 55h-117q-92 0 -135 42.5t-43 135.5v344q0 93 43 135.5t135 42.5h292q92 0 135 -42.5t43 -135.5z" />
    <glyph glyph-name="Egrave" unicode="&#xc8;" horiz-adv-x="674" 
d="M264 876l105 -122h-73l-125 122h93zM156 333v-262h482v-71h-566v700h556v-71h-472v-229h432v-67h-432z" />
    <glyph glyph-name="Eacute" unicode="&#xc9;" horiz-adv-x="674" 
d="M410 876h93l-125 -122h-73zM156 333v-262h482v-71h-566v700h556v-71h-472v-229h432v-67h-432z" />
    <glyph glyph-name="Ecircumflex" unicode="&#xca;" horiz-adv-x="674" 
d="M441 754l-104 82l-104 -82h-67l128 122h86l128 -122h-67zM156 333v-262h482v-71h-566v700h556v-71h-472v-229h432v-67h-432z" />
    <glyph glyph-name="Edieresis" unicode="&#xcb;" horiz-adv-x="674" 
d="M201 844h68v-74h-68v74zM405 844h68v-74h-68v74zM156 333v-262h482v-71h-566v700h556v-71h-472v-229h432v-67h-432z" />
    <glyph glyph-name="Igrave" unicode="&#xcc;" horiz-adv-x="240" 
d="M152 754h-73l-125 122h93zM78 0v700h84v-700h-84z" />
    <glyph glyph-name="Iacute" unicode="&#xcd;" horiz-adv-x="240" 
d="M286 876l-125 -122h-73l105 122h93zM78 0v700h84v-700h-84z" />
    <glyph glyph-name="Icircumflex" unicode="&#xce;" horiz-adv-x="240" 
d="M16 754h-67l128 122h86l128 -122h-67l-104 82zM78 0v700h84v-700h-84z" />
    <glyph glyph-name="Idieresis" unicode="&#xcf;" horiz-adv-x="240" 
d="M52 770h-68v74h68v-74zM256 770h-68v74h68v-74zM78 0v700h84v-700h-84z" />
    <glyph glyph-name="Eth" unicode="&#xd0;" horiz-adv-x="854" 
d="M132 700h440q108 0 164 -56t56 -164v-260q0 -108 -56 -164t-164 -56h-440v321h-96v58h96v321zM708 225v250q0 152 -152 152h-340v-248h258v-58h-258v-248h340q152 0 152 152z" />
    <glyph glyph-name="Ntilde" unicode="&#xd1;" horiz-adv-x="804" 
d="M280 817v-63h-55v72q0 50 51 50h61q23 0 35.5 -5t28.5 -21l46 -43q13 -12 31 -12h25q17 0 17 18v63h55v-72q0 -50 -51 -50h-61q-23 0 -35.5 5t-28.5 21l-46 43q-13 12 -31 12h-25q-17 0 -17 -18zM650 132v568h82v-700h-66l-512 574v-574h-82v700h71z" />
    <glyph glyph-name="Ograve" unicode="&#xd2;" horiz-adv-x="795" 
d="M429 754h-73l-125 122h93zM554 0h-314q-92 0 -135 42.5t-43 135.5v344q0 93 43 135.5t135 42.5h314q92 0 135 -42.5t43 -135.5v-344q0 -93 -43 -135.5t-135 -42.5zM264 73h266q65 0 91.5 26.5t26.5 91.5v318q0 65 -26.5 91.5t-91.5 26.5h-266q-64 0 -91 -26.5t-27 -91.5
v-318q0 -65 27 -91.5t91 -26.5z" />
    <glyph glyph-name="Oacute" unicode="&#xd3;" horiz-adv-x="795" 
d="M563 876l-125 -122h-73l105 122h93zM554 0h-314q-92 0 -135 42.5t-43 135.5v344q0 93 43 135.5t135 42.5h314q92 0 135 -42.5t43 -135.5v-344q0 -93 -43 -135.5t-135 -42.5zM264 73h266q65 0 91.5 26.5t26.5 91.5v318q0 65 -26.5 91.5t-91.5 26.5h-266q-64 0 -91 -26.5
t-27 -91.5v-318q0 -65 27 -91.5t91 -26.5z" />
    <glyph glyph-name="Ocircumflex" unicode="&#xd4;" horiz-adv-x="795" 
d="M293 754h-67l128 122h86l128 -122h-67l-104 82zM554 0h-314q-92 0 -135 42.5t-43 135.5v344q0 93 43 135.5t135 42.5h314q92 0 135 -42.5t43 -135.5v-344q0 -93 -43 -135.5t-135 -42.5zM264 73h266q65 0 91.5 26.5t26.5 91.5v318q0 65 -26.5 91.5t-91.5 26.5h-266
q-64 0 -91 -26.5t-27 -91.5v-318q0 -65 27 -91.5t91 -26.5z" />
    <glyph glyph-name="Otilde" unicode="&#xd5;" horiz-adv-x="795" 
d="M277 754h-55v72q0 50 51 50h61q23 0 35.5 -5t28.5 -21l46 -43q13 -12 31 -12h25q17 0 17 18v63h55v-72q0 -50 -51 -50h-61q-23 0 -35.5 5t-28.5 21l-46 43q-14 12 -31 12h-25q-17 0 -17 -18v-63zM554 0h-314q-92 0 -135 42.5t-43 135.5v344q0 93 43 135.5t135 42.5h314
q92 0 135 -42.5t43 -135.5v-344q0 -93 -43 -135.5t-135 -42.5zM264 73h266q65 0 91.5 26.5t26.5 91.5v318q0 65 -26.5 91.5t-91.5 26.5h-266q-64 0 -91 -26.5t-27 -91.5v-318q0 -65 27 -91.5t91 -26.5z" />
    <glyph glyph-name="Odieresis" unicode="&#xd6;" horiz-adv-x="795" 
d="M329 770h-68v74h68v-74zM533 770h-68v74h68v-74zM554 0h-314q-92 0 -135 42.5t-43 135.5v344q0 93 43 135.5t135 42.5h314q92 0 135 -42.5t43 -135.5v-344q0 -93 -43 -135.5t-135 -42.5zM264 73h266q65 0 91.5 26.5t26.5 91.5v318q0 65 -26.5 91.5t-91.5 26.5h-266
q-64 0 -91 -26.5t-27 -91.5v-318q0 -65 27 -91.5t91 -26.5z" />
    <glyph glyph-name="multiply" unicode="&#xd7;" 
d="M605 628l49 -49l-229 -229l229 -229l-49 -49l-229 229l-229 -229l-49 49l229 229l-229 229l49 49l229 -229z" />
    <glyph glyph-name="Oslash" unicode="&#xd8;" horiz-adv-x="795" 
d="M694 730h68l-68 -78q38 -43 38 -130v-344q0 -93 -43 -135.5t-135 -42.5h-314q-59 0 -98 18l-42 -48h-68l68 78q-38 43 -38 130v344q0 93 43 135.5t135 42.5h314q59 0 98 -18zM144 511v-322q0 -48 14 -74l440 504q-23 10 -65 10h-271q-65 0 -91.5 -26.5t-26.5 -91.5z
M651 189v322q0 49 -15 75l-439 -505q23 -10 65 -10h271q65 0 91.5 26.5t26.5 91.5z" />
    <glyph glyph-name="Ugrave" unicode="&#xd9;" horiz-adv-x="766" 
d="M415 754h-73l-125 122h93zM525 0h-284q-92 0 -135 42.5t-43 135.5v522h84v-509q0 -65 26.5 -91.5t91.5 -26.5h236q65 0 91.5 26.5t26.5 91.5v509h84v-522q0 -93 -43 -135.5t-135 -42.5z" />
    <glyph glyph-name="Uacute" unicode="&#xda;" horiz-adv-x="766" 
d="M549 876l-125 -122h-73l105 122h93zM525 0h-284q-92 0 -135 42.5t-43 135.5v522h84v-509q0 -65 26.5 -91.5t91.5 -26.5h236q65 0 91.5 26.5t26.5 91.5v509h84v-522q0 -93 -43 -135.5t-135 -42.5z" />
    <glyph glyph-name="Ucircumflex" unicode="&#xdb;" horiz-adv-x="766" 
d="M279 754h-67l128 122h86l128 -122h-67l-104 82zM525 0h-284q-92 0 -135 42.5t-43 135.5v522h84v-509q0 -65 26.5 -91.5t91.5 -26.5h236q65 0 91.5 26.5t26.5 91.5v509h84v-522q0 -93 -43 -135.5t-135 -42.5z" />
    <glyph glyph-name="Udieresis" unicode="&#xdc;" horiz-adv-x="766" 
d="M315 770h-68v74h68v-74zM519 770h-68v74h68v-74zM525 0h-284q-92 0 -135 42.5t-43 135.5v522h84v-509q0 -65 26.5 -91.5t91.5 -26.5h236q65 0 91.5 26.5t26.5 91.5v509h84v-522q0 -93 -43 -135.5t-135 -42.5z" />
    <glyph glyph-name="Yacute" unicode="&#xdd;" horiz-adv-x="712" 
d="M429 876h93l-125 -122h-73zM619 700h95l-316 -439v-261h-84v261l-316 439h99l262 -372z" />
    <glyph glyph-name="Thorn" unicode="&#xde;" horiz-adv-x="728" 
d="M156 580h378q84 0 121 -36.5t37 -121.5v-124q0 -85 -37 -121.5t-121 -36.5h-378v-140h-84v700h84v-120zM608 307v104q0 58 -21 79t-79 21h-352v-304h352q58 0 79 21t21 79z" />
    <glyph glyph-name="germandbls" unicode="&#xdf;" horiz-adv-x="686" 
d="M547 370q79 -21 79 -124v-112q0 -69 -33 -101.5t-101 -32.5h-170v67h143q44 0 62 18t18 62v109q0 44 -18 62t-62 18h-143v61h123q43 0 61.5 18.5t18.5 61.5v76q0 44 -18 62t-62 18h-213q-44 0 -62 -18t-18 -62v-553h-80v566q0 69 32.5 101.5t101.5 32.5h266
q68 0 101 -32.5t33 -101.5v-79q0 -90 -59 -117z" />
    <glyph glyph-name="agrave" unicode="&#xe0;" horiz-adv-x="670" 
d="M270 700l105 -122h-73l-125 122h93zM220 524h224q84 0 121 -36.5t37 -121.5v-366h-65l-11 76l-34 -24q-47 -33 -80 -42q-33 -10 -101 -10h-127q-122 0 -122 122v51q0 122 122 122h337v66q0 58 -21 79.5t-79 21.5h-176q-44 0 -62 -18t-18 -62v-24h-79v32q0 69 32.5 101.5
t101.5 32.5zM464 96l57 39v106h-305q-40 0 -56.5 -16.5t-16.5 -56.5v-35q0 -41 16.5 -57t56.5 -16h118q79 0 130 36z" />
    <glyph glyph-name="aacute" unicode="&#xe1;" horiz-adv-x="670" 
d="M416 700h93l-125 -122h-73zM220 524h224q84 0 121 -36.5t37 -121.5v-366h-65l-11 76l-34 -24q-47 -33 -80 -42q-33 -10 -101 -10h-127q-122 0 -122 122v51q0 122 122 122h337v66q0 58 -21 79.5t-79 21.5h-176q-44 0 -62 -18t-18 -62v-24h-79v32q0 69 32.5 101.5
t101.5 32.5zM464 96l57 39v106h-305q-40 0 -56.5 -16.5t-16.5 -56.5v-35q0 -41 16.5 -57t56.5 -16h118q79 0 130 36z" />
    <glyph glyph-name="acircumflex" unicode="&#xe2;" horiz-adv-x="670" 
d="M447 578l-104 82l-104 -82h-67l128 122h86l128 -122h-67zM220 524h224q84 0 121 -36.5t37 -121.5v-366h-65l-11 76l-34 -24q-47 -33 -80 -42q-33 -10 -101 -10h-127q-122 0 -122 122v51q0 122 122 122h337v66q0 58 -21 79.5t-79 21.5h-176q-44 0 -62 -18t-18 -62v-24h-79
v32q0 69 32.5 101.5t101.5 32.5zM464 96l57 39v106h-305q-40 0 -56.5 -16.5t-16.5 -56.5v-35q0 -41 16.5 -57t56.5 -16h118q79 0 130 36z" />
    <glyph glyph-name="atilde" unicode="&#xe3;" horiz-adv-x="670" 
d="M223 641v-63h-55v72q0 50 51 50h61q23 0 35.5 -5t28.5 -21l46 -43q14 -12 31 -12h25q17 0 17 18v63h55v-72q0 -50 -51 -50h-61q-23 0 -35.5 5t-28.5 21l-46 43q-14 12 -31 12h-25q-17 0 -17 -18zM220 524h224q84 0 121 -36.5t37 -121.5v-366h-65l-11 76l-34 -24
q-47 -33 -80 -42q-33 -10 -101 -10h-127q-122 0 -122 122v51q0 122 122 122h337v66q0 58 -21 79.5t-79 21.5h-176q-44 0 -62 -18t-18 -62v-24h-79v32q0 69 32.5 101.5t101.5 32.5zM464 96l57 39v106h-305q-40 0 -56.5 -16.5t-16.5 -56.5v-35q0 -41 16.5 -57t56.5 -16h118
q79 0 130 36z" />
    <glyph glyph-name="adieresis" unicode="&#xe4;" horiz-adv-x="670" 
d="M207 668h68v-74h-68v74zM411 668h68v-74h-68v74zM220 524h224q84 0 121 -36.5t37 -121.5v-366h-65l-11 76l-34 -24q-47 -33 -80 -42q-33 -10 -101 -10h-127q-122 0 -122 122v51q0 122 122 122h337v66q0 58 -21 79.5t-79 21.5h-176q-44 0 -62 -18t-18 -62v-24h-79v32
q0 69 32.5 101.5t101.5 32.5zM464 96l57 39v106h-305q-40 0 -56.5 -16.5t-16.5 -56.5v-35q0 -41 16.5 -57t56.5 -16h118q79 0 130 36z" />
    <glyph glyph-name="aring" unicode="&#xe5;" horiz-adv-x="670" 
d="M427 568h-168q-29 0 -41.5 13t-12.5 41v24q0 28 12.5 41t41.5 13h168q29 0 41.5 -13t12.5 -41v-24q0 -28 -12.5 -41t-41.5 -13zM249 642v-16q0 -13 4 -17.5t17 -4.5h146q13 0 17 4.5t4 17.5v16q0 13 -4 17.5t-17 4.5h-146q-13 0 -17 -4.5t-4 -17.5zM220 524h224
q84 0 121 -36.5t37 -121.5v-366h-65l-11 76l-34 -24q-47 -33 -80 -42q-33 -10 -101 -10h-127q-122 0 -122 122v51q0 122 122 122h337v66q0 58 -21 79.5t-79 21.5h-176q-44 0 -62 -18t-18 -62v-24h-79v32q0 69 32.5 101.5t101.5 32.5zM464 96l57 39v106h-305
q-40 0 -56.5 -16.5t-16.5 -56.5v-35q0 -41 16.5 -57t56.5 -16h118q79 0 130 36z" />
    <glyph glyph-name="ae" unicode="&#xe6;" horiz-adv-x="1123" 
d="M694 524h209q84 0 121 -36.5t37 -121.5v-108h-459v-92q0 -58 21 -79t79 -21h200q44 0 62 18t18 62v33h79v-45q0 -69 -32.5 -101.5t-101.5 -32.5h-241q-118 0 -146 76l-34 -24q-47 -33 -80 -42q-33 -10 -101 -10h-141q-122 0 -122 122v51q0 122 122 122h337v66
q0 58 -21 79.5t-79 21.5h-176q-44 0 -62 -18t-18 -62v-24h-79v32q0 69 32.5 101.5t101.5 32.5h209q101 0 133 -59q30 59 132 59zM602 361v-47h380v47q0 58 -21 79t-79 21h-180q-58 0 -79 -21t-21 -79zM464 96l57 39v106h-305q-40 0 -56.5 -16.5t-16.5 -56.5v-35
q0 -41 16.5 -57t56.5 -16h118q79 0 130 36z" />
    <glyph glyph-name="ccedilla" unicode="&#xe7;" horiz-adv-x="652" 
d="M590 366v-37h-79v27q0 58 -21 79.5t-79 21.5h-168q-58 0 -79 -21.5t-21 -79.5v-188q0 -58 21 -79.5t79 -21.5h168q58 0 79 21.5t21 79.5v36h79v-46q0 -85 -37 -121.5t-121 -36.5h-94l-13 -34h71q28 0 39.5 -11.5t11.5 -39.5v-24q0 -28 -11.5 -39.5t-39.5 -11.5h-157v40
h143q15 0 15 15v17q0 15 -15 15h-105v18l21 55h-78q-84 0 -121 36.5t-37 121.5v208q0 85 37 121.5t121 36.5h212q84 0 121 -36.5t37 -121.5z" />
    <glyph glyph-name="egrave" unicode="&#xe8;" horiz-adv-x="664" 
d="M259 700l105 -122h-73l-125 122h93zM220 524h224q84 0 121 -36.5t37 -121.5v-108h-459v-92q0 -58 21 -79t79 -21h200q44 0 62 18t18 62v33h79v-45q0 -69 -32.5 -101.5t-101.5 -32.5h-248q-84 0 -121 36.5t-37 121.5v208q0 85 37 121.5t121 36.5zM143 361v-47h380v47
q0 58 -21 79t-79 21h-180q-58 0 -79 -21t-21 -79z" />
    <glyph glyph-name="eacute" unicode="&#xe9;" horiz-adv-x="664" 
d="M405 700h93l-125 -122h-73zM220 524h224q84 0 121 -36.5t37 -121.5v-108h-459v-92q0 -58 21 -79t79 -21h200q44 0 62 18t18 62v33h79v-45q0 -69 -32.5 -101.5t-101.5 -32.5h-248q-84 0 -121 36.5t-37 121.5v208q0 85 37 121.5t121 36.5zM143 361v-47h380v47q0 58 -21 79
t-79 21h-180q-58 0 -79 -21t-21 -79z" />
    <glyph glyph-name="ecircumflex" unicode="&#xea;" horiz-adv-x="664" 
d="M436 578l-104 82l-104 -82h-67l128 122h86l128 -122h-67zM220 524h224q84 0 121 -36.5t37 -121.5v-108h-459v-92q0 -58 21 -79t79 -21h200q44 0 62 18t18 62v33h79v-45q0 -69 -32.5 -101.5t-101.5 -32.5h-248q-84 0 -121 36.5t-37 121.5v208q0 85 37 121.5t121 36.5z
M143 361v-47h380v47q0 58 -21 79t-79 21h-180q-58 0 -79 -21t-21 -79z" />
    <glyph glyph-name="edieresis" unicode="&#xeb;" horiz-adv-x="664" 
d="M196 668h68v-74h-68v74zM400 668h68v-74h-68v74zM220 524h224q84 0 121 -36.5t37 -121.5v-108h-459v-92q0 -58 21 -79t79 -21h200q44 0 62 18t18 62v33h79v-45q0 -69 -32.5 -101.5t-101.5 -32.5h-248q-84 0 -121 36.5t-37 121.5v208q0 85 37 121.5t121 36.5zM143 361v-47
h380v47q0 58 -21 79t-79 21h-180q-58 0 -79 -21t-21 -79z" />
    <glyph glyph-name="igrave" unicode="&#xec;" horiz-adv-x="233" 
d="M148 578h-73l-125 122h93zM157 0h-81v524h81v-524z" />
    <glyph glyph-name="iacute" unicode="&#xed;" horiz-adv-x="233" 
d="M282 700l-125 -122h-73l105 122h93zM157 0h-81v524h81v-524z" />
    <glyph glyph-name="icircumflex" unicode="&#xee;" horiz-adv-x="233" 
d="M12 578h-67l128 122h86l128 -122h-67l-104 82zM157 0h-81v524h81v-524z" />
    <glyph glyph-name="idieresis" unicode="&#xef;" horiz-adv-x="233" 
d="M48 594h-68v74h68v-74zM252 594h-68v74h68v-74zM157 0h-81v524h81v-524z" />
    <glyph glyph-name="eth" unicode="&#xf0;" horiz-adv-x="674" 
d="M385 700h49q92 0 135 -42.5t43 -135.5v-388q0 -69 -32.5 -101.5t-101.5 -32.5h-282q-69 0 -101.5 32.5t-32.5 101.5v150q0 69 32.5 101.5t101.5 32.5h234q69 0 101 -35v134q0 65 -26.5 91.5t-91.5 26.5h-60l-39 -79h-54l39 79h-157v65h189l29 60h54zM531 145v129
q0 44 -18 62t-62 18h-228q-44 0 -62 -18t-18 -62v-129q0 -44 18 -62t62 -18h228q44 0 62 18t18 62z" />
    <glyph glyph-name="ntilde" unicode="&#xf1;" horiz-adv-x="679" 
d="M220 641v-63h-55v72q0 50 51 50h61q23 0 35.5 -5t28.5 -21l46 -43q13 -12 31 -12h25q17 0 17 18v63h55v-72q0 -50 -51 -50h-61q-23 0 -35.5 5t-28.5 21l-46 43q-13 12 -31 12h-25q-17 0 -17 -18zM381 524h73q84 0 121 -36.5t37 -121.5v-366h-81v355q0 58 -21.5 79.5
t-79.5 21.5h-73q-97 0 -156 -41l-49 -35v-380h-80v524h64l11 -78l26 19q50 38 91 48q44 11 117 11z" />
    <glyph glyph-name="ograve" unicode="&#xf2;" horiz-adv-x="674" 
d="M369 578h-73l-125 122h93zM454 0h-234q-84 0 -121 36.5t-37 121.5v208q0 85 37 121.5t121 36.5h234q84 0 121 -36.5t37 -121.5v-208q0 -85 -37 -121.5t-121 -36.5zM243 67h188q58 0 79 21.5t21 79.5v188q0 58 -21 79.5t-79 21.5h-188q-58 0 -79 -21.5t-21 -79.5v-188
q0 -58 21 -79.5t79 -21.5z" />
    <glyph glyph-name="oacute" unicode="&#xf3;" horiz-adv-x="674" 
d="M503 700l-125 -122h-73l105 122h93zM454 0h-234q-84 0 -121 36.5t-37 121.5v208q0 85 37 121.5t121 36.5h234q84 0 121 -36.5t37 -121.5v-208q0 -85 -37 -121.5t-121 -36.5zM243 67h188q58 0 79 21.5t21 79.5v188q0 58 -21 79.5t-79 21.5h-188q-58 0 -79 -21.5t-21 -79.5
v-188q0 -58 21 -79.5t79 -21.5z" />
    <glyph glyph-name="ocircumflex" unicode="&#xf4;" horiz-adv-x="674" 
d="M233 578h-67l128 122h86l128 -122h-67l-104 82zM454 0h-234q-84 0 -121 36.5t-37 121.5v208q0 85 37 121.5t121 36.5h234q84 0 121 -36.5t37 -121.5v-208q0 -85 -37 -121.5t-121 -36.5zM243 67h188q58 0 79 21.5t21 79.5v188q0 58 -21 79.5t-79 21.5h-188
q-58 0 -79 -21.5t-21 -79.5v-188q0 -58 21 -79.5t79 -21.5z" />
    <glyph glyph-name="otilde" unicode="&#xf5;" horiz-adv-x="674" 
d="M217 578h-55v72q0 50 51 50h61q23 0 35.5 -5t28.5 -21l46 -43q13 -12 31 -12h25q17 0 17 18v63h55v-72q0 -50 -51 -50h-61q-23 0 -35.5 5t-28.5 21l-46 43q-13 12 -31 12h-25q-17 0 -17 -18v-63zM454 0h-234q-84 0 -121 36.5t-37 121.5v208q0 85 37 121.5t121 36.5h234
q84 0 121 -36.5t37 -121.5v-208q0 -85 -37 -121.5t-121 -36.5zM243 67h188q58 0 79 21.5t21 79.5v188q0 58 -21 79.5t-79 21.5h-188q-58 0 -79 -21.5t-21 -79.5v-188q0 -58 21 -79.5t79 -21.5z" />
    <glyph glyph-name="odieresis" unicode="&#xf6;" horiz-adv-x="674" 
d="M269 594h-68v74h68v-74zM473 594h-68v74h68v-74zM454 0h-234q-84 0 -121 36.5t-37 121.5v208q0 85 37 121.5t121 36.5h234q84 0 121 -36.5t37 -121.5v-208q0 -85 -37 -121.5t-121 -36.5zM243 67h188q58 0 79 21.5t21 79.5v188q0 58 -21 79.5t-79 21.5h-188
q-58 0 -79 -21.5t-21 -79.5v-188q0 -58 21 -79.5t79 -21.5z" />
    <glyph glyph-name="divide" unicode="&#xf7;" 
d="M428 550h-104v86h104v-86zM74 315v70h604v-70h-604zM428 64h-104v86h104v-86z" />
    <glyph glyph-name="oslash" unicode="&#xf8;" horiz-adv-x="674" 
d="M642 562l-67 -74q37 -37 37 -122v-208q0 -85 -37 -121.5t-121 -36.5h-234q-48 0 -78 11l-44 -49h-66l67 74q-37 37 -37 122v208q0 85 37 121.5t121 36.5h234q48 0 78 -11l44 49h66zM137 360v-196q0 -48 14 -71l330 364q-15 4 -44 4h-200q-58 0 -79 -21.5t-21 -79.5z
M537 164v196q0 48 -14 71l-330 -364q15 -4 44 -4h200q58 0 79 21.5t21 79.5z" />
    <glyph glyph-name="ugrave" unicode="&#xf9;" horiz-adv-x="679" 
d="M263 700l105 -122h-73l-125 122h93zM527 524h80v-524h-64l-11 78l-26 -19q-50 -38 -91 -48q-44 -11 -117 -11h-73q-84 0 -121 36.5t-37 121.5v366h81v-355q0 -58 21.5 -79.5t79.5 -21.5h73q97 0 156 41l49 35v380z" />
    <glyph glyph-name="uacute" unicode="&#xfa;" horiz-adv-x="679" 
d="M409 700h93l-125 -122h-73zM527 524h80v-524h-64l-11 78l-26 -19q-50 -38 -91 -48q-44 -11 -117 -11h-73q-84 0 -121 36.5t-37 121.5v366h81v-355q0 -58 21.5 -79.5t79.5 -21.5h73q97 0 156 41l49 35v380z" />
    <glyph glyph-name="ucircumflex" unicode="&#xfb;" horiz-adv-x="679" 
d="M440 578l-104 82l-104 -82h-67l128 122h86l128 -122h-67zM527 524h80v-524h-64l-11 78l-26 -19q-50 -38 -91 -48q-44 -11 -117 -11h-73q-84 0 -121 36.5t-37 121.5v366h81v-355q0 -58 21.5 -79.5t79.5 -21.5h73q97 0 156 41l49 35v380z" />
    <glyph glyph-name="udieresis" unicode="&#xfc;" horiz-adv-x="679" 
d="M200 668h68v-74h-68v74zM404 668h68v-74h-68v74zM527 524h80v-524h-64l-11 78l-26 -19q-50 -38 -91 -48q-44 -11 -117 -11h-73q-84 0 -121 36.5t-37 121.5v366h81v-355q0 -58 21.5 -79.5t79.5 -21.5h73q97 0 156 41l49 35v380z" />
    <glyph glyph-name="yacute" unicode="&#xfd;" horiz-adv-x="618" 
d="M382 700h93l-125 -122h-73zM309 86l213 438h88l-276 -543q-43 -88 -90 -115q-47 -26 -146 -26h-46v67h57q63 0 95 18q31 19 61 76l4 7l-261 516h91z" />
    <glyph glyph-name="thorn" unicode="&#xfe;" horiz-adv-x="684" 
d="M381 524h83q84 0 121 -36.5t37 -121.5v-208q0 -85 -37 -121.5t-121 -36.5h-83q-73 0 -117 11q-41 10 -91 48l-21 15v-234h-80v860h80v-250l21 15q50 38 91 48q44 11 117 11zM541 168v188q0 58 -21.5 79.5t-79.5 21.5h-83q-97 0 -156 -41l-49 -35v-238l49 -35
q59 -41 156 -41h83q58 0 79.5 21.5t21.5 79.5z" />
    <glyph glyph-name="ydieresis" unicode="&#xff;" horiz-adv-x="618" 
d="M173 668h68v-74h-68v74zM377 668h68v-74h-68v74zM309 86l213 438h88l-276 -543q-43 -88 -90 -115q-47 -26 -146 -26h-46v67h57q63 0 95 18q31 19 61 76l4 7l-261 516h91z" />
    <glyph glyph-name="Amacron" unicode="&#x100;" horiz-adv-x="785" 
d="M206 842h376v-51h-376v51zM780 0h-94l-85 181h-419l-85 -181h-89l341 700h90zM392 626l-178 -378h355z" />
    <glyph glyph-name="amacron" unicode="&#x101;" horiz-adv-x="670" 
d="M155 666h376v-51h-376v51zM220 524h224q84 0 121 -36.5t37 -121.5v-366h-65l-11 76l-34 -24q-47 -33 -80 -42q-33 -10 -101 -10h-127q-122 0 -122 122v51q0 122 122 122h337v66q0 58 -21 79.5t-79 21.5h-176q-44 0 -62 -18t-18 -62v-24h-79v32q0 69 32.5 101.5
t101.5 32.5zM464 96l57 39v106h-305q-40 0 -56.5 -16.5t-16.5 -56.5v-35q0 -41 16.5 -57t56.5 -16h118q79 0 130 36z" />
    <glyph glyph-name="Abreve" unicode="&#x102;" horiz-adv-x="785" 
d="M497 754h-206q-72 0 -72 72v50h62v-42q0 -33 33 -33h160q33 0 33 33v42h62v-50q0 -72 -72 -72zM780 0h-94l-85 181h-419l-85 -181h-89l341 700h90zM392 626l-178 -378h355z" />
    <glyph glyph-name="abreve" unicode="&#x103;" horiz-adv-x="670" 
d="M446 578h-206q-72 0 -72 72v50h62v-42q0 -33 33 -33h160q33 0 33 33v42h62v-50q0 -72 -72 -72zM220 524h224q84 0 121 -36.5t37 -121.5v-366h-65l-11 76l-34 -24q-47 -33 -80 -42q-33 -10 -101 -10h-127q-122 0 -122 122v51q0 122 122 122h337v66q0 58 -21 79.5t-79 21.5
h-176q-44 0 -62 -18t-18 -62v-24h-79v32q0 69 32.5 101.5t101.5 32.5zM464 96l57 39v106h-305q-40 0 -56.5 -16.5t-16.5 -56.5v-35q0 -41 16.5 -57t56.5 -16h118q79 0 130 36z" />
    <glyph glyph-name="Aogonek" unicode="&#x104;" horiz-adv-x="785" 
d="M715 -108h101v-52h-118q-41 0 -59.5 18.5t-18.5 59.5v15q0 33 8.5 48t38.5 33l10 5l-76 162h-419l-85 -181h-89l341 700h90l341 -700h-56l-20 -12q-17 -9 -21.5 -17t-4.5 -26v-16q0 -20 8.5 -28.5t28.5 -8.5zM392 626l-178 -378h355z" />
    <glyph glyph-name="aogonek" unicode="&#x105;" horiz-adv-x="670" 
d="M563 -108h89v-52h-106q-41 0 -59.5 18.5t-18.5 59.5v15q0 33 8 48t38 33l19 11l-7 51l-34 -24q-47 -33 -80 -42q-33 -10 -101 -10h-127q-122 0 -122 122v51q0 122 122 122h337v66q0 58 -21 79.5t-79 21.5h-176q-44 0 -62 -18t-18 -62v-24h-79v32q0 69 32.5 101.5
t101.5 32.5h224q84 0 121 -36.5t37 -121.5v-366h-31l-19 -12q-17 -9 -21.5 -17t-4.5 -26v-16q0 -20 8 -28.5t29 -8.5zM464 96l57 39v106h-305q-40 0 -56.5 -16.5t-16.5 -56.5v-35q0 -41 16.5 -57t56.5 -16h118q79 0 130 36z" />
    <glyph glyph-name="Cacute" unicode="&#x106;" horiz-adv-x="769" 
d="M551 876l-125 -122h-73l105 122h93zM532 0h-292q-92 0 -135 42.5t-43 135.5v344q0 93 43 135.5t135 42.5h292q92 0 135 -42.5t43 -135.5v-67h-82v55q0 65 -26.5 91.5t-91.5 26.5h-246q-64 0 -91 -27t-27 -91v-320q0 -64 27 -91t91 -27h246q65 0 91.5 26.5t26.5 91.5v64
h82v-76q0 -93 -43 -135.5t-135 -42.5z" />
    <glyph glyph-name="cacute" unicode="&#x107;" horiz-adv-x="652" 
d="M492 700l-125 -122h-73l105 122h93zM62 158v208q0 85 37 121.5t121 36.5h212q84 0 121 -36.5t37 -121.5v-37h-79v27q0 58 -21 79.5t-79 21.5h-168q-58 0 -79 -21.5t-21 -79.5v-188q0 -58 21 -79.5t79 -21.5h168q58 0 79 21.5t21 79.5v36h79v-46q0 -85 -37 -121.5
t-121 -36.5h-212q-84 0 -121 36.5t-37 121.5z" />
    <glyph glyph-name="Ccircumflex" unicode="&#x108;" horiz-adv-x="769" 
d="M281 754h-67l128 122h86l128 -122h-67l-104 82zM532 0h-292q-92 0 -135 42.5t-43 135.5v344q0 93 43 135.5t135 42.5h292q92 0 135 -42.5t43 -135.5v-67h-82v55q0 65 -26.5 91.5t-91.5 26.5h-246q-64 0 -91 -27t-27 -91v-320q0 -64 27 -91t91 -27h246q65 0 91.5 26.5
t26.5 91.5v64h82v-76q0 -93 -43 -135.5t-135 -42.5z" />
    <glyph glyph-name="ccircumflex" unicode="&#x109;" horiz-adv-x="652" 
d="M222 578h-67l128 122h86l128 -122h-67l-104 82zM62 158v208q0 85 37 121.5t121 36.5h212q84 0 121 -36.5t37 -121.5v-37h-79v27q0 58 -21 79.5t-79 21.5h-168q-58 0 -79 -21.5t-21 -79.5v-188q0 -58 21 -79.5t79 -21.5h168q58 0 79 21.5t21 79.5v36h79v-46
q0 -85 -37 -121.5t-121 -36.5h-212q-84 0 -121 36.5t-37 121.5z" />
    <glyph glyph-name="Cdotaccent" unicode="&#x10a;" horiz-adv-x="769" 
d="M426 770h-82v74h82v-74zM532 0h-292q-92 0 -135 42.5t-43 135.5v344q0 93 43 135.5t135 42.5h292q92 0 135 -42.5t43 -135.5v-67h-82v55q0 65 -26.5 91.5t-91.5 26.5h-246q-64 0 -91 -27t-27 -91v-320q0 -64 27 -91t91 -27h246q65 0 91.5 26.5t26.5 91.5v64h82v-76
q0 -93 -43 -135.5t-135 -42.5z" />
    <glyph glyph-name="cdotaccent" unicode="&#x10b;" horiz-adv-x="652" 
d="M367 594h-82v74h82v-74zM62 158v208q0 85 37 121.5t121 36.5h212q84 0 121 -36.5t37 -121.5v-37h-79v27q0 58 -21 79.5t-79 21.5h-168q-58 0 -79 -21.5t-21 -79.5v-188q0 -58 21 -79.5t79 -21.5h168q58 0 79 21.5t21 79.5v36h79v-46q0 -85 -37 -121.5t-121 -36.5h-212
q-84 0 -121 36.5t-37 121.5z" />
    <glyph glyph-name="Ccaron" unicode="&#x10c;" horiz-adv-x="769" 
d="M428 754h-86l-128 122h67l104 -82l104 82h67zM532 0h-292q-92 0 -135 42.5t-43 135.5v344q0 93 43 135.5t135 42.5h292q92 0 135 -42.5t43 -135.5v-67h-82v55q0 65 -26.5 91.5t-91.5 26.5h-246q-64 0 -91 -27t-27 -91v-320q0 -64 27 -91t91 -27h246q65 0 91.5 26.5
t26.5 91.5v64h82v-76q0 -93 -43 -135.5t-135 -42.5z" />
    <glyph glyph-name="ccaron" unicode="&#x10d;" horiz-adv-x="652" 
d="M369 578h-86l-128 122h67l104 -82l104 82h67zM62 158v208q0 85 37 121.5t121 36.5h212q84 0 121 -36.5t37 -121.5v-37h-79v27q0 58 -21 79.5t-79 21.5h-168q-58 0 -79 -21.5t-21 -79.5v-188q0 -58 21 -79.5t79 -21.5h168q58 0 79 21.5t21 79.5v36h79v-46
q0 -85 -37 -121.5t-121 -36.5h-212q-84 0 -121 36.5t-37 121.5z" />
    <glyph glyph-name="Dcaron" unicode="&#x10e;" horiz-adv-x="794" 
d="M440 754h-86l-128 122h67l104 -82l104 82h67zM512 0h-440v700h440q108 0 164 -56t56 -164v-260q0 -108 -56 -164t-164 -56zM156 627v-554h340q152 0 152 152v250q0 152 -152 152h-340z" />
    <glyph glyph-name="dcaron" unicode="&#x10f;" horiz-adv-x="768" 
d="M511 465l20 -15v250h81v-700h-65l-11 78l-25 -19q-50 -38 -91 -48q-44 -11 -117 -11h-83q-84 0 -121 36.5t-37 121.5v208q0 85 37 121.5t121 36.5h83q73 0 117 -11q41 -10 91 -48zM660 622v78h92v-42q0 -28 -15 -59l-31 -67h-47l36 90h-35zM483 108l48 35v238l-48 35
q-59 41 -157 41h-83q-58 0 -79 -21.5t-21 -79.5v-188q0 -58 21 -79.5t79 -21.5h83q98 0 157 41z" />
    <glyph glyph-name="Dcroat" unicode="&#x110;" horiz-adv-x="854" 
d="M132 700h440q108 0 164 -56t56 -164v-260q0 -108 -56 -164t-164 -56h-440v321h-96v58h96v321zM708 225v250q0 152 -152 152h-340v-248h258v-58h-258v-248h340q152 0 152 152z" />
    <glyph glyph-name="dslash" unicode="&#x111;" horiz-adv-x="724" 
d="M612 633h86v-48h-86v-585h-65l-11 78l-25 -19q-50 -38 -91 -48q-44 -11 -117 -11h-83q-84 0 -121 36.5t-37 121.5v208q0 85 37 121.5t121 36.5h83q73 0 117 -11q41 -10 91 -48l20 -15v135h-209v48h209v67h81v-67zM483 108l48 35v238l-48 35q-59 41 -157 41h-83
q-58 0 -79 -21.5t-21 -79.5v-188q0 -58 21 -79.5t79 -21.5h83q98 0 157 41z" />
    <glyph glyph-name="Emacron" unicode="&#x112;" horiz-adv-x="674" 
d="M149 842h376v-51h-376v51zM156 333v-262h482v-71h-566v700h556v-71h-472v-229h432v-67h-432z" />
    <glyph glyph-name="emacron" unicode="&#x113;" horiz-adv-x="664" 
d="M144 666h376v-51h-376v51zM220 524h224q84 0 121 -36.5t37 -121.5v-108h-459v-92q0 -58 21 -79t79 -21h200q44 0 62 18t18 62v33h79v-45q0 -69 -32.5 -101.5t-101.5 -32.5h-248q-84 0 -121 36.5t-37 121.5v208q0 85 37 121.5t121 36.5zM143 361v-47h380v47q0 58 -21 79
t-79 21h-180q-58 0 -79 -21t-21 -79z" />
    <glyph glyph-name="Ebreve" unicode="&#x114;" horiz-adv-x="674" 
d="M440 754h-206q-72 0 -72 72v50h62v-42q0 -33 33 -33h160q33 0 33 33v42h62v-50q0 -72 -72 -72zM156 333v-262h482v-71h-566v700h556v-71h-472v-229h432v-67h-432z" />
    <glyph glyph-name="ebreve" unicode="&#x115;" horiz-adv-x="664" 
d="M435 578h-206q-72 0 -72 72v50h62v-42q0 -33 33 -33h160q33 0 33 33v42h62v-50q0 -72 -72 -72zM220 524h224q84 0 121 -36.5t37 -121.5v-108h-459v-92q0 -58 21 -79t79 -21h200q44 0 62 18t18 62v33h79v-45q0 -69 -32.5 -101.5t-101.5 -32.5h-248q-84 0 -121 36.5
t-37 121.5v208q0 85 37 121.5t121 36.5zM143 361v-47h380v47q0 58 -21 79t-79 21h-180q-58 0 -79 -21t-21 -79z" />
    <glyph glyph-name="Edotaccent" unicode="&#x116;" horiz-adv-x="674" 
d="M296 844h82v-74h-82v74zM156 333v-262h482v-71h-566v700h556v-71h-472v-229h432v-67h-432z" />
    <glyph glyph-name="edotaccent" unicode="&#x117;" horiz-adv-x="664" 
d="M291 668h82v-74h-82v74zM220 524h224q84 0 121 -36.5t37 -121.5v-108h-459v-92q0 -58 21 -79t79 -21h200q44 0 62 18t18 62v33h79v-45q0 -69 -32.5 -101.5t-101.5 -32.5h-248q-84 0 -121 36.5t-37 121.5v208q0 85 37 121.5t121 36.5zM143 361v-47h380v47q0 58 -21 79
t-79 21h-180q-58 0 -79 -21t-21 -79z" />
    <glyph glyph-name="Eogonek" unicode="&#x118;" horiz-adv-x="674" 
d="M541 0l-20 -12q-17 -9 -21.5 -17t-4.5 -26v-16q0 -20 8.5 -28.5t28.5 -8.5h101v-52h-118q-41 0 -59.5 18.5t-18.5 59.5v15q0 27 5 40.5t21 26.5h-391v700h556v-71h-472v-229h432v-67h-432v-262h482v-71h-97z" />
    <glyph glyph-name="eogonek" unicode="&#x119;" horiz-adv-x="664" 
d="M220 524h224q84 0 121 -36.5t37 -121.5v-108h-459v-92q0 -58 21 -79t79 -21h200q44 0 62 18t18 62v33h79v-45q0 -69 -32.5 -101.5t-101.5 -32.5h-72l-20 -12q-17 -9 -21.5 -17t-4.5 -26v-16q0 -20 8.5 -28.5t28.5 -8.5h101v-52h-118q-41 0 -59.5 18.5t-18.5 59.5v15
q0 27 5 40.5t21 26.5h-98q-84 0 -121 36.5t-37 121.5v208q0 85 37 121.5t121 36.5zM143 361v-47h380v47q0 58 -21 79t-79 21h-180q-58 0 -79 -21t-21 -79z" />
    <glyph glyph-name="Ecaron" unicode="&#x11a;" horiz-adv-x="674" 
d="M508 876l-128 -122h-86l-128 122h67l104 -82l104 82h67zM156 333v-262h482v-71h-566v700h556v-71h-472v-229h432v-67h-432z" />
    <glyph glyph-name="ecaron" unicode="&#x11b;" horiz-adv-x="664" 
d="M503 700l-128 -122h-86l-128 122h67l104 -82l104 82h67zM220 524h224q84 0 121 -36.5t37 -121.5v-108h-459v-92q0 -58 21 -79t79 -21h200q44 0 62 18t18 62v33h79v-45q0 -69 -32.5 -101.5t-101.5 -32.5h-248q-84 0 -121 36.5t-37 121.5v208q0 85 37 121.5t121 36.5z
M143 361v-47h380v47q0 58 -21 79t-79 21h-180q-58 0 -79 -21t-21 -79z" />
    <glyph glyph-name="Gcircumflex" unicode="&#x11c;" horiz-adv-x="795" 
d="M293 754h-67l128 122h86l128 -122h-67l-104 82zM62 178v344q0 93 43 135.5t135 42.5h314q92 0 135 -42.5t43 -135.5v-37h-84v26q0 65 -26.5 91.5t-91.5 26.5h-266q-64 0 -91 -26.5t-27 -91.5v-323q0 -64 27 -91t91 -27h268q65 0 91.5 26.5t26.5 91.5v104h-228v67h310
v-181q0 -93 -43 -135.5t-135 -42.5h-314q-92 0 -135 42.5t-43 135.5z" />
    <glyph glyph-name="gcircumflex" unicode="&#x11d;" horiz-adv-x="684" 
d="M446 578l-104 82l-104 -82h-67l128 122h86l128 -122h-67zM536 446l11 78h65v-506q0 -93 -43 -135.5t-135 -42.5h-352v64h331q65 0 91.5 27t26.5 91v87l-20 -15q-50 -38 -91 -48q-46 -11 -117 -11h-83q-84 0 -121 36.5t-37 121.5v173q0 85 37 121.5t121 36.5h83
q71 0 117 -11q41 -10 91 -48zM483 141l48 35v206l-48 35q-59 41 -157 41h-83q-58 0 -79 -21t-21 -79v-157q0 -58 21 -79.5t79 -21.5h83q98 0 157 41z" />
    <glyph glyph-name="Gbreve" unicode="&#x11e;" horiz-adv-x="795" 
d="M500 754h-206q-72 0 -72 72v50h62v-42q0 -33 33 -33h160q33 0 33 33v42h62v-50q0 -72 -72 -72zM62 178v344q0 93 43 135.5t135 42.5h314q92 0 135 -42.5t43 -135.5v-37h-84v26q0 65 -26.5 91.5t-91.5 26.5h-266q-64 0 -91 -26.5t-27 -91.5v-323q0 -64 27 -91t91 -27h268
q65 0 91.5 26.5t26.5 91.5v104h-228v67h310v-181q0 -93 -43 -135.5t-135 -42.5h-314q-92 0 -135 42.5t-43 135.5z" />
    <glyph glyph-name="gbreve" unicode="&#x11f;" horiz-adv-x="684" 
d="M445 578h-206q-72 0 -72 72v50h62v-42q0 -33 33 -33h160q33 0 33 33v42h62v-50q0 -72 -72 -72zM536 446l11 78h65v-506q0 -93 -43 -135.5t-135 -42.5h-352v64h331q65 0 91.5 27t26.5 91v87l-20 -15q-50 -38 -91 -48q-46 -11 -117 -11h-83q-84 0 -121 36.5t-37 121.5v173
q0 85 37 121.5t121 36.5h83q71 0 117 -11q41 -10 91 -48zM483 141l48 35v206l-48 35q-59 41 -157 41h-83q-58 0 -79 -21t-21 -79v-157q0 -58 21 -79.5t79 -21.5h83q98 0 157 41z" />
    <glyph glyph-name="Gdotaccent" unicode="&#x120;" horiz-adv-x="795" 
d="M438 770h-82v74h82v-74zM62 178v344q0 93 43 135.5t135 42.5h314q92 0 135 -42.5t43 -135.5v-37h-84v26q0 65 -26.5 91.5t-91.5 26.5h-266q-64 0 -91 -26.5t-27 -91.5v-323q0 -64 27 -91t91 -27h268q65 0 91.5 26.5t26.5 91.5v104h-228v67h310v-181q0 -93 -43 -135.5
t-135 -42.5h-314q-92 0 -135 42.5t-43 135.5z" />
    <glyph glyph-name="gdotaccent" unicode="&#x121;" horiz-adv-x="684" 
d="M301 668h82v-74h-82v74zM536 446l11 78h65v-506q0 -93 -43 -135.5t-135 -42.5h-352v64h331q65 0 91.5 27t26.5 91v87l-20 -15q-50 -38 -91 -48q-46 -11 -117 -11h-83q-84 0 -121 36.5t-37 121.5v173q0 85 37 121.5t121 36.5h83q71 0 117 -11q41 -10 91 -48zM483 141
l48 35v206l-48 35q-59 41 -157 41h-83q-58 0 -79 -21t-21 -79v-157q0 -58 21 -79.5t79 -21.5h83q98 0 157 41z" />
    <glyph glyph-name="Gcommaaccent" unicode="&#x122;" horiz-adv-x="795" 
d="M62 178v344q0 93 43 135.5t135 42.5h314q92 0 135 -42.5t43 -135.5v-37h-84v26q0 65 -26.5 91.5t-91.5 26.5h-266q-64 0 -91 -26.5t-27 -91.5v-323q0 -64 27 -91t91 -27h268q65 0 91.5 26.5t26.5 91.5v104h-228v67h310v-181q0 -93 -43 -135.5t-135 -42.5h-314
q-92 0 -135 42.5t-43 135.5zM397 -178h-47l36 76h-35v72h92v-35q0 -30 -16 -56z" />
    <glyph glyph-name="gcommaaccent" unicode="&#x123;" horiz-adv-x="684" 
d="M353 650h35v-72h-92v35q0 30 16 56l30 57h47zM536 446l11 78h65v-506q0 -93 -43 -135.5t-135 -42.5h-352v64h331q65 0 91.5 27t26.5 91v87l-20 -15q-50 -38 -91 -48q-46 -11 -117 -11h-83q-84 0 -121 36.5t-37 121.5v173q0 85 37 121.5t121 36.5h83q71 0 117 -11
q41 -10 91 -48zM483 141l48 35v206l-48 35q-59 41 -157 41h-83q-58 0 -79 -21t-21 -79v-157q0 -58 21 -79.5t79 -21.5h83q98 0 157 41z" />
    <glyph glyph-name="Hcircumflex" unicode="&#x124;" horiz-adv-x="784" 
d="M496 754l-104 82l-104 -82h-67l128 122h86l128 -122h-67zM628 405v295h84v-700h-84v331h-472v-331h-84v700h84v-295h472z" />
    <glyph glyph-name="hcircumflex" unicode="&#x125;" horiz-adv-x="679" 
d="M283 754h-67l-104 82l-104 -82h-67l128 122h86zM383 524h71q84 0 121 -36.5t37 -121.5v-366h-81v355q0 58 -21.5 79.5t-79.5 21.5h-73q-97 0 -156 -41l-49 -35v-380h-80v700h80v-252l23 17q50 38 91 48q44 11 117 11z" />
    <glyph glyph-name="Hbar" unicode="&#x126;" horiz-adv-x="904" 
d="M772 584h96v-55h-96v-529h-84v331h-472v-331h-84v529h-96v55h96v116h84v-116h472v116h84v-116zM216 405h472v124h-472v-124z" />
    <glyph glyph-name="hbar" unicode="&#x127;" horiz-adv-x="720" 
d="M431 524h71q84 0 121 -36.5t37 -121.5v-366h-81v355q0 58 -21.5 79.5t-79.5 21.5h-73q-97 0 -156 -41l-49 -35v-380h-80v585h-94v48h94v67h80v-67h202v-48h-202v-137l23 17q50 38 91 48q44 11 117 11z" />
    <glyph glyph-name="Itilde" unicode="&#x128;" horiz-adv-x="240" 
d="M-55 754h-55v72q0 50 51 50h61q23 0 35.5 -5t28.5 -21l46 -43q13 -12 31 -12h25q17 0 17 18v63h55v-72q0 -50 -51 -50h-61q-23 0 -35.5 5t-28.5 21l-46 43q-14 12 -31 12h-25q-17 0 -17 -18v-63zM23 0v700h84v-700h-84z" />
    <glyph glyph-name="itilde" unicode="&#x129;" horiz-adv-x="233" 
d="M-4 578h-55v72q0 50 51 50h61q23 0 35.5 -5t28.5 -21l46 -43q14 -12 31 -12h25q17 0 17 18v63h55v-72q0 -50 -51 -50h-61q-23 0 -35.5 5t-28.5 21l-46 43q-13 12 -31 12h-25q-17 0 -17 -18v-63zM157 0h-81v524h81v-524z" />
    <glyph glyph-name="Imacron" unicode="&#x12a;" horiz-adv-x="240" 
d="M308 791h-376v51h376v-51zM78 0v700h84v-700h-84z" />
    <glyph glyph-name="imacron" unicode="&#x12b;" horiz-adv-x="233" 
d="M304 615h-376v51h376v-51zM157 0h-81v524h81v-524z" />
    <glyph glyph-name="Ibreve" unicode="&#x12c;" horiz-adv-x="240" 
d="M223 754h-206q-72 0 -72 72v50h62v-42q0 -33 33 -33h160q33 0 33 33v42h62v-50q0 -72 -72 -72zM78 0v700h84v-700h-84z" />
    <glyph glyph-name="ibreve" unicode="&#x12d;" horiz-adv-x="233" 
d="M219 578h-206q-72 0 -72 72v50h62v-42q0 -33 33 -33h160q33 0 33 33v42h62v-50q0 -72 -72 -72zM157 0h-81v524h81v-524z" />
    <glyph glyph-name="Iogonek" unicode="&#x12e;" horiz-adv-x="240" 
d="M111 -108h101v-52h-118q-41 0 -59.5 18.5t-18.5 59.5v15q0 33 8.5 48t38.5 33l15 8v678h84v-700h-42l-20 -12q-17 -9 -21.5 -17t-4.5 -26v-16q0 -20 8.5 -28.5t28.5 -8.5z" />
    <glyph glyph-name="iogonek" unicode="&#x12f;" horiz-adv-x="233" 
d="M75 668h82v-74h-82v74zM101 -108h101v-52h-118q-41 0 -59.5 18.5t-18.5 59.5v15q0 33 8.5 48t38.5 33l23 13v497h81v-524h-47l-20 -12q-17 -9 -21.5 -17t-4.5 -26v-16q0 -20 8.5 -28.5t28.5 -8.5z" />
    <glyph glyph-name="Idot" unicode="&#x130;" horiz-adv-x="240" 
d="M162 770h-84v74h84v-74zM78 0v700h84v-700h-84z" />
    <glyph glyph-name="dotlessi" unicode="&#x131;" horiz-adv-x="233" 
d="M157 0h-81v524h81v-524z" />
    <glyph glyph-name="IJ" unicode="&#x132;" horiz-adv-x="937" 
d="M78 0v700h84v-700h-84zM696 0h-242q-92 0 -135 42.5t-43 135.5v76h82v-64q0 -64 27 -91t91 -27h196q64 0 91 27t27 91v510h84v-522q0 -93 -43 -135.5t-135 -42.5z" />
    <glyph glyph-name="ij" unicode="&#x133;" horiz-adv-x="466" 
d="M157 621h-81v79h81v-79zM390 621h-81v79h81v-79zM157 0h-81v524h81v-524zM256 -160h-46v65h19q43 0 61.5 18.5t18.5 61.5v539h81v-550q0 -69 -32.5 -101.5t-101.5 -32.5z" />
    <glyph glyph-name="Jcircumflex" unicode="&#x134;" horiz-adv-x="697" 
d="M488 754h-67l128 122h86l128 -122h-67l-104 82zM456 0h-242q-92 0 -135 42.5t-43 135.5v76h82v-64q0 -64 27 -91t91 -27h196q64 0 91 27t27 91v510h84v-522q0 -93 -43 -135.5t-135 -42.5z" />
    <glyph glyph-name="jcircumflex" unicode="&#x135;" horiz-adv-x="233" 
d="M12 578h-67l128 122h86l128 -122h-67l-104 82zM23 -160h-46v65h19q44 0 62 18.5t18 61.5v539h81v-550q0 -69 -32.5 -101.5t-101.5 -32.5z" />
    <glyph glyph-name="Kcommaaccent" unicode="&#x136;" horiz-adv-x="713" 
d="M701 700l-440 -339l444 -361h-128l-421 350v-350h-84v700h84v-330l416 330h129zM341 -102h-35v72h92v-35q0 -30 -16 -56l-30 -57h-47z" />
    <glyph glyph-name="kcommaaccent" unicode="&#x137;" horiz-adv-x="609" 
d="M598 524l-345 -260l350 -264h-125l-325 253v-253h-81v700h81v-429l322 253h123zM294 -102h-35v72h92v-35q0 -30 -16 -56l-30 -57h-47z" />
    <glyph glyph-name="Lacute" unicode="&#x139;" horiz-adv-x="606" 
d="M187 876h93l-125 -122h-73zM156 700v-625h432v-75h-516v700h84z" />
    <glyph glyph-name="lacute" unicode="&#x13a;" horiz-adv-x="233" 
d="M282 876l-125 -122h-73l105 122h93zM157 0h-81v700h81v-700z" />
    <glyph glyph-name="Lcommaaccent" unicode="&#x13b;" horiz-adv-x="606" 
d="M156 700v-625h432v-75h-516v700h84zM292 -102h-35v72h92v-35q0 -30 -16 -56l-30 -57h-47z" />
    <glyph glyph-name="lcommaaccent" unicode="&#x13c;" horiz-adv-x="233" 
d="M157 0h-81v700h81v-700zM116 -178h-47l36 76h-35v72h92v-35q0 -30 -16 -56z" />
    <glyph glyph-name="Lcaron" unicode="&#x13d;" horiz-adv-x="606" 
d="M156 700v-625h432v-75h-516v700h84zM447 599l-31 -67h-47l36 90h-35v78h92v-42q0 -28 -15 -59z" />
    <glyph glyph-name="lcaron" unicode="&#x13e;" horiz-adv-x="321" 
d="M157 0h-81v700h81v-700zM259 532h-47l36 90h-35v78h92v-42q0 -29 -14 -59z" />
    <glyph glyph-name="Ldot" unicode="&#x13f;" horiz-adv-x="606" 
d="M156 700v-625h432v-75h-516v700h84zM348 456h104v-100h-104v100z" />
    <glyph glyph-name="ldot" unicode="&#x140;" horiz-adv-x="356" 
d="M157 0h-81v700h81v-700zM338 330h-104v100h104v-100z" />
    <glyph glyph-name="Lslash" unicode="&#x141;" horiz-adv-x="666" 
d="M216 352v-277h432v-75h-516v337l-96 -16v58l96 16v305h84v-290l286 49v-58z" />
    <glyph glyph-name="lslash" unicode="&#x142;" horiz-adv-x="322" 
d="M201 398l95 21v-58l-95 -21v-340h-81v322l-94 -21v58l94 21v320h81v-302z" />
    <glyph glyph-name="Nacute" unicode="&#x143;" horiz-adv-x="804" 
d="M473 876h93l-125 -122h-73zM650 132v568h82v-700h-66l-512 574v-574h-82v700h71z" />
    <glyph glyph-name="nacute" unicode="&#x144;" horiz-adv-x="679" 
d="M413 700h93l-125 -122h-73zM381 524h73q84 0 121 -36.5t37 -121.5v-366h-81v355q0 58 -21.5 79.5t-79.5 21.5h-73q-97 0 -156 -41l-49 -35v-380h-80v524h64l11 -78l26 19q50 38 91 48q44 11 117 11z" />
    <glyph glyph-name="Ncommaaccent" unicode="&#x145;" horiz-adv-x="804" 
d="M650 132v568h82v-700h-66l-512 574v-574h-82v700h71zM391 -102h-35v72h92v-35q0 -30 -16 -56l-30 -57h-47z" />
    <glyph glyph-name="ncommaaccent" unicode="&#x146;" horiz-adv-x="679" 
d="M381 524h73q84 0 121 -36.5t37 -121.5v-366h-81v355q0 58 -21.5 79.5t-79.5 21.5h-73q-97 0 -156 -41l-49 -35v-380h-80v524h64l11 -78l26 19q50 38 91 48q44 11 117 11zM329 -102h-35v72h92v-35q0 -30 -16 -56l-30 -57h-47z" />
    <glyph glyph-name="Ncaron" unicode="&#x147;" horiz-adv-x="804" 
d="M571 876l-128 -122h-86l-128 122h67l104 -82l104 82h67zM650 132v568h82v-700h-66l-512 574v-574h-82v700h71z" />
    <glyph glyph-name="ncaron" unicode="&#x148;" horiz-adv-x="679" 
d="M511 700l-128 -122h-86l-128 122h67l104 -82l104 82h67zM381 524h73q84 0 121 -36.5t37 -121.5v-366h-81v355q0 58 -21.5 79.5t-79.5 21.5h-73q-97 0 -156 -41l-49 -35v-380h-80v524h64l11 -78l26 19q50 38 91 48q44 11 117 11z" />
    <glyph glyph-name="Eng" unicode="&#x14a;" horiz-adv-x="804" 
d="M650 132v568h82v-692q0 -88 -40.5 -128t-127.5 -40h-112v65h90q61 0 84.5 23.5t23.5 84.5v5l-496 556v-574h-82v700h71z" />
    <glyph glyph-name="eng" unicode="&#x14b;" horiz-adv-x="663" 
d="M381 524h57q84 0 121 -36.5t37 -121.5v-392q0 -69 -33 -101.5t-101 -32.5h-47l1 65h19q43 0 61.5 18.5t18.5 61.5v370q0 58 -21.5 79.5t-79.5 21.5h-57q-97 0 -156 -41l-49 -35v-380h-80v524h64l11 -78l26 19q50 38 91 48q44 11 117 11z" />
    <glyph glyph-name="Omacron" unicode="&#x14c;" horiz-adv-x="795" 
d="M585 791h-376v51h376v-51zM554 0h-314q-92 0 -135 42.5t-43 135.5v344q0 93 43 135.5t135 42.5h314q92 0 135 -42.5t43 -135.5v-344q0 -93 -43 -135.5t-135 -42.5zM264 73h266q65 0 91.5 26.5t26.5 91.5v318q0 65 -26.5 91.5t-91.5 26.5h-266q-64 0 -91 -26.5t-27 -91.5
v-318q0 -65 27 -91.5t91 -26.5z" />
    <glyph glyph-name="omacron" unicode="&#x14d;" horiz-adv-x="674" 
d="M525 615h-376v51h376v-51zM454 0h-234q-84 0 -121 36.5t-37 121.5v208q0 85 37 121.5t121 36.5h234q84 0 121 -36.5t37 -121.5v-208q0 -85 -37 -121.5t-121 -36.5zM243 67h188q58 0 79 21.5t21 79.5v188q0 58 -21 79.5t-79 21.5h-188q-58 0 -79 -21.5t-21 -79.5v-188
q0 -58 21 -79.5t79 -21.5z" />
    <glyph glyph-name="Obreve" unicode="&#x14e;" horiz-adv-x="795" 
d="M500 754h-206q-72 0 -72 72v50h62v-42q0 -33 33 -33h160q33 0 33 33v42h62v-50q0 -72 -72 -72zM554 0h-314q-92 0 -135 42.5t-43 135.5v344q0 93 43 135.5t135 42.5h314q92 0 135 -42.5t43 -135.5v-344q0 -93 -43 -135.5t-135 -42.5zM264 73h266q65 0 91.5 26.5
t26.5 91.5v318q0 65 -26.5 91.5t-91.5 26.5h-266q-64 0 -91 -26.5t-27 -91.5v-318q0 -65 27 -91.5t91 -26.5z" />
    <glyph glyph-name="obreve" unicode="&#x14f;" horiz-adv-x="674" 
d="M440 578h-206q-72 0 -72 72v50h62v-42q0 -33 33 -33h160q33 0 33 33v42h62v-50q0 -72 -72 -72zM454 0h-234q-84 0 -121 36.5t-37 121.5v208q0 85 37 121.5t121 36.5h234q84 0 121 -36.5t37 -121.5v-208q0 -85 -37 -121.5t-121 -36.5zM243 67h188q58 0 79 21.5t21 79.5
v188q0 58 -21 79.5t-79 21.5h-188q-58 0 -79 -21.5t-21 -79.5v-188q0 -58 21 -79.5t79 -21.5z" />
    <glyph glyph-name="Ohungarumlaut" unicode="&#x150;" horiz-adv-x="795" 
d="M435 876l-113 -122h-71l95 122h89zM639 876l-113 -122h-71l94 122h90zM554 0h-314q-92 0 -135 42.5t-43 135.5v344q0 93 43 135.5t135 42.5h314q92 0 135 -42.5t43 -135.5v-344q0 -93 -43 -135.5t-135 -42.5zM264 73h266q65 0 91.5 26.5t26.5 91.5v318q0 65 -26.5 91.5
t-91.5 26.5h-266q-64 0 -91 -26.5t-27 -91.5v-318q0 -65 27 -91.5t91 -26.5z" />
    <glyph glyph-name="ohungarumlaut" unicode="&#x151;" horiz-adv-x="674" 
d="M375 700l-113 -122h-71l95 122h89zM579 700l-113 -122h-71l94 122h90zM454 0h-234q-84 0 -121 36.5t-37 121.5v208q0 85 37 121.5t121 36.5h234q84 0 121 -36.5t37 -121.5v-208q0 -85 -37 -121.5t-121 -36.5zM243 67h188q58 0 79 21.5t21 79.5v188q0 58 -21 79.5
t-79 21.5h-188q-58 0 -79 -21.5t-21 -79.5v-188q0 -58 21 -79.5t79 -21.5z" />
    <glyph glyph-name="OE" unicode="&#x152;" horiz-adv-x="1240" 
d="M722 333v-262h482v-71h-964q-92 0 -135 42.5t-43 135.5v344q0 93 43 135.5t135 42.5h954v-71h-472v-229h432v-67h-432zM264 73h374v554h-374q-64 0 -91 -26.5t-27 -91.5v-318q0 -65 27 -91.5t91 -26.5z" />
    <glyph glyph-name="oe" unicode="&#x153;" horiz-adv-x="1133" 
d="M704 524h209q84 0 121 -36.5t37 -121.5v-108h-459v-92q0 -58 21 -79t79 -21h200q44 0 62 18t18 62v33h79v-45q0 -69 -32.5 -101.5t-101.5 -32.5h-233q-103 0 -133 61q-31 -61 -134 -61h-217q-84 0 -121 36.5t-37 121.5v208q0 85 37 121.5t121 36.5h217q103 0 134 -61
q30 61 133 61zM612 361v-47h380v47q0 58 -21 79t-79 21h-180q-58 0 -79 -21t-21 -79zM531 168v188q0 58 -21 79.5t-79 21.5h-188q-58 0 -79 -21.5t-21 -79.5v-188q0 -58 21 -79.5t79 -21.5h188q58 0 79 21.5t21 79.5z" />
    <glyph glyph-name="Racute" unicode="&#x154;" horiz-adv-x="756" 
d="M451 876h93l-125 -122h-73zM511 284l211 -284h-97l-207 281h-262v-281h-84v700h462q84 0 121 -36.5t37 -121.5v-99q0 -85 -37 -121.5t-121 -36.5zM508 633h-352v-286h352q58 0 79 21t21 79v86q0 58 -21 79t-79 21z" />
    <glyph glyph-name="racute" unicode="&#x155;" horiz-adv-x="438" 
d="M294 700h93l-125 -122h-73zM379 524h41v-74h-63q-97 0 -156 -41l-49 -35v-374h-80v524h58l12 -80l29 21q50 38 91 48q44 11 117 11z" />
    <glyph glyph-name="Rcommaaccent" unicode="&#x156;" horiz-adv-x="756" 
d="M534 285l-23 -1l211 -284h-97l-207 281h-262v-281h-84v700h462q84 0 121 -36.5t37 -121.5v-99q0 -85 -37 -121.5t-121 -36.5zM508 633h-352v-286h352q58 0 79 21t21 79v86q0 58 -21 79t-79 21zM367 -102h-35v72h92v-35q0 -30 -16 -56l-30 -57h-47z" />
    <glyph glyph-name="rcommaaccent" unicode="&#x157;" horiz-adv-x="438" 
d="M379 524h41v-74h-63q-97 0 -156 -41l-49 -35v-374h-80v524h58l12 -80l29 21q50 38 91 48q44 11 117 11zM101 -102h-35v72h92v-35q0 -30 -16 -56l-30 -57h-47z" />
    <glyph glyph-name="Rcaron" unicode="&#x158;" horiz-adv-x="756" 
d="M549 876l-128 -122h-86l-128 122h67l104 -82l104 82h67zM511 284l211 -284h-97l-207 281h-262v-281h-84v700h462q84 0 121 -36.5t37 -121.5v-99q0 -85 -37 -121.5t-121 -36.5zM508 633h-352v-286h352q58 0 79 21t21 79v86q0 58 -21 79t-79 21z" />
    <glyph glyph-name="rcaron" unicode="&#x159;" horiz-adv-x="438" 
d="M392 700l-128 -122h-86l-128 122h67l104 -82l104 82h67zM379 524h41v-74h-63q-97 0 -156 -41l-49 -35v-374h-80v524h58l12 -80l29 21q50 38 91 48q44 11 117 11z" />
    <glyph glyph-name="Sacute" unicode="&#x15a;" horiz-adv-x="775" 
d="M553 876l-125 -122h-73l105 122h93zM62 134v61h82v-47q0 -44 18 -62t62 -18h324q44 0 62 18t18 62v84q0 42 -17 58.5t-63 21.5l-342 33q-71 7 -102.5 37.5t-31.5 96.5v87q0 69 33 101.5t101 32.5h358q69 0 101.5 -32.5t32.5 -101.5v-45h-82v31q0 44 -18 62t-62 18h-300
q-44 0 -62 -18t-18 -62v-55q0 -42 17 -58.5t63 -21.5l342 -34q71 -6 102.5 -36.5t31.5 -97.5v-115q0 -69 -32.5 -101.5t-101.5 -32.5h-382q-68 0 -101 32.5t-33 101.5z" />
    <glyph glyph-name="sacute" unicode="&#x15b;" horiz-adv-x="654" 
d="M493 700l-125 -122h-73l105 122h93zM62 110v47h79v-39q0 -30 13 -43.5t44 -13.5h256q31 0 44 13.5t13 43.5v54q0 30 -13 43t-44 16l-272 28q-110 11 -110 111v44q0 54 28.5 82t81.5 28h286q53 0 81.5 -28t28.5 -82v-43h-79v35q0 30 -13 43.5t-44 13.5h-232
q-31 0 -44 -13.5t-13 -43.5v-24q0 -30 13 -43t44 -16l272 -28q110 -11 110 -111v-74q0 -54 -28.5 -82t-81.5 -28h-310q-53 0 -81.5 28t-28.5 82z" />
    <glyph glyph-name="Scircumflex" unicode="&#x15c;" horiz-adv-x="775" 
d="M283 754h-67l128 122h86l128 -122h-67l-104 82zM62 134v61h82v-47q0 -44 18 -62t62 -18h324q44 0 62 18t18 62v84q0 42 -17 58.5t-63 21.5l-342 33q-71 7 -102.5 37.5t-31.5 96.5v87q0 69 33 101.5t101 32.5h358q69 0 101.5 -32.5t32.5 -101.5v-45h-82v31q0 44 -18 62
t-62 18h-300q-44 0 -62 -18t-18 -62v-55q0 -42 17 -58.5t63 -21.5l342 -34q71 -6 102.5 -36.5t31.5 -97.5v-115q0 -69 -32.5 -101.5t-101.5 -32.5h-382q-68 0 -101 32.5t-33 101.5z" />
    <glyph glyph-name="scircumflex" unicode="&#x15d;" horiz-adv-x="654" 
d="M223 578h-67l128 122h86l128 -122h-67l-104 82zM62 110v47h79v-39q0 -30 13 -43.5t44 -13.5h256q31 0 44 13.5t13 43.5v54q0 30 -13 43t-44 16l-272 28q-110 11 -110 111v44q0 54 28.5 82t81.5 28h286q53 0 81.5 -28t28.5 -82v-43h-79v35q0 30 -13 43.5t-44 13.5h-232
q-31 0 -44 -13.5t-13 -43.5v-24q0 -30 13 -43t44 -16l272 -28q110 -11 110 -111v-74q0 -54 -28.5 -82t-81.5 -28h-310q-53 0 -81.5 28t-28.5 82z" />
    <glyph glyph-name="Scedilla" unicode="&#x15e;" horiz-adv-x="775" 
d="M236 417l342 -34q71 -6 102.5 -36.5t31.5 -97.5v-115q0 -69 -32.5 -101.5t-101.5 -32.5h-179l-13 -34h71q28 0 39.5 -11.5t11.5 -39.5v-24q0 -28 -11.5 -39.5t-39.5 -11.5h-157v40h143q15 0 15 15v17q0 15 -15 15h-105v18l21 55h-163q-68 0 -101 32.5t-33 101.5v61h82
v-47q0 -44 18 -62t62 -18h324q44 0 62 18t18 62v84q0 42 -17 58.5t-63 21.5l-342 33q-71 7 -102.5 37.5t-31.5 96.5v87q0 69 33 101.5t101 32.5h358q69 0 101.5 -32.5t32.5 -101.5v-45h-82v31q0 44 -18 62t-62 18h-300q-44 0 -62 -18t-18 -62v-55q0 -42 17 -58.5t63 -21.5z
" />
    <glyph glyph-name="scedilla" unicode="&#x15f;" horiz-adv-x="654" 
d="M210 323l272 -28q110 -11 110 -111v-74q0 -54 -28.5 -82t-81.5 -28h-143l-13 -34h71q28 0 39.5 -11.5t11.5 -39.5v-24q0 -28 -11.5 -39.5t-39.5 -11.5h-157v40h143q15 0 15 15v17q0 15 -15 15h-105v18l21 55h-127q-53 0 -81.5 28t-28.5 82v47h79v-39q0 -30 13 -43.5
t44 -13.5h256q31 0 44 13.5t13 43.5v54q0 30 -13 43t-44 16l-272 28q-110 11 -110 111v44q0 54 28.5 82t81.5 28h286q53 0 81.5 -28t28.5 -82v-43h-79v35q0 30 -13 43.5t-44 13.5h-232q-31 0 -44 -13.5t-13 -43.5v-24q0 -30 13 -43t44 -16z" />
    <glyph glyph-name="Scaron" unicode="&#x160;" horiz-adv-x="775" 
d="M430 754h-86l-128 122h67l104 -82l104 82h67zM62 134v61h82v-47q0 -44 18 -62t62 -18h324q44 0 62 18t18 62v84q0 42 -17 58.5t-63 21.5l-342 33q-71 7 -102.5 37.5t-31.5 96.5v87q0 69 33 101.5t101 32.5h358q69 0 101.5 -32.5t32.5 -101.5v-45h-82v31q0 44 -18 62
t-62 18h-300q-44 0 -62 -18t-18 -62v-55q0 -42 17 -58.5t63 -21.5l342 -34q71 -6 102.5 -36.5t31.5 -97.5v-115q0 -69 -32.5 -101.5t-101.5 -32.5h-382q-68 0 -101 32.5t-33 101.5z" />
    <glyph glyph-name="scaron" unicode="&#x161;" horiz-adv-x="654" 
d="M370 578h-86l-128 122h67l104 -82l104 82h67zM62 110v47h79v-39q0 -30 13 -43.5t44 -13.5h256q31 0 44 13.5t13 43.5v54q0 30 -13 43t-44 16l-272 28q-110 11 -110 111v44q0 54 28.5 82t81.5 28h286q53 0 81.5 -28t28.5 -82v-43h-79v35q0 30 -13 43.5t-44 13.5h-232
q-31 0 -44 -13.5t-13 -43.5v-24q0 -30 13 -43t44 -16l272 -28q110 -11 110 -111v-74q0 -54 -28.5 -82t-81.5 -28h-310q-53 0 -81.5 28t-28.5 82z" />
    <glyph glyph-name="uni0162" unicode="&#x162;" horiz-adv-x="668" 
d="M376 625v-625h-30l-13 -34h71q28 0 39.5 -11.5t11.5 -39.5v-24q0 -28 -11.5 -39.5t-39.5 -11.5h-157v40h143q15 0 15 15v17q0 15 -15 15h-105v18l21 55h-14v625h-274v75h632v-75h-274z" />
    <glyph glyph-name="uni0163" unicode="&#x163;" horiz-adv-x="490" 
d="M462 524v-66h-249v-311q0 -44 18 -62t62 -18h169v-67h-163l-13 -34h71q28 0 39.5 -11.5t11.5 -39.5v-24q0 -28 -11.5 -39.5t-39.5 -11.5h-157v40h143q15 0 15 15v17q0 15 -15 15h-105v18l21 55q-65 2 -96 34.5t-31 99.5v324h-114v66h114l18 120h63v-120h249z" />
    <glyph glyph-name="Tcaron" unicode="&#x164;" horiz-adv-x="668" 
d="M505 876l-128 -122h-86l-128 122h67l104 -82l104 82h67zM18 700h632v-75h-274v-625h-84v625h-274v75z" />
    <glyph glyph-name="tcaron" unicode="&#x165;" horiz-adv-x="500" 
d="M404 627l-31 -57h-47l37 76h-35v72h92v-35q0 -28 -16 -56zM462 524v-66h-249v-311q0 -44 18 -62t62 -18h169v-67h-196q-69 0 -101.5 32.5t-32.5 101.5v324h-114v66h114l18 120h63v-120h249z" />
    <glyph glyph-name="Tbar" unicode="&#x166;" horiz-adv-x="684" 
d="M650 700v-75h-274v-258h194v-58h-194v-309h-84v309h-178v58h178v258h-274v75h632z" />
    <glyph glyph-name="tbar" unicode="&#x167;" horiz-adv-x="490" 
d="M462 524v-67h-249v-159h249v-55h-249v-95q0 -44 18 -62t62 -18h169v-68h-196q-69 0 -101.5 32.5t-32.5 101.5v109h-114v55h114v159h-114v67h114l18 120h63v-120h249z" />
    <glyph glyph-name="Utilde" unicode="&#x168;" horiz-adv-x="766" 
d="M263 754h-55v72q0 50 51 50h61q23 0 35.5 -5t28.5 -21l46 -43q13 -12 31 -12h25q17 0 17 18v63h55v-72q0 -50 -51 -50h-61q-23 0 -35.5 5t-28.5 21l-46 43q-14 12 -31 12h-25q-17 0 -17 -18v-63zM525 0h-284q-92 0 -135 42.5t-43 135.5v522h84v-509q0 -65 26.5 -91.5
t91.5 -26.5h236q65 0 91.5 26.5t26.5 91.5v509h84v-522q0 -93 -43 -135.5t-135 -42.5z" />
    <glyph glyph-name="utilde" unicode="&#x169;" horiz-adv-x="679" 
d="M216 641v-63h-55v72q0 50 51 50h61q23 0 35.5 -5t28.5 -21l46 -43q13 -12 31 -12h25q17 0 17 18v63h55v-72q0 -50 -51 -50h-61q-23 0 -35.5 5t-28.5 21l-46 43q-13 12 -31 12h-25q-17 0 -17 -18zM527 524h80v-524h-64l-11 78l-26 -19q-50 -38 -91 -48q-44 -11 -117 -11
h-73q-84 0 -121 36.5t-37 121.5v366h81v-355q0 -58 21.5 -79.5t79.5 -21.5h73q97 0 156 41l49 35v380z" />
    <glyph glyph-name="Umacron" unicode="&#x16a;" horiz-adv-x="766" 
d="M571 791h-376v51h376v-51zM525 0h-284q-92 0 -135 42.5t-43 135.5v522h84v-509q0 -65 26.5 -91.5t91.5 -26.5h236q65 0 91.5 26.5t26.5 91.5v509h84v-522q0 -93 -43 -135.5t-135 -42.5z" />
    <glyph glyph-name="umacron" unicode="&#x16b;" horiz-adv-x="679" 
d="M148 666h376v-51h-376v51zM527 524h80v-524h-64l-11 78l-26 -19q-50 -38 -91 -48q-44 -11 -117 -11h-73q-84 0 -121 36.5t-37 121.5v366h81v-355q0 -58 21.5 -79.5t79.5 -21.5h73q97 0 156 41l49 35v380z" />
    <glyph glyph-name="Ubreve" unicode="&#x16c;" horiz-adv-x="766" 
d="M486 754h-206q-72 0 -72 72v50h62v-42q0 -33 33 -33h160q33 0 33 33v42h62v-50q0 -72 -72 -72zM525 0h-284q-92 0 -135 42.5t-43 135.5v522h84v-509q0 -65 26.5 -91.5t91.5 -26.5h236q65 0 91.5 26.5t26.5 91.5v509h84v-522q0 -93 -43 -135.5t-135 -42.5z" />
    <glyph glyph-name="ubreve" unicode="&#x16d;" horiz-adv-x="679" 
d="M439 578h-206q-72 0 -72 72v50h62v-42q0 -33 33 -33h160q33 0 33 33v42h62v-50q0 -72 -72 -72zM527 524h80v-524h-64l-11 78l-26 -19q-50 -38 -91 -48q-44 -11 -117 -11h-73q-84 0 -121 36.5t-37 121.5v366h81v-355q0 -58 21.5 -79.5t79.5 -21.5h73q97 0 156 41l49 35
v380z" />
    <glyph glyph-name="Uring" unicode="&#x16e;" horiz-adv-x="766" 
d="M245 798v24q0 28 12.5 41t41.5 13h168q29 0 41.5 -13t12.5 -41v-24q0 -28 -12.5 -41t-41.5 -13h-168q-29 0 -41.5 13t-12.5 41zM289 818v-16q0 -13 4 -17.5t17 -4.5h146q13 0 17 4.5t4 17.5v16q0 13 -4 17.5t-17 4.5h-146q-13 0 -17 -4.5t-4 -17.5zM525 0h-284
q-92 0 -135 42.5t-43 135.5v522h84v-509q0 -65 26.5 -91.5t91.5 -26.5h236q65 0 91.5 26.5t26.5 91.5v509h84v-522q0 -93 -43 -135.5t-135 -42.5z" />
    <glyph glyph-name="uring" unicode="&#x16f;" horiz-adv-x="679" 
d="M420 568h-168q-54 0 -54 54v24q0 54 54 54h168q54 0 54 -54v-24q0 -54 -54 -54zM242 642v-16q0 -13 4 -17.5t17 -4.5h146q13 0 17 4.5t4 17.5v16q0 13 -4 17.5t-17 4.5h-146q-13 0 -17 -4.5t-4 -17.5zM527 524h80v-524h-64l-11 78l-26 -19q-50 -38 -91 -48
q-44 -11 -117 -11h-73q-84 0 -121 36.5t-37 121.5v366h81v-355q0 -58 21.5 -79.5t79.5 -21.5h73q97 0 156 41l49 35v380z" />
    <glyph glyph-name="Uhungarumlaut" unicode="&#x170;" horiz-adv-x="766" 
d="M421 876l-113 -122h-71l95 122h89zM625 876l-113 -122h-71l94 122h90zM525 0h-284q-92 0 -135 42.5t-43 135.5v522h84v-509q0 -65 26.5 -91.5t91.5 -26.5h236q65 0 91.5 26.5t26.5 91.5v509h84v-522q0 -93 -43 -135.5t-135 -42.5z" />
    <glyph glyph-name="uhungarumlaut" unicode="&#x171;" horiz-adv-x="679" 
d="M285 700h89l-113 -122h-71zM488 700h90l-113 -122h-71zM527 524h80v-524h-64l-11 78l-26 -19q-50 -38 -91 -48q-44 -11 -117 -11h-73q-84 0 -121 36.5t-37 121.5v366h81v-355q0 -58 21.5 -79.5t79.5 -21.5h73q97 0 156 41l49 35v380z" />
    <glyph glyph-name="Uogonek" unicode="&#x172;" horiz-adv-x="766" 
d="M619 191v509h84v-522q0 -93 -43 -135.5t-135 -42.5h-72l-20 -12q-17 -9 -21.5 -17t-4.5 -26v-16q0 -20 8.5 -28.5t28.5 -8.5h101v-52h-118q-41 0 -59.5 18.5t-18.5 59.5v15q0 27 5 40.5t21 26.5h-134q-92 0 -135 42.5t-43 135.5v522h84v-509q0 -65 26.5 -91.5t91.5 -26.5
h236q65 0 91.5 26.5t26.5 91.5z" />
    <glyph glyph-name="uogonek" unicode="&#x173;" horiz-adv-x="671" 
d="M560 -108h89v-52h-106q-41 0 -59.5 18.5t-18.5 59.5v15q0 33 8.5 48t38.5 33l27 15l-7 49l-26 -19q-50 -38 -91 -48q-44 -11 -117 -11h-73q-84 0 -121 36.5t-37 121.5v366h81v-355q0 -58 21.5 -79.5t79.5 -21.5h73q97 0 156 41l49 35v380h80v-524h-38l-19 -12
q-17 -9 -22 -17.5t-5 -25.5v-16q0 -20 8.5 -28.5t28.5 -8.5z" />
    <glyph glyph-name="Wcircumflex" unicode="&#x174;" horiz-adv-x="1086" 
d="M647 754l-104 82l-104 -82h-67l128 122h86l128 -122h-67zM780 113l210 587h88l-260 -700h-75l-200 572l-200 -572h-75l-260 700h93l209 -586l201 586h67z" />
    <glyph glyph-name="wcircumflex" unicode="&#x175;" horiz-adv-x="882" 
d="M545 578l-104 82l-104 -82h-67l128 122h86l128 -122h-67zM633 99l158 425h83l-207 -524h-70l-155 416l-156 -416h-71l-207 524h86l160 -424l157 424h63z" />
    <glyph glyph-name="Ycircumflex" unicode="&#x176;" horiz-adv-x="712" 
d="M460 754l-104 82l-104 -82h-67l128 122h86l128 -122h-67zM619 700h95l-316 -439v-261h-84v261l-316 439h99l262 -372z" />
    <glyph glyph-name="ycircumflex" unicode="&#x177;" horiz-adv-x="618" 
d="M413 578l-104 82l-104 -82h-67l128 122h86l128 -122h-67zM309 86l213 438h88l-276 -543q-43 -88 -90 -115q-47 -26 -146 -26h-46v67h57q63 0 95 18q31 19 61 76l4 7l-261 516h91z" />
    <glyph glyph-name="Ydieresis" unicode="&#x178;" horiz-adv-x="712" 
d="M220 844h68v-74h-68v74zM424 844h68v-74h-68v74zM619 700h95l-316 -439v-261h-84v261l-316 439h99l262 -372z" />
    <glyph glyph-name="Zacute" unicode="&#x179;" horiz-adv-x="744" 
d="M538 876l-125 -122h-73l105 122h93zM698 0h-652v57l531 570h-511v73h632v-57l-531 -570h531v-73z" />
    <glyph glyph-name="zacute" unicode="&#x17a;" horiz-adv-x="638" 
d="M485 700l-125 -122h-73l105 122h93zM594 0h-550v50l431 409h-411v65h530v-50l-431 -409h431v-65z" />
    <glyph glyph-name="Zdotaccent" unicode="&#x17b;" horiz-adv-x="744" 
d="M413 770h-82v74h82v-74zM698 0h-652v57l531 570h-511v73h632v-57l-531 -570h531v-73z" />
    <glyph glyph-name="zdotaccent" unicode="&#x17c;" horiz-adv-x="638" 
d="M360 594h-82v74h82v-74zM594 0h-550v50l431 409h-411v65h530v-50l-431 -409h431v-65z" />
    <glyph glyph-name="Zcaron" unicode="&#x17d;" horiz-adv-x="744" 
d="M415 754h-86l-128 122h67l104 -82l104 82h67zM698 0h-652v57l531 570h-511v73h632v-57l-531 -570h531v-73z" />
    <glyph glyph-name="zcaron" unicode="&#x17e;" horiz-adv-x="638" 
d="M362 578h-86l-128 122h67l104 -82l104 82h67zM594 0h-550v50l431 409h-411v65h530v-50l-431 -409h431v-65z" />
    <glyph glyph-name="florin" unicode="&#x192;" horiz-adv-x="672" 
d="M618 629h-89q-63 0 -90 -25.5t-35 -92.5l-21 -191h215v-60h-221l-27 -242q-11 -96 -53.5 -137t-131.5 -41h-111v71h89q63 0 90 25.5t35 92.5l25 231h-219v60h226l22 202q11 96 53.5 137t131.5 41h111v-71z" />
    <glyph glyph-name="Aringacute" unicode="&#x1fa;" horiz-adv-x="785" 
d="M780 0h-94l-85 181h-419l-85 -181h-89l325 668h-23q-54 0 -54 54v24q0 54 54 54h64l65 76h93l-78 -76h24q54 0 54 -54v-24q0 -54 -54 -54h-23zM300 742v-16q0 -13 4 -17.5t17 -4.5h146q13 0 17 4.5t4 17.5v16q0 13 -4 17.5t-17 4.5h-146q-13 0 -17 -4.5t-4 -17.5z
M392 626l-178 -378h355z" />
    <glyph glyph-name="aringacute" unicode="&#x1fb;" horiz-adv-x="670" 
d="M478 522q65 -6 94.5 -43t29.5 -113v-366h-65l-11 76l-34 -24q-47 -33 -80 -42q-33 -10 -101 -10h-127q-122 0 -122 122v51q0 122 122 122h337v66q0 58 -21 79.5t-79 21.5h-176q-44 0 -62 -18t-18 -62v-24h-79v32q0 66 29.5 98.5t91.5 35.5q-2 16 -2 22v24q0 28 12.5 41
t41.5 13h64l65 76h93l-78 -76h24q29 0 41.5 -13t12.5 -41v-24q0 -14 -3 -24zM249 566v-16q0 -13 4 -17.5t17 -4.5h146q13 0 17 4.5t4 17.5v16q0 13 -4 17.5t-17 4.5h-146q-13 0 -17 -4.5t-4 -17.5zM464 96l57 39v106h-305q-40 0 -56.5 -16.5t-16.5 -56.5v-35q0 -41 16.5 -57
t56.5 -16h118q79 0 130 36z" />
    <glyph glyph-name="AEacute" unicode="&#x1fc;" horiz-adv-x="1082" 
d="M694 876h93l-125 -122h-73zM610 333l120 -262h316v-71h-378l-79 179h-408l-84 -179h-89l341 700h687v-71h-561l105 -229h416v-67h-386zM391 626l-178 -380h346z" />
    <glyph glyph-name="aeacute" unicode="&#x1fd;" horiz-adv-x="1123" 
d="M635 700h93l-125 -122h-73zM694 524h209q84 0 121 -36.5t37 -121.5v-108h-459v-92q0 -58 21 -79t79 -21h200q44 0 62 18t18 62v33h79v-45q0 -69 -32.5 -101.5t-101.5 -32.5h-241q-118 0 -146 76l-34 -24q-47 -33 -80 -42q-33 -10 -101 -10h-141q-122 0 -122 122v51
q0 122 122 122h337v66q0 58 -21 79.5t-79 21.5h-176q-44 0 -62 -18t-18 -62v-24h-79v32q0 69 32.5 101.5t101.5 32.5h209q101 0 133 -59q30 59 132 59zM602 361v-47h380v47q0 58 -21 79t-79 21h-180q-58 0 -79 -21t-21 -79zM464 96l57 39v106h-305q-40 0 -56.5 -16.5
t-16.5 -56.5v-35q0 -41 16.5 -57t56.5 -16h118q79 0 130 36z" />
    <glyph glyph-name="Oslashacute" unicode="&#x1fe;" horiz-adv-x="795" 
d="M470 876h93l-125 -122h-73zM694 730h68l-68 -78q38 -43 38 -130v-344q0 -93 -43 -135.5t-135 -42.5h-314q-59 0 -98 18l-42 -48h-68l68 78q-38 43 -38 130v344q0 93 43 135.5t135 42.5h314q59 0 98 -18zM144 511v-322q0 -48 14 -74l440 504q-23 10 -65 10h-271
q-65 0 -91.5 -26.5t-26.5 -91.5zM651 189v322q0 49 -15 75l-439 -505q23 -10 65 -10h271q65 0 91.5 26.5t26.5 91.5z" />
    <glyph glyph-name="oslashacute" unicode="&#x1ff;" horiz-adv-x="674" 
d="M410 700h93l-125 -122h-73zM642 562l-67 -74q37 -37 37 -122v-208q0 -85 -37 -121.5t-121 -36.5h-234q-48 0 -78 11l-44 -49h-66l67 74q-37 37 -37 122v208q0 85 37 121.5t121 36.5h234q48 0 78 -11l44 49h66zM137 360v-196q0 -48 14 -71l330 364q-15 4 -44 4h-200
q-58 0 -79 -21.5t-21 -79.5zM537 164v196q0 48 -14 71l-330 -364q15 -4 44 -4h200q58 0 79 21.5t21 79.5z" />
    <glyph glyph-name="Scommaaccent" unicode="&#x218;" horiz-adv-x="775" 
d="M62 134v61h82v-47q0 -44 18 -62t62 -18h324q44 0 62 18t18 62v84q0 42 -17 58.5t-63 21.5l-342 33q-71 7 -102.5 37.5t-31.5 96.5v87q0 69 33 101.5t101 32.5h358q69 0 101.5 -32.5t32.5 -101.5v-45h-82v31q0 44 -18 62t-62 18h-300q-44 0 -62 -18t-18 -62v-55
q0 -42 17 -58.5t63 -21.5l342 -34q71 -6 102.5 -36.5t31.5 -97.5v-115q0 -69 -32.5 -101.5t-101.5 -32.5h-382q-68 0 -101 32.5t-33 101.5zM387 -178h-47l36 76h-35v72h92v-35q0 -30 -16 -56z" />
    <glyph glyph-name="scommaaccent" unicode="&#x219;" horiz-adv-x="654" 
d="M62 110v47h79v-39q0 -30 13 -43.5t44 -13.5h256q31 0 44 13.5t13 43.5v54q0 30 -13 43t-44 16l-272 28q-110 11 -110 111v44q0 54 28.5 82t81.5 28h286q53 0 81.5 -28t28.5 -82v-43h-79v35q0 30 -13 43.5t-44 13.5h-232q-31 0 -44 -13.5t-13 -43.5v-24q0 -30 13 -43
t44 -16l272 -28q110 -11 110 -111v-74q0 -54 -28.5 -82t-81.5 -28h-310q-53 0 -81.5 28t-28.5 82zM327 -178h-47l36 76h-35v72h92v-35q0 -30 -16 -56z" />
    <glyph glyph-name="uni021A" unicode="&#x21a;" horiz-adv-x="668" 
d="M18 625v75h632v-75h-274v-625h-84v625h-274zM323 -102h-35v72h92v-35q0 -30 -16 -56l-30 -57h-47z" />
    <glyph glyph-name="uni021B" unicode="&#x21b;" horiz-adv-x="490" 
d="M462 524v-66h-249v-311q0 -44 18 -62t62 -18h169v-67h-196q-69 0 -101.5 32.5t-32.5 101.5v324h-114v66h114l18 120h63v-120h249zM276 -102h-35v72h92v-35q0 -30 -16 -56l-30 -57h-47z" />
    <glyph glyph-name="uni0237" unicode="&#x237;" horiz-adv-x="233" 
d="M23 -160h-46v65h19q44 0 62 18.5t18 61.5v539h81v-550q0 -69 -32.5 -101.5t-101.5 -32.5z" />
    <glyph glyph-name="circumflex" unicode="&#x2c6;" horiz-adv-x="486" 
d="M139 578h-67l128 122h86l128 -122h-67l-104 82z" />
    <glyph glyph-name="caron" unicode="&#x2c7;" horiz-adv-x="486" 
d="M286 578h-86l-128 122h67l104 -82l104 82h67z" />
    <glyph glyph-name="breve" unicode="&#x2d8;" horiz-adv-x="494" 
d="M350 578h-206q-72 0 -72 72v50h62v-42q0 -33 33 -33h160q33 0 33 33v42h62v-50q0 -72 -72 -72z" />
    <glyph glyph-name="dotaccent" unicode="&#x2d9;" horiz-adv-x="226" 
d="M154 594h-82v74h82v-74z" />
    <glyph glyph-name="ring" unicode="&#x2da;" horiz-adv-x="388" 
d="M56 622v24q0 54 54 54h168q54 0 54 -54v-24q0 -54 -54 -54h-168q-54 0 -54 54zM100 642v-16q0 -13 4 -17.5t17 -4.5h146q13 0 17 4.5t4 17.5v16q0 13 -4 17.5t-17 4.5h-146q-13 0 -17 -4.5t-4 -17.5z" />
    <glyph glyph-name="ogonek" unicode="&#x2db;" horiz-adv-x="340" 
d="M187 7l-31 -19q-17 -9 -21.5 -17t-4.5 -26v-16q0 -20 8.5 -28.5t28.5 -8.5h101v-52h-118q-41 0 -59.5 18.5t-18.5 59.5v15q0 33 8.5 48t38.5 33l34 19z" />
    <glyph glyph-name="tilde" unicode="&#x2dc;" horiz-adv-x="494" 
d="M127 578h-55v72q0 50 51 50h61q23 0 35.5 -5t28.5 -21l46 -43q13 -12 31 -12h25q17 0 17 18v63h55v-72q0 -50 -51 -50h-61q-23 0 -35.5 5t-28.5 21l-46 43q-13 12 -31 12h-25q-17 0 -17 -18v-63z" />
    <glyph glyph-name="hungarumlaut" unicode="&#x2dd;" horiz-adv-x="532" 
d="M256 700l-113 -122h-71l95 122h89zM460 700l-113 -122h-71l94 122h90z" />
    <glyph glyph-name="gravecomb" unicode="&#x300;" horiz-adv-x="0" 
d="M-72 578h-73l-125 122h93z" />
    <glyph glyph-name="acutecomb" unicode="&#x301;" horiz-adv-x="0" 
d="M-72 700l-125 -122h-73l105 122h93z" />
    <glyph glyph-name="uni0302" unicode="&#x302;" horiz-adv-x="0" 
d="M-347 578h-67l128 122h86l128 -122h-67l-104 82z" />
    <glyph glyph-name="tildecomb" unicode="&#x303;" horiz-adv-x="0" 
d="M-367 578h-55v72q0 50 51 50h61q23 0 35.5 -5t28.5 -21l46 -43q14 -12 31 -12h25q17 0 17 18v63h55v-72q0 -50 -51 -50h-61q-23 0 -35.5 5t-28.5 21l-46 43q-14 12 -31 12h-25q-17 0 -17 -18v-63z" />
    <glyph glyph-name="uni0304" unicode="&#x304;" horiz-adv-x="0" 
d="M-72 615h-376v51h376v-51z" />
    <glyph glyph-name="uni0306" unicode="&#x306;" horiz-adv-x="0" 
d="M-144 578h-206q-72 0 -72 72v50h62v-42q0 -33 33 -33h160q33 0 33 33v42h62v-50q0 -72 -72 -72z" />
    <glyph glyph-name="uni0307" unicode="&#x307;" horiz-adv-x="0" 
d="M-72 594h-82v74h82v-74z" />
    <glyph glyph-name="uni0308" unicode="&#x308;" horiz-adv-x="0" 
d="M-276 594h-68v74h68v-74zM-72 594h-68v74h68v-74z" />
    <glyph glyph-name="uni030A" unicode="&#x30a;" horiz-adv-x="0" 
d="M-332 622v24q0 54 54 54h168q54 0 54 -54v-24q0 -54 -54 -54h-168q-54 0 -54 54zM-288 642v-16q0 -13 4 -17.5t17 -4.5h146q13 0 17 4.5t4 17.5v16q0 13 -4 17.5t-17 4.5h-146q-13 0 -17 -4.5t-4 -17.5z" />
    <glyph glyph-name="uni030B" unicode="&#x30b;" horiz-adv-x="0" 
d="M-276 700l-113 -122h-71l95 122h89zM-72 700l-113 -122h-71l94 122h90z" />
    <glyph glyph-name="uni030C" unicode="&#x30c;" horiz-adv-x="0" 
d="M-200 578h-86l-128 122h67l104 -82l104 82h67z" />
    <glyph glyph-name="uni0312" unicode="&#x312;" horiz-adv-x="0" 
d="M-118 726h47l-36 -76h35v-72h-92v35q0 30 16 56z" />
    <glyph glyph-name="uni0326" unicode="&#x326;" horiz-adv-x="0" 
d="M-118 -178h-47l36 76h-35v72h92v-35q0 -30 -16 -56z" />
    <glyph glyph-name="uni0327" unicode="&#x327;" horiz-adv-x="0" 
d="M-107 -160h-157v40h143q15 0 15 15v17q0 15 -15 15h-105v18l28 75h40l-20 -54h71q28 0 39.5 -11.5t11.5 -39.5v-24q0 -28 -11.5 -39.5t-39.5 -11.5z" />
    <glyph glyph-name="uni0328" unicode="&#x328;" horiz-adv-x="0" 
d="M-153 7l-31 -19q-17 -9 -21.5 -17t-4.5 -26v-16q0 -20 8.5 -28.5t28.5 -8.5h101v-52h-118q-41 0 -59.5 18.5t-18.5 59.5v15q0 33 8.5 48t38.5 33l34 19z" />
    <glyph glyph-name="uni0335" unicode="&#x335;" horiz-adv-x="0" 
d="M-480 325v58h440v-58h-440z" />
    <glyph glyph-name="uni0336" unicode="&#x336;" horiz-adv-x="0" 
d="M-888 325v58h848v-58h-848z" />
    <glyph glyph-name="uni0337" unicode="&#x337;" horiz-adv-x="0" 
d="M-458 321v58l418 60v-58z" />
    <glyph glyph-name="uni0338" unicode="&#x338;" horiz-adv-x="0" 
d="M-612 -30l544 600h68l-544 -600h-68z" />
    <glyph glyph-name="uni0394" unicode="&#x394;" horiz-adv-x="788" 
d="M349 700h90l341 -700h-772zM392 626l-263 -557h525z" />
    <glyph glyph-name="uni03A9" unicode="&#x3a9;" horiz-adv-x="795" 
d="M526 97v-28h216v-69h-278v152h66q65 0 91.5 26.5t26.5 91.5v239q0 65 -26.5 91.5t-91.5 26.5h-266q-64 0 -91 -26.5t-27 -91.5v-239q0 -64 27 -91t91 -27h66v-152h-278v69h216v28h-34q-89 0 -130.5 41t-41.5 131v253q0 93 43 135.5t135 42.5h314q92 0 135 -42.5
t43 -135.5v-253q0 -90 -41.5 -131t-130.5 -41h-34z" />
    <glyph glyph-name="uni03BC" unicode="&#x3bc;" horiz-adv-x="728" 
d="M674 67h36v-67h-62q-96 0 -113 77l-25 -18q-50 -38 -91 -48q-44 -11 -117 -11h-68q-49 0 -82 12v-172h-80v684h80v-355q0 -58 21.5 -79.5t79.5 -21.5h73q100 0 156 41l49 35v380h81v-394q0 -35 13.5 -49t48.5 -14z" />
    <glyph glyph-name="pi" unicode="&#x3c0;" horiz-adv-x="748" 
d="M720 524v-66h-126v-311q0 -44 18 -62t62 -18h46v-67h-73q-69 0 -101.5 32.5t-32.5 101.5v324h-318v-458h-81v458h-96v66h702z" />
    <glyph glyph-name="uni0401" unicode="&#x401;" horiz-adv-x="674" 
d="M201 844h68v-74h-68v74zM405 844h68v-74h-68v74zM156 333v-262h482v-71h-566v700h556v-71h-472v-229h432v-67h-432z" />
    <glyph glyph-name="uni0403" unicode="&#x403;" horiz-adv-x="606" 
d="M376 876h93l-125 -122h-73zM72 700h516v-75h-432v-625h-84v700z" />
    <glyph glyph-name="uni0405" unicode="&#x405;" horiz-adv-x="775" 
d="M62 134v61h82v-47q0 -44 18 -62t62 -18h324q44 0 62 18t18 62v84q0 42 -17 58.5t-63 21.5l-342 33q-71 7 -102.5 37.5t-31.5 96.5v87q0 69 33 101.5t101 32.5h358q69 0 101.5 -32.5t32.5 -101.5v-45h-82v31q0 44 -18 62t-62 18h-300q-44 0 -62 -18t-18 -62v-55
q0 -42 17 -58.5t63 -21.5l342 -34q71 -6 102.5 -36.5t31.5 -97.5v-115q0 -69 -32.5 -101.5t-101.5 -32.5h-382q-68 0 -101 32.5t-33 101.5z" />
    <glyph glyph-name="uni0406" unicode="&#x406;" horiz-adv-x="240" 
d="M78 0v700h84v-700h-84z" />
    <glyph glyph-name="uni0407" unicode="&#x407;" horiz-adv-x="240" 
d="M52 770h-68v74h68v-74zM256 770h-68v74h68v-74zM78 0v700h84v-700h-84z" />
    <glyph glyph-name="uni0408" unicode="&#x408;" horiz-adv-x="697" 
d="M456 0h-242q-92 0 -135 42.5t-43 135.5v76h82v-64q0 -64 27 -91t91 -27h196q64 0 91 27t27 91v510h84v-522q0 -93 -43 -135.5t-135 -42.5z" />
    <glyph glyph-name="uni040C" unicode="&#x40c;" horiz-adv-x="713" 
d="M425 876h93l-125 -122h-73zM261 361l444 -361h-128l-421 350v-350h-84v700h84v-330l416 330h129z" />
    <glyph glyph-name="uni040E" unicode="&#x40e;" horiz-adv-x="712" 
d="M459 754h-206q-72 0 -72 72v50h62v-42q0 -33 33 -33h160q33 0 33 33v42h62v-50q0 -72 -72 -72zM358 293l261 407h95l-461 -700h-92l149 227l-312 473h99z" />
    <glyph glyph-name="uni0410" unicode="&#x410;" horiz-adv-x="772" 
d="M780 0h-94l-85 181h-419l-85 -181h-89l341 700h90zM392 626l-178 -378h355z" />
    <glyph glyph-name="uni0411" unicode="&#x411;" horiz-adv-x="756" 
d="M568 0h-496v700h570v-68h-486v-229h412q68 0 101 -32.5t33 -101.5v-135q0 -69 -32.5 -101.5t-101.5 -32.5zM156 339v-271h382q44 0 62 18t18 62v111q0 44 -18 62t-62 18h-382z" />
    <glyph glyph-name="uni0412" unicode="&#x412;" horiz-adv-x="756" 
d="M623 370q79 -21 79 -124v-112q0 -69 -32.5 -101.5t-101.5 -32.5h-496v700h476q69 0 101.5 -32.5t32.5 -101.5v-79q0 -90 -59 -117zM518 632h-362v-234h362q44 0 62 18t18 62v74q0 44 -18 62t-62 18zM618 148v108q0 44 -18 62t-62 18h-382v-268h382q44 0 62 18t18 62z" />
    <glyph glyph-name="uni0413" unicode="&#x413;" horiz-adv-x="606" 
d="M72 700h516v-75h-432v-625h-84v700z" />
    <glyph glyph-name="uni0414" unicode="&#x414;" horiz-adv-x="802" 
d="M714 700v-627h70v-193h-80v120h-606v-120h-80v193h30q55 0 75 19.5t23 74.5l34 533h534zM260 625l-29 -450q-4 -66 -28 -102h427v552h-370z" />
    <glyph glyph-name="uni0415" unicode="&#x415;" horiz-adv-x="674" 
d="M156 333v-262h482v-71h-566v700h556v-71h-472v-229h432v-67h-432z" />
    <glyph glyph-name="uni0416" unicode="&#x416;" horiz-adv-x="1198" 
d="M746 361l444 -361h-128l-421 350v-350h-84v350l-421 -350h-128l445 361l-441 339h130l415 -330v330h84v-330l416 330h129z" />
    <glyph glyph-name="uni0417" unicode="&#x417;" horiz-adv-x="774" 
d="M640 368q72 -22 72 -122v-112q0 -69 -32.5 -101.5t-101.5 -32.5h-382q-69 0 -101.5 32.5t-32.5 101.5v91h82v-77q0 -44 18 -62t62 -18h324q44 0 62 18t18 62v107q0 44 -18 62t-62 18h-216v64h206q44 0 62 18t18 62v73q0 44 -18 62t-62 18h-304q-44 0 -62 -18t-18 -62v-69
h-82v83q0 69 32.5 101.5t101.5 32.5h362q69 0 101.5 -32.5t32.5 -101.5v-79q0 -92 -62 -119z" />
    <glyph glyph-name="uni0418" unicode="&#x418;" horiz-adv-x="804" 
d="M154 132l507 568h71v-700h-82v574l-512 -574h-66v700h82v-568z" />
    <glyph glyph-name="uni0419" unicode="&#x419;" horiz-adv-x="804" 
d="M505 754h-206q-72 0 -72 72v50h62v-42q0 -33 33 -33h160q33 0 33 33v42h62v-50q0 -72 -72 -72zM154 132l507 568h71v-700h-82v574l-512 -574h-66v700h82v-568z" />
    <glyph glyph-name="uni041A" unicode="&#x41a;" horiz-adv-x="713" 
d="M261 361l444 -361h-128l-421 350v-350h-84v700h84v-330l416 330h129z" />
    <glyph glyph-name="uni041B" unicode="&#x41b;" horiz-adv-x="778" 
d="M64 0h-46v73h22q55 0 75 19.5t23 74.5l34 533h534v-700h-84v625h-370l-30 -471q-5 -84 -41 -119t-117 -35z" />
    <glyph glyph-name="uni041C" unicode="&#x41c;" horiz-adv-x="904" 
d="M454 237l307 463h71v-700h-80v557l-276 -410h-48l-276 410v-557h-80v700h74z" />
    <glyph glyph-name="uni041D" unicode="&#x41d;" horiz-adv-x="784" 
d="M628 405v295h84v-700h-84v331h-472v-331h-84v700h84v-295h472z" />
    <glyph glyph-name="uni041E" unicode="&#x41e;" horiz-adv-x="795" 
d="M554 0h-314q-92 0 -135 42.5t-43 135.5v344q0 93 43 135.5t135 42.5h314q92 0 135 -42.5t43 -135.5v-344q0 -93 -43 -135.5t-135 -42.5zM264 73h266q65 0 91.5 26.5t26.5 91.5v318q0 65 -26.5 91.5t-91.5 26.5h-266q-64 0 -91 -26.5t-27 -91.5v-318q0 -65 27 -91.5
t91 -26.5z" />
    <glyph glyph-name="uni041F" unicode="&#x41f;" horiz-adv-x="784" 
d="M156 0h-84v700h640v-700h-84v625h-472v-625z" />
    <glyph glyph-name="uni0420" unicode="&#x420;" horiz-adv-x="728" 
d="M156 0h-84v700h462q84 0 121 -36.5t37 -121.5v-124q0 -85 -37 -121.5t-121 -36.5h-378v-260zM156 631v-304h352q58 0 79 21t21 79v104q0 58 -21 79t-79 21h-352z" />
    <glyph glyph-name="uni0421" unicode="&#x421;" horiz-adv-x="769" 
d="M532 0h-292q-92 0 -135 42.5t-43 135.5v344q0 93 43 135.5t135 42.5h292q92 0 135 -42.5t43 -135.5v-67h-82v55q0 65 -26.5 91.5t-91.5 26.5h-246q-64 0 -91 -27t-27 -91v-320q0 -64 27 -91t91 -27h246q65 0 91.5 26.5t26.5 91.5v64h82v-76q0 -93 -43 -135.5t-135 -42.5z
" />
    <glyph glyph-name="uni0422" unicode="&#x422;" horiz-adv-x="668" 
d="M18 700h632v-75h-274v-625h-84v625h-274v75z" />
    <glyph glyph-name="uni0423" unicode="&#x423;" horiz-adv-x="712" 
d="M358 293l261 407h95l-461 -700h-92l149 227l-312 473h99z" />
    <glyph glyph-name="uni0424" unicode="&#x424;" horiz-adv-x="1001" 
d="M540 652h220q92 0 135 -42.5t43 -135.5v-248q0 -93 -43 -135.5t-135 -42.5h-220v-88h-80v88h-220q-92 0 -135 42.5t-43 135.5v248q0 93 43 135.5t135 42.5h220v88h80v-88zM264 114h196v472h-196q-64 0 -91 -27t-27 -91v-236q0 -64 27 -91t91 -27zM854 232v236
q0 65 -26.5 91.5t-91.5 26.5h-196v-472h196q65 0 91.5 26.5t26.5 91.5z" />
    <glyph glyph-name="uni0425" unicode="&#x425;" horiz-adv-x="736" 
d="M108 0h-100l305 356l-295 344h106l247 -296l246 296h101l-294 -344l304 -356h-106l-256 308z" />
    <glyph glyph-name="uni0426" unicode="&#x426;" horiz-adv-x="800" 
d="M702 0h-630v700h84v-625h472v625h84v-625h70v-195h-80v120z" />
    <glyph glyph-name="uni0427" unicode="&#x427;" horiz-adv-x="728" 
d="M656 0h-84v276h-378q-84 0 -121 36.5t-37 121.5v266h84v-249q0 -58 21 -79t79 -21h352v349h84v-700z" />
    <glyph glyph-name="uni0428" unicode="&#x428;" horiz-adv-x="1212" 
d="M1140 0h-1068v700h84v-625h408v625h84v-625h408v625h84v-700z" />
    <glyph glyph-name="uni0429" unicode="&#x429;" horiz-adv-x="1228" 
d="M1130 0h-1058v700h84v-625h408v625h84v-625h408v625h84v-625h70v-195h-80v120z" />
    <glyph glyph-name="uni042A" unicode="&#x42a;" horiz-adv-x="880" 
d="M224 627h-206v73h290v-260h378q84 0 121 -36.5t37 -121.5v-124q0 -85 -37 -121.5t-121 -36.5h-462v627zM308 373v-304h352q58 0 79 21t21 79v104q0 58 -21 79t-79 21h-352z" />
    <glyph glyph-name="uni042B" unicode="&#x42b;" horiz-adv-x="968" 
d="M72 0v700h84v-260h378q84 0 121 -36.5t37 -121.5v-124q0 -85 -37 -121.5t-121 -36.5h-462zM806 0v700h84v-700h-84zM508 373h-352v-304h352q58 0 79 21t21 79v104q0 58 -21 79t-79 21z" />
    <glyph glyph-name="uni042C" unicode="&#x42c;" horiz-adv-x="728" 
d="M72 0v700h84v-260h378q84 0 121 -36.5t37 -121.5v-124q0 -85 -37 -121.5t-121 -36.5h-462zM508 373h-352v-304h352q58 0 79 21t21 79v104q0 58 -21 79t-79 21z" />
    <glyph glyph-name="uni042D" unicode="&#x42d;" horiz-adv-x="781" 
d="M237 700h304q92 0 135 -42.5t43 -135.5v-344q0 -93 -43 -135.5t-135 -42.5h-304q-92 0 -135 42.5t-43 135.5v76h82v-68q0 -64 26.5 -91t91.5 -27h258q65 0 91.5 27t26.5 91v147h-288v61h288v120q0 64 -26.5 91t-91.5 27h-258q-65 0 -91.5 -27t-26.5 -91v-59h-82v67
q0 93 43 135.5t135 42.5z" />
    <glyph glyph-name="uni042E" unicode="&#x42e;" horiz-adv-x="1194" 
d="M640 700h314q92 0 135 -42.5t43 -135.5v-344q0 -93 -43 -135.5t-135 -42.5h-314q-92 0 -135 42.5t-43 135.5v152h-306v-330h-84v700h84v-295h306v117q0 93 43 135.5t135 42.5zM1048 191v318q0 65 -27 91.5t-91 26.5h-266q-64 0 -91 -26.5t-27 -91.5v-318q0 -65 27 -91.5
t91 -26.5h266q64 0 91 26.5t27 91.5z" />
    <glyph glyph-name="uni042F" unicode="&#x42f;" horiz-adv-x="756" 
d="M222 700h462v-700h-84v281h-262l-207 -281h-97l211 284l-23 1q-84 0 -121 36.5t-37 121.5v99q0 85 37 121.5t121 36.5zM248 347h352v286h-352q-58 0 -79 -21t-21 -79v-86q0 -58 21 -79t79 -21z" />
    <glyph glyph-name="uni0430" unicode="&#x430;" horiz-adv-x="670" 
d="M220 524h224q84 0 121 -36.5t37 -121.5v-366h-65l-11 76l-34 -24q-47 -33 -80 -42q-33 -10 -101 -10h-127q-122 0 -122 122v51q0 122 122 122h337v66q0 58 -21 79.5t-79 21.5h-176q-44 0 -62 -18t-18 -62v-24h-79v32q0 69 32.5 101.5t101.5 32.5zM464 96l57 39v106h-305
q-40 0 -56.5 -16.5t-16.5 -56.5v-35q0 -41 16.5 -57t56.5 -16h118q79 0 130 36z" />
    <glyph glyph-name="uni0431" unicode="&#x431;" horiz-adv-x="675" 
d="M239 458h240q68 0 101 -32.5t33 -101.5v-190q0 -69 -33 -101.5t-101 -32.5h-282q-69 0 -101.5 32.5t-32.5 101.5v377q0 90 42 131.5t136 46.5l352 21v-67l-344 -20q-67 -5 -93.5 -31.5t-26.5 -89.5v-89q29 45 110 45zM532 146v167q0 44 -18 62t-62 18h-229q-44 0 -62 -18
t-18 -62v-167q0 -44 18 -62t62 -18h229q44 0 62 18t18 62z" />
    <glyph glyph-name="uni0432" unicode="&#x432;" horiz-adv-x="672" 
d="M548 277q59 -17 59 -92v-84q0 -101 -100 -101h-434v524h419q100 0 100 -101v-58q0 -68 -44 -88zM453 463h-300v-161h300q32 0 45 13t13 45v46q0 31 -13 44t-45 13zM526 118v70q0 32 -13 45t-45 13h-315v-185h315q32 0 45 12.5t13 44.5z" />
    <glyph glyph-name="uni0433" unicode="&#x433;" horiz-adv-x="518" 
d="M152 0h-80v524h428v-68h-348v-456z" />
    <glyph glyph-name="uni0434" unicode="&#x434;" horiz-adv-x="692" 
d="M606 524v-457h68v-187h-76v120h-503v-120h-77v187h22q48 0 67 18.5t22 67.5l25 371h452zM232 456l-22 -301q-4 -55 -25 -88h341v389h-294z" />
    <glyph glyph-name="uni0435" unicode="&#x435;" horiz-adv-x="664" 
d="M220 524h224q84 0 121 -36.5t37 -121.5v-108h-459v-92q0 -58 21 -79t79 -21h200q44 0 62 18t18 62v33h79v-45q0 -69 -32.5 -101.5t-101.5 -32.5h-248q-84 0 -121 36.5t-37 121.5v208q0 85 37 121.5t121 36.5zM143 361v-47h380v47q0 58 -21 79t-79 21h-180q-58 0 -79 -21
t-21 -79z" />
    <glyph glyph-name="uni0436" unicode="&#x436;" horiz-adv-x="994" 
d="M638 264l350 -264h-127l-323 253v-253h-81v253l-324 -253h-127l351 264l-346 260h125l321 -253v253h81v-253l320 253h125z" />
    <glyph glyph-name="uni0437" unicode="&#x437;" horiz-adv-x="664" 
d="M547 275q55 -16 55 -90v-84q0 -101 -101 -101h-338q-101 0 -101 101v62h79v-42q0 -33 13 -46t46 -13h262q33 0 46 13t13 46v65q0 33 -13 46t-46 13h-160v57h153q32 0 45.5 14t13.5 47v40q0 33 -13.5 46t-45.5 13h-248q-32 0 -45.5 -13t-13.5 -46v-36h-79v56
q0 101 101 101h324q101 0 101 -101v-58q0 -71 -48 -90z" />
    <glyph glyph-name="uni0438" unicode="&#x438;" horiz-adv-x="697" 
d="M150 109l408 415h68v-524h-79v420l-413 -420h-62v524h78v-415z" />
    <glyph glyph-name="uni0439" unicode="&#x439;" horiz-adv-x="697" 
d="M452 578h-206q-72 0 -72 72v50h62v-42q0 -33 33 -33h160q33 0 33 33v42h62v-50q0 -72 -72 -72zM150 109l408 415h68v-524h-79v420l-413 -420h-62v524h78v-415z" />
    <glyph glyph-name="uni043A" unicode="&#x43a;" horiz-adv-x="609" 
d="M253 264l350 -264h-127l-323 253v-253h-81v524h81v-253l320 253h125z" />
    <glyph glyph-name="uni043B" unicode="&#x43b;" horiz-adv-x="670" 
d="M61 0h-43v67h14q48 0 67 18.5t22 67.5l25 371h452v-524h-81v456h-294l-22 -320q-5 -71 -38 -103.5t-102 -32.5z" />
    <glyph glyph-name="uni043C" unicode="&#x43c;" horiz-adv-x="783" 
d="M148 0h-76v524h71l250 -339l250 339h69v-524h-77v406l-223 -297h-41l-223 297v-406z" />
    <glyph glyph-name="uni043D" unicode="&#x43d;" horiz-adv-x="683" 
d="M531 305v219h81v-524h-81v237h-379v-237h-80v524h80v-219h379z" />
    <glyph glyph-name="uni043E" unicode="&#x43e;" horiz-adv-x="674" 
d="M454 0h-234q-84 0 -121 36.5t-37 121.5v208q0 85 37 121.5t121 36.5h234q84 0 121 -36.5t37 -121.5v-208q0 -85 -37 -121.5t-121 -36.5zM243 67h188q58 0 79 21.5t21 79.5v188q0 58 -21 79.5t-79 21.5h-188q-58 0 -79 -21.5t-21 -79.5v-188q0 -58 21 -79.5t79 -21.5z" />
    <glyph glyph-name="uni043F" unicode="&#x43f;" horiz-adv-x="683" 
d="M152 0h-80v524h540v-524h-81v456h-379v-456z" />
    <glyph glyph-name="uni0440" unicode="&#x440;" horiz-adv-x="684" 
d="M381 524h83q84 0 121 -36.5t37 -121.5v-208q0 -85 -37 -121.5t-121 -36.5h-83q-73 0 -117 11q-41 10 -91 48l-21 15v-234h-80v684h64l11 -78l26 19q50 38 91 48q44 11 117 11zM541 168v188q0 58 -21.5 79.5t-79.5 21.5h-83q-97 0 -156 -41l-49 -35v-238l49 -35
q59 -41 156 -41h83q58 0 79.5 21.5t21.5 79.5z" />
    <glyph glyph-name="uni0441" unicode="&#x441;" horiz-adv-x="652" 
d="M62 158v208q0 85 37 121.5t121 36.5h212q84 0 121 -36.5t37 -121.5v-37h-79v27q0 58 -21 79.5t-79 21.5h-168q-58 0 -79 -21.5t-21 -79.5v-188q0 -58 21 -79.5t79 -21.5h168q58 0 79 21.5t21 79.5v36h79v-46q0 -85 -37 -121.5t-121 -36.5h-212q-84 0 -121 36.5t-37 121.5
z" />
    <glyph glyph-name="uni0442" unicode="&#x442;" horiz-adv-x="568" 
d="M244 456h-226v68h532v-68h-226v-456h-80v456z" />
    <glyph glyph-name="uni0443" unicode="&#x443;" horiz-adv-x="618" 
d="M309 86l213 438h88l-276 -543q-43 -88 -90 -115q-47 -26 -146 -26h-46v67h57q63 0 95 18q31 19 61 76l4 7l-261 516h91z" />
    <glyph glyph-name="uni0444" unicode="&#x444;" horiz-adv-x="970" 
d="M524 524h226q84 0 121 -36.5t37 -121.5v-208q0 -85 -37 -121.5t-121 -36.5h-226v-160h-78v160h-226q-84 0 -121 36.5t-37 121.5v208q0 85 37 121.5t121 36.5h226v176h78v-176zM243 62h203v400h-203q-58 0 -79 -21.5t-21 -79.5v-198q0 -58 21 -79.5t79 -21.5zM827 163v198
q0 58 -21 79.5t-79 21.5h-203v-400h203q58 0 79 21.5t21 79.5z" />
    <glyph glyph-name="uni0445" unicode="&#x445;" horiz-adv-x="635" 
d="M107 0h-101l257 267l-247 257h106l198 -215l198 215h101l-246 -257l256 -267h-106l-208 225z" />
    <glyph glyph-name="uni0446" unicode="&#x446;" horiz-adv-x="698" 
d="M603 0h-531v524h80v-456h379v456h81v-456h68v-188h-77v120z" />
    <glyph glyph-name="uni0447" unicode="&#x447;" horiz-adv-x="632" 
d="M36 525l81 -1v-168q0 -44 18 -62t62 -18h282v248h81v-524h-81v207h-309q-69 0 -101.5 32.5t-32.5 101.5v184z" />
    <glyph glyph-name="uni0448" unicode="&#x448;" horiz-adv-x="1038" 
d="M966 0h-894v524h80v-456h326v456h81v-456h326v456h81v-524z" />
    <glyph glyph-name="uni0449" unicode="&#x449;" horiz-adv-x="1052" 
d="M957 0h-885v524h80v-456h326v456h81v-456h326v456h81v-456h68v-188h-77v120z" />
    <glyph glyph-name="uni044A" unicode="&#x44a;" horiz-adv-x="744" 
d="M184 456h-166v68h247v-194h313q67 0 98.5 -31.5t31.5 -98.5v-70q0 -68 -31.5 -99t-98.5 -31h-394v456zM265 270v-208h286q42 0 59 16.5t17 59.5v56q0 42 -17 59t-59 17h-286z" />
    <glyph glyph-name="uni044B" unicode="&#x44b;" horiz-adv-x="865" 
d="M72 0v524h80v-194h314q66 0 98 -31.5t32 -98.5v-70q0 -68 -31.5 -99t-98.5 -31h-394zM789 0h-81v524h81v-524zM438 270h-286v-208h286q43 0 60 16.5t17 59.5v56q0 42 -17 59t-60 17z" />
    <glyph glyph-name="uni044C" unicode="&#x44c;" horiz-adv-x="632" 
d="M72 0v524h80v-194h314q66 0 98 -31.5t32 -98.5v-70q0 -68 -31.5 -99t-98.5 -31h-394zM438 270h-286v-208h286q43 0 60 16.5t17 59.5v56q0 42 -17 59t-60 17z" />
    <glyph glyph-name="uni044D" unicode="&#x44d;" horiz-adv-x="672" 
d="M220 524h232q84 0 121 -36.5t37 -121.5v-208q0 -85 -37 -121.5t-121 -36.5h-232q-84 0 -121 36.5t-37 121.5v46h79v-38q0 -58 21 -79t79 -21h188q58 0 79 21t21 79v81h-225v55h225v56q0 58 -21 79t-79 21h-188q-58 0 -79 -21t-21 -79v-29h-79v37q0 85 37 121.5t121 36.5z
" />
    <glyph glyph-name="uni044E" unicode="&#x44e;" horiz-adv-x="1008" 
d="M554 524h234q84 0 121 -36.5t37 -121.5v-208q0 -85 -37 -121.5t-121 -36.5h-234q-84 0 -121 36.5t-37 121.5v79h-244v-237h-80v524h80v-219h244v61q0 85 37 121.5t121 36.5zM865 168v188q0 58 -21.5 79.5t-79.5 21.5h-187q-58 0 -79.5 -21.5t-21.5 -79.5v-188
q0 -58 21.5 -79.5t79.5 -21.5h187q58 0 79.5 21.5t21.5 79.5z" />
    <glyph glyph-name="uni044F" unicode="&#x44f;" horiz-adv-x="658" 
d="M192 524h394v-524h-81v207h-224l-155 -207h-92l159 210h-1q-67 0 -98.5 31t-31.5 99v54q0 68 31.5 99t98.5 31zM219 265h286v199h-286q-42 0 -59 -17t-17 -59v-46q0 -43 17 -60t59 -17z" />
    <glyph glyph-name="uni0451" unicode="&#x451;" horiz-adv-x="664" 
d="M196 668h68v-74h-68v74zM400 668h68v-74h-68v74zM220 524h224q84 0 121 -36.5t37 -121.5v-108h-459v-92q0 -58 21 -79t79 -21h200q44 0 62 18t18 62v33h79v-45q0 -69 -32.5 -101.5t-101.5 -32.5h-248q-84 0 -121 36.5t-37 121.5v208q0 85 37 121.5t121 36.5zM143 361v-47
h380v47q0 58 -21 79t-79 21h-180q-58 0 -79 -21t-21 -79z" />
    <glyph glyph-name="uni0453" unicode="&#x453;" horiz-adv-x="518" 
d="M425 700l-125 -122h-73l105 122h93zM152 0h-80v524h428v-68h-348v-456z" />
    <glyph glyph-name="uni0455" unicode="&#x455;" horiz-adv-x="654" 
d="M62 110v47h79v-39q0 -30 13 -43.5t44 -13.5h256q31 0 44 13.5t13 43.5v54q0 30 -13 43t-44 16l-272 28q-110 11 -110 111v44q0 54 28.5 82t81.5 28h286q53 0 81.5 -28t28.5 -82v-43h-79v35q0 30 -13 43.5t-44 13.5h-232q-31 0 -44 -13.5t-13 -43.5v-24q0 -30 13 -43
t44 -16l272 -28q110 -11 110 -111v-74q0 -54 -28.5 -82t-81.5 -28h-310q-53 0 -81.5 28t-28.5 82z" />
    <glyph glyph-name="uni0456" unicode="&#x456;" horiz-adv-x="233" 
d="M157 621h-81v79h81v-79zM157 0h-81v524h81v-524z" />
    <glyph glyph-name="uni0457" unicode="&#x457;" horiz-adv-x="233" 
d="M48 594h-68v74h68v-74zM252 594h-68v74h68v-74zM157 0h-81v524h81v-524z" />
    <glyph glyph-name="uni0458" unicode="&#x458;" horiz-adv-x="233" 
d="M157 621h-81v79h81v-79zM23 -160h-46v65h19q44 0 62 18.5t18 61.5v539h81v-550q0 -69 -32.5 -101.5t-101.5 -32.5z" />
    <glyph glyph-name="uni045C" unicode="&#x45c;" horiz-adv-x="609" 
d="M378 700h93l-125 -122h-73zM253 264l350 -264h-127l-323 253v-253h-81v524h81v-253l320 253h125z" />
    <glyph glyph-name="uni045E" unicode="&#x45e;" horiz-adv-x="618" 
d="M412 578h-206q-72 0 -72 72v50h62v-42q0 -33 33 -33h160q33 0 33 33v42h62v-50q0 -72 -72 -72zM309 86l213 438h88l-276 -543q-43 -88 -90 -115q-47 -26 -146 -26h-46v67h57q63 0 95 18q31 19 61 76l4 7l-261 516h91z" />
    <glyph glyph-name="uni0498" unicode="&#x498;" horiz-adv-x="774" 
d="M640 368q72 -22 72 -122v-112q0 -69 -32.5 -101.5t-101.5 -32.5h-179l-13 -34h71q28 0 39.5 -11.5t11.5 -39.5v-24q0 -28 -11.5 -39.5t-39.5 -11.5h-157v40h143q15 0 15 15v17q0 15 -15 15h-105v18l21 55h-163q-69 0 -101.5 32.5t-32.5 101.5v91h82v-77q0 -44 18 -62
t62 -18h324q44 0 62 18t18 62v107q0 44 -18 62t-62 18h-216v64h206q44 0 62 18t18 62v73q0 44 -18 62t-62 18h-304q-44 0 -62 -18t-18 -62v-69h-82v83q0 69 32.5 101.5t101.5 32.5h362q69 0 101.5 -32.5t32.5 -101.5v-79q0 -92 -62 -119z" />
    <glyph glyph-name="uni0499" unicode="&#x499;" horiz-adv-x="664" 
d="M547 275q55 -16 55 -90v-84q0 -101 -101 -101h-157l-13 -34h71q28 0 39.5 -11.5t11.5 -39.5v-24q0 -28 -11.5 -39.5t-39.5 -11.5h-157v40h143q15 0 15 15v17q0 15 -15 15h-105v18l21 55h-141q-101 0 -101 101v62h79v-42q0 -33 13 -46t46 -13h262q33 0 46 13t13 46v65
q0 33 -13 46t-46 13h-160v57h153q32 0 45.5 14t13.5 47v40q0 33 -13.5 46t-45.5 13h-248q-32 0 -45.5 -13t-13.5 -46v-36h-79v56q0 101 101 101h324q101 0 101 -101v-58q0 -71 -48 -90z" />
    <glyph glyph-name="uni04BB" unicode="&#x4bb;" horiz-adv-x="679" 
d="M383 524h71q84 0 121 -36.5t37 -121.5v-366h-81v355q0 58 -21.5 79.5t-79.5 21.5h-73q-97 0 -156 -41l-49 -35v-380h-80v700h80v-252l23 17q50 38 91 48q44 11 117 11z" />
    <glyph glyph-name="uni04C0" unicode="&#x4c0;" horiz-adv-x="240" 
d="M78 0v700h84v-700h-84z" />
    <glyph glyph-name="uni04C1" unicode="&#x4c1;" horiz-adv-x="1198" 
d="M702 754h-206q-72 0 -72 72v50h62v-42q0 -33 33 -33h160q33 0 33 33v42h62v-50q0 -72 -72 -72zM746 361l444 -361h-128l-421 350v-350h-84v350l-421 -350h-128l445 361l-441 339h130l415 -330v330h84v-330l416 330h129z" />
    <glyph glyph-name="uni04C2" unicode="&#x4c2;" horiz-adv-x="994" 
d="M600 578h-206q-72 0 -72 72v50h62v-42q0 -33 33 -33h160q33 0 33 33v42h62v-50q0 -72 -72 -72zM638 264l350 -264h-127l-323 253v-253h-81v253l-324 -253h-127l351 264l-346 260h125l321 -253v253h81v-253l320 253h125z" />
    <glyph glyph-name="uni04D0" unicode="&#x4d0;" horiz-adv-x="772" 
d="M497 754h-206q-72 0 -72 72v50h62v-42q0 -33 33 -33h160q33 0 33 33v42h62v-50q0 -72 -72 -72zM780 0h-94l-85 181h-419l-85 -181h-89l341 700h90zM392 626l-178 -378h355z" />
    <glyph glyph-name="uni04D1" unicode="&#x4d1;" horiz-adv-x="670" 
d="M446 578h-206q-72 0 -72 72v50h62v-42q0 -33 33 -33h160q33 0 33 33v42h62v-50q0 -72 -72 -72zM220 524h224q84 0 121 -36.5t37 -121.5v-366h-65l-11 76l-34 -24q-47 -33 -80 -42q-33 -10 -101 -10h-127q-122 0 -122 122v51q0 122 122 122h337v66q0 58 -21 79.5t-79 21.5
h-176q-44 0 -62 -18t-18 -62v-24h-79v32q0 69 32.5 101.5t101.5 32.5zM464 96l57 39v106h-305q-40 0 -56.5 -16.5t-16.5 -56.5v-35q0 -41 16.5 -57t56.5 -16h118q79 0 130 36z" />
    <glyph glyph-name="uni04D2" unicode="&#x4d2;" horiz-adv-x="772" 
d="M258 844h68v-74h-68v74zM462 844h68v-74h-68v74zM780 0h-94l-85 181h-419l-85 -181h-89l341 700h90zM392 626l-178 -378h355z" />
    <glyph glyph-name="uni04D3" unicode="&#x4d3;" horiz-adv-x="670" 
d="M207 668h68v-74h-68v74zM411 668h68v-74h-68v74zM220 524h224q84 0 121 -36.5t37 -121.5v-366h-65l-11 76l-34 -24q-47 -33 -80 -42q-33 -10 -101 -10h-127q-122 0 -122 122v51q0 122 122 122h337v66q0 58 -21 79.5t-79 21.5h-176q-44 0 -62 -18t-18 -62v-24h-79v32
q0 69 32.5 101.5t101.5 32.5zM464 96l57 39v106h-305q-40 0 -56.5 -16.5t-16.5 -56.5v-35q0 -41 16.5 -57t56.5 -16h118q79 0 130 36z" />
    <glyph glyph-name="uni04D4" unicode="&#x4d4;" horiz-adv-x="1082" 
d="M610 333l120 -262h316v-71h-378l-79 179h-408l-84 -179h-89l341 700h687v-71h-561l105 -229h416v-67h-386zM391 626l-178 -380h346z" />
    <glyph glyph-name="uni04D5" unicode="&#x4d5;" horiz-adv-x="1123" 
d="M694 524h209q84 0 121 -36.5t37 -121.5v-108h-459v-92q0 -58 21 -79t79 -21h200q44 0 62 18t18 62v33h79v-45q0 -69 -32.5 -101.5t-101.5 -32.5h-241q-118 0 -146 76l-34 -24q-47 -33 -80 -42q-33 -10 -101 -10h-141q-122 0 -122 122v51q0 122 122 122h337v66
q0 58 -21 79.5t-79 21.5h-176q-44 0 -62 -18t-18 -62v-24h-79v32q0 69 32.5 101.5t101.5 32.5h209q101 0 133 -59q30 59 132 59zM602 361v-47h380v47q0 58 -21 79t-79 21h-180q-58 0 -79 -21t-21 -79zM464 96l57 39v106h-305q-40 0 -56.5 -16.5t-16.5 -56.5v-35
q0 -41 16.5 -57t56.5 -16h118q79 0 130 36z" />
    <glyph glyph-name="uni04D6" unicode="&#x4d6;" horiz-adv-x="674" 
d="M440 754h-206q-72 0 -72 72v50h62v-42q0 -33 33 -33h160q33 0 33 33v42h62v-50q0 -72 -72 -72zM156 333v-262h482v-71h-566v700h556v-71h-472v-229h432v-67h-432z" />
    <glyph glyph-name="uni04D7" unicode="&#x4d7;" horiz-adv-x="664" 
d="M435 578h-206q-72 0 -72 72v50h62v-42q0 -33 33 -33h160q33 0 33 33v42h62v-50q0 -72 -72 -72zM220 524h224q84 0 121 -36.5t37 -121.5v-108h-459v-92q0 -58 21 -79t79 -21h200q44 0 62 18t18 62v33h79v-45q0 -69 -32.5 -101.5t-101.5 -32.5h-248q-84 0 -121 36.5
t-37 121.5v208q0 85 37 121.5t121 36.5zM143 361v-47h380v47q0 58 -21 79t-79 21h-180q-58 0 -79 -21t-21 -79z" />
    <glyph glyph-name="uni04DC" unicode="&#x4dc;" horiz-adv-x="1198" 
d="M463 844h68v-74h-68v74zM667 844h68v-74h-68v74zM746 361l444 -361h-128l-421 350v-350h-84v350l-421 -350h-128l445 361l-441 339h130l415 -330v330h84v-330l416 330h129z" />
    <glyph glyph-name="uni04DD" unicode="&#x4dd;" horiz-adv-x="994" 
d="M361 668h68v-74h-68v74zM565 668h68v-74h-68v74zM638 264l350 -264h-127l-323 253v-253h-81v253l-324 -253h-127l351 264l-346 260h125l321 -253v253h81v-253l320 253h125z" />
    <glyph glyph-name="uni04DE" unicode="&#x4de;" horiz-adv-x="774" 
d="M251 844h68v-74h-68v74zM455 844h68v-74h-68v74zM640 368q72 -22 72 -122v-112q0 -69 -32.5 -101.5t-101.5 -32.5h-382q-69 0 -101.5 32.5t-32.5 101.5v91h82v-77q0 -44 18 -62t62 -18h324q44 0 62 18t18 62v107q0 44 -18 62t-62 18h-216v64h206q44 0 62 18t18 62v73
q0 44 -18 62t-62 18h-304q-44 0 -62 -18t-18 -62v-69h-82v83q0 69 32.5 101.5t101.5 32.5h362q69 0 101.5 -32.5t32.5 -101.5v-79q0 -92 -62 -119z" />
    <glyph glyph-name="uni04DF" unicode="&#x4df;" horiz-adv-x="664" 
d="M196 668h68v-74h-68v74zM400 668h68v-74h-68v74zM547 275q55 -16 55 -90v-84q0 -101 -101 -101h-338q-101 0 -101 101v62h79v-42q0 -33 13 -46t46 -13h262q33 0 46 13t13 46v65q0 33 -13 46t-46 13h-160v57h153q32 0 45.5 14t13.5 47v40q0 33 -13.5 46t-45.5 13h-248
q-32 0 -45.5 -13t-13.5 -46v-36h-79v56q0 101 101 101h324q101 0 101 -101v-58q0 -71 -48 -90z" />
    <glyph glyph-name="uni04E2" unicode="&#x4e2;" horiz-adv-x="804" 
d="M214 842h376v-51h-376v51zM154 132l507 568h71v-700h-82v574l-512 -574h-66v700h82v-568z" />
    <glyph glyph-name="uni04E3" unicode="&#x4e3;" horiz-adv-x="697" 
d="M161 666h376v-51h-376v51zM150 109l408 415h68v-524h-79v420l-413 -420h-62v524h78v-415z" />
    <glyph glyph-name="uni04E4" unicode="&#x4e4;" horiz-adv-x="804" 
d="M266 844h68v-74h-68v74zM470 844h68v-74h-68v74zM154 132l507 568h71v-700h-82v574l-512 -574h-66v700h82v-568z" />
    <glyph glyph-name="uni04E5" unicode="&#x4e5;" horiz-adv-x="697" 
d="M213 668h68v-74h-68v74zM417 668h68v-74h-68v74zM150 109l408 415h68v-524h-79v420l-413 -420h-62v524h78v-415z" />
    <glyph glyph-name="uni04E6" unicode="&#x4e6;" horiz-adv-x="795" 
d="M329 770h-68v74h68v-74zM533 770h-68v74h68v-74zM554 0h-314q-92 0 -135 42.5t-43 135.5v344q0 93 43 135.5t135 42.5h314q92 0 135 -42.5t43 -135.5v-344q0 -93 -43 -135.5t-135 -42.5zM264 73h266q65 0 91.5 26.5t26.5 91.5v318q0 65 -26.5 91.5t-91.5 26.5h-266
q-64 0 -91 -26.5t-27 -91.5v-318q0 -65 27 -91.5t91 -26.5z" />
    <glyph glyph-name="uni04E7" unicode="&#x4e7;" horiz-adv-x="674" 
d="M269 594h-68v74h68v-74zM473 594h-68v74h68v-74zM454 0h-234q-84 0 -121 36.5t-37 121.5v208q0 85 37 121.5t121 36.5h234q84 0 121 -36.5t37 -121.5v-208q0 -85 -37 -121.5t-121 -36.5zM243 67h188q58 0 79 21.5t21 79.5v188q0 58 -21 79.5t-79 21.5h-188
q-58 0 -79 -21.5t-21 -79.5v-188q0 -58 21 -79.5t79 -21.5z" />
    <glyph glyph-name="uni04EC" unicode="&#x4ec;" horiz-adv-x="781" 
d="M255 844h68v-74h-68v74zM459 844h68v-74h-68v74zM237 700h304q92 0 135 -42.5t43 -135.5v-344q0 -93 -43 -135.5t-135 -42.5h-304q-92 0 -135 42.5t-43 135.5v76h82v-68q0 -64 26.5 -91t91.5 -27h258q65 0 91.5 27t26.5 91v147h-288v61h288v120q0 64 -26.5 91t-91.5 27
h-258q-65 0 -91.5 -27t-26.5 -91v-59h-82v67q0 93 43 135.5t135 42.5z" />
    <glyph glyph-name="uni04ED" unicode="&#x4ed;" horiz-adv-x="672" 
d="M190 668h68v-74h-68v74zM394 668h68v-74h-68v74zM220 524h232q84 0 121 -36.5t37 -121.5v-208q0 -85 -37 -121.5t-121 -36.5h-232q-84 0 -121 36.5t-37 121.5v46h79v-38q0 -58 21 -79t79 -21h188q58 0 79 21t21 79v81h-225v55h225v56q0 58 -21 79t-79 21h-188
q-58 0 -79 -21t-21 -79v-29h-79v37q0 85 37 121.5t121 36.5z" />
    <glyph glyph-name="uni04EE" unicode="&#x4ee;" horiz-adv-x="712" 
d="M168 842h376v-51h-376v51zM358 293l261 407h95l-461 -700h-92l149 227l-312 473h99z" />
    <glyph glyph-name="uni04EF" unicode="&#x4ef;" horiz-adv-x="618" 
d="M121 666h376v-51h-376v51zM309 86l213 438h88l-276 -543q-43 -88 -90 -115q-47 -26 -146 -26h-46v67h57q63 0 95 18q31 19 61 76l4 7l-261 516h91z" />
    <glyph glyph-name="uni04F0" unicode="&#x4f0;" horiz-adv-x="712" 
d="M220 844h68v-74h-68v74zM424 844h68v-74h-68v74zM358 293l261 407h95l-461 -700h-92l149 227l-312 473h99z" />
    <glyph glyph-name="uni04F1" unicode="&#x4f1;" horiz-adv-x="618" 
d="M173 668h68v-74h-68v74zM377 668h68v-74h-68v74zM309 86l213 438h88l-276 -543q-43 -88 -90 -115q-47 -26 -146 -26h-46v67h57q63 0 95 18q31 19 61 76l4 7l-261 516h91z" />
    <glyph glyph-name="uni04F2" unicode="&#x4f2;" horiz-adv-x="712" 
d="M305 876h89l-113 -122h-71zM508 876h90l-113 -122h-71zM358 293l261 407h95l-461 -700h-92l149 227l-312 473h99z" />
    <glyph glyph-name="uni04F3" unicode="&#x4f3;" horiz-adv-x="618" 
d="M258 700h89l-113 -122h-71zM461 700h90l-113 -122h-71zM309 86l213 438h88l-276 -543q-43 -88 -90 -115q-47 -26 -146 -26h-46v67h57q63 0 95 18q31 19 61 76l4 7l-261 516h91z" />
    <glyph glyph-name="uni04F4" unicode="&#x4f4;" horiz-adv-x="728" 
d="M296 770h-68v74h68v-74zM500 770h-68v74h68v-74zM656 0h-84v276h-378q-84 0 -121 36.5t-37 121.5v266h84v-249q0 -58 21 -79t79 -21h352v349h84v-700z" />
    <glyph glyph-name="uni04F5" unicode="&#x4f5;" horiz-adv-x="600" 
d="M140 594h-68v74h68v-74zM344 594h-68v74h68v-74zM36 525l81 -1v-168q0 -44 18 -62t62 -18h282v248h81v-524h-81v207h-309q-69 0 -101.5 32.5t-32.5 101.5v184z" />
    <glyph glyph-name="uni04F8" unicode="&#x4f8;" horiz-adv-x="968" 
d="M780 770h-68v74h68v-74zM984 770h-68v74h68v-74zM72 0v700h84v-260h378q84 0 121 -36.5t37 -121.5v-124q0 -85 -37 -121.5t-121 -36.5h-462zM806 0v700h84v-700h-84zM508 373h-352v-304h352q58 0 79 21t21 79v104q0 58 -21 79t-79 21z" />
    <glyph glyph-name="uni04F9" unicode="&#x4f9;" horiz-adv-x="865" 
d="M680 594h-68v74h68v-74zM884 594h-68v74h68v-74zM72 0v524h80v-194h314q66 0 98 -31.5t32 -98.5v-70q0 -68 -31.5 -99t-98.5 -31h-394zM789 0h-81v524h81v-524zM438 270h-286v-208h286q43 0 60 16.5t17 59.5v56q0 42 -17 59t-60 17z" />
    <glyph glyph-name="Wgrave" unicode="&#x1e80;" horiz-adv-x="1086" 
d="M470 876l105 -122h-73l-125 122h93zM780 113l210 587h88l-260 -700h-75l-200 572l-200 -572h-75l-260 700h93l209 -586l201 586h67z" />
    <glyph glyph-name="wgrave" unicode="&#x1e81;" horiz-adv-x="882" 
d="M368 700l105 -122h-73l-125 122h93zM633 99l158 425h83l-207 -524h-70l-155 416l-156 -416h-71l-207 524h86l160 -424l157 424h63z" />
    <glyph glyph-name="Wacute" unicode="&#x1e82;" horiz-adv-x="1086" 
d="M616 876h93l-125 -122h-73zM780 113l210 587h88l-260 -700h-75l-200 572l-200 -572h-75l-260 700h93l209 -586l201 586h67z" />
    <glyph glyph-name="wacute" unicode="&#x1e83;" horiz-adv-x="882" 
d="M514 700h93l-125 -122h-73zM633 99l158 425h83l-207 -524h-70l-155 416l-156 -416h-71l-207 524h86l160 -424l157 424h63z" />
    <glyph glyph-name="Wdieresis" unicode="&#x1e84;" horiz-adv-x="1086" 
d="M407 844h68v-74h-68v74zM611 844h68v-74h-68v74zM780 113l210 587h88l-260 -700h-75l-200 572l-200 -572h-75l-260 700h93l209 -586l201 586h67z" />
    <glyph glyph-name="wdieresis" unicode="&#x1e85;" horiz-adv-x="882" 
d="M305 668h68v-74h-68v74zM509 668h68v-74h-68v74zM633 99l158 425h83l-207 -524h-70l-155 416l-156 -416h-71l-207 524h86l160 -424l157 424h63z" />
    <glyph glyph-name="uni1E9E" unicode="&#x1e9e;" horiz-adv-x="792" 
d="M464 409h135q69 0 101.5 -32.5t32.5 -101.5v-141q0 -69 -32.5 -101.5t-101.5 -32.5h-262v67h232q44 0 62 18t18 62v118q0 44 -18 62t-62 18h-212v46l215 237h-307q-65 0 -91.5 -27t-26.5 -91v-510h-84v522q0 93 43 135.5t135 42.5h446v-41z" />
    <glyph glyph-name="Ygrave" unicode="&#x1ef2;" horiz-adv-x="712" 
d="M283 876l105 -122h-73l-125 122h93zM619 700h95l-316 -439v-261h-84v261l-316 439h99l262 -372z" />
    <glyph glyph-name="ygrave" unicode="&#x1ef3;" horiz-adv-x="618" 
d="M236 700l105 -122h-73l-125 122h93zM309 86l213 438h88l-276 -543q-43 -88 -90 -115q-47 -26 -146 -26h-46v67h57q63 0 95 18q31 19 61 76l4 7l-261 516h91z" />
    <glyph glyph-name="endash" unicode="&#x2013;" horiz-adv-x="640" 
d="M54 315v70h532v-70h-532z" />
    <glyph glyph-name="emdash" unicode="&#x2014;" horiz-adv-x="900" 
d="M54 315v70h792v-70h-792z" />
    <glyph glyph-name="quoteleft" unicode="&#x2018;" horiz-adv-x="248" 
d="M128 700h53l-43 -160h38v-96h-104v45q0 39 12 69z" />
    <glyph glyph-name="quoteright" unicode="&#x2019;" horiz-adv-x="248" 
d="M120 444h-53l43 160h-38v96h104v-45q0 -39 -12 -69z" />
    <glyph glyph-name="quotesinglbase" unicode="&#x201a;" horiz-adv-x="248" 
d="M120 -160h-53l43 160h-38v96h104v-45q0 -39 -12 -69z" />
    <glyph glyph-name="quotedblleft" unicode="&#x201c;" horiz-adv-x="460" 
d="M128 700h53l-43 -160h38v-96h-104v45q0 39 12 69zM340 700h53l-43 -160h38v-96h-104v45q0 39 12 69z" />
    <glyph glyph-name="quotedblright" unicode="&#x201d;" horiz-adv-x="460" 
d="M120 444h-53l43 160h-38v96h104v-45q0 -39 -12 -69zM332 444h-53l43 160h-38v96h104v-45q0 -39 -12 -69z" />
    <glyph glyph-name="quotedblbase" unicode="&#x201e;" horiz-adv-x="460" 
d="M120 -160h-53l43 160h-38v96h104v-45q0 -39 -12 -69zM332 -160h-53l43 160h-38v96h104v-45q0 -39 -12 -69z" />
    <glyph glyph-name="dagger" unicode="&#x2020;" horiz-adv-x="410" 
d="M235 572h129v-56h-129v-234h-60v234h-129v56h129v128h60v-128z" />
    <glyph glyph-name="daggerdbl" unicode="&#x2021;" horiz-adv-x="410" 
d="M364 576v-54h-129v-154h129v-54h-129v-124h-60v124h-129v54h129v154h-129v54h129v124h60v-124h129z" />
    <glyph glyph-name="bullet" unicode="&#x2022;" horiz-adv-x="340" 
d="M213 252h-86q-55 0 -55 55v86q0 55 55 55h86q55 0 55 -55v-86q0 -55 -55 -55z" />
    <glyph glyph-name="perthousand" unicode="&#x2030;" horiz-adv-x="1240" 
d="M266 308h-116q-104 0 -104 104v104q0 54 25.5 79t78.5 25h116q53 0 78.5 -25t25.5 -79v-104q0 -104 -104 -104zM197 0h-64l530 620h64zM163 359h90q34 0 48 14.5t14 47.5v86q0 34 -14 48t-48 14h-90q-33 0 -47.5 -14t-14.5 -48v-86q0 -33 14.5 -47.5t47.5 -14.5zM710 0
h-116q-104 0 -104 104v104q0 54 25.5 79t78.5 25h116q53 0 78.5 -25t25.5 -79v-104q0 -104 -104 -104zM1090 0h-116q-104 0 -104 104v104q0 54 25.5 79t78.5 25h116q53 0 78.5 -25t25.5 -79v-104q0 -104 -104 -104zM607 51h90q34 0 48 14.5t14 47.5v86q0 34 -14 48t-48 14
h-90q-33 0 -47.5 -14t-14.5 -48v-86q0 -33 14.5 -47.5t47.5 -14.5zM987 51h90q34 0 48 14.5t14 47.5v86q0 34 -14 48t-48 14h-90q-33 0 -47.5 -14t-14.5 -48v-86q0 -33 14.5 -47.5t47.5 -14.5z" />
    <glyph glyph-name="guilsinglleft" unicode="&#x2039;" horiz-adv-x="424" 
d="M56 376l312 204v-75l-249 -155l249 -155v-77l-312 204v54z" />
    <glyph glyph-name="guilsinglright" unicode="&#x203a;" horiz-adv-x="424" 
d="M56 503v77l312 -204v-54l-312 -204v75l249 155z" />
    <glyph glyph-name="fraction" unicode="&#x2044;" horiz-adv-x="188" 
d="M-150 0h-62l550 700h62z" />
    <glyph glyph-name="Euro" unicode="&#x20ac;" horiz-adv-x="772" 
d="M696 522v-67h-80v60q0 65 -27 91.5t-91 26.5h-192q-64 0 -91 -26.5t-27 -91.5v-67h294v-47h-294v-102h294v-47h-294v-67q0 -65 27 -91.5t91 -26.5h192q64 0 91 26.5t27 91.5v69h80v-76q0 -93 -43 -135.5t-135 -42.5h-234q-92 0 -135 42.5t-43 135.5v74h-98v47h98v102h-98
v47h98v74q0 93 43 135.5t135 42.5h234q92 0 135 -42.5t43 -135.5z" />
    <glyph glyph-name="trademark" unicode="&#x2122;" horiz-adv-x="578" 
d="M36 700h216v-41h-86v-192h-44v192h-86v41zM413 563l90 137h39v-233h-42v162l-77 -113h-23l-76 113v-162h-43v233h41z" />
    <glyph glyph-name="minus" unicode="&#x2212;" 
d="M74 315v70h604v-70h-604z" />
    <glyph glyph-name="approxequal" unicode="&#x2248;" 
d="M337 614l143 -160q17 -19 29 -24t36 -5h20q23 0 32 9t9 32v208h72v-216q0 -50 -21 -71t-71 -21h-51q-43 0 -65 11q-22 10 -55 49l-143 160q-17 19 -29 24t-36 5h-20q-23 0 -32 -9t-9 -32v-208h-72v216q0 50 21 71t71 21h51q41 0 65 -11q20 -9 55 -49zM337 274l143 -160
q17 -19 29 -24t36 -5h20q23 0 32 9t9 32v208h72v-216q0 -50 -21 -71t-71 -21h-51q-43 0 -65 11q-22 10 -55 49l-143 160q-17 19 -29 24t-36 5h-20q-23 0 -32 -9t-9 -32v-208h-72v216q0 50 21 71t71 21h51q41 0 65 -11q20 -9 55 -49z" />
    <glyph glyph-name="notequal" unicode="&#x2260;" 
d="M678 507v-68h-227l-82 -178h309v-68h-340l-64 -141h-68l64 141h-196v68h227l82 178h-309v68h340l64 141h68l-64 -141h196z" />
    <glyph glyph-name="lessequal" unicode="&#x2264;" 
d="M74 476l604 192v-73l-527 -151l527 -151v-73l-604 192v64zM678 32h-604v64h604v-64z" />
    <glyph glyph-name="greaterequal" unicode="&#x2265;" 
d="M74 595v73l604 -192v-64l-604 -192v73l527 151zM678 32h-604v64h604v-64z" />
    <glyph glyph-name="fi" unicode="&#xfb01;" horiz-adv-x="703" 
d="M132 462v104q0 69 32.5 101.5t101.5 32.5h186v-67h-159q-44 0 -62 -18t-18 -62v-91h239v-66h-239v-396h-81v396h-114v66h114zM546 621v79h81v-79h-81zM627 0h-81v524h81v-524z" />
    <glyph glyph-name="fl" unicode="&#xfb02;" horiz-adv-x="703" 
d="M132 462v104q0 69 32.5 101.5t101.5 32.5h186v-67h-159q-44 0 -62 -18t-18 -62v-91h239v-66h-239v-396h-81v396h-114v66h114zM546 0v700h81v-700h-81z" />
    <glyph glyph-name="null" horiz-adv-x="0" 
 />
    <glyph glyph-name="A.ss01" horiz-adv-x="780" 
d="M241 700h298q92 0 135 -42.5t43 -135.5v-522h-84v253h-486v-253h-84v522q0 93 43 135.5t135 42.5zM147 509v-186h486v186q0 65 -26.5 91.5t-91.5 26.5h-250q-65 0 -91.5 -26.5t-26.5 -91.5z" />
    <glyph glyph-name="Aacute.ss01" horiz-adv-x="780" 
d="M466 876h93l-125 -122h-73zM241 700h298q92 0 135 -42.5t43 -135.5v-522h-84v253h-486v-253h-84v522q0 93 43 135.5t135 42.5zM147 509v-186h486v186q0 65 -26.5 91.5t-91.5 26.5h-250q-65 0 -91.5 -26.5t-26.5 -91.5z" />
    <glyph glyph-name="Abreve.ss01" horiz-adv-x="780" 
d="M496 754h-206q-72 0 -72 72v50h62v-42q0 -33 33 -33h160q33 0 33 33v42h62v-50q0 -72 -72 -72zM241 700h298q92 0 135 -42.5t43 -135.5v-522h-84v253h-486v-253h-84v522q0 93 43 135.5t135 42.5zM147 509v-186h486v186q0 65 -26.5 91.5t-91.5 26.5h-250
q-65 0 -91.5 -26.5t-26.5 -91.5z" />
    <glyph glyph-name="Acircumflex.ss01" horiz-adv-x="780" 
d="M497 754l-104 82l-104 -82h-67l128 122h86l128 -122h-67zM241 700h298q92 0 135 -42.5t43 -135.5v-522h-84v253h-486v-253h-84v522q0 93 43 135.5t135 42.5zM147 509v-186h486v186q0 65 -26.5 91.5t-91.5 26.5h-250q-65 0 -91.5 -26.5t-26.5 -91.5z" />
    <glyph glyph-name="Adieresis.ss01" horiz-adv-x="780" 
d="M257 844h68v-74h-68v74zM461 844h68v-74h-68v74zM241 700h298q92 0 135 -42.5t43 -135.5v-522h-84v253h-486v-253h-84v522q0 93 43 135.5t135 42.5zM147 509v-186h486v186q0 65 -26.5 91.5t-91.5 26.5h-250q-65 0 -91.5 -26.5t-26.5 -91.5z" />
    <glyph glyph-name="Agrave.ss01" horiz-adv-x="780" 
d="M320 876l105 -122h-73l-125 122h93zM241 700h298q92 0 135 -42.5t43 -135.5v-522h-84v253h-486v-253h-84v522q0 93 43 135.5t135 42.5zM147 509v-186h486v186q0 65 -26.5 91.5t-91.5 26.5h-250q-65 0 -91.5 -26.5t-26.5 -91.5z" />
    <glyph glyph-name="Amacron.ss01" horiz-adv-x="780" 
d="M205 842h376v-51h-376v51zM241 700h298q92 0 135 -42.5t43 -135.5v-522h-84v253h-486v-253h-84v522q0 93 43 135.5t135 42.5zM147 509v-186h486v186q0 65 -26.5 91.5t-91.5 26.5h-250q-65 0 -91.5 -26.5t-26.5 -91.5z" />
    <glyph glyph-name="Aogonek.ss01" horiz-adv-x="780" 
d="M659 -108h101v-52h-118q-41 0 -59.5 18.5t-18.5 59.5v15q0 33 8.5 48t38.5 33l22 12v227h-486v-253h-84v522q0 93 43 135.5t135 42.5h298q92 0 135 -42.5t43 -135.5v-522h-49l-20 -12q-17 -9 -21.5 -17t-4.5 -26v-16q0 -20 8.5 -28.5t28.5 -8.5zM147 509v-186h486v186
q0 65 -26.5 91.5t-91.5 26.5h-250q-65 0 -91.5 -26.5t-26.5 -91.5z" />
    <glyph glyph-name="Aring.ss01" horiz-adv-x="780" 
d="M477 744h-168q-29 0 -41.5 13t-12.5 41v24q0 28 12.5 41t41.5 13h168q29 0 41.5 -13t12.5 -41v-24q0 -28 -12.5 -41t-41.5 -13zM299 818v-16q0 -13 4 -17.5t17 -4.5h146q13 0 17 4.5t4 17.5v16q0 13 -4 17.5t-17 4.5h-146q-13 0 -17 -4.5t-4 -17.5zM241 700h298
q92 0 135 -42.5t43 -135.5v-522h-84v253h-486v-253h-84v522q0 93 43 135.5t135 42.5zM147 509v-186h486v186q0 65 -26.5 91.5t-91.5 26.5h-250q-65 0 -91.5 -26.5t-26.5 -91.5z" />
    <glyph glyph-name="Aringacute.ss01" horiz-adv-x="780" 
d="M529 700h10q92 0 135 -42.5t43 -135.5v-522h-84v253h-486v-253h-84v522q0 93 43 135.5t135 42.5h16q-2 16 -2 22v24q0 28 12.5 41t41.5 13h64l65 76h93l-78 -76h24q29 0 41.5 -13t12.5 -41v-24q0 -6 -2 -22zM299 742v-16q0 -13 4 -17.5t17 -4.5h146q13 0 17 4.5t4 17.5
v16q0 13 -4 17.5t-17 4.5h-146q-13 0 -17 -4.5t-4 -17.5zM147 509v-186h486v186q0 65 -26.5 91.5t-91.5 26.5h-250q-65 0 -91.5 -26.5t-26.5 -91.5z" />
    <glyph glyph-name="Atilde.ss01" horiz-adv-x="780" 
d="M273 817v-63h-55v72q0 50 51 50h61q23 0 35.5 -5t28.5 -21l46 -43q14 -12 31 -12h25q17 0 17 18v63h55v-72q0 -50 -51 -50h-61q-23 0 -35.5 5t-28.5 21l-46 43q-13 12 -31 12h-25q-17 0 -17 -18zM241 700h298q92 0 135 -42.5t43 -135.5v-522h-84v253h-486v-253h-84v522
q0 93 43 135.5t135 42.5zM147 509v-186h486v186q0 65 -26.5 91.5t-91.5 26.5h-250q-65 0 -91.5 -26.5t-26.5 -91.5z" />
    <glyph glyph-name="I.ss01" horiz-adv-x="568" 
d="M532 700v-66h-206v-568h206v-66h-496v66h206v568h-206v66h496z" />
    <glyph glyph-name="Iacute.ss01" horiz-adv-x="568" 
d="M357 876h93l-125 -122h-73zM532 700v-66h-206v-568h206v-66h-496v66h206v568h-206v66h496z" />
    <glyph glyph-name="Icircumflex.ss01" horiz-adv-x="568" 
d="M388 754l-104 82l-104 -82h-67l128 122h86l128 -122h-67zM532 700v-66h-206v-568h206v-66h-496v66h206v568h-206v66h496z" />
    <glyph glyph-name="Idieresis.ss01" horiz-adv-x="568" 
d="M148 844h68v-74h-68v74zM352 844h68v-74h-68v74zM532 700v-66h-206v-568h206v-66h-496v66h206v568h-206v66h496z" />
    <glyph glyph-name="Idotaccent.ss01" horiz-adv-x="568" 
d="M243 844h82v-74h-82v74zM532 700v-66h-206v-568h206v-66h-496v66h206v568h-206v66h496z" />
    <glyph glyph-name="Igrave.ss01" horiz-adv-x="568" 
d="M211 876l105 -122h-73l-125 122h93zM532 700v-66h-206v-568h206v-66h-496v66h206v568h-206v66h496z" />
    <glyph glyph-name="Imacron.ss01" horiz-adv-x="568" 
d="M96 842h376v-51h-376v51zM532 700v-66h-206v-568h206v-66h-496v66h206v568h-206v66h496z" />
    <glyph glyph-name="Iogonek.ss01" horiz-adv-x="568" 
d="M532 700v-66h-206v-568h206v-66h-92l-20 -12q-17 -9 -21.5 -17t-4.5 -26v-16q0 -20 8.5 -28.5t28.5 -8.5h101v-52h-118q-41 0 -59.5 18.5t-18.5 59.5v15q0 27 5 40.5t21 26.5h-326v66h206v568h-206v66h496z" />
    <glyph glyph-name="Itilde.ss01" horiz-adv-x="568" 
d="M164 817v-63h-55v72q0 50 51 50h61q23 0 35.5 -5t28.5 -21l46 -43q13 -12 31 -12h25q17 0 17 18v63h55v-72q0 -50 -51 -50h-61q-23 0 -35.5 5t-28.5 21l-46 43q-13 12 -31 12h-25q-17 0 -17 -18zM532 700v-66h-206v-568h206v-66h-496v66h206v568h-206v66h496z" />
    <glyph glyph-name="R.ss01" horiz-adv-x="755" 
d="M692 566v-132q0 -94 -66 -120q66 -26 66 -120v-194h-84v200q0 44 -18.5 62.5t-62.5 18.5h-371v-281h-84v700h486q69 0 101.5 -32.5t32.5 -101.5zM527 633h-371v-286h371q44 0 62.5 18.5t18.5 62.5v124q0 44 -18.5 62.5t-62.5 18.5z" />
    <glyph glyph-name="Racute.ss01" horiz-adv-x="755" 
d="M451 876h93l-125 -122h-73zM692 566v-132q0 -94 -66 -120q66 -26 66 -120v-194h-84v200q0 44 -18.5 62.5t-62.5 18.5h-371v-281h-84v700h486q69 0 101.5 -32.5t32.5 -101.5zM527 633h-371v-286h371q44 0 62.5 18.5t18.5 62.5v124q0 44 -18.5 62.5t-62.5 18.5z" />
    <glyph glyph-name="Rcaron.ss01" horiz-adv-x="755" 
d="M549 876l-128 -122h-86l-128 122h67l104 -82l104 82h67zM692 566v-132q0 -94 -66 -120q66 -26 66 -120v-194h-84v200q0 44 -18.5 62.5t-62.5 18.5h-371v-281h-84v700h486q69 0 101.5 -32.5t32.5 -101.5zM527 633h-371v-286h371q44 0 62.5 18.5t18.5 62.5v124
q0 44 -18.5 62.5t-62.5 18.5z" />
    <glyph glyph-name="Rcommaaccent.ss01" horiz-adv-x="755" 
d="M692 566v-132q0 -94 -66 -120q66 -26 66 -120v-194h-84v200q0 44 -18.5 62.5t-62.5 18.5h-371v-281h-84v700h486q69 0 101.5 -32.5t32.5 -101.5zM527 633h-371v-286h371q44 0 62.5 18.5t18.5 62.5v124q0 44 -18.5 62.5t-62.5 18.5zM367 -102h-35v72h92v-35q0 -30 -16 -56
l-30 -57h-47z" />
    <glyph glyph-name="i.loclTRK" horiz-adv-x="233" 
d="M157 594h-82v74h82v-74zM157 0h-81v524h81v-524z" />
    <glyph glyph-name="uni0410.ss01" horiz-adv-x="786" 
d="M241 700h304q92 0 135 -42.5t43 -135.5v-522h-84v253h-492v-253h-84v522q0 93 43 135.5t135 42.5zM147 509v-186h492v186q0 65 -26.5 91.5t-91.5 26.5h-256q-65 0 -91.5 -26.5t-26.5 -91.5z" />
    <glyph glyph-name="uni042F.ss01" horiz-adv-x="755" 
d="M197 700h486v-700h-84v281h-371q-44 0 -62.5 -18.5t-18.5 -62.5v-200h-84v194q0 94 66 120q-66 26 -66 120v132q0 69 32.5 101.5t101.5 32.5zM147 552v-124q0 -44 18.5 -62.5t62.5 -18.5h371v286h-371q-44 0 -62.5 -18.5t-18.5 -62.5z" />
    <glyph glyph-name="uni044F.ss01" horiz-adv-x="650" 
d="M154 524h424v-524h-81v207h-305q-33 0 -46 -13t-13 -46v-148h-79v149q0 71 50 89q-50 18 -50 91v94q0 101 100 101zM135 405v-80q0 -32 13.5 -46t46.5 -14h302v199h-302q-33 0 -46.5 -13t-13.5 -46z" />
    <glyph glyph-name="zero.tf" 
d="M498 0h-244q-92 0 -135 42.5t-43 135.5v344q0 93 43 135.5t135 42.5h244q92 0 135 -42.5t43 -135.5v-344q0 -93 -43 -135.5t-135 -42.5zM276 71h200q64 0 91 26.5t27 91.5v322q0 65 -27 91.5t-91 26.5h-200q-64 0 -91 -26.5t-27 -91.5v-322q0 -65 27 -91.5t91 -26.5z" />
    <glyph glyph-name="one.tf" 
d="M441 700v-631h257v-69h-644v69h305v556l-275 -26v71l319 30h38z" />
    <glyph glyph-name="two.tf" 
d="M666 71v-71h-590v203q0 66 31 98t103 44l304 52q46 8 63 26.5t17 59.5v68q0 44 -18 62t-62 18h-264q-44 0 -62 -18t-18 -62v-40h-80v55q0 69 32.5 101.5t101.5 32.5h318q69 0 101.5 -32.5t32.5 -101.5v-95q0 -66 -31 -98t-103 -44l-304 -52q-46 -8 -63 -26t-17 -60v-120
h508z" />
    <glyph glyph-name="three.tf" 
d="M606 368q72 -22 72 -122v-112q0 -69 -32.5 -101.5t-101.5 -32.5h-336q-69 0 -101.5 32.5t-32.5 101.5v81h80v-68q0 -44 18 -62t62 -18h282q44 0 62 18t18 62v108q0 44 -18 62t-62 18h-191v64h181q44 0 62 18t18 62v74q0 44 -18 62t-62 18h-262q-44 0 -62 -18t-18 -62v-60
h-80v73q0 69 32.5 101.5t101.5 32.5h316q69 0 101.5 -32.5t32.5 -101.5v-79q0 -92 -62 -119z" />
    <glyph glyph-name="four.tf" 
d="M559 246h159v-66h-159v-180h-80v180h-445v55l432 465h93v-454zM479 624l-352 -378h352v378z" />
    <glyph glyph-name="five.tf" 
d="M542 0h-462v71h434q44 0 62 18t18 62v115q0 44 -18 62t-62 18h-434v354h566v-71h-484v-214h380q69 0 101.5 -32.5t32.5 -101.5v-147q0 -69 -32.5 -101.5t-101.5 -32.5z" />
    <glyph glyph-name="six.tf" 
d="M258 419h284q68 0 101 -32.5t33 -101.5v-151q0 -69 -32.5 -101.5t-101.5 -32.5h-332q-69 0 -101.5 32.5t-32.5 101.5v388q0 93 43 135.5t135 42.5h392v-71h-370q-64 0 -91 -26.5t-27 -91.5v-127q32 35 100 35zM594 149v122q0 44 -18 62t-62 18h-276q-44 0 -62 -18
t-18 -62v-122q0 -44 18 -62t62 -18h276q44 0 62 18t18 62z" />
    <glyph glyph-name="seven.tf" 
d="M54 627v73h644v-62l-267 -289q-38 -41 -50 -80q-13 -38 -13 -103v-166h-83v168q0 76 16.5 124t59.5 94l226 241h-533z" />
    <glyph glyph-name="eight.tf" 
d="M606 368q72 -22 72 -122v-112q0 -69 -32.5 -101.5t-101.5 -32.5h-336q-69 0 -101.5 32.5t-32.5 101.5v112q0 100 72 122q-62 27 -62 119v79q0 69 32.5 101.5t101.5 32.5h316q69 0 101.5 -32.5t32.5 -101.5v-79q0 -92 -62 -119zM166 554v-76q0 -44 18 -62t62 -18h260
q44 0 62 18t18 62v76q0 44 -18 62t-62 18h-260q-44 0 -62 -18t-18 -62zM596 146v110q0 44 -18 62t-62 18h-280q-44 0 -62 -18t-18 -62v-110q0 -44 18 -62t62 -18h280q44 0 62 18t18 62z" />
    <glyph glyph-name="nine.tf" 
d="M210 700h332q69 0 101.5 -32.5t32.5 -101.5v-388q0 -93 -43 -135.5t-135 -42.5h-392v71h370q64 0 91 26.5t27 91.5v120q-32 -35 -100 -35h-284q-69 0 -101.5 32.5t-32.5 101.5v158q0 69 32.5 101.5t101.5 32.5zM238 342h276q44 0 62 18t18 62v129q0 44 -18 62t-62 18
h-276q-44 0 -62 -18t-18 -62v-129q0 -44 18 -62t62 -18z" />
    <glyph glyph-name="zero.subs" horiz-adv-x="487" 
d="M318 -100h-149q-57 0 -84 27t-27 85v197q0 58 27 84.5t84 26.5h149q57 0 84 -26.5t27 -84.5v-197q0 -58 -27 -85t-84 -27zM190 -38h107q34 0 47.5 13.5t13.5 46.5v176q0 33 -13.5 46.5t-47.5 13.5h-107q-33 0 -47 -13.5t-14 -46.5v-176q0 -33 14 -46.5t47 -13.5z" />
    <glyph glyph-name="one.subs" horiz-adv-x="451" 
d="M274 320v-361h136v-59h-369v59h161v296l-143 -14v61l182 18h33z" />
    <glyph glyph-name="two.subs" horiz-adv-x="487" 
d="M423 -39v-61h-365v127q0 42 20 62.5t65 27.5l174 27q23 4 32 13t9 31v34q0 22 -9 31.5t-32 9.5h-140q-23 0 -32.5 -9t-9.5 -32v-23h-69v36q0 85 85 85h193q44 0 64.5 -20.5t20.5 -64.5v-56q0 -42 -20 -62t-65 -27l-174 -27q-23 -4 -32 -13.5t-9 -30.5v-58h294z" />
    <glyph glyph-name="three.subs" horiz-adv-x="484" 
d="M384 120q45 -15 45 -76v-59q0 -44 -20.5 -64.5t-64.5 -20.5h-203q-44 0 -65 20.5t-21 64.5v52h70v-38q0 -23 8.5 -32t31.5 -9h152q23 0 31.5 9t8.5 32v52q0 23 -9 32t-31 9h-105v53h99q22 0 31 9t9 32v35q0 23 -8.5 32t-31.5 9h-140q-23 0 -31.5 -9t-8.5 -32v-32h-70v46
q0 44 21 64.5t65 20.5h191q44 0 64.5 -20.5t20.5 -64.5v-42q0 -59 -39 -73z" />
    <glyph glyph-name="four.subs" horiz-adv-x="505" 
d="M371 55h93v-56h-93v-99h-69v99h-261v47l251 274h79v-265zM302 253l-180 -198h180v198z" />
    <glyph glyph-name="five.subs" horiz-adv-x="468" 
d="M325 -100h-266v61h239q23 0 32 9t9 32v54q0 22 -9.5 31.5t-31.5 9.5h-239v223h333v-61h-261v-104h194q44 0 64.5 -20.5t20.5 -65.5v-84q0 -44 -20.5 -64.5t-64.5 -20.5z" />
    <glyph glyph-name="six.subs" horiz-adv-x="487" 
d="M190 155h154q85 0 85 -84v-86q0 -44 -20.5 -64.5t-64.5 -20.5h-201q-44 0 -64.5 20.5t-20.5 64.5v224q0 58 27 84.5t84 26.5h242v-61h-221q-33 0 -47 -13.5t-14 -46.5v-65q17 21 61 21zM358 0v59q0 23 -9 32.5t-32 9.5h-147q-23 0 -32 -9.5t-9 -32.5v-59q0 -22 9.5 -31.5
t31.5 -9.5h147q23 0 32 9.5t9 31.5z" />
    <glyph glyph-name="seven.subs" horiz-adv-x="463" 
d="M41 256v64h381v-55l-153 -171q-19 -21 -25 -40.5t-6 -55.5v-98h-74v95q0 49 9 76.5t35 56.5l116 128h-283z" />
    <glyph glyph-name="eight.subs" horiz-adv-x="487" 
d="M386 120q45 -15 45 -76v-59q0 -85 -85 -85h-204q-44 0 -64.5 20.5t-20.5 64.5v59q0 61 45 76q-39 15 -39 73v42q0 44 20.5 64.5t64.5 20.5h192q85 0 85 -85v-42q0 -58 -39 -73zM134 222v-38q0 -22 9 -31t32 -9h137q23 0 32 8.5t9 31.5v38q0 23 -9 32t-32 9h-137
q-23 0 -32 -9.5t-9 -31.5zM359 -2v54q0 23 -9 32t-32 9h-149q-23 0 -32 -9.5t-9 -31.5v-54q0 -22 9 -31.5t32 -9.5h149q23 0 32 9t9 32z" />
    <glyph glyph-name="nine.subs" horiz-adv-x="487" 
d="M143 320h201q44 0 64.5 -20.5t20.5 -64.5v-223q0 -58 -27 -85t-84 -27h-242v60h221q34 0 47.5 14t13.5 47v61q-16 -21 -61 -21h-154q-44 0 -64.5 20.5t-20.5 64.5v89q0 44 20.5 64.5t64.5 20.5zM170 116h147q23 0 32 9.5t9 32.5v62q0 22 -9 31.5t-32 9.5h-147
q-22 0 -31.5 -9.5t-9.5 -31.5v-62q0 -23 9 -32.5t32 -9.5z" />
    <glyph glyph-name="zero.dnom" horiz-adv-x="487" 
d="M318 0h-149q-57 0 -84 27t-27 85v197q0 58 27 84.5t84 26.5h149q57 0 84 -26.5t27 -84.5v-197q0 -58 -27 -85t-84 -27zM190 62h107q33 0 47 14t14 46v176q0 33 -13.5 46.5t-47.5 13.5h-107q-33 0 -47 -13.5t-14 -46.5v-176q0 -32 14 -46t47 -14z" />
    <glyph glyph-name="one.dnom" horiz-adv-x="451" 
d="M274 420v-360h136v-60h-369v60h161v295l-143 -14v61l182 18h33z" />
    <glyph glyph-name="two.dnom" horiz-adv-x="487" 
d="M423 61v-61h-365v127q0 42 20 62.5t65 27.5l174 27q23 4 32 13t9 31v34q0 22 -9 31.5t-32 9.5h-140q-23 0 -32.5 -9t-9.5 -32v-23h-69v36q0 85 85 85h193q44 0 64.5 -20.5t20.5 -64.5v-56q0 -42 -20 -62t-65 -27l-174 -27q-23 -4 -32 -13.5t-9 -30.5v-58h294z" />
    <glyph glyph-name="three.dnom" horiz-adv-x="484" 
d="M384 220q45 -15 45 -76v-58q0 -45 -20.5 -65.5t-64.5 -20.5h-203q-44 0 -65 20.5t-21 65.5v51h70v-38q0 -23 8.5 -31.5t31.5 -8.5h152q23 0 31.5 8.5t8.5 31.5v52q0 23 -9 32t-31 9h-105v53h99q22 0 31 9t9 32v35q0 23 -8.5 32t-31.5 9h-140q-23 0 -31.5 -9t-8.5 -32v-32
h-70v46q0 44 21 64.5t65 20.5h191q44 0 64.5 -20.5t20.5 -64.5v-42q0 -59 -39 -73z" />
    <glyph glyph-name="four.dnom" horiz-adv-x="505" 
d="M371 155h93v-56h-93v-99h-69v99h-261v47l251 274h79v-265zM302 353l-180 -198h180v198z" />
    <glyph glyph-name="five.dnom" horiz-adv-x="468" 
d="M325 0h-266v61h239q22 0 31.5 9.5t9.5 31.5v54q0 22 -9.5 31.5t-31.5 9.5h-239v223h333v-61h-261v-104h194q44 0 64.5 -20.5t20.5 -65.5v-83q0 -45 -20.5 -65.5t-64.5 -20.5z" />
    <glyph glyph-name="six.dnom" horiz-adv-x="487" 
d="M190 255h154q85 0 85 -84v-85q0 -45 -20.5 -65.5t-64.5 -20.5h-201q-44 0 -64.5 20.5t-20.5 65.5v223q0 58 27 84.5t84 26.5h242v-61h-221q-33 0 -47 -13.5t-14 -46.5v-65q17 21 61 21zM358 100v59q0 23 -9 32.5t-32 9.5h-147q-23 0 -32 -9.5t-9 -32.5v-59
q0 -22 9.5 -31.5t31.5 -9.5h147q23 0 32 9.5t9 31.5z" />
    <glyph glyph-name="seven.dnom" horiz-adv-x="463" 
d="M41 356v64h381v-55l-153 -171q-18 -21 -24.5 -40.5t-6.5 -54.5v-99h-74v96q0 49 8.5 75.5t35.5 56.5l116 128h-283z" />
    <glyph glyph-name="eight.dnom" horiz-adv-x="487" 
d="M386 220q45 -15 45 -76v-58q0 -86 -85 -86h-204q-44 0 -64.5 20.5t-20.5 65.5v58q0 61 45 76q-39 15 -39 73v42q0 44 20.5 64.5t64.5 20.5h192q85 0 85 -85v-42q0 -58 -39 -73zM134 322v-38q0 -22 9 -31t32 -9h137q23 0 32 8.5t9 31.5v38q0 23 -9 32t-32 9h-137
q-23 0 -32 -9.5t-9 -31.5zM359 98v54q0 23 -9 32t-32 9h-149q-23 0 -32 -9.5t-9 -31.5v-54q0 -22 9 -31.5t32 -9.5h149q23 0 32 9t9 32z" />
    <glyph glyph-name="nine.dnom" horiz-adv-x="487" 
d="M143 420h201q44 0 64.5 -20.5t20.5 -64.5v-223q0 -58 -27 -85t-84 -27h-242v61h221q34 0 47.5 13.5t13.5 46.5v61q-16 -21 -61 -21h-154q-44 0 -64.5 20.5t-20.5 64.5v89q0 44 20.5 64.5t64.5 20.5zM170 216h147q23 0 32 9.5t9 32.5v62q0 22 -9 31.5t-32 9.5h-147
q-22 0 -31.5 -9.5t-9.5 -31.5v-62q0 -23 9 -32.5t32 -9.5z" />
    <glyph glyph-name="zero.numr" horiz-adv-x="487" 
d="M318 280h-149q-57 0 -84 27t-27 85v197q0 58 27 84.5t84 26.5h149q57 0 84 -26.5t27 -84.5v-197q0 -58 -27 -85t-84 -27zM190 342h107q33 0 47 14t14 46v176q0 33 -13.5 46.5t-47.5 13.5h-107q-33 0 -47 -13.5t-14 -46.5v-176q0 -32 14 -46t47 -14z" />
    <glyph glyph-name="one.numr" horiz-adv-x="451" 
d="M274 700v-360h136v-60h-369v60h161v295l-143 -14v61l182 18h33z" />
    <glyph glyph-name="two.numr" horiz-adv-x="487" 
d="M423 341v-61h-365v127q0 42 20 62.5t65 27.5l174 27q23 4 32 13t9 31v34q0 22 -9 31.5t-32 9.5h-140q-23 0 -32.5 -9t-9.5 -32v-23h-69v36q0 85 85 85h193q44 0 64.5 -20.5t20.5 -64.5v-56q0 -42 -20 -62t-65 -27l-174 -27q-23 -4 -32 -13.5t-9 -30.5v-58h294z" />
    <glyph glyph-name="three.numr" horiz-adv-x="484" 
d="M384 500q45 -15 45 -76v-58q0 -45 -20.5 -65.5t-64.5 -20.5h-203q-44 0 -65 20.5t-21 65.5v51h70v-38q0 -23 8.5 -31.5t31.5 -8.5h152q23 0 31.5 8.5t8.5 31.5v52q0 23 -9 32t-31 9h-105v53h99q22 0 31 9t9 32v35q0 23 -8.5 32t-31.5 9h-140q-23 0 -31.5 -9t-8.5 -32v-32
h-70v46q0 44 21 64.5t65 20.5h191q44 0 64.5 -20.5t20.5 -64.5v-42q0 -59 -39 -73z" />
    <glyph glyph-name="four.numr" horiz-adv-x="505" 
d="M371 435h93v-56h-93v-99h-69v99h-261v47l251 274h79v-265zM302 633l-180 -198h180v198z" />
    <glyph glyph-name="five.numr" horiz-adv-x="468" 
d="M325 280h-266v61h239q22 0 31.5 9.5t9.5 31.5v54q0 22 -9.5 31.5t-31.5 9.5h-239v223h333v-61h-261v-104h194q44 0 64.5 -20.5t20.5 -65.5v-83q0 -45 -20.5 -65.5t-64.5 -20.5z" />
    <glyph glyph-name="six.numr" horiz-adv-x="487" 
d="M190 535h154q85 0 85 -84v-85q0 -45 -20.5 -65.5t-64.5 -20.5h-201q-44 0 -64.5 20.5t-20.5 65.5v223q0 58 27 84.5t84 26.5h242v-61h-221q-33 0 -47 -13.5t-14 -46.5v-65q17 21 61 21zM358 380v59q0 23 -9 32.5t-32 9.5h-147q-23 0 -32 -9.5t-9 -32.5v-59
q0 -22 9.5 -31.5t31.5 -9.5h147q23 0 32 9.5t9 31.5z" />
    <glyph glyph-name="seven.numr" horiz-adv-x="463" 
d="M41 636v64h381v-55l-153 -171q-18 -21 -24.5 -40.5t-6.5 -54.5v-99h-74v96q0 49 8.5 75.5t35.5 56.5l116 128h-283z" />
    <glyph glyph-name="eight.numr" horiz-adv-x="487" 
d="M386 500q45 -15 45 -76v-58q0 -86 -85 -86h-204q-44 0 -64.5 20.5t-20.5 65.5v58q0 61 45 76q-39 15 -39 73v42q0 44 20.5 64.5t64.5 20.5h192q85 0 85 -85v-42q0 -58 -39 -73zM134 602v-38q0 -22 9 -31t32 -9h137q23 0 32 8.5t9 31.5v38q0 23 -9 32t-32 9h-137
q-23 0 -32 -9.5t-9 -31.5zM359 378v54q0 23 -9 32t-32 9h-149q-23 0 -32 -9.5t-9 -31.5v-54q0 -22 9 -31.5t32 -9.5h149q23 0 32 9t9 32z" />
    <glyph glyph-name="nine.numr" horiz-adv-x="487" 
d="M143 700h201q44 0 64.5 -20.5t20.5 -64.5v-223q0 -58 -27 -85t-84 -27h-242v61h221q34 0 47.5 13.5t13.5 46.5v61q-16 -21 -61 -21h-154q-44 0 -64.5 20.5t-20.5 64.5v89q0 44 20.5 64.5t64.5 20.5zM170 496h147q23 0 32 9.5t9 32.5v62q0 22 -9 31.5t-32 9.5h-147
q-22 0 -31.5 -9.5t-9.5 -31.5v-62q0 -23 9 -32.5t32 -9.5z" />
    <glyph glyph-name="zero.sups" horiz-adv-x="487" 
d="M318 380h-149q-57 0 -84 27t-27 85v197q0 58 27 84.5t84 26.5h149q57 0 84 -26.5t27 -84.5v-197q0 -58 -27 -85t-84 -27zM190 442h107q33 0 47 14t14 46v176q0 33 -13.5 46.5t-47.5 13.5h-107q-33 0 -47 -13.5t-14 -46.5v-176q0 -32 14 -46t47 -14z" />
    <glyph glyph-name="one.sups" horiz-adv-x="451" 
d="M274 800v-360h136v-60h-369v60h161v295l-143 -14v61l182 18h33z" />
    <glyph glyph-name="two.sups" horiz-adv-x="487" 
d="M423 441v-61h-365v127q0 42 20 62.5t65 27.5l174 27q23 4 32 13t9 31v34q0 22 -9 31.5t-32 9.5h-140q-23 0 -32.5 -9t-9.5 -32v-23h-69v36q0 85 85 85h193q44 0 64.5 -20.5t20.5 -64.5v-56q0 -42 -20 -62t-65 -27l-174 -27q-23 -4 -32 -13.5t-9 -30.5v-58h294z" />
    <glyph glyph-name="three.sups" horiz-adv-x="484" 
d="M384 600q45 -15 45 -76v-58q0 -45 -20.5 -65.5t-64.5 -20.5h-203q-44 0 -65 20.5t-21 65.5v51h70v-38q0 -23 8.5 -31.5t31.5 -8.5h152q23 0 31.5 8.5t8.5 31.5v52q0 23 -9 32t-31 9h-105v53h99q22 0 31 9t9 32v35q0 23 -8.5 32t-31.5 9h-140q-23 0 -31.5 -9t-8.5 -32v-32
h-70v46q0 44 21 64.5t65 20.5h191q44 0 64.5 -20.5t20.5 -64.5v-42q0 -59 -39 -73z" />
    <glyph glyph-name="four.sups" horiz-adv-x="505" 
d="M371 535h93v-56h-93v-99h-69v99h-261v47l251 274h79v-265zM302 733l-180 -198h180v198z" />
    <glyph glyph-name="five.sups" horiz-adv-x="468" 
d="M325 380h-266v61h239q22 0 31.5 9.5t9.5 31.5v54q0 22 -9.5 31.5t-31.5 9.5h-239v223h333v-61h-261v-104h194q44 0 64.5 -20.5t20.5 -65.5v-83q0 -45 -20.5 -65.5t-64.5 -20.5z" />
    <glyph glyph-name="six.sups" horiz-adv-x="487" 
d="M190 635h154q85 0 85 -84v-85q0 -45 -20.5 -65.5t-64.5 -20.5h-201q-44 0 -64.5 20.5t-20.5 65.5v223q0 58 27 84.5t84 26.5h242v-61h-221q-33 0 -47 -13.5t-14 -46.5v-65q17 21 61 21zM358 480v59q0 23 -9 32.5t-32 9.5h-147q-23 0 -32 -9.5t-9 -32.5v-59
q0 -22 9.5 -31.5t31.5 -9.5h147q23 0 32 9.5t9 31.5z" />
    <glyph glyph-name="seven.sups" horiz-adv-x="463" 
d="M41 736v64h381v-55l-153 -171q-18 -21 -24.5 -40.5t-6.5 -54.5v-99h-74v96q0 49 8.5 75.5t35.5 56.5l116 128h-283z" />
    <glyph glyph-name="eight.sups" horiz-adv-x="487" 
d="M386 600q45 -15 45 -76v-58q0 -86 -85 -86h-204q-44 0 -64.5 20.5t-20.5 65.5v58q0 61 45 76q-39 15 -39 73v42q0 44 20.5 64.5t64.5 20.5h192q85 0 85 -85v-42q0 -58 -39 -73zM134 702v-38q0 -22 9 -31t32 -9h137q23 0 32 8.5t9 31.5v38q0 23 -9 32t-32 9h-137
q-23 0 -32 -9.5t-9 -31.5zM359 478v54q0 23 -9 32t-32 9h-149q-23 0 -32 -9.5t-9 -31.5v-54q0 -22 9 -31.5t32 -9.5h149q23 0 32 9t9 32z" />
    <glyph glyph-name="nine.sups" horiz-adv-x="487" 
d="M143 800h201q44 0 64.5 -20.5t20.5 -64.5v-223q0 -58 -27 -85t-84 -27h-242v61h221q34 0 47.5 13.5t13.5 46.5v61q-16 -21 -61 -21h-154q-44 0 -64.5 20.5t-20.5 64.5v89q0 44 20.5 64.5t64.5 20.5zM170 596h147q23 0 32 9.5t9 32.5v62q0 22 -9 31.5t-32 9.5h-147
q-22 0 -31.5 -9.5t-9.5 -31.5v-62q0 -23 9 -32.5t32 -9.5z" />
    <glyph glyph-name="numbersign.numr" horiz-adv-x="487" 
d="M440 590v-47h-78l-16 -106h69v-47h-77l-17 -110h-56l17 110h-110l-17 -110h-56l17 110h-69v47h77l16 106h-69v47h77l17 110h56l-17 -110h110l17 110h56l-17 -110h70zM180 437h110l16 106h-110z" />
    <glyph glyph-name="numbersign.tf" 
d="M698 504v-58h-136l-30 -192h125v-58h-134l-31 -196h-69l31 196h-204l-31 -196h-69l31 196h-127v58h136l30 192h-125v58h134l31 196h69l-31 -196h204l31 196h69l-31 -196h127zM259 254h204l30 192h-204z" />
    <glyph glyph-name="cent.numr" horiz-adv-x="487" 
d="M429 601v-33h-69v23q0 29 -11 40t-40 11h-129q-29 0 -40 -11t-11 -40v-128q0 -29 11 -40t40 -11h129q29 0 40 11t11 40v28h69v-38q0 -53 -23 -76.5t-76 -23.5h-61v-60h-49v60h-63q-53 0 -76 23.5t-23 76.5v148q0 53 23 76t76 23h63v60h49v-60h61q53 0 76 -23t23 -76z" />
    <glyph glyph-name="dollar.numr" horiz-adv-x="487" 
d="M173 536l173 -19q47 -5 66.5 -24t19.5 -60v-67q0 -45 -20.5 -65.5t-64.5 -20.5h-79v-60h-49v60h-78q-44 0 -65 20.5t-21 65.5v37h70v-25q0 -23 9 -32.5t31 -9.5h154q23 0 32 9.5t9 32.5v40q0 21 -8.5 29.5t-32.5 10.5l-173 19q-46 5 -65.5 24t-19.5 61v53q0 44 21 64.5
t65 20.5h72v60h49v-60h70q44 0 64.5 -20.5t20.5 -64.5v-29h-69v17q0 23 -9 32t-32 9h-139q-22 0 -31.5 -9t-9.5 -32v-27q0 -22 8.5 -30t31.5 -10z" />
    <glyph glyph-name="Euro.numr" horiz-adv-x="499" 
d="M441 589v-45h-69v38q0 34 -13.5 47.5t-47.5 13.5h-103q-34 0 -47.5 -13.5t-13.5 -47.5v-31h155v-35h-155v-52h155v-35h-155v-31q0 -33 13.5 -46.5t47.5 -13.5h103q34 0 47.5 13.5t13.5 46.5v43h69v-49q0 -58 -27 -85t-84 -27h-143q-57 0 -84 27t-27 85v37h-55v35h55v52
h-55v35h55v38q0 58 27 84.5t84 26.5h143q57 0 84 -26.5t27 -84.5z" />
    <glyph glyph-name="florin.numr" horiz-adv-x="439" 
d="M391 638h-57q-34 0 -47.5 -13t-17.5 -47l-11 -100h121v-48h-126l-14 -134q-6 -60 -32.5 -86t-82.5 -26h-78v62h58q32 0 45.5 13.5t17.5 47.5l14 123h-123v48h128l12 111q7 60 33 85.5t82 25.5h78v-62z" />
    <glyph glyph-name="sterling.numr" horiz-adv-x="499" 
d="M441 589v-37h-69v30q0 34 -13.5 47.5t-47.5 13.5h-98q-33 0 -46.5 -13.5t-13.5 -47.5v-66h149v-44h-149v-132h178q22 0 31 9t9 32v42h70v-57q0 -45 -20.5 -65.5t-64.5 -20.5h-329v60h55v132h-61v44h61v73q0 58 27 84.5t84 26.5h137q57 0 84 -26.5t27 -84.5z" />
    <glyph glyph-name="yen.numr" horiz-adv-x="487" 
d="M373 700h79l-153 -234h135v-38h-155v-54h155v-38h-155v-56h-72v56h-154v38h154v54h-154v38h134l-152 234h82l128 -205z" />
    <glyph glyph-name="cent.tf" 
d="M676 542v-52h-80v42q0 58 -21 79t-79 21h-238q-58 0 -79 -21t-21 -79v-234q0 -58 21 -79t79 -21h238q58 0 79 21t21 79v51h80v-61q0 -85 -37 -121.5t-121 -36.5h-109v-100h-62v100h-113q-84 0 -121 36.5t-37 121.5v254q0 85 37 121.5t121 36.5h113v100h62v-100h109
q84 0 121 -36.5t37 -121.5z" />
    <glyph glyph-name="dollar.tf" 
d="M244 416l302 -33q72 -8 103 -38t31 -96v-115q0 -69 -32.5 -101.5t-101.5 -32.5h-139v-100h-62v100h-139q-69 0 -101.5 32.5t-32.5 101.5v61h80v-47q0 -44 18 -62t62 -18h286q44 0 62 18t18 62v85q0 42 -17 58.5t-63 21.5l-302 33q-72 8 -103 38t-31 96v86
q0 69 32.5 101.5t101.5 32.5h129v100h62v-100h125q69 0 101.5 -32.5t32.5 -101.5v-45h-80v31q0 44 -18 62t-62 18h-262q-44 0 -62 -18t-18 -62v-56q0 -42 17 -58.5t63 -21.5z" />
    <glyph glyph-name="Euro.tf" 
d="M676 522v-67h-80v60q0 65 -27 91.5t-91 26.5h-182q-64 0 -91 -26.5t-27 -91.5v-67h284v-47h-284v-102h284v-47h-284v-67q0 -65 27 -91.5t91 -26.5h182q64 0 91 26.5t27 91.5v69h80v-76q0 -93 -43 -135.5t-135 -42.5h-224q-92 0 -135 42.5t-43 135.5v74h-88v47h88v102h-88
v47h88v74q0 93 43 135.5t135 42.5h224q92 0 135 -42.5t43 -135.5z" />
    <glyph glyph-name="florin.tf" 
d="M678 629h-109q-63 0 -90 -25.5t-35 -92.5l-21 -191h235v-60h-241l-27 -242q-11 -96 -53.5 -137t-131.5 -41h-131v71h109q63 0 90 25.5t35 92.5l25 231h-239v60h246l22 202q11 96 53.5 137t131.5 41h131v-71z" />
    <glyph glyph-name="sterling.tf" 
d="M676 522v-55h-80v48q0 65 -27 91.5t-91 26.5h-174q-63 0 -89.5 -27t-26.5 -91v-133h274v-55h-274v-258h328q44 0 62 18t18 62v71h80v-86q0 -69 -32.5 -101.5t-101.5 -32.5h-524v69h88v258h-98v55h98v140q0 93 43 135.5t135 42.5h214q92 0 135 -42.5t43 -135.5z" />
    <glyph glyph-name="yen.tf" 
d="M627 700h91l-274 -399h244v-50h-271v-104h271v-50h-271v-97h-82v97h-271v50h271v104h-271v50h244l-274 399h96l249 -372z" />
    <glyph glyph-name="percent.numr" horiz-adv-x="552" 
d="M183 506h-77q-63 0 -63 63v69q0 62 63 62h77q63 0 63 -62v-69q0 -63 -63 -63zM140 280h-48l320 420h48zM117 549h55q15 0 21 6t6 21v54q0 16 -6 21.5t-21 5.5h-55q-15 0 -20.5 -5.5t-5.5 -21.5v-54q0 -15 5.5 -21t20.5 -6zM447 280h-78q-63 0 -63 63v69q0 63 63 63h78
q62 0 62 -63v-69q0 -63 -62 -63zM380 324h55q15 0 21 6t6 21v54q0 15 -6 21t-21 6h-55q-15 0 -20.5 -6t-5.5 -21v-54q0 -15 5.5 -21t20.5 -6z" />
    <glyph glyph-name="perthousand.numr" horiz-adv-x="786" 
d="M183 506h-77q-63 0 -63 63v69q0 62 63 62h77q63 0 63 -62v-69q0 -63 -63 -63zM140 280h-48l320 420h48zM117 549h55q15 0 21 6t6 21v54q0 16 -6 21.5t-21 5.5h-55q-15 0 -20.5 -5.5t-5.5 -21.5v-54q0 -15 5.5 -21t20.5 -6zM447 280h-78q-63 0 -63 63v69q0 63 63 63h78
q62 0 62 -63v-69q0 -63 -62 -63zM681 280h-78q-63 0 -63 63v69q0 63 63 63h78q62 0 62 -63v-69q0 -63 -62 -63zM380 324h55q15 0 21 6t6 21v54q0 15 -6 21t-21 6h-55q-15 0 -20.5 -6t-5.5 -21v-54q0 -15 5.5 -21t20.5 -6zM614 324h55q15 0 21 6t6 21v54q0 15 -6 21t-21 6
h-55q-15 0 -20.5 -6t-5.5 -21v-54q0 -15 5.5 -21t20.5 -6z" />
    <glyph glyph-name="percent.tf" horiz-adv-x="860" 
d="M276 378h-126q-104 0 -104 104v114q0 54 25.5 79t78.5 25h126q53 0 78.5 -25t25.5 -79v-114q0 -104 -104 -104zM184 0h-60l552 700h60zM163 429h100q34 0 48 14.5t14 47.5v96q0 34 -14 48t-48 14h-100q-33 0 -47.5 -14t-14.5 -48v-96q0 -33 14.5 -47.5t47.5 -14.5zM710 0
h-126q-104 0 -104 104v114q0 54 25.5 79t78.5 25h126q53 0 78.5 -25t25.5 -79v-114q0 -104 -104 -104zM597 51h100q34 0 48 14.5t14 47.5v96q0 34 -14 48t-48 14h-100q-33 0 -47.5 -14t-14.5 -48v-96q0 -33 14.5 -47.5t47.5 -14.5z" />
    <glyph glyph-name="perthousand.tf" horiz-adv-x="1250" 
d="M276 378h-126q-104 0 -104 104v114q0 54 25.5 79t78.5 25h126q53 0 78.5 -25t25.5 -79v-114q0 -104 -104 -104zM186 0h-62l550 700h62zM163 429h100q34 0 48 14.5t14 47.5v96q0 34 -14 48t-48 14h-100q-33 0 -47.5 -14t-14.5 -48v-96q0 -33 14.5 -47.5t47.5 -14.5zM710 0
h-126q-104 0 -104 104v114q0 54 25.5 79t78.5 25h126q53 0 78.5 -25t25.5 -79v-114q0 -104 -104 -104zM1100 0h-126q-104 0 -104 104v114q0 54 25.5 79t78.5 25h126q53 0 78.5 -25t25.5 -79v-114q0 -104 -104 -104zM597 51h100q34 0 48 14.5t14 47.5v96q0 34 -14 48t-48 14
h-100q-33 0 -47.5 -14t-14.5 -48v-96q0 -33 14.5 -47.5t47.5 -14.5zM987 51h100q34 0 48 14.5t14 47.5v96q0 34 -14 48t-48 14h-100q-33 0 -47.5 -14t-14.5 -48v-96q0 -33 14.5 -47.5t47.5 -14.5z" />
    <glyph glyph-name="brevecombcy" horiz-adv-x="0" 
d="M-144 578h-206q-72 0 -72 72v50h62v-42q0 -33 33 -33h160q33 0 33 33v42h62v-50q0 -72 -72 -72z" />
    <glyph glyph-name="ringacutecomb" horiz-adv-x="388" 
d="M254 624h24q54 0 54 -54v-24q0 -54 -54 -54h-168q-54 0 -54 54v24q0 54 54 54h64l65 76h93zM288 550v16q0 13 -4 17.5t-17 4.5h-146q-13 0 -17 -4.5t-4 -17.5v-16q0 -13 4 -17.5t17 -4.5h146q13 0 17 4.5t4 17.5z" />
    </font>
</defs>
</svg>
