<?xml version="1.0" standalone="no"?>
<!DOCTYPE svg PUBLIC "-//W3C//DTD SVG 1.1//EN" "http://www.w3.org/Graphics/SVG/1.1/DTD/svg11.dtd" >
<svg xmlns="http://www.w3.org/2000/svg" xmlns:xlink="http://www.w3.org/1999/xlink" version="1.1">
<metadata>
Created by FontForge 20170731 at Thu Jun 30 17:45:11 2016
 By Aleksey,,,
(c)2016 Richard Miller
</metadata>
<defs>
<font id="TacticSans-Med" horiz-adv-x="752" >
  <font-face 
    font-family="TacticSans-Med"
    font-weight="400"
    font-stretch="normal"
    units-per-em="1000"
    panose-1="0 0 6 0 0 0 0 0 0 0"
    ascent="814"
    descent="-186"
    x-height="528"
    cap-height="700"
    bbox="-896 -196 1238 872"
    underline-thickness="50"
    underline-position="-200"
    unicode-range="U+0020-FB02"
  />
<missing-glyph horiz-adv-x="720" 
d="M10 0v700h700v-700h-700zM259 350l-169 -169l107 -107l169 169l169 -169l107 107l-169 169l169 169l-107 107l-169 -169l-169 169l-107 -107z" />
    <glyph glyph-name="ellipsis" unicode="&#x2e;&#x2e;&#x2e;" horiz-adv-x="956" 
d="M212 0h-148v140h148v-140zM552 0h-148v140h148v-140zM892 0h-148v140h148v-140z" />
    <glyph glyph-name="blackbox.liga" unicode="[&#x2b;]" horiz-adv-x="940" 
d="M120 0v700h700v-700h-700z" />
    <glyph glyph-name="checkbox.liga" unicode="[]" horiz-adv-x="940" 
d="M120 0v700h700v-700h-700zM750 633h-560v-566h560v566z" />
    <glyph glyph-name="checkround.liga" unicode="&#x28;&#x29;" horiz-adv-x="940" 
d="M726 95q-105 -105 -256 -105q-152 0 -255 105q-105 103 -105 255q0 151 105 256q104 104 255 104q150 0 256 -104q104 -106 104 -256q0 -151 -104 -255zM264 142q84 -85 206 -85t206 85q84 84 84 208q0 123 -84 209q-84 84 -206 84t-206 -84q-84 -86 -84 -209
q0 -124 84 -208z" />
    <glyph glyph-name="checkstar.liga" unicode="&#x7b;&#x7d;" horiz-adv-x="940" 
d="M378 437l92 283l92 -283h297l-240 -174l91 -283l-240 175l-240 -175l91 283l-240 174h297zM522 383l-52 161l-53 -161h-169l138 -99l-53 -162l137 100l136 -100l-52 162l137 99h-169z" />
    <glyph glyph-name="blackround.liga" unicode="&#x28;&#x2b;&#x29;" horiz-adv-x="940" 
d="M726 95q-105 -105 -256 -105q-152 0 -255 105q-105 103 -105 255q0 151 105 256q104 104 255 104q150 0 256 -104q104 -106 104 -256q0 -151 -104 -255z" />
    <glyph glyph-name="filledstar.liga" unicode="&#x7b;&#x2b;&#x7d;" horiz-adv-x="940" 
d="M378 437l92 283l92 -283h297l-240 -174l91 -283l-240 175l-240 -175l91 283l-240 174h297z" />
    <glyph glyph-name="ff.liga" unicode="ff" horiz-adv-x="864" 
d="M848 608h-148q-38 0 -53 -15t-15 -53v-75h216v-97h-216v-368h-122v368h-264v-368h-122v368h-108v97h108v93q0 74 34.5 108t107.5 34h164v-92h-116q-38 0 -53 -15t-15 -53v-75h264v93q0 74 34.5 108t107.5 34h196v-92z" />
    <glyph glyph-name=".notdef" horiz-adv-x="720" 
d="M10 0v700h700v-700h-700zM259 350l-169 -169l107 -107l169 169l169 -169l107 107l-169 169l169 169l-107 107l-169 -169l-169 169l-107 -107z" />
    <glyph glyph-name=".null" horiz-adv-x="0" 
 />
    <glyph glyph-name="nonmarkingreturn" horiz-adv-x="333" 
 />
    <glyph glyph-name="space" unicode=" " horiz-adv-x="300" 
 />
    <glyph glyph-name="exclam" unicode="!" horiz-adv-x="276" 
d="M92 204l-24 496h140l-24 -496h-92zM212 0h-148v128h148v-128z" />
    <glyph glyph-name="quotedbl" unicode="&#x22;" horiz-adv-x="432" 
d="M64 408v292h104v-292h-104zM264 408v292h104v-292h-104z" />
    <glyph glyph-name="numbersign" unicode="#" 
d="M704 467v-80h-129l-28 -154h115v-80h-129l-27 -153h-95l27 153h-180l-27 -153h-95l27 153h-115v80h129l28 154h-115v80h129l27 153h95l-27 -153h180l27 153h95l-27 -153h115zM272 233h180l28 154h-180z" />
    <glyph glyph-name="dollar" unicode="$" 
d="M264 428l284 -31q77 -8 109.5 -39.5t32.5 -102.5v-113q0 -73 -35 -107.5t-107 -34.5h-130v-100h-85v100h-129q-72 0 -107 34.5t-35 107.5v63h120v-37q0 -38 15 -53t53 -15h248q38 0 53 15t15 53v59q0 36 -14.5 50t-53.5 18l-284 31q-77 9 -109.5 40.5t-32.5 101.5v90
q0 73 35 107.5t107 34.5h119v100h85v-100h116q72 0 107 -34.5t35 -107.5v-49h-120v23q0 38 -15 53t-53 15h-224q-38 0 -53 -15t-15 -53v-36q0 -36 14.5 -50t53.5 -18z" />
    <glyph glyph-name="percent" unicode="%" horiz-adv-x="860" 
d="M266 306h-120q-104 0 -104 104v106q0 54 25.5 79t78.5 25h120q53 0 78.5 -25t25.5 -79v-106q0 -104 -104 -104zM208 0h-78l522 620h78zM167 372h78q28 0 40 12t12 40v78q0 28 -11.5 40t-40.5 12h-78q-29 0 -40.5 -12t-11.5 -40v-78q0 -28 12 -40t40 -12zM714 0h-120
q-104 0 -104 104v106q0 54 25.5 79t78.5 25h120q53 0 78.5 -25t25.5 -79v-106q0 -104 -104 -104zM615 66h78q28 0 40 12t12 40v78q0 28 -11.5 40t-40.5 12h-78q-29 0 -40.5 -12t-11.5 -40v-78q0 -28 12 -40t40 -12z" />
    <glyph glyph-name="ampersand" unicode="&#x26;" horiz-adv-x="812" 
d="M276 407h520v-87h-100v-178q0 -73 -35 -107.5t-107 -34.5h-358q-72 0 -107 34.5t-35 107.5v97q0 110 89 130q-59 29 -59 120v69q0 73 35 107.5t107 34.5h298q72 0 107 -34.5t35 -107.5v-47h-120v26q0 38 -15 53t-53 15h-202q-38 0 -53 -15t-15 -53v-62q0 -37 15 -52.5
t53 -15.5zM576 163v157h-330q-38 0 -53 -15t-15 -53v-89q0 -38 15 -53t53 -15h262q38 0 53 15t15 53z" />
    <glyph glyph-name="quotesingle" unicode="'" horiz-adv-x="232" 
d="M64 408v292h104v-292h-104z" />
    <glyph glyph-name="parenleft" unicode="(" horiz-adv-x="416" 
d="M384 -100h-90q-230 0 -230 230v440q0 230 230 230h90v-98h-75q-135 0 -135 -135v-434q0 -135 135 -135h75v-98z" />
    <glyph glyph-name="parenright" unicode=")" horiz-adv-x="416" 
d="M32 800h90q230 0 230 -230v-440q0 -230 -230 -230h-90v98h75q135 0 135 135v434q0 135 -135 135h-75v98z" />
    <glyph glyph-name="asterisk" unicode="*" horiz-adv-x="458" 
d="M389 612l25 -76l-133 -35l87 -107l-64 -47l-75 117l-75 -117l-64 47l87 107l-134 35l25 76l129 -50l-8 138h80l-8 -138z" />
    <glyph glyph-name="plus" unicode="+" 
d="M431 402h253v-104h-253v-252h-110v252h-253v104h253v252h110v-252z" />
    <glyph glyph-name="comma" unicode="," horiz-adv-x="276" 
d="M141 -160h-77l51 160h-51v140h148v-63q0 -52 -20 -97z" />
    <glyph glyph-name="hyphen" unicode="-" horiz-adv-x="420" 
d="M48 298v104h324v-104h-324z" />
    <glyph glyph-name="period" unicode="." horiz-adv-x="276" 
d="M212 0h-148v140h148v-140z" />
    <glyph glyph-name="slash" unicode="/" horiz-adv-x="487" 
d="M6 -100l388 900h87l-388 -900h-87z" />
    <glyph glyph-name="zero" unicode="0" 
d="M500 0h-248q-96 0 -141 45t-45 141v328q0 96 45 141t141 45h248q96 0 141 -45t45 -141v-328q0 -96 -45 -141t-141 -45zM290 106h172q55 0 77.5 22.5t22.5 77.5v288q0 55 -22.5 77.5t-77.5 22.5h-172q-55 0 -77.5 -22.5t-22.5 -77.5v-288q0 -55 22.5 -77.5t77.5 -22.5z
" />
    <glyph glyph-name="one" unicode="1" horiz-adv-x="692" 
d="M430 700v-598h224v-102h-616v102h268v485l-238 -23v106l304 30h58z" />
    <glyph glyph-name="two" unicode="2" 
d="M675 105v-105h-609v215q0 70 32.5 103t109.5 45l286 46q39 6 53.5 22t14.5 52v48q0 37 -15 52.5t-53 15.5h-226q-38 0 -53 -15.5t-15 -52.5v-34h-120v61q0 73 35 107.5t107 34.5h322q72 0 107 -34.5t35 -107.5v-97q0 -70 -32.5 -103t-109.5 -45l-286 -46
q-39 -6 -53.5 -22t-14.5 -52v-88h485z" />
    <glyph glyph-name="three" unicode="3" 
d="M611 366q77 -24 77 -127v-97q0 -73 -35 -107.5t-107 -34.5h-340q-72 0 -107 34.5t-35 107.5v85h120v-60q0 -38 15 -53t53 -15h244q38 0 53 15t15 53v82q0 38 -15 53t-53 15h-171v92h161q37 0 52.5 15.5t15.5 52.5v56q0 38 -15 53t-53 15h-224q-38 0 -53 -15t-15 -53v-52
h-120v77q0 73 35 107.5t107 34.5h320q72 0 107 -34.5t35 -107.5v-69q0 -98 -67 -123z" />
    <glyph glyph-name="four" unicode="4" horiz-adv-x="782" 
d="M592 260h152v-97h-152v-163h-120v163h-434v81l416 456h138v-440zM472 591l-301 -331h301v331z" />
    <glyph glyph-name="five" unicode="5" horiz-adv-x="722" 
d="M514 0h-444v105h394q37 0 52.5 15.5t15.5 52.5v83q0 38 -15 53t-53 15h-394v376h556v-105h-432v-168h320q72 0 107 -34.5t35 -107.5v-143q0 -73 -35 -107.5t-107 -34.5z" />
    <glyph glyph-name="six" unicode="6" 
d="M291 429h253q73 0 107.5 -34t34.5 -108v-145q0 -73 -35 -107.5t-107 -34.5h-336q-72 0 -107 34.5t-35 107.5v372q0 96 45 141t141 45h404v-105h-366q-55 0 -77.5 -22.5t-22.5 -77.5v-100q28 34 101 34zM562 169v92q0 38 -15 53t-53 15h-236q-38 0 -53 -15t-15 -53v-92
q0 -37 15 -52.5t53 -15.5h236q38 0 53 15.5t15 52.5z" />
    <glyph glyph-name="seven" unicode="7" horiz-adv-x="712" 
d="M38 590v110h636v-94l-253 -284q-31 -38 -42 -69q-10 -30 -10 -90v-163h-126v161q0 80 15 125q13 43 59 94l191 210h-470z" />
    <glyph glyph-name="eight" unicode="8" 
d="M611 366q77 -24 77 -127v-97q0 -73 -35 -107.5t-107 -34.5h-340q-72 0 -107 34.5t-35 107.5v97q0 103 77 127q-67 25 -67 123v69q0 73 35 107.5t107 34.5h320q72 0 107 -34.5t35 -107.5v-69q0 -98 -67 -123zM198 535v-60q0 -37 15 -52.5t53 -15.5h220q38 0 53 15.5
t15 52.5v60q0 38 -15 53t-53 15h-220q-38 0 -53 -15t-15 -53zM564 165v87q0 38 -15 53t-53 15h-240q-38 0 -53 -15t-15 -53v-87q0 -38 15 -53t53 -15h240q38 0 53 15t15 53z" />
    <glyph glyph-name="nine" unicode="9" 
d="M208 700h336q72 0 107 -34.5t35 -107.5v-372q0 -96 -45 -141t-141 -45h-404v105h366q55 0 77.5 22.5t22.5 77.5v93q-28 -34 -101 -34h-253q-72 0 -107 34.5t-35 107.5v152q0 73 35 107.5t107 34.5zM258 364h236q38 0 53 15t15 53v99q0 37 -15 52.5t-53 15.5h-236
q-38 0 -53 -15.5t-15 -52.5v-99q0 -38 15 -53t53 -15z" />
    <glyph glyph-name="colon" unicode=":" horiz-adv-x="276" 
d="M212 396h-148v132h148v-132zM212 0h-148v132h148v-132z" />
    <glyph glyph-name="semicolon" unicode=";" horiz-adv-x="276" 
d="M212 396h-148v132h148v-132zM141 -160h-77l51 160h-51v132h148v-55q0 -52 -20 -97z" />
    <glyph glyph-name="less" unicode="&#x3c;" 
d="M68 402l616 248v-109l-495 -190l495 -191v-110l-616 248v104z" />
    <glyph glyph-name="equal" unicode="=" 
d="M68 426v100h616v-100h-616zM68 174v100h616v-100h-616z" />
    <glyph glyph-name="greater" unicode="&#x3e;" 
d="M68 540v110l616 -248v-104l-616 -248v109l495 191z" />
    <glyph glyph-name="question" unicode="?" horiz-adv-x="674" 
d="M364 192h-117v75q0 64 23 93q22 27 90 44l83 21q36 9 49.5 25t13.5 49v34q0 36 -15 51t-52 15h-208q-37 0 -52 -15t-15 -51v-41h-120v66q0 73 35 107.5t107 34.5h302q72 0 107 -34.5t35 -107.5v-67q0 -66 -29.5 -100t-101.5 -52l-80 -21q-33 -8 -44 -23t-11 -49v-54z
M379 0h-148v116h148v-116z" />
    <glyph glyph-name="at" unicode="@" horiz-adv-x="882" 
d="M241 700h400q96 0 141 -45t45 -141v-222q0 -65 -29 -93.5t-93 -28.5h-79q-72 0 -91 49l-12 -8q-39 -29 -67 -36q-28 -9 -80 -9h-52q-119 0 -97 121l23 131q11 63 41.5 89.5t90.5 26.5h50q51 0 78.5 -9.5t55.5 -37.5l3 -3l16 42h74l-42 -241q-4 -25 4 -36t31 -11h40
q35 0 47.5 12t12.5 47v212q0 68 -27.5 95.5t-95.5 27.5h-377q-68 0 -95.5 -27.5t-27.5 -95.5v-318q0 -68 27.5 -95.5t95.5 -27.5h511v-68h-522q-96 0 -141 45t-45 141v328q0 96 45 141t141 45zM501 263l25 17l25 142l-19 16q-28 23 -85 23h-49q-31 0 -43.5 -11.5
t-17.5 -44.5l-19 -108q-7 -33 2 -45.5t42 -12.5h51q53 0 88 24z" />
    <glyph glyph-name="A" unicode="A" horiz-adv-x="799" 
d="M798 0h-142l-68 155h-379l-67 -155h-136l326 700h141zM399 590l-147 -338h294z" />
    <glyph glyph-name="B" unicode="B" horiz-adv-x="762" 
d="M631 367q83 -21 83 -128v-97q0 -73 -35 -107.5t-107 -34.5h-508v700h488q72 0 107 -34.5t35 -107.5v-69q0 -93 -63 -122zM498 600h-306v-192h306q38 0 53 15t15 53v56q0 38 -15 53t-53 15zM586 168v83q0 38 -15 53t-53 15h-326v-219h326q38 0 53 15t15 53z" />
    <glyph glyph-name="C" unicode="C" horiz-adv-x="772" 
d="M535 0h-294q-96 0 -141 45t-45 141v328q0 96 45 141t141 45h294q96 0 141 -45t45 -141v-74h-124v52q0 55 -22.5 77.5t-77.5 22.5h-214q-55 0 -77.5 -22.5t-22.5 -77.5v-284q0 -55 22.5 -77.5t77.5 -22.5h214q55 0 77.5 22.5t22.5 77.5v61h124v-83q0 -96 -45 -141
t-141 -45z" />
    <glyph glyph-name="D" unicode="D" horiz-adv-x="799" 
d="M514 0h-450v700h450q112 0 171 -58.5t59 -171.5v-240q0 -113 -59 -171.5t-171 -58.5zM192 590v-480h296q128 0 128 128v224q0 128 -128 128h-296z" />
    <glyph glyph-name="E" unicode="E" horiz-adv-x="678" 
d="M192 314v-207h454v-107h-582v700h572v-107h-444v-180h404v-99h-404z" />
    <glyph glyph-name="F" unicode="F" horiz-adv-x="642" 
d="M626 700v-112h-434v-199h394v-106h-394v-283h-128v700h562z" />
    <glyph glyph-name="G" unicode="G" horiz-adv-x="799" 
d="M55 186v328q0 96 45 141t141 45h318q96 0 141 -45t45 -141v-42h-128v21q0 55 -22.5 77.5t-77.5 22.5h-234q-55 0 -77.5 -22.5t-22.5 -77.5v-289q0 -55 22.5 -77.5t77.5 -22.5h238q55 0 77.5 22.5t22.5 77.5v72h-204v99h328v-189q0 -96 -45 -141t-141 -45h-318
q-96 0 -141 45t-45 141z" />
    <glyph glyph-name="H" unicode="H" horiz-adv-x="788" 
d="M596 423v277h128v-700h-128v309h-404v-309h-128v700h128v-277h404z" />
    <glyph glyph-name="I" unicode="I" horiz-adv-x="268" 
d="M69 0v700h130v-700h-130z" />
    <glyph glyph-name="J" unicode="J" horiz-adv-x="704" 
d="M462 0h-244q-96 0 -141 45t-45 141v82h124v-60q0 -55 22.5 -77.5t77.5 -22.5h164q55 0 77.5 22.5t22.5 77.5v492h128v-514q0 -96 -45 -141t-141 -45z" />
    <glyph glyph-name="K" unicode="K" horiz-adv-x="750" 
d="M351 362l393 -362h-189l-363 346v-346h-128v700h128v-328l358 328h190z" />
    <glyph glyph-name="L" unicode="L" horiz-adv-x="612" 
d="M192 700v-586h404v-114h-532v700h128z" />
    <glyph glyph-name="M" unicode="M" horiz-adv-x="908" 
d="M457 269l279 431h108v-700h-120v490l-236 -356h-68l-236 356v-490h-120v700h113z" />
    <glyph glyph-name="N" unicode="N" horiz-adv-x="808" 
d="M620 192v508h124v-700h-102l-454 516v-516h-124v700h108z" />
    <glyph glyph-name="O" unicode="O" horiz-adv-x="800" 
d="M559 0h-318q-96 0 -141 45t-45 141v328q0 96 45 141t141 45h318q96 0 141 -45t45 -141v-328q0 -96 -45 -141t-141 -45zM283 110h234q55 0 77.5 22.5t22.5 77.5v280q0 55 -22.5 77.5t-77.5 22.5h-234q-55 0 -77.5 -22t-22.5 -78v-280q0 -56 22.5 -78t77.5 -22z" />
    <glyph glyph-name="P" unicode="P" horiz-adv-x="736" 
d="M192 0h-128v700h474q88 0 127 -38.5t39 -127.5v-128q0 -89 -39 -127.5t-127 -38.5h-346v-240zM192 598v-260h299q49 0 67 17.5t18 66.5v92q0 49 -18 66.5t-67 17.5h-299z" />
    <glyph glyph-name="Q" unicode="Q" horiz-adv-x="800" 
d="M241 700h318q96 0 141 -45t45 -141v-328q0 -90 -40 -135t-124 -50l111 -141h-135l-105 140h-211q-96 0 -141 45t-45 141v328q0 96 45 141t141 45zM617 210v280q0 55 -22.5 77.5t-77.5 22.5h-234q-55 0 -77.5 -22t-22.5 -78v-280q0 -56 22.5 -78t77.5 -22h234
q55 0 77.5 22.5t22.5 77.5z" />
    <glyph glyph-name="R" unicode="R" horiz-adv-x="762" 
d="M541 270l193 -270h-143l-183 262h-216v-262h-128v700h474q88 0 127 -38.5t39 -127.5v-98q0 -88 -38 -126.5t-125 -39.5zM491 602h-299v-244h299q49 0 67 17.5t18 66.5v76q0 49 -18 66.5t-67 17.5z" />
    <glyph glyph-name="S" unicode="S" horiz-adv-x="779" 
d="M55 142v63h124v-36q0 -38 15 -53t53 -15h282q37 0 52.5 15.5t15.5 52.5v57q0 36 -14.5 50t-53.5 18l-322 31q-76 6 -109 38.5t-33 103.5v91q0 73 34.5 107.5t107.5 34.5h362q72 0 107 -34.5t35 -107.5v-49h-124v22q0 37 -15.5 52.5t-52.5 15.5h-258q-38 0 -53 -15
t-15 -53v-34q0 -36 14.5 -50t53.5 -18l322 -30q76 -7 109 -39t33 -103v-115q0 -73 -35 -107.5t-107 -34.5h-386q-73 0 -107.5 34.5t-34.5 107.5z" />
    <glyph glyph-name="T" unicode="T" horiz-adv-x="676" 
d="M16 700h644v-114h-258v-586h-128v586h-258v114z" />
    <glyph glyph-name="U" unicode="U" horiz-adv-x="773" 
d="M530 0h-288q-96 0 -141 45t-45 141v514h128v-490q0 -55 22.5 -77.5t77.5 -22.5h204q56 0 78 22t22 78v490h128v-514q0 -96 -45 -141t-141 -45z" />
    <glyph glyph-name="V" unicode="V" horiz-adv-x="776" 
d="M392 138l244 562h134l-320 -700h-124l-320 700h141z" />
    <glyph glyph-name="W" unicode="W" horiz-adv-x="1102" 
d="M781 172l181 528h134l-256 -700h-113l-176 509l-176 -509h-113l-256 700h141l180 -528l178 528h97z" />
    <glyph glyph-name="X" unicode="X" 
d="M151 0h-145l286 356l-276 344h156l208 -275l207 275h149l-276 -344l286 -356h-156l-218 287z" />
    <glyph glyph-name="Y" unicode="Y" horiz-adv-x="728" 
d="M589 700h143l-304 -442v-258h-128v258l-304 442h149l222 -337z" />
    <glyph glyph-name="Z" unicode="Z" horiz-adv-x="748" 
d="M706 0h-664v88l478 502h-458v110h644v-88l-478 -502h478v-110z" />
    <glyph glyph-name="bracketleft" unicode="[" horiz-adv-x="396" 
d="M364 -100h-300v900h300v-98h-190v-704h190v-98z" />
    <glyph glyph-name="backslash" unicode="\" horiz-adv-x="487" 
d="M6 800h87l388 -900h-87z" />
    <glyph glyph-name="bracketright" unicode="]" horiz-adv-x="396" 
d="M32 800h300v-900h-300v98h190v704h-190v98z" />
    <glyph glyph-name="asciicircum" unicode="^" 
d="M426 700l268 -420h-124l-193 313l-193 -313h-126l268 420h100z" />
    <glyph glyph-name="underscore" unicode="_" horiz-adv-x="644" 
d="M0 -126v86h644v-86h-644z" />
    <glyph glyph-name="grave" unicode="`" horiz-adv-x="353" 
d="M289 576h-101l-124 124h132z" />
    <glyph glyph-name="a" unicode="a" horiz-adv-x="673" 
d="M220 528h228q88 0 127 -38.5t39 -127.5v-362h-99l-14 71l-17 -13q-47 -38 -80 -48t-105 -10h-121q-124 0 -124 124v55q0 124 124 124h315v52q0 48 -18.5 66t-67.5 18h-144q-37 0 -52.5 -15t-15.5 -53v-19h-117v34q0 73 35 107.5t107 34.5zM447 114l46 34v83h-258
q-34 0 -47 -13.5t-13 -46.5v-28q0 -34 13 -47t47 -13h102q67 0 110 31z" />
    <glyph glyph-name="b" unicode="b" horiz-adv-x="687" 
d="M394 528h73q88 0 127 -38.5t39 -127.5v-196q0 -89 -39 -127.5t-127 -38.5h-73q-76 0 -116 12q-41 12 -92 54l-9 7l-14 -73h-100v700h122v-239l1 1q51 42 92 54t116 12zM512 183v162q0 49 -18 67t-67 18h-72q-83 0 -130 -35l-40 -30v-202l40 -30q47 -35 130 -35h72
q49 0 67 18t18 67z" />
    <glyph glyph-name="c" unicode="c" horiz-adv-x="654" 
d="M54 166v196q0 89 39 127.5t127 38.5h214q88 0 127 -38.5t39 -127.5v-41h-118v24q0 49 -17.5 67t-66.5 18h-138q-49 0 -66.5 -18t-17.5 -67v-162q0 -49 17.5 -67t66.5 -18h138q49 0 66.5 18t17.5 67v32h118v-49q0 -89 -39 -127.5t-127 -38.5h-214q-88 0 -127 38.5
t-39 127.5z" />
    <glyph glyph-name="d" unicode="d" horiz-adv-x="687" 
d="M502 461v239h122v-700h-100l-14 73l-9 -7q-51 -42 -91 -54t-116 -12h-74q-88 0 -127 38.5t-39 127.5v196q0 89 39 127.5t127 38.5h74q76 0 116 -12t91 -54zM463 133l39 30v202l-39 30q-49 35 -131 35h-72q-49 0 -66.5 -18t-17.5 -67v-162q0 -49 17.5 -67t66.5 -18h72
q82 0 131 35z" />
    <glyph glyph-name="e" unicode="e" horiz-adv-x="668" 
d="M220 528h228q88 0 127 -38.5t39 -127.5v-114h-439v-67q0 -49 18.5 -67t67.5 -18h168q37 0 52.5 15.5t15.5 52.5v23h117v-45q0 -73 -35 -107.5t-107 -34.5h-252q-88 0 -127 38.5t-39 127.5v196q0 89 39 127.5t127 38.5zM175 354v-28h322v28q0 49 -18.5 67t-67.5 18h-150
q-49 0 -67.5 -18t-18.5 -67z" />
    <glyph glyph-name="f" unicode="f" horiz-adv-x="478" 
d="M462 603h-149q-37 0 -52.5 -15.5t-15.5 -52.5v-70h217v-97h-217v-368h-121v368h-108v97h108v93q0 73 35 107.5t107 34.5h196v-97z" />
    <glyph glyph-name="g" unicode="g" horiz-adv-x="687" 
d="M511 455l14 73h99v-502q0 -96 -45 -141t-141 -45h-364v92h329q55 0 77.5 22.5t22.5 77.5v73l-2 -2q-49 -42 -92 -54q-42 -12 -116 -12h-73q-88 0 -127 38.5t-39 127.5v159q0 89 39 127.5t127 38.5h73q74 0 116 -12t92 -53zM463 168l40 29v171l-40 30q-44 34 -131 34h-72
q-49 0 -67 -18t-18 -67v-129q0 -49 18 -67t67 -18h72q84 0 131 35z" />
    <glyph glyph-name="h" unicode="h" horiz-adv-x="682" 
d="M398 528h59q88 0 127 -38.5t39 -127.5v-362h-121v342q0 49 -18 67t-67 18h-62q-86 0 -130 -34l-40 -30v-363h-122v700h122v-242l5 4q51 42 92 54q40 12 116 12z" />
    <glyph glyph-name="i" unicode="i" horiz-adv-x="257" 
d="M191 601h-124v99h124v-99zM191 0h-124v528h124v-528z" />
    <glyph glyph-name="j" unicode="j" horiz-adv-x="257" 
d="M191 601h-124v99h124v-99zM49 -160h-71v95h21q38 0 53 15t15 53v525h124v-546q0 -73 -35 -107.5t-107 -34.5z" />
    <glyph glyph-name="k" unicode="k" horiz-adv-x="644" 
d="M329 266l313 -266h-179l-278 250v-250h-122v700h122v-424l274 252h177z" />
    <glyph glyph-name="l" unicode="l" horiz-adv-x="258" 
d="M190 0h-123v700h123v-700z" />
    <glyph glyph-name="m" unicode="m" horiz-adv-x="1065" 
d="M804 528h36q88 0 127 -38.5t39 -127.5v-362h-122v342q0 49 -18 67t-67 18h-34q-84 0 -130 -34l-40 -30v-363h-121v342q0 49 -18 67t-67 18h-34q-86 0 -130 -34l-40 -30v-363h-122v528h100l14 -73l9 7q51 42 92 54t116 12h35q121 0 152 -78l15 12q51 42 92 54
q40 12 116 12z" />
    <glyph glyph-name="n" unicode="n" horiz-adv-x="682" 
d="M394 528h63q88 0 127 -38.5t39 -127.5v-362h-121v342q0 49 -18 67t-67 18h-62q-86 0 -130 -34l-40 -30v-363h-122v528h100l14 -73l9 7q51 42 92 54t116 12z" />
    <glyph glyph-name="o" unicode="o" horiz-adv-x="678" 
d="M458 0h-238q-88 0 -127 38.5t-39 127.5v196q0 89 39 127.5t127 38.5h238q88 0 127 -38.5t39 -127.5v-196q0 -89 -39 -127.5t-127 -38.5zM260 98h158q49 0 66.5 18t17.5 67v162q0 49 -17.5 67t-66.5 18h-158q-49 0 -66.5 -18t-17.5 -67v-162q0 -49 17.5 -67t66.5 -18z" />
    <glyph glyph-name="p" unicode="p" horiz-adv-x="687" 
d="M394 528h73q88 0 127 -38.5t39 -127.5v-196q0 -89 -39 -127.5t-127 -38.5h-73q-76 0 -116 12q-41 12 -92 54l-1 1v-227h-122v688h100l14 -73l9 7q51 42 92 54t116 12zM512 183v162q0 49 -18 67t-67 18h-72q-83 0 -130 -35l-40 -30v-202l40 -30q47 -35 130 -35h72
q49 0 67 18t18 67z" />
    <glyph glyph-name="q" unicode="q" horiz-adv-x="687" 
d="M510 455l14 73h100v-688h-122v227l-1 -1q-51 -42 -89 -54q-39 -12 -114 -12h-78q-88 0 -127 38.5t-39 127.5v196q0 89 39 127.5t127 38.5h74q76 0 116 -12t91 -54zM463 133l39 30v202l-39 30q-49 35 -131 35h-72q-49 0 -66.5 -18t-17.5 -67v-162q0 -49 17.5 -67t66.5 -18
h72q82 0 131 35z" />
    <glyph glyph-name="r" unicode="r" horiz-adv-x="446" 
d="M390 528h40v-113h-75q-86 0 -130 -34l-40 -30v-351h-122v528h88l15 -78l16 12q51 42 92 54q40 12 116 12z" />
    <glyph glyph-name="s" unicode="s" horiz-adv-x="658" 
d="M54 116v50h117v-35q0 -24 10.5 -34t34.5 -10h222q24 0 34.5 10t10.5 34v42q0 23 -10.5 33t-34.5 12l-259 26q-115 10 -115 115v54q0 56 30 85.5t85 29.5h296q55 0 85 -30t30 -86v-45h-117v30q0 24 -10.5 34t-34.5 10h-198q-24 0 -34.5 -10t-10.5 -34v-18q0 -23 10.5 -33
t34.5 -12l259 -26q115 -10 115 -115v-78q0 -56 -30 -85.5t-85 -29.5h-320q-55 0 -85 30t-30 86z" />
    <glyph glyph-name="t" unicode="t" horiz-adv-x="498" 
d="M472 528v-97h-226v-265q0 -38 15 -53t53 -15h158v-98h-206q-73 0 -107.5 34t-34.5 108v289h-108v97h108l25 120h97v-120h226z" />
    <glyph glyph-name="u" unicode="u" horiz-adv-x="682" 
d="M497 528h122v-528h-100l-14 73l-9 -7q-51 -42 -91 -54q-41 -12 -117 -12h-63q-88 0 -127 38.5t-39 127.5v362h121v-342q0 -49 18 -67t67 -18h62q86 0 130 34l40 30v363z" />
    <glyph glyph-name="v" unicode="v" horiz-adv-x="638" 
d="M322 130l180 398h130l-258 -528h-110l-258 528h135z" />
    <glyph glyph-name="w" unicode="w" horiz-adv-x="902" 
d="M638 147l134 381h124l-205 -528h-105l-134 374l-134 -374h-107l-205 528h129l135 -380l137 380h93z" />
    <glyph glyph-name="x" unicode="x" horiz-adv-x="647" 
d="M149 0h-147l239 269l-229 259h155l160 -200l161 200h147l-228 -259l238 -269h-155l-170 210z" />
    <glyph glyph-name="y" unicode="y" horiz-adv-x="638" 
d="M320 125l182 403h130l-265 -540q-45 -91 -92 -120q-47 -28 -152 -28h-69v98h79q52 0 78 14.5t49 56.5l-254 519h135z" />
    <glyph glyph-name="z" unicode="z" horiz-adv-x="642" 
d="M602 0h-562v74l384 360h-364v94h542v-74l-384 -360h384v-94z" />
    <glyph glyph-name="braceleft" unicode="{" horiz-adv-x="464" 
d="M248 601v-145q0 -80 -57 -106q57 -28 57 -107v-144q0 -53 24 -77t77 -24h83v-98h-104q-96 0 -143 46.5t-47 143.5v159q0 56 -56 56h-50v90h50q56 0 56 55v160q0 97 47 143.5t143 46.5h104v-98h-83q-53 0 -77 -24t-24 -77z" />
    <glyph glyph-name="bar" unicode="|" horiz-adv-x="248" 
d="M74 -100v900h100v-900h-100z" />
    <glyph glyph-name="braceright" unicode="}" horiz-adv-x="464" 
d="M382 395h50v-90h-50q-56 0 -56 -55v-160q0 -97 -47 -143.5t-143 -46.5h-104v98h83q53 0 77 24t24 77v145q0 80 57 106q-57 28 -57 107v144q0 53 -24 77t-77 24h-83v98h104q96 0 143 -46.5t47 -143.5v-159q0 -56 56 -56z" />
    <glyph glyph-name="asciitilde" unicode="~" 
d="M363 442l117 -141q15 -15 24 -19.5t27 -4.5h17q17 0 24.5 7.5t7.5 25.5v194h104v-214q0 -51 -21.5 -72.5t-72.5 -21.5h-78q-48 0 -70 12q-23 11 -53 51l-117 140q-15 15 -24 19.5t-27 4.5h-17q-17 0 -24.5 -7.5t-7.5 -25.5v-194h-104v214q0 51 21.5 72.5t72.5 21.5h78
q46 0 71 -11q24 -13 52 -51z" />
    <glyph glyph-name="exclamdown" unicode="&#xa1;" horiz-adv-x="276" 
d="M64 700h148v-128h-148v128zM184 496l24 -496h-140l24 496h92z" />
    <glyph glyph-name="cent" unicode="&#xa2;" 
d="M686 534v-55h-120v36q0 49 -18 67t-67 18h-206q-49 0 -67 -18t-18 -67v-200q0 -49 18 -67t67 -18h206q49 0 67 18t18 67v43h120v-62q0 -89 -39 -127.5t-127 -38.5h-100v-100h-84v100h-104q-88 0 -127 38.5t-39 127.5v238q0 89 39 127.5t127 38.5h104v100h84v-100h100
q88 0 127 -38.5t39 -127.5z" />
    <glyph glyph-name="sterling" unicode="&#xa3;" horiz-adv-x="772" 
d="M706 514v-60h-120v48q0 55 -22.5 77.5t-77.5 22.5h-160q-52 0 -74 -22.5t-22 -77.5v-109h244v-74h-244v-217h288q38 0 53 15t15 53v68h120v-96q0 -74 -34.5 -108t-107.5 -34h-548v102h90v217h-100v74h100v121q0 96 45 141t141 45h228q96 0 141 -45t45 -141z" />
    <glyph glyph-name="currency" unicode="&#xa4;" 
d="M627 432v-164q0 -45 -13 -74l97 -97l-59 -59l-90 90q-41 -28 -103 -28h-166q-62 0 -103 28l-90 -90l-59 59l97 97q-13 29 -13 74v164q0 45 13 74l-97 97l59 59l90 -90q41 28 103 28h166q62 0 103 -28l90 90l59 -59l-97 -97q13 -29 13 -74zM321 196h110q49 0 71.5 22.5
t22.5 71.5v120q0 49 -22.5 71.5t-71.5 22.5h-110q-49 0 -71.5 -22.5t-22.5 -71.5v-120q0 -49 22.5 -71.5t71.5 -22.5z" />
    <glyph glyph-name="yen" unicode="&#xa5;" 
d="M589 700h135l-254 -389h224v-64h-256v-90h256v-64h-256v-93h-124v93h-256v64h256v90h-256v64h224l-254 389h142l209 -337z" />
    <glyph glyph-name="brokenbar" unicode="&#xa6;" horiz-adv-x="248" 
d="M74 478v322h100v-322h-100zM74 -100v322h100v-322h-100z" />
    <glyph glyph-name="section" unicode="&#xa7;" horiz-adv-x="918" 
d="M359 544l371 -40q72 -8 103 -39t31 -99v-72q0 -66 -27.5 -99t-86.5 -38q4 -17 4 -48v-67q0 -73 -35 -107.5t-107 -34.5h-296q-72 0 -107 34.5t-35 107.5v51h124v-30q0 -37 15 -52.5t53 -15.5h193q37 0 52 15t15 52v27q0 35 -14.5 49t-52.5 18l-371 40q-72 8 -103 39
t-31 99v72q0 66 27.5 99t86.5 38q-4 17 -4 48v67q0 73 35 107.5t107 34.5h296q72 0 107 -34.5t35 -107.5v-51h-124v30q0 37 -15 52.5t-53 15.5h-193q-37 0 -52 -15t-15 -52v-27q0 -35 14.5 -49t52.5 -18zM245 290l371 -39q28 -3 56 -11h1q35 0 49 14t14 49v44q0 33 -13.5 46
t-49.5 17l-371 39q-28 3 -56 11h-1q-35 0 -49 -14t-14 -49v-44q0 -33 13.5 -46t49.5 -17z" />
    <glyph glyph-name="dieresis" unicode="&#xa8;" horiz-adv-x="432" 
d="M160 588h-96v88h96v-88zM368 588h-96v88h96v-88z" />
    <glyph glyph-name="copyright" unicode="&#xa9;" horiz-adv-x="800" 
d="M537 0h-274q-105 0 -164 58.5t-59 164.5v254q0 106 59 164.5t164 58.5h274q105 0 164 -58.5t59 -164.5v-254q0 -106 -59 -164.5t-164 -58.5zM273 50h254q179 0 179 179v242q0 179 -179 179h-254q-179 0 -179 -179v-242q0 -179 179 -179zM503 132h-206q-62 0 -91.5 29
t-29.5 92v194q0 63 29.5 92t91.5 29h206q62 0 91.5 -29t29.5 -92v-46h-91v31q0 32 -12 44.5t-44 12.5h-152q-32 0 -44 -12.5t-12 -44.5v-164q0 -32 12 -44.5t44 -12.5h152q32 0 44 12.5t12 44.5v36h91v-51q0 -63 -29.5 -92t-91.5 -29z" />
    <glyph glyph-name="ordfeminine" unicode="&#xaa;" horiz-adv-x="405" 
d="M132 700h138q53 0 77 -24t24 -78v-216h-68l-9 41l-5 -4q-28 -24 -49 -30q-20 -7 -63 -7h-72q-75 0 -75 75v35q0 75 75 75h183v26q0 27 -9.5 37t-36.5 10h-80q-21 0 -29 -8.5t-8 -29.5v-9h-81v20q0 87 88 87zM147 438h57q34 0 59 17l25 18v46h-141q-19 0 -26.5 -7.5
t-7.5 -26.5v-14q0 -19 7.5 -26t26.5 -7z" />
    <glyph glyph-name="guillemotleft" unicode="&#xab;" horiz-adv-x="808" 
d="M52 311v77l324 198v-103l-233 -132l233 -133v-105zM432 388l324 198v-103l-233 -132l233 -133v-105l-324 198v77z" />
    <glyph glyph-name="logicalnot" unicode="&#xac;" 
d="M574 298h-506v104h616v-280h-110v176z" />
    <glyph glyph-name="uni00AD" unicode="&#xad;" horiz-adv-x="420" 
d="M48 298v104h324v-104h-324z" />
    <glyph glyph-name="registered" unicode="&#xae;" horiz-adv-x="391" 
d="M143 700h105q107 0 107 -107v-92q0 -107 -107 -107h-105q-107 0 -107 107v92q0 107 107 107zM318 503v88q0 41 -16.5 57.5t-57.5 16.5h-97q-41 0 -57.5 -16.5t-16.5 -57.5v-88q0 -40 17 -57t57 -17h97q40 0 57 17t17 57zM271 587v-27q0 -35 -34 -36l41 -55h-44l-38 52
h-32v-52h-40v155h110q20 0 28.5 -8.5t8.5 -28.5zM220 592h-56v-39h56q11 0 11 12v15q0 12 -11 12z" />
    <glyph glyph-name="overscore" unicode="&#xaf;" horiz-adv-x="520" 
d="M456 606h-392v66h392v-66z" />
    <glyph glyph-name="degree" unicode="&#xb0;" horiz-adv-x="428" 
d="M265 360h-102q-58 0 -89.5 32t-31.5 89v98q0 58 31.5 89.5t89.5 31.5h102q58 0 89.5 -31.5t31.5 -89.5v-98q0 -57 -31.5 -89t-89.5 -32zM179 431h70q61 0 61 61v76q0 32 -14.5 46.5t-46.5 14.5h-70q-32 0 -46.5 -14.5t-14.5 -46.5v-76q0 -61 61 -61z" />
    <glyph glyph-name="plusminus" unicode="&#xb1;" 
d="M431 676v-192h253v-96h-253v-192h-110v192h-253v96h253v192h110zM684 24h-616v97h616v-97z" />
    <glyph glyph-name="uni00B2" unicode="&#xb2;" horiz-adv-x="482" 
d="M428 368v-88h-381v135q0 45 22 67t70 29l161 22q18 2 24.5 9t6.5 24v21q0 17 -7 24t-24 7h-113q-18 0 -25 -7t-7 -24v-19h-100v40q0 48 22.5 70t69.5 22h196q47 0 69.5 -22t22.5 -70v-55q0 -45 -21.5 -67t-70.5 -29l-161 -22q-31 -4 -31 -33v-34h277z" />
    <glyph glyph-name="uni00B3" unicode="&#xb3;" horiz-adv-x="476" 
d="M386 497q47 -15 47 -79v-46q0 -48 -22 -70t-69 -22h-207q-47 0 -69.5 22t-22.5 70v55h100v-32q0 -18 7 -24.5t24 -6.5h124q18 0 24.5 6.5t6.5 24.5v32q0 17 -6.5 24t-24.5 7h-91v75h85q18 0 24.5 7t6.5 25v20q0 18 -6.5 24.5t-24.5 6.5h-112q-17 0 -24 -6.5t-7 -24.5v-27
h-100v50q0 48 22.5 70t69.5 22h195q47 0 69 -22t22 -70v-34q0 -62 -41 -77z" />
    <glyph glyph-name="acute" unicode="&#xb4;" horiz-adv-x="353" 
d="M289 700l-123 -124h-102l94 124h131z" />
    <glyph glyph-name="paragraph" unicode="&#xb6;" horiz-adv-x="822" 
d="M50 438v96q0 89 39 127.5t127 38.5h502v-700h-112v598h-162v-598h-112v272h-116q-88 0 -127 38.5t-39 127.5z" />
    <glyph glyph-name="middot" unicode="&#xb7;" horiz-adv-x="276" 
d="M212 280h-148v140h148v-140z" />
    <glyph glyph-name="cedilla" unicode="&#xb8;" horiz-adv-x="320" 
d="M216 -160h-164v47h139q13 0 13 13v13q0 13 -13 13h-103v22l26 72h50l-18 -50h70q28 0 40 -12t12 -40v-26q0 -28 -12 -40t-40 -12z" />
    <glyph glyph-name="uni00B9" unicode="&#xb9;" horiz-adv-x="446" 
d="M286 700v-335h126v-85h-379v85h148v241l-130 -13v89l186 18h49z" />
    <glyph glyph-name="ordmasculine" unicode="&#xba;" horiz-adv-x="407" 
d="M275 383h-143q-54 0 -78 23.5t-24 77.5v115q0 54 24 77.5t78 23.5h143q54 0 78 -23.5t24 -77.5v-115q0 -54 -24 -77.5t-78 -23.5zM160 451h88q27 0 37 10t10 37v87q0 27 -10 37t-37 10h-88q-27 0 -37 -10t-10 -37v-87q0 -27 10 -37t37 -10z" />
    <glyph glyph-name="guillemotright" unicode="&#xbb;" horiz-adv-x="808" 
d="M285 349l-233 132v105l324 -198v-77l-324 -198v103zM432 481v105l324 -198v-77l-324 -198v103l233 133z" />
    <glyph glyph-name="onequarter" unicode="&#xbc;" horiz-adv-x="1060" 
d="M286 365h126v-85h-379v85h148v241l-130 -13v89l186 18h49v-335zM273 0l540 700h80l-540 -700h-80zM943 166h84v-80h-84v-86h-100v86h-249v67l233 267h116v-254zM843 321l-135 -155h135v155z" />
    <glyph glyph-name="onehalf" unicode="&#xbd;" horiz-adv-x="1163" 
d="M286 365h126v-85h-379v85h148v241l-130 -13v89l186 18h49v-335zM273 0l540 700h80l-540 -700h-80zM1024 177l-161 -22q-31 -4 -31 -33v-34h277v-88h-381v135q0 45 22 67t70 29l161 22q18 2 24.5 9t6.5 24v21q0 17 -7 24t-24 7h-113q-18 0 -25 -7t-7 -24v-19h-100v40
q0 48 22.5 70t69.5 22h196q47 0 69.5 -22t22.5 -70v-55q0 -45 -21.5 -67t-70.5 -29z" />
    <glyph glyph-name="threequarters" unicode="&#xbe;" horiz-adv-x="1078" 
d="M437 418v-46q0 -48 -22 -70t-69 -22h-207q-47 0 -69.5 22t-22.5 70v55h100v-32q0 -18 7 -24.5t24 -6.5h124q18 0 24.5 6.5t6.5 24.5v32q0 17 -6.5 24t-24.5 7h-91v75h85q18 0 24.5 7t6.5 25v20q0 18 -6.5 24.5t-24.5 6.5h-112q-17 0 -24 -6.5t-7 -24.5v-27h-100v50
q0 48 22.5 70t69.5 22h195q47 0 69 -22t22 -70v-34q0 -62 -41 -77q47 -15 47 -79zM271 0l540 700h80l-540 -700h-80zM961 166h84v-80h-84v-86h-100v86h-249v67l233 267h116v-254zM861 321l-135 -155h135v155z" />
    <glyph glyph-name="questiondown" unicode="&#xbf;" horiz-adv-x="674" 
d="M295 700h148v-116h-148v116zM310 508h117v-75q0 -63 -23 -92q-22 -29 -90 -45l-83 -21q-36 -9 -49.5 -25t-13.5 -49v-34q0 -36 15 -51t52 -15h208q37 0 52 15t15 51v41h120v-66q0 -73 -35 -107.5t-107 -34.5h-302q-72 0 -107 34.5t-35 107.5v67q0 66 29.5 100t101.5 52
l80 21q33 8 44 23t11 49v54z" />
    <glyph glyph-name="Agrave" unicode="&#xc0;" horiz-adv-x="799" 
d="M357 872l93 -124h-101l-124 124h132zM798 0h-142l-68 155h-379l-67 -155h-136l326 700h141zM399 590l-147 -338h294z" />
    <glyph glyph-name="Aacute" unicode="&#xc1;" horiz-adv-x="799" 
d="M448 872h131l-123 -124h-102zM798 0h-142l-68 155h-379l-67 -155h-136l326 700h141zM399 590l-147 -338h294z" />
    <glyph glyph-name="Acircumflex" unicode="&#xc2;" horiz-adv-x="799" 
d="M497 748l-95 72l-95 -72h-92l126 124h122l126 -124h-92zM798 0h-142l-68 155h-379l-67 -155h-136l326 700h141zM399 590l-147 -338h294z" />
    <glyph glyph-name="Atilde" unicode="&#xc3;" horiz-adv-x="799" 
d="M290 808v-60h-73v74q0 50 50 50h87q23 0 35.5 -5t26.5 -21l38 -38q10 -10 25 -10h20q15 0 15 14v60h73v-74q0 -50 -50 -50h-87q-23 0 -35.5 5t-26.5 21l-38 38q-10 10 -25 10h-20q-15 0 -15 -14zM798 0h-142l-68 155h-379l-67 -155h-136l326 700h141zM399 590l-147 -338
h294z" />
    <glyph glyph-name="Adieresis" unicode="&#xc4;" horiz-adv-x="799" 
d="M250 848h96v-88h-96v88zM458 848h96v-88h-96v88zM798 0h-142l-68 155h-379l-67 -155h-136l326 700h141zM399 590l-147 -338h294z" />
    <glyph glyph-name="Aring" unicode="&#xc5;" horiz-adv-x="799" 
d="M489 738h-174q-29 0 -41.5 13t-12.5 41v26q0 28 12.5 41t41.5 13h174q29 0 41.5 -13t12.5 -41v-26q0 -28 -12.5 -41t-41.5 -13zM314 812v-14q0 -12 4 -16.5t16 -4.5h136q12 0 16 4.5t4 16.5v14q0 12 -4 16.5t-16 4.5h-136q-12 0 -16 -4.5t-4 -16.5zM798 0h-142l-68 155
h-379l-67 -155h-136l326 700h141zM399 590l-147 -338h294z" />
    <glyph glyph-name="AE" unicode="&#xc6;" horiz-adv-x="1084" 
d="M646 314l89 -207h317v-107h-413l-61 152h-370l-66 -152h-136l326 700h710v-107h-516l77 -180h399v-99h-356zM400 592l-150 -343h288z" />
    <glyph glyph-name="Ccedilla" unicode="&#xc7;" horiz-adv-x="772" 
d="M721 514v-74h-124v52q0 55 -22.5 77.5t-77.5 22.5h-214q-55 0 -77.5 -22.5t-22.5 -77.5v-284q0 -55 22.5 -77.5t77.5 -22.5h214q55 0 77.5 22.5t22.5 77.5v61h124v-83q0 -96 -45 -141t-141 -45h-134l-11 -30h70q28 0 40 -12t12 -40v-26q0 -28 -12 -40t-40 -12h-164v47
h139q13 0 13 13v13q0 13 -13 13h-103v22l19 52h-110q-96 0 -141 45t-45 141v328q0 96 45 141t141 45h294q96 0 141 -45t45 -141z" />
    <glyph glyph-name="Egrave" unicode="&#xc8;" horiz-adv-x="678" 
d="M294 872l93 -124h-101l-124 124h132zM192 314v-207h454v-107h-582v700h572v-107h-444v-180h404v-99h-404z" />
    <glyph glyph-name="Eacute" unicode="&#xc9;" horiz-adv-x="678" 
d="M385 872h131l-123 -124h-102zM192 314v-207h454v-107h-582v700h572v-107h-444v-180h404v-99h-404z" />
    <glyph glyph-name="Ecircumflex" unicode="&#xca;" horiz-adv-x="678" 
d="M434 748l-95 72l-95 -72h-92l126 124h122l126 -124h-92zM192 314v-207h454v-107h-582v700h572v-107h-444v-180h404v-99h-404z" />
    <glyph glyph-name="Edieresis" unicode="&#xcb;" horiz-adv-x="678" 
d="M187 848h96v-88h-96v88zM395 848h96v-88h-96v88zM192 314v-207h454v-107h-582v700h572v-107h-444v-180h404v-99h-404z" />
    <glyph glyph-name="Igrave" unicode="&#xcc;" horiz-adv-x="268" 
d="M182 748h-101l-124 124h132zM69 0v700h130v-700h-130z" />
    <glyph glyph-name="Iacute" unicode="&#xcd;" horiz-adv-x="268" 
d="M311 872l-123 -124h-102l94 124h131zM69 0v700h130v-700h-130z" />
    <glyph glyph-name="Icircumflex" unicode="&#xce;" horiz-adv-x="268" 
d="M39 748h-92l126 124h122l126 -124h-92l-95 72zM69 0v700h130v-700h-130z" />
    <glyph glyph-name="Idieresis" unicode="&#xcf;" horiz-adv-x="268" 
d="M78 760h-96v88h96v-88zM286 760h-96v88h96v-88zM69 0v700h130v-700h-130z" />
    <glyph glyph-name="Eth" unicode="&#xd0;" horiz-adv-x="859" 
d="M124 700h450q112 0 171 -58.5t59 -171.5v-240q0 -113 -59 -171.5t-171 -58.5h-450v310h-92v80h92v310zM676 238v224q0 128 -128 128h-296v-200h226v-80h-226v-200h296q128 0 128 128z" />
    <glyph glyph-name="Ntilde" unicode="&#xd1;" horiz-adv-x="808" 
d="M288 808v-60h-73v74q0 50 50 50h87q23 0 35.5 -5t26.5 -21l38 -38q10 -10 25 -10h20q15 0 15 14v60h73v-74q0 -50 -50 -50h-87q-23 0 -35.5 5t-26.5 21l-38 38q-10 10 -25 10h-20q-15 0 -15 -14zM620 192v508h124v-700h-102l-454 516v-516h-124v700h108z" />
    <glyph glyph-name="Ograve" unicode="&#xd2;" horiz-adv-x="800" 
d="M448 748h-101l-124 124h132zM559 0h-318q-96 0 -141 45t-45 141v328q0 96 45 141t141 45h318q96 0 141 -45t45 -141v-328q0 -96 -45 -141t-141 -45zM283 110h234q55 0 77.5 22.5t22.5 77.5v280q0 55 -22.5 77.5t-77.5 22.5h-234q-55 0 -77.5 -22t-22.5 -78v-280
q0 -56 22.5 -78t77.5 -22z" />
    <glyph glyph-name="Oacute" unicode="&#xd3;" horiz-adv-x="800" 
d="M577 872l-123 -124h-102l94 124h131zM559 0h-318q-96 0 -141 45t-45 141v328q0 96 45 141t141 45h318q96 0 141 -45t45 -141v-328q0 -96 -45 -141t-141 -45zM283 110h234q55 0 77.5 22.5t22.5 77.5v280q0 55 -22.5 77.5t-77.5 22.5h-234q-55 0 -77.5 -22t-22.5 -78v-280
q0 -56 22.5 -78t77.5 -22z" />
    <glyph glyph-name="Ocircumflex" unicode="&#xd4;" horiz-adv-x="800" 
d="M305 748h-92l126 124h122l126 -124h-92l-95 72zM559 0h-318q-96 0 -141 45t-45 141v328q0 96 45 141t141 45h318q96 0 141 -45t45 -141v-328q0 -96 -45 -141t-141 -45zM283 110h234q55 0 77.5 22.5t22.5 77.5v280q0 55 -22.5 77.5t-77.5 22.5h-234q-55 0 -77.5 -22
t-22.5 -78v-280q0 -56 22.5 -78t77.5 -22z" />
    <glyph glyph-name="Otilde" unicode="&#xd5;" horiz-adv-x="800" 
d="M288 748h-73v74q0 50 50 50h87q23 0 35.5 -5t26.5 -21l38 -38q10 -10 25 -10h20q15 0 15 14v60h73v-74q0 -50 -50 -50h-87q-23 0 -35.5 5t-26.5 21l-38 38q-10 10 -25 10h-20q-15 0 -15 -14v-60zM559 0h-318q-96 0 -141 45t-45 141v328q0 96 45 141t141 45h318
q96 0 141 -45t45 -141v-328q0 -96 -45 -141t-141 -45zM283 110h234q55 0 77.5 22.5t22.5 77.5v280q0 55 -22.5 77.5t-77.5 22.5h-234q-55 0 -77.5 -22t-22.5 -78v-280q0 -56 22.5 -78t77.5 -22z" />
    <glyph glyph-name="Odieresis" unicode="&#xd6;" horiz-adv-x="800" 
d="M344 760h-96v88h96v-88zM552 760h-96v88h96v-88zM559 0h-318q-96 0 -141 45t-45 141v328q0 96 45 141t141 45h318q96 0 141 -45t45 -141v-328q0 -96 -45 -141t-141 -45zM283 110h234q55 0 77.5 22.5t22.5 77.5v280q0 55 -22.5 77.5t-77.5 22.5h-234q-55 0 -77.5 -22
t-22.5 -78v-280q0 -56 22.5 -78t77.5 -22z" />
    <glyph glyph-name="multiply" unicode="&#xd7;" 
d="M592 640l74 -74l-216 -216l216 -216l-74 -74l-216 216l-216 -216l-74 74l216 216l-216 216l74 74l216 -216z" />
    <glyph glyph-name="Oslash" unicode="&#xd8;" horiz-adv-x="800" 
d="M689 730h86l-70 -80q40 -46 40 -136v-328q0 -96 -45 -141t-141 -45h-318q-50 0 -92 14l-38 -44h-86l70 80q-40 46 -40 136v328q0 96 45 141t141 45h318q50 0 92 -14zM177 494v-288q0 -32 8 -53l381 436q-17 5 -44 5h-245q-55 0 -77.5 -22.5t-22.5 -77.5zM622 206v288
q0 35 -7 53l-381 -437q15 -4 43 -4h245q56 0 78 22t22 78z" />
    <glyph glyph-name="Ugrave" unicode="&#xd9;" horiz-adv-x="773" 
d="M434 748h-101l-124 124h132zM530 0h-288q-96 0 -141 45t-45 141v514h128v-490q0 -55 22.5 -77.5t77.5 -22.5h204q56 0 78 22t22 78v490h128v-514q0 -96 -45 -141t-141 -45z" />
    <glyph glyph-name="Uacute" unicode="&#xda;" horiz-adv-x="773" 
d="M563 872l-123 -124h-102l94 124h131zM530 0h-288q-96 0 -141 45t-45 141v514h128v-490q0 -55 22.5 -77.5t77.5 -22.5h204q56 0 78 22t22 78v490h128v-514q0 -96 -45 -141t-141 -45z" />
    <glyph glyph-name="Ucircumflex" unicode="&#xdb;" horiz-adv-x="773" 
d="M291 748h-92l126 124h122l126 -124h-92l-95 72zM530 0h-288q-96 0 -141 45t-45 141v514h128v-490q0 -55 22.5 -77.5t77.5 -22.5h204q56 0 78 22t22 78v490h128v-514q0 -96 -45 -141t-141 -45z" />
    <glyph glyph-name="Udieresis" unicode="&#xdc;" horiz-adv-x="773" 
d="M330 760h-96v88h96v-88zM538 760h-96v88h96v-88zM530 0h-288q-96 0 -141 45t-45 141v514h128v-490q0 -55 22.5 -77.5t77.5 -22.5h204q56 0 78 22t22 78v490h128v-514q0 -96 -45 -141t-141 -45z" />
    <glyph glyph-name="Yacute" unicode="&#xdd;" horiz-adv-x="728" 
d="M410 872h131l-123 -124h-102zM589 700h143l-304 -442v-258h-128v258l-304 442h149l222 -337z" />
    <glyph glyph-name="Thorn" unicode="&#xde;" horiz-adv-x="736" 
d="M192 590h346q88 0 127 -38.5t39 -127.5v-128q0 -89 -39 -127.5t-127 -38.5h-346v-130h-128v700h128v-110zM576 312v92q0 49 -18 66.5t-67 17.5h-299v-260h299q49 0 67 17.5t18 66.5z" />
    <glyph glyph-name="germandbls" unicode="&#xdf;" horiz-adv-x="689" 
d="M554 367q83 -21 83 -128v-97q0 -73 -34.5 -107.5t-107.5 -34.5h-172v97h125q38 0 53 15.5t15 52.5v88q0 37 -15 52.5t-53 15.5h-125v86h105q38 0 53 15t15 53v60q0 37 -15 52.5t-53 15.5h-175q-37 0 -52.5 -15.5t-15.5 -52.5v-535h-122v558q0 73 35 107.5t107 34.5h270
q73 0 107.5 -34.5t34.5 -107.5v-69q0 -93 -63 -122z" />
    <glyph glyph-name="agrave" unicode="&#xe0;" horiz-adv-x="673" 
d="M300 700l93 -124h-101l-124 124h132zM220 528h228q88 0 127 -38.5t39 -127.5v-362h-99l-14 71l-17 -13q-47 -38 -80 -48t-105 -10h-121q-124 0 -124 124v55q0 124 124 124h315v52q0 48 -18.5 66t-67.5 18h-144q-37 0 -52.5 -15t-15.5 -53v-19h-117v34q0 73 35 107.5
t107 34.5zM447 114l46 34v83h-258q-34 0 -47 -13.5t-13 -46.5v-28q0 -34 13 -47t47 -13h102q67 0 110 31z" />
    <glyph glyph-name="aacute" unicode="&#xe1;" horiz-adv-x="673" 
d="M391 700h131l-123 -124h-102zM220 528h228q88 0 127 -38.5t39 -127.5v-362h-99l-14 71l-17 -13q-47 -38 -80 -48t-105 -10h-121q-124 0 -124 124v55q0 124 124 124h315v52q0 48 -18.5 66t-67.5 18h-144q-37 0 -52.5 -15t-15.5 -53v-19h-117v34q0 73 35 107.5t107 34.5z
M447 114l46 34v83h-258q-34 0 -47 -13.5t-13 -46.5v-28q0 -34 13 -47t47 -13h102q67 0 110 31z" />
    <glyph glyph-name="acircumflex" unicode="&#xe2;" horiz-adv-x="673" 
d="M440 576l-95 72l-95 -72h-92l126 124h122l126 -124h-92zM220 528h228q88 0 127 -38.5t39 -127.5v-362h-99l-14 71l-17 -13q-47 -38 -80 -48t-105 -10h-121q-124 0 -124 124v55q0 124 124 124h315v52q0 48 -18.5 66t-67.5 18h-144q-37 0 -52.5 -15t-15.5 -53v-19h-117v34
q0 73 35 107.5t107 34.5zM447 114l46 34v83h-258q-34 0 -47 -13.5t-13 -46.5v-28q0 -34 13 -47t47 -13h102q67 0 110 31z" />
    <glyph glyph-name="atilde" unicode="&#xe3;" horiz-adv-x="673" 
d="M233 636v-60h-73v74q0 50 50 50h87q23 0 35.5 -5t26.5 -21l38 -38q10 -10 25 -10h20q15 0 15 14v60h73v-74q0 -50 -50 -50h-87q-23 0 -35.5 5t-26.5 21l-38 38q-10 10 -25 10h-20q-15 0 -15 -14zM220 528h228q88 0 127 -38.5t39 -127.5v-362h-99l-14 71l-17 -13
q-47 -38 -80 -48t-105 -10h-121q-124 0 -124 124v55q0 124 124 124h315v52q0 48 -18.5 66t-67.5 18h-144q-37 0 -52.5 -15t-15.5 -53v-19h-117v34q0 73 35 107.5t107 34.5zM447 114l46 34v83h-258q-34 0 -47 -13.5t-13 -46.5v-28q0 -34 13 -47t47 -13h102q67 0 110 31z" />
    <glyph glyph-name="adieresis" unicode="&#xe4;" horiz-adv-x="673" 
d="M193 676h96v-88h-96v88zM401 676h96v-88h-96v88zM220 528h228q88 0 127 -38.5t39 -127.5v-362h-99l-14 71l-17 -13q-47 -38 -80 -48t-105 -10h-121q-124 0 -124 124v55q0 124 124 124h315v52q0 48 -18.5 66t-67.5 18h-144q-37 0 -52.5 -15t-15.5 -53v-19h-117v34
q0 73 35 107.5t107 34.5zM447 114l46 34v83h-258q-34 0 -47 -13.5t-13 -46.5v-28q0 -34 13 -47t47 -13h102q67 0 110 31z" />
    <glyph glyph-name="aring" unicode="&#xe5;" horiz-adv-x="673" 
d="M432 566h-174q-54 0 -54 54v26q0 54 54 54h174q54 0 54 -54v-26q0 -54 -54 -54zM257 640v-14q0 -12 4 -16.5t16 -4.5h136q12 0 16 4.5t4 16.5v14q0 12 -4 16.5t-16 4.5h-136q-12 0 -16 -4.5t-4 -16.5zM220 528h228q88 0 127 -38.5t39 -127.5v-362h-99l-14 71l-17 -13
q-47 -38 -80 -48t-105 -10h-121q-124 0 -124 124v55q0 124 124 124h315v52q0 48 -18.5 66t-67.5 18h-144q-37 0 -52.5 -15t-15.5 -53v-19h-117v34q0 73 35 107.5t107 34.5zM447 114l46 34v83h-258q-34 0 -47 -13.5t-13 -46.5v-28q0 -34 13 -47t47 -13h102q67 0 110 31z" />
    <glyph glyph-name="ae" unicode="&#xe6;" horiz-adv-x="1107" 
d="M682 528h205q88 0 127 -38.5t39 -127.5v-114h-439v-67q0 -49 18 -67t67 -18h168q37 0 52.5 15t15.5 53v23h118v-45q0 -73 -35 -107.5t-107 -34.5h-240q-114 0 -147 67l-12 -9q-47 -38 -80 -48t-105 -10h-149q-124 0 -124 124v55q0 124 124 124h315v52q0 48 -18.5 66
t-67.5 18h-144q-37 0 -52.5 -15t-15.5 -53v-19h-117v34q0 73 35 107.5t107 34.5h205q96 0 129 -53q32 53 128 53zM614 354v-28h321v28q0 49 -18 67t-67 18h-151q-49 0 -67 -18t-18 -67zM447 114l46 34v83h-258q-34 0 -47 -13.5t-13 -46.5v-28q0 -34 13 -47t47 -13h102
q67 0 110 31z" />
    <glyph glyph-name="ccedilla" unicode="&#xe7;" horiz-adv-x="654" 
d="M600 362v-41h-118v24q0 49 -17.5 67t-66.5 18h-138q-49 0 -66.5 -18t-17.5 -67v-162q0 -49 17.5 -67t66.5 -18h138q49 0 66.5 18t17.5 67v32h118v-49q0 -89 -39 -127.5t-127 -38.5h-92l-11 -30h70q28 0 40 -12t12 -40v-26q0 -28 -12 -40t-40 -12h-164v47h139q13 0 13 13
v13q0 13 -13 13h-103v22l19 52h-72q-88 0 -127 38.5t-39 127.5v196q0 89 39 127.5t127 38.5h214q88 0 127 -38.5t39 -127.5z" />
    <glyph glyph-name="egrave" unicode="&#xe8;" horiz-adv-x="668" 
d="M289 700l93 -124h-101l-124 124h132zM220 528h228q88 0 127 -38.5t39 -127.5v-114h-439v-67q0 -49 18.5 -67t67.5 -18h168q37 0 52.5 15.5t15.5 52.5v23h117v-45q0 -73 -35 -107.5t-107 -34.5h-252q-88 0 -127 38.5t-39 127.5v196q0 89 39 127.5t127 38.5zM175 354v-28
h322v28q0 49 -18.5 67t-67.5 18h-150q-49 0 -67.5 -18t-18.5 -67z" />
    <glyph glyph-name="eacute" unicode="&#xe9;" horiz-adv-x="668" 
d="M380 700h131l-123 -124h-102zM220 528h228q88 0 127 -38.5t39 -127.5v-114h-439v-67q0 -49 18.5 -67t67.5 -18h168q37 0 52.5 15.5t15.5 52.5v23h117v-45q0 -73 -35 -107.5t-107 -34.5h-252q-88 0 -127 38.5t-39 127.5v196q0 89 39 127.5t127 38.5zM175 354v-28h322v28
q0 49 -18.5 67t-67.5 18h-150q-49 0 -67.5 -18t-18.5 -67z" />
    <glyph glyph-name="ecircumflex" unicode="&#xea;" horiz-adv-x="668" 
d="M429 576l-95 72l-95 -72h-92l126 124h122l126 -124h-92zM220 528h228q88 0 127 -38.5t39 -127.5v-114h-439v-67q0 -49 18.5 -67t67.5 -18h168q37 0 52.5 15.5t15.5 52.5v23h117v-45q0 -73 -35 -107.5t-107 -34.5h-252q-88 0 -127 38.5t-39 127.5v196q0 89 39 127.5
t127 38.5zM175 354v-28h322v28q0 49 -18.5 67t-67.5 18h-150q-49 0 -67.5 -18t-18.5 -67z" />
    <glyph glyph-name="edieresis" unicode="&#xeb;" horiz-adv-x="668" 
d="M182 676h96v-88h-96v88zM390 676h96v-88h-96v88zM220 528h228q88 0 127 -38.5t39 -127.5v-114h-439v-67q0 -49 18.5 -67t67.5 -18h168q37 0 52.5 15.5t15.5 52.5v23h117v-45q0 -73 -35 -107.5t-107 -34.5h-252q-88 0 -127 38.5t-39 127.5v196q0 89 39 127.5t127 38.5z
M175 354v-28h322v28q0 49 -18.5 67t-67.5 18h-150q-49 0 -67.5 -18t-18.5 -67z" />
    <glyph glyph-name="igrave" unicode="&#xec;" horiz-adv-x="258" 
d="M177 576h-101l-124 124h132zM190 0h-123v528h123v-528z" />
    <glyph glyph-name="iacute" unicode="&#xed;" horiz-adv-x="258" 
d="M306 700l-123 -124h-102l94 124h131zM190 0h-123v528h123v-528z" />
    <glyph glyph-name="icircumflex" unicode="&#xee;" horiz-adv-x="258" 
d="M34 576h-92l126 124h122l126 -124h-92l-95 72zM190 0h-123v528h123v-528z" />
    <glyph glyph-name="idieresis" unicode="&#xef;" horiz-adv-x="258" 
d="M73 588h-96v88h96v-88zM281 588h-96v88h96v-88zM190 0h-123v528h123v-528z" />
    <glyph glyph-name="eth" unicode="&#xf0;" horiz-adv-x="678" 
d="M391 700h47q96 0 141 -45t45 -141v-372q0 -73 -35 -107.5t-107 -34.5h-286q-72 0 -107 34.5t-35 107.5v143q0 74 34.5 108t107.5 34h204q74 0 103 -35v113q0 55 -22.5 77.5t-77.5 22.5h-59l-34 -69h-71l34 69h-139v95h186l29 60h71zM503 163v105q0 37 -15.5 52.5
t-52.5 15.5h-192q-37 0 -52.5 -15.5t-15.5 -52.5v-105q0 -38 15.5 -53t52.5 -15h192q37 0 52.5 15t15.5 53z" />
    <glyph glyph-name="ntilde" unicode="&#xf1;" horiz-adv-x="682" 
d="M229 636v-60h-73v74q0 50 50 50h87q23 0 35.5 -5t26.5 -21l38 -38q10 -10 25 -10h20q15 0 15 14v60h73v-74q0 -50 -50 -50h-87q-23 0 -35.5 5t-26.5 21l-38 38q-10 10 -25 10h-20q-15 0 -15 -14zM394 528h63q88 0 127 -38.5t39 -127.5v-362h-121v342q0 49 -18 67t-67 18
h-62q-86 0 -130 -34l-40 -30v-363h-122v528h100l14 -73l9 7q51 42 92 54t116 12z" />
    <glyph glyph-name="ograve" unicode="&#xf2;" horiz-adv-x="678" 
d="M387 576h-101l-124 124h132zM458 0h-238q-88 0 -127 38.5t-39 127.5v196q0 89 39 127.5t127 38.5h238q88 0 127 -38.5t39 -127.5v-196q0 -89 -39 -127.5t-127 -38.5zM260 98h158q49 0 66.5 18t17.5 67v162q0 49 -17.5 67t-66.5 18h-158q-49 0 -66.5 -18t-17.5 -67v-162
q0 -49 17.5 -67t66.5 -18z" />
    <glyph glyph-name="oacute" unicode="&#xf3;" horiz-adv-x="678" 
d="M516 700l-123 -124h-102l94 124h131zM458 0h-238q-88 0 -127 38.5t-39 127.5v196q0 89 39 127.5t127 38.5h238q88 0 127 -38.5t39 -127.5v-196q0 -89 -39 -127.5t-127 -38.5zM260 98h158q49 0 66.5 18t17.5 67v162q0 49 -17.5 67t-66.5 18h-158q-49 0 -66.5 -18
t-17.5 -67v-162q0 -49 17.5 -67t66.5 -18z" />
    <glyph glyph-name="ocircumflex" unicode="&#xf4;" horiz-adv-x="678" 
d="M244 576h-92l126 124h122l126 -124h-92l-95 72zM458 0h-238q-88 0 -127 38.5t-39 127.5v196q0 89 39 127.5t127 38.5h238q88 0 127 -38.5t39 -127.5v-196q0 -89 -39 -127.5t-127 -38.5zM260 98h158q49 0 66.5 18t17.5 67v162q0 49 -17.5 67t-66.5 18h-158
q-49 0 -66.5 -18t-17.5 -67v-162q0 -49 17.5 -67t66.5 -18z" />
    <glyph glyph-name="otilde" unicode="&#xf5;" horiz-adv-x="678" 
d="M227 576h-73v74q0 50 50 50h87q23 0 35.5 -5t26.5 -21l38 -38q10 -10 25 -10h20q15 0 15 14v60h73v-74q0 -50 -50 -50h-87q-23 0 -35.5 5t-26.5 21l-38 38q-10 10 -25 10h-20q-15 0 -15 -14v-60zM458 0h-238q-88 0 -127 38.5t-39 127.5v196q0 89 39 127.5t127 38.5h238
q88 0 127 -38.5t39 -127.5v-196q0 -89 -39 -127.5t-127 -38.5zM260 98h158q49 0 66.5 18t17.5 67v162q0 49 -17.5 67t-66.5 18h-158q-49 0 -66.5 -18t-17.5 -67v-162q0 -49 17.5 -67t66.5 -18z" />
    <glyph glyph-name="odieresis" unicode="&#xf6;" horiz-adv-x="678" 
d="M283 588h-96v88h96v-88zM491 588h-96v88h96v-88zM458 0h-238q-88 0 -127 38.5t-39 127.5v196q0 89 39 127.5t127 38.5h238q88 0 127 -38.5t39 -127.5v-196q0 -89 -39 -127.5t-127 -38.5zM260 98h158q49 0 66.5 18t17.5 67v162q0 49 -17.5 67t-66.5 18h-158
q-49 0 -66.5 -18t-17.5 -67v-162q0 -49 17.5 -67t66.5 -18z" />
    <glyph glyph-name="divide" unicode="&#xf7;" 
d="M450 540h-148v112h148v-112zM68 298v104h616v-104h-616zM450 48h-148v112h148v-112z" />
    <glyph glyph-name="oslash" unicode="&#xf8;" horiz-adv-x="678" 
d="M654 564l-68 -75q38 -40 38 -127v-196q0 -89 -39 -127.5t-127 -38.5h-238q-43 0 -73 9l-41 -45h-82l68 75q-38 40 -38 127v196q0 89 39 127.5t127 38.5h238q43 0 73 -9l41 45h82zM164 353v-178q0 -35 7 -50l285 312q-5 1 -26 1h-182q-49 0 -66.5 -18t-17.5 -67zM514 175
v178q0 35 -7 50l-285 -312q5 -1 26 -1h182q49 0 66.5 18t17.5 67z" />
    <glyph glyph-name="ugrave" unicode="&#xf9;" horiz-adv-x="682" 
d="M293 700l93 -124h-101l-124 124h132zM497 528h122v-528h-100l-14 73l-9 -7q-51 -42 -91 -54q-41 -12 -117 -12h-63q-88 0 -127 38.5t-39 127.5v362h121v-342q0 -49 18 -67t67 -18h62q86 0 130 34l40 30v363z" />
    <glyph glyph-name="uacute" unicode="&#xfa;" horiz-adv-x="682" 
d="M384 700h131l-123 -124h-102zM497 528h122v-528h-100l-14 73l-9 -7q-51 -42 -91 -54q-41 -12 -117 -12h-63q-88 0 -127 38.5t-39 127.5v362h121v-342q0 -49 18 -67t67 -18h62q86 0 130 34l40 30v363z" />
    <glyph glyph-name="ucircumflex" unicode="&#xfb;" horiz-adv-x="682" 
d="M433 576l-95 72l-95 -72h-92l126 124h122l126 -124h-92zM497 528h122v-528h-100l-14 73l-9 -7q-51 -42 -91 -54q-41 -12 -117 -12h-63q-88 0 -127 38.5t-39 127.5v362h121v-342q0 -49 18 -67t67 -18h62q86 0 130 34l40 30v363z" />
    <glyph glyph-name="udieresis" unicode="&#xfc;" horiz-adv-x="682" 
d="M186 676h96v-88h-96v88zM394 676h96v-88h-96v88zM497 528h122v-528h-100l-14 73l-9 -7q-51 -42 -91 -54q-41 -12 -117 -12h-63q-88 0 -127 38.5t-39 127.5v362h121v-342q0 -49 18 -67t67 -18h62q86 0 130 34l40 30v363z" />
    <glyph glyph-name="yacute" unicode="&#xfd;" horiz-adv-x="638" 
d="M365 700h131l-123 -124h-102zM320 125l182 403h130l-265 -540q-45 -91 -92 -120q-47 -28 -152 -28h-69v98h79q52 0 78 14.5t49 56.5l-254 519h135z" />
    <glyph glyph-name="thorn" unicode="&#xfe;" horiz-adv-x="687" 
d="M394 528h73q88 0 127 -38.5t39 -127.5v-196q0 -89 -39 -127.5t-127 -38.5h-73q-76 0 -116 12q-41 12 -92 54l-1 1v-227h-122v860h122v-239l1 1q51 42 92 54t116 12zM512 183v162q0 49 -18 67t-67 18h-72q-83 0 -130 -35l-40 -30v-202l40 -30q47 -35 130 -35h72
q49 0 67 18t18 67z" />
    <glyph glyph-name="ydieresis" unicode="&#xff;" horiz-adv-x="638" 
d="M167 676h96v-88h-96v88zM375 676h96v-88h-96v88zM320 125l182 403h130l-265 -540q-45 -91 -92 -120q-47 -28 -152 -28h-69v98h79q52 0 78 14.5t49 56.5l-254 519h135z" />
    <glyph glyph-name="Amacron" unicode="&#x100;" horiz-adv-x="799" 
d="M206 844h392v-66h-392v66zM798 0h-142l-68 155h-379l-67 -155h-136l326 700h141zM399 590l-147 -338h294z" />
    <glyph glyph-name="amacron" unicode="&#x101;" horiz-adv-x="673" 
d="M149 672h392v-66h-392v66zM220 528h228q88 0 127 -38.5t39 -127.5v-362h-99l-14 71l-17 -13q-47 -38 -80 -48t-105 -10h-121q-124 0 -124 124v55q0 124 124 124h315v52q0 48 -18.5 66t-67.5 18h-144q-37 0 -52.5 -15t-15.5 -53v-19h-117v34q0 73 35 107.5t107 34.5z
M447 114l46 34v83h-258q-34 0 -47 -13.5t-13 -46.5v-28q0 -34 13 -47t47 -13h102q67 0 110 31z" />
    <glyph glyph-name="Abreve" unicode="&#x102;" horiz-adv-x="799" 
d="M514 748h-224q-73 0 -73 73v51h86v-36q0 -30 30 -30h138q30 0 30 30v36h86v-51q0 -73 -73 -73zM798 0h-142l-68 155h-379l-67 -155h-136l326 700h141zM399 590l-147 -338h294z" />
    <glyph glyph-name="abreve" unicode="&#x103;" horiz-adv-x="673" 
d="M457 576h-224q-73 0 -73 73v51h86v-36q0 -30 30 -30h138q30 0 30 30v36h86v-51q0 -73 -73 -73zM220 528h228q88 0 127 -38.5t39 -127.5v-362h-99l-14 71l-17 -13q-47 -38 -80 -48t-105 -10h-121q-124 0 -124 124v55q0 124 124 124h315v52q0 48 -18.5 66t-67.5 18h-144
q-37 0 -52.5 -15t-15.5 -53v-19h-117v34q0 73 35 107.5t107 34.5zM447 114l46 34v83h-258q-34 0 -47 -13.5t-13 -46.5v-28q0 -34 13 -47t47 -13h102q67 0 110 31z" />
    <glyph glyph-name="Aogonek" unicode="&#x104;" horiz-adv-x="799" 
d="M709 -90h113v-70h-142q-42 0 -61 19t-19 61v15q0 33 8.5 49.5t37.5 36.5h1l-59 134h-379l-67 -155h-136l326 700h141l325 -700h-84l-14 -9q-22 -13 -22 -37v-13q0 -17 7 -24t24 -7zM399 590l-147 -338h294z" />
    <glyph glyph-name="aogonek" unicode="&#x105;" horiz-adv-x="673" 
d="M562 -90h89v-70h-118q-41 0 -60.5 19t-19.5 61v15q0 33 8.5 49.5t37.5 36.5l11 6l-9 44l-17 -13q-47 -38 -80 -48t-105 -10h-121q-124 0 -124 124v55q0 124 124 124h315v52q0 48 -18.5 66t-67.5 18h-144q-37 0 -52.5 -15t-15.5 -53v-19h-117v34q0 73 35 107.5t107 34.5
h228q88 0 127 -38.5t39 -127.5v-362h-47l-14 -9q-22 -13 -22 -37v-13q0 -17 7 -24t24 -7zM447 114l46 34v83h-258q-34 0 -47 -13.5t-13 -46.5v-28q0 -34 13 -47t47 -13h102q67 0 110 31z" />
    <glyph glyph-name="Cacute" unicode="&#x106;" horiz-adv-x="772" 
d="M563 872l-123 -124h-102l94 124h131zM535 0h-294q-96 0 -141 45t-45 141v328q0 96 45 141t141 45h294q96 0 141 -45t45 -141v-74h-124v52q0 55 -22.5 77.5t-77.5 22.5h-214q-55 0 -77.5 -22.5t-22.5 -77.5v-284q0 -55 22.5 -77.5t77.5 -22.5h214q55 0 77.5 22.5
t22.5 77.5v61h124v-83q0 -96 -45 -141t-141 -45z" />
    <glyph glyph-name="cacute" unicode="&#x107;" horiz-adv-x="654" 
d="M504 700l-123 -124h-102l94 124h131zM54 166v196q0 89 39 127.5t127 38.5h214q88 0 127 -38.5t39 -127.5v-41h-118v24q0 49 -17.5 67t-66.5 18h-138q-49 0 -66.5 -18t-17.5 -67v-162q0 -49 17.5 -67t66.5 -18h138q49 0 66.5 18t17.5 67v32h118v-49q0 -89 -39 -127.5
t-127 -38.5h-214q-88 0 -127 38.5t-39 127.5z" />
    <glyph glyph-name="Ccircumflex" unicode="&#x108;" horiz-adv-x="772" 
d="M291 748h-92l126 124h122l126 -124h-92l-95 72zM535 0h-294q-96 0 -141 45t-45 141v328q0 96 45 141t141 45h294q96 0 141 -45t45 -141v-74h-124v52q0 55 -22.5 77.5t-77.5 22.5h-214q-55 0 -77.5 -22.5t-22.5 -77.5v-284q0 -55 22.5 -77.5t77.5 -22.5h214
q55 0 77.5 22.5t22.5 77.5v61h124v-83q0 -96 -45 -141t-141 -45z" />
    <glyph glyph-name="ccircumflex" unicode="&#x109;" horiz-adv-x="654" 
d="M232 576h-92l126 124h122l126 -124h-92l-95 72zM54 166v196q0 89 39 127.5t127 38.5h214q88 0 127 -38.5t39 -127.5v-41h-118v24q0 49 -17.5 67t-66.5 18h-138q-49 0 -66.5 -18t-17.5 -67v-162q0 -49 17.5 -67t66.5 -18h138q49 0 66.5 18t17.5 67v32h118v-49
q0 -89 -39 -127.5t-127 -38.5h-214q-88 0 -127 38.5t-39 127.5z" />
    <glyph glyph-name="Cdotaccent" unicode="&#x10a;" horiz-adv-x="772" 
d="M447 760h-123v88h123v-88zM535 0h-294q-96 0 -141 45t-45 141v328q0 96 45 141t141 45h294q96 0 141 -45t45 -141v-74h-124v52q0 55 -22.5 77.5t-77.5 22.5h-214q-55 0 -77.5 -22.5t-22.5 -77.5v-284q0 -55 22.5 -77.5t77.5 -22.5h214q55 0 77.5 22.5t22.5 77.5v61h124
v-83q0 -96 -45 -141t-141 -45z" />
    <glyph glyph-name="cdotaccent" unicode="&#x10b;" horiz-adv-x="654" 
d="M388 588h-123v88h123v-88zM54 166v196q0 89 39 127.5t127 38.5h214q88 0 127 -38.5t39 -127.5v-41h-118v24q0 49 -17.5 67t-66.5 18h-138q-49 0 -66.5 -18t-17.5 -67v-162q0 -49 17.5 -67t66.5 -18h138q49 0 66.5 18t17.5 67v32h118v-49q0 -89 -39 -127.5t-127 -38.5
h-214q-88 0 -127 38.5t-39 127.5z" />
    <glyph glyph-name="Ccaron" unicode="&#x10c;" horiz-adv-x="772" 
d="M447 748h-122l-126 124h92l95 -72l95 72h92zM535 0h-294q-96 0 -141 45t-45 141v328q0 96 45 141t141 45h294q96 0 141 -45t45 -141v-74h-124v52q0 55 -22.5 77.5t-77.5 22.5h-214q-55 0 -77.5 -22.5t-22.5 -77.5v-284q0 -55 22.5 -77.5t77.5 -22.5h214q55 0 77.5 22.5
t22.5 77.5v61h124v-83q0 -96 -45 -141t-141 -45z" />
    <glyph glyph-name="ccaron" unicode="&#x10d;" horiz-adv-x="654" 
d="M388 576h-122l-126 124h92l95 -72l95 72h92zM54 166v196q0 89 39 127.5t127 38.5h214q88 0 127 -38.5t39 -127.5v-41h-118v24q0 49 -17.5 67t-66.5 18h-138q-49 0 -66.5 -18t-17.5 -67v-162q0 -49 17.5 -67t66.5 -18h138q49 0 66.5 18t17.5 67v32h118v-49
q0 -89 -39 -127.5t-127 -38.5h-214q-88 0 -127 38.5t-39 127.5z" />
    <glyph glyph-name="Dcaron" unicode="&#x10e;" horiz-adv-x="799" 
d="M460 748h-122l-126 124h92l95 -72l95 72h92zM514 0h-450v700h450q112 0 171 -58.5t59 -171.5v-240q0 -113 -59 -171.5t-171 -58.5zM192 590v-480h296q128 0 128 128v224q0 128 -128 128h-296z" />
    <glyph glyph-name="dcaron" unicode="&#x10f;" horiz-adv-x="806" 
d="M501 462l1 -1v239h122v-700h-100l-14 73l-9 -7q-51 -42 -91 -54t-116 -12h-74q-88 0 -127 38.5t-39 127.5v196q0 89 39 127.5t127 38.5h74q76 0 116 -12t91 -54zM670 604v96h124v-49q0 -39 -20 -77l-35 -70h-65l41 100h-45zM463 133l39 30v202l-39 30q-49 35 -131 35h-72
q-49 0 -66.5 -18t-17.5 -67v-162q0 -49 17.5 -67t66.5 -18h72q82 0 131 35z" />
    <glyph glyph-name="Dcroat" unicode="&#x110;" horiz-adv-x="859" 
d="M124 700h450q112 0 171 -58.5t59 -171.5v-240q0 -113 -59 -171.5t-171 -58.5h-450v310h-92v80h92v310zM676 238v224q0 128 -128 128h-296v-200h226v-80h-226v-200h296q128 0 128 128z" />
    <glyph glyph-name="dslash" unicode="&#x111;" horiz-adv-x="728" 
d="M624 641h82v-62h-82v-579h-100l-14 73l-9 -7q-51 -42 -91 -54t-116 -12h-74q-88 0 -127 38.5t-39 127.5v196q0 89 39 127.5t127 38.5h74q76 0 116 -12t91 -54l1 -1v118h-188v62h188v59h122v-59zM463 133l39 30v202l-39 30q-49 35 -131 35h-72q-49 0 -66.5 -18t-17.5 -67
v-162q0 -49 17.5 -67t66.5 -18h72q82 0 131 35z" />
    <glyph glyph-name="Emacron" unicode="&#x112;" horiz-adv-x="678" 
d="M143 844h392v-66h-392v66zM192 314v-207h454v-107h-582v700h572v-107h-444v-180h404v-99h-404z" />
    <glyph glyph-name="emacron" unicode="&#x113;" horiz-adv-x="668" 
d="M138 672h392v-66h-392v66zM220 528h228q88 0 127 -38.5t39 -127.5v-114h-439v-67q0 -49 18.5 -67t67.5 -18h168q37 0 52.5 15.5t15.5 52.5v23h117v-45q0 -73 -35 -107.5t-107 -34.5h-252q-88 0 -127 38.5t-39 127.5v196q0 89 39 127.5t127 38.5zM175 354v-28h322v28
q0 49 -18.5 67t-67.5 18h-150q-49 0 -67.5 -18t-18.5 -67z" />
    <glyph glyph-name="Ebreve" unicode="&#x114;" horiz-adv-x="678" 
d="M451 748h-224q-73 0 -73 73v51h86v-36q0 -30 30 -30h138q30 0 30 30v36h86v-51q0 -73 -73 -73zM192 314v-207h454v-107h-582v700h572v-107h-444v-180h404v-99h-404z" />
    <glyph glyph-name="ebreve" unicode="&#x115;" horiz-adv-x="668" 
d="M446 576h-224q-73 0 -73 73v51h86v-36q0 -30 30 -30h138q30 0 30 30v36h86v-51q0 -73 -73 -73zM220 528h228q88 0 127 -38.5t39 -127.5v-114h-439v-67q0 -49 18.5 -67t67.5 -18h168q37 0 52.5 15.5t15.5 52.5v23h117v-45q0 -73 -35 -107.5t-107 -34.5h-252
q-88 0 -127 38.5t-39 127.5v196q0 89 39 127.5t127 38.5zM175 354v-28h322v28q0 49 -18.5 67t-67.5 18h-150q-49 0 -67.5 -18t-18.5 -67z" />
    <glyph glyph-name="Edotaccent" unicode="&#x116;" horiz-adv-x="678" 
d="M277 848h123v-88h-123v88zM192 314v-207h454v-107h-582v700h572v-107h-444v-180h404v-99h-404z" />
    <glyph glyph-name="edotaccent" unicode="&#x117;" horiz-adv-x="668" 
d="M272 676h123v-88h-123v88zM220 528h228q88 0 127 -38.5t39 -127.5v-114h-439v-67q0 -49 18.5 -67t67.5 -18h168q37 0 52.5 15.5t15.5 52.5v23h117v-45q0 -73 -35 -107.5t-107 -34.5h-252q-88 0 -127 38.5t-39 127.5v196q0 89 39 127.5t127 38.5zM175 354v-28h322v28
q0 49 -18.5 67t-67.5 18h-150q-49 0 -67.5 -18t-18.5 -67z" />
    <glyph glyph-name="Eogonek" unicode="&#x118;" horiz-adv-x="678" 
d="M528 0l-14 -9q-22 -13 -22 -37v-13q0 -17 7 -24t24 -7h113v-70h-142q-42 0 -61 19t-19 61v15q0 43 20 65h-370v700h572v-107h-444v-180h404v-99h-404v-207h454v-107h-118z" />
    <glyph glyph-name="eogonek" unicode="&#x119;" horiz-adv-x="668" 
d="M220 528h228q88 0 127 -38.5t39 -127.5v-114h-439v-67q0 -49 18.5 -67t67.5 -18h168q37 0 52.5 15.5t15.5 52.5v23h117v-45q0 -73 -35 -107.5t-107 -34.5h-82l-14 -9q-22 -13 -22 -37v-13q0 -17 7 -24t24 -7h113v-70h-142q-42 0 -61 19t-19 61v15q0 43 20 65h-76
q-88 0 -127 38.5t-39 127.5v196q0 89 39 127.5t127 38.5zM175 354v-28h322v28q0 49 -18.5 67t-67.5 18h-150q-49 0 -67.5 -18t-18.5 -67z" />
    <glyph glyph-name="Ecaron" unicode="&#x11a;" horiz-adv-x="678" 
d="M526 872l-126 -124h-122l-126 124h92l95 -72l95 72h92zM192 314v-207h454v-107h-582v700h572v-107h-444v-180h404v-99h-404z" />
    <glyph glyph-name="ecaron" unicode="&#x11b;" horiz-adv-x="668" 
d="M521 700l-126 -124h-122l-126 124h92l95 -72l95 72h92zM220 528h228q88 0 127 -38.5t39 -127.5v-114h-439v-67q0 -49 18.5 -67t67.5 -18h168q37 0 52.5 15.5t15.5 52.5v23h117v-45q0 -73 -35 -107.5t-107 -34.5h-252q-88 0 -127 38.5t-39 127.5v196q0 89 39 127.5
t127 38.5zM175 354v-28h322v28q0 49 -18.5 67t-67.5 18h-150q-49 0 -67.5 -18t-18.5 -67z" />
    <glyph glyph-name="Gcircumflex" unicode="&#x11c;" horiz-adv-x="799" 
d="M305 748h-92l126 124h122l126 -124h-92l-95 72zM55 186v328q0 96 45 141t141 45h318q96 0 141 -45t45 -141v-42h-128v21q0 55 -22.5 77.5t-77.5 22.5h-234q-55 0 -77.5 -22.5t-22.5 -77.5v-289q0 -55 22.5 -77.5t77.5 -22.5h238q55 0 77.5 22.5t22.5 77.5v72h-204v99h328
v-189q0 -96 -45 -141t-141 -45h-318q-96 0 -141 45t-45 141z" />
    <glyph glyph-name="gcircumflex" unicode="&#x11d;" horiz-adv-x="687" 
d="M438 576l-95 72l-95 -72h-92l126 124h122l126 -124h-92zM511 455l14 73h99v-502q0 -96 -45 -141t-141 -45h-364v92h329q55 0 77.5 22.5t22.5 77.5v73l-2 -2q-49 -42 -92 -54q-42 -12 -116 -12h-73q-88 0 -127 38.5t-39 127.5v159q0 89 39 127.5t127 38.5h73q74 0 116 -12
t92 -53zM463 168l40 29v171l-40 30q-44 34 -131 34h-72q-49 0 -67 -18t-18 -67v-129q0 -49 18 -67t67 -18h72q84 0 131 35z" />
    <glyph glyph-name="Gbreve" unicode="&#x11e;" horiz-adv-x="799" 
d="M512 748h-224q-73 0 -73 73v51h86v-36q0 -30 30 -30h138q30 0 30 30v36h86v-51q0 -73 -73 -73zM55 186v328q0 96 45 141t141 45h318q96 0 141 -45t45 -141v-42h-128v21q0 55 -22.5 77.5t-77.5 22.5h-234q-55 0 -77.5 -22.5t-22.5 -77.5v-289q0 -55 22.5 -77.5t77.5 -22.5
h238q55 0 77.5 22.5t22.5 77.5v72h-204v99h328v-189q0 -96 -45 -141t-141 -45h-318q-96 0 -141 45t-45 141z" />
    <glyph glyph-name="gbreve" unicode="&#x11f;" horiz-adv-x="687" 
d="M455 576h-224q-73 0 -73 73v51h86v-36q0 -30 30 -30h138q30 0 30 30v36h86v-51q0 -73 -73 -73zM511 455l14 73h99v-502q0 -96 -45 -141t-141 -45h-364v92h329q55 0 77.5 22.5t22.5 77.5v73l-2 -2q-49 -42 -92 -54q-42 -12 -116 -12h-73q-88 0 -127 38.5t-39 127.5v159
q0 89 39 127.5t127 38.5h73q74 0 116 -12t92 -53zM463 168l40 29v171l-40 30q-44 34 -131 34h-72q-49 0 -67 -18t-18 -67v-129q0 -49 18 -67t67 -18h72q84 0 131 35z" />
    <glyph glyph-name="Gdotaccent" unicode="&#x120;" horiz-adv-x="799" 
d="M461 760h-123v88h123v-88zM55 186v328q0 96 45 141t141 45h318q96 0 141 -45t45 -141v-42h-128v21q0 55 -22.5 77.5t-77.5 22.5h-234q-55 0 -77.5 -22.5t-22.5 -77.5v-289q0 -55 22.5 -77.5t77.5 -22.5h238q55 0 77.5 22.5t22.5 77.5v72h-204v99h328v-189q0 -96 -45 -141
t-141 -45h-318q-96 0 -141 45t-45 141z" />
    <glyph glyph-name="gdotaccent" unicode="&#x121;" horiz-adv-x="687" 
d="M281 676h123v-88h-123v88zM511 455l14 73h99v-502q0 -96 -45 -141t-141 -45h-364v92h329q55 0 77.5 22.5t22.5 77.5v73l-2 -2q-49 -42 -92 -54q-42 -12 -116 -12h-73q-88 0 -127 38.5t-39 127.5v159q0 89 39 127.5t127 38.5h73q74 0 116 -12t92 -53zM463 168l40 29v171
l-40 30q-44 34 -131 34h-72q-49 0 -67 -18t-18 -67v-129q0 -49 18 -67t67 -18h72q84 0 131 35z" />
    <glyph glyph-name="Gcommaaccent" unicode="&#x122;" horiz-adv-x="799" 
d="M55 186v328q0 96 45 141t141 45h318q96 0 141 -45t45 -141v-42h-128v21q0 55 -22.5 77.5t-77.5 22.5h-234q-55 0 -77.5 -22.5t-22.5 -77.5v-289q0 -55 22.5 -77.5t77.5 -22.5h238q55 0 77.5 22.5t22.5 77.5v72h-204v99h328v-189q0 -96 -45 -141t-141 -45h-318
q-96 0 -141 45t-45 141zM407 -196h-65l41 82h-45v84h124v-35q0 -25 -4 -39t-18 -35z" />
    <glyph glyph-name="gcommaaccent" unicode="&#x123;" horiz-adv-x="687" 
d="M360 660h45v-84h-124v35q0 25 4 39t18 35l33 57h65zM511 455l14 73h99v-502q0 -96 -45 -141t-141 -45h-364v92h329q55 0 77.5 22.5t22.5 77.5v73l-2 -2q-49 -42 -92 -54q-42 -12 -116 -12h-73q-88 0 -127 38.5t-39 127.5v159q0 89 39 127.5t127 38.5h73q74 0 116 -12
t92 -53zM463 168l40 29v171l-40 30q-44 34 -131 34h-72q-49 0 -67 -18t-18 -67v-129q0 -49 18 -67t67 -18h72q84 0 131 35z" />
    <glyph glyph-name="Hcircumflex" unicode="&#x124;" horiz-adv-x="788" 
d="M489 748l-95 72l-95 -72h-92l126 124h122l126 -124h-92zM596 423v277h128v-700h-128v309h-404v-309h-128v700h128v-277h404z" />
    <glyph glyph-name="hcircumflex" unicode="&#x125;" horiz-adv-x="682" 
d="M311 748h-92l-95 72l-95 -72h-92l126 124h122zM398 528h59q88 0 127 -38.5t39 -127.5v-362h-121v342q0 49 -18 67t-67 18h-62q-86 0 -130 -34l-40 -30v-363h-122v700h122v-242l5 4q51 42 92 54q40 12 116 12z" />
    <glyph glyph-name="Hbar" unicode="&#x126;" horiz-adv-x="908" 
d="M784 600h92v-73h-92v-527h-128v309h-404v-309h-128v527h-92v73h92v100h128v-100h404v100h128v-100zM252 423h404v104h-404v-104z" />
    <glyph glyph-name="hbar" unicode="&#x127;" horiz-adv-x="723" 
d="M445 528h59q88 0 127 -38.5t39 -127.5v-362h-121v342q0 49 -18 67t-67 18h-62q-86 0 -130 -34l-40 -30v-363h-122v579h-88v62h88v59h122v-59h182v-62h-182v-121l5 4q51 42 92 54q40 12 116 12z" />
    <glyph glyph-name="Itilde" unicode="&#x128;" horiz-adv-x="268" 
d="M22 748h-73v74q0 50 50 50h87q23 0 35.5 -5t26.5 -21l38 -38q10 -10 25 -10h20q15 0 15 14v60h73v-74q0 -50 -50 -50h-87q-23 0 -35.5 5t-26.5 21l-38 38q-10 10 -25 10h-20q-15 0 -15 -14v-60zM69 0v700h130v-700h-130z" />
    <glyph glyph-name="itilde" unicode="&#x129;" horiz-adv-x="258" 
d="M17 576h-73v74q0 50 50 50h87q23 0 35.5 -5t26.5 -21l38 -38q10 -10 25 -10h20q15 0 15 14v60h73v-74q0 -50 -50 -50h-87q-23 0 -35.5 5t-26.5 21l-38 38q-10 10 -25 10h-20q-15 0 -15 -14v-60zM190 0h-123v528h123v-528z" />
    <glyph glyph-name="Imacron" unicode="&#x12a;" horiz-adv-x="268" 
d="M330 778h-392v66h392v-66zM69 0v700h130v-700h-130z" />
    <glyph glyph-name="imacron" unicode="&#x12b;" horiz-adv-x="258" 
d="M325 606h-392v66h392v-66zM190 0h-123v528h123v-528z" />
    <glyph glyph-name="Ibreve" unicode="&#x12c;" horiz-adv-x="268" 
d="M246 748h-224q-73 0 -73 73v51h86v-36q0 -30 30 -30h138q30 0 30 30v36h86v-51q0 -73 -73 -73zM69 0v700h130v-700h-130z" />
    <glyph glyph-name="ibreve" unicode="&#x12d;" horiz-adv-x="258" 
d="M241 576h-224q-73 0 -73 73v51h86v-36q0 -30 30 -30h138q30 0 30 30v36h86v-51q0 -73 -73 -73zM190 0h-123v528h123v-528z" />
    <glyph glyph-name="Iogonek" unicode="&#x12e;" horiz-adv-x="268" 
d="M123 -90h113v-70h-142q-42 0 -61 19t-19 61v15q0 33 8.5 49.5t37.5 36.5l9 5v674h130v-700h-71l-14 -9q-22 -13 -22 -37v-13q0 -17 7 -24t24 -7z" />
    <glyph glyph-name="iogonek" unicode="&#x12f;" horiz-adv-x="258" 
d="M67 676h123v-88h-123v88zM110 -90h113v-70h-142q-42 0 -61 19t-19 61v15q0 33 8.5 49.5t37.5 36.5l20 11v496h123v-528h-75l-14 -9q-22 -13 -22 -37v-13q0 -17 7 -24t24 -7z" />
    <glyph glyph-name="Idot" unicode="&#x130;" horiz-adv-x="268" 
d="M199 760h-130v88h130v-88zM69 0v700h130v-700h-130z" />
    <glyph glyph-name="dotlessi" unicode="&#x131;" horiz-adv-x="258" 
d="M190 0h-123v528h123v-528z" />
    <glyph glyph-name="IJ" unicode="&#x132;" horiz-adv-x="972" 
d="M69 0v700h130v-700h-130zM730 0h-244q-96 0 -141 45t-45 141v82h124v-60q0 -55 22.5 -77.5t77.5 -22.5h164q55 0 77.5 22.5t22.5 77.5v492h128v-514q0 -96 -45 -141t-141 -45z" />
    <glyph glyph-name="ij" unicode="&#x133;" horiz-adv-x="514" 
d="M191 601h-124v99h124v-99zM448 601h-124v99h124v-99zM191 0h-124v528h124v-528zM306 -160h-71v95h21q38 0 53 15t15 53v525h124v-546q0 -73 -35 -107.5t-107 -34.5z" />
    <glyph glyph-name="Jcircumflex" unicode="&#x134;" horiz-adv-x="704" 
d="M489 748h-92l126 124h122l126 -124h-92l-95 72zM462 0h-244q-96 0 -141 45t-45 141v82h124v-60q0 -55 22.5 -77.5t77.5 -22.5h164q55 0 77.5 22.5t22.5 77.5v492h128v-514q0 -96 -45 -141t-141 -45z" />
    <glyph glyph-name="jcircumflex" unicode="&#x135;" horiz-adv-x="258" 
d="M34 576h-92l126 124h122l126 -124h-92l-95 72zM48 -160h-70v94h21q37 0 52.5 15t15.5 53v526h123v-546q0 -74 -34.5 -108t-107.5 -34z" />
    <glyph glyph-name="Kcommaaccent" unicode="&#x136;" horiz-adv-x="750" 
d="M740 700l-389 -338l393 -362h-189l-363 346v-346h-128v700h128v-328l358 328h190zM349 -114h-45v84h124v-35q0 -25 -4 -39t-18 -35l-33 -57h-65z" />
    <glyph glyph-name="kcommaaccent" unicode="&#x137;" horiz-adv-x="644" 
d="M636 528l-307 -262l313 -266h-179l-278 250v-250h-122v700h122v-424l274 252h177zM305 -114h-45v84h124v-35q0 -25 -4 -39t-18 -35l-33 -57h-65z" />
    <glyph glyph-name="Lacute" unicode="&#x139;" horiz-adv-x="612" 
d="M174 872h131l-123 -124h-102zM192 700v-586h404v-114h-532v700h128z" />
    <glyph glyph-name="lacute" unicode="&#x13a;" horiz-adv-x="258" 
d="M306 872l-123 -124h-102l94 124h131zM190 0h-123v700h123v-700z" />
    <glyph glyph-name="Lcommaaccent" unicode="&#x13b;" horiz-adv-x="612" 
d="M192 700v-586h404v-114h-532v700h128zM289 -114h-45v84h124v-35q0 -25 -4 -39t-18 -35l-33 -57h-65z" />
    <glyph glyph-name="lcommaaccent" unicode="&#x13c;" horiz-adv-x="258" 
d="M190 0h-123v700h123v-700zM136 -196h-65l41 82h-45v84h124v-35q0 -25 -4 -39t-18 -35z" />
    <glyph glyph-name="Lcaron" unicode="&#x13d;" horiz-adv-x="612" 
d="M192 700v-586h404v-114h-532v700h128zM439 504h-65l41 100h-45v96h124v-49q0 -39 -20 -77z" />
    <glyph glyph-name="lcaron" unicode="&#x13e;" horiz-adv-x="378" 
d="M190 0h-123v700h123v-700zM312 504h-66l42 100h-46v96h124v-49q0 -39 -20 -77z" />
    <glyph glyph-name="Ldot" unicode="&#x13f;" horiz-adv-x="612" 
d="M192 700v-586h404v-114h-532v700h128zM346 482h148v-140h-148v140z" />
    <glyph glyph-name="ldot" unicode="&#x140;" horiz-adv-x="422" 
d="M190 0h-123v700h123v-700zM406 310h-148v140h148v-140z" />
    <glyph glyph-name="Lslash" unicode="&#x141;" horiz-adv-x="672" 
d="M252 347v-233h404v-114h-532v325l-92 -15v80l92 15v295h128v-273l262 43v-80z" />
    <glyph glyph-name="lslash" unicode="&#x142;" horiz-adv-x="343" 
d="M233 412l88 18v-80l-88 -18v-332h-123v308l-88 -18v80l88 18v312h123v-288z" />
    <glyph glyph-name="Nacute" unicode="&#x143;" horiz-adv-x="808" 
d="M446 872h131l-123 -124h-102zM620 192v508h124v-700h-102l-454 516v-516h-124v700h108z" />
    <glyph glyph-name="nacute" unicode="&#x144;" horiz-adv-x="682" 
d="M387 700h131l-123 -124h-102zM394 528h63q88 0 127 -38.5t39 -127.5v-362h-121v342q0 49 -18 67t-67 18h-62q-86 0 -130 -34l-40 -30v-363h-122v528h100l14 -73l9 7q51 42 92 54t116 12z" />
    <glyph glyph-name="Ncommaaccent" unicode="&#x145;" horiz-adv-x="808" 
d="M620 192v508h124v-700h-102l-454 516v-516h-124v700h108zM387 -114h-45v84h124v-35q0 -25 -4 -39t-18 -35l-33 -57h-65z" />
    <glyph glyph-name="ncommaaccent" unicode="&#x146;" horiz-adv-x="682" 
d="M394 528h63q88 0 127 -38.5t39 -127.5v-362h-121v342q0 49 -18 67t-67 18h-62q-86 0 -130 -34l-40 -30v-363h-122v528h100l14 -73l9 7q51 42 92 54t116 12zM324 -114h-45v84h124v-35q0 -25 -4 -39t-18 -35l-33 -57h-65z" />
    <glyph glyph-name="Ncaron" unicode="&#x147;" horiz-adv-x="808" 
d="M587 872l-126 -124h-122l-126 124h92l95 -72l95 72h92zM620 192v508h124v-700h-102l-454 516v-516h-124v700h108z" />
    <glyph glyph-name="ncaron" unicode="&#x148;" horiz-adv-x="682" 
d="M528 700l-126 -124h-122l-126 124h92l95 -72l95 72h92zM394 528h63q88 0 127 -38.5t39 -127.5v-362h-121v342q0 49 -18 67t-67 18h-62q-86 0 -130 -34l-40 -30v-363h-122v528h100l14 -73l9 7q51 42 92 54t116 12z" />
    <glyph glyph-name="Eng" unicode="&#x14a;" horiz-adv-x="808" 
d="M620 192v508h124v-684q0 -92 -42.5 -134t-133.5 -42h-124v94h86q51 0 70.5 19t19.5 71v1l-432 491v-516h-124v700h108z" />
    <glyph glyph-name="eng" unicode="&#x14b;" horiz-adv-x="670" 
d="M394 528h51q88 0 127 -38.5t39 -127.5v-380q0 -74 -34.5 -108t-107.5 -34h-71l2 94h22q38 0 53 15t15 53v340q0 49 -18 67t-67 18h-50q-86 0 -130 -34l-40 -30v-363h-122v528h100l14 -73l9 7q51 42 92 54t116 12z" />
    <glyph glyph-name="Omacron" unicode="&#x14c;" horiz-adv-x="800" 
d="M596 778h-392v66h392v-66zM559 0h-318q-96 0 -141 45t-45 141v328q0 96 45 141t141 45h318q96 0 141 -45t45 -141v-328q0 -96 -45 -141t-141 -45zM283 110h234q55 0 77.5 22.5t22.5 77.5v280q0 55 -22.5 77.5t-77.5 22.5h-234q-55 0 -77.5 -22t-22.5 -78v-280
q0 -56 22.5 -78t77.5 -22z" />
    <glyph glyph-name="omacron" unicode="&#x14d;" horiz-adv-x="678" 
d="M535 606h-392v66h392v-66zM458 0h-238q-88 0 -127 38.5t-39 127.5v196q0 89 39 127.5t127 38.5h238q88 0 127 -38.5t39 -127.5v-196q0 -89 -39 -127.5t-127 -38.5zM260 98h158q49 0 66.5 18t17.5 67v162q0 49 -17.5 67t-66.5 18h-158q-49 0 -66.5 -18t-17.5 -67v-162
q0 -49 17.5 -67t66.5 -18z" />
    <glyph glyph-name="Obreve" unicode="&#x14e;" horiz-adv-x="800" 
d="M512 748h-224q-73 0 -73 73v51h86v-36q0 -30 30 -30h138q30 0 30 30v36h86v-51q0 -73 -73 -73zM559 0h-318q-96 0 -141 45t-45 141v328q0 96 45 141t141 45h318q96 0 141 -45t45 -141v-328q0 -96 -45 -141t-141 -45zM283 110h234q55 0 77.5 22.5t22.5 77.5v280
q0 55 -22.5 77.5t-77.5 22.5h-234q-55 0 -77.5 -22t-22.5 -78v-280q0 -56 22.5 -78t77.5 -22z" />
    <glyph glyph-name="obreve" unicode="&#x14f;" horiz-adv-x="678" 
d="M451 576h-224q-73 0 -73 73v51h86v-36q0 -30 30 -30h138q30 0 30 30v36h86v-51q0 -73 -73 -73zM458 0h-238q-88 0 -127 38.5t-39 127.5v196q0 89 39 127.5t127 38.5h238q88 0 127 -38.5t39 -127.5v-196q0 -89 -39 -127.5t-127 -38.5zM260 98h158q49 0 66.5 18t17.5 67
v162q0 49 -17.5 67t-66.5 18h-158q-49 0 -66.5 -18t-17.5 -67v-162q0 -49 17.5 -67t66.5 -18z" />
    <glyph glyph-name="Ohungarumlaut" unicode="&#x150;" horiz-adv-x="800" 
d="M444 872l-110 -124h-100l84 124h126zM659 872l-109 -124h-101l84 124h126zM559 0h-318q-96 0 -141 45t-45 141v328q0 96 45 141t141 45h318q96 0 141 -45t45 -141v-328q0 -96 -45 -141t-141 -45zM283 110h234q55 0 77.5 22.5t22.5 77.5v280q0 55 -22.5 77.5t-77.5 22.5
h-234q-55 0 -77.5 -22t-22.5 -78v-280q0 -56 22.5 -78t77.5 -22z" />
    <glyph glyph-name="ohungarumlaut" unicode="&#x151;" horiz-adv-x="678" 
d="M383 700l-110 -124h-100l84 124h126zM598 700l-109 -124h-101l84 124h126zM458 0h-238q-88 0 -127 38.5t-39 127.5v196q0 89 39 127.5t127 38.5h238q88 0 127 -38.5t39 -127.5v-196q0 -89 -39 -127.5t-127 -38.5zM260 98h158q49 0 66.5 18t17.5 67v162q0 49 -17.5 67
t-66.5 18h-158q-49 0 -66.5 -18t-17.5 -67v-162q0 -49 17.5 -67t66.5 -18z" />
    <glyph glyph-name="OE" unicode="&#x152;" horiz-adv-x="1221" 
d="M735 314v-207h454v-107h-948q-96 0 -141 45t-45 141v328q0 96 45 141t141 45h938v-107h-444v-180h404v-99h-404zM283 109h324v482h-324q-55 0 -77.5 -22.5t-22.5 -77.5v-282q0 -55 22.5 -77.5t77.5 -22.5z" />
    <glyph glyph-name="oe" unicode="&#x153;" horiz-adv-x="1117" 
d="M692 528h205q88 0 127 -38.5t39 -127.5v-114h-439v-67q0 -49 18 -67t67 -18h168q37 0 52.5 15t15.5 53v23h118v-45q0 -73 -35 -107.5t-107 -34.5h-229q-98 0 -130 56q-33 -56 -131 -56h-211q-88 0 -127 38.5t-39 127.5v196q0 89 39 127.5t127 38.5h211q98 0 131 -56
q32 56 130 56zM624 354v-28h321v28q0 49 -18 67t-67 18h-151q-49 0 -67 -18t-18 -67zM502 183v162q0 49 -18 66.5t-67 17.5h-157q-49 0 -67 -17.5t-18 -66.5v-162q0 -49 18 -66.5t67 -17.5h157q49 0 67 17.5t18 66.5z" />
    <glyph glyph-name="Racute" unicode="&#x154;" horiz-adv-x="762" 
d="M427 872h131l-123 -124h-102zM541 270l193 -270h-143l-183 262h-216v-262h-128v700h474q88 0 127 -38.5t39 -127.5v-98q0 -88 -38 -126.5t-125 -39.5zM491 602h-299v-244h299q49 0 67 17.5t18 66.5v76q0 49 -18 66.5t-67 17.5z" />
    <glyph glyph-name="racute" unicode="&#x155;" horiz-adv-x="446" 
d="M273 700h131l-123 -124h-102zM390 528h40v-113h-75q-86 0 -130 -34l-40 -30v-351h-122v528h88l15 -78l16 12q51 42 92 54q40 12 116 12z" />
    <glyph glyph-name="Rcommaaccent" unicode="&#x156;" horiz-adv-x="762" 
d="M541 270l193 -270h-143l-183 262h-216v-262h-128v700h474q88 0 127 -38.5t39 -127.5v-98q0 -88 -38 -126.5t-125 -39.5zM491 602h-299v-244h299q49 0 67 17.5t18 66.5v76q0 49 -18 66.5t-67 17.5zM364 -114h-45v84h124v-35q0 -25 -4 -39t-18 -35l-33 -57h-65z" />
    <glyph glyph-name="rcommaaccent" unicode="&#x157;" horiz-adv-x="446" 
d="M390 528h40v-113h-75q-86 0 -130 -34l-40 -30v-351h-122v528h88l15 -78l16 12q51 42 92 54q40 12 116 12zM107 -114h-45v84h124v-35q0 -25 -4 -39t-18 -35l-33 -57h-65z" />
    <glyph glyph-name="Rcaron" unicode="&#x158;" horiz-adv-x="762" 
d="M568 872l-126 -124h-122l-126 124h92l95 -72l95 72h92zM541 270l193 -270h-143l-183 262h-216v-262h-128v700h474q88 0 127 -38.5t39 -127.5v-98q0 -88 -38 -126.5t-125 -39.5zM491 602h-299v-244h299q49 0 67 17.5t18 66.5v76q0 49 -18 66.5t-67 17.5z" />
    <glyph glyph-name="rcaron" unicode="&#x159;" horiz-adv-x="446" 
d="M414 700l-126 -124h-122l-126 124h92l95 -72l95 72h92zM390 528h40v-113h-75q-86 0 -130 -34l-40 -30v-351h-122v528h88l15 -78l16 12q51 42 92 54q40 12 116 12z" />
    <glyph glyph-name="Sacute" unicode="&#x15a;" horiz-adv-x="779" 
d="M567 872l-123 -124h-102l94 124h131zM55 142v63h124v-36q0 -38 15 -53t53 -15h282q37 0 52.5 15.5t15.5 52.5v57q0 36 -14.5 50t-53.5 18l-322 31q-76 6 -109 38.5t-33 103.5v91q0 73 34.5 107.5t107.5 34.5h362q72 0 107 -34.5t35 -107.5v-49h-124v22q0 37 -15.5 52.5
t-52.5 15.5h-258q-38 0 -53 -15t-15 -53v-34q0 -36 14.5 -50t53.5 -18l322 -30q76 -7 109 -39t33 -103v-115q0 -73 -35 -107.5t-107 -34.5h-386q-73 0 -107.5 34.5t-34.5 107.5z" />
    <glyph glyph-name="sacute" unicode="&#x15b;" horiz-adv-x="658" 
d="M506 700l-123 -124h-102l94 124h131zM54 116v50h117v-35q0 -24 10.5 -34t34.5 -10h222q24 0 34.5 10t10.5 34v42q0 23 -10.5 33t-34.5 12l-259 26q-115 10 -115 115v54q0 56 30 85.5t85 29.5h296q55 0 85 -30t30 -86v-45h-117v30q0 24 -10.5 34t-34.5 10h-198
q-24 0 -34.5 -10t-10.5 -34v-18q0 -23 10.5 -33t34.5 -12l259 -26q115 -10 115 -115v-78q0 -56 -30 -85.5t-85 -29.5h-320q-55 0 -85 30t-30 86z" />
    <glyph glyph-name="Scircumflex" unicode="&#x15c;" horiz-adv-x="779" 
d="M295 748h-92l126 124h122l126 -124h-92l-95 72zM55 142v63h124v-36q0 -38 15 -53t53 -15h282q37 0 52.5 15.5t15.5 52.5v57q0 36 -14.5 50t-53.5 18l-322 31q-76 6 -109 38.5t-33 103.5v91q0 73 34.5 107.5t107.5 34.5h362q72 0 107 -34.5t35 -107.5v-49h-124v22
q0 37 -15.5 52.5t-52.5 15.5h-258q-38 0 -53 -15t-15 -53v-34q0 -36 14.5 -50t53.5 -18l322 -30q76 -7 109 -39t33 -103v-115q0 -73 -35 -107.5t-107 -34.5h-386q-73 0 -107.5 34.5t-34.5 107.5z" />
    <glyph glyph-name="scircumflex" unicode="&#x15d;" horiz-adv-x="658" 
d="M234 576h-92l126 124h122l126 -124h-92l-95 72zM54 116v50h117v-35q0 -24 10.5 -34t34.5 -10h222q24 0 34.5 10t10.5 34v42q0 23 -10.5 33t-34.5 12l-259 26q-115 10 -115 115v54q0 56 30 85.5t85 29.5h296q55 0 85 -30t30 -86v-45h-117v30q0 24 -10.5 34t-34.5 10h-198
q-24 0 -34.5 -10t-10.5 -34v-18q0 -23 10.5 -33t34.5 -12l259 -26q115 -10 115 -115v-78q0 -56 -30 -85.5t-85 -29.5h-320q-55 0 -85 30t-30 86z" />
    <glyph glyph-name="Scedilla" unicode="&#x15e;" horiz-adv-x="779" 
d="M261 429l322 -30q76 -7 109 -39t33 -103v-115q0 -73 -35 -107.5t-107 -34.5h-178l-11 -30h70q28 0 40 -12t12 -40v-26q0 -28 -12 -40t-40 -12h-164v47h139q13 0 13 13v13q0 13 -13 13h-103v22l19 52h-158q-73 0 -107.5 34.5t-34.5 107.5v63h124v-36q0 -38 15 -53t53 -15
h282q37 0 52.5 15.5t15.5 52.5v57q0 36 -14.5 50t-53.5 18l-322 31q-76 6 -109 38.5t-33 103.5v91q0 73 34.5 107.5t107.5 34.5h362q72 0 107 -34.5t35 -107.5v-49h-124v22q0 37 -15.5 52.5t-52.5 15.5h-258q-38 0 -53 -15t-15 -53v-34q0 -36 14.5 -50t53.5 -18z" />
    <glyph glyph-name="scedilla" unicode="&#x15f;" horiz-adv-x="658" 
d="M230 334l259 -26q115 -10 115 -115v-78q0 -56 -30 -85.5t-85 -29.5h-145l-11 -30h70q28 0 40 -12t12 -40v-26q0 -28 -12 -40t-40 -12h-164v47h139q13 0 13 13v13q0 13 -13 13h-103v22l19 52h-125q-55 0 -85 30t-30 86v50h117v-35q0 -24 10.5 -34t34.5 -10h222
q24 0 34.5 10t10.5 34v42q0 23 -10.5 33t-34.5 12l-259 26q-115 10 -115 115v54q0 56 30 85.5t85 29.5h296q55 0 85 -30t30 -86v-45h-117v30q0 24 -10.5 34t-34.5 10h-198q-24 0 -34.5 -10t-10.5 -34v-18q0 -23 10.5 -33t34.5 -12z" />
    <glyph glyph-name="Scaron" unicode="&#x160;" horiz-adv-x="779" 
d="M451 748h-122l-126 124h92l95 -72l95 72h92zM55 142v63h124v-36q0 -38 15 -53t53 -15h282q37 0 52.5 15.5t15.5 52.5v57q0 36 -14.5 50t-53.5 18l-322 31q-76 6 -109 38.5t-33 103.5v91q0 73 34.5 107.5t107.5 34.5h362q72 0 107 -34.5t35 -107.5v-49h-124v22
q0 37 -15.5 52.5t-52.5 15.5h-258q-38 0 -53 -15t-15 -53v-34q0 -36 14.5 -50t53.5 -18l322 -30q76 -7 109 -39t33 -103v-115q0 -73 -35 -107.5t-107 -34.5h-386q-73 0 -107.5 34.5t-34.5 107.5z" />
    <glyph glyph-name="scaron" unicode="&#x161;" horiz-adv-x="658" 
d="M390 576h-122l-126 124h92l95 -72l95 72h92zM54 116v50h117v-35q0 -24 10.5 -34t34.5 -10h222q24 0 34.5 10t10.5 34v42q0 23 -10.5 33t-34.5 12l-259 26q-115 10 -115 115v54q0 56 30 85.5t85 29.5h296q55 0 85 -30t30 -86v-45h-117v30q0 24 -10.5 34t-34.5 10h-198
q-24 0 -34.5 -10t-10.5 -34v-18q0 -23 10.5 -33t34.5 -12l259 -26q115 -10 115 -115v-78q0 -56 -30 -85.5t-85 -29.5h-320q-55 0 -85 30t-30 86z" />
    <glyph glyph-name="uni0162" unicode="&#x162;" horiz-adv-x="676" 
d="M402 586v-586h-49l-11 -30h70q28 0 40 -12t12 -40v-26q0 -28 -12 -40t-40 -12h-164v47h139q13 0 13 13v13q0 13 -13 13h-103v22l19 52h-29v586h-258v114h644v-114h-258z" />
    <glyph glyph-name="uni0163" unicode="&#x163;" horiz-adv-x="498" 
d="M472 528v-97h-226v-265q0 -38 15 -53t53 -15h158v-98h-164l-11 -30h70q28 0 40 -12t12 -40v-26q0 -28 -12 -40t-40 -12h-164v47h139q13 0 13 13v13q0 13 -13 13h-103v22l19 52q-69 2 -101.5 36t-32.5 106v289h-108v97h108l25 120h97v-120h226z" />
    <glyph glyph-name="Tcaron" unicode="&#x164;" horiz-adv-x="676" 
d="M525 872l-126 -124h-122l-126 124h92l95 -72l95 72h92zM16 700h644v-114h-258v-586h-128v586h-258v114z" />
    <glyph glyph-name="tcaron" unicode="&#x165;" horiz-adv-x="519" 
d="M408 570h-65l42 82h-46v84h124v-35q0 -25 -4 -39t-18 -35zM472 528v-97h-226v-265q0 -38 15 -53t53 -15h158v-98h-206q-73 0 -107.5 34t-34.5 108v289h-108v97h108l25 120h97v-120h226z" />
    <glyph glyph-name="Tbar" unicode="&#x166;" horiz-adv-x="688" 
d="M660 700v-114h-258v-220h178v-80h-178v-286h-128v286h-166v80h166v220h-258v114h644z" />
    <glyph glyph-name="tbar" unicode="&#x167;" horiz-adv-x="498" 
d="M472 528v-98h-227v-122h227v-75h-227v-66q0 -37 15.5 -52.5t52.5 -15.5h159v-99h-206q-72 0 -107 34.5t-35 107.5v91h-108v75h108v122h-108v98h108l25 120h96v-120h227z" />
    <glyph glyph-name="Utilde" unicode="&#x168;" horiz-adv-x="773" 
d="M274 748h-73v74q0 50 50 50h87q23 0 35.5 -5t26.5 -21l38 -38q10 -10 25 -10h20q15 0 15 14v60h73v-74q0 -50 -50 -50h-87q-23 0 -35.5 5t-26.5 21l-38 38q-10 10 -25 10h-20q-15 0 -15 -14v-60zM530 0h-288q-96 0 -141 45t-45 141v514h128v-490q0 -55 22.5 -77.5
t77.5 -22.5h204q56 0 78 22t22 78v490h128v-514q0 -96 -45 -141t-141 -45z" />
    <glyph glyph-name="utilde" unicode="&#x169;" horiz-adv-x="682" 
d="M226 636v-60h-73v74q0 50 50 50h87q23 0 35.5 -5t26.5 -21l38 -38q10 -10 25 -10h20q15 0 15 14v60h73v-74q0 -50 -50 -50h-87q-23 0 -35.5 5t-26.5 21l-38 38q-10 10 -25 10h-20q-15 0 -15 -14zM497 528h122v-528h-100l-14 73l-9 -7q-51 -42 -91 -54q-41 -12 -117 -12
h-63q-88 0 -127 38.5t-39 127.5v362h121v-342q0 -49 18 -67t67 -18h62q86 0 130 34l40 30v363z" />
    <glyph glyph-name="Umacron" unicode="&#x16a;" horiz-adv-x="773" 
d="M582 778h-392v66h392v-66zM530 0h-288q-96 0 -141 45t-45 141v514h128v-490q0 -55 22.5 -77.5t77.5 -22.5h204q56 0 78 22t22 78v490h128v-514q0 -96 -45 -141t-141 -45z" />
    <glyph glyph-name="umacron" unicode="&#x16b;" horiz-adv-x="682" 
d="M142 672h392v-66h-392v66zM497 528h122v-528h-100l-14 73l-9 -7q-51 -42 -91 -54q-41 -12 -117 -12h-63q-88 0 -127 38.5t-39 127.5v362h121v-342q0 -49 18 -67t67 -18h62q86 0 130 34l40 30v363z" />
    <glyph glyph-name="Ubreve" unicode="&#x16c;" horiz-adv-x="773" 
d="M498 748h-224q-73 0 -73 73v51h86v-36q0 -30 30 -30h138q30 0 30 30v36h86v-51q0 -73 -73 -73zM530 0h-288q-96 0 -141 45t-45 141v514h128v-490q0 -55 22.5 -77.5t77.5 -22.5h204q56 0 78 22t22 78v490h128v-514q0 -96 -45 -141t-141 -45z" />
    <glyph glyph-name="ubreve" unicode="&#x16d;" horiz-adv-x="682" 
d="M450 576h-224q-73 0 -73 73v51h86v-36q0 -30 30 -30h138q30 0 30 30v36h86v-51q0 -73 -73 -73zM497 528h122v-528h-100l-14 73l-9 -7q-51 -42 -91 -54q-41 -12 -117 -12h-63q-88 0 -127 38.5t-39 127.5v362h121v-342q0 -49 18 -67t67 -18h62q86 0 130 34l40 30v363z" />
    <glyph glyph-name="Uring" unicode="&#x16e;" horiz-adv-x="773" 
d="M245 792v26q0 28 12.5 41t41.5 13h174q29 0 41.5 -13t12.5 -41v-26q0 -28 -12.5 -41t-41.5 -13h-174q-29 0 -41.5 13t-12.5 41zM298 812v-14q0 -12 4 -16.5t16 -4.5h136q12 0 16 4.5t4 16.5v14q0 12 -4 16.5t-16 4.5h-136q-12 0 -16 -4.5t-4 -16.5zM530 0h-288
q-96 0 -141 45t-45 141v514h128v-490q0 -55 22.5 -77.5t77.5 -22.5h204q56 0 78 22t22 78v490h128v-514q0 -96 -45 -141t-141 -45z" />
    <glyph glyph-name="uring" unicode="&#x16f;" horiz-adv-x="682" 
d="M425 566h-174q-29 0 -41.5 13t-12.5 41v26q0 28 12.5 41t41.5 13h174q29 0 41.5 -13t12.5 -41v-26q0 -28 -12.5 -41t-41.5 -13zM250 640v-14q0 -12 4 -16.5t16 -4.5h136q12 0 16 4.5t4 16.5v14q0 12 -4 16.5t-16 4.5h-136q-12 0 -16 -4.5t-4 -16.5zM497 528h122v-528
h-100l-14 73l-9 -7q-51 -42 -91 -54q-41 -12 -117 -12h-63q-88 0 -127 38.5t-39 127.5v362h121v-342q0 -49 18 -67t67 -18h62q86 0 130 34l40 30v363z" />
    <glyph glyph-name="Uhungarumlaut" unicode="&#x170;" horiz-adv-x="773" 
d="M430 872l-110 -124h-100l84 124h126zM645 872l-109 -124h-101l84 124h126zM530 0h-288q-96 0 -141 45t-45 141v514h128v-490q0 -55 22.5 -77.5t77.5 -22.5h204q56 0 78 22t22 78v490h128v-514q0 -96 -45 -141t-141 -45z" />
    <glyph glyph-name="uhungarumlaut" unicode="&#x171;" horiz-adv-x="682" 
d="M256 700h126l-110 -124h-100zM471 700h126l-109 -124h-101zM497 528h122v-528h-100l-14 73l-9 -7q-51 -42 -91 -54q-41 -12 -117 -12h-63q-88 0 -127 38.5t-39 127.5v362h121v-342q0 -49 18 -67t67 -18h62q86 0 130 34l40 30v363z" />
    <glyph glyph-name="Uogonek" unicode="&#x172;" horiz-adv-x="773" 
d="M588 210v490h128v-514q0 -96 -45 -141t-141 -45h-72l-14 -9q-22 -13 -22 -37v-13q0 -17 7 -24t24 -7h113v-70h-142q-42 0 -61 19t-19 61v15q0 43 20 65h-122q-96 0 -141 45t-45 141v514h128v-490q0 -55 22.5 -77.5t77.5 -22.5h204q56 0 78 22t22 78z" />
    <glyph glyph-name="uogonek" unicode="&#x173;" horiz-adv-x="676" 
d="M561 -90h89v-70h-118q-41 0 -60.5 19t-19.5 61v15q0 33 9 49.5t38 36.5l15 8l-9 44l-9 -7q-51 -42 -91 -54q-41 -12 -117 -12h-63q-88 0 -127 38.5t-39 127.5v362h121v-342q0 -49 18 -67t67 -18h62q86 0 130 34l40 30v363h122v-528h-53l-14 -9q-22 -13 -22 -37v-13
q0 -17 7 -24t24 -7z" />
    <glyph glyph-name="Wcircumflex" unicode="&#x174;" horiz-adv-x="1102" 
d="M646 748l-95 72l-95 -72h-92l126 124h122l126 -124h-92zM781 172l181 528h134l-256 -700h-113l-176 509l-176 -509h-113l-256 700h141l180 -528l178 528h97z" />
    <glyph glyph-name="wcircumflex" unicode="&#x175;" horiz-adv-x="902" 
d="M546 576l-95 72l-95 -72h-92l126 124h122l126 -124h-92zM638 147l134 381h124l-205 -528h-105l-134 374l-134 -374h-107l-205 528h129l135 -380l137 380h93z" />
    <glyph glyph-name="Ycircumflex" unicode="&#x176;" horiz-adv-x="728" 
d="M459 748l-95 72l-95 -72h-92l126 124h122l126 -124h-92zM589 700h143l-304 -442v-258h-128v258l-304 442h149l222 -337z" />
    <glyph glyph-name="ycircumflex" unicode="&#x177;" horiz-adv-x="638" 
d="M414 576l-95 72l-95 -72h-92l126 124h122l126 -124h-92zM320 125l182 403h130l-265 -540q-45 -91 -92 -120q-47 -28 -152 -28h-69v98h79q52 0 78 14.5t49 56.5l-254 519h135z" />
    <glyph glyph-name="Ydieresis" unicode="&#x178;" horiz-adv-x="728" 
d="M212 848h96v-88h-96v88zM420 848h96v-88h-96v88zM589 700h143l-304 -442v-258h-128v258l-304 442h149l222 -337z" />
    <glyph glyph-name="Zacute" unicode="&#x179;" horiz-adv-x="748" 
d="M551 872l-123 -124h-102l94 124h131zM706 0h-664v88l478 502h-458v110h644v-88l-478 -502h478v-110z" />
    <glyph glyph-name="zacute" unicode="&#x17a;" horiz-adv-x="642" 
d="M498 700l-123 -124h-102l94 124h131zM602 0h-562v74l384 360h-364v94h542v-74l-384 -360h384v-94z" />
    <glyph glyph-name="Zdotaccent" unicode="&#x17b;" horiz-adv-x="748" 
d="M435 760h-123v88h123v-88zM706 0h-664v88l478 502h-458v110h644v-88l-478 -502h478v-110z" />
    <glyph glyph-name="zdotaccent" unicode="&#x17c;" horiz-adv-x="642" 
d="M382 588h-123v88h123v-88zM602 0h-562v74l384 360h-364v94h542v-74l-384 -360h384v-94z" />
    <glyph glyph-name="Zcaron" unicode="&#x17d;" horiz-adv-x="748" 
d="M435 748h-122l-126 124h92l95 -72l95 72h92zM706 0h-664v88l478 502h-458v110h644v-88l-478 -502h478v-110z" />
    <glyph glyph-name="zcaron" unicode="&#x17e;" horiz-adv-x="642" 
d="M382 576h-122l-126 124h92l95 -72l95 72h92zM602 0h-562v74l384 360h-364v94h542v-74l-384 -360h384v-94z" />
    <glyph glyph-name="florin" unicode="&#x192;" horiz-adv-x="672" 
d="M624 594h-95q-54 0 -76.5 -21.5t-29.5 -78.5l-17 -161h198v-86h-207l-24 -221q-11 -99 -55 -142.5t-137 -43.5h-133v106h95q54 0 76.5 21.5t29.5 78.5l21 201h-202v86h212l19 181q11 99 55 142.5t137 43.5h133v-106z" />
    <glyph glyph-name="Aringacute" unicode="&#x1fa;" horiz-adv-x="799" 
d="M798 0h-142l-68 155h-379l-67 -155h-136l310 666h-1q-29 0 -41.5 13t-12.5 41v26q0 28 12.5 41t41.5 13h53l53 72h131l-71 -72h8q29 0 41.5 -13t12.5 -41v-26q0 -28 -12.5 -41t-41.5 -13zM314 740v-14q0 -12 4 -16.5t16 -4.5h136q12 0 16 4.5t4 16.5v14q0 12 -4 16.5
t-16 4.5h-136q-12 0 -16 -4.5t-4 -16.5zM399 590l-147 -338h294z" />
    <glyph glyph-name="aringacute" unicode="&#x1fb;" horiz-adv-x="673" 
d="M484 526q68 -7 99 -46t31 -118v-362h-99l-14 71l-17 -13q-47 -38 -80 -48t-105 -10h-121q-124 0 -124 124v55q0 124 124 124h315v52q0 48 -18.5 66t-67.5 18h-144q-37 0 -52.5 -15t-15.5 -53v-19h-117v34q0 134 128 142q-2 16 -2 20v26q0 54 54 54h53l53 72h131l-71 -72
h8q54 0 54 -54v-26q0 -4 -2 -22zM257 568v-14q0 -12 4 -16.5t16 -4.5h136q12 0 16 4.5t4 16.5v14q0 12 -4 16.5t-16 4.5h-136q-12 0 -16 -4.5t-4 -16.5zM447 114l46 34v83h-258q-34 0 -47 -13.5t-13 -46.5v-28q0 -34 13 -47t47 -13h102q67 0 110 31z" />
    <glyph glyph-name="AEacute" unicode="&#x1fc;" horiz-adv-x="1084" 
d="M668 872h131l-123 -124h-102zM646 314l89 -207h317v-107h-413l-61 152h-370l-66 -152h-136l326 700h710v-107h-516l77 -180h399v-99h-356zM400 592l-150 -343h288z" />
    <glyph glyph-name="aeacute" unicode="&#x1fd;" horiz-adv-x="1107" 
d="M599 700h131l-123 -124h-102zM682 528h205q88 0 127 -38.5t39 -127.5v-114h-439v-67q0 -49 18 -67t67 -18h168q37 0 52.5 15t15.5 53v23h118v-45q0 -73 -35 -107.5t-107 -34.5h-240q-114 0 -147 67l-12 -9q-47 -38 -80 -48t-105 -10h-149q-124 0 -124 124v55
q0 124 124 124h315v52q0 48 -18.5 66t-67.5 18h-144q-37 0 -52.5 -15t-15.5 -53v-19h-117v34q0 73 35 107.5t107 34.5h205q96 0 129 -53q32 53 128 53zM614 354v-28h321v28q0 49 -18 67t-67 18h-151q-49 0 -67 -18t-18 -67zM447 114l46 34v83h-258q-34 0 -47 -13.5
t-13 -46.5v-28q0 -34 13 -47t47 -13h102q67 0 110 31z" />
    <glyph glyph-name="Oslashacute" unicode="&#x1fe;" horiz-adv-x="800" 
d="M446 872h131l-123 -124h-102zM689 730h86l-70 -80q40 -46 40 -136v-328q0 -96 -45 -141t-141 -45h-318q-50 0 -92 14l-38 -44h-86l70 80q-40 46 -40 136v328q0 96 45 141t141 45h318q50 0 92 -14zM177 494v-288q0 -32 8 -53l381 436q-17 5 -44 5h-245q-55 0 -77.5 -22.5
t-22.5 -77.5zM622 206v288q0 35 -7 53l-381 -437q15 -4 43 -4h245q56 0 78 22t22 78z" />
    <glyph glyph-name="oslashacute" unicode="&#x1ff;" horiz-adv-x="678" 
d="M385 700h131l-123 -124h-102zM654 564l-68 -75q38 -40 38 -127v-196q0 -89 -39 -127.5t-127 -38.5h-238q-43 0 -73 9l-41 -45h-82l68 75q-38 40 -38 127v196q0 89 39 127.5t127 38.5h238q43 0 73 -9l41 45h82zM164 353v-178q0 -35 7 -50l285 312q-5 1 -26 1h-182
q-49 0 -66.5 -18t-17.5 -67zM514 175v178q0 35 -7 50l-285 -312q5 -1 26 -1h182q49 0 66.5 18t17.5 67z" />
    <glyph glyph-name="Scommaaccent" unicode="&#x218;" horiz-adv-x="779" 
d="M55 142v63h124v-36q0 -38 15 -53t53 -15h282q37 0 52.5 15.5t15.5 52.5v57q0 36 -14.5 50t-53.5 18l-322 31q-76 6 -109 38.5t-33 103.5v91q0 73 34.5 107.5t107.5 34.5h362q72 0 107 -34.5t35 -107.5v-49h-124v22q0 37 -15.5 52.5t-52.5 15.5h-258q-38 0 -53 -15
t-15 -53v-34q0 -36 14.5 -50t53.5 -18l322 -30q76 -7 109 -39t33 -103v-115q0 -73 -35 -107.5t-107 -34.5h-386q-73 0 -107.5 34.5t-34.5 107.5zM397 -196h-65l41 82h-45v84h124v-35q0 -25 -4 -39t-18 -35z" />
    <glyph glyph-name="scommaaccent" unicode="&#x219;" horiz-adv-x="658" 
d="M54 116v50h117v-35q0 -24 10.5 -34t34.5 -10h222q24 0 34.5 10t10.5 34v42q0 23 -10.5 33t-34.5 12l-259 26q-115 10 -115 115v54q0 56 30 85.5t85 29.5h296q55 0 85 -30t30 -86v-45h-117v30q0 24 -10.5 34t-34.5 10h-198q-24 0 -34.5 -10t-10.5 -34v-18q0 -23 10.5 -33
t34.5 -12l259 -26q115 -10 115 -115v-78q0 -56 -30 -85.5t-85 -29.5h-320q-55 0 -85 30t-30 86zM336 -196h-65l41 82h-45v84h124v-35q0 -25 -4 -39t-18 -35z" />
    <glyph glyph-name="uni021A" unicode="&#x21a;" horiz-adv-x="676" 
d="M16 700h644v-114h-258v-586h-128v586h-258v114zM321 -114h-45v84h124v-35q0 -25 -4 -39t-18 -35l-33 -57h-65z" />
    <glyph glyph-name="uni021B" unicode="&#x21b;" horiz-adv-x="498" 
d="M472 528v-97h-226v-265q0 -38 15 -53t53 -15h158v-98h-206q-73 0 -107.5 34t-34.5 108v289h-108v97h108l25 120h97v-120h226zM276 -114h-45v84h124v-35q0 -25 -4 -39t-18 -35l-33 -57h-65z" />
    <glyph glyph-name="uni0237" unicode="&#x237;" horiz-adv-x="258" 
d="M48 -160h-70v94h21q37 0 52.5 15t15.5 53v526h123v-546q0 -74 -34.5 -108t-107.5 -34z" />
    <glyph glyph-name="circumflex" unicode="&#x2c6;" horiz-adv-x="502" 
d="M156 576h-92l126 124h122l126 -124h-92l-95 72z" />
    <glyph glyph-name="caron" unicode="&#x2c7;" horiz-adv-x="502" 
d="M312 576h-122l-126 124h92l95 -72l95 72h92z" />
    <glyph glyph-name="breve" unicode="&#x2d8;" horiz-adv-x="498" 
d="M361 576h-224q-73 0 -73 73v51h86v-36q0 -30 30 -30h138q30 0 30 30v36h86v-51q0 -73 -73 -73z" />
    <glyph glyph-name="dotaccent" unicode="&#x2d9;" horiz-adv-x="251" 
d="M187 588h-123v88h123v-88z" />
    <glyph glyph-name="ring" unicode="&#x2da;" horiz-adv-x="386" 
d="M52 620v26q0 54 54 54h174q54 0 54 -54v-26q0 -54 -54 -54h-174q-54 0 -54 54zM105 640v-14q0 -12 4 -16.5t16 -4.5h136q12 0 16 4.5t4 16.5v14q0 12 -4 16.5t-16 4.5h-136q-12 0 -16 -4.5t-4 -16.5z" />
    <glyph glyph-name="ogonek" unicode="&#x2db;" horiz-adv-x="350" 
d="M191 9l-27 -18q-22 -13 -22 -37v-13q0 -17 7 -24t24 -7h113v-70h-142q-42 0 -61 19t-19 61v15q0 33 8.5 49.5t37.5 36.5l28 16z" />
    <glyph glyph-name="tilde" unicode="&#x2dc;" horiz-adv-x="498" 
d="M137 576h-73v74q0 50 50 50h87q23 0 35.5 -5t26.5 -21l38 -38q10 -10 25 -10h20q15 0 15 14v60h73v-74q0 -50 -50 -50h-87q-23 0 -35.5 5t-26.5 21l-38 38q-10 10 -25 10h-20q-15 0 -15 -14v-60z" />
    <glyph glyph-name="hungarumlaut" unicode="&#x2dd;" horiz-adv-x="553" 
d="M274 700l-110 -124h-100l84 124h126zM489 700l-109 -124h-101l84 124h126z" />
    <glyph glyph-name="gravecomb" unicode="&#x300;" horiz-adv-x="0" 
d="M-64 576h-101l-124 124h132z" />
    <glyph glyph-name="acutecomb" unicode="&#x301;" horiz-adv-x="0" 
d="M-64 700l-123 -124h-102l94 124h131z" />
    <glyph glyph-name="uni0302" unicode="&#x302;" horiz-adv-x="0" 
d="M-346 576h-92l126 124h122l126 -124h-92l-95 72z" />
    <glyph glyph-name="tildecomb" unicode="&#x303;" horiz-adv-x="0" 
d="M-361 576h-73v74q0 50 50 50h87q23 0 35.5 -5t26.5 -21l38 -38q10 -10 25 -10h20q15 0 15 14v60h73v-74q0 -50 -50 -50h-87q-23 0 -35.5 5t-26.5 21l-38 38q-10 10 -25 10h-20q-15 0 -15 -14v-60z" />
    <glyph glyph-name="uni0304" unicode="&#x304;" horiz-adv-x="0" 
d="M-64 606h-392v66h392v-66z" />
    <glyph glyph-name="uni0306" unicode="&#x306;" horiz-adv-x="0" 
d="M-137 576h-224q-73 0 -73 73v51h86v-36q0 -30 30 -30h138q30 0 30 30v36h86v-51q0 -73 -73 -73z" />
    <glyph glyph-name="uni0307" unicode="&#x307;" horiz-adv-x="0" 
d="M-64 588h-123v88h123v-88z" />
    <glyph glyph-name="uni0308" unicode="&#x308;" horiz-adv-x="0" 
d="M-272 588h-96v88h96v-88zM-64 588h-96v88h96v-88z" />
    <glyph glyph-name="uni030A" unicode="&#x30a;" horiz-adv-x="0" 
d="M-334 620v26q0 54 54 54h174q54 0 54 -54v-26q0 -54 -54 -54h-174q-54 0 -54 54zM-281 640v-14q0 -12 4 -16.5t16 -4.5h136q12 0 16 4.5t4 16.5v14q0 12 -4 16.5t-16 4.5h-136q-12 0 -16 -4.5t-4 -16.5z" />
    <glyph glyph-name="uni030B" unicode="&#x30b;" horiz-adv-x="0" 
d="M-279 700l-110 -124h-100l84 124h126zM-64 700l-109 -124h-101l84 124h126z" />
    <glyph glyph-name="uni030C" unicode="&#x30c;" horiz-adv-x="0" 
d="M-190 576h-122l-126 124h92l95 -72l95 72h92z" />
    <glyph glyph-name="uni0312" unicode="&#x312;" horiz-adv-x="0" 
d="M-133 742h65l-41 -82h45v-84h-124v35q0 25 4 39t18 35z" />
    <glyph glyph-name="uni0326" unicode="&#x326;" horiz-adv-x="0" 
d="M-119 -196h-65l41 82h-45v84h124v-35q0 -25 -4 -39t-18 -35z" />
    <glyph glyph-name="uni0327" unicode="&#x327;" horiz-adv-x="0" 
d="M-104 -160h-164v47h139q13 0 13 13v13q0 13 -13 13h-103v22l26 72h50l-18 -50h70q28 0 40 -12t12 -40v-26q0 -28 -12 -40t-40 -12z" />
    <glyph glyph-name="uni0328" unicode="&#x328;" horiz-adv-x="0" 
d="M-159 9l-27 -18q-22 -13 -22 -37v-13q0 -17 7 -24t24 -7h113v-70h-142q-42 0 -61 19t-19 61v15q0 33 8.5 49.5t37.5 36.5l28 16z" />
    <glyph glyph-name="uni0335" unicode="&#x335;" horiz-adv-x="0" 
d="M-480 314v80h440v-80h-440z" />
    <glyph glyph-name="uni0336" unicode="&#x336;" horiz-adv-x="0" 
d="M-896 314v80h856v-80h-856z" />
    <glyph glyph-name="uni0337" unicode="&#x337;" horiz-adv-x="0" 
d="M-466 310v80l426 60v-80z" />
    <glyph glyph-name="uni0338" unicode="&#x338;" horiz-adv-x="0" 
d="M-624 -30l538 600h86l-538 -600h-86z" />
    <glyph glyph-name="uni0394" unicode="&#x394;" horiz-adv-x="804" 
d="M331 700h142l325 -700h-792zM398 591l-213 -489h427z" />
    <glyph glyph-name="uni03A9" unicode="&#x3a9;" horiz-adv-x="799" 
d="M543 113v-12h212v-101h-296v188h58q55 0 77.5 22.5t22.5 77.5v203q0 55 -22.5 77.5t-77.5 22.5h-234q-55 0 -77.5 -22.5t-22.5 -77.5v-203q0 -55 22.5 -77.5t77.5 -22.5h58v-188h-296v101h212v12h-28q-90 0 -132 42t-42 132v227q0 96 45 141t141 45h318q96 0 141 -45
t45 -141v-227q0 -90 -42 -132t-132 -42h-28z" />
    <glyph glyph-name="uni03BC" unicode="&#x3bc;" horiz-adv-x="725" 
d="M677 98h32v-98h-80q-98 0 -120 73l-9 -7q-51 -42 -91 -54q-41 -12 -116 -12h-60q-25 0 -48 3v-163h-122v688h122v-342q0 -49 18 -67t67 -18h62q84 0 130 34l40 30v363h121v-376q0 -30 12 -42t42 -12z" />
    <glyph glyph-name="pi" unicode="&#x3c0;" horiz-adv-x="756" 
d="M730 528v-97h-112v-265q0 -38 15 -53t53 -15h44v-98h-92q-73 0 -107.5 34t-34.5 108v289h-266v-431h-122v431h-92v97h714z" />
    <glyph glyph-name="uni0401" unicode="&#x401;" horiz-adv-x="678" 
d="M187 848h96v-88h-96v88zM395 848h96v-88h-96v88zM192 314v-207h454v-107h-582v700h572v-107h-444v-180h404v-99h-404z" />
    <glyph glyph-name="uni0403" unicode="&#x403;" horiz-adv-x="612" 
d="M352 872h131l-123 -124h-102zM64 700h532v-114h-404v-586h-128v700z" />
    <glyph glyph-name="uni0405" unicode="&#x405;" horiz-adv-x="779" 
d="M55 142v63h124v-36q0 -38 15 -53t53 -15h282q37 0 52.5 15.5t15.5 52.5v57q0 36 -14.5 50t-53.5 18l-322 31q-76 6 -109 38.5t-33 103.5v91q0 73 34.5 107.5t107.5 34.5h362q72 0 107 -34.5t35 -107.5v-49h-124v22q0 37 -15.5 52.5t-52.5 15.5h-258q-38 0 -53 -15
t-15 -53v-34q0 -36 14.5 -50t53.5 -18l322 -30q76 -7 109 -39t33 -103v-115q0 -73 -35 -107.5t-107 -34.5h-386q-73 0 -107.5 34.5t-34.5 107.5z" />
    <glyph glyph-name="uni0406" unicode="&#x406;" horiz-adv-x="268" 
d="M69 0v700h130v-700h-130z" />
    <glyph glyph-name="uni0407" unicode="&#x407;" horiz-adv-x="268" 
d="M78 760h-96v88h96v-88zM286 760h-96v88h96v-88zM69 0v700h130v-700h-130z" />
    <glyph glyph-name="uni0408" unicode="&#x408;" horiz-adv-x="704" 
d="M462 0h-244q-96 0 -141 45t-45 141v82h124v-60q0 -55 22.5 -77.5t77.5 -22.5h164q55 0 77.5 22.5t22.5 77.5v492h128v-514q0 -96 -45 -141t-141 -45z" />
    <glyph glyph-name="uni040C" unicode="&#x40c;" horiz-adv-x="750" 
d="M412 872h131l-123 -124h-102zM351 362l393 -362h-189l-363 346v-346h-128v700h128v-328l358 328h190z" />
    <glyph glyph-name="uni040E" unicode="&#x40e;" horiz-adv-x="728" 
d="M476 748h-224q-73 0 -73 73v51h86v-36q0 -30 30 -30h138q30 0 30 30v36h86v-51q0 -73 -73 -73zM367 329l222 371h143l-443 -700h-140l145 228l-298 472h149z" />
    <glyph glyph-name="uni0410" unicode="&#x410;" horiz-adv-x="792" 
d="M798 0h-142l-68 155h-379l-67 -155h-136l326 700h141zM399 590l-147 -338h294z" />
    <glyph glyph-name="uni0411" unicode="&#x411;" horiz-adv-x="762" 
d="M572 0h-508v700h590v-101h-462v-186h380q73 0 107.5 -34t34.5 -108v-129q0 -73 -35 -107.5t-107 -34.5zM192 322v-222h326q38 0 53 15t15 53v86q0 38 -15 53t-53 15h-326z" />
    <glyph glyph-name="uni0412" unicode="&#x412;" horiz-adv-x="762" 
d="M631 367q83 -21 83 -128v-97q0 -73 -35 -107.5t-107 -34.5h-508v700h488q72 0 107 -34.5t35 -107.5v-69q0 -93 -63 -122zM498 600h-306v-192h306q38 0 53 15t15 53v56q0 38 -15 53t-53 15zM586 168v83q0 38 -15 53t-53 15h-326v-219h326q38 0 53 15t15 53z" />
    <glyph glyph-name="uni0413" unicode="&#x413;" horiz-adv-x="612" 
d="M64 700h532v-114h-404v-586h-128v700z" />
    <glyph glyph-name="uni0414" unicode="&#x414;" horiz-adv-x="834" 
d="M738 700v-590h80v-230h-120v120h-562v-120h-120v230h40q48 0 65.5 17t19.5 65l33 508h564zM297 586l-26 -382q-4 -60 -20 -94h359v476h-313z" />
    <glyph glyph-name="uni0415" unicode="&#x415;" horiz-adv-x="678" 
d="M192 314v-207h454v-107h-582v700h572v-107h-444v-180h404v-99h-404z" />
    <glyph glyph-name="uni0416" unicode="&#x416;" horiz-adv-x="1244" 
d="M845 362l393 -362h-189l-363 346v-346h-128v346l-363 -346h-189l393 362l-389 338h190l358 -328v328h128v-328l358 328h190z" />
    <glyph glyph-name="uni0417" unicode="&#x417;" horiz-adv-x="778" 
d="M647 366q77 -24 77 -127v-97q0 -73 -35 -107.5t-107 -34.5h-386q-72 0 -107 34.5t-35 107.5v95h124v-69q0 -38 15 -53t53 -15h282q38 0 53 15t15 53v81q0 38 -15 53t-53 15h-194v93h184q38 0 53 15t15 53v54q0 38 -15 53t-53 15h-262q-38 0 -53 -15t-15 -53v-61h-124v87
q0 73 35 107.5t107 34.5h366q72 0 107 -34.5t35 -107.5v-69q0 -98 -67 -123z" />
    <glyph glyph-name="uni0418" unicode="&#x418;" horiz-adv-x="808" 
d="M188 192l448 508h108v-700h-124v516l-454 -516h-102v700h124v-508z" />
    <glyph glyph-name="uni0419" unicode="&#x419;" horiz-adv-x="808" 
d="M516 748h-224q-73 0 -73 73v51h86v-36q0 -30 30 -30h138q30 0 30 30v36h86v-51q0 -73 -73 -73zM188 192l448 508h108v-700h-124v516l-454 -516h-102v700h124v-508z" />
    <glyph glyph-name="uni041A" unicode="&#x41a;" horiz-adv-x="750" 
d="M351 362l393 -362h-189l-363 346v-346h-128v700h128v-328l358 328h190z" />
    <glyph glyph-name="uni041B" unicode="&#x41b;" horiz-adv-x="786" 
d="M82 0h-66v110h24q48 0 65.5 17t19.5 65l33 508h564v-700h-128v586h-313l-28 -418q-6 -90 -45 -129t-126 -39z" />
    <glyph glyph-name="uni041C" unicode="&#x41c;" horiz-adv-x="908" 
d="M457 269l279 431h108v-700h-120v490l-236 -356h-68l-236 356v-490h-120v700h113z" />
    <glyph glyph-name="uni041D" unicode="&#x41d;" horiz-adv-x="788" 
d="M596 423v277h128v-700h-128v309h-404v-309h-128v700h128v-277h404z" />
    <glyph glyph-name="uni041E" unicode="&#x41e;" horiz-adv-x="800" 
d="M559 0h-318q-96 0 -141 45t-45 141v328q0 96 45 141t141 45h318q96 0 141 -45t45 -141v-328q0 -96 -45 -141t-141 -45zM283 110h234q55 0 77.5 22.5t22.5 77.5v280q0 55 -22.5 77.5t-77.5 22.5h-234q-55 0 -77.5 -22t-22.5 -78v-280q0 -56 22.5 -78t77.5 -22z" />
    <glyph glyph-name="uni041F" unicode="&#x41f;" horiz-adv-x="788" 
d="M192 0h-128v700h660v-700h-128v586h-404v-586z" />
    <glyph glyph-name="uni0420" unicode="&#x420;" horiz-adv-x="736" 
d="M192 0h-128v700h474q88 0 127 -38.5t39 -127.5v-128q0 -89 -39 -127.5t-127 -38.5h-346v-240zM192 598v-260h299q49 0 67 17.5t18 66.5v92q0 49 -18 66.5t-67 17.5h-299z" />
    <glyph glyph-name="uni0421" unicode="&#x421;" horiz-adv-x="772" 
d="M535 0h-294q-96 0 -141 45t-45 141v328q0 96 45 141t141 45h294q96 0 141 -45t45 -141v-74h-124v52q0 55 -22.5 77.5t-77.5 22.5h-214q-55 0 -77.5 -22.5t-22.5 -77.5v-284q0 -55 22.5 -77.5t77.5 -22.5h214q55 0 77.5 22.5t22.5 77.5v61h124v-83q0 -96 -45 -141
t-141 -45z" />
    <glyph glyph-name="uni0422" unicode="&#x422;" horiz-adv-x="676" 
d="M16 700h644v-114h-258v-586h-128v586h-258v114z" />
    <glyph glyph-name="uni0423" unicode="&#x423;" horiz-adv-x="728" 
d="M367 329l222 371h143l-443 -700h-140l145 228l-298 472h149z" />
    <glyph glyph-name="uni0424" unicode="&#x424;" horiz-adv-x="1006" 
d="M563 654h202q96 0 141 -45t45 -141v-236q0 -96 -45 -141t-141 -45h-202v-86h-120v86h-202q-96 0 -141 45t-45 141v236q0 96 45 141t141 45h202v86h120v-86zM283 142h160v416h-160q-55 0 -77.5 -22.5t-22.5 -77.5v-216q0 -55 22.5 -77.5t77.5 -22.5zM823 242v216
q0 55 -22.5 77.5t-77.5 22.5h-160v-416h160q55 0 77.5 22.5t22.5 77.5z" />
    <glyph glyph-name="uni0425" unicode="&#x425;" 
d="M151 0h-145l286 356l-276 344h156l208 -275l207 275h149l-276 -344l286 -356h-156l-218 287z" />
    <glyph glyph-name="uni0426" unicode="&#x426;" horiz-adv-x="820" 
d="M684 0h-620v700h128v-586h404v586h128v-586h80v-234h-120v120z" />
    <glyph glyph-name="uni0427" unicode="&#x427;" horiz-adv-x="736" 
d="M672 0h-128v252h-346q-88 0 -127 38.5t-39 127.5v282h128v-250q0 -49 18 -66.5t67 -17.5h299v334h128v-700z" />
    <glyph glyph-name="uni0428" unicode="&#x428;" horiz-adv-x="1204" 
d="M1140 0h-1076v700h128v-586h346v586h128v-586h346v586h128v-700z" />
    <glyph glyph-name="uni0429" unicode="&#x429;" horiz-adv-x="1236" 
d="M1100 0h-1036v700h128v-586h346v586h128v-586h346v586h128v-586h80v-234h-120v120z" />
    <glyph glyph-name="uni042A" unicode="&#x42a;" horiz-adv-x="890" 
d="M218 590h-202v110h330v-240h346q88 0 127 -38.5t39 -127.5v-128q0 -89 -39 -127.5t-127 -38.5h-474v590zM346 362v-260h299q49 0 67 17.5t18 66.5v92q0 49 -18 66.5t-67 17.5h-299z" />
    <glyph glyph-name="uni042B" unicode="&#x42b;" horiz-adv-x="1004" 
d="M64 0v700h128v-240h346q88 0 127 -38.5t39 -127.5v-128q0 -89 -39 -127.5t-127 -38.5h-474zM805 0v700h130v-700h-130zM491 362h-299v-260h299q49 0 67 17.5t18 66.5v92q0 49 -18 66.5t-67 17.5z" />
    <glyph glyph-name="uni042C" unicode="&#x42c;" horiz-adv-x="736" 
d="M64 0v700h128v-240h346q88 0 127 -38.5t39 -127.5v-128q0 -89 -39 -127.5t-127 -38.5h-474zM491 362h-299v-260h299q49 0 67 17.5t18 66.5v92q0 49 -18 66.5t-67 17.5z" />
    <glyph glyph-name="uni042D" unicode="&#x42d;" horiz-adv-x="786" 
d="M238 700h308q96 0 141 -45t45 -141v-328q0 -96 -45 -141t-141 -45h-308q-96 0 -141 45t-45 141v83h124v-69q0 -55 22.5 -77.5t77.5 -22.5h228q55 0 77.5 22.5t22.5 77.5v118h-256v85h256v97q0 55 -22.5 77.5t-77.5 22.5h-228q-55 0 -77.5 -22.5t-22.5 -77.5v-60h-124v74
q0 96 45 141t141 45z" />
    <glyph glyph-name="uni042E" unicode="&#x42e;" horiz-adv-x="1199" 
d="M640 700h318q96 0 141 -45t45 -141v-328q0 -96 -45 -141t-141 -45h-318q-96 0 -141 45t-45 141v123h-262v-309h-128v700h128v-278h262v92q0 96 45 141t141 45zM1016 210v280q0 55 -22.5 77.5t-77.5 22.5h-234q-55 0 -77.5 -22.5t-22.5 -77.5v-280q0 -55 22.5 -77.5
t77.5 -22.5h234q55 0 77.5 22.5t22.5 77.5z" />
    <glyph glyph-name="uni042F" unicode="&#x42f;" horiz-adv-x="762" 
d="M224 700h474v-700h-128v262h-216l-183 -262h-143l193 270q-87 1 -125 39.5t-38 126.5v98q0 89 39 127.5t127 38.5zM271 358h299v244h-299q-49 0 -67 -17.5t-18 -66.5v-76q0 -49 18 -66.5t67 -17.5z" />
    <glyph glyph-name="uni0430" unicode="&#x430;" horiz-adv-x="673" 
d="M220 528h228q88 0 127 -38.5t39 -127.5v-362h-99l-14 71l-17 -13q-47 -38 -80 -48t-105 -10h-121q-124 0 -124 124v55q0 124 124 124h315v52q0 48 -18.5 66t-67.5 18h-144q-37 0 -52.5 -15t-15.5 -53v-19h-117v34q0 73 35 107.5t107 34.5zM447 114l46 34v83h-258
q-34 0 -47 -13.5t-13 -46.5v-28q0 -34 13 -47t47 -13h102q67 0 110 31z" />
    <glyph glyph-name="uni0431" unicode="&#x431;" horiz-adv-x="679" 
d="M267 458h216q73 0 107.5 -34t34.5 -108v-174q0 -73 -34.5 -107.5t-107.5 -34.5h-286q-72 0 -107 34.5t-35 107.5v359q0 94 44 137.5t142 50.5l364 21v-97l-347 -22q-58 -3 -81.5 -26t-23.5 -80v-75q27 48 114 48zM504 164v133q0 37 -15.5 52.5t-52.5 15.5h-191
q-37 0 -52.5 -15.5t-15.5 -52.5v-133q0 -38 15.5 -53t52.5 -15h191q38 0 53 15t15 53z" />
    <glyph glyph-name="uni0432" unicode="&#x432;" horiz-adv-x="690" 
d="M558 277q61 -16 61 -97v-73q0 -107 -107 -107h-447v528h432q107 0 107 -107v-53q0 -72 -46 -91zM435 442h-248v-131h248q26 0 37 10.5t11 36.5v38q0 26 -10.5 36t-37.5 10zM497 132v57q0 25 -10.5 35.5t-35.5 10.5h-264v-149h264q26 0 36 10t10 36z" />
    <glyph glyph-name="uni0433" unicode="&#x433;" horiz-adv-x="523" 
d="M185 0h-122v528h444v-101h-322v-427z" />
    <glyph glyph-name="uni0434" unicode="&#x434;" horiz-adv-x="723" 
d="M631 528v-430h76v-218h-114v120h-463v-120h-114v218h33q42 0 58 16t19 58l24 356h481zM266 427l-18 -246q-4 -49 -19 -83h280v329h-243z" />
    <glyph glyph-name="uni0435" unicode="&#x435;" horiz-adv-x="668" 
d="M220 528h228q88 0 127 -38.5t39 -127.5v-114h-439v-67q0 -49 18.5 -67t67.5 -18h168q37 0 52.5 15.5t15.5 52.5v23h117v-45q0 -73 -35 -107.5t-107 -34.5h-252q-88 0 -127 38.5t-39 127.5v196q0 89 39 127.5t127 38.5zM175 354v-28h322v28q0 49 -18.5 67t-67.5 18h-150
q-49 0 -67.5 -18t-18.5 -67z" />
    <glyph glyph-name="uni0436" unicode="&#x436;" horiz-adv-x="1040" 
d="M725 266l313 -266h-179l-278 250v-250h-122v250l-278 -250h-179l313 266l-307 262h177l274 -252v252h122v-252l274 252h177z" />
    <glyph glyph-name="uni0437" unicode="&#x437;" horiz-adv-x="668" 
d="M557 275q57 -18 57 -95v-73q0 -107 -107 -107h-346q-107 0 -107 107v69h117v-39q0 -28 11.5 -39t40.5 -11h218q29 0 40.5 11t11.5 39v46q0 28 -11.5 39.5t-40.5 11.5h-137v79h130q28 0 39.5 11.5t11.5 39.5v27q0 28 -11.5 39t-39.5 11h-204q-28 0 -39.5 -11t-11.5 -39
v-33h-117v63q0 107 107 107h330q108 0 108 -107v-53q0 -72 -50 -93z" />
    <glyph glyph-name="uni0438" unicode="&#x438;" horiz-adv-x="700" 
d="M181 159l354 369h102v-528h-117v377l-361 -377h-96v528h118v-369z" />
    <glyph glyph-name="uni0439" unicode="&#x439;" horiz-adv-x="700" 
d="M462 576h-224q-73 0 -73 73v51h86v-36q0 -30 30 -30h138q30 0 30 30v36h86v-51q0 -73 -73 -73zM181 159l354 369h102v-528h-117v377l-361 -377h-96v528h118v-369z" />
    <glyph glyph-name="uni043A" unicode="&#x43a;" horiz-adv-x="644" 
d="M329 266l313 -266h-179l-278 250v-250h-122v528h122v-252l274 252h177z" />
    <glyph glyph-name="uni043B" unicode="&#x43b;" horiz-adv-x="677" 
d="M77 0h-61v98h17q41 0 57 16t19 58l24 356h481v-528h-122v427h-243l-19 -278q-6 -78 -42 -113.5t-111 -35.5z" />
    <glyph glyph-name="uni043C" unicode="&#x43c;" horiz-adv-x="786" 
d="M177 0h-114v528h108l224 -316l226 316h102v-528h-113v356l-187 -256h-59l-187 256v-356z" />
    <glyph glyph-name="uni043D" unicode="&#x43d;" horiz-adv-x="686" 
d="M502 322v206h121v-528h-121v222h-317v-222h-122v528h122v-206h317z" />
    <glyph glyph-name="uni043E" unicode="&#x43e;" horiz-adv-x="678" 
d="M458 0h-238q-88 0 -127 38.5t-39 127.5v196q0 89 39 127.5t127 38.5h238q88 0 127 -38.5t39 -127.5v-196q0 -89 -39 -127.5t-127 -38.5zM260 98h158q49 0 66.5 18t17.5 67v162q0 49 -17.5 67t-66.5 18h-158q-49 0 -66.5 -18t-17.5 -67v-162q0 -49 17.5 -67t66.5 -18z" />
    <glyph glyph-name="uni043F" unicode="&#x43f;" horiz-adv-x="686" 
d="M185 0h-122v528h560v-528h-121v427h-317v-427z" />
    <glyph glyph-name="uni0440" unicode="&#x440;" horiz-adv-x="687" 
d="M394 528h73q88 0 127 -38.5t39 -127.5v-196q0 -89 -39 -127.5t-127 -38.5h-73q-76 0 -116 12q-41 12 -92 54l-1 1v-227h-122v688h100l14 -73l9 7q51 42 92 54t116 12zM512 183v162q0 49 -18 67t-67 18h-72q-83 0 -130 -35l-40 -30v-202l40 -30q47 -35 130 -35h72
q49 0 67 18t18 67z" />
    <glyph glyph-name="uni0441" unicode="&#x441;" horiz-adv-x="654" 
d="M54 166v196q0 89 39 127.5t127 38.5h214q88 0 127 -38.5t39 -127.5v-41h-118v24q0 49 -17.5 67t-66.5 18h-138q-49 0 -66.5 -18t-17.5 -67v-162q0 -49 17.5 -67t66.5 -18h138q49 0 66.5 18t17.5 67v32h118v-49q0 -89 -39 -127.5t-127 -38.5h-214q-88 0 -127 38.5
t-39 127.5z" />
    <glyph glyph-name="uni0442" unicode="&#x442;" horiz-adv-x="576" 
d="M227 427h-211v101h544v-101h-211v-427h-122v427z" />
    <glyph glyph-name="uni0443" unicode="&#x443;" horiz-adv-x="638" 
d="M320 125l182 403h130l-265 -540q-45 -91 -92 -120q-47 -28 -152 -28h-69v98h79q52 0 78 14.5t49 56.5l-254 519h135z" />
    <glyph glyph-name="uni0444" unicode="&#x444;" horiz-adv-x="974" 
d="M546 528h208q88 0 127 -38.5t39 -127.5v-196q0 -89 -39 -127.5t-127 -38.5h-208v-160h-118v160h-208q-88 0 -127 38.5t-39 127.5v196q0 89 39 127.5t127 38.5h208v172h118v-172zM260 89h168v350h-168q-49 0 -66.5 -18t-17.5 -67v-180q0 -49 17.5 -67t66.5 -18zM798 174
v180q0 49 -17.5 67t-66.5 18h-168v-350h168q49 0 66.5 18t17.5 67z" />
    <glyph glyph-name="uni0445" unicode="&#x445;" horiz-adv-x="647" 
d="M149 0h-147l239 269l-229 259h155l160 -200l161 200h147l-228 -259l238 -269h-155l-170 210z" />
    <glyph glyph-name="uni0446" unicode="&#x446;" horiz-adv-x="715" 
d="M586 0h-523v528h122v-427h317v427h121v-427h76v-221h-113v120z" />
    <glyph glyph-name="uni0447" unicode="&#x447;" horiz-adv-x="639" 
d="M32 529l122 -1v-171q0 -38 15 -53t53 -15h232v239h122v-528h-122v188h-280q-73 0 -107.5 34.5t-34.5 107.5v199z" />
    <glyph glyph-name="uni0448" unicode="&#x448;" horiz-adv-x="1035" 
d="M972 0h-909v528h122v-427h272v427h121v-427h272v427h122v-528z" />
    <glyph glyph-name="uni0449" unicode="&#x449;" horiz-adv-x="1064" 
d="M934 0h-871v528h122v-427h272v427h121v-427h272v427h122v-427h76v-221h-114v120z" />
    <glyph glyph-name="uni044A" unicode="&#x44a;" horiz-adv-x="754" 
d="M178 427h-162v101h284v-179h284q72 0 105 -33t33 -105v-73q0 -72 -33 -105t-105 -33h-406v427zM300 266v-179h236q36 0 50 14.5t14 50.5v49q0 36 -14 50.5t-50 14.5h-236z" />
    <glyph glyph-name="uni044B" unicode="&#x44b;" horiz-adv-x="897" 
d="M63 0v528h122v-179h284q72 0 105 -33t33 -105v-73q0 -72 -33 -105t-105 -33h-406zM829 0h-123v528h123v-528zM421 266h-236v-179h236q36 0 50.5 14.5t14.5 50.5v49q0 36 -14.5 50.5t-50.5 14.5z" />
    <glyph glyph-name="uni044C" unicode="&#x44c;" horiz-adv-x="639" 
d="M63 0v528h122v-179h284q72 0 105 -33t33 -105v-73q0 -72 -33 -105t-105 -33h-406zM421 266h-236v-179h236q36 0 50.5 14.5t14.5 50.5v49q0 36 -14.5 50.5t-50.5 14.5z" />
    <glyph glyph-name="uni044D" unicode="&#x44d;" horiz-adv-x="674" 
d="M220 528h234q88 0 127 -38.5t39 -127.5v-196q0 -89 -39 -127.5t-127 -38.5h-234q-88 0 -127 38.5t-39 127.5v48h117v-33q0 -49 18.5 -67t67.5 -18h156q49 0 67.5 18t18.5 67v55h-193v75h193v36q0 49 -18.5 67t-67.5 18h-156q-49 0 -67.5 -18t-18.5 -67v-26h-117v41
q0 89 39 127.5t127 38.5z" />
    <glyph glyph-name="uni044E" unicode="&#x44e;" horiz-adv-x="1011" 
d="M553 528h238q88 0 127 -38.5t39 -127.5v-196q0 -89 -39 -127.5t-127 -38.5h-238q-88 0 -127 38.5t-39 127.5v56h-202v-222h-122v528h122v-206h202v40q0 89 39 127.5t127 38.5zM836 183v162q0 49 -18 67t-67 18h-157q-49 0 -67 -18t-18 -67v-162q0 -49 18 -67t67 -18h157
q49 0 67 18t18 67z" />
    <glyph glyph-name="uni044F" unicode="&#x44f;" horiz-adv-x="663" 
d="M194 528h406v-528h-122v194h-180l-137 -194h-133l145 201q-60 5 -88.5 38t-28.5 99v52q0 72 33 105t105 33zM242 274h236v170h-236q-36 0 -50 -14.5t-14 -50.5v-40q0 -36 14 -50.5t50 -14.5z" />
    <glyph glyph-name="uni0451" unicode="&#x451;" horiz-adv-x="668" 
d="M182 676h96v-88h-96v88zM390 676h96v-88h-96v88zM220 528h228q88 0 127 -38.5t39 -127.5v-114h-439v-67q0 -49 18.5 -67t67.5 -18h168q37 0 52.5 15.5t15.5 52.5v23h117v-45q0 -73 -35 -107.5t-107 -34.5h-252q-88 0 -127 38.5t-39 127.5v196q0 89 39 127.5t127 38.5z
M175 354v-28h322v28q0 49 -18.5 67t-67.5 18h-150q-49 0 -67.5 -18t-18.5 -67z" />
    <glyph glyph-name="uni0453" unicode="&#x453;" horiz-adv-x="523" 
d="M439 700l-123 -124h-102l94 124h131zM185 0h-122v528h444v-101h-322v-427z" />
    <glyph glyph-name="uni0455" unicode="&#x455;" horiz-adv-x="658" 
d="M54 116v50h117v-35q0 -24 10.5 -34t34.5 -10h222q24 0 34.5 10t10.5 34v42q0 23 -10.5 33t-34.5 12l-259 26q-115 10 -115 115v54q0 56 30 85.5t85 29.5h296q55 0 85 -30t30 -86v-45h-117v30q0 24 -10.5 34t-34.5 10h-198q-24 0 -34.5 -10t-10.5 -34v-18q0 -23 10.5 -33
t34.5 -12l259 -26q115 -10 115 -115v-78q0 -56 -30 -85.5t-85 -29.5h-320q-55 0 -85 30t-30 86z" />
    <glyph glyph-name="uni0456" unicode="&#x456;" horiz-adv-x="257" 
d="M191 601h-124v99h124v-99zM191 0h-124v528h124v-528z" />
    <glyph glyph-name="uni0457" unicode="&#x457;" horiz-adv-x="258" 
d="M73 588h-96v88h96v-88zM281 588h-96v88h96v-88zM190 0h-123v528h123v-528z" />
    <glyph glyph-name="uni0458" unicode="&#x458;" horiz-adv-x="257" 
d="M191 601h-124v99h124v-99zM49 -160h-71v95h21q38 0 53 15t15 53v525h124v-546q0 -73 -35 -107.5t-107 -34.5z" />
    <glyph glyph-name="uni045C" unicode="&#x45c;" horiz-adv-x="644" 
d="M368 700h131l-123 -124h-102zM329 266l313 -266h-179l-278 250v-250h-122v528h122v-252l274 252h177z" />
    <glyph glyph-name="uni045E" unicode="&#x45e;" horiz-adv-x="638" 
d="M431 576h-224q-73 0 -73 73v51h86v-36q0 -30 30 -30h138q30 0 30 30v36h86v-51q0 -73 -73 -73zM320 125l182 403h130l-265 -540q-45 -91 -92 -120q-47 -28 -152 -28h-69v98h79q52 0 78 14.5t49 56.5l-254 519h135z" />
    <glyph glyph-name="uni0498" unicode="&#x498;" horiz-adv-x="778" 
d="M647 366q77 -24 77 -127v-97q0 -73 -35 -107.5t-107 -34.5h-178l-11 -30h70q28 0 40 -12t12 -40v-26q0 -28 -12 -40t-40 -12h-164v47h139q13 0 13 13v13q0 13 -13 13h-103v22l19 52h-158q-72 0 -107 34.5t-35 107.5v95h124v-69q0 -38 15 -53t53 -15h282q38 0 53 15t15 53
v81q0 38 -15 53t-53 15h-194v93h184q38 0 53 15t15 53v54q0 38 -15 53t-53 15h-262q-38 0 -53 -15t-15 -53v-61h-124v87q0 73 35 107.5t107 34.5h366q72 0 107 -34.5t35 -107.5v-69q0 -98 -67 -123z" />
    <glyph glyph-name="uni0499" unicode="&#x499;" horiz-adv-x="668" 
d="M557 275q57 -18 57 -95v-73q0 -107 -107 -107h-158l-11 -30h70q28 0 40 -12t12 -40v-26q0 -28 -12 -40t-40 -12h-164v47h139q13 0 13 13v13q0 13 -13 13h-103v22l19 52h-138q-107 0 -107 107v69h117v-39q0 -28 11.5 -39t40.5 -11h218q29 0 40.5 11t11.5 39v46
q0 28 -11.5 39.5t-40.5 11.5h-137v79h130q28 0 39.5 11.5t11.5 39.5v27q0 28 -11.5 39t-39.5 11h-204q-28 0 -39.5 -11t-11.5 -39v-33h-117v63q0 107 107 107h330q108 0 108 -107v-53q0 -72 -50 -93z" />
    <glyph glyph-name="uni04BB" unicode="&#x4bb;" horiz-adv-x="682" 
d="M398 528h59q88 0 127 -38.5t39 -127.5v-362h-121v342q0 49 -18 67t-67 18h-62q-86 0 -130 -34l-40 -30v-363h-122v700h122v-242l5 4q51 42 92 54q40 12 116 12z" />
    <glyph glyph-name="uni04C0" unicode="&#x4c0;" horiz-adv-x="268" 
d="M69 0v700h130v-700h-130z" />
    <glyph glyph-name="uni04C1" unicode="&#x4c1;" horiz-adv-x="1244" 
d="M734 748h-224q-73 0 -73 73v51h86v-36q0 -30 30 -30h138q30 0 30 30v36h86v-51q0 -73 -73 -73zM845 362l393 -362h-189l-363 346v-346h-128v346l-363 -346h-189l393 362l-389 338h190l358 -328v328h128v-328l358 328h190z" />
    <glyph glyph-name="uni04C2" unicode="&#x4c2;" horiz-adv-x="1040" 
d="M632 576h-224q-73 0 -73 73v51h86v-36q0 -30 30 -30h138q30 0 30 30v36h86v-51q0 -73 -73 -73zM725 266l313 -266h-179l-278 250v-250h-122v250l-278 -250h-179l313 266l-307 262h177l274 -252v252h122v-252l274 252h177z" />
    <glyph glyph-name="uni04D0" unicode="&#x4d0;" horiz-adv-x="792" 
d="M514 748h-224q-73 0 -73 73v51h86v-36q0 -30 30 -30h138q30 0 30 30v36h86v-51q0 -73 -73 -73zM798 0h-142l-68 155h-379l-67 -155h-136l326 700h141zM399 590l-147 -338h294z" />
    <glyph glyph-name="uni04D1" unicode="&#x4d1;" horiz-adv-x="673" 
d="M457 576h-224q-73 0 -73 73v51h86v-36q0 -30 30 -30h138q30 0 30 30v36h86v-51q0 -73 -73 -73zM220 528h228q88 0 127 -38.5t39 -127.5v-362h-99l-14 71l-17 -13q-47 -38 -80 -48t-105 -10h-121q-124 0 -124 124v55q0 124 124 124h315v52q0 48 -18.5 66t-67.5 18h-144
q-37 0 -52.5 -15t-15.5 -53v-19h-117v34q0 73 35 107.5t107 34.5zM447 114l46 34v83h-258q-34 0 -47 -13.5t-13 -46.5v-28q0 -34 13 -47t47 -13h102q67 0 110 31z" />
    <glyph glyph-name="uni04D2" unicode="&#x4d2;" horiz-adv-x="792" 
d="M250 848h96v-88h-96v88zM458 848h96v-88h-96v88zM798 0h-142l-68 155h-379l-67 -155h-136l326 700h141zM399 590l-147 -338h294z" />
    <glyph glyph-name="uni04D3" unicode="&#x4d3;" horiz-adv-x="673" 
d="M193 676h96v-88h-96v88zM401 676h96v-88h-96v88zM220 528h228q88 0 127 -38.5t39 -127.5v-362h-99l-14 71l-17 -13q-47 -38 -80 -48t-105 -10h-121q-124 0 -124 124v55q0 124 124 124h315v52q0 48 -18.5 66t-67.5 18h-144q-37 0 -52.5 -15t-15.5 -53v-19h-117v34
q0 73 35 107.5t107 34.5zM447 114l46 34v83h-258q-34 0 -47 -13.5t-13 -46.5v-28q0 -34 13 -47t47 -13h102q67 0 110 31z" />
    <glyph glyph-name="uni04D4" unicode="&#x4d4;" horiz-adv-x="1084" 
d="M646 314l89 -207h317v-107h-413l-61 152h-370l-66 -152h-136l326 700h710v-107h-516l77 -180h399v-99h-356zM400 592l-150 -343h288z" />
    <glyph glyph-name="uni04D5" unicode="&#x4d5;" horiz-adv-x="1107" 
d="M682 528h205q88 0 127 -38.5t39 -127.5v-114h-439v-67q0 -49 18 -67t67 -18h168q37 0 52.5 15t15.5 53v23h118v-45q0 -73 -35 -107.5t-107 -34.5h-240q-114 0 -147 67l-12 -9q-47 -38 -80 -48t-105 -10h-149q-124 0 -124 124v55q0 124 124 124h315v52q0 48 -18.5 66
t-67.5 18h-144q-37 0 -52.5 -15t-15.5 -53v-19h-117v34q0 73 35 107.5t107 34.5h205q96 0 129 -53q32 53 128 53zM614 354v-28h321v28q0 49 -18 67t-67 18h-151q-49 0 -67 -18t-18 -67zM447 114l46 34v83h-258q-34 0 -47 -13.5t-13 -46.5v-28q0 -34 13 -47t47 -13h102
q67 0 110 31z" />
    <glyph glyph-name="uni04D6" unicode="&#x4d6;" horiz-adv-x="678" 
d="M451 748h-224q-73 0 -73 73v51h86v-36q0 -30 30 -30h138q30 0 30 30v36h86v-51q0 -73 -73 -73zM192 314v-207h454v-107h-582v700h572v-107h-444v-180h404v-99h-404z" />
    <glyph glyph-name="uni04D7" unicode="&#x4d7;" horiz-adv-x="668" 
d="M446 576h-224q-73 0 -73 73v51h86v-36q0 -30 30 -30h138q30 0 30 30v36h86v-51q0 -73 -73 -73zM220 528h228q88 0 127 -38.5t39 -127.5v-114h-439v-67q0 -49 18.5 -67t67.5 -18h168q37 0 52.5 15.5t15.5 52.5v23h117v-45q0 -73 -35 -107.5t-107 -34.5h-252
q-88 0 -127 38.5t-39 127.5v196q0 89 39 127.5t127 38.5zM175 354v-28h322v28q0 49 -18.5 67t-67.5 18h-150q-49 0 -67.5 -18t-18.5 -67z" />
    <glyph glyph-name="uni04DC" unicode="&#x4dc;" horiz-adv-x="1244" 
d="M470 848h96v-88h-96v88zM678 848h96v-88h-96v88zM845 362l393 -362h-189l-363 346v-346h-128v346l-363 -346h-189l393 362l-389 338h190l358 -328v328h128v-328l358 328h190z" />
    <glyph glyph-name="uni04DD" unicode="&#x4dd;" horiz-adv-x="1040" 
d="M368 676h96v-88h-96v88zM576 676h96v-88h-96v88zM725 266l313 -266h-179l-278 250v-250h-122v250l-278 -250h-179l313 266l-307 262h177l274 -252v252h122v-252l274 252h177z" />
    <glyph glyph-name="uni04DE" unicode="&#x4de;" horiz-adv-x="778" 
d="M237 848h96v-88h-96v88zM445 848h96v-88h-96v88zM647 366q77 -24 77 -127v-97q0 -73 -35 -107.5t-107 -34.5h-386q-72 0 -107 34.5t-35 107.5v95h124v-69q0 -38 15 -53t53 -15h282q38 0 53 15t15 53v81q0 38 -15 53t-53 15h-194v93h184q38 0 53 15t15 53v54q0 38 -15 53
t-53 15h-262q-38 0 -53 -15t-15 -53v-61h-124v87q0 73 35 107.5t107 34.5h366q72 0 107 -34.5t35 -107.5v-69q0 -98 -67 -123z" />
    <glyph glyph-name="uni04DF" unicode="&#x4df;" horiz-adv-x="668" 
d="M182 676h96v-88h-96v88zM390 676h96v-88h-96v88zM557 275q57 -18 57 -95v-73q0 -107 -107 -107h-346q-107 0 -107 107v69h117v-39q0 -28 11.5 -39t40.5 -11h218q29 0 40.5 11t11.5 39v46q0 28 -11.5 39.5t-40.5 11.5h-137v79h130q28 0 39.5 11.5t11.5 39.5v27
q0 28 -11.5 39t-39.5 11h-204q-28 0 -39.5 -11t-11.5 -39v-33h-117v63q0 107 107 107h330q108 0 108 -107v-53q0 -72 -50 -93z" />
    <glyph glyph-name="uni04E2" unicode="&#x4e2;" horiz-adv-x="808" 
d="M208 844h392v-66h-392v66zM188 192l448 508h108v-700h-124v516l-454 -516h-102v700h124v-508z" />
    <glyph glyph-name="uni04E3" unicode="&#x4e3;" horiz-adv-x="700" 
d="M154 672h392v-66h-392v66zM181 159l354 369h102v-528h-117v377l-361 -377h-96v528h118v-369z" />
    <glyph glyph-name="uni04E4" unicode="&#x4e4;" horiz-adv-x="808" 
d="M252 848h96v-88h-96v88zM460 848h96v-88h-96v88zM188 192l448 508h108v-700h-124v516l-454 -516h-102v700h124v-508z" />
    <glyph glyph-name="uni04E5" unicode="&#x4e5;" horiz-adv-x="700" 
d="M198 676h96v-88h-96v88zM406 676h96v-88h-96v88zM181 159l354 369h102v-528h-117v377l-361 -377h-96v528h118v-369z" />
    <glyph glyph-name="uni04E6" unicode="&#x4e6;" horiz-adv-x="800" 
d="M344 760h-96v88h96v-88zM552 760h-96v88h96v-88zM559 0h-318q-96 0 -141 45t-45 141v328q0 96 45 141t141 45h318q96 0 141 -45t45 -141v-328q0 -96 -45 -141t-141 -45zM283 110h234q55 0 77.5 22.5t22.5 77.5v280q0 55 -22.5 77.5t-77.5 22.5h-234q-55 0 -77.5 -22
t-22.5 -78v-280q0 -56 22.5 -78t77.5 -22z" />
    <glyph glyph-name="uni04E7" unicode="&#x4e7;" horiz-adv-x="678" 
d="M283 588h-96v88h96v-88zM491 588h-96v88h96v-88zM458 0h-238q-88 0 -127 38.5t-39 127.5v196q0 89 39 127.5t127 38.5h238q88 0 127 -38.5t39 -127.5v-196q0 -89 -39 -127.5t-127 -38.5zM260 98h158q49 0 66.5 18t17.5 67v162q0 49 -17.5 67t-66.5 18h-158
q-49 0 -66.5 -18t-17.5 -67v-162q0 -49 17.5 -67t66.5 -18z" />
    <glyph glyph-name="uni04EC" unicode="&#x4ec;" horiz-adv-x="786" 
d="M241 848h96v-88h-96v88zM449 848h96v-88h-96v88zM238 700h308q96 0 141 -45t45 -141v-328q0 -96 -45 -141t-141 -45h-308q-96 0 -141 45t-45 141v83h124v-69q0 -55 22.5 -77.5t77.5 -22.5h228q55 0 77.5 22.5t22.5 77.5v118h-256v85h256v97q0 55 -22.5 77.5t-77.5 22.5
h-228q-55 0 -77.5 -22.5t-22.5 -77.5v-60h-124v74q0 96 45 141t141 45z" />
    <glyph glyph-name="uni04ED" unicode="&#x4ed;" horiz-adv-x="674" 
d="M175 676h96v-88h-96v88zM383 676h96v-88h-96v88zM220 528h234q88 0 127 -38.5t39 -127.5v-196q0 -89 -39 -127.5t-127 -38.5h-234q-88 0 -127 38.5t-39 127.5v48h117v-33q0 -49 18.5 -67t67.5 -18h156q49 0 67.5 18t18.5 67v55h-193v75h193v36q0 49 -18.5 67t-67.5 18
h-156q-49 0 -67.5 -18t-18.5 -67v-26h-117v41q0 89 39 127.5t127 38.5z" />
    <glyph glyph-name="uni04EE" unicode="&#x4ee;" horiz-adv-x="728" 
d="M168 844h392v-66h-392v66zM367 329l222 371h143l-443 -700h-140l145 228l-298 472h149z" />
    <glyph glyph-name="uni04EF" unicode="&#x4ef;" horiz-adv-x="638" 
d="M123 672h392v-66h-392v66zM320 125l182 403h130l-265 -540q-45 -91 -92 -120q-47 -28 -152 -28h-69v98h79q52 0 78 14.5t49 56.5l-254 519h135z" />
    <glyph glyph-name="uni04F0" unicode="&#x4f0;" horiz-adv-x="728" 
d="M212 848h96v-88h-96v88zM420 848h96v-88h-96v88zM367 329l222 371h143l-443 -700h-140l145 228l-298 472h149z" />
    <glyph glyph-name="uni04F1" unicode="&#x4f1;" horiz-adv-x="638" 
d="M167 676h96v-88h-96v88zM375 676h96v-88h-96v88zM320 125l182 403h130l-265 -540q-45 -91 -92 -120q-47 -28 -152 -28h-69v98h79q52 0 78 14.5t49 56.5l-254 519h135z" />
    <glyph glyph-name="uni04F2" unicode="&#x4f2;" horiz-adv-x="728" 
d="M282 872h126l-110 -124h-100zM497 872h126l-109 -124h-101zM367 329l222 371h143l-443 -700h-140l145 228l-298 472h149z" />
    <glyph glyph-name="uni04F3" unicode="&#x4f3;" horiz-adv-x="638" 
d="M237 700h126l-110 -124h-100zM452 700h126l-109 -124h-101zM320 125l182 403h130l-265 -540q-45 -91 -92 -120q-47 -28 -152 -28h-69v98h79q52 0 78 14.5t49 56.5l-254 519h135z" />
    <glyph glyph-name="uni04F4" unicode="&#x4f4;" horiz-adv-x="736" 
d="M312 760h-96v88h96v-88zM520 760h-96v88h96v-88zM672 0h-128v252h-346q-88 0 -127 38.5t-39 127.5v282h128v-250q0 -49 18 -66.5t67 -17.5h299v334h128v-700z" />
    <glyph glyph-name="uni04F5" unicode="&#x4f5;" horiz-adv-x="600" 
d="M160 588h-96v88h96v-88zM368 588h-96v88h96v-88zM32 529l122 -1v-171q0 -38 15 -53t53 -15h232v239h122v-528h-122v188h-280q-73 0 -107.5 34.5t-34.5 107.5v199z" />
    <glyph glyph-name="uni04F8" unicode="&#x4f8;" horiz-adv-x="1004" 
d="M814 760h-96v88h96v-88zM1022 760h-96v88h96v-88zM64 0v700h128v-240h346q88 0 127 -38.5t39 -127.5v-128q0 -89 -39 -127.5t-127 -38.5h-474zM805 0v700h130v-700h-130zM491 362h-299v-260h299q49 0 67 17.5t18 66.5v92q0 49 -18 66.5t-67 17.5z" />
    <glyph glyph-name="uni04F9" unicode="&#x4f9;" horiz-adv-x="897" 
d="M712 588h-96v88h96v-88zM920 588h-96v88h96v-88zM63 0v528h122v-179h284q72 0 105 -33t33 -105v-73q0 -72 -33 -105t-105 -33h-406zM829 0h-123v528h123v-528zM421 266h-236v-179h236q36 0 50.5 14.5t14.5 50.5v49q0 36 -14.5 50.5t-50.5 14.5z" />
    <glyph glyph-name="Wgrave" unicode="&#x1e80;" horiz-adv-x="1102" 
d="M506 872l93 -124h-101l-124 124h132zM781 172l181 528h134l-256 -700h-113l-176 509l-176 -509h-113l-256 700h141l180 -528l178 528h97z" />
    <glyph glyph-name="wgrave" unicode="&#x1e81;" horiz-adv-x="902" 
d="M406 700l93 -124h-101l-124 124h132zM638 147l134 381h124l-205 -528h-105l-134 374l-134 -374h-107l-205 528h129l135 -380l137 380h93z" />
    <glyph glyph-name="Wacute" unicode="&#x1e82;" horiz-adv-x="1102" 
d="M597 872h131l-123 -124h-102zM781 172l181 528h134l-256 -700h-113l-176 509l-176 -509h-113l-256 700h141l180 -528l178 528h97z" />
    <glyph glyph-name="wacute" unicode="&#x1e83;" horiz-adv-x="902" 
d="M497 700h131l-123 -124h-102zM638 147l134 381h124l-205 -528h-105l-134 374l-134 -374h-107l-205 528h129l135 -380l137 380h93z" />
    <glyph glyph-name="Wdieresis" unicode="&#x1e84;" horiz-adv-x="1102" 
d="M399 848h96v-88h-96v88zM607 848h96v-88h-96v88zM781 172l181 528h134l-256 -700h-113l-176 509l-176 -509h-113l-256 700h141l180 -528l178 528h97z" />
    <glyph glyph-name="wdieresis" unicode="&#x1e85;" horiz-adv-x="902" 
d="M299 676h96v-88h-96v88zM507 676h96v-88h-96v88zM638 147l134 381h124l-205 -528h-105l-134 374l-134 -374h-107l-205 528h129l135 -380l137 380h93z" />
    <glyph glyph-name="uni1E9E" unicode="&#x1e9e;" horiz-adv-x="797" 
d="M512 419h93q73 0 107.5 -34t34.5 -108v-135q0 -73 -35 -107.5t-107 -34.5h-264v97h210q37 0 52.5 15.5t15.5 52.5v96q0 37 -15.5 52.5t-52.5 15.5h-190v66l168 197h-244q-55 0 -77.5 -22.5t-22.5 -77.5v-492h-128v514q0 96 45 141t141 45h458v-57z" />
    <glyph glyph-name="Ygrave" unicode="&#x1ef2;" horiz-adv-x="728" 
d="M319 872l93 -124h-101l-124 124h132zM589 700h143l-304 -442v-258h-128v258l-304 442h149l222 -337z" />
    <glyph glyph-name="ygrave" unicode="&#x1ef3;" horiz-adv-x="638" 
d="M274 700l93 -124h-101l-124 124h132zM320 125l182 403h130l-265 -540q-45 -91 -92 -120q-47 -28 -152 -28h-69v98h79q52 0 78 14.5t49 56.5l-254 519h135z" />
    <glyph glyph-name="endash" unicode="&#x2013;" horiz-adv-x="640" 
d="M48 298v104h544v-104h-544z" />
    <glyph glyph-name="emdash" unicode="&#x2014;" horiz-adv-x="900" 
d="M48 298v104h804v-104h-804z" />
    <glyph glyph-name="quoteleft" unicode="&#x2018;" horiz-adv-x="276" 
d="M135 700h77l-51 -160h51v-132h-148v55q0 52 20 97z" />
    <glyph glyph-name="quoteright" unicode="&#x2019;" horiz-adv-x="276" 
d="M141 408h-77l51 160h-51v132h148v-55q0 -52 -20 -97z" />
    <glyph glyph-name="quotesinglbase" unicode="&#x201a;" horiz-adv-x="276" 
d="M141 -160h-77l51 160h-51v132h148v-55q0 -52 -20 -97z" />
    <glyph glyph-name="quotedblleft" unicode="&#x201c;" horiz-adv-x="520" 
d="M135 700h77l-51 -160h51v-132h-148v55q0 52 20 97zM379 700h77l-51 -160h51v-132h-148v55q0 52 20 97z" />
    <glyph glyph-name="quotedblright" unicode="&#x201d;" horiz-adv-x="520" 
d="M141 408h-77l51 160h-51v132h148v-55q0 -52 -20 -97zM385 408h-77l51 160h-51v132h148v-55q0 -52 -20 -97z" />
    <glyph glyph-name="quotedblbase" unicode="&#x201e;" horiz-adv-x="520" 
d="M141 -160h-77l51 160h-51v132h148v-55q0 -52 -20 -97zM385 -160h-77l51 160h-51v132h148v-55q0 -52 -20 -97z" />
    <glyph glyph-name="dagger" unicode="&#x2020;" horiz-adv-x="414" 
d="M248 576h124v-76h-124v-226h-82v226h-124v76h124v124h82v-124z" />
    <glyph glyph-name="daggerdbl" unicode="&#x2021;" horiz-adv-x="414" 
d="M372 582v-74h-124v-138h124v-74h-124v-118h-82v118h-124v74h124v138h-124v74h124v118h82v-118h124z" />
    <glyph glyph-name="bullet" unicode="&#x2022;" horiz-adv-x="380" 
d="M245 224h-110q-71 0 -71 71v110q0 71 71 71h110q71 0 71 -71v-110q0 -71 -71 -71z" />
    <glyph glyph-name="perthousand" unicode="&#x2030;" horiz-adv-x="1240" 
d="M266 306h-120q-104 0 -104 104v106q0 54 25.5 79t78.5 25h120q53 0 78.5 -25t25.5 -79v-106q0 -104 -104 -104zM208 0h-78l522 620h78zM167 372h78q28 0 40 12t12 40v78q0 28 -11.5 40t-40.5 12h-78q-29 0 -40.5 -12t-11.5 -40v-78q0 -28 12 -40t40 -12zM714 0h-120
q-104 0 -104 104v106q0 54 25.5 79t78.5 25h120q53 0 78.5 -25t25.5 -79v-106q0 -104 -104 -104zM1094 0h-120q-104 0 -104 104v106q0 54 25.5 79t78.5 25h120q53 0 78.5 -25t25.5 -79v-106q0 -104 -104 -104zM615 66h78q28 0 40 12t12 40v78q0 28 -11.5 40t-40.5 12h-78
q-29 0 -40.5 -12t-11.5 -40v-78q0 -28 12 -40t40 -12zM995 66h78q28 0 40 12t12 40v78q0 28 -11.5 40t-40.5 12h-78q-29 0 -40.5 -12t-11.5 -40v-78q0 -28 12 -40t40 -12z" />
    <glyph glyph-name="guilsinglleft" unicode="&#x2039;" horiz-adv-x="428" 
d="M52 388l324 198v-103l-233 -132l233 -133v-105l-324 198v77z" />
    <glyph glyph-name="guilsinglright" unicode="&#x203a;" horiz-adv-x="428" 
d="M52 481v105l324 -198v-77l-324 -198v103l233 133z" />
    <glyph glyph-name="fraction" unicode="&#x2044;" horiz-adv-x="196" 
d="M-132 0h-80l540 700h80z" />
    <glyph glyph-name="Euro" unicode="&#x20ac;" horiz-adv-x="772" 
d="M706 514v-74h-120v62q0 55 -22.5 77.5t-77.5 22.5h-166q-55 0 -77.5 -22.5t-22.5 -77.5v-50h254v-59h-254v-86h254v-59h-254v-50q0 -55 22.5 -77.5t77.5 -22.5h166q55 0 77.5 22.5t22.5 77.5v71h120v-83q0 -96 -45 -141t-141 -45h-238q-96 0 -141 45t-45 141v62h-90v59
h90v86h-90v59h90v62q0 96 45 141t141 45h238q96 0 141 -45t45 -141z" />
    <glyph glyph-name="trademark" unicode="&#x2122;" horiz-adv-x="575" 
d="M32 700h219v-50h-82v-183h-55v183h-82v50zM412 570l84 130h47v-233h-51v147l-67 -102h-29l-66 100v-145h-52v233h49z" />
    <glyph glyph-name="minus" unicode="&#x2212;" 
d="M68 298v104h616v-104h-616z" />
    <glyph glyph-name="approxequal" unicode="&#x2248;" 
d="M363 612l117 -141q15 -15 24 -19.5t27 -4.5h17q17 0 24.5 7.5t7.5 25.5v194h104v-214q0 -51 -21.5 -72.5t-72.5 -21.5h-78q-48 0 -70 12q-23 11 -53 51l-117 140q-15 15 -24 19.5t-27 4.5h-17q-17 0 -24.5 -7.5t-7.5 -25.5v-194h-104v214q0 51 21.5 72.5t72.5 21.5h78
q46 0 71 -11q24 -13 52 -51zM363 272l117 -141q15 -15 24 -19.5t27 -4.5h17q17 0 24.5 7.5t7.5 25.5v194h104v-214q0 -51 -21.5 -72.5t-72.5 -21.5h-78q-48 0 -70 12q-23 11 -53 51l-117 140q-15 15 -24 19.5t-27 4.5h-17q-17 0 -24.5 -7.5t-7.5 -25.5v-194h-104v214
q0 51 21.5 72.5t72.5 21.5h78q46 0 71 -11q24 -13 52 -51z" />
    <glyph glyph-name="notequal" unicode="&#x2260;" 
d="M684 526v-100h-228l-66 -152h294v-100h-337l-56 -130h-94l56 130h-185v100h228l66 152h-294v100h337l56 130h94l-56 -130h185z" />
    <glyph glyph-name="lessequal" unicode="&#x2264;" 
d="M68 492l616 184v-106l-501 -124l501 -124v-107l-616 184v93zM684 24h-616v93h616v-93z" />
    <glyph glyph-name="greaterequal" unicode="&#x2265;" 
d="M68 570v106l616 -184v-93l-616 -184v107l501 124zM684 24h-616v93h616v-93z" />
    <glyph glyph-name="fi" unicode="&#xfb01;" horiz-adv-x="735" 
d="M124 465v93q0 73 35 107.5t107 34.5h196v-97h-149q-37 0 -52.5 -15.5t-15.5 -52.5v-70h217v-97h-217v-368h-121v368h-108v97h108zM545 601v99h124v-99h-124zM669 0h-124v528h124v-528z" />
    <glyph glyph-name="fl" unicode="&#xfb02;" horiz-adv-x="736" 
d="M124 465v93q0 73 35 107.5t107 34.5h196v-97h-149q-37 0 -52.5 -15.5t-15.5 -52.5v-70h217v-97h-217v-368h-121v368h-108v97h108zM545 0v700h123v-700h-123z" />
    <glyph glyph-name="null" horiz-adv-x="0" 
 />
    <glyph glyph-name="A.ss01" horiz-adv-x="789" 
d="M243 700h304q96 0 141 -45t45 -141v-514h-128v223h-420v-223h-128v514q0 96 45 141t141 45zM185 491v-162h420v162q0 55 -22.5 77.5t-77.5 22.5h-220q-55 0 -77.5 -22.5t-22.5 -77.5z" />
    <glyph glyph-name="Aacute.ss01" horiz-adv-x="789" 
d="M443 872h131l-123 -124h-102zM243 700h304q96 0 141 -45t45 -141v-514h-128v223h-420v-223h-128v514q0 96 45 141t141 45zM185 491v-162h420v162q0 55 -22.5 77.5t-77.5 22.5h-220q-55 0 -77.5 -22.5t-22.5 -77.5z" />
    <glyph glyph-name="Abreve.ss01" horiz-adv-x="789" 
d="M509 748h-224q-73 0 -73 73v51h86v-36q0 -30 30 -30h138q30 0 30 30v36h86v-51q0 -73 -73 -73zM243 700h304q96 0 141 -45t45 -141v-514h-128v223h-420v-223h-128v514q0 96 45 141t141 45zM185 491v-162h420v162q0 55 -22.5 77.5t-77.5 22.5h-220q-55 0 -77.5 -22.5
t-22.5 -77.5z" />
    <glyph glyph-name="Acircumflex.ss01" horiz-adv-x="789" 
d="M492 748l-95 72l-95 -72h-92l126 124h122l126 -124h-92zM243 700h304q96 0 141 -45t45 -141v-514h-128v223h-420v-223h-128v514q0 96 45 141t141 45zM185 491v-162h420v162q0 55 -22.5 77.5t-77.5 22.5h-220q-55 0 -77.5 -22.5t-22.5 -77.5z" />
    <glyph glyph-name="Adieresis.ss01" horiz-adv-x="789" 
d="M245 848h96v-88h-96v88zM453 848h96v-88h-96v88zM243 700h304q96 0 141 -45t45 -141v-514h-128v223h-420v-223h-128v514q0 96 45 141t141 45zM185 491v-162h420v162q0 55 -22.5 77.5t-77.5 22.5h-220q-55 0 -77.5 -22.5t-22.5 -77.5z" />
    <glyph glyph-name="Agrave.ss01" horiz-adv-x="789" 
d="M352 872l93 -124h-101l-124 124h132zM243 700h304q96 0 141 -45t45 -141v-514h-128v223h-420v-223h-128v514q0 96 45 141t141 45zM185 491v-162h420v162q0 55 -22.5 77.5t-77.5 22.5h-220q-55 0 -77.5 -22.5t-22.5 -77.5z" />
    <glyph glyph-name="Amacron.ss01" horiz-adv-x="789" 
d="M201 844h392v-66h-392v66zM243 700h304q96 0 141 -45t45 -141v-514h-128v223h-420v-223h-128v514q0 96 45 141t141 45zM185 491v-162h420v162q0 55 -22.5 77.5t-77.5 22.5h-220q-55 0 -77.5 -22.5t-22.5 -77.5z" />
    <glyph glyph-name="Aogonek.ss01" horiz-adv-x="789" 
d="M652 -90h113v-70h-142q-42 0 -61 19t-19 61v15q0 33 8.5 49.5t37.5 36.5l16 9v193h-420v-223h-128v514q0 96 45 141t141 45h304q96 0 141 -45t45 -141v-514h-76l-14 -9q-22 -13 -22 -37v-13q0 -17 7 -24t24 -7zM185 491v-162h420v162q0 55 -22.5 77.5t-77.5 22.5h-220
q-55 0 -77.5 -22.5t-22.5 -77.5z" />
    <glyph glyph-name="Aring.ss01" horiz-adv-x="789" 
d="M484 738h-174q-54 0 -54 54v26q0 54 54 54h174q54 0 54 -54v-26q0 -54 -54 -54zM309 812v-14q0 -12 4 -16.5t16 -4.5h136q12 0 16 4.5t4 16.5v14q0 12 -4 16.5t-16 4.5h-136q-12 0 -16 -4.5t-4 -16.5zM243 700h304q96 0 141 -45t45 -141v-514h-128v223h-420v-223h-128
v514q0 96 45 141t141 45zM185 491v-162h420v162q0 55 -22.5 77.5t-77.5 22.5h-220q-55 0 -77.5 -22.5t-22.5 -77.5z" />
    <glyph glyph-name="Aringacute.ss01" horiz-adv-x="789" 
d="M536 700h11q96 0 141 -45t45 -141v-514h-128v223h-420v-223h-128v514q0 96 45 141t141 45h15q-2 16 -2 20v26q0 54 54 54h53l53 72h131l-71 -72h8q54 0 54 -54v-26q0 -4 -2 -20zM309 740v-14q0 -12 4 -16.5t16 -4.5h136q12 0 16 4.5t4 16.5v14q0 12 -4 16.5t-16 4.5h-136
q-12 0 -16 -4.5t-4 -16.5zM185 491v-162h420v162q0 55 -22.5 77.5t-77.5 22.5h-220q-55 0 -77.5 -22.5t-22.5 -77.5z" />
    <glyph glyph-name="Atilde.ss01" horiz-adv-x="789" 
d="M285 808v-60h-73v74q0 50 50 50h87q23 0 35.5 -5t26.5 -21l38 -38q10 -10 25 -10h20q15 0 15 14v60h73v-74q0 -50 -50 -50h-87q-23 0 -35.5 5t-26.5 21l-38 38q-10 10 -25 10h-20q-15 0 -15 -14zM243 700h304q96 0 141 -45t45 -141v-514h-128v223h-420v-223h-128v514
q0 96 45 141t141 45zM185 491v-162h420v162q0 55 -22.5 77.5t-77.5 22.5h-220q-55 0 -77.5 -22.5t-22.5 -77.5z" />
    <glyph glyph-name="I.ss01" horiz-adv-x="572" 
d="M540 700v-99h-189v-502h189v-99h-508v99h189v502h-189v99h508z" />
    <glyph glyph-name="Iacute.ss01" horiz-adv-x="572" 
d="M332 872h131l-123 -124h-102zM540 700v-99h-189v-502h189v-99h-508v99h189v502h-189v99h508z" />
    <glyph glyph-name="Icircumflex.ss01" horiz-adv-x="572" 
d="M381 748l-95 72l-95 -72h-92l126 124h122l126 -124h-92zM540 700v-99h-189v-502h189v-99h-508v99h189v502h-189v99h508z" />
    <glyph glyph-name="Idieresis.ss01" horiz-adv-x="572" 
d="M134 848h96v-88h-96v88zM342 848h96v-88h-96v88zM540 700v-99h-189v-502h189v-99h-508v99h189v502h-189v99h508z" />
    <glyph glyph-name="Idotaccent.ss01" horiz-adv-x="572" 
d="M224 848h123v-88h-123v88zM540 700v-99h-189v-502h189v-99h-508v99h189v502h-189v99h508z" />
    <glyph glyph-name="Igrave.ss01" horiz-adv-x="572" 
d="M241 872l93 -124h-101l-124 124h132zM540 700v-99h-189v-502h189v-99h-508v99h189v502h-189v99h508z" />
    <glyph glyph-name="Imacron.ss01" horiz-adv-x="572" 
d="M90 844h392v-66h-392v66zM540 700v-99h-189v-502h189v-99h-508v99h189v502h-189v99h508z" />
    <glyph glyph-name="Iogonek.ss01" horiz-adv-x="572" 
d="M540 700v-99h-189v-502h189v-99h-108l-14 -9q-22 -13 -22 -37v-13q0 -17 7 -24t24 -7h113v-70h-142q-42 0 -61 19t-19 61v15q0 43 20 65h-306v99h189v502h-189v99h508z" />
    <glyph glyph-name="Itilde.ss01" horiz-adv-x="572" 
d="M174 808v-60h-73v74q0 50 50 50h87q23 0 35.5 -5t26.5 -21l38 -38q10 -10 25 -10h20q15 0 15 14v60h73v-74q0 -50 -50 -50h-87q-23 0 -35.5 5t-26.5 21l-38 38q-10 10 -25 10h-20q-15 0 -15 -14zM540 700v-99h-189v-502h189v-99h-508v99h189v502h-189v99h508z" />
    <glyph glyph-name="R.ss01" horiz-adv-x="760" 
d="M704 558v-123q0 -99 -71 -125q71 -26 71 -125v-185h-128v192q0 39 -16 54.5t-54 15.5h-314v-262h-128v700h498q73 0 107.5 -34t34.5 -108zM506 602h-314v-244h314q38 0 54 15.5t16 54.5v104q0 39 -16 54.5t-54 15.5z" />
    <glyph glyph-name="Racute.ss01" horiz-adv-x="760" 
d="M426 872h131l-123 -124h-102zM704 558v-123q0 -99 -71 -125q71 -26 71 -125v-185h-128v192q0 39 -16 54.5t-54 15.5h-314v-262h-128v700h498q73 0 107.5 -34t34.5 -108zM506 602h-314v-244h314q38 0 54 15.5t16 54.5v104q0 39 -16 54.5t-54 15.5z" />
    <glyph glyph-name="Rcaron.ss01" horiz-adv-x="760" 
d="M567 872l-126 -124h-122l-126 124h92l95 -72l95 72h92zM704 558v-123q0 -99 -71 -125q71 -26 71 -125v-185h-128v192q0 39 -16 54.5t-54 15.5h-314v-262h-128v700h498q73 0 107.5 -34t34.5 -108zM506 602h-314v-244h314q38 0 54 15.5t16 54.5v104q0 39 -16 54.5t-54 15.5
z" />
    <glyph glyph-name="Rcommaaccent.ss01" horiz-adv-x="760" 
d="M704 558v-123q0 -99 -71 -125q71 -26 71 -125v-185h-128v192q0 39 -16 54.5t-54 15.5h-314v-262h-128v700h498q73 0 107.5 -34t34.5 -108zM506 602h-314v-244h314q38 0 54 15.5t16 54.5v104q0 39 -16 54.5t-54 15.5zM363 -114h-45v84h124v-35q0 -25 -4 -39t-18 -35
l-33 -57h-65z" />
    <glyph glyph-name="i.loclTRK" horiz-adv-x="258" 
d="M190 588h-123v88h123v-88zM190 0h-123v528h123v-528z" />
    <glyph glyph-name="uni0410.ss01" horiz-adv-x="793" 
d="M243 700h308q96 0 141 -45t45 -141v-514h-128v223h-424v-223h-128v514q0 96 45 141t141 45zM185 491v-162h424v162q0 55 -22.5 77.5t-77.5 22.5h-224q-55 0 -77.5 -22.5t-22.5 -77.5z" />
    <glyph glyph-name="uni042F.ss01" horiz-adv-x="760" 
d="M198 700h498v-700h-128v262h-314q-38 0 -54 -15.5t-16 -54.5v-192h-128v185q0 99 71 125q-71 26 -71 125v123q0 74 34.5 108t107.5 34zM184 532v-104q0 -39 16 -54.5t54 -15.5h314v244h-314q-38 0 -54 -15.5t-16 -54.5z" />
    <glyph glyph-name="uni044F.ss01" horiz-adv-x="655" 
d="M155 528h437v-528h-122v194h-254q-28 0 -39 -11t-11 -39v-144h-118v144q0 74 53 94q-53 20 -53 95v87q0 56 26 82t81 26zM170 394v-68q0 -29 11.5 -40.5t39.5 -11.5h249v170h-249q-28 0 -39.5 -11t-11.5 -39z" />
    <glyph glyph-name="zero.tf" 
d="M500 0h-248q-96 0 -141 45t-45 141v328q0 96 45 141t141 45h248q96 0 141 -45t45 -141v-328q0 -96 -45 -141t-141 -45zM290 106h172q55 0 77.5 22.5t22.5 77.5v288q0 55 -22.5 77.5t-77.5 22.5h-172q-55 0 -77.5 -22.5t-22.5 -77.5v-288q0 -55 22.5 -77.5t77.5 -22.5z
" />
    <glyph glyph-name="one.tf" 
d="M460 700v-598h244v-102h-656v102h288v486l-258 -24v106l324 30h58z" />
    <glyph glyph-name="two.tf" 
d="M675 105v-105h-609v215q0 70 32.5 103t109.5 45l286 46q39 7 53.5 22.5t14.5 51.5v48q0 37 -15 52.5t-53 15.5h-226q-38 0 -53 -15.5t-15 -52.5v-34h-120v61q0 73 35 107.5t107 34.5h322q72 0 107 -34.5t35 -107.5v-97q0 -70 -32.5 -103t-109.5 -45l-286 -46
q-39 -7 -53.5 -22.5t-14.5 -51.5v-88h485z" />
    <glyph glyph-name="three.tf" 
d="M611 366q77 -24 77 -127v-97q0 -73 -35 -107.5t-107 -34.5h-340q-72 0 -107 34.5t-35 107.5v85h120v-60q0 -38 15 -53t53 -15h244q38 0 53 15t15 53v82q0 38 -15 53t-53 15h-171v92h161q37 0 52.5 15.5t15.5 52.5v56q0 38 -15 53t-53 15h-224q-38 0 -53 -15t-15 -53v-52
h-120v77q0 73 35 107.5t107 34.5h320q72 0 107 -34.5t35 -107.5v-69q0 -98 -67 -123z" />
    <glyph glyph-name="four.tf" 
d="M577 260h147v-97h-147v-163h-120v163h-429v81l407 456h142v-440zM457 594l-297 -334h297v334z" />
    <glyph glyph-name="five.tf" 
d="M544 0h-474v105h424q37 0 52.5 15.5t15.5 52.5v83q0 38 -15 53t-53 15h-424v376h586v-105h-462v-168h350q72 0 107 -34.5t35 -107.5v-143q0 -73 -35 -107.5t-107 -34.5z" />
    <glyph glyph-name="six.tf" 
d="M291 429h253q73 0 107.5 -34t34.5 -108v-145q0 -73 -35 -107.5t-107 -34.5h-336q-72 0 -107 34.5t-35 107.5v372q0 96 45 141t141 45h404v-105h-366q-55 0 -77.5 -22.5t-22.5 -77.5v-100q28 34 101 34zM562 169v92q0 38 -15 53t-53 15h-236q-38 0 -53 -15t-15 -53v-92
q0 -37 15 -52.5t53 -15.5h236q38 0 53 15.5t15 52.5z" />
    <glyph glyph-name="seven.tf" 
d="M48 590v110h656v-94l-259 -280q-35 -36 -45 -70q-11 -36 -11 -93v-163h-126v161q0 80 16 128q16 47 63 97l194 204h-488z" />
    <glyph glyph-name="eight.tf" 
d="M611 366q77 -24 77 -127v-97q0 -73 -35 -107.5t-107 -34.5h-340q-72 0 -107 34.5t-35 107.5v97q0 103 77 127q-67 25 -67 123v69q0 73 35 107.5t107 34.5h320q72 0 107 -34.5t35 -107.5v-69q0 -98 -67 -123zM198 535v-60q0 -37 15 -52.5t53 -15.5h220q38 0 53 15.5
t15 52.5v60q0 38 -15 53t-53 15h-220q-38 0 -53 -15t-15 -53zM564 165v87q0 38 -15 53t-53 15h-240q-38 0 -53 -15t-15 -53v-87q0 -38 15 -53t53 -15h240q38 0 53 15t15 53z" />
    <glyph glyph-name="nine.tf" 
d="M208 700h336q72 0 107 -34.5t35 -107.5v-372q0 -96 -45 -141t-141 -45h-404v105h366q55 0 77.5 22.5t22.5 77.5v93q-28 -34 -101 -34h-253q-72 0 -107 34.5t-35 107.5v152q0 73 35 107.5t107 34.5zM258 364h236q38 0 53 15t15 53v99q0 37 -15 52.5t-53 15.5h-236
q-38 0 -53 -15.5t-15 -52.5v-99q0 -38 15 -53t53 -15z" />
    <glyph glyph-name="zero.subs" horiz-adv-x="482" 
d="M317 -100h-152q-60 0 -89 28.5t-29 89.5v184q0 61 29 89.5t89 28.5h152q60 0 89 -28.5t29 -89.5v-184q0 -61 -29 -89.5t-89 -28.5zM197 -10h88q25 0 35.5 10t10.5 35v150q0 25 -10.5 35t-35.5 10h-88q-25 0 -35.5 -10t-10.5 -35v-150q0 -25 10.5 -35t35.5 -10z" />
    <glyph glyph-name="one.subs" horiz-adv-x="446" 
d="M286 320v-335h126v-85h-379v85h148v241l-130 -13v89l186 18h49z" />
    <glyph glyph-name="two.subs" horiz-adv-x="482" 
d="M428 -12v-88h-381v135q0 45 22 67t70 29l161 22q18 2 24.5 9t6.5 24v21q0 17 -7 24t-24 7h-113q-18 0 -25 -7t-7 -24v-19h-100v40q0 48 22.5 70t69.5 22h196q47 0 69.5 -22t22.5 -70v-55q0 -45 -21.5 -67t-70.5 -29l-161 -22q-31 -4 -31 -33v-34h277z" />
    <glyph glyph-name="three.subs" horiz-adv-x="476" 
d="M386 117q47 -15 47 -79v-46q0 -48 -22 -70t-69 -22h-207q-47 0 -69.5 22t-22.5 70v55h100v-32q0 -18 7 -24.5t24 -6.5h124q18 0 24.5 6.5t6.5 24.5v32q0 17 -6.5 24t-24.5 7h-91v75h85q18 0 24.5 7t6.5 25v20q0 18 -6.5 24.5t-24.5 6.5h-112q-17 0 -24 -6.5t-7 -24.5v-27
h-100v50q0 48 22.5 70t69.5 22h195q47 0 69 -22t22 -70v-34q0 -62 -41 -77z" />
    <glyph glyph-name="four.subs" horiz-adv-x="500" 
d="M382 66h84v-80h-84v-86h-100v86h-249v67l233 267h116v-254zM282 221l-135 -155h135v155z" />
    <glyph glyph-name="five.subs" horiz-adv-x="463" 
d="M324 -100h-276v88h232q18 0 25 7t7 24v29q0 18 -7 25t-25 7h-232v240h349v-88h-245v-69h172q47 0 69 -22t22 -70v-79q0 -48 -22 -70t-69 -22z" />
    <glyph glyph-name="six.subs" horiz-adv-x="482" 
d="M212 163h131q47 0 69.5 -22t22.5 -69v-80q0 -48 -22.5 -70t-69.5 -22h-204q-47 0 -69.5 22t-22.5 70v210q0 61 29 89.5t89 28.5h252v-88h-220q-25 0 -35.5 -10t-10.5 -36v-43q17 20 61 20zM331 17v35q0 18 -7 25t-24 7h-118q-17 0 -24 -7t-7 -25v-35q0 -17 7 -24t24 -7
h118q17 0 24 7t7 24z" />
    <glyph glyph-name="seven.subs" horiz-adv-x="458" 
d="M33 227v93h391v-80l-147 -164q-26 -30 -26 -79v-97h-107v90q0 50 9 79q9 27 37 58l93 100h-250z" />
    <glyph glyph-name="eight.subs" horiz-adv-x="482" 
d="M389 117q47 -15 47 -79v-46q0 -48 -22 -70t-69 -22h-207q-47 0 -69.5 22t-22.5 70v46q0 64 48 79q-42 15 -42 77v34q0 48 22.5 70t69.5 22h195q47 0 69 -22t22 -70v-34q0 -62 -41 -77zM156 207v-25q0 -17 7 -24t24 -7h108q18 0 24.5 7t6.5 24v25q0 17 -6.5 24t-24.5 7
h-108q-17 0 -24 -7t-7 -24zM332 13v36q0 17 -6.5 24t-24.5 7h-120q-17 0 -24 -7t-7 -24v-36q0 -17 7 -24t24 -7h120q18 0 24.5 7t6.5 24z" />
    <glyph glyph-name="nine.subs" horiz-adv-x="482" 
d="M139 320h204q47 0 69.5 -22t22.5 -70v-210q0 -61 -29 -89.5t-89 -28.5h-252v88h220q25 0 35.5 10t10.5 36v40q-17 -20 -61 -20h-131q-47 0 -69.5 22t-22.5 69v83q0 48 22.5 70t69.5 22zM182 133h118q17 0 24 7t7 25v38q0 17 -7 24t-24 7h-118q-17 0 -24 -7t-7 -24v-38
q0 -18 7 -25t24 -7z" />
    <glyph glyph-name="zero.dnom" horiz-adv-x="482" 
d="M317 0h-152q-60 0 -89 28.5t-29 89.5v184q0 61 29 89.5t89 28.5h152q60 0 89 -28.5t29 -89.5v-184q0 -61 -29 -89.5t-89 -28.5zM197 90h88q25 0 35.5 10t10.5 35v150q0 25 -10.5 35t-35.5 10h-88q-25 0 -35.5 -10t-10.5 -35v-150q0 -25 10.5 -35t35.5 -10z" />
    <glyph glyph-name="one.dnom" horiz-adv-x="446" 
d="M286 420v-335h126v-85h-379v85h148v241l-130 -13v89l186 18h49z" />
    <glyph glyph-name="two.dnom" horiz-adv-x="482" 
d="M428 88v-88h-381v135q0 45 22 67t70 29l161 22q18 2 24.5 9t6.5 24v21q0 17 -7 24t-24 7h-113q-18 0 -25 -7t-7 -24v-19h-100v40q0 48 22.5 70t69.5 22h196q47 0 69.5 -22t22.5 -70v-55q0 -45 -21.5 -67t-70.5 -29l-161 -22q-31 -4 -31 -33v-34h277z" />
    <glyph glyph-name="three.dnom" horiz-adv-x="476" 
d="M386 217q47 -15 47 -79v-46q0 -48 -22 -70t-69 -22h-207q-47 0 -69.5 22t-22.5 70v55h100v-32q0 -18 7 -24.5t24 -6.5h124q18 0 24.5 6.5t6.5 24.5v32q0 17 -6.5 24t-24.5 7h-91v75h85q18 0 24.5 7t6.5 25v20q0 18 -6.5 24.5t-24.5 6.5h-112q-17 0 -24 -6.5t-7 -24.5v-27
h-100v50q0 48 22.5 70t69.5 22h195q47 0 69 -22t22 -70v-34q0 -62 -41 -77z" />
    <glyph glyph-name="four.dnom" horiz-adv-x="500" 
d="M382 166h84v-80h-84v-86h-100v86h-249v67l233 267h116v-254zM282 321l-135 -155h135v155z" />
    <glyph glyph-name="five.dnom" horiz-adv-x="463" 
d="M324 0h-276v88h232q18 0 25 7t7 24v29q0 18 -7 25t-25 7h-232v240h349v-88h-245v-69h172q47 0 69 -22t22 -70v-79q0 -48 -22 -70t-69 -22z" />
    <glyph glyph-name="six.dnom" horiz-adv-x="482" 
d="M212 263h131q47 0 69.5 -22t22.5 -69v-80q0 -48 -22.5 -70t-69.5 -22h-204q-47 0 -69.5 22t-22.5 70v210q0 61 29 89.5t89 28.5h252v-88h-220q-25 0 -35.5 -10t-10.5 -36v-43q17 20 61 20zM331 117v35q0 18 -7 25t-24 7h-118q-17 0 -24 -7t-7 -25v-35q0 -17 7 -24t24 -7
h118q17 0 24 7t7 24z" />
    <glyph glyph-name="seven.dnom" horiz-adv-x="458" 
d="M33 327v93h391v-80l-147 -164q-26 -30 -26 -79v-97h-107v90q0 50 9 79q9 27 37 58l93 100h-250z" />
    <glyph glyph-name="eight.dnom" horiz-adv-x="482" 
d="M389 217q47 -15 47 -79v-46q0 -48 -22 -70t-69 -22h-207q-47 0 -69.5 22t-22.5 70v46q0 64 48 79q-42 15 -42 77v34q0 48 22.5 70t69.5 22h195q47 0 69 -22t22 -70v-34q0 -62 -41 -77zM156 307v-25q0 -17 7 -24t24 -7h108q18 0 24.5 7t6.5 24v25q0 17 -6.5 24t-24.5 7
h-108q-17 0 -24 -7t-7 -24zM332 113v36q0 17 -6.5 24t-24.5 7h-120q-17 0 -24 -7t-7 -24v-36q0 -17 7 -24t24 -7h120q18 0 24.5 7t6.5 24z" />
    <glyph glyph-name="nine.dnom" horiz-adv-x="482" 
d="M139 420h204q47 0 69.5 -22t22.5 -70v-210q0 -61 -29 -89.5t-89 -28.5h-252v88h220q25 0 35.5 10t10.5 36v40q-17 -20 -61 -20h-131q-47 0 -69.5 22t-22.5 69v83q0 48 22.5 70t69.5 22zM182 233h118q17 0 24 7t7 25v38q0 17 -7 24t-24 7h-118q-17 0 -24 -7t-7 -24v-38
q0 -18 7 -25t24 -7z" />
    <glyph glyph-name="zero.numr" horiz-adv-x="482" 
d="M317 280h-152q-60 0 -89 28.5t-29 89.5v184q0 61 29 89.5t89 28.5h152q60 0 89 -28.5t29 -89.5v-184q0 -61 -29 -89.5t-89 -28.5zM197 370h88q25 0 35.5 10t10.5 35v150q0 25 -10.5 35t-35.5 10h-88q-25 0 -35.5 -10t-10.5 -35v-150q0 -25 10.5 -35t35.5 -10z" />
    <glyph glyph-name="one.numr" horiz-adv-x="446" 
d="M286 700v-335h126v-85h-379v85h148v241l-130 -13v89l186 18h49z" />
    <glyph glyph-name="two.numr" horiz-adv-x="482" 
d="M428 368v-88h-381v135q0 45 22 67t70 29l161 22q18 2 24.5 9t6.5 24v21q0 17 -7 24t-24 7h-113q-18 0 -25 -7t-7 -24v-19h-100v40q0 48 22.5 70t69.5 22h196q47 0 69.5 -22t22.5 -70v-55q0 -45 -21.5 -67t-70.5 -29l-161 -22q-31 -4 -31 -33v-34h277z" />
    <glyph glyph-name="three.numr" horiz-adv-x="476" 
d="M386 497q47 -15 47 -79v-46q0 -48 -22 -70t-69 -22h-207q-47 0 -69.5 22t-22.5 70v55h100v-32q0 -18 7 -24.5t24 -6.5h124q18 0 24.5 6.5t6.5 24.5v32q0 17 -6.5 24t-24.5 7h-91v75h85q18 0 24.5 7t6.5 25v20q0 18 -6.5 24.5t-24.5 6.5h-112q-17 0 -24 -6.5t-7 -24.5v-27
h-100v50q0 48 22.5 70t69.5 22h195q47 0 69 -22t22 -70v-34q0 -62 -41 -77z" />
    <glyph glyph-name="four.numr" horiz-adv-x="500" 
d="M382 446h84v-80h-84v-86h-100v86h-249v67l233 267h116v-254zM282 601l-135 -155h135v155z" />
    <glyph glyph-name="five.numr" horiz-adv-x="463" 
d="M324 280h-276v88h232q18 0 25 7t7 24v29q0 18 -7 25t-25 7h-232v240h349v-88h-245v-69h172q47 0 69 -22t22 -70v-79q0 -48 -22 -70t-69 -22z" />
    <glyph glyph-name="six.numr" horiz-adv-x="482" 
d="M212 543h131q47 0 69.5 -22t22.5 -69v-80q0 -48 -22.5 -70t-69.5 -22h-204q-47 0 -69.5 22t-22.5 70v210q0 61 29 89.5t89 28.5h252v-88h-220q-25 0 -35.5 -10t-10.5 -36v-43q17 20 61 20zM331 397v35q0 18 -7 25t-24 7h-118q-17 0 -24 -7t-7 -25v-35q0 -17 7 -24t24 -7
h118q17 0 24 7t7 24z" />
    <glyph glyph-name="seven.numr" horiz-adv-x="458" 
d="M33 607v93h391v-80l-147 -164q-26 -30 -26 -79v-97h-107v90q0 50 9 79q9 27 37 58l93 100h-250z" />
    <glyph glyph-name="eight.numr" horiz-adv-x="482" 
d="M389 497q47 -15 47 -79v-46q0 -48 -22 -70t-69 -22h-207q-47 0 -69.5 22t-22.5 70v46q0 64 48 79q-42 15 -42 77v34q0 48 22.5 70t69.5 22h195q47 0 69 -22t22 -70v-34q0 -62 -41 -77zM156 587v-25q0 -17 7 -24t24 -7h108q18 0 24.5 7t6.5 24v25q0 17 -6.5 24t-24.5 7
h-108q-17 0 -24 -7t-7 -24zM332 393v36q0 17 -6.5 24t-24.5 7h-120q-17 0 -24 -7t-7 -24v-36q0 -17 7 -24t24 -7h120q18 0 24.5 7t6.5 24z" />
    <glyph glyph-name="nine.numr" horiz-adv-x="482" 
d="M139 700h204q47 0 69.5 -22t22.5 -70v-210q0 -61 -29 -89.5t-89 -28.5h-252v88h220q25 0 35.5 10t10.5 36v40q-17 -20 -61 -20h-131q-47 0 -69.5 22t-22.5 69v83q0 48 22.5 70t69.5 22zM182 513h118q17 0 24 7t7 25v38q0 17 -7 24t-24 7h-118q-17 0 -24 -7t-7 -24v-38
q0 -18 7 -25t24 -7z" />
    <glyph glyph-name="zero.sups" horiz-adv-x="482" 
d="M317 380h-152q-60 0 -89 28.5t-29 89.5v184q0 61 29 89.5t89 28.5h152q60 0 89 -28.5t29 -89.5v-184q0 -61 -29 -89.5t-89 -28.5zM197 470h88q25 0 35.5 10t10.5 35v150q0 25 -10.5 35t-35.5 10h-88q-25 0 -35.5 -10t-10.5 -35v-150q0 -25 10.5 -35t35.5 -10z" />
    <glyph glyph-name="one.sups" horiz-adv-x="446" 
d="M286 800v-335h126v-85h-379v85h148v241l-130 -13v89l186 18h49z" />
    <glyph glyph-name="two.sups" horiz-adv-x="482" 
d="M428 468v-88h-381v135q0 45 22 67t70 29l161 22q18 2 24.5 9t6.5 24v21q0 17 -7 24t-24 7h-113q-18 0 -25 -7t-7 -24v-19h-100v40q0 48 22.5 70t69.5 22h196q47 0 69.5 -22t22.5 -70v-55q0 -45 -21.5 -67t-70.5 -29l-161 -22q-31 -4 -31 -33v-34h277z" />
    <glyph glyph-name="three.sups" horiz-adv-x="476" 
d="M386 597q47 -15 47 -79v-46q0 -48 -22 -70t-69 -22h-207q-47 0 -69.5 22t-22.5 70v55h100v-32q0 -18 7 -24.5t24 -6.5h124q18 0 24.5 6.5t6.5 24.5v32q0 17 -6.5 24t-24.5 7h-91v75h85q18 0 24.5 7t6.5 25v20q0 18 -6.5 24.5t-24.5 6.5h-112q-17 0 -24 -6.5t-7 -24.5v-27
h-100v50q0 48 22.5 70t69.5 22h195q47 0 69 -22t22 -70v-34q0 -62 -41 -77z" />
    <glyph glyph-name="four.sups" horiz-adv-x="500" 
d="M382 546h84v-80h-84v-86h-100v86h-249v67l233 267h116v-254zM282 701l-135 -155h135v155z" />
    <glyph glyph-name="five.sups" horiz-adv-x="463" 
d="M324 380h-276v88h232q18 0 25 7t7 24v29q0 18 -7 25t-25 7h-232v240h349v-88h-245v-69h172q47 0 69 -22t22 -70v-79q0 -48 -22 -70t-69 -22z" />
    <glyph glyph-name="six.sups" horiz-adv-x="482" 
d="M212 643h131q47 0 69.5 -22t22.5 -69v-80q0 -48 -22.5 -70t-69.5 -22h-204q-47 0 -69.5 22t-22.5 70v210q0 61 29 89.5t89 28.5h252v-88h-220q-25 0 -35.5 -10t-10.5 -36v-43q17 20 61 20zM331 497v35q0 18 -7 25t-24 7h-118q-17 0 -24 -7t-7 -25v-35q0 -17 7 -24t24 -7
h118q17 0 24 7t7 24z" />
    <glyph glyph-name="seven.sups" horiz-adv-x="458" 
d="M33 707v93h391v-80l-147 -164q-26 -30 -26 -79v-97h-107v90q0 50 9 79q9 27 37 58l93 100h-250z" />
    <glyph glyph-name="eight.sups" horiz-adv-x="482" 
d="M389 597q47 -15 47 -79v-46q0 -48 -22 -70t-69 -22h-207q-47 0 -69.5 22t-22.5 70v46q0 64 48 79q-42 15 -42 77v34q0 48 22.5 70t69.5 22h195q47 0 69 -22t22 -70v-34q0 -62 -41 -77zM156 687v-25q0 -17 7 -24t24 -7h108q18 0 24.5 7t6.5 24v25q0 17 -6.5 24t-24.5 7
h-108q-17 0 -24 -7t-7 -24zM332 493v36q0 17 -6.5 24t-24.5 7h-120q-17 0 -24 -7t-7 -24v-36q0 -17 7 -24t24 -7h120q18 0 24.5 7t6.5 24z" />
    <glyph glyph-name="nine.sups" horiz-adv-x="482" 
d="M139 800h204q47 0 69.5 -22t22.5 -70v-210q0 -61 -29 -89.5t-89 -28.5h-252v88h220q25 0 35.5 10t10.5 36v40q-17 -20 -61 -20h-131q-47 0 -69.5 22t-22.5 69v83q0 48 22.5 70t69.5 22zM182 613h118q17 0 24 7t7 25v38q0 17 -7 24t-24 7h-118q-17 0 -24 -7t-7 -24v-38
q0 -18 7 -25t24 -7z" />
    <glyph glyph-name="numbersign.numr" horiz-adv-x="482" 
d="M442 601v-65h-72l-14 -92h61v-65h-71l-16 -99h-77l16 99h-92l-16 -99h-77l16 99h-61v65h71l14 92h-60v65h70l16 99h77l-16 -99h92l16 99h77l-16 -99h62zM187 444h92l14 92h-92z" />
    <glyph glyph-name="numbersign.tf" 
d="M704 517v-80h-129l-28 -174h115v-80h-127l-29 -183h-95l29 183h-180l-29 -183h-95l29 183h-117v80h129l28 174h-115v80h127l29 183h95l-29 -183h180l29 183h95l-29 -183h117zM272 263h180l28 174h-180z" />
    <glyph glyph-name="cent.numr" horiz-adv-x="482" 
d="M435 594v-34h-100v18q0 22 -8 30t-30 8h-108q-22 0 -30 -8t-8 -30v-98q0 -22 8 -30t30 -8h108q22 0 30 8t8 30v22h100v-38q0 -56 -25 -81t-81 -25h-54v-60h-67v60h-55q-56 0 -81 25t-25 81v130q0 56 25 81t81 25h55v60h67v-60h54q56 0 81 -25t25 -81z" />
    <glyph glyph-name="dollar.numr" horiz-adv-x="482" 
d="M185 545l160 -16q50 -5 71 -25.5t21 -65.5v-66q0 -48 -22.5 -70t-69.5 -22h-71v-60h-67v60h-71q-47 0 -69.5 22t-22.5 70v39h100v-18q0 -18 7 -25t24 -7h127q17 0 24 7t7 25v21q0 17 -6 22.5t-25 7.5l-160 17q-50 5 -71 25.5t-21 65.5v56q0 48 22.5 70t69.5 22h65v60h67
v-60h63q47 0 69 -22t22 -70v-33h-99v12q0 18 -7 25t-25 7h-112q-17 0 -24 -7t-7 -25v-13q0 -17 6 -22t25 -7z" />
    <glyph glyph-name="Euro.numr" horiz-adv-x="494" 
d="M447 582v-51h-100v41q0 26 -10.5 36t-35.5 10h-86q-25 0 -35.5 -10t-10.5 -36v-18h124v-44h-124v-40h124v-44h-124v-18q0 -26 10.5 -36t35.5 -10h86q25 0 35.5 10t10.5 36v45h100v-55q0 -61 -29 -89.5t-89 -28.5h-146q-60 0 -89 28.5t-29 89.5v28h-48v44h48v40h-48v44h48
v28q0 61 29 89.5t89 28.5h146q60 0 89 -28.5t29 -89.5z" />
    <glyph glyph-name="florin.numr" horiz-adv-x="434" 
d="M392 610h-63q-26 0 -36.5 -10t-12.5 -35l-8 -78h108v-66h-115l-12 -119q-6 -63 -34 -90.5t-87 -27.5h-95v90h64q25 0 35 10t13 36l11 101h-111v66h118l10 95q7 63 34 90.5t86 27.5h95v-90z" />
    <glyph glyph-name="sterling.numr" horiz-adv-x="494" 
d="M447 582v-41h-100v31q0 26 -10.5 36t-35.5 10h-81q-25 0 -35 -10.5t-10 -35.5v-48h118v-58h-118v-100h141q17 0 23.5 7t6.5 24v40h101v-65q0 -48 -22.5 -70t-69.5 -22h-332v86h48v100h-54v58h54v58q0 61 29 89.5t89 28.5h140q60 0 89 -28.5t29 -89.5z" />
    <glyph glyph-name="yen.numr" horiz-adv-x="482" 
d="M435 425h-143v-43h144v-49h-144v-53h-104v53h-143v49h143v43h-143v49h119l-137 226h119l97 -175l97 175h114l-138 -226h119v-49z" />
    <glyph glyph-name="cent.tf" 
d="M686 534v-55h-120v36q0 49 -18 67t-67 18h-206q-49 0 -67 -18t-18 -67v-200q0 -49 18 -67t67 -18h206q49 0 67 18t18 67v43h120v-62q0 -89 -39 -127.5t-127 -38.5h-100v-100h-84v100h-104q-88 0 -127 38.5t-39 127.5v238q0 89 39 127.5t127 38.5h104v100h84v-100h100
q88 0 127 -38.5t39 -127.5z" />
    <glyph glyph-name="dollar.tf" 
d="M264 428l284 -31q77 -8 109.5 -39.5t32.5 -102.5v-113q0 -73 -35 -107.5t-107 -34.5h-130v-100h-85v100h-129q-72 0 -107 34.5t-35 107.5v63h120v-37q0 -38 15 -53t53 -15h248q38 0 53 15t15 53v59q0 36 -14.5 50t-53.5 18l-284 31q-77 9 -109.5 40.5t-32.5 101.5v90
q0 73 35 107.5t107 34.5h119v100h85v-100h116q72 0 107 -34.5t35 -107.5v-49h-120v23q0 38 -15 53t-53 15h-224q-38 0 -53 -15t-15 -53v-36q0 -36 14.5 -50t53.5 -18z" />
    <glyph glyph-name="Euro.tf" 
d="M686 514v-74h-120v62q0 55 -22.5 77.5t-77.5 22.5h-156q-55 0 -77.5 -22.5t-22.5 -77.5v-50h244v-59h-244v-86h244v-59h-244v-50q0 -55 22.5 -77.5t77.5 -22.5h156q55 0 77.5 22.5t22.5 77.5v71h120v-83q0 -96 -45 -141t-141 -45h-228q-96 0 -141 45t-45 141v62h-80v59
h80v86h-80v59h80v62q0 96 45 141t141 45h228q96 0 141 -45t45 -141z" />
    <glyph glyph-name="florin.tf" 
d="M684 594h-115q-54 0 -76.5 -21.5t-29.5 -78.5l-17 -161h218v-86h-227l-24 -221q-11 -99 -55 -142.5t-137 -43.5h-153v106h115q54 0 76.5 21.5t29.5 78.5l21 201h-222v86h232l19 181q11 99 55 142.5t137 43.5h153v-106z" />
    <glyph glyph-name="sterling.tf" 
d="M686 514v-60h-120v48q0 55 -22.5 77.5t-77.5 22.5h-150q-52 0 -74 -22.5t-22 -77.5v-109h234v-74h-234v-217h278q38 0 53 15t15 53v68h120v-96q0 -74 -34.5 -108t-107.5 -34h-528v102h80v217h-90v74h90v121q0 96 45 141t141 45h218q96 0 141 -45t45 -141z" />
    <glyph glyph-name="yen.tf" 
d="M589 700h135l-254 -389h224v-64h-256v-90h256v-64h-256v-93h-124v93h-256v64h256v90h-256v64h224l-254 389h142l209 -337z" />
    <glyph glyph-name="percent.numr" horiz-adv-x="547" 
d="M180 504h-80q-63 0 -63 63v70q0 63 63 63h80q63 0 63 -63v-70q0 -63 -63 -63zM143 280h-57l316 420h58zM117 556h47q21 0 21 21v49q0 13 -4.5 17t-16.5 4h-47q-12 0 -16.5 -4t-4.5 -17v-49q0 -21 21 -21zM447 280h-81q-63 0 -63 63v70q0 63 63 63h81q62 0 62 -63v-70
q0 -63 -62 -63zM383 333h47q12 0 16.5 4.5t4.5 16.5v49q0 12 -4.5 16.5t-16.5 4.5h-47q-12 0 -16.5 -4.5t-4.5 -16.5v-49q0 -12 4.5 -16.5t16.5 -4.5z" />
    <glyph glyph-name="perthousand.numr" horiz-adv-x="781" 
d="M180 504h-80q-63 0 -63 63v70q0 63 63 63h80q63 0 63 -63v-70q0 -63 -63 -63zM143 280h-57l316 420h58zM117 556h47q21 0 21 21v49q0 13 -4.5 17t-16.5 4h-47q-12 0 -16.5 -4t-4.5 -17v-49q0 -21 21 -21zM447 280h-81q-63 0 -63 63v70q0 63 63 63h81q62 0 62 -63v-70
q0 -63 -62 -63zM681 280h-81q-63 0 -63 63v70q0 63 63 63h81q62 0 62 -63v-70q0 -63 -62 -63zM383 333h47q12 0 16.5 4.5t4.5 16.5v49q0 12 -4.5 16.5t-16.5 4.5h-47q-12 0 -16.5 -4.5t-4.5 -16.5v-49q0 -12 4.5 -16.5t16.5 -4.5zM617 333h47q12 0 16.5 4.5t4.5 16.5v49
q0 12 -4.5 16.5t-16.5 4.5h-47q-12 0 -16.5 -4.5t-4.5 -16.5v-49q0 -12 4.5 -16.5t16.5 -4.5z" />
    <glyph glyph-name="percent.tf" horiz-adv-x="860" 
d="M276 376h-130q-104 0 -104 104v116q0 54 25.5 79t78.5 25h130q53 0 78.5 -25t25.5 -79v-116q0 -104 -104 -104zM196 0h-76l544 700h76zM167 442h88q28 0 40 12t12 40v88q0 28 -11.5 40t-40.5 12h-88q-29 0 -40.5 -12t-11.5 -40v-88q0 -28 12 -40t40 -12zM714 0h-130
q-104 0 -104 104v116q0 54 25.5 79t78.5 25h130q53 0 78.5 -25t25.5 -79v-116q0 -104 -104 -104zM605 66h88q28 0 40 12t12 40v88q0 28 -11.5 40t-40.5 12h-88q-29 0 -40.5 -12t-11.5 -40v-88q0 -28 12 -40t40 -12z" />
    <glyph glyph-name="perthousand.tf" horiz-adv-x="1250" 
d="M276 376h-130q-104 0 -104 104v116q0 54 25.5 79t78.5 25h130q53 0 78.5 -25t25.5 -79v-116q0 -104 -104 -104zM197 0h-77l543 700h77zM167 442h88q28 0 40 12t12 40v88q0 28 -11.5 40t-40.5 12h-88q-29 0 -40.5 -12t-11.5 -40v-88q0 -28 12 -40t40 -12zM714 0h-130
q-104 0 -104 104v116q0 54 25.5 79t78.5 25h130q53 0 78.5 -25t25.5 -79v-116q0 -104 -104 -104zM1104 0h-130q-104 0 -104 104v116q0 54 25.5 79t78.5 25h130q53 0 78.5 -25t25.5 -79v-116q0 -104 -104 -104zM605 66h88q28 0 40 12t12 40v88q0 28 -11.5 40t-40.5 12h-88
q-29 0 -40.5 -12t-11.5 -40v-88q0 -28 12 -40t40 -12zM995 66h88q28 0 40 12t12 40v88q0 28 -11.5 40t-40.5 12h-88q-29 0 -40.5 -12t-11.5 -40v-88q0 -28 12 -40t40 -12z" />
    <glyph glyph-name="brevecombcy" horiz-adv-x="0" 
d="M-137 576h-224q-73 0 -73 73v51h86v-36q0 -30 30 -30h138q30 0 30 30v36h86v-51q0 -73 -73 -73z" />
    <glyph glyph-name="ringacutecomb" horiz-adv-x="386" 
d="M272 628h8q54 0 54 -54v-26q0 -54 -54 -54h-174q-54 0 -54 54v26q0 54 54 54h53l53 72h131zM281 554v14q0 12 -4 16.5t-16 4.5h-136q-12 0 -16 -4.5t-4 -16.5v-14q0 -12 4 -16.5t16 -4.5h136q12 0 16 4.5t4 16.5z" />
    </font>
</defs>
</svg>
