<?xml version="1.0" standalone="no"?>
<!DOCTYPE svg PUBLIC "-//W3C//DTD SVG 1.1//EN" "http://www.w3.org/Graphics/SVG/1.1/DTD/svg11.dtd" >
<svg xmlns="http://www.w3.org/2000/svg" xmlns:xlink="http://www.w3.org/1999/xlink" version="1.1">
<metadata>
Created by FontForge 20170731 at Thu Jun 30 17:45:16 2016
 By Aleksey,,,
(c)2016 Richard Miller
</metadata>
<defs>
<font id="TacticSansExd-Ult" horiz-adv-x="864" >
  <font-face 
    font-family="TacticSansExd-Ult"
    font-weight="400"
    font-stretch="expanded"
    units-per-em="1000"
    panose-1="0 0 10 5 0 0 0 0 0 0"
    ascent="814"
    descent="-186"
    x-height="540"
    cap-height="700"
    bbox="-920 -250 1520 860"
    underline-thickness="50"
    underline-position="-200"
    unicode-range="U+0020-FB02"
  />
<missing-glyph horiz-adv-x="720" 
d="M10 0v700h700v-700h-700zM259 350l-169 -169l107 -107l169 169l169 -169l107 107l-169 169l169 169l-107 107l-169 -169l-169 169l-107 -107z" />
    <glyph glyph-name="ellipsis" unicode="&#x2e;&#x2e;&#x2e;" horiz-adv-x="1184" 
d="M328 0h-288v268h288v-268zM736 0h-288v268h288v-268zM1144 0h-288v268h288v-268z" />
    <glyph glyph-name="blackbox.liga" unicode="[&#x2b;]" horiz-adv-x="940" 
d="M120 0v700h700v-700h-700z" />
    <glyph glyph-name="checkbox.liga" unicode="[]" horiz-adv-x="940" 
d="M120 0v700h700v-700h-700zM706 590h-472v-480h472v480z" />
    <glyph glyph-name="checkround.liga" unicode="&#x28;&#x29;" horiz-adv-x="940" 
d="M726 95q-105 -105 -256 -105q-152 0 -255 105q-105 103 -105 255q0 151 105 256q104 104 255 104q150 0 256 -104q104 -106 104 -256q0 -151 -104 -255zM295 173q70 -73 175 -73t175 73q71 73 71 177t-71 178q-71 72 -175 72t-175 -72q-71 -74 -71 -178t71 -177z" />
    <glyph glyph-name="checkstar.liga" unicode="&#x7b;&#x7d;" horiz-adv-x="940" 
d="M378 437l92 283l92 -283h297l-240 -174l91 -283l-240 175l-240 -175l91 283l-240 174h297zM502 355l-32 99l-33 -99h-104l85 -60l-32 -100l84 61l83 -61l-32 100l85 60h-104z" />
    <glyph glyph-name="blackround.liga" unicode="&#x28;&#x2b;&#x29;" horiz-adv-x="940" 
d="M726 95q-105 -105 -256 -105q-152 0 -255 105q-105 103 -105 255q0 151 105 256q104 104 255 104q150 0 256 -104q104 -106 104 -256q0 -151 -104 -255z" />
    <glyph glyph-name="filledstar.liga" unicode="&#x7b;&#x2b;&#x7d;" horiz-adv-x="940" 
d="M378 437l92 283l92 -283h297l-240 -174l91 -283l-240 175l-240 -175l91 283l-240 174h297z" />
    <glyph glyph-name="ff.liga" unicode="ff" horiz-adv-x="1132" 
d="M1122 524h-188q-19 0 -25.5 -6.5t-6.5 -25.5v-20h220v-188h-220v-284h-252v284h-258v-284h-252v284h-130v188h130v62q0 87 40 126.5t126 39.5h278v-176h-160q-19 0 -25.5 -6.5t-6.5 -25.5v-20h258v62q0 87 40 126.5t126 39.5h306v-176z" />
    <glyph glyph-name=".notdef" horiz-adv-x="720" 
d="M10 0v700h700v-700h-700zM259 350l-169 -169l107 -107l169 169l169 -169l107 107l-169 169l169 169l-107 107l-169 -169l-169 169l-107 -107z" />
    <glyph glyph-name=".null" horiz-adv-x="0" 
 />
    <glyph glyph-name="nonmarkingreturn" horiz-adv-x="333" 
 />
    <glyph glyph-name="space" unicode=" " horiz-adv-x="300" 
 />
    <glyph glyph-name="exclam" unicode="!" horiz-adv-x="368" 
d="M90 270l-50 430h288l-50 -430h-188zM328 0h-288v230h288v-230z" />
    <glyph glyph-name="quotedbl" unicode="&#x22;" horiz-adv-x="556" 
d="M40 300v400h208v-400h-208zM308 300v400h208v-400h-208z" />
    <glyph glyph-name="numbersign" unicode="#" 
d="M830 506v-146h-136l-18 -100h110v-146h-136l-20 -114h-184l20 114h-138l-20 -114h-184l20 114h-110v146h136l18 100h-110v146h136l20 114h184l-20 -114h138l20 114h184l-20 -114h110zM354 260h138l18 100h-138z" />
    <glyph glyph-name="dollar" unicode="$" 
d="M332 454l334 -22q89 -7 127.5 -44.5t38.5 -121.5v-100q0 -87 -40 -126.5t-126 -39.5h-154v-100h-160v100h-154q-86 0 -126 39.5t-40 126.5v68h248v-32q0 -19 6.5 -25.5t25.5 -6.5h230q19 0 25.5 6.5t6.5 25.5v20q0 18 -6.5 24t-25.5 8l-334 22q-89 7 -127.5 44.5
t-38.5 121.5v92q0 87 40 126.5t126 39.5h144v100h160v-100h140q86 0 126 -39.5t40 -126.5v-60h-248v24q0 19 -6.5 25.5t-25.5 6.5h-206q-19 0 -25.5 -6.5t-6.5 -25.5v-12q0 -18 6.5 -24t25.5 -8z" />
    <glyph glyph-name="percent" unicode="%" horiz-adv-x="972" 
d="M317 300h-182q-105 0 -105 105v110q0 105 105 105h182q105 0 105 -105v-110q0 -105 -105 -105zM252 0h-132l600 620h132zM184 412h84q13 0 18 5t5 18v50q0 13 -4.5 18t-18.5 5h-84q-13 0 -18 -5t-5 -18v-50q0 -13 5 -18t18 -5zM837 0h-182q-105 0 -105 105v110
q0 105 105 105h182q105 0 105 -105v-110q0 -105 -105 -105zM704 112h84q13 0 18 5t5 18v50q0 13 -4.5 18t-18.5 5h-84q-13 0 -18 -5t-5 -18v-50q0 -13 5 -18t18 -5z" />
    <glyph glyph-name="ampersand" unicode="&#x26;" horiz-adv-x="978" 
d="M350 426h618v-144h-108v-116q0 -87 -40 -126.5t-126 -39.5h-498q-86 0 -126 39.5t-40 126.5v50q0 124 100 142q-70 30 -70 134v42q0 87 40 126.5t126 39.5h438q86 0 126 -39.5t40 -126.5v-62h-248v18q0 19 -6.5 25.5t-25.5 6.5h-200q-19 0 -25.5 -6.5t-6.5 -25.5v-32
q0 -19 6.5 -25.5t25.5 -6.5zM612 210v72h-292q-19 0 -25.5 -6.5t-6.5 -25.5v-40q0 -19 6.5 -25.5t25.5 -6.5h260q19 0 25.5 6.5t6.5 25.5z" />
    <glyph glyph-name="quotesingle" unicode="'" horiz-adv-x="288" 
d="M40 300v400h208v-400h-208z" />
    <glyph glyph-name="parenleft" unicode="(" horiz-adv-x="520" 
d="M500 -100h-200q-260 0 -260 260v380q0 260 260 260h200v-190h-164q-74 0 -74 -74v-372q0 -74 74 -74h164v-190z" />
    <glyph glyph-name="parenright" unicode=")" horiz-adv-x="520" 
d="M20 800h200q260 0 260 -260v-380q0 -260 -260 -260h-200v190h164q74 0 74 74v372q0 74 -74 74h-164v190z" />
    <glyph glyph-name="asterisk" unicode="*" horiz-adv-x="490" 
d="M414 628l43 -133l-119 -26l81 -90l-113 -82l-61 105l-61 -105l-113 82l81 90l-119 26l43 133l111 -48l-12 120h140l-12 -120z" />
    <glyph glyph-name="plus" unicode="+" 
d="M544 454h270v-208h-270v-206h-224v206h-270v208h270v206h224v-206z" />
    <glyph glyph-name="comma" unicode="," horiz-adv-x="368" 
d="M214 -160h-158l74 160h-90v268h288v-114q0 -98 -42 -178z" />
    <glyph glyph-name="hyphen" unicode="-" horiz-adv-x="516" 
d="M30 246v208h456v-208h-456z" />
    <glyph glyph-name="period" unicode="." horiz-adv-x="368" 
d="M328 0h-288v268h288v-268z" />
    <glyph glyph-name="slash" unicode="/" horiz-adv-x="540" 
d="M0 -100l380 900h160l-380 -900h-160z" />
    <glyph glyph-name="zero" unicode="0" 
d="M618 0h-372q-107 0 -158.5 51t-51.5 159v280q0 108 51.5 159t158.5 51h372q107 0 158.5 -51t51.5 -159v-280q0 -108 -51.5 -159t-158.5 -51zM340 212h184q26 0 36 10t10 36v184q0 26 -10 36t-36 10h-184q-26 0 -36 -10t-10 -36v-184q0 -26 10 -36t36 -10z" />
    <glyph glyph-name="one" unicode="1" horiz-adv-x="804" 
d="M552 700v-500h232v-200h-764v200h272v279l-242 -19v210l380 30h122z" />
    <glyph glyph-name="two" unicode="2" 
d="M816 200v-200h-780v238q0 83 39 123.5t127 48.5l336 28q19 2 25.5 8.5t6.5 23.5v19q0 19 -6.5 25.5t-25.5 6.5h-208q-19 0 -25.5 -6.5t-6.5 -25.5v-31h-248v76q0 87 40 126.5t126 39.5h446q86 0 126 -39.5t40 -126.5v-90q0 -83 -39 -123.5t-127 -48.5l-336 -28
q-19 -2 -25.5 -8.5t-6.5 -23.5v-12h522z" />
    <glyph glyph-name="three" unicode="3" 
d="M742 355q88 -22 88 -139v-50q0 -87 -40 -126.5t-126 -39.5h-464q-86 0 -126 39.5t-40 126.5v100h248v-46q0 -19 6.5 -25.5t25.5 -6.5h226q19 0 25.5 6.5t6.5 25.5v24q0 19 -6.5 25.5t-25.5 6.5h-202v156h192q19 0 25.5 6.5t6.5 25.5v16q0 19 -6.5 25.5t-25.5 6.5h-206
q-19 0 -25.5 -6.5t-6.5 -25.5v-38h-248v92q0 87 40 126.5t126 39.5h444q86 0 126 -39.5t40 -126.5v-42q0 -112 -78 -137z" />
    <glyph glyph-name="four" unicode="4" horiz-adv-x="894" 
d="M734 302h140v-188h-140v-114h-252v114h-462v158l422 428h292v-398zM482 496l-191 -194h191v194z" />
    <glyph glyph-name="five" unicode="5" horiz-adv-x="834" 
d="M632 0h-592v200h468q19 0 25.5 6.5t6.5 25.5v6q0 19 -6.5 25.5t-25.5 6.5h-468v430h728v-200h-470v-50h334q86 0 126 -39.5t40 -126.5v-118q0 -87 -40 -126.5t-126 -39.5z" />
    <glyph glyph-name="six" unicode="6" 
d="M396 444h266q86 0 126 -39.5t40 -126.5v-112q0 -87 -40 -126.5t-126 -39.5h-460q-86 0 -126 39.5t-40 126.5v324q0 108 51.5 159t158.5 51h552v-200h-458q-26 0 -36 -10t-10 -36v-41q27 31 102 31zM570 216v34q0 19 -6.5 25.5t-25.5 6.5h-212q-19 0 -25.5 -6.5
t-6.5 -25.5v-34q0 -19 6.5 -25.5t25.5 -6.5h212q19 0 25.5 6.5t6.5 25.5z" />
    <glyph glyph-name="seven" unicode="7" horiz-adv-x="824" 
d="M20 480v220h784v-190l-270 -247q-24 -22 -33 -45t-9 -62v-156h-264v146q0 98 19 145q18 47 77 97l112 92h-416z" />
    <glyph glyph-name="eight" unicode="8" 
d="M742 355q88 -22 88 -139v-50q0 -87 -40 -126.5t-126 -39.5h-464q-86 0 -126 39.5t-40 126.5v50q0 117 88 139q-78 25 -78 137v42q0 87 40 126.5t126 39.5h444q86 0 126 -39.5t40 -126.5v-42q0 -112 -78 -137zM302 484v-26q0 -19 6.5 -25.5t25.5 -6.5h196q19 0 25.5 6.5
t6.5 25.5v26q0 19 -6.5 25.5t-25.5 6.5h-196q-19 0 -25.5 -6.5t-6.5 -25.5zM572 216v34q0 19 -6.5 25.5t-25.5 6.5h-216q-19 0 -25.5 -6.5t-6.5 -25.5v-34q0 -19 6.5 -25.5t25.5 -6.5h216q19 0 25.5 6.5t6.5 25.5z" />
    <glyph glyph-name="nine" unicode="9" 
d="M202 700h460q86 0 126 -39.5t40 -126.5v-324q0 -108 -51.5 -159t-158.5 -51h-552v196h458q26 0 36 10t10 36v39q-27 -31 -102 -31h-266q-86 0 -126 39.5t-40 126.5v118q0 87 40 126.5t126 39.5zM326 412h212q19 0 25.5 6.5t6.5 25.5v34q0 19 -6.5 25.5t-25.5 6.5h-212
q-19 0 -25.5 -6.5t-6.5 -25.5v-34q0 -19 6.5 -25.5t25.5 -6.5z" />
    <glyph glyph-name="colon" unicode=":" horiz-adv-x="368" 
d="M328 300h-288v240h288v-240zM328 0h-288v240h288v-240z" />
    <glyph glyph-name="semicolon" unicode=";" horiz-adv-x="368" 
d="M328 300h-288v240h288v-240zM214 -160h-158l74 160h-90v240h288v-86q0 -98 -42 -178z" />
    <glyph glyph-name="less" unicode="&#x3c;" 
d="M50 454l764 230v-220l-419 -113l419 -113v-222l-764 230v208z" />
    <glyph glyph-name="equal" unicode="=" 
d="M50 386v198h764v-198h-764zM50 116v198h764v-198h-764z" />
    <glyph glyph-name="greater" unicode="&#x3e;" 
d="M50 462v222l764 -230v-208l-764 -230v220l419 113z" />
    <glyph glyph-name="question" unicode="?" horiz-adv-x="814" 
d="M504 240h-240v60q0 64 25 93q25 31 97 44l126 19q24 4 24 26v8q0 16 -6 22t-22 6h-212q-16 0 -22 -6t-6 -22v-46h-248v90q0 87 40 126.5t126 39.5h442q86 0 126 -39.5t40 -126.5v-60q0 -74 -34 -114.5t-114 -55.5l-120 -18q-22 -4 -22 -26v-20zM528 0h-288v200h288v-200z
" />
    <glyph glyph-name="at" unicode="@" horiz-adv-x="1000" 
d="M242 700h516q107 0 158.5 -51t51.5 -159v-180q0 -73 -34 -106.5t-106 -33.5h-143q-73 0 -96 47q-39 -31 -61 -38q-26 -9 -75 -9h-124q-131 0 -107 131l19 106q12 67 45 95t99 28h124q48 0 68 -7q22 -8 43 -32l19 39h144l-38 -220q-5 -24 16 -24h35q22 0 30 7t8 27v160
q0 60 -22.5 82t-81.5 22h-460q-59 0 -81.5 -22t-22.5 -82v-260q0 -60 22.5 -82t81.5 -22h634v-116h-662q-107 0 -158.5 51t-51.5 159v280q0 108 51.5 159t158.5 51zM564 309l11 9l11 64l-7 9q-9 11 -34 11h-110q-15 0 -20.5 -5t-8.5 -19l-9 -53q-3 -15 2 -21t20 -6h110
q22 0 35 11z" />
    <glyph glyph-name="A" unicode="A" horiz-adv-x="980" 
d="M984 0h-304l-39 94h-316l-39 -94h-290l342 700h304zM483 469l-85 -201h169z" />
    <glyph glyph-name="B" unicode="B" horiz-adv-x="908" 
d="M784 357q94 -21 94 -141v-50q0 -87 -40 -126.5t-126 -39.5h-672v700h652q86 0 126 -39.5t40 -126.5v-42q0 -106 -74 -135zM558 510h-250v-82h250q19 0 25.5 6.5t6.5 25.5v18q0 19 -6.5 25.5t-25.5 6.5zM610 222v26q0 19 -6.5 25.5t-25.5 6.5h-270v-90h270q19 0 25.5 6.5
t6.5 25.5z" />
    <glyph glyph-name="C" unicode="C" horiz-adv-x="910" 
d="M670 0h-428q-107 0 -158.5 51t-51.5 159v280q0 108 51.5 159t158.5 51h428q107 0 158.5 -51t51.5 -159v-96h-258v44q0 26 -10 36t-36 10h-230q-26 0 -36 -10t-10 -36v-176q0 -26 10 -36t36 -10h230q26 0 36 10t10 36v50h258v-102q0 -108 -51.5 -159t-158.5 -51z" />
    <glyph glyph-name="D" unicode="D" horiz-adv-x="940" 
d="M648 0h-608v700h608q126 0 193 -66.5t67 -193.5v-180q0 -127 -67 -193.5t-193 -66.5zM308 480v-260h276q56 0 56 56v148q0 56 -56 56h-276z" />
    <glyph glyph-name="E" unicode="E" horiz-adv-x="818" 
d="M308 272v-73h490v-199h-758v700h748v-199h-480v-65h440v-164h-440z" />
    <glyph glyph-name="F" unicode="F" horiz-adv-x="788" 
d="M778 700v-209h-470v-82h430v-188h-430v-221h-268v700h738z" />
    <glyph glyph-name="G" unicode="G" horiz-adv-x="942" 
d="M32 210v280q0 108 51.5 159t158.5 51h458q107 0 158.5 -51t51.5 -159v-56h-268v14q0 26 -10 36t-36 10h-250q-26 0 -36 -10t-10 -36v-216q0 -26 10 -36t36 -10h260q26 0 36 10t10 36v14h-188v152h446v-188q0 -108 -51.5 -159t-158.5 -51h-458q-107 0 -158.5 51t-51.5 159
z" />
    <glyph glyph-name="H" unicode="H" horiz-adv-x="928" 
d="M620 475v225h268v-700h-268v245h-312v-245h-268v700h268v-225h312z" />
    <glyph glyph-name="I" unicode="I" horiz-adv-x="360" 
d="M44 0v700h272v-700h-272z" />
    <glyph glyph-name="J" unicode="J" horiz-adv-x="846" 
d="M600 0h-370q-107 0 -158.5 51t-51.5 159v100h258v-48q0 -26 10 -36t36 -10h172q26 0 36 10t10 36v438h268v-490q0 -108 -51.5 -159t-158.5 -51z" />
    <glyph glyph-name="K" unicode="K" horiz-adv-x="934" 
d="M602 364l332 -364h-356l-270 324v-324h-268v700h268v-309l266 309h356z" />
    <glyph glyph-name="L" unicode="L" horiz-adv-x="758" 
d="M308 700v-470h440v-230h-708v700h268z" />
    <glyph glyph-name="M" unicode="M" horiz-adv-x="1056" 
d="M533 353l257 347h226v-700h-252v315l-166 -219h-140l-166 219v-315h-252v700h236z" />
    <glyph glyph-name="N" unicode="N" horiz-adv-x="948" 
d="M650 339v361h258v-700h-218l-392 371v-371h-258v700h228z" />
    <glyph glyph-name="O" unicode="O" horiz-adv-x="942" 
d="M700 0h-458q-107 0 -158.5 51t-51.5 159v280q0 108 51.5 159t158.5 51h458q107 0 158.5 -51t51.5 -159v-280q0 -108 -51.5 -159t-158.5 -51zM346 220h250q26 0 36 10t10 36v168q0 26 -10 36t-36 10h-250q-26 0 -36 -10t-10 -36v-168q0 -26 10 -36t36 -10z" />
    <glyph glyph-name="P" unicode="P" horiz-adv-x="888" 
d="M308 0h-268v700h638q99 0 144.5 -45t45.5 -145v-140q0 -100 -45.5 -145t-144.5 -45h-370v-180zM308 500v-130h254q22 0 30 8t8 30v54q0 22 -8 30t-30 8h-254z" />
    <glyph glyph-name="Q" unicode="Q" horiz-adv-x="942" 
d="M910 490v-280q0 -184 -159 -207l113 -143h-274l-103 140h-245q-107 0 -158.5 51t-51.5 159v280q0 108 51.5 159t158.5 51h458q107 0 158.5 -51t51.5 -159zM300 434v-168q0 -26 10 -36t36 -10h250q26 0 36 10t10 36v168q0 26 -10 36t-36 10h-250q-26 0 -36 -10t-10 -36z
" />
    <glyph glyph-name="R" unicode="R" horiz-adv-x="904" 
d="M737 231l161 -231h-304l-138 206h-148v-206h-268v700h638q99 0 144.5 -45t45.5 -145v-94q0 -84 -31.5 -128.5t-99.5 -56.5zM562 510h-254v-120h254q22 0 30 8t8 30v44q0 22 -8 30t-30 8z" />
    <glyph glyph-name="S" unicode="S" horiz-adv-x="922" 
d="M32 166v68h258v-32q0 -19 6.5 -25.5t25.5 -6.5h268q19 0 25.5 6.5t6.5 25.5v20q0 18 -6.5 24t-25.5 8l-382 22q-89 6 -127.5 44t-38.5 122v92q0 87 40 126.5t126 39.5h502q86 0 126 -39.5t40 -126.5v-60h-258v24q0 19 -6.5 25.5t-25.5 6.5h-244q-19 0 -25.5 -6.5
t-6.5 -25.5v-12q0 -18 6.5 -24t25.5 -8l382 -22q89 -6 127.5 -44t38.5 -122v-100q0 -87 -40 -126.5t-126 -39.5h-526q-86 0 -126 39.5t-40 126.5z" />
    <glyph glyph-name="T" unicode="T" horiz-adv-x="828" 
d="M10 700h808v-230h-270v-470h-268v470h-270v230z" />
    <glyph glyph-name="U" unicode="U" horiz-adv-x="920" 
d="M674 0h-428q-107 0 -158.5 51t-51.5 159v490h268v-430q0 -26 10 -36t36 -10h220q26 0 36 10t10 36v430h268v-490q0 -108 -51.5 -159t-158.5 -51z" />
    <glyph glyph-name="V" unicode="V" horiz-adv-x="952" 
d="M483 292l187 408h286l-354 -700h-252l-354 700h300z" />
    <glyph glyph-name="W" unicode="W" horiz-adv-x="1310" 
d="M903 333l129 367h282l-284 -700h-229l-146 359l-146 -359h-229l-284 700h296l128 -365l142 365h196z" />
    <glyph glyph-name="X" unicode="X" horiz-adv-x="928" 
d="M320 0h-320l286 357l-276 343h336l126 -172l126 172h320l-276 -343l286 -357h-336l-136 186z" />
    <glyph glyph-name="Y" unicode="Y" horiz-adv-x="912" 
d="M612 700h310l-332 -447v-253h-268v253l-332 447h324l149 -222z" />
    <glyph glyph-name="Z" unicode="Z" horiz-adv-x="888" 
d="M858 0h-828v180l398 300h-378v220h808v-180l-398 -300h398v-220z" />
    <glyph glyph-name="bracketleft" unicode="[" horiz-adv-x="500" 
d="M480 -100h-440v900h440v-190h-218v-520h218v-190z" />
    <glyph glyph-name="backslash" unicode="\" horiz-adv-x="540" 
d="M0 800h160l380 -900h-160z" />
    <glyph glyph-name="bracketright" unicode="]" horiz-adv-x="500" 
d="M20 800h440v-900h-440v190h218v520h-218v190z" />
    <glyph glyph-name="asciicircum" unicode="^" 
d="M532 700l292 -420h-246l-144 218l-144 -218h-250l292 420h200z" />
    <glyph glyph-name="underscore" unicode="_" horiz-adv-x="800" 
d="M0 -200v160h800v-160h-800z" />
    <glyph glyph-name="grave" unicode="`" horiz-adv-x="388" 
d="M380 570h-204l-136 130h264z" />
    <glyph glyph-name="a" unicode="a" horiz-adv-x="804" 
d="M220 540h360q99 0 144.5 -45t45.5 -145v-350h-212l-15 46q-36 -30 -66 -37q-31 -9 -99 -9h-218q-62 0 -96 33.5t-34 96.5v54q0 63 34 96.5t96 33.5h358v30q0 22 -8 30t-30 8h-152q-19 0 -25.5 -6.5t-6.5 -25.5v-11h-242v35q0 87 40 126.5t126 39.5zM308 138h153
q27 0 43 16l14 14v40h-210q-16 0 -21 -5t-5 -21v-18q0 -16 5 -21t21 -5z" />
    <glyph glyph-name="b" unicode="b" horiz-adv-x="818" 
d="M440 540h158q99 0 144.5 -45t45.5 -145v-160q0 -100 -45.5 -145t-144.5 -45h-158q-70 0 -101 10q-36 11 -72 44l-17 -54h-212v700h252v-195q29 21 59 28t91 7zM536 230v80q0 22 -8 30t-30 8h-143q-36 0 -51 -16l-14 -14v-96l14 -14q16 -16 51 -16h143q22 0 30 8t8 30z
" />
    <glyph glyph-name="c" unicode="c" horiz-adv-x="780" 
d="M30 190v160q0 100 45.5 145t144.5 45h340q99 0 144.5 -45t45.5 -145v-53h-242v13q0 22 -8 30t-30 8h-150q-22 0 -30 -8t-8 -30v-80q0 -22 8 -30t30 -8h150q22 0 30 8t8 30v17h242v-57q0 -100 -45.5 -145t-144.5 -45h-340q-99 0 -144.5 45t-45.5 145z" />
    <glyph glyph-name="d" unicode="d" horiz-adv-x="818" 
d="M528 505v195h252v-700h-212l-17 54q-36 -33 -71 -44q-33 -10 -102 -10h-158q-99 0 -144.5 45t-45.5 145v160q0 100 45.5 145t144.5 45h158q61 0 91 -7t59 -28zM320 192h143q35 0 51 16l14 14v96l-14 14q-15 16 -51 16h-143q-22 0 -30 -8t-8 -30v-80q0 -22 8 -30t30 -8z
" />
    <glyph glyph-name="e" unicode="e" horiz-adv-x="800" 
d="M220 540h360q99 0 144.5 -45t45.5 -145v-112h-488v-24q0 -22 8 -30t30 -8h176q19 0 25.5 6.5t6.5 25.5v5h242v-47q0 -87 -40 -126.5t-126 -39.5h-384q-99 0 -144.5 45t-45.5 145v160q0 100 45.5 145t144.5 45zM282 360v-16h246v16q0 22 -8 30t-30 8h-170q-22 0 -30 -8
t-8 -30z" />
    <glyph glyph-name="f" unicode="f" horiz-adv-x="622" 
d="M612 524h-188q-19 0 -25.5 -6.5t-6.5 -25.5v-20h220v-188h-220v-284h-252v284h-130v188h130v62q0 87 40 126.5t126 39.5h306v-176z" />
    <glyph glyph-name="g" unicode="g" horiz-adv-x="818" 
d="M551 486l17 54h212v-490q0 -108 -51.5 -159t-158.5 -51h-520v176h432q26 0 36 10t10 36v28q-30 -21 -62 -28.5t-88 -7.5h-158q-99 0 -144.5 45t-45.5 145v106q0 100 45.5 145t144.5 45h158q65 0 99 -10t74 -44zM514 238l14 14v82l-14 14q-15 16 -51 16h-143q-22 0 -30 -8
t-8 -30v-66q0 -22 8 -30t30 -8h143q35 0 51 16z" />
    <glyph glyph-name="h" unicode="h" horiz-adv-x="812" 
d="M450 540h138q99 0 144.5 -45t45.5 -145v-350h-252v304q0 22 -8 30t-30 8h-133q-36 0 -51 -16l-14 -14v-312h-252v700h252v-203q34 28 65 35q34 8 95 8z" />
    <glyph glyph-name="i" unicode="i" horiz-adv-x="340" 
d="M298 570h-256v130h256v-130zM298 0h-256v540h256v-540z" />
    <glyph glyph-name="j" unicode="j" horiz-adv-x="380" 
d="M338 570h-256v130h256v-130zM172 -160h-232v182h110q19 0 25.5 6.5t6.5 25.5v486h256v-534q0 -87 -40 -126.5t-126 -39.5z" />
    <glyph glyph-name="k" unicode="k" horiz-adv-x="838" 
d="M570 274l278 -274h-344l-214 237v-237h-252v700h252v-399l206 239h344z" />
    <glyph glyph-name="l" unicode="l" horiz-adv-x="340" 
d="M298 0h-256v700h256v-700z" />
    <glyph glyph-name="m" unicode="m" horiz-adv-x="1264" 
d="M910 540h130q99 0 144.5 -45t45.5 -145v-350h-252v304q0 22 -8 30t-30 8h-115q-36 0 -51 -16l-14 -14v-312h-252v304q0 22 -8 30t-30 8h-115q-36 0 -51 -16l-14 -14v-312h-252v540h212l17 -54q36 33 72 44q31 10 101 10h130q116 0 158 -61q45 40 77 50q36 11 105 11z" />
    <glyph glyph-name="n" unicode="n" horiz-adv-x="812" 
d="M440 540h148q99 0 144.5 -45t45.5 -145v-350h-252v304q0 22 -8 30t-30 8h-133q-36 0 -51 -16l-14 -14v-312h-252v540h212l17 -54q36 33 72 44q31 10 101 10z" />
    <glyph glyph-name="o" unicode="o" horiz-adv-x="810" 
d="M590 0h-370q-99 0 -144.5 45t-45.5 145v160q0 100 45.5 145t144.5 45h370q99 0 144.5 -45t45.5 -145v-160q0 -100 -45.5 -145t-144.5 -45zM320 192h170q22 0 30 8t8 30v80q0 22 -8 30t-30 8h-170q-22 0 -30 -8t-8 -30v-80q0 -22 8 -30t30 -8z" />
    <glyph glyph-name="p" unicode="p" horiz-adv-x="818" 
d="M440 540h158q99 0 144.5 -45t45.5 -145v-160q0 -100 -45.5 -145t-144.5 -45h-158q-61 0 -91 7t-59 28v-195h-252v700h212l17 -54q36 33 72 44q31 10 101 10zM536 230v80q0 22 -8 30t-30 8h-143q-36 0 -51 -16l-14 -14v-96l14 -14q16 -16 51 -16h143q22 0 30 8t8 30z" />
    <glyph glyph-name="q" unicode="q" horiz-adv-x="818" 
d="M551 486l17 54h212v-700h-252v193q-26 -20 -54 -26.5t-86 -6.5h-168q-99 0 -144.5 45t-45.5 145v160q0 100 45.5 145t144.5 45h158q69 0 102 -10q35 -11 71 -44zM514 208l14 14v96l-14 14q-15 16 -51 16h-143q-22 0 -30 -8t-8 -30v-80q0 -22 8 -30t30 -8h143q35 0 51 16z
" />
    <glyph glyph-name="r" unicode="r" horiz-adv-x="558" 
d="M430 540h118v-224h-193q-36 0 -51 -16l-14 -14v-286h-252v540h182l21 -68q47 44 81 56t108 12z" />
    <glyph glyph-name="s" unicode="s" horiz-adv-x="790" 
d="M30 134v50h242v-28q0 -14 4 -18t18 -4h192q14 0 18 4t4 18v14q0 13 -3.5 16.5t-18.5 5.5l-314 20q-132 10 -132 130v66q0 63 35 97.5t97 34.5h442q62 0 97 -35.5t35 -98.5v-42h-242v20q0 14 -4 18t-18 4h-168q-14 0 -18 -4t-4 -18v-8q0 -13 3.5 -16.5t18.5 -5.5l314 -20
q132 -10 132 -130v-72q0 -63 -35 -97.5t-97 -34.5h-466q-62 0 -97 35.5t-35 98.5z" />
    <glyph glyph-name="t" unicode="t" horiz-adv-x="642" 
d="M622 540v-188h-230v-128q0 -19 6.5 -25.5t25.5 -6.5h198v-192h-316q-86 0 -126 39.5t-40 126.5v186h-130v188h130l48 120h204v-120h230z" />
    <glyph glyph-name="u" unicode="u" horiz-adv-x="812" 
d="M522 540h252v-540h-212l-17 54q-36 -33 -71 -44q-33 -10 -102 -10h-148q-99 0 -144.5 45t-45.5 145v350h252v-304q0 -22 8 -30t30 -8h133q36 0 51 16l14 14v312z" />
    <glyph glyph-name="v" unicode="v" horiz-adv-x="818" 
d="M414 274l128 266h280l-302 -540h-222l-302 540h290z" />
    <glyph glyph-name="w" unicode="w" horiz-adv-x="1122" 
d="M769 289l91 251h262l-237 -540h-216l-107 261l-105 -261h-220l-237 540h272l93 -251l104 251h194z" />
    <glyph glyph-name="x" unicode="x" horiz-adv-x="812" 
d="M302 0h-312l239 276l-229 264h328l86 -116l86 116h312l-229 -264l239 -276h-328l-96 129z" />
    <glyph glyph-name="y" unicode="y" horiz-adv-x="818" 
d="M414 259l128 281h280l-296 -530q-56 -101 -115 -136q-59 -34 -177 -34h-178v192h188q23 0 34 4l-282 504h290z" />
    <glyph glyph-name="z" unicode="z" horiz-adv-x="774" 
d="M746 0h-718v146l313 212h-293v182h698v-146l-313 -212h313v-182z" />
    <glyph glyph-name="braceleft" unicode="{" horiz-adv-x="596" 
d="M366 560v-85q0 -94 -67 -125q67 -33 67 -126v-84q0 -28 11 -39t39 -11h160v-190h-212q-113 0 -166.5 53t-53.5 167v110q0 34 -34 34h-90v171h90q34 0 34 34v111q0 114 53.5 167t166.5 53h212v-190h-160q-28 0 -39 -11t-11 -39z" />
    <glyph glyph-name="bar" unicode="|" horiz-adv-x="298" 
d="M50 -100v900h198v-900h-198z" />
    <glyph glyph-name="braceright" unicode="}" horiz-adv-x="596" 
d="M486 436h90v-171h-90q-34 0 -34 -34v-111q0 -114 -53.5 -167t-166.5 -53h-212v190h160q28 0 39 11t11 39v85q0 93 67 126q-67 31 -67 125v84q0 28 -11 39t-39 11h-160v190h212q113 0 166.5 -53t53.5 -167v-110q0 -34 34 -34z" />
    <glyph glyph-name="asciitilde" unicode="~" 
d="M471 447l104 -96q5 -6 12 -6h12q7 0 7 7v152h208v-208q0 -54 -23 -77t-77 -23h-178q-56 0 -85 12q-29 11 -58 46l-104 95q-5 6 -12 6h-12q-7 0 -7 -7v-152h-208v208q0 54 23 77t77 23h178q55 0 85 -11q29 -11 58 -46z" />
    <glyph glyph-name="exclamdown" unicode="&#xa1;" horiz-adv-x="368" 
d="M40 700h288v-230h-288v230zM278 430l50 -430h-288l50 430h188z" />
    <glyph glyph-name="cent" unicode="&#xa2;" 
d="M828 510v-63h-248v19q0 22 -8 30t-30 8h-210q-22 0 -30 -8t-8 -30v-102q0 -22 8 -30t30 -8h210q22 0 30 8t8 30v23h248v-67q0 -100 -45.5 -145t-144.5 -45h-124v-100h-160v100h-128q-99 0 -144.5 45t-45.5 145v190q0 100 45.5 145t144.5 45h128v100h160v-100h124
q99 0 144.5 -45t45.5 -145z" />
    <glyph glyph-name="sterling" unicode="&#xa3;" horiz-adv-x="892" 
d="M856 490v-76h-248v48q0 26 -10 36t-36 10h-184q-19 0 -27.5 -10t-8.5 -36v-36h212v-132h-212v-92h234q19 0 25.5 6.5t6.5 25.5v58h248v-126q0 -87 -40 -126.5t-126 -39.5h-680v202h74v92h-84v132h84v64q0 108 51.5 159t158.5 51h352q107 0 158.5 -51t51.5 -159z" />
    <glyph glyph-name="currency" unicode="&#xa4;" 
d="M758 430v-160q0 -20 -5 -48l91 -91l-111 -111l-82 82q-33 -12 -73 -12h-292q-40 0 -73 12l-82 -82l-111 111l91 91q-5 28 -5 48v160q0 20 5 48l-91 91l111 111l82 -82q33 12 73 12h292q40 0 73 -12l82 82l111 -111l-91 -91q5 -28 5 -48zM354 276h156q26 0 36 10t10 36v56
q0 26 -10 36t-36 10h-156q-26 0 -36 -10t-10 -36v-56q0 -26 10 -36t36 -10z" />
    <glyph glyph-name="yen" unicode="&#xa5;" 
d="M558 700h296l-244 -360h214v-106h-263v-46h263v-106h-263v-82h-258v82h-263v106h263v46h-263v106h214l-244 360h310l119 -209z" />
    <glyph glyph-name="brokenbar" unicode="&#xa6;" horiz-adv-x="298" 
d="M50 460v340h198v-340h-198zM50 -100v340h198v-340h-198z" />
    <glyph glyph-name="section" unicode="&#xa7;" horiz-adv-x="1058" 
d="M438 558l444 -30q79 -6 112.5 -41.5t33.5 -114.5v-66q0 -72 -26.5 -109t-83.5 -45v-10v-76q0 -87 -40 -126.5t-126 -39.5h-436q-86 0 -126 39.5t-40 126.5v64h258v-28q0 -19 6.5 -25.5t25.5 -6.5h180q17 0 23.5 6.5t6.5 23.5v12q0 17 -5.5 22.5t-24.5 7.5l-444 30
q-79 6 -112.5 41.5t-33.5 114.5v66q0 72 26.5 109t83.5 45v10v76q0 87 40 126.5t126 39.5h436q86 0 126 -39.5t40 -126.5v-64h-258v28q0 19 -6.5 25.5t-25.5 6.5h-180q-17 0 -23.5 -6.5t-6.5 -23.5v-12q0 -17 5.5 -22.5t24.5 -7.5zM318 338l440 -30q2 8 2 12v22
q0 11 -4.5 15t-15.5 5l-440 30q-2 -8 -2 -12v-22q0 -11 4.5 -15t15.5 -5z" />
    <glyph glyph-name="dieresis" unicode="&#xa8;" horiz-adv-x="480" 
d="M232 570h-192v130h192v-130zM472 570h-192v130h192v-130z" />
    <glyph glyph-name="copyright" unicode="&#xa9;" horiz-adv-x="928" 
d="M658 0h-388q-103 0 -166 63q-64 63 -64 167v240q0 104 64 167q63 63 166 63h388q102 0 167 -63q63 -63 63 -167v-240q0 -104 -63 -167q-65 -63 -167 -63zM286 70h356q83 0 127.5 44.5t44.5 127.5v216q0 83 -44.5 127.5t-127.5 44.5h-356q-83 0 -127.5 -44.5t-44.5 -127.5
v-216q0 -83 44.5 -127.5t127.5 -44.5zM618 126h-308q-71 0 -105.5 34t-34.5 106v168q0 72 34.5 106t105.5 34h308q71 0 105.5 -34t34.5 -106v-59h-175v25q0 17 -6.5 23.5t-23.5 6.5h-171q-17 0 -24 -6.5t-7 -23.5v-100q0 -17 7 -23.5t24 -6.5h171q17 0 23.5 6.5t6.5 23.5v29
h175v-63q0 -72 -34.5 -106t-105.5 -34z" />
    <glyph glyph-name="ordfeminine" unicode="&#xaa;" horiz-adv-x="483" 
d="M132 700h216q60 0 87.5 -27t27.5 -87v-210h-130l-9 27q-20 -17 -39 -22t-60 -5h-130q-37 0 -57.5 20.5t-20.5 57.5v33q0 37 20.5 57.5t57.5 20.5h214v17q0 12 -4.5 16.5t-17.5 4.5h-90q-11 0 -14.5 -3.5t-3.5 -14.5v-7h-148v22q0 52 24.5 76t76.5 24zM186 461h91
q16 0 25 9l7 7v23h-123q-9 0 -12 -3t-3 -12v-10q0 -9 3 -11.5t12 -2.5z" />
    <glyph glyph-name="guillemotleft" unicode="&#xab;" horiz-adv-x="1042" 
d="M40 276v148l456 180v-188l-197 -64l197 -64v-192zM546 424l456 180v-188l-197 -64l197 -64v-192l-456 180v148z" />
    <glyph glyph-name="logicalnot" unicode="&#xac;" 
d="M586 246h-536v208h764v-368h-228v160z" />
    <glyph glyph-name="uni00AD" unicode="&#xad;" horiz-adv-x="516" 
d="M30 246v208h456v-208h-456z" />
    <glyph glyph-name="registered" unicode="&#xae;" horiz-adv-x="391" 
d="M143 700h105q113 0 113 -113v-92q0 -113 -113 -113h-105q-113 0 -113 113v92q0 113 113 113zM313 497v88q0 39 -15.5 54t-53.5 15h-97q-38 0 -53.5 -15t-15.5 -54v-88q0 -38 15.5 -53.5t53.5 -15.5h97q38 0 53.5 15.5t15.5 53.5zM275 576v-18q0 -36 -29 -41l36 -54h-60
l-27 46h-21v-46h-54v155h113q42 0 42 -42zM213 579h-39v-32h39q9 0 9 8v15q0 9 -9 9z" />
    <glyph glyph-name="overscore" unicode="&#xaf;" horiz-adv-x="520" 
d="M512 580h-472v110h472v-110z" />
    <glyph glyph-name="degree" unicode="&#xb0;" horiz-adv-x="440" 
d="M283 330h-126q-59 0 -93 34t-34 93v116q0 60 34 93.5t93 33.5h126q59 0 93 -33.5t34 -93.5v-116q0 -59 -34 -93t-93 -34zM194 454h52q17 0 23.5 6.5t6.5 23.5v62q0 18 -6.5 24t-23.5 6h-52q-17 0 -23.5 -6t-6.5 -24v-62q0 -17 6.5 -23.5t23.5 -6.5z" />
    <glyph glyph-name="plusminus" unicode="&#xb1;" 
d="M544 700v-146h270v-188h-270v-146h-224v146h-270v188h270v146h224zM814 0h-764v188h764v-188z" />
    <glyph glyph-name="uni00B2" unicode="&#xb2;" horiz-adv-x="536" 
d="M500 403v-123h-471v144q0 50 24 74.5t76 29.5l200 16q12 2 15 5t3 13v11q0 11 -3.5 14.5t-14.5 3.5h-120q-11 0 -14.5 -3.5t-3.5 -14.5v-19h-154v46q0 52 24.5 76t76.5 24h268q52 0 76.5 -24t24.5 -76v-52q0 -50 -24 -74.5t-76 -29.5l-200 -16q-12 -2 -15 -5t-3 -13v-7
h311z" />
    <glyph glyph-name="uni00B3" unicode="&#xb3;" horiz-adv-x="534" 
d="M453 493q54 -13 54 -84v-29q0 -52 -24 -76t-76 -24h-280q-52 0 -76 24t-24 76v61h154v-27q0 -11 3.5 -14.5t14.5 -3.5h130q11 0 14.5 3.5t3.5 14.5v13q0 11 -3.5 14.5t-14.5 3.5h-118v94h112q11 0 14.5 3.5t3.5 14.5v9q0 11 -3.5 14.5t-14.5 3.5h-118q-11 0 -14.5 -3.5
t-3.5 -14.5v-22h-154v56q0 52 24 76t76 24h268q52 0 76 -24t24 -76v-24q0 -66 -48 -83z" />
    <glyph glyph-name="acute" unicode="&#xb4;" horiz-adv-x="388" 
d="M380 700l-136 -130h-204l76 130h264z" />
    <glyph glyph-name="paragraph" unicode="&#xb6;" horiz-adv-x="926" 
d="M20 390v120q0 100 45.5 145t144.5 45h636v-700h-228v500h-76v-500h-228v200h-104q-99 0 -144.5 45t-45.5 145z" />
    <glyph glyph-name="middot" unicode="&#xb7;" horiz-adv-x="368" 
d="M328 216h-288v268h288v-268z" />
    <glyph glyph-name="cedilla" unicode="&#xb8;" horiz-adv-x="320" 
d="M256 -160h-216v66h151q7 0 7 7v4q0 7 -7 7h-109v32l20 64h84l-12 -38h82q30 0 43 -13t13 -43v-30q0 -30 -13 -43t-43 -13z" />
    <glyph glyph-name="uni00B9" unicode="&#xb9;" horiz-adv-x="498" 
d="M336 700v-297h143v-123h-460v123h157v161l-139 -11v129l221 18h78z" />
    <glyph glyph-name="ordmasculine" unicode="&#xba;" horiz-adv-x="486" 
d="M354 376h-222q-60 0 -87.5 27t-27.5 88v95q0 60 27.5 87t87.5 27h222q60 0 87.5 -27t27.5 -87v-95q0 -61 -27.5 -88t-87.5 -27zM192 494h101q13 0 17.5 4.5t4.5 16.5v46q0 12 -4.5 16.5t-17.5 4.5h-101q-12 0 -16.5 -4.5t-4.5 -16.5v-46q0 -12 4.5 -16.5t16.5 -4.5z" />
    <glyph glyph-name="guillemotright" unicode="&#xbb;" horiz-adv-x="1042" 
d="M237 348l-197 64v192l456 -180v-148l-456 -180v188zM546 412v192l456 -180v-148l-456 -180v188l197 64z" />
    <glyph glyph-name="onequarter" unicode="&#xbc;" horiz-adv-x="1197" 
d="M336 403h142v-123h-460v123h157v161l-139 -11v129l221 18h79v-297zM295 0l582 700h138l-582 -700h-138zM1094 182h84v-115h-84v-67h-155v67h-275v97l250 256h180v-238zM939 292l-109 -110h109v110z" />
    <glyph glyph-name="onehalf" unicode="&#xbd;" horiz-adv-x="1305" 
d="M336 403h142v-123h-460v123h157v161l-139 -11v129l221 18h79v-297zM295 0l582 700h138l-582 -700h-138zM1176 163l-200 -16q-12 -2 -15 -5t-3 -13v-6h311v-123h-471v144q0 50 24 74.5t76 29.5l201 16q12 2 15 5t3 13v11q0 11 -3.5 14.5t-14.5 3.5h-121q-10 0 -14 -3.5
t-4 -14.5v-19h-154v46q0 52 24.5 76t76.5 24h268q52 0 76.5 -24t24.5 -76v-53q0 -50 -24 -74.5t-76 -29.5z" />
    <glyph glyph-name="threequarters" unicode="&#xbe;" horiz-adv-x="1210" 
d="M508 409v-29q0 -52 -24 -76t-76 -24h-280q-52 0 -76 24t-24 76v61h153v-27q0 -11 3.5 -14.5t14.5 -3.5h131q11 0 14.5 3.5t3.5 14.5v13q0 11 -3.5 14.5t-14.5 3.5h-118v94h112q11 0 14.5 3.5t3.5 14.5v9q0 11 -3.5 14.5t-14.5 3.5h-119q-11 0 -14.5 -3.5t-3.5 -14.5v-22
h-153v56q0 52 24 76t76 24h268q52 0 76 -24t24 -76v-24q0 -66 -48 -83q54 -13 54 -84zM309 0l582 700h138l-582 -700h-138zM1107 182h85v-115h-85v-67h-155v67h-274v97l249 256h180v-238zM952 292l-109 -110h109v110z" />
    <glyph glyph-name="questiondown" unicode="&#xbf;" horiz-adv-x="814" 
d="M286 700h288v-200h-288v200zM310 460h240v-60q0 -63 -24 -93q-26 -31 -98 -44l-126 -19q-24 -4 -24 -26v-8q0 -16 6 -22t22 -6h212q16 0 22 6t6 22v46h248v-90q0 -87 -40 -126.5t-126 -39.5h-442q-86 0 -126 39.5t-40 126.5v60q0 74 34 114.5t114 55.5l120 18q22 4 22 26
v20z" />
    <glyph glyph-name="Agrave" unicode="&#xc0;" horiz-adv-x="980" 
d="M516 860l76 -130h-204l-136 130h264zM984 0h-304l-39 94h-316l-39 -94h-290l342 700h304zM483 469l-85 -201h169z" />
    <glyph glyph-name="Aacute" unicode="&#xc1;" horiz-adv-x="980" 
d="M464 860h264l-136 -130h-204zM984 0h-304l-39 94h-316l-39 -94h-290l342 700h304zM483 469l-85 -201h169z" />
    <glyph glyph-name="Acircumflex" unicode="&#xc2;" horiz-adv-x="980" 
d="M565 730l-75 42l-75 -42h-176l128 130h246l128 -130h-176zM984 0h-304l-39 94h-316l-39 -94h-290l342 700h304zM483 469l-85 -201h169z" />
    <glyph glyph-name="Atilde" unicode="&#xc3;" horiz-adv-x="980" 
d="M398 780v-50h-137v82q0 48 49 48h177q24 0 36 -5t23 -21l18 -25q4 -4 8 -4h5q5 0 5 5v50h137v-82q0 -48 -49 -48h-177q-24 0 -36 5t-23 21l-18 25q-4 4 -8 4h-5q-5 0 -5 -5zM984 0h-304l-39 94h-316l-39 -94h-290l342 700h304zM483 469l-85 -201h169z" />
    <glyph glyph-name="Adieresis" unicode="&#xc4;" horiz-adv-x="980" 
d="M274 860h192v-130h-192v130zM514 860h192v-130h-192v130zM984 0h-304l-39 94h-316l-39 -94h-290l342 700h304zM483 469l-85 -201h169z" />
    <glyph glyph-name="Aring" unicode="&#xc5;" horiz-adv-x="980" 
d="M600 720h-220q-30 0 -43 13t-13 43v28q0 30 13 43t43 13h220q30 0 43 -13t13 -43v-28q0 -30 -13 -43t-43 -13zM408 795v-10q0 -11 3 -14t13 -3h132q10 0 13 3t3 14v10q0 11 -3 14t-13 3h-132q-10 0 -13 -3t-3 -14zM984 0h-304l-39 94h-316l-39 -94h-290l342 700h304z
M483 469l-85 -201h169z" />
    <glyph glyph-name="AE" unicode="&#xc6;" horiz-adv-x="1286" 
d="M848 272l32 -73h386v-199h-601l-34 88h-308l-37 -88h-290l342 700h918v-199h-510l29 -65h441v-164h-368zM482 468l-86 -206h167z" />
    <glyph glyph-name="Ccedilla" unicode="&#xc7;" horiz-adv-x="910" 
d="M880 490v-96h-258v44q0 26 -10 36t-36 10h-230q-26 0 -36 -10t-10 -36v-176q0 -26 10 -36t36 -10h230q26 0 36 10t10 36v50h258v-102q0 -108 -51.5 -159t-158.5 -51h-191l-6 -18h82q30 0 43 -13t13 -43v-30q0 -30 -13 -43t-43 -13h-216v66h151q7 0 7 7v4q0 7 -7 7h-109
v32l14 44h-153q-107 0 -158.5 51t-51.5 159v280q0 108 51.5 159t158.5 51h428q107 0 158.5 -51t51.5 -159z" />
    <glyph glyph-name="Egrave" unicode="&#xc8;" horiz-adv-x="818" 
d="M435 860l76 -130h-204l-136 130h264zM308 272v-73h490v-199h-758v700h748v-199h-480v-65h440v-164h-440z" />
    <glyph glyph-name="Eacute" unicode="&#xc9;" horiz-adv-x="818" 
d="M383 860h264l-136 -130h-204zM308 272v-73h490v-199h-758v700h748v-199h-480v-65h440v-164h-440z" />
    <glyph glyph-name="Ecircumflex" unicode="&#xca;" horiz-adv-x="818" 
d="M484 730l-75 42l-75 -42h-176l128 130h246l128 -130h-176zM308 272v-73h490v-199h-758v700h748v-199h-480v-65h440v-164h-440z" />
    <glyph glyph-name="Edieresis" unicode="&#xcb;" horiz-adv-x="818" 
d="M193 860h192v-130h-192v130zM433 860h192v-130h-192v130zM308 272v-73h490v-199h-758v700h748v-199h-480v-65h440v-164h-440z" />
    <glyph glyph-name="Igrave" unicode="&#xcc;" horiz-adv-x="360" 
d="M282 730h-204l-136 130h264zM44 0v700h272v-700h-272z" />
    <glyph glyph-name="Iacute" unicode="&#xcd;" horiz-adv-x="360" 
d="M418 860l-136 -130h-204l76 130h264zM44 0v700h272v-700h-272z" />
    <glyph glyph-name="Icircumflex" unicode="&#xce;" horiz-adv-x="360" 
d="M105 730h-176l128 130h246l128 -130h-176l-75 42zM44 0v700h272v-700h-272z" />
    <glyph glyph-name="Idieresis" unicode="&#xcf;" horiz-adv-x="360" 
d="M156 730h-192v130h192v-130zM396 730h-192v130h192v-130zM44 0v700h272v-700h-272z" />
    <glyph glyph-name="Eth" unicode="&#xd0;" horiz-adv-x="1000" 
d="M100 700h608q126 0 193 -66.5t67 -193.5v-180q0 -127 -67 -193.5t-193 -66.5h-608v278h-80v144h80v278zM700 276v148q0 56 -56 56h-276v-58h198v-144h-198v-58h276q56 0 56 56z" />
    <glyph glyph-name="Ntilde" unicode="&#xd1;" horiz-adv-x="948" 
d="M376 780v-50h-137v82q0 48 49 48h177q24 0 36 -5t23 -21l18 -25q4 -4 8 -4h5q5 0 5 5v50h137v-82q0 -48 -49 -48h-177q-24 0 -36 5t-23 21l-18 25q-4 4 -8 4h-5q-5 0 -5 -5zM650 339v361h258v-700h-218l-392 371v-371h-258v700h228z" />
    <glyph glyph-name="Ograve" unicode="&#xd2;" horiz-adv-x="942" 
d="M573 730h-204l-136 130h264zM700 0h-458q-107 0 -158.5 51t-51.5 159v280q0 108 51.5 159t158.5 51h458q107 0 158.5 -51t51.5 -159v-280q0 -108 -51.5 -159t-158.5 -51zM346 220h250q26 0 36 10t10 36v168q0 26 -10 36t-36 10h-250q-26 0 -36 -10t-10 -36v-168
q0 -26 10 -36t36 -10z" />
    <glyph glyph-name="Oacute" unicode="&#xd3;" horiz-adv-x="942" 
d="M709 860l-136 -130h-204l76 130h264zM700 0h-458q-107 0 -158.5 51t-51.5 159v280q0 108 51.5 159t158.5 51h458q107 0 158.5 -51t51.5 -159v-280q0 -108 -51.5 -159t-158.5 -51zM346 220h250q26 0 36 10t10 36v168q0 26 -10 36t-36 10h-250q-26 0 -36 -10t-10 -36v-168
q0 -26 10 -36t36 -10z" />
    <glyph glyph-name="Ocircumflex" unicode="&#xd4;" horiz-adv-x="942" 
d="M396 730h-176l128 130h246l128 -130h-176l-75 42zM700 0h-458q-107 0 -158.5 51t-51.5 159v280q0 108 51.5 159t158.5 51h458q107 0 158.5 -51t51.5 -159v-280q0 -108 -51.5 -159t-158.5 -51zM346 220h250q26 0 36 10t10 36v168q0 26 -10 36t-36 10h-250q-26 0 -36 -10
t-10 -36v-168q0 -26 10 -36t36 -10z" />
    <glyph glyph-name="Otilde" unicode="&#xd5;" horiz-adv-x="942" 
d="M379 730h-137v82q0 48 49 48h177q24 0 36 -5t23 -21l18 -25q4 -4 8 -4h5q5 0 5 5v50h137v-82q0 -48 -49 -48h-177q-24 0 -36 5t-23 21l-18 25q-4 4 -8 4h-5q-5 0 -5 -5v-50zM700 0h-458q-107 0 -158.5 51t-51.5 159v280q0 108 51.5 159t158.5 51h458q107 0 158.5 -51
t51.5 -159v-280q0 -108 -51.5 -159t-158.5 -51zM346 220h250q26 0 36 10t10 36v168q0 26 -10 36t-36 10h-250q-26 0 -36 -10t-10 -36v-168q0 -26 10 -36t36 -10z" />
    <glyph glyph-name="Odieresis" unicode="&#xd6;" horiz-adv-x="942" 
d="M447 730h-192v130h192v-130zM687 730h-192v130h192v-130zM700 0h-458q-107 0 -158.5 51t-51.5 159v280q0 108 51.5 159t158.5 51h458q107 0 158.5 -51t51.5 -159v-280q0 -108 -51.5 -159t-158.5 -51zM346 220h250q26 0 36 10t10 36v168q0 26 -10 36t-36 10h-250
q-26 0 -36 -10t-10 -36v-168q0 -26 10 -36t36 -10z" />
    <glyph glyph-name="multiply" unicode="&#xd7;" 
d="M679 684l135 -155l-219 -179l219 -179l-135 -155l-247 201l-247 -201l-135 155l219 179l-219 179l135 155l247 -201z" />
    <glyph glyph-name="Oslash" unicode="&#xd8;" horiz-adv-x="942" 
d="M940 730l-83 -80q53 -50 53 -160v-280q0 -108 -51.5 -159t-158.5 -51h-458q-34 0 -53 4l-35 -34h-152l83 80q-53 50 -53 160v280q0 108 51.5 159t158.5 51h458q34 0 53 -4l35 34h152zM288 444v-188v-9l252 243h-206q-26 0 -36 -10t-10 -36zM654 256v188v9l-252 -243h206
q26 0 36 10t10 36z" />
    <glyph glyph-name="Ugrave" unicode="&#xd9;" horiz-adv-x="920" 
d="M562 730h-204l-136 130h264zM674 0h-428q-107 0 -158.5 51t-51.5 159v490h268v-430q0 -26 10 -36t36 -10h220q26 0 36 10t10 36v430h268v-490q0 -108 -51.5 -159t-158.5 -51z" />
    <glyph glyph-name="Uacute" unicode="&#xda;" horiz-adv-x="920" 
d="M698 860l-136 -130h-204l76 130h264zM674 0h-428q-107 0 -158.5 51t-51.5 159v490h268v-430q0 -26 10 -36t36 -10h220q26 0 36 10t10 36v430h268v-490q0 -108 -51.5 -159t-158.5 -51z" />
    <glyph glyph-name="Ucircumflex" unicode="&#xdb;" horiz-adv-x="920" 
d="M385 730h-176l128 130h246l128 -130h-176l-75 42zM674 0h-428q-107 0 -158.5 51t-51.5 159v490h268v-430q0 -26 10 -36t36 -10h220q26 0 36 10t10 36v430h268v-490q0 -108 -51.5 -159t-158.5 -51z" />
    <glyph glyph-name="Udieresis" unicode="&#xdc;" horiz-adv-x="920" 
d="M436 730h-192v130h192v-130zM676 730h-192v130h192v-130zM674 0h-428q-107 0 -158.5 51t-51.5 159v490h268v-430q0 -26 10 -36t36 -10h220q26 0 36 10t10 36v430h268v-490q0 -108 -51.5 -159t-158.5 -51z" />
    <glyph glyph-name="Yacute" unicode="&#xdd;" horiz-adv-x="912" 
d="M430 860h264l-136 -130h-204zM612 700h310l-332 -447v-253h-268v253l-332 447h324l149 -222z" />
    <glyph glyph-name="Thorn" unicode="&#xde;" horiz-adv-x="888" 
d="M308 620h370q99 0 144.5 -45t45.5 -145v-140q0 -100 -45.5 -145t-144.5 -45h-370v-100h-268v700h268v-80zM600 328v54q0 22 -8 30t-30 8h-254v-130h254q22 0 30 8t8 30z" />
    <glyph glyph-name="germandbls" unicode="&#xdf;" horiz-adv-x="820" 
d="M698 357q94 -21 94 -141v-50q0 -87 -40 -126.5t-126 -39.5h-242v176h124q19 0 25.5 6.5t6.5 25.5v40q0 19 -6.5 25.5t-25.5 6.5h-124v148h104q19 0 25.5 6.5t6.5 25.5v32q0 19 -6.5 25.5t-25.5 6.5h-166q-19 0 -25.5 -6.5t-6.5 -25.5v-492h-252v534q0 87 40 126.5
t126 39.5h402q86 0 126 -39.5t40 -126.5v-42q0 -106 -74 -135z" />
    <glyph glyph-name="agrave" unicode="&#xe0;" horiz-adv-x="804" 
d="M434 700l76 -130h-204l-136 130h264zM220 540h360q99 0 144.5 -45t45.5 -145v-350h-212l-15 46q-36 -30 -66 -37q-31 -9 -99 -9h-218q-62 0 -96 33.5t-34 96.5v54q0 63 34 96.5t96 33.5h358v30q0 22 -8 30t-30 8h-152q-19 0 -25.5 -6.5t-6.5 -25.5v-11h-242v35
q0 87 40 126.5t126 39.5zM308 138h153q27 0 43 16l14 14v40h-210q-16 0 -21 -5t-5 -21v-18q0 -16 5 -21t21 -5z" />
    <glyph glyph-name="aacute" unicode="&#xe1;" horiz-adv-x="804" 
d="M382 700h264l-136 -130h-204zM220 540h360q99 0 144.5 -45t45.5 -145v-350h-212l-15 46q-36 -30 -66 -37q-31 -9 -99 -9h-218q-62 0 -96 33.5t-34 96.5v54q0 63 34 96.5t96 33.5h358v30q0 22 -8 30t-30 8h-152q-19 0 -25.5 -6.5t-6.5 -25.5v-11h-242v35q0 87 40 126.5
t126 39.5zM308 138h153q27 0 43 16l14 14v40h-210q-16 0 -21 -5t-5 -21v-18q0 -16 5 -21t21 -5z" />
    <glyph glyph-name="acircumflex" unicode="&#xe2;" horiz-adv-x="804" 
d="M483 570l-75 42l-75 -42h-176l128 130h246l128 -130h-176zM220 540h360q99 0 144.5 -45t45.5 -145v-350h-212l-15 46q-36 -30 -66 -37q-31 -9 -99 -9h-218q-62 0 -96 33.5t-34 96.5v54q0 63 34 96.5t96 33.5h358v30q0 22 -8 30t-30 8h-152q-19 0 -25.5 -6.5t-6.5 -25.5
v-11h-242v35q0 87 40 126.5t126 39.5zM308 138h153q27 0 43 16l14 14v40h-210q-16 0 -21 -5t-5 -21v-18q0 -16 5 -21t21 -5z" />
    <glyph glyph-name="atilde" unicode="&#xe3;" horiz-adv-x="804" 
d="M316 620v-50h-137v82q0 48 49 48h177q24 0 36 -5t23 -21l18 -25q4 -4 8 -4h5q5 0 5 5v50h137v-82q0 -48 -49 -48h-177q-24 0 -36 5t-23 21l-18 25q-4 4 -8 4h-5q-5 0 -5 -5zM220 540h360q99 0 144.5 -45t45.5 -145v-350h-212l-15 46q-36 -30 -66 -37q-31 -9 -99 -9h-218
q-62 0 -96 33.5t-34 96.5v54q0 63 34 96.5t96 33.5h358v30q0 22 -8 30t-30 8h-152q-19 0 -25.5 -6.5t-6.5 -25.5v-11h-242v35q0 87 40 126.5t126 39.5zM308 138h153q27 0 43 16l14 14v40h-210q-16 0 -21 -5t-5 -21v-18q0 -16 5 -21t21 -5z" />
    <glyph glyph-name="adieresis" unicode="&#xe4;" horiz-adv-x="804" 
d="M192 700h192v-130h-192v130zM432 700h192v-130h-192v130zM220 540h360q99 0 144.5 -45t45.5 -145v-350h-212l-15 46q-36 -30 -66 -37q-31 -9 -99 -9h-218q-62 0 -96 33.5t-34 96.5v54q0 63 34 96.5t96 33.5h358v30q0 22 -8 30t-30 8h-152q-19 0 -25.5 -6.5t-6.5 -25.5
v-11h-242v35q0 87 40 126.5t126 39.5zM308 138h153q27 0 43 16l14 14v40h-210q-16 0 -21 -5t-5 -21v-18q0 -16 5 -21t21 -5z" />
    <glyph glyph-name="aring" unicode="&#xe5;" horiz-adv-x="804" 
d="M518 560h-220q-30 0 -43 13t-13 43v28q0 30 13 43t43 13h220q30 0 43 -13t13 -43v-28q0 -30 -13 -43t-43 -13zM326 635v-10q0 -11 3 -14t13 -3h132q10 0 13 3t3 14v10q0 11 -3 14t-13 3h-132q-10 0 -13 -3t-3 -14zM220 540h360q99 0 144.5 -45t45.5 -145v-350h-212
l-15 46q-36 -30 -66 -37q-31 -9 -99 -9h-218q-62 0 -96 33.5t-34 96.5v54q0 63 34 96.5t96 33.5h358v30q0 22 -8 30t-30 8h-152q-19 0 -25.5 -6.5t-6.5 -25.5v-11h-242v35q0 87 40 126.5t126 39.5zM308 138h153q27 0 43 16l14 14v40h-210q-16 0 -21 -5t-5 -21v-18
q0 -16 5 -21t21 -5z" />
    <glyph glyph-name="ae" unicode="&#xe6;" horiz-adv-x="1288" 
d="M758 540h310q99 0 144.5 -45t45.5 -145v-112h-488v-24q0 -22 8 -30t30 -8h176q19 0 25.5 6.5t6.5 25.5v5h242v-47q0 -87 -40 -126.5t-126 -39.5h-350q-90 0 -136 37q-30 -23 -61 -30q-29 -7 -93 -7h-292q-62 0 -96 33.5t-34 96.5v54q0 63 34 96.5t96 33.5h358v30
q0 22 -8 30t-30 8h-152q-19 0 -25.5 -6.5t-6.5 -25.5v-11h-242v35q0 87 40 126.5t126 39.5h310q77 0 114 -37q37 37 114 37zM770 360v-16h246v16q0 22 -8 30t-30 8h-170q-22 0 -30 -8t-8 -30zM504 154l14 14v40h-210q-16 0 -21 -5t-5 -21v-18q0 -16 5 -21t21 -5h153
q27 0 43 16z" />
    <glyph glyph-name="ccedilla" unicode="&#xe7;" horiz-adv-x="780" 
d="M750 350v-53h-242v13q0 22 -8 30t-30 8h-150q-22 0 -30 -8t-8 -30v-80q0 -22 8 -30t30 -8h150q22 0 30 8t8 30v17h242v-57q0 -100 -45.5 -145t-144.5 -45h-146l-6 -18h82q30 0 43 -13t13 -43v-30q0 -30 -13 -43t-43 -13h-216v66h151q7 0 7 7v4q0 7 -7 7h-109v32l14 44
h-110q-99 0 -144.5 45t-45.5 145v160q0 100 45.5 145t144.5 45h340q99 0 144.5 -45t45.5 -145z" />
    <glyph glyph-name="egrave" unicode="&#xe8;" horiz-adv-x="800" 
d="M426 700l76 -130h-204l-136 130h264zM220 540h360q99 0 144.5 -45t45.5 -145v-112h-488v-24q0 -22 8 -30t30 -8h176q19 0 25.5 6.5t6.5 25.5v5h242v-47q0 -87 -40 -126.5t-126 -39.5h-384q-99 0 -144.5 45t-45.5 145v160q0 100 45.5 145t144.5 45zM282 360v-16h246v16
q0 22 -8 30t-30 8h-170q-22 0 -30 -8t-8 -30z" />
    <glyph glyph-name="eacute" unicode="&#xe9;" horiz-adv-x="800" 
d="M374 700h264l-136 -130h-204zM220 540h360q99 0 144.5 -45t45.5 -145v-112h-488v-24q0 -22 8 -30t30 -8h176q19 0 25.5 6.5t6.5 25.5v5h242v-47q0 -87 -40 -126.5t-126 -39.5h-384q-99 0 -144.5 45t-45.5 145v160q0 100 45.5 145t144.5 45zM282 360v-16h246v16
q0 22 -8 30t-30 8h-170q-22 0 -30 -8t-8 -30z" />
    <glyph glyph-name="ecircumflex" unicode="&#xea;" horiz-adv-x="800" 
d="M475 570l-75 42l-75 -42h-176l128 130h246l128 -130h-176zM220 540h360q99 0 144.5 -45t45.5 -145v-112h-488v-24q0 -22 8 -30t30 -8h176q19 0 25.5 6.5t6.5 25.5v5h242v-47q0 -87 -40 -126.5t-126 -39.5h-384q-99 0 -144.5 45t-45.5 145v160q0 100 45.5 145t144.5 45z
M282 360v-16h246v16q0 22 -8 30t-30 8h-170q-22 0 -30 -8t-8 -30z" />
    <glyph glyph-name="edieresis" unicode="&#xeb;" horiz-adv-x="800" 
d="M184 700h192v-130h-192v130zM424 700h192v-130h-192v130zM220 540h360q99 0 144.5 -45t45.5 -145v-112h-488v-24q0 -22 8 -30t30 -8h176q19 0 25.5 6.5t6.5 25.5v5h242v-47q0 -87 -40 -126.5t-126 -39.5h-384q-99 0 -144.5 45t-45.5 145v160q0 100 45.5 145t144.5 45z
M282 360v-16h246v16q0 22 -8 30t-30 8h-170q-22 0 -30 -8t-8 -30z" />
    <glyph glyph-name="igrave" unicode="&#xec;" horiz-adv-x="340" 
d="M272 570h-204l-136 130h264zM298 0h-256v540h256v-540z" />
    <glyph glyph-name="iacute" unicode="&#xed;" horiz-adv-x="340" 
d="M408 700l-136 -130h-204l76 130h264zM298 0h-256v540h256v-540z" />
    <glyph glyph-name="icircumflex" unicode="&#xee;" horiz-adv-x="340" 
d="M95 570h-176l128 130h246l128 -130h-176l-75 42zM298 0h-256v540h256v-540z" />
    <glyph glyph-name="idieresis" unicode="&#xef;" horiz-adv-x="340" 
d="M146 570h-192v130h192v-130zM386 570h-192v130h192v-130zM298 0h-256v540h256v-540z" />
    <glyph glyph-name="eth" unicode="&#xf0;" horiz-adv-x="810" 
d="M486 700h84q107 0 158.5 -51t51.5 -159v-324q0 -87 -40 -126.5t-126 -39.5h-418q-86 0 -126 39.5t-40 126.5v118q0 87 40 126.5t126 39.5h226q77 0 106 -35v63q0 26 -10 36t-36 10h-112l-32 -48h-128l32 48h-132v176h248l40 60h128zM528 204v52q0 19 -6.5 25.5t-25.5 6.5
h-182q-19 0 -25.5 -6.5t-6.5 -25.5v-52q0 -19 6.5 -25.5t25.5 -6.5h182q19 0 25.5 6.5t6.5 25.5z" />
    <glyph glyph-name="ntilde" unicode="&#xf1;" horiz-adv-x="812" 
d="M314 620v-50h-137v82q0 48 49 48h177q24 0 36 -5t23 -21l18 -25q4 -4 8 -4h5q5 0 5 5v50h137v-82q0 -48 -49 -48h-177q-24 0 -36 5t-23 21l-18 25q-4 4 -8 4h-5q-5 0 -5 -5zM440 540h148q99 0 144.5 -45t45.5 -145v-350h-252v304q0 22 -8 30t-30 8h-133q-36 0 -51 -16
l-14 -14v-312h-252v540h212l17 -54q36 33 72 44q31 10 101 10z" />
    <glyph glyph-name="ograve" unicode="&#xf2;" horiz-adv-x="810" 
d="M507 570h-204l-136 130h264zM590 0h-370q-99 0 -144.5 45t-45.5 145v160q0 100 45.5 145t144.5 45h370q99 0 144.5 -45t45.5 -145v-160q0 -100 -45.5 -145t-144.5 -45zM320 192h170q22 0 30 8t8 30v80q0 22 -8 30t-30 8h-170q-22 0 -30 -8t-8 -30v-80q0 -22 8 -30t30 -8z
" />
    <glyph glyph-name="oacute" unicode="&#xf3;" horiz-adv-x="810" 
d="M643 700l-136 -130h-204l76 130h264zM590 0h-370q-99 0 -144.5 45t-45.5 145v160q0 100 45.5 145t144.5 45h370q99 0 144.5 -45t45.5 -145v-160q0 -100 -45.5 -145t-144.5 -45zM320 192h170q22 0 30 8t8 30v80q0 22 -8 30t-30 8h-170q-22 0 -30 -8t-8 -30v-80
q0 -22 8 -30t30 -8z" />
    <glyph glyph-name="ocircumflex" unicode="&#xf4;" horiz-adv-x="810" 
d="M330 570h-176l128 130h246l128 -130h-176l-75 42zM590 0h-370q-99 0 -144.5 45t-45.5 145v160q0 100 45.5 145t144.5 45h370q99 0 144.5 -45t45.5 -145v-160q0 -100 -45.5 -145t-144.5 -45zM320 192h170q22 0 30 8t8 30v80q0 22 -8 30t-30 8h-170q-22 0 -30 -8t-8 -30
v-80q0 -22 8 -30t30 -8z" />
    <glyph glyph-name="otilde" unicode="&#xf5;" horiz-adv-x="810" 
d="M313 570h-137v82q0 48 49 48h177q24 0 36 -5t23 -21l18 -25q4 -4 8 -4h5q5 0 5 5v50h137v-82q0 -48 -49 -48h-177q-24 0 -36 5t-23 21l-18 25q-4 4 -8 4h-5q-5 0 -5 -5v-50zM590 0h-370q-99 0 -144.5 45t-45.5 145v160q0 100 45.5 145t144.5 45h370q99 0 144.5 -45
t45.5 -145v-160q0 -100 -45.5 -145t-144.5 -45zM320 192h170q22 0 30 8t8 30v80q0 22 -8 30t-30 8h-170q-22 0 -30 -8t-8 -30v-80q0 -22 8 -30t30 -8z" />
    <glyph glyph-name="odieresis" unicode="&#xf6;" horiz-adv-x="810" 
d="M381 570h-192v130h192v-130zM621 570h-192v130h192v-130zM590 0h-370q-99 0 -144.5 45t-45.5 145v160q0 100 45.5 145t144.5 45h370q99 0 144.5 -45t45.5 -145v-160q0 -100 -45.5 -145t-144.5 -45zM320 192h170q22 0 30 8t8 30v80q0 22 -8 30t-30 8h-170q-22 0 -30 -8
t-8 -30v-80q0 -22 8 -30t30 -8z" />
    <glyph glyph-name="divide" unicode="&#xf7;" 
d="M576 510h-288v190h288v-190zM50 246v208h764v-208h-764zM576 0h-288v190h288v-190z" />
    <glyph glyph-name="oslash" unicode="&#xf8;" horiz-adv-x="810" 
d="M810 570l-79 -71q49 -46 49 -149v-160q0 -100 -45.5 -145t-144.5 -45h-370q-8 0 -42 2l-36 -32h-142l79 71q-49 46 -49 149v160q0 100 45.5 145t144.5 45h370q8 0 42 -2l36 32h142zM260 326v-112v-10l179 160h-141q-22 0 -30 -8t-8 -30zM550 214v112v10l-179 -160h141
q22 0 30 8t8 30z" />
    <glyph glyph-name="ugrave" unicode="&#xf9;" horiz-adv-x="812" 
d="M432 700l76 -130h-204l-136 130h264zM522 540h252v-540h-212l-17 54q-36 -33 -71 -44q-33 -10 -102 -10h-148q-99 0 -144.5 45t-45.5 145v350h252v-304q0 -22 8 -30t30 -8h133q36 0 51 16l14 14v312z" />
    <glyph glyph-name="uacute" unicode="&#xfa;" horiz-adv-x="812" 
d="M380 700h264l-136 -130h-204zM522 540h252v-540h-212l-17 54q-36 -33 -71 -44q-33 -10 -102 -10h-148q-99 0 -144.5 45t-45.5 145v350h252v-304q0 -22 8 -30t30 -8h133q36 0 51 16l14 14v312z" />
    <glyph glyph-name="ucircumflex" unicode="&#xfb;" horiz-adv-x="812" 
d="M481 570l-75 42l-75 -42h-176l128 130h246l128 -130h-176zM522 540h252v-540h-212l-17 54q-36 -33 -71 -44q-33 -10 -102 -10h-148q-99 0 -144.5 45t-45.5 145v350h252v-304q0 -22 8 -30t30 -8h133q36 0 51 16l14 14v312z" />
    <glyph glyph-name="udieresis" unicode="&#xfc;" horiz-adv-x="812" 
d="M190 700h192v-130h-192v130zM430 700h192v-130h-192v130zM522 540h252v-540h-212l-17 54q-36 -33 -71 -44q-33 -10 -102 -10h-148q-99 0 -144.5 45t-45.5 145v350h252v-304q0 -22 8 -30t30 -8h133q36 0 51 16l14 14v312z" />
    <glyph glyph-name="yacute" unicode="&#xfd;" horiz-adv-x="818" 
d="M383 700h264l-136 -130h-204zM414 259l128 281h280l-296 -530q-56 -101 -115 -136q-59 -34 -177 -34h-178v192h188q23 0 34 4l-282 504h290z" />
    <glyph glyph-name="thorn" unicode="&#xfe;" horiz-adv-x="818" 
d="M440 540h158q99 0 144.5 -45t45.5 -145v-160q0 -100 -45.5 -145t-144.5 -45h-158q-61 0 -91 7t-59 28v-195h-252v860h252v-195q29 21 59 28t91 7zM536 230v80q0 22 -8 30t-30 8h-143q-36 0 -51 -16l-14 -14v-96l14 -14q16 -16 51 -16h143q22 0 30 8t8 30z" />
    <glyph glyph-name="ydieresis" unicode="&#xff;" horiz-adv-x="818" 
d="M193 700h192v-130h-192v130zM433 700h192v-130h-192v130zM414 259l128 281h280l-296 -530q-56 -101 -115 -136q-59 -34 -177 -34h-178v192h188q23 0 34 4l-282 504h290z" />
    <glyph glyph-name="Amacron" unicode="&#x100;" horiz-adv-x="980" 
d="M254 850h472v-110h-472v110zM984 0h-304l-39 94h-316l-39 -94h-290l342 700h304zM483 469l-85 -201h169z" />
    <glyph glyph-name="amacron" unicode="&#x101;" horiz-adv-x="804" 
d="M172 690h472v-110h-472v110zM220 540h360q99 0 144.5 -45t45.5 -145v-350h-212l-15 46q-36 -30 -66 -37q-31 -9 -99 -9h-218q-62 0 -96 33.5t-34 96.5v54q0 63 34 96.5t96 33.5h358v30q0 22 -8 30t-30 8h-152q-19 0 -25.5 -6.5t-6.5 -25.5v-11h-242v35q0 87 40 126.5
t126 39.5zM308 138h153q27 0 43 16l14 14v40h-210q-16 0 -21 -5t-5 -21v-18q0 -16 5 -21t21 -5z" />
    <glyph glyph-name="Abreve" unicode="&#x102;" horiz-adv-x="980" 
d="M645 730h-310q-76 0 -76 76v54h166v-18q0 -22 22 -22h86q22 0 22 22v18h166v-54q0 -76 -76 -76zM984 0h-304l-39 94h-316l-39 -94h-290l342 700h304zM483 469l-85 -201h169z" />
    <glyph glyph-name="abreve" unicode="&#x103;" horiz-adv-x="804" 
d="M563 570h-310q-76 0 -76 76v54h166v-18q0 -22 22 -22h86q22 0 22 22v18h166v-54q0 -76 -76 -76zM220 540h360q99 0 144.5 -45t45.5 -145v-350h-212l-15 46q-36 -30 -66 -37q-31 -9 -99 -9h-218q-62 0 -96 33.5t-34 96.5v54q0 63 34 96.5t96 33.5h358v30q0 22 -8 30t-30 8
h-152q-19 0 -25.5 -6.5t-6.5 -25.5v-11h-242v35q0 87 40 126.5t126 39.5zM308 138h153q27 0 43 16l14 14v40h-210q-16 0 -21 -5t-5 -21v-18q0 -16 5 -21t21 -5z" />
    <glyph glyph-name="Aogonek" unicode="&#x104;" horiz-adv-x="980" 
d="M784 -19v-4q0 -13 13 -13h173v-124h-246q-86 0 -86 86v16q0 54 31 85l-28 67h-316l-39 -94h-290l342 700h304l342 -700h-190l-2 -2q-8 -8 -8 -17zM483 469l-85 -201h169z" />
    <glyph glyph-name="aogonek" unicode="&#x105;" horiz-adv-x="796" 
d="M674 0l-2 -2q-8 -8 -8 -17v-4q0 -13 13 -13h93v-124h-166q-86 0 -86 86v16q0 52 31 86l-6 18q-36 -30 -66 -37q-31 -9 -99 -9h-218q-62 0 -96 33.5t-34 96.5v54q0 63 34 96.5t96 33.5h358v30q0 22 -8 30t-30 8h-152q-19 0 -25.5 -6.5t-6.5 -25.5v-11h-242v35
q0 87 40 126.5t126 39.5h360q99 0 144.5 -45t45.5 -145v-350h-96zM308 138h153q27 0 43 16l14 14v40h-210q-16 0 -21 -5t-5 -21v-18q0 -16 5 -21t21 -5z" />
    <glyph glyph-name="Cacute" unicode="&#x106;" horiz-adv-x="910" 
d="M693 860l-136 -130h-204l76 130h264zM670 0h-428q-107 0 -158.5 51t-51.5 159v280q0 108 51.5 159t158.5 51h428q107 0 158.5 -51t51.5 -159v-96h-258v44q0 26 -10 36t-36 10h-230q-26 0 -36 -10t-10 -36v-176q0 -26 10 -36t36 -10h230q26 0 36 10t10 36v50h258v-102
q0 -108 -51.5 -159t-158.5 -51z" />
    <glyph glyph-name="cacute" unicode="&#x107;" horiz-adv-x="780" 
d="M628 700l-136 -130h-204l76 130h264zM30 190v160q0 100 45.5 145t144.5 45h340q99 0 144.5 -45t45.5 -145v-53h-242v13q0 22 -8 30t-30 8h-150q-22 0 -30 -8t-8 -30v-80q0 -22 8 -30t30 -8h150q22 0 30 8t8 30v17h242v-57q0 -100 -45.5 -145t-144.5 -45h-340
q-99 0 -144.5 45t-45.5 145z" />
    <glyph glyph-name="Ccircumflex" unicode="&#x108;" horiz-adv-x="910" 
d="M380 730h-176l128 130h246l128 -130h-176l-75 42zM670 0h-428q-107 0 -158.5 51t-51.5 159v280q0 108 51.5 159t158.5 51h428q107 0 158.5 -51t51.5 -159v-96h-258v44q0 26 -10 36t-36 10h-230q-26 0 -36 -10t-10 -36v-176q0 -26 10 -36t36 -10h230q26 0 36 10t10 36v50
h258v-102q0 -108 -51.5 -159t-158.5 -51z" />
    <glyph glyph-name="ccircumflex" unicode="&#x109;" horiz-adv-x="780" 
d="M315 570h-176l128 130h246l128 -130h-176l-75 42zM30 190v160q0 100 45.5 145t144.5 45h340q99 0 144.5 -45t45.5 -145v-53h-242v13q0 22 -8 30t-30 8h-150q-22 0 -30 -8t-8 -30v-80q0 -22 8 -30t30 -8h150q22 0 30 8t8 30v17h242v-57q0 -100 -45.5 -145t-144.5 -45h-340
q-99 0 -144.5 45t-45.5 145z" />
    <glyph glyph-name="Cdotaccent" unicode="&#x10a;" horiz-adv-x="910" 
d="M583 730h-256v130h256v-130zM670 0h-428q-107 0 -158.5 51t-51.5 159v280q0 108 51.5 159t158.5 51h428q107 0 158.5 -51t51.5 -159v-96h-258v44q0 26 -10 36t-36 10h-230q-26 0 -36 -10t-10 -36v-176q0 -26 10 -36t36 -10h230q26 0 36 10t10 36v50h258v-102
q0 -108 -51.5 -159t-158.5 -51z" />
    <glyph glyph-name="cdotaccent" unicode="&#x10b;" horiz-adv-x="780" 
d="M518 570h-256v130h256v-130zM30 190v160q0 100 45.5 145t144.5 45h340q99 0 144.5 -45t45.5 -145v-53h-242v13q0 22 -8 30t-30 8h-150q-22 0 -30 -8t-8 -30v-80q0 -22 8 -30t30 -8h150q22 0 30 8t8 30v17h242v-57q0 -100 -45.5 -145t-144.5 -45h-340q-99 0 -144.5 45
t-45.5 145z" />
    <glyph glyph-name="Ccaron" unicode="&#x10c;" horiz-adv-x="910" 
d="M559 782h-63l-128 26h-7l-16 27l115 25l136 -17zM670 0h-428q-107 0 -158.5 51t-51.5 159v280q0 108 51.5 159t158.5 51h428q107 0 158.5 -51t51.5 -159v-96h-258v44q0 26 -10 36t-36 10h-230q-26 0 -36 -10t-10 -36v-176q0 -26 10 -36t36 -10h230q26 0 36 10t10 36v50
h258v-102q0 -108 -51.5 -159t-158.5 -51z" />
    <glyph glyph-name="ccaron" unicode="&#x10d;" horiz-adv-x="780" 
d="M494 622h-63l-128 26h-7l-16 27l115 25l136 -17zM30 190v160q0 100 45.5 145t144.5 45h340q99 0 144.5 -45t45.5 -145v-53h-242v13q0 22 -8 30t-30 8h-150q-22 0 -30 -8t-8 -30v-80q0 -22 8 -30t30 -8h150q22 0 30 8t8 30v17h242v-57q0 -100 -45.5 -145t-144.5 -45h-340
q-99 0 -144.5 45t-45.5 145z" />
    <glyph glyph-name="Dcaron" unicode="&#x10e;" horiz-adv-x="940" 
d="M576 782h-63l-128 26h-7l-16 27l115 25l136 -17zM648 0h-608v700h608q126 0 193 -66.5t67 -193.5v-180q0 -127 -67 -193.5t-193 -66.5zM308 480v-260h276q56 0 56 56v148q0 56 -56 56h-276z" />
    <glyph glyph-name="dcaron" unicode="&#x10f;" horiz-adv-x="1048" 
d="M528 505v195h252v-700h-212l-17 54q-36 -33 -71 -44q-33 -10 -102 -10h-158q-99 0 -144.5 45t-45.5 145v160q0 100 45.5 145t144.5 45h158q61 0 91 -7t59 -28zM820 550v150h228v-71q0 -43 -7 -67q-6 -22 -32 -65l-45 -77h-122l62 130h-84zM320 192h143q35 0 51 16l14 14
v96l-14 14q-15 16 -51 16h-143q-22 0 -30 -8t-8 -30v-80q0 -22 8 -30t30 -8z" />
    <glyph glyph-name="Dcroat" unicode="&#x110;" horiz-adv-x="1000" 
d="M100 700h608q126 0 193 -66.5t67 -193.5v-180q0 -127 -67 -193.5t-193 -66.5h-608v278h-80v144h80v278zM700 276v148q0 56 -56 56h-276v-58h198v-144h-198v-58h276q56 0 56 56z" />
    <glyph glyph-name="dslash" unicode="&#x111;" horiz-adv-x="860" 
d="M780 663h70v-100h-70v-563h-212l-17 54q-36 -33 -71 -44q-33 -10 -102 -10h-158q-99 0 -144.5 45t-45.5 145v160q0 100 45.5 145t144.5 45h158q61 0 91 -7t59 -28v58h-186v100h186v37h252v-37zM320 192h143q35 0 51 16l14 14v96l-14 14q-15 16 -51 16h-143q-22 0 -30 -8
t-8 -30v-80q0 -22 8 -30t30 -8z" />
    <glyph glyph-name="Emacron" unicode="&#x112;" horiz-adv-x="818" 
d="M173 850h472v-110h-472v110zM308 272v-73h490v-199h-758v700h748v-199h-480v-65h440v-164h-440z" />
    <glyph glyph-name="emacron" unicode="&#x113;" horiz-adv-x="800" 
d="M164 690h472v-110h-472v110zM220 540h360q99 0 144.5 -45t45.5 -145v-112h-488v-24q0 -22 8 -30t30 -8h176q19 0 25.5 6.5t6.5 25.5v5h242v-47q0 -87 -40 -126.5t-126 -39.5h-384q-99 0 -144.5 45t-45.5 145v160q0 100 45.5 145t144.5 45zM282 360v-16h246v16q0 22 -8 30
t-30 8h-170q-22 0 -30 -8t-8 -30z" />
    <glyph glyph-name="Ebreve" unicode="&#x114;" horiz-adv-x="818" 
d="M564 730h-310q-76 0 -76 76v54h166v-18q0 -22 22 -22h86q22 0 22 22v18h166v-54q0 -76 -76 -76zM308 272v-73h490v-199h-758v700h748v-199h-480v-65h440v-164h-440z" />
    <glyph glyph-name="ebreve" unicode="&#x115;" horiz-adv-x="800" 
d="M555 570h-310q-76 0 -76 76v54h166v-18q0 -22 22 -22h86q22 0 22 22v18h166v-54q0 -76 -76 -76zM220 540h360q99 0 144.5 -45t45.5 -145v-112h-488v-24q0 -22 8 -30t30 -8h176q19 0 25.5 6.5t6.5 25.5v5h242v-47q0 -87 -40 -126.5t-126 -39.5h-384q-99 0 -144.5 45
t-45.5 145v160q0 100 45.5 145t144.5 45zM282 360v-16h246v16q0 22 -8 30t-30 8h-170q-22 0 -30 -8t-8 -30z" />
    <glyph glyph-name="Edotaccent" unicode="&#x116;" horiz-adv-x="818" 
d="M281 860h256v-130h-256v130zM308 272v-73h490v-199h-758v700h748v-199h-480v-65h440v-164h-440z" />
    <glyph glyph-name="edotaccent" unicode="&#x117;" horiz-adv-x="800" 
d="M272 700h256v-130h-256v130zM220 540h360q99 0 144.5 -45t45.5 -145v-112h-488v-24q0 -22 8 -30t30 -8h176q19 0 25.5 6.5t6.5 25.5v5h242v-47q0 -87 -40 -126.5t-126 -39.5h-384q-99 0 -144.5 45t-45.5 145v160q0 100 45.5 145t144.5 45zM282 360v-16h246v16q0 22 -8 30
t-30 8h-170q-22 0 -30 -8t-8 -30z" />
    <glyph glyph-name="Eogonek" unicode="&#x118;" horiz-adv-x="818" 
d="M622 0l-2 -2q-8 -8 -8 -17v-4q0 -13 13 -13h173v-124h-246q-86 0 -86 86v16q0 34 11 58h-437v700h748v-199h-480v-65h440v-164h-440v-73h490v-199h-176z" />
    <glyph glyph-name="eogonek" unicode="&#x119;" horiz-adv-x="800" 
d="M220 540h360q99 0 144.5 -45t45.5 -145v-112h-488v-24q0 -22 8 -30t30 -8h176q19 0 25.5 6.5t6.5 25.5v5h242v-47q0 -87 -40 -126.5t-126 -39.5h-104l-2 -2q-8 -8 -8 -17v-4q0 -13 13 -13h173v-124h-246q-86 0 -86 86v16q0 34 11 58h-135q-99 0 -144.5 45t-45.5 145v160
q0 100 45.5 145t144.5 45zM282 360v-16h246v16q0 22 -8 30t-30 8h-170q-22 0 -30 -8t-8 -30z" />
    <glyph glyph-name="Ecaron" unicode="&#x11a;" horiz-adv-x="818" 
d="M450 782l-128 26h-7l-16 27l115 25l136 -17l-37 -61h-63zM308 272v-73h490v-199h-758v700h748v-199h-480v-65h440v-164h-440z" />
    <glyph glyph-name="ecaron" unicode="&#x11b;" horiz-adv-x="800" 
d="M441 622l-128 26h-7l-16 27l115 25l136 -17l-37 -61h-63zM220 540h360q99 0 144.5 -45t45.5 -145v-112h-488v-24q0 -22 8 -30t30 -8h176q19 0 25.5 6.5t6.5 25.5v5h242v-47q0 -87 -40 -126.5t-126 -39.5h-384q-99 0 -144.5 45t-45.5 145v160q0 100 45.5 145t144.5 45z
M282 360v-16h246v16q0 22 -8 30t-30 8h-170q-22 0 -30 -8t-8 -30z" />
    <glyph glyph-name="Gcircumflex" unicode="&#x11c;" horiz-adv-x="942" 
d="M396 730h-176l128 130h246l128 -130h-176l-75 42zM32 210v280q0 108 51.5 159t158.5 51h458q107 0 158.5 -51t51.5 -159v-56h-268v14q0 26 -10 36t-36 10h-250q-26 0 -36 -10t-10 -36v-216q0 -26 10 -36t36 -10h260q26 0 36 10t10 36v14h-188v152h446v-188
q0 -108 -51.5 -159t-158.5 -51h-458q-107 0 -158.5 51t-51.5 159z" />
    <glyph glyph-name="gcircumflex" unicode="&#x11d;" horiz-adv-x="818" 
d="M484 570l-75 42l-75 -42h-176l128 130h246l128 -130h-176zM551 486l17 54h212v-490q0 -108 -51.5 -159t-158.5 -51h-520v176h432q26 0 36 10t10 36v28q-30 -21 -62 -28.5t-88 -7.5h-158q-99 0 -144.5 45t-45.5 145v106q0 100 45.5 145t144.5 45h158q65 0 99 -10t74 -44z
M514 238l14 14v82l-14 14q-15 16 -51 16h-143q-22 0 -30 -8t-8 -30v-66q0 -22 8 -30t30 -8h143q35 0 51 16z" />
    <glyph glyph-name="Gbreve" unicode="&#x11e;" horiz-adv-x="942" 
d="M626 730h-310q-76 0 -76 76v54h166v-18q0 -22 22 -22h86q22 0 22 22v18h166v-54q0 -76 -76 -76zM32 210v280q0 108 51.5 159t158.5 51h458q107 0 158.5 -51t51.5 -159v-56h-268v14q0 26 -10 36t-36 10h-250q-26 0 -36 -10t-10 -36v-216q0 -26 10 -36t36 -10h260
q26 0 36 10t10 36v14h-188v152h446v-188q0 -108 -51.5 -159t-158.5 -51h-458q-107 0 -158.5 51t-51.5 159z" />
    <glyph glyph-name="gbreve" unicode="&#x11f;" horiz-adv-x="818" 
d="M564 570h-310q-76 0 -76 76v54h166v-18q0 -22 22 -22h86q22 0 22 22v18h166v-54q0 -76 -76 -76zM551 486l17 54h212v-490q0 -108 -51.5 -159t-158.5 -51h-520v176h432q26 0 36 10t10 36v28q-30 -21 -62 -28.5t-88 -7.5h-158q-99 0 -144.5 45t-45.5 145v106
q0 100 45.5 145t144.5 45h158q65 0 99 -10t74 -44zM514 238l14 14v82l-14 14q-15 16 -51 16h-143q-22 0 -30 -8t-8 -30v-66q0 -22 8 -30t30 -8h143q35 0 51 16z" />
    <glyph glyph-name="Gdotaccent" unicode="&#x120;" horiz-adv-x="942" 
d="M599 730h-256v130h256v-130zM32 210v280q0 108 51.5 159t158.5 51h458q107 0 158.5 -51t51.5 -159v-56h-268v14q0 26 -10 36t-36 10h-250q-26 0 -36 -10t-10 -36v-216q0 -26 10 -36t36 -10h260q26 0 36 10t10 36v14h-188v152h446v-188q0 -108 -51.5 -159t-158.5 -51h-458
q-107 0 -158.5 51t-51.5 159z" />
    <glyph glyph-name="gdotaccent" unicode="&#x121;" horiz-adv-x="818" 
d="M281 700h256v-130h-256v130zM551 486l17 54h212v-490q0 -108 -51.5 -159t-158.5 -51h-520v176h432q26 0 36 10t10 36v28q-30 -21 -62 -28.5t-88 -7.5h-158q-99 0 -144.5 45t-45.5 145v106q0 100 45.5 145t144.5 45h158q65 0 99 -10t74 -44zM514 238l14 14v82l-14 14
q-15 16 -51 16h-143q-22 0 -30 -8t-8 -30v-66q0 -22 8 -30t30 -8h143q35 0 51 16z" />
    <glyph glyph-name="Gcommaaccent" unicode="&#x122;" horiz-adv-x="942" 
d="M32 210v280q0 108 51.5 159t158.5 51h458q107 0 158.5 -51t51.5 -159v-56h-268v14q0 26 -10 36t-36 10h-250q-26 0 -36 -10t-10 -36v-216q0 -26 10 -36t36 -10h260q26 0 36 10t10 36v14h-188v152h446v-188q0 -108 -51.5 -159t-158.5 -51h-458q-107 0 -158.5 51t-51.5 159
zM501 -250h-122l62 100h-84v120h228v-36q0 -44 -7 -64q-8 -23 -35 -61z" />
    <glyph glyph-name="gcommaaccent" unicode="&#x123;" horiz-adv-x="818" 
d="M443 690h76v-120h-220v36q0 45 7 65q6 19 33 60l40 59h122zM551 486l17 54h212v-490q0 -108 -51.5 -159t-158.5 -51h-520v176h432q26 0 36 10t10 36v28q-30 -21 -62 -28.5t-88 -7.5h-158q-99 0 -144.5 45t-45.5 145v106q0 100 45.5 145t144.5 45h158q65 0 99 -10t74 -44z
M514 238l14 14v82l-14 14q-15 16 -51 16h-143q-22 0 -30 -8t-8 -30v-66q0 -22 8 -30t30 -8h143q35 0 51 16z" />
    <glyph glyph-name="Hcircumflex" unicode="&#x124;" horiz-adv-x="928" 
d="M539 730l-75 42l-75 -42h-176l128 130h246l128 -130h-176zM620 475v225h268v-700h-268v245h-312v-245h-268v700h268v-225h312z" />
    <glyph glyph-name="hcircumflex" unicode="&#x125;" horiz-adv-x="812" 
d="M239 730l-75 42l-75 -42h-176l128 130h246l128 -130h-176zM450 540h138q99 0 144.5 -45t45.5 -145v-350h-252v304q0 22 -8 30t-30 8h-133q-36 0 -51 -16l-14 -14v-312h-252v700h252v-203q34 28 65 35q34 8 95 8z" />
    <glyph glyph-name="Hbar" unicode="&#x126;" horiz-adv-x="1048" 
d="M948 648h80v-128h-80v-520h-268v245h-312v-245h-268v520h-80v128h80v52h268v-52h312v52h268v-52zM368 475h312v45h-312v-45z" />
    <glyph glyph-name="hbar" unicode="&#x127;" horiz-adv-x="854" 
d="M492 540h138q99 0 144.5 -45t45.5 -145v-350h-252v304q0 22 -8 30t-30 8h-133q-36 0 -51 -16l-14 -14v-312h-252v563h-70v100h70v37h252v-37h186v-100h-186v-66q34 28 65 35q34 8 95 8z" />
    <glyph glyph-name="Itilde" unicode="&#x128;" horiz-adv-x="360" 
d="M88 730h-137v82q0 48 49 48h177q24 0 36 -5t23 -21l18 -25q4 -4 8 -4h5q5 0 5 5v50h137v-82q0 -48 -49 -48h-177q-24 0 -36 5t-23 21l-18 25q-4 4 -8 4h-5q-5 0 -5 -5v-50zM44 0v700h272v-700h-272z" />
    <glyph glyph-name="itilde" unicode="&#x129;" horiz-adv-x="340" 
d="M78 570h-137v82q0 48 49 48h177q24 0 36 -5t23 -21l18 -25q4 -4 8 -4h5q5 0 5 5v50h137v-82q0 -48 -49 -48h-177q-24 0 -36 5t-23 21l-18 25q-4 4 -8 4h-5q-5 0 -5 -5v-50zM298 0h-256v540h256v-540z" />
    <glyph glyph-name="Imacron" unicode="&#x12a;" horiz-adv-x="360" 
d="M416 740h-472v110h472v-110zM44 0v700h272v-700h-272z" />
    <glyph glyph-name="imacron" unicode="&#x12b;" horiz-adv-x="340" 
d="M406 580h-472v110h472v-110zM298 0h-256v540h256v-540z" />
    <glyph glyph-name="Ibreve" unicode="&#x12c;" horiz-adv-x="360" 
d="M335 730h-310q-76 0 -76 76v54h166v-18q0 -22 22 -22h86q22 0 22 22v18h166v-54q0 -76 -76 -76zM44 0v700h272v-700h-272z" />
    <glyph glyph-name="ibreve" unicode="&#x12d;" horiz-adv-x="340" 
d="M325 570h-310q-76 0 -76 76v54h166v-18q0 -22 22 -22h86q22 0 22 22v18h166v-54q0 -76 -76 -76zM298 0h-256v540h256v-540z" />
    <glyph glyph-name="Iogonek" unicode="&#x12e;" horiz-adv-x="360" 
d="M140 0l-2 -2q-8 -8 -8 -17v-4q0 -13 13 -13h173v-124h-246q-86 0 -86 86v16q0 33 9.5 54.5t35.5 44.5l15 12v647h272v-700h-176z" />
    <glyph glyph-name="iogonek" unicode="&#x12f;" horiz-adv-x="340" 
d="M42 700h256v-130h-256v130zM128 -36h173v-124h-246q-86 0 -86 86v16q0 33 9.5 54.5t35.5 44.5l28 23v476h256v-540h-173l-2 -2q-8 -8 -8 -17v-4q0 -13 13 -13z" />
    <glyph glyph-name="Idot" unicode="&#x130;" horiz-adv-x="360" 
d="M316 730h-272v130h272v-130zM44 0v700h272v-700h-272z" />
    <glyph glyph-name="dotlessi" unicode="&#x131;" horiz-adv-x="340" 
d="M298 0h-256v540h256v-540z" />
    <glyph glyph-name="IJ" unicode="&#x132;" horiz-adv-x="1206" 
d="M44 0v700h272v-700h-272zM960 0h-370q-107 0 -158.5 51t-51.5 159v100h258v-48q0 -26 10 -36t36 -10h172q26 0 36 10t10 36v438h268v-490q0 -108 -51.5 -159t-158.5 -51z" />
    <glyph glyph-name="ij" unicode="&#x133;" horiz-adv-x="768" 
d="M298 570h-256v130h256v-130zM726 570h-256v130h256v-130zM298 0h-256v540h256v-540zM560 -160h-232v182h110q19 0 25.5 6.5t6.5 25.5v486h256v-534q0 -87 -40 -126.5t-126 -39.5z" />
    <glyph glyph-name="Jcircumflex" unicode="&#x134;" horiz-adv-x="846" 
d="M601 730h-176l128 130h246l128 -130h-176l-75 42zM600 0h-370q-107 0 -158.5 51t-51.5 159v100h258v-48q0 -26 10 -36t36 -10h172q26 0 36 10t10 36v438h268v-490q0 -108 -51.5 -159t-158.5 -51z" />
    <glyph glyph-name="jcircumflex" unicode="&#x135;" horiz-adv-x="380" 
d="M135 570h-176l128 130h246l128 -130h-176l-75 42zM172 -160h-232v182h110q19 0 25.5 6.5t6.5 25.5v486h256v-534q0 -87 -40 -126.5t-126 -39.5z" />
    <glyph glyph-name="Kcommaaccent" unicode="&#x136;" horiz-adv-x="934" 
d="M930 700l-328 -336l332 -364h-356l-270 324v-324h-268v700h268v-309l266 309h356zM407 -150h-84v120h228v-36q0 -44 -7 -64q-8 -23 -35 -61l-42 -59h-122z" />
    <glyph glyph-name="kcommaaccent" unicode="&#x137;" horiz-adv-x="838" 
d="M504 0l-214 237v-237h-252v700h252v-399l206 239h344l-270 -266l278 -274h-344zM365 -150h-84v120h228v-36q0 -44 -7 -64q-8 -23 -35 -61l-42 -59h-122z" />
    <glyph glyph-name="Lacute" unicode="&#x139;" horiz-adv-x="758" 
d="M148 860h264l-136 -130h-204zM308 700v-470h440v-230h-708v700h268z" />
    <glyph glyph-name="lacute" unicode="&#x13a;" horiz-adv-x="340" 
d="M408 860l-136 -130h-204l76 130h264zM298 0h-256v700h256v-700z" />
    <glyph glyph-name="Lcommaaccent" unicode="&#x13b;" horiz-adv-x="758" 
d="M308 700v-470h440v-230h-708v700h268zM349 -150h-84v120h228v-36q0 -44 -7 -64q-8 -23 -35 -61l-42 -59h-122z" />
    <glyph glyph-name="lcommaaccent" unicode="&#x13c;" horiz-adv-x="340" 
d="M298 0h-256v700h256v-700zM200 -250h-122l62 100h-84v120h228v-36q0 -44 -7 -64q-8 -23 -35 -61z" />
    <glyph glyph-name="Lcaron" unicode="&#x13d;" horiz-adv-x="758" 
d="M308 700v-470h440v-230h-708v700h268zM514 420h-122l62 130h-84v150h228v-71q0 -43 -7 -67q-6 -22 -32 -65z" />
    <glyph glyph-name="lcaron" unicode="&#x13e;" horiz-adv-x="566" 
d="M298 0h-256v700h256v-700zM482 420h-122l62 130h-84v150h228v-71q0 -43 -7 -67q-6 -22 -32 -65z" />
    <glyph glyph-name="Ldot" unicode="&#x13f;" horiz-adv-x="758" 
d="M308 700v-470h440v-230h-708v700h268zM380 560h288v-268h-288v268z" />
    <glyph glyph-name="ldot" unicode="&#x140;" horiz-adv-x="636" 
d="M298 0h-256v700h256v-700zM626 250h-288v268h288v-268z" />
    <glyph glyph-name="Lslash" unicode="&#x141;" horiz-adv-x="818" 
d="M368 327v-97h440v-230h-708v288l-80 -11v146l80 11v266h268v-227l270 38v-146z" />
    <glyph glyph-name="lslash" unicode="&#x142;" horiz-adv-x="416" 
d="M336 452l70 11v-146l-70 -11v-306h-256v268l-70 -11v146l70 11v286h256v-248z" />
    <glyph glyph-name="Nacute" unicode="&#x143;" horiz-adv-x="948" 
d="M442 860h264l-136 -130h-204zM650 339v361h258v-700h-218l-392 371v-371h-258v700h228z" />
    <glyph glyph-name="nacute" unicode="&#x144;" horiz-adv-x="812" 
d="M380 700h264l-136 -130h-204zM440 540h148q99 0 144.5 -45t45.5 -145v-350h-252v304q0 22 -8 30t-30 8h-133q-36 0 -51 -16l-14 -14v-312h-252v540h212l17 -54q36 33 72 44q31 10 101 10z" />
    <glyph glyph-name="Ncommaaccent" unicode="&#x145;" horiz-adv-x="948" 
d="M650 339v361h258v-700h-218l-392 371v-371h-258v700h228zM444 -150h-84v120h228v-36q0 -44 -7 -64q-8 -23 -35 -61l-42 -59h-122z" />
    <glyph glyph-name="ncommaaccent" unicode="&#x146;" horiz-adv-x="812" 
d="M440 540h148q99 0 144.5 -45t45.5 -145v-350h-252v304q0 22 -8 30t-30 8h-133q-36 0 -51 -16l-14 -14v-312h-252v540h212l17 -54q36 33 72 44q31 10 101 10zM376 -150h-84v120h228v-36q0 -44 -7 -64q-8 -23 -35 -61l-42 -59h-122z" />
    <glyph glyph-name="Ncaron" unicode="&#x147;" horiz-adv-x="948" 
d="M509 782l-128 26h-7l-16 27l115 25l136 -17l-37 -61h-63zM650 339v361h258v-700h-218l-392 371v-371h-258v700h228z" />
    <glyph glyph-name="ncaron" unicode="&#x148;" horiz-adv-x="812" 
d="M447 622l-128 26h-7l-16 27l115 25l136 -17l-37 -61h-63zM440 540h148q99 0 144.5 -45t45.5 -145v-350h-252v304q0 22 -8 30t-30 8h-133q-36 0 -51 -16l-14 -14v-312h-252v540h212l17 -54q36 33 72 44q31 10 101 10z" />
    <glyph glyph-name="Eng" unicode="&#x14a;" horiz-adv-x="948" 
d="M650 339v361h258v-660q0 -103 -49 -151.5t-151 -48.5h-192v180h98q19 0 26 3.5t9 15.5l-351 332v-371h-258v700h228z" />
    <glyph glyph-name="eng" unicode="&#x14b;" horiz-adv-x="812" 
d="M440 540h148q99 0 144.5 -45t45.5 -145v-344q0 -87 -40 -126.5t-126 -39.5h-202l2 182h82q19 0 25.5 6.5t6.5 25.5v250q0 22 -8 30t-30 8h-133q-36 0 -51 -16l-14 -14v-312h-252v540h212l17 -54q36 33 72 44q31 10 101 10z" />
    <glyph glyph-name="Omacron" unicode="&#x14c;" horiz-adv-x="942" 
d="M707 740h-472v110h472v-110zM700 0h-458q-107 0 -158.5 51t-51.5 159v280q0 108 51.5 159t158.5 51h458q107 0 158.5 -51t51.5 -159v-280q0 -108 -51.5 -159t-158.5 -51zM346 220h250q26 0 36 10t10 36v168q0 26 -10 36t-36 10h-250q-26 0 -36 -10t-10 -36v-168
q0 -26 10 -36t36 -10z" />
    <glyph glyph-name="omacron" unicode="&#x14d;" horiz-adv-x="810" 
d="M641 580h-472v110h472v-110zM590 0h-370q-99 0 -144.5 45t-45.5 145v160q0 100 45.5 145t144.5 45h370q99 0 144.5 -45t45.5 -145v-160q0 -100 -45.5 -145t-144.5 -45zM320 192h170q22 0 30 8t8 30v80q0 22 -8 30t-30 8h-170q-22 0 -30 -8t-8 -30v-80q0 -22 8 -30t30 -8z
" />
    <glyph glyph-name="Obreve" unicode="&#x14e;" horiz-adv-x="942" 
d="M626 730h-310q-76 0 -76 76v54h166v-18q0 -22 22 -22h86q22 0 22 22v18h166v-54q0 -76 -76 -76zM700 0h-458q-107 0 -158.5 51t-51.5 159v280q0 108 51.5 159t158.5 51h458q107 0 158.5 -51t51.5 -159v-280q0 -108 -51.5 -159t-158.5 -51zM346 220h250q26 0 36 10t10 36
v168q0 26 -10 36t-36 10h-250q-26 0 -36 -10t-10 -36v-168q0 -26 10 -36t36 -10z" />
    <glyph glyph-name="obreve" unicode="&#x14f;" horiz-adv-x="810" 
d="M560 570h-310q-76 0 -76 76v54h166v-18q0 -22 22 -22h86q22 0 22 22v18h166v-54q0 -76 -76 -76zM590 0h-370q-99 0 -144.5 45t-45.5 145v160q0 100 45.5 145t144.5 45h370q99 0 144.5 -45t45.5 -145v-160q0 -100 -45.5 -145t-144.5 -45zM320 192h170q22 0 30 8t8 30v80
q0 22 -8 30t-30 8h-170q-22 0 -30 -8t-8 -30v-80q0 -22 8 -30t30 -8z" />
    <glyph glyph-name="Ohungarumlaut" unicode="&#x150;" horiz-adv-x="942" 
d="M537 860l-108 -130h-196l58 130h246zM803 860l-108 -130h-196l58 130h246zM700 0h-458q-107 0 -158.5 51t-51.5 159v280q0 108 51.5 159t158.5 51h458q107 0 158.5 -51t51.5 -159v-280q0 -108 -51.5 -159t-158.5 -51zM346 220h250q26 0 36 10t10 36v168q0 26 -10 36
t-36 10h-250q-26 0 -36 -10t-10 -36v-168q0 -26 10 -36t36 -10z" />
    <glyph glyph-name="ohungarumlaut" unicode="&#x151;" horiz-adv-x="810" 
d="M471 700l-108 -130h-196l58 130h246zM737 700l-108 -130h-196l58 130h246zM590 0h-370q-99 0 -144.5 45t-45.5 145v160q0 100 45.5 145t144.5 45h370q99 0 144.5 -45t45.5 -145v-160q0 -100 -45.5 -145t-144.5 -45zM320 192h170q22 0 30 8t8 30v80q0 22 -8 30t-30 8h-170
q-22 0 -30 -8t-8 -30v-80q0 -22 8 -30t30 -8z" />
    <glyph glyph-name="OE" unicode="&#x152;" horiz-adv-x="1410" 
d="M900 272v-73h490v-199h-1148q-107 0 -158.5 51t-51.5 159v280q0 108 51.5 159t158.5 51h1138v-199h-480v-65h440v-164h-440zM346 220h286v260h-286q-26 0 -36 -10t-10 -36v-168q0 -26 10 -36t36 -10z" />
    <glyph glyph-name="oe" unicode="&#x153;" horiz-adv-x="1298" 
d="M768 540h310q99 0 144.5 -45t45.5 -145v-112h-488v-24q0 -22 8 -30t30 -8h176q19 0 25.5 6.5t6.5 25.5v5h242v-47q0 -87 -40 -126.5t-126 -39.5h-318q-89 0 -130 44q-41 -44 -130 -44h-304q-99 0 -144.5 45t-45.5 145v160q0 100 45.5 145t144.5 45h320q77 0 114 -37
q37 37 114 37zM780 360v-16h246v16q0 22 -8 30t-30 8h-170q-22 0 -30 -8t-8 -30zM528 230v80q0 22 -8 30t-30 8h-170q-22 0 -30 -8t-8 -30v-80q0 -22 8 -30t30 -8h170q22 0 30 8t8 30z" />
    <glyph glyph-name="Racute" unicode="&#x154;" horiz-adv-x="904" 
d="M426 860h264l-136 -130h-204zM737 231l161 -231h-304l-138 206h-148v-206h-268v700h638q99 0 144.5 -45t45.5 -145v-94q0 -84 -31.5 -128.5t-99.5 -56.5zM562 510h-254v-120h254q22 0 30 8t8 30v44q0 22 -8 30t-30 8z" />
    <glyph glyph-name="racute" unicode="&#x155;" horiz-adv-x="558" 
d="M259 700h264l-136 -130h-204zM430 540h118v-224h-193q-36 0 -51 -16l-14 -14v-286h-252v540h182l21 -68q47 44 81 56t108 12z" />
    <glyph glyph-name="Rcommaaccent" unicode="&#x156;" horiz-adv-x="904" 
d="M737 231l161 -231h-304l-138 206h-148v-206h-268v700h638q99 0 144.5 -45t45.5 -145v-94q0 -84 -31.5 -128.5t-99.5 -56.5zM562 510h-254v-120h254q22 0 30 8t8 30v44q0 22 -8 30t-30 8zM414 -150h-84v120h228v-36q0 -44 -7 -64q-8 -23 -35 -61l-42 -59h-122z" />
    <glyph glyph-name="rcommaaccent" unicode="&#x157;" horiz-adv-x="558" 
d="M430 540h118v-224h-193q-36 0 -51 -16l-14 -14v-286h-252v540h182l21 -68q47 44 81 56t108 12zM134 -150h-84v120h228v-36q0 -44 -7 -64q-8 -23 -35 -61l-42 -59h-122z" />
    <glyph glyph-name="Rcaron" unicode="&#x158;" horiz-adv-x="904" 
d="M493 782l-128 26h-7l-16 27l115 25l136 -17l-37 -61h-63zM737 231l161 -231h-304l-138 206h-148v-206h-268v700h638q99 0 144.5 -45t45.5 -145v-94q0 -84 -31.5 -128.5t-99.5 -56.5zM562 510h-254v-120h254q22 0 30 8t8 30v44q0 22 -8 30t-30 8z" />
    <glyph glyph-name="rcaron" unicode="&#x159;" horiz-adv-x="558" 
d="M326 622l-128 26h-7l-16 27l115 25l136 -17l-37 -61h-63zM430 540h118v-224h-193q-36 0 -51 -16l-14 -14v-286h-252v540h182l21 -68q47 44 81 56t108 12z" />
    <glyph glyph-name="Sacute" unicode="&#x15a;" horiz-adv-x="922" 
d="M699 860l-136 -130h-204l76 130h264zM32 166v68h258v-32q0 -19 6.5 -25.5t25.5 -6.5h268q19 0 25.5 6.5t6.5 25.5v20q0 18 -6.5 24t-25.5 8l-382 22q-89 6 -127.5 44t-38.5 122v92q0 87 40 126.5t126 39.5h502q86 0 126 -39.5t40 -126.5v-60h-258v24q0 19 -6.5 25.5
t-25.5 6.5h-244q-19 0 -25.5 -6.5t-6.5 -25.5v-12q0 -18 6.5 -24t25.5 -8l382 -22q89 -6 127.5 -44t38.5 -122v-100q0 -87 -40 -126.5t-126 -39.5h-526q-86 0 -126 39.5t-40 126.5z" />
    <glyph glyph-name="sacute" unicode="&#x15b;" horiz-adv-x="790" 
d="M633 700l-136 -130h-204l76 130h264zM30 134v50h242v-28q0 -14 4 -18t18 -4h192q14 0 18 4t4 18v14q0 13 -3.5 16.5t-18.5 5.5l-314 20q-132 10 -132 130v66q0 63 35 97.5t97 34.5h442q62 0 97 -35.5t35 -98.5v-42h-242v20q0 14 -4 18t-18 4h-168q-14 0 -18 -4t-4 -18v-8
q0 -13 3.5 -16.5t18.5 -5.5l314 -20q132 -10 132 -130v-72q0 -63 -35 -97.5t-97 -34.5h-466q-62 0 -97 35.5t-35 98.5z" />
    <glyph glyph-name="Scircumflex" unicode="&#x15c;" horiz-adv-x="922" 
d="M386 730h-176l128 130h246l128 -130h-176l-75 42zM32 166v68h258v-32q0 -19 6.5 -25.5t25.5 -6.5h268q19 0 25.5 6.5t6.5 25.5v20q0 18 -6.5 24t-25.5 8l-382 22q-89 6 -127.5 44t-38.5 122v92q0 87 40 126.5t126 39.5h502q86 0 126 -39.5t40 -126.5v-60h-258v24
q0 19 -6.5 25.5t-25.5 6.5h-244q-19 0 -25.5 -6.5t-6.5 -25.5v-12q0 -18 6.5 -24t25.5 -8l382 -22q89 -6 127.5 -44t38.5 -122v-100q0 -87 -40 -126.5t-126 -39.5h-526q-86 0 -126 39.5t-40 126.5z" />
    <glyph glyph-name="scircumflex" unicode="&#x15d;" horiz-adv-x="790" 
d="M320 570h-176l128 130h246l128 -130h-176l-75 42zM30 134v50h242v-28q0 -14 4 -18t18 -4h192q14 0 18 4t4 18v14q0 13 -3.5 16.5t-18.5 5.5l-314 20q-132 10 -132 130v66q0 63 35 97.5t97 34.5h442q62 0 97 -35.5t35 -98.5v-42h-242v20q0 14 -4 18t-18 4h-168
q-14 0 -18 -4t-4 -18v-8q0 -13 3.5 -16.5t18.5 -5.5l314 -20q132 -10 132 -130v-72q0 -63 -35 -97.5t-97 -34.5h-466q-62 0 -97 35.5t-35 98.5z" />
    <glyph glyph-name="Scedilla" unicode="&#x15e;" horiz-adv-x="922" 
d="M342 454l382 -22q89 -6 127.5 -44t38.5 -122v-100q0 -87 -40 -126.5t-126 -39.5h-239l-6 -18h82q30 0 43 -13t13 -43v-30q0 -30 -13 -43t-43 -13h-216v66h151q7 0 7 7v4q0 7 -7 7h-109v32l14 44h-203q-86 0 -126 39.5t-40 126.5v68h258v-32q0 -19 6.5 -25.5t25.5 -6.5
h268q19 0 25.5 6.5t6.5 25.5v20q0 18 -6.5 24t-25.5 8l-382 22q-89 6 -127.5 44t-38.5 122v92q0 87 40 126.5t126 39.5h502q86 0 126 -39.5t40 -126.5v-60h-258v24q0 19 -6.5 25.5t-25.5 6.5h-244q-19 0 -25.5 -6.5t-6.5 -25.5v-12q0 -18 6.5 -24t25.5 -8z" />
    <glyph glyph-name="scedilla" unicode="&#x15f;" horiz-adv-x="790" 
d="M314 354l314 -20q132 -10 132 -130v-72q0 -63 -35 -97.5t-97 -34.5h-209l-6 -18h82q30 0 43 -13t13 -43v-30q0 -30 -13 -43t-43 -13h-216v66h151q7 0 7 7v4q0 7 -7 7h-109v32l14 44h-173q-62 0 -97 35.5t-35 98.5v50h242v-28q0 -14 4 -18t18 -4h192q14 0 18 4t4 18v14
q0 13 -3.5 16.5t-18.5 5.5l-314 20q-132 10 -132 130v66q0 63 35 97.5t97 34.5h442q62 0 97 -35.5t35 -98.5v-42h-242v20q0 14 -4 18t-18 4h-168q-14 0 -18 -4t-4 -18v-8q0 -13 3.5 -16.5t18.5 -5.5z" />
    <glyph glyph-name="Scaron" unicode="&#x160;" horiz-adv-x="922" 
d="M565 782h-63l-128 26h-7l-16 27l115 25l136 -17zM32 166v68h258v-32q0 -19 6.5 -25.5t25.5 -6.5h268q19 0 25.5 6.5t6.5 25.5v20q0 18 -6.5 24t-25.5 8l-382 22q-89 6 -127.5 44t-38.5 122v92q0 87 40 126.5t126 39.5h502q86 0 126 -39.5t40 -126.5v-60h-258v24
q0 19 -6.5 25.5t-25.5 6.5h-244q-19 0 -25.5 -6.5t-6.5 -25.5v-12q0 -18 6.5 -24t25.5 -8l382 -22q89 -6 127.5 -44t38.5 -122v-100q0 -87 -40 -126.5t-126 -39.5h-526q-86 0 -126 39.5t-40 126.5z" />
    <glyph glyph-name="scaron" unicode="&#x161;" horiz-adv-x="790" 
d="M499 622h-63l-128 26h-7l-16 27l115 25l136 -17zM30 134v50h242v-28q0 -14 4 -18t18 -4h192q14 0 18 4t4 18v14q0 13 -3.5 16.5t-18.5 5.5l-314 20q-132 10 -132 130v66q0 63 35 97.5t97 34.5h442q62 0 97 -35.5t35 -98.5v-42h-242v20q0 14 -4 18t-18 4h-168
q-14 0 -18 -4t-4 -18v-8q0 -13 3.5 -16.5t18.5 -5.5l314 -20q132 -10 132 -130v-72q0 -63 -35 -97.5t-97 -34.5h-466q-62 0 -97 35.5t-35 98.5z" />
    <glyph glyph-name="uni0162" unicode="&#x162;" horiz-adv-x="828" 
d="M548 470v-470h-110l-6 -18h82q30 0 43 -13t13 -43v-30q0 -30 -13 -43t-43 -13h-216v66h151q7 0 7 7v4q0 7 -7 7h-109v32l14 44h-74v470h-270v230h808v-230h-270z" />
    <glyph glyph-name="uni0163" unicode="&#x163;" horiz-adv-x="642" 
d="M622 540v-188h-230v-128q0 -19 6.5 -25.5t25.5 -6.5h198v-192h-239l-6 -18h82q30 0 43 -13t13 -43v-30q0 -30 -13 -43t-43 -13h-216v66h151q7 0 7 7v4q0 7 -7 7h-109v32l14 44q-82 2 -120.5 42t-38.5 124v186h-130v188h130l48 120h204v-120h230z" />
    <glyph glyph-name="Tcaron" unicode="&#x164;" horiz-adv-x="828" 
d="M455 782l-128 26h-7l-16 27l115 25l136 -17l-37 -61h-63zM10 700h808v-230h-270v-470h-268v470h-270v230z" />
    <glyph glyph-name="tcaron" unicode="&#x165;" horiz-adv-x="673" 
d="M422 670v120h228v-36q0 -44 -6 -64q-8 -22 -34 -61l-40 -59h-130l58 100h-76zM188 660h204v-120h230v-188h-230v-128q0 -19 6.5 -25.5t25.5 -6.5h198v-192h-316q-86 0 -126 39.5t-40 126.5v186h-130v188h130z" />
    <glyph glyph-name="Tbar" unicode="&#x166;" horiz-adv-x="828" 
d="M818 700v-230h-270v-107h174v-146h-174v-217h-268v217h-174v146h174v107h-270v230h808z" />
    <glyph glyph-name="tbar" unicode="&#x167;" horiz-adv-x="642" 
d="M392 660v-203h230v-183h-230v-64q0 -19 6.5 -25.5t25.5 -6.5h198v-178h-316q-86 0 -126 39.5t-40 126.5v108h-130v183h130v83l48 120h204z" />
    <glyph glyph-name="Utilde" unicode="&#x168;" horiz-adv-x="920" 
d="M368 730h-137v82q0 48 49 48h177q24 0 36 -5t23 -21l18 -25q4 -4 8 -4h5q5 0 5 5v50h137v-82q0 -48 -49 -48h-177q-24 0 -36 5t-23 21l-18 25q-4 4 -8 4h-5q-5 0 -5 -5v-50zM674 0h-428q-107 0 -158.5 51t-51.5 159v490h268v-430q0 -26 10 -36t36 -10h220q26 0 36 10
t10 36v430h268v-490q0 -108 -51.5 -159t-158.5 -51z" />
    <glyph glyph-name="utilde" unicode="&#x169;" horiz-adv-x="812" 
d="M314 620v-50h-137v82q0 48 49 48h177q24 0 36 -5t23 -21l18 -25q4 -4 8 -4h5q5 0 5 5v50h137v-82q0 -48 -49 -48h-177q-24 0 -36 5t-23 21l-18 25q-4 4 -8 4h-5q-5 0 -5 -5zM522 540h252v-540h-212l-17 54q-36 -33 -71 -44q-33 -10 -102 -10h-148q-99 0 -144.5 45
t-45.5 145v350h252v-304q0 -22 8 -30t30 -8h133q36 0 51 16l14 14v312z" />
    <glyph glyph-name="Umacron" unicode="&#x16a;" horiz-adv-x="920" 
d="M696 740h-472v110h472v-110zM674 0h-428q-107 0 -158.5 51t-51.5 159v490h268v-430q0 -26 10 -36t36 -10h220q26 0 36 10t10 36v430h268v-490q0 -108 -51.5 -159t-158.5 -51z" />
    <glyph glyph-name="umacron" unicode="&#x16b;" horiz-adv-x="812" 
d="M170 690h472v-110h-472v110zM522 540h252v-540h-212l-17 54q-36 -33 -71 -44q-33 -10 -102 -10h-148q-99 0 -144.5 45t-45.5 145v350h252v-304q0 -22 8 -30t30 -8h133q36 0 51 16l14 14v312z" />
    <glyph glyph-name="Ubreve" unicode="&#x16c;" horiz-adv-x="920" 
d="M615 730h-310q-76 0 -76 76v54h166v-18q0 -22 22 -22h86q22 0 22 22v18h166v-54q0 -76 -76 -76zM674 0h-428q-107 0 -158.5 51t-51.5 159v490h268v-430q0 -26 10 -36t36 -10h220q26 0 36 10t10 36v430h268v-490q0 -108 -51.5 -159t-158.5 -51z" />
    <glyph glyph-name="ubreve" unicode="&#x16d;" horiz-adv-x="812" 
d="M561 570h-310q-76 0 -76 76v54h166v-18q0 -22 22 -22h86q22 0 22 22v18h166v-54q0 -76 -76 -76zM522 540h252v-540h-212l-17 54q-36 -33 -71 -44q-33 -10 -102 -10h-148q-99 0 -144.5 45t-45.5 145v350h252v-304q0 -22 8 -30t30 -8h133q36 0 51 16l14 14v312z" />
    <glyph glyph-name="Uring" unicode="&#x16e;" horiz-adv-x="920" 
d="M294 776v28q0 30 13 43t43 13h220q30 0 43 -13t13 -43v-28q0 -30 -13 -43t-43 -13h-220q-30 0 -43 13t-13 43zM378 795v-10q0 -11 3 -14t13 -3h132q10 0 13 3t3 14v10q0 11 -3 14t-13 3h-132q-10 0 -13 -3t-3 -14zM674 0h-428q-107 0 -158.5 51t-51.5 159v490h268v-430
q0 -26 10 -36t36 -10h220q26 0 36 10t10 36v430h268v-490q0 -108 -51.5 -159t-158.5 -51z" />
    <glyph glyph-name="uring" unicode="&#x16f;" horiz-adv-x="812" 
d="M516 560h-220q-30 0 -43 13t-13 43v28q0 30 13 43t43 13h220q30 0 43 -13t13 -43v-28q0 -30 -13 -43t-43 -13zM324 635v-10q0 -11 3 -14t13 -3h132q10 0 13 3t3 14v10q0 11 -3 14t-13 3h-132q-10 0 -13 -3t-3 -14zM522 540h252v-540h-212l-17 54q-36 -33 -71 -44
q-33 -10 -102 -10h-148q-99 0 -144.5 45t-45.5 145v350h252v-304q0 -22 8 -30t30 -8h133q36 0 51 16l14 14v312z" />
    <glyph glyph-name="Uhungarumlaut" unicode="&#x170;" horiz-adv-x="920" 
d="M526 860l-108 -130h-196l58 130h246zM792 860l-108 -130h-196l58 130h246zM674 0h-428q-107 0 -158.5 51t-51.5 159v490h268v-430q0 -26 10 -36t36 -10h220q26 0 36 10t10 36v430h268v-490q0 -108 -51.5 -159t-158.5 -51z" />
    <glyph glyph-name="uhungarumlaut" unicode="&#x171;" horiz-adv-x="812" 
d="M226 700h246l-108 -130h-196zM738 700l-108 -130h-196l58 130h246zM522 540h252v-540h-212l-17 54q-36 -33 -71 -44q-33 -10 -102 -10h-148q-99 0 -144.5 45t-45.5 145v350h252v-304q0 -22 8 -30t30 -8h133q36 0 51 16l14 14v312z" />
    <glyph glyph-name="Uogonek" unicode="&#x172;" horiz-adv-x="920" 
d="M616 270v430h268v-490q0 -108 -51.5 -159t-158.5 -51h-106l-2 -2q-8 -8 -8 -17v-4q0 -13 13 -13h173v-124h-246q-86 0 -86 86v16q0 34 11 58h-177q-107 0 -158.5 51t-51.5 159v490h268v-430q0 -26 10 -36t36 -10h220q26 0 36 10t10 36z" />
    <glyph glyph-name="uogonek" unicode="&#x173;" horiz-adv-x="812" 
d="M678 0l-2 -2q-8 -8 -8 -17v-4q0 -13 13 -13h93v-124h-166q-86 0 -86 86v16q0 55 31 86l-8 26q-36 -33 -71 -44q-33 -10 -102 -10h-148q-99 0 -144.5 45t-45.5 145v350h252v-304q0 -22 8 -30t30 -8h133q36 0 51 16l14 14v312h252v-540h-96z" />
    <glyph glyph-name="Wcircumflex" unicode="&#x174;" horiz-adv-x="1310" 
d="M730 730l-75 42l-75 -42h-176l128 130h246l128 -130h-176zM903 333l129 367h282l-284 -700h-229l-146 359l-146 -359h-229l-284 700h296l128 -365l142 365h196z" />
    <glyph glyph-name="wcircumflex" unicode="&#x175;" horiz-adv-x="1122" 
d="M636 570l-75 42l-75 -42h-176l128 130h246l128 -130h-176zM769 289l91 251h262l-237 -540h-216l-107 261l-105 -261h-220l-237 540h272l93 -251l104 251h194z" />
    <glyph glyph-name="Ycircumflex" unicode="&#x176;" horiz-adv-x="912" 
d="M531 730l-75 42l-75 -42h-176l128 130h246l128 -130h-176zM612 700h310l-332 -447v-253h-268v253l-332 447h324l149 -222z" />
    <glyph glyph-name="ycircumflex" unicode="&#x177;" horiz-adv-x="818" 
d="M484 570l-75 42l-75 -42h-176l128 130h246l128 -130h-176zM414 259l128 281h280l-296 -530q-56 -101 -115 -136q-59 -34 -177 -34h-178v192h188q23 0 34 4l-282 504h290z" />
    <glyph glyph-name="Ydieresis" unicode="&#x178;" horiz-adv-x="912" 
d="M240 860h192v-130h-192v130zM480 860h192v-130h-192v130zM612 700h310l-332 -447v-253h-268v253l-332 447h324l149 -222z" />
    <glyph glyph-name="Zacute" unicode="&#x179;" horiz-adv-x="888" 
d="M682 860l-136 -130h-204l76 130h264zM858 0h-828v180l398 300h-378v220h808v-180l-398 -300h398v-220z" />
    <glyph glyph-name="zacute" unicode="&#x17a;" horiz-adv-x="774" 
d="M625 700l-136 -130h-204l76 130h264zM746 0h-718v146l313 212h-293v182h698v-146l-313 -212h313v-182z" />
    <glyph glyph-name="Zdotaccent" unicode="&#x17b;" horiz-adv-x="888" 
d="M572 730h-256v130h256v-130zM858 0h-828v180l398 300h-378v220h808v-180l-398 -300h398v-220z" />
    <glyph glyph-name="zdotaccent" unicode="&#x17c;" horiz-adv-x="774" 
d="M515 570h-256v130h256v-130zM746 0h-718v146l313 212h-293v182h698v-146l-313 -212h313v-182z" />
    <glyph glyph-name="Zcaron" unicode="&#x17d;" horiz-adv-x="888" 
d="M548 782h-63l-128 26h-7l-16 27l115 25l136 -17zM858 0h-828v180l398 300h-378v220h808v-180l-398 -300h398v-220z" />
    <glyph glyph-name="zcaron" unicode="&#x17e;" horiz-adv-x="774" 
d="M491 622h-63l-128 26h-7l-16 27l115 25l136 -17zM746 0h-718v146l313 212h-293v182h698v-146l-313 -212h313v-182z" />
    <glyph glyph-name="florin" unicode="&#x192;" horiz-adv-x="784" 
d="M754 488h-165q-26 0 -35.5 -9.5t-12.5 -36.5l-7 -72h200v-160h-217l-16 -160q-12 -112 -60.5 -161t-151.5 -49h-259v212h165q26 0 35.5 9.5t12.5 36.5l11 112h-204v160h221l12 120q12 112 60.5 161t151.5 49h259v-212z" />
    <glyph glyph-name="Aringacute" unicode="&#x1fa;" horiz-adv-x="980" 
d="M984 0h-304l-39 94h-316l-39 -94h-290l334 683q-6 13 -6 33v28q0 30 13 43t43 13h25l29 60h256l-62 -64q28 -10 28 -52v-28q0 -20 -6 -33zM408 735v-10q0 -11 3 -14t13 -3h132q10 0 13 3t3 14v10q0 11 -3 14t-13 3h-132q-10 0 -13 -3t-3 -14zM483 469l-85 -201h169z" />
    <glyph glyph-name="aringacute" unicode="&#x1fb;" horiz-adv-x="804" 
d="M573 540h7q99 0 144.5 -45t45.5 -145v-350h-212l-15 46q-36 -30 -66 -37q-31 -9 -99 -9h-218q-62 0 -96 33.5t-34 96.5v54q0 63 34 96.5t96 33.5h358v30q0 22 -8 30t-30 8h-152q-19 0 -25.5 -6.5t-6.5 -25.5v-11h-242v35q0 87 40 126.5t126 39.5h23q-1 3 -1 16v28
q0 30 13 43t43 13h25l29 60h256l-62 -64q28 -10 28 -52v-28q0 -13 -1 -16zM326 575v-10q0 -11 3 -14t13 -3h132q10 0 13 3t3 14v10q0 11 -3 14t-13 3h-132q-10 0 -13 -3t-3 -14zM308 138h153q27 0 43 16l14 14v40h-210q-16 0 -21 -5t-5 -21v-18q0 -16 5 -21t21 -5z" />
    <glyph glyph-name="AEacute" unicode="&#x1fc;" horiz-adv-x="1286" 
d="M689 860h264l-136 -130h-204zM848 272l32 -73h386v-199h-601l-34 88h-308l-37 -88h-290l342 700h918v-199h-510l29 -65h441v-164h-368zM482 468l-86 -206h167z" />
    <glyph glyph-name="aeacute" unicode="&#x1fd;" horiz-adv-x="1288" 
d="M618 700h264l-136 -130h-204zM758 540h310q99 0 144.5 -45t45.5 -145v-112h-488v-24q0 -22 8 -30t30 -8h176q19 0 25.5 6.5t6.5 25.5v5h242v-47q0 -87 -40 -126.5t-126 -39.5h-350q-90 0 -136 37q-30 -23 -61 -30q-29 -7 -93 -7h-292q-62 0 -96 33.5t-34 96.5v54
q0 63 34 96.5t96 33.5h358v30q0 22 -8 30t-30 8h-152q-19 0 -25.5 -6.5t-6.5 -25.5v-11h-242v35q0 87 40 126.5t126 39.5h310q77 0 114 -37q37 37 114 37zM770 360v-16h246v16q0 22 -8 30t-30 8h-170q-22 0 -30 -8t-8 -30zM504 154l14 14v40h-210q-16 0 -21 -5t-5 -21v-18
q0 -16 5 -21t21 -5h153q27 0 43 16z" />
    <glyph glyph-name="Oslashacute" unicode="&#x1fe;" horiz-adv-x="942" 
d="M445 860h264l-136 -130h-204zM940 730l-83 -80q53 -50 53 -160v-280q0 -108 -51.5 -159t-158.5 -51h-458q-34 0 -53 4l-35 -34h-152l83 80q-53 50 -53 160v280q0 108 51.5 159t158.5 51h458q34 0 53 -4l35 34h152zM288 444v-188v-9l252 243h-206q-26 0 -36 -10t-10 -36z
M654 256v188v9l-252 -243h206q26 0 36 10t10 36z" />
    <glyph glyph-name="oslashacute" unicode="&#x1ff;" horiz-adv-x="810" 
d="M379 700h264l-136 -130h-204zM810 570l-79 -71q49 -46 49 -149v-160q0 -100 -45.5 -145t-144.5 -45h-370q-8 0 -42 2l-36 -32h-142l79 71q-49 46 -49 149v160q0 100 45.5 145t144.5 45h370q8 0 42 -2l36 32h142zM260 326v-112v-10l179 160h-141q-22 0 -30 -8t-8 -30z
M550 214v112v10l-179 -160h141q22 0 30 8t8 30z" />
    <glyph glyph-name="Scommaaccent" unicode="&#x218;" horiz-adv-x="922" 
d="M32 166v68h258v-32q0 -19 6.5 -25.5t25.5 -6.5h268q19 0 25.5 6.5t6.5 25.5v20q0 18 -6.5 24t-25.5 8l-382 22q-89 6 -127.5 44t-38.5 122v92q0 87 40 126.5t126 39.5h502q86 0 126 -39.5t40 -126.5v-60h-258v24q0 19 -6.5 25.5t-25.5 6.5h-244q-19 0 -25.5 -6.5
t-6.5 -25.5v-12q0 -18 6.5 -24t25.5 -8l382 -22q89 -6 127.5 -44t38.5 -122v-100q0 -87 -40 -126.5t-126 -39.5h-526q-86 0 -126 39.5t-40 126.5zM491 -250h-122l62 100h-84v120h228v-36q0 -44 -7 -64q-8 -23 -35 -61z" />
    <glyph glyph-name="scommaaccent" unicode="&#x219;" horiz-adv-x="790" 
d="M30 134v50h242v-28q0 -14 4 -18t18 -4h192q14 0 18 4t4 18v14q0 13 -3.5 16.5t-18.5 5.5l-314 20q-132 10 -132 130v66q0 63 35 97.5t97 34.5h442q62 0 97 -35.5t35 -98.5v-42h-242v20q0 14 -4 18t-18 4h-168q-14 0 -18 -4t-4 -18v-8q0 -13 3.5 -16.5t18.5 -5.5l314 -20
q132 -10 132 -130v-72q0 -63 -35 -97.5t-97 -34.5h-466q-62 0 -97 35.5t-35 98.5zM425 -250h-122l62 100h-84v120h228v-36q0 -44 -7 -64q-8 -23 -35 -61z" />
    <glyph glyph-name="uni021A" unicode="&#x21a;" horiz-adv-x="828" 
d="M10 700h808v-230h-270v-470h-268v470h-270v230zM384 -150h-84v120h228v-36q0 -44 -7 -64q-8 -23 -35 -61l-42 -59h-122z" />
    <glyph glyph-name="uni021B" unicode="&#x21b;" horiz-adv-x="642" 
d="M622 540v-188h-230v-128q0 -19 6.5 -25.5t25.5 -6.5h198v-192h-316q-86 0 -126 39.5t-40 126.5v186h-130v188h130l48 120h204v-120h230zM329 -150h-84v120h228v-36q0 -44 -7 -64q-8 -23 -35 -61l-42 -59h-122z" />
    <glyph glyph-name="uni0237" unicode="&#x237;" horiz-adv-x="380" 
d="M172 -160h-232v182h110q19 0 25.5 6.5t6.5 25.5v486h256v-534q0 -87 -40 -126.5t-126 -39.5z" />
    <glyph glyph-name="circumflex" unicode="&#x2c6;" horiz-adv-x="550" 
d="M216 570h-176l128 130h246l128 -130h-176l-75 42z" />
    <glyph glyph-name="caron" unicode="&#x2c7;" horiz-adv-x="565" 
d="M395 622h-63l-128 26h-7l-16 27l115 25l136 -17z" />
    <glyph glyph-name="breve" unicode="&#x2d8;" horiz-adv-x="510" 
d="M426 570h-310q-76 0 -76 76v54h166v-18q0 -22 22 -22h86q22 0 22 22v18h166v-54q0 -76 -76 -76z" />
    <glyph glyph-name="dotaccent" unicode="&#x2d9;" horiz-adv-x="328" 
d="M296 570h-256v130h256v-130z" />
    <glyph glyph-name="ring" unicode="&#x2da;" horiz-adv-x="380" 
d="M40 616v28q0 30 13 43t43 13h220q30 0 43 -13t13 -43v-28q0 -30 -13 -43t-43 -13h-220q-30 0 -43 13t-13 43zM124 635v-10q0 -11 3 -14t13 -3h132q10 0 13 3t3 14v10q0 11 -3 14t-13 3h-132q-10 0 -13 -3t-3 -14z" />
    <glyph glyph-name="ogonek" unicode="&#x2db;" horiz-adv-x="380" 
d="M213 17l-19 -19q-8 -8 -8 -17v-4q0 -13 13 -13h173v-124h-246q-86 0 -86 86v16q0 33 9.5 54.5t35.5 44.5l31 25z" />
    <glyph glyph-name="tilde" unicode="&#x2dc;" horiz-adv-x="510" 
d="M177 570h-137v82q0 48 49 48h177q24 0 36 -5t23 -21l18 -25q4 -4 8 -4h5q5 0 5 5v50h137v-82q0 -48 -49 -48h-177q-24 0 -36 5t-23 21l-18 25q-4 4 -8 4h-5q-5 0 -5 -5v-50z" />
    <glyph glyph-name="hungarumlaut" unicode="&#x2dd;" horiz-adv-x="618" 
d="M344 700l-108 -130h-196l58 130h246zM610 700l-108 -130h-196l58 130h246z" />
    <glyph glyph-name="gravecomb" unicode="&#x300;" horiz-adv-x="0" 
d="M-40 570h-204l-136 130h264z" />
    <glyph glyph-name="acutecomb" unicode="&#x301;" horiz-adv-x="0" 
d="M-40 700l-136 -130h-204l76 130h264z" />
    <glyph glyph-name="uni0302" unicode="&#x302;" horiz-adv-x="0" 
d="M-366 570h-176l128 130h246l128 -130h-176l-75 42z" />
    <glyph glyph-name="tildecomb" unicode="&#x303;" horiz-adv-x="0" 
d="M-361 570h-137v82q0 48 49 48h177q24 0 36 -5t23 -21l18 -25q4 -4 8 -4h5q5 0 5 5v50h137v-82q0 -48 -49 -48h-177q-24 0 -36 5t-23 21l-18 25q-4 4 -8 4h-5q-5 0 -5 -5v-50z" />
    <glyph glyph-name="uni0304" unicode="&#x304;" horiz-adv-x="0" 
d="M-40 580h-472v110h472v-110z" />
    <glyph glyph-name="uni0306" unicode="&#x306;" horiz-adv-x="0" 
d="M-116 570h-310q-76 0 -76 76v54h166v-18q0 -22 22 -22h86q22 0 22 22v18h166v-54q0 -76 -76 -76z" />
    <glyph glyph-name="uni0307" unicode="&#x307;" horiz-adv-x="0" 
d="M-40 570h-256v130h256v-130z" />
    <glyph glyph-name="uni0308" unicode="&#x308;" horiz-adv-x="0" 
d="M-280 570h-192v130h192v-130zM-40 570h-192v130h192v-130z" />
    <glyph glyph-name="uni030A" unicode="&#x30a;" horiz-adv-x="0" 
d="M-372 616v28q0 30 13 43t43 13h220q30 0 43 -13t13 -43v-28q0 -30 -13 -43t-43 -13h-220q-30 0 -43 13t-13 43zM-288 635v-10q0 -11 3 -14t13 -3h132q10 0 13 3t3 14v10q0 11 -3 14t-13 3h-132q-10 0 -13 -3t-3 -14z" />
    <glyph glyph-name="uni030B" unicode="&#x30b;" horiz-adv-x="0" 
d="M-306 700l-108 -130h-196l58 130h246zM-40 700l-108 -130h-196l58 130h246z" />
    <glyph glyph-name="uni030C" unicode="&#x30c;" horiz-adv-x="0" 
d="M-187 622h-63l-128 26h-7l-16 27l115 25l136 -17z" />
    <glyph glyph-name="uni0312" unicode="&#x312;" horiz-adv-x="0" 
d="M-180 790h122l-58 -100h76v-120h-220v36q0 44 6 65q8 21 34 60z" />
    <glyph glyph-name="uni0326" unicode="&#x326;" horiz-adv-x="0" 
d="M-124 -250h-122l62 100h-84v120h228v-36q0 -44 -7 -64q-8 -23 -35 -61z" />
    <glyph glyph-name="uni0327" unicode="&#x327;" horiz-adv-x="0" 
d="M-96 -160h-216v66h151q7 0 7 7v4q0 7 -7 7h-109v32l20 64h84l-12 -38h82q30 0 43 -13t13 -43v-30q0 -30 -13 -43t-43 -13z" />
    <glyph glyph-name="uni0328" unicode="&#x328;" horiz-adv-x="0" 
d="M-199 17l-19 -19q-8 -8 -8 -17v-4q0 -13 13 -13h173v-124h-246q-86 0 -86 86v16q0 33 9.5 54.5t35.5 44.5l31 25z" />
    <glyph glyph-name="uni0335" unicode="&#x335;" horiz-adv-x="0" 
d="M-480 281v146h440v-146h-440z" />
    <glyph glyph-name="uni0336" unicode="&#x336;" horiz-adv-x="0" 
d="M-920 281v146h880v-146h-880z" />
    <glyph glyph-name="uni0337" unicode="&#x337;" horiz-adv-x="0" 
d="M-490 277v146l450 60v-146z" />
    <glyph glyph-name="uni0338" unicode="&#x338;" horiz-adv-x="0" 
d="M-660 -30l520 600h140l-520 -600h-140z" />
    <glyph glyph-name="uni0394" unicode="&#x394;" horiz-adv-x="980" 
d="M338 700h304l342 -700h-988zM483 469l-113 -269h226z" />
    <glyph glyph-name="uni03A9" unicode="&#x3a9;" horiz-adv-x="942" 
d="M824 200h96v-200h-406v290h82q26 0 36 10t10 36v98q0 26 -10 36t-36 10h-250q-26 0 -36 -10t-10 -36v-98q0 -26 10 -36t36 -10h82v-290h-406v200h96q-86 38 -86 164v126q0 108 51.5 159t158.5 51h458q107 0 158.5 -51t51.5 -159v-126q0 -126 -86 -164z" />
    <glyph glyph-name="uni03BC" unicode="&#x3bc;" horiz-adv-x="846" 
d="M804 192h32v-192h-150q-99 0 -135 55q-38 -33 -73 -44q-36 -11 -102 -11h-94v-160h-244v700h252v-304q0 -22 8 -30t30 -8h133q36 0 51 16l14 14v312h252v-322q0 -16 5 -21t21 -5z" />
    <glyph glyph-name="pi" unicode="&#x3c0;" horiz-adv-x="916" 
d="M896 540v-188h-82v-128q0 -19 6.5 -25.5t25.5 -6.5h50v-192h-168q-86 0 -126 39.5t-40 126.5v186h-208v-352h-252v352h-92v188h886z" />
    <glyph glyph-name="uni0401" unicode="&#x401;" horiz-adv-x="818" 
d="M193 860h192v-130h-192v130zM433 860h192v-130h-192v130zM308 272v-73h490v-199h-758v700h748v-199h-480v-65h440v-164h-440z" />
    <glyph glyph-name="uni0403" unicode="&#x403;" horiz-adv-x="758" 
d="M353 860h264l-136 -130h-204zM40 700h708v-230h-440v-470h-268v700z" />
    <glyph glyph-name="uni0405" unicode="&#x405;" horiz-adv-x="922" 
d="M32 166v68h258v-32q0 -19 6.5 -25.5t25.5 -6.5h268q19 0 25.5 6.5t6.5 25.5v20q0 18 -6.5 24t-25.5 8l-382 22q-89 6 -127.5 44t-38.5 122v92q0 87 40 126.5t126 39.5h502q86 0 126 -39.5t40 -126.5v-60h-258v24q0 19 -6.5 25.5t-25.5 6.5h-244q-19 0 -25.5 -6.5
t-6.5 -25.5v-12q0 -18 6.5 -24t25.5 -8l382 -22q89 -6 127.5 -44t38.5 -122v-100q0 -87 -40 -126.5t-126 -39.5h-526q-86 0 -126 39.5t-40 126.5z" />
    <glyph glyph-name="uni0406" unicode="&#x406;" horiz-adv-x="360" 
d="M44 0v700h272v-700h-272z" />
    <glyph glyph-name="uni0407" unicode="&#x407;" horiz-adv-x="360" 
d="M156 730h-192v130h192v-130zM396 730h-192v130h192v-130zM44 0v700h272v-700h-272z" />
    <glyph glyph-name="uni0408" unicode="&#x408;" horiz-adv-x="846" 
d="M600 0h-370q-107 0 -158.5 51t-51.5 159v100h258v-48q0 -26 10 -36t36 -10h172q26 0 36 10t10 36v438h268v-490q0 -108 -51.5 -159t-158.5 -51z" />
    <glyph glyph-name="uni040C" unicode="&#x40c;" horiz-adv-x="934" 
d="M381 860h264l-136 -130h-204zM602 364l332 -364h-356l-270 324v-324h-268v700h268v-309l266 309h356z" />
    <glyph glyph-name="uni040E" unicode="&#x40e;" horiz-adv-x="912" 
d="M611 730h-310q-76 0 -76 76v54h166v-18q0 -22 22 -22h86q22 0 22 22v18h166v-54q0 -76 -76 -76zM463 458l149 242h310l-489 -700h-309l181 250l-315 450h324z" />
    <glyph glyph-name="uni0410" unicode="&#x410;" horiz-adv-x="980" 
d="M984 0h-304l-39 94h-316l-39 -94h-290l342 700h304zM483 469l-85 -201h169z" />
    <glyph glyph-name="uni0411" unicode="&#x411;" horiz-adv-x="908" 
d="M712 0h-672v700h778v-194h-510v-68h404q86 0 126 -39.5t40 -126.5v-106q0 -87 -40 -126.5t-126 -39.5zM308 278v-88h270q19 0 25.5 6.5t6.5 25.5v24q0 19 -6.5 25.5t-25.5 6.5h-270z" />
    <glyph glyph-name="uni0412" unicode="&#x412;" horiz-adv-x="908" 
d="M784 357q94 -21 94 -141v-50q0 -87 -40 -126.5t-126 -39.5h-672v700h652q86 0 126 -39.5t40 -126.5v-42q0 -106 -74 -135zM558 510h-250v-82h250q19 0 25.5 6.5t6.5 25.5v18q0 19 -6.5 25.5t-25.5 6.5zM610 222v26q0 19 -6.5 25.5t-25.5 6.5h-270v-90h270q19 0 25.5 6.5
t6.5 25.5z" />
    <glyph glyph-name="uni0413" unicode="&#x413;" horiz-adv-x="758" 
d="M40 700h708v-230h-440v-470h-268v700z" />
    <glyph glyph-name="uni0414" unicode="&#x414;" horiz-adv-x="1058" 
d="M934 700v-480h114v-340h-248v120h-542v-120h-248v340h74q26 0 35.5 9.5t11.5 36.5l29 434h774zM418 470l-14 -180q-3 -40 -11 -70h273v250h-248z" />
    <glyph glyph-name="uni0415" unicode="&#x415;" horiz-adv-x="818" 
d="M308 272v-73h490v-199h-758v700h748v-199h-480v-65h440v-164h-440z" />
    <glyph glyph-name="uni0416" unicode="&#x416;" horiz-adv-x="1520" 
d="M1188 364l332 -364h-356l-270 324v-324h-268v324l-270 -324h-356l332 364l-328 336h356l266 -309v309h268v-309l266 309h356z" />
    <glyph glyph-name="uni0417" unicode="&#x417;" horiz-adv-x="918" 
d="M800 355q88 -22 88 -139v-50q0 -87 -40 -126.5t-126 -39.5h-526q-86 0 -126 39.5t-40 126.5v110h258v-54q0 -19 6.5 -25.5t25.5 -6.5h268q19 0 25.5 6.5t6.5 25.5v21q0 19 -6.5 25.5t-25.5 6.5h-232v158h222q19 0 25.5 6.5t6.5 25.5v13q0 19 -6.5 25.5t-25.5 6.5h-248
q-19 0 -25.5 -6.5t-6.5 -25.5v-46h-258v102q0 87 40 126.5t126 39.5h506q86 0 126 -39.5t40 -126.5v-42q0 -112 -78 -137z" />
    <glyph glyph-name="uni0418" unicode="&#x418;" horiz-adv-x="948" 
d="M298 339l382 361h228v-700h-258v371l-392 -371h-218v700h258v-361z" />
    <glyph glyph-name="uni0419" unicode="&#x419;" horiz-adv-x="948" 
d="M629 730h-310q-76 0 -76 76v54h166v-18q0 -22 22 -22h86q22 0 22 22v18h166v-54q0 -76 -76 -76zM298 339l382 361h228v-700h-258v371l-392 -371h-218v700h258v-361z" />
    <glyph glyph-name="uni041A" unicode="&#x41a;" horiz-adv-x="934" 
d="M602 364l332 -364h-356l-270 324v-324h-268v700h268v-309l266 309h356z" />
    <glyph glyph-name="uni041B" unicode="&#x41b;" horiz-adv-x="938" 
d="M152 0h-142v220h38q26 0 35.5 9.5t11.5 36.5l29 434h774v-700h-268v470h-248l-19 -260q-8 -111 -57.5 -160.5t-153.5 -49.5z" />
    <glyph glyph-name="uni041C" unicode="&#x41c;" horiz-adv-x="1056" 
d="M533 353l257 347h226v-700h-252v315l-166 -219h-140l-166 219v-315h-252v700h236z" />
    <glyph glyph-name="uni041D" unicode="&#x41d;" horiz-adv-x="928" 
d="M620 475v225h268v-700h-268v245h-312v-245h-268v700h268v-225h312z" />
    <glyph glyph-name="uni041E" unicode="&#x41e;" horiz-adv-x="942" 
d="M700 0h-458q-107 0 -158.5 51t-51.5 159v280q0 108 51.5 159t158.5 51h458q107 0 158.5 -51t51.5 -159v-280q0 -108 -51.5 -159t-158.5 -51zM346 220h250q26 0 36 10t10 36v168q0 26 -10 36t-36 10h-250q-26 0 -36 -10t-10 -36v-168q0 -26 10 -36t36 -10z" />
    <glyph glyph-name="uni041F" unicode="&#x41f;" horiz-adv-x="928" 
d="M308 0h-268v700h848v-700h-268v470h-312v-470z" />
    <glyph glyph-name="uni0420" unicode="&#x420;" horiz-adv-x="888" 
d="M308 0h-268v700h638q99 0 144.5 -45t45.5 -145v-140q0 -100 -45.5 -145t-144.5 -45h-370v-180zM308 500v-130h254q22 0 30 8t8 30v54q0 22 -8 30t-30 8h-254z" />
    <glyph glyph-name="uni0421" unicode="&#x421;" horiz-adv-x="910" 
d="M670 0h-428q-107 0 -158.5 51t-51.5 159v280q0 108 51.5 159t158.5 51h428q107 0 158.5 -51t51.5 -159v-96h-258v44q0 26 -10 36t-36 10h-230q-26 0 -36 -10t-10 -36v-176q0 -26 10 -36t36 -10h230q26 0 36 10t10 36v50h258v-102q0 -108 -51.5 -159t-158.5 -51z" />
    <glyph glyph-name="uni0422" unicode="&#x422;" horiz-adv-x="828" 
d="M10 700h808v-230h-270v-470h-268v470h-270v230z" />
    <glyph glyph-name="uni0423" unicode="&#x423;" horiz-adv-x="912" 
d="M463 458l149 242h310l-489 -700h-309l181 250l-315 450h324z" />
    <glyph glyph-name="uni0424" unicode="&#x424;" horiz-adv-x="1180" 
d="M714 660h224q107 0 158.5 -51t51.5 -159v-200q0 -108 -51.5 -159t-158.5 -51h-224v-80h-248v80h-224q-107 0 -158.5 51t-51.5 159v200q0 108 51.5 159t158.5 51h224v80h248v-80zM346 232h120v236h-120q-26 0 -36 -10t-10 -36v-144q0 -26 10 -36t36 -10zM880 278v144
q0 26 -10 36t-36 10h-120v-236h120q26 0 36 10t10 36z" />
    <glyph glyph-name="uni0425" unicode="&#x425;" horiz-adv-x="928" 
d="M320 0h-320l286 357l-276 343h336l126 -172l126 172h320l-276 -343l286 -357h-336l-136 186z" />
    <glyph glyph-name="uni0426" unicode="&#x426;" horiz-adv-x="1012" 
d="M754 0h-714v700h268v-470h312v470h268v-470h114v-350h-248v120z" />
    <glyph glyph-name="uni0427" unicode="&#x427;" horiz-adv-x="896" 
d="M856 0h-268v180h-378q-99 0 -144.5 45t-45.5 145v330h268v-252q0 -22 8 -30t30 -8h262v290h268v-700z" />
    <glyph glyph-name="uni0428" unicode="&#x428;" horiz-adv-x="1340" 
d="M1300 0h-1260v700h268v-470h228v470h268v-470h228v470h268v-700z" />
    <glyph glyph-name="uni0429" unicode="&#x429;" horiz-adv-x="1424" 
d="M1166 0h-1126v700h268v-470h228v470h268v-470h228v470h268v-470h114v-350h-248v120z" />
    <glyph glyph-name="uni042A" unicode="&#x42a;" horiz-adv-x="1072" 
d="M216 480h-206v220h474v-180h378q99 0 144.5 -45t45.5 -145v-140q0 -100 -45.5 -145t-144.5 -45h-646v480zM484 330v-130h262q22 0 30 8t8 30v54q0 22 -8 30t-30 8h-262z" />
    <glyph glyph-name="uni042B" unicode="&#x42b;" horiz-adv-x="1248" 
d="M40 0v700h268v-180h370q99 0 144.5 -45t45.5 -145v-140q0 -100 -45.5 -145t-144.5 -45h-638zM932 0v700h272v-700h-272zM562 330h-254v-130h254q22 0 30 8t8 30v54q0 22 -8 30t-30 8z" />
    <glyph glyph-name="uni042C" unicode="&#x42c;" horiz-adv-x="888" 
d="M40 0v700h268v-180h370q99 0 144.5 -45t45.5 -145v-140q0 -100 -45.5 -145t-144.5 -45h-638zM562 330h-254v-130h254q22 0 30 8t8 30v54q0 22 -8 30t-30 8z" />
    <glyph glyph-name="uni042D" unicode="&#x42d;" horiz-adv-x="929" 
d="M240 700h448q107 0 158.5 -51t51.5 -159v-280q0 -108 -51.5 -159t-158.5 -51h-448q-107 0 -158.5 51t-51.5 159v102h258v-70q0 -26 10 -36t36 -10h250q26 0 36 10t10 36v30h-264v160h264v26q0 26 -10 36t-36 10h-250q-26 0 -36 -10t-10 -36v-64h-258v96q0 108 51.5 159
t158.5 51z" />
    <glyph glyph-name="uni042E" unicode="&#x42e;" horiz-adv-x="1372" 
d="M672 700h458q107 0 158.5 -51t51.5 -159v-280q0 -108 -51.5 -159t-158.5 -51h-458q-107 0 -158.5 51t-51.5 159v34h-154v-244h-268v700h268v-226h154v16q0 108 51.5 159t158.5 51zM1072 266v168q0 26 -10 36t-36 10h-250q-26 0 -36 -10t-10 -36v-168q0 -26 10 -36t36 -10
h250q26 0 36 10t10 36z" />
    <glyph glyph-name="uni042F" unicode="&#x42f;" horiz-adv-x="904" 
d="M226 700h638v-700h-268v206h-148l-138 -206h-304l161 231q-68 12 -99.5 56.5t-31.5 128.5v94q0 100 45.5 145t144.5 45zM342 390h254v120h-254q-22 0 -30 -8t-8 -30v-44q0 -22 8 -30t30 -8z" />
    <glyph glyph-name="uni0430" unicode="&#x430;" horiz-adv-x="804" 
d="M220 540h360q99 0 144.5 -45t45.5 -145v-350h-212l-15 46q-36 -30 -66 -37q-31 -9 -99 -9h-218q-62 0 -96 33.5t-34 96.5v54q0 63 34 96.5t96 33.5h358v30q0 22 -8 30t-30 8h-152q-19 0 -25.5 -6.5t-6.5 -25.5v-11h-242v35q0 87 40 126.5t126 39.5zM308 138h153
q27 0 43 16l14 14v40h-210q-16 0 -21 -5t-5 -21v-18q0 -16 5 -21t21 -5z" />
    <glyph glyph-name="uni0431" unicode="&#x431;" horiz-adv-x="814" 
d="M358 452h260q86 0 126 -39.5t40 -126.5v-120q0 -87 -40 -126.5t-126 -39.5h-418q-86 0 -126 39.5t-40 126.5v308q0 105 50.5 155t159.5 57l520 24v-190l-474 -23q-32 -2 -45 -15.5t-13 -45.5v-38q24 54 126 54zM532 210v46q0 19 -6.5 25.5t-25.5 6.5h-182
q-19 0 -25.5 -6.5t-6.5 -25.5v-46q0 -19 6.5 -25.5t25.5 -6.5h182q19 0 25.5 6.5t6.5 25.5z" />
    <glyph glyph-name="uni0432" unicode="&#x432;" horiz-adv-x="800" 
d="M699 275q73 -16 73 -108v-39q0 -67 -31 -97.5t-97 -30.5h-606v540h591q66 0 97 -30.5t31 -97.5v-32q0 -86 -58 -105zM480 393h-190v-63h190q14 0 19.5 5.5t5.5 19.5v14q0 14 -5.5 19t-19.5 5zM520 171v20q0 15 -5 20t-20 5h-205v-69h205q15 0 20 5t5 19z" />
    <glyph glyph-name="uni0433" unicode="&#x433;" horiz-adv-x="660" 
d="M290 0h-252v540h612v-198h-360v-342z" />
    <glyph glyph-name="uni0434" unicode="&#x434;" horiz-adv-x="934" 
d="M820 540v-349h104v-311h-232v120h-450v-120h-232v311h71q21 0 28.5 7.5t9.5 29.5l21 312h680zM382 342l-7 -83q-3 -32 -11 -68h204v151h-186z" />
    <glyph glyph-name="uni0435" unicode="&#x435;" horiz-adv-x="800" 
d="M220 540h360q99 0 144.5 -45t45.5 -145v-112h-488v-24q0 -22 8 -30t30 -8h176q19 0 25.5 6.5t6.5 25.5v5h242v-47q0 -87 -40 -126.5t-126 -39.5h-384q-99 0 -144.5 45t-45.5 145v160q0 100 45.5 145t144.5 45zM282 360v-16h246v16q0 22 -8 30t-30 8h-170q-22 0 -30 -8
t-8 -30z" />
    <glyph glyph-name="uni0436" unicode="&#x436;" horiz-adv-x="1348" 
d="M1080 274l278 -274h-344l-214 237v-237h-252v237l-214 -237h-344l278 274l-270 266h344l206 -239v239h252v-239l206 239h344z" />
    <glyph glyph-name="uni0437" unicode="&#x437;" horiz-adv-x="800" 
d="M702 274q68 -18 68 -107v-39q0 -67 -31 -97.5t-97 -30.5h-484q-66 0 -97 30.5t-31 97.5v87h242v-42q0 -14 5 -19t20 -5h196q14 0 19.5 5t5.5 19v16q0 15 -5.5 20t-19.5 5h-167v118h159q14 0 19.5 5t5.5 20v10q0 14 -5.5 19t-19.5 5h-181q-14 0 -19 -5t-5 -19v-36h-242v81
q0 67 31 97.5t97 30.5h468q66 0 97 -30.5t31 -97.5v-32q0 -86 -60 -106z" />
    <glyph glyph-name="uni0438" unicode="&#x438;" horiz-adv-x="830" 
d="M280 280l300 260h212v-540h-242v269l-310 -269h-202v540h242v-260z" />
    <glyph glyph-name="uni0439" unicode="&#x439;" horiz-adv-x="830" 
d="M570 570h-310q-76 0 -76 76v54h166v-18q0 -22 22 -22h86q22 0 22 22v18h166v-54q0 -76 -76 -76zM280 280l300 260h212v-540h-242v269l-310 -269h-202v540h242v-260z" />
    <glyph glyph-name="uni043A" unicode="&#x43a;" horiz-adv-x="838" 
d="M570 274l278 -274h-344l-214 237v-237h-252v540h252v-239l206 239h344z" />
    <glyph glyph-name="uni043B" unicode="&#x43b;" horiz-adv-x="820" 
d="M142 0h-132v191h33q21 0 28.5 7.5t9.5 29.5l21 312h680v-540h-252v342h-186l-12 -153q-8 -103 -51 -146t-139 -43z" />
    <glyph glyph-name="uni043C" unicode="&#x43c;" horiz-adv-x="916" 
d="M270 0h-232v540h223l201 -252l203 252h213v-540h-232v233l-132 -159h-112l-132 159v-233z" />
    <glyph glyph-name="uni043D" unicode="&#x43d;" horiz-adv-x="816" 
d="M526 374v166h252v-540h-252v176h-236v-176h-252v540h252v-166h236z" />
    <glyph glyph-name="uni043E" unicode="&#x43e;" horiz-adv-x="810" 
d="M590 0h-370q-99 0 -144.5 45t-45.5 145v160q0 100 45.5 145t144.5 45h370q99 0 144.5 -45t45.5 -145v-160q0 -100 -45.5 -145t-144.5 -45zM320 192h170q22 0 30 8t8 30v80q0 22 -8 30t-30 8h-170q-22 0 -30 -8t-8 -30v-80q0 -22 8 -30t30 -8z" />
    <glyph glyph-name="uni043F" unicode="&#x43f;" horiz-adv-x="816" 
d="M290 0h-252v540h740v-540h-252v342h-236v-342z" />
    <glyph glyph-name="uni0440" unicode="&#x440;" horiz-adv-x="818" 
d="M440 540h158q99 0 144.5 -45t45.5 -145v-160q0 -100 -45.5 -145t-144.5 -45h-158q-61 0 -91 7t-59 28v-195h-252v700h212l17 -54q36 33 72 44q31 10 101 10zM536 230v80q0 22 -8 30t-30 8h-143q-36 0 -51 -16l-14 -14v-96l14 -14q16 -16 51 -16h143q22 0 30 8t8 30z" />
    <glyph glyph-name="uni0441" unicode="&#x441;" horiz-adv-x="780" 
d="M30 190v160q0 100 45.5 145t144.5 45h340q99 0 144.5 -45t45.5 -145v-53h-242v13q0 22 -8 30t-30 8h-150q-22 0 -30 -8t-8 -30v-80q0 -22 8 -30t30 -8h150q22 0 30 8t8 30v17h242v-57q0 -100 -45.5 -145t-144.5 -45h-340q-99 0 -144.5 45t-45.5 145z" />
    <glyph glyph-name="uni0442" unicode="&#x442;" horiz-adv-x="720" 
d="M234 342h-224v198h700v-198h-224v-342h-252v342z" />
    <glyph glyph-name="uni0443" unicode="&#x443;" horiz-adv-x="818" 
d="M414 259l128 281h280l-296 -530q-56 -101 -115 -136q-59 -34 -177 -34h-178v192h188q23 0 34 4l-282 504h290z" />
    <glyph glyph-name="uni0444" unicode="&#x444;" horiz-adv-x="1130" 
d="M686 540h224q99 0 144.5 -45t45.5 -145v-160q0 -100 -45.5 -145t-144.5 -45h-224v-160h-242v160h-224q-99 0 -144.5 45t-45.5 145v160q0 100 45.5 145t144.5 45h224v160h242v-160zM320 170h124v200h-124q-22 0 -30 -8t-8 -30v-124q0 -22 8 -30t30 -8zM848 208v124
q0 22 -8 30t-30 8h-124v-200h124q22 0 30 8t8 30z" />
    <glyph glyph-name="uni0445" unicode="&#x445;" horiz-adv-x="812" 
d="M302 0h-312l239 276l-229 264h328l86 -116l86 116h312l-229 -264l239 -276h-328l-96 129z" />
    <glyph glyph-name="uni0446" unicode="&#x446;" horiz-adv-x="892" 
d="M650 0h-612v540h252v-342h236v342h252v-342h104v-318h-232v120z" />
    <glyph glyph-name="uni0447" unicode="&#x447;" horiz-adv-x="782" 
d="M20 540h252v-178q0 -19 6.5 -25.5t25.5 -6.5h188v210h252v-540h-252v132h-306q-86 0 -126 39.5t-40 126.5v242z" />
    <glyph glyph-name="uni0448" unicode="&#x448;" horiz-adv-x="1180" 
d="M1142 0h-1104v540h252v-342h174v342h252v-342h174v342h252v-540z" />
    <glyph glyph-name="uni0449" unicode="&#x449;" horiz-adv-x="1264" 
d="M1022 0h-984v540h252v-342h178v342h252v-342h178v342h252v-342h104v-318h-232v120z" />
    <glyph glyph-name="uni044A" unicode="&#x44a;" horiz-adv-x="916" 
d="M172 342h-162v198h414v-132h310q84 0 123 -38.5t39 -123.5v-84q0 -85 -39 -123.5t-123 -38.5h-562v342zM424 254v-90h190q17 0 23.5 6.5t6.5 23.5v30q0 17 -6.5 23.5t-23.5 6.5h-190z" />
    <glyph glyph-name="uni044B" unicode="&#x44b;" horiz-adv-x="1122" 
d="M38 0v540h252v-132h310q84 0 123 -38.5t39 -123.5v-84q0 -85 -39 -123.5t-123 -38.5h-562zM1080 0h-256v540h256v-540zM480 254h-190v-90h190q17 0 23.5 6.5t6.5 23.5v30q0 17 -6.5 23.5t-23.5 6.5z" />
    <glyph glyph-name="uni044C" unicode="&#x44c;" horiz-adv-x="782" 
d="M38 0v540h252v-132h310q84 0 123 -38.5t39 -123.5v-84q0 -85 -39 -123.5t-123 -38.5h-562zM480 254h-190v-90h190q17 0 23.5 6.5t6.5 23.5v30q0 17 -6.5 23.5t-23.5 6.5z" />
    <glyph glyph-name="uni044D" unicode="&#x44d;" horiz-adv-x="800" 
d="M220 540h360q99 0 144.5 -45t45.5 -145v-160q0 -100 -45.5 -145t-144.5 -45h-360q-99 0 -144.5 45t-45.5 145v57h242v-43q0 -22 8 -30t30 -8h170q22 0 30 8t8 30v15h-190v110h190v7q0 22 -8 30t-30 8h-170q-22 0 -30 -8t-8 -30v-39h-242v53q0 100 45.5 145t144.5 45z" />
    <glyph glyph-name="uni044E" unicode="&#x44e;" horiz-adv-x="1170" 
d="M580 540h370q99 0 144.5 -45t45.5 -145v-160q0 -100 -45.5 -145t-144.5 -45h-370q-96 0 -141.5 42t-48.5 134h-100v-176h-252v540h252v-166h101q4 87 49.5 126.5t139.5 39.5zM888 230v80q0 22 -8 30t-30 8h-170q-22 0 -30 -8t-8 -30v-80q0 -22 8 -30t30 -8h170q22 0 30 8
t8 30z" />
    <glyph glyph-name="uni044F" unicode="&#x44f;" horiz-adv-x="800" 
d="M200 540h562v-540h-252v156h-132l-98 -156h-270l117 179q-89 29 -89 153v46q0 85 39 123.5t123 38.5zM320 302h190v82h-190q-17 0 -23.5 -6.5t-6.5 -23.5v-22q0 -17 6.5 -23.5t23.5 -6.5z" />
    <glyph glyph-name="uni0451" unicode="&#x451;" horiz-adv-x="800" 
d="M184 700h192v-130h-192v130zM424 700h192v-130h-192v130zM220 540h360q99 0 144.5 -45t45.5 -145v-112h-488v-24q0 -22 8 -30t30 -8h176q19 0 25.5 6.5t6.5 25.5v5h242v-47q0 -87 -40 -126.5t-126 -39.5h-384q-99 0 -144.5 45t-45.5 145v160q0 100 45.5 145t144.5 45z
M282 360v-16h246v16q0 22 -8 30t-30 8h-170q-22 0 -30 -8t-8 -30z" />
    <glyph glyph-name="uni0453" unicode="&#x453;" horiz-adv-x="660" 
d="M568 700l-136 -130h-204l76 130h264zM290 0h-252v540h612v-198h-360v-342z" />
    <glyph glyph-name="uni0455" unicode="&#x455;" horiz-adv-x="790" 
d="M30 134v50h242v-28q0 -14 4 -18t18 -4h192q14 0 18 4t4 18v14q0 13 -3.5 16.5t-18.5 5.5l-314 20q-132 10 -132 130v66q0 63 35 97.5t97 34.5h442q62 0 97 -35.5t35 -98.5v-42h-242v20q0 14 -4 18t-18 4h-168q-14 0 -18 -4t-4 -18v-8q0 -13 3.5 -16.5t18.5 -5.5l314 -20
q132 -10 132 -130v-72q0 -63 -35 -97.5t-97 -34.5h-466q-62 0 -97 35.5t-35 98.5z" />
    <glyph glyph-name="uni0456" unicode="&#x456;" horiz-adv-x="340" 
d="M298 570h-256v130h256v-130zM298 0h-256v540h256v-540z" />
    <glyph glyph-name="uni0457" unicode="&#x457;" horiz-adv-x="340" 
d="M146 570h-192v130h192v-130zM386 570h-192v130h192v-130zM298 0h-256v540h256v-540z" />
    <glyph glyph-name="uni0458" unicode="&#x458;" horiz-adv-x="380" 
d="M338 570h-256v130h256v-130zM172 -160h-232v182h110q19 0 25.5 6.5t6.5 25.5v486h256v-534q0 -87 -40 -126.5t-126 -39.5z" />
    <glyph glyph-name="uni045C" unicode="&#x45c;" horiz-adv-x="838" 
d="M393 700h264l-136 -130h-204zM570 274l278 -274h-344l-214 237v-237h-252v540h252v-239l206 239h344z" />
    <glyph glyph-name="uni045E" unicode="&#x45e;" horiz-adv-x="818" 
d="M564 570h-310q-76 0 -76 76v54h166v-18q0 -22 22 -22h86q22 0 22 22v18h166v-54q0 -76 -76 -76zM414 259l128 281h280l-296 -530q-56 -101 -115 -136q-59 -34 -177 -34h-178v192h188q23 0 34 4l-282 504h290z" />
    <glyph glyph-name="uni0498" unicode="&#x498;" horiz-adv-x="918" 
d="M800 355q88 -22 88 -139v-50q0 -87 -40 -126.5t-126 -39.5h-239l-6 -18h82q30 0 43 -13t13 -43v-30q0 -30 -13 -43t-43 -13h-216v66h151q7 0 7 7v4q0 7 -7 7h-109v32l14 44h-203q-86 0 -126 39.5t-40 126.5v110h258v-54q0 -19 6.5 -25.5t25.5 -6.5h268q19 0 25.5 6.5
t6.5 25.5v21q0 19 -6.5 25.5t-25.5 6.5h-232v158h222q19 0 25.5 6.5t6.5 25.5v13q0 19 -6.5 25.5t-25.5 6.5h-248q-19 0 -25.5 -6.5t-6.5 -25.5v-46h-258v102q0 87 40 126.5t126 39.5h506q86 0 126 -39.5t40 -126.5v-42q0 -112 -78 -137z" />
    <glyph glyph-name="uni0499" unicode="&#x499;" horiz-adv-x="800" 
d="M702 274q68 -18 68 -107v-39q0 -67 -31 -97.5t-97 -30.5h-218l-6 -18h82q30 0 43 -13t13 -43v-30q0 -30 -13 -43t-43 -13h-216v66h151q7 0 7 7v4q0 7 -7 7h-109v32l14 44h-182q-66 0 -97 30.5t-31 97.5v87h242v-42q0 -14 5 -19t20 -5h196q14 0 19.5 5t5.5 19v16
q0 15 -5.5 20t-19.5 5h-167v118h159q14 0 19.5 5t5.5 20v10q0 14 -5.5 19t-19.5 5h-181q-14 0 -19 -5t-5 -19v-36h-242v81q0 67 31 97.5t97 30.5h468q66 0 97 -30.5t31 -97.5v-32q0 -86 -60 -106z" />
    <glyph glyph-name="uni04BB" unicode="&#x4bb;" horiz-adv-x="812" 
d="M450 540h138q99 0 144.5 -45t45.5 -145v-350h-252v304q0 22 -8 30t-30 8h-133q-36 0 -51 -16l-14 -14v-312h-252v700h252v-203q34 28 65 35q34 8 95 8z" />
    <glyph glyph-name="uni04C0" unicode="&#x4c0;" horiz-adv-x="360" 
d="M44 0v700h272v-700h-272z" />
    <glyph glyph-name="uni04C1" unicode="&#x4c1;" horiz-adv-x="1520" 
d="M915 730h-310q-76 0 -76 76v54h166v-18q0 -22 22 -22h86q22 0 22 22v18h166v-54q0 -76 -76 -76zM1188 364l332 -364h-356l-270 324v-324h-268v324l-270 -324h-356l332 364l-328 336h356l266 -309v309h268v-309l266 309h356z" />
    <glyph glyph-name="uni04C2" unicode="&#x4c2;" horiz-adv-x="1348" 
d="M829 570h-310q-76 0 -76 76v54h166v-18q0 -22 22 -22h86q22 0 22 22v18h166v-54q0 -76 -76 -76zM1080 274l278 -274h-344l-214 237v-237h-252v237l-214 -237h-344l278 274l-270 266h344l206 -239v239h252v-239l206 239h344z" />
    <glyph glyph-name="uni04D0" unicode="&#x4d0;" horiz-adv-x="980" 
d="M645 730h-310q-76 0 -76 76v54h166v-18q0 -22 22 -22h86q22 0 22 22v18h166v-54q0 -76 -76 -76zM984 0h-304l-39 94h-316l-39 -94h-290l342 700h304zM483 469l-85 -201h169z" />
    <glyph glyph-name="uni04D1" unicode="&#x4d1;" horiz-adv-x="804" 
d="M557 570h-310q-76 0 -76 76v54h166v-18q0 -22 22 -22h86q22 0 22 22v18h166v-54q0 -76 -76 -76zM220 540h360q99 0 144.5 -45t45.5 -145v-350h-212l-15 46q-36 -30 -66 -37q-31 -9 -99 -9h-218q-62 0 -96 33.5t-34 96.5v54q0 63 34 96.5t96 33.5h358v30q0 22 -8 30t-30 8
h-152q-19 0 -25.5 -6.5t-6.5 -25.5v-11h-242v35q0 87 40 126.5t126 39.5zM308 138h153q27 0 43 16l14 14v40h-210q-16 0 -21 -5t-5 -21v-18q0 -16 5 -21t21 -5z" />
    <glyph glyph-name="uni04D2" unicode="&#x4d2;" horiz-adv-x="980" 
d="M274 860h192v-130h-192v130zM514 860h192v-130h-192v130zM984 0h-304l-39 94h-316l-39 -94h-290l342 700h304zM483 469l-85 -201h169z" />
    <glyph glyph-name="uni04D3" unicode="&#x4d3;" horiz-adv-x="804" 
d="M186 700h192v-130h-192v130zM426 700h192v-130h-192v130zM220 540h360q99 0 144.5 -45t45.5 -145v-350h-212l-15 46q-36 -30 -66 -37q-31 -9 -99 -9h-218q-62 0 -96 33.5t-34 96.5v54q0 63 34 96.5t96 33.5h358v30q0 22 -8 30t-30 8h-152q-19 0 -25.5 -6.5t-6.5 -25.5
v-11h-242v35q0 87 40 126.5t126 39.5zM308 138h153q27 0 43 16l14 14v40h-210q-16 0 -21 -5t-5 -21v-18q0 -16 5 -21t21 -5z" />
    <glyph glyph-name="uni04D4" unicode="&#x4d4;" horiz-adv-x="1286" 
d="M848 272l32 -73h386v-199h-601l-34 88h-308l-37 -88h-290l342 700h918v-199h-510l29 -65h441v-164h-368zM482 468l-86 -206h167z" />
    <glyph glyph-name="uni04D5" unicode="&#x4d5;" horiz-adv-x="1288" 
d="M758 540h310q99 0 144.5 -45t45.5 -145v-112h-488v-24q0 -22 8 -30t30 -8h176q19 0 25.5 6.5t6.5 25.5v5h242v-47q0 -87 -40 -126.5t-126 -39.5h-350q-90 0 -136 37q-30 -23 -61 -30q-29 -7 -93 -7h-292q-62 0 -96 33.5t-34 96.5v54q0 63 34 96.5t96 33.5h358v30
q0 22 -8 30t-30 8h-152q-19 0 -25.5 -6.5t-6.5 -25.5v-11h-242v35q0 87 40 126.5t126 39.5h310q77 0 114 -37q37 37 114 37zM770 360v-16h246v16q0 22 -8 30t-30 8h-170q-22 0 -30 -8t-8 -30zM504 154l14 14v40h-210q-16 0 -21 -5t-5 -21v-18q0 -16 5 -21t21 -5h153
q27 0 43 16z" />
    <glyph glyph-name="uni04D6" unicode="&#x4d6;" horiz-adv-x="818" 
d="M564 730h-310q-76 0 -76 76v54h166v-18q0 -22 22 -22h86q22 0 22 22v18h166v-54q0 -76 -76 -76zM308 272v-73h490v-199h-758v700h748v-199h-480v-65h440v-164h-440z" />
    <glyph glyph-name="uni04D7" unicode="&#x4d7;" horiz-adv-x="800" 
d="M555 570h-310q-76 0 -76 76v54h166v-18q0 -22 22 -22h86q22 0 22 22v18h166v-54q0 -76 -76 -76zM220 540h360q99 0 144.5 -45t45.5 -145v-112h-488v-24q0 -22 8 -30t30 -8h176q19 0 25.5 6.5t6.5 25.5v5h242v-47q0 -87 -40 -126.5t-126 -39.5h-384q-99 0 -144.5 45
t-45.5 145v160q0 100 45.5 145t144.5 45zM282 360v-16h246v16q0 22 -8 30t-30 8h-170q-22 0 -30 -8t-8 -30z" />
    <glyph glyph-name="uni04DC" unicode="&#x4dc;" horiz-adv-x="1520" 
d="M544 860h192v-130h-192v130zM784 860h192v-130h-192v130zM1188 364l332 -364h-356l-270 324v-324h-268v324l-270 -324h-356l332 364l-328 336h356l266 -309v309h268v-309l266 309h356z" />
    <glyph glyph-name="uni04DD" unicode="&#x4dd;" horiz-adv-x="1348" 
d="M458 700h192v-130h-192v130zM698 700h192v-130h-192v130zM1080 274l278 -274h-344l-214 237v-237h-252v237l-214 -237h-344l278 274l-270 266h344l206 -239v239h252v-239l206 239h344z" />
    <glyph glyph-name="uni04DE" unicode="&#x4de;" horiz-adv-x="918" 
d="M243 860h192v-130h-192v130zM483 860h192v-130h-192v130zM800 355q88 -22 88 -139v-50q0 -87 -40 -126.5t-126 -39.5h-526q-86 0 -126 39.5t-40 126.5v110h258v-54q0 -19 6.5 -25.5t25.5 -6.5h268q19 0 25.5 6.5t6.5 25.5v21q0 19 -6.5 25.5t-25.5 6.5h-232v158h222
q19 0 25.5 6.5t6.5 25.5v13q0 19 -6.5 25.5t-25.5 6.5h-248q-19 0 -25.5 -6.5t-6.5 -25.5v-46h-258v102q0 87 40 126.5t126 39.5h506q86 0 126 -39.5t40 -126.5v-42q0 -112 -78 -137z" />
    <glyph glyph-name="uni04DF" unicode="&#x4df;" horiz-adv-x="800" 
d="M184 700h192v-130h-192v130zM424 700h192v-130h-192v130zM702 274q68 -18 68 -107v-39q0 -67 -31 -97.5t-97 -30.5h-484q-66 0 -97 30.5t-31 97.5v87h242v-42q0 -14 5 -19t20 -5h196q14 0 19.5 5t5.5 19v16q0 15 -5.5 20t-19.5 5h-167v118h159q14 0 19.5 5t5.5 20v10
q0 14 -5.5 19t-19.5 5h-181q-14 0 -19 -5t-5 -19v-36h-242v81q0 67 31 97.5t97 30.5h468q66 0 97 -30.5t31 -97.5v-32q0 -86 -60 -106z" />
    <glyph glyph-name="uni04E2" unicode="&#x4e2;" horiz-adv-x="948" 
d="M238 850h472v-110h-472v110zM298 339l382 361h228v-700h-258v371l-392 -371h-218v700h258v-361z" />
    <glyph glyph-name="uni04E3" unicode="&#x4e3;" horiz-adv-x="830" 
d="M179 690h472v-110h-472v110zM280 280l300 260h212v-540h-242v269l-310 -269h-202v540h242v-260z" />
    <glyph glyph-name="uni04E4" unicode="&#x4e4;" horiz-adv-x="948" 
d="M258 860h192v-130h-192v130zM498 860h192v-130h-192v130zM298 339l382 361h228v-700h-258v371l-392 -371h-218v700h258v-361z" />
    <glyph glyph-name="uni04E5" unicode="&#x4e5;" horiz-adv-x="830" 
d="M199 700h192v-130h-192v130zM439 700h192v-130h-192v130zM280 280l300 260h212v-540h-242v269l-310 -269h-202v540h242v-260z" />
    <glyph glyph-name="uni04E6" unicode="&#x4e6;" horiz-adv-x="942" 
d="M447 730h-192v130h192v-130zM687 730h-192v130h192v-130zM700 0h-458q-107 0 -158.5 51t-51.5 159v280q0 108 51.5 159t158.5 51h458q107 0 158.5 -51t51.5 -159v-280q0 -108 -51.5 -159t-158.5 -51zM346 220h250q26 0 36 10t10 36v168q0 26 -10 36t-36 10h-250
q-26 0 -36 -10t-10 -36v-168q0 -26 10 -36t36 -10z" />
    <glyph glyph-name="uni04E7" unicode="&#x4e7;" horiz-adv-x="810" 
d="M381 570h-192v130h192v-130zM621 570h-192v130h192v-130zM590 0h-370q-99 0 -144.5 45t-45.5 145v160q0 100 45.5 145t144.5 45h370q99 0 144.5 -45t45.5 -145v-160q0 -100 -45.5 -145t-144.5 -45zM320 192h170q22 0 30 8t8 30v80q0 22 -8 30t-30 8h-170q-22 0 -30 -8
t-8 -30v-80q0 -22 8 -30t30 -8z" />
    <glyph glyph-name="uni04EC" unicode="&#x4ec;" horiz-adv-x="929" 
d="M249 860h192v-130h-192v130zM489 860h192v-130h-192v130zM240 700h448q107 0 158.5 -51t51.5 -159v-280q0 -108 -51.5 -159t-158.5 -51h-448q-107 0 -158.5 51t-51.5 159v102h258v-70q0 -26 10 -36t36 -10h250q26 0 36 10t10 36v30h-264v160h264v26q0 26 -10 36t-36 10
h-250q-26 0 -36 -10t-10 -36v-64h-258v96q0 108 51.5 159t158.5 51z" />
    <glyph glyph-name="uni04ED" unicode="&#x4ed;" horiz-adv-x="800" 
d="M178 700h192v-130h-192v130zM418 700h192v-130h-192v130zM220 540h360q99 0 144.5 -45t45.5 -145v-160q0 -100 -45.5 -145t-144.5 -45h-360q-99 0 -144.5 45t-45.5 145v57h242v-43q0 -22 8 -30t30 -8h170q22 0 30 8t8 30v15h-190v110h190v7q0 22 -8 30t-30 8h-170
q-22 0 -30 -8t-8 -30v-39h-242v53q0 100 45.5 145t144.5 45z" />
    <glyph glyph-name="uni04EE" unicode="&#x4ee;" horiz-adv-x="912" 
d="M220 850h472v-110h-472v110zM463 458l149 242h310l-489 -700h-309l181 250l-315 450h324z" />
    <glyph glyph-name="uni04EF" unicode="&#x4ef;" horiz-adv-x="818" 
d="M173 690h472v-110h-472v110zM414 259l128 281h280l-296 -530q-56 -101 -115 -136q-59 -34 -177 -34h-178v192h188q23 0 34 4l-282 504h290z" />
    <glyph glyph-name="uni04F0" unicode="&#x4f0;" horiz-adv-x="912" 
d="M240 860h192v-130h-192v130zM480 860h192v-130h-192v130zM463 458l149 242h310l-489 -700h-309l181 250l-315 450h324z" />
    <glyph glyph-name="uni04F1" unicode="&#x4f1;" horiz-adv-x="818" 
d="M193 700h192v-130h-192v130zM433 700h192v-130h-192v130zM414 259l128 281h280l-296 -530q-56 -101 -115 -136q-59 -34 -177 -34h-178v192h188q23 0 34 4l-282 504h290z" />
    <glyph glyph-name="uni04F2" unicode="&#x4f2;" horiz-adv-x="912" 
d="M276 860h246l-108 -130h-196zM788 860l-108 -130h-196l58 130h246zM463 458l149 242h310l-489 -700h-309l181 250l-315 450h324z" />
    <glyph glyph-name="uni04F3" unicode="&#x4f3;" horiz-adv-x="818" 
d="M229 700h246l-108 -130h-196zM741 700l-108 -130h-196l58 130h246zM414 259l128 281h280l-296 -530q-56 -101 -115 -136q-59 -34 -177 -34h-178v192h188q23 0 34 4l-282 504h290z" />
    <glyph glyph-name="uni04F4" unicode="&#x4f4;" horiz-adv-x="896" 
d="M424 730h-192v130h192v-130zM664 730h-192v130h192v-130zM856 0h-268v180h-378q-99 0 -144.5 45t-45.5 145v330h268v-252q0 -22 8 -30t30 -8h262v290h268v-700z" />
    <glyph glyph-name="uni04F5" unicode="&#x4f5;" horiz-adv-x="600" 
d="M232 570h-192v130h192v-130zM472 570h-192v130h192v-130zM20 540h252v-178q0 -19 6.5 -25.5t25.5 -6.5h188v210h252v-540h-252v132h-306q-86 0 -126 39.5t-40 126.5v242z" />
    <glyph glyph-name="uni04F8" unicode="&#x4f8;" horiz-adv-x="1248" 
d="M1044 730h-192v130h192v-130zM1284 730h-192v130h192v-130zM40 0v700h268v-180h370q99 0 144.5 -45t45.5 -145v-140q0 -100 -45.5 -145t-144.5 -45h-638zM932 0v700h272v-700h-272zM562 330h-254v-130h254q22 0 30 8t8 30v54q0 22 -8 30t-30 8z" />
    <glyph glyph-name="uni04F9" unicode="&#x4f9;" horiz-adv-x="1122" 
d="M928 570h-192v130h192v-130zM1168 570h-192v130h192v-130zM38 0v540h252v-132h310q84 0 123 -38.5t39 -123.5v-84q0 -85 -39 -123.5t-123 -38.5h-562zM1080 0h-256v540h256v-540zM480 254h-190v-90h190q17 0 23.5 6.5t6.5 23.5v30q0 17 -6.5 23.5t-23.5 6.5z" />
    <glyph glyph-name="Wgrave" unicode="&#x1e80;" horiz-adv-x="1310" 
d="M681 860l76 -130h-204l-136 130h264zM903 333l129 367h282l-284 -700h-229l-146 359l-146 -359h-229l-284 700h296l128 -365l142 365h196z" />
    <glyph glyph-name="wgrave" unicode="&#x1e81;" horiz-adv-x="1122" 
d="M587 700l76 -130h-204l-136 130h264zM769 289l91 251h262l-237 -540h-216l-107 261l-105 -261h-220l-237 540h272l93 -251l104 251h194z" />
    <glyph glyph-name="Wacute" unicode="&#x1e82;" horiz-adv-x="1310" 
d="M629 860h264l-136 -130h-204zM903 333l129 367h282l-284 -700h-229l-146 359l-146 -359h-229l-284 700h296l128 -365l142 365h196z" />
    <glyph glyph-name="wacute" unicode="&#x1e83;" horiz-adv-x="1122" 
d="M535 700h264l-136 -130h-204zM769 289l91 251h262l-237 -540h-216l-107 261l-105 -261h-220l-237 540h272l93 -251l104 251h194z" />
    <glyph glyph-name="Wdieresis" unicode="&#x1e84;" horiz-adv-x="1310" 
d="M439 860h192v-130h-192v130zM679 860h192v-130h-192v130zM903 333l129 367h282l-284 -700h-229l-146 359l-146 -359h-229l-284 700h296l128 -365l142 365h196z" />
    <glyph glyph-name="wdieresis" unicode="&#x1e85;" horiz-adv-x="1122" 
d="M345 700h192v-130h-192v130zM585 700h192v-130h-192v130zM769 289l91 251h262l-237 -540h-216l-107 261l-105 -261h-220l-237 540h272l93 -251l104 251h194z" />
    <glyph glyph-name="uni1E9E" unicode="&#x1e9e;" horiz-adv-x="942" 
d="M693 434h55q86 0 126 -39.5t40 -126.5v-102q0 -87 -40 -126.5t-126 -39.5h-374v190h240q19 0 25.5 6.5t6.5 25.5v29q0 19 -6.5 25.5t-25.5 6.5h-220v129l85 78h-129q-26 0 -36 -10t-10 -36v-444h-268v490q0 108 51.5 159t158.5 51h622v-107z" />
    <glyph glyph-name="Ygrave" unicode="&#x1ef2;" horiz-adv-x="912" 
d="M482 860l76 -130h-204l-136 130h264zM612 700h310l-332 -447v-253h-268v253l-332 447h324l149 -222z" />
    <glyph glyph-name="ygrave" unicode="&#x1ef3;" horiz-adv-x="818" 
d="M435 700l76 -130h-204l-136 130h264zM414 259l128 281h280l-296 -530q-56 -101 -115 -136q-59 -34 -177 -34h-178v192h188q23 0 34 4l-282 504h290z" />
    <glyph glyph-name="endash" unicode="&#x2013;" horiz-adv-x="760" 
d="M30 246v208h700v-208h-700z" />
    <glyph glyph-name="emdash" unicode="&#x2014;" horiz-adv-x="1028" 
d="M30 246v208h968v-208h-968z" />
    <glyph glyph-name="quoteleft" unicode="&#x2018;" horiz-adv-x="368" 
d="M154 700h158l-74 -160h90v-240h-288v86q0 98 42 178z" />
    <glyph glyph-name="quoteright" unicode="&#x2019;" horiz-adv-x="368" 
d="M214 300h-158l74 160h-90v240h288v-86q0 -98 -42 -178z" />
    <glyph glyph-name="quotesinglbase" unicode="&#x201a;" horiz-adv-x="368" 
d="M214 -160h-158l74 160h-90v240h288v-86q0 -98 -42 -178z" />
    <glyph glyph-name="quotedblleft" unicode="&#x201c;" horiz-adv-x="716" 
d="M154 700h158l-74 -160h90v-240h-288v86q0 98 42 178zM502 700h158l-74 -160h90v-240h-288v86q0 98 42 178z" />
    <glyph glyph-name="quotedblright" unicode="&#x201d;" horiz-adv-x="716" 
d="M214 300h-158l74 160h-90v240h288v-86q0 -98 -42 -178zM562 300h-158l74 160h-90v240h288v-86q0 -98 -42 -178z" />
    <glyph glyph-name="quotedblbase" unicode="&#x201e;" horiz-adv-x="716" 
d="M214 -160h-158l74 160h-90v240h288v-86q0 -98 -42 -178zM562 -160h-158l74 160h-90v240h288v-86q0 -98 -42 -178z" />
    <glyph glyph-name="dagger" unicode="&#x2020;" horiz-adv-x="506" 
d="M330 590h146v-140h-146v-200h-154v200h-146v140h146v110h154v-110z" />
    <glyph glyph-name="daggerdbl" unicode="&#x2021;" horiz-adv-x="506" 
d="M476 600v-134h-146v-90h146v-134h-146v-100h-154v100h-146v134h146v90h-146v134h146v100h154v-100h146z" />
    <glyph glyph-name="bullet" unicode="&#x2022;" horiz-adv-x="500" 
d="M343 140h-186q-117 0 -117 117v186q0 60 28.5 88.5t88.5 28.5h186q60 0 88.5 -28.5t28.5 -88.5v-186q0 -117 -117 -117z" />
    <glyph glyph-name="perthousand" unicode="&#x2030;" horiz-adv-x="1404" 
d="M317 300h-182q-105 0 -105 105v110q0 105 105 105h182q105 0 105 -105v-110q0 -105 -105 -105zM252 0h-132l600 620h132zM184 412h84q13 0 18 5t5 18v50q0 13 -4.5 18t-18.5 5h-84q-13 0 -18 -5t-5 -18v-50q0 -13 5 -18t18 -5zM837 0h-182q-105 0 -105 105v110
q0 105 105 105h182q105 0 105 -105v-110q0 -105 -105 -105zM1269 0h-182q-105 0 -105 105v110q0 105 105 105h182q105 0 105 -105v-110q0 -105 -105 -105zM704 112h84q13 0 18 5t5 18v50q0 13 -4.5 18t-18.5 5h-84q-13 0 -18 -5t-5 -18v-50q0 -13 5 -18t18 -5zM1136 112h84
q13 0 18 5t5 18v50q0 13 -4.5 18t-18.5 5h-84q-13 0 -18 -5t-5 -18v-50q0 -13 5 -18t18 -5z" />
    <glyph glyph-name="guilsinglleft" unicode="&#x2039;" horiz-adv-x="536" 
d="M40 424l456 180v-188l-197 -64l197 -64v-192l-456 180v148z" />
    <glyph glyph-name="guilsinglright" unicode="&#x203a;" horiz-adv-x="536" 
d="M40 412v192l456 -180v-148l-456 -180v188l197 64z" />
    <glyph glyph-name="fraction" unicode="&#x2044;" horiz-adv-x="268" 
d="M-88 0h-138l582 700h138z" />
    <glyph glyph-name="Euro" unicode="&#x20ac;" horiz-adv-x="892" 
d="M856 490v-96h-248v68q0 26 -10 36t-36 10h-184q-26 0 -36 -10t-10 -36h222v-94h-222v-36h222v-94h-222q0 -26 10 -36t36 -10h184q26 0 36 10t10 36v74h248v-102q0 -108 -51.5 -159t-158.5 -51h-362q-107 0 -158.5 51t-51.5 159v28h-74v94h74v36h-74v94h74v28
q0 108 51.5 159t158.5 51h362q107 0 158.5 -51t51.5 -159z" />
    <glyph glyph-name="trademark" unicode="&#x2122;" horiz-adv-x="653" 
d="M110 623h-90v77h269v-77h-90v-156h-89v156zM473 584l85 116h75v-233h-84v105l-55 -73h-47l-55 73v-105h-84v233h79z" />
    <glyph glyph-name="minus" unicode="&#x2212;" 
d="M50 246v208h764v-208h-764z" />
    <glyph glyph-name="approxequal" unicode="&#x2248;" 
d="M471 617l104 -96q5 -6 12 -6h12q7 0 7 7v152h208v-208q0 -54 -23 -77t-77 -23h-178q-56 0 -85 12q-29 11 -58 46l-104 95q-5 6 -12 6h-12q-7 0 -7 -7v-152h-208v208q0 54 23 77t77 23h178q55 0 85 -11q29 -11 58 -46zM471 277l104 -96q5 -6 12 -6h12q7 0 7 7v152h208
v-208q0 -54 -23 -77t-77 -23h-178q-56 0 -85 12q-29 11 -58 46l-104 95q-5 6 -12 6h-12q-7 0 -7 -7v-152h-208v208q0 54 23 77t77 23h178q55 0 85 -11q29 -11 58 -46z" />
    <glyph glyph-name="notequal" unicode="&#x2260;" 
d="M814 584v-198h-273l-30 -72h303v-198h-389l-41 -96h-188l41 96h-187v198h273l30 72h-303v198h389l41 96h188l-41 -96h187z" />
    <glyph glyph-name="lessequal" unicode="&#x2264;" 
d="M50 540l764 160v-206l-365 -43l365 -43v-206l-764 160v178zM814 0h-764v178h764v-178z" />
    <glyph glyph-name="greaterequal" unicode="&#x2265;" 
d="M50 494v206l764 -160v-178l-764 -160v206l365 43zM814 0h-764v178h764v-178z" />
    <glyph glyph-name="fi" unicode="&#xfb01;" horiz-adv-x="962" 
d="M140 472v62q0 87 40 126.5t126 39.5h306v-176h-188q-19 0 -25.5 -6.5t-6.5 -25.5v-20h220v-188h-220v-284h-252v284h-130v188h130zM664 570v130h256v-130h-256zM920 0h-256v540h256v-540z" />
    <glyph glyph-name="fl" unicode="&#xfb02;" horiz-adv-x="962" 
d="M140 472v62q0 87 40 126.5t126 39.5h306v-176h-188q-19 0 -25.5 -6.5t-6.5 -25.5v-20h220v-188h-220v-284h-252v284h-130v188h130zM664 0v700h256v-700h-256z" />
    <glyph glyph-name="null" horiz-adv-x="0" 
 />
    <glyph glyph-name="A.ss01" horiz-adv-x="930" 
d="M246 700h438q107 0 158.5 -51t51.5 -159v-490h-268v140h-322v-140h-268v490q0 108 51.5 159t158.5 51zM304 434v-94h322v94q0 26 -10 36t-36 10h-230q-26 0 -36 -10t-10 -36z" />
    <glyph glyph-name="Aacute.ss01" horiz-adv-x="930" 
d="M444 860h264l-136 -130h-204zM246 700h438q107 0 158.5 -51t51.5 -159v-490h-268v140h-322v-140h-268v490q0 108 51.5 159t158.5 51zM304 434v-94h322v94q0 26 -10 36t-36 10h-230q-26 0 -36 -10t-10 -36z" />
    <glyph glyph-name="Abreve.ss01" horiz-adv-x="930" 
d="M625 730h-310q-76 0 -76 76v54h166v-18q0 -22 22 -22h86q22 0 22 22v18h166v-54q0 -76 -76 -76zM246 700h438q107 0 158.5 -51t51.5 -159v-490h-268v140h-322v-140h-268v490q0 108 51.5 159t158.5 51zM304 434v-94h322v94q0 26 -10 36t-36 10h-230q-26 0 -36 -10t-10 -36
z" />
    <glyph glyph-name="Acircumflex.ss01" horiz-adv-x="930" 
d="M545 730l-75 42l-75 -42h-176l128 130h246l128 -130h-176zM246 700h438q107 0 158.5 -51t51.5 -159v-490h-268v140h-322v-140h-268v490q0 108 51.5 159t158.5 51zM304 434v-94h322v94q0 26 -10 36t-36 10h-230q-26 0 -36 -10t-10 -36z" />
    <glyph glyph-name="Adieresis.ss01" horiz-adv-x="930" 
d="M254 860h192v-130h-192v130zM494 860h192v-130h-192v130zM246 700h438q107 0 158.5 -51t51.5 -159v-490h-268v140h-322v-140h-268v490q0 108 51.5 159t158.5 51zM304 434v-94h322v94q0 26 -10 36t-36 10h-230q-26 0 -36 -10t-10 -36z" />
    <glyph glyph-name="Agrave.ss01" horiz-adv-x="930" 
d="M496 860l76 -130h-204l-136 130h264zM246 700h438q107 0 158.5 -51t51.5 -159v-490h-268v140h-322v-140h-268v490q0 108 51.5 159t158.5 51zM304 434v-94h322v94q0 26 -10 36t-36 10h-230q-26 0 -36 -10t-10 -36z" />
    <glyph glyph-name="Amacron.ss01" horiz-adv-x="930" 
d="M234 850h472v-110h-472v110zM246 700h438q107 0 158.5 -51t51.5 -159v-490h-268v140h-322v-140h-268v490q0 108 51.5 159t158.5 51zM304 434v-94h322v94q0 26 -10 36t-36 10h-230q-26 0 -36 -10t-10 -36z" />
    <glyph glyph-name="Aogonek.ss01" horiz-adv-x="930" 
d="M718 0l-2 -2q-8 -8 -8 -17v-4q0 -13 13 -13h173v-124h-246q-86 0 -86 86v16q0 33 9.5 54.5t35.5 44.5l19 15v84h-322v-140h-268v490q0 108 51.5 159t158.5 51h438q107 0 158.5 -51t51.5 -159v-490h-176zM304 434v-94h322v94q0 26 -10 36t-36 10h-230q-26 0 -36 -10
t-10 -36z" />
    <glyph glyph-name="Aring.ss01" horiz-adv-x="930" 
d="M580 720h-220q-30 0 -43 13t-13 43v28q0 30 13 43t43 13h220q30 0 43 -13t13 -43v-28q0 -30 -13 -43t-43 -13zM388 795v-10q0 -11 3 -14t13 -3h132q10 0 13 3t3 14v10q0 11 -3 14t-13 3h-132q-10 0 -13 -3t-3 -14zM246 700h438q107 0 158.5 -51t51.5 -159v-490h-268v140
h-322v-140h-268v490q0 108 51.5 159t158.5 51zM304 434v-94h322v94q0 26 -10 36t-36 10h-230q-26 0 -36 -10t-10 -36z" />
    <glyph glyph-name="Aringacute.ss01" horiz-adv-x="930" 
d="M635 700h49q107 0 158.5 -51t51.5 -159v-490h-268v140h-322v-140h-268v490q0 108 51.5 159t158.5 51h59q-1 3 -1 16v28q0 30 13 43t43 13h25l29 60h256l-62 -64q28 -10 28 -52v-28q0 -13 -1 -16zM388 735v-10q0 -11 3 -14t13 -3h132q10 0 13 3t3 14v10q0 11 -3 14t-13 3
h-132q-10 0 -13 -3t-3 -14zM304 434v-94h322v94q0 26 -10 36t-36 10h-230q-26 0 -36 -10t-10 -36z" />
    <glyph glyph-name="Atilde.ss01" horiz-adv-x="930" 
d="M378 780v-50h-137v82q0 48 49 48h177q24 0 36 -5t23 -21l18 -25q4 -4 8 -4h5q5 0 5 5v50h137v-82q0 -48 -49 -48h-177q-24 0 -36 5t-23 21l-18 25q-4 4 -8 4h-5q-5 0 -5 -5zM246 700h438q107 0 158.5 -51t51.5 -159v-490h-268v140h-322v-140h-268v490q0 108 51.5 159
t158.5 51zM304 434v-94h322v94q0 26 -10 36t-36 10h-230q-26 0 -36 -10t-10 -36z" />
    <glyph glyph-name="I.ss01" horiz-adv-x="672" 
d="M652 700v-200h-180v-300h180v-200h-632v200h180v300h-180v200h632z" />
    <glyph glyph-name="Iacute.ss01" horiz-adv-x="672" 
d="M310 860h264l-136 -130h-204zM652 700v-200h-180v-300h180v-200h-632v200h180v300h-180v200h632z" />
    <glyph glyph-name="Icircumflex.ss01" horiz-adv-x="672" 
d="M411 730l-75 42l-75 -42h-176l128 130h246l128 -130h-176zM652 700v-200h-180v-300h180v-200h-632v200h180v300h-180v200h632z" />
    <glyph glyph-name="Idieresis.ss01" horiz-adv-x="672" 
d="M120 860h192v-130h-192v130zM360 860h192v-130h-192v130zM652 700v-200h-180v-300h180v-200h-632v200h180v300h-180v200h632z" />
    <glyph glyph-name="Idotaccent.ss01" horiz-adv-x="672" 
d="M208 860h256v-130h-256v130zM652 700v-200h-180v-300h180v-200h-632v200h180v300h-180v200h632z" />
    <glyph glyph-name="Igrave.ss01" horiz-adv-x="672" 
d="M362 860l76 -130h-204l-136 130h264zM652 700v-200h-180v-300h180v-200h-632v200h180v300h-180v200h632z" />
    <glyph glyph-name="Imacron.ss01" horiz-adv-x="672" 
d="M100 850h472v-110h-472v110zM652 700v-200h-180v-300h180v-200h-632v200h180v300h-180v200h632z" />
    <glyph glyph-name="Iogonek.ss01" horiz-adv-x="672" 
d="M652 700v-200h-180v-300h180v-200h-176l-2 -2q-8 -8 -8 -17v-4q0 -13 13 -13h173v-124h-246q-86 0 -86 86v16q0 34 11 58h-311v200h180v300h-180v200h632z" />
    <glyph glyph-name="Itilde.ss01" horiz-adv-x="672" 
d="M244 780v-50h-137v82q0 48 49 48h177q24 0 36 -5t23 -21l18 -25q4 -4 8 -4h5q5 0 5 5v50h137v-82q0 -48 -49 -48h-177q-24 0 -36 5t-23 21l-18 25q-4 4 -8 4h-5q-5 0 -5 -5zM652 700v-200h-180v-300h180v-200h-632v200h180v300h-180v200h632z" />
    <glyph glyph-name="R.ss01" horiz-adv-x="904" 
d="M868 534v-98q0 -112 -83 -138q83 -26 83 -138v-160h-268v168q0 22 -8 30t-30 8h-254v-206h-268v700h662q86 0 126 -39.5t40 -126.5zM562 510h-254v-120h254q22 0 30 8t8 30v44q0 22 -8 30t-30 8z" />
    <glyph glyph-name="Racute.ss01" horiz-adv-x="904" 
d="M426 860h264l-136 -130h-204zM868 534v-98q0 -112 -83 -138q83 -26 83 -138v-160h-268v168q0 22 -8 30t-30 8h-254v-206h-268v700h662q86 0 126 -39.5t40 -126.5zM562 510h-254v-120h254q22 0 30 8t8 30v44q0 22 -8 30t-30 8z" />
    <glyph glyph-name="Rcaron.ss01" horiz-adv-x="904" 
d="M493 782l-128 26h-7l-16 27l115 25l136 -17l-37 -61h-63zM868 534v-98q0 -112 -83 -138q83 -26 83 -138v-160h-268v168q0 22 -8 30t-30 8h-254v-206h-268v700h662q86 0 126 -39.5t40 -126.5zM562 510h-254v-120h254q22 0 30 8t8 30v44q0 22 -8 30t-30 8z" />
    <glyph glyph-name="Rcommaaccent.ss01" horiz-adv-x="904" 
d="M868 534v-98q0 -112 -83 -138q83 -26 83 -138v-160h-268v168q0 22 -8 30t-30 8h-254v-206h-268v700h662q86 0 126 -39.5t40 -126.5zM562 510h-254v-120h254q22 0 30 8t8 30v44q0 22 -8 30t-30 8zM422 -150h-84v120h228v-36q0 -44 -7 -64q-8 -23 -35 -61l-42 -59h-122z
" />
    <glyph glyph-name="i.loclTRK" horiz-adv-x="340" 
d="M298 570h-256v130h256v-130zM298 0h-256v540h256v-540z" />
    <glyph glyph-name="uni0410.ss01" horiz-adv-x="940" 
d="M246 700h448q107 0 158.5 -51t51.5 -159v-490h-268v140h-332v-140h-268v490q0 108 51.5 159t158.5 51zM304 434v-94h332v94q0 26 -10 36t-36 10h-240q-26 0 -36 -10t-10 -36z" />
    <glyph glyph-name="uni042F.ss01" horiz-adv-x="904" 
d="M202 700h662v-700h-268v206h-254q-22 0 -30 -8t-8 -30v-168h-268v160q0 112 83 138q-83 26 -83 138v98q0 87 40 126.5t126 39.5zM304 472v-44q0 -22 8 -30t30 -8h254v120h-254q-22 0 -30 -8t-8 -30z" />
    <glyph glyph-name="uni044F.ss01" horiz-adv-x="792" 
d="M158 540h596v-540h-252v156h-205q-15 0 -20 -5t-5 -20v-131h-242v131q0 87 64 106q-64 19 -64 107v68q0 67 31 97.5t97 30.5zM282 360v-33q0 -14 5.5 -19.5t19.5 -5.5h195v82h-195q-14 0 -19.5 -5t-5.5 -19z" />
    <glyph glyph-name="zero.tf" 
d="M618 0h-372q-107 0 -158.5 51t-51.5 159v280q0 108 51.5 159t158.5 51h372q107 0 158.5 -51t51.5 -159v-280q0 -108 -51.5 -159t-158.5 -51zM340 212h184q26 0 36 10t10 36v184q0 26 -10 36t-36 10h-184q-26 0 -36 -10t-10 -36v-184q0 -26 10 -36t36 -10z" />
    <glyph glyph-name="one.tf" 
d="M582 700v-500h252v-200h-804v200h292v280l-262 -20v210l400 30h122z" />
    <glyph glyph-name="two.tf" 
d="M816 200v-200h-780v238q0 83 39 123.5t127 48.5l336 28q19 2 25.5 8.5t6.5 23.5v19q0 19 -6.5 25.5t-25.5 6.5h-208q-19 0 -25.5 -6.5t-6.5 -25.5v-31h-248v76q0 87 40 126.5t126 39.5h446q86 0 126 -39.5t40 -126.5v-90q0 -83 -39 -123.5t-127 -48.5l-336 -28
q-19 -2 -25.5 -8.5t-6.5 -23.5v-12h522z" />
    <glyph glyph-name="three.tf" 
d="M742 355q88 -22 88 -139v-50q0 -87 -40 -126.5t-126 -39.5h-464q-86 0 -126 39.5t-40 126.5v100h248v-46q0 -19 6.5 -25.5t25.5 -6.5h226q19 0 25.5 6.5t6.5 25.5v24q0 19 -6.5 25.5t-25.5 6.5h-202v156h192q19 0 25.5 6.5t6.5 25.5v16q0 19 -6.5 25.5t-25.5 6.5h-206
q-19 0 -25.5 -6.5t-6.5 -25.5v-38h-248v92q0 87 40 126.5t126 39.5h444q86 0 126 -39.5t40 -126.5v-42q0 -112 -78 -137z" />
    <glyph glyph-name="four.tf" 
d="M719 302h135v-188h-135v-114h-252v114h-457v158l411 428h298v-398zM467 498l-188 -196h188v196z" />
    <glyph glyph-name="five.tf" 
d="M662 0h-622v200h498q19 0 25.5 6.5t6.5 25.5v6q0 19 -6.5 25.5t-25.5 6.5h-498v430h758v-200h-500v-50h364q86 0 126 -39.5t40 -126.5v-118q0 -87 -40 -126.5t-126 -39.5z" />
    <glyph glyph-name="six.tf" 
d="M396 444h266q86 0 126 -39.5t40 -126.5v-112q0 -87 -40 -126.5t-126 -39.5h-460q-86 0 -126 39.5t-40 126.5v324q0 108 51.5 159t158.5 51h552v-200h-458q-26 0 -36 -10t-10 -36v-41q27 31 102 31zM570 216v34q0 19 -6.5 25.5t-25.5 6.5h-212q-19 0 -25.5 -6.5
t-6.5 -25.5v-34q0 -19 6.5 -25.5t25.5 -6.5h212q19 0 25.5 6.5t6.5 25.5z" />
    <glyph glyph-name="seven.tf" 
d="M30 480v220h804v-190l-280 -247q-24 -21 -33 -44.5t-9 -62.5v-156h-264v146q0 97 20 148q20 50 79 96l114 90h-431z" />
    <glyph glyph-name="eight.tf" 
d="M742 355q88 -22 88 -139v-50q0 -87 -40 -126.5t-126 -39.5h-464q-86 0 -126 39.5t-40 126.5v50q0 117 88 139q-78 25 -78 137v42q0 87 40 126.5t126 39.5h444q86 0 126 -39.5t40 -126.5v-42q0 -112 -78 -137zM302 484v-26q0 -19 6.5 -25.5t25.5 -6.5h196q19 0 25.5 6.5
t6.5 25.5v26q0 19 -6.5 25.5t-25.5 6.5h-196q-19 0 -25.5 -6.5t-6.5 -25.5zM572 216v34q0 19 -6.5 25.5t-25.5 6.5h-216q-19 0 -25.5 -6.5t-6.5 -25.5v-34q0 -19 6.5 -25.5t25.5 -6.5h216q19 0 25.5 6.5t6.5 25.5z" />
    <glyph glyph-name="nine.tf" 
d="M202 700h460q86 0 126 -39.5t40 -126.5v-324q0 -108 -51.5 -159t-158.5 -51h-552v196h458q26 0 36 10t10 36v39q-27 -31 -102 -31h-266q-86 0 -126 39.5t-40 126.5v118q0 87 40 126.5t126 39.5zM326 412h212q19 0 25.5 6.5t6.5 25.5v34q0 19 -6.5 25.5t-25.5 6.5h-212
q-19 0 -25.5 -6.5t-6.5 -25.5v-34q0 -19 6.5 -25.5t25.5 -6.5z" />
    <glyph glyph-name="zero.subs" horiz-adv-x="536" 
d="M380 -100h-224q-65 0 -96 31t-31 96v166q0 65 31 96t96 31h224q65 0 96 -31t31 -96v-166q0 -65 -31 -96t-96 -31zM215 30h106q15 0 20.5 6t5.5 20v108q0 14 -5.5 20t-20.5 6h-106q-15 0 -20.5 -6t-5.5 -20v-108q0 -14 5.5 -20t20.5 -6z" />
    <glyph glyph-name="one.subs" horiz-adv-x="498" 
d="M336 320v-297h143v-123h-460v123h157v161l-139 -11v129l221 18h78z" />
    <glyph glyph-name="two.subs" horiz-adv-x="536" 
d="M500 23v-123h-471v144q0 50 24 74.5t76 29.5l200 16q12 2 15 5t3 13v11q0 11 -3.5 14.5t-14.5 3.5h-120q-11 0 -14.5 -3.5t-3.5 -14.5v-19h-154v46q0 52 24.5 76t76.5 24h268q52 0 76.5 -24t24.5 -76v-52q0 -50 -24 -74.5t-76 -29.5l-200 -16q-12 -2 -15 -5t-3 -13v-7
h311z" />
    <glyph glyph-name="three.subs" horiz-adv-x="534" 
d="M453 113q54 -13 54 -84v-29q0 -52 -24 -76t-76 -24h-280q-52 0 -76 24t-24 76v61h154v-27q0 -11 3.5 -14.5t14.5 -3.5h130q11 0 14.5 3.5t3.5 14.5v13q0 11 -3.5 14.5t-14.5 3.5h-118v94h112q11 0 14.5 3.5t3.5 14.5v9q0 11 -3.5 14.5t-14.5 3.5h-118q-11 0 -14.5 -3.5
t-3.5 -14.5v-22h-154v56q0 52 24 76t76 24h268q52 0 76 -24t24 -76v-24q0 -66 -48 -83z" />
    <glyph glyph-name="four.subs" horiz-adv-x="552" 
d="M448 82h85v-115h-85v-67h-154v67h-275v97l250 256h179v-238zM294 192l-109 -110h109v110z" />
    <glyph glyph-name="five.subs" horiz-adv-x="517" 
d="M388 -100h-357v123h279q11 0 15 3.5t4 13.5v4q0 10 -4 13.5t-15 3.5h-279v259h439v-123h-279v-27h197q52 0 76 -24t24 -76v-70q0 -52 -24 -76t-76 -24z" />
    <glyph glyph-name="six.subs" horiz-adv-x="536" 
d="M250 167h156q52 0 76.5 -24t24.5 -76v-67q0 -52 -24.5 -76t-76.5 -24h-277q-52 0 -76 24t-24 76v193q0 65 31 96t96 31h333v-123h-274q-15 0 -20.5 -5.5t-5.5 -20.5v-22q17 18 61 18zM347 31v18q0 11 -3.5 15t-14.5 4h-122q-11 0 -14.5 -4t-3.5 -15v-18q0 -11 3.5 -14.5
t14.5 -3.5h122q11 0 14.5 3.5t3.5 14.5z" />
    <glyph glyph-name="seven.subs" horiz-adv-x="511" 
d="M491 320v-117h1l-164 -149q-14 -12 -18 -23.5t-4 -34.5v-96h-164v92q0 57 11 84q11 26 45 56l64 53h-243v135h472z" />
    <glyph glyph-name="eight.subs" horiz-adv-x="534" 
d="M453 113q54 -13 54 -84v-29q0 -52 -24 -76t-76 -24h-280q-52 0 -76 24t-24 76v29q0 71 54 84q-48 17 -48 83v24q0 52 24 76t76 24h268q52 0 76 -24t24 -76v-24q0 -66 -48 -83zM193 189v-15q0 -10 3.5 -14t14.5 -4h112q11 0 14.5 3.5t3.5 14.5v15q0 11 -3.5 14.5
t-14.5 3.5h-112q-11 0 -14.5 -3.5t-3.5 -14.5zM347 31v19q0 11 -3.5 14.5t-14.5 3.5h-124q-11 0 -14.5 -4t-3.5 -14v-19q0 -11 3.5 -14.5t14.5 -3.5h124q11 0 14.5 3.5t3.5 14.5z" />
    <glyph glyph-name="nine.subs" horiz-adv-x="536" 
d="M129 320h277q52 0 76.5 -24t24.5 -76v-193q0 -65 -31 -96t-96 -31h-333v121h274q15 0 20.5 5.5t5.5 19.5v22q-16 -19 -61 -19h-157q-52 0 -76 24.5t-24 76.5v70q0 52 24 76t76 24zM207 149h122q11 0 14.5 3.5t3.5 14.5v18q0 11 -3.5 14.5t-14.5 3.5h-122
q-11 0 -14.5 -3.5t-3.5 -14.5v-18q0 -11 3.5 -14.5t14.5 -3.5z" />
    <glyph glyph-name="zero.dnom" horiz-adv-x="536" 
d="M380 0h-224q-65 0 -96 31t-31 96v166q0 65 31 96t96 31h224q65 0 96 -31t31 -96v-166q0 -65 -31 -96t-96 -31zM215 130h106q15 0 20.5 6t5.5 20v108q0 14 -5.5 20t-20.5 6h-106q-15 0 -20.5 -6t-5.5 -20v-108q0 -14 5.5 -20t20.5 -6z" />
    <glyph glyph-name="one.dnom" horiz-adv-x="498" 
d="M336 420v-297h143v-123h-460v123h157v161l-139 -11v129l221 18h78z" />
    <glyph glyph-name="two.dnom" horiz-adv-x="536" 
d="M500 123v-123h-471v144q0 50 24 74.5t76 29.5l200 16q12 2 15 5t3 13v11q0 11 -3.5 14.5t-14.5 3.5h-120q-11 0 -14.5 -3.5t-3.5 -14.5v-19h-154v46q0 52 24.5 76t76.5 24h268q52 0 76.5 -24t24.5 -76v-52q0 -50 -24 -74.5t-76 -29.5l-200 -16q-12 -2 -15 -5t-3 -13v-7
h311z" />
    <glyph glyph-name="three.dnom" horiz-adv-x="534" 
d="M453 213q54 -13 54 -84v-29q0 -52 -24 -76t-76 -24h-280q-52 0 -76 24t-24 76v61h154v-27q0 -11 3.5 -14.5t14.5 -3.5h130q11 0 14.5 3.5t3.5 14.5v13q0 11 -3.5 14.5t-14.5 3.5h-118v94h112q11 0 14.5 3.5t3.5 14.5v9q0 11 -3.5 14.5t-14.5 3.5h-118q-11 0 -14.5 -3.5
t-3.5 -14.5v-22h-154v56q0 52 24 76t76 24h268q52 0 76 -24t24 -76v-24q0 -66 -48 -83z" />
    <glyph glyph-name="four.dnom" horiz-adv-x="552" 
d="M448 182h85v-115h-85v-67h-154v67h-275v97l250 256h179v-238zM294 292l-109 -110h109v110z" />
    <glyph glyph-name="five.dnom" horiz-adv-x="517" 
d="M388 0h-357v123h279q11 0 15 3.5t4 13.5v4q0 10 -4 13.5t-15 3.5h-279v259h439v-123h-279v-27h197q52 0 76 -24t24 -76v-70q0 -52 -24 -76t-76 -24z" />
    <glyph glyph-name="six.dnom" horiz-adv-x="536" 
d="M250 267h156q52 0 76.5 -24t24.5 -76v-67q0 -52 -24.5 -76t-76.5 -24h-277q-52 0 -76 24t-24 76v193q0 65 31 96t96 31h333v-123h-274q-15 0 -20.5 -5.5t-5.5 -20.5v-22q17 18 61 18zM347 131v18q0 11 -3.5 15t-14.5 4h-122q-11 0 -14.5 -4t-3.5 -15v-18q0 -11 3.5 -14.5
t14.5 -3.5h122q11 0 14.5 3.5t3.5 14.5z" />
    <glyph glyph-name="seven.dnom" horiz-adv-x="511" 
d="M491 420v-117h1l-164 -149q-14 -12 -18 -23.5t-4 -34.5v-96h-164v92q0 57 11 84q11 26 45 56l64 53h-243v135h472z" />
    <glyph glyph-name="eight.dnom" horiz-adv-x="534" 
d="M453 213q54 -13 54 -84v-29q0 -52 -24 -76t-76 -24h-280q-52 0 -76 24t-24 76v29q0 71 54 84q-48 17 -48 83v24q0 52 24 76t76 24h268q52 0 76 -24t24 -76v-24q0 -66 -48 -83zM193 289v-15q0 -10 3.5 -14t14.5 -4h112q11 0 14.5 3.5t3.5 14.5v15q0 11 -3.5 14.5
t-14.5 3.5h-112q-11 0 -14.5 -3.5t-3.5 -14.5zM347 131v19q0 11 -3.5 14.5t-14.5 3.5h-124q-11 0 -14.5 -4t-3.5 -14v-19q0 -11 3.5 -14.5t14.5 -3.5h124q11 0 14.5 3.5t3.5 14.5z" />
    <glyph glyph-name="nine.dnom" horiz-adv-x="536" 
d="M129 420h277q52 0 76.5 -24t24.5 -76v-193q0 -65 -31 -96t-96 -31h-333v121h274q15 0 20.5 5.5t5.5 19.5v22q-16 -19 -61 -19h-157q-52 0 -76 24.5t-24 76.5v70q0 52 24 76t76 24zM207 249h122q11 0 14.5 3.5t3.5 14.5v18q0 11 -3.5 14.5t-14.5 3.5h-122
q-11 0 -14.5 -3.5t-3.5 -14.5v-18q0 -11 3.5 -14.5t14.5 -3.5z" />
    <glyph glyph-name="zero.numr" horiz-adv-x="536" 
d="M380 280h-224q-65 0 -96 31t-31 96v166q0 65 31 96t96 31h224q65 0 96 -31t31 -96v-166q0 -65 -31 -96t-96 -31zM215 410h106q15 0 20.5 6t5.5 20v108q0 14 -5.5 20t-20.5 6h-106q-15 0 -20.5 -6t-5.5 -20v-108q0 -14 5.5 -20t20.5 -6z" />
    <glyph glyph-name="one.numr" horiz-adv-x="498" 
d="M336 700v-297h143v-123h-460v123h157v161l-139 -11v129l221 18h78z" />
    <glyph glyph-name="two.numr" horiz-adv-x="536" 
d="M500 403v-123h-471v144q0 50 24 74.5t76 29.5l200 16q12 2 15 5t3 13v11q0 11 -3.5 14.5t-14.5 3.5h-120q-11 0 -14.5 -3.5t-3.5 -14.5v-19h-154v46q0 52 24.5 76t76.5 24h268q52 0 76.5 -24t24.5 -76v-52q0 -50 -24 -74.5t-76 -29.5l-200 -16q-12 -2 -15 -5t-3 -13v-7
h311z" />
    <glyph glyph-name="three.numr" horiz-adv-x="534" 
d="M453 493q54 -13 54 -84v-29q0 -52 -24 -76t-76 -24h-280q-52 0 -76 24t-24 76v61h154v-27q0 -11 3.5 -14.5t14.5 -3.5h130q11 0 14.5 3.5t3.5 14.5v13q0 11 -3.5 14.5t-14.5 3.5h-118v94h112q11 0 14.5 3.5t3.5 14.5v9q0 11 -3.5 14.5t-14.5 3.5h-118q-11 0 -14.5 -3.5
t-3.5 -14.5v-22h-154v56q0 52 24 76t76 24h268q52 0 76 -24t24 -76v-24q0 -66 -48 -83z" />
    <glyph glyph-name="four.numr" horiz-adv-x="552" 
d="M448 462h85v-115h-85v-67h-154v67h-275v97l250 256h179v-238zM294 572l-109 -110h109v110z" />
    <glyph glyph-name="five.numr" horiz-adv-x="517" 
d="M388 280h-357v123h279q11 0 15 3.5t4 13.5v4q0 10 -4 13.5t-15 3.5h-279v259h439v-123h-279v-27h197q52 0 76 -24t24 -76v-70q0 -52 -24 -76t-76 -24z" />
    <glyph glyph-name="six.numr" horiz-adv-x="536" 
d="M250 547h156q52 0 76.5 -24t24.5 -76v-67q0 -52 -24.5 -76t-76.5 -24h-277q-52 0 -76 24t-24 76v193q0 65 31 96t96 31h333v-123h-274q-15 0 -20.5 -5.5t-5.5 -20.5v-22q16 18 61 18zM347 411v18q0 11 -3.5 15t-14.5 4h-122q-11 0 -14.5 -4t-3.5 -15v-18q0 -11 3.5 -14.5
t14.5 -3.5h122q11 0 14.5 3.5t3.5 14.5z" />
    <glyph glyph-name="seven.numr" horiz-adv-x="511" 
d="M491 700v-117h1l-164 -149q-14 -12 -18 -23.5t-4 -34.5v-96h-164v92q0 57 11 84q11 26 45 56l64 53h-243v135h472z" />
    <glyph glyph-name="eight.numr" horiz-adv-x="534" 
d="M453 493q54 -13 54 -84v-29q0 -52 -24 -76t-76 -24h-280q-52 0 -76 24t-24 76v29q0 71 54 84q-48 17 -48 83v24q0 52 24 76t76 24h268q52 0 76 -24t24 -76v-24q0 -66 -48 -83zM193 569v-15q0 -10 3.5 -14t14.5 -4h112q11 0 14.5 3.5t3.5 14.5v15q0 11 -3.5 14.5
t-14.5 3.5h-112q-11 0 -14.5 -3.5t-3.5 -14.5zM347 411v19q0 11 -3.5 14.5t-14.5 3.5h-124q-11 0 -14.5 -4t-3.5 -14v-19q0 -11 3.5 -14.5t14.5 -3.5h124q11 0 14.5 3.5t3.5 14.5z" />
    <glyph glyph-name="nine.numr" horiz-adv-x="536" 
d="M129 700h277q52 0 76.5 -24t24.5 -76v-193q0 -65 -31 -96t-96 -31h-333v121h274q15 0 20.5 5.5t5.5 19.5v22q-16 -19 -61 -19h-157q-52 0 -76 24.5t-24 76.5v70q0 52 24 76t76 24zM207 529h122q11 0 14.5 3.5t3.5 14.5v18q0 11 -3.5 14.5t-14.5 3.5h-122
q-11 0 -14.5 -3.5t-3.5 -14.5v-18q0 -11 3.5 -14.5t14.5 -3.5z" />
    <glyph glyph-name="zero.sups" horiz-adv-x="536" 
d="M380 380h-224q-65 0 -96 31t-31 96v166q0 65 31 96t96 31h224q65 0 96 -31t31 -96v-166q0 -65 -31 -96t-96 -31zM215 510h106q15 0 20.5 6t5.5 20v108q0 14 -5.5 20t-20.5 6h-106q-15 0 -20.5 -6t-5.5 -20v-108q0 -14 5.5 -20t20.5 -6z" />
    <glyph glyph-name="one.sups" horiz-adv-x="498" 
d="M336 800v-297h143v-123h-460v123h157v161l-139 -11v129l221 18h78z" />
    <glyph glyph-name="two.sups" horiz-adv-x="536" 
d="M500 503v-123h-471v144q0 50 24 74.5t76 29.5l200 16q12 2 15 5t3 13v11q0 11 -3.5 14.5t-14.5 3.5h-120q-11 0 -14.5 -3.5t-3.5 -14.5v-19h-154v46q0 52 24.5 76t76.5 24h268q52 0 76.5 -24t24.5 -76v-52q0 -50 -24 -74.5t-76 -29.5l-200 -16q-12 -2 -15 -5t-3 -13v-7
h311z" />
    <glyph glyph-name="three.sups" horiz-adv-x="534" 
d="M453 593q54 -13 54 -84v-29q0 -52 -24 -76t-76 -24h-280q-52 0 -76 24t-24 76v61h154v-27q0 -11 3.5 -14.5t14.5 -3.5h130q11 0 14.5 3.5t3.5 14.5v13q0 11 -3.5 14.5t-14.5 3.5h-118v94h112q11 0 14.5 3.5t3.5 14.5v9q0 11 -3.5 14.5t-14.5 3.5h-118q-11 0 -14.5 -3.5
t-3.5 -14.5v-22h-154v56q0 52 24 76t76 24h268q52 0 76 -24t24 -76v-24q0 -66 -48 -83z" />
    <glyph glyph-name="four.sups" horiz-adv-x="552" 
d="M448 562h85v-115h-85v-67h-154v67h-275v97l250 256h179v-238zM294 672l-109 -110h109v110z" />
    <glyph glyph-name="five.sups" horiz-adv-x="517" 
d="M388 380h-357v123h279q11 0 15 3.5t4 13.5v4q0 10 -4 13.5t-15 3.5h-279v259h439v-123h-279v-27h197q52 0 76 -24t24 -76v-70q0 -52 -24 -76t-76 -24z" />
    <glyph glyph-name="six.sups" horiz-adv-x="536" 
d="M250 647h156q52 0 76.5 -24t24.5 -76v-67q0 -52 -24.5 -76t-76.5 -24h-277q-52 0 -76 24t-24 76v193q0 65 31 96t96 31h333v-123h-274q-15 0 -20.5 -5.5t-5.5 -20.5v-22q16 18 61 18zM347 511v18q0 11 -3.5 15t-14.5 4h-122q-11 0 -14.5 -4t-3.5 -15v-18q0 -11 3.5 -14.5
t14.5 -3.5h122q11 0 14.5 3.5t3.5 14.5z" />
    <glyph glyph-name="seven.sups" horiz-adv-x="511" 
d="M491 800v-117h1l-164 -149q-14 -12 -18 -23.5t-4 -34.5v-96h-164v92q0 57 11 84q11 26 45 56l64 53h-243v135h472z" />
    <glyph glyph-name="eight.sups" horiz-adv-x="534" 
d="M453 593q54 -13 54 -84v-29q0 -52 -24 -76t-76 -24h-280q-52 0 -76 24t-24 76v29q0 71 54 84q-48 17 -48 83v24q0 52 24 76t76 24h268q52 0 76 -24t24 -76v-24q0 -66 -48 -83zM193 669v-15q0 -10 3.5 -14t14.5 -4h112q11 0 14.5 3.5t3.5 14.5v15q0 11 -3.5 14.5
t-14.5 3.5h-112q-11 0 -14.5 -3.5t-3.5 -14.5zM347 511v19q0 11 -3.5 14.5t-14.5 3.5h-124q-11 0 -14.5 -4t-3.5 -14v-19q0 -11 3.5 -14.5t14.5 -3.5h124q11 0 14.5 3.5t3.5 14.5z" />
    <glyph glyph-name="nine.sups" horiz-adv-x="536" 
d="M129 800h277q52 0 76.5 -24t24.5 -76v-193q0 -65 -31 -96t-96 -31h-333v121h274q15 0 20.5 5.5t5.5 19.5v22q-16 -19 -61 -19h-157q-52 0 -76 24.5t-24 76.5v70q0 52 24 76t76 24zM207 629h122q11 0 14.5 3.5t3.5 14.5v18q0 11 -3.5 14.5t-14.5 3.5h-122
q-11 0 -14.5 -3.5t-3.5 -14.5v-18q0 -11 3.5 -14.5t14.5 -3.5z" />
    <glyph glyph-name="numbersign.numr" horiz-adv-x="534" 
d="M509 615v-90h-84l-11 -70h69v-90h-84l-13 -85h-113l13 85h-78l-13 -85h-113l13 85h-70v90h85l11 70h-70v90h84l13 85h113l-13 -85h78l13 85h113l-13 -85h70zM223 455h78l11 70h-78z" />
    <glyph glyph-name="numbersign.tf" 
d="M830 556v-146h-136l-18 -120h110v-146h-133l-23 -144h-184l23 144h-138l-23 -144h-184l23 144h-113v146h136l18 120h-110v146h133l23 144h184l-23 -144h138l23 144h184l-23 -144h113zM354 290h138l18 120h-138z" />
    <glyph glyph-name="cent.numr" horiz-adv-x="536" 
d="M507 585v-41h-154v14q0 12 -4.5 16.5t-16.5 4.5h-122q-12 0 -16.5 -4.5t-4.5 -16.5v-68q0 -12 4.5 -16.5t16.5 -4.5h122q12 0 16.5 4.5t4.5 16.5v17h154v-44q0 -61 -27.5 -88t-87.5 -27h-73v-60h-100v60h-75q-60 0 -87.5 27t-27.5 88v122q0 61 27.5 88t87.5 27h75v60h100
v-60h73q60 0 87.5 -27t27.5 -88z" />
    <glyph glyph-name="dollar.numr" horiz-adv-x="535" 
d="M210 553l199 -13q54 -4 77 -26.5t23 -73.5v-60q0 -52 -24.5 -76t-76.5 -24h-91v-60h-99v60h-92q-52 0 -76 24t-24 76v41h154v-18q0 -11 3.5 -15t14.5 -4h133q11 0 14.5 4t3.5 15v10q0 10 -3.5 13.5t-14.5 4.5l-198 13q-54 4 -77.5 27t-23.5 73v56q0 52 24 76t76 24h86v60
h99v-60h83q52 0 76 -24t24 -76v-37h-153v14q0 11 -4 15t-15 4h-118q-11 0 -14.5 -4t-3.5 -15v-6q0 -10 3.5 -13.5t14.5 -4.5z" />
    <glyph glyph-name="Euro.numr" horiz-adv-x="554" 
d="M525 573v-58h-154v41q0 15 -5.5 20.5t-20.5 5.5h-107q-26 0 -26 -24h127v-58h-127v-20h127v-58h-127q0 -24 26 -24h107q15 0 20.5 5.5t5.5 20.5v45h154v-62q0 -65 -31 -96t-96 -31h-218q-65 0 -96 31t-31 96v15h-45v58h45v20h-45v58h45v15q0 65 31 96t96 31h218
q65 0 96 -31t31 -96z" />
    <glyph glyph-name="florin.numr" horiz-adv-x="486" 
d="M461 570h-99q-15 0 -20 -5t-7 -21l-4 -41h118v-98h-128l-9 -95q-7 -67 -37 -96.5t-92 -29.5h-158v130h99q15 0 20.5 5.5t7.5 21.5l7 64h-122v98h132l7 70q6 67 35.5 97t91.5 30h158v-130z" />
    <glyph glyph-name="sterling.numr" horiz-adv-x="554" 
d="M525 573v-46h-154v29q0 15 -5.5 20.5t-20.5 5.5h-108q-19 0 -19 -26v-19h121v-81h-121v-52h135q11 0 14.5 4t3.5 14v35h154v-77q0 -52 -24.5 -76t-76.5 -24h-410v124h45v52h-51v81h51v36q0 65 31 96t96 31h212q65 0 96 -31t31 -96z" />
    <glyph glyph-name="yen.numr" horiz-adv-x="534" 
d="M338 700h183l-144 -215h126v-65h-156v-26h156v-65h-156v-49h-160v49h-156v65h156v26h-156v65h127l-145 215h191l67 -118z" />
    <glyph glyph-name="cent.tf" 
d="M828 510v-63h-248v19q0 22 -8 30t-30 8h-210q-22 0 -30 -8t-8 -30v-102q0 -22 8 -30t30 -8h210q22 0 30 8t8 30v23h248v-67q0 -100 -45.5 -145t-144.5 -45h-124v-100h-160v100h-128q-99 0 -144.5 45t-45.5 145v190q0 100 45.5 145t144.5 45h128v100h160v-100h124
q99 0 144.5 -45t45.5 -145z" />
    <glyph glyph-name="dollar.tf" 
d="M332 454l334 -22q89 -7 127.5 -44.5t38.5 -121.5v-100q0 -87 -40 -126.5t-126 -39.5h-154v-100h-160v100h-154q-86 0 -126 39.5t-40 126.5v68h248v-32q0 -19 6.5 -25.5t25.5 -6.5h230q19 0 25.5 6.5t6.5 25.5v20q0 18 -6.5 24t-25.5 8l-334 22q-89 7 -127.5 44.5
t-38.5 121.5v92q0 87 40 126.5t126 39.5h144v100h160v-100h140q86 0 126 -39.5t40 -126.5v-60h-248v24q0 19 -6.5 25.5t-25.5 6.5h-206q-19 0 -25.5 -6.5t-6.5 -25.5v-12q0 -18 6.5 -24t25.5 -8z" />
    <glyph glyph-name="Euro.tf" 
d="M828 490v-96h-248v68q0 26 -10 36t-36 10h-174q-26 0 -36 -10t-10 -36h212v-94h-212v-36h212v-94h-212q0 -26 10 -36t36 -10h174q26 0 36 10t10 36v74h248v-102q0 -108 -51.5 -159t-158.5 -51h-352q-107 0 -158.5 51t-51.5 159v28h-56v94h56v36h-56v94h56v28
q0 108 51.5 159t158.5 51h352q107 0 158.5 -51t51.5 -159z" />
    <glyph glyph-name="florin.tf" 
d="M814 488h-185q-26 0 -35.5 -9.5t-12.5 -36.5l-7 -72h220v-160h-237l-16 -160q-12 -112 -60.5 -161t-151.5 -49h-279v212h185q26 0 35.5 9.5t12.5 36.5l11 112h-224v160h241l12 120q12 112 60.5 161t151.5 49h279v-212z" />
    <glyph glyph-name="sterling.tf" 
d="M828 490v-76h-248v48q0 26 -10 36t-36 10h-174q-19 0 -27.5 -10t-8.5 -36v-36h202v-132h-202v-92h224q19 0 25.5 6.5t6.5 25.5v58h248v-126q0 -87 -40 -126.5t-126 -39.5h-652v202h56v92h-66v132h66v64q0 108 51.5 159t158.5 51h342q107 0 158.5 -51t51.5 -159z" />
    <glyph glyph-name="yen.tf" 
d="M558 700h296l-244 -360h214v-106h-263v-46h263v-106h-263v-82h-258v82h-263v106h263v46h-263v106h214l-244 360h310l119 -209z" />
    <glyph glyph-name="percent.numr" horiz-adv-x="601" 
d="M209 502h-120q-63 0 -63 63v72q0 63 63 63h120q63 0 63 -63v-72q0 -63 -63 -63zM153 280h-79l373 420h80zM119 570h61q13 0 13 13v35q0 8 -2.5 10.5t-10.5 2.5h-61q-8 0 -10.5 -2.5t-2.5 -10.5v-35q0 -13 13 -13zM512 280h-121q-63 0 -63 63v72q0 63 63 63h121
q63 0 63 -63v-72q0 -63 -63 -63zM421 349h61q13 0 13 13v35q0 13 -13 13h-61q-13 0 -13 -13v-35q0 -13 13 -13z" />
    <glyph glyph-name="perthousand.numr" horiz-adv-x="871" 
d="M209 502h-120q-63 0 -63 63v72q0 63 63 63h120q63 0 63 -63v-72q0 -63 -63 -63zM153 280h-79l373 420h80zM119 570h61q13 0 13 13v35q0 8 -2.5 10.5t-10.5 2.5h-61q-8 0 -10.5 -2.5t-2.5 -10.5v-35q0 -13 13 -13zM512 280h-121q-63 0 -63 63v72q0 63 63 63h121
q63 0 63 -63v-72q0 -63 -63 -63zM782 280h-121q-63 0 -63 63v72q0 63 63 63h121q63 0 63 -63v-72q0 -63 -63 -63zM421 349h61q13 0 13 13v35q0 13 -13 13h-61q-13 0 -13 -13v-35q0 -13 13 -13zM691 349h60q13 0 13 13v35q0 13 -13 13h-60q-13 0 -13 -13v-35q0 -13 13 -13z
" />
    <glyph glyph-name="percent.tf" horiz-adv-x="972" 
d="M327 370h-192q-105 0 -105 105v120q0 105 105 105h192q105 0 105 -105v-120q0 -105 -105 -105zM246 0h-132l612 700h132zM184 482h94q13 0 18 5t5 18v60q0 13 -4.5 18t-18.5 5h-94q-13 0 -18 -5t-5 -18v-60q0 -13 5 -18t18 -5zM837 0h-192q-105 0 -105 105v120
q0 105 105 105h192q105 0 105 -105v-120q0 -105 -105 -105zM694 112h94q13 0 18 5t5 18v60q0 13 -4.5 18t-18.5 5h-94q-13 0 -18 -5t-5 -18v-60q0 -13 5 -18t18 -5z" />
    <glyph glyph-name="perthousand.tf" horiz-adv-x="1414" 
d="M327 370h-192q-105 0 -105 105v120q0 105 105 105h192q105 0 105 -105v-120q0 -105 -105 -105zM246 0h-132l612 700h132zM184 482h94q13 0 18 5t5 18v60q0 13 -4.5 18t-18.5 5h-94q-13 0 -18 -5t-5 -18v-60q0 -13 5 -18t18 -5zM837 0h-192q-105 0 -105 105v120
q0 105 105 105h192q105 0 105 -105v-120q0 -105 -105 -105zM1279 0h-192q-105 0 -105 105v120q0 105 105 105h192q105 0 105 -105v-120q0 -105 -105 -105zM694 112h94q13 0 18 5t5 18v60q0 13 -4.5 18t-18.5 5h-94q-13 0 -18 -5t-5 -18v-60q0 -13 5 -18t18 -5zM1136 112h94
q13 0 18 5t5 18v60q0 13 -4.5 18t-18.5 5h-94q-13 0 -18 -5t-5 -18v-60q0 -13 5 -18t18 -5z" />
    <glyph glyph-name="brevecombcy" horiz-adv-x="0" 
d="M-116 570h-310q-76 0 -76 76v54h166v-18q0 -22 22 -22h86q22 0 22 22v18h166v-54q0 -76 -76 -76z" />
    <glyph glyph-name="ringacutecomb" horiz-adv-x="412" 
d="M406 700l-62 -64q28 -10 28 -52v-28q0 -30 -13 -43t-43 -13h-220q-30 0 -43 13t-13 43v28q0 30 13 43t43 13h25l29 60h256zM288 565v10q0 11 -3 14t-13 3h-132q-10 0 -13 -3t-3 -14v-10q0 -11 3 -14t13 -3h132q10 0 13 3t3 14z" />
    </font>
</defs>
</svg>
