<?xml version="1.0" standalone="no"?>
<!DOCTYPE svg PUBLIC "-//W3C//DTD SVG 1.1//EN" "http://www.w3.org/Graphics/SVG/1.1/DTD/svg11.dtd" >
<svg xmlns="http://www.w3.org/2000/svg" xmlns:xlink="http://www.w3.org/1999/xlink" version="1.1">
<metadata>
Created by FontForge 20170731 at Thu Jun 30 17:45:14 2016
 By Aleksey,,,
(c)2016 Richard Miller
</metadata>
<defs>
<font id="TacticSansExd-Blk" horiz-adv-x="864" >
  <font-face 
    font-family="TacticSansExd-Blk"
    font-weight="400"
    font-stretch="expanded"
    units-per-em="1000"
    panose-1="0 0 9 5 0 0 0 0 0 0"
    ascent="814"
    descent="-186"
    x-height="536"
    cap-height="700"
    bbox="-912 -232 1495 864"
    underline-thickness="50"
    underline-position="-200"
    unicode-range="U+0020-FB02"
  />
<missing-glyph horiz-adv-x="720" 
d="M10 0v700h700v-700h-700zM259 350l-169 -169l107 -107l169 169l169 -169l107 107l-169 169l169 169l-107 107l-169 -169l-169 169l-107 -107z" />
    <glyph glyph-name="ellipsis" unicode="&#x2e;&#x2e;&#x2e;" horiz-adv-x="1110" 
d="M290 0h-242v226h242v-226zM676 0h-242v226h242v-226zM1062 0h-242v226h242v-226z" />
    <glyph glyph-name="blackbox.liga" unicode="[&#x2b;]" horiz-adv-x="940" 
d="M120 0v700h700v-700h-700z" />
    <glyph glyph-name="checkbox.liga" unicode="[]" horiz-adv-x="940" 
d="M120 0v700h700v-700h-700zM721 604h-502v-508h502v508z" />
    <glyph glyph-name="checkround.liga" unicode="&#x28;&#x29;" horiz-adv-x="940" 
d="M726 95q-105 -105 -256 -105q-152 0 -255 105q-105 103 -105 255q0 151 105 256q104 104 255 104q150 0 256 -104q104 -106 104 -256q0 -151 -104 -255zM285 163q75 -77 185 -77q109 0 186 77q75 76 75 187t-75 188q-76 76 -186 76t-185 -76q-76 -76 -76 -188
q0 -111 76 -187z" />
    <glyph glyph-name="checkstar.liga" unicode="&#x7b;&#x7d;" horiz-adv-x="940" 
d="M378 437l92 283l92 -283h297l-240 -174l91 -283l-240 175l-240 -175l91 283l-240 174h297zM509 364l-39 120l-40 -120h-125l102 -73l-39 -120l102 74l101 -74l-39 120l102 73h-125z" />
    <glyph glyph-name="blackround.liga" unicode="&#x28;&#x2b;&#x29;" horiz-adv-x="940" 
d="M726 95q-105 -105 -256 -105q-152 0 -255 105q-105 103 -105 255q0 151 105 256q104 104 255 104q150 0 256 -104q104 -106 104 -256q0 -151 -104 -255z" />
    <glyph glyph-name="filledstar.liga" unicode="&#x7b;&#x2b;&#x7d;" horiz-adv-x="940" 
d="M378 437l92 283l92 -283h297l-240 -174l91 -283l-240 175l-240 -175l91 283l-240 174h297z" />
    <glyph glyph-name="ff.liga" unicode="ff" horiz-adv-x="1108" 
d="M1096 552h-199q-25 0 -34.5 -9.5t-9.5 -34.5v-38h243v-158h-243v-312h-209v312h-287v-312h-209v312h-136v158h136v72q0 82 38.5 120t119.5 38h262v-148h-167q-25 0 -34.5 -9.5t-9.5 -34.5v-38h287v72q0 82 38.5 120t119.5 38h294v-148z" />
    <glyph glyph-name=".notdef" horiz-adv-x="720" 
d="M10 0v700h700v-700h-700zM259 350l-169 -169l107 -107l169 169l169 -169l107 107l-169 169l169 169l-107 107l-169 -169l-169 169l-107 -107z" />
    <glyph glyph-name=".null" horiz-adv-x="0" 
 />
    <glyph glyph-name="nonmarkingreturn" horiz-adv-x="333" 
 />
    <glyph glyph-name="space" unicode=" " horiz-adv-x="300" 
 />
    <glyph glyph-name="exclam" unicode="!" horiz-adv-x="338" 
d="M91 248l-42 452h240l-42 -452h-156zM290 0h-242v196h242v-196z" />
    <glyph glyph-name="quotedbl" unicode="&#x22;" horiz-adv-x="516" 
d="M48 336v364h174v-364h-174zM294 336v364h174v-364h-174z" />
    <glyph glyph-name="numbersign" unicode="#" 
d="M824 493v-124h-145l-20 -118h122v-124h-144l-23 -127h-155l23 127h-164l-23 -127h-155l23 127h-123v124h145l20 118h-122v124h144l23 127h155l-23 -127h164l23 127h155l-23 -127h123zM340 251h164l20 118h-164z" />
    <glyph glyph-name="dollar" unicode="$" 
d="M310 447l354 -25q84 -6 121 -42t37 -116v-106q0 -82 -38.5 -120t-119.5 -38h-164v-100h-136v100h-164q-81 0 -119.5 38t-38.5 120v67h206v-30q0 -25 9.5 -34.5t34.5 -9.5h272q25 0 34.5 9.5t9.5 34.5v27q0 24 -9.5 33t-34.5 11l-354 25q-84 7 -121 43t-37 115v93
q0 82 38.5 120t119.5 38h154v100h136v-100h150q81 0 119.5 -38t38.5 -120v-57h-206v20q0 25 -9.5 34.5t-34.5 9.5h-248q-25 0 -34.5 -9.5t-9.5 -34.5v-14q0 -24 9.5 -33t34.5 -11z" />
    <glyph glyph-name="percent" unicode="%" horiz-adv-x="972" 
d="M317 302h-178q-105 0 -105 105v108q0 105 105 105h178q105 0 105 -105v-108q0 -105 -105 -105zM239 0h-116l610 620h116zM178 399h100q18 0 25 7.5t7 24.5v60q0 18 -7 25t-25 7h-100q-17 0 -24.5 -7t-7.5 -25v-60q0 -17 7.5 -24.5t24.5 -7.5zM833 0h-178q-105 0 -105 105
v108q0 105 105 105h178q105 0 105 -105v-108q0 -105 -105 -105zM694 97h100q18 0 25 7.5t7 24.5v60q0 18 -7 25t-25 7h-100q-17 0 -24.5 -7t-7.5 -25v-60q0 -17 7.5 -24.5t24.5 -7.5z" />
    <glyph glyph-name="ampersand" unicode="&#x26;" horiz-adv-x="966" 
d="M326 421h628v-128h-108v-135q0 -82 -38.5 -120t-119.5 -38h-492q-81 0 -119.5 38t-38.5 120v66q0 118 96 138q-66 28 -66 129v51q0 82 38.5 120t119.5 38h432q81 0 119.5 -38t38.5 -120v-57h-206v20q0 25 -9 34.5t-35 9.5h-240q-25 0 -34.5 -9.5t-9.5 -34.5v-39
q0 -25 9.5 -35t34.5 -10zM640 195v98h-344q-25 0 -34.5 -9.5t-9.5 -34.5v-54q0 -25 9.5 -34.5t34.5 -9.5h300q25 0 34.5 9.5t9.5 34.5z" />
    <glyph glyph-name="quotesingle" unicode="'" horiz-adv-x="270" 
d="M48 336v364h174v-364h-174z" />
    <glyph glyph-name="parenleft" unicode="(" horiz-adv-x="512" 
d="M488 -100h-190q-250 0 -250 250v400q0 250 250 250h190v-159h-160q-95 0 -95 -95v-392q0 -95 95 -95h160v-159z" />
    <glyph glyph-name="parenright" unicode=")" horiz-adv-x="512" 
d="M24 800h190q250 0 250 -250v-400q0 -250 -250 -250h-190v159h160q95 0 95 95v392q0 95 -95 95h-160v159z" />
    <glyph glyph-name="asterisk" unicode="*" horiz-adv-x="479" 
d="M406 623l37 -114l-125 -29l84 -96l-97 -70l-65 109l-66 -109l-97 70l84 96l-125 29l37 114l117 -50l-10 127h120l-11 -127z" />
    <glyph glyph-name="plus" unicode="+" 
d="M525 437h283v-174h-283v-221h-186v221h-283v174h283v221h186v-221z" />
    <glyph glyph-name="comma" unicode="," horiz-adv-x="338" 
d="M190 -160h-131l66 160h-77v226h242v-98q0 -81 -35 -151z" />
    <glyph glyph-name="hyphen" unicode="-" horiz-adv-x="516" 
d="M36 263v174h444v-174h-444z" />
    <glyph glyph-name="period" unicode="." horiz-adv-x="338" 
d="M290 0h-242v226h242v-226z" />
    <glyph glyph-name="slash" unicode="/" horiz-adv-x="536" 
d="M2 -100l396 900h136l-396 -900h-136z" />
    <glyph glyph-name="zero" unicode="0" 
d="M616 0h-368q-103 0 -152.5 49t-49.5 153v296q0 104 49.5 153t152.5 49h368q103 0 152.5 -49t49.5 -153v-296q0 -104 -49.5 -153t-152.5 -49zM324 177h216q36 0 50 14t14 50v218q0 36 -14 50t-50 14h-216q-36 0 -50 -14t-14 -50v-218q0 -36 14 -50t50 -14z" />
    <glyph glyph-name="one" unicode="1" horiz-adv-x="804" 
d="M532 700v-533h246v-167h-752v167h290v349l-260 -21v175l375 30h101z" />
    <glyph glyph-name="two" unicode="2" 
d="M807 170v-170h-761v232q0 80 37 117.5t121 46.5l356 34q25 3 34.5 12.5t9.5 33.5v24q0 25 -9.5 34.5t-34.5 9.5h-250q-25 0 -34.5 -9.5t-9.5 -34.5v-29h-206v71q0 82 38.5 120t119.5 38h442q81 0 119.5 -38t38.5 -120v-94q0 -78 -37 -116.5t-121 -47.5l-356 -34
q-25 -2 -34.5 -12t-9.5 -34v-34h547z" />
    <glyph glyph-name="three" unicode="3" 
d="M737 359q83 -24 83 -135v-66q0 -82 -38.5 -120t-119.5 -38h-460q-81 0 -119.5 38t-38.5 120v95h206v-50q0 -25 9.5 -34.5t34.5 -9.5h268q25 0 34.5 9.5t9.5 34.5v41q0 25 -9.5 34.5t-34.5 9.5h-223v138h213q25 0 34.5 9.5t9.5 34.5v27q0 25 -9.5 34.5t-34.5 9.5h-248
q-25 0 -34.5 -9.5t-9.5 -34.5v-42h-206v87q0 82 38.5 120t119.5 38h440q81 0 119.5 -38t38.5 -120v-51q0 -105 -73 -132z" />
    <glyph glyph-name="four" unicode="4" horiz-adv-x="894" 
d="M714 288h154v-158h-154v-130h-209v130h-479v133l446 437h242v-412zM505 532l-249 -244h249v244z" />
    <glyph glyph-name="five" unicode="5" horiz-adv-x="834" 
d="M630 0h-580v170h480q25 0 34.5 9.5t9.5 34.5v28q0 25 -9.5 34.5t-34.5 9.5h-480v414h708v-170h-494v-86h366q81 0 119.5 -38t38.5 -120v-128q0 -82 -38.5 -120t-119.5 -38z" />
    <glyph glyph-name="six" unicode="6" 
d="M362 442h298q81 0 119.5 -38t38.5 -120v-126q0 -82 -38.5 -120t-119.5 -38h-456q-81 0 -119.5 38t-38.5 120v340q0 104 49.5 153t152.5 49h540v-170h-464q-36 0 -50 -14t-14 -50v-57q28 33 102 33zM604 203v48q0 25 -9.5 34.5t-34.5 9.5h-256q-25 0 -34.5 -9.5
t-9.5 -34.5v-48q0 -25 9.5 -34.5t34.5 -9.5h256q25 0 34.5 9.5t9.5 34.5z" />
    <glyph glyph-name="seven" unicode="7" horiz-adv-x="824" 
d="M26 517v183h772v-158l-279 -256q-29 -27 -39 -53.5t-10 -74.5v-158h-219v152q0 94 18 141t76 96l150 128h-469z" />
    <glyph glyph-name="eight" unicode="8" 
d="M737 359q83 -24 83 -135v-66q0 -82 -38.5 -120t-119.5 -38h-460q-81 0 -119.5 38t-38.5 120v66q0 111 83 135q-73 27 -73 132v51q0 82 38.5 120t119.5 38h440q81 0 119.5 -38t38.5 -120v-51q0 -105 -73 -132zM268 500v-34q0 -25 9.5 -35t34.5 -10h240q25 0 34.5 10
t9.5 35v34q0 25 -9.5 35t-34.5 10h-240q-25 0 -34.5 -10t-9.5 -35zM606 200v49q0 25 -9.5 34.5t-34.5 9.5h-260q-25 0 -34.5 -9.5t-9.5 -34.5v-49q0 -25 9.5 -34.5t34.5 -9.5h260q25 0 34.5 9.5t9.5 34.5z" />
    <glyph glyph-name="nine" unicode="9" 
d="M204 700h456q81 0 119.5 -38t38.5 -120v-340q0 -104 -49.5 -153t-152.5 -49h-540v168h464q36 0 50 14t14 50v53q-28 -33 -102 -33h-298q-81 0 -119.5 38t-38.5 120v132q0 82 38.5 120t119.5 38zM304 399h256q25 0 34.5 9.5t9.5 34.5v51q0 25 -9.5 34.5t-34.5 9.5h-256
q-25 0 -34.5 -9.5t-9.5 -34.5v-51q0 -25 9.5 -34.5t34.5 -9.5z" />
    <glyph glyph-name="colon" unicode=":" horiz-adv-x="338" 
d="M290 332h-242v204h242v-204zM290 0h-242v204h242v-204z" />
    <glyph glyph-name="semicolon" unicode=";" horiz-adv-x="338" 
d="M290 332h-242v204h242v-204zM190 -160h-131l66 160h-77v204h242v-76q0 -81 -35 -151z" />
    <glyph glyph-name="less" unicode="&#x3c;" 
d="M56 437l752 236v-184l-482 -138l482 -139v-185l-752 236v174z" />
    <glyph glyph-name="equal" unicode="=" 
d="M56 399v166h752v-166h-752zM56 135v166h752v-166h-752z" />
    <glyph glyph-name="greater" unicode="&#x3e;" 
d="M56 488v185l752 -236v-174l-752 -236v184l482 139z" />
    <glyph glyph-name="question" unicode="?" horiz-adv-x="808" 
d="M478 224h-199v66q0 64 25.5 93.5t95.5 43.5l127 19q21 4 30 13.5t9 28.5v14q0 23 -9 31.5t-32 8.5h-250q-23 0 -32 -9t-9 -31v-42h-206v82q0 82 38.5 120t119.5 38h436q81 0 119.5 -38t38.5 -120v-63q0 -70 -33.5 -109.5t-110.5 -54.5l-123 -19q-20 -4 -27.5 -13
t-7.5 -28v-31zM499 0h-242v172h242v-172z" />
    <glyph glyph-name="at" unicode="@" horiz-adv-x="1001" 
d="M242 700h518q103 0 152.5 -49t49.5 -153v-194q0 -70 -32.5 -102t-101.5 -32h-125q-73 0 -95 48q-41 -33 -65 -40q-27 -9 -78 -9h-136q-64 0 -89.5 31t-13.5 96l20 115q12 66 44 93t96 27h135q47 0 71 -8q22 -7 49 -34l18 40h121l-39 -227q-6 -32 22 -32h38q27 0 36.5 9
t9.5 33v178q0 62 -24.5 86t-86.5 24h-471q-62 0 -86.5 -24t-24.5 -86v-280q0 -62 24.5 -86t86.5 -24h633v-100h-656q-103 0 -152.5 49t-49.5 153v296q0 104 49.5 153t152.5 49zM581 294l16 11l15 90l-11 12q-15 15 -51 15h-125q-20 0 -27.5 -7t-11.5 -28l-13 -71
q-4 -21 2.5 -29.5t27.5 -8.5h125q34 0 53 16z" />
    <glyph glyph-name="A" unicode="A" horiz-adv-x="960" 
d="M964 0h-252l-52 113h-369l-52 -113h-241l358 700h251zM475 516l-114 -250h229z" />
    <glyph glyph-name="B" unicode="B" horiz-adv-x="900" 
d="M775 361q89 -23 89 -137v-66q0 -82 -38.5 -120t-119.5 -38h-658v700h638q81 0 119.5 -38t38.5 -120v-51q0 -104 -69 -130zM578 539h-308v-116h308q25 0 34.5 9.5t9.5 34.5v28q0 25 -9.5 34.5t-34.5 9.5zM642 205v43q0 25 -9.5 34.5t-34.5 9.5h-328v-131h328
q25 0 34.5 9.5t9.5 34.5z" />
    <glyph glyph-name="C" unicode="C" horiz-adv-x="905" 
d="M666 0h-424q-103 0 -152.5 49t-49.5 153v296q0 104 49.5 153t152.5 49h424q103 0 152.5 -49t49.5 -153v-89h-214v47q0 36 -14.5 50t-49.5 14h-264q-36 0 -50 -14t-14 -50v-212q0 -36 14 -50t50 -14h264q35 0 49.5 14t14.5 50v54h214v-96q0 -104 -49.5 -153t-152.5 -49z
" />
    <glyph glyph-name="D" unicode="D" horiz-adv-x="934" 
d="M644 0h-596v700h596q122 0 186 -63.5t64 -186.5v-200q0 -123 -64 -186.5t-186 -63.5zM270 517v-334h322q80 0 80 80v174q0 80 -80 80h-322z" />
    <glyph glyph-name="E" unicode="E" horiz-adv-x="812" 
d="M270 284v-113h518v-171h-740v700h730v-171h-508v-99h468v-146h-468z" />
    <glyph glyph-name="F" unicode="F" horiz-adv-x="780" 
d="M768 700v-180h-498v-116h458v-164h-458v-240h-222v700h720z" />
    <glyph glyph-name="G" unicode="G" horiz-adv-x="935" 
d="M40 202v296q0 104 49.5 153t152.5 49h452q103 0 152.5 -49t49.5 -153v-51h-222v15q0 36 -14 50t-50 14h-284q-36 0 -50 -14t-14 -50v-236q0 -36 14 -50t50 -14h292q36 0 50 14t14 50v27h-213v141h427v-192q0 -104 -49.5 -153t-152.5 -49h-452q-103 0 -152.5 49t-49.5 153
z" />
    <glyph glyph-name="H" unicode="H" horiz-adv-x="922" 
d="M652 458v242h222v-700h-222v266h-382v-266h-222v700h222v-242h382z" />
    <glyph glyph-name="I" unicode="I" horiz-adv-x="330" 
d="M52 0v700h226v-700h-226z" />
    <glyph glyph-name="J" unicode="J" horiz-adv-x="837" 
d="M592 0h-366q-103 0 -152.5 49t-49.5 153v94h214v-52q0 -36 14 -50t50 -14h206q36 0 50 14t14 50v456h222v-498q0 -104 -49.5 -153t-152.5 -49z" />
    <glyph glyph-name="K" unicode="K" horiz-adv-x="908" 
d="M522 363l384 -363h-306l-330 333v-333h-222v700h222v-318l326 318h306z" />
    <glyph glyph-name="L" unicode="L" horiz-adv-x="750" 
d="M270 700v-509h468v-191h-690v700h222z" />
    <glyph glyph-name="M" unicode="M" horiz-adv-x="1050" 
d="M529 321l286 379h187v-700h-209v383l-210 -274h-116l-210 274v-383h-209v700h196z" />
    <glyph glyph-name="N" unicode="N" horiz-adv-x="942" 
d="M680 283v417h214v-700h-180l-452 426v-426h-214v700h189z" />
    <glyph glyph-name="O" unicode="O" horiz-adv-x="935" 
d="M694 0h-452q-103 0 -152.5 49t-49.5 153v296q0 104 49.5 153t152.5 49h452q103 0 152.5 -49t49.5 -153v-296q0 -104 -49.5 -153t-152.5 -49zM326 183h284q35 0 49.5 14t14.5 50v206q0 36 -14.5 50t-49.5 14h-284q-36 0 -50 -14t-14 -50v-206q0 -36 14 -50t50 -14z" />
    <glyph glyph-name="P" unicode="P" horiz-adv-x="878" 
d="M270 0h-222v700h624q96 0 139 -43t43 -139v-136q0 -96 -43 -139t-139 -43h-402v-200zM270 533v-174h308q31 0 42.5 11.5t11.5 42.5v66q0 31 -11.5 42.5t-42.5 11.5h-308z" />
    <glyph glyph-name="Q" unicode="Q" horiz-adv-x="935" 
d="M896 498v-296q0 -183 -164 -200l118 -142h-229l-110 140h-269q-103 0 -152.5 49t-49.5 153v296q0 104 49.5 153t152.5 49h452q103 0 152.5 -49t49.5 -153zM262 453v-206q0 -36 14 -50t50 -14h284q35 0 49.5 14t14.5 50v206q0 36 -14.5 50t-49.5 14h-284q-36 0 -50 -14
t-14 -50z" />
    <glyph glyph-name="R" unicode="R" horiz-adv-x="897" 
d="M706 242l178 -242h-253l-160 225h-201v-225h-222v700h624q96 0 139 -43t43 -139v-95q0 -87 -35 -130t-113 -51zM578 541h-308v-162h308q31 0 42.5 11.5t11.5 42.5v54q0 31 -11.5 42.5t-42.5 11.5z" />
    <glyph glyph-name="S" unicode="S" horiz-adv-x="915" 
d="M40 158v67h214v-29q0 -25 9.5 -34.5t34.5 -9.5h312q25 0 34.5 9.5t9.5 34.5v25q0 25 -9 33.5t-35 10.5l-402 25q-84 6 -121.5 42.5t-37.5 115.5v94q0 82 38.5 120t120.5 38h496q81 0 119.5 -38t38.5 -120v-57h-214v20q0 25 -9.5 34.5t-34.5 9.5h-288q-25 0 -34.5 -9.5
t-9.5 -34.5v-13q0 -24 9.5 -33t34.5 -11l402 -25q84 -5 121 -41.5t37 -116.5v-107q0 -82 -38.5 -120t-119.5 -38h-520q-81 0 -119.5 38t-38.5 120z" />
    <glyph glyph-name="T" unicode="T" horiz-adv-x="818" 
d="M12 700h794v-191h-286v-509h-222v509h-286v191z" />
    <glyph glyph-name="U" unicode="U" horiz-adv-x="912" 
d="M667 0h-422q-103 0 -152.5 49t-49.5 153v498h222v-450q0 -36 14 -50t50 -14h254q36 0 50 14t14 50v450h222v-498q0 -104 -49.5 -153t-152.5 -49z" />
    <glyph glyph-name="V" unicode="V" horiz-adv-x="934" 
d="M473 232l226 468h237l-364 -700h-210l-364 700h248z" />
    <glyph glyph-name="W" unicode="W" horiz-adv-x="1292" 
d="M903 271l157 429h234l-288 -700h-190l-170 416l-170 -416h-190l-288 700h245l158 -428l167 428h164z" />
    <glyph glyph-name="X" unicode="X" horiz-adv-x="910" 
d="M267 0h-265l306 357l-296 343h279l171 -205l170 205h266l-296 -343l306 -357h-279l-181 219z" />
    <glyph glyph-name="Y" unicode="Y" horiz-adv-x="892" 
d="M643 700h257l-343 -446v-254h-222v254l-343 446h269l191 -267z" />
    <glyph glyph-name="Z" unicode="Z" horiz-adv-x="882" 
d="M848 0h-814v149l459 368h-439v183h794v-149l-459 -368h459v-183z" />
    <glyph glyph-name="bracketleft" unicode="[" horiz-adv-x="492" 
d="M468 -100h-420v900h420v-159h-235v-582h235v-159z" />
    <glyph glyph-name="backslash" unicode="\" horiz-adv-x="536" 
d="M2 800h136l396 -900h-136z" />
    <glyph glyph-name="bracketright" unicode="]" horiz-adv-x="492" 
d="M24 800h420v-900h-420v159h235v582h-235v159z" />
    <glyph glyph-name="asciicircum" unicode="^" 
d="M515 700l303 -420h-206l-178 255l-179 -255h-209l303 420h166z" />
    <glyph glyph-name="underscore" unicode="_" horiz-adv-x="788" 
d="M0 -175v135h788v-135h-788z" />
    <glyph glyph-name="grave" unicode="`" horiz-adv-x="376" 
d="M360 572h-172l-140 128h222z" />
    <glyph glyph-name="a" unicode="a" horiz-adv-x="799" 
d="M220 536h354q96 0 139 -43t43 -139v-354h-175l-16 55q-41 -35 -73 -45q-33 -10 -103 -10h-223q-62 0 -95 32.5t-33 95.5v56q0 63 33 95.5t95 32.5h381v34q0 31 -11.5 42.5t-42.5 11.5h-186q-25 0 -34.5 -9.5t-9.5 -34.5v-13h-201v35q0 82 38.5 120t119.5 38zM285 123h172
q41 0 66 21l24 20v50h-262q-22 0 -30 -8t-8 -29v-17q0 -22 8 -29.5t30 -7.5z" />
    <glyph glyph-name="b" unicode="b" horiz-adv-x="812" 
d="M425 536h167q96 0 139 -43t43 -139v-172q0 -96 -43 -139t-139 -43h-167q-71 0 -107 11q-35 10 -80 49l-16 -60h-176v700h210v-210q35 28 70 37q34 9 99 9zM565 214v108q0 31 -11 42t-42 11h-156q-55 0 -78 -22l-22 -19v-132l22 -19q25 -22 78 -22h156q31 0 42 11t11 42z
" />
    <glyph glyph-name="c" unicode="c" horiz-adv-x="776" 
d="M38 182v172q0 96 43 139t139 43h336q96 0 139 -43t43 -139v-49h-201v17q0 31 -11.5 42t-42.5 11h-182q-31 0 -42.5 -11t-11.5 -42v-108q0 -31 11.5 -42t42.5 -11h182q31 0 42.5 11t11.5 42v22h201v-54q0 -96 -43 -139t-139 -43h-336q-96 0 -139 43t-43 139z" />
    <glyph glyph-name="d" unicode="d" horiz-adv-x="812" 
d="M557 490v210h209v-700h-175l-16 61q-44 -40 -80 -50q-38 -11 -108 -11h-167q-96 0 -139 43t-43 139v172q0 96 43 139t139 43h167q65 0 100 -9t70 -37zM301 161h156q52 0 77 22l23 19v132l-23 19q-23 22 -77 22h-156q-31 0 -42.5 -11t-11.5 -42v-108q0 -31 11.5 -42
t42.5 -11z" />
    <glyph glyph-name="e" unicode="e" horiz-adv-x="794" 
d="M220 536h354q96 0 139 -43t43 -139v-115h-509v-34q0 -31 11.5 -42.5t42.5 -11.5h210q25 0 34.5 9.5t9.5 34.5v9h201v-46q0 -82 -38.5 -120t-119.5 -38h-378q-96 0 -139 43t-43 139v172q0 96 43 139t139 43zM247 354v-13h308v13q0 31 -11.5 42t-42.5 11h-200
q-31 0 -42.5 -11t-11.5 -42z" />
    <glyph glyph-name="f" unicode="f" horiz-adv-x="612" 
d="M600 548h-199q-25 0 -34.5 -9.5t-9.5 -34.5v-34h243v-158h-243v-312h-209v312h-136v158h136v72q0 82 38.5 120t119.5 38h294v-152z" />
    <glyph glyph-name="g" unicode="g" horiz-adv-x="813" 
d="M575 475l16 61h175v-494q0 -104 -49.5 -153t-152.5 -49h-506v148h435q35 0 49.5 14t14.5 50v42q-39 -29 -73 -38q-36 -9 -97 -9h-167q-96 0 -139 43t-43 139v125q0 96 43 139t139 43h167q67 0 106 -11q36 -11 82 -50zM534 216l23 19v109l-23 19q-23 22 -77 22h-156
q-31 0 -42.5 -11.5t-11.5 -42.5v-83q0 -31 11.5 -42.5t42.5 -11.5h156q52 0 77 22z" />
    <glyph glyph-name="h" unicode="h" horiz-adv-x="807" 
d="M433 536h149q96 0 139 -43t43 -139v-354h-209v317q0 31 -11 42t-42 11h-146q-55 0 -78 -22l-22 -19v-329h-210v700h210v-216q38 32 74 43q34 9 103 9z" />
    <glyph glyph-name="i" unicode="i" horiz-adv-x="313" 
d="M263 576h-213v124h213v-124zM263 0h-213v536h213v-536z" />
    <glyph glyph-name="j" unicode="j" horiz-adv-x="353" 
d="M303 576h-212v124h212v-124zM145 -160h-206v153h108q25 0 34.5 9.5t9.5 34.5v499h212v-538q0 -82 -38.5 -120t-119.5 -38z" />
    <glyph glyph-name="k" unicode="k" horiz-adv-x="807" 
d="M497 271l318 -271h-297l-262 243v-243h-210v700h210v-410l255 246h297z" />
    <glyph glyph-name="l" unicode="l" horiz-adv-x="313" 
d="M263 0h-213v700h213v-700z" />
    <glyph glyph-name="m" unicode="m" horiz-adv-x="1268" 
d="M910 536h133q96 0 139 -43t43 -139v-354h-209v317q0 31 -11.5 42t-42.5 11h-122q-54 0 -77 -22l-23 -19v-329h-209v317q0 31 -11 42t-42 11h-122q-55 0 -78 -22l-22 -19v-329h-210v536h176l16 -60q45 39 80 49q36 11 107 11h133q118 0 158 -67q46 43 84 55q36 12 110 12z
" />
    <glyph glyph-name="n" unicode="n" horiz-adv-x="807" 
d="M425 536h157q96 0 139 -43t43 -139v-354h-209v317q0 31 -11 42t-42 11h-146q-55 0 -78 -22l-22 -19v-329h-210v536h176l16 -60q45 39 80 49q36 11 107 11z" />
    <glyph glyph-name="o" unicode="o" horiz-adv-x="804" 
d="M584 0h-364q-96 0 -139 43t-43 139v172q0 96 43 139t139 43h364q96 0 139 -43t43 -139v-172q0 -96 -43 -139t-139 -43zM301 161h202q31 0 42.5 11t11.5 42v108q0 31 -11.5 42t-42.5 11h-202q-31 0 -42.5 -11t-11.5 -42v-108q0 -31 11.5 -42t42.5 -11z" />
    <glyph glyph-name="p" unicode="p" horiz-adv-x="812" 
d="M425 536h167q96 0 139 -43t43 -139v-172q0 -96 -43 -139t-139 -43h-167q-65 0 -99 9q-35 9 -70 37v-206h-210v696h176l16 -60q45 39 80 49q36 11 107 11zM565 214v108q0 31 -11 42t-42 11h-156q-55 0 -78 -22l-22 -19v-132l22 -19q25 -22 78 -22h156q31 0 42 11t11 42z
" />
    <glyph glyph-name="q" unicode="q" horiz-adv-x="812" 
d="M575 475l16 61h175v-696h-209v206q-36 -30 -66 -37q-31 -9 -96 -9h-175q-96 0 -139 43t-43 139v172q0 96 43 139t139 43h167q70 0 108 -11q36 -10 80 -50zM534 183l23 19v132l-23 19q-23 22 -77 22h-156q-31 0 -42.5 -11t-11.5 -42v-108q0 -31 11.5 -42t42.5 -11h156
q52 0 77 22z" />
    <glyph glyph-name="r" unicode="r" horiz-adv-x="548" 
d="M417 536h119v-187h-180q-55 0 -78 -22l-22 -19v-308h-210v536h152l19 -72q48 45 87 59q36 13 113 13z" />
    <glyph glyph-name="s" unicode="s" horiz-adv-x="784" 
d="M38 128v51h201v-29q0 -16 5.5 -21.5t21.5 -5.5h244q16 0 21.5 5.5t5.5 21.5v22q0 15 -5.5 20t-21.5 7l-335 22q-127 7 -127 125v64q0 60 33.5 93t93.5 33h431q59 0 92.5 -33.5t33.5 -94.5v-44h-201v23q0 15 -5.5 20.5t-21.5 5.5h-220q-16 0 -21.5 -5.5t-5.5 -20.5v-10
q0 -15 6 -20.5t21 -6.5l336 -22q126 -10 126 -125v-76q0 -61 -33 -94t-93 -33h-455q-59 0 -93 34t-34 94z" />
    <glyph glyph-name="t" unicode="t" horiz-adv-x="632" 
d="M610 536v-158h-253v-173q0 -25 9.5 -34.5t34.5 -9.5h209v-161h-304q-81 0 -119.5 38t-38.5 120v220h-136v158h136l40 120h169v-120h253z" />
    <glyph glyph-name="u" unicode="u" horiz-adv-x="807" 
d="M551 536h210v-536h-176l-16 60q-45 -39 -79 -49q-38 -11 -108 -11h-157q-96 0 -139 43t-43 139v354h209v-317q0 -31 11 -42t42 -11h146q55 0 78 22l22 19v329z" />
    <glyph glyph-name="v" unicode="v" horiz-adv-x="798" 
d="M403 216l164 320h232l-308 -536h-184l-308 536h240z" />
    <glyph glyph-name="w" unicode="w" horiz-adv-x="1100" 
d="M765 233l116 303h217l-239 -536h-179l-129 306l-127 -306h-183l-239 536h226l118 -302l128 302h161z" />
    <glyph glyph-name="x" unicode="x" horiz-adv-x="793" 
d="M255 0h-261l255 274l-245 262h274l125 -142l126 142h260l-245 -262l255 -274h-274l-135 155z" />
    <glyph glyph-name="y" unicode="y" horiz-adv-x="798" 
d="M402 206l165 330h232l-307 -533q-55 -97 -111 -130q-57 -33 -170 -33h-155v161h165q52 0 72 23l-294 512h240z" />
    <glyph glyph-name="z" unicode="z" horiz-adv-x="768" 
d="M736 0h-704v122l369 261h-349v153h684v-122l-369 -261h369v-153z" />
    <glyph glyph-name="braceleft" unicode="{" horiz-adv-x="586" 
d="M335 574v-105q0 -91 -64 -119q64 -30 64 -120v-104q0 -36 15.5 -51.5t51.5 -15.5h160v-159h-202q-107 0 -158.5 51t-51.5 159v126q0 42 -41 42h-85v144h85q41 0 41 41v127q0 108 51.5 159t158.5 51h202v-159h-160q-36 0 -51.5 -15.5t-15.5 -51.5z" />
    <glyph glyph-name="bar" unicode="|" horiz-adv-x="282" 
d="M58 -100v900h166v-900h-166z" />
    <glyph glyph-name="braceright" unicode="}" horiz-adv-x="586" 
d="M477 422h85v-144h-85q-41 0 -41 -41v-127q0 -108 -51.5 -159t-158.5 -51h-202v159h160q36 0 51.5 15.5t15.5 51.5v105q0 90 64 120q-64 28 -64 119v104q0 36 -15.5 51.5t-51.5 15.5h-160v159h202q107 0 158.5 -51t51.5 -159v-126q0 -42 41 -42z" />
    <glyph glyph-name="asciitilde" unicode="~" 
d="M441 448l135 -115q13 -11 27 -11h15q16 0 16 16v166h174v-210q0 -53 -22.5 -75.5t-75.5 -22.5h-148q-52 0 -80 11q-26 10 -59 46l-135 114q-13 11 -27 11h-15q-16 0 -16 -16v-166h-174v210q0 53 22.5 75.5t75.5 22.5h148q54 0 81 -10q25 -10 58 -46z" />
    <glyph glyph-name="exclamdown" unicode="&#xa1;" horiz-adv-x="338" 
d="M48 700h242v-196h-242v196zM247 452l42 -452h-240l42 452h156z" />
    <glyph glyph-name="cent" unicode="&#xa2;" 
d="M818 518v-60h-206v24q0 31 -11.5 42.5t-42.5 11.5h-244q-31 0 -42.5 -11.5t-11.5 -42.5v-134q0 -31 11.5 -42.5t42.5 -11.5h244q31 0 42.5 11.5t11.5 42.5v29h206v-65q0 -96 -43 -139t-139 -43h-134v-100h-136v100h-138q-96 0 -139 43t-43 139v206q0 96 43 139t139 43
h138v100h136v-100h134q96 0 139 -43t43 -139z" />
    <glyph glyph-name="sterling" unicode="&#xa3;" horiz-adv-x="892" 
d="M846 498v-71h-206v48q0 36 -14 50t-50 14h-212q-30 0 -43 -14t-13 -50v-60h256v-113h-256v-133h288q25 0 34.5 9.5t9.5 34.5v61h206v-116q0 -82 -38.5 -120t-119.5 -38h-676v169h82v133h-92v113h92v83q0 104 49.5 153t152.5 49h348q103 0 152.5 -49t49.5 -153z" />
    <glyph glyph-name="currency" unicode="&#xa4;" 
d="M752 431v-162q0 -35 -7 -57l92 -92l-94 -94l-83 83q-36 -16 -84 -16h-288q-48 0 -84 16l-83 -83l-94 94l92 92q-7 22 -7 57v162q0 35 7 57l-92 92l94 94l83 -83q36 16 84 16h288q48 0 84 -16l83 83l94 -94l-92 -92q7 -22 7 -57zM344 249h176q34 0 48 14t14 48v78
q0 34 -14 48t-48 14h-176q-34 0 -48 -14t-14 -48v-78q0 -34 14 -48t48 -14z" />
    <glyph glyph-name="yen" unicode="&#xa5;" 
d="M602 700h246l-262 -370h232v-92h-279v-60h279v-92h-279v-86h-214v86h-279v92h279v60h-279v92h232l-262 370h257l165 -261z" />
    <glyph glyph-name="brokenbar" unicode="&#xa6;" horiz-adv-x="282" 
d="M58 466v334h166v-334h-166zM58 -100v334h166v-334h-166z" />
    <glyph glyph-name="section" unicode="&#xa7;" horiz-adv-x="1052" 
d="M413 555l459 -34q76 -6 109 -40.5t33 -109.5v-69q0 -69 -27 -105t-84 -43q1 -5 1 -22v-74q0 -82 -38.5 -120t-119.5 -38h-430q-81 0 -119.5 38t-38.5 120v60h214v-27q0 -25 9.5 -34.5t34.5 -9.5h224q24 0 33 9.5t9 33.5v13q0 23 -9 32t-33 11l-460 33q-76 6 -109 40.5
t-33 109.5v69q0 69 26.5 104.5t84.5 42.5q-1 5 -1 23v74q0 82 38.5 120t119.5 38h430q81 0 119.5 -38t38.5 -120v-60h-214v27q0 25 -9.5 34.5t-34.5 9.5h-223q-24 0 -33.5 -9.5t-9.5 -32.5v-14q0 -23 9 -31.5t34 -10.5zM295 323l459 -33l28 -3q10 7 10 29v27q0 18 -7.5 25
t-26.5 9l-460 33l-28 3q-10 -7 -10 -28v-27q0 -19 7.5 -26t27.5 -9z" />
    <glyph glyph-name="dieresis" unicode="&#xa8;" horiz-adv-x="464" 
d="M209 576h-161v116h161v-116zM444 576h-161v116h161v-116z" />
    <glyph glyph-name="copyright" unicode="&#xa9;" horiz-adv-x="926" 
d="M658 0h-390q-104 0 -166 61.5t-62 166.5v244q0 105 62 166.5t166 61.5h390q104 0 166 -61.5t62 -166.5v-244q0 -105 -62 -166.5t-166 -61.5zM282 63h362q175 0 175 175v224q0 175 -175 175h-362q-175 0 -175 -175v-224q0 -175 175 -175zM620 128h-314q-68 0 -101 32.5
t-33 101.5v176q0 69 33 101.5t101 32.5h314q68 0 101 -32.5t33 -101.5v-54h-148v27q0 22 -8 30.5t-30 8.5h-204q-22 0 -31 -8.5t-9 -30.5v-122q0 -22 9 -30.5t31 -8.5h204q22 0 30 8.5t8 30.5v32h148v-59q0 -69 -33 -101.5t-101 -32.5z" />
    <glyph glyph-name="ordfeminine" unicode="&#xaa;" horiz-adv-x="481" 
d="M132 700h214q58 0 84.5 -26t26.5 -84v-212h-110l-10 32q-23 -20 -42.5 -26t-61.5 -6h-134q-37 0 -57 20t-20 57v35q0 37 20 57t57 20h227v19q0 17 -6.5 23t-23.5 6h-110q-14 0 -19 -5.5t-5 -18.5v-8h-126v22q0 95 96 95zM174 453h102q22 0 37 12l13 11v30h-152
q-13 0 -17.5 -4.5t-4.5 -16.5v-11q0 -12 4.5 -16.5t17.5 -4.5z" />
    <glyph glyph-name="guillemotleft" unicode="&#xab;" horiz-adv-x="1028" 
d="M44 288v124l444 186v-160l-242 -86l242 -87v-163zM540 412l444 186v-160l-242 -86l242 -87v-163l-444 186v124z" />
    <glyph glyph-name="logicalnot" unicode="&#xac;" 
d="M619 263h-563v174h752v-339h-189v165z" />
    <glyph glyph-name="uni00AD" unicode="&#xad;" horiz-adv-x="516" 
d="M36 263v174h444v-174h-444z" />
    <glyph glyph-name="registered" unicode="&#xae;" horiz-adv-x="391" 
d="M143 700h105q111 0 111 -111v-92q0 -111 -111 -111h-105q-111 0 -111 111v92q0 111 111 111zM315 499v88q0 40 -16 55.5t-55 15.5h-97q-39 0 -55 -15.5t-16 -55.5v-88q0 -38 16 -54.5t55 -16.5h97q39 0 55 16.5t16 54.5zM274 580v-21q0 -36 -31 -39l38 -55h-55l-31 48
h-24v-48h-50v155h112q41 0 41 -40zM215 583h-44v-34h44q10 0 10 9v15q0 10 -10 10z" />
    <glyph glyph-name="overscore" unicode="&#xaf;" horiz-adv-x="520" 
d="M504 589h-456v95h456v-95z" />
    <glyph glyph-name="degree" unicode="&#xb0;" horiz-adv-x="436" 
d="M277 340h-118q-58 0 -91.5 33.5t-33.5 91.5v110q0 59 33 92t92 33h118q59 0 92 -33t33 -92v-110q0 -58 -33.5 -91.5t-91.5 -33.5zM189 446h58q22 0 31 9.5t9 31.5v66q0 23 -9 32t-31 9h-58q-22 0 -31 -9t-9 -32v-66q0 -22 9 -31.5t31 -9.5z" />
    <glyph glyph-name="plusminus" unicode="&#xb1;" 
d="M525 692v-161h283v-158h-283v-161h-186v161h-283v158h283v161h186zM808 8h-752v158h752v-158z" />
    <glyph glyph-name="uni00B2" unicode="&#xb2;" horiz-adv-x="540" 
d="M498 391v-111h-463v141q0 49 23 72.5t74 28.5l209 18q22 1 22 23v15q0 13 -4.5 17.5t-17.5 4.5h-139q-13 0 -18 -4.5t-5 -17.5v-19h-136v44q0 51 23.5 74t74.5 23h266q51 0 74.5 -23t23.5 -74v-53q0 -50 -22.5 -73.5t-74.5 -28.5l-209 -18q-13 -2 -17.5 -6.5t-4.5 -16.5
v-16h321z" />
    <glyph glyph-name="uni00B3" unicode="&#xb3;" horiz-adv-x="537" 
d="M452 494q53 -14 53 -82v-35q0 -51 -23.5 -74t-73.5 -23h-278q-51 0 -74.5 23t-23.5 74v59h137v-28q0 -13 4.5 -18t17.5 -5h150q13 0 17.5 4.5t4.5 18.5v19q0 13 -4.5 17.5t-17.5 4.5h-129v88h123q13 0 17.5 5t4.5 18v12q0 14 -4.5 18.5t-17.5 4.5h-138q-13 0 -17.5 -5
t-4.5 -18v-23h-137v54q0 51 23.5 74t74.5 23h266q50 0 73.5 -23t23.5 -74v-28q0 -64 -47 -81z" />
    <glyph glyph-name="acute" unicode="&#xb4;" horiz-adv-x="376" 
d="M360 700l-140 -128h-172l90 128h222z" />
    <glyph glyph-name="paragraph" unicode="&#xb6;" horiz-adv-x="908" 
d="M30 406v112q0 96 43 139t139 43h608v-700h-190v533h-110v-533h-190v224h-118q-96 0 -139 43t-43 139z" />
    <glyph glyph-name="middot" unicode="&#xb7;" horiz-adv-x="338" 
d="M290 237h-242v226h242v-226z" />
    <glyph glyph-name="cedilla" unicode="&#xb8;" horiz-adv-x="320" 
d="M253 -160h-209v60h157q9 0 9 9v7q0 9 -9 9h-112v28l22 67h73l-14 -42h83q29 0 42 -13t13 -42v-28q0 -29 -13 -42t-42 -13z" />
    <glyph glyph-name="uni00B9" unicode="&#xb9;" horiz-adv-x="502" 
d="M331 700v-310h148v-110h-456v110h165v188l-147 -12v116l221 18h69z" />
    <glyph glyph-name="ordmasculine" unicode="&#xba;" horiz-adv-x="482" 
d="M350 378h-218q-58 0 -84.5 26.5t-26.5 84.5v101q0 58 26.5 84t84.5 26h218q59 0 85 -26t26 -84v-101q0 -59 -26.5 -85t-84.5 -26zM181 480h119q18 0 24.5 6t6.5 23v60q0 17 -6.5 23.5t-24.5 6.5h-119q-17 0 -23 -6.5t-6 -23.5v-60q0 -17 6 -23t23 -6z" />
    <glyph glyph-name="guillemotright" unicode="&#xbb;" horiz-adv-x="1028" 
d="M286 349l-242 86v163l444 -186v-124l-444 -186v160zM540 435v163l444 -186v-124l-444 -186v160l242 87z" />
    <glyph glyph-name="onequarter" unicode="&#xbc;" horiz-adv-x="1194" 
d="M331 390h148v-110h-456v110h165v188l-147 -12v116l221 18h69v-310zM297 0l594 700h120l-594 -700h-120zM1080 177h91v-104h-91v-73h-137v73h-282v87l260 260h159v-243zM943 306l-130 -129h130v129z" />
    <glyph glyph-name="onehalf" unicode="&#xbd;" horiz-adv-x="1301" 
d="M331 390h148v-110h-456v110h165v188l-147 -12v116l221 18h69v-310zM297 0l594 700h120l-594 -700h-120zM1170 167l-209 -18q-13 -1 -18 -5.5t-5 -17.5v-15h322v-111h-464v141q0 48 23.5 72t74.5 29l208 18q14 1 18.5 6t4.5 17v15q0 13 -5 17.5t-18 4.5h-138
q-13 0 -18 -4.5t-5 -17.5v-19h-137v44q0 50 24 73.5t74 23.5h267q51 0 74.5 -23t23.5 -74v-54q0 -50 -22.5 -73.5t-74.5 -28.5z" />
    <glyph glyph-name="threequarters" unicode="&#xbe;" horiz-adv-x="1211" 
d="M507 412v-35q0 -51 -23.5 -74t-73.5 -23h-279q-50 0 -73.5 23t-23.5 74v59h136v-28q0 -13 4.5 -18t17.5 -5h151q13 0 17.5 4.5t4.5 18.5v19q0 13 -4.5 17.5t-17.5 4.5h-129v88h123q13 0 17.5 5t4.5 18v12q0 14 -4.5 18.5t-17.5 4.5h-139q-13 0 -17.5 -5t-4.5 -18v-23
h-136v54q0 51 23.5 74t73.5 23h267q50 0 73.5 -23t23.5 -74v-28q0 -64 -47 -81q53 -14 53 -82zM311 0l593 700h120l-594 -700h-119zM1096 177h91v-104h-91v-73h-137v73h-281v87l259 260h159v-243zM959 305l-130 -128h130v128z" />
    <glyph glyph-name="questiondown" unicode="&#xbf;" horiz-adv-x="808" 
d="M309 700h242v-172h-242v172zM330 476h200v-65q0 -65 -25.5 -94.5t-95.5 -42.5l-128 -20q-21 -4 -30 -13.5t-9 -28.5v-13q0 -23 9 -32t32 -9h250q23 0 32 9t9 32v41h206v-82q0 -82 -38.5 -120t-119.5 -38h-436q-81 0 -119.5 38t-38.5 120v63q0 71 33.5 110t111.5 54
l123 19q19 4 26.5 13t7.5 28v31z" />
    <glyph glyph-name="Agrave" unicode="&#xc0;" horiz-adv-x="960" 
d="M476 864l90 -128h-172l-140 128h222zM964 0h-252l-52 113h-369l-52 -113h-241l358 700h251zM475 516l-114 -250h229z" />
    <glyph glyph-name="Aacute" unicode="&#xc1;" horiz-adv-x="960" 
d="M486 864h222l-140 -128h-172zM964 0h-252l-52 113h-369l-52 -113h-241l358 700h251zM475 516l-114 -250h229z" />
    <glyph glyph-name="Acircumflex" unicode="&#xc2;" horiz-adv-x="960" 
d="M566 736l-85 52l-85 -52h-150l132 128h206l132 -128h-150zM964 0h-252l-52 113h-369l-52 -113h-241l358 700h251zM475 516l-114 -250h229z" />
    <glyph glyph-name="Atilde" unicode="&#xc3;" horiz-adv-x="960" 
d="M379 789v-53h-116v79q0 49 49 49h151q23 0 35 -5t25 -21l26 -29q6 -6 13 -6h12q9 0 9 8v53h116v-79q0 -49 -49 -49h-151q-23 0 -35 5t-25 21l-26 30q-7 5 -13 5h-12q-9 0 -9 -8zM964 0h-252l-52 113h-369l-52 -113h-241l358 700h251zM475 516l-114 -250h229z" />
    <glyph glyph-name="Adieresis" unicode="&#xc4;" horiz-adv-x="960" 
d="M283 856h161v-116h-161v116zM518 856h161v-116h-161v116zM964 0h-252l-52 113h-369l-52 -113h-241l358 700h251zM475 516l-114 -250h229z" />
    <glyph glyph-name="Aring" unicode="&#xc5;" horiz-adv-x="960" 
d="M589 726h-216q-29 0 -42 13t-13 42v28q0 29 13 42t42 13h216q29 0 42 -13t13 -42v-28q0 -29 -13 -42t-42 -13zM392 801v-12q0 -11 3.5 -14.5t13.5 -3.5h144q10 0 13.5 3.5t3.5 14.5v12q0 11 -3.5 14.5t-13.5 3.5h-144q-10 0 -13.5 -3.5t-3.5 -14.5zM964 0h-252l-52 113
h-369l-52 -113h-241l358 700h251zM475 516l-114 -250h229z" />
    <glyph glyph-name="AE" unicode="&#xc6;" horiz-adv-x="1284" 
d="M816 284l53 -113h391v-171h-562l-46 108h-364l-49 -108h-241l358 700h894v-171h-550l47 -99h463v-146h-394zM476 517l-117 -255h226z" />
    <glyph glyph-name="Ccedilla" unicode="&#xc7;" horiz-adv-x="905" 
d="M868 498v-89h-214v47q0 36 -14.5 50t-49.5 14h-264q-36 0 -50 -14t-14 -50v-212q0 -36 14 -50t50 -14h264q35 0 49.5 14t14.5 50v54h214v-96q0 -104 -49.5 -153t-152.5 -49h-194l-7 -22h83q29 0 42 -13t13 -42v-28q0 -29 -13 -42t-42 -13h-209v60h157q9 0 9 9v7q0 9 -9 9
h-112v28l15 47h-157q-103 0 -152.5 49t-49.5 153v296q0 104 49.5 153t152.5 49h424q103 0 152.5 -49t49.5 -153z" />
    <glyph glyph-name="Egrave" unicode="&#xc8;" horiz-adv-x="812" 
d="M401 864l90 -128h-172l-140 128h222zM270 284v-113h518v-171h-740v700h730v-171h-508v-99h468v-146h-468z" />
    <glyph glyph-name="Eacute" unicode="&#xc9;" horiz-adv-x="812" 
d="M411 864h222l-140 -128h-172zM270 284v-113h518v-171h-740v700h730v-171h-508v-99h468v-146h-468z" />
    <glyph glyph-name="Ecircumflex" unicode="&#xca;" horiz-adv-x="812" 
d="M491 736l-85 52l-85 -52h-150l132 128h206l132 -128h-150zM270 284v-113h518v-171h-740v700h730v-171h-508v-99h468v-146h-468z" />
    <glyph glyph-name="Edieresis" unicode="&#xcb;" horiz-adv-x="812" 
d="M208 856h161v-116h-161v116zM443 856h161v-116h-161v116zM270 284v-113h518v-171h-740v700h730v-171h-508v-99h468v-146h-468z" />
    <glyph glyph-name="Igrave" unicode="&#xcc;" horiz-adv-x="330" 
d="M250 736h-172l-140 128h222zM52 0v700h226v-700h-226z" />
    <glyph glyph-name="Iacute" unicode="&#xcd;" horiz-adv-x="330" 
d="M392 864l-140 -128h-172l90 128h222zM52 0v700h226v-700h-226z" />
    <glyph glyph-name="Icircumflex" unicode="&#xce;" horiz-adv-x="330" 
d="M80 736h-150l132 128h206l132 -128h-150l-85 52zM52 0v700h226v-700h-226z" />
    <glyph glyph-name="Idieresis" unicode="&#xcf;" horiz-adv-x="330" 
d="M128 740h-161v116h161v-116zM363 740h-161v116h161v-116zM52 0v700h226v-700h-226z" />
    <glyph glyph-name="Eth" unicode="&#xd0;" horiz-adv-x="994" 
d="M108 700h596q122 0 186 -63.5t64 -186.5v-200q0 -123 -64 -186.5t-186 -63.5h-596v289h-84v122h84v289zM732 263v174q0 80 -80 80h-322v-106h232v-122h-232v-106h322q80 0 80 80z" />
    <glyph glyph-name="Ntilde" unicode="&#xd1;" horiz-adv-x="942" 
d="M364 789v-53h-116v79q0 49 49 49h151q23 0 35 -5t25 -21l26 -29q6 -6 13 -6h12q9 0 9 8v53h116v-79q0 -49 -49 -49h-151q-23 0 -35 5t-25 21l-26 30q-7 5 -13 5h-12q-9 0 -9 -8zM680 283v417h214v-700h-180l-452 426v-426h-214v700h189z" />
    <glyph glyph-name="Ograve" unicode="&#xd2;" horiz-adv-x="935" 
d="M553 736h-172l-140 128h222zM694 0h-452q-103 0 -152.5 49t-49.5 153v296q0 104 49.5 153t152.5 49h452q103 0 152.5 -49t49.5 -153v-296q0 -104 -49.5 -153t-152.5 -49zM326 183h284q35 0 49.5 14t14.5 50v206q0 36 -14.5 50t-49.5 14h-284q-36 0 -50 -14t-14 -50v-206
q0 -36 14 -50t50 -14z" />
    <glyph glyph-name="Oacute" unicode="&#xd3;" horiz-adv-x="935" 
d="M695 864l-140 -128h-172l90 128h222zM694 0h-452q-103 0 -152.5 49t-49.5 153v296q0 104 49.5 153t152.5 49h452q103 0 152.5 -49t49.5 -153v-296q0 -104 -49.5 -153t-152.5 -49zM326 183h284q35 0 49.5 14t14.5 50v206q0 36 -14.5 50t-49.5 14h-284q-36 0 -50 -14
t-14 -50v-206q0 -36 14 -50t50 -14z" />
    <glyph glyph-name="Ocircumflex" unicode="&#xd4;" horiz-adv-x="935" 
d="M383 736h-150l132 128h206l132 -128h-150l-85 52zM694 0h-452q-103 0 -152.5 49t-49.5 153v296q0 104 49.5 153t152.5 49h452q103 0 152.5 -49t49.5 -153v-296q0 -104 -49.5 -153t-152.5 -49zM326 183h284q35 0 49.5 14t14.5 50v206q0 36 -14.5 50t-49.5 14h-284
q-36 0 -50 -14t-14 -50v-206q0 -36 14 -50t50 -14z" />
    <glyph glyph-name="Otilde" unicode="&#xd5;" horiz-adv-x="935" 
d="M366 736h-116v79q0 49 49 49h151q23 0 35 -5t25 -21l26 -29q6 -6 13 -6h12q9 0 9 8v53h116v-79q0 -49 -49 -49h-151q-23 0 -35 5t-25 21l-26 30q-7 5 -13 5h-12q-9 0 -9 -8v-53zM694 0h-452q-103 0 -152.5 49t-49.5 153v296q0 104 49.5 153t152.5 49h452q103 0 152.5 -49
t49.5 -153v-296q0 -104 -49.5 -153t-152.5 -49zM326 183h284q35 0 49.5 14t14.5 50v206q0 36 -14.5 50t-49.5 14h-284q-36 0 -50 -14t-14 -50v-206q0 -36 14 -50t50 -14z" />
    <glyph glyph-name="Odieresis" unicode="&#xd6;" horiz-adv-x="935" 
d="M431 740h-161v116h161v-116zM666 740h-161v116h161v-116zM694 0h-452q-103 0 -152.5 49t-49.5 153v296q0 104 49.5 153t152.5 49h452q103 0 152.5 -49t49.5 -153v-296q0 -104 -49.5 -153t-152.5 -49zM326 183h284q35 0 49.5 14t14.5 50v206q0 36 -14.5 50t-49.5 14h-284
q-36 0 -50 -14t-14 -50v-206q0 -36 14 -50t50 -14z" />
    <glyph glyph-name="multiply" unicode="&#xd7;" 
d="M689 670l113 -129l-234 -191l234 -191l-113 -129l-257 209l-257 -209l-113 129l234 191l-234 191l113 129l257 -209z" />
    <glyph glyph-name="Oslash" unicode="&#xd8;" horiz-adv-x="935" 
d="M926 730l-80 -78q50 -50 50 -154v-296q0 -104 -49.5 -153t-152.5 -49h-452q-28 0 -63 5l-37 -35h-132l80 78q-50 50 -50 154v296q0 104 49.5 153t152.5 49h452q28 0 63 -5l37 35h132zM252 461v-222q0 -19 3 -31l328 317h-267q-36 0 -50 -14t-14 -50zM684 239v222
q0 22 -4 31l-327 -317h267q35 0 49.5 14t14.5 50z" />
    <glyph glyph-name="Ugrave" unicode="&#xd9;" horiz-adv-x="912" 
d="M541 736h-172l-140 128h222zM667 0h-422q-103 0 -152.5 49t-49.5 153v498h222v-450q0 -36 14 -50t50 -14h254q36 0 50 14t14 50v450h222v-498q0 -104 -49.5 -153t-152.5 -49z" />
    <glyph glyph-name="Uacute" unicode="&#xda;" horiz-adv-x="912" 
d="M683 864l-140 -128h-172l90 128h222zM667 0h-422q-103 0 -152.5 49t-49.5 153v498h222v-450q0 -36 14 -50t50 -14h254q36 0 50 14t14 50v450h222v-498q0 -104 -49.5 -153t-152.5 -49z" />
    <glyph glyph-name="Ucircumflex" unicode="&#xdb;" horiz-adv-x="912" 
d="M371 736h-150l132 128h206l132 -128h-150l-85 52zM667 0h-422q-103 0 -152.5 49t-49.5 153v498h222v-450q0 -36 14 -50t50 -14h254q36 0 50 14t14 50v450h222v-498q0 -104 -49.5 -153t-152.5 -49z" />
    <glyph glyph-name="Udieresis" unicode="&#xdc;" horiz-adv-x="912" 
d="M419 740h-161v116h161v-116zM654 740h-161v116h161v-116zM667 0h-422q-103 0 -152.5 49t-49.5 153v498h222v-450q0 -36 14 -50t50 -14h254q36 0 50 14t14 50v450h222v-498q0 -104 -49.5 -153t-152.5 -49z" />
    <glyph glyph-name="Yacute" unicode="&#xdd;" horiz-adv-x="892" 
d="M451 864h222l-140 -128h-172zM643 700h257l-343 -446v-254h-222v254l-343 446h269l191 -267z" />
    <glyph glyph-name="Thorn" unicode="&#xde;" horiz-adv-x="878" 
d="M270 610h402q96 0 139 -43t43 -139v-136q0 -96 -43 -139t-139 -43h-402v-110h-222v700h222v-90zM632 323v66q0 31 -11.5 42.5t-42.5 11.5h-308v-174h308q31 0 42.5 11.5t11.5 42.5z" />
    <glyph glyph-name="germandbls" unicode="&#xdf;" horiz-adv-x="815" 
d="M690 361q89 -23 89 -137v-66q0 -82 -38.5 -120t-119.5 -38h-239v152h143q25 0 34.5 9.5t9.5 34.5v53q0 25 -9.5 34.5t-34.5 9.5h-143v129h123q25 0 34.5 9.5t9.5 34.5v38q0 26 -9.5 35t-34.5 9h-205q-25 0 -34.5 -9.5t-9.5 -34.5v-504h-209v542q0 82 38 120t120 38h396
q81 0 119.5 -38t38.5 -120v-51q0 -104 -69 -130z" />
    <glyph glyph-name="agrave" unicode="&#xe0;" horiz-adv-x="799" 
d="M401 700l90 -128h-172l-140 128h222zM220 536h354q96 0 139 -43t43 -139v-354h-175l-16 55q-41 -35 -73 -45q-33 -10 -103 -10h-223q-62 0 -95 32.5t-33 95.5v56q0 63 33 95.5t95 32.5h381v34q0 31 -11.5 42.5t-42.5 11.5h-186q-25 0 -34.5 -9.5t-9.5 -34.5v-13h-201v35
q0 82 38.5 120t119.5 38zM285 123h172q41 0 66 21l24 20v50h-262q-22 0 -30 -8t-8 -29v-17q0 -22 8 -29.5t30 -7.5z" />
    <glyph glyph-name="aacute" unicode="&#xe1;" horiz-adv-x="799" 
d="M411 700h222l-140 -128h-172zM220 536h354q96 0 139 -43t43 -139v-354h-175l-16 55q-41 -35 -73 -45q-33 -10 -103 -10h-223q-62 0 -95 32.5t-33 95.5v56q0 63 33 95.5t95 32.5h381v34q0 31 -11.5 42.5t-42.5 11.5h-186q-25 0 -34.5 -9.5t-9.5 -34.5v-13h-201v35
q0 82 38.5 120t119.5 38zM285 123h172q41 0 66 21l24 20v50h-262q-22 0 -30 -8t-8 -29v-17q0 -22 8 -29.5t30 -7.5z" />
    <glyph glyph-name="acircumflex" unicode="&#xe2;" horiz-adv-x="799" 
d="M491 572l-85 52l-85 -52h-150l132 128h206l132 -128h-150zM220 536h354q96 0 139 -43t43 -139v-354h-175l-16 55q-41 -35 -73 -45q-33 -10 -103 -10h-223q-62 0 -95 32.5t-33 95.5v56q0 63 33 95.5t95 32.5h381v34q0 31 -11.5 42.5t-42.5 11.5h-186q-25 0 -34.5 -9.5
t-9.5 -34.5v-13h-201v35q0 82 38.5 120t119.5 38zM285 123h172q41 0 66 21l24 20v50h-262q-22 0 -30 -8t-8 -29v-17q0 -22 8 -29.5t30 -7.5z" />
    <glyph glyph-name="atilde" unicode="&#xe3;" horiz-adv-x="799" 
d="M304 625v-53h-116v79q0 49 49 49h151q23 0 35 -5t25 -21l26 -29q6 -6 13 -6h12q9 0 9 8v53h116v-79q0 -49 -49 -49h-151q-23 0 -35 5t-25 21l-26 30q-7 5 -13 5h-12q-9 0 -9 -8zM220 536h354q96 0 139 -43t43 -139v-354h-175l-16 55q-41 -35 -73 -45q-33 -10 -103 -10
h-223q-62 0 -95 32.5t-33 95.5v56q0 63 33 95.5t95 32.5h381v34q0 31 -11.5 42.5t-42.5 11.5h-186q-25 0 -34.5 -9.5t-9.5 -34.5v-13h-201v35q0 82 38.5 120t119.5 38zM285 123h172q41 0 66 21l24 20v50h-262q-22 0 -30 -8t-8 -29v-17q0 -22 8 -29.5t30 -7.5z" />
    <glyph glyph-name="adieresis" unicode="&#xe4;" horiz-adv-x="799" 
d="M208 692h161v-116h-161v116zM443 692h161v-116h-161v116zM220 536h354q96 0 139 -43t43 -139v-354h-175l-16 55q-41 -35 -73 -45q-33 -10 -103 -10h-223q-62 0 -95 32.5t-33 95.5v56q0 63 33 95.5t95 32.5h381v34q0 31 -11.5 42.5t-42.5 11.5h-186q-25 0 -34.5 -9.5
t-9.5 -34.5v-13h-201v35q0 82 38.5 120t119.5 38zM285 123h172q41 0 66 21l24 20v50h-262q-22 0 -30 -8t-8 -29v-17q0 -22 8 -29.5t30 -7.5z" />
    <glyph glyph-name="aring" unicode="&#xe5;" horiz-adv-x="799" 
d="M514 562h-216q-29 0 -42 13t-13 42v28q0 29 13 42t42 13h216q29 0 42 -13t13 -42v-28q0 -29 -13 -42t-42 -13zM317 637v-12q0 -11 3.5 -14.5t13.5 -3.5h144q10 0 13.5 3.5t3.5 14.5v12q0 11 -3.5 14.5t-13.5 3.5h-144q-10 0 -13.5 -3.5t-3.5 -14.5zM220 536h354
q96 0 139 -43t43 -139v-354h-175l-16 55q-41 -35 -73 -45q-33 -10 -103 -10h-223q-62 0 -95 32.5t-33 95.5v56q0 63 33 95.5t95 32.5h381v34q0 31 -11.5 42.5t-42.5 11.5h-186q-25 0 -34.5 -9.5t-9.5 -34.5v-13h-201v35q0 82 38.5 120t119.5 38zM285 123h172q41 0 66 21
l24 20v50h-262q-22 0 -30 -8t-8 -29v-17q0 -22 8 -29.5t30 -7.5z" />
    <glyph glyph-name="ae" unicode="&#xe6;" horiz-adv-x="1303" 
d="M770 536h313q96 0 139 -43t43 -139v-115h-509v-34q0 -31 11.5 -42.5t42.5 -11.5h210q25 0 34.5 9.5t9.5 34.5v9h201v-46q0 -82 -38.5 -120t-119.5 -38h-350q-101 0 -142 47q-37 -31 -68 -38q-33 -9 -99 -9h-282q-62 0 -95 32.5t-33 95.5v56q0 63 33 95.5t95 32.5h381v34
q0 31 -11.5 42.5t-42.5 11.5h-186q-25 0 -34.5 -9.5t-9.5 -34.5v-13h-201v35q0 82 38.5 120t119.5 38h313q81 0 119 -41q35 41 118 41zM756 354v-13h308v13q0 31 -11.5 42t-42.5 11h-200q-31 0 -42.5 -11t-11.5 -42zM522 144l25 20v50h-262q-22 0 -30 -8t-8 -29v-17
q0 -22 8 -29.5t30 -7.5h172q39 0 65 21z" />
    <glyph glyph-name="ccedilla" unicode="&#xe7;" horiz-adv-x="776" 
d="M738 354v-49h-201v17q0 31 -11.5 42t-42.5 11h-182q-31 0 -42.5 -11t-11.5 -42v-108q0 -31 11.5 -42t42.5 -11h182q31 0 42.5 11t11.5 42v22h201v-54q0 -96 -43 -139t-139 -43h-148l-7 -22h83q29 0 42 -13t13 -42v-28q0 -29 -13 -42t-42 -13h-209v60h157q9 0 9 9v7
q0 9 -9 9h-112v28l15 47h-115q-96 0 -139 43t-43 139v172q0 96 43 139t139 43h336q96 0 139 -43t43 -139z" />
    <glyph glyph-name="egrave" unicode="&#xe8;" horiz-adv-x="794" 
d="M392 700l90 -128h-172l-140 128h222zM220 536h354q96 0 139 -43t43 -139v-115h-509v-34q0 -31 11.5 -42.5t42.5 -11.5h210q25 0 34.5 9.5t9.5 34.5v9h201v-46q0 -82 -38.5 -120t-119.5 -38h-378q-96 0 -139 43t-43 139v172q0 96 43 139t139 43zM247 354v-13h308v13
q0 31 -11.5 42t-42.5 11h-200q-31 0 -42.5 -11t-11.5 -42z" />
    <glyph glyph-name="eacute" unicode="&#xe9;" horiz-adv-x="794" 
d="M402 700h222l-140 -128h-172zM220 536h354q96 0 139 -43t43 -139v-115h-509v-34q0 -31 11.5 -42.5t42.5 -11.5h210q25 0 34.5 9.5t9.5 34.5v9h201v-46q0 -82 -38.5 -120t-119.5 -38h-378q-96 0 -139 43t-43 139v172q0 96 43 139t139 43zM247 354v-13h308v13
q0 31 -11.5 42t-42.5 11h-200q-31 0 -42.5 -11t-11.5 -42z" />
    <glyph glyph-name="ecircumflex" unicode="&#xea;" horiz-adv-x="794" 
d="M482 572l-85 52l-85 -52h-150l132 128h206l132 -128h-150zM220 536h354q96 0 139 -43t43 -139v-115h-509v-34q0 -31 11.5 -42.5t42.5 -11.5h210q25 0 34.5 9.5t9.5 34.5v9h201v-46q0 -82 -38.5 -120t-119.5 -38h-378q-96 0 -139 43t-43 139v172q0 96 43 139t139 43z
M247 354v-13h308v13q0 31 -11.5 42t-42.5 11h-200q-31 0 -42.5 -11t-11.5 -42z" />
    <glyph glyph-name="edieresis" unicode="&#xeb;" horiz-adv-x="794" 
d="M199 692h161v-116h-161v116zM434 692h161v-116h-161v116zM220 536h354q96 0 139 -43t43 -139v-115h-509v-34q0 -31 11.5 -42.5t42.5 -11.5h210q25 0 34.5 9.5t9.5 34.5v9h201v-46q0 -82 -38.5 -120t-119.5 -38h-378q-96 0 -139 43t-43 139v172q0 96 43 139t139 43z
M247 354v-13h308v13q0 31 -11.5 42t-42.5 11h-200q-31 0 -42.5 -11t-11.5 -42z" />
    <glyph glyph-name="igrave" unicode="&#xec;" horiz-adv-x="313" 
d="M242 572h-172l-140 128h222zM263 0h-213v536h213v-536z" />
    <glyph glyph-name="iacute" unicode="&#xed;" horiz-adv-x="313" 
d="M384 700l-140 -128h-172l90 128h222zM263 0h-213v536h213v-536z" />
    <glyph glyph-name="icircumflex" unicode="&#xee;" horiz-adv-x="313" 
d="M72 572h-150l132 128h206l132 -128h-150l-85 52zM263 0h-213v536h213v-536z" />
    <glyph glyph-name="idieresis" unicode="&#xef;" horiz-adv-x="313" 
d="M120 576h-161v116h161v-116zM355 576h-161v116h161v-116zM263 0h-213v536h213v-536z" />
    <glyph glyph-name="eth" unicode="&#xf0;" horiz-adv-x="804" 
d="M479 700h85q103 0 152.5 -49t49.5 -153v-340q0 -82 -38.5 -120t-119.5 -38h-412q-81 0 -119.5 38t-38.5 120v128q0 82 38.5 120t119.5 38h256q76 0 105 -35v77q0 36 -14 50t-50 14h-116l-36 -54h-111l36 54h-148v150h250l40 60h111zM557 192v67q0 25 -9.5 34.5t-34.5 9.5
h-222q-25 0 -34.5 -9.5t-9.5 -34.5v-67q0 -25 9.5 -34.5t34.5 -9.5h222q25 0 34.5 9.5t9.5 34.5z" />
    <glyph glyph-name="ntilde" unicode="&#xf1;" horiz-adv-x="807" 
d="M301 625v-53h-116v79q0 49 49 49h151q23 0 35 -5t25 -21l26 -29q6 -6 13 -6h12q9 0 9 8v53h116v-79q0 -49 -49 -49h-151q-23 0 -35 5t-25 21l-26 30q-7 5 -13 5h-12q-9 0 -9 -8zM425 536h157q96 0 139 -43t43 -139v-354h-209v317q0 31 -11 42t-42 11h-146q-55 0 -78 -22
l-22 -19v-329h-210v536h176l16 -60q45 39 80 49q36 11 107 11z" />
    <glyph glyph-name="ograve" unicode="&#xf2;" horiz-adv-x="804" 
d="M487 572h-172l-140 128h222zM584 0h-364q-96 0 -139 43t-43 139v172q0 96 43 139t139 43h364q96 0 139 -43t43 -139v-172q0 -96 -43 -139t-139 -43zM301 161h202q31 0 42.5 11t11.5 42v108q0 31 -11.5 42t-42.5 11h-202q-31 0 -42.5 -11t-11.5 -42v-108q0 -31 11.5 -42
t42.5 -11z" />
    <glyph glyph-name="oacute" unicode="&#xf3;" horiz-adv-x="804" 
d="M629 700l-140 -128h-172l90 128h222zM584 0h-364q-96 0 -139 43t-43 139v172q0 96 43 139t139 43h364q96 0 139 -43t43 -139v-172q0 -96 -43 -139t-139 -43zM301 161h202q31 0 42.5 11t11.5 42v108q0 31 -11.5 42t-42.5 11h-202q-31 0 -42.5 -11t-11.5 -42v-108
q0 -31 11.5 -42t42.5 -11z" />
    <glyph glyph-name="ocircumflex" unicode="&#xf4;" horiz-adv-x="804" 
d="M317 572h-150l132 128h206l132 -128h-150l-85 52zM584 0h-364q-96 0 -139 43t-43 139v172q0 96 43 139t139 43h364q96 0 139 -43t43 -139v-172q0 -96 -43 -139t-139 -43zM301 161h202q31 0 42.5 11t11.5 42v108q0 31 -11.5 42t-42.5 11h-202q-31 0 -42.5 -11t-11.5 -42
v-108q0 -31 11.5 -42t42.5 -11z" />
    <glyph glyph-name="otilde" unicode="&#xf5;" horiz-adv-x="804" 
d="M300 572h-116v79q0 49 49 49h151q23 0 35 -5t25 -21l26 -29q6 -6 13 -6h12q9 0 9 8v53h116v-79q0 -49 -49 -49h-151q-23 0 -35 5t-25 21l-26 30q-7 5 -13 5h-12q-9 0 -9 -8v-53zM584 0h-364q-96 0 -139 43t-43 139v172q0 96 43 139t139 43h364q96 0 139 -43t43 -139v-172
q0 -96 -43 -139t-139 -43zM301 161h202q31 0 42.5 11t11.5 42v108q0 31 -11.5 42t-42.5 11h-202q-31 0 -42.5 -11t-11.5 -42v-108q0 -31 11.5 -42t42.5 -11z" />
    <glyph glyph-name="odieresis" unicode="&#xf6;" horiz-adv-x="804" 
d="M365 576h-161v116h161v-116zM600 576h-161v116h161v-116zM584 0h-364q-96 0 -139 43t-43 139v172q0 96 43 139t139 43h364q96 0 139 -43t43 -139v-172q0 -96 -43 -139t-139 -43zM301 161h202q31 0 42.5 11t11.5 42v108q0 31 -11.5 42t-42.5 11h-202q-31 0 -42.5 -11
t-11.5 -42v-108q0 -31 11.5 -42t42.5 -11z" />
    <glyph glyph-name="divide" unicode="&#xf7;" 
d="M553 520h-242v164h242v-164zM56 263v174h752v-174h-752zM553 16h-242v164h242v-164z" />
    <glyph glyph-name="oslash" unicode="&#xf8;" horiz-adv-x="804" 
d="M796 568l-78 -70q48 -44 48 -144v-172q0 -96 -43 -139t-139 -43h-364q-26 0 -49 3l-39 -35h-124l78 70q-48 44 -48 144v172q0 96 43 139t139 43h364q26 0 49 -3l39 35h124zM229 335v-134q0 -21 4 -30l240 217h-190q-31 0 -42.5 -11t-11.5 -42zM575 201v134q0 21 -4 30
l-240 -217h190q31 0 42.5 11t11.5 42z" />
    <glyph glyph-name="ugrave" unicode="&#xf9;" horiz-adv-x="807" 
d="M398 700l90 -128h-172l-140 128h222zM551 536h210v-536h-176l-16 60q-45 -39 -79 -49q-38 -11 -108 -11h-157q-96 0 -139 43t-43 139v354h209v-317q0 -31 11 -42t42 -11h146q55 0 78 22l22 19v329z" />
    <glyph glyph-name="uacute" unicode="&#xfa;" horiz-adv-x="807" 
d="M408 700h222l-140 -128h-172zM551 536h210v-536h-176l-16 60q-45 -39 -79 -49q-38 -11 -108 -11h-157q-96 0 -139 43t-43 139v354h209v-317q0 -31 11 -42t42 -11h146q55 0 78 22l22 19v329z" />
    <glyph glyph-name="ucircumflex" unicode="&#xfb;" horiz-adv-x="807" 
d="M488 572l-85 52l-85 -52h-150l132 128h206l132 -128h-150zM551 536h210v-536h-176l-16 60q-45 -39 -79 -49q-38 -11 -108 -11h-157q-96 0 -139 43t-43 139v354h209v-317q0 -31 11 -42t42 -11h146q55 0 78 22l22 19v329z" />
    <glyph glyph-name="udieresis" unicode="&#xfc;" horiz-adv-x="807" 
d="M205 692h161v-116h-161v116zM440 692h161v-116h-161v116zM551 536h210v-536h-176l-16 60q-45 -39 -79 -49q-38 -11 -108 -11h-157q-96 0 -139 43t-43 139v354h209v-317q0 -31 11 -42t42 -11h146q55 0 78 22l22 19v329z" />
    <glyph glyph-name="yacute" unicode="&#xfd;" horiz-adv-x="798" 
d="M404 700h222l-140 -128h-172zM402 206l165 330h232l-307 -533q-55 -97 -111 -130q-57 -33 -170 -33h-155v161h165q52 0 72 23l-294 512h240z" />
    <glyph glyph-name="thorn" unicode="&#xfe;" horiz-adv-x="812" 
d="M425 536h167q96 0 139 -43t43 -139v-172q0 -96 -43 -139t-139 -43h-167q-65 0 -99 9q-35 9 -70 37v-206h-210v860h210v-210q35 28 70 37q34 9 99 9zM565 214v108q0 31 -11 42t-42 11h-156q-55 0 -78 -22l-22 -19v-132l22 -19q25 -22 78 -22h156q31 0 42 11t11 42z" />
    <glyph glyph-name="ydieresis" unicode="&#xff;" horiz-adv-x="798" 
d="M201 692h161v-116h-161v116zM436 692h161v-116h-161v116zM402 206l165 330h232l-307 -533q-55 -97 -111 -130q-57 -33 -170 -33h-155v161h165q52 0 72 23l-294 512h240z" />
    <glyph glyph-name="Amacron" unicode="&#x100;" horiz-adv-x="960" 
d="M253 848h456v-95h-456v95zM964 0h-252l-52 113h-369l-52 -113h-241l358 700h251zM475 516l-114 -250h229z" />
    <glyph glyph-name="amacron" unicode="&#x101;" horiz-adv-x="799" 
d="M178 684h456v-95h-456v95zM220 536h354q96 0 139 -43t43 -139v-354h-175l-16 55q-41 -35 -73 -45q-33 -10 -103 -10h-223q-62 0 -95 32.5t-33 95.5v56q0 63 33 95.5t95 32.5h381v34q0 31 -11.5 42.5t-42.5 11.5h-186q-25 0 -34.5 -9.5t-9.5 -34.5v-13h-201v35
q0 82 38.5 120t119.5 38zM285 123h172q41 0 66 21l24 20v50h-262q-22 0 -30 -8t-8 -29v-17q0 -22 8 -29.5t30 -7.5z" />
    <glyph glyph-name="Abreve" unicode="&#x102;" horiz-adv-x="960" 
d="M627 736h-292q-75 0 -75 75v53h140v-24q0 -25 25 -25h112q25 0 25 25v24h140v-53q0 -75 -75 -75zM964 0h-252l-52 113h-369l-52 -113h-241l358 700h251zM475 516l-114 -250h229z" />
    <glyph glyph-name="abreve" unicode="&#x103;" horiz-adv-x="799" 
d="M552 572h-292q-75 0 -75 75v53h140v-24q0 -25 25 -25h112q25 0 25 25v24h140v-53q0 -75 -75 -75zM220 536h354q96 0 139 -43t43 -139v-354h-175l-16 55q-41 -35 -73 -45q-33 -10 -103 -10h-223q-62 0 -95 32.5t-33 95.5v56q0 63 33 95.5t95 32.5h381v34q0 31 -11.5 42.5
t-42.5 11.5h-186q-25 0 -34.5 -9.5t-9.5 -34.5v-13h-201v35q0 82 38.5 120t119.5 38zM285 123h172q41 0 66 21l24 20v50h-262q-22 0 -30 -8t-8 -29v-17q0 -22 8 -29.5t30 -7.5z" />
    <glyph glyph-name="Aogonek" unicode="&#x104;" horiz-adv-x="960" 
d="M781 -28v-7q0 -19 19 -19h161v-106h-220q-84 0 -84 84v16q0 33 8.5 52t32.5 38l-38 83h-369l-52 -113h-241l358 700h251l357 -700h-162l-8 -6q-13 -9 -13 -22zM475 516l-114 -250h229z" />
    <glyph glyph-name="aogonek" unicode="&#x105;" horiz-adv-x="792" 
d="M672 -54h96v-106h-155q-84 0 -84 84v16q0 33 8.5 52t34.5 40l-7 23q-41 -35 -73 -45q-33 -10 -103 -10h-223q-62 0 -95 32.5t-33 95.5v56q0 63 33 95.5t95 32.5h381v34q0 31 -11.5 42.5t-42.5 11.5h-186q-25 0 -34.5 -9.5t-9.5 -34.5v-13h-201v35q0 82 38.5 120t119.5 38
h354q96 0 139 -43t43 -139v-354h-82l-8 -6q-13 -9 -13 -22v-7q0 -19 19 -19zM285 123h172q41 0 66 21l24 20v50h-262q-22 0 -30 -8t-8 -29v-17q0 -22 8 -29.5t30 -7.5z" />
    <glyph glyph-name="Cacute" unicode="&#x106;" horiz-adv-x="905" 
d="M679 864l-140 -128h-172l90 128h222zM666 0h-424q-103 0 -152.5 49t-49.5 153v296q0 104 49.5 153t152.5 49h424q103 0 152.5 -49t49.5 -153v-89h-214v47q0 36 -14.5 50t-49.5 14h-264q-36 0 -50 -14t-14 -50v-212q0 -36 14 -50t50 -14h264q35 0 49.5 14t14.5 50v54h214
v-96q0 -104 -49.5 -153t-152.5 -49z" />
    <glyph glyph-name="cacute" unicode="&#x107;" horiz-adv-x="776" 
d="M615 700l-140 -128h-172l90 128h222zM38 182v172q0 96 43 139t139 43h336q96 0 139 -43t43 -139v-49h-201v17q0 31 -11.5 42t-42.5 11h-182q-31 0 -42.5 -11t-11.5 -42v-108q0 -31 11.5 -42t42.5 -11h182q31 0 42.5 11t11.5 42v22h201v-54q0 -96 -43 -139t-139 -43h-336
q-96 0 -139 43t-43 139z" />
    <glyph glyph-name="Ccircumflex" unicode="&#x108;" horiz-adv-x="905" 
d="M367 736h-150l132 128h206l132 -128h-150l-85 52zM666 0h-424q-103 0 -152.5 49t-49.5 153v296q0 104 49.5 153t152.5 49h424q103 0 152.5 -49t49.5 -153v-89h-214v47q0 36 -14.5 50t-49.5 14h-264q-36 0 -50 -14t-14 -50v-212q0 -36 14 -50t50 -14h264q35 0 49.5 14
t14.5 50v54h214v-96q0 -104 -49.5 -153t-152.5 -49z" />
    <glyph glyph-name="ccircumflex" unicode="&#x109;" horiz-adv-x="776" 
d="M303 572h-150l132 128h206l132 -128h-150l-85 52zM38 182v172q0 96 43 139t139 43h336q96 0 139 -43t43 -139v-49h-201v17q0 31 -11.5 42t-42.5 11h-182q-31 0 -42.5 -11t-11.5 -42v-108q0 -31 11.5 -42t42.5 -11h182q31 0 42.5 11t11.5 42v22h201v-54q0 -96 -43 -139
t-139 -43h-336q-96 0 -139 43t-43 139z" />
    <glyph glyph-name="Cdotaccent" unicode="&#x10a;" horiz-adv-x="905" 
d="M558 740h-212v116h212v-116zM666 0h-424q-103 0 -152.5 49t-49.5 153v296q0 104 49.5 153t152.5 49h424q103 0 152.5 -49t49.5 -153v-89h-214v47q0 36 -14.5 50t-49.5 14h-264q-36 0 -50 -14t-14 -50v-212q0 -36 14 -50t50 -14h264q35 0 49.5 14t14.5 50v54h214v-96
q0 -104 -49.5 -153t-152.5 -49z" />
    <glyph glyph-name="cdotaccent" unicode="&#x10b;" horiz-adv-x="776" 
d="M494 576h-212v116h212v-116zM38 182v172q0 96 43 139t139 43h336q96 0 139 -43t43 -139v-49h-201v17q0 31 -11.5 42t-42.5 11h-182q-31 0 -42.5 -11t-11.5 -42v-108q0 -31 11.5 -42t42.5 -11h182q31 0 42.5 11t11.5 42v22h201v-54q0 -96 -43 -139t-139 -43h-336
q-96 0 -139 43t-43 139z" />
    <glyph glyph-name="Ccaron" unicode="&#x10c;" horiz-adv-x="905" 
d="M553 787h-59l-132 26h2l-14 21l106 30l129 -22zM666 0h-424q-103 0 -152.5 49t-49.5 153v296q0 104 49.5 153t152.5 49h424q103 0 152.5 -49t49.5 -153v-89h-214v47q0 36 -14.5 50t-49.5 14h-264q-36 0 -50 -14t-14 -50v-212q0 -36 14 -50t50 -14h264q35 0 49.5 14
t14.5 50v54h214v-96q0 -104 -49.5 -153t-152.5 -49z" />
    <glyph glyph-name="ccaron" unicode="&#x10d;" horiz-adv-x="776" 
d="M489 623h-59l-132 26h2l-14 21l106 30l129 -22zM38 182v172q0 96 43 139t139 43h336q96 0 139 -43t43 -139v-49h-201v17q0 31 -11.5 42t-42.5 11h-182q-31 0 -42.5 -11t-11.5 -42v-108q0 -31 11.5 -42t42.5 -11h182q31 0 42.5 11t11.5 42v22h201v-54q0 -96 -43 -139
t-139 -43h-336q-96 0 -139 43t-43 139z" />
    <glyph glyph-name="Dcaron" unicode="&#x10e;" horiz-adv-x="934" 
d="M570 787h-59l-132 26h2l-14 21l106 30l129 -22zM644 0h-596v700h596q122 0 186 -63.5t64 -186.5v-200q0 -123 -64 -186.5t-186 -63.5zM270 517v-334h322q80 0 80 80v174q0 80 -80 80h-322z" />
    <glyph glyph-name="dcaron" unicode="&#x10f;" horiz-adv-x="1006" 
d="M557 490v210h209v-700h-175l-16 61q-44 -40 -80 -50q-38 -11 -108 -11h-167q-96 0 -139 43t-43 139v172q0 96 43 139t139 43h167q65 0 100 -9t70 -37zM808 568v132h194v-64q0 -35 -6 -56q-8 -22 -27 -57l-42 -75h-103l56 120h-72zM301 161h156q52 0 77 22l23 19v132
l-23 19q-23 22 -77 22h-156q-31 0 -42.5 -11t-11.5 -42v-108q0 -31 11.5 -42t42.5 -11z" />
    <glyph glyph-name="Dcroat" unicode="&#x110;" horiz-adv-x="994" 
d="M108 700h596q122 0 186 -63.5t64 -186.5v-200q0 -123 -64 -186.5t-186 -63.5h-596v289h-84v122h84v289zM732 263v174q0 80 -80 80h-322v-106h232v-122h-232v-106h322q80 0 80 80z" />
    <glyph glyph-name="dslash" unicode="&#x111;" horiz-adv-x="854" 
d="M766 656h74v-88h-74v-568h-175l-16 61q-44 -40 -80 -50q-38 -11 -108 -11h-167q-96 0 -139 43t-43 139v172q0 96 43 139t139 43h167q65 0 100 -9t70 -37v78h-207v88h207v44h209v-44zM301 161h156q52 0 77 22l23 19v132l-23 19q-23 22 -77 22h-156q-31 0 -42.5 -11
t-11.5 -42v-108q0 -31 11.5 -42t42.5 -11z" />
    <glyph glyph-name="Emacron" unicode="&#x112;" horiz-adv-x="812" 
d="M178 848h456v-95h-456v95zM270 284v-113h518v-171h-740v700h730v-171h-508v-99h468v-146h-468z" />
    <glyph glyph-name="emacron" unicode="&#x113;" horiz-adv-x="794" 
d="M169 684h456v-95h-456v95zM220 536h354q96 0 139 -43t43 -139v-115h-509v-34q0 -31 11.5 -42.5t42.5 -11.5h210q25 0 34.5 9.5t9.5 34.5v9h201v-46q0 -82 -38.5 -120t-119.5 -38h-378q-96 0 -139 43t-43 139v172q0 96 43 139t139 43zM247 354v-13h308v13q0 31 -11.5 42
t-42.5 11h-200q-31 0 -42.5 -11t-11.5 -42z" />
    <glyph glyph-name="Ebreve" unicode="&#x114;" horiz-adv-x="812" 
d="M552 736h-292q-75 0 -75 75v53h140v-24q0 -25 25 -25h112q25 0 25 25v24h140v-53q0 -75 -75 -75zM270 284v-113h518v-171h-740v700h730v-171h-508v-99h468v-146h-468z" />
    <glyph glyph-name="ebreve" unicode="&#x115;" horiz-adv-x="794" 
d="M543 572h-292q-75 0 -75 75v53h140v-24q0 -25 25 -25h112q25 0 25 25v24h140v-53q0 -75 -75 -75zM220 536h354q96 0 139 -43t43 -139v-115h-509v-34q0 -31 11.5 -42.5t42.5 -11.5h210q25 0 34.5 9.5t9.5 34.5v9h201v-46q0 -82 -38.5 -120t-119.5 -38h-378q-96 0 -139 43
t-43 139v172q0 96 43 139t139 43zM247 354v-13h308v13q0 31 -11.5 42t-42.5 11h-200q-31 0 -42.5 -11t-11.5 -42z" />
    <glyph glyph-name="Edotaccent" unicode="&#x116;" horiz-adv-x="812" 
d="M300 856h212v-116h-212v116zM270 284v-113h518v-171h-740v700h730v-171h-508v-99h468v-146h-468z" />
    <glyph glyph-name="edotaccent" unicode="&#x117;" horiz-adv-x="794" 
d="M291 692h212v-116h-212v116zM220 536h354q96 0 139 -43t43 -139v-115h-509v-34q0 -31 11.5 -42.5t42.5 -11.5h210q25 0 34.5 9.5t9.5 34.5v9h201v-46q0 -82 -38.5 -120t-119.5 -38h-378q-96 0 -139 43t-43 139v172q0 96 43 139t139 43zM247 354v-13h308v13q0 31 -11.5 42
t-42.5 11h-200q-31 0 -42.5 -11t-11.5 -42z" />
    <glyph glyph-name="Eogonek" unicode="&#x118;" horiz-adv-x="812" 
d="M615 0l-8 -6q-13 -9 -13 -22v-7q0 -19 19 -19h161v-106h-220q-84 0 -84 84v16q0 38 13 60h-435v700h730v-171h-508v-99h468v-146h-468v-113h518v-171h-173z" />
    <glyph glyph-name="eogonek" unicode="&#x119;" horiz-adv-x="794" 
d="M220 536h354q96 0 139 -43t43 -139v-115h-509v-34q0 -31 11.5 -42.5t42.5 -11.5h210q25 0 34.5 9.5t9.5 34.5v9h201v-46q0 -82 -38.5 -120t-119.5 -38h-122l-8 -6q-13 -9 -13 -22v-7q0 -19 19 -19h161v-106h-220q-84 0 -84 84v16q0 38 13 60h-124q-96 0 -139 43t-43 139
v172q0 96 43 139t139 43zM247 354v-13h308v13q0 31 -11.5 42t-42.5 11h-200q-31 0 -42.5 -11t-11.5 -42z" />
    <glyph glyph-name="Ecaron" unicode="&#x11a;" horiz-adv-x="812" 
d="M448 787l-132 26h2l-14 21l106 30l129 -22l-32 -55h-59zM270 284v-113h518v-171h-740v700h730v-171h-508v-99h468v-146h-468z" />
    <glyph glyph-name="ecaron" unicode="&#x11b;" horiz-adv-x="794" 
d="M439 623l-132 26h2l-14 21l106 30l129 -22l-32 -55h-59zM220 536h354q96 0 139 -43t43 -139v-115h-509v-34q0 -31 11.5 -42.5t42.5 -11.5h210q25 0 34.5 9.5t9.5 34.5v9h201v-46q0 -82 -38.5 -120t-119.5 -38h-378q-96 0 -139 43t-43 139v172q0 96 43 139t139 43z
M247 354v-13h308v13q0 31 -11.5 42t-42.5 11h-200q-31 0 -42.5 -11t-11.5 -42z" />
    <glyph glyph-name="Gcircumflex" unicode="&#x11c;" horiz-adv-x="935" 
d="M383 736h-150l132 128h206l132 -128h-150l-85 52zM40 202v296q0 104 49.5 153t152.5 49h452q103 0 152.5 -49t49.5 -153v-51h-222v15q0 36 -14 50t-50 14h-284q-36 0 -50 -14t-14 -50v-236q0 -36 14 -50t50 -14h292q36 0 50 14t14 50v27h-213v141h427v-192
q0 -104 -49.5 -153t-152.5 -49h-452q-103 0 -152.5 49t-49.5 153z" />
    <glyph glyph-name="gcircumflex" unicode="&#x11d;" horiz-adv-x="813" 
d="M491 572l-85 52l-85 -52h-150l132 128h206l132 -128h-150zM575 475l16 61h175v-494q0 -104 -49.5 -153t-152.5 -49h-506v148h435q35 0 49.5 14t14.5 50v42q-39 -29 -73 -38q-36 -9 -97 -9h-167q-96 0 -139 43t-43 139v125q0 96 43 139t139 43h167q67 0 106 -11
q36 -11 82 -50zM534 216l23 19v109l-23 19q-23 22 -77 22h-156q-31 0 -42.5 -11.5t-11.5 -42.5v-83q0 -31 11.5 -42.5t42.5 -11.5h156q52 0 77 22z" />
    <glyph glyph-name="Gbreve" unicode="&#x11e;" horiz-adv-x="935" 
d="M614 736h-292q-75 0 -75 75v53h140v-24q0 -25 25 -25h112q25 0 25 25v24h140v-53q0 -75 -75 -75zM40 202v296q0 104 49.5 153t152.5 49h452q103 0 152.5 -49t49.5 -153v-51h-222v15q0 36 -14 50t-50 14h-284q-36 0 -50 -14t-14 -50v-236q0 -36 14 -50t50 -14h292
q36 0 50 14t14 50v27h-213v141h427v-192q0 -104 -49.5 -153t-152.5 -49h-452q-103 0 -152.5 49t-49.5 153z" />
    <glyph glyph-name="gbreve" unicode="&#x11f;" horiz-adv-x="813" 
d="M552 572h-292q-75 0 -75 75v53h140v-24q0 -25 25 -25h112q25 0 25 25v24h140v-53q0 -75 -75 -75zM575 475l16 61h175v-494q0 -104 -49.5 -153t-152.5 -49h-506v148h435q35 0 49.5 14t14.5 50v42q-39 -29 -73 -38q-36 -9 -97 -9h-167q-96 0 -139 43t-43 139v125
q0 96 43 139t139 43h167q67 0 106 -11q36 -11 82 -50zM534 216l23 19v109l-23 19q-23 22 -77 22h-156q-31 0 -42.5 -11.5t-11.5 -42.5v-83q0 -31 11.5 -42.5t42.5 -11.5h156q52 0 77 22z" />
    <glyph glyph-name="Gdotaccent" unicode="&#x120;" horiz-adv-x="935" 
d="M574 740h-212v116h212v-116zM40 202v296q0 104 49.5 153t152.5 49h452q103 0 152.5 -49t49.5 -153v-51h-222v15q0 36 -14 50t-50 14h-284q-36 0 -50 -14t-14 -50v-236q0 -36 14 -50t50 -14h292q36 0 50 14t14 50v27h-213v141h427v-192q0 -104 -49.5 -153t-152.5 -49h-452
q-103 0 -152.5 49t-49.5 153z" />
    <glyph glyph-name="gdotaccent" unicode="&#x121;" horiz-adv-x="813" 
d="M300 692h212v-116h-212v116zM575 475l16 61h175v-494q0 -104 -49.5 -153t-152.5 -49h-506v148h435q35 0 49.5 14t14.5 50v42q-39 -29 -73 -38q-36 -9 -97 -9h-167q-96 0 -139 43t-43 139v125q0 96 43 139t139 43h167q67 0 106 -11q36 -11 82 -50zM534 216l23 19v109
l-23 19q-23 22 -77 22h-156q-31 0 -42.5 -11.5t-11.5 -42.5v-83q0 -31 11.5 -42.5t42.5 -11.5h156q52 0 77 22z" />
    <glyph glyph-name="Gcommaaccent" unicode="&#x122;" horiz-adv-x="935" 
d="M40 202v296q0 104 49.5 153t152.5 49h452q103 0 152.5 -49t49.5 -153v-51h-222v15q0 36 -14 50t-50 14h-284q-36 0 -50 -14t-14 -50v-236q0 -36 14 -50t50 -14h292q36 0 50 14t14 50v27h-213v141h427v-192q0 -104 -49.5 -153t-152.5 -49h-452q-103 0 -152.5 49t-49.5 153
zM490 -232h-103l56 94h-72v108h194v-36q0 -36 -6 -56q-6 -19 -30 -52z" />
    <glyph glyph-name="gcommaaccent" unicode="&#x123;" horiz-adv-x="813" 
d="M434 680h66v-108h-188v36q0 36 6 56q6 19 28 52l38 58h103zM575 475l16 61h175v-494q0 -104 -49.5 -153t-152.5 -49h-506v148h435q35 0 49.5 14t14.5 50v42q-39 -29 -73 -38q-36 -9 -97 -9h-167q-96 0 -139 43t-43 139v125q0 96 43 139t139 43h167q67 0 106 -11
q36 -11 82 -50zM534 216l23 19v109l-23 19q-23 22 -77 22h-156q-31 0 -42.5 -11.5t-11.5 -42.5v-83q0 -31 11.5 -42.5t42.5 -11.5h156q52 0 77 22z" />
    <glyph glyph-name="Hcircumflex" unicode="&#x124;" horiz-adv-x="922" 
d="M546 736l-85 52l-85 -52h-150l132 128h206l132 -128h-150zM652 458v242h222v-700h-222v266h-382v-266h-222v700h222v-242h382z" />
    <glyph glyph-name="hcircumflex" unicode="&#x125;" horiz-adv-x="807" 
d="M236 736l-85 52l-85 -52h-150l132 128h206l132 -128h-150zM433 536h149q96 0 139 -43t43 -139v-354h-209v317q0 31 -11 42t-42 11h-146q-55 0 -78 -22l-22 -19v-329h-210v700h210v-216q38 32 74 43q34 9 103 9z" />
    <glyph glyph-name="Hbar" unicode="&#x126;" horiz-adv-x="1042" 
d="M934 632h84v-109h-84v-523h-222v266h-382v-266h-222v523h-84v109h84v68h222v-68h382v68h222v-68zM330 458h382v65h-382v-65z" />
    <glyph glyph-name="hbar" unicode="&#x127;" horiz-adv-x="848" 
d="M477 536h149q96 0 139 -43t43 -139v-354h-209v317q0 31 -11 42t-42 11h-146q-55 0 -78 -22l-22 -19v-329h-210v568h-76v88h76v44h210v-44h204v-88h-204v-84q38 32 74 43q35 9 103 9z" />
    <glyph glyph-name="Itilde" unicode="&#x128;" horiz-adv-x="330" 
d="M63 736h-116v79q0 49 49 49h151q23 0 35 -5t25 -21l26 -29q6 -6 13 -6h12q9 0 9 8v53h116v-79q0 -49 -49 -49h-151q-23 0 -35 5t-25 21l-26 30q-7 5 -13 5h-12q-9 0 -9 -8v-53zM52 0v700h226v-700h-226z" />
    <glyph glyph-name="itilde" unicode="&#x129;" horiz-adv-x="313" 
d="M55 572h-116v79q0 49 49 49h151q23 0 35 -5t25 -21l26 -29q6 -6 13 -6h12q9 0 9 8v53h116v-79q0 -49 -49 -49h-151q-23 0 -35 5t-25 21l-26 30q-7 5 -13 5h-12q-9 0 -9 -8v-53zM263 0h-213v536h213v-536z" />
    <glyph glyph-name="Imacron" unicode="&#x12a;" horiz-adv-x="330" 
d="M393 753h-456v95h456v-95zM52 0v700h226v-700h-226z" />
    <glyph glyph-name="imacron" unicode="&#x12b;" horiz-adv-x="313" 
d="M385 589h-456v95h456v-95zM263 0h-213v536h213v-536z" />
    <glyph glyph-name="Ibreve" unicode="&#x12c;" horiz-adv-x="330" 
d="M311 736h-292q-75 0 -75 75v53h140v-24q0 -25 25 -25h112q25 0 25 25v24h140v-53q0 -75 -75 -75zM52 0v700h226v-700h-226z" />
    <glyph glyph-name="ibreve" unicode="&#x12d;" horiz-adv-x="313" 
d="M303 572h-292q-75 0 -75 75v53h140v-24q0 -25 25 -25h112q25 0 25 25v24h140v-53q0 -75 -75 -75zM263 0h-213v536h213v-536z" />
    <glyph glyph-name="Iogonek" unicode="&#x12e;" horiz-adv-x="330" 
d="M129 -54h161v-106h-220q-84 0 -84 84v16q0 33 9.5 53t36.5 41l20 13v653h226v-700h-147l-8 -6q-13 -9 -13 -22v-7q0 -19 19 -19z" />
    <glyph glyph-name="iogonek" unicode="&#x12f;" horiz-adv-x="313" 
d="M51 692h212v-116h-212v116zM115 -54h161v-106h-220q-84 0 -84 84v16q0 33 9.5 53t36.5 41l32 21v481h213v-536h-146l-8 -6q-13 -9 -13 -22v-7q0 -19 19 -19z" />
    <glyph glyph-name="Idot" unicode="&#x130;" horiz-adv-x="330" 
d="M278 740h-226v116h226v-116zM52 0v700h226v-700h-226z" />
    <glyph glyph-name="dotlessi" unicode="&#x131;" horiz-adv-x="313" 
d="M263 0h-213v536h213v-536z" />
    <glyph glyph-name="IJ" unicode="&#x132;" horiz-adv-x="1167" 
d="M52 0v700h226v-700h-226zM922 0h-366q-103 0 -152.5 49t-49.5 153v94h214v-52q0 -36 14 -50t50 -14h206q36 0 50 14t14 50v456h222v-498q0 -104 -49.5 -153t-152.5 -49z" />
    <glyph glyph-name="ij" unicode="&#x133;" horiz-adv-x="692" 
d="M263 576h-213v124h213v-124zM642 576h-212v124h212v-124zM263 0h-213v536h213v-536zM484 -160h-206v153h108q25 0 34.5 9.5t9.5 34.5v499h212v-538q0 -82 -38.5 -120t-119.5 -38z" />
    <glyph glyph-name="Jcircumflex" unicode="&#x134;" horiz-adv-x="837" 
d="M598 736h-150l132 128h206l132 -128h-150l-85 52zM592 0h-366q-103 0 -152.5 49t-49.5 153v94h214v-52q0 -36 14 -50t50 -14h206q36 0 50 14t14 50v456h222v-498q0 -104 -49.5 -153t-152.5 -49z" />
    <glyph glyph-name="jcircumflex" unicode="&#x135;" horiz-adv-x="353" 
d="M112 572h-150l132 128h206l132 -128h-150l-85 52zM145 -160h-206v153h107q26 0 35 9.5t9 34.5v499h213v-538q0 -82 -38.5 -120t-119.5 -38z" />
    <glyph glyph-name="Kcommaaccent" unicode="&#x136;" horiz-adv-x="908" 
d="M902 700l-380 -337l384 -363h-306l-330 333v-333h-222v700h222v-318l326 318h306zM404 -138h-72v108h194v-36q0 -36 -6 -56q-6 -19 -30 -52l-39 -58h-103z" />
    <glyph glyph-name="kcommaaccent" unicode="&#x137;" horiz-adv-x="807" 
d="M808 536l-311 -265l318 -271h-297l-262 243v-243h-210v700h210v-410l255 246h297zM360 -138h-72v108h194v-36q0 -36 -6 -56q-6 -19 -30 -52l-39 -58h-103z" />
    <glyph glyph-name="Lacute" unicode="&#x139;" horiz-adv-x="750" 
d="M164 864h222l-140 -128h-172zM270 700v-509h468v-191h-690v700h222z" />
    <glyph glyph-name="lacute" unicode="&#x13a;" horiz-adv-x="313" 
d="M384 864l-140 -128h-172l90 128h222zM263 0h-213v700h213v-700z" />
    <glyph glyph-name="Lcommaaccent" unicode="&#x13b;" horiz-adv-x="750" 
d="M270 700v-509h468v-191h-690v700h222zM350 -138h-72v108h194v-36q0 -36 -6 -56q-6 -19 -30 -52l-39 -58h-103z" />
    <glyph glyph-name="lcommaaccent" unicode="&#x13c;" horiz-adv-x="313" 
d="M263 0h-213v700h213v-700zM179 -232h-103l56 94h-72v108h194v-36q0 -36 -6 -56q-6 -19 -30 -52z" />
    <glyph glyph-name="Lcaron" unicode="&#x13d;" horiz-adv-x="750" 
d="M270 700v-509h468v-191h-690v700h222zM489 448h-103l56 120h-72v132h194v-64q0 -35 -6 -56q-8 -22 -27 -57z" />
    <glyph glyph-name="lcaron" unicode="&#x13e;" horiz-adv-x="505" 
d="M263 0h-213v700h213v-700zM426 448h-103l56 120h-72v132h194v-64q0 -35 -6 -56q-7 -22 -27 -57z" />
    <glyph glyph-name="Ldot" unicode="&#x13f;" horiz-adv-x="750" 
d="M270 700v-509h468v-191h-690v700h222zM383 534h242v-226h-242v226z" />
    <glyph glyph-name="ldot" unicode="&#x140;" horiz-adv-x="566" 
d="M263 0h-213v700h213v-700zM554 270h-242v226h242v-226z" />
    <glyph glyph-name="Lslash" unicode="&#x141;" horiz-adv-x="810" 
d="M330 333v-142h468v-191h-690v300l-84 -12v124l84 12v276h222v-243l294 43v-124z" />
    <glyph glyph-name="lslash" unicode="&#x142;" horiz-adv-x="392" 
d="M303 440l75 12v-124l-75 -12v-316h-213v281l-76 -13v124l76 13v295h213v-260z" />
    <glyph glyph-name="Nacute" unicode="&#x143;" horiz-adv-x="942" 
d="M471 864h222l-140 -128h-172zM680 283v417h214v-700h-180l-452 426v-426h-214v700h189z" />
    <glyph glyph-name="nacute" unicode="&#x144;" horiz-adv-x="807" 
d="M408 700h222l-140 -128h-172zM425 536h157q96 0 139 -43t43 -139v-354h-209v317q0 31 -11 42t-42 11h-146q-55 0 -78 -22l-22 -19v-329h-210v536h176l16 -60q45 39 80 49q36 11 107 11z" />
    <glyph glyph-name="Ncommaaccent" unicode="&#x145;" horiz-adv-x="942" 
d="M680 283v417h214v-700h-180l-452 426v-426h-214v700h189zM446 -138h-72v108h194v-36q0 -36 -6 -56q-6 -19 -30 -52l-39 -58h-103z" />
    <glyph glyph-name="ncommaaccent" unicode="&#x146;" horiz-adv-x="807" 
d="M425 536h157q96 0 139 -43t43 -139v-354h-209v317q0 31 -11 42t-42 11h-146q-55 0 -78 -22l-22 -19v-329h-210v536h176l16 -60q45 39 80 49q36 11 107 11zM378 -138h-72v108h194v-36q0 -36 -6 -56q-6 -19 -30 -52l-39 -58h-103z" />
    <glyph glyph-name="Ncaron" unicode="&#x147;" horiz-adv-x="942" 
d="M508 787l-132 26h2l-14 21l106 30l129 -22l-32 -55h-59zM680 283v417h214v-700h-180l-452 426v-426h-214v700h189z" />
    <glyph glyph-name="ncaron" unicode="&#x148;" horiz-adv-x="807" 
d="M445 623l-132 26h2l-14 21l106 30l129 -22l-32 -55h-59zM425 536h157q96 0 139 -43t43 -139v-354h-209v317q0 31 -11 42t-42 11h-146q-55 0 -78 -22l-22 -19v-329h-210v536h176l16 -60q45 39 80 49q36 11 107 11z" />
    <glyph glyph-name="Eng" unicode="&#x14a;" horiz-adv-x="942" 
d="M680 283v417h214v-668q0 -99 -46.5 -145.5t-145.5 -46.5h-178v151h102q29 0 40.5 8.5t13.5 32.5l-418 394v-426h-214v700h189z" />
    <glyph glyph-name="eng" unicode="&#x14b;" horiz-adv-x="805" 
d="M425 536h155q96 0 139 -43t43 -139v-356q0 -82 -38 -120t-120 -38h-176l2 153h79q25 0 34.5 9.5t9.5 34.5v280q0 31 -11 42t-42 11h-144q-55 0 -78 -22l-22 -19v-329h-210v536h176l16 -60q45 39 80 49q36 11 107 11z" />
    <glyph glyph-name="Omacron" unicode="&#x14c;" horiz-adv-x="935" 
d="M696 753h-456v95h456v-95zM694 0h-452q-103 0 -152.5 49t-49.5 153v296q0 104 49.5 153t152.5 49h452q103 0 152.5 -49t49.5 -153v-296q0 -104 -49.5 -153t-152.5 -49zM326 183h284q35 0 49.5 14t14.5 50v206q0 36 -14.5 50t-49.5 14h-284q-36 0 -50 -14t-14 -50v-206
q0 -36 14 -50t50 -14z" />
    <glyph glyph-name="omacron" unicode="&#x14d;" horiz-adv-x="804" 
d="M630 589h-456v95h456v-95zM584 0h-364q-96 0 -139 43t-43 139v172q0 96 43 139t139 43h364q96 0 139 -43t43 -139v-172q0 -96 -43 -139t-139 -43zM301 161h202q31 0 42.5 11t11.5 42v108q0 31 -11.5 42t-42.5 11h-202q-31 0 -42.5 -11t-11.5 -42v-108q0 -31 11.5 -42
t42.5 -11z" />
    <glyph glyph-name="Obreve" unicode="&#x14e;" horiz-adv-x="935" 
d="M614 736h-292q-75 0 -75 75v53h140v-24q0 -25 25 -25h112q25 0 25 25v24h140v-53q0 -75 -75 -75zM694 0h-452q-103 0 -152.5 49t-49.5 153v296q0 104 49.5 153t152.5 49h452q103 0 152.5 -49t49.5 -153v-296q0 -104 -49.5 -153t-152.5 -49zM326 183h284q35 0 49.5 14
t14.5 50v206q0 36 -14.5 50t-49.5 14h-284q-36 0 -50 -14t-14 -50v-206q0 -36 14 -50t50 -14z" />
    <glyph glyph-name="obreve" unicode="&#x14f;" horiz-adv-x="804" 
d="M548 572h-292q-75 0 -75 75v53h140v-24q0 -25 25 -25h112q25 0 25 25v24h140v-53q0 -75 -75 -75zM584 0h-364q-96 0 -139 43t-43 139v172q0 96 43 139t139 43h364q96 0 139 -43t43 -139v-172q0 -96 -43 -139t-139 -43zM301 161h202q31 0 42.5 11t11.5 42v108
q0 31 -11.5 42t-42.5 11h-202q-31 0 -42.5 -11t-11.5 -42v-108q0 -31 11.5 -42t42.5 -11z" />
    <glyph glyph-name="Ohungarumlaut" unicode="&#x150;" horiz-adv-x="935" 
d="M528 864l-113 -128h-165l71 128h207zM780 864l-112 -128h-166l71 128h207zM694 0h-452q-103 0 -152.5 49t-49.5 153v296q0 104 49.5 153t152.5 49h452q103 0 152.5 -49t49.5 -153v-296q0 -104 -49.5 -153t-152.5 -49zM326 183h284q35 0 49.5 14t14.5 50v206
q0 36 -14.5 50t-49.5 14h-284q-36 0 -50 -14t-14 -50v-206q0 -36 14 -50t50 -14z" />
    <glyph glyph-name="ohungarumlaut" unicode="&#x151;" horiz-adv-x="804" 
d="M462 700l-113 -128h-165l71 128h207zM714 700l-112 -128h-166l71 128h207zM584 0h-364q-96 0 -139 43t-43 139v172q0 96 43 139t139 43h364q96 0 139 -43t43 -139v-172q0 -96 -43 -139t-139 -43zM301 161h202q31 0 42.5 11t11.5 42v108q0 31 -11.5 42t-42.5 11h-202
q-31 0 -42.5 -11t-11.5 -42v-108q0 -31 11.5 -42t42.5 -11z" />
    <glyph glyph-name="OE" unicode="&#x152;" horiz-adv-x="1428" 
d="M886 284v-113h518v-171h-1162q-103 0 -152.5 49t-49.5 153v296q0 104 49.5 153t152.5 49h1152v-171h-508v-99h468v-146h-468zM326 183h338v334h-338q-36 0 -50 -14t-14 -50v-206q0 -35 14 -49.5t50 -14.5z" />
    <glyph glyph-name="oe" unicode="&#x153;" horiz-adv-x="1313" 
d="M780 536h313q96 0 139 -43t43 -139v-115h-509v-34q0 -31 11.5 -42.5t42.5 -11.5h210q25 0 34.5 9.5t9.5 34.5v9h201v-46q0 -82 -38.5 -120t-119.5 -38h-324q-95 0 -132 48q-37 -48 -132 -48h-309q-96 0 -139 43t-43 139v172q0 96 43 139t139 43h322q84 0 119 -41
q35 41 119 41zM766 354v-13h308v13q0 31 -11.5 42t-42.5 11h-200q-31 0 -42.5 -11t-11.5 -42zM557 215v107q0 31 -11.5 42t-42.5 11h-202q-31 0 -42.5 -11t-11.5 -42v-107q0 -31 11.5 -42.5t42.5 -11.5h202q31 0 42.5 11.5t11.5 42.5z" />
    <glyph glyph-name="Racute" unicode="&#x154;" horiz-adv-x="897" 
d="M454 864h222l-140 -128h-172zM706 242l178 -242h-253l-160 225h-201v-225h-222v700h624q96 0 139 -43t43 -139v-95q0 -87 -35 -130t-113 -51zM578 541h-308v-162h308q31 0 42.5 11.5t11.5 42.5v54q0 31 -11.5 42.5t-42.5 11.5z" />
    <glyph glyph-name="racute" unicode="&#x155;" horiz-adv-x="548" 
d="M284 700h222l-140 -128h-172zM417 536h119v-187h-180q-55 0 -78 -22l-22 -19v-308h-210v536h152l19 -72q48 45 87 59q36 13 113 13z" />
    <glyph glyph-name="Rcommaaccent" unicode="&#x156;" horiz-adv-x="897" 
d="M706 242l178 -242h-253l-160 225h-201v-225h-222v700h624q96 0 139 -43t43 -139v-95q0 -87 -35 -130t-113 -51zM578 541h-308v-162h308q31 0 42.5 11.5t11.5 42.5v54q0 31 -11.5 42.5t-42.5 11.5zM417 -138h-72v108h194v-36q0 -36 -6 -56q-6 -19 -30 -52l-39 -58h-103z
" />
    <glyph glyph-name="rcommaaccent" unicode="&#x157;" horiz-adv-x="548" 
d="M417 536h119v-187h-180q-55 0 -78 -22l-22 -19v-308h-210v536h152l19 -72q48 45 87 59q36 13 113 13zM126 -138h-72v108h194v-36q0 -36 -6 -56q-6 -19 -30 -52l-39 -58h-103z" />
    <glyph glyph-name="Rcaron" unicode="&#x158;" horiz-adv-x="897" 
d="M491 787l-132 26h2l-14 21l106 30l129 -22l-32 -55h-59zM706 242l178 -242h-253l-160 225h-201v-225h-222v700h624q96 0 139 -43t43 -139v-95q0 -87 -35 -130t-113 -51zM578 541h-308v-162h308q31 0 42.5 11.5t11.5 42.5v54q0 31 -11.5 42.5t-42.5 11.5z" />
    <glyph glyph-name="rcaron" unicode="&#x159;" horiz-adv-x="548" 
d="M321 623l-132 26h2l-14 21l106 30l129 -22l-32 -55h-59zM417 536h119v-187h-180q-55 0 -78 -22l-22 -19v-308h-210v536h152l19 -72q48 45 87 59q36 13 113 13z" />
    <glyph glyph-name="Sacute" unicode="&#x15a;" horiz-adv-x="915" 
d="M685 864l-140 -128h-172l90 128h222zM40 158v67h214v-29q0 -25 9.5 -34.5t34.5 -9.5h312q25 0 34.5 9.5t9.5 34.5v25q0 25 -9 33.5t-35 10.5l-402 25q-84 6 -121.5 42.5t-37.5 115.5v94q0 82 38.5 120t120.5 38h496q81 0 119.5 -38t38.5 -120v-57h-214v20q0 25 -9.5 34.5
t-34.5 9.5h-288q-25 0 -34.5 -9.5t-9.5 -34.5v-13q0 -24 9.5 -33t34.5 -11l402 -25q84 -5 121 -41.5t37 -116.5v-107q0 -82 -38.5 -120t-119.5 -38h-520q-81 0 -119.5 38t-38.5 120z" />
    <glyph glyph-name="sacute" unicode="&#x15b;" horiz-adv-x="784" 
d="M619 700l-140 -128h-172l90 128h222zM38 128v51h201v-29q0 -16 5.5 -21.5t21.5 -5.5h244q16 0 21.5 5.5t5.5 21.5v22q0 15 -5.5 20t-21.5 7l-335 22q-127 7 -127 125v64q0 60 33.5 93t93.5 33h431q59 0 92.5 -33.5t33.5 -94.5v-44h-201v23q0 15 -5.5 20.5t-21.5 5.5h-220
q-16 0 -21.5 -5.5t-5.5 -20.5v-10q0 -15 6 -20.5t21 -6.5l336 -22q126 -10 126 -125v-76q0 -61 -33 -94t-93 -33h-455q-59 0 -93 34t-34 94z" />
    <glyph glyph-name="Scircumflex" unicode="&#x15c;" horiz-adv-x="915" 
d="M373 736h-150l132 128h206l132 -128h-150l-85 52zM40 158v67h214v-29q0 -25 9.5 -34.5t34.5 -9.5h312q25 0 34.5 9.5t9.5 34.5v25q0 25 -9 33.5t-35 10.5l-402 25q-84 6 -121.5 42.5t-37.5 115.5v94q0 82 38.5 120t120.5 38h496q81 0 119.5 -38t38.5 -120v-57h-214v20
q0 25 -9.5 34.5t-34.5 9.5h-288q-25 0 -34.5 -9.5t-9.5 -34.5v-13q0 -24 9.5 -33t34.5 -11l402 -25q84 -5 121 -41.5t37 -116.5v-107q0 -82 -38.5 -120t-119.5 -38h-520q-81 0 -119.5 38t-38.5 120z" />
    <glyph glyph-name="scircumflex" unicode="&#x15d;" horiz-adv-x="784" 
d="M307 572h-150l132 128h206l132 -128h-150l-85 52zM38 128v51h201v-29q0 -16 5.5 -21.5t21.5 -5.5h244q16 0 21.5 5.5t5.5 21.5v22q0 15 -5.5 20t-21.5 7l-335 22q-127 7 -127 125v64q0 60 33.5 93t93.5 33h431q59 0 92.5 -33.5t33.5 -94.5v-44h-201v23q0 15 -5.5 20.5
t-21.5 5.5h-220q-16 0 -21.5 -5.5t-5.5 -20.5v-10q0 -15 6 -20.5t21 -6.5l336 -22q126 -10 126 -125v-76q0 -61 -33 -94t-93 -33h-455q-59 0 -93 34t-34 94z" />
    <glyph glyph-name="Scedilla" unicode="&#x15e;" horiz-adv-x="915" 
d="M316 448l402 -25q84 -5 121 -41.5t37 -116.5v-107q0 -82 -38.5 -120t-119.5 -38h-240l-7 -22h83q29 0 42 -13t13 -42v-28q0 -29 -13 -42t-42 -13h-209v60h157q9 0 9 9v7q0 9 -9 9h-112v28l15 47h-207q-81 0 -119.5 38t-38.5 120v67h214v-29q0 -25 9.5 -34.5t34.5 -9.5
h312q25 0 34.5 9.5t9.5 34.5v25q0 25 -9 33.5t-35 10.5l-402 25q-84 6 -121.5 42.5t-37.5 115.5v94q0 82 38.5 120t120.5 38h496q81 0 119.5 -38t38.5 -120v-57h-214v20q0 25 -9.5 34.5t-34.5 9.5h-288q-25 0 -34.5 -9.5t-9.5 -34.5v-13q0 -24 9.5 -33t34.5 -11z" />
    <glyph glyph-name="scedilla" unicode="&#x15f;" horiz-adv-x="784" 
d="M284 350l336 -22q126 -10 126 -125v-76q0 -61 -33 -94t-93 -33h-208l-7 -22h83q29 0 42 -13t13 -42v-28q0 -29 -13 -42t-42 -13h-209v60h157q9 0 9 9v7q0 9 -9 9h-112v28l15 47h-174q-59 0 -93 34t-34 94v51h201v-29q0 -16 5.5 -21.5t21.5 -5.5h244q16 0 21.5 5.5
t5.5 21.5v22q0 15 -5.5 20t-21.5 7l-335 22q-127 7 -127 125v64q0 60 33.5 93t93.5 33h431q59 0 92.5 -33.5t33.5 -94.5v-44h-201v23q0 15 -5.5 20.5t-21.5 5.5h-220q-16 0 -21.5 -5.5t-5.5 -20.5v-10q0 -15 6 -20.5t21 -6.5z" />
    <glyph glyph-name="Scaron" unicode="&#x160;" horiz-adv-x="915" 
d="M559 787h-59l-132 26h2l-14 21l106 30l129 -22zM40 158v67h214v-29q0 -25 9.5 -34.5t34.5 -9.5h312q25 0 34.5 9.5t9.5 34.5v25q0 25 -9 33.5t-35 10.5l-402 25q-84 6 -121.5 42.5t-37.5 115.5v94q0 82 38.5 120t120.5 38h496q81 0 119.5 -38t38.5 -120v-57h-214v20
q0 25 -9.5 34.5t-34.5 9.5h-288q-25 0 -34.5 -9.5t-9.5 -34.5v-13q0 -24 9.5 -33t34.5 -11l402 -25q84 -5 121 -41.5t37 -116.5v-107q0 -82 -38.5 -120t-119.5 -38h-520q-81 0 -119.5 38t-38.5 120z" />
    <glyph glyph-name="scaron" unicode="&#x161;" horiz-adv-x="784" 
d="M493 623h-59l-132 26h2l-14 21l106 30l129 -22zM38 128v51h201v-29q0 -16 5.5 -21.5t21.5 -5.5h244q16 0 21.5 5.5t5.5 21.5v22q0 15 -5.5 20t-21.5 7l-335 22q-127 7 -127 125v64q0 60 33.5 93t93.5 33h431q59 0 92.5 -33.5t33.5 -94.5v-44h-201v23q0 15 -5.5 20.5
t-21.5 5.5h-220q-16 0 -21.5 -5.5t-5.5 -20.5v-10q0 -15 6 -20.5t21 -6.5l336 -22q126 -10 126 -125v-76q0 -61 -33 -94t-93 -33h-455q-59 0 -93 34t-34 94z" />
    <glyph glyph-name="uni0162" unicode="&#x162;" horiz-adv-x="818" 
d="M520 509v-509h-91l-7 -22h83q29 0 42 -13t13 -42v-28q0 -29 -13 -42t-42 -13h-209v60h157q9 0 9 9v7q0 9 -9 9h-112v28l15 47h-58v509h-286v191h794v-191h-286z" />
    <glyph glyph-name="uni0163" unicode="&#x163;" horiz-adv-x="632" 
d="M610 536v-158h-253v-173q0 -25 9.5 -34.5t34.5 -9.5h209v-161h-237l-7 -22h83q29 0 42 -13t13 -42v-28q0 -29 -13 -42t-42 -13h-209v60h157q9 0 9 9v7q0 9 -9 9h-112v28l15 47q-79 2 -115.5 40t-36.5 118v220h-136v158h136l40 120h169v-120h253z" />
    <glyph glyph-name="Tcaron" unicode="&#x164;" horiz-adv-x="818" 
d="M451 787l-132 26h2l-14 21l106 30l129 -22l-32 -55h-59zM12 700h794v-191h-286v-509h-222v509h-286v191z" />
    <glyph glyph-name="tcaron" unicode="&#x165;" horiz-adv-x="658" 
d="M538 570h-109l52 94h-66v108h194v-36q0 -36 -5 -56q-5 -15 -29 -52zM610 536v-158h-253v-173q0 -25 9.5 -34.5t34.5 -9.5h209v-161h-304q-81 0 -119.5 38t-38.5 120v220h-136v158h136l40 120h169v-120h253z" />
    <glyph glyph-name="Tbar" unicode="&#x166;" horiz-adv-x="820" 
d="M806 700v-191h-286v-145h188v-124h-188v-240h-222v240h-186v124h186v145h-286v191h794z" />
    <glyph glyph-name="tbar" unicode="&#x167;" horiz-adv-x="632" 
d="M357 656v-204h253v-167h-253v-86q0 -25 9.5 -34.5t34.5 -9.5h209v-155h-304q-81 0 -119.5 38t-38.5 120v127h-136v167h136v84l41 120h168z" />
    <glyph glyph-name="Utilde" unicode="&#x168;" horiz-adv-x="912" 
d="M354 736h-116v79q0 49 49 49h151q23 0 35 -5t25 -21l26 -29q6 -6 13 -6h12q9 0 9 8v53h116v-79q0 -49 -49 -49h-151q-23 0 -35 5t-25 21l-26 30q-7 5 -13 5h-12q-9 0 -9 -8v-53zM667 0h-422q-103 0 -152.5 49t-49.5 153v498h222v-450q0 -36 14 -50t50 -14h254q36 0 50 14
t14 50v450h222v-498q0 -104 -49.5 -153t-152.5 -49z" />
    <glyph glyph-name="utilde" unicode="&#x169;" horiz-adv-x="807" 
d="M301 625v-53h-116v79q0 49 49 49h151q23 0 35 -5t25 -21l26 -29q6 -6 13 -6h12q9 0 9 8v53h116v-79q0 -49 -49 -49h-151q-23 0 -35 5t-25 21l-26 30q-7 5 -13 5h-12q-9 0 -9 -8zM551 536h210v-536h-176l-16 60q-45 -39 -79 -49q-38 -11 -108 -11h-157q-96 0 -139 43
t-43 139v354h209v-317q0 -31 11 -42t42 -11h146q55 0 78 22l22 19v329z" />
    <glyph glyph-name="Umacron" unicode="&#x16a;" horiz-adv-x="912" 
d="M684 753h-456v95h456v-95zM667 0h-422q-103 0 -152.5 49t-49.5 153v498h222v-450q0 -36 14 -50t50 -14h254q36 0 50 14t14 50v450h222v-498q0 -104 -49.5 -153t-152.5 -49z" />
    <glyph glyph-name="umacron" unicode="&#x16b;" horiz-adv-x="807" 
d="M175 684h456v-95h-456v95zM551 536h210v-536h-176l-16 60q-45 -39 -79 -49q-38 -11 -108 -11h-157q-96 0 -139 43t-43 139v354h209v-317q0 -31 11 -42t42 -11h146q55 0 78 22l22 19v329z" />
    <glyph glyph-name="Ubreve" unicode="&#x16c;" horiz-adv-x="912" 
d="M602 736h-292q-75 0 -75 75v53h140v-24q0 -25 25 -25h112q25 0 25 25v24h140v-53q0 -75 -75 -75zM667 0h-422q-103 0 -152.5 49t-49.5 153v498h222v-450q0 -36 14 -50t50 -14h254q36 0 50 14t14 50v450h222v-498q0 -104 -49.5 -153t-152.5 -49z" />
    <glyph glyph-name="ubreve" unicode="&#x16d;" horiz-adv-x="807" 
d="M549 572h-292q-75 0 -75 75v53h140v-24q0 -25 25 -25h112q25 0 25 25v24h140v-53q0 -75 -75 -75zM551 536h210v-536h-176l-16 60q-45 -39 -79 -49q-38 -11 -108 -11h-157q-96 0 -139 43t-43 139v354h209v-317q0 -31 11 -42t42 -11h146q55 0 78 22l22 19v329z" />
    <glyph glyph-name="Uring" unicode="&#x16e;" horiz-adv-x="912" 
d="M293 781v28q0 29 13 42t42 13h216q29 0 42 -13t13 -42v-28q0 -29 -13 -42t-42 -13h-216q-29 0 -42 13t-13 42zM367 801v-12q0 -11 3.5 -14.5t13.5 -3.5h144q10 0 13.5 3.5t3.5 14.5v12q0 11 -3.5 14.5t-13.5 3.5h-144q-10 0 -13.5 -3.5t-3.5 -14.5zM667 0h-422
q-103 0 -152.5 49t-49.5 153v498h222v-450q0 -36 14 -50t50 -14h254q36 0 50 14t14 50v450h222v-498q0 -104 -49.5 -153t-152.5 -49z" />
    <glyph glyph-name="uring" unicode="&#x16f;" horiz-adv-x="807" 
d="M511 562h-216q-29 0 -42 13t-13 42v28q0 29 13 42t42 13h216q29 0 42 -13t13 -42v-28q0 -29 -13 -42t-42 -13zM314 637v-12q0 -11 3.5 -14.5t13.5 -3.5h144q10 0 13.5 3.5t3.5 14.5v12q0 11 -3.5 14.5t-13.5 3.5h-144q-10 0 -13.5 -3.5t-3.5 -14.5zM551 536h210v-536
h-176l-16 60q-45 -39 -79 -49q-38 -11 -108 -11h-157q-96 0 -139 43t-43 139v354h209v-317q0 -31 11 -42t42 -11h146q55 0 78 22l22 19v329z" />
    <glyph glyph-name="Uhungarumlaut" unicode="&#x170;" horiz-adv-x="912" 
d="M516 864l-113 -128h-165l71 128h207zM768 864l-112 -128h-166l71 128h207zM667 0h-422q-103 0 -152.5 49t-49.5 153v498h222v-450q0 -36 14 -50t50 -14h254q36 0 50 14t14 50v450h222v-498q0 -104 -49.5 -153t-152.5 -49z" />
    <glyph glyph-name="uhungarumlaut" unicode="&#x171;" horiz-adv-x="807" 
d="M256 700h207l-113 -128h-165zM715 700l-112 -128h-166l71 128h207zM551 536h210v-536h-176l-16 60q-45 -39 -79 -49q-38 -11 -108 -11h-157q-96 0 -139 43t-43 139v354h209v-317q0 -31 11 -42t42 -11h146q55 0 78 22l22 19v329z" />
    <glyph glyph-name="Uogonek" unicode="&#x172;" horiz-adv-x="912" 
d="M647 250v450h222v-498q0 -104 -49.5 -153t-152.5 -49h-109l-8 -6q-13 -9 -13 -22v-7q0 -19 19 -19h161v-106h-220q-84 0 -84 84v16q0 38 13 60h-181q-103 0 -152.5 49t-49.5 153v498h222v-450q0 -36 14 -50t50 -14h254q36 0 50 14t14 50z" />
    <glyph glyph-name="uogonek" unicode="&#x173;" horiz-adv-x="807" 
d="M676 -54h96v-106h-155q-84 0 -84 84v16q0 33 8.5 52.5t34.5 40.5l-7 27q-45 -39 -79 -49q-38 -11 -108 -11h-157q-96 0 -139 43t-43 139v354h209v-317q0 -31 11 -42t42 -11h146q55 0 78 22l22 19v329h210v-536h-84l-8 -6q-12 -9 -12 -22v-7q0 -19 19 -19z" />
    <glyph glyph-name="Wcircumflex" unicode="&#x174;" horiz-adv-x="1292" 
d="M731 736l-85 52l-85 -52h-150l132 128h206l132 -128h-150zM903 271l157 429h234l-288 -700h-190l-170 416l-170 -416h-190l-288 700h245l158 -428l167 428h164z" />
    <glyph glyph-name="wcircumflex" unicode="&#x175;" horiz-adv-x="1100" 
d="M635 572l-85 52l-85 -52h-150l132 128h206l132 -128h-150zM765 233l116 303h217l-239 -536h-179l-129 306l-127 -306h-183l-239 536h226l118 -302l128 302h161z" />
    <glyph glyph-name="Ycircumflex" unicode="&#x176;" horiz-adv-x="892" 
d="M531 736l-85 52l-85 -52h-150l132 128h206l132 -128h-150zM643 700h257l-343 -446v-254h-222v254l-343 446h269l191 -267z" />
    <glyph glyph-name="ycircumflex" unicode="&#x177;" horiz-adv-x="798" 
d="M484 572l-85 52l-85 -52h-150l132 128h206l132 -128h-150zM402 206l165 330h232l-307 -533q-55 -97 -111 -130q-57 -33 -170 -33h-155v161h165q52 0 72 23l-294 512h240z" />
    <glyph glyph-name="Ydieresis" unicode="&#x178;" horiz-adv-x="892" 
d="M248 856h161v-116h-161v116zM483 856h161v-116h-161v116zM643 700h257l-343 -446v-254h-222v254l-343 446h269l191 -267z" />
    <glyph glyph-name="Zacute" unicode="&#x179;" horiz-adv-x="882" 
d="M668 864l-140 -128h-172l90 128h222zM848 0h-814v149l459 368h-439v183h794v-149l-459 -368h459v-183z" />
    <glyph glyph-name="zacute" unicode="&#x17a;" horiz-adv-x="768" 
d="M611 700l-140 -128h-172l90 128h222zM736 0h-704v122l369 261h-349v153h684v-122l-369 -261h369v-153z" />
    <glyph glyph-name="Zdotaccent" unicode="&#x17b;" horiz-adv-x="882" 
d="M547 740h-212v116h212v-116zM848 0h-814v149l459 368h-439v183h794v-149l-459 -368h459v-183z" />
    <glyph glyph-name="zdotaccent" unicode="&#x17c;" horiz-adv-x="768" 
d="M490 576h-212v116h212v-116zM736 0h-704v122l369 261h-349v153h684v-122l-369 -261h369v-153z" />
    <glyph glyph-name="Zcaron" unicode="&#x17d;" horiz-adv-x="882" 
d="M542 787h-59l-132 26h2l-14 21l106 30l129 -22zM848 0h-814v149l459 368h-439v183h794v-149l-459 -368h459v-183z" />
    <glyph glyph-name="zcaron" unicode="&#x17e;" horiz-adv-x="768" 
d="M485 623h-59l-132 26h2l-14 21l106 30l129 -22zM736 0h-704v122l369 261h-349v153h684v-122l-369 -261h369v-153z" />
    <glyph glyph-name="florin" unicode="&#x192;" horiz-adv-x="784" 
d="M748 523h-160q-35 0 -49 -13.5t-18 -50.5l-11 -101h218v-136h-232l-19 -180q-11 -107 -58 -154.5t-147 -47.5h-236v177h160q35 0 49 13.5t18 50.5l15 141h-222v136h236l15 140q11 107 58 154.5t147 47.5h236v-177z" />
    <glyph glyph-name="Aringacute" unicode="&#x1fa;" horiz-adv-x="960" 
d="M964 0h-252l-52 113h-369l-52 -113h-241l342 668q-22 12 -22 49v28q0 29 13 42t42 13h42l38 64h215l-65 -65q41 -5 41 -54v-28q0 -37 -21 -48zM392 737v-12q0 -11 3.5 -14.5t13.5 -3.5h144q10 0 13.5 3.5t3.5 14.5v12q0 11 -3.5 14.5t-13.5 3.5h-144q-10 0 -13.5 -3.5
t-3.5 -14.5zM475 516l-114 -250h229z" />
    <glyph glyph-name="aringacute" unicode="&#x1fb;" horiz-adv-x="799" 
d="M568 536h6q96 0 139 -43t43 -139v-354h-175l-16 55q-41 -35 -73 -45q-33 -10 -103 -10h-223q-62 0 -95 32.5t-33 95.5v56q0 63 33 95.5t95 32.5h381v34q0 31 -11.5 42.5t-42.5 11.5h-186q-25 0 -34.5 -9.5t-9.5 -34.5v-13h-201v35q0 82 38.5 120t119.5 38h24q-1 3 -1 17
v28q0 29 13 42t42 13h42l38 64h215l-65 -65q41 -5 41 -54v-28q0 -14 -1 -17zM317 573v-12q0 -11 3.5 -14.5t13.5 -3.5h144q10 0 13.5 3.5t3.5 14.5v12q0 11 -3.5 14.5t-13.5 3.5h-144q-10 0 -13.5 -3.5t-3.5 -14.5zM285 123h172q41 0 66 21l24 20v50h-262q-22 0 -30 -8
t-8 -29v-17q0 -22 8 -29.5t30 -7.5z" />
    <glyph glyph-name="AEacute" unicode="&#x1fc;" horiz-adv-x="1284" 
d="M707 864h222l-140 -128h-172zM816 284l53 -113h391v-171h-562l-46 108h-364l-49 -108h-241l358 700h894v-171h-550l47 -99h463v-146h-394zM476 517l-117 -255h226z" />
    <glyph glyph-name="aeacute" unicode="&#x1fd;" horiz-adv-x="1303" 
d="M657 700h222l-140 -128h-172zM770 536h313q96 0 139 -43t43 -139v-115h-509v-34q0 -31 11.5 -42.5t42.5 -11.5h210q25 0 34.5 9.5t9.5 34.5v9h201v-46q0 -82 -38.5 -120t-119.5 -38h-350q-101 0 -142 47q-37 -31 -68 -38q-33 -9 -99 -9h-282q-62 0 -95 32.5t-33 95.5v56
q0 63 33 95.5t95 32.5h381v34q0 31 -11.5 42.5t-42.5 11.5h-186q-25 0 -34.5 -9.5t-9.5 -34.5v-13h-201v35q0 82 38.5 120t119.5 38h313q81 0 119 -41q35 41 118 41zM756 354v-13h308v13q0 31 -11.5 42t-42.5 11h-200q-31 0 -42.5 -11t-11.5 -42zM522 144l25 20v50h-262
q-22 0 -30 -8t-8 -29v-17q0 -22 8 -29.5t30 -7.5h172q39 0 65 21z" />
    <glyph glyph-name="Oslashacute" unicode="&#x1fe;" horiz-adv-x="935" 
d="M473 864h222l-140 -128h-172zM926 730l-80 -78q50 -50 50 -154v-296q0 -104 -49.5 -153t-152.5 -49h-452q-28 0 -63 5l-37 -35h-132l80 78q-50 50 -50 154v296q0 104 49.5 153t152.5 49h452q28 0 63 -5l37 35h132zM252 461v-222q0 -19 3 -31l328 317h-267q-36 0 -50 -14
t-14 -50zM684 239v222q0 22 -4 31l-327 -317h267q35 0 49.5 14t14.5 50z" />
    <glyph glyph-name="oslashacute" unicode="&#x1ff;" horiz-adv-x="804" 
d="M407 700h222l-140 -128h-172zM796 568l-78 -70q48 -44 48 -144v-172q0 -96 -43 -139t-139 -43h-364q-26 0 -49 3l-39 -35h-124l78 70q-48 44 -48 144v172q0 96 43 139t139 43h364q26 0 49 -3l39 35h124zM229 335v-134q0 -21 4 -30l240 217h-190q-31 0 -42.5 -11
t-11.5 -42zM575 201v134q0 21 -4 30l-240 -217h190q31 0 42.5 11t11.5 42z" />
    <glyph glyph-name="Scommaaccent" unicode="&#x218;" horiz-adv-x="915" 
d="M40 158v67h214v-29q0 -25 9.5 -34.5t34.5 -9.5h312q25 0 34.5 9.5t9.5 34.5v25q0 25 -9 33.5t-35 10.5l-402 25q-84 6 -121.5 42.5t-37.5 115.5v94q0 82 38.5 120t120.5 38h496q81 0 119.5 -38t38.5 -120v-57h-214v20q0 25 -9.5 34.5t-34.5 9.5h-288q-25 0 -34.5 -9.5
t-9.5 -34.5v-13q0 -24 9.5 -33t34.5 -11l402 -25q84 -5 121 -41.5t37 -116.5v-107q0 -82 -38.5 -120t-119.5 -38h-520q-81 0 -119.5 38t-38.5 120zM480 -232h-103l56 94h-72v108h194v-36q0 -36 -6 -56q-6 -19 -30 -52z" />
    <glyph glyph-name="scommaaccent" unicode="&#x219;" horiz-adv-x="784" 
d="M38 128v51h201v-29q0 -16 5.5 -21.5t21.5 -5.5h244q16 0 21.5 5.5t5.5 21.5v22q0 15 -5.5 20t-21.5 7l-335 22q-127 7 -127 125v64q0 60 33.5 93t93.5 33h431q59 0 92.5 -33.5t33.5 -94.5v-44h-201v23q0 15 -5.5 20.5t-21.5 5.5h-220q-16 0 -21.5 -5.5t-5.5 -20.5v-10
q0 -15 6 -20.5t21 -6.5l336 -22q126 -10 126 -125v-76q0 -61 -33 -94t-93 -33h-455q-59 0 -93 34t-34 94zM414 -232h-103l56 94h-72v108h194v-36q0 -36 -6 -56q-6 -19 -30 -52z" />
    <glyph glyph-name="uni021A" unicode="&#x21a;" horiz-adv-x="818" 
d="M12 700h794v-191h-286v-509h-222v509h-286v191zM384 -138h-72v108h194v-36q0 -36 -6 -56q-6 -19 -30 -52l-39 -58h-103z" />
    <glyph glyph-name="uni021B" unicode="&#x21b;" horiz-adv-x="632" 
d="M610 536v-158h-253v-173q0 -25 9.5 -34.5t34.5 -9.5h209v-161h-304q-81 0 -119.5 38t-38.5 120v220h-136v158h136l40 120h169v-120h253zM328 -138h-72v108h194v-36q0 -36 -6 -56q-6 -19 -30 -52l-39 -58h-103z" />
    <glyph glyph-name="uni0237" unicode="&#x237;" horiz-adv-x="353" 
d="M145 -160h-206v153h107q26 0 35 9.5t9 34.5v499h213v-538q0 -82 -38.5 -120t-119.5 -38z" />
    <glyph glyph-name="circumflex" unicode="&#x2c6;" horiz-adv-x="534" 
d="M198 572h-150l132 128h206l132 -128h-150l-85 52z" />
    <glyph glyph-name="caron" unicode="&#x2c7;" horiz-adv-x="553" 
d="M384 623h-59l-132 26h2l-14 21l106 30l129 -22z" />
    <glyph glyph-name="breve" unicode="&#x2d8;" horiz-adv-x="506" 
d="M415 572h-292q-75 0 -75 75v53h140v-24q0 -25 25 -25h112q25 0 25 25v24h140v-53q0 -75 -75 -75z" />
    <glyph glyph-name="dotaccent" unicode="&#x2d9;" horiz-adv-x="302" 
d="M260 576h-212v116h212v-116z" />
    <glyph glyph-name="ring" unicode="&#x2da;" horiz-adv-x="382" 
d="M44 617v28q0 29 13 42t42 13h216q29 0 42 -13t13 -42v-28q0 -29 -13 -42t-42 -13h-216q-29 0 -42 13t-13 42zM118 637v-12q0 -11 3.5 -14.5t13.5 -3.5h144q10 0 13.5 3.5t3.5 14.5v12q0 11 -3.5 14.5t-13.5 3.5h-144q-10 0 -13.5 -3.5t-3.5 -14.5z" />
    <glyph glyph-name="ogonek" unicode="&#x2db;" horiz-adv-x="370" 
d="M212 14l-27 -20q-13 -9 -13 -22v-7q0 -19 19 -19h161v-106h-220q-84 0 -84 84v16q0 33 9.5 53t36.5 41l37 24z" />
    <glyph glyph-name="tilde" unicode="&#x2dc;" horiz-adv-x="506" 
d="M164 572h-116v79q0 49 49 49h151q23 0 35 -5t25 -21l26 -29q6 -6 13 -6h12q9 0 9 8v53h116v-79q0 -49 -49 -49h-151q-23 0 -35 5t-25 21l-26 30q-7 5 -13 5h-12q-9 0 -9 -8v-53z" />
    <glyph glyph-name="hungarumlaut" unicode="&#x2dd;" horiz-adv-x="596" 
d="M324 700l-113 -128h-165l71 128h207zM576 700l-112 -128h-166l71 128h207z" />
    <glyph glyph-name="gravecomb" unicode="&#x300;" horiz-adv-x="0" 
d="M-48 572h-172l-140 128h222z" />
    <glyph glyph-name="acutecomb" unicode="&#x301;" horiz-adv-x="0" 
d="M-48 700l-140 -128h-172l90 128h222z" />
    <glyph glyph-name="uni0302" unicode="&#x302;" horiz-adv-x="0" 
d="M-368 572h-150l132 128h206l132 -128h-150l-85 52z" />
    <glyph glyph-name="tildecomb" unicode="&#x303;" horiz-adv-x="0" 
d="M-368 572h-116v79q0 49 49 49h151q23 0 35 -5t25 -21l26 -29q6 -6 13 -6h12q9 0 9 8v53h116v-79q0 -49 -49 -49h-151q-23 0 -35 5t-25 21l-26 30q-7 5 -13 5h-12q-9 0 -9 -8v-53z" />
    <glyph glyph-name="uni0304" unicode="&#x304;" horiz-adv-x="0" 
d="M-48 589h-456v95h456v-95z" />
    <glyph glyph-name="uni0306" unicode="&#x306;" horiz-adv-x="0" 
d="M-123 572h-292q-75 0 -75 75v53h140v-24q0 -25 25 -25h112q25 0 25 25v24h140v-53q0 -75 -75 -75z" />
    <glyph glyph-name="uni0307" unicode="&#x307;" horiz-adv-x="0" 
d="M-48 576h-212v116h212v-116z" />
    <glyph glyph-name="uni0308" unicode="&#x308;" horiz-adv-x="0" 
d="M-283 576h-161v116h161v-116zM-48 576h-161v116h161v-116z" />
    <glyph glyph-name="uni030A" unicode="&#x30a;" horiz-adv-x="0" 
d="M-370 617v28q0 29 13 42t42 13h216q29 0 42 -13t13 -42v-28q0 -29 -13 -42t-42 -13h-216q-29 0 -42 13t-13 42zM-296 637v-12q0 -11 3.5 -14.5t13.5 -3.5h144q10 0 13.5 3.5t3.5 14.5v12q0 11 -3.5 14.5t-13.5 3.5h-144q-10 0 -13.5 -3.5t-3.5 -14.5z" />
    <glyph glyph-name="uni030B" unicode="&#x30b;" horiz-adv-x="0" 
d="M-296 700l-113 -128h-165l71 128h207zM-44 700l-112 -128h-166l71 128h207z" />
    <glyph glyph-name="uni030C" unicode="&#x30c;" horiz-adv-x="0" 
d="M-182 623h-59l-132 26h2l-14 21l106 30l129 -22z" />
    <glyph glyph-name="uni0312" unicode="&#x312;" horiz-adv-x="0" 
d="M-164 774h103l-53 -94h66v-108h-188v36q0 36 6 56q6 19 28 52z" />
    <glyph glyph-name="uni0326" unicode="&#x326;" horiz-adv-x="0" 
d="M-123 -232h-103l56 94h-72v108h194v-36q0 -36 -6 -56q-6 -19 -30 -52z" />
    <glyph glyph-name="uni0327" unicode="&#x327;" horiz-adv-x="0" 
d="M-99 -160h-209v60h157q9 0 9 9v7q0 9 -9 9h-112v28l22 67h73l-14 -42h83q29 0 42 -13t13 -42v-28q0 -29 -13 -42t-42 -13z" />
    <glyph glyph-name="uni0328" unicode="&#x328;" horiz-adv-x="0" 
d="M-188 14l-27 -20q-13 -9 -13 -22v-7q0 -19 19 -19h161v-106h-220q-84 0 -84 84v16q0 33 9.5 53t36.5 41l37 24z" />
    <glyph glyph-name="uni0335" unicode="&#x335;" horiz-adv-x="0" 
d="M-480 292v124h440v-124h-440z" />
    <glyph glyph-name="uni0336" unicode="&#x336;" horiz-adv-x="0" 
d="M-912 292v124h872v-124h-872z" />
    <glyph glyph-name="uni0337" unicode="&#x337;" horiz-adv-x="0" 
d="M-482 288v124l442 60v-124z" />
    <glyph glyph-name="uni0338" unicode="&#x338;" horiz-adv-x="0" 
d="M-648 -30l526 600h122l-526 -600h-122z" />
    <glyph glyph-name="uni0394" unicode="&#x394;" horiz-adv-x="962" 
d="M356 700h250l358 -700h-966zM475 519l-161 -352h322z" />
    <glyph glyph-name="uni03A9" unicode="&#x3a9;" horiz-adv-x="935" 
d="M795 167h111v-167h-386v257h90q36 0 50 14.5t14 49.5v132q0 35 -14 49.5t-50 14.5h-284q-36 0 -50 -14.5t-14 -49.5v-132q0 -35 14 -49.5t50 -14.5h90v-257h-386v167h111q-101 32 -101 168v163q0 104 49.5 153t151.5 49h453q103 0 152.5 -49t49.5 -153v-163
q0 -136 -101 -168z" />
    <glyph glyph-name="uni03BC" unicode="&#x3bc;" horiz-adv-x="846" 
d="M800 161h34v-161h-130q-100 0 -131 61q-44 -39 -79 -50q-38 -11 -108 -11h-136v-160h-204v696h210v-317q0 -31 11 -42t42 -11h146q53 0 78 22l22 19v329h209v-340q0 -20 7.5 -27.5t28.5 -7.5z" />
    <glyph glyph-name="pi" unicode="&#x3c0;" horiz-adv-x="904" 
d="M882 536v-158h-96v-173q0 -25 9.5 -34.5t34.5 -9.5h52v-161h-147q-81 0 -119.5 38t-38.5 120v220h-260v-378h-209v378h-96v158h870z" />
    <glyph glyph-name="uni0401" unicode="&#x401;" horiz-adv-x="812" 
d="M208 856h161v-116h-161v116zM443 856h161v-116h-161v116zM270 284v-113h518v-171h-740v700h730v-171h-508v-99h468v-146h-468z" />
    <glyph glyph-name="uni0403" unicode="&#x403;" horiz-adv-x="750" 
d="M380 864h222l-140 -128h-172zM48 700h690v-191h-468v-509h-222v700z" />
    <glyph glyph-name="uni0405" unicode="&#x405;" horiz-adv-x="915" 
d="M40 158v67h214v-29q0 -25 9.5 -34.5t34.5 -9.5h312q25 0 34.5 9.5t9.5 34.5v25q0 25 -9 33.5t-35 10.5l-402 25q-84 6 -121.5 42.5t-37.5 115.5v94q0 82 38.5 120t120.5 38h496q81 0 119.5 -38t38.5 -120v-57h-214v20q0 25 -9.5 34.5t-34.5 9.5h-288q-25 0 -34.5 -9.5
t-9.5 -34.5v-13q0 -24 9.5 -33t34.5 -11l402 -25q84 -5 121 -41.5t37 -116.5v-107q0 -82 -38.5 -120t-119.5 -38h-520q-81 0 -119.5 38t-38.5 120z" />
    <glyph glyph-name="uni0406" unicode="&#x406;" horiz-adv-x="330" 
d="M52 0v700h226v-700h-226z" />
    <glyph glyph-name="uni0407" unicode="&#x407;" horiz-adv-x="330" 
d="M128 740h-161v116h161v-116zM363 740h-161v116h161v-116zM52 0v700h226v-700h-226z" />
    <glyph glyph-name="uni0408" unicode="&#x408;" horiz-adv-x="837" 
d="M592 0h-366q-103 0 -152.5 49t-49.5 153v94h214v-52q0 -36 14 -50t50 -14h206q36 0 50 14t14 50v456h222v-498q0 -104 -49.5 -153t-152.5 -49z" />
    <glyph glyph-name="uni040C" unicode="&#x40c;" horiz-adv-x="908" 
d="M398 864h222l-140 -128h-172zM522 363l384 -363h-306l-330 333v-333h-222v700h222v-318l326 318h306z" />
    <glyph glyph-name="uni040E" unicode="&#x40e;" horiz-adv-x="892" 
d="M592 736h-292q-75 0 -75 75v53h140v-24q0 -25 25 -25h112q25 0 25 25v24h140v-53q0 -75 -75 -75zM451 409l192 291h257l-504 -700h-255l179 244l-328 456h268z" />
    <glyph glyph-name="uni0410" unicode="&#x410;" horiz-adv-x="960" 
d="M964 0h-252l-52 113h-369l-52 -113h-241l358 700h251zM475 516l-114 -250h229z" />
    <glyph glyph-name="uni0411" unicode="&#x411;" horiz-adv-x="900" 
d="M706 0h-658v700h756v-163h-534v-106h436q81 0 119.5 -38t38.5 -120v-115q0 -82 -38.5 -120t-119.5 -38zM270 292v-131h328q25 0 34.5 9.5t9.5 34.5v43q0 25 -9.5 34.5t-34.5 9.5h-328z" />
    <glyph glyph-name="uni0412" unicode="&#x412;" horiz-adv-x="900" 
d="M775 361q89 -23 89 -137v-66q0 -82 -38.5 -120t-119.5 -38h-658v700h638q81 0 119.5 -38t38.5 -120v-51q0 -104 -69 -130zM578 539h-308v-116h308q25 0 34.5 9.5t9.5 34.5v28q0 25 -9.5 34.5t-34.5 9.5zM642 205v43q0 25 -9.5 34.5t-34.5 9.5h-328v-131h328
q25 0 34.5 9.5t9.5 34.5z" />
    <glyph glyph-name="uni0413" unicode="&#x413;" horiz-adv-x="750" 
d="M48 700h690v-191h-468v-509h-222v700z" />
    <glyph glyph-name="uni0414" unicode="&#x414;" horiz-adv-x="1024" 
d="M908 700v-517h104v-303h-206v120h-588v-120h-206v303h64q33 0 45.5 12t14.5 46l30 459h742zM380 509l-18 -248q-3 -47 -13 -78h337v326h-306z" />
    <glyph glyph-name="uni0415" unicode="&#x415;" horiz-adv-x="812" 
d="M270 284v-113h518v-171h-740v700h730v-171h-508v-99h468v-146h-468z" />
    <glyph glyph-name="uni0416" unicode="&#x416;" horiz-adv-x="1497" 
d="M1112 363l383 -363h-306l-329 333v-333h-222v333l-330 -333h-306l383 363l-379 337h306l326 -318v318h222v-318l325 318h306z" />
    <glyph glyph-name="uni0417" unicode="&#x417;" horiz-adv-x="912" 
d="M791 359q83 -24 83 -135v-66q0 -82 -38.5 -120t-119.5 -38h-520q-81 0 -119.5 38t-38.5 120v105h214v-58q0 -25 9.5 -34.5t34.5 -9.5h312q25 0 34.5 9.5t9.5 34.5v39q0 25 -9.5 34.5t-34.5 9.5h-254v139h244q25 0 34.5 9.5t9.5 34.5v24q0 25 -9.5 34.5t-34.5 9.5h-292
q-25 0 -34.5 -9.5t-9.5 -34.5v-50h-214v97q0 82 38.5 120t119.5 38h500q81 0 119.5 -38t38.5 -120v-51q0 -105 -73 -132z" />
    <glyph glyph-name="uni0418" unicode="&#x418;" horiz-adv-x="942" 
d="M262 283l443 417h189v-700h-214v426l-452 -426h-180v700h214v-417z" />
    <glyph glyph-name="uni0419" unicode="&#x419;" horiz-adv-x="942" 
d="M617 736h-292q-75 0 -75 75v53h140v-24q0 -25 25 -25h112q25 0 25 25v24h140v-53q0 -75 -75 -75zM262 283l443 417h189v-700h-214v426l-452 -426h-180v700h214v-417z" />
    <glyph glyph-name="uni041A" unicode="&#x41a;" horiz-adv-x="908" 
d="M522 363l384 -363h-306l-330 333v-333h-222v700h222v-318l326 318h306z" />
    <glyph glyph-name="uni041B" unicode="&#x41b;" horiz-adv-x="928" 
d="M132 0h-120v183h36q33 0 45.5 12t14.5 46l30 459h742v-700h-222v509h-306l-22 -313q-8 -104 -54 -150t-144 -46z" />
    <glyph glyph-name="uni041C" unicode="&#x41c;" horiz-adv-x="1050" 
d="M529 321l286 379h187v-700h-209v383l-210 -274h-116l-210 274v-383h-209v700h196z" />
    <glyph glyph-name="uni041D" unicode="&#x41d;" horiz-adv-x="922" 
d="M652 458v242h222v-700h-222v266h-382v-266h-222v700h222v-242h382z" />
    <glyph glyph-name="uni041E" unicode="&#x41e;" horiz-adv-x="935" 
d="M694 0h-452q-103 0 -152.5 49t-49.5 153v296q0 104 49.5 153t152.5 49h452q103 0 152.5 -49t49.5 -153v-296q0 -104 -49.5 -153t-152.5 -49zM326 183h284q35 0 49.5 14t14.5 50v206q0 36 -14.5 50t-49.5 14h-284q-36 0 -50 -14t-14 -50v-206q0 -36 14 -50t50 -14z" />
    <glyph glyph-name="uni041F" unicode="&#x41f;" horiz-adv-x="922" 
d="M270 0h-222v700h826v-700h-222v509h-382v-509z" />
    <glyph glyph-name="uni0420" unicode="&#x420;" horiz-adv-x="878" 
d="M270 0h-222v700h624q96 0 139 -43t43 -139v-136q0 -96 -43 -139t-139 -43h-402v-200zM270 533v-174h308q31 0 42.5 11.5t11.5 42.5v66q0 31 -11.5 42.5t-42.5 11.5h-308z" />
    <glyph glyph-name="uni0421" unicode="&#x421;" horiz-adv-x="905" 
d="M666 0h-424q-103 0 -152.5 49t-49.5 153v296q0 104 49.5 153t152.5 49h424q103 0 152.5 -49t49.5 -153v-89h-214v47q0 36 -14.5 50t-49.5 14h-264q-36 0 -50 -14t-14 -50v-212q0 -36 14 -50t50 -14h264q35 0 49.5 14t14.5 50v54h214v-96q0 -104 -49.5 -153t-152.5 -49z
" />
    <glyph glyph-name="uni0422" unicode="&#x422;" horiz-adv-x="818" 
d="M12 700h794v-191h-286v-509h-222v509h-286v191z" />
    <glyph glyph-name="uni0423" unicode="&#x423;" horiz-adv-x="892" 
d="M451 409l192 291h257l-504 -700h-255l179 244l-328 456h268z" />
    <glyph glyph-name="uni0424" unicode="&#x424;" horiz-adv-x="1173" 
d="M690 658h242q103 0 152.5 -49t49.5 -153v-212q0 -104 -49.5 -153t-152.5 -49h-242v-82h-206v82h-242q-103 0 -152.5 49t-49.5 153v212q0 104 49.5 153t152.5 49h242v82h206v-82zM326 202h158v296h-158q-36 0 -50 -14t-14 -50v-168q0 -36 14 -50t50 -14zM912 266v168
q0 36 -14.5 50t-49.5 14h-158v-296h158q35 0 49.5 14t14.5 50z" />
    <glyph glyph-name="uni0425" unicode="&#x425;" horiz-adv-x="910" 
d="M267 0h-265l306 357l-296 343h279l171 -205l170 205h266l-296 -343l306 -357h-279l-181 219z" />
    <glyph glyph-name="uni0426" unicode="&#x426;" horiz-adv-x="990" 
d="M772 0h-724v700h222v-509h382v509h222v-509h104v-311h-206v120z" />
    <glyph glyph-name="uni0427" unicode="&#x427;" horiz-adv-x="886" 
d="M838 0h-222v204h-410q-96 0 -139 43t-43 139v314h222v-251q0 -31 11.5 -42.5t42.5 -11.5h316v305h222v-700z" />
    <glyph glyph-name="uni0428" unicode="&#x428;" horiz-adv-x="1346" 
d="M1298 0h-1250v700h222v-509h292v509h222v-509h292v509h222v-700z" />
    <glyph glyph-name="uni0429" unicode="&#x429;" horiz-adv-x="1414" 
d="M1196 0h-1148v700h222v-509h292v509h222v-509h292v509h222v-509h104v-311h-206v120z" />
    <glyph glyph-name="uni042A" unicode="&#x42a;" horiz-adv-x="1060" 
d="M222 517h-210v183h432v-200h410q96 0 139 -43t43 -139v-136q0 -96 -43 -139t-139 -43h-632v517zM444 341v-174h316q31 0 42.5 11.5t11.5 42.5v66q0 31 -11.5 42.5t-42.5 11.5h-316z" />
    <glyph glyph-name="uni042B" unicode="&#x42b;" horiz-adv-x="1208" 
d="M48 0v700h222v-200h402q96 0 139 -43t43 -139v-136q0 -96 -43 -139t-139 -43h-624zM930 0v700h226v-700h-226zM578 341h-308v-174h308q31 0 42.5 11.5t11.5 42.5v66q0 31 -11.5 42.5t-42.5 11.5z" />
    <glyph glyph-name="uni042C" unicode="&#x42c;" horiz-adv-x="878" 
d="M48 0v700h222v-200h402q96 0 139 -43t43 -139v-136q0 -96 -43 -139t-139 -43h-624zM578 341h-308v-174h308q31 0 42.5 11.5t11.5 42.5v66q0 31 -11.5 42.5t-42.5 11.5z" />
    <glyph glyph-name="uni042D" unicode="&#x42d;" horiz-adv-x="922" 
d="M239 700h442q103 0 152.5 -49t49.5 -153v-296q0 -104 -49.5 -153t-152.5 -49h-442q-103 0 -152.5 49t-49.5 153v96h214v-70q0 -36 14 -50t50 -14h282q36 0 50 14t14 50v59h-298v135h298v50q0 36 -14 50t-50 14h-282q-36 0 -50 -14t-14 -50v-63h-214v89q0 104 49.5 153
t152.5 49z" />
    <glyph glyph-name="uni042E" unicode="&#x42e;" horiz-adv-x="1366" 
d="M672 700h452q103 0 152.5 -49t49.5 -153v-296q0 -104 -49.5 -153t-152.5 -49h-452q-103 0 -152.5 49t-49.5 153v64h-200v-266h-222v700h222v-243h200v41q0 104 49.5 153t152.5 49zM1104 247v206q0 36 -14 50t-50 14h-284q-36 0 -50 -14t-14 -50v-206q0 -36 14 -50t50 -14
h284q36 0 50 14t14 50z" />
    <glyph glyph-name="uni042F" unicode="&#x42f;" horiz-adv-x="897" 
d="M225 700h624v-700h-222v225h-201l-160 -225h-253l178 242q-78 8 -113 51t-35 130v95q0 96 43 139t139 43zM319 379h308v162h-308q-31 0 -42.5 -11.5t-11.5 -42.5v-54q0 -31 11.5 -42.5t42.5 -11.5z" />
    <glyph glyph-name="uni0430" unicode="&#x430;" horiz-adv-x="797" 
d="M220 536h354q96 0 139 -43t43 -139v-354h-175l-16 55q-41 -35 -73 -45q-33 -10 -103 -10h-223q-62 0 -95 32.5t-33 95.5v56q0 63 33 95.5t95 32.5h381v34q0 31 -11.5 42.5t-42.5 11.5h-186q-25 0 -34.5 -9.5t-9.5 -34.5v-13h-201v35q0 82 38.5 120t119.5 38zM285 123h172
q41 0 66 21l24 20v50h-262q-22 0 -30 -8t-8 -29v-17q0 -22 8 -29.5t30 -7.5z" />
    <glyph glyph-name="uni0431" unicode="&#x431;" horiz-adv-x="807" 
d="M328 455h283q82 0 120 -37.5t38 -120.5v-139q0 -82 -38.5 -120t-119.5 -38h-412q-81 0 -119.5 38t-38.5 120v325q0 101 48 149t154 55l506 23v-159l-469 -22q-42 -3 -58 -19.5t-16 -57.5v-49q25 52 122 52zM560 196v72q0 25 -9.5 34.5t-34.5 9.5h-222q-25 0 -34.5 -9.5
t-9.5 -34.5v-72q0 -25 9.5 -34.5t34.5 -9.5h222q25 0 34.5 9.5t9.5 34.5z" />
    <glyph glyph-name="uni0432" unicode="&#x432;" horiz-adv-x="805" 
d="M692 276q68 -18 68 -104v-51q0 -63 -29.5 -92t-91.5 -29h-592v536h577q62 0 91.5 -29t29.5 -92v-39q0 -79 -53 -100zM503 407h-246v-81h246q18 0 25 6.5t7 24.5v19q0 18 -7 24.5t-25 6.5zM550 160v29q0 18 -6.5 25t-25.5 7h-261v-92h261q19 0 25.5 6.5t6.5 24.5z" />
    <glyph glyph-name="uni0433" unicode="&#x433;" horiz-adv-x="652" 
d="M256 0h-210v536h594v-166h-384v-370z" />
    <glyph glyph-name="uni0434" unicode="&#x434;" horiz-adv-x="904" 
d="M796 536v-376h96v-280h-194v120h-493v-120h-193v280h60q27 0 38 10.5t13 38.5l22 327h651zM345 370l-10 -137q-3 -45 -13 -73h264v210h-241z" />
    <glyph glyph-name="uni0435" unicode="&#x435;" horiz-adv-x="794" 
d="M220 536h354q96 0 139 -43t43 -139v-115h-509v-34q0 -31 11.5 -42.5t42.5 -11.5h210q25 0 34.5 9.5t9.5 34.5v9h201v-46q0 -82 -38.5 -120t-119.5 -38h-378q-96 0 -139 43t-43 139v172q0 96 43 139t139 43zM247 354v-13h308v13q0 31 -11.5 42t-42.5 11h-200
q-31 0 -42.5 -11t-11.5 -42z" />
    <glyph glyph-name="uni0436" unicode="&#x436;" horiz-adv-x="1317" 
d="M1004 271l319 -271h-298l-262 243v-243h-209v243l-263 -243h-297l318 271l-311 265h297l256 -246v246h209v-246l256 246h296z" />
    <glyph glyph-name="uni0437" unicode="&#x437;" horiz-adv-x="794" 
d="M692 275q64 -16 64 -103v-51q0 -63 -29.5 -92t-91.5 -29h-476q-62 0 -91.5 29t-29.5 92v81h201v-38q0 -19 7.5 -26t26.5 -7h240q19 0 26.5 7t7.5 26v21q0 19 -7.5 26.5t-26.5 7.5h-191v109h184q19 0 26 7.5t7 26.5v11q0 19 -7 25.5t-26 6.5h-226q-19 0 -26 -6.5t-7 -25.5
v-33h-201v75q0 63 29.5 92t91.5 29h460q63 0 92.5 -29t29.5 -92v-39q0 -82 -57 -101z" />
    <glyph glyph-name="uni0438" unicode="&#x438;" horiz-adv-x="825" 
d="M248 233l354 303h176v-536h-201v310l-363 -310h-168v536h202v-303z" />
    <glyph glyph-name="uni0439" unicode="&#x439;" horiz-adv-x="825" 
d="M558 572h-292q-75 0 -75 75v53h140v-24q0 -25 25 -25h112q25 0 25 25v24h140v-53q0 -75 -75 -75zM248 233l354 303h176v-536h-201v310l-363 -310h-168v536h202v-303z" />
    <glyph glyph-name="uni043A" unicode="&#x43a;" horiz-adv-x="809" 
d="M497 271l318 -271h-297l-262 243v-243h-210v536h210v-246l255 246h297z" />
    <glyph glyph-name="uni043B" unicode="&#x43b;" horiz-adv-x="812" 
d="M124 0h-112v160h30q27 0 38 10.5t13 38.5l22 327h651v-536h-209v370h-241l-15 -194q-7 -94 -47.5 -135t-129.5 -41z" />
    <glyph glyph-name="uni043C" unicode="&#x43c;" horiz-adv-x="911" 
d="M240 0h-194v536h186l227 -274l229 274h176v-536h-193v277l-168 -194h-95l-168 194v-277z" />
    <glyph glyph-name="uni043D" unicode="&#x43d;" horiz-adv-x="811" 
d="M555 357v179h209v-536h-209v191h-299v-191h-210v536h210v-179h299z" />
    <glyph glyph-name="uni043E" unicode="&#x43e;" horiz-adv-x="804" 
d="M584 0h-364q-96 0 -139 43t-43 139v172q0 96 43 139t139 43h364q96 0 139 -43t43 -139v-172q0 -96 -43 -139t-139 -43zM301 161h202q31 0 42.5 11t11.5 42v108q0 31 -11.5 42t-42.5 11h-202q-31 0 -42.5 -11t-11.5 -42v-108q0 -31 11.5 -42t42.5 -11z" />
    <glyph glyph-name="uni043F" unicode="&#x43f;" horiz-adv-x="811" 
d="M256 0h-210v536h718v-536h-209v370h-299v-370z" />
    <glyph glyph-name="uni0440" unicode="&#x440;" horiz-adv-x="812" 
d="M425 536h167q96 0 139 -43t43 -139v-172q0 -96 -43 -139t-139 -43h-167q-65 0 -99 9q-35 9 -70 37v-206h-210v696h176l16 -60q45 39 80 49q36 11 107 11zM565 214v108q0 31 -11 42t-42 11h-156q-55 0 -78 -22l-22 -19v-132l22 -19q25 -22 78 -22h156q31 0 42 11t11 42z
" />
    <glyph glyph-name="uni0441" unicode="&#x441;" horiz-adv-x="776" 
d="M38 182v172q0 96 43 139t139 43h336q96 0 139 -43t43 -139v-49h-201v17q0 31 -11.5 42t-42.5 11h-182q-31 0 -42.5 -11t-11.5 -42v-108q0 -31 11.5 -42t42.5 -11h182q31 0 42.5 11t11.5 42v22h201v-54q0 -96 -43 -139t-139 -43h-336q-96 0 -139 43t-43 139z" />
    <glyph glyph-name="uni0442" unicode="&#x442;" horiz-adv-x="710" 
d="M250 370h-238v166h686v-166h-238v-370h-210v370z" />
    <glyph glyph-name="uni0443" unicode="&#x443;" horiz-adv-x="798" 
d="M402 206l165 330h232l-307 -533q-55 -97 -111 -130q-57 -33 -170 -33h-155v161h165q52 0 72 23l-294 512h240z" />
    <glyph glyph-name="uni0444" unicode="&#x444;" horiz-adv-x="1124" 
d="M663 536h241q96 0 139 -43t43 -139v-172q0 -96 -43 -139t-139 -43h-241v-160h-202v160h-241q-96 0 -139 43t-43 139v172q0 96 43 139t139 43h241v164h202v-164zM301 143h160v250h-160q-31 0 -42.5 -11.5t-11.5 -42.5v-142q0 -31 11.5 -42.5t42.5 -11.5zM877 197v142
q0 31 -11.5 42.5t-42.5 11.5h-160v-250h160q31 0 42.5 11.5t11.5 42.5z" />
    <glyph glyph-name="uni0445" unicode="&#x445;" horiz-adv-x="793" 
d="M255 0h-261l255 274l-245 262h274l125 -142l126 142h260l-245 -262l255 -274h-274l-135 155z" />
    <glyph glyph-name="uni0446" unicode="&#x446;" horiz-adv-x="872" 
d="M667 0h-621v536h210v-370h299v370h209v-370h96v-286h-193v120z" />
    <glyph glyph-name="uni0447" unicode="&#x447;" horiz-adv-x="772" 
d="M24 536h209v-176q0 -25 9.5 -34.5t34.5 -9.5h240v220h209v-536h-209v151h-335q-81 0 -119.5 38t-38.5 120v227z" />
    <glyph glyph-name="uni0448" unicode="&#x448;" horiz-adv-x="1182" 
d="M1136 0h-1090v536h210v-370h231v370h209v-370h231v370h209v-536z" />
    <glyph glyph-name="uni0449" unicode="&#x449;" horiz-adv-x="1252" 
d="M1047 0h-1001v536h210v-370h235v370h209v-370h235v370h209v-370h96v-286h-193v120z" />
    <glyph glyph-name="uni044A" unicode="&#x44a;" horiz-adv-x="904" 
d="M178 370h-166v166h375v-148h339q80 0 117 -36.5t37 -117.5v-80q0 -81 -37 -117.5t-117 -36.5h-548v370zM387 258v-120h242q24 0 33 9.5t9 32.5v36q0 24 -9 33t-33 9h-242z" />
    <glyph glyph-name="uni044B" unicode="&#x44b;" horiz-adv-x="1085" 
d="M46 0v536h210v-148h338q81 0 117.5 -36.5t36.5 -117.5v-80q0 -81 -37 -117.5t-117 -36.5h-548zM1035 0h-213v536h213v-536zM498 258h-242v-120h242q23 0 32 9.5t9 32.5v36q0 24 -9 33t-32 9z" />
    <glyph glyph-name="uni044C" unicode="&#x44c;" horiz-adv-x="772" 
d="M46 0v536h210v-148h338q81 0 117.5 -36.5t36.5 -117.5v-80q0 -81 -37 -117.5t-117 -36.5h-548zM498 258h-242v-120h242q23 0 32 9.5t9 32.5v36q0 24 -9 33t-32 9z" />
    <glyph glyph-name="uni044D" unicode="&#x44d;" horiz-adv-x="796" 
d="M220 536h356q96 0 139 -43t43 -139v-172q0 -96 -43 -139t-139 -43h-356q-96 0 -139 43t-43 139v54h201v-36q0 -31 11.5 -42.5t42.5 -11.5h202q31 0 42.5 11.5t11.5 42.5v22h-225v102h225v12q0 31 -11.5 42.5t-42.5 11.5h-202q-31 0 -42.5 -11.5t-11.5 -42.5v-31h-201v49
q0 96 43 139t139 43z" />
    <glyph glyph-name="uni044E" unicode="&#x44e;" horiz-adv-x="1164" 
d="M580 536h364q96 0 139 -43t43 -139v-172q0 -96 -43 -139t-139 -43h-364q-96 0 -139 43t-43 139v9h-142v-191h-210v536h210v-179h142q1 95 44 137t138 42zM917 214v108q0 31 -11 42t-42 11h-203q-31 0 -42 -11t-11 -42v-108q0 -31 11 -42t42 -11h203q31 0 42 11t11 42z
" />
    <glyph glyph-name="uni044F" unicode="&#x44f;" horiz-adv-x="792" 
d="M198 536h548v-536h-209v169h-180l-115 -169h-226l130 185q-102 19 -102 149v48q0 81 37 117.5t117 36.5zM295 293h242v111h-242q-24 0 -33 -9t-9 -33v-28q0 -23 9 -32t33 -9z" />
    <glyph glyph-name="uni0451" unicode="&#x451;" horiz-adv-x="794" 
d="M199 692h161v-116h-161v116zM434 692h161v-116h-161v116zM220 536h354q96 0 139 -43t43 -139v-115h-509v-34q0 -31 11.5 -42.5t42.5 -11.5h210q25 0 34.5 9.5t9.5 34.5v9h201v-46q0 -82 -38.5 -120t-119.5 -38h-378q-96 0 -139 43t-43 139v172q0 96 43 139t139 43z
M247 354v-13h308v13q0 31 -11.5 42t-42.5 11h-200q-31 0 -42.5 -11t-11.5 -42z" />
    <glyph glyph-name="uni0453" unicode="&#x453;" horiz-adv-x="652" 
d="M553 700l-140 -128h-172l90 128h222zM256 0h-210v536h594v-166h-384v-370z" />
    <glyph glyph-name="uni0455" unicode="&#x455;" horiz-adv-x="784" 
d="M38 128v51h201v-29q0 -16 5.5 -21.5t21.5 -5.5h244q16 0 21.5 5.5t5.5 21.5v22q0 15 -5.5 20t-21.5 7l-335 22q-127 7 -127 125v64q0 60 33.5 93t93.5 33h431q59 0 92.5 -33.5t33.5 -94.5v-44h-201v23q0 15 -5.5 20.5t-21.5 5.5h-220q-16 0 -21.5 -5.5t-5.5 -20.5v-10
q0 -15 6 -20.5t21 -6.5l336 -22q126 -10 126 -125v-76q0 -61 -33 -94t-93 -33h-455q-59 0 -93 34t-34 94z" />
    <glyph glyph-name="uni0456" unicode="&#x456;" horiz-adv-x="313" 
d="M263 576h-213v124h213v-124zM263 0h-213v536h213v-536z" />
    <glyph glyph-name="uni0457" unicode="&#x457;" horiz-adv-x="313" 
d="M120 576h-161v116h161v-116zM355 576h-161v116h161v-116zM263 0h-213v536h213v-536z" />
    <glyph glyph-name="uni0458" unicode="&#x458;" horiz-adv-x="353" 
d="M303 576h-212v124h212v-124zM145 -160h-206v153h108q25 0 34.5 9.5t9.5 34.5v499h212v-538q0 -82 -38.5 -120t-119.5 -38z" />
    <glyph glyph-name="uni045C" unicode="&#x45c;" horiz-adv-x="809" 
d="M411 700h222l-140 -128h-172zM497 271l318 -271h-297l-262 243v-243h-210v536h210v-246l255 246h297z" />
    <glyph glyph-name="uni045E" unicode="&#x45e;" horiz-adv-x="798" 
d="M545 572h-292q-75 0 -75 75v53h140v-24q0 -25 25 -25h112q25 0 25 25v24h140v-53q0 -75 -75 -75zM402 206l165 330h232l-307 -533q-55 -97 -111 -130q-57 -33 -170 -33h-155v161h165q52 0 72 23l-294 512h240z" />
    <glyph glyph-name="uni0498" unicode="&#x498;" horiz-adv-x="912" 
d="M791 359q83 -24 83 -135v-66q0 -82 -38.5 -120t-119.5 -38h-240l-7 -22h83q29 0 42 -13t13 -42v-28q0 -29 -13 -42t-42 -13h-209v60h157q9 0 9 9v7q0 9 -9 9h-112v28l15 47h-207q-81 0 -119.5 38t-38.5 120v105h214v-58q0 -25 9.5 -34.5t34.5 -9.5h312q25 0 34.5 9.5
t9.5 34.5v39q0 25 -9.5 34.5t-34.5 9.5h-254v139h244q25 0 34.5 9.5t9.5 34.5v24q0 25 -9.5 34.5t-34.5 9.5h-292q-25 0 -34.5 -9.5t-9.5 -34.5v-50h-214v97q0 82 38.5 120t119.5 38h500q81 0 119.5 -38t38.5 -120v-51q0 -105 -73 -132z" />
    <glyph glyph-name="uni0499" unicode="&#x499;" horiz-adv-x="794" 
d="M692 275q64 -16 64 -103v-51q0 -63 -29.5 -92t-91.5 -29h-218l-7 -22h83q29 0 42 -13t13 -42v-28q0 -29 -13 -42t-42 -13h-209v60h157q9 0 9 9v7q0 9 -9 9h-112v28l15 47h-185q-62 0 -91.5 29t-29.5 92v81h201v-38q0 -19 7.5 -26t26.5 -7h240q19 0 26.5 7t7.5 26v21
q0 19 -7.5 26.5t-26.5 7.5h-191v109h184q19 0 26 7.5t7 26.5v11q0 19 -7 25.5t-26 6.5h-226q-19 0 -26 -6.5t-7 -25.5v-33h-201v75q0 63 29.5 92t91.5 29h460q63 0 92.5 -29t29.5 -92v-39q0 -82 -57 -101z" />
    <glyph glyph-name="uni04BB" unicode="&#x4bb;" horiz-adv-x="807" 
d="M433 536h149q96 0 139 -43t43 -139v-354h-209v317q0 31 -11 42t-42 11h-146q-55 0 -78 -22l-22 -19v-329h-210v700h210v-216q38 32 74 43q34 9 103 9z" />
    <glyph glyph-name="uni04C0" unicode="&#x4c0;" horiz-adv-x="330" 
d="M52 0v700h226v-700h-226z" />
    <glyph glyph-name="uni04C1" unicode="&#x4c1;" horiz-adv-x="1497" 
d="M895 736h-292q-75 0 -75 75v53h140v-24q0 -25 25 -25h112q25 0 25 25v24h140v-53q0 -75 -75 -75zM1112 363l383 -363h-306l-329 333v-333h-222v333l-330 -333h-306l383 363l-379 337h306l326 -318v318h222v-318l325 318h306z" />
    <glyph glyph-name="uni04C2" unicode="&#x4c2;" horiz-adv-x="1317" 
d="M804 572h-292q-75 0 -75 75v53h140v-24q0 -25 25 -25h112q25 0 25 25v24h140v-53q0 -75 -75 -75zM1004 271l319 -271h-298l-262 243v-243h-209v243l-263 -243h-297l318 271l-311 265h297l256 -246v246h209v-246l256 246h296z" />
    <glyph glyph-name="uni04D0" unicode="&#x4d0;" horiz-adv-x="960" 
d="M627 736h-292q-75 0 -75 75v53h140v-24q0 -25 25 -25h112q25 0 25 25v24h140v-53q0 -75 -75 -75zM964 0h-252l-52 113h-369l-52 -113h-241l358 700h251zM475 516l-114 -250h229z" />
    <glyph glyph-name="uni04D1" unicode="&#x4d1;" horiz-adv-x="797" 
d="M546 572h-292q-75 0 -75 75v53h140v-24q0 -25 25 -25h112q25 0 25 25v24h140v-53q0 -75 -75 -75zM220 536h354q96 0 139 -43t43 -139v-354h-175l-16 55q-41 -35 -73 -45q-33 -10 -103 -10h-223q-62 0 -95 32.5t-33 95.5v56q0 63 33 95.5t95 32.5h381v34q0 31 -11.5 42.5
t-42.5 11.5h-186q-25 0 -34.5 -9.5t-9.5 -34.5v-13h-201v35q0 82 38.5 120t119.5 38zM285 123h172q41 0 66 21l24 20v50h-262q-22 0 -30 -8t-8 -29v-17q0 -22 8 -29.5t30 -7.5z" />
    <glyph glyph-name="uni04D2" unicode="&#x4d2;" horiz-adv-x="960" 
d="M283 856h161v-116h-161v116zM518 856h161v-116h-161v116zM964 0h-252l-52 113h-369l-52 -113h-241l358 700h251zM475 516l-114 -250h229z" />
    <glyph glyph-name="uni04D3" unicode="&#x4d3;" horiz-adv-x="797" 
d="M202 692h161v-116h-161v116zM437 692h161v-116h-161v116zM220 536h354q96 0 139 -43t43 -139v-354h-175l-16 55q-41 -35 -73 -45q-33 -10 -103 -10h-223q-62 0 -95 32.5t-33 95.5v56q0 63 33 95.5t95 32.5h381v34q0 31 -11.5 42.5t-42.5 11.5h-186q-25 0 -34.5 -9.5
t-9.5 -34.5v-13h-201v35q0 82 38.5 120t119.5 38zM285 123h172q41 0 66 21l24 20v50h-262q-22 0 -30 -8t-8 -29v-17q0 -22 8 -29.5t30 -7.5z" />
    <glyph glyph-name="uni04D4" unicode="&#x4d4;" horiz-adv-x="1284" 
d="M816 284l53 -113h391v-171h-562l-46 108h-364l-49 -108h-241l358 700h894v-171h-550l47 -99h463v-146h-394zM476 517l-117 -255h226z" />
    <glyph glyph-name="uni04D5" unicode="&#x4d5;" horiz-adv-x="1303" 
d="M770 536h313q96 0 139 -43t43 -139v-115h-509v-34q0 -31 11.5 -42.5t42.5 -11.5h210q25 0 34.5 9.5t9.5 34.5v9h201v-46q0 -82 -38.5 -120t-119.5 -38h-350q-101 0 -142 47q-37 -31 -68 -38q-33 -9 -99 -9h-282q-62 0 -95 32.5t-33 95.5v56q0 63 33 95.5t95 32.5h381v34
q0 31 -11.5 42.5t-42.5 11.5h-186q-25 0 -34.5 -9.5t-9.5 -34.5v-13h-201v35q0 82 38.5 120t119.5 38h313q81 0 119 -41q35 41 118 41zM756 354v-13h308v13q0 31 -11.5 42t-42.5 11h-200q-31 0 -42.5 -11t-11.5 -42zM522 144l25 20v50h-262q-22 0 -30 -8t-8 -29v-17
q0 -22 8 -29.5t30 -7.5h172q39 0 65 21z" />
    <glyph glyph-name="uni04D6" unicode="&#x4d6;" horiz-adv-x="812" 
d="M552 736h-292q-75 0 -75 75v53h140v-24q0 -25 25 -25h112q25 0 25 25v24h140v-53q0 -75 -75 -75zM270 284v-113h518v-171h-740v700h730v-171h-508v-99h468v-146h-468z" />
    <glyph glyph-name="uni04D7" unicode="&#x4d7;" horiz-adv-x="794" 
d="M543 572h-292q-75 0 -75 75v53h140v-24q0 -25 25 -25h112q25 0 25 25v24h140v-53q0 -75 -75 -75zM220 536h354q96 0 139 -43t43 -139v-115h-509v-34q0 -31 11.5 -42.5t42.5 -11.5h210q25 0 34.5 9.5t9.5 34.5v9h201v-46q0 -82 -38.5 -120t-119.5 -38h-378q-96 0 -139 43
t-43 139v172q0 96 43 139t139 43zM247 354v-13h308v13q0 31 -11.5 42t-42.5 11h-200q-31 0 -42.5 -11t-11.5 -42z" />
    <glyph glyph-name="uni04DC" unicode="&#x4dc;" horiz-adv-x="1497" 
d="M551 856h161v-116h-161v116zM786 856h161v-116h-161v116zM1112 363l383 -363h-306l-329 333v-333h-222v333l-330 -333h-306l383 363l-379 337h306l326 -318v318h222v-318l325 318h306z" />
    <glyph glyph-name="uni04DD" unicode="&#x4dd;" horiz-adv-x="1317" 
d="M460 692h161v-116h-161v116zM695 692h161v-116h-161v116zM1004 271l319 -271h-298l-262 243v-243h-209v243l-263 -243h-297l318 271l-311 265h297l256 -246v246h209v-246l256 246h296z" />
    <glyph glyph-name="uni04DE" unicode="&#x4de;" horiz-adv-x="912" 
d="M258 856h161v-116h-161v116zM493 856h161v-116h-161v116zM791 359q83 -24 83 -135v-66q0 -82 -38.5 -120t-119.5 -38h-520q-81 0 -119.5 38t-38.5 120v105h214v-58q0 -25 9.5 -34.5t34.5 -9.5h312q25 0 34.5 9.5t9.5 34.5v39q0 25 -9.5 34.5t-34.5 9.5h-254v139h244
q25 0 34.5 9.5t9.5 34.5v24q0 25 -9.5 34.5t-34.5 9.5h-292q-25 0 -34.5 -9.5t-9.5 -34.5v-50h-214v97q0 82 38.5 120t119.5 38h500q81 0 119.5 -38t38.5 -120v-51q0 -105 -73 -132z" />
    <glyph glyph-name="uni04DF" unicode="&#x4df;" horiz-adv-x="794" 
d="M199 692h161v-116h-161v116zM434 692h161v-116h-161v116zM692 275q64 -16 64 -103v-51q0 -63 -29.5 -92t-91.5 -29h-476q-62 0 -91.5 29t-29.5 92v81h201v-38q0 -19 7.5 -26t26.5 -7h240q19 0 26.5 7t7.5 26v21q0 19 -7.5 26.5t-26.5 7.5h-191v109h184q19 0 26 7.5
t7 26.5v11q0 19 -7 25.5t-26 6.5h-226q-19 0 -26 -6.5t-7 -25.5v-33h-201v75q0 63 29.5 92t91.5 29h460q63 0 92.5 -29t29.5 -92v-39q0 -82 -57 -101z" />
    <glyph glyph-name="uni04E2" unicode="&#x4e2;" horiz-adv-x="942" 
d="M243 848h456v-95h-456v95zM262 283l443 417h189v-700h-214v426l-452 -426h-180v700h214v-417z" />
    <glyph glyph-name="uni04E3" unicode="&#x4e3;" horiz-adv-x="825" 
d="M184 684h456v-95h-456v95zM248 233l354 303h176v-536h-201v310l-363 -310h-168v536h202v-303z" />
    <glyph glyph-name="uni04E4" unicode="&#x4e4;" horiz-adv-x="942" 
d="M273 856h161v-116h-161v116zM508 856h161v-116h-161v116zM262 283l443 417h189v-700h-214v426l-452 -426h-180v700h214v-417z" />
    <glyph glyph-name="uni04E5" unicode="&#x4e5;" horiz-adv-x="825" 
d="M214 692h161v-116h-161v116zM449 692h161v-116h-161v116zM248 233l354 303h176v-536h-201v310l-363 -310h-168v536h202v-303z" />
    <glyph glyph-name="uni04E6" unicode="&#x4e6;" horiz-adv-x="935" 
d="M431 740h-161v116h161v-116zM666 740h-161v116h161v-116zM694 0h-452q-103 0 -152.5 49t-49.5 153v296q0 104 49.5 153t152.5 49h452q103 0 152.5 -49t49.5 -153v-296q0 -104 -49.5 -153t-152.5 -49zM326 183h284q35 0 49.5 14t14.5 50v206q0 36 -14.5 50t-49.5 14h-284
q-36 0 -50 -14t-14 -50v-206q0 -36 14 -50t50 -14z" />
    <glyph glyph-name="uni04E7" unicode="&#x4e7;" horiz-adv-x="804" 
d="M365 576h-161v116h161v-116zM600 576h-161v116h161v-116zM584 0h-364q-96 0 -139 43t-43 139v172q0 96 43 139t139 43h364q96 0 139 -43t43 -139v-172q0 -96 -43 -139t-139 -43zM301 161h202q31 0 42.5 11t11.5 42v108q0 31 -11.5 42t-42.5 11h-202q-31 0 -42.5 -11
t-11.5 -42v-108q0 -31 11.5 -42t42.5 -11z" />
    <glyph glyph-name="uni04EC" unicode="&#x4ec;" horiz-adv-x="922" 
d="M263 856h161v-116h-161v116zM498 856h161v-116h-161v116zM239 700h442q103 0 152.5 -49t49.5 -153v-296q0 -104 -49.5 -153t-152.5 -49h-442q-103 0 -152.5 49t-49.5 153v96h214v-70q0 -36 14 -50t50 -14h282q36 0 50 14t14 50v59h-298v135h298v50q0 36 -14 50t-50 14
h-282q-36 0 -50 -14t-14 -50v-63h-214v89q0 104 49.5 153t152.5 49z" />
    <glyph glyph-name="uni04ED" unicode="&#x4ed;" horiz-adv-x="796" 
d="M194 692h161v-116h-161v116zM429 692h161v-116h-161v116zM220 536h356q96 0 139 -43t43 -139v-172q0 -96 -43 -139t-139 -43h-356q-96 0 -139 43t-43 139v54h201v-36q0 -31 11.5 -42.5t42.5 -11.5h202q31 0 42.5 11.5t11.5 42.5v22h-225v102h225v12q0 31 -11.5 42.5
t-42.5 11.5h-202q-31 0 -42.5 -11.5t-11.5 -42.5v-31h-201v49q0 96 43 139t139 43z" />
    <glyph glyph-name="uni04EE" unicode="&#x4ee;" horiz-adv-x="892" 
d="M218 848h456v-95h-456v95zM451 409l192 291h257l-504 -700h-255l179 244l-328 456h268z" />
    <glyph glyph-name="uni04EF" unicode="&#x4ef;" horiz-adv-x="798" 
d="M171 684h456v-95h-456v95zM402 206l165 330h232l-307 -533q-55 -97 -111 -130q-57 -33 -170 -33h-155v161h165q52 0 72 23l-294 512h240z" />
    <glyph glyph-name="uni04F0" unicode="&#x4f0;" horiz-adv-x="892" 
d="M248 856h161v-116h-161v116zM483 856h161v-116h-161v116zM451 409l192 291h257l-504 -700h-255l179 244l-328 456h268z" />
    <glyph glyph-name="uni04F1" unicode="&#x4f1;" horiz-adv-x="798" 
d="M201 692h161v-116h-161v116zM436 692h161v-116h-161v116zM402 206l165 330h232l-307 -533q-55 -97 -111 -130q-57 -33 -170 -33h-155v161h165q52 0 72 23l-294 512h240z" />
    <glyph glyph-name="uni04F2" unicode="&#x4f2;" horiz-adv-x="892" 
d="M299 864h207l-113 -128h-165zM758 864l-112 -128h-166l71 128h207zM451 409l192 291h257l-504 -700h-255l179 244l-328 456h268z" />
    <glyph glyph-name="uni04F3" unicode="&#x4f3;" horiz-adv-x="798" 
d="M252 700h207l-113 -128h-165zM711 700l-112 -128h-166l71 128h207zM402 206l165 330h232l-307 -533q-55 -97 -111 -130q-57 -33 -170 -33h-155v161h165q52 0 72 23l-294 512h240z" />
    <glyph glyph-name="uni04F4" unicode="&#x4f4;" horiz-adv-x="886" 
d="M406 740h-161v116h161v-116zM641 740h-161v116h161v-116zM838 0h-222v204h-410q-96 0 -139 43t-43 139v314h222v-251q0 -31 11.5 -42.5t42.5 -11.5h316v305h222v-700z" />
    <glyph glyph-name="uni04F5" unicode="&#x4f5;" horiz-adv-x="600" 
d="M209 576h-161v116h161v-116zM444 576h-161v116h161v-116zM24 536h209v-176q0 -25 9.5 -34.5t34.5 -9.5h240v220h209v-536h-209v151h-335q-81 0 -119.5 38t-38.5 120v227z" />
    <glyph glyph-name="uni04F8" unicode="&#x4f8;" horiz-adv-x="1208" 
d="M1006 740h-161v116h161v-116zM1241 740h-161v116h161v-116zM48 0v700h222v-200h402q96 0 139 -43t43 -139v-136q0 -96 -43 -139t-139 -43h-624zM930 0v700h226v-700h-226zM578 341h-308v-174h308q31 0 42.5 11.5t11.5 42.5v66q0 31 -11.5 42.5t-42.5 11.5z" />
    <glyph glyph-name="uni04F9" unicode="&#x4f9;" horiz-adv-x="1085" 
d="M892 576h-161v116h161v-116zM1127 576h-161v116h161v-116zM46 0v536h210v-148h338q81 0 117.5 -36.5t36.5 -117.5v-80q0 -81 -37 -117.5t-117 -36.5h-548zM1035 0h-213v536h213v-536zM498 258h-242v-120h242q23 0 32 9.5t9 32.5v36q0 24 -9 33t-32 9z" />
    <glyph glyph-name="Wgrave" unicode="&#x1e80;" horiz-adv-x="1292" 
d="M641 864l90 -128h-172l-140 128h222zM903 271l157 429h234l-288 -700h-190l-170 416l-170 -416h-190l-288 700h245l158 -428l167 428h164z" />
    <glyph glyph-name="wgrave" unicode="&#x1e81;" horiz-adv-x="1100" 
d="M545 700l90 -128h-172l-140 128h222zM765 233l116 303h217l-239 -536h-179l-129 306l-127 -306h-183l-239 536h226l118 -302l128 302h161z" />
    <glyph glyph-name="Wacute" unicode="&#x1e82;" horiz-adv-x="1292" 
d="M651 864h222l-140 -128h-172zM903 271l157 429h234l-288 -700h-190l-170 416l-170 -416h-190l-288 700h245l158 -428l167 428h164z" />
    <glyph glyph-name="wacute" unicode="&#x1e83;" horiz-adv-x="1100" 
d="M555 700h222l-140 -128h-172zM765 233l116 303h217l-239 -536h-179l-129 306l-127 -306h-183l-239 536h226l118 -302l128 302h161z" />
    <glyph glyph-name="Wdieresis" unicode="&#x1e84;" horiz-adv-x="1292" 
d="M448 856h161v-116h-161v116zM683 856h161v-116h-161v116zM903 271l157 429h234l-288 -700h-190l-170 416l-170 -416h-190l-288 700h245l158 -428l167 428h164z" />
    <glyph glyph-name="wdieresis" unicode="&#x1e85;" horiz-adv-x="1100" 
d="M352 692h161v-116h-161v116zM587 692h161v-116h-161v116zM765 233l116 303h217l-239 -536h-179l-129 306l-127 -306h-183l-239 536h226l118 -302l128 302h161z" />
    <glyph glyph-name="uni1E9E" unicode="&#x1e9e;" horiz-adv-x="935" 
d="M655 433h86q81 0 119.5 -38t38.5 -120v-117q0 -82 -38.5 -120t-119.5 -38h-372v159h264q25 0 34.5 9.5t9.5 34.5v50q0 25 -9.5 34.5t-34.5 9.5h-244v109l134 117h-194q-36 0 -50 -14t-14 -50v-459h-222v498q0 104 49.5 153t152.5 49h608v-91z" />
    <glyph glyph-name="Ygrave" unicode="&#x1ef2;" horiz-adv-x="892" 
d="M441 864l90 -128h-172l-140 128h222zM643 700h257l-343 -446v-254h-222v254l-343 446h269l191 -267z" />
    <glyph glyph-name="ygrave" unicode="&#x1ef3;" horiz-adv-x="798" 
d="M394 700l90 -128h-172l-140 128h222zM402 206l165 330h232l-307 -533q-55 -97 -111 -130q-57 -33 -170 -33h-155v161h165q52 0 72 23l-294 512h240z" />
    <glyph glyph-name="endash" unicode="&#x2013;" horiz-adv-x="760" 
d="M36 263v174h688v-174h-688z" />
    <glyph glyph-name="emdash" unicode="&#x2014;" horiz-adv-x="1028" 
d="M36 263v174h956v-174h-956z" />
    <glyph glyph-name="quoteleft" unicode="&#x2018;" horiz-adv-x="338" 
d="M148 700h131l-66 -160h77v-204h-242v76q0 81 35 151z" />
    <glyph glyph-name="quoteright" unicode="&#x2019;" horiz-adv-x="338" 
d="M190 336h-131l66 160h-77v204h242v-76q0 -81 -35 -151z" />
    <glyph glyph-name="quotesinglbase" unicode="&#x201a;" horiz-adv-x="338" 
d="M190 -160h-131l66 160h-77v204h242v-76q0 -81 -35 -151z" />
    <glyph glyph-name="quotedblleft" unicode="&#x201c;" horiz-adv-x="652" 
d="M148 700h131l-66 -160h77v-204h-242v76q0 81 35 151zM462 700h131l-66 -160h77v-204h-242v76q0 81 35 151z" />
    <glyph glyph-name="quotedblright" unicode="&#x201d;" horiz-adv-x="652" 
d="M190 336h-131l66 160h-77v204h242v-76q0 -81 -35 -151zM504 336h-131l66 160h-77v204h242v-76q0 -81 -35 -151z" />
    <glyph glyph-name="quotedblbase" unicode="&#x201e;" horiz-adv-x="652" 
d="M190 -160h-131l66 160h-77v204h242v-76q0 -81 -35 -151zM504 -160h-131l66 160h-77v204h242v-76q0 -81 -35 -151z" />
    <glyph glyph-name="dagger" unicode="&#x2020;" horiz-adv-x="502" 
d="M316 585h152v-118h-152v-209h-130v209h-152v118h152v115h130v-115z" />
    <glyph glyph-name="daggerdbl" unicode="&#x2021;" horiz-adv-x="502" 
d="M468 594v-114h-152v-106h152v-114h-152v-106h-130v106h-152v114h152v106h-152v114h152v106h130v-106h152z" />
    <glyph glyph-name="bullet" unicode="&#x2022;" horiz-adv-x="460" 
d="M310 168h-160q-102 0 -102 102v160q0 53 25 77.5t77 24.5h160q52 0 77 -24.5t25 -77.5v-160q0 -102 -102 -102z" />
    <glyph glyph-name="perthousand" unicode="&#x2030;" horiz-adv-x="1404" 
d="M317 302h-178q-105 0 -105 105v108q0 105 105 105h178q105 0 105 -105v-108q0 -105 -105 -105zM239 0h-116l610 620h116zM178 399h100q18 0 25 7.5t7 24.5v60q0 18 -7 25t-25 7h-100q-17 0 -24.5 -7t-7.5 -25v-60q0 -17 7.5 -24.5t24.5 -7.5zM833 0h-178q-105 0 -105 105
v108q0 105 105 105h178q105 0 105 -105v-108q0 -105 -105 -105zM1265 0h-178q-105 0 -105 105v108q0 105 105 105h178q105 0 105 -105v-108q0 -105 -105 -105zM694 97h100q18 0 25 7.5t7 24.5v60q0 18 -7 25t-25 7h-100q-17 0 -24.5 -7t-7.5 -25v-60q0 -17 7.5 -24.5
t24.5 -7.5zM1126 97h100q18 0 25 7.5t7 24.5v60q0 18 -7 25t-25 7h-100q-17 0 -24.5 -7t-7.5 -25v-60q0 -17 7.5 -24.5t24.5 -7.5z" />
    <glyph glyph-name="guilsinglleft" unicode="&#x2039;" horiz-adv-x="532" 
d="M44 412l444 186v-160l-242 -86l242 -87v-163l-444 186v124z" />
    <glyph glyph-name="guilsinglright" unicode="&#x203a;" horiz-adv-x="532" 
d="M44 435v163l444 -186v-124l-444 -186v160l242 87z" />
    <glyph glyph-name="fraction" unicode="&#x2044;" horiz-adv-x="255" 
d="M-110 0h-119l593 700h120z" />
    <glyph glyph-name="Euro" unicode="&#x20ac;" horiz-adv-x="892" 
d="M846 498v-89h-206v66q0 36 -14 50t-50 14h-214q-36 0 -50 -14t-14 -50v-16h266v-83h-266v-52h266v-83h-266v-16q0 -36 14 -50t50 -14h214q36 0 50 14t14 50v73h206v-96q0 -104 -49.5 -153t-152.5 -49h-358q-103 0 -152.5 49t-49.5 153v39h-82v83h82v52h-82v83h82v39
q0 104 49.5 153t152.5 49h358q103 0 152.5 -49t49.5 -153z" />
    <glyph glyph-name="trademark" unicode="&#x2122;" horiz-adv-x="657" 
d="M118 632h-94v68h267v-68h-95v-165h-78v165zM474 578l93 122h66v-233h-74v122l-66 -86h-41l-66 86v-122h-73v233h69z" />
    <glyph glyph-name="minus" unicode="&#x2212;" 
d="M56 263v174h752v-174h-752z" />
    <glyph glyph-name="approxequal" unicode="&#x2248;" 
d="M441 618l135 -115q13 -11 27 -11h15q16 0 16 16v166h174v-210q0 -53 -22.5 -75.5t-75.5 -22.5h-148q-52 0 -80 11q-26 10 -59 46l-135 114q-13 11 -27 11h-15q-16 0 -16 -16v-166h-174v210q0 53 22.5 75.5t75.5 22.5h148q54 0 81 -10q25 -10 58 -46zM441 278l135 -115
q13 -11 27 -11h15q16 0 16 16v166h174v-210q0 -53 -22.5 -75.5t-75.5 -22.5h-148q-52 0 -80 11q-26 10 -59 46l-135 114q-13 11 -27 11h-15q-16 0 -16 -16v-166h-174v210q0 53 22.5 75.5t75.5 22.5h148q54 0 81 -10q25 -10 58 -46z" />
    <glyph glyph-name="notequal" unicode="&#x2260;" 
d="M808 565v-166h-275l-44 -98h319v-166h-394l-49 -107h-158l49 107h-200v166h275l44 98h-319v166h394l49 107h158l-49 -107h200z" />
    <glyph glyph-name="lessequal" unicode="&#x2264;" 
d="M56 524l752 168v-173l-474 -70l474 -70v-173l-752 168v150zM808 8h-752v150h752v-150z" />
    <glyph glyph-name="greaterequal" unicode="&#x2265;" 
d="M56 519v173l752 -168v-150l-752 -168v173l474 70zM808 8h-752v150h752v-150z" />
    <glyph glyph-name="fi" unicode="&#xfb01;" horiz-adv-x="925" 
d="M148 470v72q0 82 38.5 120t119.5 38h294v-152h-199q-25 0 -34.5 -9.5t-9.5 -34.5v-34h243v-158h-243v-312h-209v312h-136v158h136zM662 576v124h213v-124h-213zM875 0h-213v536h213v-536z" />
    <glyph glyph-name="fl" unicode="&#xfb02;" horiz-adv-x="925" 
d="M148 470v72q0 82 38.5 120t119.5 38h294v-152h-199q-25 0 -34.5 -9.5t-9.5 -34.5v-34h243v-158h-243v-312h-209v312h-136v158h136zM662 0v700h213v-700h-213z" />
    <glyph glyph-name="null" horiz-adv-x="0" 
 />
    <glyph glyph-name="A.ss01" horiz-adv-x="927" 
d="M245 700h437q103 0 152.5 -49t49.5 -153v-498h-222v167h-397v-167h-222v498q0 104 49.5 153t152.5 49zM265 453v-116h397v116q0 35 -14 49.5t-50 14.5h-269q-36 0 -50 -14.5t-14 -49.5z" />
    <glyph glyph-name="Aacute.ss01" horiz-adv-x="927" 
d="M471 864h222l-140 -128h-172zM245 700h437q103 0 152.5 -49t49.5 -153v-498h-222v167h-397v-167h-222v498q0 104 49.5 153t152.5 49zM265 453v-116h397v116q0 35 -14 49.5t-50 14.5h-269q-36 0 -50 -14.5t-14 -49.5z" />
    <glyph glyph-name="Abreve.ss01" horiz-adv-x="927" 
d="M612 736h-292q-75 0 -75 75v53h140v-24q0 -25 25 -25h112q25 0 25 25v24h140v-53q0 -75 -75 -75zM245 700h437q103 0 152.5 -49t49.5 -153v-498h-222v167h-397v-167h-222v498q0 104 49.5 153t152.5 49zM265 453v-116h397v116q0 35 -14 49.5t-50 14.5h-269
q-36 0 -50 -14.5t-14 -49.5z" />
    <glyph glyph-name="Acircumflex.ss01" horiz-adv-x="927" 
d="M551 736l-85 52l-85 -52h-150l132 128h206l132 -128h-150zM245 700h437q103 0 152.5 -49t49.5 -153v-498h-222v167h-397v-167h-222v498q0 104 49.5 153t152.5 49zM265 453v-116h397v116q0 35 -14 49.5t-50 14.5h-269q-36 0 -50 -14.5t-14 -49.5z" />
    <glyph glyph-name="Adieresis.ss01" horiz-adv-x="927" 
d="M268 856h161v-116h-161v116zM503 856h161v-116h-161v116zM245 700h437q103 0 152.5 -49t49.5 -153v-498h-222v167h-397v-167h-222v498q0 104 49.5 153t152.5 49zM265 453v-116h397v116q0 35 -14 49.5t-50 14.5h-269q-36 0 -50 -14.5t-14 -49.5z" />
    <glyph glyph-name="Agrave.ss01" horiz-adv-x="927" 
d="M461 864l90 -128h-172l-140 128h222zM245 700h437q103 0 152.5 -49t49.5 -153v-498h-222v167h-397v-167h-222v498q0 104 49.5 153t152.5 49zM265 453v-116h397v116q0 35 -14 49.5t-50 14.5h-269q-36 0 -50 -14.5t-14 -49.5z" />
    <glyph glyph-name="Amacron.ss01" horiz-adv-x="927" 
d="M238 848h456v-95h-456v95zM245 700h437q103 0 152.5 -49t49.5 -153v-498h-222v167h-397v-167h-222v498q0 104 49.5 153t152.5 49zM265 453v-116h397v116q0 35 -14 49.5t-50 14.5h-269q-36 0 -50 -14.5t-14 -49.5z" />
    <glyph glyph-name="Aogonek.ss01" horiz-adv-x="927" 
d="M733 -54h161v-106h-220q-84 0 -84 84v16q0 33 9.5 53t36.5 41l26 17v116h-397v-167h-222v498q0 104 49.5 153t152.5 49h437q103 0 152.5 -49t49.5 -153v-498h-149l-8 -6q-13 -9 -13 -22v-7q0 -19 19 -19zM265 453v-116h397v116q0 35 -14 49.5t-50 14.5h-269
q-36 0 -50 -14.5t-14 -49.5z" />
    <glyph glyph-name="Aring.ss01" horiz-adv-x="927" 
d="M574 726h-216q-29 0 -42 13t-13 42v28q0 29 13 42t42 13h216q29 0 42 -13t13 -42v-28q0 -29 -13 -42t-42 -13zM377 801v-12q0 -11 3.5 -14.5t13.5 -3.5h144q10 0 13.5 3.5t3.5 14.5v12q0 11 -3.5 14.5t-13.5 3.5h-144q-10 0 -13.5 -3.5t-3.5 -14.5zM245 700h437
q103 0 152.5 -49t49.5 -153v-498h-222v167h-397v-167h-222v498q0 104 49.5 153t152.5 49zM265 453v-116h397v116q0 35 -14 49.5t-50 14.5h-269q-36 0 -50 -14.5t-14 -49.5z" />
    <glyph glyph-name="Aringacute.ss01" horiz-adv-x="927" 
d="M628 700h54q103 0 152.5 -49t49.5 -153v-498h-222v167h-397v-167h-222v498q0 104 49.5 153t152.5 49h59q-1 3 -1 17v28q0 29 13 42t42 13h42l38 64h215l-65 -65q41 -5 41 -54v-28q0 -14 -1 -17zM377 737v-12q0 -11 3.5 -14.5t13.5 -3.5h144q10 0 13.5 3.5t3.5 14.5v12
q0 11 -3.5 14.5t-13.5 3.5h-144q-10 0 -13.5 -3.5t-3.5 -14.5zM265 453v-116h397v116q0 35 -14 49.5t-50 14.5h-269q-36 0 -50 -14.5t-14 -49.5z" />
    <glyph glyph-name="Atilde.ss01" horiz-adv-x="927" 
d="M364 789v-53h-116v79q0 49 49 49h151q23 0 35 -5t25 -21l26 -29q6 -6 13 -6h12q9 0 9 8v53h116v-79q0 -49 -49 -49h-151q-23 0 -35 5t-25 21l-26 30q-7 5 -13 5h-12q-9 0 -9 -8zM245 700h437q103 0 152.5 -49t49.5 -153v-498h-222v167h-397v-167h-222v498q0 104 49.5 153
t152.5 49zM265 453v-116h397v116q0 35 -14 49.5t-50 14.5h-269q-36 0 -50 -14.5t-14 -49.5z" />
    <glyph glyph-name="I.ss01" horiz-adv-x="666" 
d="M642 700v-166h-196v-368h196v-166h-618v166h196v368h-196v166h618z" />
    <glyph glyph-name="Iacute.ss01" horiz-adv-x="666" 
d="M338 864h222l-140 -128h-172zM642 700v-166h-196v-368h196v-166h-618v166h196v368h-196v166h618z" />
    <glyph glyph-name="Icircumflex.ss01" horiz-adv-x="666" 
d="M418 736l-85 52l-85 -52h-150l132 128h206l132 -128h-150zM642 700v-166h-196v-368h196v-166h-618v166h196v368h-196v166h618z" />
    <glyph glyph-name="Idieresis.ss01" horiz-adv-x="666" 
d="M135 856h161v-116h-161v116zM370 856h161v-116h-161v116zM642 700v-166h-196v-368h196v-166h-618v166h196v368h-196v166h618z" />
    <glyph glyph-name="Idotaccent.ss01" horiz-adv-x="666" 
d="M227 856h212v-116h-212v116zM642 700v-166h-196v-368h196v-166h-618v166h196v368h-196v166h618z" />
    <glyph glyph-name="Igrave.ss01" horiz-adv-x="666" 
d="M328 864l90 -128h-172l-140 128h222zM642 700v-166h-196v-368h196v-166h-618v166h196v368h-196v166h618z" />
    <glyph glyph-name="Imacron.ss01" horiz-adv-x="666" 
d="M105 848h456v-95h-456v95zM642 700v-166h-196v-368h196v-166h-618v166h196v368h-196v166h618z" />
    <glyph glyph-name="Iogonek.ss01" horiz-adv-x="666" 
d="M642 700v-166h-196v-368h196v-166h-159l-8 -6q-13 -9 -13 -22v-7q0 -19 19 -19h161v-106h-220q-84 0 -84 84v16q0 38 13 60h-327v166h196v368h-196v166h618z" />
    <glyph glyph-name="Itilde.ss01" horiz-adv-x="666" 
d="M231 789v-53h-116v79q0 49 49 49h151q23 0 35 -5t25 -21l26 -29q6 -6 13 -6h12q9 0 9 8v53h116v-79q0 -49 -49 -49h-151q-23 0 -35 5t-25 21l-26 30q-7 5 -13 5h-12q-9 0 -9 -8zM642 700v-166h-196v-368h196v-166h-618v166h196v368h-196v166h618z" />
    <glyph glyph-name="R.ss01" horiz-adv-x="897" 
d="M854 542v-106q0 -108 -80 -134q80 -26 80 -134v-168h-222v176q0 28 -10.5 38.5t-38.5 10.5h-313v-225h-222v700h648q81 0 119.5 -38t38.5 -120zM583 541h-313v-162h313q28 0 38.5 10.5t10.5 38.5v64q0 28 -10.5 38.5t-38.5 10.5z" />
    <glyph glyph-name="Racute.ss01" horiz-adv-x="897" 
d="M453 864h222l-140 -128h-172zM854 542v-106q0 -108 -80 -134q80 -26 80 -134v-168h-222v176q0 28 -10.5 38.5t-38.5 10.5h-313v-225h-222v700h648q81 0 119.5 -38t38.5 -120zM583 541h-313v-162h313q28 0 38.5 10.5t10.5 38.5v64q0 28 -10.5 38.5t-38.5 10.5z" />
    <glyph glyph-name="Rcaron.ss01" horiz-adv-x="897" 
d="M490 787l-132 26h2l-14 21l106 30l129 -22l-32 -55h-59zM854 542v-106q0 -108 -80 -134q80 -26 80 -134v-168h-222v176q0 28 -10.5 38.5t-38.5 10.5h-313v-225h-222v700h648q81 0 119.5 -38t38.5 -120zM583 541h-313v-162h313q28 0 38.5 10.5t10.5 38.5v64
q0 28 -10.5 38.5t-38.5 10.5z" />
    <glyph glyph-name="Rcommaaccent.ss01" horiz-adv-x="897" 
d="M854 542v-106q0 -108 -80 -134q80 -26 80 -134v-168h-222v176q0 28 -10.5 38.5t-38.5 10.5h-313v-225h-222v700h648q81 0 119.5 -38t38.5 -120zM583 541h-313v-162h313q28 0 38.5 10.5t10.5 38.5v64q0 28 -10.5 38.5t-38.5 10.5zM423 -138h-72v108h194v-36q0 -36 -6 -56
q-6 -19 -30 -52l-39 -58h-103z" />
    <glyph glyph-name="i.loclTRK" horiz-adv-x="313" 
d="M263 576h-212v116h212v-116zM263 0h-213v536h213v-536z" />
    <glyph glyph-name="uni0410.ss01" horiz-adv-x="932" 
d="M245 700h442q103 0 152.5 -49t49.5 -153v-498h-222v167h-402v-167h-222v498q0 104 49.5 153t152.5 49zM265 453v-116h402v116q0 35 -14 49.5t-50 14.5h-274q-36 0 -50 -14.5t-14 -49.5z" />
    <glyph glyph-name="uni042F.ss01" horiz-adv-x="897" 
d="M201 700h648v-700h-222v225h-313q-28 0 -38.5 -10.5t-10.5 -38.5v-176h-222v168q0 108 80 134q-80 26 -80 134v106q0 82 38.5 120t119.5 38zM265 492v-64q0 -28 10.5 -38.5t38.5 -10.5h313v162h-313q-28 0 -38.5 -10.5t-10.5 -38.5z" />
    <glyph glyph-name="uni044F.ss01" horiz-adv-x="784" 
d="M157 536h581v-536h-209v169h-258q-19 0 -26.5 -7.5t-7.5 -26.5v-135h-201v135q0 83 60 102q-60 19 -60 103v75q0 63 29.5 92t91.5 29zM245 371v-44q0 -19 7.5 -26.5t26.5 -7.5h250v111h-250q-19 0 -26.5 -7t-7.5 -26z" />
    <glyph glyph-name="zero.tf" 
d="M616 0h-368q-103 0 -152.5 49t-49.5 153v296q0 104 49.5 153t152.5 49h368q103 0 152.5 -49t49.5 -153v-296q0 -104 -49.5 -153t-152.5 -49zM324 177h216q36 0 50 14t14 50v218q0 36 -14 50t-50 14h-216q-36 0 -50 -14t-14 -50v-218q0 -36 14 -50t50 -14z" />
    <glyph glyph-name="one.tf" 
d="M562 700v-533h266v-167h-792v167h310v349l-280 -21v175l395 30h101z" />
    <glyph glyph-name="two.tf" 
d="M807 170v-170h-761v232q0 80 37 117.5t121 46.5l356 34q25 3 34.5 12.5t9.5 33.5v24q0 25 -9.5 34.5t-34.5 9.5h-250q-25 0 -34.5 -9.5t-9.5 -34.5v-29h-206v71q0 82 38.5 120t119.5 38h442q81 0 119.5 -38t38.5 -120v-94q0 -78 -37 -116.5t-121 -47.5l-356 -34
q-25 -3 -34.5 -12.5t-9.5 -33.5v-34h547z" />
    <glyph glyph-name="three.tf" 
d="M737 359q83 -24 83 -135v-66q0 -82 -38.5 -120t-119.5 -38h-460q-81 0 -119.5 38t-38.5 120v95h206v-50q0 -25 9.5 -34.5t34.5 -9.5h268q25 0 34.5 9.5t9.5 34.5v41q0 25 -9.5 34.5t-34.5 9.5h-223v138h213q25 0 34.5 9.5t9.5 34.5v27q0 25 -9.5 34.5t-34.5 9.5h-248
q-25 0 -34.5 -9.5t-9.5 -34.5v-42h-206v87q0 82 38.5 120t119.5 38h440q81 0 119.5 -38t38.5 -120v-51q0 -105 -73 -132z" />
    <glyph glyph-name="four.tf" 
d="M699 288h149v-158h-149v-130h-209v130h-474v133l436 437h247v-412zM490 535l-246 -247h246v247z" />
    <glyph glyph-name="five.tf" 
d="M660 0h-610v170h510q25 0 34.5 9.5t9.5 34.5v28q0 25 -9.5 34.5t-34.5 9.5h-510v414h738v-170h-524v-86h396q81 0 119.5 -38t38.5 -120v-128q0 -82 -38.5 -120t-119.5 -38z" />
    <glyph glyph-name="six.tf" 
d="M362 442h298q81 0 119.5 -38t38.5 -120v-126q0 -82 -38.5 -120t-119.5 -38h-456q-81 0 -119.5 38t-38.5 120v340q0 104 49.5 153t152.5 49h540v-170h-464q-36 0 -50 -14t-14 -50v-57q28 33 102 33zM604 203v48q0 25 -9.5 34.5t-34.5 9.5h-256q-25 0 -34.5 -9.5
t-9.5 -34.5v-48q0 -25 9.5 -34.5t34.5 -9.5h256q25 0 34.5 9.5t9.5 34.5z" />
    <glyph glyph-name="seven.tf" 
d="M36 517v183h792v-158l-288 -255q-30 -27 -40 -53.5t-10 -75.5v-158h-219v152q0 95 19 143q20 50 77 97l154 125h-485z" />
    <glyph glyph-name="eight.tf" 
d="M737 359q83 -24 83 -135v-66q0 -82 -38.5 -120t-119.5 -38h-460q-81 0 -119.5 38t-38.5 120v66q0 111 83 135q-73 27 -73 132v51q0 82 38.5 120t119.5 38h440q81 0 119.5 -38t38.5 -120v-51q0 -105 -73 -132zM268 500v-34q0 -25 9.5 -35t34.5 -10h240q25 0 34.5 10
t9.5 35v34q0 25 -9.5 35t-34.5 10h-240q-25 0 -34.5 -10t-9.5 -35zM606 200v49q0 25 -9.5 34.5t-34.5 9.5h-260q-25 0 -34.5 -9.5t-9.5 -34.5v-49q0 -25 9.5 -34.5t34.5 -9.5h260q25 0 34.5 9.5t9.5 34.5z" />
    <glyph glyph-name="nine.tf" 
d="M204 700h456q81 0 119.5 -38t38.5 -120v-340q0 -104 -49.5 -153t-152.5 -49h-540v168h464q36 0 50 14t14 50v53q-28 -33 -102 -33h-298q-81 0 -119.5 38t-38.5 120v132q0 82 38.5 120t119.5 38zM304 399h256q25 0 34.5 9.5t9.5 34.5v51q0 25 -9.5 34.5t-34.5 9.5h-256
q-25 0 -34.5 -9.5t-9.5 -34.5v-51q0 -25 9.5 -34.5t34.5 -9.5z" />
    <glyph glyph-name="zero.subs" horiz-adv-x="540" 
d="M381 -100h-222q-63 0 -93.5 30t-30.5 94v172q0 64 30.5 94t93.5 30h222q63 0 93.5 -30t30.5 -94v-172q0 -64 -30.5 -94t-93.5 -30zM209 17h122q18 0 25 7t7 25v122q0 18 -7 25t-25 7h-122q-18 0 -25 -7t-7 -25v-122q0 -18 7 -25t25 -7z" />
    <glyph glyph-name="one.subs" horiz-adv-x="502" 
d="M331 320v-310h148v-110h-456v110h165v188l-147 -12v116l221 18h69z" />
    <glyph glyph-name="two.subs" horiz-adv-x="540" 
d="M498 11v-111h-463v141q0 49 23 72.5t74 28.5l209 18q22 1 22 23v15q0 13 -4.5 17.5t-17.5 4.5h-139q-13 0 -18 -4.5t-5 -17.5v-19h-136v44q0 51 23.5 74t74.5 23h266q51 0 74.5 -23t23.5 -74v-53q0 -50 -22.5 -73.5t-74.5 -28.5l-209 -18q-13 -2 -17.5 -6.5t-4.5 -16.5
v-16h321z" />
    <glyph glyph-name="three.subs" horiz-adv-x="537" 
d="M452 114q53 -14 53 -82v-35q0 -51 -23.5 -74t-73.5 -23h-278q-51 0 -74.5 23t-23.5 74v59h137v-28q0 -13 4.5 -18t17.5 -5h150q13 0 17.5 4.5t4.5 18.5v19q0 13 -4.5 17.5t-17.5 4.5h-129v88h123q13 0 17.5 5t4.5 18v12q0 14 -4.5 18.5t-17.5 4.5h-138q-13 0 -17.5 -5
t-4.5 -18v-23h-137v54q0 51 23.5 74t74.5 23h266q50 0 73.5 -23t23.5 -74v-28q0 -64 -47 -81z" />
    <glyph glyph-name="four.subs" horiz-adv-x="556" 
d="M442 77h91v-104h-91v-73h-137v73h-282v87l260 260h159v-243zM305 205l-130 -128h130v128z" />
    <glyph glyph-name="five.subs" horiz-adv-x="521" 
d="M389 -100h-352v111h285q13 0 18 4.5t5 17.5v12q0 13 -5 17.5t-18 4.5h-285v253h431v-111h-290v-41h211q50 0 73.5 -23t23.5 -74v-74q0 -51 -23.5 -74t-73.5 -23z" />
    <glyph glyph-name="six.subs" horiz-adv-x="540" 
d="M238 166h169q50 0 74 -23.5t24 -73.5v-72q0 -51 -23.5 -74t-74.5 -23h-275q-50 0 -73.5 23t-23.5 74v199q0 64 30.5 94t93.5 30h328v-111h-278q-18 0 -25 -7t-7 -26v-28q17 18 61 18zM363 26v24q0 13 -4.5 18t-17.5 5h-142q-13 0 -17.5 -5t-4.5 -18v-24q0 -13 4.5 -17.5
t17.5 -4.5h142q13 0 17.5 4.5t4.5 17.5z" />
    <glyph glyph-name="seven.subs" horiz-adv-x="515" 
d="M491 320v-105h1l-168 -153q-15 -15 -20 -28t-5 -38v-96h-146v93q0 55 11 83q10 27 45 57l78 66h-264v121h468z" />
    <glyph glyph-name="eight.subs" horiz-adv-x="538" 
d="M453 114q53 -14 53 -82v-35q0 -51 -23.5 -74t-73.5 -23h-279q-50 0 -73.5 23t-23.5 74v35q0 68 53 82q-47 17 -47 81v28q0 51 23.5 74t73.5 23h267q50 0 73.5 -23t23.5 -74v-28q0 -64 -47 -81zM181 195v-18q0 -13 4.5 -18t17.5 -5h132q13 0 17.5 5t4.5 18v18
q0 13 -4.5 17.5t-17.5 4.5h-132q-13 0 -17.5 -4.5t-4.5 -17.5zM363 25v25q0 13 -4.5 17.5t-17.5 4.5h-144q-13 0 -17.5 -4.5t-4.5 -17.5v-25q0 -13 4.5 -17.5t17.5 -4.5h144q13 0 17.5 4.5t4.5 17.5z" />
    <glyph glyph-name="nine.subs" horiz-adv-x="540" 
d="M132 320h275q51 0 74.5 -23t23.5 -74v-199q0 -64 -30.5 -94t-93.5 -30h-328v110h278q18 0 25 7t7 25v27q-17 -18 -61 -18h-170q-50 0 -73.5 23.5t-23.5 73.5v75q0 51 23.5 74t73.5 23zM199 144h142q13 0 17.5 4.5t4.5 17.5v25q0 13 -4.5 17.5t-17.5 4.5h-142
q-13 0 -17.5 -4.5t-4.5 -17.5v-25q0 -13 4.5 -17.5t17.5 -4.5z" />
    <glyph glyph-name="zero.dnom" horiz-adv-x="540" 
d="M381 0h-222q-63 0 -93.5 30t-30.5 94v172q0 64 30.5 94t93.5 30h222q63 0 93.5 -30t30.5 -94v-172q0 -64 -30.5 -94t-93.5 -30zM209 117h122q18 0 25 7t7 25v122q0 18 -7 25t-25 7h-122q-18 0 -25 -7t-7 -25v-122q0 -18 7 -25t25 -7z" />
    <glyph glyph-name="one.dnom" horiz-adv-x="502" 
d="M331 420v-310h148v-110h-456v110h165v188l-147 -12v116l221 18h69z" />
    <glyph glyph-name="two.dnom" horiz-adv-x="540" 
d="M498 111v-111h-463v141q0 49 23 72.5t74 28.5l209 18q22 1 22 23v15q0 13 -4.5 17.5t-17.5 4.5h-139q-13 0 -18 -4.5t-5 -17.5v-19h-136v44q0 51 23.5 74t74.5 23h266q51 0 74.5 -23t23.5 -74v-53q0 -50 -22.5 -73.5t-74.5 -28.5l-209 -18q-13 -2 -17.5 -6.5t-4.5 -16.5
v-16h321z" />
    <glyph glyph-name="three.dnom" horiz-adv-x="537" 
d="M452 214q53 -14 53 -82v-35q0 -51 -23.5 -74t-73.5 -23h-278q-51 0 -74.5 23t-23.5 74v59h137v-28q0 -13 4.5 -18t17.5 -5h150q13 0 17.5 4.5t4.5 18.5v19q0 13 -4.5 17.5t-17.5 4.5h-129v88h123q13 0 17.5 5t4.5 18v12q0 14 -4.5 18.5t-17.5 4.5h-138q-13 0 -17.5 -5
t-4.5 -18v-23h-137v54q0 51 23.5 74t74.5 23h266q50 0 73.5 -23t23.5 -74v-28q0 -64 -47 -81z" />
    <glyph glyph-name="four.dnom" horiz-adv-x="556" 
d="M442 177h91v-104h-91v-73h-137v73h-282v87l260 260h159v-243zM305 305l-130 -128h130v128z" />
    <glyph glyph-name="five.dnom" horiz-adv-x="521" 
d="M389 0h-352v111h285q13 0 18 4.5t5 17.5v12q0 13 -5 17.5t-18 4.5h-285v253h431v-111h-290v-41h211q50 0 73.5 -23t23.5 -74v-74q0 -51 -23.5 -74t-73.5 -23z" />
    <glyph glyph-name="six.dnom" horiz-adv-x="540" 
d="M238 266h169q50 0 74 -23.5t24 -73.5v-72q0 -51 -23.5 -74t-74.5 -23h-275q-50 0 -73.5 23t-23.5 74v199q0 64 30.5 94t93.5 30h328v-111h-278q-18 0 -25 -7t-7 -26v-28q17 18 61 18zM363 126v24q0 13 -4.5 18t-17.5 5h-142q-13 0 -17.5 -5t-4.5 -18v-24q0 -13 4.5 -17.5
t17.5 -4.5h142q13 0 17.5 4.5t4.5 17.5z" />
    <glyph glyph-name="seven.dnom" horiz-adv-x="515" 
d="M491 420v-105h1l-168 -153q-15 -15 -20 -28t-5 -37v-97h-146v93q0 55 11 83q10 27 45 57l78 66h-264v121h468z" />
    <glyph glyph-name="eight.dnom" horiz-adv-x="538" 
d="M453 214q53 -14 53 -82v-35q0 -51 -23.5 -74t-73.5 -23h-279q-50 0 -73.5 23t-23.5 74v35q0 68 53 82q-47 17 -47 81v28q0 51 23.5 74t73.5 23h267q50 0 73.5 -23t23.5 -74v-28q0 -64 -47 -81zM181 295v-18q0 -13 4.5 -18t17.5 -5h132q13 0 17.5 5t4.5 18v18
q0 13 -4.5 17.5t-17.5 4.5h-132q-13 0 -17.5 -4.5t-4.5 -17.5zM363 125v25q0 13 -4.5 17.5t-17.5 4.5h-144q-13 0 -17.5 -4.5t-4.5 -17.5v-25q0 -13 4.5 -17.5t17.5 -4.5h144q13 0 17.5 4.5t4.5 17.5z" />
    <glyph glyph-name="nine.dnom" horiz-adv-x="540" 
d="M132 420h275q51 0 74.5 -23t23.5 -74v-199q0 -64 -30.5 -94t-93.5 -30h-328v110h278q18 0 25 7t7 25v27q-17 -18 -61 -18h-170q-50 0 -73.5 23.5t-23.5 73.5v75q0 51 23.5 74t73.5 23zM199 244h142q13 0 17.5 4.5t4.5 17.5v25q0 13 -4.5 17.5t-17.5 4.5h-142
q-13 0 -17.5 -4.5t-4.5 -17.5v-25q0 -13 4.5 -17.5t17.5 -4.5z" />
    <glyph glyph-name="zero.numr" horiz-adv-x="540" 
d="M381 280h-222q-63 0 -93.5 30t-30.5 94v172q0 64 30.5 94t93.5 30h222q63 0 93.5 -30t30.5 -94v-172q0 -64 -30.5 -94t-93.5 -30zM209 397h122q18 0 25 7t7 25v122q0 18 -7 25t-25 7h-122q-18 0 -25 -7t-7 -25v-122q0 -18 7 -25t25 -7z" />
    <glyph glyph-name="one.numr" horiz-adv-x="502" 
d="M331 700v-310h148v-110h-456v110h165v188l-147 -12v116l221 18h69z" />
    <glyph glyph-name="two.numr" horiz-adv-x="540" 
d="M498 391v-111h-463v141q0 49 23 72.5t74 28.5l209 18q22 1 22 23v15q0 13 -4.5 17.5t-17.5 4.5h-139q-13 0 -18 -4.5t-5 -17.5v-19h-136v44q0 51 23.5 74t74.5 23h266q51 0 74.5 -23t23.5 -74v-53q0 -50 -22.5 -73.5t-74.5 -28.5l-209 -18q-13 -2 -17.5 -6.5t-4.5 -16.5
v-16h321z" />
    <glyph glyph-name="three.numr" horiz-adv-x="537" 
d="M452 494q53 -14 53 -82v-35q0 -51 -23.5 -74t-73.5 -23h-278q-51 0 -74.5 23t-23.5 74v59h137v-28q0 -13 4.5 -18t17.5 -5h150q13 0 17.5 4.5t4.5 18.5v19q0 13 -4.5 17.5t-17.5 4.5h-129v88h123q13 0 17.5 5t4.5 18v12q0 14 -4.5 18.5t-17.5 4.5h-138q-13 0 -17.5 -5
t-4.5 -18v-23h-137v54q0 51 23.5 74t74.5 23h266q50 0 73.5 -23t23.5 -74v-28q0 -64 -47 -81z" />
    <glyph glyph-name="four.numr" horiz-adv-x="556" 
d="M442 457h91v-104h-91v-73h-137v73h-282v87l260 260h159v-243zM305 585l-130 -128h130v128z" />
    <glyph glyph-name="five.numr" horiz-adv-x="521" 
d="M389 280h-352v111h285q13 0 18 4.5t5 17.5v12q0 13 -5 17.5t-18 4.5h-285v253h431v-111h-290v-41h211q50 0 73.5 -23t23.5 -74v-74q0 -51 -23.5 -74t-73.5 -23z" />
    <glyph glyph-name="six.numr" horiz-adv-x="540" 
d="M238 546h169q50 0 74 -23.5t24 -73.5v-72q0 -51 -23.5 -74t-74.5 -23h-275q-50 0 -73.5 23t-23.5 74v199q0 64 30.5 94t93.5 30h328v-111h-278q-18 0 -25 -7t-7 -26v-28q17 18 61 18zM363 406v24q0 13 -4.5 18t-17.5 5h-142q-13 0 -17.5 -5t-4.5 -18v-24q0 -13 4.5 -17.5
t17.5 -4.5h142q13 0 17.5 4.5t4.5 17.5z" />
    <glyph glyph-name="seven.numr" horiz-adv-x="515" 
d="M491 700v-105h1l-168 -153q-15 -15 -20 -28t-5 -37v-97h-146v93q0 55 11 83q10 27 45 57l78 66h-264v121h468z" />
    <glyph glyph-name="eight.numr" horiz-adv-x="538" 
d="M453 494q53 -14 53 -82v-35q0 -51 -23.5 -74t-73.5 -23h-279q-50 0 -73.5 23t-23.5 74v35q0 68 53 82q-47 17 -47 81v28q0 51 23.5 74t73.5 23h267q50 0 73.5 -23t23.5 -74v-28q0 -64 -47 -81zM181 575v-18q0 -13 4.5 -18t17.5 -5h132q13 0 17.5 5t4.5 18v18
q0 13 -4.5 17.5t-17.5 4.5h-132q-13 0 -17.5 -4.5t-4.5 -17.5zM363 405v25q0 13 -4.5 17.5t-17.5 4.5h-144q-13 0 -17.5 -4.5t-4.5 -17.5v-25q0 -13 4.5 -17.5t17.5 -4.5h144q13 0 17.5 4.5t4.5 17.5z" />
    <glyph glyph-name="nine.numr" horiz-adv-x="540" 
d="M132 700h275q51 0 74.5 -23t23.5 -74v-199q0 -64 -30.5 -94t-93.5 -30h-328v110h278q18 0 25 7t7 25v27q-17 -18 -61 -18h-170q-50 0 -73.5 23.5t-23.5 73.5v75q0 51 23.5 74t73.5 23zM199 524h142q13 0 17.5 4.5t4.5 17.5v25q0 13 -4.5 17.5t-17.5 4.5h-142
q-13 0 -17.5 -4.5t-4.5 -17.5v-25q0 -13 4.5 -17.5t17.5 -4.5z" />
    <glyph glyph-name="zero.sups" horiz-adv-x="540" 
d="M381 380h-222q-63 0 -93.5 30t-30.5 94v172q0 64 30.5 94t93.5 30h222q63 0 93.5 -30t30.5 -94v-172q0 -64 -30.5 -94t-93.5 -30zM209 497h122q18 0 25 7t7 25v122q0 18 -7 25t-25 7h-122q-18 0 -25 -7t-7 -25v-122q0 -18 7 -25t25 -7z" />
    <glyph glyph-name="one.sups" horiz-adv-x="502" 
d="M331 800v-310h148v-110h-456v110h165v188l-147 -12v116l221 18h69z" />
    <glyph glyph-name="two.sups" horiz-adv-x="540" 
d="M498 491v-111h-463v141q0 49 23 72.5t74 28.5l209 18q22 1 22 23v15q0 13 -4.5 17.5t-17.5 4.5h-139q-13 0 -18 -4.5t-5 -17.5v-19h-136v44q0 51 23.5 74t74.5 23h266q51 0 74.5 -23t23.5 -74v-53q0 -50 -22.5 -73.5t-74.5 -28.5l-209 -18q-13 -2 -17.5 -6.5t-4.5 -16.5
v-16h321z" />
    <glyph glyph-name="three.sups" horiz-adv-x="537" 
d="M452 594q53 -14 53 -82v-35q0 -51 -23.5 -74t-73.5 -23h-278q-51 0 -74.5 23t-23.5 74v59h137v-28q0 -13 4.5 -18t17.5 -5h150q13 0 17.5 4.5t4.5 18.5v19q0 13 -4.5 17.5t-17.5 4.5h-129v88h123q13 0 17.5 5t4.5 18v12q0 14 -4.5 18.5t-17.5 4.5h-138q-13 0 -17.5 -5
t-4.5 -18v-23h-137v54q0 51 23.5 74t74.5 23h266q50 0 73.5 -23t23.5 -74v-28q0 -64 -47 -81z" />
    <glyph glyph-name="four.sups" horiz-adv-x="556" 
d="M442 557h91v-104h-91v-73h-137v73h-282v87l260 260h159v-243zM305 685l-130 -128h130v128z" />
    <glyph glyph-name="five.sups" horiz-adv-x="521" 
d="M389 380h-352v111h285q13 0 18 4.5t5 17.5v12q0 13 -5 17.5t-18 4.5h-285v253h431v-111h-290v-41h211q50 0 73.5 -23t23.5 -74v-74q0 -51 -23.5 -74t-73.5 -23z" />
    <glyph glyph-name="six.sups" horiz-adv-x="540" 
d="M238 646h169q50 0 74 -23.5t24 -73.5v-72q0 -51 -23.5 -74t-74.5 -23h-275q-50 0 -73.5 23t-23.5 74v199q0 64 30.5 94t93.5 30h328v-111h-278q-18 0 -25 -7t-7 -26v-28q17 18 61 18zM363 506v24q0 13 -4.5 18t-17.5 5h-142q-13 0 -17.5 -5t-4.5 -18v-24q0 -13 4.5 -17.5
t17.5 -4.5h142q13 0 17.5 4.5t4.5 17.5z" />
    <glyph glyph-name="seven.sups" horiz-adv-x="515" 
d="M491 800v-105h1l-168 -153q-15 -15 -20 -28t-5 -37v-97h-146v93q0 55 11 83q10 27 45 57l78 66h-264v121h468z" />
    <glyph glyph-name="eight.sups" horiz-adv-x="538" 
d="M453 594q53 -14 53 -82v-35q0 -51 -23.5 -74t-73.5 -23h-279q-50 0 -73.5 23t-23.5 74v35q0 68 53 82q-47 17 -47 81v28q0 51 23.5 74t73.5 23h267q50 0 73.5 -23t23.5 -74v-28q0 -64 -47 -81zM181 675v-18q0 -13 4.5 -18t17.5 -5h132q13 0 17.5 5t4.5 18v18
q0 13 -4.5 17.5t-17.5 4.5h-132q-13 0 -17.5 -4.5t-4.5 -17.5zM363 505v25q0 13 -4.5 17.5t-17.5 4.5h-144q-13 0 -17.5 -4.5t-4.5 -17.5v-25q0 -13 4.5 -17.5t17.5 -4.5h144q13 0 17.5 4.5t4.5 17.5z" />
    <glyph glyph-name="nine.sups" horiz-adv-x="540" 
d="M132 800h275q51 0 74.5 -23t23.5 -74v-199q0 -64 -30.5 -94t-93.5 -30h-328v110h278q18 0 25 7t7 25v27q-17 -18 -61 -18h-170q-50 0 -73.5 23.5t-23.5 73.5v75q0 51 23.5 74t73.5 23zM199 624h142q13 0 17.5 4.5t4.5 17.5v25q0 13 -4.5 17.5t-17.5 4.5h-142
q-13 0 -17.5 -4.5t-4.5 -17.5v-25q0 -13 4.5 -17.5t17.5 -4.5z" />
    <glyph glyph-name="numbersign.numr" horiz-adv-x="539" 
d="M510 610v-81h-89l-12 -78h75v-81h-88l-14 -90h-101l14 90h-89l-14 -90h-101l14 90h-75v81h88l12 78h-74v81h87l14 90h101l-14 -90h89l14 90h101l-14 -90h76zM219 451h89l12 78h-89z" />
    <glyph glyph-name="numbersign.tf" 
d="M824 543v-124h-144l-22 -138h123v-124h-142l-25 -157h-155l25 157h-164l-25 -157h-155l25 157h-125v124h144l22 138h-123v124h142l25 157h155l-25 -157h164l25 157h155l-25 -157h125zM339 281h164l22 138h-164z" />
    <glyph glyph-name="cent.numr" horiz-adv-x="540" 
d="M505 588v-39h-136v16q0 15 -6 20.5t-21 5.5h-139q-15 0 -20.5 -5.5t-5.5 -20.5v-80q0 -15 5.5 -21t20.5 -6h139q15 0 21 6t6 21v19h136v-42q0 -59 -26.5 -85.5t-85.5 -26.5h-77v-60h-90v60h-79q-59 0 -85.5 26.5t-26.5 85.5v126q0 59 26.5 85.5t85.5 26.5h79v60h90v-60
h77q59 0 85.5 -26.5t26.5 -85.5z" />
    <glyph glyph-name="dollar.numr" horiz-adv-x="539" 
d="M202 550l208 -14q52 -4 74.5 -25.5t22.5 -71.5v-62q0 -51 -23.5 -74t-74.5 -23h-95v-60h-89v60h-96q-50 0 -73.5 23t-23.5 74v41h136v-18q0 -24 23 -24h152q13 0 17.5 5t4.5 19v13q0 13 -4.5 17t-17.5 5l-207 15q-53 4 -75.5 25.5t-22.5 71.5v56q0 51 23.5 74t73.5 23h90
v60h89v-60h87q50 0 73.5 -23t23.5 -74v-36h-135v13q0 14 -5.5 19t-18.5 5h-137q-13 0 -17.5 -5t-4.5 -19v-8q0 -12 4.5 -16t17.5 -6z" />
    <glyph glyph-name="Euro.numr" horiz-adv-x="557" 
d="M523 576v-56h-137v41q0 19 -7 26t-25 7h-121q-19 0 -26 -7t-7 -26v-4h146v-54h-146v-26h146v-54h-146v-4q0 -19 7 -26t26 -7h121q18 0 25 7t7 26v45h137v-60q0 -64 -30.5 -94t-93.5 -30h-217q-63 0 -93.5 30t-30.5 94v19h-47v54h47v26h-47v54h47v19q0 64 30.5 94t93.5 30
h217q63 0 93.5 -30t30.5 -94z" />
    <glyph glyph-name="florin.numr" horiz-adv-x="490" 
d="M461 583h-98q-19 0 -26 -6.5t-9 -25.5l-5 -53h126v-88h-135l-10 -103q-7 -66 -35.5 -94.5t-90.5 -28.5h-149v117h98q18 0 25.5 7t9.5 26l8 76h-129v88h138l8 78q7 66 35.5 95t89.5 29h149v-117z" />
    <glyph glyph-name="sterling.numr" horiz-adv-x="555" 
d="M521 576v-44h-137v29q0 19 -7 26t-26 7h-120q-15 0 -21 -7.5t-6 -25.5v-28h140v-74h-140v-68h158q13 0 17.5 5t4.5 18v36h137v-73q0 -51 -23.5 -74t-74.5 -23h-406v111h45v68h-51v74h51v43q0 64 30.5 94t93.5 30h211q63 0 93.5 -30t30.5 -94z" />
    <glyph glyph-name="yen.numr" horiz-adv-x="538" 
d="M358 700h163l-152 -219h134v-59h-163v-32h163v-59h-163v-51h-142v51h-163v59h163v32h-163v59h134l-152 219h170l86 -141z" />
    <glyph glyph-name="cent.tf" 
d="M818 518v-60h-206v24q0 31 -11.5 42.5t-42.5 11.5h-244q-31 0 -42.5 -11.5t-11.5 -42.5v-134q0 -31 11.5 -42.5t42.5 -11.5h244q31 0 42.5 11.5t11.5 42.5v29h206v-65q0 -96 -43 -139t-139 -43h-134v-100h-136v100h-138q-96 0 -139 43t-43 139v206q0 96 43 139t139 43
h138v100h136v-100h134q96 0 139 -43t43 -139z" />
    <glyph glyph-name="dollar.tf" 
d="M310 447l354 -25q84 -6 121 -42t37 -116v-106q0 -82 -38.5 -120t-119.5 -38h-164v-100h-136v100h-164q-81 0 -119.5 38t-38.5 120v67h206v-30q0 -25 9.5 -34.5t34.5 -9.5h272q25 0 34.5 9.5t9.5 34.5v27q0 24 -9.5 33t-34.5 11l-354 25q-84 7 -121 43t-37 115v93
q0 82 38.5 120t119.5 38h154v100h136v-100h150q81 0 119.5 -38t38.5 -120v-57h-206v20q0 25 -9.5 34.5t-34.5 9.5h-248q-25 0 -34.5 -9.5t-9.5 -34.5v-14q0 -24 9.5 -33t34.5 -11z" />
    <glyph glyph-name="Euro.tf" 
d="M818 498v-89h-206v66q0 36 -14 50t-50 14h-204q-36 0 -50 -14t-14 -50v-16h256v-83h-256v-52h256v-83h-256v-16q0 -36 14 -50t50 -14h204q36 0 50 14t14 50v73h206v-96q0 -104 -49.5 -153t-152.5 -49h-348q-103 0 -152.5 49t-49.5 153v39h-64v83h64v52h-64v83h64v39
q0 104 49.5 153t152.5 49h348q103 0 152.5 -49t49.5 -153z" />
    <glyph glyph-name="florin.tf" 
d="M808 523h-180q-35 0 -49 -13.5t-18 -50.5l-11 -101h238v-136h-252l-19 -180q-11 -107 -58 -154.5t-147 -47.5h-256v177h180q35 0 49 13.5t18 50.5l15 141h-242v136h256l15 140q11 107 58 154.5t147 47.5h256v-177z" />
    <glyph glyph-name="sterling.tf" 
d="M818 498v-71h-206v48q0 36 -14 50t-50 14h-202q-30 0 -43 -14t-13 -50v-60h246v-113h-246v-133h278q25 0 34.5 9.5t9.5 34.5v61h206v-116q0 -82 -38.5 -120t-119.5 -38h-648v169h64v133h-74v113h74v83q0 104 49.5 153t152.5 49h338q103 0 152.5 -49t49.5 -153z" />
    <glyph glyph-name="yen.tf" 
d="M602 700h246l-262 -370h232v-92h-279v-60h279v-92h-279v-86h-214v86h-279v92h279v60h-279v92h232l-262 370h257l165 -261z" />
    <glyph glyph-name="percent.numr" horiz-adv-x="605" 
d="M211 503h-119q-63 0 -63 63v71q0 63 63 63h119q63 0 63 -63v-71q0 -63 -63 -63zM151 280h-73l375 420h74zM119 565h67q15 0 15 16v40q0 10 -3 12.5t-12 2.5h-67q-16 0 -16 -15v-40q0 -16 16 -16zM513 280h-120q-63 0 -63 63v71q0 63 63 63h120q62 0 62 -63v-71
q0 -63 -62 -63zM419 344h67q16 0 16 15v40q0 16 -16 16h-67q-15 0 -15 -16v-40q0 -9 3 -12t12 -3z" />
    <glyph glyph-name="perthousand.numr" horiz-adv-x="875" 
d="M211 503h-119q-63 0 -63 63v71q0 63 63 63h119q63 0 63 -63v-71q0 -63 -63 -63zM151 280h-73l375 420h74zM119 565h67q15 0 15 16v40q0 10 -3 12.5t-12 2.5h-67q-16 0 -16 -15v-40q0 -16 16 -16zM513 280h-120q-63 0 -63 63v71q0 63 63 63h120q62 0 62 -63v-71
q0 -63 -62 -63zM783 280h-119q-63 0 -63 63v71q0 63 63 63h119q63 0 63 -63v-71q0 -63 -63 -63zM419 344h67q16 0 16 15v40q0 16 -16 16h-67q-15 0 -15 -16v-40q0 -9 3 -12t12 -3zM690 344h67q16 0 16 15v40q0 16 -16 16h-67q-16 0 -16 -16v-40q0 -15 16 -15z" />
    <glyph glyph-name="percent.tf" horiz-adv-x="972" 
d="M327 372h-188q-105 0 -105 105v118q0 105 105 105h188q105 0 105 -105v-118q0 -105 -105 -105zM233 0h-116l622 700h116zM178 469h110q18 0 25 7.5t7 24.5v70q0 18 -7 25t-25 7h-110q-17 0 -24.5 -7t-7.5 -25v-70q0 -17 7.5 -24.5t24.5 -7.5zM833 0h-188q-105 0 -105 105
v118q0 105 105 105h188q105 0 105 -105v-118q0 -105 -105 -105zM684 97h110q18 0 25 7.5t7 24.5v70q0 18 -7 25t-25 7h-110q-17 0 -24.5 -7t-7.5 -25v-70q0 -17 7.5 -24.5t24.5 -7.5z" />
    <glyph glyph-name="perthousand.tf" horiz-adv-x="1414" 
d="M327 372h-188q-105 0 -105 105v118q0 105 105 105h188q105 0 105 -105v-118q0 -105 -105 -105zM233 0h-116l622 700h116zM178 469h110q18 0 25 7.5t7 24.5v70q0 18 -7 25t-25 7h-110q-17 0 -24.5 -7t-7.5 -25v-70q0 -17 7.5 -24.5t24.5 -7.5zM833 0h-188q-105 0 -105 105
v118q0 105 105 105h188q105 0 105 -105v-118q0 -105 -105 -105zM1275 0h-188q-105 0 -105 105v118q0 105 105 105h188q105 0 105 -105v-118q0 -105 -105 -105zM684 97h110q18 0 25 7.5t7 24.5v70q0 18 -7 25t-25 7h-110q-17 0 -24.5 -7t-7.5 -25v-70q0 -17 7.5 -24.5
t24.5 -7.5zM1126 97h110q18 0 25 7.5t7 24.5v70q0 18 -7 25t-25 7h-110q-17 0 -24.5 -7t-7.5 -25v-70q0 -17 7.5 -24.5t24.5 -7.5z" />
    <glyph glyph-name="brevecombcy" horiz-adv-x="0" 
d="M-123 572h-292q-75 0 -75 75v53h140v-24q0 -25 25 -25h112q25 0 25 25v24h140v-53q0 -75 -75 -75z" />
    <glyph glyph-name="ringacutecomb" horiz-adv-x="414" 
d="M394 700l-65 -65q41 -5 41 -54v-28q0 -29 -13 -42t-42 -13h-216q-29 0 -42 13t-13 42v28q0 29 13 42t42 13h42l38 64h215zM296 561v12q0 11 -3.5 14.5t-13.5 3.5h-144q-10 0 -13.5 -3.5t-3.5 -14.5v-12q0 -11 3.5 -14.5t13.5 -3.5h144q10 0 13.5 3.5t3.5 14.5z" />
    </font>
</defs>
</svg>
