<?xml version="1.0" standalone="no"?>
<!DOCTYPE svg PUBLIC "-//W3C//DTD SVG 1.1//EN" "http://www.w3.org/Graphics/SVG/1.1/DTD/svg11.dtd" >
<svg xmlns="http://www.w3.org/2000/svg" xmlns:xlink="http://www.w3.org/1999/xlink" version="1.1">
<metadata>
Created by FontForge 20170731 at Thu Jun 30 17:45:17 2016
 By Aleksey,,,
@ 2016 Richard Miller
</metadata>
<defs>
<font id="TacticSansExtExd-BldIt" horiz-adv-x="1032" >
  <font-face 
    font-family="TacticSansExtExd-BldIt"
    font-weight="400"
    font-style="italic"
    font-stretch="extra-expanded"
    units-per-em="1000"
    panose-1="0 0 8 7 0 0 0 0 0 0"
    ascent="814"
    descent="-186"
    x-height="532"
    cap-height="700"
    bbox="-897 -214 1873 868"
    underline-thickness="50"
    underline-position="-200"
    slope="-10"
    unicode-range="U+0020-FB02"
  />
<missing-glyph horiz-adv-x="720" 
d="M-37 0l124 700h700l-124 -700h-700zM274 350l-199 -169l88 -107l199 169l139 -169l126 107l-139 169l199 169l-88 107l-199 -169l-139 169l-126 -107z" />
    <glyph glyph-name="ellipsis" unicode="&#x2e;&#x2e;&#x2e;" horiz-adv-x="1060" 
d="M213 0h-204l34 192h204zM585 0h-204l34 192h204zM957 0h-204l34 192h204z" />
    <glyph glyph-name="blackbox.liga" unicode="[&#x2b;]" horiz-adv-x="940" 
d="M120 0v700h700v-700h-700z" />
    <glyph glyph-name="checkbox.liga" unicode="[]" horiz-adv-x="940" 
d="M120 0v700h700v-700h-700zM736 619h-532v-538h532v538z" />
    <glyph glyph-name="checkround.liga" unicode="&#x28;&#x29;" horiz-adv-x="940" 
d="M726 95q-105 -105 -256 -105q-152 0 -255 105q-105 103 -105 255q0 151 105 256q104 104 255 104q150 0 256 -104q104 -106 104 -256q0 -151 -104 -255zM274 152q80 -81 196 -81t196 81q80 82 80 198t-80 198q-80 81 -196 81t-196 -81q-80 -82 -80 -198t80 -198z" />
    <glyph glyph-name="checkstar.liga" unicode="&#x7b;&#x7d;" horiz-adv-x="940" 
d="M378 437l92 283l92 -283h297l-240 -174l91 -283l-240 175l-240 -175l91 283l-240 174h297zM516 373l-46 141l-46 -141h-147l119 -86l-45 -140l119 86l119 -86l-46 140l120 86h-147z" />
    <glyph glyph-name="blackround.liga" unicode="&#x28;&#x2b;&#x29;" horiz-adv-x="940" 
d="M726 95q-105 -105 -256 -105q-152 0 -255 105q-105 103 -105 255q0 151 105 256q104 104 255 104q150 0 256 -104q104 -106 104 -256q0 -151 -104 -255z" />
    <glyph glyph-name="filledstar.liga" unicode="&#x7b;&#x2b;&#x7d;" horiz-adv-x="940" 
d="M378 437l92 283l92 -283h297l-240 -174l91 -283l-240 175l-240 -175l91 283l-240 174h297z" />
    <glyph glyph-name="ff.liga" unicode="ff" horiz-adv-x="1388" 
d="M1429 580h-321q-31 0 -44 -11.5t-18 -42.5l-10 -59h374l-23 -127h-374l-60 -340h-174l60 340h-436l-60 -340h-174l60 340h-202l23 127h201l16 91q14 78 52.5 110t115.5 32h358l-22 -120h-273q-31 0 -44 -11.5t-18 -42.5l-10 -59h435l16 91q14 78 52.5 110t115.5 32h406z
" />
    <glyph glyph-name=".notdef" horiz-adv-x="720" 
d="M-37 0l124 700h700l-124 -700h-700zM274 350l-199 -169l88 -107l199 169l139 -169l126 107l-139 169l199 169l-88 107l-199 -169l-139 169l-126 -107z" />
    <glyph glyph-name=".null" horiz-adv-x="0" 
 />
    <glyph glyph-name="nonmarkingreturn" horiz-adv-x="333" 
 />
    <glyph glyph-name="space" unicode=" " horiz-adv-x="300" 
 />
    <glyph glyph-name="exclam" unicode="!" horiz-adv-x="316" 
d="M85 226l50 474h199l-116 -474h-133zM214 0h-204l28 162h204z" />
    <glyph glyph-name="quotedbl" unicode="&#x22;" horiz-adv-x="492" 
d="M75 372l58 328h147l-57 -328h-148zM307 372l58 328h147l-57 -328h-148z" />
    <glyph glyph-name="numbersign" unicode="#" 
d="M1007 480l-18 -102h-197l-24 -136h196l-18 -102h-196l-25 -140h-135l25 140h-243l-25 -140h-134l25 140h-197l18 102h197l24 136h-197l18 102h197l25 140h134l-25 -140h243l25 140h135l-25 -140h197zM390 242h243l24 136h-243z" />
    <glyph glyph-name="dollar" unicode="$" 
d="M650 700h234q155 0 129 -158l-7 -44h-172l2 13q4 31 -7 43.5t-43 12.5h-442q-30 0 -43.5 -12.5t-18.5 -43.5l-2 -13q-5 -32 3 -43.5t35 -12.5l529 -28q79 -4 111.5 -42.5t18.5 -115.5l-20 -114q-13 -78 -51 -110t-116 -32h-262l-18 -100h-119l18 100h-247
q-76 0 -109 40.5t-20 117.5l9 56h172l-4 -25q-5 -30 6.5 -43t43.5 -13h466q31 0 44 12t18 44l5 31q5 33 -2.5 45t-35.5 13l-529 28q-79 4 -111.5 42t-18.5 114l17 96q13 78 51 110t116 32h251l18 100h119z" />
    <glyph glyph-name="percent" unicode="%" horiz-adv-x="1140" 
d="M542 509l-18 -106q-9 -53 -36.5 -76t-80.5 -23h-252q-53 0 -76 28.5t-14 82.5l18 106q9 54 36 76.5t81 22.5h252q108 0 90 -111zM203 0h-124l874 620h123zM202 386h180q23 0 33 8.5t15 31.5l12 69q4 23 -5 33t-32 10h-180q-23 0 -33 -8.5t-14 -31.5l-12 -69
q-9 -43 36 -43zM956 0h-252q-53 0 -76.5 29t-14.5 82l18 106q9 54 36 76.5t81 22.5h252q53 0 76.5 -28.5t14.5 -82.5l-19 -106q-9 -53 -36 -76t-80 -23zM750 82h180q23 0 33 8.5t15 31.5l12 69q4 23 -5 33t-32 10h-180q-23 0 -33 -8.5t-14 -31.5l-12 -69q-9 -43 36 -43z" />
    <glyph glyph-name="ampersand" unicode="&#x26;" horiz-adv-x="1154" 
d="M338 417h827l-19 -113h-120l-29 -163q-13 -78 -50.5 -109.5t-115.5 -31.5h-673q-77 0 -110.5 41t-20.5 119l14 80q11 64 39 93.5t83 34.5q-65 35 -47 132l11 59q14 78 51 109.5t115 31.5h613q77 0 110.5 -41t20.5 -119l-7 -42h-172l3 19q5 32 -6.5 45.5t-42.5 13.5h-452
q-31 0 -44 -11t-18 -43l-8 -47q-5 -31 6 -44.5t42 -13.5zM832 178l22 126h-571q-31 0 -44.5 -11t-18.5 -43l-11 -67q-5 -32 6.5 -45.5t42.5 -13.5h512q31 0 44 11t18 43z" />
    <glyph glyph-name="quotesingle" unicode="'" horiz-adv-x="260" 
d="M75 372l58 328h147l-57 -328h-148z" />
    <glyph glyph-name="parenleft" unicode="(" horiz-adv-x="624" 
d="M532 -100h-287q-118 0 -174 67t-35 186l75 420q21 120 83.5 173.5t182.5 53.5h313l-22 -128h-274q-58 0 -88.5 -26.5t-40.5 -83.5l-74 -414q-10 -58 15.5 -89t83.5 -31h264z" />
    <glyph glyph-name="parenright" unicode=")" horiz-adv-x="624" 
d="M122 800h287q118 0 174 -67t35 -186l-75 -420q-21 -120 -83.5 -173.5t-182.5 -53.5h-313l22 128h274q58 0 88.5 26.5t40.5 83.5l74 414q10 58 -15.5 89t-83.5 31h-264z" />
    <glyph glyph-name="asterisk" unicode="*" horiz-adv-x="468" 
d="M456 588l15 -100l-133 -8l67 -115l-90 -44l-50 124l-88 -99l-70 71l102 85l-121 54l47 88l112 -70l14 132l98 -17l-32 -129z" />
    <glyph glyph-name="plus" unicode="+" 
d="M622 420h375l-24 -140h-376l-42 -236h-157l42 236h-375l24 140h375l42 236h158z" />
    <glyph glyph-name="comma" unicode="," horiz-adv-x="316" 
d="M100 -160h-120l87 160h-58l34 192h204l-15 -90q-14 -70 -50 -123z" />
    <glyph glyph-name="hyphen" unicode="-" horiz-adv-x="660" 
d="M45 280l24 140h576l-24 -140h-576z" />
    <glyph glyph-name="period" unicode="." horiz-adv-x="316" 
d="M213 0h-204l34 192h204z" />
    <glyph glyph-name="slash" unicode="/" horiz-adv-x="591" 
d="M-60 -100l623 900h118l-623 -900h-118z" />
    <glyph glyph-name="zero" unicode="0" 
d="M745 0h-532q-99 0 -142.5 52.5t-25.5 151.5l56 312q18 100 67.5 142t148.5 42h532q99 0 142.5 -52.5t25.5 -151.5l-56 -312q-18 -100 -67.5 -142t-148.5 -42zM299 142h398q46 0 65.5 17t27.5 63l44 251q7 46 -9.5 65.5t-61.5 19.5h-399q-45 0 -65 -17t-27 -63l-44 -251
q-8 -46 8.5 -65.5t62.5 -19.5z" />
    <glyph glyph-name="one" unicode="1" horiz-adv-x="972" 
d="M682 700l-100 -566h335l-24 -134h-908l24 134h394l74 420l-369 -24l25 140l465 30h84z" />
    <glyph glyph-name="two" unicode="2" 
d="M941 140l-25 -140h-907l41 237q14 77 50 109q35 31 117 37l554 41q30 2 42.5 13.5t19.5 42.5l6 27q14 59 -50 59h-442q-31 0 -43.5 -10.5t-17.5 -42.5l-5 -29h-172l12 76q13 77 50.5 108.5t115.5 31.5h603q77 0 111 -41t21 -120l-16 -98q-13 -76 -49.5 -108t-117.5 -38
l-555 -41q-31 -2 -44 -13.5t-18 -42.5l-10 -58h729z" />
    <glyph glyph-name="three" unicode="3" 
d="M282 700h602q77 0 111 -41t20 -119l-11 -60q-11 -56 -32 -84t-60 -38q75 -31 57 -137l-14 -80q-13 -78 -50.5 -109.5t-115.5 -31.5h-622q-77 0 -110.5 41t-20.5 119l13 80h172l-8 -51q-5 -31 6 -45t42 -14h461q32 0 45 11.5t18 42.5l9 58q5 32 -6 45t-42 13h-379l21 120
h375q31 0 44 11.5t18 42.5l6 37q5 32 -6 45.5t-42 13.5h-441q-31 0 -44 -11t-18 -43l-8 -48h-172l16 91q13 78 50.5 109.5t115.5 31.5z" />
    <glyph glyph-name="four" unicode="4" horiz-adv-x="1062" 
d="M824 274h208l-23 -127h-208l-26 -147h-178l26 147h-612l19 107l659 446h210zM698 572l-439 -298h386z" />
    <glyph glyph-name="five" unicode="5" horiz-adv-x="1002" 
d="M759 0h-746l25 140h656q31 0 43 10.5t18 42.5l9 50q6 31 -5.5 45t-43.5 14h-648l70 398h856l-26 -140h-678l-20 -122h547q76 0 110 -41.5t21 -119.5l-23 -137q-13 -77 -50 -108.5t-115 -31.5z" />
    <glyph glyph-name="six" unicode="6" 
d="M996 560h-634q-45 0 -64.5 -17t-27.5 -62l-13 -74q35 33 108 33h481q77 0 110.5 -41t20.5 -119l-24 -139q-13 -78 -50.5 -109.5t-115.5 -31.5h-620q-77 0 -110 41t-20 119l62 356q17 100 67 142t149 42h706zM745 308h-450q-29 0 -42.5 -9.5t-20.5 -34.5l-12 -72
q-5 -31 6 -44.5t43 -13.5h452q31 0 44 11t18 42l10 63q5 31 -6 44.5t-42 13.5z" />
    <glyph glyph-name="seven" unicode="7" horiz-adv-x="992" 
d="M83 554l26 146h928l-23 -126l-397 -254q-47 -30 -68 -64q-21 -33 -31 -94l-29 -162h-182l30 170q18 100 49 148q30 49 104 93l240 143h-647z" />
    <glyph glyph-name="eight" unicode="8" 
d="M281 700h603q77 0 111 -41t20 -119l-11 -60q-11 -56 -32 -84t-60 -38q75 -31 57 -137l-14 -80q-13 -78 -50.5 -109.5t-115.5 -31.5h-623q-77 0 -110 41t-20 119l13 80q10 59 35 88.5t72 37.5q-69 32 -51 134l10 59q13 78 50.5 109.5t115.5 31.5zM287 520l-9 -45
q-6 -31 5.5 -44.5t43.5 -13.5h435q31 0 44.5 11t18.5 42l8 45q5 31 -6 44.5t-43 13.5h-436q-30 0 -42.5 -11t-18.5 -42zM783 180l12 66q5 31 -6 44.5t-42 13.5h-455q-31 0 -44 -11t-19 -43l-12 -65q-6 -31 5.5 -44.5t43.5 -13.5h455q31 0 44 11t18 42z" />
    <glyph glyph-name="nine" unicode="9" 
d="M273 700h620q77 0 110.5 -41t20.5 -119l-63 -356q-18 -100 -67.5 -142t-148.5 -42h-707l25 140h635q44 0 64 17t28 62l12 68q-34 -33 -108 -33h-482q-77 0 -111 41t-20 119l26 145q14 78 51 109.5t115 31.5zM313 386h451q28 0 42.5 9.5t20.5 32.5l14 79q5 32 -6.5 45.5
t-42.5 13.5h-453q-31 0 -43.5 -11t-18.5 -43l-12 -67q-12 -59 48 -59z" />
    <glyph glyph-name="colon" unicode=":" horiz-adv-x="316" 
d="M277 364h-203l29 168h204zM213 0h-204l30 168h203z" />
    <glyph glyph-name="semicolon" unicode=";" horiz-adv-x="316" 
d="M277 364h-204l30 168h204zM100 -160h-120l86 160h-57l30 168h204l-11 -66q-14 -70 -50 -123z" />
    <glyph glyph-name="less" unicode="&#x3c;" 
d="M91 430l949 232l-27 -157l-677 -153l621 -167l-27 -147l-863 252z" />
    <glyph glyph-name="equal" unicode="=" 
d="M88 412l23 134h908l-23 -134h-908zM43 154l23 134h908l-23 -134h-908z" />
    <glyph glyph-name="greater" unicode="&#x3e;" 
d="M105 515l27 147l863 -252l-24 -140l-949 -232l27 157l677 153z" />
    <glyph glyph-name="question" unicode="?" horiz-adv-x="990" 
d="M538 208h-167l15 80q14 67 41 94q26 26 96 34l232 22q28 3 41.5 15.5t18.5 39.5l3 17q11 56 -48 56h-458q-29 0 -41.5 -11t-17.5 -41l-7 -38h-172l14 83q13 78 50 109.5t115 31.5h616q77 0 110.5 -40.5t20.5 -118.5l-11 -68q-12 -71 -50.5 -106t-115.5 -42l-226 -21
q-26 -2 -36.5 -13.5t-15.5 -41.5zM520 0h-204l26 144h204z" />
    <glyph glyph-name="at" unicode="@" horiz-adv-x="1190" 
d="M305 700h707q99 0 143.5 -54t27.5 -154l-36 -202q-11 -66 -43 -93t-98 -27h-91q-72 0 -91 49l-4 -3q-41 -32 -68 -39q-28 -9 -79 -9h-308q-123 0 -101 124l22 122q11 64 42.5 91t93.5 27h307q48 0 75 -8q25 -9 53 -37l17 40h107l-41 -234q-7 -39 29 -39h21q28 0 39 9
t16 36l34 194q11 65 -12.5 94t-88.5 29h-655q-64 0 -92 -23q-27 -23 -38 -88l-52 -298q-11 -65 12.5 -94t88.5 -29h805l-15 -84h-824q-99 0 -144 54t-27 154l55 311q18 101 66 141q47 40 147 40zM793 278l21 14l20 117l-15 14q-19 18 -68 18h-292q-26 0 -36 -9t-15 -36
l-15 -89q-5 -28 2.5 -38t34.5 -10h293q44 0 70 19z" />
    <glyph glyph-name="A" unicode="A" horiz-adv-x="1132" 
d="M1091 0h-203l-62 135h-551l-111 -135h-217l593 700h205zM627 565l-238 -290h372z" />
    <glyph glyph-name="B" unicode="B" horiz-adv-x="1080" 
d="M129 700h804q75 0 108.5 -41t20.5 -117l-10 -60q-9 -54 -29.5 -83t-57.5 -39q79 -28 61 -137l-14 -81q-13 -78 -51 -110t-116 -32h-840zM824 568h-535l-26 -150h541q31 0 43.5 11t18.5 43l7 37q12 59 -49 59zM836 186l11 58q12 59 -49 59h-555l-30 -171h561q31 0 43.5 11
t18.5 43z" />
    <glyph glyph-name="C" unicode="C" horiz-adv-x="1088" 
d="M812 0h-608q-99 0 -142.5 52.5t-25.5 151.5l56 312q18 100 67.5 142t148.5 42h608q99 0 142 -52.5t26 -151.5l-13 -72h-178l8 46q8 46 -8.5 66t-61.5 20h-469q-45 0 -65.5 -17.5t-27.5 -62.5l-44 -246q-8 -46 8.5 -66t61.5 -20h469q45 0 65 17t28 63l11 59h178l-18 -99
q-18 -100 -67.5 -142t-148.5 -42z" />
    <glyph glyph-name="D" unicode="D" horiz-adv-x="1115" 
d="M795 0h-786l124 700h758q116 0 173 -68.5t36 -185.5l-39 -220q-21 -118 -85 -172t-181 -54zM291 554l-72 -408h545q53 0 80 23t37 76l34 199q20 110 -90 110h-534z" />
    <glyph glyph-name="E" unicode="E" horiz-adv-x="994" 
d="M1032 700l-25 -142h-716l-24 -134h676l-23 -128h-676l-27 -154h726l-25 -142h-910l124 700h900z" />
    <glyph glyph-name="F" unicode="F" horiz-adv-x="960" 
d="M1022 700l-27 -150h-706l-26 -151h666l-25 -140h-666l-46 -259h-184l124 700h890z" />
    <glyph glyph-name="G" unicode="G" horiz-adv-x="1116" 
d="M836 0h-632q-99 0 -142.5 52.5t-25.5 151.5l56 312q18 100 67.5 142t148.5 42h632q99 0 142 -52.5t26 -151.5l-8 -47h-185l4 23q8 46 -8.5 66t-62.5 20h-486q-46 0 -66 -17t-28 -63l-44 -254q-8 -46 8.5 -66t61.5 -20h493q45 0 64.5 17t28.5 63l8 42h-321l22 130h499
l-36 -206q-17 -100 -67 -142t-149 -42z" />
    <glyph glyph-name="H" unicode="H" horiz-adv-x="1104" 
d="M895 440l46 260h184l-124 -700h-184l51 288h-624l-51 -288h-184l124 700h184l-46 -260h624z" />
    <glyph glyph-name="I" unicode="I" horiz-adv-x="308" 
d="M14 0l124 700h186l-124 -700h-186z" />
    <glyph glyph-name="J" unicode="J" horiz-adv-x="1004" 
d="M723 0h-538q-99 0 -142.5 52.5t-25.5 151.5l14 78h178l-10 -52q-8 -45 9 -65.5t62 -20.5h399q45 0 65.5 17.5t27.5 62.5l85 476h184l-92 -516q-18 -100 -67.5 -142t-148.5 -42z" />
    <glyph glyph-name="K" unicode="K" horiz-adv-x="1051" 
d="M801 700h312l-621 -343l501 -357h-291l-455 340l-60 -340h-184l124 700h184l-56 -318z" />
    <glyph glyph-name="L" unicode="L" horiz-adv-x="930" 
d="M317 700l-97 -548h676l-27 -152h-860l124 700h184z" />
    <glyph glyph-name="M" unicode="M" horiz-adv-x="1244" 
d="M614 282l481 418h170l-124 -700h-178l83 469l-399 -347h-102l-275 347l-83 -469h-178l124 700h149z" />
    <glyph glyph-name="N" unicode="N" horiz-adv-x="1124" 
d="M877 192l90 508h178l-124 -700h-150l-593 514l-91 -514h-178l124 700h157z" />
    <glyph glyph-name="O" unicode="O" horiz-adv-x="1116" 
d="M838 0h-634q-99 0 -142.5 52.5t-25.5 151.5l56 312q18 100 67.5 142t148.5 42h634q99 0 142.5 -52.5t25.5 -151.5l-56 -312q-18 -100 -67.5 -142t-148.5 -42zM296 146h488q45 0 65.5 17.5t28.5 62.5l43 242q8 45 -9 65.5t-62 20.5h-488q-45 0 -65.5 -17.5t-28.5 -62.5
l-43 -242q-8 -45 9 -65.5t62 -20.5z" />
    <glyph glyph-name="P" unicode="P" horiz-adv-x="1056" 
d="M193 0h-184l124 700h788q182 0 151 -184l-23 -131q-17 -94 -59 -129q-44 -36 -135 -36h-623zM292 566l-37 -218h538q38 0 53.5 13.5t23.5 53.5l14 78q7 40 -7 56.5t-54 16.5h-531z" />
    <glyph glyph-name="Q" unicode="Q" horiz-adv-x="1116" 
d="M308 700h634q99 0 142.5 -52.5t25.5 -151.5l-56 -312q-16 -89 -56 -131.5t-117 -50.5l130 -142h-204l-122 140h-481q-99 0 -142.5 52.5t-25.5 151.5l56 312q18 100 67.5 142t148.5 42zM878 226l43 242q8 45 -9 65.5t-62 20.5h-488q-45 0 -65.5 -17.5t-28.5 -62.5
l-43 -242q-8 -45 9 -65.5t62 -20.5h488q45 0 65.5 17.5t28.5 62.5z" />
    <glyph glyph-name="R" unicode="R" horiz-adv-x="1074" 
d="M133 700h788q182 0 151 -184l-17 -96q-17 -93 -58 -128q-43 -36 -135 -36l-40 -6l181 -250h-210l-172 244h-385l-43 -244h-184zM874 435l11 64q7 40 -6.5 56.5t-53.5 16.5h-531l-36 -204h538q38 0 54 13.5t24 53.5z" />
    <glyph glyph-name="S" unicode="S" horiz-adv-x="1096" 
d="M28 158l9 58h178l-4 -27q-4 -31 7 -43.5t43 -12.5h528q31 0 44 12t18 44l5 31q5 33 -2.5 45t-35.5 13l-597 28q-156 7 -130 156l17 96q13 78 51 110t116 32h678q155 0 129 -158l-7 -46h-178l2 15q4 31 -7.5 43.5t-42.5 12.5h-504q-30 0 -43.5 -12.5t-18.5 -43.5l-2 -13
q-5 -32 3 -43.5t35 -12.5l597 -28q156 -7 130 -158l-20 -114q-13 -78 -51 -110t-116 -32h-702q-155 0 -129 158z" />
    <glyph glyph-name="T" unicode="T" horiz-adv-x="996" 
d="M91 700h968l-28 -152h-391l-97 -548h-184l97 548h-393z" />
    <glyph glyph-name="U" unicode="U" horiz-adv-x="1091" 
d="M810 0h-604q-99 0 -142 52.5t-25 151.5l87 496h184l-81 -462q-8 -46 8.5 -66t62.5 -20h458q46 0 66 17t28 63l82 468h184l-91 -516q-18 -100 -68 -142t-149 -42z" />
    <glyph glyph-name="V" unicode="V" horiz-adv-x="1104" 
d="M528 169l444 531h215l-599 -700h-166l-351 700h200z" />
    <glyph glyph-name="W" unicode="W" horiz-adv-x="1510" 
d="M1057 195l327 505h209l-474 -700h-159l-167 496l-342 -496h-154l-226 700h194l149 -505l340 505h138z" />
    <glyph glyph-name="X" unicode="X" horiz-adv-x="1080" 
d="M219 0h-263l473 356l-339 344h243l233 -241l313 241h263l-461 -344l347 -356h-243l-240 254z" />
    <glyph glyph-name="Y" unicode="Y" horiz-adv-x="1068" 
d="M908 700h243l-527 -444l-45 -256h-184l45 255l-369 445h227l250 -311z" />
    <glyph glyph-name="Z" unicode="Z" horiz-adv-x="1064" 
d="M979 0h-988l21 118l722 436h-625l26 146h968l-21 -118l-723 -436h646z" />
    <glyph glyph-name="bracketleft" unicode="[" horiz-adv-x="604" 
d="M498 -100h-520l158 900h520l-22 -128h-364l-114 -644h364z" />
    <glyph glyph-name="backslash" unicode="\" horiz-adv-x="591" 
d="M98 800h106l319 -900h-106z" />
    <glyph glyph-name="bracketright" unicode="]" horiz-adv-x="604" 
d="M136 800h520l-158 -900h-520l22 128h364l114 644h-364z" />
    <glyph glyph-name="asciicircum" unicode="^" 
d="M659 700l324 -420h-168l-236 301l-342 -301h-182l471 420h133z" />
    <glyph glyph-name="underscore" unicode="_" horiz-adv-x="956" 
d="M-73 -150l19 110h956l-19 -110h-956z" />
    <glyph glyph-name="grave" unicode="`" horiz-adv-x="365" 
d="M438 574h-148l-152 126h188z" />
    <glyph glyph-name="a" unicode="a" horiz-adv-x="969" 
d="M259 532h524q183 0 150 -182l-62 -350h-147l-3 63q-56 -41 -92 -51q-37 -12 -108 -12h-389q-61 0 -91.5 35.5t-18.5 97.5l11 57q12 63 45.5 91.5t94.5 28.5h579l6 35q7 41 -6.5 56.5t-53.5 15.5h-380q-31 0 -45 -12t-18 -42l-2 -17h-169l7 44q13 78 51.5 110t116.5 32z
M246 107h348q51 0 91 26l40 27l11 60h-477q-28 0 -40 -10t-16 -38l-2 -12q-4 -29 6 -41t39 -12z" />
    <glyph glyph-name="b" unicode="b" horiz-adv-x="983" 
d="M462 532h340q182 0 149 -182l-32 -184q-17 -94 -59 -129q-43 -37 -136 -37h-349q-77 0 -115 12q-40 13 -79 55l-27 -67h-146l124 700h174l-40 -224q48 35 88 46q36 10 108 10zM750 196l23 134q7 40 -6 56t-53 16h-328q-63 0 -107 -29l-35 -24l-30 -167l27 -25
q31 -27 101 -27h331q39 0 54.5 13t22.5 53z" />
    <glyph glyph-name="c" unicode="c" horiz-adv-x="948" 
d="M691 0h-507q-184 0 -152 185l32 183q17 93 59 128q42 36 134 36h507q181 0 152 -185l-5 -34h-169l3 16q5 41 -8 57t-53 16h-373q-40 0 -55.5 -13.5t-22.5 -52.5l-24 -133q-7 -40 7 -56.5t54 -16.5h373q40 0 55.5 13.5t22.5 52.5l5 29h169l-11 -61q-17 -94 -58 -128
q-44 -36 -135 -36z" />
    <glyph glyph-name="d" unicode="d" horiz-adv-x="983" 
d="M790 476l40 224h175l-124 -700h-147l-3 66q-57 -42 -96 -54t-114 -12h-340q-182 0 -149 182l32 184q16 92 59.5 129t135.5 37h349q73 0 109 -10q34 -10 73 -46zM269 130h327q63 0 107 29l36 24l29 168l-27 24q-29 27 -101 27h-330q-39 0 -54.5 -13t-22.5 -53l-24 -134
q-7 -40 6.5 -56t53.5 -16z" />
    <glyph glyph-name="e" unicode="e" horiz-adv-x="964" 
d="M258 532h524q91 0 128 -44t21 -137l-19 -112h-698l-7 -42q-7 -40 5.5 -55.5t52.5 -15.5h405q31 0 44 11.5t19 42.5l3 16h169l-10 -53q-15 -79 -52.5 -111t-114.5 -32h-548q-181 0 -149 182l32 184q16 92 60 130q43 36 135 36zM233 349l-2 -12h530l1 9q7 40 -5.5 55
t-52.5 15h-392q-39 0 -55.5 -14t-23.5 -53z" />
    <glyph glyph-name="f" unicode="f" horiz-adv-x="778" 
d="M816 572h-321q-31 0 -44 -11.5t-18 -42.5l-9 -51h374l-23 -127h-374l-60 -340h-173l60 340h-201l23 127h200l16 91q13 78 51.5 110t116.5 32h405z" />
    <glyph glyph-name="g" unicode="g" horiz-adv-x="983" 
d="M815 465l28 67h146l-88 -498q-17 -100 -73 -147t-155 -47h-668l21 120h605q45 0 67 18t30 64l10 56q-52 -37 -91 -47q-42 -11 -109 -11h-344q-92 0 -125.5 40.5t-17.5 133.5l25 144q16 93 64 133.5t141 40.5h344q73 0 110 -12q39 -14 80 -55zM723 194l36 24l19 110l4 25
l-26 25q-31 28 -99 28h-329q-40 0 -57 -14.5t-24 -54.5l-18 -102q-8 -40 4 -55t52 -15h329q68 0 109 29z" />
    <glyph glyph-name="h" unicode="h" horiz-adv-x="978" 
d="M466 532h323q185 0 152 -185l-61 -347h-175l58 326q7 40 -7 56.5t-54 16.5h-316q-63 0 -107 -29l-36 -24l-61 -346h-174l124 700h174l-40 -227q55 39 90 49q36 10 110 10z" />
    <glyph glyph-name="i" unicode="i" horiz-adv-x="294" 
d="M291 582h-177l21 118h177zM188 0h-177l94 532h177z" />
    <glyph glyph-name="j" unicode="j" horiz-adv-x="394" 
d="M391 582h-177l22 118h176zM118 -160h-315l22 124h228q31 0 44 11t18 42l91 515h177l-97 -550q-13 -78 -51.5 -110t-116.5 -32z" />
    <glyph glyph-name="k" unicode="k" horiz-adv-x="945" 
d="M679 532h315l-517 -267l430 -265h-298l-384 249l-44 -249h-174l124 700h174l-73 -415z" />
    <glyph glyph-name="l" unicode="l" horiz-adv-x="294" 
d="M188 0h-176l124 700h176z" />
    <glyph glyph-name="m" unicode="m" horiz-adv-x="1591" 
d="M1118 532h291q178 0 145 -185l-61 -347h-174l57 326q7 40 -6.5 56.5t-53.5 16.5h-274q-64 0 -108 -29l-35 -24l-61 -346h-175l58 326q7 40 -7 56.5t-54 16.5h-274q-63 0 -107 -29l-35 -24l-62 -346h-174l94 532h146l4 -65q56 42 96 54q41 11 114 11h291q115 0 142 -75
l4 3q60 46 101 60q40 12 118 12z" />
    <glyph glyph-name="n" unicode="n" horiz-adv-x="978" 
d="M462 532h327q185 0 152 -185l-61 -347h-175l58 326q7 40 -7 56.5t-54 16.5h-316q-63 0 -107 -29l-35 -24l-62 -346h-174l94 532h146l4 -65q56 42 96 54q41 11 114 11z" />
    <glyph glyph-name="o" unicode="o" horiz-adv-x="974" 
d="M717 0h-533q-184 0 -152 185l32 183q17 93 59 128q42 36 134 36h533q184 0 152 -185l-32 -183q-17 -93 -58 -128q-44 -36 -135 -36zM270 130h393q40 0 55.5 13.5t22.5 52.5l24 133q7 40 -7 56.5t-54 16.5h-393q-40 0 -55.5 -13.5t-22.5 -52.5l-24 -133q-7 -40 7 -56.5
t54 -16.5z" />
    <glyph glyph-name="p" unicode="p" horiz-adv-x="983" 
d="M462 532h340q182 0 149 -182l-32 -184q-17 -94 -59 -129q-43 -37 -136 -37h-349q-70 0 -109 11q-36 10 -74 45l-38 -216h-174l122 692h146l4 -67q56 43 96 55q39 12 114 12zM750 196l23 134q7 40 -6 56t-53 16h-328q-63 0 -107 -29l-35 -24l-29 -167l26 -25
q31 -27 101 -27h331q39 0 54.5 13t22.5 53z" />
    <glyph glyph-name="q" unicode="q" horiz-adv-x="983" 
d="M801 465l28 67h146l-122 -692h-175l38 216q-49 -36 -86 -46q-36 -10 -109 -10h-340q-182 0 -149 182l32 184q16 92 59.5 129t135.5 37h349q78 0 115 -12q38 -14 78 -55zM703 159l36 24l29 167l-27 25q-29 27 -101 27h-330q-39 0 -54.5 -13t-22.5 -53l-24 -134
q-7 -40 6.5 -56t53.5 -16h327q63 0 107 29z" />
    <glyph glyph-name="r" unicode="r" horiz-adv-x="666" 
d="M456 532h243l-26 -145h-289q-65 0 -108 -29l-35 -24l-59 -334h-174l94 532h128l4 -74l3 2q59 45 102 59q39 13 117 13z" />
    <glyph glyph-name="s" unicode="s" horiz-adv-x="954" 
d="M21 127l8 47h168l-6 -31q-3 -17 3.5 -24t24.5 -7h456q18 0 25.5 6.5t10.5 24.5l6 32q3 17 -3.5 24t-24.5 8l-520 24q-56 2 -82 34.5t-16 90.5l11 60q21 116 136 116h596q57 0 85 -34.5t18 -92.5l-7 -41h-168l5 25q7 31 -28 31h-432q-18 0 -26 -7t-10 -24l-2 -14
q-2 -17 4 -24t23 -8l520 -24q57 -2 83.5 -35t15.5 -90l-15 -78q-23 -116 -136 -116h-620q-57 0 -85 34.5t-18 92.5z" />
    <glyph glyph-name="t" unicode="t" horiz-adv-x="798" 
d="M798 405h-383l-38 -218q-5 -31 5.5 -44t42.5 -13h325l-23 -130h-401q-158 0 -129 156l44 249h-202l22 127h202l54 120h142l-21 -120h382z" />
    <glyph glyph-name="u" unicode="u" horiz-adv-x="978" 
d="M796 532h174l-94 -532h-146l-4 65q-56 -43 -95 -53q-41 -12 -115 -12h-327q-185 0 -152 185l61 347h175l-58 -326q-7 -40 7 -56.5t54 -16.5h316q63 0 107 29l35 24z" />
    <glyph glyph-name="v" unicode="v" horiz-adv-x="958" 
d="M452 159l336 373h219l-502 -532h-147l-313 532h201z" />
    <glyph glyph-name="w" unicode="w" horiz-adv-x="1314" 
d="M905 171l251 361h201l-394 -532h-150l-141 366l-269 -366h-146l-206 532h185l125 -360l266 360h137z" />
    <glyph glyph-name="x" unicode="x" horiz-adv-x="941" 
d="M211 0h-261l392 271l-287 261h244l183 -167l237 167h260l-379 -261l295 -271h-245l-190 179z" />
    <glyph glyph-name="y" unicode="y" horiz-adv-x="958" 
d="M449 153l339 379h219l-514 -545q-86 -91 -144 -119q-57 -28 -170 -28h-200l23 130h196q48 0 73 13q26 14 63 55l1 1l-290 493h201z" />
    <glyph glyph-name="z" unicode="z" horiz-adv-x="938" 
d="M855 0h-866l17 98l592 310h-517l22 124h846l-17 -98l-592 -310h537z" />
    <glyph glyph-name="braceleft" unicode="{" horiz-adv-x="724" 
d="M406 590l-24 -132q-15 -86 -81 -110q56 -32 41 -116l-20 -116q-15 -88 73 -88h259l-22 -128h-294q-101 0 -146 54t-27 156l23 132q7 49 -42 49h-113l20 117h118q46 0 55 48l27 154q18 102 70 146t153 44h314l-22 -128h-268q-44 0 -65 -18.5t-29 -63.5z" />
    <glyph glyph-name="bar" unicode="|" horiz-adv-x="274" 
d="M2 -100l158 900h142l-158 -900h-142z" />
    <glyph glyph-name="braceright" unicode="}" horiz-adv-x="724" 
d="M608 409h113l-20 -117h-118q-46 0 -55 -48l-27 -154q-18 -102 -70 -146t-153 -44h-314l22 128h268q44 0 65 18.5t29 63.5l24 132q15 86 81 110q-56 32 -41 116l20 116q15 88 -73 88h-259l22 128h294q101 0 146 -54t27 -156l-23 -132q-7 -49 42 -49z" />
    <glyph glyph-name="asciitilde" unicode="~" 
d="M482 466l238 -154q20 -12 44 -12h38q25 0 31 25l31 179h148l-38 -212q-9 -52 -34.5 -74t-77.5 -22h-139q-53 0 -78 7q-31 8 -66 32l-237 153q-20 12 -45 12h-38q-26 0 -30 -25l-31 -179h-148l37 212q10 53 35.5 74.5t77.5 21.5h138q53 0 80 -7q27 -8 64 -31z" />
    <glyph glyph-name="exclamdown" unicode="&#xa1;" horiz-adv-x="316" 
d="M133 700h204l-28 -162h-204zM262 474l-50 -474h-199l116 474h133z" />
    <glyph glyph-name="cent" unicode="&#xa2;" 
d="M655 700h213q183 0 152 -184l-9 -47h-172l5 27q7 40 -7 56t-54 16h-430q-38 0 -53.5 -13.5t-23.5 -53.5l-30 -167q-7 -40 7 -56t54 -16h430q39 0 54.5 14t22.5 53l8 39h172l-14 -73q-16 -94 -59 -129q-42 -36 -134 -36h-233l-18 -100h-119l18 100h-219q-184 0 -151 184
l39 221q16 92 59 129q42 36 134 36h239l17 100h119z" />
    <glyph glyph-name="sterling" unicode="&#xa3;" horiz-adv-x="1072" 
d="M377 700h512q99 0 142 -52.5t26 -151.5l-10 -56h-173l8 45q8 46 -8.5 65.5t-62.5 19.5h-390q-41 0 -60 -17.5t-27 -62.5l-15 -86h439l-16 -94h-440l-30 -174h495q32 0 45 11.5t18 42.5l12 66h172l-19 -112q-13 -78 -53 -111t-118 -33h-857l25 136h102l31 174h-113l17 94
h112l20 112q18 100 67.5 142t148.5 42z" />
    <glyph glyph-name="currency" unicode="&#xa4;" 
d="M940 421l-28 -162q-4 -28 -19 -63l76 -93l-83 -71l-69 84q-38 -19 -96 -19h-450q-55 0 -92 24l-104 -89l-68 82l113 96q-5 35 1 69l29 162q4 28 19 63l-76 93l83 71l69 -84q38 19 95 19h451q55 0 92 -24l104 89l67 -82l-113 -96q6 -34 -1 -69zM337 223h349q41 0 61 17
t27 58l17 99q15 80 -66 80h-350q-41 0 -60.5 -16.5t-27.5 -58.5l-17 -99q-7 -41 9.5 -60.5t57.5 -19.5z" />
    <glyph glyph-name="yen" unicode="&#xa5;" 
d="M850 700h237l-422 -380h325l-14 -78h-376l-13 -74h375l-13 -78h-375l-16 -90h-178l16 90h-375l13 78h375l13 74h-374l14 78h323l-286 380h221l211 -309z" />
    <glyph glyph-name="brokenbar" unicode="&#xa6;" horiz-adv-x="274" 
d="M103 472l57 328h142l-57 -328h-142zM2 -100l58 328h142l-58 -328h-142z" />
    <glyph glyph-name="section" unicode="&#xa7;" horiz-adv-x="1234" 
d="M446 548l637 -36q147 -8 120 -153l-13 -69q-13 -69 -43.5 -99.5t-92.5 -34.5q0 -13 -5 -43l-13 -72q-14 -78 -51 -109.5t-114 -31.5h-609q-76 0 -109.5 40.5t-22.5 118.5l7 47h178l-4 -23q-5 -31 6.5 -45t42.5 -14h437q30 0 43 11.5t18 41.5l3 17q5 30 -5 43.5t-40 14.5
l-638 36q-146 8 -119 153l13 69q13 70 43 100.5t92 33.5q0 13 5 43l14 72q15 78 51.5 109.5t113.5 31.5h609q76 0 109.5 -40.5t22.5 -118.5l-7 -47h-178l4 23q5 31 -6.5 45t-42.5 14h-437q-30 0 -43 -11.5t-18 -41.5l-3 -17q-5 -30 5 -43.5t40 -14.5zM287 308l644 -36
q30 -2 51 -8q21 8 27 42l6 34q10 51 -41 52l-643 36q-30 2 -51 8q-21 -8 -27 -42l-6 -34q-10 -51 40 -52z" />
    <glyph glyph-name="dieresis" unicode="&#xa8;" horiz-adv-x="448" 
d="M255 582h-142l17 102h142zM513 582h-142l17 102h142z" />
    <glyph glyph-name="copyright" unicode="&#xa9;" horiz-adv-x="1182" 
d="M897 0h-582q-104 0 -164.5 60t-60.5 165v250q0 105 60.5 165t164.5 60h582q104 0 164.5 -60t60.5 -165v-250q0 -105 -60.5 -165t-164.5 -60zM327 56h558q87 0 132 45t45 132v234q0 87 -45 132t-132 45h-558q-87 0 -132 -45t-45 -132v-234q0 -87 45 -132t132 -45zM860 130
h-508q-65 0 -96.5 31t-31.5 97v184q0 66 31.5 97t96.5 31h508q65 0 96.5 -31t31.5 -97v-49h-128v29q0 26 -10.5 36.5t-36.5 10.5h-409q-27 0 -37.5 -10.5t-10.5 -36.5v-144q0 -26 10.5 -36.5t37.5 -10.5h409q26 0 36.5 10.5t10.5 36.5v35h128v-55q0 -66 -31.5 -97t-96.5 -31
z" />
    <glyph glyph-name="ordfeminine" unicode="&#xaa;" horiz-adv-x="587" 
d="M206 700h319q109 0 90 -109l-37 -211h-94l-3 37q-33 -24 -53 -30q-20 -7 -63 -7h-239q-36 0 -54 21.5t-12 58.5l6 36q12 72 86 72h347l4 20q4 22 -3 30.5t-29 8.5h-228q-16 0 -23.5 -6.5t-11.5 -23.5l-2 -9h-109l5 24q9 48 33 68t71 20zM198 446h211q27 0 50 15l23 15
l6 36h-280q-16 0 -22.5 -5t-8.5 -21l-2 -12q-2 -15 3 -21.5t20 -6.5z" />
    <glyph glyph-name="guillemotleft" unicode="&#xab;" horiz-adv-x="1302" 
d="M595 107l-539 202l18 101l607 182l-24 -138l-394 -103l355 -115zM704 410l607 182l-24 -138l-394 -103l355 -115l-23 -129l-539 202z" />
    <glyph glyph-name="logicalnot" unicode="&#xac;" 
d="M814 280h-749l24 140h908l-54 -310h-159z" />
    <glyph glyph-name="uni00AD" unicode="&#xad;" horiz-adv-x="660" 
d="M45 280l24 140h576l-24 -140h-576z" />
    <glyph glyph-name="registered" unicode="&#xae;" horiz-adv-x="393" 
d="M193 700h105q56 0 82.5 -26.5t26.5 -82.5v-92q0 -109 -109 -109h-105q-109 0 -109 109v92q0 109 109 109zM366 501v88q0 40 -16 56t-56 16h-97q-40 0 -56 -16t-16 -56v-88q0 -39 16 -55.5t56 -16.5h97q40 0 56 16.5t16 55.5zM322 584v-24q0 -20 -7 -29t-25 -10l40 -54
h-50l-34 50h-28v-50h-45v155h111q21 0 29.5 -9t8.5 -29zM268 587h-50v-36h50q10 0 10 10v15q0 11 -10 11z" />
    <glyph glyph-name="overscore" unicode="&#xaf;" horiz-adv-x="520" 
d="M603 598h-488l14 80h488z" />
    <glyph glyph-name="degree" unicode="&#xb0;" horiz-adv-x="432" 
d="M294 350h-110q-58 0 -88 37t-20 94l19 104q19 115 134 115h110q59 0 88.5 -36.5t19.5 -94.5l-18 -104q-19 -115 -135 -115zM216 439h64q27 0 40 11t18 38l12 72q4 28 -5.5 39.5t-36.5 11.5h-64q-27 0 -40.5 -11t-17.5 -38l-12 -72q-10 -51 42 -51z" />
    <glyph glyph-name="plusminus" unicode="&#xb1;" 
d="M669 684l-31 -176h375l-22 -128h-376l-31 -176h-157l31 176h-375l22 128h376l31 176h157zM926 16h-908l23 127h908z" />
    <glyph glyph-name="uni00B2" unicode="&#xb2;" horiz-adv-x="644" 
d="M618 380l-18 -100h-558l24 143q9 48 32.5 69t73.5 24l324 21q15 1 21 6.5t8 19.5l4 20q2 14 -3 20t-20 6h-247q-15 0 -20.5 -5t-8.5 -21l-4 -20h-126l8 48q8 49 31.5 69t72.5 20h368q48 0 69.5 -26t13.5 -76l-9 -53q-9 -48 -32.5 -68t-73.5 -23l-324 -21q-15 -1 -21 -7
t-8 -21l-4 -25h427z" />
    <glyph glyph-name="uni00B3" unicode="&#xb3;" horiz-adv-x="643" 
d="M209 700h366q99 0 83 -100l-6 -30q-11 -65 -58 -76q47 -18 37 -85l-7 -39q-9 -49 -33.5 -69.5t-73.5 -20.5h-378q-97 0 -82 100l9 52h126l-4 -30q-3 -16 2 -21.5t20 -5.5h257q16 0 22 5t9 20l4 27q3 15 -2.5 21t-21.5 6h-219l15 81h215q16 0 22 5t8 21l3 17q3 16 -2 21.5
t-21 5.5h-245q-15 0 -21 -5t-9 -21l-4 -26h-126l9 57q8 49 32.5 69.5t73.5 20.5z" />
    <glyph glyph-name="acute" unicode="&#xb4;" horiz-adv-x="365" 
d="M469 700l-196 -126h-166l156 126h206z" />
    <glyph glyph-name="paragraph" unicode="&#xb6;" horiz-adv-x="970" 
d="M69 431l19 104q17 93 59 129q43 36 135 36h669l-124 -700h-160l99 566h-168l-99 -566h-160l44 248h-163q-182 0 -151 183z" />
    <glyph glyph-name="middot" unicode="&#xb7;" horiz-adv-x="316" 
d="M258 254h-204l34 192h204z" />
    <glyph glyph-name="cedilla" unicode="&#xb8;" horiz-adv-x="320" 
d="M225 -160h-252l9 53h204q9 0 12 11l2 10q3 12 -9 12h-135l5 24l36 70h68l-24 -46h104q57 0 46 -56l-5 -26q-5 -29 -18.5 -40.5t-42.5 -11.5z" />
    <glyph glyph-name="uni00B9" unicode="&#xb9;" horiz-adv-x="607" 
d="M454 700l-57 -322h203l-18 -98h-553l17 98h220l38 216l-204 -14l18 102l270 18h66z" />
    <glyph glyph-name="ordmasculine" unicode="&#xba;" horiz-adv-x="584" 
d="M477 380h-319q-112 0 -92 113l19 106q9 56 36 78.5t84 22.5h318q110 0 92 -111l-19 -107q-10 -56 -36.5 -79t-82.5 -23zM213 466h229q22 0 31 7.5t14 29.5l13 72q4 22 -3 31t-29 9h-230q-22 0 -31 -7.5t-13 -29.5l-13 -73q-5 -21 2.5 -30t29.5 -9z" />
    <glyph glyph-name="guillemotright" unicode="&#xbb;" horiz-adv-x="1302" 
d="M439 348l-355 115l23 129l539 -202l-18 -101l-607 -182l24 138zM714 463l23 129l539 -202l-18 -101l-607 -182l24 138l394 103z" />
    <glyph glyph-name="onequarter" unicode="&#xbc;" horiz-adv-x="1397" 
d="M397 378h203l-18 -98h-553l17 98h220l38 216l-204 -14l18 102l270 18h66zM302 0l831 700h118l-831 -700h-118zM1227 171h123l-16 -91h-123l-14 -80h-127l14 80h-357l14 77l380 263h150zM1127 324l-224 -153h197z" />
    <glyph glyph-name="onehalf" unicode="&#xbd;" horiz-adv-x="1510" 
d="M397 378h203l-18 -98h-553l17 98h220l38 216l-204 -14l18 102l270 18h66zM302 0l831 700h118l-831 -700h-118zM1026 420h368q48 0 69.5 -26t13.5 -76l-9 -53q-9 -48 -32.5 -68t-73.5 -23l-324 -21q-15 -1 -21 -7t-8 -21l-4 -25h427l-18 -100h-558l24 143q9 48 32.5 69
t73.5 24l324 21q15 1 21 6.5t8 19.5l4 20q2 14 -3 20t-20 6h-247q-15 0 -20.5 -5t-8.5 -21l-4 -20h-126l8 48q8 49 31.5 69t72.5 20z" />
    <glyph glyph-name="threequarters" unicode="&#xbe;" horiz-adv-x="1433" 
d="M631 409l-7 -39q-9 -49 -33.5 -69.5t-73.5 -20.5h-378q-97 0 -82 100l9 52h126l-4 -30q-3 -16 2 -21.5t20 -5.5h257q16 0 22 5t9 20l4 27q3 15 -2.5 21t-21.5 6h-219l15 81h215q16 0 22 5t8 21l3 17q3 16 -2 21.5t-21 5.5h-245q-15 0 -21 -5t-9 -21l-4 -26h-126l9 57
q8 49 32.5 69.5t73.5 20.5h366q99 0 83 -100l-6 -30q-11 -65 -58 -76q47 -18 37 -85zM339 0l831 700h118l-831 -700h-118zM1263 171h123l-16 -91h-123l-14 -80h-127l14 80h-357l14 77l380 263h150zM1163 324l-224 -153h197z" />
    <glyph glyph-name="questiondown" unicode="&#xbf;" horiz-adv-x="990" 
d="M500 700h204l-26 -144h-204zM482 492h167l-15 -80q-14 -67 -40 -93q-27 -27 -97 -35l-232 -22q-28 -3 -41.5 -15.5t-18.5 -39.5l-3 -17q-11 -56 48 -56h458q29 0 41.5 11t17.5 41l7 38h172l-14 -83q-13 -78 -50 -109.5t-115 -31.5h-616q-77 0 -110.5 40.5t-20.5 118.5
l11 68q12 71 50.5 106t115.5 42l226 21q26 2 36.5 13.5t15.5 41.5z" />
    <glyph glyph-name="Agrave" unicode="&#xc0;" horiz-adv-x="1132" 
d="M613 868l112 -126h-148l-152 126h188zM1091 0h-203l-62 135h-551l-111 -135h-217l593 700h205zM627 565l-238 -290h372z" />
    <glyph glyph-name="Aacute" unicode="&#xc1;" horiz-adv-x="1132" 
d="M724 868h206l-196 -126h-166zM1091 0h-203l-62 135h-551l-111 -135h-217l593 700h205zM627 565l-238 -290h372z" />
    <glyph glyph-name="Acircumflex" unicode="&#xc2;" horiz-adv-x="1132" 
d="M766 742l-98 62l-121 -62h-140l174 126h182l130 -126h-127zM1091 0h-203l-62 135h-551l-111 -135h-217l593 700h205zM627 565l-238 -290h372z" />
    <glyph glyph-name="Atilde" unicode="&#xc3;" horiz-adv-x="1132" 
d="M538 798l-10 -56h-104l14 78q8 48 57 48h146q24 0 35 -5t22 -21l29 -34q8 -8 19 -8h25q11 0 14 12l9 56h104l-13 -78q-5 -26 -18.5 -37t-39.5 -11h-145q-24 0 -35 5t-23 21l-28 34q-10 8 -20 8h-25q-11 0 -13 -12zM1091 0h-203l-62 135h-551l-111 -135h-217l593 700h205z
M627 565l-238 -290h372z" />
    <glyph glyph-name="Adieresis" unicode="&#xc4;" horiz-adv-x="1132" 
d="M469 852h142l-17 -102h-142zM727 852h142l-17 -102h-142zM1091 0h-203l-62 135h-551l-111 -135h-217l593 700h205zM627 565l-238 -290h372z" />
    <glyph glyph-name="Aring" unicode="&#xc5;" horiz-adv-x="1132" 
d="M780 732h-258q-56 0 -47 57l5 26q4 30 18 41.5t44 11.5h258q56 0 47 -57l-5 -26q-4 -30 -18 -41.5t-44 -11.5zM547 807l-3 -13q-2 -11 1 -15.5t14 -4.5h195q11 0 15 3.5t6 15.5l3 13q2 11 -1 15.5t-14 4.5h-195q-11 0 -15 -3.5t-6 -15.5zM1091 0h-203l-62 135h-551
l-111 -135h-217l593 700h205zM627 565l-238 -290h372z" />
    <glyph glyph-name="AE" unicode="&#xc6;" horiz-adv-x="1576" 
d="M1615 700l-24 -133h-778l71 -151h641l-20 -111h-569l81 -172h508l-24 -133h-625l-60 135h-541l-111 -135h-217l593 700h1075zM626 564l-237 -289h365z" />
    <glyph glyph-name="Ccedilla" unicode="&#xc7;" horiz-adv-x="1088" 
d="M308 700h608q99 0 142 -52.5t26 -151.5l-13 -72h-178l8 46q8 46 -8.5 66t-61.5 20h-469q-45 0 -65.5 -17.5t-27.5 -62.5l-44 -246q-8 -46 8.5 -66t61.5 -20h469q45 0 65 17t28 63l11 59h178l-18 -99q-18 -100 -67.5 -142t-148.5 -42h-294l-14 -26h104q57 0 46 -56l-5 -26
q-5 -29 -18.5 -40.5t-42.5 -11.5h-252l9 53h204q9 0 12 11l2 10q3 12 -9 12h-135l5 24l26 50h-246q-99 0 -142.5 52.5t-25.5 151.5l56 312q18 100 67.5 142t148.5 42z" />
    <glyph glyph-name="Egrave" unicode="&#xc8;" horiz-adv-x="994" 
d="M543 868l112 -126h-148l-152 126h188zM1032 700l-25 -142h-716l-24 -134h676l-23 -128h-676l-27 -154h726l-25 -142h-910l124 700h900z" />
    <glyph glyph-name="Eacute" unicode="&#xc9;" horiz-adv-x="994" 
d="M654 868h206l-196 -126h-166zM1032 700l-25 -142h-716l-24 -134h676l-23 -128h-676l-27 -154h726l-25 -142h-910l124 700h900z" />
    <glyph glyph-name="Ecircumflex" unicode="&#xca;" horiz-adv-x="994" 
d="M696 742l-98 62l-121 -62h-140l174 126h182l130 -126h-127zM1032 700l-25 -142h-716l-24 -134h676l-23 -128h-676l-27 -154h726l-25 -142h-910l124 700h900z" />
    <glyph glyph-name="Edieresis" unicode="&#xcb;" horiz-adv-x="994" 
d="M399 852h142l-17 -102h-142zM657 852h142l-17 -102h-142zM1032 700l-25 -142h-716l-24 -134h676l-23 -128h-676l-27 -154h726l-25 -142h-910l124 700h900z" />
    <glyph glyph-name="Igrave" unicode="&#xcc;" horiz-adv-x="308" 
d="M313 742h-148l-152 126h188zM14 0l124 700h186l-124 -700h-186z" />
    <glyph glyph-name="Iacute" unicode="&#xcd;" horiz-adv-x="308" 
d="M518 868l-196 -126h-166l156 126h206zM14 0l124 700h186l-124 -700h-186z" />
    <glyph glyph-name="Icircumflex" unicode="&#xce;" horiz-adv-x="308" 
d="M135 742h-140l174 126h182l130 -126h-127l-98 62zM14 0l124 700h186l-124 -700h-186z" />
    <glyph glyph-name="Idieresis" unicode="&#xcf;" horiz-adv-x="308" 
d="M182 750h-142l17 102h142zM440 750h-142l17 102h142zM14 0l124 700h186l-124 -700h-186z" />
    <glyph glyph-name="Eth" unicode="&#xd0;" horiz-adv-x="1175" 
d="M193 700h758q116 0 173 -68.5t36 -185.5l-39 -220q-21 -118 -85 -172t-181 -54h-786l53 301h-88l17 98h89zM941 245l34 199q20 110 -90 110h-534l-27 -155h371l-17 -98h-372l-27 -155h545q53 0 80 23t37 76z" />
    <glyph glyph-name="Ntilde" unicode="&#xd1;" horiz-adv-x="1124" 
d="M528 798l-10 -56h-104l14 78q8 48 57 48h146q24 0 35 -5t22 -21l29 -34q8 -8 19 -8h25q11 0 14 12l9 56h104l-13 -78q-5 -26 -18.5 -37t-39.5 -11h-145q-24 0 -35 5t-23 21l-28 34q-10 8 -20 8h-25q-11 0 -13 -12zM877 192l90 508h178l-124 -700h-150l-593 514l-91 -514
h-178l124 700h157z" />
    <glyph glyph-name="Ograve" unicode="&#xd2;" horiz-adv-x="1116" 
d="M717 742h-148l-152 126h188zM838 0h-634q-99 0 -142.5 52.5t-25.5 151.5l56 312q18 100 67.5 142t148.5 42h634q99 0 142.5 -52.5t25.5 -151.5l-56 -312q-18 -100 -67.5 -142t-148.5 -42zM296 146h488q45 0 65.5 17.5t28.5 62.5l43 242q8 45 -9 65.5t-62 20.5h-488
q-45 0 -65.5 -17.5t-28.5 -62.5l-43 -242q-8 -45 9 -65.5t62 -20.5z" />
    <glyph glyph-name="Oacute" unicode="&#xd3;" horiz-adv-x="1116" 
d="M922 868l-196 -126h-166l156 126h206zM838 0h-634q-99 0 -142.5 52.5t-25.5 151.5l56 312q18 100 67.5 142t148.5 42h634q99 0 142.5 -52.5t25.5 -151.5l-56 -312q-18 -100 -67.5 -142t-148.5 -42zM296 146h488q45 0 65.5 17.5t28.5 62.5l43 242q8 45 -9 65.5t-62 20.5
h-488q-45 0 -65.5 -17.5t-28.5 -62.5l-43 -242q-8 -45 9 -65.5t62 -20.5z" />
    <glyph glyph-name="Ocircumflex" unicode="&#xd4;" horiz-adv-x="1116" 
d="M539 742h-140l174 126h182l130 -126h-127l-98 62zM838 0h-634q-99 0 -142.5 52.5t-25.5 151.5l56 312q18 100 67.5 142t148.5 42h634q99 0 142.5 -52.5t25.5 -151.5l-56 -312q-18 -100 -67.5 -142t-148.5 -42zM296 146h488q45 0 65.5 17.5t28.5 62.5l43 242q8 45 -9 65.5
t-62 20.5h-488q-45 0 -65.5 -17.5t-28.5 -62.5l-43 -242q-8 -45 9 -65.5t62 -20.5z" />
    <glyph glyph-name="Otilde" unicode="&#xd5;" horiz-adv-x="1116" 
d="M520 742h-104l14 78q8 48 57 48h146q24 0 35 -5t22 -21l29 -34q8 -8 19 -8h25q11 0 14 12l9 56h104l-13 -78q-5 -26 -18.5 -37t-39.5 -11h-145q-24 0 -35 5t-23 21l-28 34q-10 8 -20 8h-25q-11 0 -13 -12zM838 0h-634q-99 0 -142.5 52.5t-25.5 151.5l56 312
q18 100 67.5 142t148.5 42h634q99 0 142.5 -52.5t25.5 -151.5l-56 -312q-18 -100 -67.5 -142t-148.5 -42zM296 146h488q45 0 65.5 17.5t28.5 62.5l43 242q8 45 -9 65.5t-62 20.5h-488q-45 0 -65.5 -17.5t-28.5 -62.5l-43 -242q-8 -45 9 -65.5t62 -20.5z" />
    <glyph glyph-name="Odieresis" unicode="&#xd6;" horiz-adv-x="1116" 
d="M586 750h-142l17 102h142zM844 750h-142l17 102h142zM838 0h-634q-99 0 -142.5 52.5t-25.5 151.5l56 312q18 100 67.5 142t148.5 42h634q99 0 142.5 -52.5t25.5 -151.5l-56 -312q-18 -100 -67.5 -142t-148.5 -42zM296 146h488q45 0 65.5 17.5t28.5 62.5l43 242
q8 45 -9 65.5t-62 20.5h-488q-45 0 -65.5 -17.5t-28.5 -62.5l-43 -242q-8 -45 9 -65.5t62 -20.5z" />
    <glyph glyph-name="multiply" unicode="&#xd7;" 
d="M941 666l66 -121l-351 -202l279 -205l-90 -104l-318 234l-406 -234l-66 121l350 202l-279 205l90 104l319 -234z" />
    <glyph glyph-name="Oslash" unicode="&#xd8;" horiz-adv-x="1116" 
d="M1181 730l-109 -76q56 -55 37 -164l-55 -306q-18 -100 -67.5 -142t-148.5 -42h-628q-32 0 -59 6l-52 -36h-134l109 76q-56 55 -37 164l55 306q18 100 67.5 142t148.5 42h628q32 0 59 -6l52 36h134zM263 480l-45 -254q-8 -51 13 -69l574 403h-448q-45 0 -65.5 -17.5
t-28.5 -62.5zM883 220l45 254q8 51 -13 69l-574 -403h448q45 0 65.5 17.5t28.5 62.5z" />
    <glyph glyph-name="Ugrave" unicode="&#xd9;" horiz-adv-x="1091" 
d="M704 742h-148l-152 126h188zM810 0h-604q-99 0 -142 52.5t-25 151.5l87 496h184l-81 -462q-8 -46 8.5 -66t62.5 -20h458q46 0 66 17t28 63l82 468h184l-91 -516q-18 -100 -68 -142t-149 -42z" />
    <glyph glyph-name="Uacute" unicode="&#xda;" horiz-adv-x="1091" 
d="M909 868l-196 -126h-166l156 126h206zM810 0h-604q-99 0 -142 52.5t-25 151.5l87 496h184l-81 -462q-8 -46 8.5 -66t62.5 -20h458q46 0 66 17t28 63l82 468h184l-91 -516q-18 -100 -68 -142t-149 -42z" />
    <glyph glyph-name="Ucircumflex" unicode="&#xdb;" horiz-adv-x="1091" 
d="M526 742h-140l174 126h182l130 -126h-127l-98 62zM810 0h-604q-99 0 -142 52.5t-25 151.5l87 496h184l-81 -462q-8 -46 8.5 -66t62.5 -20h458q46 0 66 17t28 63l82 468h184l-91 -516q-18 -100 -68 -142t-149 -42z" />
    <glyph glyph-name="Udieresis" unicode="&#xdc;" horiz-adv-x="1091" 
d="M573 750h-142l17 102h142zM831 750h-142l17 102h142zM810 0h-604q-99 0 -142 52.5t-25 151.5l87 496h184l-81 -462q-8 -46 8.5 -66t62.5 -20h458q46 0 66 17t28 63l82 468h184l-91 -516q-18 -100 -68 -142t-149 -42z" />
    <glyph glyph-name="Yacute" unicode="&#xdd;" horiz-adv-x="1068" 
d="M686 868h206l-196 -126h-166zM908 700h243l-527 -444l-45 -256h-184l45 255l-369 445h227l250 -311z" />
    <glyph glyph-name="Thorn" unicode="&#xde;" horiz-adv-x="1056" 
d="M299 600h604q184 0 151 -184l-22 -131q-17 -94 -59 -129q-43 -36 -135 -36h-624l-21 -120h-184l124 700h184zM852 315l15 78q7 40 -7 56.5t-54 16.5h-530l-39 -218h538q39 0 54.5 14t22.5 53z" />
    <glyph glyph-name="germandbls" unicode="&#xdf;" horiz-adv-x="985" 
d="M274 700h564q156 0 130 -158l-10 -61q-16 -100 -87 -121q78 -27 61 -137l-13 -81q-13 -78 -51.5 -110t-116.5 -32h-339l23 128h251q31 0 44.5 11.5t19.5 42.5l12 65q6 31 -5.5 44.5t-43.5 13.5h-247l20 111h232q31 0 44.5 11.5t18.5 42.5l8 44q6 31 -5 44.5t-43 13.5
h-403q-31 0 -45 -11.5t-19 -42.5l-91 -518h-175l98 558q13 78 51.5 110t116.5 32z" />
    <glyph glyph-name="agrave" unicode="&#xe0;" horiz-adv-x="969" 
d="M512 700l112 -126h-148l-152 126h188zM259 532h524q183 0 150 -182l-62 -350h-147l-3 63q-56 -41 -92 -51q-37 -12 -108 -12h-389q-61 0 -91.5 35.5t-18.5 97.5l11 57q12 63 45.5 91.5t94.5 28.5h579l6 35q7 41 -6.5 56.5t-53.5 15.5h-380q-31 0 -45 -12t-18 -42l-2 -17
h-169l7 44q13 78 51.5 110t116.5 32zM246 107h348q51 0 91 26l40 27l11 60h-477q-28 0 -40 -10t-16 -38l-2 -12q-4 -29 6 -41t39 -12z" />
    <glyph glyph-name="aacute" unicode="&#xe1;" horiz-adv-x="969" 
d="M623 700h206l-196 -126h-166zM259 532h524q183 0 150 -182l-62 -350h-147l-3 63q-56 -41 -92 -51q-37 -12 -108 -12h-389q-61 0 -91.5 35.5t-18.5 97.5l11 57q12 63 45.5 91.5t94.5 28.5h579l6 35q7 41 -6.5 56.5t-53.5 15.5h-380q-31 0 -45 -12t-18 -42l-2 -17h-169
l7 44q13 78 51.5 110t116.5 32zM246 107h348q51 0 91 26l40 27l11 60h-477q-28 0 -40 -10t-16 -38l-2 -12q-4 -29 6 -41t39 -12z" />
    <glyph glyph-name="acircumflex" unicode="&#xe2;" horiz-adv-x="969" 
d="M665 574l-98 62l-121 -62h-140l174 126h182l130 -126h-127zM259 532h524q183 0 150 -182l-62 -350h-147l-3 63q-56 -41 -92 -51q-37 -12 -108 -12h-389q-61 0 -91.5 35.5t-18.5 97.5l11 57q12 63 45.5 91.5t94.5 28.5h579l6 35q7 41 -6.5 56.5t-53.5 15.5h-380
q-31 0 -45 -12t-18 -42l-2 -17h-169l7 44q13 78 51.5 110t116.5 32zM246 107h348q51 0 91 26l40 27l11 60h-477q-28 0 -40 -10t-16 -38l-2 -12q-4 -29 6 -41t39 -12z" />
    <glyph glyph-name="atilde" unicode="&#xe3;" horiz-adv-x="969" 
d="M437 630l-10 -56h-104l14 78q7 48 57 48h146q24 0 35 -5t22 -21l29 -34q8 -8 19 -8h25q11 0 14 12l9 56h104l-13 -78q-5 -26 -18.5 -37t-39.5 -11h-145q-24 0 -35 5t-23 21l-28 34q-10 8 -20 8h-25q-12 0 -13 -12zM259 532h524q183 0 150 -182l-62 -350h-147l-3 63
q-56 -41 -92 -51q-37 -12 -108 -12h-389q-61 0 -91.5 35.5t-18.5 97.5l11 57q12 63 45.5 91.5t94.5 28.5h579l6 35q7 41 -6.5 56.5t-53.5 15.5h-380q-31 0 -45 -12t-18 -42l-2 -17h-169l7 44q13 78 51.5 110t116.5 32zM246 107h348q51 0 91 26l40 27l11 60h-477
q-28 0 -40 -10t-16 -38l-2 -12q-4 -29 6 -41t39 -12z" />
    <glyph glyph-name="adieresis" unicode="&#xe4;" horiz-adv-x="969" 
d="M368 684h142l-17 -102h-142zM626 684h142l-17 -102h-142zM259 532h524q183 0 150 -182l-62 -350h-147l-3 63q-56 -41 -92 -51q-37 -12 -108 -12h-389q-61 0 -91.5 35.5t-18.5 97.5l11 57q12 63 45.5 91.5t94.5 28.5h579l6 35q7 41 -6.5 56.5t-53.5 15.5h-380
q-31 0 -45 -12t-18 -42l-2 -17h-169l7 44q13 78 51.5 110t116.5 32zM246 107h348q51 0 91 26l40 27l11 60h-477q-28 0 -40 -10t-16 -38l-2 -12q-4 -29 6 -41t39 -12z" />
    <glyph glyph-name="aring" unicode="&#xe5;" horiz-adv-x="969" 
d="M679 564h-258q-56 0 -47 57l5 26q4 30 18 41.5t44 11.5h258q56 0 47 -57l-5 -26q-4 -30 -18 -41.5t-44 -11.5zM446 639l-3 -13q-2 -11 1 -15.5t14 -4.5h195q11 0 15 3.5t6 15.5l3 13q2 11 -1 15.5t-14 4.5h-195q-11 0 -15 -3.5t-6 -15.5zM259 532h524q183 0 150 -182
l-62 -350h-147l-3 63q-56 -41 -92 -51q-37 -12 -108 -12h-389q-61 0 -91.5 35.5t-18.5 97.5l11 57q12 63 45.5 91.5t94.5 28.5h579l6 35q7 41 -6.5 56.5t-53.5 15.5h-380q-31 0 -45 -12t-18 -42l-2 -17h-169l7 44q13 78 51.5 110t116.5 32zM246 107h348q51 0 91 26l40 27
l11 60h-477q-28 0 -40 -10t-16 -38l-2 -12q-4 -29 6 -41t39 -12z" />
    <glyph glyph-name="ae" unicode="&#xe6;" horiz-adv-x="1662" 
d="M987 532h494q181 0 149 -182l-20 -111h-697l-7 -42q-7 -40 6 -55.5t53 -15.5h404q31 0 44 11.5t19 42.5l3 16h168l-10 -54q-14 -78 -52 -110t-115 -32h-521q-106 0 -139 61q-55 -40 -90 -50q-39 -11 -107 -11h-437q-61 0 -91 36t-18 97l11 58q12 63 44.5 91t93.5 28h580
l6 35q7 40 -6 56t-54 16h-380q-31 0 -45 -12t-18 -42l-2 -17h-169l7 44q13 78 51.5 110t116.5 32h494q79 0 110 -40q37 40 124 40zM933 349l-2 -12h529l1 9q7 40 -6 55t-53 15h-391q-40 0 -55.5 -13.5t-22.5 -53.5zM685 133l40 27l11 60h-477q-28 0 -40 -10t-16 -38l-2 -12
q-5 -29 5 -41t39 -12h349q51 0 91 26z" />
    <glyph glyph-name="ccedilla" unicode="&#xe7;" horiz-adv-x="948" 
d="M257 532h507q181 0 152 -185l-5 -34h-169l3 16q5 41 -8 57t-53 16h-373q-40 0 -55.5 -13.5t-22.5 -52.5l-24 -133q-7 -40 7 -56.5t54 -16.5h373q40 0 55.5 13.5t22.5 52.5l5 29h169l-11 -61q-17 -94 -58 -128q-44 -36 -135 -36h-243l-14 -26h104q57 0 46 -56l-5 -26
q-5 -29 -18.5 -40.5t-42.5 -11.5h-252l9 53h204q9 0 12 11l2 10q3 12 -9 12h-135l5 24l26 50h-196q-184 0 -152 185l32 183q17 93 59 128q42 36 134 36z" />
    <glyph glyph-name="egrave" unicode="&#xe8;" horiz-adv-x="964" 
d="M499 700l112 -126h-148l-152 126h188zM258 532h524q91 0 128 -44t21 -137l-19 -112h-698l-7 -42q-7 -40 5.5 -55.5t52.5 -15.5h405q31 0 44 11.5t19 42.5l3 16h169l-10 -53q-15 -79 -52.5 -111t-114.5 -32h-548q-181 0 -149 182l32 184q16 92 60 130q43 36 135 36z
M233 349l-2 -12h530l1 9q7 40 -5.5 55t-52.5 15h-392q-39 0 -55.5 -14t-23.5 -53z" />
    <glyph glyph-name="eacute" unicode="&#xe9;" horiz-adv-x="964" 
d="M610 700h206l-196 -126h-166zM258 532h524q91 0 128 -44t21 -137l-19 -112h-698l-7 -42q-7 -40 5.5 -55.5t52.5 -15.5h405q31 0 44 11.5t19 42.5l3 16h169l-10 -53q-15 -79 -52.5 -111t-114.5 -32h-548q-181 0 -149 182l32 184q16 92 60 130q43 36 135 36zM233 349
l-2 -12h530l1 9q7 40 -5.5 55t-52.5 15h-392q-39 0 -55.5 -14t-23.5 -53z" />
    <glyph glyph-name="ecircumflex" unicode="&#xea;" horiz-adv-x="964" 
d="M652 574l-98 62l-121 -62h-140l174 126h182l130 -126h-127zM258 532h524q91 0 128 -44t21 -137l-19 -112h-698l-7 -42q-7 -40 5.5 -55.5t52.5 -15.5h405q31 0 44 11.5t19 42.5l3 16h169l-10 -53q-15 -79 -52.5 -111t-114.5 -32h-548q-181 0 -149 182l32 184q16 92 60 130
q43 36 135 36zM233 349l-2 -12h530l1 9q7 40 -5.5 55t-52.5 15h-392q-39 0 -55.5 -14t-23.5 -53z" />
    <glyph glyph-name="edieresis" unicode="&#xeb;" horiz-adv-x="964" 
d="M355 684h142l-17 -102h-142zM613 684h142l-17 -102h-142zM258 532h524q91 0 128 -44t21 -137l-19 -112h-698l-7 -42q-7 -40 5.5 -55.5t52.5 -15.5h405q31 0 44 11.5t19 42.5l3 16h169l-10 -53q-15 -79 -52.5 -111t-114.5 -32h-548q-181 0 -149 182l32 184q16 92 60 130
q43 36 135 36zM233 349l-2 -12h530l1 9q7 40 -5.5 55t-52.5 15h-392q-39 0 -55.5 -14t-23.5 -53z" />
    <glyph glyph-name="igrave" unicode="&#xec;" horiz-adv-x="294" 
d="M276 574h-148l-152 126h188zM188 0h-176l94 532h177z" />
    <glyph glyph-name="iacute" unicode="&#xed;" horiz-adv-x="294" 
d="M481 700l-196 -126h-166l156 126h206zM188 0h-176l94 532h177z" />
    <glyph glyph-name="icircumflex" unicode="&#xee;" horiz-adv-x="294" 
d="M98 574h-140l174 126h182l130 -126h-127l-98 62zM188 0h-176l94 532h177z" />
    <glyph glyph-name="idieresis" unicode="&#xef;" horiz-adv-x="294" 
d="M145 582h-142l17 102h142zM403 582h-142l17 102h142zM188 0h-176l94 532h177z" />
    <glyph glyph-name="eth" unicode="&#xf0;" horiz-adv-x="974" 
d="M666 700h132q99 0 143 -53t26 -153l-62 -352q-13 -78 -50.5 -110t-115.5 -32h-581q-77 0 -110.5 40.5t-20.5 117.5l24 138q13 77 51 109t116 32h455q83 0 105 -37l16 90q8 46 -8.5 66t-63.5 20h-198l-68 -60h-116l69 60h-229l22 124h348l69 60h115zM253 124h423
q31 0 44.5 11.5t18.5 42.5l16 91q3 27 -8.5 38t-41.5 11h-422q-31 0 -45 -12t-19 -43l-14 -81q-5 -32 6 -45t42 -13z" />
    <glyph glyph-name="ntilde" unicode="&#xf1;" horiz-adv-x="978" 
d="M431 630l-10 -56h-104l14 78q7 48 57 48h146q24 0 35 -5t22 -21l29 -34q8 -8 19 -8h25q11 0 14 12l9 56h104l-13 -78q-5 -26 -18.5 -37t-39.5 -11h-145q-24 0 -35 5t-23 21l-28 34q-10 8 -20 8h-25q-12 0 -13 -12zM462 532h327q185 0 152 -185l-61 -347h-175l58 326
q7 40 -7 56.5t-54 16.5h-316q-63 0 -107 -29l-35 -24l-62 -346h-174l94 532h146l4 -65q56 42 96 54q41 11 114 11z" />
    <glyph glyph-name="ograve" unicode="&#xf2;" horiz-adv-x="974" 
d="M616 574h-148l-152 126h188zM717 0h-533q-184 0 -152 185l32 183q17 93 59 128q42 36 134 36h533q184 0 152 -185l-32 -183q-17 -93 -58 -128q-44 -36 -135 -36zM270 130h393q40 0 55.5 13.5t22.5 52.5l24 133q7 40 -7 56.5t-54 16.5h-393q-40 0 -55.5 -13.5t-22.5 -52.5
l-24 -133q-7 -40 7 -56.5t54 -16.5z" />
    <glyph glyph-name="oacute" unicode="&#xf3;" horiz-adv-x="974" 
d="M821 700l-196 -126h-166l156 126h206zM717 0h-533q-184 0 -152 185l32 183q17 93 59 128q42 36 134 36h533q184 0 152 -185l-32 -183q-17 -93 -58 -128q-44 -36 -135 -36zM270 130h393q40 0 55.5 13.5t22.5 52.5l24 133q7 40 -7 56.5t-54 16.5h-393q-40 0 -55.5 -13.5
t-22.5 -52.5l-24 -133q-7 -40 7 -56.5t54 -16.5z" />
    <glyph glyph-name="ocircumflex" unicode="&#xf4;" horiz-adv-x="974" 
d="M438 574h-140l174 126h182l130 -126h-127l-98 62zM717 0h-533q-184 0 -152 185l32 183q17 93 59 128q42 36 134 36h533q184 0 152 -185l-32 -183q-17 -93 -58 -128q-44 -36 -135 -36zM270 130h393q40 0 55.5 13.5t22.5 52.5l24 133q7 40 -7 56.5t-54 16.5h-393
q-40 0 -55.5 -13.5t-22.5 -52.5l-24 -133q-7 -40 7 -56.5t54 -16.5z" />
    <glyph glyph-name="otilde" unicode="&#xf5;" horiz-adv-x="974" 
d="M419 574h-104l14 78q7 48 57 48h146q24 0 35 -5t22 -21l29 -34q8 -8 19 -8h25q11 0 14 12l9 56h104l-13 -78q-5 -26 -18.5 -37t-39.5 -11h-145q-24 0 -35 5t-23 21l-28 34q-10 8 -20 8h-25q-12 0 -13 -12zM717 0h-533q-184 0 -152 185l32 183q17 93 59 128q42 36 134 36
h533q184 0 152 -185l-32 -183q-17 -93 -58 -128q-44 -36 -135 -36zM270 130h393q40 0 55.5 13.5t22.5 52.5l24 133q7 40 -7 56.5t-54 16.5h-393q-40 0 -55.5 -13.5t-22.5 -52.5l-24 -133q-7 -40 7 -56.5t54 -16.5z" />
    <glyph glyph-name="odieresis" unicode="&#xf6;" horiz-adv-x="974" 
d="M485 582h-142l17 102h142zM743 582h-142l17 102h142zM717 0h-533q-184 0 -152 185l32 183q17 93 59 128q42 36 134 36h533q184 0 152 -185l-32 -183q-17 -93 -58 -128q-44 -36 -135 -36zM270 130h393q40 0 55.5 13.5t22.5 52.5l24 133q7 40 -7 56.5t-54 16.5h-393
q-40 0 -55.5 -13.5t-22.5 -52.5l-24 -133q-7 -40 7 -56.5t54 -16.5z" />
    <glyph glyph-name="divide" unicode="&#xf7;" 
d="M664 530h-204l25 138h204zM65 280l24 140h908l-24 -140h-908zM576 32h-204l25 138h204z" />
    <glyph glyph-name="oslash" unicode="&#xf8;" horiz-adv-x="974" 
d="M1011 566l-104 -68q53 -45 35 -151l-32 -183q-17 -93 -58 -128q-44 -36 -135 -36h-533q-5 0 -37 2l-55 -36h-129l104 68q-53 45 -35 151l32 183q17 93 59 128q42 36 134 36h533q5 0 37 -2l55 36h129zM217 348l-28 -157q-9 -52 19 -65l441 288h-355q-39 0 -54.5 -13.5
t-22.5 -52.5zM757 184l28 157q9 52 -19 65l-441 -288h355q39 0 54.5 13.5t22.5 52.5z" />
    <glyph glyph-name="ugrave" unicode="&#xf9;" horiz-adv-x="978" 
d="M506 700l112 -126h-148l-152 126h188zM796 532h174l-94 -532h-146l-4 65q-56 -43 -95 -53q-41 -12 -115 -12h-327q-185 0 -152 185l61 347h175l-58 -326q-7 -40 7 -56.5t54 -16.5h316q63 0 107 29l35 24z" />
    <glyph glyph-name="uacute" unicode="&#xfa;" horiz-adv-x="978" 
d="M617 700h206l-196 -126h-166zM796 532h174l-94 -532h-146l-4 65q-56 -43 -95 -53q-41 -12 -115 -12h-327q-185 0 -152 185l61 347h175l-58 -326q-7 -40 7 -56.5t54 -16.5h316q63 0 107 29l35 24z" />
    <glyph glyph-name="ucircumflex" unicode="&#xfb;" horiz-adv-x="978" 
d="M659 574l-98 62l-121 -62h-140l174 126h182l130 -126h-127zM796 532h174l-94 -532h-146l-4 65q-56 -43 -95 -53q-41 -12 -115 -12h-327q-185 0 -152 185l61 347h175l-58 -326q-7 -40 7 -56.5t54 -16.5h316q63 0 107 29l35 24z" />
    <glyph glyph-name="udieresis" unicode="&#xfc;" horiz-adv-x="978" 
d="M362 684h142l-17 -102h-142zM620 684h142l-17 -102h-142zM796 532h174l-94 -532h-146l-4 65q-56 -43 -95 -53q-41 -12 -115 -12h-327q-185 0 -152 185l61 347h175l-58 -326q-7 -40 7 -56.5t54 -16.5h316q63 0 107 29l35 24z" />
    <glyph glyph-name="yacute" unicode="&#xfd;" horiz-adv-x="958" 
d="M601 700h206l-196 -126h-166zM449 153l339 379h219l-514 -545q-86 -91 -144 -119q-57 -28 -170 -28h-200l23 130h196q48 0 73 13q26 14 63 55l1 1l-290 493h201z" />
    <glyph glyph-name="thorn" unicode="&#xfe;" horiz-adv-x="983" 
d="M462 532h340q182 0 149 -182l-32 -184q-17 -94 -59 -129q-43 -37 -136 -37h-349q-70 0 -109 11q-36 10 -74 45l-38 -216h-174l152 860h174l-39 -224q48 35 87 46q36 10 108 10zM750 196l23 134q7 40 -6 56t-53 16h-328q-63 0 -107 -29l-35 -24l-30 -167l27 -25
q31 -27 101 -27h331q39 0 54.5 13t22.5 53z" />
    <glyph glyph-name="ydieresis" unicode="&#xff;" horiz-adv-x="958" 
d="M346 684h142l-17 -102h-142zM604 684h142l-17 -102h-142zM449 153l339 379h219l-514 -545q-86 -91 -144 -119q-57 -28 -170 -28h-200l23 130h196q48 0 73 13q26 14 63 55l1 1l-290 493h201z" />
    <glyph glyph-name="Amacron" unicode="&#x100;" horiz-adv-x="1132" 
d="M425 846h488l-14 -80h-488zM1091 0h-203l-62 135h-551l-111 -135h-217l593 700h205zM627 565l-238 -290h372z" />
    <glyph glyph-name="amacron" unicode="&#x101;" horiz-adv-x="969" 
d="M324 678h488l-14 -80h-488zM259 532h524q183 0 150 -182l-62 -350h-147l-3 63q-56 -41 -92 -51q-37 -12 -108 -12h-389q-61 0 -91.5 35.5t-18.5 97.5l11 57q12 63 45.5 91.5t94.5 28.5h579l6 35q7 41 -6.5 56.5t-53.5 15.5h-380q-31 0 -45 -12t-18 -42l-2 -17h-169l7 44
q13 78 51.5 110t116.5 32zM246 107h348q51 0 91 26l40 27l11 60h-477q-28 0 -40 -10t-16 -38l-2 -12q-4 -29 6 -41t39 -12z" />
    <glyph glyph-name="Abreve" unicode="&#x102;" horiz-adv-x="1132" 
d="M813 742h-322q-76 0 -63 76l9 50h122l-6 -30q-4 -28 24 -28h171q27 0 31 28l6 30h122l-9 -54q-7 -38 -27 -55t-58 -17zM1091 0h-203l-62 135h-551l-111 -135h-217l593 700h205zM627 565l-238 -290h372z" />
    <glyph glyph-name="abreve" unicode="&#x103;" horiz-adv-x="969" 
d="M712 574h-322q-76 0 -63 76l9 50h122l-6 -30q-4 -28 24 -28h171q27 0 31 28l6 30h122l-9 -54q-7 -38 -27 -55t-58 -17zM259 532h524q183 0 150 -182l-62 -350h-147l-3 63q-56 -41 -92 -51q-37 -12 -108 -12h-389q-61 0 -91.5 35.5t-18.5 97.5l11 57q12 63 45.5 91.5
t94.5 28.5h579l6 35q7 41 -6.5 56.5t-53.5 15.5h-380q-31 0 -45 -12t-18 -42l-2 -17h-169l7 44q13 78 51.5 110t116.5 32zM246 107h348q51 0 91 26l40 27l11 60h-477q-28 0 -40 -10t-16 -38l-2 -12q-4 -29 6 -41t39 -12z" />
    <glyph glyph-name="Aogonek" unicode="&#x104;" horiz-adv-x="1132" 
d="M862 -37l-2 -10q-3 -25 21 -25h184l-16 -88h-235q-42 0 -58 20.5t-11 63.5l2 16q4 31 17.5 49t45.5 36l54 27l-38 83h-551l-111 -135h-217l593 700h205l346 -700h-181l-27 -12q-20 -11 -21 -25zM627 565l-238 -290h372z" />
    <glyph glyph-name="aogonek" unicode="&#x105;" horiz-adv-x="969" 
d="M754 -37l-2 -10q-3 -25 21 -25h110l-16 -88h-161q-42 0 -58 20.5t-11 63.5l2 16q4 30 17 48t46 37l20 11l-1 27q-56 -41 -92 -51q-37 -12 -108 -12h-389q-61 0 -91.5 35.5t-18.5 97.5l11 57q12 63 45.5 91.5t94.5 28.5h579l6 35q7 41 -6.5 56.5t-53.5 15.5h-380
q-31 0 -45 -12t-18 -42l-2 -17h-169l7 44q13 78 51.5 110t116.5 32h524q183 0 150 -182l-62 -350h-73l-23 -12q-20 -10 -21 -25zM246 107h348q51 0 91 26l40 27l11 60h-477q-28 0 -40 -10t-16 -38l-2 -12q-4 -29 6 -41t39 -12z" />
    <glyph glyph-name="Cacute" unicode="&#x106;" horiz-adv-x="1088" 
d="M908 868l-196 -126h-166l156 126h206zM812 0h-608q-99 0 -142.5 52.5t-25.5 151.5l56 312q18 100 67.5 142t148.5 42h608q99 0 142 -52.5t26 -151.5l-13 -72h-178l8 46q8 46 -8.5 66t-61.5 20h-469q-45 0 -65.5 -17.5t-27.5 -62.5l-44 -246q-8 -46 8.5 -66t61.5 -20h469
q45 0 65 17t28 63l11 59h178l-18 -99q-18 -100 -67.5 -142t-148.5 -42z" />
    <glyph glyph-name="cacute" unicode="&#x107;" horiz-adv-x="948" 
d="M808 700l-196 -126h-166l156 126h206zM691 0h-507q-184 0 -152 185l32 183q17 93 59 128q42 36 134 36h507q181 0 152 -185l-5 -34h-169l3 16q5 41 -8 57t-53 16h-373q-40 0 -55.5 -13.5t-22.5 -52.5l-24 -133q-7 -40 7 -56.5t54 -16.5h373q40 0 55.5 13.5t22.5 52.5
l5 29h169l-11 -61q-17 -94 -58 -128q-44 -36 -135 -36z" />
    <glyph glyph-name="Ccircumflex" unicode="&#x108;" horiz-adv-x="1088" 
d="M525 742h-140l174 126h182l130 -126h-127l-98 62zM812 0h-608q-99 0 -142.5 52.5t-25.5 151.5l56 312q18 100 67.5 142t148.5 42h608q99 0 142 -52.5t26 -151.5l-13 -72h-178l8 46q8 46 -8.5 66t-61.5 20h-469q-45 0 -65.5 -17.5t-27.5 -62.5l-44 -246q-8 -46 8.5 -66
t61.5 -20h469q45 0 65 17t28 63l11 59h178l-18 -99q-18 -100 -67.5 -142t-148.5 -42z" />
    <glyph glyph-name="ccircumflex" unicode="&#x109;" horiz-adv-x="948" 
d="M425 574h-140l174 126h182l130 -126h-127l-98 62zM691 0h-507q-184 0 -152 185l32 183q17 93 59 128q42 36 134 36h507q181 0 152 -185l-5 -34h-169l3 16q5 41 -8 57t-53 16h-373q-40 0 -55.5 -13.5t-22.5 -52.5l-24 -133q-7 -40 7 -56.5t54 -16.5h373q40 0 55.5 13.5
t22.5 52.5l5 29h169l-11 -61q-17 -94 -58 -128q-44 -36 -135 -36z" />
    <glyph glyph-name="Cdotaccent" unicode="&#x10a;" horiz-adv-x="1088" 
d="M719 750h-177l17 102h177zM812 0h-608q-99 0 -142.5 52.5t-25.5 151.5l56 312q18 100 67.5 142t148.5 42h608q99 0 142 -52.5t26 -151.5l-13 -72h-178l8 46q8 46 -8.5 66t-61.5 20h-469q-45 0 -65.5 -17.5t-27.5 -62.5l-44 -246q-8 -46 8.5 -66t61.5 -20h469q45 0 65 17
t28 63l11 59h178l-18 -99q-18 -100 -67.5 -142t-148.5 -42z" />
    <glyph glyph-name="cdotaccent" unicode="&#x10b;" horiz-adv-x="948" 
d="M619 582h-177l17 102h177zM691 0h-507q-184 0 -152 185l32 183q17 93 59 128q42 36 134 36h507q181 0 152 -185l-5 -34h-169l3 16q5 41 -8 57t-53 16h-373q-40 0 -55.5 -13.5t-22.5 -52.5l-24 -133q-7 -40 7 -56.5t54 -16.5h373q40 0 55.5 13.5t22.5 52.5l5 29h169
l-11 -61q-17 -94 -58 -128q-44 -36 -135 -36z" />
    <glyph glyph-name="Ccaron" unicode="&#x10c;" horiz-adv-x="1088" 
d="M753 868h140l-174 -126h-182l-130 126h127l98 -62zM812 0h-608q-99 0 -142.5 52.5t-25.5 151.5l56 312q18 100 67.5 142t148.5 42h608q99 0 142 -52.5t26 -151.5l-13 -72h-178l8 46q8 46 -8.5 66t-61.5 20h-469q-45 0 -65.5 -17.5t-27.5 -62.5l-44 -246q-8 -46 8.5 -66
t61.5 -20h469q45 0 65 17t28 63l11 59h178l-18 -99q-18 -100 -67.5 -142t-148.5 -42z" />
    <glyph glyph-name="ccaron" unicode="&#x10d;" horiz-adv-x="948" 
d="M653 700h140l-174 -126h-182l-130 126h127l98 -62zM691 0h-507q-184 0 -152 185l32 183q17 93 59 128q42 36 134 36h507q181 0 152 -185l-5 -34h-169l3 16q5 41 -8 57t-53 16h-373q-40 0 -55.5 -13.5t-22.5 -52.5l-24 -133q-7 -40 7 -56.5t54 -16.5h373q40 0 55.5 13.5
t22.5 52.5l5 29h169l-11 -61q-17 -94 -58 -128q-44 -36 -135 -36z" />
    <glyph glyph-name="Dcaron" unicode="&#x10e;" horiz-adv-x="1115" 
d="M766 868h140l-174 -126h-182l-130 126h127l98 -62zM795 0h-786l124 700h758q116 0 173 -68.5t36 -185.5l-39 -220q-21 -118 -85 -172t-181 -54zM291 554l-72 -408h545q53 0 80 23t37 76l34 199q20 110 -90 110h-534z" />
    <glyph glyph-name="dcaron" unicode="&#x10f;" horiz-adv-x="1148" 
d="M790 476l40 224h175l-124 -700h-147l-3 66q-57 -42 -96 -54t-114 -12h-340q-182 0 -149 182l32 184q16 92 59.5 129t135.5 37h349q73 0 109 -10q34 -10 73 -46zM1028 586l20 114h168l-10 -57q-8 -48 -45 -95l-53 -72h-92l73 110h-61zM269 130h327q63 0 107 29l36 24
l29 168l-27 24q-29 27 -101 27h-330q-39 0 -54.5 -13t-22.5 -53l-24 -134q-7 -40 6.5 -56t53.5 -16z" />
    <glyph glyph-name="Dcroat" unicode="&#x110;" horiz-adv-x="1175" 
d="M193 700h758q116 0 173 -68.5t36 -185.5l-39 -220q-21 -118 -85 -172t-181 -54h-786l53 301h-88l17 98h89zM941 245l34 199q20 110 -90 110h-534l-27 -155h371l-17 -98h-372l-27 -155h545q53 0 80 23t37 76z" />
    <glyph glyph-name="dslash" unicode="&#x111;" horiz-adv-x="1024" 
d="M996 648h77l-13 -74h-77l-102 -574h-147l-3 66q-57 -42 -96 -54t-114 -12h-340q-182 0 -149 182l32 184q16 92 59.5 129t135.5 37h349q73 0 109 -10q34 -10 73 -46l18 98h-318l13 74h318l9 52h175zM269 130h327q63 0 107 29l36 24l29 168l-27 24q-29 27 -101 27h-330
q-39 0 -54.5 -13t-22.5 -53l-24 -134q-7 -40 6.5 -56t53.5 -16z" />
    <glyph glyph-name="Emacron" unicode="&#x112;" horiz-adv-x="994" 
d="M355 846h488l-14 -80h-488zM1032 700l-25 -142h-716l-24 -134h676l-23 -128h-676l-27 -154h726l-25 -142h-910l124 700h900z" />
    <glyph glyph-name="emacron" unicode="&#x113;" horiz-adv-x="964" 
d="M311 678h488l-14 -80h-488zM258 532h524q91 0 128 -44t21 -137l-19 -112h-698l-7 -42q-7 -40 5.5 -55.5t52.5 -15.5h405q31 0 44 11.5t19 42.5l3 16h169l-10 -53q-15 -79 -52.5 -111t-114.5 -32h-548q-181 0 -149 182l32 184q16 92 60 130q43 36 135 36zM233 349l-2 -12
h530l1 9q7 40 -5.5 55t-52.5 15h-392q-39 0 -55.5 -14t-23.5 -53z" />
    <glyph glyph-name="Ebreve" unicode="&#x114;" horiz-adv-x="994" 
d="M743 742h-322q-76 0 -63 76l9 50h122l-6 -30q-4 -28 24 -28h171q27 0 31 28l6 30h122l-9 -54q-7 -38 -27 -55t-58 -17zM1032 700l-25 -142h-716l-24 -134h676l-23 -128h-676l-27 -154h726l-25 -142h-910l124 700h900z" />
    <glyph glyph-name="ebreve" unicode="&#x115;" horiz-adv-x="964" 
d="M699 574h-322q-76 0 -63 76l9 50h122l-6 -30q-4 -28 24 -28h171q27 0 31 28l6 30h122l-9 -54q-7 -38 -27 -55t-58 -17zM258 532h524q91 0 128 -44t21 -137l-19 -112h-698l-7 -42q-7 -40 5.5 -55.5t52.5 -15.5h405q31 0 44 11.5t19 42.5l3 16h169l-10 -53
q-15 -79 -52.5 -111t-114.5 -32h-548q-181 0 -149 182l32 184q16 92 60 130q43 36 135 36zM233 349l-2 -12h530l1 9q7 40 -5.5 55t-52.5 15h-392q-39 0 -55.5 -14t-23.5 -53z" />
    <glyph glyph-name="Edotaccent" unicode="&#x116;" horiz-adv-x="994" 
d="M511 852h177l-17 -102h-177zM1032 700l-25 -142h-716l-24 -134h676l-23 -128h-676l-27 -154h726l-25 -142h-910l124 700h900z" />
    <glyph glyph-name="edotaccent" unicode="&#x117;" horiz-adv-x="964" 
d="M467 684h177l-17 -102h-177zM258 532h524q91 0 128 -44t21 -137l-19 -112h-698l-7 -42q-7 -40 5.5 -55.5t52.5 -15.5h405q31 0 44 11.5t19 42.5l3 16h169l-10 -53q-15 -79 -52.5 -111t-114.5 -32h-548q-181 0 -149 182l32 184q16 92 60 130q43 36 135 36zM233 349l-2 -12
h530l1 9q7 40 -5.5 55t-52.5 15h-392q-39 0 -55.5 -14t-23.5 -53z" />
    <glyph glyph-name="Eogonek" unicode="&#x118;" horiz-adv-x="994" 
d="M1032 700l-25 -142h-716l-24 -134h676l-23 -128h-676l-27 -154h726l-25 -142h-211l-27 -12q-20 -11 -21 -25l-2 -10q-3 -25 21 -25h184l-16 -88h-235q-42 0 -58 20.5t-11 63.5l2 16q4 39 27 60h-563l124 700h900z" />
    <glyph glyph-name="eogonek" unicode="&#x119;" horiz-adv-x="964" 
d="M258 532h524q91 0 128 -44t21 -137l-19 -112h-698l-7 -42q-7 -40 5.5 -55.5t52.5 -15.5h405q31 0 44 11.5t19 42.5l3 16h169l-10 -53q-15 -79 -52.5 -111t-114.5 -32h-49l-27 -12q-20 -11 -21 -25l-2 -10q-3 -25 21 -25h184l-16 -88h-235q-42 0 -58 20.5t-11 63.5l2 16
q4 39 27 60h-363q-181 0 -149 182l32 184q16 92 60 130q43 36 135 36zM233 349l-2 -12h530l1 9q7 40 -5.5 55t-52.5 15h-392q-39 0 -55.5 -14t-23.5 -53z" />
    <glyph glyph-name="Ecaron" unicode="&#x11a;" horiz-adv-x="994" 
d="M845 868l-174 -126h-182l-130 126h127l98 -62l121 62h140zM1032 700l-25 -142h-716l-24 -134h676l-23 -128h-676l-27 -154h726l-25 -142h-910l124 700h900z" />
    <glyph glyph-name="ecaron" unicode="&#x11b;" horiz-adv-x="964" 
d="M801 700l-174 -126h-182l-130 126h127l98 -62l121 62h140zM258 532h524q91 0 128 -44t21 -137l-19 -112h-698l-7 -42q-7 -40 5.5 -55.5t52.5 -15.5h405q31 0 44 11.5t19 42.5l3 16h169l-10 -53q-15 -79 -52.5 -111t-114.5 -32h-548q-181 0 -149 182l32 184q16 92 60 130
q43 36 135 36zM233 349l-2 -12h530l1 9q7 40 -5.5 55t-52.5 15h-392q-39 0 -55.5 -14t-23.5 -53z" />
    <glyph glyph-name="Gcircumflex" unicode="&#x11c;" horiz-adv-x="1116" 
d="M462 742h-140l174 126h182l130 -126h-127l-98 62zM836 0h-632q-99 0 -142.5 52.5t-25.5 151.5l56 312q18 100 67.5 142t148.5 42h632q99 0 142 -52.5t26 -151.5l-8 -47h-185l4 23q8 46 -8.5 66t-62.5 20h-486q-46 0 -66 -17t-28 -63l-44 -254q-8 -46 8.5 -66t61.5 -20
h493q45 0 64.5 17t28.5 63l8 42h-321l22 130h499l-36 -206q-17 -100 -67 -142t-149 -42z" />
    <glyph glyph-name="gcircumflex" unicode="&#x11d;" horiz-adv-x="983" 
d="M614 574l-98 62l-121 -62h-140l174 126h182l130 -126h-127zM815 465l28 67h146l-88 -498q-17 -100 -73 -147t-155 -47h-668l21 120h605q45 0 67 18t30 64l10 56q-52 -37 -91 -47q-42 -11 -109 -11h-344q-92 0 -125.5 40.5t-17.5 133.5l25 144q16 93 64 133.5t141 40.5
h344q73 0 110 -12q39 -14 80 -55zM723 194l36 24l19 110l4 25l-26 25q-31 28 -99 28h-329q-40 0 -57 -14.5t-24 -54.5l-18 -102q-8 -40 4 -55t52 -15h329q68 0 109 29z" />
    <glyph glyph-name="Gbreve" unicode="&#x11e;" horiz-adv-x="1116" 
d="M728 742h-322q-76 0 -63 76l9 50h122l-6 -30q-4 -28 24 -28h171q27 0 31 28l6 30h122l-9 -54q-7 -38 -27 -55t-58 -17zM836 0h-632q-99 0 -142.5 52.5t-25.5 151.5l56 312q18 100 67.5 142t148.5 42h632q99 0 142 -52.5t26 -151.5l-8 -47h-185l4 23q8 46 -8.5 66
t-62.5 20h-486q-46 0 -66 -17t-28 -63l-44 -254q-8 -46 8.5 -66t61.5 -20h493q45 0 64.5 17t28.5 63l8 42h-321l22 130h499l-36 -206q-17 -100 -67 -142t-149 -42z" />
    <glyph glyph-name="gbreve" unicode="&#x11f;" horiz-adv-x="983" 
d="M661 574h-322q-76 0 -63 76l9 50h122l-6 -30q-4 -28 24 -28h171q27 0 31 28l6 30h122l-9 -54q-7 -38 -27 -55t-58 -17zM815 465l28 67h146l-88 -498q-17 -100 -73 -147t-155 -47h-668l21 120h605q45 0 67 18t30 64l10 56q-52 -37 -91 -47q-42 -11 -109 -11h-344
q-92 0 -125.5 40.5t-17.5 133.5l25 144q16 93 64 133.5t141 40.5h344q73 0 110 -12q39 -14 80 -55zM723 194l36 24l19 110l4 25l-26 25q-31 28 -99 28h-329q-40 0 -57 -14.5t-24 -54.5l-18 -102q-8 -40 4 -55t52 -15h329q68 0 109 29z" />
    <glyph glyph-name="Gdotaccent" unicode="&#x120;" horiz-adv-x="1116" 
d="M656 750h-177l17 102h177zM836 0h-632q-99 0 -142.5 52.5t-25.5 151.5l56 312q18 100 67.5 142t148.5 42h632q99 0 142 -52.5t26 -151.5l-8 -47h-185l4 23q8 46 -8.5 66t-62.5 20h-486q-46 0 -66 -17t-28 -63l-44 -254q-8 -46 8.5 -66t61.5 -20h493q45 0 64.5 17t28.5 63
l8 42h-321l22 130h499l-36 -206q-17 -100 -67 -142t-149 -42z" />
    <glyph glyph-name="gdotaccent" unicode="&#x121;" horiz-adv-x="983" 
d="M429 684h177l-17 -102h-177zM815 465l28 67h146l-88 -498q-17 -100 -73 -147t-155 -47h-668l21 120h605q45 0 67 18t30 64l10 56q-52 -37 -91 -47q-42 -11 -109 -11h-344q-92 0 -125.5 40.5t-17.5 133.5l25 144q16 93 64 133.5t141 40.5h344q73 0 110 -12q39 -14 80 -55z
M723 194l36 24l19 110l4 25l-26 25q-31 28 -99 28h-329q-40 0 -57 -14.5t-24 -54.5l-18 -102q-8 -40 4 -55t52 -15h329q68 0 109 29z" />
    <glyph glyph-name="Gcommaaccent" unicode="&#x122;" horiz-adv-x="1116" 
d="M836 0h-632q-99 0 -142.5 52.5t-25.5 151.5l56 312q18 100 67.5 142t148.5 42h632q99 0 142 -52.5t26 -151.5l-8 -47h-185l4 23q8 46 -8.5 66t-62.5 20h-486q-46 0 -66 -17t-28 -63l-44 -254q-8 -46 8.5 -66t61.5 -20h493q45 0 64.5 17t28.5 63l8 42h-321l22 130h499
l-36 -206q-17 -100 -67 -142t-149 -42zM538 -214h-91l68 88h-61l17 96h168l-6 -36q-4 -29 -14 -47q-8 -15 -34 -44z" />
    <glyph glyph-name="gcommaaccent" unicode="&#x123;" horiz-adv-x="983" 
d="M545 670h49l-16 -96h-156l6 36q4 27 13 47q8 15 31 43l44 58h92zM815 465l28 67h146l-88 -498q-17 -100 -73 -147t-155 -47h-668l21 120h605q45 0 67 18t30 64l10 56q-52 -37 -91 -47q-42 -11 -109 -11h-344q-92 0 -125.5 40.5t-17.5 133.5l25 144q16 93 64 133.5
t141 40.5h344q73 0 110 -12q39 -14 80 -55zM723 194l36 24l19 110l4 25l-26 25q-31 28 -99 28h-329q-40 0 -57 -14.5t-24 -54.5l-18 -102q-8 -40 4 -55t52 -15h329q68 0 109 29z" />
    <glyph glyph-name="Hcircumflex" unicode="&#x124;" horiz-adv-x="1104" 
d="M752 742l-98 62l-121 -62h-140l174 126h182l130 -126h-127zM895 440l46 260h184l-124 -700h-184l51 288h-624l-51 -288h-184l124 700h184l-46 -260h624z" />
    <glyph glyph-name="hcircumflex" unicode="&#x125;" horiz-adv-x="978" 
d="M342 742l-98 62l-121 -62h-140l174 126h182l130 -126h-127zM466 532h323q185 0 152 -185l-61 -347h-175l58 326q7 40 -7 56.5t-54 16.5h-316q-63 0 -107 -29l-36 -24l-61 -346h-174l124 700h174l-40 -227q55 39 90 49q36 10 110 10z" />
    <glyph glyph-name="Hbar" unicode="&#x126;" horiz-adv-x="1224" 
d="M1170 615h87l-15 -89h-88l-93 -526h-184l51 288h-624l-51 -288h-184l93 526h-88l15 89h89l15 85h184l-15 -85h624l15 85h184zM331 440h624l15 86h-624z" />
    <glyph glyph-name="hbar" unicode="&#x127;" horiz-adv-x="1019" 
d="M511 532h323q185 0 152 -185l-61 -347h-175l58 326q7 40 -7 56.5t-54 16.5h-316q-63 0 -107 -29l-36 -24l-61 -346h-174l102 574h-82l13 74h82l9 52h174l-9 -52h314l-13 -74h-314l-18 -101q55 39 90 49q36 10 110 10z" />
    <glyph glyph-name="Itilde" unicode="&#x128;" horiz-adv-x="308" 
d="M116 742h-104l14 78q8 48 57 48h146q24 0 35 -5t22 -21l29 -34q8 -8 19 -8h25q11 0 14 12l9 56h104l-13 -78q-5 -26 -18.5 -37t-39.5 -11h-145q-24 0 -35 5t-23 21l-28 34q-10 8 -20 8h-25q-11 0 -13 -12zM14 0l124 700h186l-124 -700h-186z" />
    <glyph glyph-name="itilde" unicode="&#x129;" horiz-adv-x="294" 
d="M79 574h-104l14 78q7 48 57 48h146q24 0 35 -5t22 -21l29 -34q8 -8 19 -8h25q11 0 14 12l9 56h104l-13 -78q-5 -26 -18.5 -37t-39.5 -11h-145q-24 0 -35 5t-23 21l-28 34q-10 8 -20 8h-25q-12 0 -13 -12zM188 0h-176l94 532h177z" />
    <glyph glyph-name="Imacron" unicode="&#x12a;" horiz-adv-x="308" 
d="M487 766h-488l14 80h488zM14 0l124 700h186l-124 -700h-186z" />
    <glyph glyph-name="imacron" unicode="&#x12b;" horiz-adv-x="294" 
d="M450 598h-488l14 80h488zM188 0h-176l94 532h177z" />
    <glyph glyph-name="Ibreve" unicode="&#x12c;" horiz-adv-x="308" 
d="M401 742h-322q-76 0 -63 76l9 50h122l-6 -30q-4 -28 24 -28h171q27 0 31 28l6 30h122l-9 -54q-7 -38 -27 -55t-58 -17zM14 0l124 700h186l-124 -700h-186z" />
    <glyph glyph-name="ibreve" unicode="&#x12d;" horiz-adv-x="294" 
d="M364 574h-322q-76 0 -63 76l9 50h122l-6 -30q-4 -28 24 -28h171q27 0 31 28l6 30h122l-9 -54q-7 -38 -27 -55t-58 -17zM188 0h-176l94 532h177z" />
    <glyph glyph-name="Iogonek" unicode="&#x12e;" horiz-adv-x="308" 
d="M9 -37l-2 -10q-3 -25 21 -25h184l-16 -88h-235q-42 0 -58 20.5t-11 63.5l2 16q4 31 17.5 49t45.5 36l67 34l114 641h186l-124 -700h-143l-27 -12q-20 -11 -21 -25z" />
    <glyph glyph-name="iogonek" unicode="&#x12f;" horiz-adv-x="294" 
d="M115 582l17 102h177l-17 -102h-177zM1 -37l-2 -10q-3 -25 21 -25h184l-16 -88h-235q-42 0 -58 20.5t-11 63.5l2 16q4 31 17.5 49t45.5 36l74 37l83 470h177l-95 -532h-139l-27 -12q-20 -11 -21 -25z" />
    <glyph glyph-name="Idot" unicode="&#x130;" horiz-adv-x="308" 
d="M333 750h-186l17 102h186zM14 0l124 700h186l-124 -700h-186z" />
    <glyph glyph-name="dotlessi" unicode="&#x131;" horiz-adv-x="294" 
d="M188 0h-176l94 532h177z" />
    <glyph glyph-name="IJ" unicode="&#x132;" horiz-adv-x="1312" 
d="M14 0l124 700h186l-124 -700h-186zM1031 0h-538q-99 0 -142.5 52.5t-25.5 151.5l14 78h178l-10 -52q-8 -45 9 -65.5t62 -20.5h399q45 0 65.5 17.5t27.5 62.5l85 476h184l-92 -516q-18 -100 -67.5 -142t-148.5 -42z" />
    <glyph glyph-name="ij" unicode="&#x133;" horiz-adv-x="720" 
d="M291 582h-177l21 118h177zM717 582h-177l22 118h176zM188 0h-177l94 532h177zM444 -160h-315l22 124h228q31 0 44 11t18 42l91 515h177l-97 -550q-13 -78 -51.5 -110t-116.5 -32z" />
    <glyph glyph-name="Jcircumflex" unicode="&#x134;" horiz-adv-x="1004" 
d="M843 742h-140l174 126h182l130 -126h-127l-98 62zM723 0h-538q-99 0 -142.5 52.5t-25.5 151.5l14 78h178l-10 -52q-8 -45 9 -65.5t62 -20.5h399q45 0 65.5 17.5t27.5 62.5l85 476h184l-92 -516q-18 -100 -67.5 -142t-148.5 -42z" />
    <glyph glyph-name="jcircumflex" unicode="&#x135;" horiz-adv-x="394" 
d="M198 574h-140l174 126h182l130 -126h-127l-98 62zM118 -160h-315l22 124h228q31 0 44 11t18 42l91 515h177l-97 -550q-14 -78 -52.5 -110t-115.5 -32z" />
    <glyph glyph-name="Kcommaaccent" unicode="&#x136;" horiz-adv-x="1051" 
d="M801 700h312l-621 -343l501 -357h-291l-455 340l-60 -340h-184l124 700h184l-56 -318zM385 -126h-61l17 96h168l-6 -36q-4 -29 -14 -47q-8 -15 -34 -44l-47 -57h-91z" />
    <glyph glyph-name="kcommaaccent" unicode="&#x137;" horiz-adv-x="945" 
d="M679 532h315l-517 -267l430 -265h-298l-384 249l-44 -249h-174l124 700h174l-73 -415zM335 -126h-61l17 96h168l-6 -36q-4 -29 -14 -47q-8 -15 -34 -44l-47 -57h-91z" />
    <glyph glyph-name="Lacute" unicode="&#x139;" horiz-adv-x="930" 
d="M306 868h206l-196 -126h-166zM317 700l-97 -548h676l-27 -152h-860l124 700h184z" />
    <glyph glyph-name="lacute" unicode="&#x13a;" horiz-adv-x="294" 
d="M511 868l-196 -126h-166l156 126h206zM188 0h-176l124 700h176z" />
    <glyph glyph-name="Lcommaaccent" unicode="&#x13b;" horiz-adv-x="930" 
d="M317 700l-97 -548h676l-27 -152h-860l124 700h184zM375 -126h-61l17 96h168l-6 -36q-4 -29 -14 -47q-8 -15 -34 -44l-47 -57h-91z" />
    <glyph glyph-name="lcommaaccent" unicode="&#x13c;" horiz-adv-x="294" 
d="M188 0h-176l124 700h176zM80 -214h-91l68 88h-61l17 96h168l-6 -36q-4 -29 -14 -47q-8 -15 -34 -44z" />
    <glyph glyph-name="Lcaron" unicode="&#x13d;" horiz-adv-x="930" 
d="M317 700l-97 -548h676l-27 -152h-860l124 700h184zM560 548l-54 -72h-91l72 110h-60l20 114h168l-10 -57q-10 -48 -45 -95z" />
    <glyph glyph-name="lcaron" unicode="&#x13e;" horiz-adv-x="460" 
d="M188 0h-176l124 700h176zM413 476h-91l73 110h-61l20 114h168l-10 -57q-8 -47 -45 -95z" />
    <glyph glyph-name="Ldot" unicode="&#x13f;" horiz-adv-x="930" 
d="M317 700l-97 -548h676l-27 -152h-860l124 700h184zM481 508h204l-34 -192h-204z" />
    <glyph glyph-name="ldot" unicode="&#x140;" horiz-adv-x="512" 
d="M188 0h-176l124 700h176zM501 290h-204l34 192h204z" />
    <glyph glyph-name="Lslash" unicode="&#x141;" horiz-adv-x="990" 
d="M313 337l-33 -185h676l-27 -152h-860l55 311l-90 -12l18 102l90 12l51 287h184l-46 -261l449 62l-18 -102z" />
    <glyph glyph-name="lslash" unicode="&#x142;" horiz-adv-x="377" 
d="M305 426l85 15l-18 -102l-86 -15l-57 -324h-176l52 293l-84 -14l18 102l84 14l54 305h176z" />
    <glyph glyph-name="Nacute" unicode="&#x143;" horiz-adv-x="1124" 
d="M714 868h206l-196 -126h-166zM877 192l90 508h178l-124 -700h-150l-593 514l-91 -514h-178l124 700h157z" />
    <glyph glyph-name="nacute" unicode="&#x144;" horiz-adv-x="978" 
d="M617 700h206l-196 -126h-166zM462 532h327q185 0 152 -185l-61 -347h-175l58 326q7 40 -7 56.5t-54 16.5h-316q-63 0 -107 -29l-35 -24l-62 -346h-174l94 532h146l4 -65q56 42 96 54q41 11 114 11z" />
    <glyph glyph-name="Ncommaaccent" unicode="&#x145;" horiz-adv-x="1124" 
d="M877 192l90 508h178l-124 -700h-150l-593 514l-91 -514h-178l124 700h157zM478 -126h-61l17 96h168l-6 -36q-4 -29 -14 -47q-8 -15 -34 -44l-47 -57h-91z" />
    <glyph glyph-name="ncommaaccent" unicode="&#x146;" horiz-adv-x="978" 
d="M462 532h327q185 0 152 -185l-61 -347h-175l58 326q7 40 -7 56.5t-54 16.5h-316q-63 0 -107 -29l-35 -24l-62 -346h-174l94 532h146l4 -65q56 42 96 54q41 11 114 11zM399 -126h-61l17 96h168l-6 -36q-4 -29 -14 -47q-8 -15 -34 -44l-47 -57h-91z" />
    <glyph glyph-name="Ncaron" unicode="&#x147;" horiz-adv-x="1124" 
d="M905 868l-174 -126h-182l-130 126h127l98 -62l121 62h140zM877 192l90 508h178l-124 -700h-150l-593 514l-91 -514h-178l124 700h157z" />
    <glyph glyph-name="ncaron" unicode="&#x148;" horiz-adv-x="978" 
d="M808 700l-174 -126h-182l-130 126h127l98 -62l121 62h140zM462 532h327q185 0 152 -185l-61 -347h-175l58 326q7 40 -7 56.5t-54 16.5h-316q-63 0 -107 -29l-35 -24l-62 -346h-174l94 532h146l4 -65q56 42 96 54q41 11 114 11z" />
    <glyph glyph-name="Eng" unicode="&#x14a;" horiz-adv-x="1124" 
d="M877 191l90 509h178l-122 -684q-16 -96 -63 -136t-143 -40h-216l22 122h143q38 0 55.5 12.5t25.5 46.5l-569 493l-91 -514h-178l124 700h157z" />
    <glyph glyph-name="eng" unicode="&#x14b;" horiz-adv-x="978" 
d="M462 532h327q185 0 152 -185l-65 -365q-13 -78 -51 -110t-116 -32h-243l22 124h158q32 0 44.5 11t17.5 42l55 309q7 40 -7 56.5t-54 16.5h-316q-63 0 -107 -29l-35 -24l-62 -346h-174l94 532h146l4 -65q56 42 96 54q41 11 114 11z" />
    <glyph glyph-name="Omacron" unicode="&#x14c;" horiz-adv-x="1116" 
d="M891 766h-488l14 80h488zM838 0h-634q-99 0 -142.5 52.5t-25.5 151.5l56 312q18 100 67.5 142t148.5 42h634q99 0 142.5 -52.5t25.5 -151.5l-56 -312q-18 -100 -67.5 -142t-148.5 -42zM296 146h488q45 0 65.5 17.5t28.5 62.5l43 242q8 45 -9 65.5t-62 20.5h-488
q-45 0 -65.5 -17.5t-28.5 -62.5l-43 -242q-8 -45 9 -65.5t62 -20.5z" />
    <glyph glyph-name="omacron" unicode="&#x14d;" horiz-adv-x="974" 
d="M790 598h-488l14 80h488zM717 0h-533q-184 0 -152 185l32 183q17 93 59 128q42 36 134 36h533q184 0 152 -185l-32 -183q-17 -93 -58 -128q-44 -36 -135 -36zM270 130h393q40 0 55.5 13.5t22.5 52.5l24 133q7 40 -7 56.5t-54 16.5h-393q-40 0 -55.5 -13.5t-22.5 -52.5
l-24 -133q-7 -40 7 -56.5t54 -16.5z" />
    <glyph glyph-name="Obreve" unicode="&#x14e;" horiz-adv-x="1116" 
d="M805 742h-322q-76 0 -63 76l9 50h122l-6 -30q-4 -28 24 -28h171q27 0 31 28l6 30h122l-9 -54q-7 -38 -27 -55t-58 -17zM838 0h-634q-99 0 -142.5 52.5t-25.5 151.5l56 312q18 100 67.5 142t148.5 42h634q99 0 142.5 -52.5t25.5 -151.5l-56 -312q-18 -100 -67.5 -142
t-148.5 -42zM296 146h488q45 0 65.5 17.5t28.5 62.5l43 242q8 45 -9 65.5t-62 20.5h-488q-45 0 -65.5 -17.5t-28.5 -62.5l-43 -242q-8 -45 9 -65.5t62 -20.5z" />
    <glyph glyph-name="obreve" unicode="&#x14f;" horiz-adv-x="974" 
d="M704 574h-322q-76 0 -63 76l9 50h122l-6 -30q-4 -28 24 -28h171q27 0 31 28l6 30h122l-9 -54q-7 -38 -27 -55t-58 -17zM717 0h-533q-184 0 -152 185l32 183q17 93 59 128q42 36 134 36h533q184 0 152 -185l-32 -183q-17 -93 -58 -128q-44 -36 -135 -36zM270 130h393
q40 0 55.5 13.5t22.5 52.5l24 133q7 40 -7 56.5t-54 16.5h-393q-40 0 -55.5 -13.5t-22.5 -52.5l-24 -133q-7 -40 7 -56.5t54 -16.5z" />
    <glyph glyph-name="Ohungarumlaut" unicode="&#x150;" horiz-adv-x="1116" 
d="M737 868l-154 -126h-152l120 126h186zM1003 868l-154 -126h-151l120 126h185zM838 0h-634q-99 0 -142.5 52.5t-25.5 151.5l56 312q18 100 67.5 142t148.5 42h634q99 0 142.5 -52.5t25.5 -151.5l-56 -312q-18 -100 -67.5 -142t-148.5 -42zM296 146h488q45 0 65.5 17.5
t28.5 62.5l43 242q8 45 -9 65.5t-62 20.5h-488q-45 0 -65.5 -17.5t-28.5 -62.5l-43 -242q-8 -45 9 -65.5t62 -20.5z" />
    <glyph glyph-name="ohungarumlaut" unicode="&#x151;" horiz-adv-x="974" 
d="M636 700l-154 -126h-152l120 126h186zM902 700l-154 -126h-151l120 126h185zM717 0h-533q-184 0 -152 185l32 183q17 93 59 128q42 36 134 36h533q184 0 152 -185l-32 -183q-17 -93 -58 -128q-44 -36 -135 -36zM270 130h393q40 0 55.5 13.5t22.5 52.5l24 133
q7 40 -7 56.5t-54 16.5h-393q-40 0 -55.5 -13.5t-22.5 -52.5l-24 -133q-7 -40 7 -56.5t54 -16.5z" />
    <glyph glyph-name="OE" unicode="&#x152;" horiz-adv-x="1813" 
d="M1853 700l-25 -142h-716l-24 -134h676l-23 -128h-676l-27 -154h726l-25 -142h-1535q-99 0 -142.5 52.5t-25.5 151.5l56 312q18 100 67.5 142t148.5 42h1545zM297 146h558l72 408h-564q-46 0 -66 -17t-28 -63l-43 -242q-8 -45 8.5 -65.5t62.5 -20.5z" />
    <glyph glyph-name="oe" unicode="&#x153;" horiz-adv-x="1672" 
d="M997 532h494q181 0 149 -182l-20 -111h-697l-7 -42q-7 -40 6 -55.5t53 -15.5h404q31 0 44 11.5t19 42.5l3 16h168l-10 -54q-14 -78 -52 -110t-115 -32h-521q-85 0 -113 40q-43 -40 -127 -40h-502q-92 0 -125.5 40.5t-17.5 133.5l32 184q16 93 64 133.5t141 40.5h502
q79 0 108 -36q37 36 120 36zM943 349l-2 -12h529l1 9q7 40 -6 55t-53 15h-391q-40 0 -55.5 -13.5t-22.5 -53.5zM741 199l24 134q7 40 -5 54.5t-52 14.5h-395q-40 0 -57 -14.5t-24 -54.5l-24 -134q-7 -40 5 -54.5t52 -14.5h395q40 0 57 14.5t24 54.5z" />
    <glyph glyph-name="Racute" unicode="&#x154;" horiz-adv-x="1074" 
d="M695 868h206l-196 -126h-166zM133 700h788q182 0 151 -184l-17 -96q-17 -93 -58 -128q-43 -36 -135 -36l-40 -6l181 -250h-210l-172 244h-385l-43 -244h-184zM874 435l11 64q7 40 -6.5 56.5t-53.5 16.5h-531l-36 -204h538q38 0 54 13.5t24 53.5z" />
    <glyph glyph-name="racute" unicode="&#x155;" horiz-adv-x="666" 
d="M461 700h206l-196 -126h-166zM456 532h243l-26 -145h-289q-65 0 -108 -29l-35 -24l-59 -334h-174l94 532h128l4 -74l3 2q59 45 102 59q39 13 117 13z" />
    <glyph glyph-name="Rcommaaccent" unicode="&#x156;" horiz-adv-x="1074" 
d="M133 700h788q182 0 151 -184l-17 -96q-17 -93 -58 -128q-43 -36 -135 -36l-40 -6l181 -250h-210l-172 244h-385l-43 -244h-184zM874 435l11 64q7 40 -6.5 56.5t-53.5 16.5h-531l-36 -204h538q38 0 54 13.5t24 53.5zM447 -126h-61l17 96h168l-6 -36q-4 -29 -14 -47
q-8 -15 -34 -44l-47 -57h-91z" />
    <glyph glyph-name="rcommaaccent" unicode="&#x157;" horiz-adv-x="666" 
d="M456 532h243l-26 -145h-289q-65 0 -108 -29l-35 -24l-59 -334h-174l94 532h128l4 -74l3 2q59 45 102 59q39 13 117 13zM52 -126h-61l17 96h168l-6 -36q-4 -29 -14 -47q-8 -15 -34 -44l-47 -57h-91z" />
    <glyph glyph-name="Rcaron" unicode="&#x158;" horiz-adv-x="1074" 
d="M886 868l-174 -126h-182l-130 126h127l98 -62l121 62h140zM133 700h788q182 0 151 -184l-17 -96q-17 -93 -58 -128q-43 -36 -135 -36l-40 -6l181 -250h-210l-172 244h-385l-43 -244h-184zM874 435l11 64q7 40 -6.5 56.5t-53.5 16.5h-531l-36 -204h538q38 0 54 13.5
t24 53.5z" />
    <glyph glyph-name="rcaron" unicode="&#x159;" horiz-adv-x="666" 
d="M652 700l-174 -126h-182l-130 126h127l98 -62l121 62h140zM456 532h243l-26 -145h-289q-65 0 -108 -29l-35 -24l-59 -334h-174l94 532h128l4 -74l3 2q59 45 102 59q39 13 117 13z" />
    <glyph glyph-name="Sacute" unicode="&#x15a;" horiz-adv-x="1096" 
d="M912 868l-196 -126h-166l156 126h206zM28 158l9 58h178l-4 -27q-4 -31 7 -43.5t43 -12.5h528q31 0 44 12t18 44l5 31q5 33 -2.5 45t-35.5 13l-597 28q-156 7 -130 156l17 96q13 78 51 110t116 32h678q155 0 129 -158l-7 -46h-178l2 15q4 31 -7.5 43.5t-42.5 12.5h-504
q-30 0 -43.5 -12.5t-18.5 -43.5l-2 -13q-5 -32 3 -43.5t35 -12.5l597 -28q156 -7 130 -158l-20 -114q-13 -78 -51 -110t-116 -32h-702q-155 0 -129 158z" />
    <glyph glyph-name="sacute" unicode="&#x15b;" horiz-adv-x="954" 
d="M811 700l-196 -126h-166l156 126h206zM21 127l8 47h168l-6 -31q-3 -17 3.5 -24t24.5 -7h456q18 0 25.5 6.5t10.5 24.5l6 32q3 17 -3.5 24t-24.5 8l-520 24q-56 2 -82 34.5t-16 90.5l11 60q21 116 136 116h596q57 0 85 -34.5t18 -92.5l-7 -41h-168l5 25q7 31 -28 31h-432
q-18 0 -26 -7t-10 -24l-2 -14q-2 -17 4 -24t23 -8l520 -24q57 -2 83.5 -35t15.5 -90l-15 -78q-23 -116 -136 -116h-620q-57 0 -85 34.5t-18 92.5z" />
    <glyph glyph-name="Scircumflex" unicode="&#x15c;" horiz-adv-x="1096" 
d="M529 742h-140l174 126h182l130 -126h-127l-98 62zM28 158l9 58h178l-4 -27q-4 -31 7 -43.5t43 -12.5h528q31 0 44 12t18 44l5 31q5 33 -2.5 45t-35.5 13l-597 28q-156 7 -130 156l17 96q13 78 51 110t116 32h678q155 0 129 -158l-7 -46h-178l2 15q4 31 -7.5 43.5
t-42.5 12.5h-504q-30 0 -43.5 -12.5t-18.5 -43.5l-2 -13q-5 -32 3 -43.5t35 -12.5l597 -28q156 -7 130 -158l-20 -114q-13 -78 -51 -110t-116 -32h-702q-155 0 -129 158z" />
    <glyph glyph-name="scircumflex" unicode="&#x15d;" horiz-adv-x="954" 
d="M428 574h-140l174 126h182l130 -126h-127l-98 62zM21 127l8 47h168l-6 -31q-3 -17 3.5 -24t24.5 -7h456q18 0 25.5 6.5t10.5 24.5l6 32q3 17 -3.5 24t-24.5 8l-520 24q-56 2 -82 34.5t-16 90.5l11 60q21 116 136 116h596q57 0 85 -34.5t18 -92.5l-7 -41h-168l5 25
q7 31 -28 31h-432q-18 0 -26 -7t-10 -24l-2 -14q-2 -17 4 -24t23 -8l520 -24q57 -2 83.5 -35t15.5 -90l-15 -78q-23 -116 -136 -116h-620q-57 0 -85 34.5t-18 92.5z" />
    <glyph glyph-name="Scedilla" unicode="&#x15e;" horiz-adv-x="1096" 
d="M275 700h678q155 0 129 -158l-7 -46h-178l2 15q4 31 -7.5 43.5t-42.5 12.5h-504q-30 0 -43.5 -12.5t-18.5 -43.5l-2 -13q-5 -32 3 -43.5t35 -12.5l597 -28q156 -7 130 -158l-20 -114q-13 -78 -51 -110t-116 -32h-337l-14 -26h104q57 0 46 -56l-5 -26q-5 -29 -18.5 -40.5
t-42.5 -11.5h-252l9 53h204q9 0 12 11l2 10q3 12 -9 12h-135l5 24l26 50h-297q-155 0 -129 158l9 58h178l-4 -27q-4 -31 7 -43.5t43 -12.5h528q31 0 44 12t18 44l5 31q5 33 -2.5 45t-35.5 13l-597 28q-156 7 -130 156l17 96q13 78 51 110t116 32z" />
    <glyph glyph-name="scedilla" unicode="&#x15f;" horiz-adv-x="954" 
d="M218 532h596q57 0 85 -34.5t18 -92.5l-7 -41h-168l5 25q7 31 -28 31h-432q-18 0 -26 -7t-10 -24l-2 -14q-2 -17 4 -24t23 -8l520 -24q57 -2 83.5 -35t15.5 -90l-15 -78q-23 -116 -136 -116h-293l-14 -26h104q57 0 46 -56l-5 -26q-5 -29 -18.5 -40.5t-42.5 -11.5h-252
l9 53h204q9 0 12 11l2 10q3 12 -9 12h-135l5 24l26 50h-259q-57 0 -85 34.5t-18 92.5l8 47h168l-6 -31q-3 -17 3.5 -24t24.5 -7h456q18 0 25.5 6.5t10.5 24.5l6 32q3 17 -3.5 24t-24.5 8l-520 24q-56 2 -82 34.5t-16 90.5l11 60q21 116 136 116z" />
    <glyph glyph-name="Scaron" unicode="&#x160;" horiz-adv-x="1096" 
d="M757 868h140l-174 -126h-182l-130 126h127l98 -62zM28 158l9 58h178l-4 -27q-4 -31 7 -43.5t43 -12.5h528q31 0 44 12t18 44l5 31q5 33 -2.5 45t-35.5 13l-597 28q-156 7 -130 156l17 96q13 78 51 110t116 32h678q155 0 129 -158l-7 -46h-178l2 15q4 31 -7.5 43.5
t-42.5 12.5h-504q-30 0 -43.5 -12.5t-18.5 -43.5l-2 -13q-5 -32 3 -43.5t35 -12.5l597 -28q156 -7 130 -158l-20 -114q-13 -78 -51 -110t-116 -32h-702q-155 0 -129 158z" />
    <glyph glyph-name="scaron" unicode="&#x161;" horiz-adv-x="954" 
d="M656 700h140l-174 -126h-182l-130 126h127l98 -62zM21 127l8 47h168l-6 -31q-3 -17 3.5 -24t24.5 -7h456q18 0 25.5 6.5t10.5 24.5l6 32q3 17 -3.5 24t-24.5 8l-520 24q-56 2 -82 34.5t-16 90.5l11 60q21 116 136 116h596q57 0 85 -34.5t18 -92.5l-7 -41h-168l5 25
q7 31 -28 31h-432q-18 0 -26 -7t-10 -24l-2 -14q-2 -17 4 -24t23 -8l520 -24q57 -2 83.5 -35t15.5 -90l-15 -78q-23 -116 -136 -116h-620q-57 0 -85 34.5t-18 92.5z" />
    <glyph glyph-name="uni0162" unicode="&#x162;" horiz-adv-x="996" 
d="M640 548l-97 -548h-71l-14 -26h104q57 0 46 -56l-5 -26q-5 -29 -18.5 -40.5t-42.5 -11.5h-252l9 53h204q9 0 12 11l2 10q3 12 -9 12h-135l5 24l26 50h-45l97 548h-393l28 152h968l-28 -152h-391z" />
    <glyph glyph-name="uni0163" unicode="&#x163;" horiz-adv-x="798" 
d="M798 405h-383l-38 -218q-5 -31 5.5 -44t42.5 -13h325l-23 -130h-314l-14 -26h104q57 0 46 -56l-5 -26q-5 -29 -18.5 -40.5t-42.5 -11.5h-252l9 53h204q9 0 12 11l2 10q3 12 -9 12h-135l5 24l26 50h-19q-158 0 -129 156l44 249h-202l22 127h202l54 120h142l-21 -120h382z
" />
    <glyph glyph-name="Tcaron" unicode="&#x164;" horiz-adv-x="996" 
d="M847 868l-174 -126h-182l-130 126h127l98 -62l121 62h140zM91 700h968l-28 -152h-391l-97 -548h-184l97 548h-393z" />
    <glyph glyph-name="tcaron" unicode="&#x165;" horiz-adv-x="798" 
d="M681 628l-45 -58h-103l62 88h-49l17 96h168l-6 -36q-6 -32 -13 -46q-5 -11 -31 -44zM798 405h-383l-38 -218q-5 -31 5.5 -44t42.5 -13h325l-23 -130h-401q-158 0 -129 156l44 249h-202l22 127h202l54 120h142l-21 -120h382z" />
    <glyph glyph-name="Tbar" unicode="&#x166;" horiz-adv-x="996" 
d="M1059 700l-28 -152h-391l-33 -183h265l-18 -102h-265l-46 -263h-184l46 263h-263l18 102h263l33 183h-393l28 152h968z" />
    <glyph glyph-name="tbar" unicode="&#x167;" horiz-adv-x="798" 
d="M819 532l-22 -129h-384l-15 -85h384l-17 -94h-383l-7 -40q-5 -31 4 -42t40 -11h330l-23 -131h-401q-156 0 -129 156l12 68h-202l17 94h201l15 85h-201l22 129h202l54 120h141l-21 -120h383z" />
    <glyph glyph-name="Utilde" unicode="&#x168;" horiz-adv-x="1091" 
d="M507 742h-104l14 78q7 48 57 48h146q24 0 35 -5t22 -21l29 -34q8 -8 19 -8h25q11 0 14 12l9 56h104l-13 -78q-5 -26 -18.5 -37t-39.5 -11h-145q-24 0 -35 5t-23 21l-28 34q-10 8 -20 8h-25q-12 0 -13 -12zM810 0h-604q-99 0 -142 52.5t-25 151.5l87 496h184l-81 -462
q-8 -46 8.5 -66t62.5 -20h458q46 0 66 17t28 63l82 468h184l-91 -516q-18 -100 -68 -142t-149 -42z" />
    <glyph glyph-name="utilde" unicode="&#x169;" horiz-adv-x="978" 
d="M431 630l-10 -56h-104l14 78q7 48 57 48h146q24 0 35 -5t22 -21l29 -34q8 -8 19 -8h25q11 0 14 12l9 56h104l-13 -78q-5 -26 -18.5 -37t-39.5 -11h-145q-24 0 -35 5t-23 21l-28 34q-10 8 -20 8h-25q-12 0 -13 -12zM796 532h174l-94 -532h-146l-4 65q-56 -43 -95 -53
q-41 -12 -115 -12h-327q-185 0 -152 185l61 347h175l-58 -326q-7 -40 7 -56.5t54 -16.5h316q63 0 107 29l35 24z" />
    <glyph glyph-name="Umacron" unicode="&#x16a;" horiz-adv-x="1091" 
d="M878 766h-488l14 80h488zM810 0h-604q-99 0 -142 52.5t-25 151.5l87 496h184l-81 -462q-8 -46 8.5 -66t62.5 -20h458q46 0 66 17t28 63l82 468h184l-91 -516q-18 -100 -68 -142t-149 -42z" />
    <glyph glyph-name="umacron" unicode="&#x16b;" horiz-adv-x="978" 
d="M318 678h488l-14 -80h-488zM796 532h174l-94 -532h-146l-4 65q-56 -43 -95 -53q-41 -12 -115 -12h-327q-185 0 -152 185l61 347h175l-58 -326q-7 -40 7 -56.5t54 -16.5h316q63 0 107 29l35 24z" />
    <glyph glyph-name="Ubreve" unicode="&#x16c;" horiz-adv-x="1091" 
d="M792 742h-322q-76 0 -63 76l9 50h122l-6 -30q-4 -28 24 -28h171q27 0 31 28l6 30h122l-9 -54q-7 -38 -27 -55t-58 -17zM810 0h-604q-99 0 -142 52.5t-25 151.5l87 496h184l-81 -462q-8 -46 8.5 -66t62.5 -20h458q46 0 66 17t28 63l82 468h184l-91 -516q-18 -100 -68 -142
t-149 -42z" />
    <glyph glyph-name="ubreve" unicode="&#x16d;" horiz-adv-x="978" 
d="M706 574h-322q-76 0 -63 76l9 50h122l-6 -30q-4 -28 24 -28h171q27 0 31 28l6 30h122l-9 -54q-7 -38 -27 -55t-58 -17zM796 532h174l-94 -532h-146l-4 65q-56 -43 -95 -53q-41 -12 -115 -12h-327q-185 0 -152 185l61 347h175l-58 -326q-7 -40 7 -56.5t54 -16.5h316
q63 0 107 29l35 24z" />
    <glyph glyph-name="Uring" unicode="&#x16e;" horiz-adv-x="1091" 
d="M454 789l5 26q4 30 18 41.5t44 11.5h258q56 0 47 -57l-5 -26q-4 -30 -18 -41.5t-44 -11.5h-258q-56 0 -47 57zM526 807l-3 -13q-2 -11 1 -15.5t14 -4.5h195q11 0 15 3.5t6 15.5l3 13q2 11 -1 15.5t-14 4.5h-195q-11 0 -15 -3.5t-6 -15.5zM810 0h-604q-99 0 -142 52.5
t-25 151.5l87 496h184l-81 -462q-8 -46 8.5 -66t62.5 -20h458q46 0 66 17t28 63l82 468h184l-91 -516q-18 -100 -68 -142t-149 -42z" />
    <glyph glyph-name="uring" unicode="&#x16f;" horiz-adv-x="978" 
d="M673 564h-258q-56 0 -47 57l5 26q4 30 18 41.5t44 11.5h258q56 0 47 -57l-5 -26q-4 -30 -18 -41.5t-44 -11.5zM440 639l-3 -13q-2 -11 1 -15.5t14 -4.5h195q11 0 15 3.5t6 15.5l3 13q2 11 -1 15.5t-14 4.5h-195q-11 0 -15 -3.5t-6 -15.5zM796 532h174l-94 -532h-146
l-4 65q-56 -43 -95 -53q-41 -12 -115 -12h-327q-185 0 -152 185l61 347h175l-58 -326q-7 -40 7 -56.5t54 -16.5h316q63 0 107 29l35 24z" />
    <glyph glyph-name="Uhungarumlaut" unicode="&#x170;" horiz-adv-x="1091" 
d="M724 868l-154 -126h-152l120 126h186zM990 868l-154 -126h-151l120 126h185zM810 0h-604q-99 0 -142 52.5t-25 151.5l87 496h184l-81 -462q-8 -46 8.5 -66t62.5 -20h458q46 0 66 17t28 63l82 468h184l-91 -516q-18 -100 -68 -142t-149 -42z" />
    <glyph glyph-name="uhungarumlaut" unicode="&#x171;" horiz-adv-x="978" 
d="M452 700h186l-154 -126h-152zM904 700l-154 -126h-151l120 126h185zM796 532h174l-94 -532h-146l-4 65q-56 -43 -95 -53q-41 -12 -115 -12h-327q-185 0 -152 185l61 347h175l-58 -326q-7 -40 7 -56.5t54 -16.5h316q63 0 107 29l35 24z" />
    <glyph glyph-name="Uogonek" unicode="&#x172;" horiz-adv-x="1091" 
d="M852 232l82 468h184l-91 -516q-18 -100 -68 -142t-149 -42h-175l-27 -12q-20 -11 -21 -25l-2 -10q-3 -25 21 -25h184l-16 -88h-235q-42 0 -58 20.5t-11 63.5l2 16q4 39 27 60h-293q-99 0 -142 52.5t-25 151.5l87 496h184l-81 -462q-8 -46 8.5 -66t62.5 -20h458
q46 0 66 17t28 63z" />
    <glyph glyph-name="uogonek" unicode="&#x173;" horiz-adv-x="982" 
d="M774 -37l-1 -10q-3 -25 21 -25h93l-15 -88h-145q-42 0 -58 20.5t-11 63.5l2 16q4 31 16 48.5t45 38.5l7 5l-2 33q-56 -43 -95 -53q-41 -12 -115 -12h-327q-185 0 -152 185l61 347h175l-58 -326q-7 -40 7 -56.5t54 -16.5h316q63 0 107 29l35 24l62 346h174l-94 -532h-67
l-12 -8q-21 -12 -23 -29z" />
    <glyph glyph-name="Wcircumflex" unicode="&#x174;" horiz-adv-x="1510" 
d="M943 742l-98 62l-121 -62h-140l174 126h182l130 -126h-127zM1057 195l327 505h209l-474 -700h-159l-167 496l-342 -496h-154l-226 700h194l149 -505l340 505h138z" />
    <glyph glyph-name="wcircumflex" unicode="&#x175;" horiz-adv-x="1314" 
d="M816 574l-98 62l-121 -62h-140l174 126h182l130 -126h-127zM905 171l251 361h201l-394 -532h-150l-141 366l-269 -366h-146l-206 532h185l125 -360l266 360h137z" />
    <glyph glyph-name="Ycircumflex" unicode="&#x176;" horiz-adv-x="1068" 
d="M728 742l-98 62l-121 -62h-140l174 126h182l130 -126h-127zM908 700h243l-527 -444l-45 -256h-184l45 255l-369 445h227l250 -311z" />
    <glyph glyph-name="ycircumflex" unicode="&#x177;" horiz-adv-x="958" 
d="M643 574l-98 62l-121 -62h-140l174 126h182l130 -126h-127zM449 153l339 379h219l-514 -545q-86 -91 -144 -119q-57 -28 -170 -28h-200l23 130h196q48 0 73 13q26 14 63 55l1 1l-290 493h201z" />
    <glyph glyph-name="Ydieresis" unicode="&#x178;" horiz-adv-x="1068" 
d="M431 852h142l-17 -102h-142zM689 852h142l-17 -102h-142zM908 700h243l-527 -444l-45 -256h-184l45 255l-369 445h227l250 -311z" />
    <glyph glyph-name="Zacute" unicode="&#x179;" horiz-adv-x="1064" 
d="M896 868l-196 -126h-166l156 126h206zM979 0h-988l21 118l722 436h-625l26 146h968l-21 -118l-723 -436h646z" />
    <glyph glyph-name="zacute" unicode="&#x17a;" horiz-adv-x="938" 
d="M803 700l-196 -126h-166l156 126h206zM855 0h-866l17 98l592 310h-517l22 124h846l-17 -98l-592 -310h537z" />
    <glyph glyph-name="Zdotaccent" unicode="&#x17b;" horiz-adv-x="1064" 
d="M707 750h-177l17 102h177zM979 0h-988l21 118l722 436h-625l26 146h968l-21 -118l-723 -436h646z" />
    <glyph glyph-name="zdotaccent" unicode="&#x17c;" horiz-adv-x="938" 
d="M614 582h-177l17 102h177zM855 0h-866l17 98l592 310h-517l22 124h846l-17 -98l-592 -310h537z" />
    <glyph glyph-name="Zcaron" unicode="&#x17d;" horiz-adv-x="1064" 
d="M741 868h140l-174 -126h-182l-130 126h127l98 -62zM979 0h-988l21 118l722 436h-625l26 146h968l-21 -118l-723 -436h646z" />
    <glyph glyph-name="zcaron" unicode="&#x17e;" horiz-adv-x="938" 
d="M648 700h140l-174 -126h-182l-130 126h127l98 -62zM855 0h-866l17 98l592 310h-517l22 124h846l-17 -98l-592 -310h537z" />
    <glyph glyph-name="florin" unicode="&#x192;" horiz-adv-x="952" 
d="M961 558h-235q-44 0 -65.5 -18t-35.5 -64l-37 -131h316l-20 -110h-327l-57 -201q-28 -104 -80 -149t-148 -45h-305l25 142h235q45 0 66.5 18t34.5 64l48 171h-320l20 110h331l46 161q30 104 81.5 149t147.5 45h305z" />
    <glyph glyph-name="Aringacute" unicode="&#x1fa;" horiz-adv-x="1132" 
d="M1091 0h-203l-62 135h-551l-111 -135h-217l563 664q-56 2 -45 57l5 26q4 30 17.5 41.5t43.5 11.5h83l70 68h184l-93 -68h14q57 0 48 -57l-5 -26q-5 -30 -18.5 -41.5t-43.5 -11.5h-7zM536 739l-2 -13q-2 -11 1 -15.5t14 -4.5h195q11 0 15 3.5t6 15.5l3 13q2 11 -1 15.5
t-14 4.5h-195q-11 0 -15.5 -4t-6.5 -15zM627 565l-238 -290h372z" />
    <glyph glyph-name="aringacute" unicode="&#x1fb;" horiz-adv-x="969" 
d="M727 532h56q183 0 150 -182l-62 -350h-147l-3 63q-56 -41 -92 -51q-37 -12 -108 -12h-389q-61 0 -91.5 35.5t-18.5 97.5l11 57q12 63 45.5 91.5t94.5 28.5h579l6 35q7 41 -6.5 56.5t-53.5 15.5h-380q-31 0 -45 -12t-18 -42l-2 -17h-169l7 44q13 78 51.5 110t116.5 32h104
q-1 3 1 21l5 26q4 30 17.5 41.5t43.5 11.5h83l70 68h184l-93 -68h14q57 0 48 -57l-5 -26q-1 -8 -4 -17zM435 571l-2 -13q-2 -11 1 -15.5t14 -4.5h195q11 0 15 3.5t6 15.5l3 13q2 11 -1 15.5t-14 4.5h-195q-11 0 -15.5 -4t-6.5 -15zM246 107h348q51 0 91 26l40 27l11 60h-477
q-28 0 -40 -10t-16 -38l-2 -12q-4 -29 6 -41t39 -12z" />
    <glyph glyph-name="AEacute" unicode="&#x1fc;" horiz-adv-x="1576" 
d="M946 868h206l-196 -126h-166zM1615 700l-24 -133h-778l71 -151h641l-20 -111h-569l81 -172h508l-24 -133h-625l-60 135h-541l-111 -135h-217l593 700h1075zM626 564l-237 -289h365z" />
    <glyph glyph-name="aeacute" unicode="&#x1fd;" horiz-adv-x="1662" 
d="M959 700h206l-196 -126h-166zM987 532h494q181 0 149 -182l-20 -111h-697l-7 -42q-7 -40 6 -55.5t53 -15.5h404q31 0 44 11.5t19 42.5l3 16h168l-10 -54q-14 -78 -52 -110t-115 -32h-521q-106 0 -139 61q-55 -40 -90 -50q-39 -11 -107 -11h-437q-61 0 -91 36t-18 97
l11 58q12 63 44.5 91t93.5 28h580l6 35q7 40 -6 56t-54 16h-380q-31 0 -45 -12t-18 -42l-2 -17h-169l7 44q13 78 51.5 110t116.5 32h494q79 0 110 -40q37 40 124 40zM933 349l-2 -12h529l1 9q7 40 -6 55t-53 15h-391q-40 0 -55.5 -13.5t-22.5 -53.5zM685 133l40 27l11 60
h-477q-28 0 -40 -10t-16 -38l-2 -12q-5 -29 5 -41t39 -12h349q51 0 91 26z" />
    <glyph glyph-name="Oslashacute" unicode="&#x1fe;" horiz-adv-x="1116" 
d="M716 868h206l-196 -126h-166zM1181 730l-109 -76q56 -55 37 -164l-55 -306q-18 -100 -67.5 -142t-148.5 -42h-628q-32 0 -59 6l-52 -36h-134l109 76q-56 55 -37 164l55 306q18 100 67.5 142t148.5 42h628q32 0 59 -6l52 36h134zM263 480l-45 -254q-8 -51 13 -69l574 403
h-448q-45 0 -65.5 -17.5t-28.5 -62.5zM883 220l45 254q8 51 -13 69l-574 -403h448q45 0 65.5 17.5t28.5 62.5z" />
    <glyph glyph-name="oslashacute" unicode="&#x1ff;" horiz-adv-x="974" 
d="M615 700h206l-196 -126h-166zM1011 566l-104 -68q53 -45 35 -151l-32 -183q-17 -93 -58 -128q-44 -36 -135 -36h-533q-5 0 -37 2l-55 -36h-129l104 68q-53 45 -35 151l32 183q17 93 59 128q42 36 134 36h533q5 0 37 -2l55 36h129zM217 348l-28 -157q-9 -52 19 -65
l441 288h-355q-39 0 -54.5 -13.5t-22.5 -52.5zM757 184l28 157q9 52 -19 65l-441 -288h355q39 0 54.5 13.5t22.5 52.5z" />
    <glyph glyph-name="Scommaaccent" unicode="&#x218;" horiz-adv-x="1096" 
d="M28 158l9 58h178l-4 -27q-4 -31 7 -43.5t43 -12.5h528q31 0 44 12t18 44l5 31q5 33 -2.5 45t-35.5 13l-597 28q-156 7 -130 156l17 96q13 78 51 110t116 32h678q155 0 129 -158l-7 -46h-178l2 15q4 31 -7.5 43.5t-42.5 12.5h-504q-30 0 -43.5 -12.5t-18.5 -43.5l-2 -13
q-5 -32 3 -43.5t35 -12.5l597 -28q156 -7 130 -158l-20 -114q-13 -78 -51 -110t-116 -32h-702q-155 0 -129 158zM481 -214h-91l68 88h-61l17 96h168l-6 -36q-4 -29 -14 -47q-8 -15 -34 -44z" />
    <glyph glyph-name="scommaaccent" unicode="&#x219;" horiz-adv-x="954" 
d="M21 127l8 47h168l-6 -31q-3 -17 3.5 -24t24.5 -7h456q18 0 25.5 6.5t10.5 24.5l6 32q3 17 -3.5 24t-24.5 8l-520 24q-56 2 -82 34.5t-16 90.5l11 60q21 116 136 116h596q57 0 85 -34.5t18 -92.5l-7 -41h-168l5 25q7 31 -28 31h-432q-18 0 -26 -7t-10 -24l-2 -14
q-2 -17 4 -24t23 -8l520 -24q57 -2 83.5 -35t15.5 -90l-15 -78q-23 -116 -136 -116h-620q-57 0 -85 34.5t-18 92.5zM410 -214h-91l68 88h-61l17 96h168l-6 -36q-4 -29 -14 -47q-8 -15 -34 -44z" />
    <glyph glyph-name="uni021A" unicode="&#x21a;" horiz-adv-x="996" 
d="M91 700h968l-28 -152h-391l-97 -548h-184l97 548h-393zM408 -126h-61l17 96h168l-6 -36q-4 -29 -14 -47q-8 -15 -34 -44l-47 -57h-91z" />
    <glyph glyph-name="uni021B" unicode="&#x21b;" horiz-adv-x="798" 
d="M798 405h-383l-38 -218q-5 -31 5.5 -44t42.5 -13h325l-23 -130h-401q-158 0 -129 156l44 249h-202l22 127h202l54 120h142l-21 -120h382zM349 -126h-61l17 96h168l-6 -36q-4 -29 -14 -47q-8 -15 -34 -44l-47 -57h-91z" />
    <glyph glyph-name="uni0237" unicode="&#x237;" horiz-adv-x="394" 
d="M118 -160h-315l22 124h228q31 0 44 11t18 42l91 515h177l-97 -550q-14 -78 -52.5 -110t-115.5 -32z" />
    <glyph glyph-name="circumflex" unicode="&#x2c6;" horiz-adv-x="518" 
d="M250 574h-140l174 126h182l130 -126h-127l-98 62z" />
    <glyph glyph-name="caron" unicode="&#x2c7;" horiz-adv-x="573" 
d="M479 700h140l-174 -126h-182l-130 126h127l98 -62z" />
    <glyph glyph-name="breve" unicode="&#x2d8;" horiz-adv-x="502" 
d="M509 574h-322q-76 0 -63 76l9 50h122l-6 -30q-4 -28 24 -28h171q27 0 31 28l6 30h122l-9 -54q-7 -38 -27 -55t-58 -17z" />
    <glyph glyph-name="dotaccent" unicode="&#x2d9;" horiz-adv-x="277" 
d="M290 582h-177l17 102h177z" />
    <glyph glyph-name="ring" unicode="&#x2da;" horiz-adv-x="384" 
d="M111 621l5 26q4 30 18 41.5t44 11.5h258q56 0 47 -57l-5 -26q-4 -30 -18 -41.5t-44 -11.5h-258q-56 0 -47 57zM183 639l-3 -13q-2 -11 1 -15.5t14 -4.5h195q11 0 15 3.5t6 15.5l3 13q2 11 -1 15.5t-14 4.5h-195q-11 0 -15 -3.5t-6 -15.5z" />
    <glyph glyph-name="ogonek" unicode="&#x2db;" horiz-adv-x="360" 
d="M187 11l-52 -23q-20 -11 -21 -25l-2 -10q-3 -25 21 -25h184l-16 -88h-235q-42 0 -58 20.5t-11 63.5l2 16q4 31 17.5 49t45.5 36l83 42z" />
    <glyph glyph-name="tilde" unicode="&#x2dc;" horiz-adv-x="502" 
d="M214 574h-104l14 78q8 48 57 48h146q24 0 35 -5t22 -21l29 -34q8 -8 19 -8h25q11 0 14 12l9 56h104l-13 -78q-5 -26 -18.5 -37t-39.5 -11h-145q-24 0 -35 5t-23 21l-28 34q-10 8 -20 8h-25q-11 0 -13 -12z" />
    <glyph glyph-name="hungarumlaut" unicode="&#x2dd;" horiz-adv-x="575" 
d="M397 700l-154 -126h-152l120 126h186zM663 700l-154 -126h-151l120 126h185z" />
    <glyph glyph-name="gravecomb" unicode="&#x300;" horiz-adv-x="0" 
d="M-7 574h-148l-152 126h188z" />
    <glyph glyph-name="acutecomb" unicode="&#x301;" horiz-adv-x="0" 
d="M24 700l-196 -126h-166l156 126h206z" />
    <glyph glyph-name="uni0302" unicode="&#x302;" horiz-adv-x="0" 
d="M-348 574h-140l174 126h182l130 -126h-127l-98 62z" />
    <glyph glyph-name="tildecomb" unicode="&#x303;" horiz-adv-x="0" 
d="M-350 574h-104l14 78q8 48 57 48h146q24 0 35 -5t22 -21l29 -34q8 -8 19 -8h25q11 0 14 12l9 56h104l-13 -78q-5 -26 -18.5 -37t-39.5 -11h-145q-24 0 -35 5t-23 21l-28 34q-10 8 -20 8h-25q-11 0 -13 -12z" />
    <glyph glyph-name="uni0304" unicode="&#x304;" horiz-adv-x="0" 
d="M3 598h-488l14 80h488z" />
    <glyph glyph-name="uni0306" unicode="&#x306;" horiz-adv-x="0" 
d="M-73 574h-322q-76 0 -63 76l9 50h122l-6 -30q-4 -28 24 -28h171q27 0 31 28l6 30h122l-9 -54q-7 -38 -27 -55t-58 -17z" />
    <glyph glyph-name="uni0307" unicode="&#x307;" horiz-adv-x="0" 
d="M1 582h-177l17 102h177z" />
    <glyph glyph-name="uni0308" unicode="&#x308;" horiz-adv-x="0" 
d="M-257 582h-142l17 102h142zM1 582h-142l17 102h142z" />
    <glyph glyph-name="uni030A" unicode="&#x30a;" horiz-adv-x="0" 
d="M-353 621l5 26q4 30 18 41.5t44 11.5h258q56 0 47 -57l-5 -26q-4 -30 -18 -41.5t-44 -11.5h-258q-56 0 -47 57zM-281 639l-3 -13q-2 -11 1 -15.5t14 -4.5h195q11 0 15 3.5t6 15.5l3 13q2 11 -1 15.5t-14 4.5h-195q-11 0 -15 -3.5t-6 -15.5z" />
    <glyph glyph-name="uni030B" unicode="&#x30b;" horiz-adv-x="0" 
d="M-226 700l-154 -126h-152l120 126h186zM40 700l-154 -126h-151l120 126h185z" />
    <glyph glyph-name="uni030C" unicode="&#x30c;" horiz-adv-x="0" 
d="M-119 700h140l-174 -126h-182l-130 126h127l98 -62z" />
    <glyph glyph-name="uni0312" unicode="&#x312;" horiz-adv-x="0" 
d="M-63 758h92l-63 -88h49l-16 -96h-156l6 36q4 30 12 47q6 12 32 43z" />
    <glyph glyph-name="uni0326" unicode="&#x326;" horiz-adv-x="0" 
d="M-209 -214h-91l68 88h-61l17 96h168l-6 -36q-4 -29 -14 -47q-8 -15 -34 -44z" />
    <glyph glyph-name="uni0327" unicode="&#x327;" horiz-adv-x="0" 
d="M-175 -160h-252l9 53h204q9 0 12 11l2 10q3 12 -9 12h-135l5 24l36 70h68l-24 -46h104q57 0 46 -56l-5 -26q-5 -29 -18.5 -40.5t-42.5 -11.5z" />
    <glyph glyph-name="uni0328" unicode="&#x328;" horiz-adv-x="0" 
d="M-245 11l-52 -23q-20 -11 -21 -25l-2 -10q-3 -25 21 -25h184l-16 -88h-235q-42 0 -58 20.5t-11 63.5l2 16q4 31 17.5 49t45.5 36l83 42z" />
    <glyph glyph-name="uni0335" unicode="&#x335;" horiz-adv-x="0" 
d="M-473 303l18 102h440l-18 -102h-440z" />
    <glyph glyph-name="uni0336" unicode="&#x336;" horiz-adv-x="0" 
d="M-897 303l18 102h864l-18 -102h-864z" />
    <glyph glyph-name="uni0337" unicode="&#x337;" horiz-adv-x="0" 
d="M-468 299l18 102l444 60l-18 -102z" />
    <glyph glyph-name="uni0338" unicode="&#x338;" horiz-adv-x="0" 
d="M-688 -30l638 600h104l-638 -600h-104z" />
    <glyph glyph-name="uni0394" unicode="&#x394;" horiz-adv-x="1132" 
d="M540 700h205l346 -700h-1144zM627 565l-353 -431h552z" />
    <glyph glyph-name="uni03A9" unicode="&#x3a9;" horiz-adv-x="1116" 
d="M307 700h634q99 0 142 -52.5t25 -151.5l-35 -195q-14 -78 -48.5 -117.5t-96.5 -49.5h127l-24 -134h-446l40 224h172q46 0 66 17.5t28 63.5l28 163q8 46 -8.5 66t-62.5 20h-488q-46 0 -66 -17.5t-28 -63.5l-28 -163q-8 -46 8.5 -66t62.5 -20h166l-40 -224h-446l24 134h144
q-131 25 -103 181l36 201q18 100 68 142t149 42z" />
    <glyph glyph-name="uni03BC" unicode="&#x3bc;" horiz-adv-x="1035" 
d="M949 130h48l-23 -130h-123q-98 0 -115 71q-57 -46 -99 -58q-39 -13 -118 -13h-327q-17 0 -22 1l-28 -161h-162l122 692h174l-57 -326q-7 -40 7 -56.5t54 -16.5h316q63 0 107 29l36 24l61 346h174l-63 -356q-4 -25 4 -35.5t34 -10.5z" />
    <glyph glyph-name="pi" unicode="&#x3c0;" horiz-adv-x="1088" 
d="M1088 405h-128l-38 -217q-5 -31 6 -44.5t43 -13.5h69l-23 -130h-145q-156 0 -129 158l43 247h-455l-72 -405h-174l71 405h-118l23 127h1050z" />
    <glyph glyph-name="uni0401" unicode="&#x401;" horiz-adv-x="994" 
d="M400 852h142l-17 -102h-142zM658 852h142l-17 -102h-142zM1032 700l-25 -142h-716l-24 -134h676l-23 -128h-676l-27 -154h726l-25 -142h-910l124 700h900z" />
    <glyph glyph-name="uni0403" unicode="&#x403;" horiz-adv-x="930" 
d="M623 868h206l-196 -126h-166zM133 700h860l-28 -152h-675l-97 -548h-184z" />
    <glyph glyph-name="uni0405" unicode="&#x405;" horiz-adv-x="1096" 
d="M28 158l9 58h178l-4 -27q-4 -31 7 -43.5t43 -12.5h528q31 0 44 12t18 44l5 31q5 33 -2.5 45t-35.5 13l-597 28q-156 7 -130 156l17 96q13 78 51 110t116 32h678q155 0 129 -158l-7 -46h-178l2 15q4 31 -7.5 43.5t-42.5 12.5h-504q-30 0 -43.5 -12.5t-18.5 -43.5l-2 -13
q-5 -32 3 -43.5t35 -12.5l597 -28q156 -7 130 -158l-20 -114q-13 -78 -51 -110t-116 -32h-702q-155 0 -129 158z" />
    <glyph glyph-name="uni0406" unicode="&#x406;" horiz-adv-x="308" 
d="M14 0l124 700h186l-124 -700h-186z" />
    <glyph glyph-name="uni0407" unicode="&#x407;" horiz-adv-x="308" 
d="M182 750h-142l17 102h142zM440 750h-142l17 102h142zM14 0l124 700h186l-124 -700h-186z" />
    <glyph glyph-name="uni0408" unicode="&#x408;" horiz-adv-x="1004" 
d="M723 0h-538q-99 0 -142.5 52.5t-25.5 151.5l14 78h178l-10 -52q-8 -45 9 -65.5t62 -20.5h399q45 0 65.5 17.5t27.5 62.5l85 476h184l-92 -516q-18 -100 -67.5 -142t-148.5 -42z" />
    <glyph glyph-name="uni040C" unicode="&#x40c;" horiz-adv-x="1051" 
d="M683 868h206l-196 -126h-166zM801 700h312l-621 -343l501 -357h-291l-455 340l-60 -340h-184l124 700h184l-56 -318z" />
    <glyph glyph-name="uni040E" unicode="&#x40e;" horiz-adv-x="1068" 
d="M817 742h-322q-76 0 -63 76l9 50h122l-6 -30q-4 -28 24 -28h171q27 0 31 28l6 30h122l-9 -54q-7 -38 -27 -55t-58 -17zM542 365l366 335h243l-788 -700h-242l291 258l-341 442h224z" />
    <glyph glyph-name="uni0410" unicode="&#x410;" horiz-adv-x="1132" 
d="M1091 0h-203l-62 135h-551l-111 -135h-217l593 700h205zM627 565l-238 -290h372z" />
    <glyph glyph-name="uni0411" unicode="&#x411;" horiz-adv-x="1080" 
d="M849 0h-840l124 700h922l-23 -133h-738l-26 -143h639q156 0 130 -159l-21 -123q-13 -78 -51 -110t-116 -32zM246 305l-29 -173h561q31 0 44 11.5t18 42.5l10 60q5 32 -6 45.5t-43 13.5h-555z" />
    <glyph glyph-name="uni0412" unicode="&#x412;" horiz-adv-x="1080" 
d="M129 700h804q75 0 108.5 -41t20.5 -117l-10 -60q-9 -54 -29.5 -83t-57.5 -39q79 -28 61 -137l-14 -81q-13 -78 -51 -110t-116 -32h-840zM824 568h-535l-26 -150h541q31 0 43.5 11t18.5 43l7 37q12 59 -49 59zM836 186l11 58q12 59 -49 59h-555l-30 -171h561q31 0 43.5 11
t18.5 43z" />
    <glyph glyph-name="uni0413" unicode="&#x413;" horiz-adv-x="930" 
d="M133 700h860l-28 -152h-675l-97 -548h-184z" />
    <glyph glyph-name="uni0414" unicode="&#x414;" horiz-adv-x="1178" 
d="M1140 700l-97 -554h100l-47 -266h-172l21 120h-806l-21 -120h-172l47 266h60q40 0 57.5 14.5t27.5 55.5l116 484h886zM405 548l-77 -316q-10 -47 -32 -86h563l71 402h-525z" />
    <glyph glyph-name="uni0415" unicode="&#x415;" horiz-adv-x="994" 
d="M1032 700l-25 -142h-716l-24 -134h676l-23 -128h-676l-27 -154h726l-25 -142h-910l124 700h900z" />
    <glyph glyph-name="uni0416" unicode="&#x416;" horiz-adv-x="1805" 
d="M1561 700h312l-620 -343l500 -357h-291l-455 339l-60 -339h-184l60 337l-556 -337h-311l629 363l-501 337h292l454 -322l57 322h184l-56 -318z" />
    <glyph glyph-name="uni0417" unicode="&#x417;" horiz-adv-x="1094" 
d="M272 700h681q78 0 112.5 -41.5t19.5 -119.5l-11 -59q-11 -57 -32.5 -85t-60.5 -37q76 -33 58 -138l-14 -80q-13 -77 -50 -108.5t-115 -31.5h-701q-77 0 -111 41t-21 120l15 89h178l-10 -58q-10 -60 51 -60h527q31 0 43.5 11t17.5 42l9 55q5 32 -6.5 46t-43.5 14h-429
l22 121h427q31 0 43.5 11t17.5 42l6 34q11 60 -50 60h-507q-31 0 -43.5 -11t-17.5 -42l-10 -57h-178l18 102q13 78 50 109t115 31z" />
    <glyph glyph-name="uni0418" unicode="&#x418;" horiz-adv-x="1124" 
d="M225 216l762 484h158l-124 -700h-178l86 489l-770 -489h-150l124 700h178z" />
    <glyph glyph-name="uni0419" unicode="&#x419;" horiz-adv-x="1124" 
d="M841 742h-322q-76 0 -63 76l9 50h122l-6 -30q-4 -28 24 -28h171q27 0 31 28l6 30h122l-9 -54q-7 -38 -27 -55t-58 -17zM225 216l762 484h158l-124 -700h-178l86 489l-770 -489h-150l124 700h178z" />
    <glyph glyph-name="uni041A" unicode="&#x41a;" horiz-adv-x="1051" 
d="M801 700h312l-621 -343l501 -357h-291l-455 340l-60 -340h-184l124 700h184l-56 -318z" />
    <glyph glyph-name="uni041B" unicode="&#x41b;" horiz-adv-x="1106" 
d="M85 0h-118l26 146h46q39 0 56.5 14t28.5 56l117 484h886l-124 -700h-184l96 548h-524l-89 -366q-24 -97 -74 -139.5t-143 -42.5z" />
    <glyph glyph-name="uni041C" unicode="&#x41c;" horiz-adv-x="1244" 
d="M614 282l481 418h170l-124 -700h-178l83 469l-399 -347h-102l-275 347l-83 -469h-178l124 700h149z" />
    <glyph glyph-name="uni041D" unicode="&#x41d;" horiz-adv-x="1104" 
d="M895 440l46 260h184l-124 -700h-184l51 288h-624l-51 -288h-184l124 700h184l-46 -260h624z" />
    <glyph glyph-name="uni041E" unicode="&#x41e;" horiz-adv-x="1116" 
d="M838 0h-634q-99 0 -142.5 52.5t-25.5 151.5l56 312q18 100 67.5 142t148.5 42h634q99 0 142.5 -52.5t25.5 -151.5l-56 -312q-18 -100 -67.5 -142t-148.5 -42zM296 146h488q45 0 65.5 17.5t28.5 62.5l43 242q8 45 -9 65.5t-62 20.5h-488q-45 0 -65.5 -17.5t-28.5 -62.5
l-43 -242q-8 -45 9 -65.5t62 -20.5z" />
    <glyph glyph-name="uni041F" unicode="&#x41f;" horiz-adv-x="1104" 
d="M193 0h-184l124 700h992l-124 -700h-184l96 548h-624z" />
    <glyph glyph-name="uni0420" unicode="&#x420;" horiz-adv-x="1056" 
d="M193 0h-184l124 700h788q182 0 151 -184l-23 -131q-17 -94 -59 -129q-44 -36 -135 -36h-623zM292 566l-37 -218h538q38 0 53.5 13.5t23.5 53.5l14 78q7 40 -7 56.5t-54 16.5h-531z" />
    <glyph glyph-name="uni0421" unicode="&#x421;" horiz-adv-x="1088" 
d="M812 0h-608q-99 0 -142.5 52.5t-25.5 151.5l56 312q18 100 67.5 142t148.5 42h608q99 0 142 -52.5t26 -151.5l-13 -72h-178l8 46q8 46 -8.5 66t-61.5 20h-469q-45 0 -65.5 -17.5t-27.5 -62.5l-44 -246q-8 -46 8.5 -66t61.5 -20h469q45 0 65 17t28 63l11 59h178l-18 -99
q-18 -100 -67.5 -142t-148.5 -42z" />
    <glyph glyph-name="uni0422" unicode="&#x422;" horiz-adv-x="996" 
d="M91 700h968l-28 -152h-391l-97 -548h-184l97 548h-393z" />
    <glyph glyph-name="uni0423" unicode="&#x423;" horiz-adv-x="1068" 
d="M542 365l366 335h243l-788 -700h-242l291 258l-341 442h224z" />
    <glyph glyph-name="uni0424" unicode="&#x424;" horiz-adv-x="1402" 
d="M856 656h364q99 0 142.5 -52.5t25.5 -151.5l-40 -224q-18 -100 -67.5 -142t-148.5 -42h-384l-15 -84h-172l15 84h-364q-99 0 -142.5 52.5t-25.5 151.5l40 224q18 100 67.5 142t148.5 42h384l15 84h172zM302 178h298l60 344h-304q-46 0 -66 -17.5t-28 -63.5l-31 -177
q-8 -46 8.5 -66t62.5 -20zM1170 259l31 177q8 46 -8.5 66t-62.5 20h-298l-60 -344h304q46 0 66 17.5t28 63.5z" />
    <glyph glyph-name="uni0425" unicode="&#x425;" horiz-adv-x="1080" 
d="M219 0h-263l473 356l-339 344h243l233 -241l313 241h263l-461 -344l347 -356h-243l-240 254z" />
    <glyph glyph-name="uni0426" unicode="&#x426;" horiz-adv-x="1162" 
d="M930 0h-920l123 700h184l-97 -548h624l97 548h184l-97 -548h100l-48 -272h-172z" />
    <glyph glyph-name="uni0427" unicode="&#x427;" horiz-adv-x="1076" 
d="M973 0h-184l40 228h-624q-182 0 -151 184l51 288h184l-44 -247q-7 -40 7 -56.5t54 -16.5h551l56 320h184z" />
    <glyph glyph-name="uni0428" unicode="&#x428;" horiz-adv-x="1588" 
d="M1485 0h-1476l124 700h184l-97 -548h462l97 548h184l-97 -548h462l97 548h184z" />
    <glyph glyph-name="uni0429" unicode="&#x429;" horiz-adv-x="1646" 
d="M1414 0h-1404l123 700h184l-97 -548h462l97 548h184l-97 -548h462l97 548h184l-97 -548h100l-48 -272h-172z" />
    <glyph glyph-name="uni042A" unicode="&#x42a;" horiz-adv-x="1272" 
d="M303 554h-238l26 146h422l-39 -220h624q182 0 151 -184l-23 -131q-17 -93 -59 -128q-43 -37 -135 -37h-827zM451 352l-38 -218h558q39 0 54.5 14t22.5 53l14 78q7 40 -6.5 56.5t-53.5 16.5h-551z" />
    <glyph glyph-name="uni042B" unicode="&#x42b;" horiz-adv-x="1364" 
d="M9 0l124 700h184l-39 -220h604q182 0 151 -184l-23 -131q-17 -93 -59 -128q-43 -37 -135 -37h-807zM1070 0l124 700h186l-124 -700h-186zM786 352h-531l-38 -218h538q39 0 54.5 14t22.5 53l14 78q7 40 -6.5 56.5t-53.5 16.5z" />
    <glyph glyph-name="uni042C" unicode="&#x42c;" horiz-adv-x="1056" 
d="M9 0l124 700h184l-39 -220h604q182 0 151 -184l-23 -131q-17 -93 -59 -128q-43 -37 -135 -37h-807zM786 352h-531l-38 -218h538q39 0 54.5 14t22.5 53l14 78q7 40 -6.5 56.5t-53.5 16.5z" />
    <glyph glyph-name="uni042D" unicode="&#x42d;" horiz-adv-x="1102" 
d="M305 700h624q99 0 142.5 -52.5t25.5 -151.5l-56 -312q-18 -100 -67.5 -142t-148.5 -42h-624q-99 0 -142 52.5t-26 151.5l14 79h179l-12 -66q-8 -45 8.5 -65t61.5 -20h485q45 0 65.5 17.5t28.5 62.5l16 90h-492l19 111h492l12 70q8 45 -8 65t-62 20h-484
q-46 0 -66.5 -17.5t-28.5 -62.5l-11 -64h-178l17 92q18 100 67.5 142t148.5 42z" />
    <glyph glyph-name="uni042E" unicode="&#x42e;" horiz-adv-x="1595" 
d="M787 700h634q99 0 142.5 -52.5t25.5 -151.5l-56 -312q-18 -100 -67.5 -142t-148.5 -42h-634q-99 0 -142.5 52.5t-25.5 151.5l15 83h-286l-51 -287h-184l124 700h184l-46 -260h286l14 76q18 100 67.5 142t148.5 42zM1357 226l43 242q8 45 -9 65.5t-62 20.5h-488
q-45 0 -65.5 -17.5t-28.5 -62.5l-43 -242q-8 -45 9 -65.5t62 -20.5h488q45 0 65.5 17.5t28.5 62.5z" />
    <glyph glyph-name="uni042F" unicode="&#x42f;" horiz-adv-x="1074" 
d="M288 700h807l-124 -700h-184l43 244h-369l-258 -244h-237l273 254l-11 2q-182 0 -151 184l17 95q17 93 59 129q43 36 135 36zM321 368h531l36 204h-538q-39 0 -54.5 -14t-22.5 -53l-12 -64q-7 -40 6.5 -56.5t53.5 -16.5z" />
    <glyph glyph-name="uni0430" unicode="&#x430;" horiz-adv-x="969" 
d="M259 532h524q183 0 150 -182l-62 -350h-147l-3 63q-56 -41 -92 -51q-37 -12 -108 -12h-389q-61 0 -91.5 35.5t-18.5 97.5l11 57q12 63 45.5 91.5t94.5 28.5h579l6 35q7 41 -6.5 56.5t-53.5 15.5h-380q-31 0 -45 -12t-18 -42l-2 -17h-169l7 44q13 78 51.5 110t116.5 32z
M246 107h348q51 0 91 26l40 27l11 60h-477q-28 0 -40 -10t-16 -38l-2 -12q-4 -29 6 -41t39 -12z" />
    <glyph glyph-name="uni0431" unicode="&#x431;" horiz-adv-x="976" 
d="M302 458h478q77 0 113.5 -36t36.5 -114v-158q0 -78 -36.5 -114t-113.5 -36h-582q-77 0 -113.5 36t-36.5 114v342q0 98 46 144.5t148 51.5l668 22v-128l-637 -22q-49 -2 -69 -22.5t-20 -68.5v-61q26 50 118 50zM756 182v98q0 31 -12.5 43.5t-43.5 12.5h-422
q-31 0 -43.5 -12.5t-12.5 -43.5v-98q0 -31 12.5 -43.5t43.5 -12.5h422q31 0 43.5 12.5t12.5 43.5z" />
    <glyph glyph-name="uni0432" unicode="&#x432;" horiz-adv-x="962" 
d="M102 532h730q119 0 99 -121l-8 -44q-14 -78 -67 -94q63 -22 48 -104l-11 -60q-10 -59 -39.5 -84t-88.5 -25h-757l48 267h-1zM715 421h-458l-18 -100h461q23 0 33 9t15 33l3 16q4 23 -4 32.5t-32 9.5zM726 151l5 31q4 24 -4 33.5t-32 9.5h-473l-21 -114h477q24 0 34 8.5
t14 31.5z" />
    <glyph glyph-name="uni0433" unicode="&#x433;" horiz-adv-x="821" 
d="M182 0h-174l94 532h752l-24 -133h-577z" />
    <glyph glyph-name="uni0434" unicode="&#x434;" horiz-adv-x="1053" 
d="M992 532l-71 -403h94l-44 -249h-162l21 120h-700l-21 -120h-163l44 249h55q34 0 49.5 13t24.5 48l83 342h790zM346 399l-48 -192q-12 -45 -29 -78h478l47 270h-448z" />
    <glyph glyph-name="uni0435" unicode="&#x435;" horiz-adv-x="964" 
d="M258 532h524q91 0 128 -44t21 -137l-19 -112h-698l-7 -42q-7 -40 5.5 -55.5t52.5 -15.5h405q31 0 44 11.5t19 42.5l3 16h169l-10 -53q-15 -79 -52.5 -111t-114.5 -32h-548q-181 0 -149 182l32 184q16 92 60 130q43 36 135 36zM233 349l-2 -12h530l1 9q7 40 -5.5 55
t-52.5 15h-392q-39 0 -55.5 -14t-23.5 -53z" />
    <glyph glyph-name="uni0436" unicode="&#x436;" horiz-adv-x="1621" 
d="M1347 532h315l-516 -267l429 -265h-298l-383 249l-44 -249h-175l43 243l-451 -243h-317l524 273l-423 259h297l377 -249l45 249h175l-44 -246z" />
    <glyph glyph-name="uni0437" unicode="&#x437;" horiz-adv-x="964" 
d="M209 532h627q119 0 99 -121l-8 -44q-13 -78 -71 -95q59 -23 44 -103l-11 -60q-10 -59 -39.5 -84t-88.5 -25h-641q-120 0 -100 121l12 68h169l-6 -34q-4 -23 4.5 -32.5t32.5 -9.5h443q23 0 33 8.5t15 32.5l5 26q9 43 -36 43h-361l17 100h355q24 0 34.5 9.5t14.5 32.5l2 12
q4 22 -4 32t-31 10h-429q-24 0 -33.5 -8.5t-14.5 -32.5l-5 -29h-169l13 74q10 59 39.5 84t88.5 25z" />
    <glyph glyph-name="uni0438" unicode="&#x438;" horiz-adv-x="996" 
d="M208 180l632 352h148l-94 -532h-169l63 356l-640 -356h-140l94 532h168z" />
    <glyph glyph-name="uni0439" unicode="&#x439;" horiz-adv-x="996" 
d="M743 574h-322q-76 0 -63 76l9 50h122l-6 -30q-4 -28 24 -28h171q27 0 31 28l6 30h122l-9 -54q-7 -38 -27 -55t-58 -17zM208 180l632 352h148l-94 -532h-169l63 356l-640 -356h-140l94 532h168z" />
    <glyph glyph-name="uni043A" unicode="&#x43a;" horiz-adv-x="953" 
d="M679 532h315l-517 -267l430 -265h-298l-384 249l-44 -249h-174l94 532h175l-44 -246z" />
    <glyph glyph-name="uni043B" unicode="&#x43b;" horiz-adv-x="985" 
d="M78 0h-111l23 129h39q35 0 51 13t24 48l83 342h790l-94 -532h-175l71 399h-448l-59 -236q-21 -87 -65.5 -125t-128.5 -38z" />
    <glyph glyph-name="uni043C" unicode="&#x43c;" horiz-adv-x="1082" 
d="M170 0h-162l94 532h147l279 -302l389 302h157l-94 -532h-163l62 350l-331 -258h-77l-239 258z" />
    <glyph glyph-name="uni043D" unicode="&#x43d;" horiz-adv-x="982" 
d="M766 340l34 192h174l-94 -532h-175l37 206h-524l-36 -206h-174l94 532h174l-34 -192h524z" />
    <glyph glyph-name="uni043E" unicode="&#x43e;" horiz-adv-x="974" 
d="M717 0h-533q-184 0 -152 185l32 183q17 93 59 128q42 36 134 36h533q184 0 152 -185l-32 -183q-17 -93 -58 -128q-44 -36 -135 -36zM270 130h393q40 0 55.5 13.5t22.5 52.5l24 133q7 40 -7 56.5t-54 16.5h-393q-40 0 -55.5 -13.5t-22.5 -52.5l-24 -133q-7 -40 7 -56.5
t54 -16.5z" />
    <glyph glyph-name="uni043F" unicode="&#x43f;" horiz-adv-x="982" 
d="M182 0h-174l94 532h872l-94 -532h-175l71 399h-523z" />
    <glyph glyph-name="uni0440" unicode="&#x440;" horiz-adv-x="983" 
d="M462 532h340q182 0 149 -182l-32 -184q-17 -94 -59 -129q-43 -37 -136 -37h-349q-70 0 -109 11q-36 10 -74 45l-38 -216h-174l122 692h146l4 -67q56 43 96 55q39 12 114 12zM750 196l23 134q7 40 -6 56t-53 16h-328q-63 0 -107 -29l-35 -24l-29 -167l26 -25
q31 -27 101 -27h331q39 0 54.5 13t22.5 53z" />
    <glyph glyph-name="uni0441" unicode="&#x441;" horiz-adv-x="948" 
d="M691 0h-507q-184 0 -152 185l32 183q17 93 59 128q42 36 134 36h507q181 0 152 -185l-5 -34h-169l3 16q5 41 -8 57t-53 16h-373q-40 0 -55.5 -13.5t-22.5 -52.5l-24 -133q-7 -40 7 -56.5t54 -16.5h373q40 0 55.5 13.5t22.5 52.5l5 29h169l-11 -61q-17 -94 -58 -128
q-44 -36 -135 -36z" />
    <glyph glyph-name="uni0442" unicode="&#x442;" horiz-adv-x="876" 
d="M374 399h-337l24 133h848l-24 -133h-336l-71 -399h-174z" />
    <glyph glyph-name="uni0443" unicode="&#x443;" horiz-adv-x="958" 
d="M449 153l339 379h219l-514 -545q-86 -91 -144 -119q-57 -28 -170 -28h-200l23 130h196q48 0 73 13q26 14 63 55l1 1l-290 493h201z" />
    <glyph glyph-name="uni0444" unicode="&#x444;" horiz-adv-x="1330" 
d="M796 532h350q184 0 152 -185l-32 -183q-17 -93 -58 -128q-44 -36 -135 -36h-371l-28 -160h-168l28 160h-350q-184 0 -152 185l32 183q17 93 59 128q42 36 134 36h371l30 168h168zM268 119h287l52 294h-295q-39 0 -55 -13.5t-23 -53.5l-26 -154q-7 -40 6.5 -56.5
t53.5 -16.5zM1096 186l26 154q7 40 -6.5 56.5t-53.5 16.5h-287l-52 -294h295q39 0 55 13.5t23 53.5z" />
    <glyph glyph-name="uni0445" unicode="&#x445;" horiz-adv-x="941" 
d="M211 0h-261l392 271l-287 261h244l183 -167l237 167h260l-379 -261l295 -271h-245l-190 179z" />
    <glyph glyph-name="uni0446" unicode="&#x446;" horiz-adv-x="1035" 
d="M812 0h-803l93 532h174l-70 -399h524l70 399h174l-70 -399h93l-44 -253h-163z" />
    <glyph glyph-name="uni0447" unicode="&#x447;" horiz-adv-x="939" 
d="M75 532h175l-31 -172q-5 -31 6 -44t42 -13h449l41 229h174l-94 -532h-175l31 170h-524q-78 0 -111 40t-19 118z" />
    <glyph glyph-name="uni0448" unicode="&#x448;" horiz-adv-x="1413" 
d="M1311 0h-1303l94 532h174l-70 -399h390l70 399h175l-71 -399h390l71 399h174z" />
    <glyph glyph-name="uni0449" unicode="&#x449;" horiz-adv-x="1486" 
d="M1263 0h-1254l93 532h174l-70 -399h400l70 399h175l-70 -399h400l70 399h174l-70 -399h94l-45 -253h-163z" />
    <glyph glyph-name="uni044A" unicode="&#x44a;" horiz-adv-x="1086" 
d="M225 399h-188l24 133h363l-30 -163h528q154 0 127 -154l-14 -76q-13 -77 -50 -108t-113 -31h-717zM375 262l-26 -149h456q29 0 42.5 11t18.5 40l7 42q5 31 -5 43.5t-41 12.5h-452z" />
    <glyph glyph-name="uni044B" unicode="&#x44b;" horiz-adv-x="1233" 
d="M8 0l94 532h174l-29 -163h528q154 0 127 -154l-14 -76q-13 -77 -50 -108t-113 -31h-717zM1127 0h-176l94 532h177zM680 262h-452l-26 -149h456q29 0 42.5 11t18.5 40l7 42q5 31 -5.5 43.5t-40.5 12.5z" />
    <glyph glyph-name="uni044C" unicode="&#x44c;" horiz-adv-x="939" 
d="M8 0l94 532h174l-29 -163h528q154 0 127 -154l-14 -76q-13 -77 -50 -108t-113 -31h-717zM680 262h-452l-26 -149h456q29 0 42.5 11t18.5 40l7 42q5 31 -5.5 43.5t-40.5 12.5z" />
    <glyph glyph-name="uni044D" unicode="&#x44d;" horiz-adv-x="968" 
d="M256 532h527q184 0 152 -185l-32 -183q-17 -94 -58 -128q-43 -36 -135 -36h-527q-185 0 -152 185l7 40h168l-5 -26q-7 -39 7.5 -56t54.5 -17h393q39 0 54 13.5t23 53.5l6 32h-407l16 94h408l3 14q7 39 -7.5 56t-54.5 17h-393q-39 0 -54 -13.5t-23 -53.5l-5 -26h-168l9 55
q15 93 58 129q43 35 135 35z" />
    <glyph glyph-name="uni044E" unicode="&#x44e;" horiz-adv-x="1377" 
d="M660 532h533q184 0 152 -185l-32 -183q-17 -93 -58 -128q-43 -36 -135 -36h-533q-184 0 -152 185l4 21h-221l-36 -206h-174l94 532h174l-34 -192h220l5 28q17 93 59 128q42 36 134 36zM1144 196l24 133q7 40 -7 56.5t-54 16.5h-393q-40 0 -55.5 -13.5t-22.5 -52.5
l-24 -133q-7 -40 7 -56.5t54 -16.5h393q40 0 55.5 13.5t22.5 52.5z" />
    <glyph glyph-name="uni044F" unicode="&#x44f;" horiz-adv-x="961" 
d="M236 532h717l-94 -532h-175l33 182h-356l-185 -182h-204l197 191q-132 11 -105 153l9 49q13 77 50 108t113 31zM283 284h452l24 140h-456q-29 0 -42 -11.5t-18 -40.5l-6 -33q-5 -30 5.5 -42.5t40.5 -12.5z" />
    <glyph glyph-name="uni0451" unicode="&#x451;" horiz-adv-x="964" 
d="M355 684h142l-17 -102h-142zM613 684h142l-17 -102h-142zM258 532h524q91 0 128 -44t21 -137l-19 -112h-698l-7 -42q-7 -40 5.5 -55.5t52.5 -15.5h405q31 0 44 11.5t19 42.5l3 16h169l-10 -53q-15 -79 -52.5 -111t-114.5 -32h-548q-181 0 -149 182l32 184q16 92 60 130
q43 36 135 36zM233 349l-2 -12h530l1 9q7 40 -5.5 55t-52.5 15h-392q-39 0 -55.5 -14t-23.5 -53z" />
    <glyph glyph-name="uni0453" unicode="&#x453;" horiz-adv-x="821" 
d="M745 700l-196 -126h-166l156 126h206zM182 0h-174l94 532h752l-24 -133h-577z" />
    <glyph glyph-name="uni0455" unicode="&#x455;" horiz-adv-x="954" 
d="M21 127l8 47h168l-6 -31q-3 -17 3.5 -24t24.5 -7h456q18 0 25.5 6.5t10.5 24.5l6 32q3 17 -3.5 24t-24.5 8l-520 24q-56 2 -82 34.5t-16 90.5l11 60q21 116 136 116h596q57 0 85 -34.5t18 -92.5l-7 -41h-168l5 25q7 31 -28 31h-432q-18 0 -26 -7t-10 -24l-2 -14
q-2 -17 4 -24t23 -8l520 -24q57 -2 83.5 -35t15.5 -90l-15 -78q-23 -116 -136 -116h-620q-57 0 -85 34.5t-18 92.5z" />
    <glyph glyph-name="uni0456" unicode="&#x456;" horiz-adv-x="294" 
d="M291 582h-177l21 118h177zM188 0h-177l94 532h177z" />
    <glyph glyph-name="uni0457" unicode="&#x457;" horiz-adv-x="294" 
d="M145 582h-142l17 102h142zM403 582h-142l17 102h142zM188 0h-176l94 532h177z" />
    <glyph glyph-name="uni0458" unicode="&#x458;" horiz-adv-x="394" 
d="M391 582h-177l22 118h176zM118 -160h-315l22 124h228q31 0 44 11t18 42l91 515h177l-97 -550q-13 -78 -51.5 -110t-116.5 -32z" />
    <glyph glyph-name="uni045C" unicode="&#x45c;" horiz-adv-x="953" 
d="M605 700h206l-196 -126h-166zM679 532h315l-517 -267l430 -265h-298l-384 249l-44 -249h-174l94 532h175l-44 -246z" />
    <glyph glyph-name="uni045E" unicode="&#x45e;" horiz-adv-x="958" 
d="M738 574h-322q-76 0 -63 76l9 50h122l-6 -30q-4 -28 24 -28h171q27 0 31 28l6 30h122l-9 -54q-7 -38 -27 -55t-58 -17zM449 153l339 379h219l-514 -545q-86 -91 -144 -119q-57 -28 -170 -28h-200l23 130h196q48 0 73 13q26 14 63 55l1 1l-290 493h201z" />
    <glyph glyph-name="uni0498" unicode="&#x498;" horiz-adv-x="1094" 
d="M272 700h681q78 0 112.5 -41.5t19.5 -119.5l-11 -59q-11 -57 -32.5 -85t-60.5 -37q76 -33 58 -138l-14 -80q-13 -77 -50 -108.5t-115 -31.5h-339l-14 -26h104q57 0 46 -56l-5 -26q-5 -29 -18.5 -40.5t-42.5 -11.5h-252l9 53h204q9 0 12 11l2 10q3 12 -9 12h-135l5 24
l26 50h-294q-77 0 -111 41t-21 120l15 89h178l-10 -58q-10 -60 51 -60h527q31 0 43.5 11t17.5 42l9 55q5 32 -6.5 46t-43.5 14h-429l22 121h427q31 0 43.5 11t17.5 42l6 34q11 60 -50 60h-507q-31 0 -43.5 -11t-17.5 -42l-10 -57h-178l18 102q13 78 50 109t115 31z" />
    <glyph glyph-name="uni0499" unicode="&#x499;" horiz-adv-x="964" 
d="M209 532h627q119 0 99 -121l-8 -44q-13 -78 -71 -95q59 -23 44 -103l-11 -60q-10 -59 -39.5 -84t-88.5 -25h-305l-14 -26h104q57 0 46 -56l-5 -26q-5 -29 -18.5 -40.5t-42.5 -11.5h-252l9 53h204q9 0 12 11l2 10q3 12 -9 12h-135l5 24l26 50h-268q-120 0 -100 121l12 68
h169l-6 -34q-4 -23 4.5 -32.5t32.5 -9.5h443q23 0 33 8.5t15 32.5l5 26q9 43 -36 43h-361l17 100h355q24 0 34.5 9.5t14.5 32.5l2 12q4 22 -4 32t-31 10h-429q-24 0 -33.5 -8.5t-14.5 -32.5l-5 -29h-169l13 74q10 59 39.5 84t88.5 25z" />
    <glyph glyph-name="uni04BB" unicode="&#x4bb;" horiz-adv-x="978" 
d="M466 532h323q185 0 152 -185l-61 -347h-175l58 326q7 40 -7 56.5t-54 16.5h-316q-63 0 -107 -29l-36 -24l-61 -346h-174l124 700h174l-40 -227q55 39 90 49q36 10 110 10z" />
    <glyph glyph-name="uni04C0" unicode="&#x4c0;" horiz-adv-x="308" 
d="M14 0l124 700h186l-124 -700h-186z" />
    <glyph glyph-name="uni04C1" unicode="&#x4c1;" horiz-adv-x="1805" 
d="M1197 742h-322q-76 0 -63 76l9 50h122l-6 -30q-4 -28 24 -28h171q27 0 31 28l6 30h122l-9 -54q-7 -38 -27 -55t-58 -17zM1561 700h312l-620 -343l500 -357h-291l-455 339l-60 -339h-184l60 337l-556 -337h-311l629 363l-501 337h292l454 -322l57 322h184l-56 -318z" />
    <glyph glyph-name="uni04C2" unicode="&#x4c2;" horiz-adv-x="1621" 
d="M1076 574h-322q-76 0 -63 76l9 50h122l-6 -30q-4 -28 24 -28h171q27 0 31 28l6 30h122l-9 -54q-7 -38 -27 -55t-58 -17zM1347 532h315l-516 -267l429 -265h-298l-383 249l-44 -249h-175l43 243l-451 -243h-317l524 273l-423 259h297l377 -249l45 249h175l-44 -246z" />
    <glyph glyph-name="uni04D0" unicode="&#x4d0;" horiz-adv-x="1132" 
d="M861 742h-322q-76 0 -63 76l9 50h122l-6 -30q-4 -28 24 -28h171q27 0 31 28l6 30h122l-9 -54q-7 -38 -27 -55t-58 -17zM1091 0h-203l-62 135h-551l-111 -135h-217l593 700h205zM627 565l-238 -290h372z" />
    <glyph glyph-name="uni04D1" unicode="&#x4d1;" horiz-adv-x="969" 
d="M750 574h-322q-76 0 -63 76l9 50h122l-6 -30q-4 -28 24 -28h171q27 0 31 28l6 30h122l-9 -54q-7 -38 -27 -55t-58 -17zM259 532h524q183 0 150 -182l-62 -350h-147l-3 63q-56 -41 -92 -51q-37 -12 -108 -12h-389q-61 0 -91.5 35.5t-18.5 97.5l11 57q12 63 45.5 91.5
t94.5 28.5h579l6 35q7 41 -6.5 56.5t-53.5 15.5h-380q-31 0 -45 -12t-18 -42l-2 -17h-169l7 44q13 78 51.5 110t116.5 32zM246 107h348q51 0 91 26l40 27l11 60h-477q-28 0 -40 -10t-16 -38l-2 -12q-4 -29 6 -41t39 -12z" />
    <glyph glyph-name="uni04D2" unicode="&#x4d2;" horiz-adv-x="1132" 
d="M469 852h142l-17 -102h-142zM727 852h142l-17 -102h-142zM1091 0h-203l-62 135h-551l-111 -135h-217l593 700h205zM627 565l-238 -290h372z" />
    <glyph glyph-name="uni04D3" unicode="&#x4d3;" horiz-adv-x="969" 
d="M358 684h142l-17 -102h-142zM616 684h142l-17 -102h-142zM259 532h524q183 0 150 -182l-62 -350h-147l-3 63q-56 -41 -92 -51q-37 -12 -108 -12h-389q-61 0 -91.5 35.5t-18.5 97.5l11 57q12 63 45.5 91.5t94.5 28.5h579l6 35q7 41 -6.5 56.5t-53.5 15.5h-380
q-31 0 -45 -12t-18 -42l-2 -17h-169l7 44q13 78 51.5 110t116.5 32zM246 107h348q51 0 91 26l40 27l11 60h-477q-28 0 -40 -10t-16 -38l-2 -12q-4 -29 6 -41t39 -12z" />
    <glyph glyph-name="uni04D4" unicode="&#x4d4;" horiz-adv-x="1576" 
d="M1615 700l-24 -133h-778l71 -151h641l-20 -111h-569l81 -172h508l-24 -133h-625l-60 135h-541l-111 -135h-217l593 700h1075zM626 564l-237 -289h365z" />
    <glyph glyph-name="uni04D5" unicode="&#x4d5;" horiz-adv-x="1662" 
d="M987 532h494q181 0 149 -182l-20 -111h-697l-7 -42q-7 -40 6 -55.5t53 -15.5h404q31 0 44 11.5t19 42.5l3 16h168l-10 -54q-14 -78 -52 -110t-115 -32h-521q-106 0 -139 61q-55 -40 -90 -50q-39 -11 -107 -11h-437q-61 0 -91 36t-18 97l11 58q12 63 44.5 91t93.5 28h580
l6 35q7 40 -6 56t-54 16h-380q-31 0 -45 -12t-18 -42l-2 -17h-169l7 44q13 78 51.5 110t116.5 32h494q79 0 110 -40q37 40 124 40zM933 349l-2 -12h529l1 9q7 40 -6 55t-53 15h-391q-40 0 -55.5 -13.5t-22.5 -53.5zM685 133l40 27l11 60h-477q-28 0 -40 -10t-16 -38l-2 -12
q-5 -29 5 -41t39 -12h349q51 0 91 26z" />
    <glyph glyph-name="uni04D6" unicode="&#x4d6;" horiz-adv-x="994" 
d="M792 742h-322q-76 0 -63 76l9 50h122l-6 -30q-4 -28 24 -28h171q27 0 31 28l6 30h122l-9 -54q-7 -38 -27 -55t-58 -17zM1032 700l-25 -142h-716l-24 -134h676l-23 -128h-676l-27 -154h726l-25 -142h-910l124 700h900z" />
    <glyph glyph-name="uni04D7" unicode="&#x4d7;" horiz-adv-x="964" 
d="M747 574h-322q-76 0 -63 76l9 50h122l-6 -30q-4 -28 24 -28h171q27 0 31 28l6 30h122l-9 -54q-7 -38 -27 -55t-58 -17zM258 532h524q91 0 128 -44t21 -137l-19 -112h-698l-7 -42q-7 -40 5.5 -55.5t52.5 -15.5h405q31 0 44 11.5t19 42.5l3 16h169l-10 -53
q-15 -79 -52.5 -111t-114.5 -32h-548q-181 0 -149 182l32 184q16 92 60 130q43 36 135 36zM233 349l-2 -12h530l1 9q7 40 -5.5 55t-52.5 15h-392q-39 0 -55.5 -14t-23.5 -53z" />
    <glyph glyph-name="uni04DC" unicode="&#x4dc;" horiz-adv-x="1805" 
d="M805 852h142l-17 -102h-142zM1063 852h142l-17 -102h-142zM1561 700h312l-620 -343l500 -357h-291l-455 339l-60 -339h-184l60 337l-556 -337h-311l629 363l-501 337h292l454 -322l57 322h184l-56 -318z" />
    <glyph glyph-name="uni04DD" unicode="&#x4dd;" horiz-adv-x="1621" 
d="M684 684h142l-17 -102h-142zM942 684h142l-17 -102h-142zM1347 532h315l-516 -267l429 -265h-298l-383 249l-44 -249h-175l43 243l-451 -243h-317l524 273l-423 259h297l377 -249l45 249h175l-44 -246z" />
    <glyph glyph-name="uni04DE" unicode="&#x4de;" horiz-adv-x="1094" 
d="M450 852h142l-17 -102h-142zM708 852h142l-17 -102h-142zM272 700h681q78 0 112.5 -41.5t19.5 -119.5l-11 -59q-11 -57 -32.5 -85t-60.5 -37q76 -33 58 -138l-14 -80q-13 -77 -50 -108.5t-115 -31.5h-701q-77 0 -111 41t-21 120l15 89h178l-10 -58q-10 -60 51 -60h527
q31 0 43.5 11t17.5 42l9 55q5 32 -6.5 46t-43.5 14h-429l22 121h427q31 0 43.5 11t17.5 42l6 34q11 60 -50 60h-507q-31 0 -43.5 -11t-17.5 -42l-10 -57h-178l18 102q13 78 50 109t115 31z" />
    <glyph glyph-name="uni04DF" unicode="&#x4df;" horiz-adv-x="964" 
d="M355 684h142l-17 -102h-142zM613 684h142l-17 -102h-142zM209 532h627q119 0 99 -121l-8 -44q-13 -78 -71 -95q59 -23 44 -103l-11 -60q-10 -59 -39.5 -84t-88.5 -25h-641q-120 0 -100 121l12 68h169l-6 -34q-4 -23 4.5 -32.5t32.5 -9.5h443q23 0 33 8.5t15 32.5l5 26
q9 43 -36 43h-361l17 100h355q24 0 34.5 9.5t14.5 32.5l2 12q4 22 -4 32t-31 10h-429q-24 0 -33.5 -8.5t-14.5 -32.5l-5 -29h-169l13 74q10 59 39.5 84t88.5 25z" />
    <glyph glyph-name="uni04E2" unicode="&#x4e2;" horiz-adv-x="1124" 
d="M405 846h488l-14 -80h-488zM225 216l762 484h158l-124 -700h-178l86 489l-770 -489h-150l124 700h178z" />
    <glyph glyph-name="uni04E3" unicode="&#x4e3;" horiz-adv-x="996" 
d="M307 678h488l-14 -80h-488zM208 180l632 352h148l-94 -532h-169l63 356l-640 -356h-140l94 532h168z" />
    <glyph glyph-name="uni04E4" unicode="&#x4e4;" horiz-adv-x="1124" 
d="M449 852h142l-17 -102h-142zM707 852h142l-17 -102h-142zM225 216l762 484h158l-124 -700h-178l86 489l-770 -489h-150l124 700h178z" />
    <glyph glyph-name="uni04E5" unicode="&#x4e5;" horiz-adv-x="996" 
d="M351 684h142l-17 -102h-142zM609 684h142l-17 -102h-142zM208 180l632 352h148l-94 -532h-169l63 356l-640 -356h-140l94 532h168z" />
    <glyph glyph-name="uni04E6" unicode="&#x4e6;" horiz-adv-x="1116" 
d="M586 750h-142l17 102h142zM844 750h-142l17 102h142zM838 0h-634q-99 0 -142.5 52.5t-25.5 151.5l56 312q18 100 67.5 142t148.5 42h634q99 0 142.5 -52.5t25.5 -151.5l-56 -312q-18 -100 -67.5 -142t-148.5 -42zM296 146h488q45 0 65.5 17.5t28.5 62.5l43 242
q8 45 -9 65.5t-62 20.5h-488q-45 0 -65.5 -17.5t-28.5 -62.5l-43 -242q-8 -45 9 -65.5t62 -20.5z" />
    <glyph glyph-name="uni04E7" unicode="&#x4e7;" horiz-adv-x="974" 
d="M485 582h-142l17 102h142zM743 582h-142l17 102h142zM717 0h-533q-184 0 -152 185l32 183q17 93 59 128q42 36 134 36h533q184 0 152 -185l-32 -183q-17 -93 -58 -128q-44 -36 -135 -36zM270 130h393q40 0 55.5 13.5t22.5 52.5l24 133q7 40 -7 56.5t-54 16.5h-393
q-40 0 -55.5 -13.5t-22.5 -52.5l-24 -133q-7 -40 7 -56.5t54 -16.5z" />
    <glyph glyph-name="uni04EC" unicode="&#x4ec;" horiz-adv-x="1102" 
d="M454 852h142l-17 -102h-142zM712 852h142l-17 -102h-142zM305 700h624q99 0 142.5 -52.5t25.5 -151.5l-56 -312q-18 -100 -67.5 -142t-148.5 -42h-624q-99 0 -142 52.5t-26 151.5l14 79h179l-12 -66q-8 -45 8.5 -65t61.5 -20h485q45 0 65.5 17.5t28.5 62.5l16 90h-492
l19 111h492l12 70q8 45 -8 65t-62 20h-484q-46 0 -66.5 -17.5t-28.5 -62.5l-11 -64h-178l17 92q18 100 67.5 142t148.5 42z" />
    <glyph glyph-name="uni04ED" unicode="&#x4ed;" horiz-adv-x="968" 
d="M357 684h142l-17 -102h-142zM615 684h142l-17 -102h-142zM256 532h527q184 0 152 -185l-32 -183q-17 -94 -58 -128q-43 -36 -135 -36h-527q-185 0 -152 185l7 40h168l-5 -26q-7 -39 7.5 -56t54.5 -17h393q39 0 54 13.5t23 53.5l6 32h-407l16 94h408l3 14q7 39 -7.5 56
t-54.5 17h-393q-39 0 -54 -13.5t-23 -53.5l-5 -26h-168l9 55q15 93 58 129q43 35 135 35z" />
    <glyph glyph-name="uni04EE" unicode="&#x4ee;" horiz-adv-x="1068" 
d="M381 846h488l-14 -80h-488zM542 365l366 335h243l-788 -700h-242l291 258l-341 442h224z" />
    <glyph glyph-name="uni04EF" unicode="&#x4ef;" horiz-adv-x="958" 
d="M302 678h488l-14 -80h-488zM449 153l339 379h219l-514 -545q-86 -91 -144 -119q-57 -28 -170 -28h-200l23 130h196q48 0 73 13q26 14 63 55l1 1l-290 493h201z" />
    <glyph glyph-name="uni04F0" unicode="&#x4f0;" horiz-adv-x="1068" 
d="M425 852h142l-17 -102h-142zM683 852h142l-17 -102h-142zM542 365l366 335h243l-788 -700h-242l291 258l-341 442h224z" />
    <glyph glyph-name="uni04F1" unicode="&#x4f1;" horiz-adv-x="958" 
d="M346 684h142l-17 -102h-142zM604 684h142l-17 -102h-142zM449 153l339 379h219l-514 -545q-86 -91 -144 -119q-57 -28 -170 -28h-200l23 130h196q48 0 73 13q26 14 63 55l1 1l-290 493h201z" />
    <glyph glyph-name="uni04F2" unicode="&#x4f2;" horiz-adv-x="1068" 
d="M515 868h186l-154 -126h-152zM967 868l-154 -126h-151l120 126h185zM542 365l366 335h243l-788 -700h-242l291 258l-341 442h224z" />
    <glyph glyph-name="uni04F3" unicode="&#x4f3;" horiz-adv-x="958" 
d="M436 700h186l-154 -126h-152zM888 700l-154 -126h-151l120 126h185zM449 153l339 379h219l-514 -545q-86 -91 -144 -119q-57 -28 -170 -28h-200l23 130h196q48 0 73 13q26 14 63 55l1 1l-290 493h201z" />
    <glyph glyph-name="uni04F4" unicode="&#x4f4;" horiz-adv-x="1076" 
d="M566 750h-142l17 102h142zM824 750h-142l17 102h142zM973 0h-184l40 228h-624q-182 0 -151 184l51 288h184l-44 -247q-7 -40 7 -56.5t54 -16.5h551l56 320h184z" />
    <glyph glyph-name="uni04F5" unicode="&#x4f5;" horiz-adv-x="600" 
d="M255 582h-142l17 102h142zM513 582h-142l17 102h142zM75 532h175l-31 -172q-5 -31 6 -44t42 -13h449l41 229h174l-94 -532h-175l31 170h-524q-78 0 -111 40t-19 118z" />
    <glyph glyph-name="uni04F8" unicode="&#x4f8;" horiz-adv-x="1364" 
d="M1238 750h-142l17 102h142zM1496 750h-142l17 102h142zM9 0l124 700h184l-39 -220h604q182 0 151 -184l-23 -131q-17 -93 -59 -128q-43 -37 -135 -37h-807zM1070 0l124 700h186l-124 -700h-186zM786 352h-531l-38 -218h538q39 0 54.5 14t22.5 53l14 78q7 40 -6.5 56.5
t-53.5 16.5z" />
    <glyph glyph-name="uni04F9" unicode="&#x4f9;" horiz-adv-x="1233" 
d="M1084 582h-142l17 102h142zM1342 582h-142l17 102h142zM8 0l94 532h174l-29 -163h528q154 0 127 -154l-14 -76q-13 -77 -50 -108t-113 -31h-717zM1127 0h-176l94 532h177zM680 262h-452l-26 -149h456q29 0 42.5 11t18.5 40l7 42q5 31 -5.5 43.5t-40.5 12.5z" />
    <glyph glyph-name="Wgrave" unicode="&#x1e80;" horiz-adv-x="1510" 
d="M790 868l112 -126h-148l-152 126h188zM1057 195l327 505h209l-474 -700h-159l-167 496l-342 -496h-154l-226 700h194l149 -505l340 505h138z" />
    <glyph glyph-name="wgrave" unicode="&#x1e81;" horiz-adv-x="1314" 
d="M663 700l112 -126h-148l-152 126h188zM905 171l251 361h201l-394 -532h-150l-141 366l-269 -366h-146l-206 532h185l125 -360l266 360h137z" />
    <glyph glyph-name="Wacute" unicode="&#x1e82;" horiz-adv-x="1510" 
d="M901 868h206l-196 -126h-166zM1057 195l327 505h209l-474 -700h-159l-167 496l-342 -496h-154l-226 700h194l149 -505l340 505h138z" />
    <glyph glyph-name="wacute" unicode="&#x1e83;" horiz-adv-x="1314" 
d="M774 700h206l-196 -126h-166zM905 171l251 361h201l-394 -532h-150l-141 366l-269 -366h-146l-206 532h185l125 -360l266 360h137z" />
    <glyph glyph-name="Wdieresis" unicode="&#x1e84;" horiz-adv-x="1510" 
d="M646 852h142l-17 -102h-142zM904 852h142l-17 -102h-142zM1057 195l327 505h209l-474 -700h-159l-167 496l-342 -496h-154l-226 700h194l149 -505l340 505h138z" />
    <glyph glyph-name="wdieresis" unicode="&#x1e85;" horiz-adv-x="1314" 
d="M519 684h142l-17 -102h-142zM777 684h142l-17 -102h-142zM905 171l251 361h201l-394 -532h-150l-141 366l-269 -366h-146l-206 532h185l125 -360l266 360h137z" />
    <glyph glyph-name="uni1E9E" unicode="&#x1e9e;" horiz-adv-x="1115" 
d="M311 700h791l-14 -78l-355 -190h208q77 0 110.5 -41t20.5 -119l-22 -132q-13 -77 -50.5 -108.5t-115.5 -31.5h-536l24 128h439q30 0 42.5 11t18.5 42l13 70q6 32 -5.5 45.5t-43.5 13.5h-412l16 92l299 154h-375q-45 0 -66 -17t-28 -62l-83 -477h-184l91 516
q18 100 68 142t149 42z" />
    <glyph glyph-name="Ygrave" unicode="&#x1ef2;" horiz-adv-x="1068" 
d="M575 868l112 -126h-148l-152 126h188zM908 700h243l-527 -444l-45 -256h-184l45 255l-369 445h227l250 -311z" />
    <glyph glyph-name="ygrave" unicode="&#x1ef3;" horiz-adv-x="958" 
d="M490 700l112 -126h-148l-152 126h188zM449 153l339 379h219l-514 -545q-86 -91 -144 -119q-57 -28 -170 -28h-200l23 130h196q48 0 73 13q26 14 63 55l1 1l-290 493h201z" />
    <glyph glyph-name="endash" unicode="&#x2013;" horiz-adv-x="940" 
d="M45 280l24 140h856l-24 -140h-856z" />
    <glyph glyph-name="emdash" unicode="&#x2014;" horiz-adv-x="1220" 
d="M45 280l24 140h1136l-24 -140h-1136z" />
    <glyph glyph-name="quoteleft" unicode="&#x2018;" horiz-adv-x="316" 
d="M217 700h120l-86 -160h57l-29 -168h-204l11 66q10 64 49 123z" />
    <glyph glyph-name="quoteright" unicode="&#x2019;" horiz-adv-x="316" 
d="M194 372h-120l86 160h-57l29 168h204l-11 -66q-10 -64 -49 -123z" />
    <glyph glyph-name="quotesinglbase" unicode="&#x201a;" horiz-adv-x="316" 
d="M101 -160h-120l86 160h-57l29 168h204l-11 -66q-10 -64 -49 -123z" />
    <glyph glyph-name="quotedblleft" unicode="&#x201c;" horiz-adv-x="604" 
d="M217 700h120l-86 -160h57l-29 -168h-204l11 66q10 64 49 123zM505 700h120l-86 -160h57l-29 -168h-204l11 66q10 64 49 123z" />
    <glyph glyph-name="quotedblright" unicode="&#x201d;" horiz-adv-x="604" 
d="M194 372h-120l86 160h-57l29 168h204l-11 -66q-10 -64 -49 -123zM482 372h-120l86 160h-57l29 168h204l-11 -66q-10 -64 -49 -123z" />
    <glyph glyph-name="quotedblbase" unicode="&#x201e;" horiz-adv-x="604" 
d="M101 -160h-120l86 160h-57l29 168h204l-11 -66q-10 -64 -49 -123zM389 -160h-120l86 160h-57l29 168h204l-11 -66q-10 -64 -49 -123z" />
    <glyph glyph-name="dagger" unicode="&#x2020;" horiz-adv-x="618" 
d="M422 581h213l-17 -98h-213l-39 -217h-115l39 217h-214l17 98h214l21 119h115z" />
    <glyph glyph-name="daggerdbl" unicode="&#x2021;" horiz-adv-x="618" 
d="M637 588l-16 -94h-214l-22 -122h214l-17 -94h-213l-20 -112h-115l20 112h-214l17 94h213l22 122h-213l16 94h213l20 112h115l-20 -112h214z" />
    <glyph glyph-name="bullet" unicode="&#x2022;" horiz-adv-x="420" 
d="M271 196h-136q-90 0 -74 91l23 135q7 45 29 63.5t67 18.5h136q89 0 74 -91l-23 -135q-8 -44 -30 -63t-66 -19z" />
    <glyph glyph-name="perthousand" unicode="&#x2030;" horiz-adv-x="1650" 
d="M542 509l-18 -106q-9 -53 -36.5 -76t-80.5 -23h-252q-53 0 -76 28.5t-14 82.5l18 106q9 54 36 76.5t81 22.5h252q108 0 90 -111zM203 0h-124l874 620h123zM202 386h180q23 0 33 8.5t15 31.5l12 69q4 23 -5 33t-32 10h-180q-23 0 -33 -8.5t-14 -31.5l-12 -69
q-9 -43 36 -43zM956 0h-252q-53 0 -76.5 29t-14.5 82l18 106q9 54 36 76.5t81 22.5h252q53 0 76.5 -28.5t14.5 -82.5l-19 -106q-9 -53 -36 -76t-80 -23zM1466 0h-252q-53 0 -76.5 29t-14.5 82l18 106q9 54 36 76.5t81 22.5h252q53 0 76.5 -28.5t14.5 -82.5l-19 -106
q-9 -53 -36 -76t-80 -23zM750 82h180q23 0 33 8.5t15 31.5l12 69q4 23 -5 33t-32 10h-180q-23 0 -33 -8.5t-14 -31.5l-12 -69q-9 -43 36 -43zM1260 82h180q23 0 33 8.5t15 31.5l12 69q4 23 -5 33t-32 10h-180q-23 0 -33 -8.5t-14 -31.5l-12 -69q-9 -43 36 -43z" />
    <glyph glyph-name="guilsinglleft" unicode="&#x2039;" horiz-adv-x="672" 
d="M74 410l607 182l-24 -138l-394 -103l355 -115l-23 -129l-539 202z" />
    <glyph glyph-name="guilsinglright" unicode="&#x203a;" horiz-adv-x="672" 
d="M84 463l23 129l539 -202l-18 -101l-607 -182l24 138l394 103z" />
    <glyph glyph-name="fraction" unicode="&#x2044;" horiz-adv-x="302" 
d="M-191 0h-118l831 700h118z" />
    <glyph glyph-name="Euro" unicode="&#x20ac;" horiz-adv-x="1072" 
d="M367 700h522q99 0 142 -52.5t26 -151.5l-13 -72h-172l10 61q8 46 -8.5 65.5t-62.5 19.5h-394q-46 0 -65.5 -17t-27.5 -63l-6 -35h450l-13 -71h-450l-12 -68h450l-13 -71h-450l-5 -30q-7 -46 9.5 -65.5t61.5 -19.5h395q45 0 65 17t28 63l13 73h172l-18 -99
q-18 -100 -67.5 -142t-148.5 -42h-522q-99 0 -142.5 52.5t-25.5 151.5l7 41h-102l13 71h102l12 68h-102l13 71h102l11 61q18 100 67.5 142t148.5 42z" />
    <glyph glyph-name="trademark" unicode="&#x2122;" horiz-adv-x="790" 
d="M432 700l-11 -59h-129l-31 -174h-69l31 174h-129l11 59h327zM622 568l153 132h64l-42 -233h-67l27 147l-125 -107h-37l-87 107l-27 -147h-66l42 233h58z" />
    <glyph glyph-name="minus" unicode="&#x2212;" 
d="M65 280l24 140h908l-24 -140h-908z" />
    <glyph glyph-name="approxequal" unicode="&#x2248;" 
d="M512 636l238 -154q20 -12 44 -12h38q25 0 31 25l31 179h148l-38 -212q-9 -52 -34.5 -74t-77.5 -22h-139q-53 0 -78 7q-31 8 -66 32l-237 153q-20 12 -45 12h-38q-26 0 -30 -25l-31 -179h-148l37 212q10 53 35.5 74.5t77.5 21.5h138q53 0 80 -7q27 -8 64 -31zM452 296
l238 -154q20 -12 44 -12h38q25 0 31 25l31 179h148l-38 -212q-9 -52 -34.5 -74t-77.5 -22h-139q-53 0 -78 7q-31 8 -66 32l-237 153q-20 12 -45 12h-38q-26 0 -30 -25l-31 -179h-148l37 212q10 53 35.5 74.5t77.5 21.5h138q53 0 80 -7q27 -8 64 -31z" />
    <glyph glyph-name="notequal" unicode="&#x2260;" 
d="M1019 546l-23 -134h-345l-93 -124h416l-23 -134h-494l-89 -118h-147l89 118h-267l23 134h344l94 124h-416l23 134h493l89 118h148l-89 -118h267z" />
    <glyph glyph-name="lessequal" unicode="&#x2264;" 
d="M107 518l937 166l-26 -145l-676 -90l642 -104l-24 -134l-875 186zM926 16h-908l22 121h908z" />
    <glyph glyph-name="greaterequal" unicode="&#x2265;" 
d="M112 550l24 134l875 -186l-22 -121l-937 -166l26 145l679 90zM926 16h-908l22 121h908z" />
    <glyph glyph-name="fi" unicode="&#xfb01;" horiz-adv-x="1072" 
d="M424 467h374l-23 -127h-374l-60 -340h-173l60 340h-201l23 127h200l16 91q13 78 51.5 110t116.5 32h405l-23 -128h-321q-31 0 -44 -11.5t-18 -42.5zM892 582l21 118h177l-21 -118h-177zM966 0h-177l94 532h177z" />
    <glyph glyph-name="fl" unicode="&#xfb02;" horiz-adv-x="1072" 
d="M424 467h374l-23 -127h-374l-60 -340h-173l60 340h-201l23 127h200l16 91q13 78 51.5 110t116.5 32h405l-23 -128h-321q-31 0 -44 -11.5t-18 -42.5zM790 0l124 700h176l-124 -700h-176z" />
    <glyph glyph-name="null" horiz-adv-x="0" 
 />
    <glyph glyph-name="A.ss01" horiz-adv-x="1111" 
d="M310 700h623q99 0 142.5 -52.5t25.5 -151.5l-88 -496h-184l34 194h-643l-34 -194h-184l92 516q18 100 67.5 142t148.5 42zM270 474l-25 -140h643l24 134q8 45 -8.5 65.5t-62.5 20.5h-477q-45 0 -65.5 -17.5t-28.5 -62.5z" />
    <glyph glyph-name="Aacute.ss01" horiz-adv-x="1111" 
d="M714 868h206l-196 -126h-166zM310 700h623q99 0 142.5 -52.5t25.5 -151.5l-88 -496h-184l34 194h-643l-34 -194h-184l92 516q18 100 67.5 142t148.5 42zM270 474l-25 -140h643l24 134q8 45 -8.5 65.5t-62.5 20.5h-477q-45 0 -65.5 -17.5t-28.5 -62.5z" />
    <glyph glyph-name="Abreve.ss01" horiz-adv-x="1111" 
d="M803 742h-322q-76 0 -63 76l9 50h122l-6 -30q-4 -28 24 -28h171q27 0 31 28l6 30h122l-9 -54q-7 -38 -27 -55t-58 -17zM310 700h623q99 0 142.5 -52.5t25.5 -151.5l-88 -496h-184l34 194h-643l-34 -194h-184l92 516q18 100 67.5 142t148.5 42zM270 474l-25 -140h643
l24 134q8 45 -8.5 65.5t-62.5 20.5h-477q-45 0 -65.5 -17.5t-28.5 -62.5z" />
    <glyph glyph-name="Acircumflex.ss01" horiz-adv-x="1111" 
d="M756 742l-98 62l-121 -62h-140l174 126h182l130 -126h-127zM310 700h623q99 0 142.5 -52.5t25.5 -151.5l-88 -496h-184l34 194h-643l-34 -194h-184l92 516q18 100 67.5 142t148.5 42zM270 474l-25 -140h643l24 134q8 45 -8.5 65.5t-62.5 20.5h-477q-45 0 -65.5 -17.5
t-28.5 -62.5z" />
    <glyph glyph-name="Adieresis.ss01" horiz-adv-x="1111" 
d="M459 852h142l-17 -102h-142zM717 852h142l-17 -102h-142zM310 700h623q99 0 142.5 -52.5t25.5 -151.5l-88 -496h-184l34 194h-643l-34 -194h-184l92 516q18 100 67.5 142t148.5 42zM270 474l-25 -140h643l24 134q8 45 -8.5 65.5t-62.5 20.5h-477q-45 0 -65.5 -17.5
t-28.5 -62.5z" />
    <glyph glyph-name="Agrave.ss01" horiz-adv-x="1111" 
d="M603 868l112 -126h-148l-152 126h188zM310 700h623q99 0 142.5 -52.5t25.5 -151.5l-88 -496h-184l34 194h-643l-34 -194h-184l92 516q18 100 67.5 142t148.5 42zM270 474l-25 -140h643l24 134q8 45 -8.5 65.5t-62.5 20.5h-477q-45 0 -65.5 -17.5t-28.5 -62.5z" />
    <glyph glyph-name="Amacron.ss01" horiz-adv-x="1111" 
d="M415 846h488l-14 -80h-488zM310 700h623q99 0 142.5 -52.5t25.5 -151.5l-88 -496h-184l34 194h-643l-34 -194h-184l92 516q18 100 67.5 142t148.5 42zM270 474l-25 -140h643l24 134q8 45 -8.5 65.5t-62.5 20.5h-477q-45 0 -65.5 -17.5t-28.5 -62.5z" />
    <glyph glyph-name="Aogonek.ss01" horiz-adv-x="1111" 
d="M825 -37l-2 -10q-3 -25 21 -25h184l-16 -88h-235q-42 0 -58 20.5t-11 63.5l2 16q4 31 17.5 49t45.5 36l66 34l24 135h-643l-34 -194h-184l92 516q18 100 67.5 142t148.5 42h623q99 0 142.5 -52.5t25.5 -151.5l-88 -496h-140l-27 -12q-20 -11 -21 -25zM270 474l-25 -140
h643l24 134q8 45 -8.5 65.5t-62.5 20.5h-477q-45 0 -65.5 -17.5t-28.5 -62.5z" />
    <glyph glyph-name="Aring.ss01" horiz-adv-x="1111" 
d="M770 732h-258q-56 0 -47 57l5 26q4 30 18 41.5t44 11.5h258q56 0 47 -57l-5 -26q-4 -30 -18 -41.5t-44 -11.5zM537 807l-3 -13q-2 -11 1 -15.5t14 -4.5h195q11 0 15 3.5t6 15.5l3 13q2 11 -1 15.5t-14 4.5h-195q-11 0 -15 -3.5t-6 -15.5zM310 700h623q99 0 142.5 -52.5
t25.5 -151.5l-88 -496h-184l34 194h-643l-34 -194h-184l92 516q18 100 67.5 142t148.5 42zM270 474l-25 -140h643l24 134q8 45 -8.5 65.5t-62.5 20.5h-477q-45 0 -65.5 -17.5t-28.5 -62.5z" />
    <glyph glyph-name="Aringacute.ss01" horiz-adv-x="1111" 
d="M818 700h115q99 0 142.5 -52.5t25.5 -151.5l-88 -496h-184l34 194h-643l-34 -194h-184l92 516q18 100 67.5 142t148.5 42h144q-1 3 1 21l5 26q4 30 17.5 41.5t43.5 11.5h83l70 68h184l-93 -68h14q57 0 48 -57l-5 -26q-1 -8 -4 -17zM526 739l-2 -13q-2 -11 1 -15.5
t14 -4.5h195q11 0 15 3.5t6 15.5l3 13q2 11 -1 15.5t-14 4.5h-195q-11 0 -15.5 -4t-6.5 -15zM270 474l-25 -140h643l24 134q8 45 -8.5 65.5t-62.5 20.5h-477q-45 0 -65.5 -17.5t-28.5 -62.5z" />
    <glyph glyph-name="Atilde.ss01" horiz-adv-x="1111" 
d="M528 798l-10 -56h-104l14 78q8 48 57 48h146q24 0 35 -5t22 -21l29 -34q8 -8 19 -8h25q11 0 14 12l9 56h104l-13 -78q-5 -26 -18.5 -37t-39.5 -11h-145q-24 0 -35 5t-23 21l-28 34q-10 8 -20 8h-25q-11 0 -13 -12zM310 700h623q99 0 142.5 -52.5t25.5 -151.5l-88 -496
h-184l34 194h-643l-34 -194h-184l92 516q18 100 67.5 142t148.5 42zM270 474l-25 -140h643l24 134q8 45 -8.5 65.5t-62.5 20.5h-477q-45 0 -65.5 -17.5t-28.5 -62.5z" />
    <glyph glyph-name="I.ss01" horiz-adv-x="788" 
d="M837 700l-24 -133h-272l-77 -434h273l-24 -133h-732l24 133h273l76 434h-273l24 133h732z" />
    <glyph glyph-name="Iacute.ss01" horiz-adv-x="788" 
d="M552 868h206l-196 -126h-166zM837 700l-24 -133h-272l-77 -434h273l-24 -133h-732l24 133h273l76 434h-273l24 133h732z" />
    <glyph glyph-name="Icircumflex.ss01" horiz-adv-x="788" 
d="M594 742l-98 62l-121 -62h-140l174 126h182l130 -126h-127zM837 700l-24 -133h-272l-77 -434h273l-24 -133h-732l24 133h273l76 434h-273l24 133h732z" />
    <glyph glyph-name="Idieresis.ss01" horiz-adv-x="788" 
d="M297 852h142l-17 -102h-142zM555 852h142l-17 -102h-142zM837 700l-24 -133h-272l-77 -434h273l-24 -133h-732l24 133h273l76 434h-273l24 133h732z" />
    <glyph glyph-name="Idotaccent.ss01" horiz-adv-x="788" 
d="M409 852h177l-17 -102h-177zM837 700l-24 -133h-272l-77 -434h273l-24 -133h-732l24 133h273l76 434h-273l24 133h732z" />
    <glyph glyph-name="Igrave.ss01" horiz-adv-x="788" 
d="M441 868l112 -126h-148l-152 126h188zM837 700l-24 -133h-272l-77 -434h273l-24 -133h-732l24 133h273l76 434h-273l24 133h732z" />
    <glyph glyph-name="Imacron.ss01" horiz-adv-x="788" 
d="M253 846h488l-14 -80h-488zM837 700l-24 -133h-272l-77 -434h273l-24 -133h-732l24 133h273l76 434h-273l24 133h732z" />
    <glyph glyph-name="Iogonek.ss01" horiz-adv-x="788" 
d="M837 700l-24 -133h-272l-77 -434h273l-24 -133h-167l-27 -12q-20 -11 -21 -25l-2 -10q-3 -25 21 -25h184l-16 -88h-235q-42 0 -58 20.5t-11 63.5l2 16q5 39 27 60h-429l24 133h273l76 434h-273l24 133h732z" />
    <glyph glyph-name="Itilde.ss01" horiz-adv-x="788" 
d="M366 798l-10 -56h-104l14 78q8 48 57 48h146q24 0 35 -5t22 -21l29 -34q8 -8 19 -8h25q11 0 14 12l9 56h104l-13 -78q-5 -26 -18.5 -37t-39.5 -11h-145q-24 0 -35 5t-23 21l-28 34q-10 8 -20 8h-25q-11 0 -13 -12zM837 700l-24 -133h-272l-77 -434h273l-24 -133h-732
l24 133h273l76 434h-273l24 133h732z" />
    <glyph glyph-name="R.ss01" horiz-adv-x="1078" 
d="M133 700h815q75 0 108.5 -40.5t20.5 -117.5l-22 -126q-16 -98 -84 -121q56 -37 40 -126l-30 -169h-184l33 182q6 33 -7 47.5t-46 14.5h-541l-43 -244h-184zM836 572h-542l-36 -204h548q33 0 47 12.5t20 45.5l15 84q12 62 -52 62z" />
    <glyph glyph-name="Racute.ss01" horiz-adv-x="1078" 
d="M697 868h206l-196 -126h-166zM133 700h815q75 0 108.5 -40.5t20.5 -117.5l-22 -126q-16 -98 -84 -121q56 -37 40 -126l-30 -169h-184l33 182q6 33 -7 47.5t-46 14.5h-541l-43 -244h-184zM836 572h-542l-36 -204h548q33 0 47 12.5t20 45.5l15 84q12 62 -52 62z" />
    <glyph glyph-name="Rcaron.ss01" horiz-adv-x="1078" 
d="M888 868l-174 -126h-182l-130 126h127l98 -62l121 62h140zM133 700h815q75 0 108.5 -40.5t20.5 -117.5l-22 -126q-16 -98 -84 -121q56 -37 40 -126l-30 -169h-184l33 182q6 33 -7 47.5t-46 14.5h-541l-43 -244h-184zM836 572h-542l-36 -204h548q33 0 47 12.5t20 45.5
l15 84q12 62 -52 62z" />
    <glyph glyph-name="Rcommaaccent.ss01" horiz-adv-x="1078" 
d="M133 700h815q75 0 108.5 -40.5t20.5 -117.5l-22 -126q-16 -98 -84 -121q56 -37 40 -126l-30 -169h-184l33 182q6 33 -7 47.5t-46 14.5h-541l-43 -244h-184zM836 572h-542l-36 -204h548q33 0 47 12.5t20 45.5l15 84q12 62 -52 62zM449 -126h-61l17 96h168l-6 -36
q-4 -29 -14 -47q-8 -15 -34 -44l-47 -57h-91z" />
    <glyph glyph-name="i.loclTRK" horiz-adv-x="294" 
d="M292 582h-177l17 102h177zM188 0h-176l94 532h177z" />
    <glyph glyph-name="uni0410.ss01" horiz-adv-x="1111" 
d="M310 700h623q99 0 142.5 -52.5t25.5 -151.5l-88 -496h-184l34 194h-643l-34 -194h-184l92 516q18 100 67.5 142t148.5 42zM270 474l-25 -140h643l24 134q8 45 -8.5 65.5t-62.5 20.5h-477q-45 0 -65.5 -17.5t-28.5 -62.5z" />
    <glyph glyph-name="uni042F.ss01" horiz-adv-x="1078" 
d="M274 700h824l-124 -700h-184l44 244h-546q-33 0 -48 -13t-20 -45l-34 -186h-184l32 179q20 106 97 128q-69 27 -51 131l20 114q13 78 54.5 113t119.5 35zM278 514l-15 -84q-6 -33 6 -47.5t45 -14.5h542l35 204h-546q-32 0 -47 -13t-20 -45z" />
    <glyph glyph-name="uni044F.ss01" horiz-adv-x="953" 
d="M198 532h747l-94 -532h-175l33 182h-472q-24 0 -34 -9t-15 -33l-25 -140h-168l26 145q14 82 75 95q-54 22 -40 103l14 80q11 59 40.5 84t87.5 25zM238 383l-11 -56q-4 -24 4 -33.5t32 -9.5h464l24 140h-466q-23 0 -33 -8.5t-14 -32.5z" />
    <glyph glyph-name="zero.tf" 
d="M745 0h-532q-99 0 -142.5 52.5t-25.5 151.5l56 312q18 100 67.5 142t148.5 42h532q99 0 142.5 -52.5t25.5 -151.5l-56 -312q-18 -100 -67.5 -142t-148.5 -42zM299 142h398q46 0 65.5 17t27.5 63l44 251q7 46 -9.5 65.5t-61.5 19.5h-399q-45 0 -65 -17t-27 -63l-44 -251
q-8 -46 8.5 -65.5t62.5 -19.5z" />
    <glyph glyph-name="one.tf" 
d="M712 700l-100 -566h355l-24 -134h-948l24 134h414l74 420l-389 -24l25 140l485 30h84z" />
    <glyph glyph-name="two.tf" 
d="M941 140l-25 -140h-907l41 237q14 77 50 109q35 31 117 37l554 41q30 2 42.5 13.5t19.5 42.5l6 27q14 59 -50 59h-442q-31 0 -43.5 -10.5t-17.5 -42.5l-5 -29h-172l12 76q13 77 50.5 108.5t115.5 31.5h603q77 0 111 -41t21 -120l-16 -98q-13 -76 -49.5 -108t-117.5 -38
l-555 -41q-31 -2 -44 -13.5t-18 -42.5l-10 -58h729z" />
    <glyph glyph-name="three.tf" 
d="M282 700h602q77 0 111 -41t20 -119l-11 -60q-11 -56 -32 -84t-60 -38q75 -31 57 -137l-14 -80q-13 -78 -50.5 -109.5t-115.5 -31.5h-622q-77 0 -110.5 41t-20.5 119l13 80h172l-8 -51q-5 -31 6 -45t42 -14h461q32 0 45 11.5t18 42.5l9 58q5 32 -6 45t-42 13h-379l21 120
h375q31 0 44 11.5t18 42.5l6 37q5 32 -6 45.5t-42 13.5h-441q-31 0 -44 -11t-18 -43l-8 -48h-172l16 91q13 78 50.5 109.5t115.5 31.5z" />
    <glyph glyph-name="four.tf" 
d="M809 274h203l-23 -127h-203l-26 -147h-178l26 147h-607l19 107l653 446h211zM683 572l-436 -298h383z" />
    <glyph glyph-name="five.tf" 
d="M788 0h-775l25 140h685q31 0 43 10.5t18 42.5l9 50q6 31 -5.5 45t-43.5 14h-677l70 398h885l-26 -140h-707l-20 -122h576q76 0 110 -41.5t21 -119.5l-23 -137q-13 -77 -50 -108.5t-115 -31.5z" />
    <glyph glyph-name="six.tf" 
d="M996 560h-634q-45 0 -64.5 -17t-27.5 -62l-13 -74q35 33 108 33h481q77 0 110.5 -41t20.5 -119l-24 -139q-13 -78 -50.5 -109.5t-115.5 -31.5h-620q-77 0 -110 41t-20 119l62 356q17 100 67 142t149 42h706zM745 308h-450q-29 0 -42.5 -9.5t-20.5 -34.5l-12 -72
q-5 -31 6 -44.5t43 -13.5h452q31 0 44 11t18 42l10 63q5 31 -6 44.5t-42 13.5z" />
    <glyph glyph-name="seven.tf" 
d="M93 554l26 146h948l-23 -126l-407 -254q-49 -32 -69 -63q-19 -31 -30 -95l-29 -162h-182l30 170q18 101 49 149q30 49 105 93l246 142h-664z" />
    <glyph glyph-name="eight.tf" 
d="M281 700h603q77 0 111 -41t20 -119l-11 -60q-11 -56 -32 -84t-60 -38q75 -31 57 -137l-14 -80q-13 -78 -50.5 -109.5t-115.5 -31.5h-623q-77 0 -110 41t-20 119l13 80q10 59 35 88.5t72 37.5q-69 32 -51 134l10 59q13 78 50.5 109.5t115.5 31.5zM287 520l-9 -45
q-6 -31 5.5 -44.5t43.5 -13.5h435q31 0 44.5 11t18.5 42l8 45q5 31 -6 44.5t-43 13.5h-436q-30 0 -42.5 -11t-18.5 -42zM783 180l12 66q5 31 -6 44.5t-42 13.5h-455q-31 0 -44 -11t-19 -43l-12 -65q-6 -31 5.5 -44.5t43.5 -13.5h455q31 0 44 11t18 42z" />
    <glyph glyph-name="nine.tf" 
d="M273 700h620q77 0 110.5 -41t20.5 -119l-63 -356q-18 -100 -67.5 -142t-148.5 -42h-707l25 140h635q44 0 64 17t28 62l12 68q-34 -33 -108 -33h-482q-77 0 -111 41t-20 119l26 145q14 78 51 109.5t115 31.5zM313 386h451q28 0 42.5 9.5t20.5 32.5l14 79q5 32 -6.5 45.5
t-42.5 13.5h-453q-31 0 -43.5 -11t-18.5 -43l-12 -67q-12 -59 48 -59z" />
    <glyph glyph-name="zero.subs" horiz-adv-x="644" 
d="M425 -100h-324q-125 0 -104 127l31 178q10 62 42 88.5t93 26.5h324q62 0 89 -32.5t15 -94.5l-32 -178q-11 -62 -42 -88.5t-92 -26.5zM165 3h224q22 0 31.5 8.5t13.5 30.5l23 135q4 22 -4 31t-30 9h-224q-22 0 -31.5 -8.5t-13.5 -30.5l-22 -135q-4 -22 4 -31t29 -9z" />
    <glyph glyph-name="one.subs" horiz-adv-x="607" 
d="M387 320l-57 -322h203l-18 -98h-553l17 98h220l38 216l-204 -14l18 102l270 18h66z" />
    <glyph glyph-name="two.subs" horiz-adv-x="644" 
d="M551 0l-18 -100h-558l24 143q9 48 32.5 69t73.5 24l324 21q15 1 21 6.5t8 19.5l4 20q2 14 -3 20t-20 6h-247q-15 0 -20.5 -5t-8.5 -21l-4 -20h-126l8 48q8 49 31.5 69t72.5 20h368q48 0 69.5 -26t13.5 -76l-9 -53q-9 -48 -32.5 -68t-73.5 -23l-324 -21q-15 -1 -21 -7
t-8 -21l-4 -25h427z" />
    <glyph glyph-name="three.subs" horiz-adv-x="643" 
d="M142 320h366q99 0 83 -100l-6 -30q-11 -65 -58 -76q47 -18 37 -85l-7 -39q-9 -49 -33.5 -69.5t-73.5 -20.5h-378q-97 0 -82 100l9 52h126l-4 -30q-3 -16 2 -21.5t20 -5.5h257q16 0 22 5t9 20l4 27q3 15 -2.5 21t-21.5 6h-219l15 81h215q16 0 22 5t8 21l3 17q3 16 -2 21.5
t-21 5.5h-245q-15 0 -21 -5t-9 -21l-4 -26h-126l9 57q8 49 32.5 69.5t73.5 20.5z" />
    <glyph glyph-name="four.subs" horiz-adv-x="661" 
d="M476 71h123l-16 -91h-123l-14 -80h-127l14 80h-357l14 77l380 263h150zM376 224l-224 -153h197z" />
    <glyph glyph-name="five.subs" horiz-adv-x="626" 
d="M433 -100h-457l18 100h389q16 0 21.5 4.5t7.5 18.5l5 25q2 15 -3 20.5t-21 5.5h-386l43 246h527l-18 -100h-395l-10 -55h314q99 0 82 -101l-13 -75q-8 -49 -32 -69t-72 -20z" />
    <glyph glyph-name="six.subs" horiz-adv-x="644" 
d="M578 220h-380q-21 0 -30 -8t-13 -30l-6 -36q19 18 63 18h272q99 0 84 -100l-13 -75q-7 -48 -31.5 -68.5t-73.5 -20.5h-376q-98 0 -82 100l36 205q10 62 41 88.5t94 26.5h432zM413 79h-249q-27 0 -31 -22l-6 -35q-3 -15 2.5 -21t20.5 -6h250q15 0 21.5 5.5t8.5 20.5l5 29
q6 29 -22 29z" />
    <glyph glyph-name="seven.subs" horiz-adv-x="620" 
d="M17 213l19 107h565l-16 -92l-239 -153q-23 -15 -33 -31.5t-15 -46.5l-17 -97h-134l19 109q11 59 28 86q18 28 62 54l109 64h-348z" />
    <glyph glyph-name="eight.subs" horiz-adv-x="643" 
d="M143 320h364q97 0 82 -100l-5 -32q-10 -64 -57 -75q45 -19 34 -85l-6 -39q-8 -49 -32 -69t-73 -20h-376q-100 0 -82 101l7 39q11 68 64 78q-42 19 -31 82l6 31q8 50 32 69.5t73 19.5zM164 203l-4 -23q-3 -15 2 -21t21 -6h237q16 0 22.5 5.5t8.5 20.5l4 21q6 28 -23 28
h-239q-15 0 -21 -5.5t-8 -19.5zM429 17l5 32q3 15 -2.5 21t-20.5 6h-250q-16 0 -22 -5.5t-8 -20.5l-5 -30q-6 -28 23 -28h250q15 0 21.5 5.5t8.5 19.5z" />
    <glyph glyph-name="nine.subs" horiz-adv-x="644" 
d="M137 320h377q48 0 69.5 -25.5t12.5 -74.5l-36 -205q-10 -62 -41 -88.5t-94 -26.5h-432l17 99h379q22 0 31 8t13 30l6 34q-19 -19 -63 -19h-275q-100 0 -82 101l14 78q9 49 32 69t72 20zM176 138h249q25 0 29 16l7 42q6 28 -24 28h-249q-15 0 -21.5 -5.5t-9.5 -21.5
l-5 -31q-4 -28 24 -28z" />
    <glyph glyph-name="zero.dnom" horiz-adv-x="644" 
d="M443 0h-324q-125 0 -104 127l31 178q10 62 42 88.5t93 26.5h324q62 0 89 -32.5t15 -94.5l-32 -178q-11 -62 -42 -88.5t-92 -26.5zM183 103h224q22 0 31.5 8.5t13.5 30.5l23 135q4 22 -4 31t-30 9h-224q-22 0 -31.5 -8.5t-13.5 -30.5l-22 -135q-4 -22 4 -31t29 -9z" />
    <glyph glyph-name="one.dnom" horiz-adv-x="607" 
d="M405 420l-57 -322h203l-18 -98h-553l17 98h220l38 216l-204 -14l18 102l270 18h66z" />
    <glyph glyph-name="two.dnom" horiz-adv-x="644" 
d="M569 100l-18 -100h-558l24 143q9 48 32.5 69t73.5 24l324 21q15 1 21 6.5t8 19.5l4 20q2 14 -3 20t-20 6h-247q-15 0 -20.5 -5t-8.5 -21l-4 -20h-126l8 48q8 49 31.5 69t72.5 20h368q48 0 69.5 -26t13.5 -76l-9 -53q-9 -48 -32.5 -68t-73.5 -23l-324 -21q-15 -1 -21 -7
t-8 -21l-4 -25h427z" />
    <glyph glyph-name="three.dnom" horiz-adv-x="643" 
d="M160 420h366q99 0 83 -100l-6 -30q-11 -65 -58 -76q47 -18 37 -85l-7 -39q-9 -49 -33.5 -69.5t-73.5 -20.5h-378q-97 0 -82 100l9 52h126l-4 -30q-3 -16 2 -21.5t20 -5.5h257q16 0 22 5t9 20l4 27q3 15 -2.5 21t-21.5 6h-219l15 81h215q16 0 22 5t8 21l3 17q3 16 -2 21.5
t-21 5.5h-245q-15 0 -21 -5t-9 -21l-4 -26h-126l9 57q8 49 32.5 69.5t73.5 20.5z" />
    <glyph glyph-name="four.dnom" horiz-adv-x="661" 
d="M494 171h123l-16 -91h-123l-14 -80h-127l14 80h-357l14 77l380 263h150zM394 324l-224 -153h197z" />
    <glyph glyph-name="five.dnom" horiz-adv-x="626" 
d="M451 0h-457l18 100h389q16 0 21.5 4.5t7.5 18.5l5 25q2 15 -3 20.5t-21 5.5h-386l43 246h527l-18 -100h-395l-10 -55h314q99 0 82 -101l-13 -75q-8 -49 -32 -69t-72 -20z" />
    <glyph glyph-name="six.dnom" horiz-adv-x="644" 
d="M596 320h-380q-21 0 -30 -8t-13 -30l-6 -36q19 18 63 18h272q99 0 84 -100l-13 -75q-7 -48 -31.5 -68.5t-73.5 -20.5h-376q-98 0 -82 100l36 205q10 62 41 88.5t94 26.5h432zM431 179h-249q-27 0 -31 -22l-6 -35q-3 -15 2.5 -21t20.5 -6h250q15 0 21.5 5.5t8.5 20.5l5 29
q6 29 -22 29z" />
    <glyph glyph-name="seven.dnom" horiz-adv-x="620" 
d="M35 313l19 107h565l-16 -92l-239 -153q-23 -15 -33 -31.5t-15 -46.5l-17 -97h-134l19 109q11 59 28 86q18 28 62 54l109 64h-348z" />
    <glyph glyph-name="eight.dnom" horiz-adv-x="643" 
d="M161 420h364q97 0 82 -100l-5 -32q-10 -64 -57 -75q45 -19 34 -85l-6 -39q-8 -49 -32 -69t-73 -20h-376q-100 0 -82 101l7 39q11 68 64 78q-42 19 -31 82l6 31q8 50 32 69.5t73 19.5zM182 303l-4 -23q-3 -15 2 -21t21 -6h237q16 0 22.5 5.5t8.5 20.5l4 21q6 28 -23 28
h-239q-15 0 -21 -5.5t-8 -19.5zM447 117l5 32q3 15 -2.5 21t-20.5 6h-250q-16 0 -22 -5.5t-8 -20.5l-5 -30q-6 -28 23 -28h250q15 0 21.5 5.5t8.5 19.5z" />
    <glyph glyph-name="nine.dnom" horiz-adv-x="644" 
d="M155 420h377q48 0 69.5 -25.5t12.5 -74.5l-36 -205q-10 -62 -41 -88.5t-94 -26.5h-432l17 99h379q22 0 31 8t13 30l6 34q-19 -19 -63 -19h-275q-100 0 -82 101l14 78q9 49 32 69t72 20zM194 238h249q25 0 29 16l7 42q6 28 -24 28h-249q-15 0 -21.5 -5.5t-9.5 -21.5
l-5 -31q-4 -28 24 -28z" />
    <glyph glyph-name="zero.numr" horiz-adv-x="644" 
d="M492 280h-324q-125 0 -104 127l31 178q10 62 42 88.5t93 26.5h324q62 0 89 -32.5t15 -94.5l-32 -178q-11 -62 -42 -88.5t-92 -26.5zM232 383h224q22 0 31.5 8.5t13.5 30.5l23 135q4 22 -4 31t-30 9h-224q-22 0 -31.5 -8.5t-13.5 -30.5l-22 -135q-4 -22 4 -31t29 -9z" />
    <glyph glyph-name="one.numr" horiz-adv-x="607" 
d="M454 700l-57 -322h203l-18 -98h-553l17 98h220l38 216l-204 -14l18 102l270 18h66z" />
    <glyph glyph-name="two.numr" horiz-adv-x="644" 
d="M618 380l-18 -100h-558l24 143q9 48 32.5 69t73.5 24l324 21q15 1 21 6.5t8 19.5l4 20q2 14 -3 20t-20 6h-247q-15 0 -20.5 -5t-8.5 -21l-4 -20h-126l8 48q8 49 31.5 69t72.5 20h368q48 0 69.5 -26t13.5 -76l-9 -53q-9 -48 -32.5 -68t-73.5 -23l-324 -21q-15 -1 -21 -7
t-8 -21l-4 -25h427z" />
    <glyph glyph-name="three.numr" horiz-adv-x="643" 
d="M209 700h366q99 0 83 -100l-6 -30q-11 -65 -58 -76q47 -18 37 -85l-7 -39q-9 -49 -33.5 -69.5t-73.5 -20.5h-378q-97 0 -82 100l9 52h126l-4 -30q-3 -16 2 -21.5t20 -5.5h257q16 0 22 5t9 20l4 27q3 15 -2.5 21t-21.5 6h-219l15 81h215q16 0 22 5t8 21l3 17q3 16 -2 21.5
t-21 5.5h-245q-15 0 -21 -5t-9 -21l-4 -26h-126l9 57q8 49 32.5 69.5t73.5 20.5z" />
    <glyph glyph-name="four.numr" horiz-adv-x="661" 
d="M543 451h123l-16 -91h-123l-14 -80h-127l14 80h-357l14 77l380 263h150zM443 604l-224 -153h197z" />
    <glyph glyph-name="five.numr" horiz-adv-x="626" 
d="M500 280h-457l18 100h389q16 0 21.5 4.5t7.5 18.5l5 25q2 15 -3 20.5t-21 5.5h-386l43 246h527l-18 -100h-395l-10 -55h314q99 0 82 -101l-13 -75q-8 -49 -32 -69t-72 -20z" />
    <glyph glyph-name="six.numr" horiz-adv-x="644" 
d="M645 600h-380q-21 0 -30 -8t-13 -30l-6 -36q20 18 63 18h272q99 0 84 -100l-13 -75q-7 -48 -31.5 -68.5t-73.5 -20.5h-376q-98 0 -82 100l36 205q10 62 41 88.5t94 26.5h432zM480 459h-249q-25 0 -31 -22l-6 -35q-3 -15 2.5 -21t20.5 -6h250q15 0 21.5 5.5t8.5 20.5l5 29
q6 29 -22 29z" />
    <glyph glyph-name="seven.numr" horiz-adv-x="620" 
d="M84 593l19 107h565l-16 -92l-239 -153q-23 -15 -33 -31.5t-15 -46.5l-17 -97h-134l19 109q11 59 28 86q18 28 62 54l109 64h-348z" />
    <glyph glyph-name="eight.numr" horiz-adv-x="643" 
d="M210 700h364q97 0 82 -100l-5 -32q-11 -64 -57 -75q45 -19 34 -85l-6 -39q-8 -49 -32 -69t-73 -20h-376q-100 0 -82 101l7 39q11 68 64 78q-42 19 -31 82l6 31q8 50 32 69.5t73 19.5zM231 583l-4 -23q-3 -15 2 -21t21 -6h237q16 0 22.5 5.5t8.5 20.5l4 21q6 28 -23 28
h-239q-15 0 -21 -5.5t-8 -19.5zM496 397l5 32q3 15 -2.5 21t-20.5 6h-250q-16 0 -22 -5.5t-8 -20.5l-5 -30q-6 -28 23 -28h250q15 0 21.5 5.5t8.5 19.5z" />
    <glyph glyph-name="nine.numr" horiz-adv-x="644" 
d="M204 700h377q48 0 69.5 -25.5t12.5 -74.5l-36 -205q-10 -62 -41 -88.5t-94 -26.5h-432l17 99h379q22 0 31 8t13 30l6 34q-19 -19 -63 -19h-275q-100 0 -82 101l14 78q9 49 32 69t72 20zM243 518h249q25 0 29 16l7 42q6 28 -24 28h-249q-15 0 -21.5 -5.5t-9.5 -21.5
l-5 -31q-4 -28 24 -28z" />
    <glyph glyph-name="zero.sups" horiz-adv-x="644" 
d="M510 380h-324q-125 0 -104 127l31 178q10 62 42 88.5t93 26.5h324q62 0 89 -32.5t15 -94.5l-32 -178q-11 -62 -42 -88.5t-92 -26.5zM250 483h224q22 0 31.5 8.5t13.5 30.5l23 135q4 22 -4 31t-30 9h-224q-22 0 -31.5 -8.5t-13.5 -30.5l-22 -135q-4 -22 4 -31t29 -9z" />
    <glyph glyph-name="one.sups" horiz-adv-x="607" 
d="M472 800l-57 -322h203l-18 -98h-553l17 98h220l38 216l-204 -14l18 102l270 18h66z" />
    <glyph glyph-name="two.sups" horiz-adv-x="644" 
d="M636 480l-18 -100h-558l24 143q9 48 32.5 69t73.5 24l324 21q15 1 21 6.5t8 19.5l4 20q2 14 -3 20t-20 6h-247q-15 0 -20.5 -5t-8.5 -21l-4 -20h-126l8 48q8 49 31.5 69t72.5 20h368q48 0 69.5 -26t13.5 -76l-9 -53q-9 -48 -32.5 -68t-73.5 -23l-324 -21q-15 -1 -21 -7
t-8 -21l-4 -25h427z" />
    <glyph glyph-name="three.sups" horiz-adv-x="643" 
d="M227 800h366q99 0 83 -100l-6 -30q-11 -65 -58 -76q47 -18 37 -85l-7 -39q-9 -49 -33.5 -69.5t-73.5 -20.5h-378q-97 0 -82 100l9 52h126l-4 -30q-3 -16 2 -21.5t20 -5.5h257q16 0 22 5t9 20l4 27q3 15 -2.5 21t-21.5 6h-219l15 81h215q16 0 22 5t8 21l3 17q3 16 -2 21.5
t-21 5.5h-245q-15 0 -21 -5t-9 -21l-4 -26h-126l9 57q8 49 32.5 69.5t73.5 20.5z" />
    <glyph glyph-name="four.sups" horiz-adv-x="661" 
d="M561 551h123l-16 -91h-123l-14 -80h-127l14 80h-357l14 77l380 263h150zM461 704l-224 -153h197z" />
    <glyph glyph-name="five.sups" horiz-adv-x="626" 
d="M518 380h-457l18 100h389q16 0 21.5 4.5t7.5 18.5l5 25q2 15 -3 20.5t-21 5.5h-386l43 246h527l-18 -100h-395l-10 -55h314q99 0 82 -101l-13 -75q-8 -49 -32 -69t-72 -20z" />
    <glyph glyph-name="six.sups" horiz-adv-x="644" 
d="M663 700h-380q-21 0 -30 -8t-13 -30l-6 -36q20 18 63 18h272q99 0 84 -100l-13 -75q-7 -48 -31.5 -68.5t-73.5 -20.5h-376q-98 0 -82 100l36 205q10 62 41 88.5t94 26.5h432zM498 559h-249q-25 0 -31 -22l-6 -35q-3 -15 2.5 -21t20.5 -6h250q15 0 21.5 5.5t8.5 20.5l5 29
q6 29 -22 29z" />
    <glyph glyph-name="seven.sups" horiz-adv-x="620" 
d="M102 693l19 107h565l-16 -92l-239 -153q-23 -15 -33 -31.5t-15 -46.5l-17 -97h-134l19 109q11 59 28 86q18 28 62 54l109 64h-348z" />
    <glyph glyph-name="eight.sups" horiz-adv-x="643" 
d="M228 800h364q97 0 82 -100l-5 -32q-11 -64 -57 -75q45 -19 34 -85l-6 -39q-8 -49 -32 -69t-73 -20h-376q-100 0 -82 101l7 39q11 68 64 78q-42 19 -31 82l6 31q8 50 32 69.5t73 19.5zM249 683l-4 -23q-3 -15 2 -21t21 -6h237q16 0 22.5 5.5t8.5 20.5l4 21q6 28 -23 28
h-239q-15 0 -21 -5.5t-8 -19.5zM514 497l5 32q3 15 -2.5 21t-20.5 6h-250q-16 0 -22 -5.5t-8 -20.5l-5 -30q-6 -28 23 -28h250q15 0 21.5 5.5t8.5 19.5z" />
    <glyph glyph-name="nine.sups" horiz-adv-x="644" 
d="M222 800h377q48 0 69.5 -25.5t12.5 -74.5l-36 -205q-10 -62 -41 -88.5t-94 -26.5h-432l17 99h379q22 0 31 8t13 30l6 34q-19 -19 -63 -19h-275q-100 0 -82 101l14 78q9 49 32 69t72 20zM261 618h249q25 0 29 16l7 42q6 28 -24 28h-249q-15 0 -21.5 -5.5t-9.5 -21.5
l-5 -31q-4 -28 24 -28z" />
    <glyph glyph-name="numbersign.numr" horiz-adv-x="647" 
d="M658 605l-13 -73h-119l-14 -84h120l-13 -73h-118l-15 -95h-94l15 95h-125l-15 -95h-95l15 95h-120l14 73h117l14 84h-119l13 73h117l15 95h95l-15 -95h125l15 95h94l-15 -95h121zM293 448h125l14 84h-125z" />
    <glyph glyph-name="numbersign.tf" 
d="M1017 530l-18 -102h-200l-24 -156h197l-18 -102h-195l-27 -170h-135l27 170h-243l-27 -170h-134l27 170h-203l18 102h201l24 156h-197l18 102h195l27 170h134l-27 -170h243l27 170h135l-27 -170h202zM397 272h243l24 156h-243z" />
    <glyph glyph-name="cent.numr" horiz-adv-x="644" 
d="M441 700h125q116 0 95 -115l-6 -33h-126l3 18q7 34 -28 34h-244q-18 0 -25.5 -6.5t-10.5 -25.5l-17 -94q-3 -19 3.5 -26.5t24.5 -7.5h244q19 0 26 6.5t10 25.5l5 24h126l-9 -48q-10 -58 -37 -81t-84 -23h-136l-11 -60h-85l10 60h-125q-117 0 -96 115l25 133
q11 59 37 81.5t84 22.5h136l11 60h86z" />
    <glyph glyph-name="dollar.numr" horiz-adv-x="644" 
d="M440 700h133q99 0 82 -99l-5 -29h-125l2 12q2 15 -3 21t-21 6h-242q-15 0 -21.5 -5t-8.5 -21l-2 -9q-3 -16 2 -21.5t21 -6.5l300 -15q99 -4 82 -100l-11 -63q-9 -49 -33.5 -69.5t-72.5 -20.5h-150l-11 -60h-85l10 60h-141q-48 0 -69.5 25.5t-12.5 73.5l6 35h126l-3 -18
q-3 -15 2 -21t21 -6h256q15 0 21 5.5t9 20.5l4 17q3 15 -2.5 21t-21.5 7l-299 15q-51 2 -71.5 25.5t-11.5 73.5l10 56q8 49 32.5 69.5t72.5 20.5h145l11 60h86z" />
    <glyph glyph-name="Euro.numr" horiz-adv-x="670" 
d="M263 700h317q61 0 88.5 -32.5t16.5 -94.5l-9 -47h-126l7 40q3 22 -5 31t-30 9h-222q-22 0 -31 -8t-13 -30l-2 -13h248l-10 -48h-247l-6 -34h248l-10 -48h-246l-2 -11q-7 -40 33 -40h224q22 0 31 8t13 31l8 45h126l-11 -63q-11 -62 -42.5 -88.5t-93.5 -26.5h-317
q-61 0 -87.5 32.5t-16.5 93.5l3 19h-59l9 48h59l6 34h-59l9 48h59l5 30q11 62 42 88.5t93 26.5z" />
    <glyph glyph-name="florin.numr" horiz-adv-x="595" 
d="M620 597h-144q-21 0 -31.5 -8.5t-16.5 -30.5l-18 -66h180l-14 -76h-188l-31 -113q-18 -64 -50.5 -91.5t-92.5 -27.5h-196l18 103h144q21 0 32 9t17 31l25 89h-184l14 76h192l25 89q18 65 49.5 92t91.5 27h196z" />
    <glyph glyph-name="sterling.numr" horiz-adv-x="661" 
d="M260 700h310q62 0 88.5 -33t15.5 -94l-6 -37h-126l5 30q7 40 -33 40h-222q-19 0 -28 -8.5t-13 -30.5l-7 -39h239l-11 -65h-239l-15 -84h271q29 0 30 26l6 39h127l-13 -73q-8 -49 -33 -70t-74 -21h-511l18 99h49l15 84h-56l12 65h56l10 57q10 62 41 88.5t94 26.5z" />
    <glyph glyph-name="yen.numr" horiz-adv-x="643" 
d="M525 700h173l-240 -223h182l-9 -54h-217l-7 -37h218l-10 -54h-217l-9 -52h-131l9 52h-217l10 54h216l7 37h-216l9 54h183l-162 223h163l104 -163z" />
    <glyph glyph-name="cent.tf" 
d="M655 700h213q183 0 152 -184l-9 -47h-172l5 27q7 40 -7 56t-54 16h-430q-38 0 -53.5 -13.5t-23.5 -53.5l-30 -167q-7 -40 7 -56t54 -16h430q39 0 54.5 14t22.5 53l8 39h172l-14 -73q-16 -94 -59 -129q-42 -36 -134 -36h-233l-18 -100h-119l18 100h-219q-184 0 -151 184
l39 221q16 92 59 129q42 36 134 36h239l17 100h119z" />
    <glyph glyph-name="dollar.tf" 
d="M650 700h234q155 0 129 -158l-7 -44h-172l2 13q4 31 -7 43.5t-43 12.5h-442q-30 0 -43.5 -12.5t-18.5 -43.5l-2 -13q-5 -32 3 -43.5t35 -12.5l529 -28q79 -4 111.5 -42.5t18.5 -115.5l-20 -114q-13 -78 -51 -110t-116 -32h-262l-18 -100h-119l18 100h-247
q-76 0 -109 40.5t-20 117.5l9 56h172l-4 -25q-5 -30 6.5 -43t43.5 -13h466q31 0 44 12t18 44l5 31q5 33 -2.5 45t-35.5 13l-529 28q-79 4 -111.5 42t-18.5 114l17 96q13 78 51 110t116 32h251l18 100h119z" />
    <glyph glyph-name="Euro.tf" 
d="M337 700h512q99 0 142 -52.5t26 -151.5l-13 -72h-172l10 61q8 46 -8.5 65.5t-62.5 19.5h-384q-46 0 -65.5 -17t-27.5 -63l-6 -35h440l-13 -71h-440l-12 -68h440l-13 -71h-440l-5 -30q-7 -46 9.5 -65.5t61.5 -19.5h385q45 0 65 17t28 63l13 73h172l-18 -99
q-18 -100 -67.5 -142t-148.5 -42h-512q-99 0 -142.5 52.5t-25.5 151.5l7 41h-72l13 71h72l12 68h-72l13 71h72l11 61q18 100 67.5 142t148.5 42z" />
    <glyph glyph-name="florin.tf" 
d="M1021 558h-259q-44 0 -63.5 -16t-32.5 -62l-38 -135h336l-20 -110h-347l-59 -210q-28 -102 -76 -144q-47 -41 -145 -41h-330l25 142h259q45 0 64 16t32 62l49 175h-340l20 110h351l48 170q28 103 77 144q47 41 145 41h330z" />
    <glyph glyph-name="sterling.tf" 
d="M347 700h502q99 0 142 -52.5t26 -151.5l-10 -56h-173l8 45q8 46 -8.5 65.5t-62.5 19.5h-380q-41 0 -60 -17.5t-27 -62.5l-15 -86h429l-16 -94h-430l-30 -174h485q31 0 44.5 11.5t18.5 42.5l12 66h172l-19 -112q-13 -78 -53 -111t-118 -33h-817l25 136h72l31 174h-83
l17 94h82l20 112q18 100 67.5 142t148.5 42z" />
    <glyph glyph-name="yen.tf" 
d="M850 700h237l-422 -380h325l-14 -78h-376l-13 -74h375l-13 -78h-375l-16 -90h-178l16 90h-375l13 78h375l13 74h-374l14 78h323l-286 380h221l211 -309z" />
    <glyph glyph-name="percent.numr" horiz-adv-x="710" 
d="M311 503h-171q-64 0 -54 67l12 71q5 32 21 45.5t48 13.5h172q65 0 55 -67l-13 -70q-5 -32 -21.5 -46t-48.5 -14zM163 280h-80l540 420h81zM176 561h115q17 0 21 18l8 45q1 10 -2.5 14t-14.5 4h-114q-11 0 -15.5 -4t-6.5 -15l-8 -44q-3 -18 17 -18zM619 280h-172
q-64 0 -54 67l13 70q5 32 21 46t48 14h172q66 0 54 -67l-12 -71q-5 -32 -21.5 -45.5t-48.5 -13.5zM484 338h115q17 0 20 18l9 44q3 19 -17 19h-115q-17 0 -21 -19l-8 -44q-5 -18 17 -18z" />
    <glyph glyph-name="perthousand.numr" horiz-adv-x="1036" 
d="M311 503h-171q-64 0 -54 67l12 71q5 32 21 45.5t48 13.5h172q65 0 55 -67l-13 -70q-5 -32 -21.5 -46t-48.5 -14zM163 280h-80l540 420h81zM176 561h115q17 0 21 18l8 45q1 10 -2.5 14t-14.5 4h-114q-11 0 -15.5 -4t-6.5 -15l-8 -44q-3 -18 17 -18zM619 280h-172
q-64 0 -54 67l13 70q5 32 21 46t48 14h172q66 0 54 -67l-12 -71q-5 -32 -21.5 -45.5t-48.5 -13.5zM945 280h-171q-66 0 -54 67l12 70q5 32 21.5 46t48.5 14h171q65 0 55 -67l-13 -71q-5 -32 -21.5 -45.5t-48.5 -13.5zM484 338h115q17 0 20 18l9 44q3 19 -17 19h-115
q-17 0 -21 -19l-8 -44q-5 -18 17 -18zM811 338h114q11 0 15 4t6 14l8 44q4 19 -16 19h-115q-20 0 -21 -19l-9 -44q-3 -18 18 -18z" />
    <glyph glyph-name="percent.tf" horiz-adv-x="1140" 
d="M566 589l-20 -116q-9 -53 -36.5 -76t-80.5 -23h-262q-53 0 -76.5 29t-13.5 82l20 116q9 54 36 76.5t81 22.5h262q53 0 76.5 -28.5t13.5 -82.5zM199 0h-120l891 700h120zM214 456h190q23 0 33 8.5t15 31.5l14 79q4 23 -5 33t-32 10h-190q-23 0 -33 -8.5t-14 -31.5l-14 -79
q-9 -43 36 -43zM956 0h-262q-53 0 -77 29t-14 82l20 116q10 54 37 76.5t80 22.5h262q53 0 76.5 -28.5t14.5 -82.5l-21 -116q-9 -53 -36 -76t-80 -23zM740 82h190q23 0 33 8.5t15 31.5l14 79q4 23 -5 33t-32 10h-190q-23 0 -33 -8.5t-14 -31.5l-14 -79q-9 -43 36 -43z" />
    <glyph glyph-name="perthousand.tf" horiz-adv-x="1660" 
d="M566 589l-20 -116q-9 -53 -36.5 -76t-80.5 -23h-262q-53 0 -76.5 29t-13.5 82l20 116q9 54 36 76.5t81 22.5h262q53 0 76.5 -28.5t13.5 -82.5zM199 0h-120l891 700h120zM214 456h190q23 0 33 8.5t15 31.5l14 79q4 23 -5 33t-32 10h-190q-23 0 -33 -8.5t-14 -31.5l-14 -79
q-9 -43 36 -43zM956 0h-262q-53 0 -77 29t-14 82l20 116q10 54 37 76.5t80 22.5h262q53 0 76.5 -28.5t14.5 -82.5l-21 -116q-9 -53 -36 -76t-80 -23zM1476 0h-262q-53 0 -77 29t-14 82l20 116q10 54 37 76.5t80 22.5h262q53 0 76.5 -28.5t14.5 -82.5l-21 -116
q-9 -53 -36 -76t-80 -23zM740 82h190q23 0 33 8.5t15 31.5l14 79q4 23 -5 33t-32 10h-190q-23 0 -33 -8.5t-14 -31.5l-14 -79q-9 -43 36 -43zM1260 82h190q23 0 33 8.5t15 31.5l14 79q4 23 -5 33t-32 10h-190q-23 0 -33 -8.5t-14 -31.5l-14 -79q-9 -43 36 -43z" />
    <glyph glyph-name="brevecombcy" horiz-adv-x="0" 
d="M-73 574h-322q-76 0 -63 76l9 50h122l-6 -30q-4 -28 24 -28h171q27 0 31 28l6 30h122l-9 -54q-7 -38 -27 -55t-58 -17z" />
    <glyph glyph-name="ringacutecomb" horiz-adv-x="464" 
d="M409 632h14q57 0 48 -57l-5 -26q-5 -30 -18.5 -41.5t-43.5 -11.5h-258q-58 0 -47 57l5 26q4 30 17.5 41.5t43.5 11.5h83l70 68h184zM399 557l3 13q2 11 -1 15.5t-14 4.5h-195q-11 0 -15.5 -4t-6.5 -15l-2 -13q-2 -11 1 -15.5t14 -4.5h195q11 0 15 3.5t6 15.5z" />
    </font>
</defs>
</svg>
