<?xml version="1.0" standalone="no"?>
<!DOCTYPE svg PUBLIC "-//W3C//DTD SVG 1.1//EN" "http://www.w3.org/Graphics/SVG/1.1/DTD/svg11.dtd" >
<svg xmlns="http://www.w3.org/2000/svg" xmlns:xlink="http://www.w3.org/1999/xlink" version="1.1">
<metadata>
Created by FontForge 20170731 at Thu Jun 30 17:45:17 2016
 By Aleksey,,,
@ 2016 Richard Miller
</metadata>
<defs>
<font id="TacticSansExtExd-BlkIt" horiz-adv-x="1032" >
  <font-face 
    font-family="TacticSansExtExd-BlkIt"
    font-weight="400"
    font-style="italic"
    font-stretch="extra-expanded"
    units-per-em="1000"
    panose-1="0 0 9 7 0 0 0 0 0 0"
    ascent="814"
    descent="-186"
    x-height="536"
    cap-height="700"
    bbox="-908 -232 1907 864"
    underline-thickness="50"
    underline-position="-200"
    slope="-10"
    unicode-range="U+0020-FB02"
  />
<missing-glyph horiz-adv-x="720" 
d="M-38 0l124 700h700l-124 -700h-700zM273 350l-199 -169l88 -107l199 169l139 -169l126 107l-139 169l199 169l-88 107l-199 -169l-139 169l-126 -107z" />
    <glyph glyph-name="ellipsis" unicode="&#x2e;&#x2e;&#x2e;" horiz-adv-x="1140" 
d="M252 0h-252l43 236h251zM648 0h-252l43 236h251zM1044 0h-252l43 236h251z" />
    <glyph glyph-name="blackbox.liga" unicode="[&#x2b;]" horiz-adv-x="940" 
d="M120 0v700h700v-700h-700z" />
    <glyph glyph-name="checkbox.liga" unicode="[]" horiz-adv-x="940" 
d="M120 0v700h700v-700h-700zM721 604h-502v-508h502v508z" />
    <glyph glyph-name="checkround.liga" unicode="&#x28;&#x29;" horiz-adv-x="940" 
d="M726 95q-105 -105 -256 -105q-152 0 -255 105q-105 103 -105 255q0 151 105 256q104 104 255 104q150 0 256 -104q104 -106 104 -256q0 -151 -104 -255zM285 163q75 -77 185 -77q109 0 186 77q75 76 75 187t-75 188q-76 76 -186 76t-185 -76q-76 -76 -76 -188
q0 -111 76 -187z" />
    <glyph glyph-name="checkstar.liga" unicode="&#x7b;&#x7d;" horiz-adv-x="940" 
d="M378 437l92 283l92 -283h297l-240 -174l91 -283l-240 175l-240 -175l91 283l-240 174h297zM509 364l-39 120l-40 -120h-125l102 -73l-39 -120l102 74l101 -74l-39 120l102 73h-125z" />
    <glyph glyph-name="blackround.liga" unicode="&#x28;&#x2b;&#x29;" horiz-adv-x="940" 
d="M726 95q-105 -105 -256 -105q-152 0 -255 105q-105 103 -105 255q0 151 105 256q104 104 255 104q150 0 256 -104q104 -106 104 -256q0 -151 -104 -255z" />
    <glyph glyph-name="filledstar.liga" unicode="&#x7b;&#x2b;&#x7d;" horiz-adv-x="940" 
d="M378 437l92 283l92 -283h297l-240 -174l91 -283l-240 175l-240 -175l91 283l-240 174h297z" />
    <glyph glyph-name="ff.liga" unicode="ff" horiz-adv-x="1416" 
d="M1454 552h-309q-25 0 -35 -9t-14 -34l-7 -39h351l-29 -158h-350l-55 -312h-220l56 312h-407l-55 -312h-220l56 312h-197l29 158h196l14 80q14 82 54.5 116t121.5 34h376l-26 -148h-265q-25 0 -35 -9t-14 -34l-7 -39h407l14 80q14 82 54.5 116t121.5 34h420z" />
    <glyph glyph-name=".notdef" horiz-adv-x="720" 
d="M-38 0l124 700h700l-124 -700h-700zM273 350l-199 -169l88 -107l199 169l139 -169l126 107l-139 169l199 169l-88 107l-199 -169l-139 169l-126 -107z" />
    <glyph glyph-name=".null" horiz-adv-x="0" 
 />
    <glyph glyph-name="nonmarkingreturn" horiz-adv-x="333" 
 />
    <glyph glyph-name="space" unicode=" " horiz-adv-x="300" 
 />
    <glyph glyph-name="exclam" unicode="!" horiz-adv-x="348" 
d="M87 248l39 452h249l-121 -452h-167zM253 0h-252l34 196h252z" />
    <glyph glyph-name="quotedbl" unicode="&#x22;" horiz-adv-x="536" 
d="M60 336l64 364h184l-64 -364h-184zM316 336l64 364h184l-64 -364h-184z" />
    <glyph glyph-name="numbersign" unicode="#" 
d="M1014 493l-22 -124h-186l-20 -118h185l-22 -124h-185l-23 -127h-165l23 127h-215l-23 -127h-165l23 127h-187l22 124h187l20 118h-185l22 124h185l23 127h165l-23 -127h215l23 127h165l-23 -127h186zM406 251h215l20 118h-215z" />
    <glyph glyph-name="dollar" unicode="$" 
d="M664 700h222q161 0 136 -166l-8 -48h-216l3 19q4 25 -4.5 34.5t-33.5 9.5h-396q-25 0 -35.5 -9.5t-14.5 -34.5l-2 -13q-4 -25 3 -34t30 -10l503 -25q84 -4 117.5 -44t18.5 -122l-18 -107q-14 -82 -54.5 -116t-122.5 -34h-250l-18 -100h-146l18 100h-236q-81 0 -115.5 42
t-20.5 124l10 58h216l-5 -28q-4 -25 4.5 -34.5t34.5 -9.5h420q24 0 34.5 9.5t14.5 34.5l4 26q5 25 -2 34.5t-30 10.5l-503 24q-166 7 -137 166l16 93q14 82 54.5 116t122.5 34h240l18 100h146z" />
    <glyph glyph-name="percent" unicode="%" horiz-adv-x="1140" 
d="M542 510l-18 -108q-9 -54 -36.5 -77t-81.5 -23h-256q-53 0 -76 28.5t-14 81.5l18 108q9 54 36.5 77t81.5 23h256q108 0 90 -110zM219 0h-143l859 620h144zM210 399h162q19 0 27 7t11 25l10 59q4 19 -2.5 26t-25.5 7h-162q-18 0 -26 -6.5t-12 -25.5l-10 -59q-6 -33 28 -33
zM959 0h-256q-53 0 -76.5 28.5t-14.5 81.5l19 108q9 54 36.5 77t81.5 23h256q108 0 90 -110l-19 -108q-9 -54 -36.5 -77t-80.5 -23zM763 97h162q19 0 26.5 7t10.5 25l11 59q3 19 -3.5 26t-24.5 7h-163q-18 0 -26 -6.5t-11 -25.5l-11 -59q-6 -33 29 -33z" />
    <glyph glyph-name="ampersand" unicode="&#x26;" horiz-adv-x="1168" 
d="M364 422h818l-22 -129h-120l-25 -144q-14 -83 -53.5 -116t-121.5 -33h-682q-81 0 -116 43t-21 125l11 65q11 66 40 96.5t86 35.5q-67 34 -49 136l9 51q14 82 53.5 115t121.5 33h621q164 0 138 -168l-8 -47h-216l3 19q4 25 -4.5 35t-33.5 10h-410q-25 0 -34.5 -8.5
t-14.5 -34.5l-7 -39q-4 -25 4 -35t33 -10zM807 194l17 99h-516q-25 0 -35.5 -9t-14.5 -34l-9 -53q-4 -26 5 -36t34 -10h470q24 0 34 9t15 34z" />
    <glyph glyph-name="quotesingle" unicode="'" horiz-adv-x="280" 
d="M60 336l64 364h184l-64 -364h-184z" />
    <glyph glyph-name="parenleft" unicode="(" horiz-adv-x="632" 
d="M543 -100h-296q-124 0 -181.5 69.5t-35.5 194.5l71 400q22 125 87.5 180.5t189.5 55.5h323l-27 -159h-274q-47 0 -73 -22t-34 -69l-70 -393q-8 -47 13 -72.5t68 -25.5h267z" />
    <glyph glyph-name="parenright" unicode=")" horiz-adv-x="632" 
d="M118 800h296q124 0 181.5 -69.5t35.5 -194.5l-71 -400q-22 -125 -87.5 -180.5t-189.5 -55.5h-323l27 159h274q47 0 73 22t34 69l70 393q8 47 -13 72.5t-68 25.5h-267z" />
    <glyph glyph-name="asterisk" unicode="*" horiz-adv-x="479" 
d="M465 592l17 -119l-127 -7l65 -108l-108 -53l-45 119l-84 -96l-83 86l99 80l-117 50l56 106l107 -69l11 126l118 -20l-33 -123z" />
    <glyph glyph-name="plus" unicode="+" 
d="M644 437h361l-30 -174h-362l-39 -221h-197l39 221h-361l30 174h363l39 221h196z" />
    <glyph glyph-name="comma" unicode="," horiz-adv-x="348" 
d="M125 -160h-150l95 160h-69l42 236h252l-19 -108q-13 -81 -62 -151z" />
    <glyph glyph-name="hyphen" unicode="-" horiz-adv-x="660" 
d="M35 263l30 174h588l-30 -174h-588z" />
    <glyph glyph-name="period" unicode="." horiz-adv-x="348" 
d="M252 0h-252l43 236h251z" />
    <glyph glyph-name="slash" unicode="/" horiz-adv-x="596" 
d="M-63 -100l606 900h144l-605 -900h-145z" />
    <glyph glyph-name="zero" unicode="0" 
d="M746 0h-536q-103 0 -148 54t-26 158l53 296q19 104 70.5 148t154.5 44h536q103 0 148.5 -54t26.5 -158l-53 -296q-19 -104 -71 -148t-155 -44zM321 177h364q35 0 50.5 13.5t21.5 49.5l38 218q6 35 -7 50t-49 15h-363q-36 0 -51 -13.5t-21 -49.5l-38 -218q-6 -35 7 -50
t48 -15z" />
    <glyph glyph-name="one" unicode="1" horiz-adv-x="972" 
d="M703 700l-94 -533h320l-31 -167h-920l31 167h375l61 350l-349 -22l30 175l471 30h106z" />
    <glyph glyph-name="two" unicode="2" 
d="M957 170l-31 -170h-928l43 244q13 80 52 114t124 39l531 35q24 1 34 10t15 34l5 22q10 45 -39 45h-397q-24 0 -33.5 -8.5t-14.5 -33.5l-6 -30h-216l13 81q13 81 52.5 114.5t123.5 33.5h608q81 0 116.5 -43t22.5 -125l-16 -95q-13 -80 -52 -114t-124 -40l-532 -35
q-24 -1 -34 -10t-15 -34l-6 -34h704z" />
    <glyph glyph-name="three" unicode="3" 
d="M279 700h607q81 0 116.5 -43t21.5 -125l-9 -51q-11 -58 -33 -87t-63 -39q77 -32 59 -141l-11 -65q-14 -83 -53.5 -116t-121.5 -33h-627q-165 0 -138 168l14 85h216l-8 -48q-4 -25 4.5 -35.5t33.5 -10.5h415q25 0 35.5 9t14.5 34l7 41q4 26 -4.5 35.5t-33.5 9.5h-356
l24 138h350q24 0 34.5 9t15.5 34l4 27q4 25 -4 35t-33 10h-396q-25 0 -34.5 -8.5t-14.5 -34.5l-8 -43h-216l17 97q14 82 53.5 115t121.5 33z" />
    <glyph glyph-name="four" unicode="4" horiz-adv-x="1062" 
d="M847 288h193l-29 -158h-192l-23 -130h-224l23 130h-594l24 133l631 437h264zM668 541l-364 -253h319z" />
    <glyph glyph-name="five" unicode="5" horiz-adv-x="1002" 
d="M761 0h-758l30 170h641q25 0 34 8.5t14 34.5l5 28q5 24 -4 34.5t-34 10.5h-635l73 414h876l-31 -170h-652l-14 -86h513q81 0 116 -43t22 -125l-22 -128q-13 -81 -52.5 -114.5t-121.5 -33.5z" />
    <glyph glyph-name="six" unicode="6" 
d="M1001 530h-624q-36 0 -51.5 -13.5t-21.5 -48.5l-10 -59q33 33 108 33h447q81 0 116 -43t21 -125l-21 -125q-14 -83 -53.5 -116t-121.5 -33h-624q-81 0 -116 43t-21 125l59 340q18 104 70.5 148t155.5 44h718zM720 295h-403q-23 0 -34 -8t-16 -29l-9 -54q-4 -25 5 -35
t34 -10h404q24 0 34 9t15 34l8 48q4 25 -4.5 35t-33.5 10z" />
    <glyph glyph-name="seven" unicode="7" horiz-adv-x="992" 
d="M70 517l32 183h940l-28 -158l-388 -247q-41 -26 -59 -54.5t-27 -80.5l-29 -160h-228l29 166q20 105 50 152q29 48 106 92l186 107h-584z" />
    <glyph glyph-name="eight" unicode="8" 
d="M279 700h607q81 0 116.5 -43t21.5 -125l-9 -51q-11 -58 -33 -87t-63 -39q77 -32 59 -141l-11 -65q-14 -83 -53.5 -116t-121.5 -33h-628q-164 0 -137 168l11 65q10 61 35.5 91.5t74.5 38.5q-71 32 -53 138l9 51q13 81 53 114.5t122 33.5zM320 502l-7 -35q-5 -25 3.5 -35
t34.5 -10h387q25 0 35 8.5t15 33.5l7 36q4 25 -4.5 35t-34.5 10h-388q-24 0 -33.5 -9t-14.5 -34zM751 198l9 50q4 25 -4.5 35t-33.5 10h-407q-25 0 -35 -8.5t-15 -34.5l-9 -49q-4 -25 4.5 -35t33.5 -10h408q24 0 34 8.5t15 33.5z" />
    <glyph glyph-name="nine" unicode="9" 
d="M271 700h624q82 0 117 -43t21 -125l-60 -340q-19 -104 -71 -148t-155 -44h-719l30 168h625q35 0 51 13.5t22 49.5l10 53q-34 -32 -108 -32h-448q-81 0 -116.5 43t-20.5 125l23 132q14 82 53.5 115t121.5 33zM794 443l9 50q4 25 -5 35t-34 10h-405q-25 0 -34.5 -8.5
t-14.5 -34.5l-9 -50q-4 -25 4.5 -35.5t33.5 -10.5h404q24 0 35 9.5t16 34.5z" />
    <glyph glyph-name="colon" unicode=":" horiz-adv-x="348" 
d="M311 332h-251l36 204h251zM252 0h-251l36 204h251z" />
    <glyph glyph-name="semicolon" unicode=";" horiz-adv-x="348" 
d="M311 332h-252l37 204h252zM125 -160h-150l94 160h-69l37 204h252l-13 -76q-14 -80 -62 -151z" />
    <glyph glyph-name="less" unicode="&#x3c;" 
d="M88 447l959 226l-33 -195l-603 -127l556 -141l-34 -183l-875 246z" />
    <glyph glyph-name="equal" unicode="=" 
d="M79 399l29 166h920l-29 -166h-920zM33 135l29 166h920l-29 -166h-920z" />
    <glyph glyph-name="greater" unicode="&#x3e;" 
d="M94 490l34 183l875 -246l-30 -174l-959 -226l33 195l603 127z" />
    <glyph glyph-name="question" unicode="?" horiz-adv-x="998" 
d="M570 224h-209l13 73q12 66 41 94q28 26 102 34l222 21q40 4 46 40l3 14q4 23 -4.5 32.5t-31.5 9.5h-420q-22 0 -31.5 -8.5t-13.5 -31.5l-8 -42h-216l15 92q13 81 53 114.5t122 33.5h626q164 0 137 -167l-11 -63q-12 -74 -53.5 -111t-124.5 -44l-210 -19q-21 -1 -29.5 -10
t-11.5 -31zM552 0h-252l31 172h252z" />
    <glyph glyph-name="at" unicode="@" horiz-adv-x="1191" 
d="M304 700h708q103 0 149.5 -56t27.5 -160l-32 -187q-13 -70 -47 -98.5t-103 -28.5h-114q-73 0 -94 48q-43 -33 -66 -40q-25 -9 -77 -9h-288q-127 0 -104 127l21 115q11 65 43.5 92.5t96.5 27.5h287q47 0 71 -8q23 -8 49 -35l18 41h131l-39 -227q-6 -32 22 -32h23
q24 0 33 7.5t13 30.5l31 176q11 63 -11 89.5t-84 26.5h-641q-62 0 -87 -21q-26 -23 -36 -85l-50 -278q-10 -63 12 -89.5t84 -26.5h807l-18 -100h-832q-103 0 -149.5 56t-27.5 160l52 296q20 104 69 146q50 42 152 42zM772 294l15 11l16 90l-11 12q-15 15 -51 15h-267
q-20 0 -28 -7.5t-12 -27.5l-12 -71q-4 -21 2 -29.5t27 -8.5h268q34 0 53 16z" />
    <glyph glyph-name="A" unicode="A" horiz-adv-x="1152" 
d="M1113 0h-257l-51 120h-492l-94 -120h-275l578 700h261zM631 526l-193 -246h298z" />
    <glyph glyph-name="B" unicode="B" horiz-adv-x="1090" 
d="M123 700h820q79 0 114 -42.5t21 -123.5l-8 -51q-10 -55 -31 -85t-60 -41q81 -29 63 -141l-11 -66q-13 -81 -53.5 -115.5t-122.5 -34.5h-857zM802 539h-476l-20 -116h480q24 0 34 9t15 34l5 28q10 45 -38 45zM809 204l8 42q4 25 -4.5 35.5t-33.5 10.5h-496l-23 -131h500
q24 0 34 9t15 34z" />
    <glyph glyph-name="C" unicode="C" horiz-adv-x="1095" 
d="M818 0h-614q-103 0 -148 54t-26 158l52 296q19 104 71 148t155 44h614q103 0 148 -54t26 -158l-13 -79h-225l9 45q6 35 -6.5 50.5t-48.5 15.5h-433q-36 0 -51.5 -13.5t-22.5 -48.5l-38 -212q-6 -35 6.5 -50.5t48.5 -15.5h433q36 0 51.5 13.5t22.5 48.5l9 56h224l-18 -106
q-19 -104 -71 -148t-155 -44z" />
    <glyph glyph-name="D" unicode="D" horiz-adv-x="1124" 
d="M800 0h-800l124 700h772q120 0 180 -71q60 -72 38 -193l-36 -200q-22 -123 -89 -179.5t-189 -56.5zM324 517l-59 -334h496q41 0 62 18t28 59l30 173q15 84 -69 84h-488z" />
    <glyph glyph-name="E" unicode="E" horiz-adv-x="1002" 
d="M1044 700l-30 -170h-688l-18 -101h648l-25 -144h-649l-20 -115h698l-30 -170h-930l124 700h920z" />
    <glyph glyph-name="F" unicode="F" horiz-adv-x="970" 
d="M1034 700l-32 -179h-678l-21 -118h639l-29 -162h-638l-43 -241h-232l124 700h910z" />
    <glyph glyph-name="G" unicode="G" horiz-adv-x="1125" 
d="M845 0h-641q-102 0 -147.5 55t-26.5 157l53 296q19 104 70.5 148t154.5 44h641q103 0 148 -54t27 -158l-8 -46h-233l3 18q6 36 -6.5 51t-48.5 15h-452q-36 0 -51.5 -13t-21.5 -49l-41 -235q-7 -36 6 -51.5t48 -15.5h461q35 0 50 13t23 50l5 28h-296l24 141h520l-35 -202
q-18 -104 -70.5 -148t-155.5 -44z" />
    <glyph glyph-name="H" unicode="H" horiz-adv-x="1112" 
d="M865 458l43 242h232l-124 -700h-232l47 266h-552l-47 -266h-232l124 700h232l-43 -242h552z" />
    <glyph glyph-name="I" unicode="I" horiz-adv-x="340" 
d="M5 0l124 700h235l-124 -700h-235z" />
    <glyph glyph-name="J" unicode="J" horiz-adv-x="1015" 
d="M732 0h-544q-103 0 -148 54t-26 158l15 84h224l-9 -50q-7 -35 6 -50.5t49 -15.5h363q36 0 51.5 13.5t21.5 48.5l81 458h232l-90 -508q-19 -104 -71 -148t-155 -44z" />
    <glyph glyph-name="K" unicode="K" horiz-adv-x="1082" 
d="M779 700h371l-568 -344l448 -356h-349l-393 334l-59 -334h-232l124 700h232l-56 -314z" />
    <glyph glyph-name="L" unicode="L" horiz-adv-x="940" 
d="M356 700l-90 -509h649l-35 -191h-880l124 700h232z" />
    <glyph glyph-name="M" unicode="M" horiz-adv-x="1252" 
d="M620 310l446 390h214l-124 -700h-224l73 411l-344 -302h-127l-237 302l-73 -411h-224l124 700h189z" />
    <glyph glyph-name="N" unicode="N" horiz-adv-x="1132" 
d="M855 239l81 461h224l-124 -700h-190l-539 468l-83 -468h-224l124 700h199z" />
    <glyph glyph-name="O" unicode="O" horiz-adv-x="1125" 
d="M846 0h-642q-103 0 -148 54t-26 158l52 296q19 104 71 148t155 44h642q103 0 148 -54t26 -158l-52 -296q-19 -104 -71 -148t-155 -44zM323 183h453q36 0 51.5 13.5t21.5 49.5l37 204q6 36 -6.5 51.5t-48.5 15.5h-453q-36 0 -51.5 -13.5t-21.5 -49.5l-37 -204
q-6 -36 6.5 -51.5t48.5 -15.5z" />
    <glyph glyph-name="P" unicode="P" horiz-adv-x="1068" 
d="M232 0h-232l124 700h804q191 0 158 -192l-24 -136q-17 -97 -61 -134q-46 -38 -141 -38h-592zM326 533l-30 -174h481q30 0 42.5 11t17.5 42l12 66q5 31 -5.5 43t-41.5 12h-476z" />
    <glyph glyph-name="Q" unicode="Q" horiz-adv-x="1125" 
d="M308 700h642q103 0 148 -54t26 -158l-52 -296q-16 -89 -56.5 -133.5t-115.5 -55.5l128 -143h-253l-120 140h-451q-103 0 -148 54t-26 158l52 296q19 104 71 148t155 44zM305 454l-37 -204q-6 -36 6.5 -51.5t48.5 -15.5h453q36 0 51.5 13.5t21.5 49.5l37 204
q6 36 -6.5 51.5t-48.5 15.5h-453q-36 0 -51.5 -13.5t-21.5 -49.5z" />
    <glyph glyph-name="R" unicode="R" horiz-adv-x="1082" 
d="M124 700h804q191 0 158 -192l-16 -95q-17 -96 -62 -134q-46 -38 -141 -38l-15 -4l164 -237h-263l-151 225h-329l-41 -225h-232zM841 432l10 54q5 31 -5.5 43t-41.5 12h-476l-28 -162h480q31 0 43.5 11t17.5 42z" />
    <glyph glyph-name="S" unicode="S" horiz-adv-x="1105" 
d="M22 166l10 59h224l-5 -29q-4 -24 4.5 -34t33.5 -10h482q24 0 34.5 9.5t15.5 34.5l4 26q4 25 -3 34.5t-30 10.5l-573 24q-164 8 -137 166l17 93q14 82 54.5 116t122.5 34h686q160 0 135 -166l-7 -49h-224l3 20q3 25 -5.5 34.5t-33.5 9.5h-458q-24 0 -34.5 -9.5
t-14.5 -34.5l-2 -13q-4 -25 2.5 -34t29.5 -10l573 -25q165 -6 137 -166l-19 -107q-14 -82 -54.5 -116t-121.5 -34h-710q-81 0 -115.5 42t-20.5 124z" />
    <glyph glyph-name="T" unicode="T" horiz-adv-x="1008" 
d="M88 700h984l-34 -191h-376l-90 -509h-232l90 509h-376z" />
    <glyph glyph-name="U" unicode="U" horiz-adv-x="1102" 
d="M819 0h-612q-103 0 -148 54t-26 158l86 488h232l-78 -443q-6 -36 6.5 -51.5t48.5 -15.5h423q36 0 51.5 13.5t21.5 49.5l79 447h232l-90 -508q-19 -104 -71 -148t-155 -44z" />
    <glyph glyph-name="V" unicode="V" horiz-adv-x="1124" 
d="M545 219l392 481h271l-589 -700h-209l-342 700h254z" />
    <glyph glyph-name="W" unicode="W" horiz-adv-x="1530" 
d="M1065 246l286 454h263l-469 -700h-199l-153 446l-310 -446h-193l-222 700h246l125 -454l306 454h172z" />
    <glyph glyph-name="X" unicode="X" horiz-adv-x="1100" 
d="M281 0h-327l453 357l-319 343h303l189 -210l257 210h327l-441 -343l327 -357h-303l-197 224z" />
    <glyph glyph-name="Y" unicode="Y" horiz-adv-x="1092" 
d="M873 700h303l-517 -446l-45 -254h-232l45 253l-359 447h285l211 -276z" />
    <glyph glyph-name="Z" unicode="Z" horiz-adv-x="1072" 
d="M990 0h-1004l27 149l639 368h-554l32 183h984l-26 -149l-639 -368h574z" />
    <glyph glyph-name="bracketleft" unicode="[" horiz-adv-x="612" 
d="M511 -100h-540l158 900h540l-27 -159h-345l-103 -582h345z" />
    <glyph glyph-name="backslash" unicode="\" horiz-adv-x="596" 
d="M95 800h131l303 -900h-130z" />
    <glyph glyph-name="bracketright" unicode="]" horiz-adv-x="612" 
d="M130 800h540l-158 -900h-540l27 159h345l103 582h-345z" />
    <glyph glyph-name="asciicircum" unicode="^" 
d="M676 700l312 -420h-209l-204 271l-300 -271h-227l461 420h167z" />
    <glyph glyph-name="underscore" unicode="_" horiz-adv-x="968" 
d="M-78 -175l23 135h968l-23 -135h-968z" />
    <glyph glyph-name="grave" unicode="`" horiz-adv-x="376" 
d="M456 572h-180l-146 128h231z" />
    <glyph glyph-name="a" unicode="a" horiz-adv-x="977" 
d="M260 536h532q190 0 156 -190l-61 -346h-186l-6 54q-44 -33 -81 -44q-33 -10 -104 -10h-384q-63 0 -93.5 36.5t-17.5 98.5l10 56q12 63 46 92t96 29h556l6 33q5 31 -5 43t-41 12h-344q-25 0 -35.5 -9t-14.5 -34l-2 -14h-212l7 43q13 81 54.5 115.5t123.5 34.5zM272 123
h328q42 0 69 21l28 20l5 28l4 22h-422q-22 0 -30.5 -7.5t-12.5 -29.5l-3 -15q-3 -22 4 -30.5t30 -8.5z" />
    <glyph glyph-name="b" unicode="b" horiz-adv-x="990" 
d="M479 536h331q95 0 133.5 -46.5t22.5 -143.5l-31 -172q-16 -96 -62 -135t-142 -39h-339q-72 0 -108 11q-34 10 -73 49l-27 -60h-185l124 700h219l-37 -209q39 28 75 37q37 8 99 8zM723 213l19 107q5 31 -5 43t-41 12h-313q-49 0 -80 -22l-26 -20l-23 -131l19 -19
q22 -22 75 -22h315q31 0 43 10.5t17 41.5z" />
    <glyph glyph-name="c" unicode="c" horiz-adv-x="954" 
d="M696 0h-513q-191 0 -158 192l30 172q17 98 62 134q46 38 141 38h513q189 0 158 -192l-6 -39h-211l2 15q4 31 -6 43t-41 12h-339q-31 0 -43.5 -10.5t-17.5 -41.5l-19 -107q-5 -31 5.5 -43t41.5 -12h339q31 0 43.5 10.5t17.5 41.5l4 23h211l-11 -64q-16 -96 -62 -134
t-141 -38z" />
    <glyph glyph-name="d" unicode="d" horiz-adv-x="990" 
d="M764 490l37 210h219l-124 -700h-185l-5 60q-48 -38 -86 -49t-108 -11h-332q-95 0 -133 46.5t-22 143.5l30 172q16 96 62.5 135t142.5 39h339q64 0 101 -8q31 -9 64 -38zM294 161h313q49 0 80 22l26 20l24 131l-20 19q-22 22 -75 22h-315q-30 0 -42.5 -10.5t-17.5 -41.5
l-19 -107q-5 -31 5 -43t41 -12z" />
    <glyph glyph-name="e" unicode="e" horiz-adv-x="972" 
d="M259 536h532q96 0 134 -46.5t22 -142.5l-19 -108h-676l-6 -33q-5 -31 4.5 -43t40.5 -12h368q24 0 34.5 9t15.5 34l2 11h212l-10 -54q-16 -83 -56 -117t-121 -34h-556q-188 0 -155 190l30 172q16 96 62 135t142 39zM272 355l-2 -14h465l2 12q5 31 -4.5 42.5t-40.5 11.5
h-359q-30 0 -43 -11t-18 -41z" />
    <glyph glyph-name="f" unicode="f" horiz-adv-x="790" 
d="M827 548h-310q-24 0 -34 -9t-15 -34l-6 -35h351l-28 -158h-351l-55 -312h-219l55 312h-195l28 158h195l14 80q15 82 55.5 116t121.5 34h420z" />
    <glyph glyph-name="g" unicode="g" horiz-adv-x="991" 
d="M786 475l28 61h185l-89 -499q-18 -104 -73 -150.5t-158 -46.5h-690l27 148h601q36 0 53 14t24 50l7 42q-41 -29 -77 -38t-99 -9h-333q-96 0 -132.5 45t-19.5 141l21 125q17 97 65.5 137.5t144.5 40.5h337q71 0 107 -11q32 -10 71 -50zM305 194h314q52 0 81 22l26 19
l19 109l-19 19q-22 22 -74 22h-314q-31 0 -44 -11t-18 -42l-15 -84q-6 -31 3.5 -42.5t40.5 -11.5z" />
    <glyph glyph-name="h" unicode="h" horiz-adv-x="985" 
d="M486 536h312q192 0 157 -192l-60 -344h-219l55 315q6 31 -4.5 43t-41.5 12h-303q-49 0 -80 -22l-26 -19l-58 -329h-219l124 700h219l-38 -215q43 33 79 42q35 9 103 9z" />
    <glyph glyph-name="i" unicode="i" horiz-adv-x="323" 
d="M327 576h-222l22 124h222zM225 0h-222l95 536h222z" />
    <glyph glyph-name="j" unicode="j" horiz-adv-x="423" 
d="M427 576h-222l22 124h222zM147 -160h-344l27 153h230q25 0 35.5 9t14.5 34l88 500h223l-97 -546q-14 -82 -54.5 -116t-122.5 -34z" />
    <glyph glyph-name="k" unicode="k" horiz-adv-x="981" 
d="M659 536h372l-473 -269l385 -267h-351l-331 245l-43 -245h-220l124 700h220l-72 -408z" />
    <glyph glyph-name="l" unicode="l" horiz-adv-x="323" 
d="M225 0h-222l124 700h222z" />
    <glyph glyph-name="m" unicode="m" horiz-adv-x="1590" 
d="M1122 536h288q184 0 150 -192l-60 -344h-220l56 315q5 31 -5 43t-41 12h-266q-50 0 -81 -22l-26 -19l-58 -329h-219l55 315q6 31 -4.5 43t-41.5 12h-266q-50 0 -81 -22l-25 -19l-59 -329h-219l95 536h185l6 -60q52 39 87 49q39 11 109 11h289q113 0 143 -69q56 44 94 57
q39 12 115 12z" />
    <glyph glyph-name="n" unicode="n" horiz-adv-x="985" 
d="M481 536h317q192 0 157 -192l-60 -344h-219l55 315q6 31 -4.5 43t-41.5 12h-302q-50 0 -81 -22l-25 -19l-59 -329h-219l95 536h185l6 -60q52 39 87 49q39 11 109 11z" />
    <glyph glyph-name="o" unicode="o" horiz-adv-x="982" 
d="M724 0h-541q-191 0 -158 192l30 172q17 98 62 134q46 38 141 38h541q191 0 158 -192l-30 -172q-17 -97 -61 -134q-47 -38 -142 -38zM295 161h359q31 0 43.5 10.5t17.5 41.5l19 107q5 31 -5.5 43t-41.5 12h-359q-31 0 -43.5 -10.5t-17.5 -41.5l-19 -107q-5 -31 5.5 -43
t41.5 -12z" />
    <glyph glyph-name="p" unicode="p" horiz-adv-x="990" 
d="M479 536h331q95 0 133.5 -46.5t22.5 -143.5l-31 -172q-16 -96 -62 -135t-142 -39h-339q-66 0 -100 9q-34 7 -66 36l-36 -205h-219l123 696h185l6 -60q50 40 86 50q34 10 108 10zM723 213l19 107q5 31 -5 43t-41 12h-313q-49 0 -80 -22l-26 -20l-23 -131l19 -19
q22 -22 75 -22h315q31 0 43 10.5t17 41.5z" />
    <glyph glyph-name="q" unicode="q" horiz-adv-x="990" 
d="M779 476l27 60h186l-124 -696h-219l36 205q-41 -29 -74 -36q-35 -9 -99 -9h-332q-95 0 -133 46.5t-22 143.5l30 172q16 96 62.5 135t142.5 39h339q71 0 109 -11q34 -10 71 -49zM687 183l26 19l24 132l-20 19q-22 22 -75 22h-315q-30 0 -42.5 -10.5t-17.5 -41.5l-19 -107
q-5 -31 5 -43t41 -12h313q49 0 80 22z" />
    <glyph glyph-name="r" unicode="r" horiz-adv-x="678" 
d="M471 536h243l-33 -182h-301q-53 0 -81 -22l-25 -19l-56 -313h-219l95 536h161l7 -71q56 45 96 59q38 12 113 12z" />
    <glyph glyph-name="s" unicode="s" horiz-adv-x="962" 
d="M14 134l8 45h211l-5 -29q-3 -16 2 -21.5t21 -5.5h402q16 0 22.5 5.5t8.5 21.5l4 23q2 15 -3 21t-21 7l-495 22q-60 2 -88 36t-18 94l11 62q21 121 142 121h609q59 0 88.5 -36t19.5 -97l-6 -39h-211l4 23q3 15 -2.5 20.5t-21.5 5.5h-378q-16 0 -22.5 -5.5t-7.5 -20.5
l-2 -12q-2 -15 3 -20.5t20 -6.5l496 -22q60 -2 88.5 -37t17.5 -94l-13 -74q-22 -121 -143 -121h-633q-59 0 -88.5 36.5t-19.5 97.5z" />
    <glyph glyph-name="t" unicode="t" horiz-adv-x="810" 
d="M807 378h-360l-31 -172q-4 -25 4.5 -35t34.5 -10h314l-29 -161h-415q-165 0 -135 164l38 214h-196l28 158h196l61 120h179l-21 -120h360z" />
    <glyph glyph-name="u" unicode="u" horiz-adv-x="985" 
d="M767 536h219l-95 -536h-185l-6 60q-52 -40 -86 -49q-39 -11 -110 -11h-317q-191 0 -157 192l60 344h219l-55 -315q-6 -31 4.5 -43t41.5 -12h302q50 0 81 22l25 19z" />
    <glyph glyph-name="v" unicode="v" horiz-adv-x="978" 
d="M467 204l290 332h275l-498 -536h-185l-307 536h252z" />
    <glyph glyph-name="w" unicode="w" horiz-adv-x="1338" 
d="M915 216l216 320h253l-394 -536h-188l-125 330l-240 -330h-184l-203 536h231l105 -319l234 319h171z" />
    <glyph glyph-name="x" unicode="x" horiz-adv-x="960" 
d="M269 0h-323l374 274l-269 262h304l140 -142l185 142h324l-362 -262l276 -274h-303l-149 154z" />
    <glyph glyph-name="y" unicode="y" horiz-adv-x="978" 
d="M465 196l292 340h275l-505 -542q-84 -93 -148 -124q-63 -30 -178 -30h-225l29 161h214q36 0 56 9t46 38l-279 488h252z" />
    <glyph glyph-name="z" unicode="z" horiz-adv-x="946" 
d="M866 0h-882l22 122l517 261h-450l27 153h862l-22 -122l-517 -261h470z" />
    <glyph glyph-name="braceleft" unicode="{" horiz-adv-x="732" 
d="M435 575l-19 -111q-17 -90 -85 -117q58 -33 43 -121l-17 -98q-6 -36 7.5 -52.5t50.5 -16.5h256l-28 -159h-302q-107 0 -153.5 56t-27.5 164l20 116q8 42 -35 42h-119l25 144h123q40 0 46 40l25 138q19 108 73 154t161 46h322l-27 -159h-263q-36 0 -52.5 -15t-23.5 -51z
" />
    <glyph glyph-name="bar" unicode="|" horiz-adv-x="292" 
d="M-7 -100l158 900h176l-158 -900h-176z" />
    <glyph glyph-name="braceright" unicode="}" horiz-adv-x="732" 
d="M616 422h119l-25 -144h-123q-40 0 -46 -40l-25 -138q-19 -108 -73 -154t-161 -46h-322l27 159h263q36 0 52.5 15t23.5 51l19 111q17 90 85 117q-58 33 -43 121l17 98q6 36 -7.5 52.5t-50.5 16.5h-256l28 159h302q107 0 153.5 -56t27.5 -164l-20 -116q-7 -42 35 -42z" />
    <glyph glyph-name="asciitilde" unicode="~" 
d="M514 466l208 -135q14 -9 30 -9h32q18 0 21 18l28 164h184l-37 -210q-10 -53 -36 -75.5t-79 -22.5h-168q-56 0 -84 7q-32 8 -66 32l-208 134q-13 9 -30 9h-32q-18 0 -21 -18l-29 -164h-184l38 210q9 53 35 75.5t79 22.5h169q56 0 84 -7q30 -8 66 -31z" />
    <glyph glyph-name="exclamdown" unicode="&#xa1;" horiz-adv-x="348" 
d="M125 700h252l-34 -196h-252zM291 452l-39 -452h-249l121 452h167z" />
    <glyph glyph-name="cent" unicode="&#xa2;" 
d="M668 700h202q191 0 158 -192l-9 -50h-216l4 23q5 31 -5.5 43t-41.5 12h-391q-30 0 -42.5 -11t-17.5 -41l-24 -135q-6 -31 4.5 -43t41.5 -12h392q30 0 42.5 11t17.5 41l6 31h216l-14 -75q-18 -96 -62 -134q-46 -38 -140 -38h-222l-18 -100h-145l18 100h-208
q-192 0 -158 192l37 206q16 97 62 135q43 37 139 37h228l18 100h145z" />
    <glyph glyph-name="sterling" unicode="&#xa3;" horiz-adv-x="1072" 
d="M375 700h515q103 0 148.5 -54.5t26.5 -157.5l-11 -61h-216l8 47q7 35 -6 50t-49 15h-359q-30 0 -44 -13.5t-20 -49.5l-11 -61h391l-20 -113h-391l-24 -133h437q25 0 35.5 9t14.5 34l11 62h216l-21 -122q-14 -82 -56 -117t-124 -35h-861l30 169h94l24 133h-104l19 113h105
l17 93q19 104 70.5 148t154.5 44z" />
    <glyph glyph-name="currency" unicode="&#xa4;" 
d="M946 421l-28 -162q-6 -33 -16 -55l75 -91l-102 -87l-67 82q-37 -15 -85 -15h-456q-47 0 -82 18l-100 -85l-83 101l110 94q-3 27 3 58l28 162q6 33 16 55l-75 91l101 87l68 -82q36 15 85 15h455q49 0 83 -18l100 85l83 -101l-110 -94q3 -27 -3 -58zM352 249h325
q34 0 49.5 13.5t21.5 47.5l13 77q6 34 -6.5 49t-46.5 15h-324q-34 0 -49.5 -13.5t-21.5 -47.5l-13 -77q-6 -34 6 -49t46 -15z" />
    <glyph glyph-name="yen" unicode="&#xa5;" 
d="M796 700h296l-397 -370h302l-16 -92h-359l-10 -60h358l-16 -92h-359l-15 -86h-224l15 86h-357l16 92h358l10 60h-357l16 92h301l-266 370h278l166 -268z" />
    <glyph glyph-name="brokenbar" unicode="&#xa6;" horiz-adv-x="292" 
d="M93 466l59 334h176l-59 -334h-176zM-6 -100l59 334h176l-59 -334h-176z" />
    <glyph glyph-name="section" unicode="&#xa7;" horiz-adv-x="1242" 
d="M474 553l622 -33q151 -7 124 -159l-13 -68q-13 -72 -43.5 -103.5t-92.5 -35.5q-1 -6 -4 -31l-13 -74q-14 -83 -53 -116t-121 -33h-618q-81 0 -116.5 43t-22.5 125l8 50h224l-4 -25q-4 -25 4.5 -35.5t33.5 -10.5h393q23 0 33 9t14 33l3 14q4 23 -4 33t-31 11l-623 33
q-152 8 -123 160l12 67q14 74 44 104.5t92 34.5l4 32l13 74q15 82 54 115t120 33h619q81 0 116 -42.5t22 -124.5l-8 -51h-224l5 26q4 25 -5 35t-34 10h-392q-24 0 -33.5 -8.5t-14.5 -32.5l-2 -15q-4 -23 3.5 -32.5t31.5 -11.5zM315 323l631 -33q4 0 22 -2q8 8 11 25l5 28
q7 34 -29 36l-631 33q-4 0 -22 2q-8 -8 -11 -25l-5 -28q-3 -18 3.5 -26t25.5 -10z" />
    <glyph glyph-name="dieresis" unicode="&#xa8;" horiz-adv-x="464" 
d="M279 576h-176l20 116h176zM543 576h-176l20 116h176z" />
    <glyph glyph-name="copyright" unicode="&#xa9;" horiz-adv-x="1177" 
d="M893 0h-580q-104 0 -166 61.5t-62 166.5v244q0 105 62 166.5t166 61.5h580q104 0 166 -61.5t62 -166.5v-244q0 -105 -62 -166.5t-166 -61.5zM327 63h552q85 0 130 44.5t45 130.5v224q0 86 -45 130.5t-130 44.5h-552q-85 0 -130 -44.5t-45 -130.5v-224q0 -86 45 -130.5
t130 -44.5zM855 128h-504q-68 0 -101 32.5t-33 101.5v176q0 69 33 101.5t101 32.5h504q68 0 101 -32.5t33 -101.5v-54h-158v27q0 22 -8 30.5t-30 8.5h-374q-22 0 -31 -8.5t-9 -30.5v-122q0 -22 9 -30.5t31 -8.5h374q22 0 30 8.5t8 30.5v32h158v-59q0 -69 -33 -101.5
t-101 -32.5z" />
    <glyph glyph-name="ordfeminine" unicode="&#xaa;" horiz-adv-x="589" 
d="M206 700h321q114 0 94 -113l-37 -209h-116l-4 32q-28 -22 -47 -26q-19 -6 -61 -6h-234q-36 0 -54.5 22t-11.5 59l6 35q12 73 86 73h333l3 18q3 17 -2.5 23.5t-22.5 6.5h-205q-14 0 -20 -5t-8 -19l-2 -8h-132l5 25q9 50 34 71t75 21zM213 454h197q22 0 39 12l15 11l5 29
h-247q-13 0 -18 -4t-6 -16l-2 -11q-2 -12 1.5 -16.5t15.5 -4.5z" />
    <glyph glyph-name="guillemotleft" unicode="&#xab;" horiz-adv-x="1316" 
d="M71 422l619 176l-30 -167l-340 -81l310 -92l-28 -156l-553 196zM711 422l619 176l-30 -167l-340 -81l310 -92l-28 -156l-553 196z" />
    <glyph glyph-name="logicalnot" unicode="&#xac;" 
d="M776 263h-721l31 174h920l-60 -339h-199z" />
    <glyph glyph-name="uni00AD" unicode="&#xad;" horiz-adv-x="660" 
d="M35 263l30 174h588l-30 -174h-588z" />
    <glyph glyph-name="registered" unicode="&#xae;" horiz-adv-x="393" 
d="M193 700h105q111 0 111 -111v-92q0 -111 -111 -111h-105q-111 0 -111 111v92q0 111 111 111zM364 499v88q0 40 -15.5 55.5t-54.5 15.5h-97q-39 0 -55 -15.5t-16 -55.5v-88q0 -38 16 -54.5t55 -16.5h97q39 0 54.5 16t15.5 55zM323 580v-21q0 -36 -31 -40l38 -54h-54
l-31 48h-25v-48h-49v155h112q22 0 31 -9.5t9 -30.5zM265 583h-45v-34h45q10 0 10 9v15q0 10 -10 10z" />
    <glyph glyph-name="overscore" unicode="&#xaf;" horiz-adv-x="520" 
d="M609 589h-504l17 95h504z" />
    <glyph glyph-name="degree" unicode="&#xb0;" horiz-adv-x="436" 
d="M299 340h-118q-59 0 -90 38t-20 96l19 110q21 116 136 116h118q59 0 89.5 -37.5t20.5 -96.5l-19 -110q-20 -116 -136 -116zM221 446h58q22 0 32.5 9t14.5 31l11 67q4 23 -4 32t-30 9h-58q-22 0 -32 -9t-14 -31l-11 -67q-4 -22 3.5 -31.5t29.5 -9.5z" />
    <glyph glyph-name="plusminus" unicode="&#xb1;" 
d="M690 692l-29 -161h362l-28 -158h-361l-29 -161h-197l29 161h-362l28 158h361l29 161h197zM931 8h-920l27 158h920z" />
    <glyph glyph-name="uni00B2" unicode="&#xb2;" horiz-adv-x="641" 
d="M622 391l-20 -111h-566l26 147q8 50 32 71t76 24l314 18q20 1 25 23l2 16q5 21 -19 21h-225q-12 0 -17 -4.5t-8 -17.5l-4 -20h-144l8 51q8 50 32.5 70.5t75.5 20.5h369q105 0 85 -105l-9 -51q-8 -50 -32.5 -71t-76.5 -24l-313 -18q-20 -2 -24 -23l-3 -17h416z" />
    <glyph glyph-name="uni00B3" unicode="&#xb3;" horiz-adv-x="639" 
d="M206 700h369q102 0 84 -102l-4 -28q-12 -68 -61 -78q50 -17 38 -85l-6 -35q-8 -51 -33 -71.5t-76 -20.5h-381q-100 0 -83 102l8 54h145l-5 -28q-2 -14 2 -18.5t17 -4.5h237q14 0 19 4.5t6 17.5l4 20q4 23 -20 23h-207l15 86h204q13 0 18 4.5t7 17.5l2 14q2 14 -2 18.5
t-17 4.5h-225q-13 0 -18 -4.5t-7 -17.5l-5 -24h-144l11 59q9 51 33.5 71.5t74.5 20.5z" />
    <glyph glyph-name="acute" unicode="&#xb4;" horiz-adv-x="376" 
d="M489 700l-189 -128h-202l139 128h252z" />
    <glyph glyph-name="paragraph" unicode="&#xb6;" horiz-adv-x="990" 
d="M56 416l20 112q17 98 62 134q46 38 141 38h699l-124 -700h-200l94 533h-134l-94 -533h-200l41 224h-147q-191 0 -158 192z" />
    <glyph glyph-name="middot" unicode="&#xb7;" horiz-adv-x="348" 
d="M293 232h-252l43 236h251z" />
    <glyph glyph-name="cedilla" unicode="&#xb8;" horiz-adv-x="320" 
d="M228 -160h-260l11 60h195q8 0 11 8l1 8q3 9 -8 9h-130l5 28l33 67h80l-21 -42h103q58 0 47 -57l-5 -28q-5 -30 -19 -41.5t-43 -11.5z" />
    <glyph glyph-name="uni00B9" unicode="&#xb9;" horiz-adv-x="603" 
d="M459 700l-55 -310h198l-19 -110h-558l20 110h209l34 189l-195 -13l21 116l269 18h76z" />
    <glyph glyph-name="ordmasculine" unicode="&#xba;" horiz-adv-x="589" 
d="M481 378h-324q-115 0 -95 116l17 101q10 57 38.5 81t86.5 24h325q113 0 94 -115l-17 -101q-11 -59 -39 -82.5t-86 -23.5zM226 480h211q17 0 24.5 6t10.5 23l11 59q3 17 -2.5 24t-22.5 7h-211q-17 0 -24.5 -6.5t-10.5 -23.5l-11 -59q-3 -17 2.5 -23.5t22.5 -6.5z" />
    <glyph glyph-name="guillemotright" unicode="&#xbb;" horiz-adv-x="1316" 
d="M75 442l28 156l553 -196l-22 -124l-619 -176l30 167l340 81zM715 442l28 156l553 -196l-22 -124l-619 -176l30 167l340 81z" />
    <glyph glyph-name="onequarter" unicode="&#xbc;" horiz-adv-x="1406" 
d="M404 390h198l-19 -110h-558l20 110h209l34 189l-195 -13l21 116l269 18h76zM302 0l818 700h139l-818 -700h-139zM1248 177h117l-18 -104h-117l-13 -73h-145l13 73h-350l15 87l368 260h173zM1126 311l-194 -134h171z" />
    <glyph glyph-name="onehalf" unicode="&#xbd;" horiz-adv-x="1519" 
d="M404 390h198l-19 -110h-558l20 110h209l34 189l-195 -13l21 116l269 18h76zM302 0l818 700h139l-818 -700h-139zM1037 420h369q104 0 85 -105l-9 -51q-8 -50 -32.5 -71t-76.5 -24l-313 -18q-20 -2 -24 -23l-3 -17h416l-20 -111h-566l26 147q8 50 32 71t76 24l314 18
q20 1 25 23l2 16q4 21 -19 21h-225q-12 0 -17 -4.5t-8 -17.5l-4 -20h-144l8 51q8 50 32.5 70.5t75.5 20.5z" />
    <glyph glyph-name="threequarters" unicode="&#xbe;" horiz-adv-x="1442" 
d="M632 407l-6 -35q-8 -51 -33 -71.5t-76 -20.5h-381q-100 0 -83 102l8 54h145l-5 -28q-2 -14 2 -18.5t17 -4.5h237q14 0 19 4.5t6 17.5l4 20q4 23 -20 23h-207l15 86h204q13 0 18 4.5t7 17.5l2 14q2 14 -2 18.5t-17 4.5h-225q-13 0 -18 -4.5t-7 -17.5l-5 -24h-144l11 59
q9 51 33.5 71.5t74.5 20.5h369q102 0 84 -102l-4 -28q-12 -68 -61 -78q50 -17 38 -85zM338 0l818 700h139l-818 -700h-139zM1285 177h117l-18 -104h-117l-13 -73h-145l13 73h-350l15 87l368 260h173zM1163 311l-194 -134h171z" />
    <glyph glyph-name="questiondown" unicode="&#xbf;" horiz-adv-x="998" 
d="M476 700h252l-31 -172h-252zM458 476h209l-13 -73q-12 -66 -41 -94q-28 -26 -102 -34l-222 -21q-40 -4 -46 -40l-3 -14q-4 -23 4.5 -32.5t31.5 -9.5h420q22 0 31.5 8.5t13.5 31.5l8 42h216l-15 -92q-13 -81 -53 -114.5t-122 -33.5h-626q-164 0 -137 167l11 63
q12 74 53.5 111t124.5 44l210 19q21 1 29.5 10t11.5 31z" />
    <glyph glyph-name="Agrave" unicode="&#xc0;" horiz-adv-x="1152" 
d="M656 864l95 -128h-180l-146 128h231zM1113 0h-257l-51 120h-492l-94 -120h-275l578 700h261zM631 526l-193 -246h298z" />
    <glyph glyph-name="Aacute" unicode="&#xc1;" horiz-adv-x="1152" 
d="M698 864h252l-189 -128h-202zM1113 0h-257l-51 120h-492l-94 -120h-275l578 700h261zM631 526l-193 -246h298z" />
    <glyph glyph-name="Acircumflex" unicode="&#xc2;" horiz-adv-x="1152" 
d="M764 736l-89 52l-107 -52h-168l168 128h226l124 -128h-154zM1113 0h-257l-51 120h-492l-94 -120h-275l578 700h261zM631 526l-193 -246h298z" />
    <glyph glyph-name="Atilde" unicode="&#xc3;" horiz-adv-x="1152" 
d="M557 789l-9 -53h-126l13 80q11 48 58 48h175q23 0 34.5 -5.5t21.5 -21.5l21 -28q5 -6 14 -6h16q7 0 9 8l9 53h127l-14 -80q-9 -48 -57 -48h-176q-23 0 -34.5 5.5t-21.5 21.5l-21 28q-5 6 -13 6h-16q-8 0 -10 -8zM1113 0h-257l-51 120h-492l-94 -120h-275l578 700h261z
M631 526l-193 -246h298z" />
    <glyph glyph-name="Adieresis" unicode="&#xc4;" horiz-adv-x="1152" 
d="M460 856h176l-20 -116h-176zM724 856h176l-20 -116h-176zM1113 0h-257l-51 120h-492l-94 -120h-275l578 700h261zM631 526l-193 -246h298z" />
    <glyph glyph-name="Aring" unicode="&#xc5;" horiz-adv-x="1152" 
d="M791 726h-263q-58 0 -47 57l4 28q5 29 19 41t44 12h263q57 0 47 -57l-4 -28q-5 -29 -19 -41t-44 -12zM563 801l-2 -12q-2 -11 0.5 -14.5t13.5 -3.5h181q11 0 14.5 3t5.5 15l2 12q2 11 -0.5 14.5t-13.5 3.5h-181q-11 0 -14.5 -3t-5.5 -15zM1113 0h-257l-51 120h-492
l-94 -120h-275l578 700h261zM631 526l-193 -246h298z" />
    <glyph glyph-name="AE" unicode="&#xc6;" horiz-adv-x="1578" 
d="M1621 700l-30 -165h-728l48 -110h621l-24 -135h-538l54 -124h512l-29 -166h-667l-48 120h-479l-94 -120h-275l578 700h1099zM629 524l-191 -244h289z" />
    <glyph glyph-name="Ccedilla" unicode="&#xc7;" horiz-adv-x="1095" 
d="M308 700h614q103 0 148 -54t26 -158l-13 -79h-225l9 45q6 35 -6.5 50.5t-48.5 15.5h-433q-36 0 -51.5 -13.5t-22.5 -48.5l-38 -212q-6 -35 6.5 -50.5t48.5 -15.5h433q36 0 51.5 13.5t22.5 48.5l9 56h224l-18 -106q-19 -104 -71 -148t-155 -44h-294l-11 -22h103
q58 0 47 -57l-5 -28q-5 -30 -19 -41.5t-43 -11.5h-260l11 60h195q8 0 11 8l1 8q3 9 -8 9h-130l5 28l23 47h-240q-103 0 -148 54t-26 158l52 296q19 104 71 148t155 44z" />
    <glyph glyph-name="Egrave" unicode="&#xc8;" horiz-adv-x="1002" 
d="M580 864l95 -128h-180l-146 128h231zM1044 700l-30 -170h-688l-18 -101h648l-25 -144h-649l-20 -115h698l-30 -170h-930l124 700h920z" />
    <glyph glyph-name="Eacute" unicode="&#xc9;" horiz-adv-x="1002" 
d="M622 864h252l-189 -128h-202zM1044 700l-30 -170h-688l-18 -101h648l-25 -144h-649l-20 -115h698l-30 -170h-930l124 700h920z" />
    <glyph glyph-name="Ecircumflex" unicode="&#xca;" horiz-adv-x="1002" 
d="M688 736l-89 52l-107 -52h-168l168 128h226l124 -128h-154zM1044 700l-30 -170h-688l-18 -101h648l-25 -144h-649l-20 -115h698l-30 -170h-930l124 700h920z" />
    <glyph glyph-name="Edieresis" unicode="&#xcb;" horiz-adv-x="1002" 
d="M384 856h176l-20 -116h-176zM648 856h176l-20 -116h-176zM1044 700l-30 -170h-688l-18 -101h648l-25 -144h-649l-20 -115h698l-30 -170h-930l124 700h920z" />
    <glyph glyph-name="Igrave" unicode="&#xcc;" horiz-adv-x="340" 
d="M344 736h-180l-146 128h231zM5 0l124 700h235l-124 -700h-235z" />
    <glyph glyph-name="Iacute" unicode="&#xcd;" horiz-adv-x="340" 
d="M543 864l-189 -128h-202l139 128h252zM5 0l124 700h235l-124 -700h-235z" />
    <glyph glyph-name="Icircumflex" unicode="&#xce;" horiz-adv-x="340" 
d="M161 736h-168l168 128h226l124 -128h-154l-89 52zM5 0l124 700h235l-124 -700h-235z" />
    <glyph glyph-name="Idieresis" unicode="&#xcf;" horiz-adv-x="340" 
d="M209 740h-176l20 116h176zM473 740h-176l20 116h176zM5 0l124 700h235l-124 -700h-235z" />
    <glyph glyph-name="Eth" unicode="&#xd0;" horiz-adv-x="1184" 
d="M184 700h772q120 0 180 -71q60 -72 38 -193l-36 -200q-22 -123 -89 -179.5t-189 -56.5h-800l51 290h-83l21 120h84zM911 260l30 173q15 84 -69 84h-488l-19 -107h336l-21 -120h-336l-19 -107h496q41 0 62 18t28 59z" />
    <glyph glyph-name="Ntilde" unicode="&#xd1;" horiz-adv-x="1132" 
d="M538 789l-9 -53h-126l13 80q10 48 58 48h175q23 0 34.5 -5.5t21.5 -21.5l21 -28q4 -6 14 -6h16q7 0 9 8l9 53h127l-14 -80q-9 -48 -57 -48h-176q-23 0 -34.5 5.5t-21.5 21.5l-21 28q-5 6 -13 6h-16q-8 0 -10 -8zM855 239l81 461h224l-124 -700h-190l-539 468l-83 -468
h-224l124 700h199z" />
    <glyph glyph-name="Ograve" unicode="&#xd2;" horiz-adv-x="1125" 
d="M737 736h-180l-146 128h231zM846 0h-642q-103 0 -148 54t-26 158l52 296q19 104 71 148t155 44h642q103 0 148 -54t26 -158l-52 -296q-19 -104 -71 -148t-155 -44zM323 183h453q36 0 51.5 13.5t21.5 49.5l37 204q6 36 -6.5 51.5t-48.5 15.5h-453q-36 0 -51.5 -13.5
t-21.5 -49.5l-37 -204q-6 -36 6.5 -51.5t48.5 -15.5z" />
    <glyph glyph-name="Oacute" unicode="&#xd3;" horiz-adv-x="1125" 
d="M936 864l-189 -128h-202l139 128h252zM846 0h-642q-103 0 -148 54t-26 158l52 296q19 104 71 148t155 44h642q103 0 148 -54t26 -158l-52 -296q-19 -104 -71 -148t-155 -44zM323 183h453q36 0 51.5 13.5t21.5 49.5l37 204q6 36 -6.5 51.5t-48.5 15.5h-453
q-36 0 -51.5 -13.5t-21.5 -49.5l-37 -204q-6 -36 6.5 -51.5t48.5 -15.5z" />
    <glyph glyph-name="Ocircumflex" unicode="&#xd4;" horiz-adv-x="1125" 
d="M554 736h-168l168 128h226l124 -128h-154l-89 52zM846 0h-642q-103 0 -148 54t-26 158l52 296q19 104 71 148t155 44h642q103 0 148 -54t26 -158l-52 -296q-19 -104 -71 -148t-155 -44zM323 183h453q36 0 51.5 13.5t21.5 49.5l37 204q6 36 -6.5 51.5t-48.5 15.5h-453
q-36 0 -51.5 -13.5t-21.5 -49.5l-37 -204q-6 -36 6.5 -51.5t48.5 -15.5z" />
    <glyph glyph-name="Otilde" unicode="&#xd5;" horiz-adv-x="1125" 
d="M534 736h-126l13 80q11 48 58 48h175q23 0 34.5 -5.5t21.5 -21.5l21 -28q4 -6 14 -6h16q7 0 9 8l9 53h127l-14 -80q-9 -48 -57 -48h-176q-23 0 -34.5 5.5t-21.5 21.5l-21 28q-4 6 -13 6h-16q-8 0 -10 -8zM846 0h-642q-103 0 -148 54t-26 158l52 296q19 104 71 148t155 44
h642q103 0 148 -54t26 -158l-52 -296q-19 -104 -71 -148t-155 -44zM323 183h453q36 0 51.5 13.5t21.5 49.5l37 204q6 36 -6.5 51.5t-48.5 15.5h-453q-36 0 -51.5 -13.5t-21.5 -49.5l-37 -204q-6 -36 6.5 -51.5t48.5 -15.5z" />
    <glyph glyph-name="Odieresis" unicode="&#xd6;" horiz-adv-x="1125" 
d="M602 740h-176l20 116h176zM866 740h-176l20 116h176zM846 0h-642q-103 0 -148 54t-26 158l52 296q19 104 71 148t155 44h642q103 0 148 -54t26 -158l-52 -296q-19 -104 -71 -148t-155 -44zM323 183h453q36 0 51.5 13.5t21.5 49.5l37 204q6 36 -6.5 51.5t-48.5 15.5h-453
q-36 0 -51.5 -13.5t-21.5 -49.5l-37 -204q-6 -36 6.5 -51.5t48.5 -15.5z" />
    <glyph glyph-name="multiply" unicode="&#xd7;" 
d="M935 681l82 -150l-330 -190l262 -193l-112 -129l-312 229l-398 -229l-82 150l330 190l-263 193l112 129l312 -229z" />
    <glyph glyph-name="Oslash" unicode="&#xd8;" horiz-adv-x="1125" 
d="M1040 730h157l-112 -79q59 -59 38 -171l-51 -288q-19 -104 -71 -148t-155 -44h-634q-31 0 -50 4l-48 -34h-157l112 79q-59 59 -38 171l51 288q19 104 71 148t155 44h634q31 0 50 -4zM298 462l-39 -220q-7 -39 8 -54l481 337h-377q-35 0 -51 -13.5t-22 -49.5zM856 238
l39 220q7 39 -8 54l-481 -337h377q35 0 51 13.5t22 49.5z" />
    <glyph glyph-name="Ugrave" unicode="&#xd9;" horiz-adv-x="1102" 
d="M725 736h-180l-146 128h231zM819 0h-612q-103 0 -148 54t-26 158l86 488h232l-78 -443q-6 -36 6.5 -51.5t48.5 -15.5h423q36 0 51.5 13.5t21.5 49.5l79 447h232l-90 -508q-19 -104 -71 -148t-155 -44z" />
    <glyph glyph-name="Uacute" unicode="&#xda;" horiz-adv-x="1102" 
d="M924 864l-189 -128h-202l139 128h252zM819 0h-612q-103 0 -148 54t-26 158l86 488h232l-78 -443q-6 -36 6.5 -51.5t48.5 -15.5h423q36 0 51.5 13.5t21.5 49.5l79 447h232l-90 -508q-19 -104 -71 -148t-155 -44z" />
    <glyph glyph-name="Ucircumflex" unicode="&#xdb;" horiz-adv-x="1102" 
d="M542 736h-168l168 128h226l124 -128h-154l-89 52zM819 0h-612q-103 0 -148 54t-26 158l86 488h232l-78 -443q-6 -36 6.5 -51.5t48.5 -15.5h423q36 0 51.5 13.5t21.5 49.5l79 447h232l-90 -508q-19 -104 -71 -148t-155 -44z" />
    <glyph glyph-name="Udieresis" unicode="&#xdc;" horiz-adv-x="1102" 
d="M590 740h-176l20 116h176zM854 740h-176l20 116h176zM819 0h-612q-103 0 -148 54t-26 158l86 488h232l-78 -443q-6 -36 6.5 -51.5t48.5 -15.5h423q36 0 51.5 13.5t21.5 49.5l79 447h232l-90 -508q-19 -104 -71 -148t-155 -44z" />
    <glyph glyph-name="Yacute" unicode="&#xdd;" horiz-adv-x="1092" 
d="M659 864h252l-189 -128h-202zM873 700h303l-517 -446l-45 -254h-232l45 253l-359 447h285l211 -276z" />
    <glyph glyph-name="Thorn" unicode="&#xde;" horiz-adv-x="1068" 
d="M340 610h573q190 0 157 -192l-23 -136q-17 -97 -61 -134q-47 -38 -142 -38h-593l-19 -110h-232l124 700h232zM821 322l12 66q6 30 -5 42.5t-42 12.5h-476l-30 -174h481q30 0 42.5 11t17.5 42z" />
    <glyph glyph-name="germandbls" unicode="&#xdf;" horiz-adv-x="993" 
d="M273 700h573q164 0 137 -167l-8 -51q-10 -56 -31.5 -85.5t-59.5 -39.5q81 -29 63 -142l-10 -66q-13 -81 -54 -115t-123 -34h-343l27 152h230q24 0 34.5 9t15.5 34l10 53q4 25 -4.5 35t-33.5 10h-227l23 129h210q24 0 34.5 9t15.5 34l7 38q4 25 -4 35t-34 10h-362
q-25 0 -36 -9t-15 -34l-89 -505h-220l97 551q14 83 53.5 116t123.5 33z" />
    <glyph glyph-name="agrave" unicode="&#xe0;" horiz-adv-x="977" 
d="M549 700l95 -128h-180l-146 128h231zM260 536h532q190 0 156 -190l-61 -346h-186l-6 54q-44 -33 -81 -44q-33 -10 -104 -10h-384q-63 0 -93.5 36.5t-17.5 98.5l10 56q12 63 46 92t96 29h556l6 33q5 31 -5 43t-41 12h-344q-25 0 -35.5 -9t-14.5 -34l-2 -14h-212l7 43
q13 81 54.5 115.5t123.5 34.5zM272 123h328q42 0 69 21l28 20l5 28l4 22h-422q-22 0 -30.5 -7.5t-12.5 -29.5l-3 -15q-3 -22 4 -30.5t30 -8.5z" />
    <glyph glyph-name="aacute" unicode="&#xe1;" horiz-adv-x="977" 
d="M591 700h252l-189 -128h-202zM260 536h532q190 0 156 -190l-61 -346h-186l-6 54q-44 -33 -81 -44q-33 -10 -104 -10h-384q-63 0 -93.5 36.5t-17.5 98.5l10 56q12 63 46 92t96 29h556l6 33q5 31 -5 43t-41 12h-344q-25 0 -35.5 -9t-14.5 -34l-2 -14h-212l7 43
q13 81 54.5 115.5t123.5 34.5zM272 123h328q42 0 69 21l28 20l5 28l4 22h-422q-22 0 -30.5 -7.5t-12.5 -29.5l-3 -15q-3 -22 4 -30.5t30 -8.5z" />
    <glyph glyph-name="acircumflex" unicode="&#xe2;" horiz-adv-x="977" 
d="M657 572l-89 52l-107 -52h-168l168 128h226l124 -128h-154zM260 536h532q190 0 156 -190l-61 -346h-186l-6 54q-44 -33 -81 -44q-33 -10 -104 -10h-384q-63 0 -93.5 36.5t-17.5 98.5l10 56q12 63 46 92t96 29h556l6 33q5 31 -5 43t-41 12h-344q-25 0 -35.5 -9t-14.5 -34
l-2 -14h-212l7 43q13 81 54.5 115.5t123.5 34.5zM272 123h328q42 0 69 21l28 20l5 28l4 22h-422q-22 0 -30.5 -7.5t-12.5 -29.5l-3 -15q-3 -22 4 -30.5t30 -8.5z" />
    <glyph glyph-name="atilde" unicode="&#xe3;" horiz-adv-x="977" 
d="M450 625l-9 -53h-126l13 80q10 48 58 48h175q23 0 34.5 -5.5t21.5 -21.5l21 -28q4 -6 14 -6h16q7 0 9 8l9 53h127l-14 -80q-9 -48 -57 -48h-176q-23 0 -34.5 5.5t-21.5 21.5l-21 28q-5 6 -13 6h-16q-8 0 -10 -8zM260 536h532q190 0 156 -190l-61 -346h-186l-6 54
q-44 -33 -81 -44q-33 -10 -104 -10h-384q-63 0 -93.5 36.5t-17.5 98.5l10 56q12 63 46 92t96 29h556l6 33q5 31 -5 43t-41 12h-344q-25 0 -35.5 -9t-14.5 -34l-2 -14h-212l7 43q13 81 54.5 115.5t123.5 34.5zM272 123h328q42 0 69 21l28 20l5 28l4 22h-422q-22 0 -30.5 -7.5
t-12.5 -29.5l-3 -15q-3 -22 4 -30.5t30 -8.5z" />
    <glyph glyph-name="adieresis" unicode="&#xe4;" horiz-adv-x="977" 
d="M353 692h176l-20 -116h-176zM617 692h176l-20 -116h-176zM260 536h532q190 0 156 -190l-61 -346h-186l-6 54q-44 -33 -81 -44q-33 -10 -104 -10h-384q-63 0 -93.5 36.5t-17.5 98.5l10 56q12 63 46 92t96 29h556l6 33q5 31 -5 43t-41 12h-344q-25 0 -35.5 -9t-14.5 -34
l-2 -14h-212l7 43q13 81 54.5 115.5t123.5 34.5zM272 123h328q42 0 69 21l28 20l5 28l4 22h-422q-22 0 -30.5 -7.5t-12.5 -29.5l-3 -15q-3 -22 4 -30.5t30 -8.5z" />
    <glyph glyph-name="aring" unicode="&#xe5;" horiz-adv-x="977" 
d="M684 562h-263q-57 0 -47 57l4 28q5 29 19 41t44 12h263q58 0 47 -57l-4 -28q-5 -29 -19 -41t-44 -12zM456 637l-2 -12q-2 -11 0.5 -14.5t13.5 -3.5h181q11 0 14.5 3t5.5 15l2 12q2 11 -0.5 14.5t-13.5 3.5h-181q-11 0 -14.5 -3t-5.5 -15zM260 536h532q190 0 156 -190
l-61 -346h-186l-6 54q-44 -33 -81 -44q-33 -10 -104 -10h-384q-63 0 -93.5 36.5t-17.5 98.5l10 56q12 63 46 92t96 29h556l6 33q5 31 -5 43t-41 12h-344q-25 0 -35.5 -9t-14.5 -34l-2 -14h-212l7 43q13 81 54.5 115.5t123.5 34.5zM272 123h328q42 0 69 21l28 20l5 28l4 22
h-422q-22 0 -30.5 -7.5t-12.5 -29.5l-3 -15q-3 -22 4 -30.5t30 -8.5z" />
    <glyph glyph-name="ae" unicode="&#xe6;" horiz-adv-x="1649" 
d="M977 536h492q189 0 155 -190l-19 -107h-676l-6 -33q-5 -31 5 -43t41 -12h368q24 0 34.5 9t15.5 34l2 11h211l-10 -55q-15 -82 -55.5 -116t-121.5 -34h-522q-98 0 -137 50q-45 -32 -78 -41q-34 -9 -102 -9h-448q-62 0 -92.5 36.5t-18.5 98.5l11 56q12 63 46 92t95 29h556
l6 33q5 31 -5 43t-41 12h-344q-25 0 -35.5 -9.5t-14.5 -33.5l-2 -14h-212l7 43q13 81 54.5 115.5t123.5 34.5h492q74 0 107 -37q37 37 118 37zM950 355l-3 -14h466l2 12q5 31 -5 42.5t-41 11.5h-358q-31 0 -43.5 -10.5t-17.5 -41.5zM669 144l28 20l9 50h-422
q-22 0 -30.5 -7.5t-12.5 -29.5l-3 -15q-3 -22 4 -30.5t30 -8.5h328q42 0 69 21z" />
    <glyph glyph-name="ccedilla" unicode="&#xe7;" horiz-adv-x="954" 
d="M258 536h513q189 0 158 -192l-6 -39h-211l2 15q4 31 -6 43t-41 12h-339q-31 0 -43.5 -10.5t-17.5 -41.5l-19 -107q-5 -31 5.5 -43t41.5 -12h339q31 0 43.5 10.5t17.5 41.5l4 23h211l-11 -64q-16 -96 -62 -134t-141 -38h-243l-11 -22h103q57 0 47 -57l-5 -28
q-5 -30 -19 -41.5t-43 -11.5h-260l11 60h195q8 0 11 8l1 8q3 9 -8 9h-130l5 28l23 47h-190q-191 0 -158 192l30 172q17 98 62 134q46 38 141 38z" />
    <glyph glyph-name="egrave" unicode="&#xe8;" horiz-adv-x="972" 
d="M537 700l95 -128h-180l-146 128h231zM259 536h532q96 0 134 -46.5t22 -142.5l-19 -108h-676l-6 -33q-5 -31 4.5 -43t40.5 -12h368q24 0 34.5 9t15.5 34l2 11h212l-10 -54q-16 -83 -56 -117t-121 -34h-556q-188 0 -155 190l30 172q16 96 62 135t142 39zM272 355l-2 -14
h465l2 12q5 31 -4.5 42.5t-40.5 11.5h-359q-30 0 -43 -11t-18 -41z" />
    <glyph glyph-name="eacute" unicode="&#xe9;" horiz-adv-x="972" 
d="M579 700h252l-189 -128h-202zM259 536h532q96 0 134 -46.5t22 -142.5l-19 -108h-676l-6 -33q-5 -31 4.5 -43t40.5 -12h368q24 0 34.5 9t15.5 34l2 11h212l-10 -54q-16 -83 -56 -117t-121 -34h-556q-188 0 -155 190l30 172q16 96 62 135t142 39zM272 355l-2 -14h465l2 12
q5 31 -4.5 42.5t-40.5 11.5h-359q-30 0 -43 -11t-18 -41z" />
    <glyph glyph-name="ecircumflex" unicode="&#xea;" horiz-adv-x="972" 
d="M645 572l-89 52l-107 -52h-168l168 128h226l124 -128h-154zM259 536h532q96 0 134 -46.5t22 -142.5l-19 -108h-676l-6 -33q-5 -31 4.5 -43t40.5 -12h368q24 0 34.5 9t15.5 34l2 11h212l-10 -54q-16 -83 -56 -117t-121 -34h-556q-188 0 -155 190l30 172q16 96 62 135
t142 39zM272 355l-2 -14h465l2 12q5 31 -4.5 42.5t-40.5 11.5h-359q-30 0 -43 -11t-18 -41z" />
    <glyph glyph-name="edieresis" unicode="&#xeb;" horiz-adv-x="972" 
d="M341 692h176l-20 -116h-176zM605 692h176l-20 -116h-176zM259 536h532q96 0 134 -46.5t22 -142.5l-19 -108h-676l-6 -33q-5 -31 4.5 -43t40.5 -12h368q24 0 34.5 9t15.5 34l2 11h212l-10 -54q-16 -83 -56 -117t-121 -34h-556q-188 0 -155 190l30 172q16 96 62 135t142 39
zM272 355l-2 -14h465l2 12q5 31 -4.5 42.5t-40.5 11.5h-359q-30 0 -43 -11t-18 -41z" />
    <glyph glyph-name="igrave" unicode="&#xec;" horiz-adv-x="323" 
d="M307 572h-180l-146 128h231zM225 0h-222l95 536h222z" />
    <glyph glyph-name="iacute" unicode="&#xed;" horiz-adv-x="323" 
d="M506 700l-189 -128h-202l139 128h252zM225 0h-222l95 536h222z" />
    <glyph glyph-name="icircumflex" unicode="&#xee;" horiz-adv-x="323" 
d="M124 572h-168l168 128h226l124 -128h-154l-89 52zM225 0h-222l95 536h222z" />
    <glyph glyph-name="idieresis" unicode="&#xef;" horiz-adv-x="323" 
d="M172 576h-176l20 116h176zM436 576h-176l20 116h176zM225 0h-222l95 536h222z" />
    <glyph glyph-name="eth" unicode="&#xf0;" horiz-adv-x="982" 
d="M675 700h132q103 0 148.5 -54.5t26.5 -158.5l-59 -338q-14 -82 -54 -115.5t-121 -33.5h-589q-81 0 -117 43t-22 124l23 128q14 82 54 115.5t121 33.5h425q85 0 107 -37l14 77q6 36 -6.5 51t-49.5 15h-194l-58 -54h-136l58 54h-210l26 150h345l65 60h136zM282 148h380
q25 0 35.5 9t14.5 34l12 68q4 25 -4 34.5t-34 9.5h-380q-25 0 -35.5 -9t-14.5 -34l-12 -67q-4 -25 4.5 -35t33.5 -10z" />
    <glyph glyph-name="ntilde" unicode="&#xf1;" horiz-adv-x="985" 
d="M444 625l-9 -53h-126l13 80q10 48 58 48h175q23 0 34.5 -5.5t21.5 -21.5l21 -28q4 -6 14 -6h16q7 0 9 8l9 53h127l-14 -80q-9 -48 -57 -48h-176q-23 0 -34.5 5.5t-21.5 21.5l-21 28q-5 6 -13 6h-16q-8 0 -10 -8zM481 536h317q192 0 157 -192l-60 -344h-219l55 315
q6 31 -4.5 43t-41.5 12h-302q-50 0 -81 -22l-25 -19l-59 -329h-219l95 536h185l6 -60q52 39 87 49q39 11 109 11z" />
    <glyph glyph-name="ograve" unicode="&#xf2;" horiz-adv-x="982" 
d="M637 572h-180l-146 128h231zM724 0h-541q-191 0 -158 192l30 172q17 98 62 134q46 38 141 38h541q191 0 158 -192l-30 -172q-17 -97 -61 -134q-47 -38 -142 -38zM295 161h359q31 0 43.5 10.5t17.5 41.5l19 107q5 31 -5.5 43t-41.5 12h-359q-31 0 -43.5 -10.5t-17.5 -41.5
l-19 -107q-5 -31 5.5 -43t41.5 -12z" />
    <glyph glyph-name="oacute" unicode="&#xf3;" horiz-adv-x="982" 
d="M836 700l-189 -128h-202l139 128h252zM724 0h-541q-191 0 -158 192l30 172q17 98 62 134q46 38 141 38h541q191 0 158 -192l-30 -172q-17 -97 -61 -134q-47 -38 -142 -38zM295 161h359q31 0 43.5 10.5t17.5 41.5l19 107q5 31 -5.5 43t-41.5 12h-359q-31 0 -43.5 -10.5
t-17.5 -41.5l-19 -107q-5 -31 5.5 -43t41.5 -12z" />
    <glyph glyph-name="ocircumflex" unicode="&#xf4;" horiz-adv-x="982" 
d="M454 572h-168l168 128h226l124 -128h-154l-89 52zM724 0h-541q-191 0 -158 192l30 172q17 98 62 134q46 38 141 38h541q191 0 158 -192l-30 -172q-17 -97 -61 -134q-47 -38 -142 -38zM295 161h359q31 0 43.5 10.5t17.5 41.5l19 107q5 31 -5.5 43t-41.5 12h-359
q-31 0 -43.5 -10.5t-17.5 -41.5l-19 -107q-5 -31 5.5 -43t41.5 -12z" />
    <glyph glyph-name="otilde" unicode="&#xf5;" horiz-adv-x="982" 
d="M434 572h-126l13 80q11 48 58 48h175q23 0 34.5 -5.5t21.5 -21.5l21 -28q5 -6 14 -6h16q7 0 9 8l9 53h127l-14 -80q-9 -48 -57 -48h-176q-23 0 -34.5 5.5t-21.5 21.5l-21 28q-5 6 -13 6h-16q-8 0 -10 -8zM724 0h-541q-191 0 -158 192l30 172q17 98 62 134q46 38 141 38
h541q191 0 158 -192l-30 -172q-17 -97 -61 -134q-47 -38 -142 -38zM295 161h359q31 0 43.5 10.5t17.5 41.5l19 107q5 31 -5.5 43t-41.5 12h-359q-31 0 -43.5 -10.5t-17.5 -41.5l-19 -107q-5 -31 5.5 -43t41.5 -12z" />
    <glyph glyph-name="odieresis" unicode="&#xf6;" horiz-adv-x="982" 
d="M502 576h-176l20 116h176zM766 576h-176l20 116h176zM724 0h-541q-191 0 -158 192l30 172q17 98 62 134q46 38 141 38h541q191 0 158 -192l-30 -172q-17 -97 -61 -134q-47 -38 -142 -38zM295 161h359q31 0 43.5 10.5t17.5 41.5l19 107q5 31 -5.5 43t-41.5 12h-359
q-31 0 -43.5 -10.5t-17.5 -41.5l-19 -107q-5 -31 5.5 -43t41.5 -12z" />
    <glyph glyph-name="divide" unicode="&#xf7;" 
d="M686 520h-252l30 164h252zM55 263l30 174h920l-30 -174h-920zM597 16h-252l30 164h252z" />
    <glyph glyph-name="oslash" unicode="&#xf8;" horiz-adv-x="982" 
d="M1027 568l-105 -68q53 -47 35 -156l-30 -172q-17 -97 -61 -134q-47 -38 -142 -38h-541q-22 0 -27 1l-51 -33h-150l105 68q-53 47 -35 156l30 172q17 98 62 134q46 38 141 38h541q22 0 27 -1l51 33h150zM246 339l-25 -139q-8 -39 14 -50l370 241h-299q-31 0 -43 -10.5
t-17 -41.5zM736 197l25 139q8 39 -14 50l-370 -241h299q31 0 43 10.5t17 41.5z" />
    <glyph glyph-name="ugrave" unicode="&#xf9;" horiz-adv-x="985" 
d="M543 700l95 -128h-180l-146 128h231zM767 536h219l-95 -536h-185l-6 60q-52 -40 -86 -49q-39 -11 -110 -11h-317q-191 0 -157 192l60 344h219l-55 -315q-6 -31 4.5 -43t41.5 -12h302q50 0 81 22l25 19z" />
    <glyph glyph-name="uacute" unicode="&#xfa;" horiz-adv-x="985" 
d="M585 700h252l-189 -128h-202zM767 536h219l-95 -536h-185l-6 60q-52 -40 -86 -49q-39 -11 -110 -11h-317q-191 0 -157 192l60 344h219l-55 -315q-6 -31 4.5 -43t41.5 -12h302q50 0 81 22l25 19z" />
    <glyph glyph-name="ucircumflex" unicode="&#xfb;" horiz-adv-x="985" 
d="M651 572l-89 52l-107 -52h-168l168 128h226l124 -128h-154zM767 536h219l-95 -536h-185l-6 60q-52 -40 -86 -49q-39 -11 -110 -11h-317q-191 0 -157 192l60 344h219l-55 -315q-6 -31 4.5 -43t41.5 -12h302q50 0 81 22l25 19z" />
    <glyph glyph-name="udieresis" unicode="&#xfc;" horiz-adv-x="985" 
d="M347 692h176l-20 -116h-176zM611 692h176l-20 -116h-176zM767 536h219l-95 -536h-185l-6 60q-52 -40 -86 -49q-39 -11 -110 -11h-317q-191 0 -157 192l60 344h219l-55 -315q-6 -31 4.5 -43t41.5 -12h302q50 0 81 22l25 19z" />
    <glyph glyph-name="yacute" unicode="&#xfd;" horiz-adv-x="978" 
d="M574 700h252l-189 -128h-202zM465 196l292 340h275l-505 -542q-84 -93 -148 -124q-63 -30 -178 -30h-225l29 161h214q36 0 56 9t46 38l-279 488h252z" />
    <glyph glyph-name="thorn" unicode="&#xfe;" horiz-adv-x="990" 
d="M479 536h331q95 0 133.5 -46.5t22.5 -143.5l-31 -172q-16 -96 -62 -135t-142 -39h-339q-67 0 -100 9q-33 7 -66 37l-36 -206h-219l152 860h219l-37 -209q39 28 75 37q37 8 99 8zM723 213l19 107q5 31 -5 43t-41 12h-313q-49 0 -80 -22l-26 -20l-23 -131l19 -19
q22 -22 75 -22h315q31 0 43 10.5t17 41.5z" />
    <glyph glyph-name="ydieresis" unicode="&#xff;" horiz-adv-x="978" 
d="M336 692h176l-20 -116h-176zM600 692h176l-20 -116h-176zM465 196l292 340h275l-505 -542q-84 -93 -148 -124q-63 -30 -178 -30h-225l29 161h214q36 0 56 9t46 38l-279 488h252z" />
    <glyph glyph-name="Amacron" unicode="&#x100;" horiz-adv-x="1152" 
d="M427 848h504l-17 -95h-504zM1113 0h-257l-51 120h-492l-94 -120h-275l578 700h261zM631 526l-193 -246h298z" />
    <glyph glyph-name="amacron" unicode="&#x101;" horiz-adv-x="977" 
d="M320 684h504l-17 -95h-504zM260 536h532q190 0 156 -190l-61 -346h-186l-6 54q-44 -33 -81 -44q-33 -10 -104 -10h-384q-63 0 -93.5 36.5t-17.5 98.5l10 56q12 63 46 92t96 29h556l6 33q5 31 -5 43t-41 12h-344q-25 0 -35.5 -9t-14.5 -34l-2 -14h-212l7 43
q13 81 54.5 115.5t123.5 34.5zM272 123h328q42 0 69 21l28 20l5 28l4 22h-422q-22 0 -30.5 -7.5t-12.5 -29.5l-3 -15q-3 -22 4 -30.5t30 -8.5z" />
    <glyph glyph-name="Abreve" unicode="&#x102;" horiz-adv-x="1152" 
d="M830 736h-340q-78 0 -64 77l9 51h150l-4 -24q-4 -25 22 -25h140q24 0 28 25l4 24h150l-9 -55q-6 -39 -26.5 -56t-59.5 -17zM1113 0h-257l-51 120h-492l-94 -120h-275l578 700h261zM631 526l-193 -246h298z" />
    <glyph glyph-name="abreve" unicode="&#x103;" horiz-adv-x="977" 
d="M723 572h-340q-78 0 -64 77l9 51h150l-4 -24q-4 -25 22 -25h140q24 0 28 25l4 24h150l-9 -55q-6 -39 -26.5 -56t-59.5 -17zM260 536h532q190 0 156 -190l-61 -346h-186l-6 54q-44 -33 -81 -44q-33 -10 -104 -10h-384q-63 0 -93.5 36.5t-17.5 98.5l10 56q12 63 46 92
t96 29h556l6 33q5 31 -5 43t-41 12h-344q-25 0 -35.5 -9t-14.5 -34l-2 -14h-212l7 43q13 81 54.5 115.5t123.5 34.5zM272 123h328q42 0 69 21l28 20l5 28l4 22h-422q-22 0 -30.5 -7.5t-12.5 -29.5l-3 -15q-3 -22 4 -30.5t30 -8.5z" />
    <glyph glyph-name="Aogonek" unicode="&#x104;" horiz-adv-x="1152" 
d="M872 -28l-1 -7q-1 -19 16 -19h195l-18 -106h-263q-43 0 -59.5 20.5t-11.5 65.5l2 16q4 31 17 50.5t46 40.5l37 23l-27 64h-492l-94 -120h-275l578 700h261l330 -700h-213l-12 -7q-16 -9 -16 -21zM631 526l-193 -246h298z" />
    <glyph glyph-name="aogonek" unicode="&#x105;" horiz-adv-x="976" 
d="M771 -28l-1 -7q-1 -19 16 -19h103l-18 -106h-171q-43 0 -59.5 20.5t-11.5 65.5l2 16q4 31 17 50t46 41l3 2l-2 19q-44 -33 -81 -44q-33 -10 -104 -10h-384q-63 0 -93.5 36.5t-17.5 98.5l10 56q12 63 46 92t96 29h556l6 33q5 31 -5 43t-41 12h-344q-25 0 -35.5 -9
t-14.5 -34l-2 -14h-212l7 43q13 81 54.5 115.5t123.5 34.5h532q190 0 156 -190l-61 -346h-89l-11 -7q-16 -10 -16 -21zM272 123h328q42 0 69 21l28 20l5 28l4 22h-422q-22 0 -30.5 -7.5t-12.5 -29.5l-3 -15q-3 -22 4 -30.5t30 -8.5z" />
    <glyph glyph-name="Cacute" unicode="&#x106;" horiz-adv-x="1095" 
d="M921 864l-189 -128h-202l139 128h252zM818 0h-614q-103 0 -148 54t-26 158l52 296q19 104 71 148t155 44h614q103 0 148 -54t26 -158l-13 -79h-225l9 45q6 35 -6.5 50.5t-48.5 15.5h-433q-36 0 -51.5 -13.5t-22.5 -48.5l-38 -212q-6 -35 6.5 -50.5t48.5 -15.5h433
q36 0 51.5 13.5t22.5 48.5l9 56h224l-18 -106q-19 -104 -71 -148t-155 -44z" />
    <glyph glyph-name="cacute" unicode="&#x107;" horiz-adv-x="954" 
d="M822 700l-189 -128h-202l139 128h252zM696 0h-513q-191 0 -158 192l30 172q17 98 62 134q46 38 141 38h513q189 0 158 -192l-6 -39h-211l2 15q4 31 -6 43t-41 12h-339q-31 0 -43.5 -10.5t-17.5 -41.5l-19 -107q-5 -31 5.5 -43t41.5 -12h339q31 0 43.5 10.5t17.5 41.5
l4 23h211l-11 -64q-16 -96 -62 -134t-141 -38z" />
    <glyph glyph-name="Ccircumflex" unicode="&#x108;" horiz-adv-x="1095" 
d="M539 736h-168l168 128h226l124 -128h-154l-89 52zM818 0h-614q-103 0 -148 54t-26 158l52 296q19 104 71 148t155 44h614q103 0 148 -54t26 -158l-13 -79h-225l9 45q6 35 -6.5 50.5t-48.5 15.5h-433q-36 0 -51.5 -13.5t-22.5 -48.5l-38 -212q-6 -35 6.5 -50.5t48.5 -15.5
h433q36 0 51.5 13.5t22.5 48.5l9 56h224l-18 -106q-19 -104 -71 -148t-155 -44z" />
    <glyph glyph-name="ccircumflex" unicode="&#x109;" horiz-adv-x="954" 
d="M440 572h-168l168 128h226l124 -128h-154l-89 52zM696 0h-513q-191 0 -158 192l30 172q17 98 62 134q46 38 141 38h513q189 0 158 -192l-6 -39h-211l2 15q4 31 -6 43t-41 12h-339q-31 0 -43.5 -10.5t-17.5 -41.5l-19 -107q-5 -31 5.5 -43t41.5 -12h339q31 0 43.5 10.5
t17.5 41.5l4 23h211l-11 -64q-16 -96 -62 -134t-141 -38z" />
    <glyph glyph-name="Cdotaccent" unicode="&#x10a;" horiz-adv-x="1095" 
d="M743 740h-223l20 116h222zM818 0h-614q-103 0 -148 54t-26 158l52 296q19 104 71 148t155 44h614q103 0 148 -54t26 -158l-13 -79h-225l9 45q6 35 -6.5 50.5t-48.5 15.5h-433q-36 0 -51.5 -13.5t-22.5 -48.5l-38 -212q-6 -35 6.5 -50.5t48.5 -15.5h433q36 0 51.5 13.5
t22.5 48.5l9 56h224l-18 -106q-19 -104 -71 -148t-155 -44z" />
    <glyph glyph-name="cdotaccent" unicode="&#x10b;" horiz-adv-x="954" 
d="M644 576h-223l20 116h222zM696 0h-513q-191 0 -158 192l30 172q17 98 62 134q46 38 141 38h513q189 0 158 -192l-6 -39h-211l2 15q4 31 -6 43t-41 12h-339q-31 0 -43.5 -10.5t-17.5 -41.5l-19 -107q-5 -31 5.5 -43t41.5 -12h339q31 0 43.5 10.5t17.5 41.5l4 23h211
l-11 -64q-16 -96 -62 -134t-141 -38z" />
    <glyph glyph-name="Ccaron" unicode="&#x10c;" horiz-adv-x="1095" 
d="M743 864h168l-168 -128h-226l-124 128h154l89 -52zM818 0h-614q-103 0 -148 54t-26 158l52 296q19 104 71 148t155 44h614q103 0 148 -54t26 -158l-13 -79h-225l9 45q6 35 -6.5 50.5t-48.5 15.5h-433q-36 0 -51.5 -13.5t-22.5 -48.5l-38 -212q-6 -35 6.5 -50.5
t48.5 -15.5h433q36 0 51.5 13.5t22.5 48.5l9 56h224l-18 -106q-19 -104 -71 -148t-155 -44z" />
    <glyph glyph-name="ccaron" unicode="&#x10d;" horiz-adv-x="954" 
d="M644 700h168l-168 -128h-226l-124 128h154l89 -52zM696 0h-513q-191 0 -158 192l30 172q17 98 62 134q46 38 141 38h513q189 0 158 -192l-6 -39h-211l2 15q4 31 -6 43t-41 12h-339q-31 0 -43.5 -10.5t-17.5 -41.5l-19 -107q-5 -31 5.5 -43t41.5 -12h339q31 0 43.5 10.5
t17.5 41.5l4 23h211l-11 -64q-16 -96 -62 -134t-141 -38z" />
    <glyph glyph-name="Dcaron" unicode="&#x10e;" horiz-adv-x="1124" 
d="M757 864h168l-168 -128h-226l-124 128h154l89 -52zM800 0h-800l124 700h772q120 0 180 -71q60 -72 38 -193l-36 -200q-22 -123 -89 -179.5t-189 -56.5zM324 517l-59 -334h496q41 0 62 18t28 59l30 173q15 84 -69 84h-488z" />
    <glyph glyph-name="dcaron" unicode="&#x10f;" horiz-adv-x="1194" 
d="M764 490l37 210h219l-124 -700h-185l-5 60q-48 -38 -86 -49t-108 -11h-332q-95 0 -133 46.5t-22 143.5l30 172q16 96 62.5 135t142.5 39h339q64 0 101 -8q31 -9 64 -38zM1039 568l23 132h204l-11 -64q-8 -39 -17 -57t-38 -56l-58 -75h-112l82 120h-73zM294 161h313
q49 0 80 22l26 20l24 131l-20 19q-22 22 -75 22h-315q-30 0 -42.5 -10.5t-17.5 -41.5l-19 -107q-5 -31 5 -43t41 -12z" />
    <glyph glyph-name="Dcroat" unicode="&#x110;" horiz-adv-x="1184" 
d="M184 700h772q120 0 180 -71q60 -72 38 -193l-36 -200q-22 -123 -89 -179.5t-189 -56.5h-800l51 290h-83l21 120h84zM911 260l30 173q15 84 -69 84h-488l-19 -107h336l-21 -120h-336l-19 -107h496q41 0 62 18t28 59z" />
    <glyph glyph-name="dslash" unicode="&#x111;" 
d="M1012 656h74l-16 -88h-73l-101 -568h-185l-5 60q-48 -38 -86 -49t-108 -11h-332q-95 0 -133 46.5t-22 143.5l30 172q16 96 62.5 135t142.5 39h339q64 0 101 -8q31 -9 64 -38l14 78h-298l16 88h297l8 44h219zM294 161h313q49 0 80 22l26 20l24 131l-20 19q-22 22 -75 22
h-315q-30 0 -42.5 -10.5t-17.5 -41.5l-19 -107q-5 -31 5 -43t41 -12z" />
    <glyph glyph-name="Emacron" unicode="&#x112;" horiz-adv-x="1002" 
d="M351 848h504l-17 -95h-504zM1044 700l-30 -170h-688l-18 -101h648l-25 -144h-649l-20 -115h698l-30 -170h-930l124 700h920z" />
    <glyph glyph-name="emacron" unicode="&#x113;" horiz-adv-x="972" 
d="M308 684h504l-17 -95h-504zM259 536h532q96 0 134 -46.5t22 -142.5l-19 -108h-676l-6 -33q-5 -31 4.5 -43t40.5 -12h368q24 0 34.5 9t15.5 34l2 11h212l-10 -54q-16 -83 -56 -117t-121 -34h-556q-188 0 -155 190l30 172q16 96 62 135t142 39zM272 355l-2 -14h465l2 12
q5 31 -4.5 42.5t-40.5 11.5h-359q-30 0 -43 -11t-18 -41z" />
    <glyph glyph-name="Ebreve" unicode="&#x114;" horiz-adv-x="1002" 
d="M754 736h-340q-78 0 -64 77l9 51h150l-4 -24q-4 -25 22 -25h140q24 0 28 25l4 24h150l-9 -55q-6 -39 -26.5 -56t-59.5 -17zM1044 700l-30 -170h-688l-18 -101h648l-25 -144h-649l-20 -115h698l-30 -170h-930l124 700h920z" />
    <glyph glyph-name="ebreve" unicode="&#x115;" horiz-adv-x="972" 
d="M711 572h-340q-78 0 -64 77l9 51h150l-4 -24q-4 -25 22 -25h140q24 0 28 25l4 24h150l-9 -55q-6 -39 -26.5 -56t-59.5 -17zM259 536h532q96 0 134 -46.5t22 -142.5l-19 -108h-676l-6 -33q-5 -31 4.5 -43t40.5 -12h368q24 0 34.5 9t15.5 34l2 11h212l-10 -54
q-16 -83 -56 -117t-121 -34h-556q-188 0 -155 190l30 172q16 96 62 135t142 39zM272 355l-2 -14h465l2 12q5 31 -4.5 42.5t-40.5 11.5h-359q-30 0 -43 -11t-18 -41z" />
    <glyph glyph-name="Edotaccent" unicode="&#x116;" horiz-adv-x="1002" 
d="M493 856h222l-19 -116h-223zM1044 700l-30 -170h-688l-18 -101h648l-25 -144h-649l-20 -115h698l-30 -170h-930l124 700h920z" />
    <glyph glyph-name="edotaccent" unicode="&#x117;" horiz-adv-x="972" 
d="M450 692h222l-19 -116h-223zM259 536h532q96 0 134 -46.5t22 -142.5l-19 -108h-676l-6 -33q-5 -31 4.5 -43t40.5 -12h368q24 0 34.5 9t15.5 34l2 11h212l-10 -54q-16 -83 -56 -117t-121 -34h-556q-188 0 -155 190l30 172q16 96 62 135t142 39zM272 355l-2 -14h465l2 12
q5 31 -4.5 42.5t-40.5 11.5h-359q-30 0 -43 -11t-18 -41z" />
    <glyph glyph-name="Eogonek" unicode="&#x118;" horiz-adv-x="1002" 
d="M1044 700l-30 -170h-688l-18 -101h648l-25 -144h-649l-20 -115h698l-30 -170h-213l-12 -7q-16 -9 -16 -21l-1 -7q-1 -19 16 -19h195l-18 -106h-263q-43 0 -59.5 20.5t-11.5 65.5l2 16q4 36 23 58h-572l124 700h920z" />
    <glyph glyph-name="eogonek" unicode="&#x119;" horiz-adv-x="972" 
d="M259 536h532q96 0 134 -46.5t22 -142.5l-19 -108h-676l-6 -33q-5 -31 4.5 -43t40.5 -12h368q24 0 34.5 9t15.5 34l2 11h212l-10 -54q-16 -83 -56 -117t-121 -34h-108l-12 -7q-16 -9 -16 -21l-1 -7q-1 -19 16 -19h195l-18 -106h-263q-43 0 -59.5 20.5t-11.5 65.5l2 16
q4 36 23 58h-303q-188 0 -155 190l30 172q16 96 62 135t142 39zM272 355l-2 -14h465l2 12q5 31 -4.5 42.5t-40.5 11.5h-359q-30 0 -43 -11t-18 -41z" />
    <glyph glyph-name="Ecaron" unicode="&#x11a;" horiz-adv-x="1002" 
d="M864 864l-168 -128h-226l-124 128h154l89 -52l107 52h168zM1044 700l-30 -170h-688l-18 -101h648l-25 -144h-649l-20 -115h698l-30 -170h-930l124 700h920z" />
    <glyph glyph-name="ecaron" unicode="&#x11b;" horiz-adv-x="972" 
d="M821 700l-168 -128h-226l-124 128h154l89 -52l107 52h168zM259 536h532q96 0 134 -46.5t22 -142.5l-19 -108h-676l-6 -33q-5 -31 4.5 -43t40.5 -12h368q24 0 34.5 9t15.5 34l2 11h212l-10 -54q-16 -83 -56 -117t-121 -34h-556q-188 0 -155 190l30 172q16 96 62 135
t142 39zM272 355l-2 -14h465l2 12q5 31 -4.5 42.5t-40.5 11.5h-359q-30 0 -43 -11t-18 -41z" />
    <glyph glyph-name="Gcircumflex" unicode="&#x11c;" horiz-adv-x="1125" 
d="M516 736h-168l168 128h226l124 -128h-154l-89 52zM845 0h-641q-102 0 -147.5 55t-26.5 157l53 296q19 104 70.5 148t154.5 44h641q103 0 148 -54t27 -158l-8 -46h-233l3 18q6 36 -6.5 51t-48.5 15h-452q-36 0 -51.5 -13t-21.5 -49l-41 -235q-7 -36 6 -51.5t48 -15.5h461
q35 0 50 13t23 50l5 28h-296l24 141h520l-35 -202q-18 -104 -70.5 -148t-155.5 -44z" />
    <glyph glyph-name="gcircumflex" unicode="&#x11d;" horiz-adv-x="991" 
d="M630 572l-89 52l-107 -52h-168l168 128h226l124 -128h-154zM786 475l28 61h185l-89 -499q-18 -104 -73 -150.5t-158 -46.5h-690l27 148h601q36 0 53 14t24 50l7 42q-41 -29 -77 -38t-99 -9h-333q-96 0 -132.5 45t-19.5 141l21 125q17 97 65.5 137.5t144.5 40.5h337
q71 0 107 -11q32 -10 71 -50zM305 194h314q52 0 81 22l26 19l19 109l-19 19q-22 22 -74 22h-314q-31 0 -44 -11t-18 -42l-15 -84q-6 -31 3.5 -42.5t40.5 -11.5z" />
    <glyph glyph-name="Gbreve" unicode="&#x11e;" horiz-adv-x="1125" 
d="M778 736h-340q-78 0 -64 77l9 51h150l-4 -24q-4 -25 22 -25h140q24 0 28 25l4 24h150l-9 -55q-6 -39 -26.5 -56t-59.5 -17zM845 0h-641q-102 0 -147.5 55t-26.5 157l53 296q19 104 70.5 148t154.5 44h641q103 0 148 -54t27 -158l-8 -46h-233l3 18q6 36 -6.5 51t-48.5 15
h-452q-36 0 -51.5 -13t-21.5 -49l-41 -235q-7 -36 6 -51.5t48 -15.5h461q35 0 50 13t23 50l5 28h-296l24 141h520l-35 -202q-18 -104 -70.5 -148t-155.5 -44z" />
    <glyph glyph-name="gbreve" unicode="&#x11f;" horiz-adv-x="991" 
d="M696 572h-340q-78 0 -64 77l9 51h150l-4 -24q-4 -25 22 -25h140q24 0 28 25l4 24h150l-9 -55q-6 -39 -26.5 -56t-59.5 -17zM786 475l28 61h185l-89 -499q-18 -104 -73 -150.5t-158 -46.5h-690l27 148h601q36 0 53 14t24 50l7 42q-41 -29 -77 -38t-99 -9h-333
q-96 0 -132.5 45t-19.5 141l21 125q17 97 65.5 137.5t144.5 40.5h337q71 0 107 -11q32 -10 71 -50zM305 194h314q52 0 81 22l26 19l19 109l-19 19q-22 22 -74 22h-314q-31 0 -44 -11t-18 -42l-15 -84q-6 -31 3.5 -42.5t40.5 -11.5z" />
    <glyph glyph-name="Gdotaccent" unicode="&#x120;" horiz-adv-x="1125" 
d="M720 740h-223l20 116h222zM845 0h-641q-102 0 -147.5 55t-26.5 157l53 296q19 104 70.5 148t154.5 44h641q103 0 148 -54t27 -158l-8 -46h-233l3 18q6 36 -6.5 51t-48.5 15h-452q-36 0 -51.5 -13t-21.5 -49l-41 -235q-7 -36 6 -51.5t48 -15.5h461q35 0 50 13t23 50l5 28
h-296l24 141h520l-35 -202q-18 -104 -70.5 -148t-155.5 -44z" />
    <glyph glyph-name="gdotaccent" unicode="&#x121;" horiz-adv-x="991" 
d="M435 692h222l-19 -116h-223zM786 475l28 61h185l-89 -499q-18 -104 -73 -150.5t-158 -46.5h-690l27 148h601q36 0 53 14t24 50l7 42q-41 -29 -77 -38t-99 -9h-333q-96 0 -132.5 45t-19.5 141l21 125q17 97 65.5 137.5t144.5 40.5h337q71 0 107 -11q32 -10 71 -50z
M305 194h314q52 0 81 22l26 19l19 109l-19 19q-22 22 -74 22h-314q-31 0 -44 -11t-18 -42l-15 -84q-6 -31 3.5 -42.5t40.5 -11.5z" />
    <glyph glyph-name="Gcommaaccent" unicode="&#x122;" horiz-adv-x="1125" 
d="M845 0h-641q-102 0 -147.5 55t-26.5 157l53 296q19 104 70.5 148t154.5 44h641q103 0 148 -54t27 -158l-8 -46h-233l3 18q6 36 -6.5 51t-48.5 15h-452q-36 0 -51.5 -13t-21.5 -49l-41 -235q-7 -36 6 -51.5t48 -15.5h461q35 0 50 13t23 50l5 28h-296l24 141h520l-35 -202
q-18 -104 -70.5 -148t-155.5 -44zM523 -232h-112l77 94h-73l18 108h204l-6 -36q-6 -37 -16 -56q-11 -21 -41 -52z" />
    <glyph glyph-name="gcommaaccent" unicode="&#x123;" horiz-adv-x="991" 
d="M584 680h58l-19 -108h-188l6 36q6 36 15 56q8 15 38 52l47 58h112zM786 475l28 61h185l-89 -499q-18 -104 -73 -150.5t-158 -46.5h-690l27 148h601q36 0 53 14t24 50l7 42q-41 -29 -77 -38t-99 -9h-333q-96 0 -132.5 45t-19.5 141l21 125q17 97 65.5 137.5t144.5 40.5
h337q71 0 107 -11q32 -10 71 -50zM305 194h314q52 0 81 22l26 19l19 109l-19 19q-22 22 -74 22h-314q-31 0 -44 -11t-18 -42l-15 -84q-6 -31 3.5 -42.5t40.5 -11.5z" />
    <glyph glyph-name="Hcircumflex" unicode="&#x124;" horiz-adv-x="1112" 
d="M743 736l-89 52l-107 -52h-168l168 128h226l124 -128h-154zM865 458l43 242h232l-124 -700h-232l47 266h-552l-47 -266h-232l124 700h232l-43 -242h552z" />
    <glyph glyph-name="hcircumflex" unicode="&#x125;" horiz-adv-x="985" 
d="M343 736l-89 52l-107 -52h-168l168 128h226l124 -128h-154zM486 536h312q192 0 157 -192l-60 -344h-219l55 315q6 31 -4.5 43t-41.5 12h-303q-49 0 -80 -22l-26 -19l-58 -329h-219l124 700h219l-38 -215q43 33 79 42q35 9 103 9z" />
    <glyph glyph-name="Hbar" unicode="&#x126;" horiz-adv-x="1232" 
d="M1188 630h84l-19 -106h-84l-93 -524h-232l47 266h-552l-47 -266h-232l93 524h-84l19 106h84l12 70h232l-12 -70h552l12 70h232zM373 458h552l12 66h-552z" />
    <glyph glyph-name="hbar" unicode="&#x127;" horiz-adv-x="1026" 
d="M530 536h312q192 0 157 -192l-60 -344h-219l55 315q6 31 -4.5 43t-41.5 12h-303q-49 0 -80 -22l-26 -19l-58 -329h-219l101 568h-77l16 88h76l8 44h219l-8 -44h295l-16 -88h-294l-15 -83q43 33 79 42q34 9 103 9z" />
    <glyph glyph-name="Itilde" unicode="&#x128;" horiz-adv-x="340" 
d="M141 736h-126l13 80q10 48 58 48h175q23 0 34.5 -5.5t21.5 -21.5l21 -28q4 -6 14 -6h16q7 0 9 8l9 53h127l-14 -80q-9 -48 -57 -48h-176q-23 0 -34.5 5.5t-21.5 21.5l-21 28q-5 6 -13 6h-16q-8 0 -10 -8zM5 0l124 700h235l-124 -700h-235z" />
    <glyph glyph-name="itilde" unicode="&#x129;" horiz-adv-x="323" 
d="M104 572h-126l13 80q11 48 58 48h175q23 0 34.5 -5.5t21.5 -21.5l21 -28q4 -6 14 -6h16q7 0 9 8l9 53h127l-14 -80q-9 -48 -57 -48h-176q-23 0 -34.5 5.5t-21.5 21.5l-21 28q-5 6 -13 6h-16q-8 0 -10 -8zM225 0h-222l95 536h222z" />
    <glyph glyph-name="Imacron" unicode="&#x12a;" horiz-adv-x="340" 
d="M507 753h-504l17 95h504zM5 0l124 700h235l-124 -700h-235z" />
    <glyph glyph-name="imacron" unicode="&#x12b;" horiz-adv-x="323" 
d="M470 589h-504l17 95h504zM225 0h-222l95 536h222z" />
    <glyph glyph-name="Ibreve" unicode="&#x12c;" horiz-adv-x="340" 
d="M423 736h-340q-78 0 -64 77l9 51h150l-4 -24q-4 -25 22 -25h140q24 0 28 25l4 24h150l-9 -55q-6 -39 -26.5 -56t-59.5 -17zM5 0l124 700h235l-124 -700h-235z" />
    <glyph glyph-name="ibreve" unicode="&#x12d;" horiz-adv-x="323" 
d="M386 572h-340q-78 0 -64 77l9 51h150l-4 -24q-4 -25 22 -25h140q24 0 28 25l4 24h150l-9 -55q-6 -39 -26.5 -56t-59.5 -17zM225 0h-222l95 536h222z" />
    <glyph glyph-name="Iogonek" unicode="&#x12e;" horiz-adv-x="340" 
d="M33 -28l-1 -7q-1 -19 16 -19h195l-18 -106h-263q-43 0 -59.5 20.5t-11.5 65.5l2 16q4 31 17 50.5t46 40.5l61 37l112 630h235l-124 -700h-179l-12 -7q-16 -9 -16 -21z" />
    <glyph glyph-name="iogonek" unicode="&#x12f;" horiz-adv-x="323" 
d="M105 576l20 116h222l-19 -116h-223zM22 -28l-1 -7q-1 -19 16 -19h195l-18 -106h-263q-43 0 -59.5 20.5t-11.5 65.5l2 16q4 31 17 50.5t46 40.5l72 43l81 460h222l-95 -536h-175l-12 -7q-16 -9 -16 -21z" />
    <glyph glyph-name="Idot" unicode="&#x130;" horiz-adv-x="340" 
d="M371 740h-235l20 116h234zM5 0l124 700h235l-124 -700h-235z" />
    <glyph glyph-name="dotlessi" unicode="&#x131;" horiz-adv-x="323" 
d="M225 0h-222l95 536h222z" />
    <glyph glyph-name="IJ" unicode="&#x132;" horiz-adv-x="1355" 
d="M5 0l124 700h235l-124 -700h-235zM1072 0h-544q-103 0 -148 54t-26 158l15 84h224l-9 -50q-7 -35 6 -50.5t49 -15.5h363q36 0 51.5 13.5t21.5 48.5l81 458h232l-90 -508q-19 -104 -71 -148t-155 -44z" />
    <glyph glyph-name="ij" unicode="&#x133;" horiz-adv-x="822" 
d="M327 576h-222l22 124h222zM826 576h-222l22 124h222zM225 0h-222l95 536h222zM546 -160h-344l27 153h230q25 0 35.5 9t14.5 34l88 500h223l-97 -546q-14 -82 -54.5 -116t-122.5 -34z" />
    <glyph glyph-name="Jcircumflex" unicode="&#x134;" horiz-adv-x="1015" 
d="M847 736h-168l168 128h226l124 -128h-154l-89 52zM732 0h-544q-103 0 -148 54t-26 158l15 84h224l-9 -50q-7 -35 6 -50.5t49 -15.5h363q36 0 51.5 13.5t21.5 48.5l81 458h232l-90 -508q-19 -104 -71 -148t-155 -44z" />
    <glyph glyph-name="jcircumflex" unicode="&#x135;" horiz-adv-x="423" 
d="M224 572h-168l168 128h226l124 -128h-154l-89 52zM147 -160h-343l27 153h229q25 0 35.5 9t14.5 34l88 500h222l-96 -546q-15 -82 -55.5 -116t-121.5 -34z" />
    <glyph glyph-name="Kcommaaccent" unicode="&#x136;" horiz-adv-x="1082" 
d="M779 700h371l-568 -344l448 -356h-349l-393 334l-59 -334h-232l124 700h232l-56 -314zM393 -138h-73l18 108h204l-6 -36q-6 -37 -16 -56q-11 -21 -41 -52l-51 -58h-112z" />
    <glyph glyph-name="kcommaaccent" unicode="&#x137;" horiz-adv-x="981" 
d="M659 536h372l-473 -269l385 -267h-351l-331 245l-43 -245h-220l124 700h220l-72 -408zM339 -138h-73l18 108h204l-6 -36q-6 -37 -16 -56q-11 -21 -41 -52l-51 -58h-112z" />
    <glyph glyph-name="Lacute" unicode="&#x139;" horiz-adv-x="940" 
d="M285 864h252l-189 -128h-202zM356 700l-90 -509h649l-35 -191h-880l124 700h232z" />
    <glyph glyph-name="lacute" unicode="&#x13a;" horiz-adv-x="323" 
d="M535 864l-189 -128h-202l139 128h252zM225 0h-222l124 700h222z" />
    <glyph glyph-name="Lcommaaccent" unicode="&#x13b;" horiz-adv-x="940" 
d="M356 700l-90 -509h649l-35 -191h-880l124 700h232zM371 -138h-73l18 108h204l-6 -36q-6 -37 -16 -56q-11 -21 -41 -52l-51 -58h-112z" />
    <glyph glyph-name="lcommaaccent" unicode="&#x13c;" horiz-adv-x="323" 
d="M225 0h-222l124 700h222zM98 -232h-112l77 94h-73l18 108h204l-6 -36q-6 -37 -16 -56q-11 -21 -41 -52z" />
    <glyph glyph-name="Lcaron" unicode="&#x13d;" horiz-adv-x="940" 
d="M356 700l-90 -509h649l-35 -191h-880l124 700h232zM584 523l-58 -75h-112l82 120h-73l23 132h204l-11 -64q-8 -39 -17 -58q-9 -20 -38 -55z" />
    <glyph glyph-name="lcaron" unicode="&#x13e;" horiz-adv-x="525" 
d="M225 0h-222l124 700h222zM465 448h-112l82 120h-74l24 132h204l-12 -64q-6 -36 -16 -57q-9 -18 -38 -56z" />
    <glyph glyph-name="Ldot" unicode="&#x13f;" horiz-adv-x="940" 
d="M356 700l-90 -509h649l-35 -191h-880l124 700h232zM487 534h251l-42 -236h-252z" />
    <glyph glyph-name="ldot" unicode="&#x140;" horiz-adv-x="586" 
d="M225 0h-222l124 700h222zM573 270h-252l43 236h251z" />
    <glyph glyph-name="Lslash" unicode="&#x141;" horiz-adv-x="1000" 
d="M351 331l-25 -140h649l-35 -191h-880l53 300l-86 -12l22 124l86 12l49 276h232l-43 -245l424 57l-22 -124z" />
    <glyph glyph-name="lslash" unicode="&#x142;" horiz-adv-x="402" 
d="M343 440l78 12l-22 -124l-78 -12l-56 -316h-222l50 280l-79 -12l22 124l79 12l52 296h222z" />
    <glyph glyph-name="Nacute" unicode="&#x143;" horiz-adv-x="1132" 
d="M679 864h252l-189 -128h-202zM855 239l81 461h224l-124 -700h-190l-539 468l-83 -468h-224l124 700h199z" />
    <glyph glyph-name="nacute" unicode="&#x144;" horiz-adv-x="985" 
d="M585 700h252l-189 -128h-202zM481 536h317q192 0 157 -192l-60 -344h-219l55 315q6 31 -4.5 43t-41.5 12h-302q-50 0 -81 -22l-25 -19l-59 -329h-219l95 536h185l6 -60q52 39 87 49q39 11 109 11z" />
    <glyph glyph-name="Ncommaaccent" unicode="&#x145;" horiz-adv-x="1132" 
d="M855 239l81 461h224l-124 -700h-190l-539 468l-83 -468h-224l124 700h199zM475 -138h-73l18 108h204l-6 -36q-6 -37 -16 -56q-11 -21 -41 -52l-51 -58h-112z" />
    <glyph glyph-name="ncommaaccent" unicode="&#x146;" horiz-adv-x="985" 
d="M481 536h317q192 0 157 -192l-60 -344h-219l55 315q6 31 -4.5 43t-41.5 12h-302q-50 0 -81 -22l-25 -19l-59 -329h-219l95 536h185l6 -60q52 39 87 49q39 11 109 11zM394 -138h-73l18 108h204l-6 -36q-6 -37 -16 -56q-11 -21 -41 -52l-51 -58h-112z" />
    <glyph glyph-name="Ncaron" unicode="&#x147;" horiz-adv-x="1132" 
d="M921 864l-168 -128h-226l-124 128h154l89 -52l107 52h168zM855 239l81 461h224l-124 -700h-190l-539 468l-83 -468h-224l124 700h199z" />
    <glyph glyph-name="ncaron" unicode="&#x148;" horiz-adv-x="985" 
d="M827 700l-168 -128h-226l-124 128h154l89 -52l107 52h168zM481 536h317q192 0 157 -192l-60 -344h-219l55 315q6 31 -4.5 43t-41.5 12h-302q-50 0 -81 -22l-25 -19l-59 -329h-219l95 536h185l6 -60q52 39 87 49q39 11 109 11z" />
    <glyph glyph-name="Eng" unicode="&#x14a;" horiz-adv-x="1132" 
d="M855 239l81 461h224l-120 -677q-17 -99 -66 -141t-148 -42h-234l27 151h139q28 0 40 7t18 28l-509 442l-83 -468h-224l124 700h199z" />
    <glyph glyph-name="eng" unicode="&#x14b;" horiz-adv-x="985" 
d="M481 536h317q192 0 157 -192l-62 -354q-14 -82 -54.5 -116t-121.5 -34h-271l27 153h159q26 0 36 9t14 34l49 279q6 31 -4.5 43t-41.5 12h-302q-50 0 -81 -22l-25 -19l-59 -329h-219l95 536h185l6 -60q52 39 87 49q39 11 109 11z" />
    <glyph glyph-name="Omacron" unicode="&#x14c;" horiz-adv-x="1125" 
d="M900 753h-504l17 95h504zM846 0h-642q-103 0 -148 54t-26 158l52 296q19 104 71 148t155 44h642q103 0 148 -54t26 -158l-52 -296q-19 -104 -71 -148t-155 -44zM323 183h453q36 0 51.5 13.5t21.5 49.5l37 204q6 36 -6.5 51.5t-48.5 15.5h-453q-36 0 -51.5 -13.5
t-21.5 -49.5l-37 -204q-6 -36 6.5 -51.5t48.5 -15.5z" />
    <glyph glyph-name="omacron" unicode="&#x14d;" horiz-adv-x="982" 
d="M800 589h-504l17 95h504zM724 0h-541q-191 0 -158 192l30 172q17 98 62 134q46 38 141 38h541q191 0 158 -192l-30 -172q-17 -97 -61 -134q-47 -38 -142 -38zM295 161h359q31 0 43.5 10.5t17.5 41.5l19 107q5 31 -5.5 43t-41.5 12h-359q-31 0 -43.5 -10.5t-17.5 -41.5
l-19 -107q-5 -31 5.5 -43t41.5 -12z" />
    <glyph glyph-name="Obreve" unicode="&#x14e;" horiz-adv-x="1125" 
d="M816 736h-340q-78 0 -64 77l9 51h150l-4 -24q-4 -25 22 -25h140q24 0 28 25l4 24h150l-9 -55q-6 -39 -26.5 -56t-59.5 -17zM846 0h-642q-103 0 -148 54t-26 158l52 296q19 104 71 148t155 44h642q103 0 148 -54t26 -158l-52 -296q-19 -104 -71 -148t-155 -44zM323 183
h453q36 0 51.5 13.5t21.5 49.5l37 204q6 36 -6.5 51.5t-48.5 15.5h-453q-36 0 -51.5 -13.5t-21.5 -49.5l-37 -204q-6 -36 6.5 -51.5t48.5 -15.5z" />
    <glyph glyph-name="obreve" unicode="&#x14f;" horiz-adv-x="982" 
d="M716 572h-340q-78 0 -64 77l9 51h150l-4 -24q-4 -25 22 -25h140q24 0 28 25l4 24h150l-9 -55q-6 -39 -26.5 -56t-59.5 -17zM724 0h-541q-191 0 -158 192l30 172q17 98 62 134q46 38 141 38h541q191 0 158 -192l-30 -172q-17 -97 -61 -134q-47 -38 -142 -38zM295 161h359
q31 0 43.5 10.5t17.5 41.5l19 107q5 31 -5.5 43t-41.5 12h-359q-31 0 -43.5 -10.5t-17.5 -41.5l-19 -107q-5 -31 5.5 -43t41.5 -12z" />
    <glyph glyph-name="Ohungarumlaut" unicode="&#x150;" horiz-adv-x="1125" 
d="M743 864l-148 -128h-184l106 128h226zM1027 864l-148 -128h-185l106 128h227zM846 0h-642q-103 0 -148 54t-26 158l52 296q19 104 71 148t155 44h642q103 0 148 -54t26 -158l-52 -296q-19 -104 -71 -148t-155 -44zM323 183h453q36 0 51.5 13.5t21.5 49.5l37 204
q6 36 -6.5 51.5t-48.5 15.5h-453q-36 0 -51.5 -13.5t-21.5 -49.5l-37 -204q-6 -36 6.5 -51.5t48.5 -15.5z" />
    <glyph glyph-name="ohungarumlaut" unicode="&#x151;" horiz-adv-x="982" 
d="M643 700l-148 -128h-184l106 128h226zM927 700l-148 -128h-185l106 128h227zM724 0h-541q-191 0 -158 192l30 172q17 98 62 134q46 38 141 38h541q191 0 158 -192l-30 -172q-17 -97 -61 -134q-47 -38 -142 -38zM295 161h359q31 0 43.5 10.5t17.5 41.5l19 107
q5 31 -5.5 43t-41.5 12h-359q-31 0 -43.5 -10.5t-17.5 -41.5l-19 -107q-5 -31 5.5 -43t41.5 -12z" />
    <glyph glyph-name="OE" unicode="&#x152;" horiz-adv-x="1798" 
d="M1841 700l-30 -170h-688l-18 -101h648l-26 -144h-648l-20 -115h698l-30 -170h-1523q-102 0 -147.5 55t-26.5 157l53 296q19 104 70.5 148t154.5 44h1533zM324 183h505l59 334h-509q-36 0 -51.5 -13t-22.5 -49l-36 -205q-7 -36 6 -51.5t49 -15.5z" />
    <glyph glyph-name="oe" unicode="&#x153;" horiz-adv-x="1659" 
d="M987 536h492q189 0 155 -190l-19 -107h-676l-6 -33q-5 -31 5 -43t41 -12h368q24 0 34.5 9t15.5 34l2 11h211l-10 -55q-15 -82 -55.5 -116t-121.5 -34h-516q-76 0 -109 37q-40 -37 -119 -37h-501q-95 0 -132.5 45t-21.5 142l30 172q17 96 65 136.5t144 40.5h501
q76 0 107 -33q37 33 116 33zM960 355l-3 -14h466l2 12q5 31 -5 42.5t-41 11.5h-358q-31 0 -43.5 -10.5t-17.5 -41.5zM715 215l19 107q5 31 -4 42t-40 11h-361q-31 0 -44 -11t-18 -42l-19 -107q-5 -31 4 -42.5t40 -11.5h361q31 0 44 11.5t18 42.5z" />
    <glyph glyph-name="Racute" unicode="&#x154;" horiz-adv-x="1082" 
d="M662 864h252l-189 -128h-202zM124 700h804q191 0 158 -192l-16 -95q-17 -96 -62 -134q-46 -38 -141 -38l-15 -4l164 -237h-263l-151 225h-329l-41 -225h-232zM841 432l10 54q5 31 -5.5 43t-41.5 12h-476l-28 -162h480q31 0 43.5 11t17.5 42z" />
    <glyph glyph-name="racute" unicode="&#x155;" horiz-adv-x="678" 
d="M432 700h252l-189 -128h-202zM471 536h243l-33 -182h-301q-53 0 -81 -22l-25 -19l-56 -313h-219l95 536h161l7 -71q56 45 96 59q38 12 113 12z" />
    <glyph glyph-name="Rcommaaccent" unicode="&#x156;" horiz-adv-x="1082" 
d="M124 700h804q191 0 158 -192l-16 -95q-17 -96 -62 -134q-46 -38 -141 -38l-15 -4l164 -237h-263l-151 225h-329l-41 -225h-232zM841 432l10 54q5 31 -5.5 43t-41.5 12h-476l-28 -162h480q31 0 43.5 11t17.5 42zM442 -138h-73l18 108h204l-6 -36q-6 -37 -16 -56
q-11 -21 -41 -52l-51 -58h-112z" />
    <glyph glyph-name="rcommaaccent" unicode="&#x157;" horiz-adv-x="678" 
d="M471 536h243l-33 -182h-301q-53 0 -81 -22l-25 -19l-56 -313h-219l95 536h161l7 -71q56 45 96 59q38 12 113 12zM57 -138h-73l18 108h204l-6 -36q-6 -37 -16 -56q-11 -21 -41 -52l-51 -58h-112z" />
    <glyph glyph-name="Rcaron" unicode="&#x158;" horiz-adv-x="1082" 
d="M904 864l-168 -128h-226l-124 128h154l89 -52l107 52h168zM124 700h804q191 0 158 -192l-16 -95q-17 -96 -62 -134q-46 -38 -141 -38l-15 -4l164 -237h-263l-151 225h-329l-41 -225h-232zM841 432l10 54q5 31 -5.5 43t-41.5 12h-476l-28 -162h480q31 0 43.5 11t17.5 42z
" />
    <glyph glyph-name="rcaron" unicode="&#x159;" horiz-adv-x="678" 
d="M674 700l-168 -128h-226l-124 128h154l89 -52l107 52h168zM471 536h243l-33 -182h-301q-53 0 -81 -22l-25 -19l-56 -313h-219l95 536h161l7 -71q56 45 96 59q38 12 113 12z" />
    <glyph glyph-name="Sacute" unicode="&#x15a;" horiz-adv-x="1105" 
d="M926 864l-189 -128h-202l139 128h252zM22 166l10 59h224l-5 -29q-4 -24 4.5 -34t33.5 -10h482q24 0 34.5 9.5t15.5 34.5l4 26q4 25 -3 34.5t-30 10.5l-573 24q-164 8 -137 166l17 93q14 82 54.5 116t122.5 34h686q160 0 135 -166l-7 -49h-224l3 20q3 25 -5.5 34.5
t-33.5 9.5h-458q-24 0 -34.5 -9.5t-14.5 -34.5l-2 -13q-4 -25 2.5 -34t29.5 -10l573 -25q165 -6 137 -166l-19 -107q-14 -82 -54.5 -116t-121.5 -34h-710q-81 0 -115.5 42t-20.5 124z" />
    <glyph glyph-name="sacute" unicode="&#x15b;" horiz-adv-x="962" 
d="M826 700l-189 -128h-202l139 128h252zM14 134l8 45h211l-5 -29q-3 -16 2 -21.5t21 -5.5h402q16 0 22.5 5.5t8.5 21.5l4 23q2 15 -3 21t-21 7l-495 22q-60 2 -88 36t-18 94l11 62q21 121 142 121h609q59 0 88.5 -36t19.5 -97l-6 -39h-211l4 23q3 15 -2.5 20.5t-21.5 5.5
h-378q-16 0 -22.5 -5.5t-7.5 -20.5l-2 -12q-2 -15 3 -20.5t20 -6.5l496 -22q60 -2 88.5 -37t17.5 -94l-13 -74q-22 -121 -143 -121h-633q-59 0 -88.5 36.5t-19.5 97.5z" />
    <glyph glyph-name="Scircumflex" unicode="&#x15c;" horiz-adv-x="1105" 
d="M544 736h-168l168 128h226l124 -128h-154l-89 52zM22 166l10 59h224l-5 -29q-4 -24 4.5 -34t33.5 -10h482q24 0 34.5 9.5t15.5 34.5l4 26q4 25 -3 34.5t-30 10.5l-573 24q-164 8 -137 166l17 93q14 82 54.5 116t122.5 34h686q160 0 135 -166l-7 -49h-224l3 20
q3 25 -5.5 34.5t-33.5 9.5h-458q-24 0 -34.5 -9.5t-14.5 -34.5l-2 -13q-4 -25 2.5 -34t29.5 -10l573 -25q165 -6 137 -166l-19 -107q-14 -82 -54.5 -116t-121.5 -34h-710q-81 0 -115.5 42t-20.5 124z" />
    <glyph glyph-name="scircumflex" unicode="&#x15d;" horiz-adv-x="962" 
d="M444 572h-168l168 128h226l124 -128h-154l-89 52zM14 134l8 45h211l-5 -29q-3 -16 2 -21.5t21 -5.5h402q16 0 22.5 5.5t8.5 21.5l4 23q2 15 -3 21t-21 7l-495 22q-60 2 -88 36t-18 94l11 62q21 121 142 121h609q59 0 88.5 -36t19.5 -97l-6 -39h-211l4 23q3 15 -2.5 20.5
t-21.5 5.5h-378q-16 0 -22.5 -5.5t-7.5 -20.5l-2 -12q-2 -15 3 -20.5t20 -6.5l496 -22q60 -2 88.5 -37t17.5 -94l-13 -74q-22 -121 -143 -121h-633q-59 0 -88.5 36.5t-19.5 97.5z" />
    <glyph glyph-name="Scedilla" unicode="&#x15e;" horiz-adv-x="1105" 
d="M276 700h686q160 0 135 -166l-7 -49h-224l3 20q3 25 -5.5 34.5t-33.5 9.5h-458q-24 0 -34.5 -9.5t-14.5 -34.5l-2 -13q-4 -25 2.5 -34t29.5 -10l573 -25q165 -6 137 -166l-19 -107q-14 -82 -54.5 -116t-121.5 -34h-339l-11 -22h103q57 0 47 -57l-5 -28q-5 -30 -19 -41.5
t-43 -11.5h-260l11 60h195q8 0 11 8l1 8q3 9 -8 9h-130l5 28l23 47h-291q-81 0 -115.5 42t-20.5 124l10 59h224l-5 -29q-4 -24 4.5 -34t33.5 -10h482q24 0 34.5 9.5t15.5 34.5l4 26q4 25 -3 34.5t-30 10.5l-573 24q-164 8 -137 166l17 93q14 82 54.5 116t122.5 34z" />
    <glyph glyph-name="scedilla" unicode="&#x15f;" horiz-adv-x="962" 
d="M216 536h609q59 0 88.5 -36t19.5 -97l-6 -39h-211l4 23q3 15 -2.5 20.5t-21.5 5.5h-378q-16 0 -22.5 -5.5t-7.5 -20.5l-2 -12q-2 -15 3 -20.5t20 -6.5l496 -22q60 -2 88.5 -37t17.5 -94l-13 -74q-22 -121 -143 -121h-297l-11 -22h103q58 0 47 -57l-5 -28
q-5 -30 -19 -41.5t-43 -11.5h-260l11 60h195q8 0 11 8l1 8q3 9 -8 9h-130l5 28l23 47h-256q-59 0 -88.5 36.5t-19.5 97.5l8 45h211l-5 -29q-3 -16 2 -21.5t21 -5.5h402q16 0 22.5 5.5t8.5 21.5l4 23q2 15 -3 21t-21 7l-495 22q-60 2 -88 36t-18 94l11 62q21 121 142 121z
" />
    <glyph glyph-name="Scaron" unicode="&#x160;" horiz-adv-x="1105" 
d="M748 864h168l-168 -128h-226l-124 128h154l89 -52zM22 166l10 59h224l-5 -29q-4 -24 4.5 -34t33.5 -10h482q24 0 34.5 9.5t15.5 34.5l4 26q4 25 -3 34.5t-30 10.5l-573 24q-164 8 -137 166l17 93q14 82 54.5 116t122.5 34h686q160 0 135 -166l-7 -49h-224l3 20
q3 25 -5.5 34.5t-33.5 9.5h-458q-24 0 -34.5 -9.5t-14.5 -34.5l-2 -13q-4 -25 2.5 -34t29.5 -10l573 -25q165 -6 137 -166l-19 -107q-14 -82 -54.5 -116t-121.5 -34h-710q-81 0 -115.5 42t-20.5 124z" />
    <glyph glyph-name="scaron" unicode="&#x161;" horiz-adv-x="962" 
d="M648 700h168l-168 -128h-226l-124 128h154l89 -52zM14 134l8 45h211l-5 -29q-3 -16 2 -21.5t21 -5.5h402q16 0 22.5 5.5t8.5 21.5l4 23q2 15 -3 21t-21 7l-495 22q-60 2 -88 36t-18 94l11 62q21 121 142 121h609q59 0 88.5 -36t19.5 -97l-6 -39h-211l4 23q3 15 -2.5 20.5
t-21.5 5.5h-378q-16 0 -22.5 -5.5t-7.5 -20.5l-2 -12q-2 -15 3 -20.5t20 -6.5l496 -22q60 -2 88.5 -37t17.5 -94l-13 -74q-22 -121 -143 -121h-633q-59 0 -88.5 36.5t-19.5 97.5z" />
    <glyph glyph-name="uni0162" unicode="&#x162;" horiz-adv-x="1008" 
d="M662 509l-90 -509h-92l-11 -22h103q58 0 47 -57l-5 -28q-5 -30 -19 -41.5t-43 -11.5h-260l11 60h195q8 0 11 8l1 8q3 9 -8 9h-130l5 28l23 47h-60l90 509h-376l34 191h984l-34 -191h-376z" />
    <glyph glyph-name="uni0163" unicode="&#x163;" horiz-adv-x="810" 
d="M807 378h-360l-31 -172q-4 -25 4.5 -35t34.5 -10h314l-29 -161h-319l-11 -22h103q57 0 47 -57l-5 -28q-5 -30 -19 -41.5t-43 -11.5h-260l11 60h195q8 0 11 8l1 8q3 9 -8 9h-130l5 28l23 47h-16q-165 0 -135 164l38 214h-196l28 158h196l61 120h179l-21 -120h360z" />
    <glyph glyph-name="Tcaron" unicode="&#x164;" horiz-adv-x="1008" 
d="M867 864l-168 -128h-226l-124 128h154l89 -52l107 52h168zM88 700h984l-34 -191h-376l-90 -509h-232l90 509h-376z" />
    <glyph glyph-name="tcaron" unicode="&#x165;" horiz-adv-x="810" 
d="M723 628l-48 -58h-127l68 94h-57l19 108h204l-6 -36q-8 -38 -16 -55q-9 -19 -37 -53zM807 378h-360l-31 -172q-4 -25 4.5 -35t34.5 -10h314l-29 -161h-415q-165 0 -135 164l38 214h-196l28 158h196l61 120h179l-21 -120h360z" />
    <glyph glyph-name="Tbar" unicode="&#x166;" horiz-adv-x="1008" 
d="M1072 700l-34 -191h-376l-26 -145h253l-22 -124h-253l-42 -240h-232l42 240h-251l22 124h251l26 145h-376l34 191h984z" />
    <glyph glyph-name="tbar" unicode="&#x167;" horiz-adv-x="810" 
d="M834 536l-26 -151h-360l-11 -60h360l-19 -107h-359l-4 -21q-4 -25 3 -33.5t32 -8.5h317l-27 -155h-415q-165 0 -135 164l9 54h-196l19 107h196l11 60h-196l26 151h196l62 120h178l-21 -120h360z" />
    <glyph glyph-name="Utilde" unicode="&#x168;" horiz-adv-x="1102" 
d="M522 736h-126l13 80q11 48 58 48h175q23 0 34.5 -5.5t21.5 -21.5l21 -28q4 -6 14 -6h16q7 0 9 8l9 53h127l-14 -80q-9 -48 -57 -48h-176q-23 0 -34.5 5.5t-21.5 21.5l-21 28q-4 6 -13 6h-16q-8 0 -10 -8zM819 0h-612q-103 0 -148 54t-26 158l86 488h232l-78 -443
q-6 -36 6.5 -51.5t48.5 -15.5h423q36 0 51.5 13.5t21.5 49.5l79 447h232l-90 -508q-19 -104 -71 -148t-155 -44z" />
    <glyph glyph-name="utilde" unicode="&#x169;" horiz-adv-x="985" 
d="M444 625l-9 -53h-126l13 80q10 48 58 48h175q23 0 34.5 -5.5t21.5 -21.5l21 -28q4 -6 14 -6h16q7 0 9 8l9 53h127l-14 -80q-9 -48 -57 -48h-176q-23 0 -34.5 5.5t-21.5 21.5l-21 28q-5 6 -13 6h-16q-8 0 -10 -8zM767 536h219l-95 -536h-185l-6 60q-52 -40 -86 -49
q-39 -11 -110 -11h-317q-191 0 -157 192l60 344h219l-55 -315q-6 -31 4.5 -43t41.5 -12h302q50 0 81 22l25 19z" />
    <glyph glyph-name="Umacron" unicode="&#x16a;" horiz-adv-x="1102" 
d="M888 753h-504l17 95h504zM819 0h-612q-103 0 -148 54t-26 158l86 488h232l-78 -443q-6 -36 6.5 -51.5t48.5 -15.5h423q36 0 51.5 13.5t21.5 49.5l79 447h232l-90 -508q-19 -104 -71 -148t-155 -44z" />
    <glyph glyph-name="umacron" unicode="&#x16b;" horiz-adv-x="985" 
d="M314 684h504l-17 -95h-504zM767 536h219l-95 -536h-185l-6 60q-52 -40 -86 -49q-39 -11 -110 -11h-317q-191 0 -157 192l60 344h219l-55 -315q-6 -31 4.5 -43t41.5 -12h302q50 0 81 22l25 19z" />
    <glyph glyph-name="Ubreve" unicode="&#x16c;" horiz-adv-x="1102" 
d="M804 736h-340q-78 0 -64 77l9 51h150l-4 -24q-4 -25 22 -25h140q24 0 28 25l4 24h150l-9 -55q-6 -39 -26.5 -56t-59.5 -17zM819 0h-612q-103 0 -148 54t-26 158l86 488h232l-78 -443q-6 -36 6.5 -51.5t48.5 -15.5h423q36 0 51.5 13.5t21.5 49.5l79 447h232l-90 -508
q-19 -104 -71 -148t-155 -44z" />
    <glyph glyph-name="ubreve" unicode="&#x16d;" horiz-adv-x="985" 
d="M717 572h-340q-78 0 -64 77l9 51h150l-4 -24q-4 -25 22 -25h140q24 0 28 25l4 24h150l-9 -55q-6 -39 -26.5 -56t-59.5 -17zM767 536h219l-95 -536h-185l-6 60q-52 -40 -86 -49q-39 -11 -110 -11h-317q-191 0 -157 192l60 344h219l-55 -315q-6 -31 4.5 -43t41.5 -12h302
q50 0 81 22l25 19z" />
    <glyph glyph-name="Uring" unicode="&#x16e;" horiz-adv-x="1102" 
d="M455 783l4 28q5 29 19 41t44 12h263q57 0 47 -57l-4 -28q-5 -29 -19 -41t-44 -12h-263q-58 0 -47 57zM537 801l-2 -12q-2 -11 0.5 -14.5t13.5 -3.5h181q11 0 14.5 3t5.5 15l2 12q2 11 -0.5 14.5t-13.5 3.5h-181q-11 0 -14.5 -3t-5.5 -15zM819 0h-612q-103 0 -148 54
t-26 158l86 488h232l-78 -443q-6 -36 6.5 -51.5t48.5 -15.5h423q36 0 51.5 13.5t21.5 49.5l79 447h232l-90 -508q-19 -104 -71 -148t-155 -44z" />
    <glyph glyph-name="uring" unicode="&#x16f;" horiz-adv-x="985" 
d="M678 562h-263q-57 0 -47 57l4 28q5 29 19 41t44 12h263q58 0 47 -57l-4 -28q-5 -29 -19 -41t-44 -12zM450 637l-2 -12q-2 -11 0.5 -14.5t13.5 -3.5h181q11 0 14.5 3t5.5 15l2 12q2 11 -0.5 14.5t-13.5 3.5h-181q-11 0 -14.5 -3t-5.5 -15zM767 536h219l-95 -536h-185
l-6 60q-52 -40 -86 -49q-39 -11 -110 -11h-317q-191 0 -157 192l60 344h219l-55 -315q-6 -31 4.5 -43t41.5 -12h302q50 0 81 22l25 19z" />
    <glyph glyph-name="Uhungarumlaut" unicode="&#x170;" horiz-adv-x="1102" 
d="M731 864l-148 -128h-184l106 128h226zM1015 864l-148 -128h-185l106 128h227zM819 0h-612q-103 0 -148 54t-26 158l86 488h232l-78 -443q-6 -36 6.5 -51.5t48.5 -15.5h423q36 0 51.5 13.5t21.5 49.5l79 447h232l-90 -508q-19 -104 -71 -148t-155 -44z" />
    <glyph glyph-name="uhungarumlaut" unicode="&#x171;" horiz-adv-x="985" 
d="M418 700h226l-148 -128h-184zM928 700l-148 -128h-185l106 128h227zM767 536h219l-95 -536h-185l-6 60q-52 -40 -86 -49q-39 -11 -110 -11h-317q-191 0 -157 192l60 344h219l-55 -315q-6 -31 4.5 -43t41.5 -12h302q50 0 81 22l25 19z" />
    <glyph glyph-name="Uogonek" unicode="&#x172;" horiz-adv-x="1102" 
d="M824 253l79 447h232l-90 -508q-19 -104 -71 -148t-155 -44h-179l-12 -7q-16 -9 -16 -21l-1 -7q-1 -19 16 -19h195l-18 -106h-263q-43 0 -59.5 20.5t-11.5 65.5l2 16q4 36 23 58h-288q-103 0 -148 54t-26 158l86 488h232l-78 -443q-6 -36 6.5 -51.5t48.5 -15.5h423
q36 0 51.5 13.5t21.5 49.5z" />
    <glyph glyph-name="uogonek" unicode="&#x173;" horiz-adv-x="987" 
d="M783 -28l-1 -7q-1 -19 15 -19h96l-19 -106h-163q-42 0 -58.5 21t-11.5 65l2 16q4 31 16.5 50t43.5 41l-3 27q-52 -40 -86 -49q-39 -11 -110 -11h-317q-191 0 -157 192l60 344h219l-55 -315q-6 -31 4.5 -43t41.5 -12h302q50 0 81 22l25 19l59 329h219l-95 -536h-85l-7 -5
q-16 -10 -16 -23z" />
    <glyph glyph-name="Wcircumflex" unicode="&#x174;" horiz-adv-x="1530" 
d="M936 736l-89 52l-107 -52h-168l168 128h226l124 -128h-154zM1065 246l286 454h263l-469 -700h-199l-153 446l-310 -446h-193l-222 700h246l125 -454l306 454h172z" />
    <glyph glyph-name="wcircumflex" unicode="&#x175;" horiz-adv-x="1338" 
d="M814 572l-89 52l-107 -52h-168l168 128h226l124 -128h-154zM915 216l216 320h253l-394 -536h-188l-125 330l-240 -330h-184l-203 536h231l105 -319l234 319h171z" />
    <glyph glyph-name="Ycircumflex" unicode="&#x176;" horiz-adv-x="1092" 
d="M725 736l-89 52l-107 -52h-168l168 128h226l124 -128h-154zM873 700h303l-517 -446l-45 -254h-232l45 253l-359 447h285l211 -276z" />
    <glyph glyph-name="ycircumflex" unicode="&#x177;" horiz-adv-x="978" 
d="M640 572l-89 52l-107 -52h-168l168 128h226l124 -128h-154zM465 196l292 340h275l-505 -542q-84 -93 -148 -124q-63 -30 -178 -30h-225l29 161h214q36 0 56 9t46 38l-279 488h252z" />
    <glyph glyph-name="Ydieresis" unicode="&#x178;" horiz-adv-x="1092" 
d="M421 856h176l-20 -116h-176zM685 856h176l-20 -116h-176zM873 700h303l-517 -446l-45 -254h-232l45 253l-359 447h285l211 -276z" />
    <glyph glyph-name="Zacute" unicode="&#x179;" horiz-adv-x="1072" 
d="M909 864l-189 -128h-202l139 128h252zM990 0h-1004l27 149l639 368h-554l32 183h984l-26 -149l-639 -368h574z" />
    <glyph glyph-name="zacute" unicode="&#x17a;" horiz-adv-x="946" 
d="M818 700l-189 -128h-202l139 128h252zM866 0h-882l22 122l517 261h-450l27 153h862l-22 -122l-517 -261h470z" />
    <glyph glyph-name="Zdotaccent" unicode="&#x17b;" horiz-adv-x="1072" 
d="M731 740h-223l20 116h222zM990 0h-1004l27 149l639 368h-554l32 183h984l-26 -149l-639 -368h574z" />
    <glyph glyph-name="zdotaccent" unicode="&#x17c;" horiz-adv-x="946" 
d="M640 576h-223l20 116h222zM866 0h-882l22 122l517 261h-450l27 153h862l-22 -122l-517 -261h470z" />
    <glyph glyph-name="Zcaron" unicode="&#x17d;" horiz-adv-x="1072" 
d="M731 864h168l-168 -128h-226l-124 128h154l89 -52zM990 0h-1004l27 149l639 368h-554l32 183h984l-26 -149l-639 -368h574z" />
    <glyph glyph-name="zcaron" unicode="&#x17e;" horiz-adv-x="946" 
d="M640 700h168l-168 -128h-226l-124 128h154l89 -52zM866 0h-882l22 122l517 261h-450l27 153h862l-22 -122l-517 -261h470z" />
    <glyph glyph-name="florin" unicode="&#x192;" horiz-adv-x="952" 
d="M961 523h-239q-35 0 -51.5 -13.5t-27.5 -50.5l-28 -101h297l-24 -136h-311l-51 -180q-30 -108 -84 -155t-153 -47h-329l32 177h239q35 0 51.5 13.5t27.5 50.5l40 141h-302l24 136h316l39 140q30 108 83.5 155t152.5 47h329z" />
    <glyph glyph-name="Aringacute" unicode="&#x1fa;" horiz-adv-x="1152" 
d="M1113 0h-257l-51 120h-492l-94 -120h-275l550 666q-29 11 -22 53l5 28q5 30 18.5 41.5t43.5 11.5h67l58 64h226l-85 -64q55 -2 45 -57l-5 -28q-8 -48 -45 -52zM554 737l-2 -12q-2 -11 0.5 -14.5t13.5 -3.5h181q11 0 15 3.5t6 14.5l2 12q2 11 -1 14.5t-13 3.5h-182
q-10 0 -14 -3.5t-6 -14.5zM631 526l-193 -246h298z" />
    <glyph glyph-name="aringacute" unicode="&#x1fb;" horiz-adv-x="977" 
d="M734 536h58q190 0 156 -190l-61 -346h-186l-6 54q-44 -33 -81 -44q-33 -10 -104 -10h-384q-63 0 -93.5 36.5t-17.5 98.5l10 56q12 63 46 92t96 29h556l6 33q5 31 -5 43t-41 12h-344q-25 0 -35.5 -9t-14.5 -34l-2 -14h-212l7 43q13 81 54.5 115.5t123.5 34.5h103q0 1 2 19
l5 28q5 30 18.5 41.5t43.5 11.5h67l58 64h226l-85 -64q56 -2 45 -57l-5 -28q-1 -5 -4 -15zM447 573l-2 -12q-2 -11 0.5 -14.5t13.5 -3.5h181q11 0 15 3.5t6 14.5l2 12q2 11 -1 14.5t-13 3.5h-182q-10 0 -14 -3.5t-6 -14.5zM272 123h328q42 0 69 21l28 20l5 28l4 22h-422
q-22 0 -30.5 -7.5t-12.5 -29.5l-3 -15q-3 -22 4 -30.5t30 -8.5z" />
    <glyph glyph-name="AEacute" unicode="&#x1fc;" horiz-adv-x="1578" 
d="M911 864h252l-189 -128h-202zM1621 700l-30 -165h-728l48 -110h621l-24 -135h-538l54 -124h512l-29 -166h-667l-48 120h-479l-94 -120h-275l578 700h1099zM629 524l-191 -244h289z" />
    <glyph glyph-name="aeacute" unicode="&#x1fd;" horiz-adv-x="1649" 
d="M917 700h252l-189 -128h-202zM977 536h492q189 0 155 -190l-19 -107h-676l-6 -33q-5 -31 5 -43t41 -12h368q24 0 34.5 9t15.5 34l2 11h211l-10 -55q-15 -82 -55.5 -116t-121.5 -34h-522q-98 0 -137 50q-45 -32 -78 -41q-34 -9 -102 -9h-448q-62 0 -92.5 36.5t-18.5 98.5
l11 56q12 63 46 92t95 29h556l6 33q5 31 -5 43t-41 12h-344q-25 0 -35.5 -9.5t-14.5 -33.5l-2 -14h-212l7 43q13 81 54.5 115.5t123.5 34.5h492q74 0 107 -37q37 37 118 37zM950 355l-3 -14h466l2 12q5 31 -5 42.5t-41 11.5h-358q-31 0 -43.5 -10.5t-17.5 -41.5zM669 144
l28 20l9 50h-422q-22 0 -30.5 -7.5t-12.5 -29.5l-3 -15q-3 -22 4 -30.5t30 -8.5h328q42 0 69 21z" />
    <glyph glyph-name="Oslashacute" unicode="&#x1fe;" horiz-adv-x="1125" 
d="M684 864h252l-189 -128h-202zM1040 730h157l-112 -79q59 -59 38 -171l-51 -288q-19 -104 -71 -148t-155 -44h-634q-31 0 -50 4l-48 -34h-157l112 79q-59 59 -38 171l51 288q19 104 71 148t155 44h634q31 0 50 -4zM298 462l-39 -220q-7 -39 8 -54l481 337h-377
q-35 0 -51 -13.5t-22 -49.5zM856 238l39 220q7 39 -8 54l-481 -337h377q35 0 51 13.5t22 49.5z" />
    <glyph glyph-name="oslashacute" unicode="&#x1ff;" horiz-adv-x="982" 
d="M584 700h252l-189 -128h-202zM1027 568l-105 -68q53 -47 35 -156l-30 -172q-17 -97 -61 -134q-47 -38 -142 -38h-541q-22 0 -27 1l-51 -33h-150l105 68q-53 47 -35 156l30 172q17 98 62 134q46 38 141 38h541q22 0 27 -1l51 33h150zM246 339l-25 -139q-8 -39 14 -50
l370 241h-299q-31 0 -43 -10.5t-17 -41.5zM736 197l25 139q8 39 -14 50l-370 -241h299q31 0 43 10.5t17 41.5z" />
    <glyph glyph-name="Scommaaccent" unicode="&#x218;" horiz-adv-x="1105" 
d="M22 166l10 59h224l-5 -29q-4 -24 4.5 -34t33.5 -10h482q24 0 34.5 9.5t15.5 34.5l4 26q4 25 -3 34.5t-30 10.5l-573 24q-164 8 -137 166l17 93q14 82 54.5 116t122.5 34h686q160 0 135 -166l-7 -49h-224l3 20q3 25 -5.5 34.5t-33.5 9.5h-458q-24 0 -34.5 -9.5
t-14.5 -34.5l-2 -13q-4 -25 2.5 -34t29.5 -10l573 -25q165 -6 137 -166l-19 -107q-14 -82 -54.5 -116t-121.5 -34h-710q-81 0 -115.5 42t-20.5 124zM489 -232h-112l77 94h-73l18 108h204l-6 -36q-6 -37 -16 -56q-11 -21 -41 -52z" />
    <glyph glyph-name="scommaaccent" unicode="&#x219;" horiz-adv-x="962" 
d="M14 134l8 45h211l-5 -29q-3 -16 2 -21.5t21 -5.5h402q16 0 22.5 5.5t8.5 21.5l4 23q2 15 -3 21t-21 7l-495 22q-60 2 -88 36t-18 94l11 62q21 121 142 121h609q59 0 88.5 -36t19.5 -97l-6 -39h-211l4 23q3 15 -2.5 20.5t-21.5 5.5h-378q-16 0 -22.5 -5.5t-7.5 -20.5
l-2 -12q-2 -15 3 -20.5t20 -6.5l496 -22q60 -2 88.5 -37t17.5 -94l-13 -74q-22 -121 -143 -121h-633q-59 0 -88.5 36.5t-19.5 97.5zM418 -232h-112l77 94h-73l18 108h204l-6 -36q-6 -37 -16 -56q-11 -21 -41 -52z" />
    <glyph glyph-name="uni021A" unicode="&#x21a;" horiz-adv-x="1008" 
d="M88 700h984l-34 -191h-376l-90 -509h-232l90 509h-376zM405 -138h-73l18 108h204l-6 -36q-6 -37 -16 -56q-11 -21 -41 -52l-51 -58h-112z" />
    <glyph glyph-name="uni021B" unicode="&#x21b;" horiz-adv-x="810" 
d="M807 378h-360l-31 -172q-4 -25 4.5 -35t34.5 -10h314l-29 -161h-415q-165 0 -135 164l38 214h-196l28 158h196l61 120h179l-21 -120h360zM346 -138h-73l18 108h204l-6 -36q-6 -37 -16 -56q-11 -21 -41 -52l-51 -58h-112z" />
    <glyph glyph-name="uni0237" unicode="&#x237;" horiz-adv-x="423" 
d="M147 -160h-343l27 153h229q25 0 35.5 9t14.5 34l88 500h222l-96 -546q-15 -82 -55.5 -116t-121.5 -34z" />
    <glyph glyph-name="circumflex" unicode="&#x2c6;" horiz-adv-x="534" 
d="M270 572h-168l168 128h226l124 -128h-154l-89 52z" />
    <glyph glyph-name="caron" unicode="&#x2c7;" horiz-adv-x="580" 
d="M474 700h168l-168 -128h-226l-124 128h154l89 -52z" />
    <glyph glyph-name="breve" unicode="&#x2d8;" horiz-adv-x="506" 
d="M519 572h-340q-78 0 -64 77l9 51h150l-4 -24q-4 -25 22 -25h140q24 0 28 25l4 24h150l-9 -55q-6 -39 -26.5 -56t-59.5 -17z" />
    <glyph glyph-name="dotaccent" unicode="&#x2d9;" horiz-adv-x="302" 
d="M326 576h-223l20 116h222z" />
    <glyph glyph-name="ring" unicode="&#x2da;" horiz-adv-x="382" 
d="M107 619l4 28q5 29 19 41t44 12h263q57 0 47 -57l-4 -28q-5 -29 -19 -41t-44 -12h-263q-58 0 -47 57zM189 637l-2 -12q-2 -11 0.5 -14.5t13.5 -3.5h181q11 0 14.5 3t5.5 15l2 12q2 11 -0.5 14.5t-13.5 3.5h-181q-11 0 -14.5 -3t-5.5 -15z" />
    <glyph glyph-name="ogonek" unicode="&#x2db;" horiz-adv-x="370" 
d="M184 14l-37 -21q-16 -9 -16 -21l-1 -7q-1 -19 16 -19h195l-18 -106h-263q-43 0 -59.5 20.5t-11.5 65.5l2 16q4 31 17 50.5t46 40.5l76 46z" />
    <glyph glyph-name="tilde" unicode="&#x2dc;" horiz-adv-x="506" 
d="M228 572h-126l13 80q11 48 58 48h175q23 0 34.5 -5.5t21.5 -21.5l21 -28q4 -6 14 -6h16q7 0 9 8l9 53h127l-14 -80q-9 -48 -57 -48h-176q-23 0 -34.5 5.5t-21.5 21.5l-21 28q-4 6 -13 6h-16q-8 0 -10 -8z" />
    <glyph glyph-name="hungarumlaut" unicode="&#x2dd;" horiz-adv-x="596" 
d="M420 700l-148 -128h-184l106 128h226zM704 700l-148 -128h-185l106 128h227z" />
    <glyph glyph-name="gravecomb" unicode="&#x300;" horiz-adv-x="0" 
d="M-326 572h-180l-146 128h231z" />
    <glyph glyph-name="acutecomb" unicode="&#x301;" horiz-adv-x="0" 
d="M33 700l-189 -128h-202l139 128h252z" />
    <glyph glyph-name="uni0302" unicode="&#x302;" horiz-adv-x="0" 
d="M-344 572h-168l168 128h226l124 -128h-154l-89 52z" />
    <glyph glyph-name="tildecomb" unicode="&#x303;" horiz-adv-x="0" 
d="M-344 572h-126l13 80q11 48 58 48h175q23 0 34.5 -5.5t21.5 -21.5l21 -28q5 -6 14 -6h16q7 0 9 8l9 53h127l-14 -80q-9 -48 -57 -48h-176q-23 0 -34.5 5.5t-21.5 21.5l-21 28q-4 6 -13 6h-16q-8 0 -10 -8z" />
    <glyph glyph-name="uni0304" unicode="&#x304;" horiz-adv-x="0" 
d="M9 589h-504l17 95h504z" />
    <glyph glyph-name="uni0306" unicode="&#x306;" horiz-adv-x="0" 
d="M-67 572h-340q-78 0 -64 77l9 51h150l-4 -24q-4 -25 22 -25h140q24 0 28 25l4 24h150l-9 -55q-6 -39 -26.5 -56t-59.5 -17z" />
    <glyph glyph-name="uni0307" unicode="&#x307;" horiz-adv-x="0" 
d="M8 576h-223l20 116h222z" />
    <glyph glyph-name="uni0308" unicode="&#x308;" horiz-adv-x="0" 
d="M-257 576h-176l20 116h176zM7 576h-176l20 116h176z" />
    <glyph glyph-name="uni030A" unicode="&#x30a;" horiz-adv-x="0" 
d="M-355 619l4 28q5 29 19 41t44 12h263q57 0 47 -57l-4 -28q-5 -29 -19 -41t-44 -12h-263q-58 0 -47 57zM-273 637l-2 -12q-2 -11 0.5 -14.5t13.5 -3.5h181q11 0 14.5 3t5.5 15l2 12q2 11 -0.5 14.5t-13.5 3.5h-181q-11 0 -14.5 -3t-5.5 -15z" />
    <glyph glyph-name="uni030B" unicode="&#x30b;" horiz-adv-x="0" 
d="M-240 700l-148 -128h-184l106 128h226zM44 700l-148 -128h-185l106 128h227z" />
    <glyph glyph-name="uni030C" unicode="&#x30c;" horiz-adv-x="0" 
d="M-140 700h168l-168 -128h-226l-124 128h154l89 -52z" />
    <glyph glyph-name="uni0312" unicode="&#x312;" horiz-adv-x="0" 
d="M-76 774h112l-69 -94h58l-19 -108h-188l6 36q6 36 15 56q8 15 38 52z" />
    <glyph glyph-name="uni0326" unicode="&#x326;" horiz-adv-x="0" 
d="M-215 -232h-112l77 94h-73l18 108h204l-6 -36q-6 -37 -16 -56q-11 -21 -41 -52z" />
    <glyph glyph-name="uni0327" unicode="&#x327;" horiz-adv-x="0" 
d="M-172 -160h-260l11 60h195q8 0 11 8l1 8q3 9 -8 9h-130l5 28l33 67h80l-21 -42h103q58 0 47 -57l-5 -28q-5 -30 -19 -41.5t-43 -11.5z" />
    <glyph glyph-name="uni0328" unicode="&#x328;" horiz-adv-x="0" 
d="M-262 14l-37 -21q-16 -9 -16 -21l-1 -7q-1 -19 16 -19h195l-18 -106h-263q-43 0 -59.5 20.5t-11.5 65.5l2 16q4 31 17 50.5t46 40.5l76 46z" />
    <glyph glyph-name="uni0335" unicode="&#x335;" horiz-adv-x="0" 
d="M-476 292l22 124h440l-22 -124h-440z" />
    <glyph glyph-name="uni0336" unicode="&#x336;" horiz-adv-x="0" 
d="M-908 292l22 124h872l-22 -124h-872z" />
    <glyph glyph-name="uni0337" unicode="&#x337;" horiz-adv-x="0" 
d="M-478 288l22 124l452 60l-22 -124z" />
    <glyph glyph-name="uni0338" unicode="&#x338;" horiz-adv-x="0" 
d="M-701 -30l632 600h122l-632 -600h-122z" />
    <glyph glyph-name="uni0394" unicode="&#x394;" horiz-adv-x="1152" 
d="M522 700h261l329 -700h-1168zM631 526l-281 -359h435z" />
    <glyph glyph-name="uni03A9" unicode="&#x3a9;" horiz-adv-x="1125" 
d="M308 700h642q98 0 145 -56t29 -156l-29 -158q-23 -135 -123 -163h106l-30 -167h-468l45 257h164q36 0 52 14t22 50l22 130q6 36 -6.5 51t-48.5 15h-453q-36 0 -51.5 -13.5t-21.5 -49.5l-23 -131q-6 -36 6.5 -51t48.5 -15h159l-45 -257h-469l31 167h117q-104 33 -77 175
l30 166q19 104 71 148t155 44z" />
    <glyph glyph-name="uni03BC" unicode="&#x3bc;" horiz-adv-x="1036" 
d="M960 161h45l-28 -161h-145q-97 0 -120 65q-55 -43 -92 -53q-38 -12 -112 -12h-305l-29 -160h-203l123 696h219l-56 -315q-5 -31 5.5 -43t41.5 -12h302q49 0 80 22l27 19l58 329h219l-60 -339q-4 -21 2.5 -28.5t27.5 -7.5z" />
    <glyph glyph-name="pi" unicode="&#x3c0;" horiz-adv-x="1104" 
d="M1101 378h-114l-30 -172q-4 -25 4.5 -35t33.5 -10h68l-29 -161h-167q-164 0 -136 166l37 212h-403l-67 -378h-220l67 378h-114l29 158h1070z" />
    <glyph glyph-name="uni0401" unicode="&#x401;" horiz-adv-x="1002" 
d="M384 856h176l-20 -116h-176zM648 856h176l-20 -116h-176zM1044 700l-30 -170h-688l-18 -101h648l-25 -144h-649l-20 -115h698l-30 -170h-930l124 700h920z" />
    <glyph glyph-name="uni0403" unicode="&#x403;" horiz-adv-x="940" 
d="M591 864h252l-189 -128h-202zM124 700h880l-34 -191h-648l-90 -509h-232z" />
    <glyph glyph-name="uni0405" unicode="&#x405;" horiz-adv-x="1105" 
d="M22 166l10 59h224l-5 -29q-4 -24 4.5 -34t33.5 -10h482q24 0 34.5 9.5t15.5 34.5l4 26q4 25 -3 34.5t-30 10.5l-573 24q-164 8 -137 166l17 93q14 82 54.5 116t122.5 34h686q160 0 135 -166l-7 -49h-224l3 20q3 25 -5.5 34.5t-33.5 9.5h-458q-24 0 -34.5 -9.5
t-14.5 -34.5l-2 -13q-4 -25 2.5 -34t29.5 -10l573 -25q165 -6 137 -166l-19 -107q-14 -82 -54.5 -116t-121.5 -34h-710q-81 0 -115.5 42t-20.5 124z" />
    <glyph glyph-name="uni0406" unicode="&#x406;" horiz-adv-x="340" 
d="M5 0l124 700h235l-124 -700h-235z" />
    <glyph glyph-name="uni0407" unicode="&#x407;" horiz-adv-x="340" 
d="M209 740h-176l20 116h176zM473 740h-176l20 116h176zM5 0l124 700h235l-124 -700h-235z" />
    <glyph glyph-name="uni0408" unicode="&#x408;" horiz-adv-x="1015" 
d="M732 0h-544q-103 0 -148 54t-26 158l15 84h224l-9 -50q-7 -35 6 -50.5t49 -15.5h363q36 0 51.5 13.5t21.5 48.5l81 458h232l-90 -508q-19 -104 -71 -148t-155 -44z" />
    <glyph glyph-name="uni040C" unicode="&#x40c;" horiz-adv-x="1082" 
d="M663 864h252l-189 -128h-202zM779 700h371l-568 -344l448 -356h-349l-393 334l-59 -334h-232l124 700h232l-56 -314z" />
    <glyph glyph-name="uni040E" unicode="&#x40e;" horiz-adv-x="1092" 
d="M832 736h-340q-78 0 -64 77l9 51h150l-4 -24q-4 -25 22 -25h140q24 0 28 25l4 24h150l-9 -55q-6 -39 -26.5 -56t-59.5 -17zM559 405l313 295h304l-776 -700h-304l299 268l-327 432h283z" />
    <glyph glyph-name="uni0410" unicode="&#x410;" horiz-adv-x="1152" 
d="M1113 0h-257l-51 120h-492l-94 -120h-275l578 700h261zM631 526l-193 -246h298z" />
    <glyph glyph-name="uni0411" unicode="&#x411;" horiz-adv-x="1090" 
d="M857 0h-856l124 700h946l-29 -163h-714l-19 -106h608q164 0 136 -166l-20 -115q-14 -82 -54.5 -116t-121.5 -34zM284 292l-22 -131h500q24 0 34 9t15 34l7 42q4 25 -4.5 35.5t-33.5 10.5h-496z" />
    <glyph glyph-name="uni0412" unicode="&#x412;" horiz-adv-x="1090" 
d="M123 700h820q79 0 114 -42.5t21 -123.5l-8 -51q-10 -55 -31 -85t-60 -41q81 -29 63 -141l-11 -66q-13 -81 -53.5 -115.5t-122.5 -34.5h-857zM802 539h-476l-20 -116h480q24 0 34 9t15 34l5 28q10 45 -38 45zM809 204l8 42q4 25 -4.5 35.5t-33.5 10.5h-496l-23 -131h500
q24 0 34 9t15 34z" />
    <glyph glyph-name="uni0413" unicode="&#x413;" horiz-adv-x="940" 
d="M124 700h880l-34 -191h-648l-90 -509h-232z" />
    <glyph glyph-name="uni0414" unicode="&#x414;" horiz-adv-x="1214" 
d="M1168 700l-92 -517h111l-54 -303h-216l22 120h-758l-21 -120h-216l53 303h70q33 0 47.5 12.5t22.5 45.5l111 459h920zM438 509l-62 -248q-10 -42 -27 -78h495l58 326h-464z" />
    <glyph glyph-name="uni0415" unicode="&#x415;" horiz-adv-x="1002" 
d="M1044 700l-30 -170h-688l-18 -101h648l-25 -144h-649l-20 -115h698l-30 -170h-930l124 700h920z" />
    <glyph glyph-name="uni0416" unicode="&#x416;" horiz-adv-x="1837" 
d="M1536 700h371l-567 -344l447 -356h-349l-393 334l-59 -334h-232l59 331l-488 -331h-371l574 360l-446 340h349l391 -315l56 315h232l-56 -314z" />
    <glyph glyph-name="uni0417" unicode="&#x417;" horiz-adv-x="1102" 
d="M272 700h690q81 0 116.5 -43t21.5 -125l-9 -51q-11 -58 -33.5 -87t-63.5 -39q78 -32 60 -142l-11 -65q-14 -82 -53.5 -115t-121.5 -33h-709q-82 0 -117 43t-21 126l16 94h224l-10 -56q-4 -25 5 -35.5t34 -10.5h482q24 0 33.5 9t14.5 34l7 38q10 46 -39 46h-408l25 139
h403q24 0 34 9t15 34l4 23q5 25 -4 35.5t-35 10.5h-461q-24 0 -34 -8.5t-15 -33.5l-9 -52h-224l19 107q14 82 53.5 115t120.5 33z" />
    <glyph glyph-name="uni0418" unicode="&#x418;" horiz-adv-x="1132" 
d="M271 266l691 434h198l-124 -700h-224l78 440l-700 -440h-190l124 700h224z" />
    <glyph glyph-name="uni0419" unicode="&#x419;" horiz-adv-x="1132" 
d="M850 736h-340q-78 0 -64 77l9 51h150l-4 -24q-4 -25 22 -25h140q24 0 28 25l4 24h150l-9 -55q-6 -39 -26.5 -56t-59.5 -17zM271 266l691 434h198l-124 -700h-224l78 440l-700 -440h-190l124 700h224z" />
    <glyph glyph-name="uni041A" unicode="&#x41a;" horiz-adv-x="1082" 
d="M779 700h371l-568 -344l448 -356h-349l-393 334l-59 -334h-232l124 700h232l-56 -314z" />
    <glyph glyph-name="uni041B" unicode="&#x41b;" horiz-adv-x="1118" 
d="M106 0h-142l33 183h48q33 0 47.5 12t22.5 46l111 459h920l-124 -700h-232l90 509h-464l-77 -313q-26 -104 -80.5 -150t-152.5 -46z" />
    <glyph glyph-name="uni041C" unicode="&#x41c;" horiz-adv-x="1252" 
d="M620 310l446 390h214l-124 -700h-224l73 411l-344 -302h-127l-237 302l-73 -411h-224l124 700h189z" />
    <glyph glyph-name="uni041D" unicode="&#x41d;" horiz-adv-x="1112" 
d="M865 458l43 242h232l-124 -700h-232l47 266h-552l-47 -266h-232l124 700h232l-43 -242h552z" />
    <glyph glyph-name="uni041E" unicode="&#x41e;" horiz-adv-x="1125" 
d="M846 0h-642q-103 0 -148 54t-26 158l52 296q19 104 71 148t155 44h642q103 0 148 -54t26 -158l-52 -296q-19 -104 -71 -148t-155 -44zM323 183h453q36 0 51.5 13.5t21.5 49.5l37 204q6 36 -6.5 51.5t-48.5 15.5h-453q-36 0 -51.5 -13.5t-21.5 -49.5l-37 -204
q-6 -36 6.5 -51.5t48.5 -15.5z" />
    <glyph glyph-name="uni041F" unicode="&#x41f;" horiz-adv-x="1112" 
d="M232 0h-232l124 700h1016l-124 -700h-232l90 509h-552z" />
    <glyph glyph-name="uni0420" unicode="&#x420;" horiz-adv-x="1068" 
d="M232 0h-232l124 700h804q191 0 158 -192l-24 -136q-17 -97 -61 -134q-46 -38 -141 -38h-592zM326 533l-30 -174h481q30 0 42.5 11t17.5 42l12 66q5 31 -5.5 43t-41.5 12h-476z" />
    <glyph glyph-name="uni0421" unicode="&#x421;" horiz-adv-x="1095" 
d="M818 0h-614q-103 0 -148 54t-26 158l52 296q19 104 71 148t155 44h614q103 0 148 -54t26 -158l-13 -79h-225l9 45q6 35 -6.5 50.5t-48.5 15.5h-433q-36 0 -51.5 -13.5t-22.5 -48.5l-38 -212q-6 -35 6.5 -50.5t48.5 -15.5h433q36 0 51.5 13.5t22.5 48.5l9 56h224l-18 -106
q-19 -104 -71 -148t-155 -44z" />
    <glyph glyph-name="uni0422" unicode="&#x422;" horiz-adv-x="1008" 
d="M88 700h984l-34 -191h-376l-90 -509h-232l90 509h-376z" />
    <glyph glyph-name="uni0423" unicode="&#x423;" horiz-adv-x="1092" 
d="M559 405l313 295h304l-776 -700h-304l299 268l-327 432h283z" />
    <glyph glyph-name="uni0424" unicode="&#x424;" horiz-adv-x="1411" 
d="M882 658h347q103 0 148 -54t26 -158l-38 -212q-19 -104 -71 -148t-155 -44h-365l-15 -82h-216l15 82h-347q-103 0 -148 54t-26 158l38 212q19 104 71 148t155 44h365l15 82h216zM328 209h259l50 282h-264q-36 0 -51.5 -13.5t-21.5 -49.5l-27 -153q-6 -36 6.5 -51
t48.5 -15zM1140 272l27 153q6 36 -6.5 51t-48.5 15h-259l-50 -282h264q36 0 51.5 13.5t21.5 49.5z" />
    <glyph glyph-name="uni0425" unicode="&#x425;" horiz-adv-x="1100" 
d="M281 0h-327l453 357l-319 343h303l189 -210l257 210h327l-441 -343l327 -357h-303l-197 224z" />
    <glyph glyph-name="uni0426" unicode="&#x426;" horiz-adv-x="1186" 
d="M911 0h-910l123 700h232l-89 -509h552l89 509h232l-89 -509h110l-56 -311h-216z" />
    <glyph glyph-name="uni0427" unicode="&#x427;" horiz-adv-x="1088" 
d="M992 0h-232l37 204h-592q-191 0 -158 192l53 304h232l-44 -250q-5 -31 5.5 -43t41.5 -12h496l53 305h232z" />
    <glyph glyph-name="uni0428" unicode="&#x428;" horiz-adv-x="1584" 
d="M1488 0h-1488l124 700h232l-89 -509h396l89 509h232l-89 -509h396l89 509h232z" />
    <glyph glyph-name="uni0429" unicode="&#x429;" horiz-adv-x="1658" 
d="M1383 0h-1382l123 700h232l-89 -509h396l89 509h232l-89 -509h396l89 509h232l-89 -509h110l-56 -311h-216z" />
    <glyph glyph-name="uni042A" unicode="&#x42a;" horiz-adv-x="1286" 
d="M290 517h-234l32 183h466l-35 -200h592q191 0 157 -192l-23 -136q-17 -97 -61 -134q-47 -38 -142 -38h-844zM490 341l-29 -174h500q30 0 42.5 11t17.5 42l12 66q5 31 -5.5 43t-41.5 12h-496z" />
    <glyph glyph-name="uni042B" unicode="&#x42b;" horiz-adv-x="1408" 
d="M0 0l124 700h232l-35 -200h572q191 0 157 -192l-23 -136q-17 -97 -61 -134q-47 -38 -142 -38h-824zM1073 0l124 700h235l-124 -700h-235zM768 341h-476l-29 -174h480q30 0 42.5 11t17.5 42l12 66q5 31 -5.5 43t-41.5 12z" />
    <glyph glyph-name="uni042C" unicode="&#x42c;" horiz-adv-x="1068" 
d="M0 0l124 700h232l-35 -200h572q191 0 157 -192l-23 -136q-17 -97 -61 -134q-47 -38 -142 -38h-824zM768 341h-476l-29 -174h480q30 0 42.5 11t17.5 42l12 66q5 31 -5.5 43t-41.5 12z" />
    <glyph glyph-name="uni042D" unicode="&#x42d;" horiz-adv-x="1111" 
d="M306 700h632q103 0 148 -54t26 -158l-53 -296q-19 -104 -70.5 -148t-154.5 -44h-632q-103 0 -148 54.5t-27 157.5l15 86h224l-11 -68q-7 -36 5.5 -51t48.5 -15h451q36 0 52 13.5t22 49.5l11 60h-457l24 135h457l8 48q6 36 -6.5 51t-47.5 15h-452q-35 0 -51.5 -14
t-22.5 -49l-11 -64h-224l18 99q19 104 71 148t155 44z" />
    <glyph glyph-name="uni042E" unicode="&#x42e;" horiz-adv-x="1604" 
d="M786 700h642q103 0 148 -54t26 -158l-52 -296q-19 -104 -71 -148t-155 -44h-642q-103 0 -148 54t-26 158l9 54h-238l-47 -266h-232l124 700h232l-43 -243h238l9 51q19 104 71 148t155 44zM1327 246l37 204q6 36 -6.5 51.5t-48.5 15.5h-453q-36 0 -51.5 -13.5t-21.5 -49.5
l-37 -204q-6 -36 6.5 -51.5t48.5 -15.5h453q36 0 51.5 13.5t21.5 49.5z" />
    <glyph glyph-name="uni042F" unicode="&#x42f;" horiz-adv-x="1082" 
d="M287 700h823l-124 -700h-232l41 225h-311l-231 -225h-296l252 241q-174 7 -141 192l16 95q17 98 62 134q46 38 141 38zM346 379h476l28 162h-481q-30 0 -42 -11t-18 -42l-9 -54q-6 -31 4.5 -43t41.5 -12z" />
    <glyph glyph-name="uni0430" unicode="&#x430;" horiz-adv-x="977" 
d="M260 536h532q190 0 156 -190l-61 -346h-186l-6 54q-44 -33 -81 -44q-33 -10 -104 -10h-384q-63 0 -93.5 36.5t-17.5 98.5l10 56q12 63 46 92t96 29h556l6 33q5 31 -5 43t-41 12h-344q-25 0 -35.5 -9t-14.5 -34l-2 -14h-212l7 43q13 81 54.5 115.5t123.5 34.5zM272 123
h328q42 0 69 21l28 20l5 28l4 22h-422q-22 0 -30.5 -7.5t-12.5 -29.5l-3 -15q-3 -22 4 -30.5t30 -8.5z" />
    <glyph glyph-name="uni0431" unicode="&#x431;" horiz-adv-x="985" 
d="M343 455h456q163 0 148 -163l-11 -139q-7 -81 -46.5 -117t-120.5 -36h-590q-162 0 -147 163l27 325q10 102 59.5 148t155.5 51l691 23l-17 -159l-645 -22q-41 -2 -58 -19t-20 -57l-4 -48q29 50 122 50zM722 196l4 72q2 24 -7.5 34t-34.5 10h-380q-36 0 -43 -24l-7 -92
q-2 -24 7.5 -34t34.5 -10h380q24 0 34 9.5t12 34.5z" />
    <glyph glyph-name="uni0432" unicode="&#x432;" horiz-adv-x="971" 
d="M94 536h748q128 0 104 -127l-7 -38q-16 -82 -69 -98q64 -22 49 -108l-9 -49q-11 -63 -42.5 -89.5t-93.5 -26.5h-775l48 267h-1zM692 407h-401l-15 -81h404q19 0 27 7t11 26l3 15q3 19 -3.5 26t-25.5 7zM699 161l4 26q3 19 -3 26.5t-26 7.5h-417l-16 -92h419q20 0 28 6.5
t11 25.5z" />
    <glyph glyph-name="uni0433" unicode="&#x433;" horiz-adv-x="830" 
d="M218 0h-219l95 536h772l-29 -166h-553z" />
    <glyph glyph-name="uni0434" unicode="&#x434;" horiz-adv-x="1084" 
d="M1016 536l-66 -376h103l-50 -280h-203l21 120h-653l-21 -120h-203l49 280h66q27 0 39.5 10.5t19.5 38.5l79 327h819zM379 370l-34 -137q-11 -43 -26 -73h412l37 210h-389z" />
    <glyph glyph-name="uni0435" unicode="&#x435;" horiz-adv-x="972" 
d="M259 536h532q96 0 134 -46.5t22 -142.5l-19 -108h-676l-6 -33q-5 -31 4.5 -43t40.5 -12h368q24 0 34.5 9t15.5 34l2 11h212l-10 -54q-16 -83 -56 -117t-121 -34h-556q-188 0 -155 190l30 172q16 96 62 135t142 39zM272 355l-2 -14h465l2 12q5 31 -4.5 42.5t-40.5 11.5
h-359q-30 0 -43 -11t-18 -41z" />
    <glyph glyph-name="uni0436" unicode="&#x436;" horiz-adv-x="1658" 
d="M1332 536h372l-473 -269l385 -267h-351l-331 245l-43 -245h-219l42 240l-396 -240h-372l482 275l-379 261h350l324 -248l44 248h219l-43 -243z" />
    <glyph glyph-name="uni0437" unicode="&#x437;" horiz-adv-x="972" 
d="M209 536h637q127 0 105 -127l-7 -38q-16 -82 -74 -99q61 -22 46 -107l-9 -49q-11 -63 -42.5 -89.5t-93.5 -26.5h-653q-126 0 -105 128l13 74h212l-7 -38q-3 -19 3.5 -26t25.5 -7h398q19 0 26.5 7t11.5 26l4 21q4 19 -2.5 26.5t-25.5 7.5h-336l19 109h329q19 0 27 7t12 26
l2 11q3 18 -3 25.5t-25 7.5h-383q-19 0 -27 -6.5t-11 -25.5l-6 -33h-211l14 81q10 63 41.5 89t94.5 26z" />
    <glyph glyph-name="uni0438" unicode="&#x438;" horiz-adv-x="1003" 
d="M250 222l568 314h186l-95 -536h-211l56 319l-578 -319h-177l95 536h211z" />
    <glyph glyph-name="uni0439" unicode="&#x439;" horiz-adv-x="1003" 
d="M755 572h-340q-78 0 -64 77l9 51h150l-4 -24q-4 -25 22 -25h140q24 0 28 25l4 24h150l-9 -55q-6 -39 -26.5 -56t-59.5 -17zM250 222l568 314h186l-95 -536h-211l56 319l-578 -319h-177l95 536h211z" />
    <glyph glyph-name="uni043A" unicode="&#x43a;" horiz-adv-x="985" 
d="M659 536h372l-473 -269l385 -267h-351l-331 245l-43 -245h-220l96 536h219l-43 -244z" />
    <glyph glyph-name="uni043B" unicode="&#x43b;" horiz-adv-x="992" 
d="M98 0h-134l29 160h42q28 0 40.5 10.5t19.5 38.5l80 327h819l-96 -536h-219l66 370h-389l-49 -194q-24 -95 -72 -135.5t-137 -40.5z" />
    <glyph glyph-name="uni043C" unicode="&#x43c;" horiz-adv-x="1089" 
d="M202 0h-203l95 536h185l256 -280l358 280h197l-95 -536h-203l55 310l-288 -227h-95l-207 227z" />
    <glyph glyph-name="uni043D" unicode="&#x43d;" horiz-adv-x="989" 
d="M739 357l32 179h219l-95 -536h-219l34 191h-458l-34 -191h-219l95 536h219l-32 -179h458z" />
    <glyph glyph-name="uni043E" unicode="&#x43e;" horiz-adv-x="982" 
d="M724 0h-541q-191 0 -158 192l30 172q17 98 62 134q46 38 141 38h541q191 0 158 -192l-30 -172q-17 -97 -61 -134q-47 -38 -142 -38zM295 161h359q31 0 43.5 10.5t17.5 41.5l19 107q5 31 -5.5 43t-41.5 12h-359q-31 0 -43.5 -10.5t-17.5 -41.5l-19 -107q-5 -31 5.5 -43
t41.5 -12z" />
    <glyph glyph-name="uni043F" unicode="&#x43f;" horiz-adv-x="989" 
d="M218 0h-219l95 536h896l-95 -536h-219l65 370h-457z" />
    <glyph glyph-name="uni0440" unicode="&#x440;" horiz-adv-x="990" 
d="M479 536h331q95 0 133.5 -46.5t22.5 -143.5l-31 -172q-16 -96 -62 -135t-142 -39h-339q-66 0 -100 9q-34 7 -66 36l-36 -205h-219l123 696h185l6 -60q50 40 86 50q34 10 108 10zM723 213l19 107q5 31 -5 43t-41 12h-313q-49 0 -80 -22l-26 -20l-23 -131l19 -19
q22 -22 75 -22h315q31 0 43 10.5t17 41.5z" />
    <glyph glyph-name="uni0441" unicode="&#x441;" horiz-adv-x="954" 
d="M696 0h-513q-191 0 -158 192l30 172q17 98 62 134q46 38 141 38h513q189 0 158 -192l-6 -39h-211l2 15q4 31 -6 43t-41 12h-339q-31 0 -43.5 -10.5t-17.5 -41.5l-19 -107q-5 -31 5.5 -43t41.5 -12h339q31 0 43.5 10.5t17.5 41.5l4 23h211l-11 -64q-16 -96 -62 -134
t-141 -38z" />
    <glyph glyph-name="uni0442" unicode="&#x442;" horiz-adv-x="888" 
d="M353 370h-323l30 166h864l-30 -166h-322l-66 -370h-219z" />
    <glyph glyph-name="uni0443" unicode="&#x443;" horiz-adv-x="978" 
d="M465 196l292 340h275l-505 -542q-84 -93 -148 -124q-63 -30 -178 -30h-225l29 161h214q36 0 56 9t46 38l-279 488h252z" />
    <glyph glyph-name="uni0444" unicode="&#x444;" horiz-adv-x="1338" 
d="M822 536h333q191 0 158 -192l-30 -172q-17 -97 -61 -134q-47 -38 -142 -38h-353l-28 -160h-211l28 160h-333q-191 0 -158 192l30 172q17 98 62 134q46 38 141 38h353l29 164h211zM292 146h250l43 244h-255q-31 0 -43.5 -11t-17.5 -42l-23 -135q-5 -31 5 -43.5t41 -12.5z
M1069 199l23 135q5 31 -5 43.5t-41 12.5h-250l-43 -244h255q31 0 43.5 11t17.5 42z" />
    <glyph glyph-name="uni0445" unicode="&#x445;" horiz-adv-x="960" 
d="M269 0h-323l374 274l-269 262h304l140 -142l185 142h324l-362 -262l276 -274h-303l-149 154z" />
    <glyph glyph-name="uni0446" unicode="&#x446;" horiz-adv-x="1056" 
d="M795 0h-795l94 536h219l-65 -370h458l65 370h219l-65 -370h101l-50 -286h-203z" />
    <glyph glyph-name="uni0447" unicode="&#x447;" horiz-adv-x="950" 
d="M72 536h219l-32 -175q-4 -25 4.5 -35t33.5 -10h397l38 220h220l-96 -536h-219l27 151h-494q-166 0 -138 166z" />
    <glyph glyph-name="uni0448" unicode="&#x448;" horiz-adv-x="1410" 
d="M1316 0h-1317l95 536h219l-66 -370h330l66 370h219l-65 -370h330l65 370h220z" />
    <glyph glyph-name="uni0449" unicode="&#x449;" horiz-adv-x="1498" 
d="M1236 0h-1236l94 536h219l-65 -370h340l65 370h219l-65 -370h340l65 370h220l-65 -370h101l-51 -286h-203z" />
    <glyph glyph-name="uni044A" unicode="&#x44a;" horiz-adv-x="1100" 
d="M214 370h-184l30 166h403l-27 -148h499q161 0 133 -162l-14 -80q-14 -81 -53 -113.5t-119 -32.5h-734zM413 258l-21 -120h401q23 0 34 9t15 32l6 36q4 24 -4 33.5t-32 9.5h-399z" />
    <glyph glyph-name="uni044B" unicode="&#x44b;" horiz-adv-x="1273" 
d="M-1 0l95 536h219l-26 -148h498q163 0 134 -162l-14 -80q-14 -81 -53 -113.5t-120 -32.5h-733zM1175 0h-222l95 536h222zM662 258h-398l-21 -120h400q23 0 34 9t15 32l6 36q4 24 -4 33.5t-32 9.5z" />
    <glyph glyph-name="uni044C" unicode="&#x44c;" horiz-adv-x="950" 
d="M-1 0l95 536h219l-26 -148h498q163 0 134 -162l-14 -80q-14 -81 -53 -113.5t-120 -32.5h-733zM662 258h-398l-21 -120h400q23 0 34 9t15 32l6 36q4 24 -4 33.5t-32 9.5z" />
    <glyph glyph-name="uni044D" unicode="&#x44d;" horiz-adv-x="974" 
d="M257 536h534q191 0 158 -192l-30 -172q-17 -96 -62 -134q-46 -38 -141 -38h-533q-192 0 -158 193l7 43h211l-6 -34q-6 -30 5 -43t42 -13h360q30 0 42 11t18 42l4 23h-370l17 102h372l2 11q5 30 -6 42.5t-42 12.5h-359q-30 0 -42.5 -11t-17.5 -41l-6 -33h-211l10 59
q17 98 61 135t141 37z" />
    <glyph glyph-name="uni044E" unicode="&#x44e;" horiz-adv-x="1384" 
d="M660 536h541q191 0 158 -192l-30 -172q-17 -97 -61 -134q-47 -38 -142 -38h-541q-191 0 -158 191h-175l-34 -191h-219l95 536h219l-32 -179h175l1 7q17 98 62 134q46 38 141 38zM1117 213l19 107q5 31 -5.5 43t-41.5 12h-359q-31 0 -43.5 -10.5t-17.5 -41.5l-19 -107
q-5 -31 5.5 -43t41.5 -12h359q31 0 43.5 10.5t17.5 41.5z" />
    <glyph glyph-name="uni044F" unicode="&#x44f;" horiz-adv-x="970" 
d="M238 536h734l-96 -536h-219l30 169h-304l-165 -169h-253l183 183q-115 21 -91 159l9 48q14 81 53 113.5t119 32.5zM311 293h398l20 111h-402q-23 0 -32.5 -8.5t-14.5 -32.5l-5 -27q-4 -24 4 -33.5t32 -9.5z" />
    <glyph glyph-name="uni0451" unicode="&#x451;" horiz-adv-x="972" 
d="M341 692h176l-20 -116h-176zM605 692h176l-20 -116h-176zM259 536h532q96 0 134 -46.5t22 -142.5l-19 -108h-676l-6 -33q-5 -31 4.5 -43t40.5 -12h368q24 0 34.5 9t15.5 34l2 11h212l-10 -54q-16 -83 -56 -117t-121 -34h-556q-188 0 -155 190l30 172q16 96 62 135t142 39
zM272 355l-2 -14h465l2 12q5 31 -4.5 42.5t-40.5 11.5h-359q-30 0 -43 -11t-18 -41z" />
    <glyph glyph-name="uni0453" unicode="&#x453;" horiz-adv-x="830" 
d="M760 700l-189 -128h-202l139 128h252zM218 0h-219l95 536h772l-29 -166h-553z" />
    <glyph glyph-name="uni0455" unicode="&#x455;" horiz-adv-x="962" 
d="M14 134l8 45h211l-5 -29q-3 -16 2 -21.5t21 -5.5h402q16 0 22.5 5.5t8.5 21.5l4 23q2 15 -3 21t-21 7l-495 22q-60 2 -88 36t-18 94l11 62q21 121 142 121h609q59 0 88.5 -36t19.5 -97l-6 -39h-211l4 23q3 15 -2.5 20.5t-21.5 5.5h-378q-16 0 -22.5 -5.5t-7.5 -20.5
l-2 -12q-2 -15 3 -20.5t20 -6.5l496 -22q60 -2 88.5 -37t17.5 -94l-13 -74q-22 -121 -143 -121h-633q-59 0 -88.5 36.5t-19.5 97.5z" />
    <glyph glyph-name="uni0456" unicode="&#x456;" horiz-adv-x="323" 
d="M327 576h-222l22 124h222zM225 0h-222l95 536h222z" />
    <glyph glyph-name="uni0457" unicode="&#x457;" horiz-adv-x="323" 
d="M172 576h-176l20 116h176zM436 576h-176l20 116h176zM225 0h-222l95 536h222z" />
    <glyph glyph-name="uni0458" unicode="&#x458;" horiz-adv-x="423" 
d="M427 576h-222l22 124h222zM147 -160h-344l27 153h230q25 0 35.5 9t14.5 34l88 500h223l-97 -546q-14 -82 -54.5 -116t-122.5 -34z" />
    <glyph glyph-name="uni045C" unicode="&#x45c;" horiz-adv-x="985" 
d="M585 700h252l-189 -128h-202zM659 536h372l-473 -269l385 -267h-351l-331 245l-43 -245h-220l96 536h219l-43 -244z" />
    <glyph glyph-name="uni045E" unicode="&#x45e;" horiz-adv-x="978" 
d="M755 572h-340q-78 0 -64 77l9 51h150l-4 -24q-4 -25 22 -25h140q24 0 28 25l4 24h150l-9 -55q-6 -39 -26.5 -56t-59.5 -17zM465 196l292 340h275l-505 -542q-84 -93 -148 -124q-63 -30 -178 -30h-225l29 161h214q36 0 56 9t46 38l-279 488h252z" />
    <glyph glyph-name="uni0498" unicode="&#x498;" horiz-adv-x="1102" 
d="M272 700h690q81 0 116.5 -43t21.5 -125l-9 -51q-11 -58 -33.5 -87t-63.5 -39q78 -32 60 -142l-11 -65q-14 -82 -53.5 -115t-121.5 -33h-340l-11 -22h103q58 0 47 -57l-5 -28q-5 -30 -19 -41.5t-43 -11.5h-260l11 60h195q8 0 11 8l1 8q3 9 -8 9h-130l5 28l23 47h-289
q-82 0 -117 43t-21 126l16 94h224l-10 -56q-4 -25 5 -35.5t34 -10.5h482q24 0 33.5 9t14.5 34l7 38q10 46 -39 46h-408l25 139h403q24 0 34 9t15 34l4 23q5 25 -4 35.5t-35 10.5h-461q-24 0 -34 -8.5t-15 -33.5l-9 -52h-224l19 107q14 82 53.5 115t120.5 33z" />
    <glyph glyph-name="uni0499" unicode="&#x499;" horiz-adv-x="972" 
d="M209 536h637q127 0 105 -127l-7 -38q-16 -82 -74 -99q61 -22 46 -107l-9 -49q-11 -63 -42.5 -89.5t-93.5 -26.5h-308l-11 -22h103q57 0 47 -57l-5 -28q-5 -30 -19 -41.5t-43 -11.5h-260l11 60h195q8 0 11 8l1 8q3 9 -8 9h-130l5 28l23 47h-265q-126 0 -105 128l13 74h212
l-7 -38q-3 -19 3.5 -26t25.5 -7h398q19 0 26.5 7t11.5 26l4 21q4 19 -2.5 26.5t-25.5 7.5h-336l19 109h329q19 0 27 7t12 26l2 11q3 18 -3 25.5t-25 7.5h-383q-19 0 -27 -6.5t-11 -25.5l-6 -33h-211l14 81q10 63 41.5 89t94.5 26z" />
    <glyph glyph-name="uni04BB" unicode="&#x4bb;" horiz-adv-x="985" 
d="M486 536h312q192 0 157 -192l-60 -344h-219l55 315q6 31 -4.5 43t-41.5 12h-303q-49 0 -80 -22l-26 -19l-58 -329h-219l124 700h219l-38 -215q43 33 79 42q35 9 103 9z" />
    <glyph glyph-name="uni04C0" unicode="&#x4c0;" horiz-adv-x="340" 
d="M5 0l124 700h235l-124 -700h-235z" />
    <glyph glyph-name="uni04C1" unicode="&#x4c1;" horiz-adv-x="1837" 
d="M1221 736h-340q-78 0 -64 77l9 51h150l-4 -24q-4 -25 22 -25h140q24 0 28 25l4 24h150l-9 -55q-6 -39 -26.5 -56t-59.5 -17zM1536 700h371l-567 -344l447 -356h-349l-393 334l-59 -334h-232l59 331l-488 -331h-371l574 360l-446 340h349l391 -315l56 315h232l-56 -314z
" />
    <glyph glyph-name="uni04C2" unicode="&#x4c2;" horiz-adv-x="1658" 
d="M1103 572h-340q-78 0 -64 77l9 51h150l-4 -24q-4 -25 22 -25h140q24 0 28 25l4 24h150l-9 -55q-6 -39 -26.5 -56t-59.5 -17zM1332 536h372l-473 -269l385 -267h-351l-331 245l-43 -245h-219l42 240l-396 -240h-372l482 275l-379 261h350l324 -248l44 248h219l-43 -243z
" />
    <glyph glyph-name="uni04D0" unicode="&#x4d0;" horiz-adv-x="1152" 
d="M879 736h-340q-78 0 -64 77l9 51h150l-4 -24q-4 -25 22 -25h140q24 0 28 25l4 24h150l-9 -55q-6 -39 -26.5 -56t-59.5 -17zM1113 0h-257l-51 120h-492l-94 -120h-275l578 700h261zM631 526l-193 -246h298z" />
    <glyph glyph-name="uni04D1" unicode="&#x4d1;" horiz-adv-x="977" 
d="M762 572h-340q-78 0 -64 77l9 51h150l-4 -24q-4 -25 22 -25h140q24 0 28 25l4 24h150l-9 -55q-6 -39 -26.5 -56t-59.5 -17zM260 536h532q190 0 156 -190l-61 -346h-186l-6 54q-44 -33 -81 -44q-33 -10 -104 -10h-384q-63 0 -93.5 36.5t-17.5 98.5l10 56q12 63 46 92
t96 29h556l6 33q5 31 -5 43t-41 12h-344q-25 0 -35.5 -9t-14.5 -34l-2 -14h-212l7 43q13 81 54.5 115.5t123.5 34.5zM272 123h328q42 0 69 21l28 20l5 28l4 22h-422q-22 0 -30.5 -7.5t-12.5 -29.5l-3 -15q-3 -22 4 -30.5t30 -8.5z" />
    <glyph glyph-name="uni04D2" unicode="&#x4d2;" horiz-adv-x="1152" 
d="M460 856h176l-20 -116h-176zM724 856h176l-20 -116h-176zM1113 0h-257l-51 120h-492l-94 -120h-275l578 700h261zM631 526l-193 -246h298z" />
    <glyph glyph-name="uni04D3" unicode="&#x4d3;" horiz-adv-x="977" 
d="M343 692h176l-20 -116h-176zM607 692h176l-20 -116h-176zM260 536h532q190 0 156 -190l-61 -346h-186l-6 54q-44 -33 -81 -44q-33 -10 -104 -10h-384q-63 0 -93.5 36.5t-17.5 98.5l10 56q12 63 46 92t96 29h556l6 33q5 31 -5 43t-41 12h-344q-25 0 -35.5 -9t-14.5 -34
l-2 -14h-212l7 43q13 81 54.5 115.5t123.5 34.5zM272 123h328q42 0 69 21l28 20l5 28l4 22h-422q-22 0 -30.5 -7.5t-12.5 -29.5l-3 -15q-3 -22 4 -30.5t30 -8.5z" />
    <glyph glyph-name="uni04D4" unicode="&#x4d4;" horiz-adv-x="1578" 
d="M1621 700l-30 -165h-728l48 -110h621l-24 -135h-538l54 -124h512l-29 -166h-667l-48 120h-479l-94 -120h-275l578 700h1099zM629 524l-191 -244h289z" />
    <glyph glyph-name="uni04D5" unicode="&#x4d5;" horiz-adv-x="1649" 
d="M977 536h492q189 0 155 -190l-19 -107h-676l-6 -33q-5 -31 5 -43t41 -12h368q24 0 34.5 9t15.5 34l2 11h211l-10 -55q-15 -82 -55.5 -116t-121.5 -34h-522q-98 0 -137 50q-45 -32 -78 -41q-34 -9 -102 -9h-448q-62 0 -92.5 36.5t-18.5 98.5l11 56q12 63 46 92t95 29h556
l6 33q5 31 -5 43t-41 12h-344q-25 0 -35.5 -9.5t-14.5 -33.5l-2 -14h-212l7 43q13 81 54.5 115.5t123.5 34.5h492q74 0 107 -37q37 37 118 37zM950 355l-3 -14h466l2 12q5 31 -5 42.5t-41 11.5h-358q-31 0 -43.5 -10.5t-17.5 -41.5zM669 144l28 20l9 50h-422
q-22 0 -30.5 -7.5t-12.5 -29.5l-3 -15q-3 -22 4 -30.5t30 -8.5h328q42 0 69 21z" />
    <glyph glyph-name="uni04D6" unicode="&#x4d6;" horiz-adv-x="1002" 
d="M803 736h-340q-78 0 -64 77l9 51h150l-4 -24q-4 -25 22 -25h140q24 0 28 25l4 24h150l-9 -55q-6 -39 -26.5 -56t-59.5 -17zM1044 700l-30 -170h-688l-18 -101h648l-25 -144h-649l-20 -115h698l-30 -170h-930l124 700h920z" />
    <glyph glyph-name="uni04D7" unicode="&#x4d7;" horiz-adv-x="972" 
d="M760 572h-340q-78 0 -64 77l9 51h150l-4 -24q-4 -25 22 -25h140q24 0 28 25l4 24h150l-9 -55q-6 -39 -26.5 -56t-59.5 -17zM259 536h532q96 0 134 -46.5t22 -142.5l-19 -108h-676l-6 -33q-5 -31 4.5 -43t40.5 -12h368q24 0 34.5 9t15.5 34l2 11h212l-10 -54
q-16 -83 -56 -117t-121 -34h-556q-188 0 -155 190l30 172q16 96 62 135t142 39zM272 355l-2 -14h465l2 12q5 31 -4.5 42.5t-40.5 11.5h-359q-30 0 -43 -11t-18 -41z" />
    <glyph glyph-name="uni04DC" unicode="&#x4dc;" horiz-adv-x="1837" 
d="M802 856h176l-20 -116h-176zM1066 856h176l-20 -116h-176zM1536 700h371l-567 -344l447 -356h-349l-393 334l-59 -334h-232l59 331l-488 -331h-371l574 360l-446 340h349l391 -315l56 315h232l-56 -314z" />
    <glyph glyph-name="uni04DD" unicode="&#x4dd;" horiz-adv-x="1658" 
d="M684 692h176l-20 -116h-176zM948 692h176l-20 -116h-176zM1332 536h372l-473 -269l385 -267h-351l-331 245l-43 -245h-219l42 240l-396 -240h-372l482 275l-379 261h350l324 -248l44 248h219l-43 -243z" />
    <glyph glyph-name="uni04DE" unicode="&#x4de;" horiz-adv-x="1102" 
d="M435 856h176l-20 -116h-176zM699 856h176l-20 -116h-176zM272 700h690q81 0 116.5 -43t21.5 -125l-9 -51q-11 -58 -33.5 -87t-63.5 -39q78 -32 60 -142l-11 -65q-14 -82 -53.5 -115t-121.5 -33h-709q-82 0 -117 43t-21 126l16 94h224l-10 -56q-4 -25 5 -35.5t34 -10.5
h482q24 0 33.5 9t14.5 34l7 38q10 46 -39 46h-408l25 139h403q24 0 34 9t15 34l4 23q5 25 -4 35.5t-35 10.5h-461q-24 0 -34 -8.5t-15 -33.5l-9 -52h-224l19 107q14 82 53.5 115t120.5 33z" />
    <glyph glyph-name="uni04DF" unicode="&#x4df;" horiz-adv-x="972" 
d="M341 692h176l-20 -116h-176zM605 692h176l-20 -116h-176zM209 536h637q127 0 105 -127l-7 -38q-16 -82 -74 -99q61 -22 46 -107l-9 -49q-11 -63 -42.5 -89.5t-93.5 -26.5h-653q-126 0 -105 128l13 74h212l-7 -38q-3 -19 3.5 -26t25.5 -7h398q19 0 26.5 7t11.5 26l4 21
q4 19 -2.5 26.5t-25.5 7.5h-336l19 109h329q19 0 27 7t12 26l2 11q3 18 -3 25.5t-25 7.5h-383q-19 0 -27 -6.5t-11 -25.5l-6 -33h-211l14 81q10 63 41.5 89t94.5 26z" />
    <glyph glyph-name="uni04E2" unicode="&#x4e2;" horiz-adv-x="1132" 
d="M398 848h504l-17 -95h-504zM271 266l691 434h198l-124 -700h-224l78 440l-700 -440h-190l124 700h224z" />
    <glyph glyph-name="uni04E3" unicode="&#x4e3;" horiz-adv-x="1003" 
d="M303 684h504l-17 -95h-504zM250 222l568 314h186l-95 -536h-211l56 319l-578 -319h-177l95 536h211z" />
    <glyph glyph-name="uni04E4" unicode="&#x4e4;" horiz-adv-x="1132" 
d="M431 856h176l-20 -116h-176zM695 856h176l-20 -116h-176zM271 266l691 434h198l-124 -700h-224l78 440l-700 -440h-190l124 700h224z" />
    <glyph glyph-name="uni04E5" unicode="&#x4e5;" horiz-adv-x="1003" 
d="M336 692h176l-20 -116h-176zM600 692h176l-20 -116h-176zM250 222l568 314h186l-95 -536h-211l56 319l-578 -319h-177l95 536h211z" />
    <glyph glyph-name="uni04E6" unicode="&#x4e6;" horiz-adv-x="1125" 
d="M602 740h-176l20 116h176zM866 740h-176l20 116h176zM846 0h-642q-103 0 -148 54t-26 158l52 296q19 104 71 148t155 44h642q103 0 148 -54t26 -158l-52 -296q-19 -104 -71 -148t-155 -44zM323 183h453q36 0 51.5 13.5t21.5 49.5l37 204q6 36 -6.5 51.5t-48.5 15.5h-453
q-36 0 -51.5 -13.5t-21.5 -49.5l-37 -204q-6 -36 6.5 -51.5t48.5 -15.5z" />
    <glyph glyph-name="uni04E7" unicode="&#x4e7;" horiz-adv-x="982" 
d="M502 576h-176l20 116h176zM766 576h-176l20 116h176zM724 0h-541q-191 0 -158 192l30 172q17 98 62 134q46 38 141 38h541q191 0 158 -192l-30 -172q-17 -97 -61 -134q-47 -38 -142 -38zM295 161h359q31 0 43.5 10.5t17.5 41.5l19 107q5 31 -5.5 43t-41.5 12h-359
q-31 0 -43.5 -10.5t-17.5 -41.5l-19 -107q-5 -31 5.5 -43t41.5 -12z" />
    <glyph glyph-name="uni04EC" unicode="&#x4ec;" horiz-adv-x="1111" 
d="M439 856h176l-20 -116h-176zM703 856h176l-20 -116h-176zM306 700h632q103 0 148 -54t26 -158l-53 -296q-19 -104 -70.5 -148t-154.5 -44h-632q-103 0 -148 54.5t-27 157.5l15 86h224l-11 -68q-7 -36 5.5 -51t48.5 -15h451q36 0 52 13.5t22 49.5l11 60h-457l24 135h457
l8 48q6 36 -6.5 51t-47.5 15h-452q-35 0 -51.5 -14t-22.5 -49l-11 -64h-224l18 99q19 104 71 148t155 44z" />
    <glyph glyph-name="uni04ED" unicode="&#x4ed;" horiz-adv-x="974" 
d="M342 692h176l-20 -116h-176zM606 692h176l-20 -116h-176zM257 536h534q191 0 158 -192l-30 -172q-17 -96 -62 -134q-46 -38 -141 -38h-533q-192 0 -158 193l7 43h211l-6 -34q-6 -30 5 -43t42 -13h360q30 0 42 11t18 42l4 23h-370l17 102h372l2 11q5 30 -6 42.5t-42 12.5
h-359q-30 0 -42.5 -11t-17.5 -41l-6 -33h-211l10 59q17 98 61 135t141 37z" />
    <glyph glyph-name="uni04EE" unicode="&#x4ee;" horiz-adv-x="1092" 
d="M380 848h504l-17 -95h-504zM559 405l313 295h304l-776 -700h-304l299 268l-327 432h283z" />
    <glyph glyph-name="uni04EF" unicode="&#x4ef;" horiz-adv-x="978" 
d="M303 684h504l-17 -95h-504zM465 196l292 340h275l-505 -542q-84 -93 -148 -124q-63 -30 -178 -30h-225l29 161h214q36 0 56 9t46 38l-279 488h252z" />
    <glyph glyph-name="uni04F0" unicode="&#x4f0;" horiz-adv-x="1092" 
d="M413 856h176l-20 -116h-176zM677 856h176l-20 -116h-176zM559 405l313 295h304l-776 -700h-304l299 268l-327 432h283z" />
    <glyph glyph-name="uni04F1" unicode="&#x4f1;" horiz-adv-x="978" 
d="M336 692h176l-20 -116h-176zM600 692h176l-20 -116h-176zM465 196l292 340h275l-505 -542q-84 -93 -148 -124q-63 -30 -178 -30h-225l29 161h214q36 0 56 9t46 38l-279 488h252z" />
    <glyph glyph-name="uni04F2" unicode="&#x4f2;" horiz-adv-x="1092" 
d="M484 864h226l-148 -128h-184zM994 864l-148 -128h-185l106 128h227zM559 405l313 295h304l-776 -700h-304l299 268l-327 432h283z" />
    <glyph glyph-name="uni04F3" unicode="&#x4f3;" horiz-adv-x="978" 
d="M407 700h226l-148 -128h-184zM917 700l-148 -128h-185l106 128h227zM465 196l292 340h275l-505 -542q-84 -93 -148 -124q-63 -30 -178 -30h-225l29 161h214q36 0 56 9t46 38l-279 488h252z" />
    <glyph glyph-name="uni04F4" unicode="&#x4f4;" horiz-adv-x="1088" 
d="M583 740h-176l20 116h176zM847 740h-176l20 116h176zM992 0h-232l37 204h-592q-191 0 -158 192l53 304h232l-44 -250q-5 -31 5.5 -43t41.5 -12h496l53 305h232z" />
    <glyph glyph-name="uni04F5" unicode="&#x4f5;" horiz-adv-x="600" 
d="M279 576h-176l20 116h176zM543 576h-176l20 116h176zM72 536h219l-32 -175q-4 -25 4.5 -35t33.5 -10h397l38 220h220l-96 -536h-219l27 151h-494q-166 0 -138 166z" />
    <glyph glyph-name="uni04F8" unicode="&#x4f8;" horiz-adv-x="1408" 
d="M1277 740h-176l20 116h176zM1541 740h-176l20 116h176zM0 0l124 700h232l-35 -200h572q191 0 157 -192l-23 -136q-17 -97 -61 -134q-47 -38 -142 -38h-824zM1073 0l124 700h235l-124 -700h-235zM768 341h-476l-29 -174h480q30 0 42.5 11t17.5 42l12 66q5 31 -5.5 43
t-41.5 12z" />
    <glyph glyph-name="uni04F9" unicode="&#x4f9;" horiz-adv-x="1273" 
d="M1122 576h-176l20 116h176zM1386 576h-176l20 116h176zM-1 0l95 536h219l-26 -148h498q163 0 134 -162l-14 -80q-14 -81 -53 -113.5t-120 -32.5h-733zM1175 0h-222l95 536h222zM662 258h-398l-21 -120h400q23 0 34 9t15 32l6 36q4 24 -4 33.5t-32 9.5z" />
    <glyph glyph-name="Wgrave" unicode="&#x1e80;" horiz-adv-x="1530" 
d="M828 864l95 -128h-180l-146 128h231zM1065 246l286 454h263l-469 -700h-199l-153 446l-310 -446h-193l-222 700h246l125 -454l306 454h172z" />
    <glyph glyph-name="wgrave" unicode="&#x1e81;" horiz-adv-x="1338" 
d="M706 700l95 -128h-180l-146 128h231zM915 216l216 320h253l-394 -536h-188l-125 330l-240 -330h-184l-203 536h231l105 -319l234 319h171z" />
    <glyph glyph-name="Wacute" unicode="&#x1e82;" horiz-adv-x="1530" 
d="M870 864h252l-189 -128h-202zM1065 246l286 454h263l-469 -700h-199l-153 446l-310 -446h-193l-222 700h246l125 -454l306 454h172z" />
    <glyph glyph-name="wacute" unicode="&#x1e83;" horiz-adv-x="1338" 
d="M748 700h252l-189 -128h-202zM915 216l216 320h253l-394 -536h-188l-125 330l-240 -330h-184l-203 536h231l105 -319l234 319h171z" />
    <glyph glyph-name="Wdieresis" unicode="&#x1e84;" horiz-adv-x="1530" 
d="M632 856h176l-20 -116h-176zM896 856h176l-20 -116h-176zM1065 246l286 454h263l-469 -700h-199l-153 446l-310 -446h-193l-222 700h246l125 -454l306 454h172z" />
    <glyph glyph-name="wdieresis" unicode="&#x1e85;" horiz-adv-x="1338" 
d="M510 692h176l-20 -116h-176zM774 692h176l-20 -116h-176zM915 216l216 320h253l-394 -536h-188l-125 330l-240 -330h-184l-203 536h231l105 -319l234 319h171z" />
    <glyph glyph-name="uni1E9E" unicode="&#x1e9e;" horiz-adv-x="1125" 
d="M312 700h807l-17 -95l-315 -170h163q81 0 116.5 -43t21.5 -125l-20 -119q-13 -81 -53 -114.5t-122 -33.5h-538l29 159h412q24 0 34 9t15 34l9 48q4 25 -4 35.5t-34 10.5h-388l20 111l225 116h-290q-36 0 -52 -13.5t-22 -48.5l-81 -461h-233l91 508q19 104 71 148t155 44z
" />
    <glyph glyph-name="Ygrave" unicode="&#x1ef2;" horiz-adv-x="1092" 
d="M617 864l95 -128h-180l-146 128h231zM873 700h303l-517 -446l-45 -254h-232l45 253l-359 447h285l211 -276z" />
    <glyph glyph-name="ygrave" unicode="&#x1ef3;" horiz-adv-x="978" 
d="M532 700l95 -128h-180l-146 128h231zM465 196l292 340h275l-505 -542q-84 -93 -148 -124q-63 -30 -178 -30h-225l29 161h214q36 0 56 9t46 38l-279 488h252z" />
    <glyph glyph-name="endash" unicode="&#x2013;" horiz-adv-x="940" 
d="M35 263l30 174h868l-30 -174h-868z" />
    <glyph glyph-name="emdash" unicode="&#x2014;" horiz-adv-x="1220" 
d="M35 263l30 174h1148l-30 -174h-1148z" />
    <glyph glyph-name="quoteleft" unicode="&#x2018;" horiz-adv-x="348" 
d="M223 700h150l-94 -160h68l-35 -204h-252l13 76q15 84 61 151z" />
    <glyph glyph-name="quoteright" unicode="&#x2019;" horiz-adv-x="348" 
d="M213 336h-150l94 160h-68l35 204h252l-13 -76q-15 -84 -61 -151z" />
    <glyph glyph-name="quotesinglbase" unicode="&#x201a;" horiz-adv-x="348" 
d="M126 -160h-150l94 160h-68l35 204h252l-13 -76q-15 -84 -61 -151z" />
    <glyph glyph-name="quotedblleft" unicode="&#x201c;" horiz-adv-x="672" 
d="M223 700h150l-94 -160h68l-35 -204h-252l13 76q15 84 61 151zM547 700h150l-94 -160h68l-35 -204h-252l13 76q15 84 61 151z" />
    <glyph glyph-name="quotedblright" unicode="&#x201d;" horiz-adv-x="672" 
d="M213 336h-150l94 160h-68l35 204h252l-13 -76q-15 -84 -61 -151zM537 336h-150l94 160h-68l35 204h252l-13 -76q-15 -84 -61 -151z" />
    <glyph glyph-name="quotedblbase" unicode="&#x201e;" horiz-adv-x="672" 
d="M126 -160h-150l94 160h-68l35 204h252l-13 -76q-15 -84 -61 -151zM450 -160h-150l94 160h-68l35 204h252l-13 -76q-15 -84 -61 -151z" />
    <glyph glyph-name="dagger" unicode="&#x2020;" horiz-adv-x="622" 
d="M437 585h207l-21 -118h-207l-37 -209h-140l37 209h-207l21 118h207l20 115h140z" />
    <glyph glyph-name="daggerdbl" unicode="&#x2021;" horiz-adv-x="622" 
d="M646 594l-20 -114h-207l-18 -106h206l-20 -114h-206l-19 -106h-141l19 106h-207l20 114h207l18 106h-206l20 114h206l19 106h141l-19 -106h207z" />
    <glyph glyph-name="bullet" unicode="&#x2022;" horiz-adv-x="460" 
d="M299 168h-161q-52 0 -74.5 27.5t-13.5 79.5l28 161q9 52 35.5 74t78.5 22h160q106 0 88 -107l-28 -161q-9 -51 -35 -73.5t-78 -22.5z" />
    <glyph glyph-name="perthousand" unicode="&#x2030;" horiz-adv-x="1650" 
d="M542 510l-18 -108q-9 -54 -36.5 -77t-81.5 -23h-256q-53 0 -76 28.5t-14 81.5l18 108q9 54 36.5 77t81.5 23h256q108 0 90 -110zM219 0h-143l859 620h144zM210 399h162q19 0 27 7t11 25l10 59q4 19 -2.5 26t-25.5 7h-162q-18 0 -26 -6.5t-12 -25.5l-10 -59q-6 -33 28 -33
zM959 0h-256q-53 0 -76.5 28.5t-14.5 81.5l19 108q9 54 36.5 77t81.5 23h256q108 0 90 -110l-19 -108q-9 -54 -36.5 -77t-80.5 -23zM1469 0h-256q-53 0 -76.5 28.5t-14.5 81.5l19 108q9 54 36.5 77t81.5 23h256q108 0 90 -110l-19 -108q-9 -54 -36.5 -77t-80.5 -23zM763 97
h162q19 0 26.5 7t10.5 25l11 59q3 19 -3.5 26t-24.5 7h-163q-18 0 -26 -6.5t-11 -25.5l-11 -59q-6 -33 29 -33zM1273 97h162q19 0 26.5 7t10.5 25l11 59q3 19 -3.5 26t-24.5 7h-163q-18 0 -26 -6.5t-11 -25.5l-11 -59q-6 -33 29 -33z" />
    <glyph glyph-name="guilsinglleft" unicode="&#x2039;" horiz-adv-x="676" 
d="M71 422l619 176l-30 -167l-340 -81l310 -92l-28 -156l-553 196z" />
    <glyph glyph-name="guilsinglright" unicode="&#x203a;" horiz-adv-x="676" 
d="M75 442l28 156l553 -196l-22 -124l-619 -176l30 167l340 81z" />
    <glyph glyph-name="fraction" unicode="&#x2044;" horiz-adv-x="321" 
d="M-165 0h-139l818 700h139z" />
    <glyph glyph-name="Euro" unicode="&#x20ac;" horiz-adv-x="1072" 
d="M364 700h526q103 0 148 -54.5t27 -157.5l-14 -79h-216l11 65q7 35 -6 50t-49 15h-362q-35 0 -50.5 -13.5t-21.5 -49.5l-3 -17h402l-15 -83h-402l-9 -52h402l-15 -83h-401l-3 -15q-7 -35 6 -50t49 -15h361q36 0 51 13.5t22 49.5l13 74h216l-19 -106q-19 -104 -71 -148
t-155 -44h-526q-103 0 -148 54t-26 158l5 29h-94l15 83h94l9 52h-94l15 83h94l9 49q19 104 70.5 148t154.5 44z" />
    <glyph glyph-name="trademark" unicode="&#x2122;" horiz-adv-x="786" 
d="M431 700l-13 -68h-125l-29 -165h-81l29 165h-124l12 68h331zM620 575l145 125h74l-42 -233h-79l23 132l-109 -96h-44l-77 96l-24 -132h-78l42 233h68z" />
    <glyph glyph-name="minus" unicode="&#x2212;" 
d="M55 263l30 174h920l-30 -174h-920z" />
    <glyph glyph-name="approxequal" unicode="&#x2248;" 
d="M544 636l208 -135q14 -9 30 -9h32q18 0 21 18l28 164h184l-37 -210q-10 -53 -36 -75.5t-79 -22.5h-168q-56 0 -84 7q-32 8 -66 32l-208 134q-13 9 -30 9h-32q-18 0 -21 -18l-29 -164h-184l38 210q9 53 35 75.5t79 22.5h169q56 0 84 -7q30 -8 66 -31zM484 296l208 -135
q14 -9 30 -9h32q18 0 21 18l28 164h184l-37 -210q-10 -53 -36 -75.5t-79 -22.5h-168q-56 0 -84 7q-32 8 -66 32l-208 134q-13 9 -30 9h-32q-18 0 -21 -18l-29 -164h-184l38 210q9 53 35 75.5t79 22.5h169q56 0 84 -7q30 -8 66 -31z" />
    <glyph glyph-name="notequal" unicode="&#x2260;" 
d="M1028 565l-29 -166h-343l-70 -98h396l-29 -166h-487l-77 -107h-182l77 107h-251l29 166h342l71 98h-396l29 166h487l77 107h181l-77 -107h252z" />
    <glyph glyph-name="lessequal" unicode="&#x2264;" 
d="M103 534l948 158l-32 -180l-585 -64l560 -76l-29 -166l-888 178zM930 8h-920l27 150h920z" />
    <glyph glyph-name="greaterequal" unicode="&#x2265;" 
d="M102 526l29 166l888 -178l-26 -150l-948 -158l32 180l587 64zM930 8h-920l27 150h920z" />
    <glyph glyph-name="fi" unicode="&#xfb01;" horiz-adv-x="1113" 
d="M462 470h351l-28 -158h-351l-55 -312h-219l55 312h-195l28 158h195l14 80q15 82 55.5 116t121.5 34h420l-27 -152h-310q-24 0 -34 -9t-15 -34zM895 576l22 124h222l-22 -124h-222zM1015 0h-222l95 536h222z" />
    <glyph glyph-name="fl" unicode="&#xfb02;" horiz-adv-x="1113" 
d="M462 470h351l-28 -158h-351l-55 -312h-219l55 312h-195l28 158h195l14 80q15 82 55.5 116t121.5 34h420l-27 -152h-310q-24 0 -34 -9t-15 -34zM793 0l124 700h222l-124 -700h-222z" />
    <glyph glyph-name="null" horiz-adv-x="0" 
 />
    <glyph glyph-name="A.ss01" horiz-adv-x="1117" 
d="M311 700h627q103 0 148 -54t26 -158l-86 -488h-232l30 167h-567l-30 -167h-232l91 508q19 104 70.5 148t154.5 44zM308 455l-21 -118h567l20 114q6 35 -6.5 50.5t-48.5 15.5h-438q-36 0 -51.5 -13.5t-21.5 -48.5z" />
    <glyph glyph-name="Aacute.ss01" horiz-adv-x="1117" 
d="M680 864h252l-189 -128h-202zM311 700h627q103 0 148 -54t26 -158l-86 -488h-232l30 167h-567l-30 -167h-232l91 508q19 104 70.5 148t154.5 44zM308 455l-21 -118h567l20 114q6 35 -6.5 50.5t-48.5 15.5h-438q-36 0 -51.5 -13.5t-21.5 -48.5z" />
    <glyph glyph-name="Abreve.ss01" horiz-adv-x="1117" 
d="M812 736h-340q-78 0 -64 77l9 51h150l-4 -24q-4 -25 22 -25h140q24 0 28 25l4 24h150l-9 -55q-6 -39 -26.5 -56t-59.5 -17zM311 700h627q103 0 148 -54t26 -158l-86 -488h-232l30 167h-567l-30 -167h-232l91 508q19 104 70.5 148t154.5 44zM308 455l-21 -118h567l20 114
q6 35 -6.5 50.5t-48.5 15.5h-438q-36 0 -51.5 -13.5t-21.5 -48.5z" />
    <glyph glyph-name="Acircumflex.ss01" horiz-adv-x="1117" 
d="M746 736l-89 52l-107 -52h-168l168 128h226l124 -128h-154zM311 700h627q103 0 148 -54t26 -158l-86 -488h-232l30 167h-567l-30 -167h-232l91 508q19 104 70.5 148t154.5 44zM308 455l-21 -118h567l20 114q6 35 -6.5 50.5t-48.5 15.5h-438q-36 0 -51.5 -13.5
t-21.5 -48.5z" />
    <glyph glyph-name="Adieresis.ss01" horiz-adv-x="1117" 
d="M442 856h176l-20 -116h-176zM706 856h176l-20 -116h-176zM311 700h627q103 0 148 -54t26 -158l-86 -488h-232l30 167h-567l-30 -167h-232l91 508q19 104 70.5 148t154.5 44zM308 455l-21 -118h567l20 114q6 35 -6.5 50.5t-48.5 15.5h-438q-36 0 -51.5 -13.5t-21.5 -48.5z
" />
    <glyph glyph-name="Agrave.ss01" horiz-adv-x="1117" 
d="M638 864l95 -128h-180l-146 128h231zM311 700h627q103 0 148 -54t26 -158l-86 -488h-232l30 167h-567l-30 -167h-232l91 508q19 104 70.5 148t154.5 44zM308 455l-21 -118h567l20 114q6 35 -6.5 50.5t-48.5 15.5h-438q-36 0 -51.5 -13.5t-21.5 -48.5z" />
    <glyph glyph-name="Amacron.ss01" horiz-adv-x="1117" 
d="M409 848h504l-17 -95h-504zM311 700h627q103 0 148 -54t26 -158l-86 -488h-232l30 167h-567l-30 -167h-232l91 508q19 104 70.5 148t154.5 44zM308 455l-21 -118h567l20 114q6 35 -6.5 50.5t-48.5 15.5h-438q-36 0 -51.5 -13.5t-21.5 -48.5z" />
    <glyph glyph-name="Aogonek.ss01" horiz-adv-x="1117" 
d="M820 -28l-1 -7q-1 -19 16 -19h195l-18 -106h-263q-43 0 -59.5 20.5t-11.5 65.5l2 16q4 31 17 50.5t46 40.5l64 39l17 95h-567l-30 -167h-232l91 508q19 104 70.5 148t154.5 44h627q103 0 148 -54t26 -158l-86 -488h-178l-12 -7q-16 -9 -16 -21zM308 455l-21 -118h567
l20 114q6 35 -6.5 50.5t-48.5 15.5h-438q-36 0 -51.5 -13.5t-21.5 -48.5z" />
    <glyph glyph-name="Aring.ss01" horiz-adv-x="1117" 
d="M773 726h-263q-58 0 -47 57l4 28q5 29 19 41t44 12h263q57 0 47 -57l-4 -28q-5 -29 -19 -41t-44 -12zM545 801l-2 -12q-2 -11 0.5 -14.5t13.5 -3.5h181q11 0 14.5 3t5.5 15l2 12q2 11 -0.5 14.5t-13.5 3.5h-181q-11 0 -14.5 -3t-5.5 -15zM311 700h627q103 0 148 -54
t26 -158l-86 -488h-232l30 167h-567l-30 -167h-232l91 508q19 104 70.5 148t154.5 44zM308 455l-21 -118h567l20 114q6 35 -6.5 50.5t-48.5 15.5h-438q-36 0 -51.5 -13.5t-21.5 -48.5z" />
    <glyph glyph-name="Aringacute.ss01" horiz-adv-x="1117" 
d="M823 700h115q103 0 148 -54t26 -158l-86 -488h-232l30 167h-567l-30 -167h-232l91 508q19 104 70.5 148t154.5 44h141q0 1 2 19l5 28q5 30 18.5 41.5t43.5 11.5h67l58 64h226l-85 -64q55 -2 45 -57l-5 -28q-1 -5 -4 -15zM536 737l-2 -12q-2 -11 0.5 -14.5t13.5 -3.5h181
q11 0 15 3.5t6 14.5l2 12q2 11 -1 14.5t-13 3.5h-182q-10 0 -14 -3.5t-6 -14.5zM308 455l-21 -118h567l20 114q6 35 -6.5 50.5t-48.5 15.5h-438q-36 0 -51.5 -13.5t-21.5 -48.5z" />
    <glyph glyph-name="Atilde.ss01" horiz-adv-x="1117" 
d="M539 789l-9 -53h-126l13 80q11 48 58 48h175q23 0 34.5 -5.5t21.5 -21.5l21 -28q5 -6 14 -6h16q7 0 9 8l9 53h127l-14 -80q-9 -48 -57 -48h-176q-23 0 -34.5 5.5t-21.5 21.5l-21 28q-5 6 -13 6h-16q-8 0 -10 -8zM311 700h627q103 0 148 -54t26 -158l-86 -488h-232l30 167
h-567l-30 -167h-232l91 508q19 104 70.5 148t154.5 44zM308 455l-21 -118h567l20 114q6 35 -6.5 50.5t-48.5 15.5h-438q-36 0 -51.5 -13.5t-21.5 -48.5z" />
    <glyph glyph-name="I.ss01" horiz-adv-x="796" 
d="M849 700l-30 -166h-256l-65 -368h257l-30 -166h-748l30 166h256l65 368h-257l30 166h748z" />
    <glyph glyph-name="Iacute.ss01" horiz-adv-x="796" 
d="M519 864h252l-189 -128h-202zM849 700l-30 -166h-256l-65 -368h257l-30 -166h-748l30 166h256l65 368h-257l30 166h748z" />
    <glyph glyph-name="Icircumflex.ss01" horiz-adv-x="796" 
d="M585 736l-89 52l-107 -52h-168l168 128h226l124 -128h-154zM849 700l-30 -166h-256l-65 -368h257l-30 -166h-748l30 166h256l65 368h-257l30 166h748z" />
    <glyph glyph-name="Idieresis.ss01" horiz-adv-x="796" 
d="M281 856h176l-20 -116h-176zM545 856h176l-20 -116h-176zM849 700l-30 -166h-256l-65 -368h257l-30 -166h-748l30 166h256l65 368h-257l30 166h748z" />
    <glyph glyph-name="Idotaccent.ss01" horiz-adv-x="796" 
d="M390 856h222l-19 -116h-223zM849 700l-30 -166h-256l-65 -368h257l-30 -166h-748l30 166h256l65 368h-257l30 166h748z" />
    <glyph glyph-name="Igrave.ss01" horiz-adv-x="796" 
d="M477 864l95 -128h-180l-146 128h231zM849 700l-30 -166h-256l-65 -368h257l-30 -166h-748l30 166h256l65 368h-257l30 166h748z" />
    <glyph glyph-name="Imacron.ss01" horiz-adv-x="796" 
d="M248 848h504l-17 -95h-504zM849 700l-30 -166h-256l-65 -368h257l-30 -166h-748l30 166h256l65 368h-257l30 166h748z" />
    <glyph glyph-name="Iogonek.ss01" horiz-adv-x="796" 
d="M849 700l-30 -166h-256l-65 -368h257l-30 -166h-191l-12 -7q-16 -9 -16 -21l-1 -7q-1 -19 16 -19h195l-18 -106h-263q-43 0 -59.5 20.5t-11.5 65.5l2 16q4 36 23 58h-412l30 166h256l65 368h-257l30 166h748z" />
    <glyph glyph-name="Itilde.ss01" horiz-adv-x="796" 
d="M378 789l-9 -53h-126l13 80q10 48 58 48h175q23 0 34.5 -5.5t21.5 -21.5l21 -28q4 -6 14 -6h16q7 0 9 8l9 53h127l-14 -80q-9 -48 -57 -48h-176q-23 0 -34.5 5.5t-21.5 21.5l-21 28q-5 6 -13 6h-16q-8 0 -10 -8zM849 700l-30 -166h-256l-65 -368h257l-30 -166h-748
l30 166h256l65 368h-257l30 166h748z" />
    <glyph glyph-name="R.ss01" horiz-adv-x="1087" 
d="M124 700h832q80 0 115 -42.5t21 -123.5l-21 -121q-10 -52 -29.5 -81.5t-54.5 -42.5q55 -36 39 -129l-29 -160h-232l31 175q5 27 -5 38.5t-37 11.5h-482l-40 -225h-232zM810 541h-481l-29 -162h485q28 0 40 10t16 38l12 64q4 27 -6 38.5t-37 11.5z" />
    <glyph glyph-name="Racute.ss01" horiz-adv-x="1087" 
d="M665 864h252l-189 -128h-202zM124 700h832q80 0 115 -42.5t21 -123.5l-21 -121q-10 -52 -29.5 -81.5t-54.5 -42.5q55 -36 39 -129l-29 -160h-232l31 175q5 27 -5 38.5t-37 11.5h-482l-40 -225h-232zM810 541h-481l-29 -162h485q28 0 40 10t16 38l12 64q4 27 -6 38.5
t-37 11.5z" />
    <glyph glyph-name="Rcaron.ss01" horiz-adv-x="1087" 
d="M907 864l-168 -128h-226l-124 128h154l89 -52l107 52h168zM124 700h832q80 0 115 -42.5t21 -123.5l-21 -121q-10 -52 -29.5 -81.5t-54.5 -42.5q55 -36 39 -129l-29 -160h-232l31 175q5 27 -5 38.5t-37 11.5h-482l-40 -225h-232zM810 541h-481l-29 -162h485q28 0 40 10
t16 38l12 64q4 27 -6 38.5t-37 11.5z" />
    <glyph glyph-name="Rcommaaccent.ss01" horiz-adv-x="1087" 
d="M124 700h832q80 0 115 -42.5t21 -123.5l-21 -121q-10 -52 -29.5 -81.5t-54.5 -42.5q55 -36 39 -129l-29 -160h-232l31 175q5 27 -5 38.5t-37 11.5h-482l-40 -225h-232zM810 541h-481l-29 -162h485q28 0 40 10t16 38l12 64q4 27 -6 38.5t-37 11.5zM445 -138h-73l18 108
h204l-6 -36q-6 -37 -16 -56q-11 -21 -41 -52l-51 -58h-112z" />
    <glyph glyph-name="i.loclTRK" horiz-adv-x="323" 
d="M328 576h-223l20 116h222zM225 0h-222l95 536h222z" />
    <glyph glyph-name="uni0410.ss01" horiz-adv-x="1117" 
d="M311 700h627q103 0 148 -54t26 -158l-86 -488h-232l30 167h-567l-30 -167h-232l91 508q19 104 70.5 148t154.5 44zM308 455l-21 -118h567l20 114q6 35 -6.5 50.5t-48.5 15.5h-438q-36 0 -51.5 -13.5t-21.5 -48.5z" />
    <glyph glyph-name="uni042F.ss01" horiz-adv-x="1087" 
d="M276 700h839l-124 -700h-232l40 225h-484q-27 0 -39 -10.5t-17 -37.5l-32 -177h-232l30 170q20 111 104 133q-76 25 -57 134l19 106q14 82 58.5 119.5t126.5 37.5zM315 493l-12 -64q-5 -27 4.5 -38.5t36.5 -11.5h482l29 162h-484q-27 0 -39 -10.5t-17 -37.5z" />
    <glyph glyph-name="uni044F.ss01" horiz-adv-x="962" 
d="M199 536h765l-96 -536h-219l30 169h-416q-19 0 -27 -7t-12 -27l-24 -135h-212l26 141q16 85 78 99q-56 23 -42 106l14 74q11 64 42 90t93 26zM274 372l-8 -45q-4 -19 2.5 -26.5t25.5 -7.5h407l20 111h-409q-19 0 -27 -6.5t-11 -25.5z" />
    <glyph glyph-name="zero.tf" 
d="M746 0h-536q-103 0 -148 54t-26 158l53 296q19 104 70.5 148t154.5 44h536q103 0 148.5 -54t26.5 -158l-53 -296q-19 -104 -71 -148t-155 -44zM321 177h364q35 0 50.5 13.5t21.5 49.5l38 218q6 35 -7 50t-49 15h-363q-36 0 -51 -13.5t-21 -49.5l-38 -218q-6 -35 7 -50
t48 -15z" />
    <glyph glyph-name="one.tf" 
d="M733 700l-94 -533h340l-31 -167h-960l31 167h395l62 351l-370 -23l30 175l491 30h106z" />
    <glyph glyph-name="two.tf" 
d="M957 170l-31 -170h-928l43 244q13 80 52 114t124 39l531 35q24 1 34 10t15 34l5 22q10 45 -39 45h-397q-24 0 -33.5 -8.5t-14.5 -33.5l-6 -30h-216l13 81q13 81 52.5 114.5t123.5 33.5h608q81 0 116.5 -43t22.5 -125l-16 -95q-13 -80 -52 -114t-124 -40l-532 -35
q-24 -1 -34 -10t-15 -34l-6 -34h704z" />
    <glyph glyph-name="three.tf" 
d="M279 700h607q81 0 116.5 -43t21.5 -125l-9 -51q-11 -58 -33 -87t-63 -39q77 -32 59 -141l-11 -65q-14 -83 -53.5 -116t-121.5 -33h-627q-165 0 -138 168l14 85h216l-8 -48q-4 -25 4.5 -35.5t33.5 -10.5h415q25 0 35.5 9t14.5 34l7 41q4 26 -4.5 35.5t-33.5 9.5h-356
l24 138h350q24 0 34.5 9t15.5 34l4 27q4 25 -4 35t-33 10h-396q-25 0 -34.5 -8.5t-14.5 -34.5l-8 -43h-216l17 97q14 82 53.5 115t121.5 33z" />
    <glyph glyph-name="four.tf" 
d="M832 288h188l-29 -158h-187l-23 -130h-224l23 130h-589l24 133l625 437h265zM653 540l-360 -252h315z" />
    <glyph glyph-name="five.tf" 
d="M790 0h-787l30 170h670q25 0 34.5 8.5t14.5 34.5l5 28q4 25 -4.5 35t-33.5 10h-665l73 414h905l-31 -170h-681l-14 -86h543q81 0 116 -43t21 -125l-21 -128q-14 -82 -53.5 -115t-121.5 -33z" />
    <glyph glyph-name="six.tf" 
d="M1001 530h-624q-36 0 -51.5 -13.5t-21.5 -48.5l-10 -59q33 33 108 33h447q81 0 116 -43t21 -125l-21 -125q-14 -83 -53.5 -116t-121.5 -33h-624q-81 0 -116 43t-21 125l59 340q18 104 70.5 148t155.5 44h718zM720 295h-403q-23 0 -34 -8t-16 -29l-9 -54q-4 -25 5 -35
t34 -10h404q24 0 34 9t15 34l8 48q4 25 -4.5 35t-33.5 10z" />
    <glyph glyph-name="seven.tf" 
d="M80 517l32 183h960l-28 -158l-398 -247q-41 -26 -59 -54t-27 -81l-29 -160h-228l29 166q20 104 50 153q32 53 107 92l190 106h-599z" />
    <glyph glyph-name="eight.tf" 
d="M279 700h607q81 0 116.5 -43t21.5 -125l-9 -51q-11 -58 -33 -87t-63 -39q77 -32 59 -141l-11 -65q-14 -83 -53.5 -116t-121.5 -33h-628q-164 0 -137 168l11 65q10 61 35.5 91.5t74.5 38.5q-71 32 -53 138l9 51q13 81 53 114.5t122 33.5zM320 502l-7 -35q-5 -25 3.5 -35
t34.5 -10h387q25 0 35 8.5t15 33.5l7 36q4 25 -4.5 35t-34.5 10h-388q-24 0 -33.5 -9t-14.5 -34zM751 198l9 50q4 25 -4.5 35t-33.5 10h-407q-25 0 -35 -8.5t-15 -34.5l-9 -49q-4 -25 4.5 -35t33.5 -10h408q24 0 34 8.5t15 33.5z" />
    <glyph glyph-name="nine.tf" 
d="M271 700h624q82 0 117 -43t21 -125l-60 -340q-19 -104 -71 -148t-155 -44h-719l30 168h625q35 0 51 13.5t22 49.5l10 53q-34 -32 -108 -32h-448q-81 0 -116.5 43t-20.5 125l23 132q14 82 53.5 115t121.5 33zM794 443l9 50q4 25 -5 35t-34 10h-405q-25 0 -34.5 -8.5
t-14.5 -34.5l-9 -50q-4 -25 4.5 -35.5t33.5 -10.5h404q24 0 35 9.5t16 34.5z" />
    <glyph glyph-name="zero.subs" horiz-adv-x="641" 
d="M424 -100h-325q-63 0 -90.5 33t-16.5 96l30 173q11 64 43.5 91t95.5 27h325q63 0 90.5 -33t16.5 -97l-31 -172q-12 -64 -44 -91t-94 -27zM174 17h207q18 0 26 7t11 26l20 120q3 18 -3 25.5t-24 7.5h-207q-19 0 -26.5 -7t-10.5 -26l-21 -120q-3 -19 3.5 -26t24.5 -7z" />
    <glyph glyph-name="one.subs" horiz-adv-x="603" 
d="M392 320l-55 -310h198l-19 -110h-558l20 110h209l34 189l-195 -13l21 116l269 18h76z" />
    <glyph glyph-name="two.subs" horiz-adv-x="641" 
d="M555 11l-20 -111h-566l26 147q8 50 32 71t76 24l314 18q20 1 25 23l2 16q4 21 -19 21h-225q-12 0 -17 -4.5t-8 -17.5l-4 -20h-144l8 51q8 50 32.5 70.5t75.5 20.5h369q104 0 85 -105l-9 -51q-8 -50 -32.5 -71t-76.5 -24l-313 -18q-20 -2 -24 -23l-3 -17h416z" />
    <glyph glyph-name="three.subs" horiz-adv-x="639" 
d="M139 320h369q102 0 84 -102l-4 -28q-12 -68 -61 -78q50 -17 38 -85l-6 -35q-8 -51 -33 -71.5t-76 -20.5h-381q-100 0 -83 102l8 54h145l-5 -28q-2 -14 2 -18.5t17 -4.5h237q14 0 19 4.5t6 17.5l4 20q4 23 -20 23h-207l15 86h204q13 0 18 4.5t7 17.5l2 14q2 14 -2 18.5
t-17 4.5h-225q-13 0 -18 -4.5t-7 -17.5l-5 -24h-144l11 59q9 51 33.5 71.5t74.5 20.5z" />
    <glyph glyph-name="four.subs" horiz-adv-x="657" 
d="M484 77h117l-18 -104h-117l-13 -73h-145l13 73h-350l15 87l368 260h173zM362 211l-194 -134h171z" />
    <glyph glyph-name="five.subs" horiz-adv-x="622" 
d="M431 -100h-460l20 111h380q13 0 18.5 4t7.5 16l2 16q2 12 -2 16.5t-17 4.5h-380l45 252h534l-20 -111h-385l-6 -42h299q102 0 84 -103l-12 -73q-9 -51 -33 -71t-75 -20z" />
    <glyph glyph-name="six.subs" horiz-adv-x="641" 
d="M577 209h-373q-18 0 -25.5 -7t-11.5 -26l-5 -28q20 18 63 18h259q103 0 85 -103l-11 -72q-9 -51 -33.5 -71t-75.5 -20h-377q-103 0 -85 103l35 199q11 64 43 91t96 27h436zM399 73h-228q-21 0 -26 -20l-5 -26q-3 -23 20 -23h228q13 0 18.5 4.5t7.5 17.5l4 24q2 13 -2 18
t-17 5z" />
    <glyph glyph-name="seven.subs" horiz-adv-x="616" 
d="M32 320h570l-19 -105h1l-237 -150q-34 -21 -42 -68l-17 -97h-153l19 109q10 57 29 87q16 28 62 54l85 49h-319z" />
    <glyph glyph-name="eight.subs" horiz-adv-x="639" 
d="M140 320h366q101 0 85 -103l-5 -29q-6 -35 -20 -53t-40 -23q49 -18 38 -86l-6 -35q-8 -50 -32.5 -70.5t-75.5 -20.5h-379q-102 0 -85 104l6 34q7 38 22.5 56t46.5 22q-44 20 -34 84l4 29q8 51 33 71t76 20zM175 196l-3 -19q-4 -23 20 -23h216q22 0 27 22l3 19
q2 13 -2 17.5t-18 4.5h-218q-13 0 -18 -4t-7 -17zM414 24l5 26q3 22 -19 22h-231q-13 0 -18.5 -4.5t-7.5 -17.5l-4 -25q-1 -13 3 -17.5t17 -4.5h229q14 0 19 4t7 17z" />
    <glyph glyph-name="nine.subs" horiz-adv-x="641" 
d="M135 320h377q102 0 86 -103l-35 -199q-11 -64 -43.5 -91t-95.5 -27h-437l19 110h374q34 0 38 31l5 29q-19 -19 -65 -19h-259q-103 0 -85 104l13 74q9 51 33 71t75 20zM186 144h228q20 0 25 17l5 29q3 23 -20 23h-229q-24 0 -25 -22l-4 -24q-5 -23 20 -23z" />
    <glyph glyph-name="zero.dnom" horiz-adv-x="641" 
d="M442 0h-325q-63 0 -90.5 33t-16.5 96l30 173q11 64 43.5 91t95.5 27h325q63 0 90.5 -33t16.5 -97l-31 -172q-12 -64 -44 -91t-94 -27zM192 117h207q18 0 26 7t11 26l20 120q3 18 -3 25.5t-24 7.5h-207q-19 0 -26.5 -7t-10.5 -26l-21 -120q-3 -19 3.5 -26t24.5 -7z" />
    <glyph glyph-name="one.dnom" horiz-adv-x="603" 
d="M410 420l-55 -310h198l-19 -110h-558l20 110h209l34 189l-195 -13l21 116l269 18h76z" />
    <glyph glyph-name="two.dnom" horiz-adv-x="641" 
d="M573 111l-20 -111h-566l26 147q8 50 32 71t76 24l314 18q20 1 25 23l2 16q4 21 -19 21h-225q-12 0 -17 -4.5t-8 -17.5l-4 -20h-144l8 51q8 50 32.5 70.5t75.5 20.5h369q104 0 85 -105l-9 -51q-8 -50 -32.5 -71t-76.5 -24l-313 -18q-20 -2 -24 -23l-3 -17h416z" />
    <glyph glyph-name="three.dnom" horiz-adv-x="639" 
d="M157 420h369q102 0 84 -102l-4 -28q-12 -68 -61 -78q50 -17 38 -85l-6 -35q-8 -51 -33 -71.5t-76 -20.5h-381q-100 0 -83 102l8 54h145l-5 -28q-2 -14 2 -18.5t17 -4.5h237q14 0 19 4.5t6 17.5l4 20q4 23 -20 23h-207l15 86h204q13 0 18 4.5t7 17.5l2 14q2 14 -2 18.5
t-17 4.5h-225q-13 0 -18 -4.5t-7 -17.5l-5 -24h-144l11 59q9 51 33.5 71.5t74.5 20.5z" />
    <glyph glyph-name="four.dnom" horiz-adv-x="657" 
d="M502 177h117l-18 -104h-117l-13 -73h-145l13 73h-350l15 87l368 260h173zM380 311l-194 -134h171z" />
    <glyph glyph-name="five.dnom" horiz-adv-x="622" 
d="M449 0h-460l20 111h380q13 0 18.5 4t7.5 16l2 16q2 12 -2 16.5t-17 4.5h-380l45 252h534l-20 -111h-385l-6 -42h299q102 0 84 -103l-12 -73q-9 -51 -33 -71t-75 -20z" />
    <glyph glyph-name="six.dnom" horiz-adv-x="641" 
d="M595 309h-373q-18 0 -25.5 -7t-11.5 -26l-5 -28q20 18 63 18h259q103 0 85 -103l-11 -72q-9 -51 -33.5 -71t-75.5 -20h-377q-103 0 -85 103l35 199q11 64 43 91t96 27h436zM417 173h-228q-21 0 -26 -20l-5 -26q-3 -23 20 -23h228q13 0 18.5 4.5t7.5 17.5l4 24q2 13 -2 18
t-17 5z" />
    <glyph glyph-name="seven.dnom" horiz-adv-x="616" 
d="M50 420h570l-19 -105h1l-237 -150q-34 -21 -42 -68l-17 -97h-153l19 109q10 57 29 87q16 28 62 54l85 49h-319z" />
    <glyph glyph-name="eight.dnom" horiz-adv-x="639" 
d="M158 420h366q101 0 85 -103l-5 -29q-6 -35 -20 -53t-40 -23q49 -18 38 -86l-6 -35q-8 -50 -32.5 -70.5t-75.5 -20.5h-379q-102 0 -85 104l6 34q7 38 22.5 56t46.5 22q-44 20 -34 84l4 29q8 51 33 71t76 20zM193 296l-3 -19q-4 -23 20 -23h216q22 0 27 22l3 19
q2 13 -2 17.5t-18 4.5h-218q-13 0 -18 -4t-7 -17zM432 124l5 26q3 22 -19 22h-231q-13 0 -18.5 -4.5t-7.5 -17.5l-4 -25q-1 -13 3 -17.5t17 -4.5h229q14 0 19 4t7 17z" />
    <glyph glyph-name="nine.dnom" horiz-adv-x="641" 
d="M153 420h377q102 0 86 -103l-35 -199q-11 -64 -43.5 -91t-95.5 -27h-437l19 110h374q34 0 38 31l5 29q-19 -19 -65 -19h-259q-103 0 -85 104l13 74q9 51 33 71t75 20zM204 244h228q20 0 25 17l5 29q3 23 -20 23h-229q-24 0 -25 -22l-4 -24q-5 -23 20 -23z" />
    <glyph glyph-name="zero.numr" horiz-adv-x="641" 
d="M491 280h-325q-63 0 -90.5 33t-16.5 96l30 173q11 64 43.5 91t95.5 27h325q63 0 90.5 -33t16.5 -97l-31 -172q-12 -64 -44 -91t-94 -27zM241 397h207q18 0 26 7t11 26l20 120q3 18 -3 25.5t-24 7.5h-207q-19 0 -26.5 -7t-10.5 -26l-21 -120q-3 -19 3.5 -26t24.5 -7z" />
    <glyph glyph-name="one.numr" horiz-adv-x="603" 
d="M459 700l-55 -310h198l-19 -110h-558l20 110h209l34 189l-195 -13l21 116l269 18h76z" />
    <glyph glyph-name="two.numr" horiz-adv-x="641" 
d="M622 391l-20 -111h-566l26 147q8 50 32 71t76 24l314 18q20 1 25 23l2 16q5 21 -19 21h-225q-12 0 -17 -4.5t-8 -17.5l-4 -20h-144l8 51q8 50 32.5 70.5t75.5 20.5h369q105 0 85 -105l-9 -51q-8 -50 -32.5 -71t-76.5 -24l-313 -18q-20 -2 -24 -23l-3 -17h416z" />
    <glyph glyph-name="three.numr" horiz-adv-x="639" 
d="M206 700h369q102 0 84 -102l-4 -28q-12 -68 -61 -78q50 -17 38 -85l-6 -35q-8 -51 -33 -71.5t-76 -20.5h-381q-100 0 -83 102l8 54h145l-5 -28q-2 -14 2 -18.5t17 -4.5h237q14 0 19 4.5t6 17.5l4 20q4 23 -20 23h-207l15 86h204q13 0 18 4.5t7 17.5l2 14q2 14 -2 18.5
t-17 4.5h-225q-13 0 -18 -4.5t-7 -17.5l-5 -24h-144l11 59q9 51 33.5 71.5t74.5 20.5z" />
    <glyph glyph-name="four.numr" horiz-adv-x="657" 
d="M551 457h117l-18 -104h-117l-13 -73h-145l13 73h-350l15 87l368 260h173zM429 591l-194 -134h171z" />
    <glyph glyph-name="five.numr" horiz-adv-x="622" 
d="M498 280h-460l20 111h380q13 0 18.5 4t7.5 16l2 16q2 12 -2 16.5t-17 4.5h-380l45 252h534l-20 -111h-385l-6 -42h299q102 0 84 -103l-12 -73q-9 -51 -33 -71t-75 -20z" />
    <glyph glyph-name="six.numr" horiz-adv-x="641" 
d="M644 589h-373q-18 0 -25.5 -7t-11.5 -26l-5 -28q19 18 63 18h259q103 0 85 -103l-11 -72q-9 -51 -33.5 -71t-75.5 -20h-377q-103 0 -85 103l35 199q11 64 43 91t96 27h436zM466 453h-228q-21 0 -26 -20l-5 -26q-3 -23 20 -23h228q13 0 18.5 4.5t7.5 17.5l4 24q2 13 -2 18
t-17 5z" />
    <glyph glyph-name="seven.numr" horiz-adv-x="616" 
d="M99 700h570l-19 -105h1l-237 -150q-34 -21 -42 -68l-17 -97h-153l19 109q10 57 29 87q16 28 62 54l85 49h-319z" />
    <glyph glyph-name="eight.numr" horiz-adv-x="639" 
d="M207 700h366q101 0 85 -103l-5 -29q-6 -35 -20 -53t-40 -23q49 -18 38 -86l-6 -35q-8 -50 -32.5 -70.5t-75.5 -20.5h-379q-102 0 -85 104l6 34q7 38 22.5 56t46.5 22q-44 20 -34 84l4 29q8 51 33 71t76 20zM242 576l-3 -19q-4 -23 20 -23h216q22 0 27 22l3 19
q2 13 -2 17.5t-18 4.5h-218q-13 0 -18 -4t-7 -17zM481 404l5 26q3 22 -19 22h-231q-13 0 -18.5 -4.5t-7.5 -17.5l-4 -25q-1 -13 3 -17.5t17 -4.5h229q14 0 19 4t7 17z" />
    <glyph glyph-name="nine.numr" horiz-adv-x="641" 
d="M202 700h377q102 0 86 -103l-35 -199q-11 -64 -43.5 -91t-95.5 -27h-437l19 110h374q34 0 38 31l5 29q-19 -19 -65 -19h-259q-103 0 -85 104l13 74q9 51 33 71t75 20zM253 524h228q20 0 25 17l5 29q3 23 -20 23h-229q-24 0 -25 -22l-4 -24q-5 -23 20 -23z" />
    <glyph glyph-name="zero.sups" horiz-adv-x="641" 
d="M509 380h-325q-63 0 -90.5 33t-16.5 96l30 173q11 64 43.5 91t95.5 27h325q63 0 90.5 -33t16.5 -97l-31 -172q-12 -64 -44 -91t-94 -27zM259 497h207q18 0 26 7t11 26l20 120q3 18 -3 25.5t-24 7.5h-207q-19 0 -26.5 -7t-10.5 -26l-21 -120q-3 -19 3.5 -26t24.5 -7z" />
    <glyph glyph-name="one.sups" horiz-adv-x="603" 
d="M477 800l-55 -310h198l-19 -110h-558l20 110h209l34 189l-195 -13l21 116l269 18h76z" />
    <glyph glyph-name="two.sups" horiz-adv-x="641" 
d="M640 491l-20 -111h-566l26 147q8 50 32 71t76 24l314 18q20 1 25 23l2 16q5 21 -19 21h-225q-12 0 -17 -4.5t-8 -17.5l-4 -20h-144l8 51q8 50 32.5 70.5t75.5 20.5h369q105 0 85 -105l-9 -51q-8 -50 -32.5 -71t-76.5 -24l-313 -18q-20 -2 -24 -23l-3 -17h416z" />
    <glyph glyph-name="three.sups" horiz-adv-x="639" 
d="M224 800h369q102 0 84 -102l-4 -28q-12 -68 -61 -78q50 -17 38 -85l-6 -35q-8 -51 -33 -71.5t-76 -20.5h-381q-100 0 -83 102l8 54h145l-5 -28q-2 -14 2 -18.5t17 -4.5h237q14 0 19 4.5t6 17.5l4 20q4 23 -20 23h-207l15 86h204q13 0 18 4.5t7 17.5l2 14q2 14 -2 18.5
t-17 4.5h-225q-13 0 -18 -4.5t-7 -17.5l-5 -24h-144l11 59q9 51 33.5 71.5t74.5 20.5z" />
    <glyph glyph-name="four.sups" horiz-adv-x="657" 
d="M569 557h117l-18 -104h-117l-13 -73h-145l13 73h-350l15 87l368 260h173zM447 691l-194 -134h171z" />
    <glyph glyph-name="five.sups" horiz-adv-x="622" 
d="M516 380h-460l20 111h380q13 0 18.5 4t7.5 16l2 16q2 12 -2 16.5t-17 4.5h-380l45 252h534l-20 -111h-385l-6 -42h299q102 0 84 -103l-12 -73q-9 -51 -33 -71t-75 -20z" />
    <glyph glyph-name="six.sups" horiz-adv-x="641" 
d="M662 689h-373q-18 0 -25.5 -7t-11.5 -26l-5 -28q19 18 63 18h259q103 0 85 -103l-11 -72q-9 -51 -33.5 -71t-75.5 -20h-377q-103 0 -85 103l35 199q11 64 43 91t96 27h436zM484 553h-228q-21 0 -26 -20l-5 -26q-3 -23 20 -23h228q13 0 18.5 4.5t7.5 17.5l4 24q2 13 -2 18
t-17 5z" />
    <glyph glyph-name="seven.sups" horiz-adv-x="616" 
d="M117 800h570l-19 -105h1l-237 -150q-34 -21 -42 -68l-17 -97h-153l19 109q10 57 29 87q16 28 62 54l85 49h-319z" />
    <glyph glyph-name="eight.sups" horiz-adv-x="639" 
d="M225 800h366q101 0 85 -103l-5 -29q-6 -35 -20 -53t-40 -23q49 -18 38 -86l-6 -35q-8 -50 -32.5 -70.5t-75.5 -20.5h-379q-102 0 -85 104l6 34q7 38 22.5 56t46.5 22q-44 20 -34 84l4 29q8 51 33 71t76 20zM260 676l-3 -19q-4 -23 20 -23h216q22 0 27 22l3 19
q2 13 -2 17.5t-18 4.5h-218q-13 0 -18 -4t-7 -17zM499 504l5 26q3 22 -19 22h-231q-13 0 -18.5 -4.5t-7.5 -17.5l-4 -25q-1 -13 3 -17.5t17 -4.5h229q14 0 19 4t7 17z" />
    <glyph glyph-name="nine.sups" horiz-adv-x="641" 
d="M220 800h377q102 0 86 -103l-35 -199q-11 -64 -43.5 -91t-95.5 -27h-437l19 110h374q34 0 38 31l5 29q-19 -19 -65 -19h-259q-103 0 -85 104l13 74q9 51 33 71t75 20zM271 624h228q20 0 25 17l5 29q3 23 -20 23h-229q-24 0 -25 -22l-4 -24q-5 -23 20 -23z" />
    <glyph glyph-name="numbersign.numr" horiz-adv-x="641" 
d="M658 610l-15 -81h-113l-12 -78h114l-15 -81h-112l-14 -90h-108l14 90h-113l-14 -90h-107l14 90h-115l14 81h114l12 78h-115l15 81h113l14 90h107l-14 -90h113l14 90h108l-14 -90h115zM297 451h113l12 78h-113z" />
    <glyph glyph-name="numbersign.tf" 
d="M1024 543l-22 -124h-188l-22 -138h187l-22 -124h-184l-25 -157h-165l25 157h-215l-25 -157h-165l25 157h-192l22 124h189l22 138h-186l22 124h183l25 157h165l-25 -157h215l25 157h165l-25 -157h191zM412 281h215l22 138h-215z" />
    <glyph glyph-name="cent.numr" horiz-adv-x="641" 
d="M446 700h119q118 0 97 -118l-6 -34h-144l3 16q2 16 -3 21.5t-21 5.5h-225q-15 0 -21 -5.5t-9 -20.5l-14 -81q-3 -16 2 -21.5t21 -5.5h226q15 0 21 5.5t9 20.5l3 20h144l-8 -49q-11 -60 -38.5 -83t-86.5 -23h-132l-10 -60h-97l10 60h-120q-119 0 -97 118l23 128
q11 59 38.5 82.5t85.5 23.5h133l11 60h97z" />
    <glyph glyph-name="dollar.numr" horiz-adv-x="640" 
d="M445 700h128q101 0 84 -102l-5 -31h-143l2 14q2 13 -2 18t-17 5h-223q-13 0 -18.5 -4.5t-7.5 -17.5l-1 -9q-4 -22 18 -23l293 -14q100 -4 84 -103l-11 -60q-9 -51 -33.5 -72t-74.5 -21h-148l-10 -60h-96l10 60h-137q-103 0 -85 102l7 35h144l-4 -18q-2 -13 2 -18t17 -5
h238q13 0 18 4.5t8 18.5l2 14q3 13 -1 17.5t-18 5.5l-292 13q-102 4 -85 103l9 55q9 51 34 72t76 21h141l11 60h96z" />
    <glyph glyph-name="Euro.numr" horiz-adv-x="667" 
d="M261 700h318q63 0 90.5 -33.5t16.5 -96.5l-8 -50h-144l6 41q3 19 -3.5 26t-24.5 7h-208q-18 0 -25 -7t-11 -25l-1 -6h226l-10 -53h-226l-4 -26h226l-10 -53h-226l-1 -5q-3 -19 3.5 -26t24.5 -7h208q18 0 25.5 6.5t11.5 25.5l8 46h144l-12 -66q-11 -63 -43 -90.5
t-95 -27.5h-319q-63 0 -90.5 33t-16.5 96l3 15h-56l9 53h56l5 26h-56l9 53h56l5 26q11 64 43 91t96 27z" />
    <glyph glyph-name="florin.numr" horiz-adv-x="591" 
d="M619 583h-146q-18 0 -26.5 -6.5t-13.5 -25.5l-14 -53h172l-16 -88h-180l-29 -105q-18 -65 -51.5 -93t-94.5 -28h-205l19 117h146q18 0 26.5 7t14.5 26l21 76h-176l16 88h185l22 80q18 66 50.5 94t93.5 28h205z" />
    <glyph glyph-name="sterling.numr" horiz-adv-x="662" 
d="M262 700h312q63 0 90.5 -33.5t16.5 -96.5l-7 -38h-144l6 29q3 19 -3.5 26t-24.5 7h-208q-14 0 -21 -7t-11 -25l-5 -29h219l-13 -74h-219l-12 -68h247q13 0 18 4.5t7 17.5l6 37h144l-13 -76q-9 -51 -34.5 -72.5t-76.5 -21.5h-517l19 111h51l12 68h-57l13 74h57l9 49
q12 64 44 91t95 27z" />
    <glyph glyph-name="yen.numr" horiz-adv-x="639" 
d="M503 700h196l-232 -219h175l-10 -59h-211l-5 -32h210l-10 -59h-211l-9 -51h-149l9 51h-210l10 59h211l5 32h-210l10 59h176l-155 219h185l87 -144z" />
    <glyph glyph-name="cent.tf" 
d="M668 700h202q191 0 158 -192l-9 -50h-216l4 23q5 31 -5.5 43t-41.5 12h-391q-30 0 -42.5 -11t-17.5 -41l-24 -135q-6 -31 4.5 -43t41.5 -12h392q30 0 42.5 11t17.5 41l6 31h216l-14 -75q-18 -96 -62 -134q-46 -38 -140 -38h-222l-18 -100h-145l18 100h-208
q-192 0 -158 192l37 206q16 97 62 135q43 37 139 37h228l18 100h145z" />
    <glyph glyph-name="dollar.tf" 
d="M664 700h222q161 0 136 -166l-8 -48h-216l3 19q4 25 -4.5 34.5t-33.5 9.5h-396q-25 0 -35.5 -9.5t-14.5 -34.5l-2 -13q-4 -25 3 -34t30 -10l503 -25q84 -4 117.5 -44t18.5 -122l-18 -107q-14 -82 -54.5 -116t-122.5 -34h-250l-18 -100h-146l18 100h-236q-81 0 -115.5 42
t-20.5 124l10 58h216l-5 -28q-4 -25 4.5 -34.5t34.5 -9.5h420q24 0 34.5 9.5t14.5 34.5l4 26q5 25 -2 34.5t-30 10.5l-503 24q-166 7 -137 166l16 93q14 82 54.5 116t122.5 34h240l18 100h146z" />
    <glyph glyph-name="Euro.tf" 
d="M334 700h516q103 0 148 -54.5t27 -157.5l-14 -79h-216l11 65q7 35 -6 50t-49 15h-352q-35 0 -50.5 -13.5t-21.5 -49.5l-3 -17h392l-15 -83h-392l-9 -52h392l-15 -83h-391l-3 -15q-7 -35 6 -50t49 -15h351q36 0 51 13.5t22 49.5l13 74h216l-19 -106q-19 -104 -71 -148
t-155 -44h-516q-103 0 -148 54t-26 158l5 29h-64l15 83h64l9 52h-64l15 83h64l9 49q19 104 70.5 148t154.5 44z" />
    <glyph glyph-name="florin.tf" 
d="M1021 523h-262q-35 0 -50 -12.5t-25 -49.5l-29 -103h317l-24 -136h-331l-53 -190q-30 -107 -79 -150q-49 -42 -150 -42h-355l32 177h262q35 0 50 13t25 49l40 143h-321l24 136h335l42 150q30 107 79 150q50 42 150 42h354z" />
    <glyph glyph-name="sterling.tf" 
d="M345 700h505q103 0 148.5 -54.5t26.5 -157.5l-11 -61h-216l8 47q7 35 -6 50t-49 15h-349q-30 0 -44 -13.5t-20 -49.5l-11 -61h381l-20 -113h-381l-24 -133h427q25 0 35.5 9t14.5 34l11 62h216l-21 -122q-14 -82 -56 -117t-124 -35h-821l30 169h64l24 133h-74l19 113h75
l17 93q19 104 70.5 148t154.5 44z" />
    <glyph glyph-name="yen.tf" 
d="M796 700h296l-397 -370h302l-16 -92h-359l-10 -60h358l-16 -92h-359l-15 -86h-224l15 86h-357l16 92h358l10 60h-357l16 92h301l-266 370h278l166 -268z" />
    <glyph glyph-name="percent.numr" horiz-adv-x="706" 
d="M309 503h-173q-65 0 -54 65l12 72q5 32 22 46t49 14h173q66 0 54 -66l-12 -72q-6 -32 -22.5 -45.5t-48.5 -13.5zM166 280h-87l539 420h87zM177 565h110q14 0 17 17l7 39q2 9 -0.5 12t-12.5 3h-110q-16 0 -18 -15l-7 -40q-4 -16 14 -16zM619 280h-173q-66 0 -54 66l12 72
q6 32 22.5 45.5t48.5 13.5h172q65 0 55 -66l-13 -71q-6 -32 -22 -46t-48 -14zM487 343h109q9 0 12.5 3t5.5 12l7 41q5 15 -13 15h-110q-16 0 -18 -15l-8 -41q-3 -15 15 -15z" />
    <glyph glyph-name="perthousand.numr" horiz-adv-x="1031" 
d="M309 503h-173q-65 0 -54 65l12 72q5 32 22 46t49 14h173q66 0 54 -66l-12 -72q-6 -32 -22.5 -45.5t-48.5 -13.5zM166 280h-87l539 420h87zM177 565h110q14 0 17 17l7 39q2 9 -0.5 12t-12.5 3h-110q-16 0 -18 -15l-7 -40q-4 -16 14 -16zM619 280h-173q-66 0 -54 66l12 72
q6 32 22.5 45.5t48.5 13.5h172q65 0 55 -66l-13 -71q-6 -32 -22 -46t-48 -14zM944 280h-174q-64 0 -54 66l13 72q6 32 22 45.5t48 13.5h173q66 0 54 -66l-12 -71q-6 -32 -22 -46t-48 -14zM487 343h109q9 0 12.5 3t5.5 12l7 41q5 15 -13 15h-110q-16 0 -18 -15l-8 -41
q-3 -15 15 -15zM811 343h110q14 0 17 15l8 41q1 9 -2 12t-12 3h-110q-14 0 -18 -15l-7 -41q-5 -15 14 -15z" />
    <glyph glyph-name="percent.tf" horiz-adv-x="1140" 
d="M566 590l-20 -118q-10 -54 -37.5 -77t-80.5 -23h-266q-53 0 -76.5 28.5t-13.5 81.5l20 118q10 54 37.5 77t80.5 23h266q53 0 76.5 -28t13.5 -82zM215 0h-139l878 700h139zM222 469h172q19 0 27 7t11 25l12 69q4 19 -2.5 26t-25.5 7h-172q-18 0 -26 -6.5t-12 -25.5
l-12 -69q-6 -33 28 -33zM959 0h-266q-53 0 -76.5 28.5t-14.5 81.5l21 118q10 54 37.5 77t80.5 23h266q53 0 76.5 -28t13.5 -82l-21 -118q-10 -54 -37 -77t-80 -23zM753 97h172q19 0 26.5 7t10.5 25l13 69q3 19 -3.5 26t-24.5 7h-173q-18 0 -26 -6.5t-11 -25.5l-13 -69
q-6 -33 29 -33z" />
    <glyph glyph-name="perthousand.tf" horiz-adv-x="1660" 
d="M566 590l-20 -118q-10 -54 -37.5 -77t-80.5 -23h-266q-53 0 -76.5 28.5t-13.5 81.5l20 118q10 54 37.5 77t80.5 23h266q53 0 76.5 -28t13.5 -82zM215 0h-139l878 700h139zM222 469h172q19 0 27 7t11 25l12 69q4 19 -2.5 26t-25.5 7h-172q-18 0 -26 -6.5t-12 -25.5
l-12 -69q-6 -33 28 -33zM959 0h-266q-53 0 -76.5 28.5t-14.5 81.5l21 118q10 54 37.5 77t80.5 23h266q53 0 76.5 -28t13.5 -82l-21 -118q-10 -54 -37 -77t-80 -23zM1479 0h-266q-53 0 -76.5 28.5t-14.5 81.5l21 118q10 54 37.5 77t80.5 23h266q53 0 76.5 -28t13.5 -82
l-21 -118q-10 -54 -37 -77t-80 -23zM753 97h172q19 0 26.5 7t10.5 25l13 69q3 19 -3.5 26t-24.5 7h-173q-18 0 -26 -6.5t-11 -25.5l-13 -69q-6 -33 29 -33zM1273 97h172q19 0 26.5 7t10.5 25l13 69q3 19 -3.5 26t-24.5 7h-173q-18 0 -26 -6.5t-11 -25.5l-13 -69
q-6 -33 29 -33z" />
    <glyph glyph-name="brevecombcy" horiz-adv-x="0" 
d="M-67 572h-340q-78 0 -64 77l9 51h150l-4 -24q-4 -25 22 -25h140q24 0 28 25l4 24h150l-9 -55q-6 -39 -26.5 -56t-59.5 -17z" />
    <glyph glyph-name="ringacutecomb" horiz-adv-x="462" 
d="M513 700l-85 -64q56 -2 45 -57l-5 -28q-5 -29 -19 -41t-43 -12h-263q-59 0 -48 57l5 28q5 30 18.5 41.5t43.5 11.5h67l58 64h226zM391 561l2 12q2 11 -1 14.5t-13 3.5h-182q-10 0 -14 -3.5t-6 -14.5l-2 -12q-2 -11 0.5 -14.5t13.5 -3.5h181q11 0 15 3.5t6 14.5z" />
    </font>
</defs>
</svg>
