<?xml version="1.0" standalone="no"?>
<!DOCTYPE svg PUBLIC "-//W3C//DTD SVG 1.1//EN" "http://www.w3.org/Graphics/SVG/1.1/DTD/svg11.dtd" >
<svg xmlns="http://www.w3.org/2000/svg" xmlns:xlink="http://www.w3.org/1999/xlink" version="1.1">
<metadata>
Created by FontForge 20170731 at Thu Jun 30 17:45:18 2016
 By Aleksey,,,
(c)2016 Richard Miller
</metadata>
<defs>
<font id="TacticSansExtExd-Lgt" horiz-adv-x="1032" >
  <font-face 
    font-family="TacticSansExtExd-Lgt"
    font-weight="400"
    font-stretch="extra-expanded"
    units-per-em="1000"
    panose-1="0 0 4 7 0 0 0 0 0 0"
    ascent="814"
    descent="-186"
    x-height="522"
    cap-height="700"
    bbox="-884 -169 1814 878"
    underline-thickness="50"
    underline-position="-200"
    unicode-range="U+0020-FB02"
  />
<missing-glyph horiz-adv-x="720" 
d="M10 0v700h700v-700h-700zM259 350l-169 -169l107 -107l169 169l169 -169l107 107l-169 169l169 169l-107 107l-169 -169l-169 169l-107 -107z" />
    <glyph glyph-name="ellipsis" unicode="&#x2e;&#x2e;&#x2e;" horiz-adv-x="860" 
d="M160 0h-84v82h84v-82zM472 0h-84v82h84v-82zM784 0h-84v82h84v-82z" />
    <glyph glyph-name="blackbox.liga" unicode="[&#x2b;]" horiz-adv-x="940" 
d="M120 0v700h700v-700h-700z" />
    <glyph glyph-name="checkbox.liga" unicode="[]" horiz-adv-x="940" 
d="M120 0v700h700v-700h-700zM773 655h-606v-610h606v610z" />
    <glyph glyph-name="checkround.liga" unicode="&#x28;&#x29;" horiz-adv-x="940" 
d="M726 95q-105 -105 -256 -105q-152 0 -255 105q-105 103 -105 255q0 151 105 256q104 104 255 104q150 0 256 -104q104 -106 104 -256q0 -151 -104 -255zM248 126q91 -91 222 -91t222 91t91 224t-91 224t-222 91t-222 -91t-91 -224t91 -224z" />
    <glyph glyph-name="checkstar.liga" unicode="&#x7b;&#x7d;" horiz-adv-x="940" 
d="M378 437l92 283l92 -283h297l-240 -174l91 -283l-240 175l-240 -175l91 283l-240 174h297zM533 396l-63 193l-63 -193h-201l163 -118l-62 -192l163 119l163 -119l-62 192l163 118h-201z" />
    <glyph glyph-name="blackround.liga" unicode="&#x28;&#x2b;&#x29;" horiz-adv-x="940" 
d="M726 95q-105 -105 -256 -105q-152 0 -255 105q-105 103 -105 255q0 151 105 256q104 104 255 104q150 0 256 -104q104 -106 104 -256q0 -151 -104 -255z" />
    <glyph glyph-name="filledstar.liga" unicode="&#x7b;&#x2b;&#x7d;" horiz-adv-x="940" 
d="M378 437l92 283l92 -283h297l-240 -174l91 -283l-240 175l-240 -175l91 283l-240 174h297z" />
    <glyph glyph-name="ff.liga" unicode="ff" horiz-adv-x="1318" 
d="M1299 650h-345q-47 0 -66.5 -19.5t-19.5 -66.5v-103h431v-51h-431v-410h-62v410h-508v-410h-62v410h-217v51h217v109q0 67 32 98.5t98 31.5h305v-50h-287q-47 0 -66.5 -19.5t-19.5 -66.5v-103h508v109q0 67 32 98.5t98 31.5h363v-50z" />
    <glyph glyph-name=".notdef" horiz-adv-x="720" 
d="M10 0v700h700v-700h-700zM259 350l-169 -169l107 -107l169 169l169 -169l107 107l-169 169l169 169l-107 107l-169 -169l-169 169l-107 -107z" />
    <glyph glyph-name=".null" horiz-adv-x="0" 
 />
    <glyph glyph-name="nonmarkingreturn" horiz-adv-x="333" 
 />
    <glyph glyph-name="space" unicode=" " horiz-adv-x="300" 
 />
    <glyph glyph-name="exclam" unicode="!" horiz-adv-x="236" 
d="M94 171l-13 529h74l-13 -529h-48zM160 0h-84v77h84v-77z" />
    <glyph glyph-name="quotedbl" unicode="&#x22;" horiz-adv-x="382" 
d="M76 462v238h58v-238h-58zM248 462v238h58v-238h-58z" />
    <glyph glyph-name="numbersign" unicode="#" 
d="M965 448v-47h-219l-32 -181h211v-47h-219l-31 -173h-57l31 173h-314l-31 -173h-57l31 173h-211v47h219l32 181h-211v47h219l31 172h57l-31 -172h314l31 172h57l-31 -172h211zM343 220h314l32 181h-314z" />
    <glyph glyph-name="dollar" unicode="$" 
d="M236 410l589 -35q68 -4 99 -34.5t31 -95.5v-115q0 -67 -32 -98.5t-98 -31.5h-282v-100h-54v100h-282q-66 0 -98 31.5t-32 98.5v59h62v-51q0 -47 19.5 -66.5t66.5 -19.5h581q47 0 66.5 19.5t19.5 66.5v97q0 47 -19 65.5t-67 20.5l-589 35q-68 4 -99 34.5t-31 95.5v84
q0 67 32 98.5t98 31.5h272v100h54v-100h268q66 0 98 -31.5t32 -98.5v-42h-62v34q0 47 -19.5 66.5t-66.5 19.5h-557q-47 0 -66.5 -19.5t-19.5 -66.5v-66q0 -46 19 -64.5t67 -21.5z" />
    <glyph glyph-name="percent" unicode="%" horiz-adv-x="1140" 
d="M396 309h-244q-104 0 -104 104v103q0 54 25.5 79t78.5 25h244q53 0 78.5 -25t25.5 -79v-103q0 -104 -104 -104zM203 0h-69l803 620h69zM162 353h224q35 0 50.5 15.5t15.5 50.5v91q0 36 -15 51t-51 15h-224q-36 0 -51 -15t-15 -51v-91q0 -35 15.5 -50.5t50.5 -15.5zM988 0
h-244q-104 0 -104 104v103q0 54 25.5 79t78.5 25h244q53 0 78.5 -25t25.5 -79v-103q0 -104 -104 -104zM754 44h224q35 0 50.5 15.5t15.5 50.5v91q0 36 -15 51t-51 15h-224q-36 0 -51 -15t-15 -51v-91q0 -35 15.5 -50.5t50.5 -15.5z" />
    <glyph glyph-name="ampersand" unicode="&#x26;" horiz-adv-x="1119" 
d="M245 393h855v-49h-120v-214q0 -67 -32 -98.5t-98 -31.5h-654q-66 0 -98 31.5t-32 98.5v120q0 104 84 124q-54 27 -54 113v83q0 67 32 98.5t98 31.5h594q66 0 98 -31.5t32 -98.5v-40h-62v33q0 47 -19.5 66.5t-66.5 19.5h-557q-47 0 -66.5 -19.5t-19.5 -66.5v-84
q0 -47 19.5 -66.5t66.5 -19.5zM918 137v207h-703q-47 0 -66.5 -19.5t-19.5 -66.5v-121q0 -47 19.5 -66.5t66.5 -19.5h617q47 0 66.5 19.5t19.5 66.5z" />
    <glyph glyph-name="quotesingle" unicode="'" horiz-adv-x="210" 
d="M76 462v238h58v-238h-58z" />
    <glyph glyph-name="parenleft" unicode="(" horiz-adv-x="604" 
d="M566 -100h-275q-215 0 -215 215v470q0 215 215 215h275v-51h-265q-166 0 -166 -166v-466q0 -166 166 -166h265v-51z" />
    <glyph glyph-name="parenright" unicode=")" horiz-adv-x="604" 
d="M38 800h275q215 0 215 -215v-470q0 -215 -215 -215h-275v51h265q166 0 166 166v466q0 166 -166 166h-265v51z" />
    <glyph glyph-name="asterisk" unicode="*" horiz-adv-x="441" 
d="M377 605l16 -48l-140 -41l90 -114l-41 -29l-81 120l-82 -120l-40 29l89 115l-140 40l16 48l136 -50l-4 145h50l-5 -145z" />
    <glyph glyph-name="plus" unicode="+" 
d="M546 377h409v-54h-409v-274h-60v274h-409v54h409v274h60v-274z" />
    <glyph glyph-name="comma" unicode="," horiz-adv-x="236" 
d="M111 -160h-42l39 160h-32v82h84v-44q0 -31 -9 -56z" />
    <glyph glyph-name="hyphen" unicode="-" horiz-adv-x="660" 
d="M57 323v54h546v-54h-546z" />
    <glyph glyph-name="period" unicode="." horiz-adv-x="236" 
d="M160 0h-84v82h84v-82z" />
    <glyph glyph-name="slash" unicode="/" horiz-adv-x="580" 
d="M9 -100l512 900h50l-512 -900h-50z" />
    <glyph glyph-name="zero" unicode="0" 
d="M777 0h-522q-90 0 -132 42t-42 132v352q0 91 42 132.5t132 41.5h522q90 0 132 -41.5t42 -132.5v-352q0 -91 -42 -132.5t-132 -41.5zM271 54h490q70 0 98.5 28.5t28.5 98.5v338q0 70 -28.5 98.5t-98.5 28.5h-490q-70 0 -98.5 -28.5t-28.5 -98.5v-338q0 -70 28.5 -98.5
t98.5 -28.5z" />
    <glyph glyph-name="one" unicode="1" horiz-adv-x="972" 
d="M553 700v-648h372v-52h-878v52h442v593l-412 -28v53l447 30h29z" />
    <glyph glyph-name="two" unicode="2" 
d="M941 53v-53h-860v198q0 66 31.5 98.5t98.5 38.5l591 55q47 5 66.5 26t19.5 68v78q0 47 -19.5 66.5t-66.5 19.5h-559q-47 0 -66.5 -19.5t-19.5 -66.5v-45h-62v53q0 67 32 98.5t98 31.5h596q66 0 98 -31.5t32 -98.5v-95q0 -66 -31.5 -98.5t-98.5 -38.5l-591 -55
q-48 -5 -67 -26t-19 -68v-136h797z" />
    <glyph glyph-name="three" unicode="3" 
d="M882 370q71 -23 71 -120v-120q0 -67 -32 -98.5t-98 -31.5h-614q-66 0 -98 31.5t-32 98.5v78h62v-70q0 -47 19.5 -66.5t66.5 -19.5h577q47 0 66.5 19.5t19.5 66.5v119q0 47 -19.5 66.5t-66.5 19.5h-442v50h432q47 0 66.5 19.5t19.5 66.5v83q0 47 -19.5 66.5t-66.5 19.5
h-557q-47 0 -66.5 -19.5t-19.5 -66.5v-62h-62v70q0 67 32 98.5t98 31.5h594q66 0 98 -31.5t32 -98.5v-83q0 -90 -61 -117z" />
    <glyph glyph-name="four" unicode="4" horiz-adv-x="1062" 
d="M767 239h248v-51h-248v-188h-63v188h-657v43l649 469h71v-461zM704 648l-566 -409h566v409z" />
    <glyph glyph-name="five" unicode="5" horiz-adv-x="1002" 
d="M791 0h-706v53h687q47 0 66.5 19.5t19.5 66.5v132q0 47 -19.5 66.5t-66.5 19.5h-687v343h806v-53h-743v-237h643q66 0 98 -31.5t32 -98.5v-150q0 -67 -32 -98.5t-98 -31.5z" />
    <glyph glyph-name="six" unicode="6" 
d="M244 413h577q66 0 98 -31.5t32 -98.5v-153q0 -67 -32 -98.5t-98 -31.5h-610q-66 0 -98 31.5t-32 98.5v396q0 91 42 132.5t132 41.5h666v-53h-650q-70 0 -98.5 -29t-28.5 -98v-142q32 35 100 35zM888 138v137q0 47 -19.5 66.5t-66.5 19.5h-572q-47 0 -66.5 -19.5
t-19.5 -66.5v-137q0 -47 19.5 -66.5t66.5 -19.5h572q47 0 66.5 19.5t19.5 66.5z" />
    <glyph glyph-name="seven" unicode="7" horiz-adv-x="992" 
d="M47 646v54h898v-46l-371 -273q-62 -45 -78 -85q-17 -42 -17 -128v-168h-64v175q0 93 21 142q19 47 84 94l325 235h-798z" />
    <glyph glyph-name="eight" unicode="8" 
d="M882 370q71 -23 71 -120v-120q0 -67 -32 -98.5t-98 -31.5h-614q-66 0 -98 31.5t-32 98.5v120q0 97 71 120q-61 27 -61 117v83q0 67 32 98.5t98 31.5h594q66 0 98 -31.5t32 -98.5v-83q0 -90 -61 -117zM152 563v-84q0 -47 19.5 -66.5t66.5 -19.5h556q47 0 66.5 19.5
t19.5 66.5v84q0 47 -19.5 66.5t-66.5 19.5h-556q-47 0 -66.5 -19.5t-19.5 -66.5zM890 137v121q0 47 -19.5 66.5t-66.5 19.5h-576q-47 0 -66.5 -19.5t-19.5 -66.5v-121q0 -47 19.5 -66.5t66.5 -19.5h576q47 0 66.5 19.5t19.5 66.5z" />
    <glyph glyph-name="nine" unicode="9" 
d="M211 700h610q66 0 98 -31.5t32 -98.5v-396q0 -91 -42 -132.5t-132 -41.5h-666v53h650q70 0 98.5 29t28.5 98v134q-32 -35 -100 -35h-577q-66 0 -98 31.5t-32 98.5v161q0 67 32 98.5t98 31.5zM230 331h572q47 0 66.5 19.5t19.5 66.5v145q0 47 -19.5 66.5t-66.5 19.5h-572
q-47 0 -66.5 -19.5t-19.5 -66.5v-145q0 -47 19.5 -66.5t66.5 -19.5z" />
    <glyph glyph-name="colon" unicode=":" horiz-adv-x="236" 
d="M160 444h-84v78h84v-78zM160 0h-84v78h84v-78z" />
    <glyph glyph-name="semicolon" unicode=";" horiz-adv-x="236" 
d="M160 444h-84v78h84v-78zM111 -160h-42l39 160h-32v78h84v-40q0 -32 -9 -56z" />
    <glyph glyph-name="less" unicode="&#x3c;" 
d="M77 377l878 257v-57l-794 -227l794 -227v-57l-878 257v54z" />
    <glyph glyph-name="equal" unicode="=" 
d="M77 445v53h878v-53h-878zM77 202v53h878v-53h-878z" />
    <glyph glyph-name="greater" unicode="&#x3e;" 
d="M77 577v57l878 -257v-54l-878 -257v57l794 227z" />
    <glyph glyph-name="question" unicode="?" horiz-adv-x="970" 
d="M480 168h-61v81q0 124 129 137l203 22q100 10 100 98v56q0 47 -19.5 66.5t-66.5 19.5h-561q-47 0 -66.5 -19.5t-19.5 -66.5v-46h-62v54q0 67 32 98.5t98 31.5h598q66 0 98 -31.5t32 -98.5v-69q0 -63 -37.5 -99.5t-106.5 -43.5l-202 -22q-45 -5 -66.5 -27.5t-21.5 -67.5
v-73zM491 0h-84v74h84v-74z" />
    <glyph glyph-name="at" unicode="@" horiz-adv-x="1188" 
d="M240 700h708q90 0 132 -41.5t42 -132.5v-243q0 -60 -26.5 -86.5t-86.5 -26.5h-70q-71 0 -87 49l-26 -16q-35 -23 -66 -31q-28 -7 -80 -7h-340q-58 0 -81 27.5t-12 87.5l26 143q10 60 39.5 86t86.5 26h336q50 0 80.5 -8.5t58.5 -31.5l14 -11l12 40h44l-43 -252
q-5 -32 5 -45t40 -13h53q43 0 58 15t15 57v237q0 73 -30 103t-103 30h-689q-73 0 -103 -30t-30 -103v-346q0 -73 30 -103t103 -30h808v-44h-818q-90 0 -132 42t-42 132v352q0 91 42 132.5t132 41.5zM812 240l32 20l32 182l-25 20q-34 28 -112 28h-335q-38 0 -54 -14.5
t-24 -56.5l-24 -135q-8 -44 3 -59t53 -15h338q70 0 116 30z" />
    <glyph glyph-name="A" unicode="A" horiz-adv-x="1082" 
d="M1083 0h-73l-141 195h-659l-141 -195h-70l509 700h66zM539 650l-291 -402h582z" />
    <glyph glyph-name="B" unicode="B" horiz-adv-x="1055" 
d="M921 372q77 -21 77 -122v-120q0 -67 -32 -98.5t-98 -31.5h-792v700h772q66 0 98 -31.5t32 -98.5v-83q0 -89 -57 -115zM828 648h-688v-255h688q47 0 66.5 19.5t19.5 66.5v83q0 47 -19.5 66.5t-66.5 19.5zM934 138v120q0 47 -19.5 66.5t-66.5 19.5h-708v-292h708
q47 0 66.5 19.5t19.5 66.5z" />
    <glyph glyph-name="C" unicode="C" horiz-adv-x="1070" 
d="M833 0h-593q-90 0 -132 42t-42 132v352q0 91 42 132.5t132 41.5h593q90 0 132 -41.5t42 -132.5v-64h-63v57q0 70 -28.5 98.5t-98.5 28.5h-560q-69 0 -98 -28.5t-29 -98.5v-338q0 -70 29 -98.5t98 -28.5h560q70 0 98.5 28.5t28.5 98.5v66h63v-73q0 -91 -42 -132.5
t-132 -41.5z" />
    <glyph glyph-name="D" unicode="D" horiz-adv-x="1094" 
d="M813 0h-737v700h737q105 0 160 -54.5t55 -160.5v-270q0 -106 -55 -160.5t-160 -54.5zM140 646v-592h660q164 0 164 164v264q0 164 -164 164h-660z" />
    <glyph glyph-name="E" unicode="E" horiz-adv-x="974" 
d="M140 343v-289h796v-54h-860v700h850v-54h-786v-252h746v-51h-746z" />
    <glyph glyph-name="F" unicode="F" horiz-adv-x="935" 
d="M916 700v-55h-776v-272h736v-53h-736v-320h-64v700h840z" />
    <glyph glyph-name="G" unicode="G" horiz-adv-x="1094" 
d="M66 174v352q0 91 42 132.5t132 41.5h614q90 0 132 -41.5t42 -132.5v-34h-64v27q0 70 -28.5 98.5t-98.5 28.5h-580q-69 0 -98 -28.5t-29 -98.5v-339q0 -70 29 -98.5t98 -28.5h581q70 0 98.5 28.5t28.5 98.5v120h-389v52h452v-178q0 -91 -42 -132.5t-132 -41.5h-614
q-90 0 -132 42t-42 132z" />
    <glyph glyph-name="H" unicode="H" horiz-adv-x="1084" 
d="M944 397v303h64v-700h-64v341h-804v-341h-64v700h64v-303h804z" />
    <glyph glyph-name="I" unicode="I" horiz-adv-x="228" 
d="M82 0v700h64v-700h-64z" />
    <glyph glyph-name="J" unicode="J" horiz-adv-x="976" 
d="M735 0h-523q-90 0 -132 42t-42 132v73h63v-66q0 -70 28.5 -98.5t98.5 -28.5h490q70 0 98.5 28.5t28.5 98.5v519h64v-526q0 -91 -42 -132.5t-132 -41.5z" />
    <glyph glyph-name="K" unicode="K" horiz-adv-x="972" 
d="M237 361l726 -361h-131l-692 349v-349h-64v700h64v-329l687 329h132z" />
    <glyph glyph-name="L" unicode="L" horiz-adv-x="905" 
d="M140 700v-645h746v-55h-810v700h64z" />
    <glyph glyph-name="M" unicode="M" horiz-adv-x="1224" 
d="M614 211l480 489h54v-700h-63v611l-454 -457h-38l-454 457v-611h-63v700h57z" />
    <glyph glyph-name="N" unicode="N" horiz-adv-x="1104" 
d="M965 79v621h63v-700h-50l-839 624v-624h-63v700h55z" />
    <glyph glyph-name="O" unicode="O" horiz-adv-x="1094" 
d="M854 0h-614q-90 0 -132 42t-42 132v352q0 91 42 132.5t132 41.5h614q90 0 132 -41.5t42 -132.5v-352q0 -91 -42 -132.5t-132 -41.5zM257 54h580q70 0 98.5 29t28.5 98v338q0 69 -28.5 98t-98.5 29h-580q-69 0 -98 -29t-29 -98v-338q0 -69 29 -98t98 -29z" />
    <glyph glyph-name="P" unicode="P" horiz-adv-x="1026" 
d="M140 0h-64v700h758q83 0 118.5 -35t35.5 -119v-122q0 -83 -35.5 -118.5t-118.5 -35.5h-694v-270zM140 648v-327h676q62 0 85 23.5t23 85.5v109q0 62 -23 85.5t-85 23.5h-676z" />
    <glyph glyph-name="Q" unicode="Q" horiz-adv-x="1094" 
d="M1028 526v-352q0 -91 -42 -132.5t-132 -41.5h-20l161 -140h-81l-157 140h-517q-90 0 -132 42t-42 132v352q0 91 42 132.5t132 41.5h614q90 0 132 -41.5t42 -132.5zM257 54h580q70 0 98.5 29t28.5 98v338q0 69 -28.5 98t-98.5 29h-580q-69 0 -98 -29t-29 -98v-338
q0 -69 29 -98t98 -29z" />
    <glyph glyph-name="R" unicode="R" horiz-adv-x="1054" 
d="M739 292l279 -292h-83l-277 291h-518v-291h-64v700h758q83 0 118.5 -35t35.5 -119v-99q0 -84 -35.5 -119t-118.5 -35zM816 649h-676v-308h676q62 0 85 23.5t23 85.5v90q0 62 -23 85.5t-85 23.5z" />
    <glyph glyph-name="S" unicode="S" horiz-adv-x="1074" 
d="M66 130v59h63v-51q0 -47 19.5 -66.5t66.5 -19.5h643q47 0 66.5 19.5t19.5 66.5v97q0 45 -18.5 63t-67.5 23l-652 35q-69 5 -99.5 35t-30.5 95v84q0 67 32 98.5t98 31.5h658q66 0 98 -31.5t32 -98.5v-42h-63v34q0 47 -19.5 66.5t-66.5 19.5h-619q-47 0 -66.5 -19.5
t-19.5 -66.5v-66q0 -44 18.5 -62.5t67.5 -23.5l652 -34q69 -6 99.5 -35.5t30.5 -94.5v-116q0 -67 -32 -98.5t-98 -31.5h-682q-66 0 -98 31.5t-32 98.5z" />
    <glyph glyph-name="T" unicode="T" horiz-adv-x="966" 
d="M19 700h928v-55h-432v-645h-64v645h-432v55z" />
    <glyph glyph-name="U" unicode="U" horiz-adv-x="1065" 
d="M825 0h-584q-90 0 -132 41.5t-42 132.5v526h64v-518q0 -69 28.5 -98t98.5 -29h550q69 0 98 29t29 98v518h64v-526q0 -90 -42 -132t-132 -42z" />
    <glyph glyph-name="V" unicode="V" horiz-adv-x="1054" 
d="M530 58l455 642h70l-498 -700h-60l-498 700h73z" />
    <glyph glyph-name="W" unicode="W" horiz-adv-x="1460" 
d="M1071 73l321 627h69l-361 -700h-58l-312 621l-312 -621h-58l-361 700h72l321 -629l313 629h53z" />
    <glyph glyph-name="X" unicode="X" horiz-adv-x="1030" 
d="M104 0h-95l463 355l-453 345h98l400 -306l400 306h94l-452 -345l462 -355h-98l-410 318z" />
    <glyph glyph-name="Y" unicode="Y" horiz-adv-x="1008" 
d="M924 700h85l-473 -440v-260h-64v260l-473 440h88l419 -394z" />
    <glyph glyph-name="Z" unicode="Z" horiz-adv-x="1044" 
d="M996 0h-948v41l830 605h-810v54h928v-41l-830 -605h830v-54z" />
    <glyph glyph-name="bracketleft" unicode="[" horiz-adv-x="584" 
d="M546 -100h-470v900h470v-51h-411v-798h411v-51z" />
    <glyph glyph-name="backslash" unicode="\" horiz-adv-x="580" 
d="M9 800h50l512 -900h-50z" />
    <glyph glyph-name="bracketright" unicode="]" horiz-adv-x="584" 
d="M38 800h470v-900h-470v51h411v798h-411v51z" />
    <glyph glyph-name="asciicircum" unicode="^" 
d="M540 700l425 -420h-69l-380 372l-380 -372h-69l425 420h48z" />
    <glyph glyph-name="underscore" unicode="_" horiz-adv-x="926" 
d="M0 -88v48h926v-48h-926z" />
    <glyph glyph-name="grave" unicode="`" horiz-adv-x="336" 
d="M340 579h-72l-192 121h86z" />
    <glyph glyph-name="a" unicode="a" horiz-adv-x="950" 
d="M220 522h504q83 0 118.5 -35t35.5 -119v-368h-49l-9 80l-45 -31q-47 -33 -79 -40q-34 -9 -100 -9h-409q-121 0 -121 121v50q0 121 121 121h629v73q0 62 -23.5 85t-85.5 23h-470q-47 0 -66.5 -19.5t-19.5 -66.5v-26h-61v31q0 67 32 98.5t98 31.5zM753 86l63 43v118h-608
q-44 0 -62 -18.5t-18 -61.5v-39q0 -44 18 -62t62 -18h404q86 0 141 38z" />
    <glyph glyph-name="b" unicode="b" horiz-adv-x="964" 
d="M376 522h368q82 0 118 -35.5t36 -118.5v-214q0 -83 -36 -118.5t-118 -35.5h-368q-72 0 -116 11q-45 11 -91 44l-35 25l-9 -80h-49v700h62v-255l31 22q47 35 90 45q40 10 117 10zM835 160v202q0 62 -23 85t-85 23h-366q-109 0 -170 -43l-53 -38v-256l53 -37
q62 -44 170 -44h366q62 0 85 23t23 85z" />
    <glyph glyph-name="c" unicode="c" horiz-adv-x="933" 
d="M66 154v214q0 83 36 118.5t118 35.5h493q83 0 118.5 -35t35.5 -119v-35h-61v29q0 62 -23.5 85t-85.5 23h-460q-62 0 -85.5 -23t-23.5 -85v-202q0 -62 23.5 -85t85.5 -23h460q62 0 85.5 23t23.5 85v38h61v-44q0 -83 -35.5 -118.5t-118.5 -35.5h-493q-82 0 -118 35.5
t-36 118.5z" />
    <glyph glyph-name="d" unicode="d" horiz-adv-x="964" 
d="M826 445v255h62v-700h-49l-9 80l-35 -25q-46 -33 -90 -44q-46 -11 -118 -11h-367q-82 0 -118 35.5t-36 118.5v214q0 83 36 118.5t118 35.5h367q77 0 118 -10q43 -10 90 -45zM773 96l53 37v256l-53 38q-61 43 -170 43h-366q-62 0 -85.5 -23t-23.5 -85v-202q0 -62 23.5 -85
t85.5 -23h366q108 0 170 44z" />
    <glyph glyph-name="e" unicode="e" horiz-adv-x="944" 
d="M220 522h504q83 0 118.5 -35t35.5 -119v-106h-750v-103q0 -62 23.5 -85t85.5 -23h494q47 0 66.5 19.5t19.5 66.5v37h61v-44q0 -67 -32 -98.5t-98 -31.5h-528q-82 0 -118 35.5t-36 118.5v214q0 83 36 118.5t118 35.5zM128 365v-56h689v56q0 62 -23.5 85t-85.5 23h-471
q-62 0 -85.5 -23t-23.5 -85z" />
    <glyph glyph-name="f" unicode="f" horiz-adv-x="748" 
d="M729 649h-345q-47 0 -66.5 -19.5t-19.5 -66.5v-102h431v-51h-431v-410h-62v410h-217v51h217v109q0 67 32 98.5t98 31.5h363v-51z" />
    <glyph glyph-name="g" unicode="g" horiz-adv-x="964" 
d="M830 442l9 80h49v-508q0 -91 -42 -132.5t-132 -41.5h-628v50h613q69 0 98 28.5t29 98.5v94l-31 -22q-48 -35 -91 -45q-46 -11 -117 -11h-367q-82 0 -118 35.5t-36 118.5v181q0 83 36 118.5t118 35.5h367q77 0 118 -10q43 -10 90 -45zM773 128l53 38v224l-53 37
q-62 44 -170 44h-366q-62 0 -85.5 -23t-23.5 -85v-170q0 -62 23.5 -85.5t85.5 -23.5h366q106 0 170 44z" />
    <glyph glyph-name="h" unicode="h" horiz-adv-x="960" 
d="M377 522h357q82 0 118 -35.5t36 -118.5v-368h-63v362q0 62 -23 85t-85 23h-356q-108 0 -170 -44l-53 -37v-389h-62v700h62v-256l32 23q46 35 90 45q40 10 117 10z" />
    <glyph glyph-name="i" unicode="i" horiz-adv-x="222" 
d="M143 630h-63v70h63v-70zM143 0h-63v522h63v-522z" />
    <glyph glyph-name="j" unicode="j" horiz-adv-x="322" 
d="M243 630h-63v70h63v-70zM113 -160h-237v51h218q47 0 66.5 19.5t19.5 66.5v545h63v-552q0 -67 -32 -98.5t-98 -31.5z" />
    <glyph glyph-name="k" unicode="k" horiz-adv-x="853" 
d="M248 262l615 -262h-142l-583 252v-252h-62v700h62v-429l581 251h139z" />
    <glyph glyph-name="l" unicode="l" horiz-adv-x="222" 
d="M143 0h-63v700h63v-700z" />
    <glyph glyph-name="m" unicode="m" horiz-adv-x="1595" 
d="M1069 522h300q83 0 118.5 -35t35.5 -119v-368h-62v362q0 62 -23 85t-85 23h-300q-108 0 -169 -44l-53 -37v-389h-63v362q0 62 -23 85t-85 23h-299q-108 0 -170 -44l-53 -37v-389h-62v522h49l9 -80l35 25q47 35 90 45q40 10 117 10h301q63 0 97.5 -19.5t47.5 -63.5l39 28
q48 35 91 45q40 10 117 10z" />
    <glyph glyph-name="n" unicode="n" horiz-adv-x="960" 
d="M376 522h358q82 0 118 -35.5t36 -118.5v-368h-63v362q0 62 -23 85t-85 23h-356q-108 0 -170 -44l-53 -37v-389h-62v522h49l9 -80l35 25q47 35 90 45q40 10 117 10z" />
    <glyph glyph-name="o" unicode="o" horiz-adv-x="954" 
d="M734 0h-514q-82 0 -118 35.5t-36 118.5v214q0 83 36 118.5t118 35.5h514q83 0 118.5 -35t35.5 -119v-214q0 -83 -35.5 -118.5t-118.5 -35.5zM237 52h480q62 0 85.5 23t23.5 85v202q0 62 -23.5 85t-85.5 23h-480q-62 0 -85.5 -23t-23.5 -85v-202q0 -62 23.5 -85t85.5 -23z
" />
    <glyph glyph-name="p" unicode="p" horiz-adv-x="964" 
d="M376 522h368q82 0 118 -35.5t36 -118.5v-214q0 -83 -36 -118.5t-118 -35.5h-368q-72 0 -116 11q-45 11 -91 44l-31 22v-237h-62v682h49l9 -80l35 25q47 35 90 45q40 10 117 10zM835 160v202q0 62 -23 85t-85 23h-366q-109 0 -170 -43l-53 -38v-256l53 -37q62 -44 170 -44
h366q62 0 85 23t23 85z" />
    <glyph glyph-name="q" unicode="q" horiz-adv-x="964" 
d="M830 442l9 80h49v-682h-62v237l-31 -22q-46 -33 -90 -44q-46 -11 -117 -11h-368q-82 0 -118 35.5t-36 118.5v214q0 83 36 118.5t118 35.5h367q77 0 118 -10q43 -10 90 -45zM773 96l53 37v256l-53 38q-61 43 -170 43h-366q-62 0 -85.5 -23t-23.5 -85v-202q0 -62 23.5 -85
t85.5 -23h366q108 0 170 44z" />
    <glyph glyph-name="r" unicode="r" horiz-adv-x="636" 
d="M375 522h242v-54h-256q-108 0 -170 -44l-53 -37v-387h-62v522h46l10 -81l36 26q46 35 90 45q40 10 117 10z" />
    <glyph glyph-name="s" unicode="s" horiz-adv-x="934" 
d="M66 107v46h61v-41q0 -33 15 -48t49 -15h551q34 0 49 15t15 48v60q0 33 -15 48.5t-49 17.5l-559 29q-107 5 -107 108v40q0 107 107 107h564q107 0 107 -107v-43h-61v38q0 34 -15 48.5t-49 14.5h-527q-34 0 -49 -14.5t-15 -48.5v-27q0 -33 15.5 -48t48.5 -17l559 -29
q107 -6 107 -109v-73q0 -107 -107 -107h-588q-52 0 -79.5 27.5t-27.5 79.5z" />
    <glyph glyph-name="t" unicode="t" horiz-adv-x="768" 
d="M739 522v-51h-441v-333q0 -47 19.5 -66.5t66.5 -19.5h355v-52h-373q-66 0 -98 31.5t-32 98.5v341h-217v51h217l14 120h48v-120h441z" />
    <glyph glyph-name="u" unicode="u" horiz-adv-x="960" 
d="M822 522h62v-522h-49l-9 80l-35 -25q-46 -34 -89 -45q-41 -10 -118 -10h-358q-82 0 -118 35.5t-36 118.5v368h63v-362q0 -62 23 -85t85 -23h356q108 0 170 44l53 37v389z" />
    <glyph glyph-name="v" unicode="v" horiz-adv-x="908" 
d="M456 57l369 465h75l-420 -522h-52l-420 522h78z" />
    <glyph glyph-name="w" unicode="w" horiz-adv-x="1254" 
d="M915 66l261 456h69l-304 -522h-53l-261 453l-261 -453h-53l-304 522h72l261 -456l262 456h49z" />
    <glyph glyph-name="x" unicode="x" horiz-adv-x="892" 
d="M108 0h-100l389 266l-379 256h103l327 -222l326 222h100l-379 -256l389 -266h-103l-337 232z" />
    <glyph glyph-name="y" unicode="y" horiz-adv-x="908" 
d="M455 56l370 466h75l-438 -544q-63 -81 -117 -110q-52 -28 -151 -28h-135v52h147q69 0 111 20q41 21 86 80l16 19l-411 511h78z" />
    <glyph glyph-name="z" unicode="z" horiz-adv-x="918" 
d="M872 0h-826v38l705 433h-685v51h806v-38l-705 -433h705v-51z" />
    <glyph glyph-name="braceleft" unicode="{" horiz-adv-x="704" 
d="M266 621v-174q0 -74 -53 -97q53 -23 53 -97v-174q0 -66 31 -97t97 -31h272v-51h-284q-175 0 -175 175v184q0 66 -66 66h-103v50h103q66 0 66 66v184q0 175 175 175h284v-51h-272q-66 0 -97 -31t-31 -97z" />
    <glyph glyph-name="bar" unicode="|" horiz-adv-x="229" 
d="M86 -100v900h57v-900h-57z" />
    <glyph glyph-name="braceright" unicode="}" horiz-adv-x="704" 
d="M563 375h103v-50h-103q-66 0 -66 -66v-184q0 -175 -175 -175h-284v51h272q66 0 97 31t31 97v174q0 74 53 97q-53 23 -53 97v174q0 66 -31 97t-97 31h-272v51h284q175 0 175 -175v-184q0 -66 66 -66z" />
    <glyph glyph-name="asciitilde" unicode="~" 
d="M361 466l366 -201q38 -22 83 -22h41q25 0 35.5 10.5t10.5 35.5v215h58v-217q0 -50 -20.5 -70.5t-70.5 -20.5h-60q-44 0 -65 7q-26 7 -68 31l-366 202q-39 21 -83 21h-41q-25 0 -35.5 -10.5t-10.5 -35.5v-215h-58v217q0 50 20.5 70.5t70.5 20.5h60q42 0 66 -6
q29 -10 67 -32z" />
    <glyph glyph-name="exclamdown" unicode="&#xa1;" horiz-adv-x="236" 
d="M76 700h84v-77h-84v77zM142 529l13 -529h-74l13 529h48z" />
    <glyph glyph-name="cent" unicode="&#xa2;" 
d="M951 546v-50h-62v44q0 62 -23 85t-85 23h-529q-62 0 -85 -23t-23 -85v-250q0 -62 23 -85t85 -23h529q62 0 85 23t23 85v54h62v-60q0 -83 -35.5 -118.5t-118.5 -35.5h-252v-100h-54v100h-256q-82 0 -118 35.5t-36 118.5v262q0 83 36 118.5t118 35.5h256v100h54v-100h252
q83 0 118.5 -35t35.5 -119z" />
    <glyph glyph-name="sterling" unicode="&#xa3;" horiz-adv-x="1072" 
d="M991 526v-53h-62v48q0 70 -28.5 98.5t-98.5 28.5h-472q-69 0 -97.5 -28.5t-28.5 -98.5v-144h560v-46h-560v-278h639q47 0 66.5 19.5t19.5 66.5v72h62v-81q0 -67 -32 -98.5t-98 -31.5h-842v53h122v278h-132v46h132v149q0 91 42 132.5t132 41.5h502q90 0 132 -41.5
t42 -132.5z" />
    <glyph glyph-name="currency" unicode="&#xa4;" 
d="M897 433v-166q0 -46 -17 -85l101 -101l-34 -34l-96 96q-44 -38 -116 -38h-438q-72 0 -116 38l-96 -96l-33 34l101 101q-18 34 -18 85v166q0 51 18 85l-101 101l33 34l96 -96q44 38 116 38h438q72 0 116 -38l96 96l34 -34l-101 -101q17 -39 17 -85zM310 156h412
q118 0 118 118v152q0 118 -118 118h-412q-118 0 -118 -118v-152q0 -118 118 -118z" />
    <glyph glyph-name="yen" unicode="&#xa5;" 
d="M912 700h83l-412 -404h382v-43h-417v-111h417v-43h-417v-99h-63v99h-418v43h418v111h-418v43h382l-412 404h86l395 -393z" />
    <glyph glyph-name="brokenbar" unicode="&#xa6;" horiz-adv-x="229" 
d="M86 487v313h57v-313h-57zM86 -100v313h57v-313h-57z" />
    <glyph glyph-name="section" unicode="&#xa7;" horiz-adv-x="1214" 
d="M326 534l694 -45q69 -7 98.5 -36t29.5 -93v-68q0 -66 -30.5 -97t-94.5 -32q15 -27 15 -74v-59q0 -67 -32 -98.5t-98 -31.5h-592q-66 0 -98 31.5t-32 98.5v42h63v-35q0 -47 19.5 -66.5t66.5 -19.5h553q47 0 66.5 19.5t19.5 66.5v44q0 44 -18.5 62t-67.5 24l-694 44
q-70 8 -99 36.5t-29 92.5v68q0 66 30 96.5t96 32.5q-16 28 -16 74v59q0 67 32 98.5t98 31.5h592q66 0 98 -31.5t32 -98.5v-42h-63v35q0 47 -19.5 66.5t-66.5 19.5h-553q-47 0 -66.5 -19t-19.5 -66v-45q0 -44 18.5 -62t67.5 -23zM1084 292v60q0 44 -18 62t-67 23l-694 44
q-33 3 -57 12h-33q-47 0 -66 -19.5t-19 -65.5v-60q0 -44 18 -62t67 -23l694 -44q38 -4 58 -12h32q47 0 66 19.5t19 65.5z" />
    <glyph glyph-name="dieresis" unicode="&#xa8;" horiz-adv-x="408" 
d="M133 597h-57v67h57v-67zM376 597h-57v67h57v-67z" />
    <glyph glyph-name="copyright" unicode="&#xa9;" horiz-adv-x="1102" 
d="M843 0h-584q-105 0 -162 56.5t-57 162.5v262q0 106 57 162.5t162 56.5h584q105 0 162 -56.5t57 -162.5v-262q0 -106 -57 -162.5t-162 -56.5zM266 39h570q183 0 183 183v256q0 183 -183 183h-570q-183 0 -183 -183v-256q0 -183 183 -183zM811 135h-520q-58 0 -85 27
t-27 85v206q0 58 27 85t85 27h520q58 0 85 -27t27 -85v-38h-55v34q0 38 -15 53.5t-53 15.5h-497q-39 0 -54 -15.5t-15 -53.5v-198q0 -38 15 -53.5t54 -15.5h497q38 0 53 15.5t15 53.5v41h55v-45q0 -58 -27 -85t-85 -27z" />
    <glyph glyph-name="ordfeminine" unicode="&#xaa;" horiz-adv-x="570" 
d="M132 700h303q50 0 72.5 -22.5t22.5 -72.5v-219h-41l-7 45l-20 -13q-30 -20 -48 -26q-21 -6 -61 -6h-243q-73 0 -73 73v34q0 73 73 73h368v34q0 35 -12 47.5t-46 12.5h-271q-26 0 -36.5 -11t-10.5 -37v-11h-51v19q0 80 81 80zM444 447l34 23v60h-346q-25 0 -34.5 -9.5
t-9.5 -34.5v-17q0 -24 9.5 -34t34.5 -10h235q46 0 77 22z" />
    <glyph glyph-name="guillemotleft" unicode="&#xab;" horiz-adv-x="1267" 
d="M58 328v42l546 207v-61l-469 -167l469 -165v-63zM663 370l546 207v-61l-469 -167l469 -165v-63l-546 207v42z" />
    <glyph glyph-name="logicalnot" unicode="&#xac;" 
d="M899 323h-822v54h878v-237h-56v183z" />
    <glyph glyph-name="uni00AD" unicode="&#xad;" horiz-adv-x="660" 
d="M57 323v54h546v-54h-546z" />
    <glyph glyph-name="registered" unicode="&#xae;" horiz-adv-x="391" 
d="M143 700h105q53 0 78.5 -25t25.5 -79v-92q0 -104 -104 -104h-105q-104 0 -104 104v92q0 54 25.5 79t78.5 25zM320 506v88q0 43 -17 59.5t-59 16.5h-97q-42 0 -59 -17t-17 -59v-88q0 -41 17.5 -58.5t58.5 -17.5h97q42 0 59 17.5t17 58.5zM235 528h-3l45 -56h-37l-44 55
h-36v-55h-34v155h109q18 0 26 -7.5t8 -26.5v-31q0 -19 -8 -26.5t-26 -7.5zM223 598h-63v-42h63q8 0 10.5 2.5t2.5 10.5v15q0 9 -2.5 11.5t-10.5 2.5z" />
    <glyph glyph-name="overscore" unicode="&#xaf;" horiz-adv-x="520" 
d="M524 620h-448v43h448v-43z" />
    <glyph glyph-name="degree" unicode="&#xb0;" horiz-adv-x="422" 
d="M256 375h-90q-56 0 -87 31t-31 87v89q0 57 31 87.5t87 30.5h90q56 0 87 -30.5t31 -87.5v-89q0 -56 -31 -87t-87 -31zM172 420h79q75 0 75 76v83q0 76 -75 76h-79q-39 0 -57.5 -18t-18.5 -58v-83q0 -76 76 -76z" />
    <glyph glyph-name="plusminus" unicode="&#xb1;" 
d="M546 664v-214h409v-52h-409v-214h-60v214h-409v52h409v214h60zM955 36h-878v51h878v-51z" />
    <glyph glyph-name="uni00B2" unicode="&#xb2;" horiz-adv-x="658" 
d="M589 328v-48h-527v123q0 42 20 62.5t63 23.5l347 30q26 2 36 13t10 36v42q0 25 -10.5 35.5t-35.5 10.5h-319q-25 0 -35.5 -10.5t-10.5 -35.5v-25h-57v33q0 82 83 82h361q42 0 62 -19.5t20 -62.5v-56q0 -42 -19.5 -62t-63.5 -24l-347 -30q-26 -1 -36 -12.5t-10 -36.5v-69
h469z" />
    <glyph glyph-name="uni00B3" unicode="&#xb3;" horiz-adv-x="658" 
d="M554 501q43 -15 43 -74v-65q0 -82 -82 -82h-372q-42 0 -62 19.5t-20 62.5v49h57v-40q0 -25 10 -35t35 -10h331q26 0 35.5 10t9.5 35v62q0 26 -10 36t-35 10h-266v41h260q25 0 35 10.5t10 36.5v42q0 25 -9.5 35t-35.5 10h-319q-25 0 -35 -10t-10 -35v-35h-57v44
q0 43 20 62.5t62 19.5h360q82 0 82 -82v-45q0 -56 -37 -72z" />
    <glyph glyph-name="acute" unicode="&#xb4;" horiz-adv-x="336" 
d="M340 700l-193 -121h-71l177 121h87z" />
    <glyph glyph-name="paragraph" unicode="&#xb6;" horiz-adv-x="920" 
d="M65 462v84q0 83 36 118.5t118 35.5h585v-700h-60v648h-253v-648h-60v308h-212q-82 0 -118 35.5t-36 118.5z" />
    <glyph glyph-name="middot" unicode="&#xb7;" horiz-adv-x="236" 
d="M160 309h-84v82h84v-82z" />
    <glyph glyph-name="cedilla" unicode="&#xb8;" horiz-adv-x="320" 
d="M291 -160h-233v37h223q16 0 16 16v19q0 16 -16 16h-145v15l29 77h36l-21 -56h111q28 0 39.5 -11.5t11.5 -39.5v-22q0 -28 -11.5 -39.5t-39.5 -11.5z" />
    <glyph glyph-name="uni00B9" unicode="&#xb9;" horiz-adv-x="622" 
d="M354 700v-373h225v-47h-535v47h252v323l-234 -16v48l264 18h28z" />
    <glyph glyph-name="ordmasculine" unicode="&#xba;" horiz-adv-x="572" 
d="M440 386h-308q-50 0 -72.5 22t-22.5 73v125q0 51 22 72.5t73 21.5h308q51 0 73 -21.5t22 -72.5v-125q0 -51 -22.5 -73t-72.5 -22zM148 430h277q34 0 46 12.5t12 47.5v107q0 35 -12 47.5t-46 12.5h-277q-34 0 -47 -12.5t-13 -47.5v-107q0 -34 13 -47t47 -13z" />
    <glyph glyph-name="guillemotright" unicode="&#xbb;" horiz-adv-x="1267" 
d="M527 349l-469 165v63l546 -207v-42l-546 -207v61zM663 514v63l546 -207v-42l-546 -207v61l469 167z" />
    <glyph glyph-name="onequarter" unicode="&#xbc;" horiz-adv-x="1376" 
d="M354 327h225v-47h-535v47h253v323l-235 -16v48l265 18h27v-373zM347 0l747 700h62l-748 -700h-61zM1186 150h146v-44h-146v-106h-56v106h-387v37l379 277h64v-270zM1130 373l-307 -223h307v223z" />
    <glyph glyph-name="onehalf" unicode="&#xbd;" horiz-adv-x="1488" 
d="M354 327h225v-47h-535v47h253v323l-235 -16v48l265 18h27v-373zM347 0l747 700h62l-748 -700h-61zM1343 196l-348 -30q-46 -1 -46 -49v-69h470v-48h-527v123q0 42 19.5 62.5t62.5 23.5l347 30q26 2 36.5 13t10.5 36v42q0 25 -11 35.5t-36 10.5h-319q-25 0 -35.5 -10.5
t-10.5 -35.5v-25h-56v33q0 82 82 82h361q42 0 62 -19.5t20 -62.5v-56q0 -42 -19.5 -62t-62.5 -24z" />
    <glyph glyph-name="threequarters" unicode="&#xbe;" horiz-adv-x="1412" 
d="M598 427v-65q0 -82 -82 -82h-372q-42 0 -62 19.5t-20 62.5v49h55v-40q0 -25 10 -35t36 -10h333q25 0 35 10t10 35v62q0 25 -10 35.5t-35 10.5h-267v41h261q25 0 35 10.5t10 36.5v42q0 25 -10 35t-35 10h-321q-26 0 -36 -10t-10 -35v-35h-55v44q0 43 20 62.5t62 19.5h360
q82 0 82 -82v-45q0 -56 -37 -72q43 -15 43 -74zM383 0l747 700h62l-748 -700h-61zM1222 150h146v-44h-146v-106h-56v106h-387v37l379 277h64v-270zM1166 373l-307 -223h307v223z" />
    <glyph glyph-name="questiondown" unicode="&#xbf;" horiz-adv-x="970" 
d="M479 700h84v-74h-84v74zM490 532h61v-81q0 -123 -129 -137l-203 -22q-100 -10 -100 -98v-56q0 -47 19.5 -66.5t66.5 -19.5h561q47 0 66.5 19.5t19.5 66.5v46h62v-54q0 -67 -32 -98.5t-98 -31.5h-598q-66 0 -98 31.5t-32 98.5v69q0 63 37.5 99.5t106.5 43.5l202 22
q46 5 67 27.5t21 67.5v73z" />
    <glyph glyph-name="Agrave" unicode="&#xc0;" horiz-adv-x="1082" 
d="M396 878l178 -121h-72l-192 121h86zM1083 0h-73l-141 195h-659l-141 -195h-70l509 700h66zM539 650l-291 -402h582z" />
    <glyph glyph-name="Aacute" unicode="&#xc1;" horiz-adv-x="1082" 
d="M685 878h87l-193 -121h-71zM1083 0h-73l-141 195h-659l-141 -195h-70l509 700h66zM539 650l-291 -402h582z" />
    <glyph glyph-name="Acircumflex" unicode="&#xc2;" horiz-adv-x="1082" 
d="M680 757l-139 87l-139 -87h-64l167 121h72l167 -121h-64zM1083 0h-73l-141 195h-659l-141 -195h-70l509 700h66zM539 650l-291 -402h582z" />
    <glyph glyph-name="Atilde" unicode="&#xc3;" horiz-adv-x="1082" 
d="M392 821v-64h-47v70q0 51 51 51h71q23 0 35.5 -4.5t29.5 -18.5l59 -49q13 -12 34 -12h45q11 0 15.5 4.5t4.5 15.5v64h47v-70q0 -51 -51 -51h-71q-23 0 -35.5 4.5t-29.5 18.5l-59 49q-14 12 -34 12h-45q-11 0 -15.5 -4.5t-4.5 -15.5zM1083 0h-73l-141 195h-659l-141 -195
h-70l509 700h66zM539 650l-291 -402h582z" />
    <glyph glyph-name="Adieresis" unicode="&#xc4;" horiz-adv-x="1082" 
d="M391 842h57v-67h-57v67zM634 842h57v-67h-57v67zM1083 0h-73l-141 195h-659l-141 -195h-70l509 700h66zM539 650l-291 -402h582z" />
    <glyph glyph-name="Aring" unicode="&#xc5;" horiz-adv-x="1082" 
d="M664 747h-247q-53 0 -53 53v25q0 53 53 53h247q53 0 53 -53v-25q0 -53 -53 -53zM405 821v-17q0 -13 4 -17.5t17 -4.5h229q13 0 17.5 4.5t4.5 17.5v17q0 13 -4.5 18t-17.5 5h-229q-12 0 -16.5 -5t-4.5 -18zM1083 0h-73l-141 195h-659l-141 -195h-70l509 700h66zM539 650
l-291 -402h582z" />
    <glyph glyph-name="AE" unicode="&#xc6;" horiz-adv-x="1571" 
d="M833 343l209 -289h491v-54h-525l-141 195h-657l-141 -195h-70l509 700h1015v-54h-909l182 -252h687v-51h-650zM539 650l-291 -402h581z" />
    <glyph glyph-name="Ccedilla" unicode="&#xc7;" horiz-adv-x="1070" 
d="M1007 526v-64h-63v57q0 70 -28.5 98.5t-98.5 28.5h-560q-69 0 -98 -28.5t-29 -98.5v-338q0 -70 29 -98.5t98 -28.5h560q70 0 98.5 28.5t28.5 98.5v66h63v-73q0 -91 -42 -132.5t-132 -41.5h-288l-14 -36h111q28 0 39.5 -11.5t11.5 -39.5v-22q0 -28 -11.5 -39.5
t-39.5 -11.5h-233v37h223q16 0 16 16v19q0 16 -16 16h-145v15l21 57h-268q-90 0 -132 42t-42 132v352q0 91 42 132.5t132 41.5h593q90 0 132 -41.5t42 -132.5z" />
    <glyph glyph-name="Egrave" unicode="&#xc8;" horiz-adv-x="974" 
d="M342 878l178 -121h-72l-192 121h86zM140 343v-289h796v-54h-860v700h850v-54h-786v-252h746v-51h-746z" />
    <glyph glyph-name="Eacute" unicode="&#xc9;" horiz-adv-x="974" 
d="M631 878h87l-193 -121h-71zM140 343v-289h796v-54h-860v700h850v-54h-786v-252h746v-51h-746z" />
    <glyph glyph-name="Ecircumflex" unicode="&#xca;" horiz-adv-x="974" 
d="M626 757l-139 87l-139 -87h-64l167 121h72l167 -121h-64zM140 343v-289h796v-54h-860v700h850v-54h-786v-252h746v-51h-746z" />
    <glyph glyph-name="Edieresis" unicode="&#xcb;" horiz-adv-x="974" 
d="M337 842h57v-67h-57v67zM580 842h57v-67h-57v67zM140 343v-289h796v-54h-860v700h850v-54h-786v-252h746v-51h-746z" />
    <glyph glyph-name="Igrave" unicode="&#xcc;" horiz-adv-x="228" 
d="M147 757h-72l-192 121h86zM82 0v700h64v-700h-64z" />
    <glyph glyph-name="Iacute" unicode="&#xcd;" horiz-adv-x="228" 
d="M345 878l-193 -121h-71l177 121h87zM82 0v700h64v-700h-64z" />
    <glyph glyph-name="Icircumflex" unicode="&#xce;" horiz-adv-x="228" 
d="M-25 757h-64l167 121h72l167 -121h-64l-139 87zM82 0v700h64v-700h-64z" />
    <glyph glyph-name="Idieresis" unicode="&#xcf;" horiz-adv-x="228" 
d="M21 775h-57v67h57v-67zM264 775h-57v67h57v-67zM82 0v700h64v-700h-64z" />
    <glyph glyph-name="Eth" unicode="&#xd0;" horiz-adv-x="1154" 
d="M136 700h737q105 0 160 -54.5t55 -160.5v-270q0 -106 -55 -160.5t-160 -54.5h-737v327h-98v46h98v327zM1024 218v264q0 164 -164 164h-660v-273h462v-46h-462v-273h660q164 0 164 164z" />
    <glyph glyph-name="Ntilde" unicode="&#xd1;" horiz-adv-x="1104" 
d="M403 821v-64h-47v70q0 51 51 51h71q23 0 35.5 -4.5t29.5 -18.5l59 -49q14 -12 34 -12h45q11 0 15.5 4.5t4.5 15.5v64h47v-70q0 -51 -51 -51h-71q-23 0 -35.5 4.5t-29.5 18.5l-59 49q-14 12 -34 12h-45q-11 0 -15.5 -4.5t-4.5 -15.5zM965 79v621h63v-700h-50l-839 624
v-624h-63v700h55z" />
    <glyph glyph-name="Ograve" unicode="&#xd2;" horiz-adv-x="1094" 
d="M580 757h-72l-192 121h86zM854 0h-614q-90 0 -132 42t-42 132v352q0 91 42 132.5t132 41.5h614q90 0 132 -41.5t42 -132.5v-352q0 -91 -42 -132.5t-132 -41.5zM257 54h580q70 0 98.5 29t28.5 98v338q0 69 -28.5 98t-98.5 29h-580q-69 0 -98 -29t-29 -98v-338
q0 -69 29 -98t98 -29z" />
    <glyph glyph-name="Oacute" unicode="&#xd3;" horiz-adv-x="1094" 
d="M778 878l-193 -121h-71l177 121h87zM854 0h-614q-90 0 -132 42t-42 132v352q0 91 42 132.5t132 41.5h614q90 0 132 -41.5t42 -132.5v-352q0 -91 -42 -132.5t-132 -41.5zM257 54h580q70 0 98.5 29t28.5 98v338q0 69 -28.5 98t-98.5 29h-580q-69 0 -98 -29t-29 -98v-338
q0 -69 29 -98t98 -29z" />
    <glyph glyph-name="Ocircumflex" unicode="&#xd4;" horiz-adv-x="1094" 
d="M408 757h-64l167 121h72l167 -121h-64l-139 87zM854 0h-614q-90 0 -132 42t-42 132v352q0 91 42 132.5t132 41.5h614q90 0 132 -41.5t42 -132.5v-352q0 -91 -42 -132.5t-132 -41.5zM257 54h580q70 0 98.5 29t28.5 98v338q0 69 -28.5 98t-98.5 29h-580q-69 0 -98 -29
t-29 -98v-338q0 -69 29 -98t98 -29z" />
    <glyph glyph-name="Otilde" unicode="&#xd5;" horiz-adv-x="1094" 
d="M398 757h-47v70q0 51 51 51h71q23 0 35.5 -4.5t29.5 -18.5l59 -49q13 -12 34 -12h45q11 0 15.5 4.5t4.5 15.5v64h47v-70q0 -51 -51 -51h-71q-23 0 -35.5 4.5t-29.5 18.5l-59 49q-13 12 -34 12h-45q-11 0 -15.5 -4.5t-4.5 -15.5v-64zM854 0h-614q-90 0 -132 42t-42 132
v352q0 91 42 132.5t132 41.5h614q90 0 132 -41.5t42 -132.5v-352q0 -91 -42 -132.5t-132 -41.5zM257 54h580q70 0 98.5 29t28.5 98v338q0 69 -28.5 98t-98.5 29h-580q-69 0 -98 -29t-29 -98v-338q0 -69 29 -98t98 -29z" />
    <glyph glyph-name="Odieresis" unicode="&#xd6;" horiz-adv-x="1094" 
d="M454 775h-57v67h57v-67zM697 775h-57v67h57v-67zM854 0h-614q-90 0 -132 42t-42 132v352q0 91 42 132.5t132 41.5h614q90 0 132 -41.5t42 -132.5v-352q0 -91 -42 -132.5t-132 -41.5zM257 54h580q70 0 98.5 29t28.5 98v338q0 69 -28.5 98t-98.5 29h-580q-69 0 -98 -29
t-29 -98v-338q0 -69 29 -98t98 -29z" />
    <glyph glyph-name="multiply" unicode="&#xd7;" 
d="M897 628l31 -43l-363 -235l363 -235l-31 -43l-381 246l-381 -246l-31 43l363 235l-363 235l31 43l381 -246z" />
    <glyph glyph-name="Oslash" unicode="&#xd8;" horiz-adv-x="1094" 
d="M1058 730l-80 -64q50 -41 50 -140v-352q0 -91 -42 -132.5t-132 -41.5h-614q-43 0 -81 11l-52 -41h-71l80 64q-50 41 -50 140v352q0 91 42 132.5t132 41.5h614q45 0 81 -11l52 41h71zM129 520v-340q0 -77 38 -106l712 570q-18 3 -41 3h-582q-69 0 -98 -29t-29 -98z
M965 180v340q0 77 -38 106l-712 -570q18 -3 41 -3h582q70 0 98.5 29t28.5 98z" />
    <glyph glyph-name="Ugrave" unicode="&#xd9;" horiz-adv-x="1065" 
d="M566 757h-72l-192 121h86zM825 0h-584q-90 0 -132 41.5t-42 132.5v526h64v-518q0 -69 28.5 -98t98.5 -29h550q69 0 98 29t29 98v518h64v-526q0 -90 -42 -132t-132 -42z" />
    <glyph glyph-name="Uacute" unicode="&#xda;" horiz-adv-x="1065" 
d="M764 878l-193 -121h-71l177 121h87zM825 0h-584q-90 0 -132 41.5t-42 132.5v526h64v-518q0 -69 28.5 -98t98.5 -29h550q69 0 98 29t29 98v518h64v-526q0 -90 -42 -132t-132 -42z" />
    <glyph glyph-name="Ucircumflex" unicode="&#xdb;" horiz-adv-x="1065" 
d="M394 757h-64l167 121h72l167 -121h-64l-139 87zM825 0h-584q-90 0 -132 41.5t-42 132.5v526h64v-518q0 -69 28.5 -98t98.5 -29h550q69 0 98 29t29 98v518h64v-526q0 -90 -42 -132t-132 -42z" />
    <glyph glyph-name="Udieresis" unicode="&#xdc;" horiz-adv-x="1065" 
d="M440 775h-57v67h57v-67zM683 775h-57v67h57v-67zM825 0h-584q-90 0 -132 41.5t-42 132.5v526h64v-518q0 -69 28.5 -98t98.5 -29h550q69 0 98 29t29 98v518h64v-526q0 -90 -42 -132t-132 -42z" />
    <glyph glyph-name="Yacute" unicode="&#xdd;" horiz-adv-x="1008" 
d="M648 878h87l-193 -121h-71zM924 700h85l-473 -440v-260h-64v260l-473 440h88l419 -394z" />
    <glyph glyph-name="Thorn" unicode="&#xde;" horiz-adv-x="1026" 
d="M140 575h694q83 0 118.5 -35t35.5 -119v-122q0 -83 -35.5 -118.5t-118.5 -35.5h-694v-145h-64v700h64v-125zM924 305v109q0 62 -23 85.5t-85 23.5h-676v-327h676q62 0 85 23.5t23 85.5z" />
    <glyph glyph-name="germandbls" unicode="&#xdf;" horiz-adv-x="966" 
d="M825 372q77 -21 77 -122v-120q0 -67 -32 -98.5t-98 -31.5h-320v51h301q47 0 66.5 19.5t19.5 66.5v121q0 47 -19.5 66.5t-66.5 19.5h-301v49h281q47 0 66.5 19.5t19.5 66.5v84q0 47 -19.5 66.5t-66.5 19.5h-509q-47 0 -66.5 -19.5t-19.5 -66.5v-563h-62v570q0 67 32 98.5
t98 31.5h546q66 0 98 -31.5t32 -98.5v-83q0 -88 -57 -115z" />
    <glyph glyph-name="agrave" unicode="&#xe0;" horiz-adv-x="950" 
d="M339 700l178 -121h-72l-192 121h86zM220 522h504q83 0 118.5 -35t35.5 -119v-368h-49l-9 80l-45 -31q-47 -33 -79 -40q-34 -9 -100 -9h-409q-121 0 -121 121v50q0 121 121 121h629v73q0 62 -23.5 85t-85.5 23h-470q-47 0 -66.5 -19.5t-19.5 -66.5v-26h-61v31
q0 67 32 98.5t98 31.5zM753 86l63 43v118h-608q-44 0 -62 -18.5t-18 -61.5v-39q0 -44 18 -62t62 -18h404q86 0 141 38z" />
    <glyph glyph-name="aacute" unicode="&#xe1;" horiz-adv-x="950" 
d="M628 700h87l-193 -121h-71zM220 522h504q83 0 118.5 -35t35.5 -119v-368h-49l-9 80l-45 -31q-47 -33 -79 -40q-34 -9 -100 -9h-409q-121 0 -121 121v50q0 121 121 121h629v73q0 62 -23.5 85t-85.5 23h-470q-47 0 -66.5 -19.5t-19.5 -66.5v-26h-61v31q0 67 32 98.5
t98 31.5zM753 86l63 43v118h-608q-44 0 -62 -18.5t-18 -61.5v-39q0 -44 18 -62t62 -18h404q86 0 141 38z" />
    <glyph glyph-name="acircumflex" unicode="&#xe2;" horiz-adv-x="950" 
d="M623 579l-139 87l-139 -87h-64l167 121h72l167 -121h-64zM220 522h504q83 0 118.5 -35t35.5 -119v-368h-49l-9 80l-45 -31q-47 -33 -79 -40q-34 -9 -100 -9h-409q-121 0 -121 121v50q0 121 121 121h629v73q0 62 -23.5 85t-85.5 23h-470q-47 0 -66.5 -19.5t-19.5 -66.5
v-26h-61v31q0 67 32 98.5t98 31.5zM753 86l63 43v118h-608q-44 0 -62 -18.5t-18 -61.5v-39q0 -44 18 -62t62 -18h404q86 0 141 38z" />
    <glyph glyph-name="atilde" unicode="&#xe3;" horiz-adv-x="950" 
d="M335 643v-64h-47v70q0 51 51 51h71q23 0 35.5 -4.5t29.5 -18.5l59 -49q13 -12 34 -12h45q11 0 15.5 4.5t4.5 15.5v64h47v-70q0 -51 -51 -51h-71q-23 0 -35.5 4.5t-29.5 18.5l-59 49q-13 12 -34 12h-45q-11 0 -15.5 -4.5t-4.5 -15.5zM220 522h504q83 0 118.5 -35
t35.5 -119v-368h-49l-9 80l-45 -31q-47 -33 -79 -40q-34 -9 -100 -9h-409q-121 0 -121 121v50q0 121 121 121h629v73q0 62 -23.5 85t-85.5 23h-470q-47 0 -66.5 -19.5t-19.5 -66.5v-26h-61v31q0 67 32 98.5t98 31.5zM753 86l63 43v118h-608q-44 0 -62 -18.5t-18 -61.5v-39
q0 -44 18 -62t62 -18h404q86 0 141 38z" />
    <glyph glyph-name="adieresis" unicode="&#xe4;" horiz-adv-x="950" 
d="M334 664h57v-67h-57v67zM577 664h57v-67h-57v67zM220 522h504q83 0 118.5 -35t35.5 -119v-368h-49l-9 80l-45 -31q-47 -33 -79 -40q-34 -9 -100 -9h-409q-121 0 -121 121v50q0 121 121 121h629v73q0 62 -23.5 85t-85.5 23h-470q-47 0 -66.5 -19.5t-19.5 -66.5v-26h-61v31
q0 67 32 98.5t98 31.5zM753 86l63 43v118h-608q-44 0 -62 -18.5t-18 -61.5v-39q0 -44 18 -62t62 -18h404q86 0 141 38z" />
    <glyph glyph-name="aring" unicode="&#xe5;" horiz-adv-x="950" 
d="M607 569h-247q-53 0 -53 53v25q0 53 53 53h247q53 0 53 -53v-25q0 -53 -53 -53zM348 643v-17q0 -13 4 -17.5t17 -4.5h229q13 0 17.5 4.5t4.5 17.5v17q0 13 -4.5 18t-17.5 5h-229q-12 0 -16.5 -5t-4.5 -18zM220 522h504q83 0 118.5 -35t35.5 -119v-368h-49l-9 80l-45 -31
q-47 -33 -79 -40q-34 -9 -100 -9h-409q-121 0 -121 121v50q0 121 121 121h629v73q0 62 -23.5 85t-85.5 23h-470q-47 0 -66.5 -19.5t-19.5 -66.5v-26h-61v31q0 67 32 98.5t98 31.5zM753 86l63 43v118h-608q-44 0 -62 -18.5t-18 -61.5v-39q0 -44 18 -62t62 -18h404
q86 0 141 38z" />
    <glyph glyph-name="ae" unicode="&#xe6;" horiz-adv-x="1694" 
d="M980 522h494q82 0 118 -35.5t36 -118.5v-106h-750v-103q0 -62 23 -85t85 -23h494q47 0 66.5 19.5t19.5 66.5v37h62v-44q0 -67 -32 -98.5t-98 -31.5h-519q-121 0 -145 84l-51 -35q-47 -33 -79 -40q-34 -9 -100 -9h-417q-121 0 -121 121v50q0 121 121 121h629v73
q0 62 -23.5 85t-85.5 23h-470q-47 0 -66.5 -19.5t-19.5 -66.5v-26h-61v31q0 67 32 98.5t98 31.5h494q104 0 133 -59q29 59 133 59zM878 365v-56h688v56q0 62 -23 85t-85 23h-472q-62 0 -85 -23t-23 -85zM753 86l63 43v118h-608q-44 0 -62 -18.5t-18 -61.5v-39q0 -44 18 -62
t62 -18h404q86 0 141 38z" />
    <glyph glyph-name="ccedilla" unicode="&#xe7;" horiz-adv-x="933" 
d="M867 368v-35h-61v29q0 62 -23.5 85t-85.5 23h-460q-62 0 -85.5 -23t-23.5 -85v-202q0 -62 23.5 -85t85.5 -23h460q62 0 85.5 23t23.5 85v38h61v-44q0 -83 -35.5 -118.5t-118.5 -35.5h-236l-14 -36h111q28 0 39.5 -11.5t11.5 -39.5v-22q0 -28 -11.5 -39.5t-39.5 -11.5
h-233v37h223q16 0 16 16v19q0 16 -16 16h-145v15l21 57h-220q-82 0 -118 35.5t-36 118.5v214q0 83 36 118.5t118 35.5h493q83 0 118.5 -35t35.5 -119z" />
    <glyph glyph-name="egrave" unicode="&#xe8;" horiz-adv-x="944" 
d="M327 700l178 -121h-72l-192 121h86zM220 522h504q83 0 118.5 -35t35.5 -119v-106h-750v-103q0 -62 23.5 -85t85.5 -23h494q47 0 66.5 19.5t19.5 66.5v37h61v-44q0 -67 -32 -98.5t-98 -31.5h-528q-82 0 -118 35.5t-36 118.5v214q0 83 36 118.5t118 35.5zM128 365v-56h689
v56q0 62 -23.5 85t-85.5 23h-471q-62 0 -85.5 -23t-23.5 -85z" />
    <glyph glyph-name="eacute" unicode="&#xe9;" horiz-adv-x="944" 
d="M616 700h87l-193 -121h-71zM220 522h504q83 0 118.5 -35t35.5 -119v-106h-750v-103q0 -62 23.5 -85t85.5 -23h494q47 0 66.5 19.5t19.5 66.5v37h61v-44q0 -67 -32 -98.5t-98 -31.5h-528q-82 0 -118 35.5t-36 118.5v214q0 83 36 118.5t118 35.5zM128 365v-56h689v56
q0 62 -23.5 85t-85.5 23h-471q-62 0 -85.5 -23t-23.5 -85z" />
    <glyph glyph-name="ecircumflex" unicode="&#xea;" horiz-adv-x="944" 
d="M611 579l-139 87l-139 -87h-64l167 121h72l167 -121h-64zM220 522h504q83 0 118.5 -35t35.5 -119v-106h-750v-103q0 -62 23.5 -85t85.5 -23h494q47 0 66.5 19.5t19.5 66.5v37h61v-44q0 -67 -32 -98.5t-98 -31.5h-528q-82 0 -118 35.5t-36 118.5v214q0 83 36 118.5
t118 35.5zM128 365v-56h689v56q0 62 -23.5 85t-85.5 23h-471q-62 0 -85.5 -23t-23.5 -85z" />
    <glyph glyph-name="edieresis" unicode="&#xeb;" horiz-adv-x="944" 
d="M322 664h57v-67h-57v67zM565 664h57v-67h-57v67zM220 522h504q83 0 118.5 -35t35.5 -119v-106h-750v-103q0 -62 23.5 -85t85.5 -23h494q47 0 66.5 19.5t19.5 66.5v37h61v-44q0 -67 -32 -98.5t-98 -31.5h-528q-82 0 -118 35.5t-36 118.5v214q0 83 36 118.5t118 35.5z
M128 365v-56h689v56q0 62 -23.5 85t-85.5 23h-471q-62 0 -85.5 -23t-23.5 -85z" />
    <glyph glyph-name="igrave" unicode="&#xec;" horiz-adv-x="222" 
d="M144 579h-72l-192 121h86zM143 0h-63v522h63v-522z" />
    <glyph glyph-name="iacute" unicode="&#xed;" horiz-adv-x="222" 
d="M342 700l-193 -121h-71l177 121h87zM143 0h-63v522h63v-522z" />
    <glyph glyph-name="icircumflex" unicode="&#xee;" horiz-adv-x="222" 
d="M-28 579h-64l167 121h72l167 -121h-64l-139 87zM143 0h-63v522h63v-522z" />
    <glyph glyph-name="idieresis" unicode="&#xef;" horiz-adv-x="222" 
d="M18 597h-57v67h57v-67zM261 597h-57v67h57v-67zM143 0h-63v522h63v-522z" />
    <glyph glyph-name="eth" unicode="&#xf0;" horiz-adv-x="954" 
d="M554 700h160q90 0 132 -41.5t42 -132.5v-396q0 -67 -32 -98.5t-98 -31.5h-562q-66 0 -98 31.5t-32 98.5v153q0 67 32 98.5t98 31.5h529q70 0 101 -37v146q0 70 -29 98.5t-98 28.5h-202l-92 -83h-62l92 83h-289v51h346l66 60h62zM826 137v140q0 47 -19.5 66.5t-66.5 19.5
h-526q-47 0 -66.5 -19.5t-19.5 -66.5v-140q0 -47 19.5 -66.5t66.5 -19.5h526q47 0 66.5 19.5t19.5 66.5z" />
    <glyph glyph-name="ntilde" unicode="&#xf1;" horiz-adv-x="960" 
d="M331 643v-64h-47v70q0 51 51 51h71q23 0 35.5 -4.5t29.5 -18.5l59 -49q14 -12 34 -12h45q11 0 15.5 4.5t4.5 15.5v64h47v-70q0 -51 -51 -51h-71q-23 0 -35.5 4.5t-29.5 18.5l-59 49q-14 12 -34 12h-45q-11 0 -15.5 -4.5t-4.5 -15.5zM376 522h358q82 0 118 -35.5
t36 -118.5v-368h-63v362q0 62 -23 85t-85 23h-356q-108 0 -170 -44l-53 -37v-389h-62v522h49l9 -80l35 25q47 35 90 45q40 10 117 10z" />
    <glyph glyph-name="ograve" unicode="&#xf2;" horiz-adv-x="954" 
d="M510 579h-72l-192 121h86zM734 0h-514q-82 0 -118 35.5t-36 118.5v214q0 83 36 118.5t118 35.5h514q83 0 118.5 -35t35.5 -119v-214q0 -83 -35.5 -118.5t-118.5 -35.5zM237 52h480q62 0 85.5 23t23.5 85v202q0 62 -23.5 85t-85.5 23h-480q-62 0 -85.5 -23t-23.5 -85v-202
q0 -62 23.5 -85t85.5 -23z" />
    <glyph glyph-name="oacute" unicode="&#xf3;" horiz-adv-x="954" 
d="M708 700l-193 -121h-71l177 121h87zM734 0h-514q-82 0 -118 35.5t-36 118.5v214q0 83 36 118.5t118 35.5h514q83 0 118.5 -35t35.5 -119v-214q0 -83 -35.5 -118.5t-118.5 -35.5zM237 52h480q62 0 85.5 23t23.5 85v202q0 62 -23.5 85t-85.5 23h-480q-62 0 -85.5 -23
t-23.5 -85v-202q0 -62 23.5 -85t85.5 -23z" />
    <glyph glyph-name="ocircumflex" unicode="&#xf4;" horiz-adv-x="954" 
d="M338 579h-64l167 121h72l167 -121h-64l-139 87zM734 0h-514q-82 0 -118 35.5t-36 118.5v214q0 83 36 118.5t118 35.5h514q83 0 118.5 -35t35.5 -119v-214q0 -83 -35.5 -118.5t-118.5 -35.5zM237 52h480q62 0 85.5 23t23.5 85v202q0 62 -23.5 85t-85.5 23h-480
q-62 0 -85.5 -23t-23.5 -85v-202q0 -62 23.5 -85t85.5 -23z" />
    <glyph glyph-name="otilde" unicode="&#xf5;" horiz-adv-x="954" 
d="M328 579h-47v70q0 51 51 51h71q23 0 35.5 -4.5t29.5 -18.5l59 -49q13 -12 34 -12h45q11 0 15.5 4.5t4.5 15.5v64h47v-70q0 -51 -51 -51h-71q-23 0 -35.5 4.5t-29.5 18.5l-59 49q-13 12 -34 12h-45q-11 0 -15.5 -4.5t-4.5 -15.5v-64zM734 0h-514q-82 0 -118 35.5
t-36 118.5v214q0 83 36 118.5t118 35.5h514q83 0 118.5 -35t35.5 -119v-214q0 -83 -35.5 -118.5t-118.5 -35.5zM237 52h480q62 0 85.5 23t23.5 85v202q0 62 -23.5 85t-85.5 23h-480q-62 0 -85.5 -23t-23.5 -85v-202q0 -62 23.5 -85t85.5 -23z" />
    <glyph glyph-name="odieresis" unicode="&#xf6;" horiz-adv-x="954" 
d="M384 597h-57v67h57v-67zM627 597h-57v67h57v-67zM734 0h-514q-82 0 -118 35.5t-36 118.5v214q0 83 36 118.5t118 35.5h514q83 0 118.5 -35t35.5 -119v-214q0 -83 -35.5 -118.5t-118.5 -35.5zM237 52h480q62 0 85.5 23t23.5 85v202q0 62 -23.5 85t-85.5 23h-480
q-62 0 -85.5 -23t-23.5 -85v-202q0 -62 23.5 -85t85.5 -23z" />
    <glyph glyph-name="divide" unicode="&#xf7;" 
d="M558 555h-84v73h84v-73zM77 323v54h878v-54h-878zM558 72h-84v73h84v-73z" />
    <glyph glyph-name="oslash" unicode="&#xf8;" horiz-adv-x="954" 
d="M918 561l-82 -61q52 -33 52 -132v-214q0 -83 -35.5 -118.5t-118.5 -35.5h-514q-35 0 -52 4l-58 -43h-74l83 61q-53 33 -53 132v214q0 83 36 118.5t118 35.5h514q35 0 52 -4l58 43h74zM127 363v-204q0 -82 43 -98l553 410h-5h-482q-62 0 -85.5 -23t-23.5 -85zM827 159v204
q0 82 -43 98l-553 -410h5h482q62 0 85.5 23t23.5 85z" />
    <glyph glyph-name="ugrave" unicode="&#xf9;" horiz-adv-x="960" 
d="M335 700l178 -121h-72l-192 121h86zM822 522h62v-522h-49l-9 80l-35 -25q-46 -34 -89 -45q-41 -10 -118 -10h-358q-82 0 -118 35.5t-36 118.5v368h63v-362q0 -62 23 -85t85 -23h356q108 0 170 44l53 37v389z" />
    <glyph glyph-name="uacute" unicode="&#xfa;" horiz-adv-x="960" 
d="M624 700h87l-193 -121h-71zM822 522h62v-522h-49l-9 80l-35 -25q-46 -34 -89 -45q-41 -10 -118 -10h-358q-82 0 -118 35.5t-36 118.5v368h63v-362q0 -62 23 -85t85 -23h356q108 0 170 44l53 37v389z" />
    <glyph glyph-name="ucircumflex" unicode="&#xfb;" horiz-adv-x="960" 
d="M619 579l-139 87l-139 -87h-64l167 121h72l167 -121h-64zM822 522h62v-522h-49l-9 80l-35 -25q-46 -34 -89 -45q-41 -10 -118 -10h-358q-82 0 -118 35.5t-36 118.5v368h63v-362q0 -62 23 -85t85 -23h356q108 0 170 44l53 37v389z" />
    <glyph glyph-name="udieresis" unicode="&#xfc;" horiz-adv-x="960" 
d="M330 664h57v-67h-57v67zM573 664h57v-67h-57v67zM822 522h62v-522h-49l-9 80l-35 -25q-46 -34 -89 -45q-41 -10 -118 -10h-358q-82 0 -118 35.5t-36 118.5v368h63v-362q0 -62 23 -85t85 -23h356q108 0 170 44l53 37v389z" />
    <glyph glyph-name="yacute" unicode="&#xfd;" horiz-adv-x="908" 
d="M598 700h87l-193 -121h-71zM455 56l370 466h75l-438 -544q-63 -81 -117 -110q-52 -28 -151 -28h-135v52h147q69 0 111 20q41 21 86 80l16 19l-411 511h78z" />
    <glyph glyph-name="thorn" unicode="&#xfe;" horiz-adv-x="964" 
d="M376 522h368q82 0 118 -35.5t36 -118.5v-214q0 -83 -36 -118.5t-118 -35.5h-368q-72 0 -116 11q-45 11 -91 44l-31 22v-237h-62v860h62v-255l31 22q47 35 90 45q40 10 117 10zM835 160v202q0 62 -23 85t-85 23h-366q-109 0 -170 -43l-53 -38v-256l53 -37q62 -44 170 -44
h366q62 0 85 23t23 85z" />
    <glyph glyph-name="ydieresis" unicode="&#xff;" horiz-adv-x="908" 
d="M304 664h57v-67h-57v67zM547 664h57v-67h-57v67zM455 56l370 466h75l-438 -544q-63 -81 -117 -110q-52 -28 -151 -28h-135v52h147q69 0 111 20q41 21 86 80l16 19l-411 511h78z" />
    <glyph glyph-name="Amacron" unicode="&#x100;" horiz-adv-x="1082" 
d="M317 841h448v-43h-448v43zM1083 0h-73l-141 195h-659l-141 -195h-70l509 700h66zM539 650l-291 -402h582z" />
    <glyph glyph-name="amacron" unicode="&#x101;" horiz-adv-x="950" 
d="M260 663h448v-43h-448v43zM220 522h504q83 0 118.5 -35t35.5 -119v-368h-49l-9 80l-45 -31q-47 -33 -79 -40q-34 -9 -100 -9h-409q-121 0 -121 121v50q0 121 121 121h629v73q0 62 -23.5 85t-85.5 23h-470q-47 0 -66.5 -19.5t-19.5 -66.5v-26h-61v31q0 67 32 98.5t98 31.5
zM753 86l63 43v118h-608q-44 0 -62 -18.5t-18 -61.5v-39q0 -44 18 -62t62 -18h404q86 0 141 38z" />
    <glyph glyph-name="Abreve" unicode="&#x102;" horiz-adv-x="1082" 
d="M680 757h-277q-72 0 -72 72v49h52v-45q0 -35 35 -35h246q35 0 35 35v45h52v-49q0 -72 -71 -72zM1083 0h-73l-141 195h-659l-141 -195h-70l509 700h66zM539 650l-291 -402h582z" />
    <glyph glyph-name="abreve" unicode="&#x103;" horiz-adv-x="950" 
d="M623 579h-277q-72 0 -72 72v49h52v-45q0 -35 35 -35h246q35 0 35 35v45h52v-49q0 -72 -71 -72zM220 522h504q83 0 118.5 -35t35.5 -119v-368h-49l-9 80l-45 -31q-47 -33 -79 -40q-34 -9 -100 -9h-409q-121 0 -121 121v50q0 121 121 121h629v73q0 62 -23.5 85t-85.5 23
h-470q-47 0 -66.5 -19.5t-19.5 -66.5v-26h-61v31q0 67 32 98.5t98 31.5zM753 86l63 43v118h-608q-44 0 -62 -18.5t-18 -61.5v-39q0 -44 18 -62t62 -18h404q86 0 141 38z" />
    <glyph glyph-name="Aogonek" unicode="&#x104;" horiz-adv-x="1082" 
d="M958 -117h155v-43h-168q-41 0 -59 18t-18 59v18q0 32 9 45t41 24l70 26l-119 165h-659l-141 -195h-70l509 700h66l509 -700h-65l-71 -25q-19 -6 -24 -12.5t-5 -23.5v-16q0 -23 9 -31.5t31 -8.5zM539 650l-291 -402h582z" />
    <glyph glyph-name="aogonek" unicode="&#x105;" horiz-adv-x="948" 
d="M805 -117h126v-43h-139q-40 0 -58.5 18t-18.5 59v16q0 30 9.5 44t41.5 28l59 26l-5 49l-45 -31q-47 -33 -79 -40q-34 -9 -100 -9h-409q-121 0 -121 121v50q0 121 121 121h629v73q0 62 -23.5 85t-85.5 23h-470q-47 0 -66.5 -19.5t-19.5 -66.5v-26h-61v31q0 67 32 98.5
t98 31.5h504q83 0 118.5 -35t35.5 -119v-368h-28l-55 -24q-18 -7 -24 -15t-6 -24v-14q0 -23 8.5 -31.5t31.5 -8.5zM753 86l63 43v118h-608q-44 0 -62 -18.5t-18 -61.5v-39q0 -44 18 -62t62 -18h404q86 0 141 38z" />
    <glyph glyph-name="Cacute" unicode="&#x106;" horiz-adv-x="1070" 
d="M766 878l-193 -121h-71l177 121h87zM833 0h-593q-90 0 -132 42t-42 132v352q0 91 42 132.5t132 41.5h593q90 0 132 -41.5t42 -132.5v-64h-63v57q0 70 -28.5 98.5t-98.5 28.5h-560q-69 0 -98 -28.5t-29 -98.5v-338q0 -70 29 -98.5t98 -28.5h560q70 0 98.5 28.5t28.5 98.5
v66h63v-73q0 -91 -42 -132.5t-132 -41.5z" />
    <glyph glyph-name="cacute" unicode="&#x107;" horiz-adv-x="933" 
d="M698 700l-193 -121h-71l177 121h87zM66 154v214q0 83 36 118.5t118 35.5h493q83 0 118.5 -35t35.5 -119v-35h-61v29q0 62 -23.5 85t-85.5 23h-460q-62 0 -85.5 -23t-23.5 -85v-202q0 -62 23.5 -85t85.5 -23h460q62 0 85.5 23t23.5 85v38h61v-44q0 -83 -35.5 -118.5
t-118.5 -35.5h-493q-82 0 -118 35.5t-36 118.5z" />
    <glyph glyph-name="Ccircumflex" unicode="&#x108;" horiz-adv-x="1070" 
d="M396 757h-64l167 121h72l167 -121h-64l-139 87zM833 0h-593q-90 0 -132 42t-42 132v352q0 91 42 132.5t132 41.5h593q90 0 132 -41.5t42 -132.5v-64h-63v57q0 70 -28.5 98.5t-98.5 28.5h-560q-69 0 -98 -28.5t-29 -98.5v-338q0 -70 29 -98.5t98 -28.5h560q70 0 98.5 28.5
t28.5 98.5v66h63v-73q0 -91 -42 -132.5t-132 -41.5z" />
    <glyph glyph-name="ccircumflex" unicode="&#x109;" horiz-adv-x="933" 
d="M328 579h-64l167 121h72l167 -121h-64l-139 87zM66 154v214q0 83 36 118.5t118 35.5h493q83 0 118.5 -35t35.5 -119v-35h-61v29q0 62 -23.5 85t-85.5 23h-460q-62 0 -85.5 -23t-23.5 -85v-202q0 -62 23.5 -85t85.5 -23h460q62 0 85.5 23t23.5 85v38h61v-44
q0 -83 -35.5 -118.5t-118.5 -35.5h-493q-82 0 -118 35.5t-36 118.5z" />
    <glyph glyph-name="Cdotaccent" unicode="&#x10a;" horiz-adv-x="1070" 
d="M567 775h-63v67h63v-67zM833 0h-593q-90 0 -132 42t-42 132v352q0 91 42 132.5t132 41.5h593q90 0 132 -41.5t42 -132.5v-64h-63v57q0 70 -28.5 98.5t-98.5 28.5h-560q-69 0 -98 -28.5t-29 -98.5v-338q0 -70 29 -98.5t98 -28.5h560q70 0 98.5 28.5t28.5 98.5v66h63v-73
q0 -91 -42 -132.5t-132 -41.5z" />
    <glyph glyph-name="cdotaccent" unicode="&#x10b;" horiz-adv-x="933" 
d="M499 597h-63v67h63v-67zM66 154v214q0 83 36 118.5t118 35.5h493q83 0 118.5 -35t35.5 -119v-35h-61v29q0 62 -23.5 85t-85.5 23h-460q-62 0 -85.5 -23t-23.5 -85v-202q0 -62 23.5 -85t85.5 -23h460q62 0 85.5 23t23.5 85v38h61v-44q0 -83 -35.5 -118.5t-118.5 -35.5
h-493q-82 0 -118 35.5t-36 118.5z" />
    <glyph glyph-name="Ccaron" unicode="&#x10c;" horiz-adv-x="1070" 
d="M674 878h64l-167 -121h-72l-167 121h64l139 -87zM833 0h-593q-90 0 -132 42t-42 132v352q0 91 42 132.5t132 41.5h593q90 0 132 -41.5t42 -132.5v-64h-63v57q0 70 -28.5 98.5t-98.5 28.5h-560q-69 0 -98 -28.5t-29 -98.5v-338q0 -70 29 -98.5t98 -28.5h560
q70 0 98.5 28.5t28.5 98.5v66h63v-73q0 -91 -42 -132.5t-132 -41.5z" />
    <glyph glyph-name="ccaron" unicode="&#x10d;" horiz-adv-x="933" 
d="M606 700h64l-167 -121h-72l-167 121h64l139 -87zM66 154v214q0 83 36 118.5t118 35.5h493q83 0 118.5 -35t35.5 -119v-35h-61v29q0 62 -23.5 85t-85.5 23h-460q-62 0 -85.5 -23t-23.5 -85v-202q0 -62 23.5 -85t85.5 -23h460q62 0 85.5 23t23.5 85v38h61v-44
q0 -83 -35.5 -118.5t-118.5 -35.5h-493q-82 0 -118 35.5t-36 118.5z" />
    <glyph glyph-name="Dcaron" unicode="&#x10e;" horiz-adv-x="1094" 
d="M691 878h64l-167 -121h-72l-167 121h64l139 -87zM813 0h-737v700h737q105 0 160 -54.5t55 -160.5v-270q0 -106 -55 -160.5t-160 -54.5zM140 646v-592h660q164 0 164 164v264q0 164 -164 164h-660z" />
    <glyph glyph-name="dcaron" unicode="&#x10f;" horiz-adv-x="1033" 
d="M795 467l31 -22v255h62v-700h-49l-9 80l-35 -25q-46 -33 -90 -44q-46 -11 -118 -11h-367q-82 0 -118 35.5t-36 118.5v214q0 83 36 118.5t118 35.5h367q77 0 118 -10q43 -10 90 -45zM937 631v69h78v-39q0 -25 -12 -49l-31 -66h-38l35 85h-32zM773 96l53 37v256l-53 38
q-61 43 -170 43h-366q-62 0 -85.5 -23t-23.5 -85v-202q0 -62 23.5 -85t85.5 -23h366q108 0 170 44z" />
    <glyph glyph-name="Dcroat" unicode="&#x110;" horiz-adv-x="1154" 
d="M136 700h737q105 0 160 -54.5t55 -160.5v-270q0 -106 -55 -160.5t-160 -54.5h-737v327h-98v46h98v327zM1024 218v264q0 164 -164 164h-660v-273h462v-46h-462v-273h660q164 0 164 164z" />
    <glyph glyph-name="dslash" unicode="&#x111;" horiz-adv-x="1004" 
d="M888 630h88v-43h-88v-587h-49l-9 80l-35 -25q-46 -33 -90 -44q-46 -11 -118 -11h-367q-82 0 -118 35.5t-36 118.5v214q0 83 36 118.5t118 35.5h367q77 0 118 -10q43 -10 90 -45l31 -22v142h-370v43h370v70h62v-70zM773 96l53 37v256l-53 38q-61 43 -170 43h-366
q-62 0 -85.5 -23t-23.5 -85v-202q0 -62 23.5 -85t85.5 -23h366q108 0 170 44z" />
    <glyph glyph-name="Emacron" unicode="&#x112;" horiz-adv-x="974" 
d="M263 841h448v-43h-448v43zM140 343v-289h796v-54h-860v700h850v-54h-786v-252h746v-51h-746z" />
    <glyph glyph-name="emacron" unicode="&#x113;" horiz-adv-x="944" 
d="M248 663h448v-43h-448v43zM220 522h504q83 0 118.5 -35t35.5 -119v-106h-750v-103q0 -62 23.5 -85t85.5 -23h494q47 0 66.5 19.5t19.5 66.5v37h61v-44q0 -67 -32 -98.5t-98 -31.5h-528q-82 0 -118 35.5t-36 118.5v214q0 83 36 118.5t118 35.5zM128 365v-56h689v56
q0 62 -23.5 85t-85.5 23h-471q-62 0 -85.5 -23t-23.5 -85z" />
    <glyph glyph-name="Ebreve" unicode="&#x114;" horiz-adv-x="974" 
d="M626 757h-277q-72 0 -72 72v49h52v-45q0 -35 35 -35h246q35 0 35 35v45h52v-49q0 -72 -71 -72zM140 343v-289h796v-54h-860v700h850v-54h-786v-252h746v-51h-746z" />
    <glyph glyph-name="ebreve" unicode="&#x115;" horiz-adv-x="944" 
d="M611 579h-277q-72 0 -72 72v49h52v-45q0 -35 35 -35h246q35 0 35 35v45h52v-49q0 -72 -71 -72zM220 522h504q83 0 118.5 -35t35.5 -119v-106h-750v-103q0 -62 23.5 -85t85.5 -23h494q47 0 66.5 19.5t19.5 66.5v37h61v-44q0 -67 -32 -98.5t-98 -31.5h-528q-82 0 -118 35.5
t-36 118.5v214q0 83 36 118.5t118 35.5zM128 365v-56h689v56q0 62 -23.5 85t-85.5 23h-471q-62 0 -85.5 -23t-23.5 -85z" />
    <glyph glyph-name="Edotaccent" unicode="&#x116;" horiz-adv-x="974" 
d="M456 842h63v-67h-63v67zM140 343v-289h796v-54h-860v700h850v-54h-786v-252h746v-51h-746z" />
    <glyph glyph-name="edotaccent" unicode="&#x117;" horiz-adv-x="944" 
d="M441 664h63v-67h-63v67zM220 522h504q83 0 118.5 -35t35.5 -119v-106h-750v-103q0 -62 23.5 -85t85.5 -23h494q47 0 66.5 19.5t19.5 66.5v37h61v-44q0 -67 -32 -98.5t-98 -31.5h-528q-82 0 -118 35.5t-36 118.5v214q0 83 36 118.5t118 35.5zM128 365v-56h689v56
q0 62 -23.5 85t-85.5 23h-471q-62 0 -85.5 -23t-23.5 -85z" />
    <glyph glyph-name="Eogonek" unicode="&#x118;" horiz-adv-x="974" 
d="M834 0l-71 -25q-19 -6 -24 -12.5t-5 -23.5v-16q0 -23 9 -31.5t31 -8.5h155v-43h-168q-41 0 -59 18t-18 59v18q0 30 6.5 42t32.5 23h-647v700h850v-54h-786v-252h746v-51h-746v-289h796v-54h-102z" />
    <glyph glyph-name="eogonek" unicode="&#x119;" horiz-adv-x="944" 
d="M220 522h504q83 0 118.5 -35t35.5 -119v-106h-750v-103q0 -62 23.5 -85t85.5 -23h494q47 0 66.5 19.5t19.5 66.5v37h61v-44q0 -67 -32 -98.5t-98 -31.5h-166l-71 -25q-19 -6 -24 -12.5t-5 -23.5v-16q0 -23 9 -31.5t31 -8.5h155v-43h-168q-41 0 -59 18t-18 59v18
q0 30 6.5 42t32.5 23h-251q-82 0 -118 35.5t-36 118.5v214q0 83 36 118.5t118 35.5zM128 365v-56h689v56q0 62 -23.5 85t-85.5 23h-471q-62 0 -85.5 -23t-23.5 -85z" />
    <glyph glyph-name="Ecaron" unicode="&#x11a;" horiz-adv-x="974" 
d="M690 878l-167 -121h-72l-167 121h64l139 -87l139 87h64zM140 343v-289h796v-54h-860v700h850v-54h-786v-252h746v-51h-746z" />
    <glyph glyph-name="ecaron" unicode="&#x11b;" horiz-adv-x="944" 
d="M675 700l-167 -121h-72l-167 121h64l139 -87l139 87h64zM220 522h504q83 0 118.5 -35t35.5 -119v-106h-750v-103q0 -62 23.5 -85t85.5 -23h494q47 0 66.5 19.5t19.5 66.5v37h61v-44q0 -67 -32 -98.5t-98 -31.5h-528q-82 0 -118 35.5t-36 118.5v214q0 83 36 118.5
t118 35.5zM128 365v-56h689v56q0 62 -23.5 85t-85.5 23h-471q-62 0 -85.5 -23t-23.5 -85z" />
    <glyph glyph-name="Gcircumflex" unicode="&#x11c;" horiz-adv-x="1094" 
d="M408 757h-64l167 121h72l167 -121h-64l-139 87zM66 174v352q0 91 42 132.5t132 41.5h614q90 0 132 -41.5t42 -132.5v-34h-64v27q0 70 -28.5 98.5t-98.5 28.5h-580q-69 0 -98 -28.5t-29 -98.5v-339q0 -70 29 -98.5t98 -28.5h581q70 0 98.5 28.5t28.5 98.5v120h-389v52h452
v-178q0 -91 -42 -132.5t-132 -41.5h-614q-90 0 -132 42t-42 132z" />
    <glyph glyph-name="gcircumflex" unicode="&#x11d;" horiz-adv-x="964" 
d="M621 579l-139 87l-139 -87h-64l167 121h72l167 -121h-64zM830 442l9 80h49v-508q0 -91 -42 -132.5t-132 -41.5h-628v50h613q69 0 98 28.5t29 98.5v94l-31 -22q-48 -35 -91 -45q-46 -11 -117 -11h-367q-82 0 -118 35.5t-36 118.5v181q0 83 36 118.5t118 35.5h367
q77 0 118 -10q43 -10 90 -45zM773 128l53 38v224l-53 37q-62 44 -170 44h-366q-62 0 -85.5 -23t-23.5 -85v-170q0 -62 23.5 -85.5t85.5 -23.5h366q106 0 170 44z" />
    <glyph glyph-name="Gbreve" unicode="&#x11e;" horiz-adv-x="1094" 
d="M686 757h-277q-72 0 -72 72v49h52v-45q0 -35 35 -35h246q35 0 35 35v45h52v-49q0 -72 -71 -72zM66 174v352q0 91 42 132.5t132 41.5h614q90 0 132 -41.5t42 -132.5v-34h-64v27q0 70 -28.5 98.5t-98.5 28.5h-580q-69 0 -98 -28.5t-29 -98.5v-339q0 -70 29 -98.5t98 -28.5
h581q70 0 98.5 28.5t28.5 98.5v120h-389v52h452v-178q0 -91 -42 -132.5t-132 -41.5h-614q-90 0 -132 42t-42 132z" />
    <glyph glyph-name="gbreve" unicode="&#x11f;" horiz-adv-x="964" 
d="M621 579h-277q-72 0 -72 72v49h52v-45q0 -35 35 -35h246q35 0 35 35v45h52v-49q0 -72 -71 -72zM830 442l9 80h49v-508q0 -91 -42 -132.5t-132 -41.5h-628v50h613q69 0 98 28.5t29 98.5v94l-31 -22q-48 -35 -91 -45q-46 -11 -117 -11h-367q-82 0 -118 35.5t-36 118.5v181
q0 83 36 118.5t118 35.5h367q77 0 118 -10q43 -10 90 -45zM773 128l53 38v224l-53 37q-62 44 -170 44h-366q-62 0 -85.5 -23t-23.5 -85v-170q0 -62 23.5 -85.5t85.5 -23.5h366q106 0 170 44z" />
    <glyph glyph-name="Gdotaccent" unicode="&#x120;" horiz-adv-x="1094" 
d="M579 775h-63v67h63v-67zM66 174v352q0 91 42 132.5t132 41.5h614q90 0 132 -41.5t42 -132.5v-34h-64v27q0 70 -28.5 98.5t-98.5 28.5h-580q-69 0 -98 -28.5t-29 -98.5v-339q0 -70 29 -98.5t98 -28.5h581q70 0 98.5 28.5t28.5 98.5v120h-389v52h452v-178q0 -91 -42 -132.5
t-132 -41.5h-614q-90 0 -132 42t-42 132z" />
    <glyph glyph-name="gdotaccent" unicode="&#x121;" horiz-adv-x="964" 
d="M451 664h63v-67h-63v67zM830 442l9 80h49v-508q0 -91 -42 -132.5t-132 -41.5h-628v50h613q69 0 98 28.5t29 98.5v94l-31 -22q-48 -35 -91 -45q-46 -11 -117 -11h-367q-82 0 -118 35.5t-36 118.5v181q0 83 36 118.5t118 35.5h367q77 0 118 -10q43 -10 90 -45zM773 128
l53 38v224l-53 37q-62 44 -170 44h-366q-62 0 -85.5 -23t-23.5 -85v-170q0 -62 23.5 -85.5t85.5 -23.5h366q106 0 170 44z" />
    <glyph glyph-name="Gcommaaccent" unicode="&#x122;" horiz-adv-x="1094" 
d="M66 174v352q0 91 42 132.5t132 41.5h614q90 0 132 -41.5t42 -132.5v-34h-64v27q0 70 -28.5 98.5t-98.5 28.5h-580q-69 0 -98 -28.5t-29 -98.5v-339q0 -70 29 -98.5t98 -28.5h581q70 0 98.5 28.5t28.5 98.5v120h-389v52h452v-178q0 -91 -42 -132.5t-132 -41.5h-614
q-90 0 -132 42t-42 132zM543 -169h-38l35 73h-32v66h78v-35q0 -25 -14 -48z" />
    <glyph glyph-name="gcommaaccent" unicode="&#x123;" horiz-adv-x="964" 
d="M490 645h30v-66h-76v35q0 26 13 48l29 56h38zM830 442l9 80h49v-508q0 -91 -42 -132.5t-132 -41.5h-628v50h613q69 0 98 28.5t29 98.5v94l-31 -22q-48 -35 -91 -45q-46 -11 -117 -11h-367q-82 0 -118 35.5t-36 118.5v181q0 83 36 118.5t118 35.5h367q77 0 118 -10
q43 -10 90 -45zM773 128l53 38v224l-53 37q-62 44 -170 44h-366q-62 0 -85.5 -23t-23.5 -85v-170q0 -62 23.5 -85.5t85.5 -23.5h366q106 0 170 44z" />
    <glyph glyph-name="Hcircumflex" unicode="&#x124;" horiz-adv-x="1084" 
d="M681 757l-139 87l-139 -87h-64l167 121h72l167 -121h-64zM944 397v303h64v-700h-64v341h-804v-341h-64v700h64v-303h804z" />
    <glyph glyph-name="hcircumflex" unicode="&#x125;" horiz-adv-x="960" 
d="M310 757h-64l-139 87l-139 -87h-64l167 121h72zM377 522h357q82 0 118 -35.5t36 -118.5v-368h-63v362q0 62 -23 85t-85 23h-356q-108 0 -170 -44l-53 -37v-389h-62v700h62v-256l32 23q46 35 90 45q40 10 117 10z" />
    <glyph glyph-name="Hbar" unicode="&#x126;" horiz-adv-x="1204" 
d="M1068 576h98v-45h-98v-531h-64v341h-804v-341h-64v531h-98v45h98v124h64v-124h804v124h64v-124zM200 397h804v134h-804v-134z" />
    <glyph glyph-name="hbar" unicode="&#x127;" horiz-adv-x="1000" 
d="M426 522h357q82 0 118 -35.5t36 -118.5v-368h-63v362q0 62 -23 85t-85 23h-356q-108 0 -170 -44l-53 -37v-389h-62v587h-97v43h97v70h62v-70h361v-43h-361v-143l32 23q47 35 90 45q40 10 117 10z" />
    <glyph glyph-name="Itilde" unicode="&#x128;" horiz-adv-x="228" 
d="M-35 757h-47v70q0 51 51 51h71q23 0 35.5 -4.5t29.5 -18.5l59 -49q14 -12 34 -12h45q11 0 15.5 4.5t4.5 15.5v64h47v-70q0 -51 -51 -51h-71q-23 0 -35.5 4.5t-29.5 18.5l-59 49q-13 12 -34 12h-45q-11 0 -15.5 -4.5t-4.5 -15.5v-64zM82 0v700h64v-700h-64z" />
    <glyph glyph-name="itilde" unicode="&#x129;" horiz-adv-x="222" 
d="M-38 579h-47v70q0 51 51 51h71q23 0 35.5 -4.5t29.5 -18.5l59 -49q13 -12 34 -12h45q11 0 15.5 4.5t4.5 15.5v64h47v-70q0 -51 -51 -51h-71q-23 0 -35.5 4.5t-29.5 18.5l-59 49q-14 12 -34 12h-45q-11 0 -15.5 -4.5t-4.5 -15.5v-64zM143 0h-63v522h63v-522z" />
    <glyph glyph-name="Imacron" unicode="&#x12a;" horiz-adv-x="228" 
d="M338 798h-448v43h448v-43zM82 0v700h64v-700h-64z" />
    <glyph glyph-name="imacron" unicode="&#x12b;" horiz-adv-x="222" 
d="M335 620h-448v43h448v-43zM143 0h-63v522h63v-522z" />
    <glyph glyph-name="Ibreve" unicode="&#x12c;" horiz-adv-x="228" 
d="M253 757h-277q-72 0 -72 72v49h52v-45q0 -35 35 -35h246q35 0 35 35v45h52v-49q0 -72 -71 -72zM82 0v700h64v-700h-64z" />
    <glyph glyph-name="ibreve" unicode="&#x12d;" horiz-adv-x="222" 
d="M250 579h-277q-72 0 -72 72v49h52v-45q0 -35 35 -35h246q35 0 35 35v45h52v-49q0 -72 -71 -72zM143 0h-63v522h63v-522z" />
    <glyph glyph-name="Iogonek" unicode="&#x12e;" horiz-adv-x="228" 
d="M47 -117h155v-43h-168q-40 0 -58.5 18t-18.5 59v18q0 32 9 45t41 24l75 27v669h64v-700h-39l-71 -25q-19 -6 -24 -12.5t-5 -23.5v-16q0 -23 8.5 -31.5t31.5 -8.5z" />
    <glyph glyph-name="iogonek" unicode="&#x12f;" horiz-adv-x="222" 
d="M80 664h63v-67h-63v67zM38 -117h155v-43h-168q-41 0 -59 18t-18 59v18q0 32 9 45t41 24l82 30v488h63v-522h-45l-71 -25q-19 -6 -24 -12.5t-5 -23.5v-16q0 -23 9 -31.5t31 -8.5z" />
    <glyph glyph-name="Idot" unicode="&#x130;" horiz-adv-x="228" 
d="M146 775h-64v67h64v-67zM82 0v700h64v-700h-64z" />
    <glyph glyph-name="dotlessi" unicode="&#x131;" horiz-adv-x="222" 
d="M143 0h-63v522h63v-522z" />
    <glyph glyph-name="IJ" unicode="&#x132;" horiz-adv-x="1204" 
d="M82 0v700h64v-700h-64zM963 0h-523q-90 0 -132 42t-42 132v73h63v-66q0 -70 28.5 -98.5t98.5 -28.5h490q70 0 98.5 28.5t28.5 98.5v519h64v-526q0 -91 -42 -132.5t-132 -41.5z" />
    <glyph glyph-name="ij" unicode="&#x133;" horiz-adv-x="466" 
d="M143 630h-63v70h63v-70zM387 630h-63v70h63v-70zM257 -160h-237v51h218q47 0 66.5 19.5t19.5 66.5v545h63v-552q0 -67 -32 -98.5t-98 -31.5zM143 0h-63v522h63v-522z" />
    <glyph glyph-name="Jcircumflex" unicode="&#x134;" horiz-adv-x="976" 
d="M738 757h-64l167 121h72l167 -121h-64l-139 87zM735 0h-523q-90 0 -132 42t-42 132v73h63v-66q0 -70 28.5 -98.5t98.5 -28.5h490q70 0 98.5 28.5t28.5 98.5v519h64v-526q0 -91 -42 -132.5t-132 -41.5z" />
    <glyph glyph-name="jcircumflex" unicode="&#x135;" horiz-adv-x="322" 
d="M72 579h-64l167 121h72l167 -121h-64l-139 87zM113 -160h-237v51h218q47 0 66.5 19.5t19.5 66.5v545h63v-552q0 -67 -32 -98.5t-98 -31.5z" />
    <glyph glyph-name="Kcommaaccent" unicode="&#x136;" horiz-adv-x="972" 
d="M959 700l-722 -339l726 -361h-131l-692 349v-349h-64v700h64v-329l687 329h132zM449 -96h-32v66h78v-35q0 -25 -14 -48l-29 -56h-38z" />
    <glyph glyph-name="kcommaaccent" unicode="&#x137;" horiz-adv-x="853" 
d="M858 522l-610 -260l615 -262h-142l-583 252v-252h-62v700h62v-429l581 251h139zM404 -96h-32v66h78v-35q0 -25 -14 -48l-29 -56h-38z" />
    <glyph glyph-name="Lacute" unicode="&#x139;" horiz-adv-x="905" 
d="M252 878h87l-193 -121h-71zM140 700v-645h746v-55h-810v700h64z" />
    <glyph glyph-name="lacute" unicode="&#x13a;" horiz-adv-x="222" 
d="M342 878l-193 -121h-71l177 121h87zM143 0h-63v700h63v-700z" />
    <glyph glyph-name="Lcommaaccent" unicode="&#x13b;" horiz-adv-x="905" 
d="M140 700v-645h746v-55h-810v700h64zM446 -96h-32v66h78v-35q0 -25 -14 -48l-29 -56h-38z" />
    <glyph glyph-name="lcommaaccent" unicode="&#x13c;" horiz-adv-x="222" 
d="M143 0h-63v700h63v-700zM107 -169h-38l35 73h-32v66h78v-35q0 -25 -14 -48z" />
    <glyph glyph-name="Lcaron" unicode="&#x13d;" horiz-adv-x="905" 
d="M140 700v-645h746v-55h-810v700h64zM436 612l-31 -66h-38l35 85h-32v69h78v-39q0 -25 -12 -49z" />
    <glyph glyph-name="lcaron" unicode="&#x13e;" horiz-adv-x="297" 
d="M143 0h-63v700h63v-700zM235 546h-37l35 85h-32v69h78v-39q0 -24 -13 -49z" />
    <glyph glyph-name="Ldot" unicode="&#x13f;" horiz-adv-x="905" 
d="M140 700v-645h746v-55h-810v700h64zM458 443h84v-82h-84v82z" />
    <glyph glyph-name="ldot" unicode="&#x140;" horiz-adv-x="327" 
d="M143 0h-63v700h63v-700zM308 340h-84v82h84v-82z" />
    <glyph glyph-name="Lslash" unicode="&#x141;" horiz-adv-x="965" 
d="M200 352v-297h746v-55h-810v342l-98 -15v47l98 15v311h64v-301l498 75v-47z" />
    <glyph glyph-name="lslash" unicode="&#x142;" horiz-adv-x="313" 
d="M188 391l97 23v-47l-97 -23v-344h-63v330l-97 -23v47l97 23v323h63v-309z" />
    <glyph glyph-name="Nacute" unicode="&#x143;" horiz-adv-x="1104" 
d="M696 878h87l-193 -121h-71zM965 79v621h63v-700h-50l-839 624v-624h-63v700h55z" />
    <glyph glyph-name="nacute" unicode="&#x144;" horiz-adv-x="960" 
d="M624 700h87l-193 -121h-71zM376 522h358q82 0 118 -35.5t36 -118.5v-368h-63v362q0 62 -23 85t-85 23h-356q-108 0 -170 -44l-53 -37v-389h-62v522h49l9 -80l35 25q47 35 90 45q40 10 117 10z" />
    <glyph glyph-name="Ncommaaccent" unicode="&#x145;" horiz-adv-x="1104" 
d="M965 79v621h63v-700h-50l-839 624v-624h-63v700h55zM545 -96h-32v66h78v-35q0 -25 -14 -48l-29 -56h-38z" />
    <glyph glyph-name="ncommaaccent" unicode="&#x146;" horiz-adv-x="960" 
d="M376 522h358q82 0 118 -35.5t36 -118.5v-368h-63v362q0 62 -23 85t-85 23h-356q-108 0 -170 -44l-53 -37v-389h-62v522h49l9 -80l35 25q47 35 90 45q40 10 117 10zM473 -96h-32v66h78v-35q0 -25 -14 -48l-29 -56h-38z" />
    <glyph glyph-name="Ncaron" unicode="&#x147;" horiz-adv-x="1104" 
d="M755 878l-167 -121h-72l-167 121h64l139 -87l139 87h64zM965 79v621h63v-700h-50l-839 624v-624h-63v700h55z" />
    <glyph glyph-name="ncaron" unicode="&#x148;" horiz-adv-x="960" 
d="M683 700l-167 -121h-72l-167 121h64l139 -87l139 87h64zM376 522h358q82 0 118 -35.5t36 -118.5v-368h-63v362q0 62 -23 85t-85 23h-356q-108 0 -170 -44l-53 -37v-389h-62v522h49l9 -80l35 25q47 35 90 45q40 10 117 10z" />
    <glyph glyph-name="Eng" unicode="&#x14a;" horiz-adv-x="1104" 
d="M965 79v621h63v-696q0 -87 -39 -125.5t-125 -38.5h-168v50h152q65 0 91 26t26 91v3l-826 614v-624h-63v700h55z" />
    <glyph glyph-name="eng" unicode="&#x14b;" horiz-adv-x="960" 
d="M376 522h358q82 0 118 -35.5t36 -118.5v-398q0 -67 -32 -98.5t-98 -31.5h-166v51h147q47 0 66.5 19.5t19.5 66.5v385q0 62 -23 85t-85 23h-356q-108 0 -170 -44l-53 -37v-389h-62v522h49l9 -80l35 25q47 35 90 45q40 10 117 10z" />
    <glyph glyph-name="Omacron" unicode="&#x14c;" horiz-adv-x="1094" 
d="M771 798h-448v43h448v-43zM854 0h-614q-90 0 -132 42t-42 132v352q0 91 42 132.5t132 41.5h614q90 0 132 -41.5t42 -132.5v-352q0 -91 -42 -132.5t-132 -41.5zM257 54h580q70 0 98.5 29t28.5 98v338q0 69 -28.5 98t-98.5 29h-580q-69 0 -98 -29t-29 -98v-338
q0 -69 29 -98t98 -29z" />
    <glyph glyph-name="omacron" unicode="&#x14d;" horiz-adv-x="954" 
d="M701 620h-448v43h448v-43zM734 0h-514q-82 0 -118 35.5t-36 118.5v214q0 83 36 118.5t118 35.5h514q83 0 118.5 -35t35.5 -119v-214q0 -83 -35.5 -118.5t-118.5 -35.5zM237 52h480q62 0 85.5 23t23.5 85v202q0 62 -23.5 85t-85.5 23h-480q-62 0 -85.5 -23t-23.5 -85v-202
q0 -62 23.5 -85t85.5 -23z" />
    <glyph glyph-name="Obreve" unicode="&#x14e;" horiz-adv-x="1094" 
d="M686 757h-277q-72 0 -72 72v49h52v-45q0 -35 35 -35h246q35 0 35 35v45h52v-49q0 -72 -71 -72zM854 0h-614q-90 0 -132 42t-42 132v352q0 91 42 132.5t132 41.5h614q90 0 132 -41.5t42 -132.5v-352q0 -91 -42 -132.5t-132 -41.5zM257 54h580q70 0 98.5 29t28.5 98v338
q0 69 -28.5 98t-98.5 29h-580q-69 0 -98 -29t-29 -98v-338q0 -69 29 -98t98 -29z" />
    <glyph glyph-name="obreve" unicode="&#x14f;" horiz-adv-x="954" 
d="M616 579h-277q-72 0 -72 72v49h52v-45q0 -35 35 -35h246q35 0 35 35v45h52v-49q0 -72 -71 -72zM734 0h-514q-82 0 -118 35.5t-36 118.5v214q0 83 36 118.5t118 35.5h514q83 0 118.5 -35t35.5 -119v-214q0 -83 -35.5 -118.5t-118.5 -35.5zM237 52h480q62 0 85.5 23
t23.5 85v202q0 62 -23.5 85t-85.5 23h-480q-62 0 -85.5 -23t-23.5 -85v-202q0 -62 23.5 -85t85.5 -23z" />
    <glyph glyph-name="Ohungarumlaut" unicode="&#x150;" horiz-adv-x="1094" 
d="M593 878l-147 -121h-64l133 121h78zM813 878l-147 -121h-64l133 121h78zM854 0h-614q-90 0 -132 42t-42 132v352q0 91 42 132.5t132 41.5h614q90 0 132 -41.5t42 -132.5v-352q0 -91 -42 -132.5t-132 -41.5zM257 54h580q70 0 98.5 29t28.5 98v338q0 69 -28.5 98t-98.5 29
h-580q-69 0 -98 -29t-29 -98v-338q0 -69 29 -98t98 -29z" />
    <glyph glyph-name="ohungarumlaut" unicode="&#x151;" horiz-adv-x="954" 
d="M523 700l-147 -121h-64l133 121h78zM743 700l-147 -121h-64l133 121h78zM734 0h-514q-82 0 -118 35.5t-36 118.5v214q0 83 36 118.5t118 35.5h514q83 0 118.5 -35t35.5 -119v-214q0 -83 -35.5 -118.5t-118.5 -35.5zM237 52h480q62 0 85.5 23t23.5 85v202q0 62 -23.5 85
t-85.5 23h-480q-62 0 -85.5 -23t-23.5 -85v-202q0 -62 23.5 -85t85.5 -23z" />
    <glyph glyph-name="OE" unicode="&#x152;" horiz-adv-x="1852" 
d="M1018 343v-289h796v-54h-1574q-90 0 -132 42t-42 132v352q0 91 42 132.5t132 41.5h1564v-54h-786v-252h746v-51h-746zM257 54h697v592h-697q-69 0 -98 -29t-29 -98v-338q0 -69 29 -98t98 -29z" />
    <glyph glyph-name="oe" unicode="&#x153;" horiz-adv-x="1704" 
d="M990 522h494q82 0 118 -35.5t36 -118.5v-106h-750v-103q0 -62 23 -85t85 -23h494q47 0 66.5 19.5t19.5 66.5v37h62v-44q0 -67 -32 -98.5t-98 -31.5h-514q-105 0 -137 62q-32 -62 -137 -62h-500q-82 0 -118 35.5t-36 118.5v214q0 83 36 118.5t118 35.5h504q104 0 133 -59
q29 59 133 59zM888 365v-56h688v56q0 62 -23 85t-85 23h-472q-62 0 -85 -23t-23 -85zM826 160v202q0 62 -23.5 85t-85.5 23h-480q-62 0 -85.5 -23t-23.5 -85v-202q0 -62 23.5 -85t85.5 -23h480q62 0 85.5 23t23.5 85z" />
    <glyph glyph-name="Racute" unicode="&#x154;" horiz-adv-x="1054" 
d="M671 878h87l-193 -121h-71zM739 292l279 -292h-83l-277 291h-518v-291h-64v700h758q83 0 118.5 -35t35.5 -119v-99q0 -84 -35.5 -119t-118.5 -35zM816 649h-676v-308h676q62 0 85 23.5t23 85.5v90q0 62 -23 85.5t-85 23.5z" />
    <glyph glyph-name="racute" unicode="&#x155;" horiz-adv-x="636" 
d="M462 700h87l-193 -121h-71zM375 522h242v-54h-256q-108 0 -170 -44l-53 -37v-387h-62v522h46l10 -81l36 26q46 35 90 45q40 10 117 10z" />
    <glyph glyph-name="Rcommaaccent" unicode="&#x156;" horiz-adv-x="1054" 
d="M739 292l279 -292h-83l-277 291h-518v-291h-64v700h758q83 0 118.5 -35t35.5 -119v-99q0 -84 -35.5 -119t-118.5 -35zM816 649h-676v-308h676q62 0 85 23.5t23 85.5v90q0 62 -23 85.5t-85 23.5zM509 -96h-32v66h78v-35q0 -25 -14 -48l-29 -56h-38z" />
    <glyph glyph-name="rcommaaccent" unicode="&#x157;" horiz-adv-x="636" 
d="M375 522h242v-54h-256q-108 0 -170 -44l-53 -37v-387h-62v522h46l10 -81l36 26q46 35 90 45q40 10 117 10zM100 -96h-32v66h78v-35q0 -25 -14 -48l-29 -56h-38z" />
    <glyph glyph-name="Rcaron" unicode="&#x158;" horiz-adv-x="1054" 
d="M730 878l-167 -121h-72l-167 121h64l139 -87l139 87h64zM739 292l279 -292h-83l-277 291h-518v-291h-64v700h758q83 0 118.5 -35t35.5 -119v-99q0 -84 -35.5 -119t-118.5 -35zM816 649h-676v-308h676q62 0 85 23.5t23 85.5v90q0 62 -23 85.5t-85 23.5z" />
    <glyph glyph-name="rcaron" unicode="&#x159;" horiz-adv-x="636" 
d="M521 700l-167 -121h-72l-167 121h64l139 -87l139 87h64zM375 522h242v-54h-256q-108 0 -170 -44l-53 -37v-387h-62v522h46l10 -81l36 26q46 35 90 45q40 10 117 10z" />
    <glyph glyph-name="Sacute" unicode="&#x15a;" horiz-adv-x="1074" 
d="M768 878l-193 -121h-71l177 121h87zM66 130v59h63v-51q0 -47 19.5 -66.5t66.5 -19.5h643q47 0 66.5 19.5t19.5 66.5v97q0 45 -18.5 63t-67.5 23l-652 35q-69 5 -99.5 35t-30.5 95v84q0 67 32 98.5t98 31.5h658q66 0 98 -31.5t32 -98.5v-42h-63v34q0 47 -19.5 66.5
t-66.5 19.5h-619q-47 0 -66.5 -19.5t-19.5 -66.5v-66q0 -44 18.5 -62.5t67.5 -23.5l652 -34q69 -6 99.5 -35.5t30.5 -94.5v-116q0 -67 -32 -98.5t-98 -31.5h-682q-66 0 -98 31.5t-32 98.5z" />
    <glyph glyph-name="sacute" unicode="&#x15b;" horiz-adv-x="934" 
d="M698 700l-193 -121h-71l177 121h87zM66 107v46h61v-41q0 -33 15 -48t49 -15h551q34 0 49 15t15 48v60q0 33 -15 48.5t-49 17.5l-559 29q-107 5 -107 108v40q0 107 107 107h564q107 0 107 -107v-43h-61v38q0 34 -15 48.5t-49 14.5h-527q-34 0 -49 -14.5t-15 -48.5v-27
q0 -33 15.5 -48t48.5 -17l559 -29q107 -6 107 -109v-73q0 -107 -107 -107h-588q-52 0 -79.5 27.5t-27.5 79.5z" />
    <glyph glyph-name="Scircumflex" unicode="&#x15c;" horiz-adv-x="1074" 
d="M398 757h-64l167 121h72l167 -121h-64l-139 87zM66 130v59h63v-51q0 -47 19.5 -66.5t66.5 -19.5h643q47 0 66.5 19.5t19.5 66.5v97q0 45 -18.5 63t-67.5 23l-652 35q-69 5 -99.5 35t-30.5 95v84q0 67 32 98.5t98 31.5h658q66 0 98 -31.5t32 -98.5v-42h-63v34
q0 47 -19.5 66.5t-66.5 19.5h-619q-47 0 -66.5 -19.5t-19.5 -66.5v-66q0 -44 18.5 -62.5t67.5 -23.5l652 -34q69 -6 99.5 -35.5t30.5 -94.5v-116q0 -67 -32 -98.5t-98 -31.5h-682q-66 0 -98 31.5t-32 98.5z" />
    <glyph glyph-name="scircumflex" unicode="&#x15d;" horiz-adv-x="934" 
d="M328 579h-64l167 121h72l167 -121h-64l-139 87zM66 107v46h61v-41q0 -33 15 -48t49 -15h551q34 0 49 15t15 48v60q0 33 -15 48.5t-49 17.5l-559 29q-107 5 -107 108v40q0 107 107 107h564q107 0 107 -107v-43h-61v38q0 34 -15 48.5t-49 14.5h-527q-34 0 -49 -14.5
t-15 -48.5v-27q0 -33 15.5 -48t48.5 -17l559 -29q107 -6 107 -109v-73q0 -107 -107 -107h-588q-52 0 -79.5 27.5t-27.5 79.5z" />
    <glyph glyph-name="Scedilla" unicode="&#x15e;" horiz-adv-x="1074" 
d="M226 410l652 -34q69 -6 99.5 -35.5t30.5 -94.5v-116q0 -67 -32 -98.5t-98 -31.5h-331l-14 -36h111q28 0 39.5 -11.5t11.5 -39.5v-22q0 -28 -11.5 -39.5t-39.5 -11.5h-233v37h223q16 0 16 16v19q0 16 -16 16h-145v15l21 57h-314q-66 0 -98 31.5t-32 98.5v59h63v-51
q0 -47 19.5 -66.5t66.5 -19.5h643q47 0 66.5 19.5t19.5 66.5v97q0 45 -18.5 63t-67.5 23l-652 35q-69 5 -99.5 35t-30.5 95v84q0 67 32 98.5t98 31.5h658q66 0 98 -31.5t32 -98.5v-42h-63v34q0 47 -19.5 66.5t-66.5 19.5h-619q-47 0 -66.5 -19.5t-19.5 -66.5v-66
q0 -44 18.5 -62.5t67.5 -23.5z" />
    <glyph glyph-name="scedilla" unicode="&#x15f;" horiz-adv-x="934" 
d="M202 318l559 -29q107 -6 107 -109v-73q0 -107 -107 -107h-284l-14 -36h111q28 0 39.5 -11.5t11.5 -39.5v-22q0 -28 -11.5 -39.5t-39.5 -11.5h-233v37h223q16 0 16 16v19q0 16 -16 16h-145v15l21 57h-267q-52 0 -79.5 27.5t-27.5 79.5v46h61v-41q0 -33 15 -48t49 -15h551
q34 0 49 15t15 48v60q0 33 -15 48.5t-49 17.5l-559 29q-107 5 -107 108v40q0 107 107 107h564q107 0 107 -107v-43h-61v38q0 34 -15 48.5t-49 14.5h-527q-34 0 -49 -14.5t-15 -48.5v-27q0 -33 15.5 -48t48.5 -17z" />
    <glyph glyph-name="Scaron" unicode="&#x160;" horiz-adv-x="1074" 
d="M676 878h64l-167 -121h-72l-167 121h64l139 -87zM66 130v59h63v-51q0 -47 19.5 -66.5t66.5 -19.5h643q47 0 66.5 19.5t19.5 66.5v97q0 45 -18.5 63t-67.5 23l-652 35q-69 5 -99.5 35t-30.5 95v84q0 67 32 98.5t98 31.5h658q66 0 98 -31.5t32 -98.5v-42h-63v34
q0 47 -19.5 66.5t-66.5 19.5h-619q-47 0 -66.5 -19.5t-19.5 -66.5v-66q0 -44 18.5 -62.5t67.5 -23.5l652 -34q69 -6 99.5 -35.5t30.5 -94.5v-116q0 -67 -32 -98.5t-98 -31.5h-682q-66 0 -98 31.5t-32 98.5z" />
    <glyph glyph-name="scaron" unicode="&#x161;" horiz-adv-x="934" 
d="M606 700h64l-167 -121h-72l-167 121h64l139 -87zM66 107v46h61v-41q0 -33 15 -48t49 -15h551q34 0 49 15t15 48v60q0 33 -15 48.5t-49 17.5l-559 29q-107 5 -107 108v40q0 107 107 107h564q107 0 107 -107v-43h-61v38q0 34 -15 48.5t-49 14.5h-527q-34 0 -49 -14.5
t-15 -48.5v-27q0 -33 15.5 -48t48.5 -17l559 -29q107 -6 107 -109v-73q0 -107 -107 -107h-588q-52 0 -79.5 27.5t-27.5 79.5z" />
    <glyph glyph-name="uni0162" unicode="&#x162;" horiz-adv-x="966" 
d="M515 645v-645h-22l-14 -36h111q28 0 39.5 -11.5t11.5 -39.5v-22q0 -28 -11.5 -39.5t-39.5 -11.5h-233v37h223q16 0 16 16v19q0 16 -16 16h-145v15l21 57h-5v645h-432v55h928v-55h-432z" />
    <glyph glyph-name="uni0163" unicode="&#x163;" horiz-adv-x="768" 
d="M739 522v-51h-441v-333q0 -47 19.5 -66.5t66.5 -19.5h355v-52h-325l-14 -36h111q28 0 39.5 -11.5t11.5 -39.5v-22q0 -28 -11.5 -39.5t-39.5 -11.5h-233v37h223q16 0 16 16v19q0 16 -16 16h-145v15l21 57h-11q-66 0 -98 31.5t-32 98.5v341h-217v51h217l14 120h48v-120h441
z" />
    <glyph glyph-name="Tcaron" unicode="&#x164;" horiz-adv-x="966" 
d="M686 878l-167 -121h-72l-167 121h64l139 -87l139 87h64zM19 700h928v-55h-432v-645h-64v645h-432v55z" />
    <glyph glyph-name="tcaron" unicode="&#x165;" horiz-adv-x="768" 
d="M552 626l-29 -56h-40l34 73h-30v66h78v-35q0 -26 -13 -48zM739 522v-51h-441v-333q0 -47 19.5 -66.5t66.5 -19.5h355v-52h-373q-66 0 -98 31.5t-32 98.5v341h-217v51h217l14 120h48v-120h441z" />
    <glyph glyph-name="Tbar" unicode="&#x166;" horiz-adv-x="966" 
d="M947 700v-55h-432v-277h294v-47h-294v-321h-64v321h-294v47h294v277h-432v55h928z" />
    <glyph glyph-name="tbar" unicode="&#x167;" horiz-adv-x="768" 
d="M739 522v-51h-441v-178h441v-46h-441v-109q0 -47 19.5 -66.5t66.5 -19.5h355v-52h-373q-66 0 -98 31.5t-32 98.5v117h-217v46h217v178h-217v51h217l14 120h48v-120h441z" />
    <glyph glyph-name="Utilde" unicode="&#x168;" horiz-adv-x="1065" 
d="M384 757h-47v70q0 51 51 51h71q23 0 35.5 -4.5t29.5 -18.5l59 -49q13 -12 34 -12h45q11 0 15.5 4.5t4.5 15.5v64h47v-70q0 -51 -51 -51h-71q-23 0 -35.5 4.5t-29.5 18.5l-59 49q-14 12 -34 12h-45q-11 0 -15.5 -4.5t-4.5 -15.5v-64zM825 0h-584q-90 0 -132 41.5
t-42 132.5v526h64v-518q0 -69 28.5 -98t98.5 -29h550q69 0 98 29t29 98v518h64v-526q0 -90 -42 -132t-132 -42z" />
    <glyph glyph-name="utilde" unicode="&#x169;" horiz-adv-x="960" 
d="M331 643v-64h-47v70q0 51 51 51h71q23 0 35.5 -4.5t29.5 -18.5l59 -49q14 -12 34 -12h45q11 0 15.5 4.5t4.5 15.5v64h47v-70q0 -51 -51 -51h-71q-23 0 -35.5 4.5t-29.5 18.5l-59 49q-14 12 -34 12h-45q-11 0 -15.5 -4.5t-4.5 -15.5zM822 522h62v-522h-49l-9 80l-35 -25
q-46 -34 -89 -45q-41 -10 -118 -10h-358q-82 0 -118 35.5t-36 118.5v368h63v-362q0 -62 23 -85t85 -23h356q108 0 170 44l53 37v389z" />
    <glyph glyph-name="Umacron" unicode="&#x16a;" horiz-adv-x="1065" 
d="M757 798h-448v43h448v-43zM825 0h-584q-90 0 -132 41.5t-42 132.5v526h64v-518q0 -69 28.5 -98t98.5 -29h550q69 0 98 29t29 98v518h64v-526q0 -90 -42 -132t-132 -42z" />
    <glyph glyph-name="umacron" unicode="&#x16b;" horiz-adv-x="960" 
d="M256 663h448v-43h-448v43zM822 522h62v-522h-49l-9 80l-35 -25q-46 -34 -89 -45q-41 -10 -118 -10h-358q-82 0 -118 35.5t-36 118.5v368h63v-362q0 -62 23 -85t85 -23h356q108 0 170 44l53 37v389z" />
    <glyph glyph-name="Ubreve" unicode="&#x16c;" horiz-adv-x="1065" 
d="M672 757h-277q-72 0 -72 72v49h52v-45q0 -35 35 -35h246q35 0 35 35v45h52v-49q0 -72 -71 -72zM825 0h-584q-90 0 -132 41.5t-42 132.5v526h64v-518q0 -69 28.5 -98t98.5 -29h550q69 0 98 29t29 98v518h64v-526q0 -90 -42 -132t-132 -42z" />
    <glyph glyph-name="ubreve" unicode="&#x16d;" horiz-adv-x="960" 
d="M619 579h-277q-72 0 -72 72v49h52v-45q0 -35 35 -35h246q35 0 35 35v45h52v-49q0 -72 -71 -72zM822 522h62v-522h-49l-9 80l-35 -25q-46 -34 -89 -45q-41 -10 -118 -10h-358q-82 0 -118 35.5t-36 118.5v368h63v-362q0 -62 23 -85t85 -23h356q108 0 170 44l53 37v389z" />
    <glyph glyph-name="Uring" unicode="&#x16e;" horiz-adv-x="1065" 
d="M356 800v25q0 53 53 53h247q53 0 53 -53v-25q0 -53 -53 -53h-247q-53 0 -53 53zM397 821v-17q0 -13 4 -17.5t17 -4.5h229q13 0 17.5 4.5t4.5 17.5v17q0 13 -4.5 18t-17.5 5h-229q-12 0 -16.5 -5t-4.5 -18zM825 0h-584q-90 0 -132 41.5t-42 132.5v526h64v-518
q0 -69 28.5 -98t98.5 -29h550q69 0 98 29t29 98v518h64v-526q0 -90 -42 -132t-132 -42z" />
    <glyph glyph-name="uring" unicode="&#x16f;" horiz-adv-x="960" 
d="M603 569h-247q-53 0 -53 53v25q0 53 53 53h247q53 0 53 -53v-25q0 -53 -53 -53zM344 643v-17q0 -13 4 -17.5t17 -4.5h229q13 0 17.5 4.5t4.5 17.5v17q0 13 -4.5 18t-17.5 5h-229q-12 0 -16.5 -5t-4.5 -18zM822 522h62v-522h-49l-9 80l-35 -25q-46 -34 -89 -45
q-41 -10 -118 -10h-358q-82 0 -118 35.5t-36 118.5v368h63v-362q0 -62 23 -85t85 -23h356q108 0 170 44l53 37v389z" />
    <glyph glyph-name="Uhungarumlaut" unicode="&#x170;" horiz-adv-x="1065" 
d="M579 878l-147 -121h-64l133 121h78zM799 878l-147 -121h-64l133 121h78zM825 0h-584q-90 0 -132 41.5t-42 132.5v526h64v-518q0 -69 28.5 -98t98.5 -29h550q69 0 98 29t29 98v518h64v-526q0 -90 -42 -132t-132 -42z" />
    <glyph glyph-name="uhungarumlaut" unicode="&#x171;" horiz-adv-x="960" 
d="M448 700h78l-147 -121h-64zM668 700h78l-147 -121h-64zM822 522h62v-522h-49l-9 80l-35 -25q-46 -34 -89 -45q-41 -10 -118 -10h-358q-82 0 -118 35.5t-36 118.5v368h63v-362q0 -62 23 -85t85 -23h356q108 0 170 44l53 37v389z" />
    <glyph glyph-name="Uogonek" unicode="&#x172;" horiz-adv-x="1065" 
d="M935 182v518h64v-526q0 -90 -42 -132t-132 -42h-148l-71 -25q-19 -6 -24 -12.5t-5 -23.5v-16q0 -23 8.5 -31.5t31.5 -8.5h155v-43h-168q-40 0 -58.5 18t-18.5 59v18q0 30 6.5 42t32.5 23h-325q-90 0 -132 41.5t-42 132.5v526h64v-518q0 -69 28.5 -98t98.5 -29h550
q69 0 98 29t29 98z" />
    <glyph glyph-name="uogonek" unicode="&#x173;" horiz-adv-x="969" 
d="M811 -117h126v-43h-139q-40 0 -58.5 18t-18.5 59v16q0 30 9.5 44t40.5 28l60 27l-5 48l-35 -25q-46 -34 -89 -45q-41 -10 -118 -10h-358q-82 0 -118 35.5t-36 118.5v368h63v-362q0 -62 23 -85t85 -23h356q108 0 170 44l53 37v389h62v-522h-28l-55 -24q-18 -7 -24 -15
t-6 -24v-14q0 -23 8.5 -31.5t31.5 -8.5z" />
    <glyph glyph-name="Wcircumflex" unicode="&#x174;" horiz-adv-x="1460" 
d="M869 757l-139 87l-139 -87h-64l167 121h72l167 -121h-64zM1071 73l321 627h69l-361 -700h-58l-312 621l-312 -621h-58l-361 700h72l321 -629l313 629h53z" />
    <glyph glyph-name="wcircumflex" unicode="&#x175;" horiz-adv-x="1254" 
d="M766 579l-139 87l-139 -87h-64l167 121h72l167 -121h-64zM915 66l261 456h69l-304 -522h-53l-261 453l-261 -453h-53l-304 522h72l261 -456l262 456h49z" />
    <glyph glyph-name="Ycircumflex" unicode="&#x176;" horiz-adv-x="1008" 
d="M643 757l-139 87l-139 -87h-64l167 121h72l167 -121h-64zM924 700h85l-473 -440v-260h-64v260l-473 440h88l419 -394z" />
    <glyph glyph-name="ycircumflex" unicode="&#x177;" horiz-adv-x="908" 
d="M593 579l-139 87l-139 -87h-64l167 121h72l167 -121h-64zM455 56l370 466h75l-438 -544q-63 -81 -117 -110q-52 -28 -151 -28h-135v52h147q69 0 111 20q41 21 86 80l16 19l-411 511h78z" />
    <glyph glyph-name="Ydieresis" unicode="&#x178;" horiz-adv-x="1008" 
d="M354 842h57v-67h-57v67zM597 842h57v-67h-57v67zM924 700h85l-473 -440v-260h-64v260l-473 440h88l419 -394z" />
    <glyph glyph-name="Zacute" unicode="&#x179;" horiz-adv-x="1044" 
d="M753 878l-193 -121h-71l177 121h87zM996 0h-948v41l830 605h-810v54h928v-41l-830 -605h830v-54z" />
    <glyph glyph-name="zacute" unicode="&#x17a;" horiz-adv-x="918" 
d="M690 700l-193 -121h-71l177 121h87zM872 0h-826v38l705 433h-685v51h806v-38l-705 -433h705v-51z" />
    <glyph glyph-name="Zdotaccent" unicode="&#x17b;" horiz-adv-x="1044" 
d="M554 775h-63v67h63v-67zM996 0h-948v41l830 605h-810v54h928v-41l-830 -605h830v-54z" />
    <glyph glyph-name="zdotaccent" unicode="&#x17c;" horiz-adv-x="918" 
d="M491 597h-63v67h63v-67zM872 0h-826v38l705 433h-685v51h806v-38l-705 -433h705v-51z" />
    <glyph glyph-name="Zcaron" unicode="&#x17d;" horiz-adv-x="1044" 
d="M661 878h64l-167 -121h-72l-167 121h64l139 -87zM996 0h-948v41l830 605h-810v54h928v-41l-830 -605h830v-54z" />
    <glyph glyph-name="zcaron" unicode="&#x17e;" horiz-adv-x="918" 
d="M598 700h64l-167 -121h-72l-167 121h64l139 -87zM872 0h-826v38l705 433h-685v51h806v-38l-705 -433h705v-51z" />
    <glyph glyph-name="florin" unicode="&#x192;" horiz-adv-x="952" 
d="M895 646h-225q-68 0 -97 -27.5t-37 -99.5l-23 -205h362v-48h-368l-28 -252q-10 -94 -51 -134t-130 -40h-241v54h225q68 0 97 27.5t37 99.5l28 245h-367v48h372l24 212q10 93 51.5 133.5t129.5 40.5h241v-54z" />
    <glyph glyph-name="Aringacute" unicode="&#x1fa;" horiz-adv-x="1082" 
d="M1083 0h-73l-141 195h-659l-141 -195h-70l486 669h-68q-53 0 -53 53v25q0 53 53 53h116l90 78h79l-101 -78h63q53 0 53 -53v-25q0 -53 -53 -53h-67zM405 743v-17q0 -13 4 -17.5t17 -4.5h229q13 0 17.5 4.5t4.5 17.5v17q0 13 -4.5 18t-17.5 5h-229q-12 0 -16.5 -5
t-4.5 -18zM539 650l-291 -402h582z" />
    <glyph glyph-name="aringacute" unicode="&#x1fb;" horiz-adv-x="950" 
d="M657 522h67q83 0 118.5 -35t35.5 -119v-368h-49l-9 80l-45 -31q-47 -33 -79 -40q-34 -9 -100 -9h-409q-121 0 -121 121v50q0 121 121 121h629v73q0 62 -23.5 85t-85.5 23h-470q-47 0 -66.5 -19.5t-19.5 -66.5v-26h-61v31q0 67 32 98.5t98 31.5h90q-3 9 -3 22v25
q0 53 53 53h116l90 78h79l-101 -78h63q53 0 53 -53v-25q0 -13 -3 -22zM348 565v-17q0 -13 4 -17.5t17 -4.5h229q13 0 17.5 4.5t4.5 17.5v17q0 13 -4.5 18t-17.5 5h-229q-12 0 -16.5 -5t-4.5 -18zM753 86l63 43v118h-608q-44 0 -62 -18.5t-18 -61.5v-39q0 -44 18 -62t62 -18
h404q86 0 141 38z" />
    <glyph glyph-name="AEacute" unicode="&#x1fc;" horiz-adv-x="1571" 
d="M930 878h87l-193 -121h-71zM833 343l209 -289h491v-54h-525l-141 195h-657l-141 -195h-70l509 700h1015v-54h-909l182 -252h687v-51h-650zM539 650l-291 -402h581z" />
    <glyph glyph-name="aeacute" unicode="&#x1fd;" horiz-adv-x="1694" 
d="M991 700h87l-193 -121h-71zM980 522h494q82 0 118 -35.5t36 -118.5v-106h-750v-103q0 -62 23 -85t85 -23h494q47 0 66.5 19.5t19.5 66.5v37h62v-44q0 -67 -32 -98.5t-98 -31.5h-519q-121 0 -145 84l-51 -35q-47 -33 -79 -40q-34 -9 -100 -9h-417q-121 0 -121 121v50
q0 121 121 121h629v73q0 62 -23.5 85t-85.5 23h-470q-47 0 -66.5 -19.5t-19.5 -66.5v-26h-61v31q0 67 32 98.5t98 31.5h494q104 0 133 -59q29 59 133 59zM878 365v-56h688v56q0 62 -23 85t-85 23h-472q-62 0 -85 -23t-23 -85zM753 86l63 43v118h-608q-44 0 -62 -18.5
t-18 -61.5v-39q0 -44 18 -62t62 -18h404q86 0 141 38z" />
    <glyph glyph-name="Oslashacute" unicode="&#x1fe;" horiz-adv-x="1094" 
d="M691 878h87l-193 -121h-71zM1058 730l-80 -64q50 -41 50 -140v-352q0 -91 -42 -132.5t-132 -41.5h-614q-43 0 -81 11l-52 -41h-71l80 64q-50 41 -50 140v352q0 91 42 132.5t132 41.5h614q45 0 81 -11l52 41h71zM129 520v-340q0 -77 38 -106l712 570q-18 3 -41 3h-582
q-69 0 -98 -29t-29 -98zM965 180v340q0 77 -38 106l-712 -570q18 -3 41 -3h582q70 0 98.5 29t28.5 98z" />
    <glyph glyph-name="oslashacute" unicode="&#x1ff;" horiz-adv-x="954" 
d="M621 700h87l-193 -121h-71zM918 561l-82 -61q52 -33 52 -132v-214q0 -83 -35.5 -118.5t-118.5 -35.5h-514q-35 0 -52 4l-58 -43h-74l83 61q-53 33 -53 132v214q0 83 36 118.5t118 35.5h514q35 0 52 -4l58 43h74zM127 363v-204q0 -82 43 -98l553 410h-5h-482
q-62 0 -85.5 -23t-23.5 -85zM827 159v204q0 82 -43 98l-553 -410h5h482q62 0 85.5 23t23.5 85z" />
    <glyph glyph-name="Scommaaccent" unicode="&#x218;" horiz-adv-x="1074" 
d="M66 130v59h63v-51q0 -47 19.5 -66.5t66.5 -19.5h643q47 0 66.5 19.5t19.5 66.5v97q0 45 -18.5 63t-67.5 23l-652 35q-69 5 -99.5 35t-30.5 95v84q0 67 32 98.5t98 31.5h658q66 0 98 -31.5t32 -98.5v-42h-63v34q0 47 -19.5 66.5t-66.5 19.5h-619q-47 0 -66.5 -19.5
t-19.5 -66.5v-66q0 -44 18.5 -62.5t67.5 -23.5l652 -34q69 -6 99.5 -35.5t30.5 -94.5v-116q0 -67 -32 -98.5t-98 -31.5h-682q-66 0 -98 31.5t-32 98.5zM533 -169h-38l35 73h-32v66h78v-35q0 -25 -14 -48z" />
    <glyph glyph-name="scommaaccent" unicode="&#x219;" horiz-adv-x="934" 
d="M66 107v46h61v-41q0 -33 15 -48t49 -15h551q34 0 49 15t15 48v60q0 33 -15 48.5t-49 17.5l-559 29q-107 5 -107 108v40q0 107 107 107h564q107 0 107 -107v-43h-61v38q0 34 -15 48.5t-49 14.5h-527q-34 0 -49 -14.5t-15 -48.5v-27q0 -33 15.5 -48t48.5 -17l559 -29
q107 -6 107 -109v-73q0 -107 -107 -107h-588q-52 0 -79.5 27.5t-27.5 79.5zM463 -169h-38l35 73h-32v66h78v-35q0 -25 -14 -48z" />
    <glyph glyph-name="uni021A" unicode="&#x21a;" horiz-adv-x="966" 
d="M19 645v55h928v-55h-432v-645h-64v645h-432zM476 -96h-32v66h78v-35q0 -25 -14 -48l-29 -56h-38z" />
    <glyph glyph-name="uni021B" unicode="&#x21b;" horiz-adv-x="768" 
d="M739 522v-51h-441v-333q0 -47 19.5 -66.5t66.5 -19.5h355v-52h-373q-66 0 -98 31.5t-32 98.5v341h-217v51h217l14 120h48v-120h441zM397 -96h-32v66h78v-35q0 -25 -14 -48l-29 -56h-38z" />
    <glyph glyph-name="uni0237" unicode="&#x237;" horiz-adv-x="322" 
d="M113 -160h-237v51h218q47 0 66.5 19.5t19.5 66.5v545h63v-552q0 -67 -32 -98.5t-98 -31.5z" />
    <glyph glyph-name="circumflex" unicode="&#x2c6;" horiz-adv-x="478" 
d="M140 579h-64l167 121h72l167 -121h-64l-139 87z" />
    <glyph glyph-name="caron" unicode="&#x2c7;" horiz-adv-x="554" 
d="M418 700h64l-167 -121h-72l-167 121h64l139 -87z" />
    <glyph glyph-name="breve" unicode="&#x2d8;" horiz-adv-x="492" 
d="M425 579h-277q-72 0 -72 72v49h52v-45q0 -35 35 -35h246q35 0 35 35v45h52v-49q0 -72 -71 -72z" />
    <glyph glyph-name="dotaccent" unicode="&#x2d9;" horiz-adv-x="213" 
d="M139 597h-63v67h63v-67z" />
    <glyph glyph-name="ring" unicode="&#x2da;" horiz-adv-x="389" 
d="M58 622v25q0 53 53 53h247q53 0 53 -53v-25q0 -53 -53 -53h-247q-53 0 -53 53zM99 643v-17q0 -13 4 -17.5t17 -4.5h229q13 0 17.5 4.5t4.5 17.5v17q0 13 -4.5 18t-17.5 5h-229q-12 0 -16.5 -5t-4.5 -18z" />
    <glyph glyph-name="ogonek" unicode="&#x2db;" horiz-adv-x="335" 
d="M240 5l-85 -30q-19 -6 -24 -12.5t-5 -23.5v-16q0 -23 9 -31.5t31 -8.5h155v-43h-168q-41 0 -59 18t-18 59v18q0 32 9 45t41 24l93 34z" />
    <glyph glyph-name="tilde" unicode="&#x2dc;" horiz-adv-x="492" 
d="M123 579h-47v70q0 51 51 51h71q23 0 35.5 -4.5t29.5 -18.5l59 -49q13 -12 34 -12h45q11 0 15.5 4.5t4.5 15.5v64h47v-70q0 -51 -51 -51h-71q-23 0 -35.5 4.5t-29.5 18.5l-59 49q-14 12 -34 12h-45q-11 0 -15.5 -4.5t-4.5 -15.5v-64z" />
    <glyph glyph-name="hungarumlaut" unicode="&#x2dd;" horiz-adv-x="521" 
d="M269 700l-147 -121h-64l133 121h78zM489 700l-147 -121h-64l133 121h78z" />
    <glyph glyph-name="gravecomb" unicode="&#x300;" horiz-adv-x="0" 
d="M-76 579h-72l-192 121h86z" />
    <glyph glyph-name="acutecomb" unicode="&#x301;" horiz-adv-x="0" 
d="M-76 700l-193 -121h-71l177 121h87z" />
    <glyph glyph-name="uni0302" unicode="&#x302;" horiz-adv-x="0" 
d="M-418 579h-64l167 121h72l167 -121h-64l-139 87z" />
    <glyph glyph-name="tildecomb" unicode="&#x303;" horiz-adv-x="0" 
d="M-421 579h-47v70q0 51 51 51h71q23 0 35.5 -4.5t29.5 -18.5l59 -49q14 -12 34 -12h45q11 0 15.5 4.5t4.5 15.5v64h47v-70q0 -51 -51 -51h-71q-23 0 -35.5 4.5t-29.5 18.5l-59 49q-14 12 -34 12h-45q-11 0 -15.5 -4.5t-4.5 -15.5v-64z" />
    <glyph glyph-name="uni0304" unicode="&#x304;" horiz-adv-x="0" 
d="M-76 620h-448v43h448v-43z" />
    <glyph glyph-name="uni0306" unicode="&#x306;" horiz-adv-x="0" 
d="M-147 579h-277q-72 0 -72 72v49h52v-45q0 -35 35 -35h246q35 0 35 35v45h52v-49q0 -72 -71 -72z" />
    <glyph glyph-name="uni0307" unicode="&#x307;" horiz-adv-x="0" 
d="M-76 597h-63v67h63v-67z" />
    <glyph glyph-name="uni0308" unicode="&#x308;" horiz-adv-x="0" 
d="M-319 597h-57v67h57v-67zM-76 597h-57v67h57v-67z" />
    <glyph glyph-name="uni030A" unicode="&#x30a;" horiz-adv-x="0" 
d="M-411 622v25q0 53 53 53h247q53 0 53 -53v-25q0 -53 -53 -53h-247q-53 0 -53 53zM-370 643v-17q0 -13 4 -17.5t17 -4.5h229q13 0 17.5 4.5t4.5 17.5v17q0 13 -4.5 18t-17.5 5h-229q-12 0 -16.5 -5t-4.5 -18z" />
    <glyph glyph-name="uni030B" unicode="&#x30b;" horiz-adv-x="0" 
d="M-260 700l-147 -121h-64l133 121h78zM-40 700l-147 -121h-64l133 121h78z" />
    <glyph glyph-name="uni030C" unicode="&#x30c;" horiz-adv-x="0" 
d="M-140 700h64l-167 -121h-72l-167 121h64l139 -87z" />
    <glyph glyph-name="uni0312" unicode="&#x312;" horiz-adv-x="0" 
d="M-110 718h38l-34 -73h30v-66h-76v35q0 26 13 48z" />
    <glyph glyph-name="uni0326" unicode="&#x326;" horiz-adv-x="0" 
d="M-119 -169h-38l35 73h-32v66h78v-35q0 -25 -14 -48z" />
    <glyph glyph-name="uni0327" unicode="&#x327;" horiz-adv-x="0" 
d="M-109 -160h-233v37h223q16 0 16 16v19q0 16 -16 16h-145v15l29 77h36l-21 -56h111q28 0 39.5 -11.5t11.5 -39.5v-22q0 -28 -11.5 -39.5t-39.5 -11.5z" />
    <glyph glyph-name="uni0328" unicode="&#x328;" horiz-adv-x="0" 
d="M-157 5l-85 -30q-19 -6 -24 -12.5t-5 -23.5v-16q0 -23 8.5 -31.5t31.5 -8.5h155v-43h-168q-40 0 -58.5 18t-18.5 59v18q0 32 9 45t41 24l93 34z" />
    <glyph glyph-name="uni0335" unicode="&#x335;" horiz-adv-x="0" 
d="M-480 331v47h440v-47h-440z" />
    <glyph glyph-name="uni0336" unicode="&#x336;" horiz-adv-x="0" 
d="M-884 331v47h844v-47h-844z" />
    <glyph glyph-name="uni0337" unicode="&#x337;" horiz-adv-x="0" 
d="M-454 327v47l414 60v-47z" />
    <glyph glyph-name="uni0338" unicode="&#x338;" horiz-adv-x="0" 
d="M-606 -30l547 600h59l-547 -600h-59z" />
    <glyph glyph-name="uni0394" unicode="&#x394;" horiz-adv-x="1082" 
d="M508 700h66l509 -700h-1084zM539 650l-432 -598h865z" />
    <glyph glyph-name="uni03A9" unicode="&#x3a9;" horiz-adv-x="1094" 
d="M712 88v-36h326v-52h-391v134h190q70 0 98.5 29t28.5 98v258q0 69 -28.5 98t-98.5 29h-580q-69 0 -98 -29t-29 -98v-258q0 -69 29 -98t98 -29h190v-134h-391v52h326v36h-145q-88 0 -129.5 41t-41.5 130v267q0 91 42 132.5t132 41.5h614q90 0 132 -41.5t42 -132.5v-267
q0 -89 -41 -130t-130 -41h-145z" />
    <glyph glyph-name="uni03BC" unicode="&#x3bc;" horiz-adv-x="1031" 
d="M955 52h57v-52h-75q-96 0 -109 79l-33 -24q-48 -33 -91 -44q-46 -11 -117 -11h-357q-60 0 -94 18v-178h-60v682h62v-362q0 -62 23 -85t85 -23h357q108 0 170 44l52 38v388h63v-403q0 -37 15 -52t52 -15z" />
    <glyph glyph-name="pi" unicode="&#x3c0;" horiz-adv-x="1048" 
d="M1019 522v-51h-163v-333q0 -47 19.5 -66.5t66.5 -19.5h77v-52h-95q-66 0 -98 31.5t-32 98.5v341h-585v-471h-62v471h-128v51h1000z" />
    <glyph glyph-name="uni0401" unicode="&#x401;" horiz-adv-x="974" 
d="M337 842h57v-67h-57v67zM580 842h57v-67h-57v67zM140 343v-289h796v-54h-860v700h850v-54h-786v-252h746v-51h-746z" />
    <glyph glyph-name="uni0403" unicode="&#x403;" horiz-adv-x="905" 
d="M597 878h87l-193 -121h-71zM76 700h810v-55h-746v-645h-64v700z" />
    <glyph glyph-name="uni0405" unicode="&#x405;" horiz-adv-x="1074" 
d="M66 130v59h63v-51q0 -47 19.5 -66.5t66.5 -19.5h643q47 0 66.5 19.5t19.5 66.5v97q0 45 -18.5 63t-67.5 23l-652 35q-69 5 -99.5 35t-30.5 95v84q0 67 32 98.5t98 31.5h658q66 0 98 -31.5t32 -98.5v-42h-63v34q0 47 -19.5 66.5t-66.5 19.5h-619q-47 0 -66.5 -19.5
t-19.5 -66.5v-66q0 -44 18.5 -62.5t67.5 -23.5l652 -34q69 -6 99.5 -35.5t30.5 -94.5v-116q0 -67 -32 -98.5t-98 -31.5h-682q-66 0 -98 31.5t-32 98.5z" />
    <glyph glyph-name="uni0406" unicode="&#x406;" horiz-adv-x="228" 
d="M82 0v700h64v-700h-64z" />
    <glyph glyph-name="uni0407" unicode="&#x407;" horiz-adv-x="228" 
d="M21 775h-57v67h57v-67zM264 775h-57v67h57v-67zM82 0v700h64v-700h-64z" />
    <glyph glyph-name="uni0408" unicode="&#x408;" horiz-adv-x="976" 
d="M735 0h-523q-90 0 -132 42t-42 132v73h63v-66q0 -70 28.5 -98.5t98.5 -28.5h490q70 0 98.5 28.5t28.5 98.5v519h64v-526q0 -91 -42 -132.5t-132 -41.5z" />
    <glyph glyph-name="uni040C" unicode="&#x40c;" horiz-adv-x="972" 
d="M489 878h87l-193 -121h-71zM237 361l726 -361h-131l-692 349v-349h-64v700h64v-329l687 329h132z" />
    <glyph glyph-name="uni040E" unicode="&#x40e;" horiz-adv-x="1008" 
d="M643 757h-277q-72 0 -72 72v49h52v-45q0 -35 35 -35h246q35 0 35 35v45h52v-49q0 -72 -71 -72zM505 273l422 427h82l-692 -700h-83l228 232l-463 468h86z" />
    <glyph glyph-name="uni0410" unicode="&#x410;" horiz-adv-x="1082" 
d="M1083 0h-73l-141 195h-659l-141 -195h-70l509 700h66zM539 650l-291 -402h582z" />
    <glyph glyph-name="uni0411" unicode="&#x411;" horiz-adv-x="1055" 
d="M868 0h-792v700h862v-52h-798v-251h728q66 0 98 -31.5t32 -98.5v-137q0 -67 -32 -98.5t-98 -31.5zM140 348v-296h708q47 0 66.5 19.5t19.5 66.5v124q0 47 -19.5 66.5t-66.5 19.5h-708z" />
    <glyph glyph-name="uni0412" unicode="&#x412;" horiz-adv-x="1055" 
d="M921 372q77 -21 77 -122v-120q0 -67 -32 -98.5t-98 -31.5h-792v700h772q66 0 98 -31.5t32 -98.5v-83q0 -89 -57 -115zM828 648h-688v-255h688q47 0 66.5 19.5t19.5 66.5v83q0 47 -19.5 66.5t-66.5 19.5zM934 138v120q0 47 -19.5 66.5t-66.5 19.5h-708v-292h708
q47 0 66.5 19.5t19.5 66.5z" />
    <glyph glyph-name="uni0413" unicode="&#x413;" horiz-adv-x="905" 
d="M76 700h810v-55h-746v-645h-64v700z" />
    <glyph glyph-name="uni0414" unicode="&#x414;" horiz-adv-x="1088" 
d="M994 700v-646h75v-174h-62v120h-926v-120h-62v174h35q58 0 79.5 20.5t25.5 79.5l34 546h801zM254 645l-31 -485q-4 -72 -32 -106h739v591h-676z" />
    <glyph glyph-name="uni0415" unicode="&#x415;" horiz-adv-x="974" 
d="M140 343v-289h796v-54h-860v700h850v-54h-786v-252h746v-51h-746z" />
    <glyph glyph-name="uni0416" unicode="&#x416;" horiz-adv-x="1728" 
d="M992 361l727 -361h-131l-692 349v-349h-64v349l-692 -349h-131l726 361l-722 339h132l687 -329v329h64v-329l686 329h133z" />
    <glyph glyph-name="uni0417" unicode="&#x417;" horiz-adv-x="1074" 
d="M937 370q71 -23 71 -120v-120q0 -67 -32 -98.5t-98 -31.5h-682q-66 0 -98 31.5t-32 98.5v88h63v-80q0 -47 19.5 -66.5t66.5 -19.5h643q47 0 66.5 19.5t19.5 66.5v119q0 47 -19.5 66.5t-66.5 19.5h-504v51h494q47 0 66.5 19.5t19.5 66.5v82q0 47 -19.5 66.5t-66.5 19.5
h-623q-47 0 -66.5 -19.5t-19.5 -66.5v-72h-63v80q0 67 32 98.5t98 31.5h662q66 0 98 -31.5t32 -98.5v-83q0 -90 -61 -117z" />
    <glyph glyph-name="uni0418" unicode="&#x418;" horiz-adv-x="1104" 
d="M139 79l834 621h55v-700h-63v624l-839 -624h-50v700h63v-621z" />
    <glyph glyph-name="uni0419" unicode="&#x419;" horiz-adv-x="1104" 
d="M691 757h-277q-72 0 -72 72v49h52v-45q0 -35 35 -35h246q35 0 35 35v45h52v-49q0 -72 -71 -72zM139 79l834 621h55v-700h-63v624l-839 -624h-50v700h63v-621z" />
    <glyph glyph-name="uni041A" unicode="&#x41a;" horiz-adv-x="972" 
d="M237 361l726 -361h-131l-692 349v-349h-64v700h64v-329l687 329h132z" />
    <glyph glyph-name="uni041B" unicode="&#x41b;" horiz-adv-x="1076" 
d="M77 0h-58v54h41q58 0 79.5 20.5t25.5 79.5l34 546h801v-700h-64v645h-676l-31 -498q-5 -81 -39.5 -114t-112.5 -33z" />
    <glyph glyph-name="uni041C" unicode="&#x41c;" horiz-adv-x="1224" 
d="M614 211l480 489h54v-700h-63v611l-454 -457h-38l-454 457v-611h-63v700h57z" />
    <glyph glyph-name="uni041D" unicode="&#x41d;" horiz-adv-x="1084" 
d="M944 397v303h64v-700h-64v341h-804v-341h-64v700h64v-303h804z" />
    <glyph glyph-name="uni041E" unicode="&#x41e;" horiz-adv-x="1094" 
d="M854 0h-614q-90 0 -132 42t-42 132v352q0 91 42 132.5t132 41.5h614q90 0 132 -41.5t42 -132.5v-352q0 -91 -42 -132.5t-132 -41.5zM257 54h580q70 0 98.5 29t28.5 98v338q0 69 -28.5 98t-98.5 29h-580q-69 0 -98 -29t-29 -98v-338q0 -69 29 -98t98 -29z" />
    <glyph glyph-name="uni041F" unicode="&#x41f;" horiz-adv-x="1084" 
d="M140 0h-64v700h932v-700h-64v645h-804v-645z" />
    <glyph glyph-name="uni0420" unicode="&#x420;" horiz-adv-x="1026" 
d="M140 0h-64v700h758q83 0 118.5 -35t35.5 -119v-122q0 -83 -35.5 -118.5t-118.5 -35.5h-694v-270zM140 648v-327h676q62 0 85 23.5t23 85.5v109q0 62 -23 85.5t-85 23.5h-676z" />
    <glyph glyph-name="uni0421" unicode="&#x421;" horiz-adv-x="1070" 
d="M833 0h-593q-90 0 -132 42t-42 132v352q0 91 42 132.5t132 41.5h593q90 0 132 -41.5t42 -132.5v-64h-63v57q0 70 -28.5 98.5t-98.5 28.5h-560q-69 0 -98 -28.5t-29 -98.5v-338q0 -70 29 -98.5t98 -28.5h560q70 0 98.5 28.5t28.5 98.5v66h63v-73q0 -91 -42 -132.5
t-132 -41.5z" />
    <glyph glyph-name="uni0422" unicode="&#x422;" horiz-adv-x="966" 
d="M19 700h928v-55h-432v-645h-64v645h-432v55z" />
    <glyph glyph-name="uni0423" unicode="&#x423;" horiz-adv-x="1008" 
d="M505 273l422 427h82l-692 -700h-83l228 232l-463 468h86z" />
    <glyph glyph-name="uni0424" unicode="&#x424;" horiz-adv-x="1380" 
d="M721 651h419q90 0 132 -41.5t42 -132.5v-254q0 -91 -42 -132.5t-132 -41.5h-419v-89h-62v89h-419q-90 0 -132 42t-42 132v254q0 91 42 132.5t132 41.5h419v89h62v-89zM257 101h402v498h-402q-69 0 -98 -29t-29 -98v-244q0 -69 29 -98t98 -29zM1250 228v244q0 69 -28.5 98
t-98.5 29h-402v-498h402q70 0 98.5 29t28.5 98z" />
    <glyph glyph-name="uni0425" unicode="&#x425;" horiz-adv-x="1030" 
d="M104 0h-95l463 355l-453 345h98l400 -306l400 306h94l-452 -345l462 -355h-98l-410 318z" />
    <glyph glyph-name="uni0426" unicode="&#x426;" horiz-adv-x="1102" 
d="M1021 0h-945v700h64v-645h804v645h64v-645h75v-175h-62v120z" />
    <glyph glyph-name="uni0427" unicode="&#x427;" horiz-adv-x="1046" 
d="M970 0h-64v288h-714q-82 0 -118 35.5t-36 118.5v258h64v-248q0 -62 23 -85.5t85 -23.5h696v357h64v-700z" />
    <glyph glyph-name="uni0428" unicode="&#x428;" horiz-adv-x="1598" 
d="M1522 0h-1446v700h64v-645h627v645h64v-645h627v645h64v-700z" />
    <glyph glyph-name="uni0429" unicode="&#x429;" horiz-adv-x="1616" 
d="M1535 0h-1459v700h64v-645h627v645h64v-645h627v645h64v-645h75v-175h-62v120z" />
    <glyph glyph-name="uni042A" unicode="&#x42a;" horiz-adv-x="1237" 
d="M267 646h-248v54h312v-270h714q83 0 118.5 -35t35.5 -119v-122q0 -83 -35.5 -118.5t-118.5 -35.5h-778v646zM331 379v-327h696q62 0 85 23.5t23 85.5v109q0 62 -23 85.5t-85 23.5h-696z" />
    <glyph glyph-name="uni042B" unicode="&#x42b;" horiz-adv-x="1254" 
d="M76 0v700h64v-270h694q83 0 118.5 -35.5t35.5 -118.5v-122q0 -84 -35.5 -119t-118.5 -35h-758zM1108 0v700h64v-700h-64zM816 379h-676v-327h676q62 0 85 23.5t23 85.5v109q0 62 -23 85.5t-85 23.5z" />
    <glyph glyph-name="uni042C" unicode="&#x42c;" horiz-adv-x="1026" 
d="M76 0v700h64v-270h694q83 0 118.5 -35.5t35.5 -118.5v-122q0 -84 -35.5 -119t-118.5 -35h-758zM816 379h-676v-327h676q62 0 85 23.5t23 85.5v109q0 62 -23 85.5t-85 23.5z" />
    <glyph glyph-name="uni042D" unicode="&#x42d;" horiz-adv-x="1080" 
d="M236 700h604q90 0 132 -41.5t42 -132.5v-352q0 -91 -42 -132.5t-132 -41.5h-604q-90 0 -132 42t-42 132v73h63v-68q0 -70 29 -98.5t98 -28.5h571q70 0 98.5 28.5t28.5 98.5v161h-582v49h582v132q0 70 -28.5 98.5t-98.5 28.5h-571q-69 0 -98 -28.5t-29 -98.5v-59h-63v64
q0 91 42 132.5t132 41.5z" />
    <glyph glyph-name="uni042E" unicode="&#x42e;" horiz-adv-x="1574" 
d="M720 700h614q90 0 132 -41.5t42 -132.5v-352q0 -91 -42 -132.5t-132 -41.5h-614q-90 0 -132 42t-42 132v167h-406v-341h-64v700h64v-303h406v129q0 91 42 132.5t132 41.5zM1444 181v338q0 69 -28.5 98t-98.5 29h-580q-70 0 -98.5 -29t-28.5 -98v-338q0 -69 28.5 -98
t98.5 -29h580q70 0 98.5 29t28.5 98z" />
    <glyph glyph-name="uni042F" unicode="&#x42f;" horiz-adv-x="1054" 
d="M220 700h758v-700h-64v291h-518l-277 -291h-83l279 292l-95 1q-83 0 -118.5 35t-35.5 119v99q0 84 35.5 119t118.5 35zM238 341h676v308h-676q-62 0 -85 -23.5t-23 -85.5v-90q0 -62 23 -85.5t85 -23.5z" />
    <glyph glyph-name="uni0430" unicode="&#x430;" horiz-adv-x="948" 
d="M220 522h504q83 0 118.5 -35t35.5 -119v-368h-49l-9 80l-45 -31q-47 -33 -79 -40q-34 -9 -100 -9h-409q-121 0 -121 121v50q0 121 121 121h629v73q0 62 -23.5 85t-85.5 23h-470q-47 0 -66.5 -19.5t-19.5 -66.5v-26h-61v31q0 67 32 98.5t98 31.5zM753 86l63 43v118h-608
q-44 0 -62 -18.5t-18 -61.5v-39q0 -44 18 -62t62 -18h404q86 0 141 38z" />
    <glyph glyph-name="uni0431" unicode="&#x431;" horiz-adv-x="954" 
d="M225 458h533q66 0 98 -31.5t32 -98.5v-198q0 -67 -32 -98.5t-98 -31.5h-562q-66 0 -98 31.5t-32 98.5v385q0 89 41.5 130t132.5 45l628 20v-51l-622 -21q-71 -2 -100 -30.5t-29 -97.5v-97q29 45 108 45zM826 137v185q0 47 -19.5 66.5t-66.5 19.5h-525q-47 0 -66.5 -19.5
t-19.5 -66.5v-185q0 -47 19.5 -66.5t66.5 -19.5h525q47 0 66.5 19.5t19.5 66.5z" />
    <glyph glyph-name="uni0432" unicode="&#x432;" horiz-adv-x="939" 
d="M825 277q57 -15 57 -90v-90q0 -50 -23.5 -73.5t-73.5 -23.5h-709v522h694q50 0 73.5 -23.5t23.5 -73.5v-62q0 -65 -42 -86zM741 474h-603v-177h603q35 0 49.5 14.5t14.5 49.5v49q0 35 -14.5 49.5t-49.5 14.5zM819 112v75q0 35 -14 49.5t-49 14.5h-618v-202h618
q35 0 49 14t14 49z" />
    <glyph glyph-name="uni0433" unicode="&#x433;" horiz-adv-x="797" 
d="M138 0h-62v522h702v-52h-640v-470z" />
    <glyph glyph-name="uni0434" unicode="&#x434;" horiz-adv-x="977" 
d="M884 522v-471h74v-171h-60v120h-819v-120h-60v171h27q51 0 71.5 20t23.5 72l26 379h717zM226 470l-23 -328q-4 -60 -29 -91h648v419h-596z" />
    <glyph glyph-name="uni0435" unicode="&#x435;" horiz-adv-x="944" 
d="M220 522h504q83 0 118.5 -35t35.5 -119v-106h-750v-103q0 -62 23.5 -85t85.5 -23h494q47 0 66.5 19.5t19.5 66.5v37h61v-44q0 -67 -32 -98.5t-98 -31.5h-528q-82 0 -118 35.5t-36 118.5v214q0 83 36 118.5t118 35.5zM128 365v-56h689v56q0 62 -23.5 85t-85.5 23h-471
q-62 0 -85.5 -23t-23.5 -85z" />
    <glyph glyph-name="uni0436" unicode="&#x436;" horiz-adv-x="1527" 
d="M904 262l615 -262h-141l-583 252v-252h-63v252l-583 -252h-141l615 262l-610 260h139l580 -251v251h63v-251l580 251h139z" />
    <glyph glyph-name="uni0437" unicode="&#x437;" horiz-adv-x="944" 
d="M826 276q52 -18 52 -89v-90q0 -50 -23.5 -73.5t-73.5 -23.5h-618q-50 0 -73.5 23.5t-23.5 73.5v60h61v-45q0 -35 14.5 -49t49.5 -14h561q35 0 49.5 14t14.5 49v75q0 35 -14.5 49.5t-49.5 14.5h-429v46h422q35 0 49.5 15t14.5 50v48q0 35 -14.5 49t-49.5 14h-547
q-35 0 -49 -14t-14 -49v-38h-62v53q0 97 98 97h603q97 0 97 -97v-62q0 -67 -45 -87z" />
    <glyph glyph-name="uni0438" unicode="&#x438;" horiz-adv-x="978" 
d="M137 71l712 451h53v-522h-62v453l-716 -453h-48v522h61v-451z" />
    <glyph glyph-name="uni0439" unicode="&#x439;" horiz-adv-x="978" 
d="M628 579h-277q-72 0 -72 72v49h52v-45q0 -35 35 -35h246q35 0 35 35v45h52v-49q0 -72 -71 -72zM137 71l712 451h53v-522h-62v453l-716 -453h-48v522h61v-451z" />
    <glyph glyph-name="uni043A" unicode="&#x43a;" horiz-adv-x="871" 
d="M248 262l615 -262h-142l-583 252v-252h-62v522h62v-251l581 251h139z" />
    <glyph glyph-name="uni043B" unicode="&#x43b;" horiz-adv-x="966" 
d="M75 0h-56v51h32q51 0 71.5 20t24.5 72l26 379h717v-522h-62v470h-596l-24 -340q-5 -67 -36.5 -98.5t-96.5 -31.5z" />
    <glyph glyph-name="uni043C" unicode="&#x43c;" horiz-adv-x="1064" 
d="M136 0h-60v522h56l401 -355l402 355h53v-522h-61v449l-379 -335h-33l-379 335v-449z" />
    <glyph glyph-name="uni043D" unicode="&#x43d;" horiz-adv-x="964" 
d="M825 297v225h63v-522h-63v244h-687v-244h-62v522h62v-225h687z" />
    <glyph glyph-name="uni043E" unicode="&#x43e;" horiz-adv-x="954" 
d="M734 0h-514q-82 0 -118 35.5t-36 118.5v214q0 83 36 118.5t118 35.5h514q83 0 118.5 -35t35.5 -119v-214q0 -83 -35.5 -118.5t-118.5 -35.5zM237 52h480q62 0 85.5 23t23.5 85v202q0 62 -23.5 85t-85.5 23h-480q-62 0 -85.5 -23t-23.5 -85v-202q0 -62 23.5 -85t85.5 -23z
" />
    <glyph glyph-name="uni043F" unicode="&#x43f;" horiz-adv-x="964" 
d="M138 0h-62v522h812v-522h-63v470h-687v-470z" />
    <glyph glyph-name="uni0440" unicode="&#x440;" horiz-adv-x="964" 
d="M376 522h368q82 0 118 -35.5t36 -118.5v-214q0 -83 -36 -118.5t-118 -35.5h-368q-72 0 -116 11q-45 11 -91 44l-31 22v-237h-62v682h49l9 -80l35 25q47 35 90 45q40 10 117 10zM835 160v202q0 62 -23 85t-85 23h-366q-109 0 -170 -43l-53 -38v-256l53 -37q62 -44 170 -44
h366q62 0 85 23t23 85z" />
    <glyph glyph-name="uni0441" unicode="&#x441;" horiz-adv-x="933" 
d="M66 154v214q0 83 36 118.5t118 35.5h493q83 0 118.5 -35t35.5 -119v-35h-61v29q0 62 -23.5 85t-85.5 23h-460q-62 0 -85.5 -23t-23.5 -85v-202q0 -62 23.5 -85t85.5 -23h460q62 0 85.5 23t23.5 85v38h61v-44q0 -83 -35.5 -118.5t-118.5 -35.5h-493q-82 0 -118 35.5
t-36 118.5z" />
    <glyph glyph-name="uni0442" unicode="&#x442;" horiz-adv-x="846" 
d="M392 470h-373v52h808v-52h-373v-470h-62v470z" />
    <glyph glyph-name="uni0443" unicode="&#x443;" horiz-adv-x="908" 
d="M455 56l370 466h75l-438 -544q-63 -81 -117 -110q-52 -28 -151 -28h-135v52h147q69 0 111 20q41 21 86 80l16 19l-411 511h78z" />
    <glyph glyph-name="uni0444" unicode="&#x444;" horiz-adv-x="1310" 
d="M686 522h404q83 0 118.5 -35t35.5 -119v-214q0 -83 -35.5 -118.5t-118.5 -35.5h-404v-160h-62v160h-404q-82 0 -118 35.5t-36 118.5v214q0 83 36 118.5t118 35.5h404v178h62v-178zM237 50h387v422h-387q-62 0 -85.5 -23t-23.5 -85v-206q0 -62 23.5 -85t85.5 -23z
M1182 158v206q0 62 -23.5 85t-85.5 23h-387v-422h387q62 0 85.5 23t23.5 85z" />
    <glyph glyph-name="uni0445" unicode="&#x445;" horiz-adv-x="892" 
d="M108 0h-100l389 266l-379 256h103l327 -222l326 222h100l-379 -256l389 -266h-103l-337 232z" />
    <glyph glyph-name="uni0446" unicode="&#x446;" horiz-adv-x="981" 
d="M901 0h-825v522h62v-470h687v470h63v-470h74v-172h-61v120z" />
    <glyph glyph-name="uni0447" unicode="&#x447;" horiz-adv-x="910" 
d="M38 523l62 -1v-167q0 -47 19.5 -66.5t66.5 -19.5h586v253h62v-522h-62v217h-604q-66 0 -98 31.5t-32 98.5v176z" />
    <glyph glyph-name="uni0448" unicode="&#x448;" horiz-adv-x="1419" 
d="M1343 0h-1267v522h62v-470h540v470h63v-470h540v470h62v-522z" />
    <glyph glyph-name="uni0449" unicode="&#x449;" horiz-adv-x="1456" 
d="M1377 0h-1301v522h62v-470h550v470h63v-470h550v470h62v-470h74v-172h-60v120z" />
    <glyph glyph-name="uni044A" unicode="&#x44a;" horiz-adv-x="1051" 
d="M217 470h-198v52h260v-202h608q65 0 95.5 -30t30.5 -96v-68q0 -66 -30.5 -96t-95.5 -30h-670v470zM279 272v-223h589q46 0 64.5 18t18.5 64v59q0 46 -18.5 64t-64.5 18h-589z" />
    <glyph glyph-name="uni044B" unicode="&#x44b;" horiz-adv-x="1132" 
d="M76 0v522h62v-202h608q65 0 95.5 -30t30.5 -96v-68q0 -66 -30.5 -96t-95.5 -30h-670zM1053 0h-63v522h63v-522zM727 272h-589v-223h589q46 0 64 18t18 64v59q0 46 -18 64t-64 18z" />
    <glyph glyph-name="uni044C" unicode="&#x44c;" horiz-adv-x="910" 
d="M76 0v522h62v-202h608q65 0 95.5 -30t30.5 -96v-68q0 -66 -30.5 -96t-95.5 -30h-670zM727 272h-589v-223h589q46 0 64 18t18 64v59q0 46 -18 64t-64 18z" />
    <glyph glyph-name="uni044D" unicode="&#x44d;" horiz-adv-x="953" 
d="M220 522h513q83 0 118.5 -35t35.5 -119v-214q0 -83 -35.5 -118.5t-118.5 -35.5h-513q-82 0 -118 35.5t-36 118.5v44h61v-39q0 -62 23.5 -85t85.5 -23h480q62 0 85.5 23t23.5 85v94h-500v45h500v65q0 62 -23.5 85t-85.5 23h-480q-62 0 -85.5 -23t-23.5 -85v-30h-61v35
q0 83 36 118.5t118 35.5z" />
    <glyph glyph-name="uni044E" unicode="&#x44e;" horiz-adv-x="1358" 
d="M624 522h514q82 0 118 -35.5t36 -118.5v-214q0 -83 -36 -118.5t-118 -35.5h-514q-83 0 -118.5 35.5t-35.5 118.5v90h-332v-244h-62v522h62v-225h332v71q0 84 35.5 119t118.5 35zM1229 160v202q0 62 -23 85t-85 23h-481q-62 0 -85 -23t-23 -85v-202q0 -62 23 -85t85 -23
h481q62 0 85 23t23 85z" />
    <glyph glyph-name="uni044F" unicode="&#x44f;" horiz-adv-x="937" 
d="M191 522h670v-522h-62v214h-483l-202 -214h-77l205 215h-51q-65 0 -95.5 30t-30.5 96v55q0 66 30.5 96t95.5 30zM210 261h589v213h-589q-46 0 -64.5 -18t-18.5 -64v-49q0 -46 18.5 -64t64.5 -18z" />
    <glyph glyph-name="uni0451" unicode="&#x451;" horiz-adv-x="944" 
d="M322 664h57v-67h-57v67zM565 664h57v-67h-57v67zM220 522h504q83 0 118.5 -35t35.5 -119v-106h-750v-103q0 -62 23.5 -85t85.5 -23h494q47 0 66.5 19.5t19.5 66.5v37h61v-44q0 -67 -32 -98.5t-98 -31.5h-528q-82 0 -118 35.5t-36 118.5v214q0 83 36 118.5t118 35.5z
M128 365v-56h689v56q0 62 -23.5 85t-85.5 23h-471q-62 0 -85.5 -23t-23.5 -85z" />
    <glyph glyph-name="uni0453" unicode="&#x453;" horiz-adv-x="797" 
d="M629 700l-193 -121h-71l177 121h87zM138 0h-62v522h702v-52h-640v-470z" />
    <glyph glyph-name="uni0455" unicode="&#x455;" horiz-adv-x="934" 
d="M66 107v46h61v-41q0 -33 15 -48t49 -15h551q34 0 49 15t15 48v60q0 33 -15 48.5t-49 17.5l-559 29q-107 5 -107 108v40q0 107 107 107h564q107 0 107 -107v-43h-61v38q0 34 -15 48.5t-49 14.5h-527q-34 0 -49 -14.5t-15 -48.5v-27q0 -33 15.5 -48t48.5 -17l559 -29
q107 -6 107 -109v-73q0 -107 -107 -107h-588q-52 0 -79.5 27.5t-27.5 79.5z" />
    <glyph glyph-name="uni0456" unicode="&#x456;" horiz-adv-x="222" 
d="M143 630h-63v70h63v-70zM143 0h-63v522h63v-522z" />
    <glyph glyph-name="uni0457" unicode="&#x457;" horiz-adv-x="222" 
d="M18 597h-57v67h57v-67zM261 597h-57v67h57v-67zM143 0h-63v522h63v-522z" />
    <glyph glyph-name="uni0458" unicode="&#x458;" horiz-adv-x="322" 
d="M243 630h-63v70h63v-70zM113 -160h-237v51h218q47 0 66.5 19.5t19.5 66.5v545h63v-552q0 -67 -32 -98.5t-98 -31.5z" />
    <glyph glyph-name="uni045C" unicode="&#x45c;" horiz-adv-x="871" 
d="M582 700h87l-193 -121h-71zM248 262l615 -262h-142l-583 252v-252h-62v522h62v-251l581 251h139z" />
    <glyph glyph-name="uni045E" unicode="&#x45e;" horiz-adv-x="908" 
d="M593 579h-277q-72 0 -72 72v49h52v-45q0 -35 35 -35h246q35 0 35 35v45h52v-49q0 -72 -71 -72zM455 56l370 466h75l-438 -544q-63 -81 -117 -110q-52 -28 -151 -28h-135v52h147q69 0 111 20q41 21 86 80l16 19l-411 511h78z" />
    <glyph glyph-name="uni0498" unicode="&#x498;" horiz-adv-x="1074" 
d="M937 370q71 -23 71 -120v-120q0 -67 -32 -98.5t-98 -31.5h-331l-14 -36h111q28 0 39.5 -11.5t11.5 -39.5v-22q0 -28 -11.5 -39.5t-39.5 -11.5h-233v37h223q16 0 16 16v19q0 16 -16 16h-145v15l21 57h-314q-66 0 -98 31.5t-32 98.5v88h63v-80q0 -47 19.5 -66.5t66.5 -19.5
h643q47 0 66.5 19.5t19.5 66.5v119q0 47 -19.5 66.5t-66.5 19.5h-504v51h494q47 0 66.5 19.5t19.5 66.5v82q0 47 -19.5 66.5t-66.5 19.5h-623q-47 0 -66.5 -19.5t-19.5 -66.5v-72h-63v80q0 67 32 98.5t98 31.5h662q66 0 98 -31.5t32 -98.5v-83q0 -90 -61 -117z" />
    <glyph glyph-name="uni0499" unicode="&#x499;" horiz-adv-x="944" 
d="M826 276q52 -18 52 -89v-90q0 -50 -23.5 -73.5t-73.5 -23.5h-299l-14 -36h111q28 0 39.5 -11.5t11.5 -39.5v-22q0 -28 -11.5 -39.5t-39.5 -11.5h-233v37h223q16 0 16 16v19q0 16 -16 16h-145v15l21 57h-282q-50 0 -73.5 23.5t-23.5 73.5v60h61v-45q0 -35 14.5 -49
t49.5 -14h561q35 0 49.5 14t14.5 49v75q0 35 -14.5 49.5t-49.5 14.5h-429v46h422q35 0 49.5 15t14.5 50v48q0 35 -14.5 49t-49.5 14h-547q-35 0 -49 -14t-14 -49v-38h-62v53q0 97 98 97h603q97 0 97 -97v-62q0 -67 -45 -87z" />
    <glyph glyph-name="uni04BB" unicode="&#x4bb;" horiz-adv-x="960" 
d="M377 522h357q82 0 118 -35.5t36 -118.5v-368h-63v362q0 62 -23 85t-85 23h-356q-108 0 -170 -44l-53 -37v-389h-62v700h62v-256l32 23q46 35 90 45q40 10 117 10z" />
    <glyph glyph-name="uni04C0" unicode="&#x4c0;" horiz-adv-x="228" 
d="M82 0v700h64v-700h-64z" />
    <glyph glyph-name="uni04C1" unicode="&#x4c1;" horiz-adv-x="1728" 
d="M1003 757h-277q-72 0 -72 72v49h52v-45q0 -35 35 -35h246q35 0 35 35v45h52v-49q0 -72 -71 -72zM992 361l727 -361h-131l-692 349v-349h-64v349l-692 -349h-131l726 361l-722 339h132l687 -329v329h64v-329l686 329h133z" />
    <glyph glyph-name="uni04C2" unicode="&#x4c2;" horiz-adv-x="1527" 
d="M903 579h-277q-72 0 -72 72v49h52v-45q0 -35 35 -35h246q35 0 35 35v45h52v-49q0 -72 -71 -72zM904 262l615 -262h-141l-583 252v-252h-63v252l-583 -252h-141l615 262l-610 260h139l580 -251v251h63v-251l580 251h139z" />
    <glyph glyph-name="uni04D0" unicode="&#x4d0;" horiz-adv-x="1082" 
d="M680 757h-277q-72 0 -72 72v49h52v-45q0 -35 35 -35h246q35 0 35 35v45h52v-49q0 -72 -71 -72zM1083 0h-73l-141 195h-659l-141 -195h-70l509 700h66zM539 650l-291 -402h582z" />
    <glyph glyph-name="uni04D1" unicode="&#x4d1;" horiz-adv-x="948" 
d="M613 579h-277q-72 0 -72 72v49h52v-45q0 -35 35 -35h246q35 0 35 35v45h52v-49q0 -72 -71 -72zM220 522h504q83 0 118.5 -35t35.5 -119v-368h-49l-9 80l-45 -31q-47 -33 -79 -40q-34 -9 -100 -9h-409q-121 0 -121 121v50q0 121 121 121h629v73q0 62 -23.5 85t-85.5 23
h-470q-47 0 -66.5 -19.5t-19.5 -66.5v-26h-61v31q0 67 32 98.5t98 31.5zM753 86l63 43v118h-608q-44 0 -62 -18.5t-18 -61.5v-39q0 -44 18 -62t62 -18h404q86 0 141 38z" />
    <glyph glyph-name="uni04D2" unicode="&#x4d2;" horiz-adv-x="1082" 
d="M391 842h57v-67h-57v67zM634 842h57v-67h-57v67zM1083 0h-73l-141 195h-659l-141 -195h-70l509 700h66zM539 650l-291 -402h582z" />
    <glyph glyph-name="uni04D3" unicode="&#x4d3;" horiz-adv-x="948" 
d="M324 664h57v-67h-57v67zM567 664h57v-67h-57v67zM220 522h504q83 0 118.5 -35t35.5 -119v-368h-49l-9 80l-45 -31q-47 -33 -79 -40q-34 -9 -100 -9h-409q-121 0 -121 121v50q0 121 121 121h629v73q0 62 -23.5 85t-85.5 23h-470q-47 0 -66.5 -19.5t-19.5 -66.5v-26h-61v31
q0 67 32 98.5t98 31.5zM753 86l63 43v118h-608q-44 0 -62 -18.5t-18 -61.5v-39q0 -44 18 -62t62 -18h404q86 0 141 38z" />
    <glyph glyph-name="uni04D4" unicode="&#x4d4;" horiz-adv-x="1571" 
d="M833 343l209 -289h491v-54h-525l-141 195h-657l-141 -195h-70l509 700h1015v-54h-909l182 -252h687v-51h-650zM539 650l-291 -402h581z" />
    <glyph glyph-name="uni04D5" unicode="&#x4d5;" horiz-adv-x="1694" 
d="M980 522h494q82 0 118 -35.5t36 -118.5v-106h-750v-103q0 -62 23 -85t85 -23h494q47 0 66.5 19.5t19.5 66.5v37h62v-44q0 -67 -32 -98.5t-98 -31.5h-519q-121 0 -145 84l-51 -35q-47 -33 -79 -40q-34 -9 -100 -9h-417q-121 0 -121 121v50q0 121 121 121h629v73
q0 62 -23.5 85t-85.5 23h-470q-47 0 -66.5 -19.5t-19.5 -66.5v-26h-61v31q0 67 32 98.5t98 31.5h494q104 0 133 -59q29 59 133 59zM878 365v-56h688v56q0 62 -23 85t-85 23h-472q-62 0 -85 -23t-23 -85zM753 86l63 43v118h-608q-44 0 -62 -18.5t-18 -61.5v-39q0 -44 18 -62
t62 -18h404q86 0 141 38z" />
    <glyph glyph-name="uni04D6" unicode="&#x4d6;" horiz-adv-x="974" 
d="M626 757h-277q-72 0 -72 72v49h52v-45q0 -35 35 -35h246q35 0 35 35v45h52v-49q0 -72 -71 -72zM140 343v-289h796v-54h-860v700h850v-54h-786v-252h746v-51h-746z" />
    <glyph glyph-name="uni04D7" unicode="&#x4d7;" horiz-adv-x="944" 
d="M611 579h-277q-72 0 -72 72v49h52v-45q0 -35 35 -35h246q35 0 35 35v45h52v-49q0 -72 -71 -72zM220 522h504q83 0 118.5 -35t35.5 -119v-106h-750v-103q0 -62 23.5 -85t85.5 -23h494q47 0 66.5 19.5t19.5 66.5v37h61v-44q0 -67 -32 -98.5t-98 -31.5h-528q-82 0 -118 35.5
t-36 118.5v214q0 83 36 118.5t118 35.5zM128 365v-56h689v56q0 62 -23.5 85t-85.5 23h-471q-62 0 -85.5 -23t-23.5 -85z" />
    <glyph glyph-name="uni04DC" unicode="&#x4dc;" horiz-adv-x="1728" 
d="M714 842h57v-67h-57v67zM957 842h57v-67h-57v67zM992 361l727 -361h-131l-692 349v-349h-64v349l-692 -349h-131l726 361l-722 339h132l687 -329v329h64v-329l686 329h133z" />
    <glyph glyph-name="uni04DD" unicode="&#x4dd;" horiz-adv-x="1527" 
d="M614 664h57v-67h-57v67zM857 664h57v-67h-57v67zM904 262l615 -262h-141l-583 252v-252h-63v252l-583 -252h-141l615 262l-610 260h139l580 -251v251h63v-251l580 251h139z" />
    <glyph glyph-name="uni04DE" unicode="&#x4de;" horiz-adv-x="1074" 
d="M387 842h57v-67h-57v67zM630 842h57v-67h-57v67zM937 370q71 -23 71 -120v-120q0 -67 -32 -98.5t-98 -31.5h-682q-66 0 -98 31.5t-32 98.5v88h63v-80q0 -47 19.5 -66.5t66.5 -19.5h643q47 0 66.5 19.5t19.5 66.5v119q0 47 -19.5 66.5t-66.5 19.5h-504v51h494
q47 0 66.5 19.5t19.5 66.5v82q0 47 -19.5 66.5t-66.5 19.5h-623q-47 0 -66.5 -19.5t-19.5 -66.5v-72h-63v80q0 67 32 98.5t98 31.5h662q66 0 98 -31.5t32 -98.5v-83q0 -90 -61 -117z" />
    <glyph glyph-name="uni04DF" unicode="&#x4df;" horiz-adv-x="944" 
d="M322 664h57v-67h-57v67zM565 664h57v-67h-57v67zM826 276q52 -18 52 -89v-90q0 -50 -23.5 -73.5t-73.5 -23.5h-618q-50 0 -73.5 23.5t-23.5 73.5v60h61v-45q0 -35 14.5 -49t49.5 -14h561q35 0 49.5 14t14.5 49v75q0 35 -14.5 49.5t-49.5 14.5h-429v46h422q35 0 49.5 15
t14.5 50v48q0 35 -14.5 49t-49.5 14h-547q-35 0 -49 -14t-14 -49v-38h-62v53q0 97 98 97h603q97 0 97 -97v-62q0 -67 -45 -87z" />
    <glyph glyph-name="uni04E2" unicode="&#x4e2;" horiz-adv-x="1104" 
d="M328 841h448v-43h-448v43zM139 79l834 621h55v-700h-63v624l-839 -624h-50v700h63v-621z" />
    <glyph glyph-name="uni04E3" unicode="&#x4e3;" horiz-adv-x="978" 
d="M265 663h448v-43h-448v43zM137 71l712 451h53v-522h-62v453l-716 -453h-48v522h61v-451z" />
    <glyph glyph-name="uni04E4" unicode="&#x4e4;" horiz-adv-x="1104" 
d="M402 842h57v-67h-57v67zM645 842h57v-67h-57v67zM139 79l834 621h55v-700h-63v624l-839 -624h-50v700h63v-621z" />
    <glyph glyph-name="uni04E5" unicode="&#x4e5;" horiz-adv-x="978" 
d="M339 664h57v-67h-57v67zM582 664h57v-67h-57v67zM137 71l712 451h53v-522h-62v453l-716 -453h-48v522h61v-451z" />
    <glyph glyph-name="uni04E6" unicode="&#x4e6;" horiz-adv-x="1094" 
d="M454 775h-57v67h57v-67zM697 775h-57v67h57v-67zM854 0h-614q-90 0 -132 42t-42 132v352q0 91 42 132.5t132 41.5h614q90 0 132 -41.5t42 -132.5v-352q0 -91 -42 -132.5t-132 -41.5zM257 54h580q70 0 98.5 29t28.5 98v338q0 69 -28.5 98t-98.5 29h-580q-69 0 -98 -29
t-29 -98v-338q0 -69 29 -98t98 -29z" />
    <glyph glyph-name="uni04E7" unicode="&#x4e7;" horiz-adv-x="954" 
d="M384 597h-57v67h57v-67zM627 597h-57v67h57v-67zM734 0h-514q-82 0 -118 35.5t-36 118.5v214q0 83 36 118.5t118 35.5h514q83 0 118.5 -35t35.5 -119v-214q0 -83 -35.5 -118.5t-118.5 -35.5zM237 52h480q62 0 85.5 23t23.5 85v202q0 62 -23.5 85t-85.5 23h-480
q-62 0 -85.5 -23t-23.5 -85v-202q0 -62 23.5 -85t85.5 -23z" />
    <glyph glyph-name="uni04EC" unicode="&#x4ec;" horiz-adv-x="1080" 
d="M390 842h57v-67h-57v67zM633 842h57v-67h-57v67zM236 700h604q90 0 132 -41.5t42 -132.5v-352q0 -91 -42 -132.5t-132 -41.5h-604q-90 0 -132 42t-42 132v73h63v-68q0 -70 29 -98.5t98 -28.5h571q70 0 98.5 28.5t28.5 98.5v161h-582v49h582v132q0 70 -28.5 98.5
t-98.5 28.5h-571q-69 0 -98 -28.5t-29 -98.5v-59h-63v64q0 91 42 132.5t132 41.5z" />
    <glyph glyph-name="uni04ED" unicode="&#x4ed;" horiz-adv-x="953" 
d="M327 664h57v-67h-57v67zM570 664h57v-67h-57v67zM220 522h513q83 0 118.5 -35t35.5 -119v-214q0 -83 -35.5 -118.5t-118.5 -35.5h-513q-82 0 -118 35.5t-36 118.5v44h61v-39q0 -62 23.5 -85t85.5 -23h480q62 0 85.5 23t23.5 85v94h-500v45h500v65q0 62 -23.5 85t-85.5 23
h-480q-62 0 -85.5 -23t-23.5 -85v-30h-61v35q0 83 36 118.5t118 35.5z" />
    <glyph glyph-name="uni04EE" unicode="&#x4ee;" horiz-adv-x="1008" 
d="M280 841h448v-43h-448v43zM505 273l422 427h82l-692 -700h-83l228 232l-463 468h86z" />
    <glyph glyph-name="uni04EF" unicode="&#x4ef;" horiz-adv-x="908" 
d="M230 663h448v-43h-448v43zM455 56l370 466h75l-438 -544q-63 -81 -117 -110q-52 -28 -151 -28h-135v52h147q69 0 111 20q41 21 86 80l16 19l-411 511h78z" />
    <glyph glyph-name="uni04F0" unicode="&#x4f0;" horiz-adv-x="1008" 
d="M354 842h57v-67h-57v67zM597 842h57v-67h-57v67zM505 273l422 427h82l-692 -700h-83l228 232l-463 468h86z" />
    <glyph glyph-name="uni04F1" unicode="&#x4f1;" horiz-adv-x="908" 
d="M304 664h57v-67h-57v67zM547 664h57v-67h-57v67zM455 56l370 466h75l-438 -544q-63 -81 -117 -110q-52 -28 -151 -28h-135v52h147q69 0 111 20q41 21 86 80l16 19l-411 511h78z" />
    <glyph glyph-name="uni04F2" unicode="&#x4f2;" horiz-adv-x="1008" 
d="M472 878h78l-147 -121h-64zM692 878h78l-147 -121h-64zM505 273l422 427h82l-692 -700h-83l228 232l-463 468h86z" />
    <glyph glyph-name="uni04F3" unicode="&#x4f3;" horiz-adv-x="908" 
d="M422 700h78l-147 -121h-64zM642 700h78l-147 -121h-64zM455 56l370 466h75l-438 -544q-63 -81 -117 -110q-52 -28 -151 -28h-135v52h147q69 0 111 20q41 21 86 80l16 19l-411 511h78z" />
    <glyph glyph-name="uni04F4" unicode="&#x4f4;" horiz-adv-x="1046" 
d="M430 775h-57v67h57v-67zM673 775h-57v67h57v-67zM970 0h-64v288h-714q-82 0 -118 35.5t-36 118.5v258h64v-248q0 -62 23 -85.5t85 -23.5h696v357h64v-700z" />
    <glyph glyph-name="uni04F5" unicode="&#x4f5;" horiz-adv-x="600" 
d="M133 597h-57v67h57v-67zM376 597h-57v67h57v-67zM38 523l62 -1v-167q0 -47 19.5 -66.5t66.5 -19.5h586v253h62v-522h-62v217h-604q-66 0 -98 31.5t-32 98.5v176z" />
    <glyph glyph-name="uni04F8" unicode="&#x4f8;" horiz-adv-x="1254" 
d="M1047 775h-57v67h57v-67zM1290 775h-57v67h57v-67zM76 0v700h64v-270h694q83 0 118.5 -35.5t35.5 -118.5v-122q0 -84 -35.5 -119t-118.5 -35h-758zM1108 0v700h64v-700h-64zM816 379h-676v-327h676q62 0 85 23.5t23 85.5v109q0 62 -23 85.5t-85 23.5z" />
    <glyph glyph-name="uni04F9" unicode="&#x4f9;" horiz-adv-x="1132" 
d="M928 597h-57v67h57v-67zM1171 597h-57v67h57v-67zM76 0v522h62v-202h608q65 0 95.5 -30t30.5 -96v-68q0 -66 -30.5 -96t-95.5 -30h-670zM1053 0h-63v522h63v-522zM727 272h-589v-223h589q46 0 64 18t18 64v59q0 46 -18 64t-64 18z" />
    <glyph glyph-name="Wgrave" unicode="&#x1e80;" horiz-adv-x="1460" 
d="M585 878l178 -121h-72l-192 121h86zM1071 73l321 627h69l-361 -700h-58l-312 621l-312 -621h-58l-361 700h72l321 -629l313 629h53z" />
    <glyph glyph-name="wgrave" unicode="&#x1e81;" horiz-adv-x="1254" 
d="M482 700l178 -121h-72l-192 121h86zM915 66l261 456h69l-304 -522h-53l-261 453l-261 -453h-53l-304 522h72l261 -456l262 456h49z" />
    <glyph glyph-name="Wacute" unicode="&#x1e82;" horiz-adv-x="1460" 
d="M874 878h87l-193 -121h-71zM1071 73l321 627h69l-361 -700h-58l-312 621l-312 -621h-58l-361 700h72l321 -629l313 629h53z" />
    <glyph glyph-name="wacute" unicode="&#x1e83;" horiz-adv-x="1254" 
d="M771 700h87l-193 -121h-71zM915 66l261 456h69l-304 -522h-53l-261 453l-261 -453h-53l-304 522h72l261 -456l262 456h49z" />
    <glyph glyph-name="Wdieresis" unicode="&#x1e84;" horiz-adv-x="1460" 
d="M580 842h57v-67h-57v67zM823 842h57v-67h-57v67zM1071 73l321 627h69l-361 -700h-58l-312 621l-312 -621h-58l-361 700h72l321 -629l313 629h53z" />
    <glyph glyph-name="wdieresis" unicode="&#x1e85;" horiz-adv-x="1254" 
d="M477 664h57v-67h-57v67zM720 664h57v-67h-57v67zM915 66l261 456h69l-304 -522h-53l-261 453l-261 -453h-53l-304 522h72l261 -456l262 456h49z" />
    <glyph glyph-name="uni1E9E" unicode="&#x1e9e;" horiz-adv-x="1091" 
d="M526 404h373q66 0 98 -31.5t32 -98.5v-144q0 -67 -32 -98.5t-98 -31.5h-521v51h501q47 0 66.5 19.5t19.5 66.5v130q0 47 -19.5 66.5t-66.5 19.5h-481v37l457 256h-597q-70 0 -98.5 -28.5t-28.5 -98.5v-519h-64v526q0 91 42 132.5t132 41.5h742v-35z" />
    <glyph glyph-name="Ygrave" unicode="&#x1ef2;" horiz-adv-x="1008" 
d="M359 878l178 -121h-72l-192 121h86zM924 700h85l-473 -440v-260h-64v260l-473 440h88l419 -394z" />
    <glyph glyph-name="ygrave" unicode="&#x1ef3;" horiz-adv-x="908" 
d="M309 700l178 -121h-72l-192 121h86zM455 56l370 466h75l-438 -544q-63 -81 -117 -110q-52 -28 -151 -28h-135v52h147q69 0 111 20q41 21 86 80l16 19l-411 511h78z" />
    <glyph glyph-name="endash" unicode="&#x2013;" horiz-adv-x="940" 
d="M57 323v54h826v-54h-826z" />
    <glyph glyph-name="emdash" unicode="&#x2014;" horiz-adv-x="1220" 
d="M57 323v54h1106v-54h-1106z" />
    <glyph glyph-name="quoteleft" unicode="&#x2018;" horiz-adv-x="236" 
d="M125 700h42l-39 -160h32v-78h-84v40q0 30 9 56z" />
    <glyph glyph-name="quoteright" unicode="&#x2019;" horiz-adv-x="236" 
d="M111 462h-42l39 160h-32v78h84v-40q0 -30 -9 -56z" />
    <glyph glyph-name="quotesinglbase" unicode="&#x201a;" horiz-adv-x="236" 
d="M111 -160h-42l39 160h-32v78h84v-40q0 -31 -9 -56z" />
    <glyph glyph-name="quotedblleft" unicode="&#x201c;" horiz-adv-x="434" 
d="M125 700h42l-39 -160h32v-78h-84v40q0 30 9 56zM323 700h42l-39 -160h32v-78h-84v40q0 30 9 56z" />
    <glyph glyph-name="quotedblright" unicode="&#x201d;" horiz-adv-x="434" 
d="M111 462h-42l39 160h-32v78h84v-40q0 -30 -9 -56zM309 462h-42l39 160h-32v78h84v-40q0 -30 -9 -56z" />
    <glyph glyph-name="quotedblbase" unicode="&#x201e;" horiz-adv-x="434" 
d="M111 -160h-42l39 160h-32v78h84v-40q0 -31 -9 -56zM309 -160h-42l39 160h-32v78h84v-40q0 -31 -9 -56z" />
    <glyph glyph-name="dagger" unicode="&#x2020;" horiz-adv-x="608" 
d="M329 569h231v-44h-231v-239h-50v239h-231v44h231v131h50v-131z" />
    <glyph glyph-name="daggerdbl" unicode="&#x2021;" horiz-adv-x="608" 
d="M560 573v-44h-231v-162h231v-44h-231v-127h-50v127h-231v44h231v162h-231v44h231v127h50v-127h231z" />
    <glyph glyph-name="bullet" unicode="&#x2022;" horiz-adv-x="320" 
d="M196 266h-72q-48 0 -48 48v72q0 48 48 48h72q48 0 48 -48v-72q0 -48 -48 -48z" />
    <glyph glyph-name="perthousand" unicode="&#x2030;" horiz-adv-x="1650" 
d="M396 309h-244q-104 0 -104 104v103q0 54 25.5 79t78.5 25h244q53 0 78.5 -25t25.5 -79v-103q0 -104 -104 -104zM203 0h-69l803 620h69zM162 353h224q35 0 50.5 15.5t15.5 50.5v91q0 36 -15 51t-51 15h-224q-36 0 -51 -15t-15 -51v-91q0 -35 15.5 -50.5t50.5 -15.5zM988 0
h-244q-104 0 -104 104v103q0 54 25.5 79t78.5 25h244q53 0 78.5 -25t25.5 -79v-103q0 -104 -104 -104zM1498 0h-244q-104 0 -104 104v103q0 54 25.5 79t78.5 25h244q53 0 78.5 -25t25.5 -79v-103q0 -104 -104 -104zM754 44h224q35 0 50.5 15.5t15.5 50.5v91q0 36 -15 51
t-51 15h-224q-36 0 -51 -15t-15 -51v-91q0 -35 15.5 -50.5t50.5 -15.5zM1264 44h224q35 0 50.5 15.5t15.5 50.5v91q0 36 -15 51t-51 15h-224q-36 0 -51 -15t-15 -51v-91q0 -35 15.5 -50.5t50.5 -15.5z" />
    <glyph glyph-name="guilsinglleft" unicode="&#x2039;" horiz-adv-x="662" 
d="M58 370l546 207v-61l-469 -167l469 -165v-63l-546 207v42z" />
    <glyph glyph-name="guilsinglright" unicode="&#x203a;" horiz-adv-x="662" 
d="M58 514v63l546 -207v-42l-546 -207v61l469 167z" />
    <glyph glyph-name="fraction" unicode="&#x2044;" horiz-adv-x="255" 
d="M-215 0h-62l748 700h61z" />
    <glyph glyph-name="Euro" unicode="&#x20ac;" horiz-adv-x="1072" 
d="M991 526v-64h-62v59q0 70 -28.5 98.5t-98.5 28.5h-481q-70 0 -98.5 -28.5t-28.5 -98.5v-74h570v-42h-570v-110h570v-42h-570v-74q0 -70 28.5 -98.5t98.5 -28.5h481q70 0 98.5 28.5t28.5 98.5v68h62v-73q0 -91 -42 -132.5t-132 -41.5h-512q-90 0 -132 42t-42 132v79h-122
v42h122v110h-122v42h122v79q0 91 42 132.5t132 41.5h512q90 0 132 -41.5t42 -132.5z" />
    <glyph glyph-name="trademark" unicode="&#x2122;" horiz-adv-x="801" 
d="M179 664h-141v36h320v-36h-140v-197h-39v197zM579 556l148 144h36v-233h-39v181l-136 -130h-21l-136 130v-181h-38v233h37z" />
    <glyph glyph-name="minus" unicode="&#x2212;" 
d="M77 323v54h878v-54h-878z" />
    <glyph glyph-name="approxequal" unicode="&#x2248;" 
d="M361 636l366 -201q38 -22 83 -22h41q25 0 35.5 10.5t10.5 35.5v215h58v-217q0 -50 -20.5 -70.5t-70.5 -20.5h-60q-44 0 -65 7q-26 7 -68 31l-366 202q-39 21 -83 21h-41q-25 0 -35.5 -10.5t-10.5 -35.5v-215h-58v217q0 50 20.5 70.5t70.5 20.5h60q42 0 66 -6
q29 -10 67 -32zM361 296l366 -201q38 -22 83 -22h41q25 0 35.5 10.5t10.5 35.5v215h58v-217q0 -50 -20.5 -70.5t-70.5 -20.5h-60q-44 0 -65 7q-26 7 -68 31l-366 202q-39 21 -83 21h-41q-25 0 -35.5 -10.5t-10.5 -35.5v-215h-58v217q0 50 20.5 70.5t70.5 20.5h60q42 0 66 -6
q29 -10 67 -32z" />
    <glyph glyph-name="notequal" unicode="&#x2260;" 
d="M955 498v-53h-346l-127 -190h473v-53h-508l-98 -146h-59l98 146h-311v53h346l127 190h-473v53h508l98 146h59l-98 -146h311z" />
    <glyph glyph-name="lessequal" unicode="&#x2264;" 
d="M77 468l878 196v-57l-787 -164l787 -165v-56l-878 196v50zM955 36h-878v50h878v-50z" />
    <glyph glyph-name="greaterequal" unicode="&#x2265;" 
d="M77 607v57l878 -196v-50l-878 -196v56l787 165zM955 36h-878v50h878v-50z" />
    <glyph glyph-name="fi" unicode="&#xfb01;" horiz-adv-x="970" 
d="M236 461v109q0 67 32 98.5t98 31.5h363v-51h-345q-47 0 -66.5 -19.5t-19.5 -66.5v-102h431v-51h-431v-410h-62v410h-217v51h217zM828 630v70h63v-70h-63zM891 0h-63v522h63v-522z" />
    <glyph glyph-name="fl" unicode="&#xfb02;" horiz-adv-x="970" 
d="M236 461v109q0 67 32 98.5t98 31.5h363v-51h-345q-47 0 -66.5 -19.5t-19.5 -66.5v-102h431v-51h-431v-410h-62v410h-217v51h217zM828 0v700h63v-700h-63z" />
    <glyph glyph-name="null" horiz-adv-x="0" 
 />
    <glyph glyph-name="A.ss01" horiz-adv-x="1077" 
d="M241 700h595q90 0 132 -41.5t42 -132.5v-526h-64v267h-815v-267h-64v526q0 91 42 132.5t132 41.5zM131 519v-198h815v198q0 69 -28.5 98t-98.5 29h-561q-70 0 -98.5 -29t-28.5 -98z" />
    <glyph glyph-name="Aacute.ss01" horiz-adv-x="1077" 
d="M687 878h87l-193 -121h-71zM241 700h595q90 0 132 -41.5t42 -132.5v-526h-64v267h-815v-267h-64v526q0 91 42 132.5t132 41.5zM131 519v-198h815v198q0 69 -28.5 98t-98.5 29h-561q-70 0 -98.5 -29t-28.5 -98z" />
    <glyph glyph-name="Abreve.ss01" horiz-adv-x="1077" 
d="M682 757h-277q-72 0 -72 72v49h52v-45q0 -35 35 -35h246q35 0 35 35v45h52v-49q0 -72 -71 -72zM241 700h595q90 0 132 -41.5t42 -132.5v-526h-64v267h-815v-267h-64v526q0 91 42 132.5t132 41.5zM131 519v-198h815v198q0 69 -28.5 98t-98.5 29h-561q-70 0 -98.5 -29
t-28.5 -98z" />
    <glyph glyph-name="Acircumflex.ss01" horiz-adv-x="1077" 
d="M682 757l-139 87l-139 -87h-64l167 121h72l167 -121h-64zM241 700h595q90 0 132 -41.5t42 -132.5v-526h-64v267h-815v-267h-64v526q0 91 42 132.5t132 41.5zM131 519v-198h815v198q0 69 -28.5 98t-98.5 29h-561q-70 0 -98.5 -29t-28.5 -98z" />
    <glyph glyph-name="Adieresis.ss01" horiz-adv-x="1077" 
d="M393 842h57v-67h-57v67zM636 842h57v-67h-57v67zM241 700h595q90 0 132 -41.5t42 -132.5v-526h-64v267h-815v-267h-64v526q0 91 42 132.5t132 41.5zM131 519v-198h815v198q0 69 -28.5 98t-98.5 29h-561q-70 0 -98.5 -29t-28.5 -98z" />
    <glyph glyph-name="Agrave.ss01" horiz-adv-x="1077" 
d="M398 878l178 -121h-72l-192 121h86zM241 700h595q90 0 132 -41.5t42 -132.5v-526h-64v267h-815v-267h-64v526q0 91 42 132.5t132 41.5zM131 519v-198h815v198q0 69 -28.5 98t-98.5 29h-561q-70 0 -98.5 -29t-28.5 -98z" />
    <glyph glyph-name="Amacron.ss01" horiz-adv-x="1077" 
d="M319 841h448v-43h-448v43zM241 700h595q90 0 132 -41.5t42 -132.5v-526h-64v267h-815v-267h-64v526q0 91 42 132.5t132 41.5zM131 519v-198h815v198q0 69 -28.5 98t-98.5 29h-561q-70 0 -98.5 -29t-28.5 -98z" />
    <glyph glyph-name="Aogonek.ss01" horiz-adv-x="1077" 
d="M904 -117h155v-43h-168q-41 0 -59 18t-18 59v18q0 32 9 45t41 24l82 30v233h-815v-267h-64v526q0 91 42 132.5t132 41.5h595q90 0 132 -41.5t42 -132.5v-526h-46l-71 -25q-19 -6 -24 -12.5t-5 -23.5v-16q0 -23 9 -31.5t31 -8.5zM131 519v-198h815v198q0 69 -28.5 98
t-98.5 29h-561q-70 0 -98.5 -29t-28.5 -98z" />
    <glyph glyph-name="Aring.ss01" horiz-adv-x="1077" 
d="M666 747h-247q-53 0 -53 53v25q0 53 53 53h247q53 0 53 -53v-25q0 -53 -53 -53zM407 821v-17q0 -13 4 -17.5t17 -4.5h229q13 0 17.5 4.5t4.5 17.5v17q0 13 -4.5 18t-17.5 5h-229q-12 0 -16.5 -5t-4.5 -18zM241 700h595q90 0 132 -41.5t42 -132.5v-526h-64v267h-815v-267
h-64v526q0 91 42 132.5t132 41.5zM131 519v-198h815v198q0 69 -28.5 98t-98.5 29h-561q-70 0 -98.5 -29t-28.5 -98z" />
    <glyph glyph-name="Aringacute.ss01" horiz-adv-x="1077" 
d="M716 700h120q90 0 132 -41.5t42 -132.5v-526h-64v267h-815v-267h-64v526q0 91 42 132.5t132 41.5h128q-3 9 -3 22v25q0 53 53 53h116l90 78h79l-101 -78h63q53 0 53 -53v-25q0 -13 -3 -22zM407 743v-17q0 -13 4 -17.5t17 -4.5h229q13 0 17.5 4.5t4.5 17.5v17
q0 13 -4.5 18t-17.5 5h-229q-12 0 -16.5 -5t-4.5 -18zM131 519v-198h815v198q0 69 -28.5 98t-98.5 29h-561q-70 0 -98.5 -29t-28.5 -98z" />
    <glyph glyph-name="Atilde.ss01" horiz-adv-x="1077" 
d="M394 821v-64h-47v70q0 51 51 51h71q23 0 35.5 -4.5t29.5 -18.5l59 -49q13 -12 34 -12h45q11 0 15.5 4.5t4.5 15.5v64h47v-70q0 -51 -51 -51h-71q-23 0 -35.5 4.5t-29.5 18.5l-59 49q-14 12 -34 12h-45q-11 0 -15.5 -4.5t-4.5 -15.5zM241 700h595q90 0 132 -41.5
t42 -132.5v-526h-64v267h-815v-267h-64v526q0 91 42 132.5t132 41.5zM131 519v-198h815v198q0 69 -28.5 98t-98.5 29h-561q-70 0 -98.5 -29t-28.5 -98z" />
    <glyph glyph-name="I.ss01" horiz-adv-x="768" 
d="M730 700v-49h-314v-602h314v-49h-692v49h314v602h-314v49h692z" />
    <glyph glyph-name="Iacute.ss01" horiz-adv-x="768" 
d="M528 878h87l-193 -121h-71zM730 700v-49h-314v-602h314v-49h-692v49h314v602h-314v49h692z" />
    <glyph glyph-name="Icircumflex.ss01" horiz-adv-x="768" 
d="M523 757l-139 87l-139 -87h-64l167 121h72l167 -121h-64zM730 700v-49h-314v-602h314v-49h-692v49h314v602h-314v49h692z" />
    <glyph glyph-name="Idieresis.ss01" horiz-adv-x="768" 
d="M234 842h57v-67h-57v67zM477 842h57v-67h-57v67zM730 700v-49h-314v-602h314v-49h-692v49h314v602h-314v49h692z" />
    <glyph glyph-name="Idotaccent.ss01" horiz-adv-x="768" 
d="M353 842h63v-67h-63v67zM730 700v-49h-314v-602h314v-49h-692v49h314v602h-314v49h692z" />
    <glyph glyph-name="Igrave.ss01" horiz-adv-x="768" 
d="M239 878l178 -121h-72l-192 121h86zM730 700v-49h-314v-602h314v-49h-692v49h314v602h-314v49h692z" />
    <glyph glyph-name="Imacron.ss01" horiz-adv-x="768" 
d="M160 841h448v-43h-448v43zM730 700v-49h-314v-602h314v-49h-692v49h314v602h-314v49h692z" />
    <glyph glyph-name="Iogonek.ss01" horiz-adv-x="768" 
d="M730 700v-49h-314v-602h314v-49h-95l-71 -25q-19 -6 -24 -12.5t-5 -23.5v-16q0 -23 8.5 -31.5t31.5 -8.5h155v-43h-168q-40 0 -58.5 18t-18.5 59v18q0 30 6.5 42t32.5 23h-486v49h314v602h-314v49h692z" />
    <glyph glyph-name="Itilde.ss01" horiz-adv-x="768" 
d="M235 821v-64h-47v70q0 51 51 51h71q23 0 35.5 -4.5t29.5 -18.5l59 -49q14 -12 34 -12h45q11 0 15.5 4.5t4.5 15.5v64h47v-70q0 -51 -51 -51h-71q-23 0 -35.5 4.5t-29.5 18.5l-59 49q-13 12 -34 12h-45q-11 0 -15.5 -4.5t-4.5 -15.5zM730 700v-49h-314v-602h314v-49h-692
v49h314v602h-314v49h692z" />
    <glyph glyph-name="R.ss01" horiz-adv-x="1055" 
d="M988 570v-136q0 -92 -65 -118q65 -26 65 -118v-198h-64v204q0 47 -19.5 67t-67.5 20h-697v-291h-64v700h782q66 0 98 -31.5t32 -98.5zM924 428v134q0 47 -19.5 67t-67.5 20h-697v-308h697q48 0 67.5 20t19.5 67z" />
    <glyph glyph-name="Racute.ss01" horiz-adv-x="1055" 
d="M671 878h87l-193 -121h-71zM988 570v-136q0 -92 -65 -118q65 -26 65 -118v-198h-64v204q0 47 -19.5 67t-67.5 20h-697v-291h-64v700h782q66 0 98 -31.5t32 -98.5zM924 428v134q0 47 -19.5 67t-67.5 20h-697v-308h697q48 0 67.5 20t19.5 67z" />
    <glyph glyph-name="Rcaron.ss01" horiz-adv-x="1055" 
d="M730 878l-167 -121h-72l-167 121h64l139 -87l139 87h64zM988 570v-136q0 -92 -65 -118q65 -26 65 -118v-198h-64v204q0 47 -19.5 67t-67.5 20h-697v-291h-64v700h782q66 0 98 -31.5t32 -98.5zM924 428v134q0 47 -19.5 67t-67.5 20h-697v-308h697q48 0 67.5 20t19.5 67z
" />
    <glyph glyph-name="Rcommaaccent.ss01" horiz-adv-x="1055" 
d="M988 570v-136q0 -92 -65 -118q65 -26 65 -118v-198h-64v204q0 47 -19.5 67t-67.5 20h-697v-291h-64v700h782q66 0 98 -31.5t32 -98.5zM924 428v134q0 47 -19.5 67t-67.5 20h-697v-308h697q48 0 67.5 20t19.5 67zM520 -96h-32v66h78v-35q0 -25 -14 -48l-29 -56h-38z" />
    <glyph glyph-name="i.loclTRK" horiz-adv-x="222" 
d="M143 597h-63v67h63v-67zM143 0h-63v522h63v-522z" />
    <glyph glyph-name="uni0410.ss01" horiz-adv-x="1085" 
d="M241 700h604q90 0 132 -41.5t42 -132.5v-526h-64v267h-824v-267h-64v526q0 91 42 132.5t132 41.5zM131 519v-198h824v198q0 69 -29 98t-98 29h-570q-70 0 -98.5 -29t-28.5 -98z" />
    <glyph glyph-name="uni042F.ss01" horiz-adv-x="1055" 
d="M197 700h782v-700h-64v291h-697q-48 0 -67.5 -20t-19.5 -67v-204h-64v198q0 92 65 118q-65 26 -65 118v136q0 67 32 98.5t98 31.5zM131 562v-134q0 -47 19.5 -67t67.5 -20h697v308h-697q-48 0 -67.5 -20t-19.5 -67z" />
    <glyph glyph-name="uni044F.ss01" horiz-adv-x="929" 
d="M154 522h699v-522h-62v214h-609q-35 0 -49.5 -14.5t-14.5 -49.5v-150h-61v151q0 69 48 88q-48 18 -48 88v98q0 50 23.5 73.5t73.5 23.5zM119 410v-85q0 -35 15 -49.5t50 -14.5h607v213h-607q-35 0 -50 -14.5t-15 -49.5z" />
    <glyph glyph-name="zero.tf" 
d="M777 0h-522q-90 0 -132 42t-42 132v352q0 91 42 132.5t132 41.5h522q90 0 132 -41.5t42 -132.5v-352q0 -91 -42 -132.5t-132 -41.5zM271 54h490q70 0 98.5 28.5t28.5 98.5v338q0 70 -28.5 98.5t-98.5 28.5h-490q-70 0 -98.5 -28.5t-28.5 -98.5v-338q0 -70 28.5 -98.5
t98.5 -28.5z" />
    <glyph glyph-name="one.tf" 
d="M583 700v-648h392v-52h-918v52h462v593l-432 -28v53l467 30h29z" />
    <glyph glyph-name="two.tf" 
d="M941 53v-53h-860v198q0 66 31.5 98.5t98.5 38.5l591 55q47 5 66.5 26t19.5 68v78q0 47 -19.5 66.5t-66.5 19.5h-559q-47 0 -66.5 -19.5t-19.5 -66.5v-45h-62v53q0 67 32 98.5t98 31.5h596q66 0 98 -31.5t32 -98.5v-95q0 -66 -31.5 -98.5t-98.5 -38.5l-591 -55
q-48 -5 -67 -26t-19 -68v-136h797z" />
    <glyph glyph-name="three.tf" 
d="M882 370q71 -23 71 -120v-120q0 -67 -32 -98.5t-98 -31.5h-614q-66 0 -98 31.5t-32 98.5v78h62v-70q0 -47 19.5 -66.5t66.5 -19.5h577q47 0 66.5 19.5t19.5 66.5v119q0 47 -19.5 66.5t-66.5 19.5h-442v50h432q47 0 66.5 19.5t19.5 66.5v83q0 47 -19.5 66.5t-66.5 19.5
h-557q-47 0 -66.5 -19.5t-19.5 -66.5v-62h-62v70q0 67 32 98.5t98 31.5h594q66 0 98 -31.5t32 -98.5v-83q0 -90 -61 -117z" />
    <glyph glyph-name="four.tf" 
d="M752 239h243v-51h-243v-188h-63v188h-652v43l644 469h71v-461zM689 648l-561 -409h561v409z" />
    <glyph glyph-name="five.tf" 
d="M821 0h-736v53h717q47 0 66.5 19.5t19.5 66.5v132q0 47 -19.5 66.5t-66.5 19.5h-717v343h836v-53h-773v-237h673q66 0 98 -31.5t32 -98.5v-150q0 -67 -32 -98.5t-98 -31.5z" />
    <glyph glyph-name="six.tf" 
d="M244 413h577q66 0 98 -31.5t32 -98.5v-153q0 -67 -32 -98.5t-98 -31.5h-610q-66 0 -98 31.5t-32 98.5v396q0 91 42 132.5t132 41.5h666v-53h-650q-70 0 -98.5 -29t-28.5 -98v-142q32 35 100 35zM888 138v137q0 47 -19.5 66.5t-66.5 19.5h-572q-47 0 -66.5 -19.5
t-19.5 -66.5v-137q0 -47 19.5 -66.5t66.5 -19.5h572q47 0 66.5 19.5t19.5 66.5z" />
    <glyph glyph-name="seven.tf" 
d="M57 646v54h918v-46l-381 -273q-62 -45 -78 -85q-17 -42 -17 -128v-168h-64v175q0 93 21 143q20 48 84 93l334 235h-817z" />
    <glyph glyph-name="eight.tf" 
d="M882 370q71 -23 71 -120v-120q0 -67 -32 -98.5t-98 -31.5h-614q-66 0 -98 31.5t-32 98.5v120q0 97 71 120q-61 27 -61 117v83q0 67 32 98.5t98 31.5h594q66 0 98 -31.5t32 -98.5v-83q0 -90 -61 -117zM152 563v-84q0 -47 19.5 -66.5t66.5 -19.5h556q47 0 66.5 19.5
t19.5 66.5v84q0 47 -19.5 66.5t-66.5 19.5h-556q-47 0 -66.5 -19.5t-19.5 -66.5zM890 137v121q0 47 -19.5 66.5t-66.5 19.5h-576q-47 0 -66.5 -19.5t-19.5 -66.5v-121q0 -47 19.5 -66.5t66.5 -19.5h576q47 0 66.5 19.5t19.5 66.5z" />
    <glyph glyph-name="nine.tf" 
d="M211 700h610q66 0 98 -31.5t32 -98.5v-396q0 -91 -42 -132.5t-132 -41.5h-666v53h650q70 0 98.5 29t28.5 98v134q-32 -35 -100 -35h-577q-66 0 -98 31.5t-32 98.5v161q0 67 32 98.5t98 31.5zM230 331h572q47 0 66.5 19.5t19.5 66.5v145q0 47 -19.5 66.5t-66.5 19.5h-572
q-47 0 -66.5 -19.5t-19.5 -66.5v-145q0 -47 19.5 -66.5t66.5 -19.5z" />
    <glyph glyph-name="zero.subs" horiz-adv-x="658" 
d="M487 -100h-316q-56 0 -82.5 26t-26.5 82v204q0 56 26.5 82t82.5 26h316q56 0 82.5 -26t26.5 -82v-204q0 -56 -26.5 -82t-82.5 -26zM187 -52h284q37 0 52 15.5t15 52.5v189q0 36 -15 51.5t-52 15.5h-284q-37 0 -52 -15.5t-15 -51.5v-189q0 -37 15 -52.5t52 -15.5z" />
    <glyph glyph-name="one.subs" horiz-adv-x="622" 
d="M354 320v-373h225v-47h-535v47h252v323l-234 -16v48l264 18h28z" />
    <glyph glyph-name="two.subs" horiz-adv-x="658" 
d="M589 -53v-47h-527v123q0 42 20 62.5t63 23.5l347 30q26 2 36 13t10 36v42q0 25 -10.5 35.5t-35.5 10.5h-319q-25 0 -35.5 -10.5t-10.5 -35.5v-25h-57v33q0 82 83 82h361q42 0 62 -19.5t20 -62.5v-56q0 -42 -19.5 -62t-63.5 -24l-347 -30q-26 -1 -36 -12.5t-10 -36.5v-70
h469z" />
    <glyph glyph-name="three.subs" horiz-adv-x="658" 
d="M554 121q43 -15 43 -74v-65q0 -82 -82 -82h-372q-42 0 -62 19.5t-20 62.5v49h57v-40q0 -25 10 -35t35 -10h331q26 0 35.5 10t9.5 35v62q0 26 -10 36t-35 10h-266v41h260q25 0 35 10.5t10 36.5v42q0 25 -9.5 35t-35.5 10h-319q-25 0 -35 -10t-10 -35v-35h-57v44
q0 43 20 62.5t62 19.5h360q82 0 82 -82v-45q0 -56 -37 -72z" />
    <glyph glyph-name="four.subs" horiz-adv-x="676" 
d="M486 50h147v-44h-147v-106h-55v106h-387v37l379 277h63v-270zM431 274l-307 -224h307v224z" />
    <glyph glyph-name="five.subs" horiz-adv-x="640" 
d="M495 -100h-431v47h410q26 0 36 10.5t10 35.5v67q0 25 -10.5 35.5t-35.5 10.5h-410v214h495v-47h-437v-123h373q42 0 62 -19.5t20 -62.5v-86q0 -43 -20 -62.5t-62 -19.5z" />
    <glyph glyph-name="six.subs" horiz-adv-x="658" 
d="M180 151h334q82 0 82 -81v-88q0 -43 -20 -62.5t-62 -19.5h-369q-43 0 -63 19.5t-20 62.5v230q0 56 26.5 82t82.5 26h407v-47h-391q-37 0 -52 -15.5t-15 -52.5v-74q17 20 60 20zM538 -9v72q0 25 -10.5 35.5t-35.5 10.5h-326q-25 0 -35.5 -10.5t-10.5 -35.5v-72
q0 -25 10.5 -35.5t35.5 -10.5h326q25 0 35.5 10.5t10.5 35.5z" />
    <glyph glyph-name="seven.subs" horiz-adv-x="634" 
d="M44 320h547v-42h-1l-220 -162q-30 -21 -42 -47.5t-12 -69.5v-99h-58v104q0 54 13.5 85.5t49.5 57.5l175 124h-452v49z" />
    <glyph glyph-name="eight.subs" horiz-adv-x="658" 
d="M554 121q43 -15 43 -74v-65q0 -82 -82 -82h-372q-42 0 -62 19.5t-20 62.5v65q0 59 44 74q-38 17 -38 72v45q0 43 20 62.5t62 19.5h360q82 0 82 -82v-45q0 -56 -37 -72zM124 230v-45q0 -25 10.5 -35t35.5 -10h318q25 0 35 10t10 35v45q0 25 -10 35.5t-35 10.5h-318
q-25 0 -35.5 -10.5t-10.5 -35.5zM539 -10v64q0 25 -10 35.5t-35 10.5h-330q-25 0 -35.5 -10.5t-10.5 -35.5v-64q0 -25 10.5 -35.5t35.5 -10.5h330q25 0 35 10.5t10 35.5z" />
    <glyph glyph-name="nine.subs" horiz-adv-x="658" 
d="M145 320h369q42 0 62 -19.5t20 -62.5v-230q0 -56 -26.5 -82t-82.5 -26h-407v47h391q37 0 52 15t15 52v72q-16 -21 -60 -21h-333q-43 0 -63 19.5t-20 61.5v92q0 43 20 62.5t63 19.5zM166 108h326q26 0 36 10t10 36v74q0 26 -10 36t-36 10h-326q-26 0 -36 -10t-10 -36v-74
q0 -26 10 -36t36 -10z" />
    <glyph glyph-name="zero.dnom" horiz-adv-x="658" 
d="M487 0h-316q-56 0 -82.5 26t-26.5 82v204q0 56 26.5 82t82.5 26h316q56 0 82.5 -26t26.5 -82v-204q0 -56 -26.5 -82t-82.5 -26zM187 48h284q37 0 52 15.5t15 52.5v189q0 36 -15 51.5t-52 15.5h-284q-37 0 -52 -15.5t-15 -51.5v-189q0 -37 15 -52.5t52 -15.5z" />
    <glyph glyph-name="one.dnom" horiz-adv-x="622" 
d="M354 420v-373h225v-47h-535v47h252v323l-234 -16v48l264 18h28z" />
    <glyph glyph-name="two.dnom" horiz-adv-x="658" 
d="M589 48v-48h-527v123q0 42 20 62.5t63 23.5l347 30q26 2 36 13t10 36v42q0 25 -10.5 35.5t-35.5 10.5h-319q-25 0 -35.5 -10.5t-10.5 -35.5v-25h-57v33q0 82 83 82h361q42 0 62 -19.5t20 -62.5v-56q0 -42 -19.5 -62t-63.5 -24l-347 -30q-26 -1 -36 -12.5t-10 -36.5v-69
h469z" />
    <glyph glyph-name="three.dnom" horiz-adv-x="658" 
d="M554 221q43 -15 43 -74v-65q0 -82 -82 -82h-372q-42 0 -62 19.5t-20 62.5v49h57v-40q0 -25 10 -35t35 -10h331q26 0 35.5 10t9.5 35v62q0 26 -10 36t-35 10h-266v41h260q25 0 35 10.5t10 36.5v42q0 25 -9.5 35t-35.5 10h-319q-25 0 -35 -10t-10 -35v-35h-57v44
q0 43 20 62.5t62 19.5h360q82 0 82 -82v-45q0 -56 -37 -72z" />
    <glyph glyph-name="four.dnom" horiz-adv-x="676" 
d="M486 150h147v-44h-147v-106h-55v106h-387v37l379 277h63v-270zM431 374l-307 -224h307v224z" />
    <glyph glyph-name="five.dnom" horiz-adv-x="640" 
d="M495 0h-431v48h410q26 0 36 10t10 35v67q0 25 -10.5 35.5t-35.5 10.5h-410v214h495v-47h-437v-123h373q42 0 62 -19.5t20 -62.5v-86q0 -43 -20 -62.5t-62 -19.5z" />
    <glyph glyph-name="six.dnom" horiz-adv-x="658" 
d="M180 251h334q82 0 82 -81v-88q0 -43 -20 -62.5t-62 -19.5h-369q-43 0 -63 19.5t-20 62.5v230q0 56 26.5 82t82.5 26h407v-47h-391q-37 0 -52 -15.5t-15 -52.5v-74q17 20 60 20zM538 92v71q0 25 -10.5 35.5t-35.5 10.5h-326q-25 0 -35.5 -10.5t-10.5 -35.5v-71
q0 -26 10 -36t36 -10h326q26 0 36 10t10 36z" />
    <glyph glyph-name="seven.dnom" horiz-adv-x="634" 
d="M44 420h547v-42h-1l-220 -162q-30 -21 -42 -47t-12 -69v-100h-58v104q0 54 13.5 85.5t49.5 57.5l175 124h-452v49z" />
    <glyph glyph-name="eight.dnom" horiz-adv-x="658" 
d="M554 221q43 -15 43 -74v-65q0 -82 -82 -82h-372q-42 0 -62 19.5t-20 62.5v65q0 59 44 74q-38 17 -38 72v45q0 43 20 62.5t62 19.5h360q82 0 82 -82v-45q0 -56 -37 -72zM124 330v-45q0 -25 10.5 -35t35.5 -10h318q25 0 35 10t10 35v45q0 25 -10 35.5t-35 10.5h-318
q-25 0 -35.5 -10.5t-10.5 -35.5zM539 91v63q0 25 -10 35.5t-35 10.5h-330q-25 0 -35.5 -10.5t-10.5 -35.5v-63q0 -25 10.5 -35.5t35.5 -10.5h330q25 0 35 10.5t10 35.5z" />
    <glyph glyph-name="nine.dnom" horiz-adv-x="658" 
d="M145 420h369q42 0 62 -19.5t20 -62.5v-230q0 -56 -26.5 -82t-82.5 -26h-407v47h391q37 0 52 15.5t15 51.5v72q-16 -21 -60 -21h-333q-43 0 -63 19.5t-20 61.5v92q0 43 20 62.5t63 19.5zM166 208h326q26 0 36 10t10 36v74q0 26 -10 36t-36 10h-326q-26 0 -36 -10t-10 -36
v-74q0 -26 10 -36t36 -10z" />
    <glyph glyph-name="zero.numr" horiz-adv-x="658" 
d="M487 280h-316q-56 0 -82.5 26t-26.5 82v204q0 56 26.5 82t82.5 26h316q56 0 82.5 -26t26.5 -82v-204q0 -56 -26.5 -82t-82.5 -26zM187 328h284q37 0 52 15.5t15 52.5v189q0 36 -15 51.5t-52 15.5h-284q-37 0 -52 -15.5t-15 -51.5v-189q0 -37 15 -52.5t52 -15.5z" />
    <glyph glyph-name="one.numr" horiz-adv-x="622" 
d="M354 700v-373h225v-47h-535v47h252v323l-234 -16v48l264 18h28z" />
    <glyph glyph-name="two.numr" horiz-adv-x="658" 
d="M589 328v-48h-527v123q0 42 20 62.5t63 23.5l347 30q26 2 36 13t10 36v42q0 25 -10.5 35.5t-35.5 10.5h-319q-25 0 -35.5 -10.5t-10.5 -35.5v-25h-57v33q0 82 83 82h361q42 0 62 -19.5t20 -62.5v-56q0 -42 -19.5 -62t-63.5 -24l-347 -30q-26 -1 -36 -12.5t-10 -36.5v-69
h469z" />
    <glyph glyph-name="three.numr" horiz-adv-x="658" 
d="M554 501q43 -15 43 -74v-65q0 -82 -82 -82h-372q-42 0 -62 19.5t-20 62.5v49h57v-40q0 -25 10 -35t35 -10h331q26 0 35.5 10t9.5 35v62q0 26 -10 36t-35 10h-266v41h260q25 0 35 10.5t10 36.5v42q0 25 -9.5 35t-35.5 10h-319q-25 0 -35 -10t-10 -35v-35h-57v44
q0 43 20 62.5t62 19.5h360q82 0 82 -82v-45q0 -56 -37 -72z" />
    <glyph glyph-name="four.numr" horiz-adv-x="676" 
d="M486 430h147v-44h-147v-106h-55v106h-387v37l379 277h63v-270zM431 654l-307 -224h307v224z" />
    <glyph glyph-name="five.numr" horiz-adv-x="640" 
d="M495 280h-431v48h410q26 0 36 10t10 35v67q0 25 -10.5 35.5t-35.5 10.5h-410v214h495v-47h-437v-123h373q42 0 62 -19.5t20 -62.5v-86q0 -43 -20 -62.5t-62 -19.5z" />
    <glyph glyph-name="six.numr" horiz-adv-x="658" 
d="M180 531h334q82 0 82 -81v-88q0 -43 -20 -62.5t-62 -19.5h-369q-43 0 -63 19.5t-20 62.5v230q0 56 26.5 82t82.5 26h407v-47h-391q-37 0 -52 -15.5t-15 -52.5v-74q17 20 60 20zM538 372v71q0 25 -10.5 35.5t-35.5 10.5h-326q-25 0 -35.5 -10.5t-10.5 -35.5v-71
q0 -26 10 -36t36 -10h326q26 0 36 10t10 36z" />
    <glyph glyph-name="seven.numr" horiz-adv-x="634" 
d="M44 700h547v-42h-1l-220 -162q-30 -21 -42 -47t-12 -69v-100h-58v104q0 54 13.5 85.5t49.5 57.5l175 124h-452v49z" />
    <glyph glyph-name="eight.numr" horiz-adv-x="658" 
d="M554 501q43 -15 43 -74v-65q0 -82 -82 -82h-372q-42 0 -62 19.5t-20 62.5v65q0 59 44 74q-38 17 -38 72v45q0 43 20 62.5t62 19.5h360q82 0 82 -82v-45q0 -56 -37 -72zM124 610v-45q0 -25 10.5 -35t35.5 -10h318q25 0 35 10t10 35v45q0 25 -10 35.5t-35 10.5h-318
q-25 0 -35.5 -10.5t-10.5 -35.5zM539 371v63q0 25 -10 35.5t-35 10.5h-330q-25 0 -35.5 -10.5t-10.5 -35.5v-63q0 -25 10.5 -35.5t35.5 -10.5h330q25 0 35 10.5t10 35.5z" />
    <glyph glyph-name="nine.numr" horiz-adv-x="658" 
d="M145 700h369q42 0 62 -19.5t20 -62.5v-230q0 -56 -26.5 -82t-82.5 -26h-407v47h391q37 0 52 15.5t15 51.5v72q-16 -21 -60 -21h-333q-43 0 -63 19.5t-20 61.5v92q0 43 20 62.5t63 19.5zM166 488h326q26 0 36 10t10 36v74q0 26 -10 36t-36 10h-326q-26 0 -36 -10t-10 -36
v-74q0 -26 10 -36t36 -10z" />
    <glyph glyph-name="zero.sups" horiz-adv-x="658" 
d="M487 380h-316q-56 0 -82.5 26t-26.5 82v204q0 56 26.5 82t82.5 26h316q56 0 82.5 -26t26.5 -82v-204q0 -56 -26.5 -82t-82.5 -26zM187 428h284q37 0 52 15.5t15 52.5v189q0 36 -15 51.5t-52 15.5h-284q-37 0 -52 -15.5t-15 -51.5v-189q0 -37 15 -52.5t52 -15.5z" />
    <glyph glyph-name="one.sups" horiz-adv-x="622" 
d="M354 800v-373h225v-47h-535v47h252v323l-234 -16v48l264 18h28z" />
    <glyph glyph-name="two.sups" horiz-adv-x="658" 
d="M589 428v-48h-527v123q0 42 20 62.5t63 23.5l347 30q26 2 36 13t10 36v42q0 25 -10.5 35.5t-35.5 10.5h-319q-25 0 -35.5 -10.5t-10.5 -35.5v-25h-57v33q0 82 83 82h361q42 0 62 -19.5t20 -62.5v-56q0 -42 -19.5 -62t-63.5 -24l-347 -30q-26 -1 -36 -12.5t-10 -36.5v-69
h469z" />
    <glyph glyph-name="three.sups" horiz-adv-x="658" 
d="M554 601q43 -15 43 -74v-65q0 -82 -82 -82h-372q-42 0 -62 19.5t-20 62.5v49h57v-40q0 -25 10 -35t35 -10h331q26 0 35.5 10t9.5 35v62q0 26 -10 36t-35 10h-266v41h260q25 0 35 10.5t10 36.5v42q0 25 -9.5 35t-35.5 10h-319q-25 0 -35 -10t-10 -35v-35h-57v44
q0 43 20 62.5t62 19.5h360q82 0 82 -82v-45q0 -56 -37 -72z" />
    <glyph glyph-name="four.sups" horiz-adv-x="676" 
d="M486 530h147v-44h-147v-106h-55v106h-387v37l379 277h63v-270zM431 754l-307 -224h307v224z" />
    <glyph glyph-name="five.sups" horiz-adv-x="640" 
d="M495 380h-431v48h410q26 0 36 10t10 35v67q0 25 -10.5 35.5t-35.5 10.5h-410v214h495v-47h-437v-123h373q42 0 62 -19.5t20 -62.5v-86q0 -43 -20 -62.5t-62 -19.5z" />
    <glyph glyph-name="six.sups" horiz-adv-x="658" 
d="M180 631h334q82 0 82 -81v-88q0 -43 -20 -62.5t-62 -19.5h-369q-43 0 -63 19.5t-20 62.5v230q0 56 26.5 82t82.5 26h407v-47h-391q-37 0 -52 -15.5t-15 -52.5v-74q17 20 60 20zM538 472v71q0 25 -10.5 35.5t-35.5 10.5h-326q-25 0 -35.5 -10.5t-10.5 -35.5v-71
q0 -26 10 -36t36 -10h326q26 0 36 10t10 36z" />
    <glyph glyph-name="seven.sups" horiz-adv-x="634" 
d="M44 800h547v-42h-1l-220 -162q-30 -21 -42 -47t-12 -69v-100h-58v104q0 54 13.5 85.5t49.5 57.5l175 124h-452v49z" />
    <glyph glyph-name="eight.sups" horiz-adv-x="658" 
d="M554 601q43 -15 43 -74v-65q0 -82 -82 -82h-372q-42 0 -62 19.5t-20 62.5v65q0 59 44 74q-38 17 -38 72v45q0 43 20 62.5t62 19.5h360q82 0 82 -82v-45q0 -56 -37 -72zM124 710v-45q0 -25 10.5 -35t35.5 -10h318q25 0 35 10t10 35v45q0 25 -10 35.5t-35 10.5h-318
q-25 0 -35.5 -10.5t-10.5 -35.5zM539 471v63q0 25 -10 35.5t-35 10.5h-330q-25 0 -35.5 -10.5t-10.5 -35.5v-63q0 -25 10.5 -35.5t35.5 -10.5h330q25 0 35 10.5t10 35.5z" />
    <glyph glyph-name="nine.sups" horiz-adv-x="658" 
d="M145 800h369q42 0 62 -19.5t20 -62.5v-230q0 -56 -26.5 -82t-82.5 -26h-407v47h391q37 0 52 15.5t15 51.5v72q-16 -21 -60 -21h-333q-43 0 -63 19.5t-20 61.5v92q0 43 20 62.5t63 19.5zM166 588h326q26 0 36 10t10 36v74q0 26 -10 36t-36 10h-326q-26 0 -36 -10t-10 -36
v-74q0 -26 10 -36t36 -10z" />
    <glyph glyph-name="numbersign.numr" horiz-adv-x="660" 
d="M609 584v-37h-140l-18 -113h133v-38h-139l-18 -116h-47l18 116h-166l-18 -116h-47l18 116h-134v38h140l18 113h-134v37h140l18 116h47l-18 -116h166l18 116h47l-18 -116h134zM238 434h166l18 113h-166z" />
    <glyph glyph-name="numbersign.tf" 
d="M965 498v-47h-219l-32 -201h211v-47h-218l-32 -203h-57l32 203h-314l-32 -203h-57l32 203h-212v47h219l32 201h-211v47h218l32 202h57l-32 -202h314l32 202h57l-32 -202h212zM343 250h314l32 201h-314z" />
    <glyph glyph-name="cent.numr" horiz-adv-x="658" 
d="M596 604v-34h-56v27q0 33 -12 45t-46 12h-305q-33 0 -45 -12t-12 -45v-146q0 -33 12 -45t45 -12h305q34 0 46 12t12 45v32h56v-39q0 -51 -23 -73.5t-74 -22.5h-147v-60h-43v60h-150q-51 0 -74 22.5t-23 73.5v160q0 51 23 73.5t74 22.5h150v60h43v-60h147q51 0 74 -22.5
t23 -73.5z" />
    <glyph glyph-name="dollar.numr" horiz-adv-x="658" 
d="M169 531l347 -20q43 -2 62.5 -21t19.5 -60v-68q0 -82 -81 -82h-166v-60h-43v60h-166q-42 0 -62 19.5t-20 62.5v36h57v-28q0 -26 10 -36t35 -10h333q25 0 35.5 10t10.5 36v50q0 24 -9.5 33.5t-36.5 11.5l-347 20q-43 2 -62.5 21t-19.5 61v51q0 43 20 62.5t62 19.5h160v60
h43v-60h157q82 0 82 -82v-27h-56v19q0 25 -10.5 36t-35.5 11h-318q-26 0 -36.5 -10.5t-10.5 -36.5v-33q0 -24 10.5 -34t35.5 -12z" />
    <glyph glyph-name="Euro.numr" horiz-adv-x="684" 
d="M622 592v-42h-57v37q0 37 -15 52.5t-52 15.5h-279q-37 0 -52 -15.5t-15 -52.5v-37h323v-31h-323v-58h323v-30h-323v-38q0 -37 15 -52.5t52 -15.5h279q37 0 52 15.5t15 52.5v42h57v-47q0 -56 -26.5 -82t-82.5 -26h-310q-56 0 -82.5 26t-26.5 82v43h-71v30h71v58h-71v31h71
v42q0 56 26.5 82t82.5 26h310q56 0 82.5 -26t26.5 -82z" />
    <glyph glyph-name="florin.numr" horiz-adv-x="610" 
d="M561 652h-139q-36 0 -52 -15t-20 -52l-12 -111h211v-39h-215l-16 -143q-6 -57 -32.5 -82.5t-80.5 -25.5h-155v48h139q36 0 51.5 15.5t19.5 53.5l15 134h-213v39h218l13 118q6 58 31.5 83t79.5 25h157v-48z" />
    <glyph glyph-name="sterling.numr" horiz-adv-x="680" 
d="M618 592v-34h-56v29q0 37 -15 52.5t-53 15.5h-274q-36 0 -51 -15.5t-15 -52.5v-76h317v-36h-317v-148h362q26 0 36 10.5t10 35.5v42h56v-53q0 -43 -20 -62.5t-62 -19.5h-507v47h68v148h-74v36h74v81q0 56 26 82t82 26h305q56 0 82 -26t26 -82z" />
    <glyph glyph-name="yen.numr" horiz-adv-x="658" 
d="M602 430h-245v-60h246v-32h-246v-58h-57v58h-244v32h244v60h-244v32h218l-236 238h78l215 -222l213 222h77l-238 -238h219v-32z" />
    <glyph glyph-name="cent.tf" 
d="M951 546v-50h-62v44q0 62 -23 85t-85 23h-529q-62 0 -85 -23t-23 -85v-250q0 -62 23 -85t85 -23h529q62 0 85 23t23 85v54h62v-60q0 -83 -35.5 -118.5t-118.5 -35.5h-252v-100h-54v100h-256q-82 0 -118 35.5t-36 118.5v262q0 83 36 118.5t118 35.5h256v100h54v-100h252
q83 0 118.5 -35t35.5 -119z" />
    <glyph glyph-name="dollar.tf" 
d="M236 410l589 -35q68 -4 99 -34.5t31 -95.5v-115q0 -67 -32 -98.5t-98 -31.5h-282v-100h-54v100h-282q-66 0 -98 31.5t-32 98.5v59h62v-51q0 -47 19.5 -66.5t66.5 -19.5h581q47 0 66.5 19.5t19.5 66.5v97q0 47 -19 65.5t-67 20.5l-589 35q-68 4 -99 34.5t-31 95.5v84
q0 67 32 98.5t98 31.5h272v100h54v-100h268q66 0 98 -31.5t32 -98.5v-42h-62v34q0 47 -19.5 66.5t-66.5 19.5h-557q-47 0 -66.5 -19.5t-19.5 -66.5v-66q0 -46 19 -64.5t67 -21.5z" />
    <glyph glyph-name="Euro.tf" 
d="M951 526v-64h-62v59q0 70 -28.5 98.5t-98.5 28.5h-471q-70 0 -98.5 -28.5t-28.5 -98.5v-74h560v-42h-560v-110h560v-42h-560v-74q0 -70 28.5 -98.5t98.5 -28.5h471q70 0 98.5 28.5t28.5 98.5v68h62v-73q0 -91 -42 -132.5t-132 -41.5h-502q-90 0 -132 42t-42 132v79h-92
v42h92v110h-92v42h92v79q0 91 42 132.5t132 41.5h502q90 0 132 -41.5t42 -132.5z" />
    <glyph glyph-name="florin.tf" 
d="M955 646h-245q-68 0 -97 -27.5t-37 -99.5l-23 -205h382v-48h-388l-28 -252q-10 -94 -51 -134t-130 -40h-261v54h245q68 0 97 27.5t37 99.5l28 245h-387v48h392l24 212q10 93 51.5 133.5t129.5 40.5h261v-54z" />
    <glyph glyph-name="sterling.tf" 
d="M951 526v-53h-62v48q0 70 -28.5 98.5t-98.5 28.5h-462q-69 0 -97.5 -28.5t-28.5 -98.5v-144h550v-46h-550v-278h629q47 0 66.5 19.5t19.5 66.5v72h62v-81q0 -67 -32 -98.5t-98 -31.5h-802v53h92v278h-102v46h102v149q0 91 42 132.5t132 41.5h492q90 0 132 -41.5
t42 -132.5z" />
    <glyph glyph-name="yen.tf" 
d="M912 700h83l-412 -404h382v-43h-417v-111h417v-43h-417v-99h-63v99h-418v43h418v111h-418v43h382l-412 404h86l395 -393z" />
    <glyph glyph-name="percent.numr" horiz-adv-x="724" 
d="M274 506h-166q-62 0 -62 63v69q0 62 62 62h166q62 0 62 -62v-69q0 -63 -62 -63zM145 280h-51l484 420h52zM118 545h147q29 0 29 30v57q0 16 -6.5 22.5t-22.5 6.5h-147q-16 0 -22.5 -6.5t-6.5 -22.5v-57q0 -17 6.5 -23.5t22.5 -6.5zM616 280h-167q-62 0 -62 63v69
q0 62 62 62h167q62 0 62 -62v-69q0 -63 -62 -63zM459 319h147q16 0 22.5 6.5t6.5 23.5v57q0 16 -6.5 22.5t-22.5 6.5h-147q-17 0 -23 -6.5t-6 -22.5v-57q0 -17 6.5 -23.5t22.5 -6.5z" />
    <glyph glyph-name="perthousand.numr" horiz-adv-x="1049" 
d="M274 506h-166q-62 0 -62 63v69q0 62 62 62h166q62 0 62 -62v-69q0 -63 -62 -63zM145 280h-51l484 420h52zM118 545h147q29 0 29 30v57q0 16 -6.5 22.5t-22.5 6.5h-147q-16 0 -22.5 -6.5t-6.5 -22.5v-57q0 -17 6.5 -23.5t22.5 -6.5zM616 280h-167q-62 0 -62 63v69
q0 62 62 62h167q62 0 62 -62v-69q0 -63 -62 -63zM941 280h-166q-63 0 -63 63v69q0 62 63 62h166q62 0 62 -62v-69q0 -63 -62 -63zM459 319h147q16 0 22.5 6.5t6.5 23.5v57q0 16 -6.5 22.5t-22.5 6.5h-147q-17 0 -23 -6.5t-6 -22.5v-57q0 -17 6.5 -23.5t22.5 -6.5zM785 319
h146q16 0 22.5 6.5t6.5 23.5v57q0 16 -6 22.5t-23 6.5h-146q-17 0 -23.5 -6.5t-6.5 -22.5v-57q0 -17 6.5 -23.5t23.5 -6.5z" />
    <glyph glyph-name="percent.tf" horiz-adv-x="1140" 
d="M406 379h-254q-104 0 -104 104v113q0 54 25.5 79t78.5 25h254q53 0 78.5 -25t25.5 -79v-113q0 -104 -104 -104zM203 0h-69l803 700h69zM162 423h234q35 0 50.5 15.5t15.5 50.5v101q0 36 -15 51t-51 15h-234q-36 0 -51 -15t-15 -51v-101q0 -35 15.5 -50.5t50.5 -15.5z
M988 0h-254q-104 0 -104 104v113q0 54 25.5 79t78.5 25h254q53 0 78.5 -25t25.5 -79v-113q0 -104 -104 -104zM744 44h234q35 0 50.5 15.5t15.5 50.5v101q0 36 -15 51t-51 15h-234q-36 0 -51 -15t-15 -51v-101q0 -35 15.5 -50.5t50.5 -15.5z" />
    <glyph glyph-name="perthousand.tf" horiz-adv-x="1660" 
d="M406 379h-254q-104 0 -104 104v113q0 54 25.5 79t78.5 25h254q53 0 78.5 -25t25.5 -79v-113q0 -104 -104 -104zM203 0h-69l803 700h69zM162 423h234q35 0 50.5 15.5t15.5 50.5v101q0 36 -15 51t-51 15h-234q-36 0 -51 -15t-15 -51v-101q0 -35 15.5 -50.5t50.5 -15.5z
M988 0h-254q-104 0 -104 104v113q0 54 25.5 79t78.5 25h254q53 0 78.5 -25t25.5 -79v-113q0 -104 -104 -104zM1508 0h-254q-104 0 -104 104v113q0 54 25.5 79t78.5 25h254q53 0 78.5 -25t25.5 -79v-113q0 -104 -104 -104zM744 44h234q35 0 50.5 15.5t15.5 50.5v101
q0 36 -15 51t-51 15h-234q-36 0 -51 -15t-15 -51v-101q0 -35 15.5 -50.5t50.5 -15.5zM1264 44h234q35 0 50.5 15.5t15.5 50.5v101q0 36 -15 51t-51 15h-234q-36 0 -51 -15t-15 -51v-101q0 -35 15.5 -50.5t50.5 -15.5z" />
    <glyph glyph-name="brevecombcy" horiz-adv-x="0" 
d="M-147 579h-277q-72 0 -72 72v49h52v-45q0 -35 35 -35h246q35 0 35 35v45h52v-49q0 -72 -71 -72z" />
    <glyph glyph-name="ringacutecomb" horiz-adv-x="469" 
d="M295 622h63q53 0 53 -53v-25q0 -53 -53 -53h-247q-53 0 -53 53v25q0 53 53 53h116l90 78h79zM371 548v17q0 13 -4.5 18t-17.5 5h-229q-12 0 -16.5 -5t-4.5 -18v-17q0 -13 4 -17.5t17 -4.5h229q13 0 17.5 4.5t4.5 17.5z" />
    </font>
</defs>
</svg>
