<?xml version="1.0" standalone="no"?>
<!DOCTYPE svg PUBLIC "-//W3C//DTD SVG 1.1//EN" "http://www.w3.org/Graphics/SVG/1.1/DTD/svg11.dtd" >
<svg xmlns="http://www.w3.org/2000/svg" xmlns:xlink="http://www.w3.org/1999/xlink" version="1.1">
<metadata>
Created by FontForge 20170731 at Thu Jun 30 17:45:13 2016
 By Aleksey,,,
(c)2016 Richard Miller
</metadata>
<defs>
<font id="TacticSansExd-Bld" horiz-adv-x="864" >
  <font-face 
    font-family="TacticSansExd-Bld"
    font-weight="400"
    font-stretch="expanded"
    units-per-em="1000"
    panose-1="0 0 8 5 0 0 0 0 0 0"
    ascent="814"
    descent="-186"
    x-height="532"
    cap-height="700"
    bbox="-904 -214 1475 868"
    underline-thickness="50"
    underline-position="-200"
    unicode-range="U+0020-FB02"
  />
<missing-glyph horiz-adv-x="720" 
d="M10 0v700h700v-700h-700zM259 350l-169 -169l107 -107l169 169l169 -169l107 107l-169 169l169 169l-107 107l-169 -169l-169 169l-107 -107z" />
    <glyph glyph-name="ellipsis" unicode="&#x2e;&#x2e;&#x2e;" horiz-adv-x="1036" 
d="M252 0h-196v184h196v-184zM616 0h-196v184h196v-184zM980 0h-196v184h196v-184z" />
    <glyph glyph-name="blackbox.liga" unicode="[&#x2b;]" horiz-adv-x="940" 
d="M120 0v700h700v-700h-700z" />
    <glyph glyph-name="checkbox.liga" unicode="[]" horiz-adv-x="940" 
d="M120 0v700h700v-700h-700zM736 619h-532v-538h532v538z" />
    <glyph glyph-name="checkround.liga" unicode="&#x28;&#x29;" horiz-adv-x="940" 
d="M726 95q-105 -105 -256 -105q-152 0 -255 105q-105 103 -105 255q0 151 105 256q104 104 255 104q150 0 256 -104q104 -106 104 -256q0 -151 -104 -255zM274 152q80 -81 196 -81t196 81q80 82 80 198t-80 198q-80 81 -196 81t-196 -81q-80 -82 -80 -198t80 -198z" />
    <glyph glyph-name="checkstar.liga" unicode="&#x7b;&#x7d;" horiz-adv-x="940" 
d="M378 437l92 283l92 -283h297l-240 -174l91 -283l-240 175l-240 -175l91 283l-240 174h297zM516 373l-46 141l-46 -141h-147l119 -86l-45 -140l119 86l119 -86l-46 140l120 86h-147z" />
    <glyph glyph-name="blackround.liga" unicode="&#x28;&#x2b;&#x29;" horiz-adv-x="940" 
d="M726 95q-105 -105 -256 -105q-152 0 -255 105q-105 103 -105 255q0 151 105 256q104 104 255 104q150 0 256 -104q104 -106 104 -256q0 -151 -104 -255z" />
    <glyph glyph-name="filledstar.liga" unicode="&#x7b;&#x2b;&#x7d;" horiz-adv-x="940" 
d="M378 437l92 283l92 -283h297l-240 -174l91 -283l-240 175l-240 -175l91 283l-240 174h297z" />
    <glyph glyph-name="ff.liga" unicode="ff" horiz-adv-x="1084" 
d="M1070 580h-210q-31 0 -43.5 -12.5t-12.5 -43.5v-57h266v-127h-266v-340h-166v340h-316v-340h-166v340h-142v127h142v83q0 78 36.5 114t113.5 36h246v-120h-174q-31 0 -43.5 -12.5t-12.5 -43.5v-57h316v83q0 78 36.5 114t113.5 36h282v-120z" />
    <glyph glyph-name=".notdef" horiz-adv-x="720" 
d="M10 0v700h700v-700h-700zM259 350l-169 -169l107 -107l169 169l169 -169l107 107l-169 169l169 169l-107 107l-169 -169l-169 169l-107 -107z" />
    <glyph glyph-name=".null" horiz-adv-x="0" 
 />
    <glyph glyph-name="nonmarkingreturn" horiz-adv-x="333" 
 />
    <glyph glyph-name="space" unicode=" " horiz-adv-x="300" 
 />
    <glyph glyph-name="exclam" unicode="!" horiz-adv-x="308" 
d="M92 226l-34 474h192l-34 -474h-124zM252 0h-196v162h196v-162z" />
    <glyph glyph-name="quotedbl" unicode="&#x22;" horiz-adv-x="476" 
d="M56 372v328h140v-328h-140zM280 372v328h140v-328h-140z" />
    <glyph glyph-name="numbersign" unicode="#" 
d="M818 480v-102h-152l-24 -136h134v-102h-152l-25 -140h-127l25 140h-190l-25 -140h-127l25 140h-134v102h152l24 136h-134v102h152l25 140h127l-25 -140h190l25 140h127l-25 -140h134zM325 242h190l24 136h-190z" />
    <glyph glyph-name="dollar" unicode="$" 
d="M289 440l373 -28q80 -6 115 -40t35 -110v-112q0 -78 -36.5 -114t-113.5 -36h-175v-100h-111v100h-174q-77 0 -113.5 36t-36.5 114v65h165v-27q0 -31 12.5 -43.5t43.5 -12.5h312q31 0 43.5 12.5t12.5 43.5v34q0 31 -12 42.5t-44 13.5l-373 28q-80 7 -115 41t-35 109v94
q0 78 36.5 114t113.5 36h164v100h111v-100h161q77 0 113.5 -36t36.5 -114v-53h-165v15q0 31 -12.5 43.5t-43.5 12.5h-288q-31 0 -43.5 -12.5t-12.5 -43.5v-16q0 -31 12 -42.5t44 -13.5z" />
    <glyph glyph-name="percent" unicode="%" horiz-adv-x="972" 
d="M317 304h-174q-105 0 -105 105v106q0 105 105 105h174q105 0 105 -105v-106q0 -105 -105 -105zM226 0h-100l620 620h100zM173 386h114q23 0 32.5 9.5t9.5 32.5v68q0 24 -9.5 33t-32.5 9h-114q-23 0 -32.5 -9t-9.5 -33v-68q0 -22 9.5 -32t32.5 -10zM829 0h-174
q-105 0 -105 105v106q0 105 105 105h174q105 0 105 -105v-106q0 -105 -105 -105zM685 82h114q23 0 32.5 9.5t9.5 32.5v68q0 24 -9.5 33t-32.5 9h-114q-23 0 -32.5 -9t-9.5 -33v-68q0 -22 9.5 -32t32.5 -10z" />
    <glyph glyph-name="ampersand" unicode="&#x26;" horiz-adv-x="955" 
d="M303 417h638v-113h-108v-154q0 -78 -36.5 -114t-113.5 -36h-487q-77 0 -113.5 36t-36.5 114v81q0 116 93 134q-63 29 -63 125v60q0 78 36.5 114t113.5 36h427q77 0 113.5 -36t36.5 -114v-52h-165v22q0 32 -12 44t-44 12h-279q-31 0 -43.5 -12t-12.5 -44v-47
q0 -31 12.5 -43.5t43.5 -12.5zM668 180v124h-395q-31 0 -43.5 -12t-12.5 -44v-68q0 -32 12.5 -44t43.5 -12h339q32 0 44 12t12 44z" />
    <glyph glyph-name="quotesingle" unicode="'" horiz-adv-x="252" 
d="M56 372v328h140v-328h-140z" />
    <glyph glyph-name="parenleft" unicode="(" horiz-adv-x="504" 
d="M476 -100h-180q-240 0 -240 240v420q0 240 240 240h180v-128h-157q-115 0 -115 -115v-414q0 -115 115 -115h157v-128z" />
    <glyph glyph-name="parenright" unicode=")" horiz-adv-x="504" 
d="M28 800h180q240 0 240 -240v-420q0 -240 -240 -240h-180v128h157q115 0 115 115v414q0 115 -115 115h-157v128z" />
    <glyph glyph-name="asterisk" unicode="*" horiz-adv-x="468" 
d="M398 618l31 -95l-130 -32l86 -102l-81 -58l-70 113l-70 -113l-81 58l86 102l-129 32l31 95l123 -50l-10 132h100l-9 -132z" />
    <glyph glyph-name="plus" unicode="+" 
d="M507 420h295v-140h-295v-236h-150v236h-295v140h295v236h150v-236z" />
    <glyph glyph-name="comma" unicode="," horiz-adv-x="308" 
d="M167 -160h-105l58 160h-64v184h196v-82q0 -68 -27 -123z" />
    <glyph glyph-name="hyphen" unicode="-" horiz-adv-x="516" 
d="M42 280v140h432v-140h-432z" />
    <glyph glyph-name="period" unicode="." horiz-adv-x="308" 
d="M252 0h-196v184h196v-184z" />
    <glyph glyph-name="slash" unicode="/" horiz-adv-x="531" 
d="M4 -100l412 900h111l-412 -900h-111z" />
    <glyph glyph-name="zero" unicode="0" 
d="M614 0h-364q-99 0 -146.5 47t-47.5 147v312q0 100 47.5 147t146.5 47h364q99 0 146.5 -47t47.5 -147v-312q0 -100 -47.5 -147t-146.5 -47zM308 142h248q46 0 64 18t18 64v252q0 46 -18 64t-64 18h-248q-46 0 -64 -18t-18 -64v-252q0 -46 18 -64t64 -18z" />
    <glyph glyph-name="one" unicode="1" horiz-adv-x="804" 
d="M512 700v-566h260v-134h-740v134h308v419l-278 -23v140l370 30h80z" />
    <glyph glyph-name="two" unicode="2" 
d="M797 140v-140h-741v226q0 74 35.5 110.5t114.5 45.5l375 40q32 4 44 16.5t12 43.5v28q0 32 -12.5 44t-43.5 12h-290q-31 0 -43.5 -12t-12.5 -44v-26h-165v66q0 78 36.5 114t113.5 36h438q77 0 113.5 -36t36.5 -114v-98q0 -74 -35.5 -110.5t-114.5 -45.5l-375 -40
q-32 -4 -44 -16.5t-12 -43.5v-56h570z" />
    <glyph glyph-name="three" unicode="3" 
d="M729 362q81 -22 81 -131v-81q0 -78 -36.5 -114t-113.5 -36h-456q-77 0 -113.5 36t-36.5 114v90h165v-54q0 -32 12.5 -44t43.5 -12h308q31 0 43.5 12t12.5 44v58q0 32 -12.5 44t-43.5 12h-244v120h234q31 0 43.5 12.5t12.5 43.5v38q0 32 -12.5 44t-43.5 12h-288
q-31 0 -43.5 -12t-12.5 -44v-46h-165v82q0 78 36.5 114t113.5 36h436q77 0 113.5 -36t36.5 -114v-60q0 -101 -71 -128z" />
    <glyph glyph-name="four" unicode="4" horiz-adv-x="894" 
d="M694 274h168v-127h-168v-147h-166v147h-496v107l470 446h192v-426zM528 567l-309 -293h309v293z" />
    <glyph glyph-name="five" unicode="5" horiz-adv-x="834" 
d="M628 0h-568v140h491q31 0 43.5 12.5t12.5 43.5v50q0 32 -12.5 44t-43.5 12h-491v398h688v-140h-517v-122h397q77 0 113.5 -36t36.5 -114v-138q0 -78 -36.5 -114t-113.5 -36z" />
    <glyph glyph-name="six" unicode="6" 
d="M328 440h330q77 0 113.5 -36t36.5 -114v-140q0 -78 -36.5 -114t-113.5 -36h-452q-77 0 -113.5 36t-36.5 114v356q0 100 47.5 147t146.5 47h528v-140h-469q-46 0 -64 -18.5t-18 -63.5v-71q29 33 101 33zM637 190v62q0 32 -12.5 44t-43.5 12h-298q-31 0 -43.5 -12
t-12.5 -44v-62q0 -32 12.5 -44t43.5 -12h298q31 0 43.5 12t12.5 44z" />
    <glyph glyph-name="seven" unicode="7" horiz-adv-x="824" 
d="M32 554v146h760v-126l-287 -265q-36 -33 -46 -62q-11 -31 -11 -86v-161h-174v158q0 89 18 136t73 96l187 164h-520z" />
    <glyph glyph-name="eight" unicode="8" 
d="M729 362q81 -22 81 -131v-81q0 -78 -36.5 -114t-113.5 -36h-456q-77 0 -113.5 36t-36.5 114v81q0 109 81 131q-71 27 -71 128v60q0 78 36.5 114t113.5 36h436q77 0 113.5 -36t36.5 -114v-60q0 -101 -71 -128zM235 517v-44q0 -31 12.5 -43.5t43.5 -12.5h282
q31 0 43.5 12.5t12.5 43.5v44q0 31 -12.5 43.5t-43.5 12.5h-282q-31 0 -43.5 -12.5t-12.5 -43.5zM639 183v65q0 32 -12.5 44t-43.5 12h-302q-31 0 -43.5 -12t-12.5 -44v-65q0 -31 12.5 -43.5t43.5 -12.5h302q31 0 43.5 12.5t12.5 43.5z" />
    <glyph glyph-name="nine" unicode="9" 
d="M206 700h452q77 0 113.5 -36t36.5 -114v-356q0 -100 -47.5 -147t-146.5 -47h-528v140h469q46 0 64 18.5t18 63.5v65q-29 -33 -101 -33h-330q-77 0 -113.5 36t-36.5 114v146q0 78 36.5 114t113.5 36zM283 386h298q31 0 43.5 12t12.5 44v68q0 32 -12.5 44t-43.5 12h-298
q-31 0 -43.5 -12t-12.5 -44v-68q0 -32 12.5 -44t43.5 -12z" />
    <glyph glyph-name="colon" unicode=":" horiz-adv-x="308" 
d="M252 364h-196v168h196v-168zM252 0h-196v168h196v-168z" />
    <glyph glyph-name="semicolon" unicode=";" horiz-adv-x="308" 
d="M252 364h-196v168h196v-168zM167 -160h-105l58 160h-64v168h196v-66q0 -66 -27 -123z" />
    <glyph glyph-name="less" unicode="&#x3c;" 
d="M62 420l740 242v-147l-536 -164l536 -165v-148l-740 242v140z" />
    <glyph glyph-name="equal" unicode="=" 
d="M62 412v134h740v-134h-740zM62 154v134h740v-134h-740z" />
    <glyph glyph-name="greater" unicode="&#x3e;" 
d="M62 514v148l740 -242v-140l-740 -242v147l536 165z" />
    <glyph glyph-name="question" unicode="?" horiz-adv-x="803" 
d="M453 208h-160v71q0 65 26 95t95 42l129 20q29 6 41 19t12 39v19q0 29 -12 41t-42 12h-287q-30 0 -42 -12t-12 -41v-37h-165v74q0 78 36.5 114t113.5 36h431q77 0 113.5 -36t36.5 -114v-66q0 -69 -33.5 -106t-108.5 -52l-125 -20q-27 -4 -37 -16.5t-10 -39.5v-42zM471 0
h-197v144h197v-144z" />
    <glyph glyph-name="at" unicode="@" horiz-adv-x="1002" 
d="M241 700h520q99 0 146.5 -47t47.5 -147v-208q0 -67 -30.5 -97.5t-97.5 -30.5h-105q-74 0 -93 49l-4 -3q-39 -31 -69 -40t-78 -8h-148q-123 0 -101 124l22 122q11 64 42.5 91t93.5 27h146q48 0 75 -8q26 -9 54 -37l17 40h98l-40 -234q-7 -39 29 -39h40q31 0 42.5 11
t11.5 40v194q0 66 -26 91.5t-91 25.5h-483q-65 0 -91 -25.5t-26 -91.5v-298q0 -66 26 -91.5t91 -25.5h631v-84h-650q-99 0 -146.5 47t-47.5 147v312q0 100 47.5 147t146.5 47zM598 278l21 14l20 117l-15 14q-20 18 -69 18h-139q-26 0 -36 -9t-15 -36l-16 -89q-5 -28 3 -38
t35 -10h140q43 0 71 19z" />
    <glyph glyph-name="A" unicode="A" horiz-adv-x="940" 
d="M945 0h-201l-65 131h-422l-65 -131h-192l374 700h197zM468 558l-145 -294h290z" />
    <glyph glyph-name="B" unicode="B" horiz-adv-x="893" 
d="M764 364q87 -21 87 -133v-81q0 -78 -36.5 -114t-113.5 -36h-645v700h625q77 0 113.5 -36t36.5 -114v-60q0 -99 -67 -126zM598 568h-365v-150h365q32 0 44 12t12 44v38q0 31 -12.5 43.5t-43.5 12.5zM674 188v59q0 31 -12 43.5t-44 12.5h-385v-171h385q31 0 43.5 12.5
t12.5 43.5z" />
    <glyph glyph-name="C" unicode="C" horiz-adv-x="900" 
d="M661 0h-420q-99 0 -146.5 47t-47.5 147v312q0 100 47.5 147t146.5 47h420q99 0 146.5 -47t47.5 -147v-82h-170v50q0 46 -18 64t-64 18h-298q-45 0 -63.5 -18t-18.5 -64v-248q0 -46 18.5 -64t63.5 -18h298q46 0 64 18t18 64v57h170v-89q0 -100 -47.5 -147t-146.5 -47z" />
    <glyph glyph-name="D" unicode="D" horiz-adv-x="927" 
d="M640 0h-584v700h584q117 0 178.5 -61t61.5 -179v-220q0 -118 -61.5 -179t-178.5 -61zM232 554v-408h368q104 0 104 104v200q0 104 -104 104h-368z" />
    <glyph glyph-name="E" unicode="E" horiz-adv-x="807" 
d="M233 295v-153h546v-142h-723v700h713v-142h-536v-133h496v-130h-496z" />
    <glyph glyph-name="F" unicode="F" horiz-adv-x="773" 
d="M759 700v-150h-526v-150h486v-142h-486v-258h-177v700h703z" />
    <glyph glyph-name="G" unicode="G" horiz-adv-x="929" 
d="M47 194v312q0 100 47.5 147t146.5 47h447q99 0 146.5 -47t47.5 -147v-47h-177v17q0 45 -18 63.5t-64 18.5h-317q-46 0 -64 -18.5t-18 -63.5v-256q0 -45 18 -63.5t64 -18.5h323q46 0 64 18.5t18 63.5v40h-238v130h409v-196q0 -100 -47.5 -147t-146.5 -47h-447
q-99 0 -146.5 47t-47.5 147z" />
    <glyph glyph-name="H" unicode="H" horiz-adv-x="916" 
d="M684 440v260h176v-700h-176v288h-452v-288h-176v700h176v-260h452z" />
    <glyph glyph-name="I" unicode="I" horiz-adv-x="300" 
d="M61 0v700h178v-700h-178z" />
    <glyph glyph-name="J" unicode="J" horiz-adv-x="828" 
d="M584 0h-362q-99 0 -146.5 47t-47.5 147v88h170v-56q0 -46 18 -64t64 -18h240q46 0 64 18t18 64v474h176v-506q0 -100 -47.5 -147t-146.5 -47z" />
    <glyph glyph-name="K" unicode="K" horiz-adv-x="884" 
d="M448 363l432 -363h-260l-387 340v-340h-177v700h177v-322l382 322h261z" />
    <glyph glyph-name="L" unicode="L" horiz-adv-x="742" 
d="M232 700v-548h496v-152h-672v700h176z" />
    <glyph glyph-name="M" unicode="M" horiz-adv-x="1044" 
d="M526 289l314 411h148v-700h-166v448l-253 -326h-94l-253 326v-448h-166v700h155z" />
    <glyph glyph-name="N" unicode="N" horiz-adv-x="936" 
d="M710 227v473h170v-700h-142l-512 480v-480h-170v700h150z" />
    <glyph glyph-name="O" unicode="O" horiz-adv-x="928" 
d="M687 0h-446q-99 0 -146.5 47t-47.5 147v312q0 100 47.5 147t146.5 47h446q99 0 146.5 -47t47.5 -147v-312q0 -100 -47.5 -147t-146.5 -47zM305 146h318q46 0 64 18.5t18 63.5v244q0 45 -18 63.5t-64 18.5h-318q-45 0 -63.5 -18.5t-18.5 -63.5v-244q0 -45 18.5 -63.5
t63.5 -18.5z" />
    <glyph glyph-name="P" unicode="P" horiz-adv-x="868" 
d="M232 0h-176v700h610q92 0 133 -40.5t41 -133.5v-132q0 -93 -41 -133.5t-133 -40.5h-434v-220zM232 566v-218h363q40 0 54.5 15t14.5 55v78q0 40 -14.5 55t-54.5 15h-363z" />
    <glyph glyph-name="Q" unicode="Q" horiz-adv-x="928" 
d="M881 506v-312q0 -93 -41 -140t-126 -53l122 -141h-185l-115 140h-295q-99 0 -146.5 47t-47.5 147v312q0 100 47.5 147t146.5 47h446q99 0 146.5 -47t47.5 -147zM223 472v-244q0 -45 18.5 -63.5t63.5 -18.5h318q46 0 64 18.5t18 63.5v244q0 45 -18 63.5t-64 18.5h-318
q-45 0 -63.5 -18.5t-18.5 -63.5z" />
    <glyph glyph-name="R" unicode="R" horiz-adv-x="890" 
d="M674 256l196 -256h-201l-183 244h-254v-244h-176v700h610q92 0 133 -40.5t41 -133.5v-96q0 -90 -39.5 -131t-126.5 -43zM595 572h-363v-204h363q40 0 54.5 15t14.5 55v64q0 40 -14.5 55t-54.5 15z" />
    <glyph glyph-name="S" unicode="S" horiz-adv-x="909" 
d="M47 150v66h171v-27q0 -31 12.5 -43.5t43.5 -12.5h355q31 0 43.5 12.5t12.5 43.5v31q0 30 -11.5 41.5t-44.5 14.5l-422 28q-80 6 -115 40.5t-35 109.5v96q0 78 36.5 114t113.5 36h491q77 0 113.5 -36t36.5 -114v-54h-171v15q0 31 -12.5 43.5t-43.5 12.5h-331
q-31 0 -43.5 -12.5t-12.5 -43.5v-13q0 -31 12 -42.5t44 -13.5l422 -28q80 -5 115 -39.5t35 -110.5v-114q0 -78 -36.5 -114t-113.5 -36h-515q-77 0 -113.5 36t-36.5 114z" />
    <glyph glyph-name="T" unicode="T" horiz-adv-x="808" 
d="M14 700h780v-152h-302v-548h-176v548h-302v152z" />
    <glyph glyph-name="U" unicode="U" horiz-adv-x="903" 
d="M660 0h-416q-99 0 -146.5 47t-47.5 147v506h176v-470q0 -45 18 -63.5t64 -18.5h288q45 0 63.5 18.5t18.5 63.5v470h176v-506q0 -100 -47.5 -147t-146.5 -47z" />
    <glyph glyph-name="V" unicode="V" horiz-adv-x="916" 
d="M463 177l266 523h187l-375 -700h-166l-375 700h196z" />
    <glyph glyph-name="W" unicode="W" horiz-adv-x="1274" 
d="M901 213l188 487h185l-292 -700h-152l-193 473l-193 -473h-152l-292 700h194l188 -488l193 488h131z" />
    <glyph glyph-name="X" unicode="X" horiz-adv-x="893" 
d="M220 0h-216l325 356l-315 344h228l210 -240l210 240h217l-314 -344l324 -356h-227l-221 253z" />
    <glyph glyph-name="Y" unicode="Y" horiz-adv-x="872" 
d="M674 700h204l-354 -443v-257h-176v257l-354 443h213l234 -307z" />
    <glyph glyph-name="Z" unicode="Z" horiz-adv-x="876" 
d="M838 0h-800v118l520 436h-500v146h780v-118l-520 -436h520v-146z" />
    <glyph glyph-name="bracketleft" unicode="[" horiz-adv-x="484" 
d="M456 -100h-400v900h400v-128h-252v-644h252v-128z" />
    <glyph glyph-name="backslash" unicode="\" horiz-adv-x="531" 
d="M4 800h111l412 -900h-111z" />
    <glyph glyph-name="bracketright" unicode="]" horiz-adv-x="484" 
d="M28 800h400v-900h-400v128h252v644h-252v128z" />
    <glyph glyph-name="asciicircum" unicode="^" 
d="M498 700l314 -420h-166l-213 290l-213 -290h-168l314 420h132z" />
    <glyph glyph-name="underscore" unicode="_" horiz-adv-x="776" 
d="M0 -150v110h776v-110h-776z" />
    <glyph glyph-name="grave" unicode="`" horiz-adv-x="365" 
d="M341 574h-141l-144 126h180z" />
    <glyph glyph-name="a" unicode="a" horiz-adv-x="794" 
d="M220 532h349q92 0 133 -40.5t41 -133.5v-358h-139l-15 64q-49 -43 -82 -53q-36 -11 -107 -11h-228q-126 0 -126 126v58q0 126 126 126h404v38q0 40 -15 54.5t-55 14.5h-219q-31 0 -43.5 -12.5t-12.5 -43.5v-15h-161v36q0 78 36.5 114t113.5 36zM261 107h192q53 0 88 26
l35 27v60h-315q-28 0 -38 -10.5t-10 -37.5v-17q0 -28 10 -38t38 -10z" />
    <glyph glyph-name="b" unicode="b" horiz-adv-x="807" 
d="M410 532h177q92 0 133 -40.5t41 -133.5v-184q0 -93 -41 -133.5t-133 -40.5h-177q-77 0 -113 13q-38 12 -89 54l-15 -67h-138v700h166v-225q44 37 81 47q36 10 108 10zM594 199v134q0 40 -14.5 54.5t-54.5 14.5h-169q-70 0 -104 -28l-31 -24v-168l31 -24q37 -28 104 -28
h169q40 0 54.5 14.5t14.5 54.5z" />
    <glyph glyph-name="c" unicode="c" horiz-adv-x="772" 
d="M46 174v184q0 93 41 133.5t133 40.5h332q92 0 133 -40.5t41 -133.5v-45h-160v20q0 40 -15 54.5t-55 14.5h-214q-40 0 -55 -14.5t-15 -54.5v-134q0 -40 15 -54.5t55 -14.5h214q40 0 55 14.5t15 54.5v26h160v-51q0 -93 -41 -133.5t-133 -40.5h-332q-92 0 -133 40.5
t-41 133.5z" />
    <glyph glyph-name="d" unicode="d" horiz-adv-x="807" 
d="M586 475v225h166v-700h-138l-15 67q-49 -42 -89 -54q-38 -13 -114 -13h-176q-92 0 -133 40.5t-41 133.5v184q0 93 41 133.5t133 40.5h176q73 0 109 -10q37 -10 81 -47zM282 130h169q68 0 103 28l32 24v168l-32 24q-34 28 -103 28h-169q-40 0 -55 -14.5t-15 -54.5v-134
q0 -40 15 -54.5t55 -14.5z" />
    <glyph glyph-name="e" unicode="e" horiz-adv-x="789" 
d="M220 532h349q92 0 133 -40.5t41 -133.5v-119h-530v-44q0 -40 15 -54.5t55 -14.5h243q31 0 43.5 12.5t12.5 43.5v14h161v-46q0 -78 -36.5 -114t-113.5 -36h-373q-92 0 -133 40.5t-41 133.5v184q0 93 41 133.5t133 40.5zM213 347v-10h369v10q0 40 -15 54.5t-55 14.5h-229
q-40 0 -55 -14.5t-15 -54.5z" />
    <glyph glyph-name="f" unicode="f" horiz-adv-x="603" 
d="M589 572h-210q-31 0 -43.5 -12.5t-12.5 -43.5v-49h266v-127h-266v-340h-167v340h-142v127h142v83q0 78 36.5 114t113.5 36h283v-128z" />
    <glyph glyph-name="g" unicode="g" horiz-adv-x="808" 
d="M599 465l15 67h139v-498q0 -100 -47.5 -147t-146.5 -47h-493v120h438q45 0 63.5 18t18.5 64v56q-46 -37 -83 -47q-41 -11 -107 -11h-176q-92 0 -133 40.5t-41 133.5v144q0 93 41 133.5t133 40.5h176q72 0 113 -12q41 -14 90 -55zM555 194l31 24v135l-31 25
q-35 28 -105 28h-168q-40 0 -54.5 -14.5t-14.5 -54.5v-102q0 -40 14.5 -55t54.5 -15h168q67 0 105 29z" />
    <glyph glyph-name="h" unicode="h" horiz-adv-x="802" 
d="M416 532h161q92 0 133 -40.5t41 -133.5v-358h-167v330q0 40 -14.5 54.5t-54.5 14.5h-159q-66 0 -104 -29l-31 -24v-346h-166v700h166v-230q46 38 85 51q39 11 110 11z" />
    <glyph glyph-name="i" unicode="i" horiz-adv-x="287" 
d="M229 582h-170v118h170v-118zM229 0h-170v532h170v-532z" />
    <glyph glyph-name="j" unicode="j" horiz-adv-x="327" 
d="M269 582h-170v118h170v-118zM119 -160h-180v124h104q31 0 43.5 12t12.5 44v512h170v-542q0 -78 -36.5 -114t-113.5 -36z" />
    <glyph glyph-name="k" unicode="k" horiz-adv-x="780" 
d="M429 269l356 -269h-255l-307 247v-247h-168v700h168v-416l301 248h254z" />
    <glyph glyph-name="l" unicode="l" horiz-adv-x="286" 
d="M228 0h-169v700h169v-700z" />
    <glyph glyph-name="m" unicode="m" horiz-adv-x="1271" 
d="M910 532h136q92 0 133 -40.5t41 -133.5v-358h-166v330q0 40 -14.5 54.5t-54.5 14.5h-129q-69 0 -104 -29l-31 -24v-346h-167v330q0 40 -14.5 54.5t-54.5 14.5h-129q-66 0 -104 -29l-31 -24v-346h-166v532h138l15 -67q50 41 89 55q38 12 113 12h137q121 0 155 -73l1 1
q51 45 91 59q38 13 116 13z" />
    <glyph glyph-name="n" unicode="n" horiz-adv-x="802" 
d="M410 532h167q92 0 133 -40.5t41 -133.5v-358h-167v330q0 40 -14.5 54.5t-54.5 14.5h-159q-66 0 -104 -29l-31 -24v-346h-166v532h138l15 -67q50 41 89 55q38 12 113 12z" />
    <glyph glyph-name="o" unicode="o" horiz-adv-x="798" 
d="M578 0h-358q-92 0 -133 40.5t-41 133.5v184q0 93 41 133.5t133 40.5h358q92 0 133 -40.5t41 -133.5v-184q0 -93 -41 -133.5t-133 -40.5zM282 130h234q40 0 55 14.5t15 54.5v134q0 40 -15 54.5t-55 14.5h-234q-40 0 -55 -14.5t-15 -54.5v-134q0 -40 15 -54.5t55 -14.5z
" />
    <glyph glyph-name="p" unicode="p" horiz-adv-x="807" 
d="M410 532h177q92 0 133 -40.5t41 -133.5v-184q0 -93 -41 -133.5t-133 -40.5h-177q-69 0 -108 11q-38 11 -81 46v-217h-166v692h138l15 -67q50 41 89 55q38 12 113 12zM594 199v134q0 40 -14.5 54.5t-54.5 14.5h-169q-70 0 -104 -28l-31 -24v-168l31 -24q37 -28 104 -28
h169q40 0 54.5 14.5t14.5 54.5z" />
    <glyph glyph-name="q" unicode="q" horiz-adv-x="807" 
d="M599 465l15 67h138v-692h-166v217q-43 -35 -78 -46q-36 -11 -106 -11h-182q-92 0 -133 40.5t-41 133.5v184q0 93 41 133.5t133 40.5h176q75 0 114 -12q41 -14 89 -55zM554 158l32 24v168l-32 24q-34 28 -103 28h-169q-40 0 -55 -14.5t-15 -54.5v-134q0 -40 15 -54.5
t55 -14.5h169q68 0 103 28z" />
    <glyph glyph-name="r" unicode="r" horiz-adv-x="538" 
d="M404 532h120v-149h-168q-66 0 -104 -29l-31 -24v-330h-166v532h120l18 -75l4 3q50 45 92 59q36 13 115 13z" />
    <glyph glyph-name="s" unicode="s" horiz-adv-x="779" 
d="M46 122v52h161v-31q0 -17 7 -24t25 -7h295q18 0 25 7t7 24v30q0 17 -7 23.5t-25 8.5l-357 24q-121 7 -121 120v62q0 58 32 89.5t89 31.5h421q57 0 89 -32t32 -90v-46h-161v25q0 17 -7 24t-25 7h-271q-18 0 -25 -7t-7 -24v-11q0 -18 6.5 -24.5t25.5 -8.5l357 -24
q121 -7 121 -120v-80q0 -58 -32 -89.5t-89 -31.5h-445q-57 0 -89 32t-32 90z" />
    <glyph glyph-name="t" unicode="t" horiz-adv-x="622" 
d="M598 532v-127h-276v-219q0 -31 12.5 -43.5t43.5 -12.5h220v-130h-292q-77 0 -113.5 36t-36.5 114v255h-142v127h142l33 120h133v-120h276z" />
    <glyph glyph-name="u" unicode="u" horiz-adv-x="802" 
d="M581 532h166v-532h-138l-15 67q-51 -42 -89 -54q-36 -13 -113 -13h-167q-92 0 -133 40.5t-41 133.5v358h167v-330q0 -40 14.5 -54.5t54.5 -14.5h159q66 0 104 29l31 24v346z" />
    <glyph glyph-name="v" unicode="v" horiz-adv-x="778" 
d="M393 165l199 367h184l-314 -532h-146l-314 532h191z" />
    <glyph glyph-name="w" unicode="w" horiz-adv-x="1078" 
d="M759 183l142 349h173l-241 -532h-143l-151 349l-149 -349h-145l-241 532h180l143 -350l151 350h129z" />
    <glyph glyph-name="x" unicode="x" horiz-adv-x="775" 
d="M213 0h-215l271 271l-261 261h225l160 -170l160 170h214l-260 -261l270 -271h-225l-169 181z" />
    <glyph glyph-name="y" unicode="y" horiz-adv-x="778" 
d="M391 158l201 374h184l-317 -536q-53 -93 -108 -125q-55 -31 -163 -31h-132v130h143q43 0 65.5 10t40.5 39l-303 513h191z" />
    <glyph glyph-name="z" unicode="z" horiz-adv-x="762" 
d="M726 0h-690v98l424 310h-404v124h670v-98l-424 -310h424v-124z" />
    <glyph glyph-name="braceleft" unicode="{" horiz-adv-x="576" 
d="M304 587v-124q0 -86 -61 -113q61 -28 61 -113v-124q0 -45 20 -65t65 -20h159v-128h-192q-101 0 -150.5 49t-49.5 151v143q0 48 -48 48h-80v117h80q48 0 48 49v143q0 102 49.5 151t150.5 49h192v-128h-159q-45 0 -65 -20t-20 -65z" />
    <glyph glyph-name="bar" unicode="|" horiz-adv-x="266" 
d="M66 -100v900h134v-900h-134z" />
    <glyph glyph-name="braceright" unicode="}" horiz-adv-x="576" 
d="M468 409h80v-117h-80q-48 0 -48 -49v-143q0 -102 -49.5 -151t-150.5 -49h-192v128h159q45 0 65 20t20 65v124q0 86 61 113q-61 28 -61 113v124q0 45 -20 65t-65 20h-159v128h192q101 0 150.5 -49t49.5 -151v-143q0 -48 48 -48z" />
    <glyph glyph-name="asciitilde" unicode="~" 
d="M411 449l166 -134q17 -15 41 -15h20q24 0 24 24v180h140v-212q0 -52 -22 -74t-74 -22h-118q-52 0 -76 10q-26 11 -59 45l-166 134q-17 15 -41 15h-20q-24 0 -24 -24v-180h-140v212q0 52 22 74t74 22h118q52 0 76 -10q26 -11 59 -45z" />
    <glyph glyph-name="exclamdown" unicode="&#xa1;" horiz-adv-x="308" 
d="M56 700h196v-162h-196v162zM216 474l34 -474h-192l34 474h124z" />
    <glyph glyph-name="cent" unicode="&#xa2;" 
d="M808 526v-57h-164v30q0 40 -14.5 54.5t-54.5 14.5h-280q-40 0 -54.5 -14.5t-14.5 -54.5v-168q0 -40 14.5 -54.5t54.5 -14.5h280q40 0 54.5 14.5t14.5 54.5v37h164v-64q0 -93 -41 -133.5t-133 -40.5h-144v-100h-112v100h-148q-92 0 -133 40.5t-41 133.5v222q0 93 41 133.5
t133 40.5h148v100h112v-100h144q92 0 133 -40.5t41 -133.5z" />
    <glyph glyph-name="sterling" unicode="&#xa3;" horiz-adv-x="892" 
d="M836 506v-66h-164v48q0 46 -18 64t-64 18h-240q-42 0 -59 -18.5t-17 -63.5v-84h300v-94h-300v-174h342q32 0 44 12t12 44v64h164v-106q0 -78 -36.5 -114t-113.5 -36h-672v136h90v174h-100v94h100v102q0 100 47.5 147t146.5 47h344q99 0 146.5 -47t47.5 -147z" />
    <glyph glyph-name="currency" unicode="&#xa4;" 
d="M745 431v-162q0 -36 -9 -66l94 -94l-77 -77l-86 86q-39 -21 -94 -21h-282q-55 0 -94 21l-86 -86l-77 77l94 94q-9 30 -9 66v162q0 36 9 66l-94 94l77 77l86 -86q39 21 94 21h282q55 0 94 -21l86 86l77 -77l-94 -94q9 -30 9 -66zM333 223h198q41 0 59.5 18.5t18.5 59.5v98
q0 41 -18.5 59.5t-59.5 18.5h-198q-41 0 -59.5 -18.5t-18.5 -59.5v-98q0 -41 18.5 -59.5t59.5 -18.5z" />
    <glyph glyph-name="yen" unicode="&#xa5;" 
d="M647 700h195l-283 -380h253v-78h-295v-74h295v-78h-295v-90h-170v90h-295v78h295v74h-295v78h253l-283 380h204l211 -305z" />
    <glyph glyph-name="brokenbar" unicode="&#xa6;" horiz-adv-x="266" 
d="M66 472v328h134v-328h-134zM66 -100v328h134v-328h-134z" />
    <glyph glyph-name="section" unicode="&#xa7;" horiz-adv-x="1047" 
d="M388 551l475 -37q75 -7 106.5 -39.5t31.5 -104.5v-72q0 -133 -112 -143q2 -26 2 -33v-72q0 -78 -36.5 -114t-113.5 -36h-425q-77 0 -113.5 36t-36.5 114v55h171v-25q0 -31 12.5 -43.5t43.5 -12.5h266q31 0 43 12.5t12 42.5v15q0 29 -12 40.5t-43 14.5l-475 37
q-75 7 -106.5 39.5t-31.5 104.5v72q0 67 27 101t85 41q-2 26 -2 34v72q0 78 36.5 114t113.5 36h425q77 0 113.5 -36t36.5 -114v-55h-171v25q0 31 -12.5 43.5t-43.5 12.5h-266q-31 0 -43 -12.5t-12 -42.5v-15q0 -29 12 -40.5t43 -14.5zM272 308l475 -36q40 -5 49 -8
q28 7 28 47v32q0 26 -10.5 36t-38.5 13l-475 36q-40 5 -49 8q-28 -7 -28 -47v-32q0 -26 10.5 -36t38.5 -13z" />
    <glyph glyph-name="dieresis" unicode="&#xa8;" horiz-adv-x="448" 
d="M186 582h-130v102h130v-102zM416 582h-130v102h130v-102z" />
    <glyph glyph-name="copyright" unicode="&#xa9;" horiz-adv-x="924" 
d="M659 0h-394q-104 0 -164.5 60t-60.5 165v250q0 105 60.5 165t164.5 60h394q104 0 164.5 -60t60.5 -165v-250q0 -105 -60.5 -165t-164.5 -60zM277 56h370q87 0 132 45t45 132v234q0 87 -45 132t-132 45h-370q-87 0 -132 -45t-45 -132v-234q0 -87 45 -132t132 -45zM622 130
h-320q-65 0 -96.5 31t-31.5 97v184q0 66 31.5 97t96.5 31h320q65 0 96.5 -31t31.5 -97v-49h-120v29q0 26 -10.5 36.5t-36.5 10.5h-237q-27 0 -37.5 -10.5t-10.5 -36.5v-144q0 -26 10.5 -36.5t37.5 -10.5h237q26 0 36.5 10.5t10.5 36.5v35h120v-55q0 -66 -31.5 -97t-96.5 -31
z" />
    <glyph glyph-name="ordfeminine" unicode="&#xaa;" horiz-adv-x="479" 
d="M132 700h212q56 0 81 -25t25 -81v-214h-90l-10 37q-27 -24 -47 -30q-20 -7 -63 -7h-138q-76 0 -76 76v36q0 76 76 76h240v21q0 22 -8 30t-30 8h-128q-18 0 -24.5 -7t-6.5 -24v-8h-105v21q0 91 92 91zM162 446h113q29 0 48 15l19 14v37h-180q-16 0 -22 -6t-6 -22v-11
q0 -16 6 -21.5t22 -5.5z" />
    <glyph glyph-name="guillemotleft" unicode="&#xab;" horiz-adv-x="1014" 
d="M48 299v101l432 192v-132l-278 -109l278 -109v-135zM534 400l432 192v-132l-278 -109l278 -109v-135l-432 192v101z" />
    <glyph glyph-name="logicalnot" unicode="&#xac;" 
d="M652 280h-590v140h740v-310h-150v170z" />
    <glyph glyph-name="uni00AD" unicode="&#xad;" horiz-adv-x="516" 
d="M42 280v140h432v-140h-432z" />
    <glyph glyph-name="registered" unicode="&#xae;" horiz-adv-x="391" 
d="M143 700h105q56 0 82.5 -26.5t26.5 -82.5v-92q0 -109 -109 -109h-105q-109 0 -109 109v92q0 56 26.5 82.5t82.5 26.5zM316 501v88q0 40 -16 56t-56 16h-97q-40 0 -56 -16t-16 -56v-88q0 -39 16 -55.5t56 -16.5h97q40 0 56 16.5t16 55.5zM272 584v-24q0 -36 -32 -39
l40 -54h-50l-34 50h-28v-50h-45v155h111q20 0 29 -9t9 -29zM217 587h-49v-36h49q11 0 11 10v15q0 7 -2 9t-9 2z" />
    <glyph glyph-name="overscore" unicode="&#xaf;" horiz-adv-x="520" 
d="M496 598h-440v80h440v-80z" />
    <glyph glyph-name="degree" unicode="&#xb0;" horiz-adv-x="432" 
d="M271 350h-110q-58 0 -90.5 33t-32.5 90v104q0 58 32.5 90.5t90.5 32.5h110q58 0 90.5 -32.5t32.5 -90.5v-104q0 -57 -32.5 -90t-90.5 -33zM184 439h64q27 0 38.5 12t11.5 38v72q0 28 -11.5 39t-38.5 11h-64q-27 0 -38.5 -11t-11.5 -39v-72q0 -26 11.5 -38t38.5 -12z" />
    <glyph glyph-name="plusminus" unicode="&#xb1;" 
d="M507 684v-176h295v-128h-295v-176h-150v176h-295v128h295v176h150zM802 16h-740v127h740v-127z" />
    <glyph glyph-name="uni00B2" unicode="&#xb2;" horiz-adv-x="544" 
d="M497 380v-100h-456v138q0 48 22.5 71t71.5 28l217 20q16 2 21.5 7.5t5.5 20.5v17q0 15 -6 21t-21 6h-156q-15 0 -21 -6t-6 -21v-19h-120v42q0 95 95 95h265q95 0 95 -95v-54q0 -48 -22 -70.5t-73 -27.5l-217 -20q-15 -2 -21 -8t-6 -20v-25h332z" />
    <glyph glyph-name="uni00B3" unicode="&#xb3;" horiz-adv-x="541" 
d="M453 496q50 -14 50 -81v-40q0 -95 -94 -95h-277q-49 0 -71.5 23t-22.5 72v57h120v-31q0 -15 6 -20.5t21 -5.5h166q16 0 21.5 5t5.5 21v26q0 15 -5.5 21t-21.5 6h-137v81h131q16 0 21.5 6t5.5 21v17q0 16 -5.5 21t-21.5 5h-154q-15 0 -21 -5.5t-6 -20.5v-26h-120v52
q0 49 22.5 72t71.5 23h265q94 0 94 -95v-30q0 -64 -44 -79z" />
    <glyph glyph-name="acute" unicode="&#xb4;" horiz-adv-x="365" 
d="M341 700l-145 -126h-140l104 126h181z" />
    <glyph glyph-name="paragraph" unicode="&#xb6;" horiz-adv-x="890" 
d="M40 422v104q0 93 41 133.5t133 40.5h580v-700h-152v566h-144v-566h-152v248h-132q-92 0 -133 40.5t-41 133.5z" />
    <glyph glyph-name="middot" unicode="&#xb7;" horiz-adv-x="308" 
d="M252 258h-196v184h196v-184z" />
    <glyph glyph-name="cedilla" unicode="&#xb8;" horiz-adv-x="320" 
d="M250 -160h-202v53h163q11 0 11 11v11q0 11 -11 11h-115v24l24 70h62l-16 -46h84q29 0 41.5 -12.5t12.5 -41.5v-26q0 -29 -12.5 -41.5t-41.5 -12.5z" />
    <glyph glyph-name="uni00B9" unicode="&#xb9;" horiz-adv-x="507" 
d="M326 700v-322h153v-98h-451v98h172v215l-154 -13v102l219 18h61z" />
    <glyph glyph-name="ordmasculine" unicode="&#xba;" horiz-adv-x="479" 
d="M347 380h-215q-56 0 -81 25t-25 82v108q0 56 25 80.5t81 24.5h215q56 0 81 -24.5t25 -80.5v-108q0 -57 -25 -82t-81 -25zM171 466h136q22 0 30.5 8t8.5 30v73q0 22 -8.5 30t-30.5 8h-136q-22 0 -30 -8t-8 -30v-73q0 -22 8 -30t30 -8z" />
    <glyph glyph-name="guillemotright" unicode="&#xbb;" horiz-adv-x="1014" 
d="M326 348l-278 109v135l432 -192v-101l-432 -192v132zM534 457v135l432 -192v-101l-432 -192v132l278 109z" />
    <glyph glyph-name="onequarter" unicode="&#xbc;" horiz-adv-x="1194" 
d="M326 378h154v-98h-452v98h172v215l-154 -13v102l220 18h60v-322zM301 0l604 700h103l-604 -700h-103zM1070 171h96v-91h-96v-80h-121v80h-288v77l269 263h140v-249zM949 317l-151 -146h151v146z" />
    <glyph glyph-name="onehalf" unicode="&#xbd;" horiz-adv-x="1302" 
d="M326 378h153v-98h-451v98h172v215l-154 -13v102l220 18h60v-322zM301 0l604 700h103l-604 -700h-103zM1166 172l-217 -20q-16 -2 -21.5 -7.5t-5.5 -20.5v-24h332v-100h-457v138q0 47 23 70.5t72 28.5l217 20q16 2 21.5 7.5t5.5 20.5v17q0 15 -6 21t-21 6h-156
q-16 0 -21.5 -6t-5.5 -21v-19h-121v42q0 95 95 95h266q95 0 95 -95v-54q0 -48 -22.5 -71t-72.5 -28z" />
    <glyph glyph-name="threequarters" unicode="&#xbe;" horiz-adv-x="1216" 
d="M506 415v-40q0 -95 -94 -95h-277q-95 0 -95 95v57h120v-31q0 -16 5.5 -21t20.5 -5h169q16 0 21.5 5t5.5 21v26q0 15 -5.5 21t-21.5 6h-138v81h132q16 0 21.5 6t5.5 21v17q0 16 -5.5 21t-21.5 5h-157q-15 0 -20.5 -5t-5.5 -21v-26h-120v52q0 95 95 95h265q94 0 94 -95v-30
q0 -64 -44 -79q50 -15 50 -81zM314 0l604 700h103l-604 -700h-103zM1092 171h96v-91h-96v-80h-121v80h-288v77l269 263h140v-249zM971 317l-151 -146h151v146z" />
    <glyph glyph-name="questiondown" unicode="&#xbf;" horiz-adv-x="803" 
d="M332 700h197v-144h-197v144zM350 492h160v-71q0 -64 -26 -94t-95 -43l-129 -20q-29 -6 -41 -19t-12 -39v-19q0 -29 12 -41t42 -12h287q30 0 42 12t12 41v37h165v-74q0 -78 -36.5 -114t-113.5 -36h-431q-77 0 -113.5 36t-36.5 114v66q0 69 33.5 106t108.5 52l125 20
q27 4 37 16.5t10 39.5v42z" />
    <glyph glyph-name="Agrave" unicode="&#xc0;" horiz-adv-x="940" 
d="M436 868l105 -126h-141l-144 126h180zM945 0h-201l-65 131h-422l-65 -131h-192l374 700h197zM468 558l-145 -294h290z" />
    <glyph glyph-name="Aacute" unicode="&#xc1;" horiz-adv-x="940" 
d="M507 868h181l-145 -126h-140zM945 0h-201l-65 131h-422l-65 -131h-192l374 700h197zM468 558l-145 -294h290z" />
    <glyph glyph-name="Acircumflex" unicode="&#xc2;" horiz-adv-x="940" 
d="M568 742l-96 62l-96 -62h-123l136 126h166l136 -126h-123zM945 0h-201l-65 131h-422l-65 -131h-192l374 700h197zM468 558l-145 -294h290z" />
    <glyph glyph-name="Atilde" unicode="&#xc3;" horiz-adv-x="940" 
d="M361 798v-56h-96v77q0 49 50 49h123q23 0 35.5 -5t26.5 -21l33 -34q10 -8 20 -8h19q11 0 11 12v56h96v-77q0 -49 -50 -49h-123q-23 0 -35.5 5t-26.5 21l-33 34q-10 8 -20 8h-19q-11 0 -11 -12zM945 0h-201l-65 131h-422l-65 -131h-192l374 700h197zM468 558l-145 -294
h290z" />
    <glyph glyph-name="Adieresis" unicode="&#xc4;" horiz-adv-x="940" 
d="M292 852h130v-102h-130v102zM522 852h130v-102h-130v102zM945 0h-201l-65 131h-422l-65 -131h-192l374 700h197zM468 558l-145 -294h290z" />
    <glyph glyph-name="Aring" unicode="&#xc5;" horiz-adv-x="940" 
d="M577 732h-210q-29 0 -42 13t-13 42v26q0 29 13 42t42 13h210q29 0 42 -13t13 -42v-26q0 -29 -13 -42t-42 -13zM376 807v-14q0 -11 3.5 -15t14.5 -4h156q11 0 14.5 4t3.5 15v14q0 11 -3.5 15t-14.5 4h-156q-11 0 -14.5 -4t-3.5 -15zM945 0h-201l-65 131h-422l-65 -131
h-192l374 700h197zM468 558l-145 -294h290z" />
    <glyph glyph-name="AE" unicode="&#xc6;" horiz-adv-x="1282" 
d="M783 295l77 -153h394v-142h-524l-60 128h-415l-63 -128h-192l374 700h870v-142h-593l67 -133h486v-130h-421zM468 558l-147 -297h287z" />
    <glyph glyph-name="Ccedilla" unicode="&#xc7;" horiz-adv-x="900" 
d="M855 506v-82h-170v50q0 46 -18 64t-64 18h-298q-45 0 -63.5 -18t-18.5 -64v-248q0 -46 18.5 -64t63.5 -18h298q46 0 64 18t18 64v57h170v-89q0 -100 -47.5 -147t-146.5 -47h-194l-9 -26h84q29 0 41.5 -12.5t12.5 -41.5v-26q0 -29 -12.5 -41.5t-41.5 -12.5h-202v53h163
q11 0 11 11v11q0 11 -11 11h-115v24l17 50h-164q-99 0 -146.5 47t-47.5 147v312q0 100 47.5 147t146.5 47h420q99 0 146.5 -47t47.5 -147z" />
    <glyph glyph-name="Egrave" unicode="&#xc8;" horiz-adv-x="807" 
d="M367 868l105 -126h-141l-144 126h180zM233 295v-153h546v-142h-723v700h713v-142h-536v-133h496v-130h-496z" />
    <glyph glyph-name="Eacute" unicode="&#xc9;" horiz-adv-x="807" 
d="M438 868h181l-145 -126h-140zM233 295v-153h546v-142h-723v700h713v-142h-536v-133h496v-130h-496z" />
    <glyph glyph-name="Ecircumflex" unicode="&#xca;" horiz-adv-x="807" 
d="M499 742l-96 62l-96 -62h-123l136 126h166l136 -126h-123zM233 295v-153h546v-142h-723v700h713v-142h-536v-133h496v-130h-496z" />
    <glyph glyph-name="Edieresis" unicode="&#xcb;" horiz-adv-x="807" 
d="M223 852h130v-102h-130v102zM453 852h130v-102h-130v102zM233 295v-153h546v-142h-723v700h713v-142h-536v-133h496v-130h-496z" />
    <glyph glyph-name="Igrave" unicode="&#xcc;" horiz-adv-x="300" 
d="M219 742h-141l-144 126h180zM61 0v700h178v-700h-178z" />
    <glyph glyph-name="Iacute" unicode="&#xcd;" horiz-adv-x="300" 
d="M366 868l-145 -126h-140l104 126h181zM61 0v700h178v-700h-178z" />
    <glyph glyph-name="Icircumflex" unicode="&#xce;" horiz-adv-x="300" 
d="M54 742h-123l136 126h166l136 -126h-123l-96 62zM61 0v700h178v-700h-178z" />
    <glyph glyph-name="Idieresis" unicode="&#xcf;" horiz-adv-x="300" 
d="M100 750h-130v102h130v-102zM330 750h-130v102h130v-102zM61 0v700h178v-700h-178z" />
    <glyph glyph-name="Eth" unicode="&#xd0;" horiz-adv-x="987" 
d="M116 700h584q117 0 178.5 -61t61.5 -179v-220q0 -118 -61.5 -179t-178.5 -61h-584v300h-88v100h88v300zM764 250v200q0 104 -104 104h-368v-154h266v-100h-266v-154h368q104 0 104 104z" />
    <glyph glyph-name="Ntilde" unicode="&#xd1;" horiz-adv-x="936" 
d="M353 798v-56h-96v77q0 49 50 49h123q23 0 35.5 -5t26.5 -21l33 -34q10 -8 20 -8h19q11 0 11 12v56h96v-77q0 -49 -50 -49h-123q-23 0 -35.5 5t-26.5 21l-33 34q-10 8 -20 8h-19q-11 0 -11 -12zM710 227v473h170v-700h-142l-512 480v-480h-170v700h150z" />
    <glyph glyph-name="Ograve" unicode="&#xd2;" horiz-adv-x="928" 
d="M533 742h-141l-144 126h180zM687 0h-446q-99 0 -146.5 47t-47.5 147v312q0 100 47.5 147t146.5 47h446q99 0 146.5 -47t47.5 -147v-312q0 -100 -47.5 -147t-146.5 -47zM305 146h318q46 0 64 18.5t18 63.5v244q0 45 -18 63.5t-64 18.5h-318q-45 0 -63.5 -18.5t-18.5 -63.5
v-244q0 -45 18.5 -63.5t63.5 -18.5z" />
    <glyph glyph-name="Oacute" unicode="&#xd3;" horiz-adv-x="928" 
d="M680 868l-145 -126h-140l104 126h181zM687 0h-446q-99 0 -146.5 47t-47.5 147v312q0 100 47.5 147t146.5 47h446q99 0 146.5 -47t47.5 -147v-312q0 -100 -47.5 -147t-146.5 -47zM305 146h318q46 0 64 18.5t18 63.5v244q0 45 -18 63.5t-64 18.5h-318q-45 0 -63.5 -18.5
t-18.5 -63.5v-244q0 -45 18.5 -63.5t63.5 -18.5z" />
    <glyph glyph-name="Ocircumflex" unicode="&#xd4;" horiz-adv-x="928" 
d="M368 742h-123l136 126h166l136 -126h-123l-96 62zM687 0h-446q-99 0 -146.5 47t-47.5 147v312q0 100 47.5 147t146.5 47h446q99 0 146.5 -47t47.5 -147v-312q0 -100 -47.5 -147t-146.5 -47zM305 146h318q46 0 64 18.5t18 63.5v244q0 45 -18 63.5t-64 18.5h-318
q-45 0 -63.5 -18.5t-18.5 -63.5v-244q0 -45 18.5 -63.5t63.5 -18.5z" />
    <glyph glyph-name="Otilde" unicode="&#xd5;" horiz-adv-x="928" 
d="M353 742h-96v77q0 49 50 49h123q23 0 35.5 -5t26.5 -21l33 -34q10 -8 20 -8h19q11 0 11 12v56h96v-77q0 -49 -50 -49h-123q-23 0 -35.5 5t-26.5 21l-33 34q-10 8 -20 8h-19q-11 0 -11 -12v-56zM687 0h-446q-99 0 -146.5 47t-47.5 147v312q0 100 47.5 147t146.5 47h446
q99 0 146.5 -47t47.5 -147v-312q0 -100 -47.5 -147t-146.5 -47zM305 146h318q46 0 64 18.5t18 63.5v244q0 45 -18 63.5t-64 18.5h-318q-45 0 -63.5 -18.5t-18.5 -63.5v-244q0 -45 18.5 -63.5t63.5 -18.5z" />
    <glyph glyph-name="Odieresis" unicode="&#xd6;" horiz-adv-x="928" 
d="M414 750h-130v102h130v-102zM644 750h-130v102h130v-102zM687 0h-446q-99 0 -146.5 47t-47.5 147v312q0 100 47.5 147t146.5 47h446q99 0 146.5 -47t47.5 -147v-312q0 -100 -47.5 -147t-146.5 -47zM305 146h318q46 0 64 18.5t18 63.5v244q0 45 -18 63.5t-64 18.5h-318
q-45 0 -63.5 -18.5t-18.5 -63.5v-244q0 -45 18.5 -63.5t63.5 -18.5z" />
    <glyph glyph-name="multiply" unicode="&#xd7;" 
d="M699 657l91 -103l-250 -204l250 -204l-91 -103l-267 218l-267 -218l-91 103l250 204l-250 204l91 103l267 -218z" />
    <glyph glyph-name="Oslash" unicode="&#xd8;" horiz-adv-x="928" 
d="M911 730l-78 -76q48 -48 48 -148v-312q0 -100 -47.5 -147t-146.5 -47h-446q-36 0 -73 8l-39 -38h-112l78 76q-48 48 -48 148v312q0 100 47.5 147t146.5 47h446q36 0 73 -8l39 38h112zM216 478v-256q0 -32 9 -50l399 388h-326q-46 0 -64 -18.5t-18 -63.5zM713 222v256
q0 32 -9 51l-400 -389h327q45 0 63.5 18.5t18.5 63.5z" />
    <glyph glyph-name="Ugrave" unicode="&#xd9;" horiz-adv-x="903" 
d="M521 742h-141l-144 126h180zM660 0h-416q-99 0 -146.5 47t-47.5 147v506h176v-470q0 -45 18 -63.5t64 -18.5h288q45 0 63.5 18.5t18.5 63.5v470h176v-506q0 -100 -47.5 -147t-146.5 -47z" />
    <glyph glyph-name="Uacute" unicode="&#xda;" horiz-adv-x="903" 
d="M668 868l-145 -126h-140l104 126h181zM660 0h-416q-99 0 -146.5 47t-47.5 147v506h176v-470q0 -45 18 -63.5t64 -18.5h288q45 0 63.5 18.5t18.5 63.5v470h176v-506q0 -100 -47.5 -147t-146.5 -47z" />
    <glyph glyph-name="Ucircumflex" unicode="&#xdb;" horiz-adv-x="903" 
d="M356 742h-123l136 126h166l136 -126h-123l-96 62zM660 0h-416q-99 0 -146.5 47t-47.5 147v506h176v-470q0 -45 18 -63.5t64 -18.5h288q45 0 63.5 18.5t18.5 63.5v470h176v-506q0 -100 -47.5 -147t-146.5 -47z" />
    <glyph glyph-name="Udieresis" unicode="&#xdc;" horiz-adv-x="903" 
d="M402 750h-130v102h130v-102zM632 750h-130v102h130v-102zM660 0h-416q-99 0 -146.5 47t-47.5 147v506h176v-470q0 -45 18 -63.5t64 -18.5h288q45 0 63.5 18.5t18.5 63.5v470h176v-506q0 -100 -47.5 -147t-146.5 -47z" />
    <glyph glyph-name="Yacute" unicode="&#xdd;" horiz-adv-x="872" 
d="M471 868h181l-145 -126h-140zM674 700h204l-354 -443v-257h-176v257l-354 443h213l234 -307z" />
    <glyph glyph-name="Thorn" unicode="&#xde;" horiz-adv-x="868" 
d="M232 600h434q92 0 133 -40.5t41 -133.5v-132q0 -93 -41 -133.5t-133 -40.5h-434v-120h-176v700h176v-100zM664 318v78q0 40 -14.5 55t-54.5 15h-363v-218h363q40 0 54.5 15t14.5 55z" />
    <glyph glyph-name="germandbls" unicode="&#xdf;" horiz-adv-x="810" 
d="M679 364q87 -21 87 -133v-81q0 -78 -36.5 -114t-113.5 -36h-237v128h164q31 0 43.5 12.5t12.5 43.5v65q0 31 -12.5 43.5t-43.5 12.5h-164v111h144q31 0 43.5 12.5t12.5 43.5v44q0 31 -12.5 43.5t-43.5 12.5h-245q-32 0 -44 -12t-12 -44v-516h-167v550q0 78 36.5 114
t113.5 36h391q77 0 113.5 -36t36.5 -114v-60q0 -99 -67 -126z" />
    <glyph glyph-name="agrave" unicode="&#xe0;" horiz-adv-x="794" 
d="M368 700l105 -126h-141l-144 126h180zM220 532h349q92 0 133 -40.5t41 -133.5v-358h-139l-15 64q-49 -43 -82 -53q-36 -11 -107 -11h-228q-126 0 -126 126v58q0 126 126 126h404v38q0 40 -15 54.5t-55 14.5h-219q-31 0 -43.5 -12.5t-12.5 -43.5v-15h-161v36
q0 78 36.5 114t113.5 36zM261 107h192q53 0 88 26l35 27v60h-315q-28 0 -38 -10.5t-10 -37.5v-17q0 -28 10 -38t38 -10z" />
    <glyph glyph-name="aacute" unicode="&#xe1;" horiz-adv-x="794" 
d="M439 700h181l-145 -126h-140zM220 532h349q92 0 133 -40.5t41 -133.5v-358h-139l-15 64q-49 -43 -82 -53q-36 -11 -107 -11h-228q-126 0 -126 126v58q0 126 126 126h404v38q0 40 -15 54.5t-55 14.5h-219q-31 0 -43.5 -12.5t-12.5 -43.5v-15h-161v36q0 78 36.5 114
t113.5 36zM261 107h192q53 0 88 26l35 27v60h-315q-28 0 -38 -10.5t-10 -37.5v-17q0 -28 10 -38t38 -10z" />
    <glyph glyph-name="acircumflex" unicode="&#xe2;" horiz-adv-x="794" 
d="M500 574l-96 62l-96 -62h-123l136 126h166l136 -126h-123zM220 532h349q92 0 133 -40.5t41 -133.5v-358h-139l-15 64q-49 -43 -82 -53q-36 -11 -107 -11h-228q-126 0 -126 126v58q0 126 126 126h404v38q0 40 -15 54.5t-55 14.5h-219q-31 0 -43.5 -12.5t-12.5 -43.5v-15
h-161v36q0 78 36.5 114t113.5 36zM261 107h192q53 0 88 26l35 27v60h-315q-28 0 -38 -10.5t-10 -37.5v-17q0 -28 10 -38t38 -10z" />
    <glyph glyph-name="atilde" unicode="&#xe3;" horiz-adv-x="794" 
d="M293 630v-56h-96v77q0 49 50 49h123q23 0 35.5 -5t26.5 -21l33 -34q10 -8 20 -8h19q11 0 11 12v56h96v-77q0 -49 -50 -49h-123q-23 0 -35.5 5t-26.5 21l-33 34q-10 8 -20 8h-19q-11 0 -11 -12zM220 532h349q92 0 133 -40.5t41 -133.5v-358h-139l-15 64q-49 -43 -82 -53
q-36 -11 -107 -11h-228q-126 0 -126 126v58q0 126 126 126h404v38q0 40 -15 54.5t-55 14.5h-219q-31 0 -43.5 -12.5t-12.5 -43.5v-15h-161v36q0 78 36.5 114t113.5 36zM261 107h192q53 0 88 26l35 27v60h-315q-28 0 -38 -10.5t-10 -37.5v-17q0 -28 10 -38t38 -10z" />
    <glyph glyph-name="adieresis" unicode="&#xe4;" horiz-adv-x="794" 
d="M224 684h130v-102h-130v102zM454 684h130v-102h-130v102zM220 532h349q92 0 133 -40.5t41 -133.5v-358h-139l-15 64q-49 -43 -82 -53q-36 -11 -107 -11h-228q-126 0 -126 126v58q0 126 126 126h404v38q0 40 -15 54.5t-55 14.5h-219q-31 0 -43.5 -12.5t-12.5 -43.5v-15
h-161v36q0 78 36.5 114t113.5 36zM261 107h192q53 0 88 26l35 27v60h-315q-28 0 -38 -10.5t-10 -37.5v-17q0 -28 10 -38t38 -10z" />
    <glyph glyph-name="aring" unicode="&#xe5;" horiz-adv-x="794" 
d="M509 564h-210q-29 0 -42 13t-13 42v26q0 29 13 42t42 13h210q29 0 42 -13t13 -42v-26q0 -29 -13 -42t-42 -13zM308 639v-14q0 -11 3.5 -15t14.5 -4h156q11 0 14.5 4t3.5 15v14q0 11 -3.5 15t-14.5 4h-156q-11 0 -14.5 -4t-3.5 -15zM220 532h349q92 0 133 -40.5t41 -133.5
v-358h-139l-15 64q-49 -43 -82 -53q-36 -11 -107 -11h-228q-126 0 -126 126v58q0 126 126 126h404v38q0 40 -15 54.5t-55 14.5h-219q-31 0 -43.5 -12.5t-12.5 -43.5v-15h-161v36q0 78 36.5 114t113.5 36zM261 107h192q53 0 88 26l35 27v60h-315q-28 0 -38 -10.5t-10 -37.5
v-17q0 -28 10 -38t38 -10z" />
    <glyph glyph-name="ae" unicode="&#xe6;" horiz-adv-x="1319" 
d="M782 532h317q92 0 133 -40.5t41 -133.5v-119h-530v-44q0 -40 14.5 -54.5t54.5 -14.5h243q31 0 43.5 12t12.5 44v14h162v-46q0 -78 -36.5 -114t-113.5 -36h-352q-109 0 -146 57q-41 -36 -77 -47q-33 -10 -104 -10h-272q-126 0 -126 126v58q0 126 126 126h404v38
q0 40 -15 54.5t-55 14.5h-219q-31 0 -43.5 -12.5t-12.5 -43.5v-15h-161v36q0 78 36.5 114t113.5 36h317q89 0 123 -45q33 45 122 45zM743 347v-10h368v10q0 40 -14.5 54.5t-54.5 14.5h-230q-40 0 -54.5 -14.5t-14.5 -54.5zM541 133l35 27v60h-315q-28 0 -38 -10.5t-10 -37.5
v-17q0 -28 10 -38t38 -10h192q53 0 88 26z" />
    <glyph glyph-name="ccedilla" unicode="&#xe7;" horiz-adv-x="772" 
d="M726 358v-45h-160v20q0 40 -15 54.5t-55 14.5h-214q-40 0 -55 -14.5t-15 -54.5v-134q0 -40 15 -54.5t55 -14.5h214q40 0 55 14.5t15 54.5v26h160v-51q0 -93 -41 -133.5t-133 -40.5h-149l-9 -26h84q29 0 41.5 -12.5t12.5 -41.5v-26q0 -29 -12.5 -41.5t-41.5 -12.5h-202v53
h163q11 0 11 11v11q0 11 -11 11h-115v24l17 50h-121q-92 0 -133 40.5t-41 133.5v184q0 93 41 133.5t133 40.5h332q92 0 133 -40.5t41 -133.5z" />
    <glyph glyph-name="egrave" unicode="&#xe8;" horiz-adv-x="789" 
d="M358 700l105 -126h-141l-144 126h180zM220 532h349q92 0 133 -40.5t41 -133.5v-119h-530v-44q0 -40 15 -54.5t55 -14.5h243q31 0 43.5 12.5t12.5 43.5v14h161v-46q0 -78 -36.5 -114t-113.5 -36h-373q-92 0 -133 40.5t-41 133.5v184q0 93 41 133.5t133 40.5zM213 347v-10
h369v10q0 40 -15 54.5t-55 14.5h-229q-40 0 -55 -14.5t-15 -54.5z" />
    <glyph glyph-name="eacute" unicode="&#xe9;" horiz-adv-x="789" 
d="M429 700h181l-145 -126h-140zM220 532h349q92 0 133 -40.5t41 -133.5v-119h-530v-44q0 -40 15 -54.5t55 -14.5h243q31 0 43.5 12.5t12.5 43.5v14h161v-46q0 -78 -36.5 -114t-113.5 -36h-373q-92 0 -133 40.5t-41 133.5v184q0 93 41 133.5t133 40.5zM213 347v-10h369v10
q0 40 -15 54.5t-55 14.5h-229q-40 0 -55 -14.5t-15 -54.5z" />
    <glyph glyph-name="ecircumflex" unicode="&#xea;" horiz-adv-x="789" 
d="M490 574l-96 62l-96 -62h-123l136 126h166l136 -126h-123zM220 532h349q92 0 133 -40.5t41 -133.5v-119h-530v-44q0 -40 15 -54.5t55 -14.5h243q31 0 43.5 12.5t12.5 43.5v14h161v-46q0 -78 -36.5 -114t-113.5 -36h-373q-92 0 -133 40.5t-41 133.5v184q0 93 41 133.5
t133 40.5zM213 347v-10h369v10q0 40 -15 54.5t-55 14.5h-229q-40 0 -55 -14.5t-15 -54.5z" />
    <glyph glyph-name="edieresis" unicode="&#xeb;" horiz-adv-x="789" 
d="M214 684h130v-102h-130v102zM444 684h130v-102h-130v102zM220 532h349q92 0 133 -40.5t41 -133.5v-119h-530v-44q0 -40 15 -54.5t55 -14.5h243q31 0 43.5 12.5t12.5 43.5v14h161v-46q0 -78 -36.5 -114t-113.5 -36h-373q-92 0 -133 40.5t-41 133.5v184q0 93 41 133.5
t133 40.5zM213 347v-10h369v10q0 40 -15 54.5t-55 14.5h-229q-40 0 -55 -14.5t-15 -54.5z" />
    <glyph glyph-name="igrave" unicode="&#xec;" horiz-adv-x="286" 
d="M212 574h-141l-144 126h180zM228 0h-169v532h169v-532z" />
    <glyph glyph-name="iacute" unicode="&#xed;" horiz-adv-x="286" 
d="M359 700l-145 -126h-140l104 126h181zM228 0h-169v532h169v-532z" />
    <glyph glyph-name="icircumflex" unicode="&#xee;" horiz-adv-x="286" 
d="M47 574h-123l136 126h166l136 -126h-123l-96 62zM228 0h-169v532h169v-532z" />
    <glyph glyph-name="idieresis" unicode="&#xef;" horiz-adv-x="286" 
d="M93 582h-130v102h130v-102zM323 582h-130v102h130v-102zM228 0h-169v532h169v-532z" />
    <glyph glyph-name="eth" unicode="&#xf0;" horiz-adv-x="799" 
d="M471 700h88q99 0 146.5 -47t47.5 -147v-356q0 -78 -36.5 -114t-113.5 -36h-407q-77 0 -113.5 36t-36.5 114v137q0 78 36.5 114t113.5 36h286q76 0 104 -36v93q0 46 -18.5 64t-63.5 18h-119l-41 -60h-94l41 60h-165v124h251l41 60h94zM586 180v82q0 31 -12.5 43.5
t-43.5 12.5h-261q-31 0 -43.5 -12.5t-12.5 -43.5v-82q0 -31 12.5 -43.5t43.5 -12.5h261q31 0 43.5 12.5t12.5 43.5z" />
    <glyph glyph-name="ntilde" unicode="&#xf1;" horiz-adv-x="802" 
d="M290 630v-56h-96v77q0 49 50 49h123q23 0 35.5 -5t26.5 -21l33 -34q10 -8 20 -8h19q11 0 11 12v56h96v-77q0 -49 -50 -49h-123q-23 0 -35.5 5t-26.5 21l-33 34q-10 8 -20 8h-19q-11 0 -11 -12zM410 532h167q92 0 133 -40.5t41 -133.5v-358h-167v330q0 40 -14.5 54.5
t-54.5 14.5h-159q-66 0 -104 -29l-31 -24v-346h-166v532h138l15 -67q50 41 89 55q38 12 113 12z" />
    <glyph glyph-name="ograve" unicode="&#xf2;" horiz-adv-x="798" 
d="M468 574h-141l-144 126h180zM578 0h-358q-92 0 -133 40.5t-41 133.5v184q0 93 41 133.5t133 40.5h358q92 0 133 -40.5t41 -133.5v-184q0 -93 -41 -133.5t-133 -40.5zM282 130h234q40 0 55 14.5t15 54.5v134q0 40 -15 54.5t-55 14.5h-234q-40 0 -55 -14.5t-15 -54.5v-134
q0 -40 15 -54.5t55 -14.5z" />
    <glyph glyph-name="oacute" unicode="&#xf3;" horiz-adv-x="798" 
d="M615 700l-145 -126h-140l104 126h181zM578 0h-358q-92 0 -133 40.5t-41 133.5v184q0 93 41 133.5t133 40.5h358q92 0 133 -40.5t41 -133.5v-184q0 -93 -41 -133.5t-133 -40.5zM282 130h234q40 0 55 14.5t15 54.5v134q0 40 -15 54.5t-55 14.5h-234q-40 0 -55 -14.5
t-15 -54.5v-134q0 -40 15 -54.5t55 -14.5z" />
    <glyph glyph-name="ocircumflex" unicode="&#xf4;" horiz-adv-x="798" 
d="M303 574h-123l136 126h166l136 -126h-123l-96 62zM578 0h-358q-92 0 -133 40.5t-41 133.5v184q0 93 41 133.5t133 40.5h358q92 0 133 -40.5t41 -133.5v-184q0 -93 -41 -133.5t-133 -40.5zM282 130h234q40 0 55 14.5t15 54.5v134q0 40 -15 54.5t-55 14.5h-234
q-40 0 -55 -14.5t-15 -54.5v-134q0 -40 15 -54.5t55 -14.5z" />
    <glyph glyph-name="otilde" unicode="&#xf5;" horiz-adv-x="798" 
d="M288 574h-96v77q0 49 50 49h123q23 0 35.5 -5t26.5 -21l33 -34q10 -8 20 -8h19q11 0 11 12v56h96v-77q0 -49 -50 -49h-123q-23 0 -35.5 5t-26.5 21l-33 34q-10 8 -20 8h-19q-11 0 -11 -12v-56zM578 0h-358q-92 0 -133 40.5t-41 133.5v184q0 93 41 133.5t133 40.5h358
q92 0 133 -40.5t41 -133.5v-184q0 -93 -41 -133.5t-133 -40.5zM282 130h234q40 0 55 14.5t15 54.5v134q0 40 -15 54.5t-55 14.5h-234q-40 0 -55 -14.5t-15 -54.5v-134q0 -40 15 -54.5t55 -14.5z" />
    <glyph glyph-name="odieresis" unicode="&#xf6;" horiz-adv-x="798" 
d="M349 582h-130v102h130v-102zM579 582h-130v102h130v-102zM578 0h-358q-92 0 -133 40.5t-41 133.5v184q0 93 41 133.5t133 40.5h358q92 0 133 -40.5t41 -133.5v-184q0 -93 -41 -133.5t-133 -40.5zM282 130h234q40 0 55 14.5t15 54.5v134q0 40 -15 54.5t-55 14.5h-234
q-40 0 -55 -14.5t-15 -54.5v-134q0 -40 15 -54.5t55 -14.5z" />
    <glyph glyph-name="divide" unicode="&#xf7;" 
d="M530 530h-196v138h196v-138zM62 280v140h740v-140h-740zM530 32h-196v138h196v-138z" />
    <glyph glyph-name="oslash" unicode="&#xf8;" horiz-adv-x="798" 
d="M782 566l-76 -70q46 -40 46 -138v-184q0 -93 -41 -133.5t-133 -40.5h-358q-36 0 -55 4l-42 -38h-107l76 70q-46 40 -46 138v184q0 93 41 133.5t133 40.5h358q36 0 55 -4l42 38h107zM198 343v-154q0 -32 10 -48l298 271h-238q-40 0 -55 -14.5t-15 -54.5zM600 189v154
q0 32 -10 48l-298 -271h238q40 0 55 14.5t15 54.5z" />
    <glyph glyph-name="ugrave" unicode="&#xf9;" horiz-adv-x="802" 
d="M364 700l105 -126h-141l-144 126h180zM581 532h166v-532h-138l-15 67q-51 -42 -89 -54q-36 -13 -113 -13h-167q-92 0 -133 40.5t-41 133.5v358h167v-330q0 -40 14.5 -54.5t54.5 -14.5h159q66 0 104 29l31 24v346z" />
    <glyph glyph-name="uacute" unicode="&#xfa;" horiz-adv-x="802" 
d="M435 700h181l-145 -126h-140zM581 532h166v-532h-138l-15 67q-51 -42 -89 -54q-36 -13 -113 -13h-167q-92 0 -133 40.5t-41 133.5v358h167v-330q0 -40 14.5 -54.5t54.5 -14.5h159q66 0 104 29l31 24v346z" />
    <glyph glyph-name="ucircumflex" unicode="&#xfb;" horiz-adv-x="802" 
d="M496 574l-96 62l-96 -62h-123l136 126h166l136 -126h-123zM581 532h166v-532h-138l-15 67q-51 -42 -89 -54q-36 -13 -113 -13h-167q-92 0 -133 40.5t-41 133.5v358h167v-330q0 -40 14.5 -54.5t54.5 -14.5h159q66 0 104 29l31 24v346z" />
    <glyph glyph-name="udieresis" unicode="&#xfc;" horiz-adv-x="802" 
d="M220 684h130v-102h-130v102zM450 684h130v-102h-130v102zM581 532h166v-532h-138l-15 67q-51 -42 -89 -54q-36 -13 -113 -13h-167q-92 0 -133 40.5t-41 133.5v358h167v-330q0 -40 14.5 -54.5t54.5 -14.5h159q66 0 104 29l31 24v346z" />
    <glyph glyph-name="yacute" unicode="&#xfd;" horiz-adv-x="778" 
d="M424 700h181l-145 -126h-140zM391 158l201 374h184l-317 -536q-53 -93 -108 -125q-55 -31 -163 -31h-132v130h143q43 0 65.5 10t40.5 39l-303 513h191z" />
    <glyph glyph-name="thorn" unicode="&#xfe;" horiz-adv-x="807" 
d="M410 532h177q92 0 133 -40.5t41 -133.5v-184q0 -93 -41 -133.5t-133 -40.5h-177q-69 0 -108 11q-38 11 -81 46v-217h-166v860h166v-225q44 37 81 47q36 10 108 10zM594 199v134q0 40 -14.5 54.5t-54.5 14.5h-169q-70 0 -104 -28l-31 -24v-168l31 -24q37 -28 104 -28h169
q40 0 54.5 14.5t14.5 54.5z" />
    <glyph glyph-name="ydieresis" unicode="&#xff;" horiz-adv-x="778" 
d="M209 684h130v-102h-130v102zM439 684h130v-102h-130v102zM391 158l201 374h184l-317 -536q-53 -93 -108 -125q-55 -31 -163 -31h-132v130h143q43 0 65.5 10t40.5 39l-303 513h191z" />
    <glyph glyph-name="Amacron" unicode="&#x100;" horiz-adv-x="940" 
d="M252 846h440v-80h-440v80zM945 0h-201l-65 131h-422l-65 -131h-192l374 700h197zM468 558l-145 -294h290z" />
    <glyph glyph-name="amacron" unicode="&#x101;" horiz-adv-x="794" 
d="M184 678h440v-80h-440v80zM220 532h349q92 0 133 -40.5t41 -133.5v-358h-139l-15 64q-49 -43 -82 -53q-36 -11 -107 -11h-228q-126 0 -126 126v58q0 126 126 126h404v38q0 40 -15 54.5t-55 14.5h-219q-31 0 -43.5 -12.5t-12.5 -43.5v-15h-161v36q0 78 36.5 114t113.5 36z
M261 107h192q53 0 88 26l35 27v60h-315q-28 0 -38 -10.5t-10 -37.5v-17q0 -28 10 -38t38 -10z" />
    <glyph glyph-name="Abreve" unicode="&#x102;" horiz-adv-x="940" 
d="M609 742h-274q-74 0 -74 74v52h114v-30q0 -28 28 -28h138q28 0 28 28v30h114v-52q0 -74 -74 -74zM945 0h-201l-65 131h-422l-65 -131h-192l374 700h197zM468 558l-145 -294h290z" />
    <glyph glyph-name="abreve" unicode="&#x103;" horiz-adv-x="794" 
d="M541 574h-274q-74 0 -74 74v52h114v-30q0 -28 28 -28h138q28 0 28 28v30h114v-52q0 -74 -74 -74zM220 532h349q92 0 133 -40.5t41 -133.5v-358h-139l-15 64q-49 -43 -82 -53q-36 -11 -107 -11h-228q-126 0 -126 126v58q0 126 126 126h404v38q0 40 -15 54.5t-55 14.5h-219
q-31 0 -43.5 -12.5t-12.5 -43.5v-15h-161v36q0 78 36.5 114t113.5 36zM261 107h192q53 0 88 26l35 27v60h-315q-28 0 -38 -10.5t-10 -37.5v-17q0 -28 10 -38t38 -10z" />
    <glyph glyph-name="Aogonek" unicode="&#x104;" horiz-adv-x="940" 
d="M804 -72h149v-88h-194q-82 0 -82 82v16q0 33 9 50.5t37 37.5l6 3l-50 102h-422l-65 -131h-192l374 700h197l374 -700h-133l-16 -9q-17 -11 -17 -28v-10q0 -25 25 -25zM468 558l-145 -294h290z" />
    <glyph glyph-name="aogonek" unicode="&#x105;" horiz-adv-x="789" 
d="M667 -72h99v-88h-144q-82 0 -82 82v16q0 33 9.5 51.5t37.5 36.5l9 6l-7 32q-49 -43 -82 -53q-36 -11 -107 -11h-228q-126 0 -126 126v58q0 126 126 126h404v38q0 40 -15 54.5t-55 14.5h-219q-31 0 -43.5 -12.5t-12.5 -43.5v-15h-161v36q0 78 36.5 114t113.5 36h349
q92 0 133 -40.5t41 -133.5v-358h-69l-14 -9q-18 -12 -18 -29v-9q0 -25 25 -25zM261 107h192q53 0 88 26l35 27v60h-315q-28 0 -38 -10.5t-10 -37.5v-17q0 -28 10 -38t38 -10z" />
    <glyph glyph-name="Cacute" unicode="&#x106;" horiz-adv-x="900" 
d="M666 868l-145 -126h-140l104 126h181zM661 0h-420q-99 0 -146.5 47t-47.5 147v312q0 100 47.5 147t146.5 47h420q99 0 146.5 -47t47.5 -147v-82h-170v50q0 46 -18 64t-64 18h-298q-45 0 -63.5 -18t-18.5 -64v-248q0 -46 18.5 -64t63.5 -18h298q46 0 64 18t18 64v57h170
v-89q0 -100 -47.5 -147t-146.5 -47z" />
    <glyph glyph-name="cacute" unicode="&#x107;" horiz-adv-x="772" 
d="M602 700l-145 -126h-140l104 126h181zM46 174v184q0 93 41 133.5t133 40.5h332q92 0 133 -40.5t41 -133.5v-45h-160v20q0 40 -15 54.5t-55 14.5h-214q-40 0 -55 -14.5t-15 -54.5v-134q0 -40 15 -54.5t55 -14.5h214q40 0 55 14.5t15 54.5v26h160v-51q0 -93 -41 -133.5
t-133 -40.5h-332q-92 0 -133 40.5t-41 133.5z" />
    <glyph glyph-name="Ccircumflex" unicode="&#x108;" horiz-adv-x="900" 
d="M354 742h-123l136 126h166l136 -126h-123l-96 62zM661 0h-420q-99 0 -146.5 47t-47.5 147v312q0 100 47.5 147t146.5 47h420q99 0 146.5 -47t47.5 -147v-82h-170v50q0 46 -18 64t-64 18h-298q-45 0 -63.5 -18t-18.5 -64v-248q0 -46 18.5 -64t63.5 -18h298q46 0 64 18
t18 64v57h170v-89q0 -100 -47.5 -147t-146.5 -47z" />
    <glyph glyph-name="ccircumflex" unicode="&#x109;" horiz-adv-x="772" 
d="M290 574h-123l136 126h166l136 -126h-123l-96 62zM46 174v184q0 93 41 133.5t133 40.5h332q92 0 133 -40.5t41 -133.5v-45h-160v20q0 40 -15 54.5t-55 14.5h-214q-40 0 -55 -14.5t-15 -54.5v-134q0 -40 15 -54.5t55 -14.5h214q40 0 55 14.5t15 54.5v26h160v-51
q0 -93 -41 -133.5t-133 -40.5h-332q-92 0 -133 40.5t-41 133.5z" />
    <glyph glyph-name="Cdotaccent" unicode="&#x10a;" horiz-adv-x="900" 
d="M535 750h-169v102h169v-102zM661 0h-420q-99 0 -146.5 47t-47.5 147v312q0 100 47.5 147t146.5 47h420q99 0 146.5 -47t47.5 -147v-82h-170v50q0 46 -18 64t-64 18h-298q-45 0 -63.5 -18t-18.5 -64v-248q0 -46 18.5 -64t63.5 -18h298q46 0 64 18t18 64v57h170v-89
q0 -100 -47.5 -147t-146.5 -47z" />
    <glyph glyph-name="cdotaccent" unicode="&#x10b;" horiz-adv-x="772" 
d="M471 582h-169v102h169v-102zM46 174v184q0 93 41 133.5t133 40.5h332q92 0 133 -40.5t41 -133.5v-45h-160v20q0 40 -15 54.5t-55 14.5h-214q-40 0 -55 -14.5t-15 -54.5v-134q0 -40 15 -54.5t55 -14.5h214q40 0 55 14.5t15 54.5v26h160v-51q0 -93 -41 -133.5t-133 -40.5
h-332q-92 0 -133 40.5t-41 133.5z" />
    <glyph glyph-name="Ccaron" unicode="&#x10c;" horiz-adv-x="900" 
d="M547 792h-54l-136 26h12l-13 15l97 35l122 -27zM661 0h-420q-99 0 -146.5 47t-47.5 147v312q0 100 47.5 147t146.5 47h420q99 0 146.5 -47t47.5 -147v-82h-170v50q0 46 -18 64t-64 18h-298q-45 0 -63.5 -18t-18.5 -64v-248q0 -46 18.5 -64t63.5 -18h298q46 0 64 18t18 64
v57h170v-89q0 -100 -47.5 -147t-146.5 -47z" />
    <glyph glyph-name="ccaron" unicode="&#x10d;" horiz-adv-x="772" 
d="M483 624h-54l-136 26h12l-13 15l97 35l122 -27zM46 174v184q0 93 41 133.5t133 40.5h332q92 0 133 -40.5t41 -133.5v-45h-160v20q0 40 -15 54.5t-55 14.5h-214q-40 0 -55 -14.5t-15 -54.5v-134q0 -40 15 -54.5t55 -14.5h214q40 0 55 14.5t15 54.5v26h160v-51
q0 -93 -41 -133.5t-133 -40.5h-332q-92 0 -133 40.5t-41 133.5z" />
    <glyph glyph-name="Dcaron" unicode="&#x10e;" horiz-adv-x="927" 
d="M562 792h-54l-136 26h12l-13 15l97 35l122 -27zM640 0h-584v700h584q117 0 178.5 -61t61.5 -179v-220q0 -118 -61.5 -179t-178.5 -61zM232 554v-408h368q104 0 104 104v200q0 104 -104 104h-368z" />
    <glyph glyph-name="dcaron" unicode="&#x10f;" horiz-adv-x="964" 
d="M586 475v225h166v-700h-138l-15 67q-49 -42 -89 -54q-38 -13 -114 -13h-176q-92 0 -133 40.5t-41 133.5v184q0 93 41 133.5t133 40.5h176q73 0 109 -10q37 -10 81 -47zM796 586v114h160v-57q0 -47 -27 -95l-38 -72h-85l50 110h-60zM282 130h169q68 0 103 28l32 24v168
l-32 24q-34 28 -103 28h-169q-40 0 -55 -14.5t-15 -54.5v-134q0 -40 15 -54.5t55 -14.5z" />
    <glyph glyph-name="Dcroat" unicode="&#x110;" horiz-adv-x="987" 
d="M116 700h584q117 0 178.5 -61t61.5 -179v-220q0 -118 -61.5 -179t-178.5 -61h-584v300h-88v100h88v300zM764 250v200q0 104 -104 104h-368v-154h266v-100h-266v-154h368q104 0 104 104z" />
    <glyph glyph-name="dslash" unicode="&#x111;" horiz-adv-x="848" 
d="M752 648h78v-74h-78v-574h-138l-15 67q-49 -42 -89 -54q-38 -13 -114 -13h-176q-92 0 -133 40.5t-41 133.5v184q0 93 41 133.5t133 40.5h176q73 0 109 -10q37 -10 81 -47v99h-228v74h228v52h166v-52zM282 130h169q68 0 103 28l32 24v168l-32 24q-34 28 -103 28h-169
q-40 0 -55 -14.5t-15 -54.5v-134q0 -40 15 -54.5t55 -14.5z" />
    <glyph glyph-name="Emacron" unicode="&#x112;" horiz-adv-x="807" 
d="M183 846h440v-80h-440v80zM233 295v-153h546v-142h-723v700h713v-142h-536v-133h496v-130h-496z" />
    <glyph glyph-name="emacron" unicode="&#x113;" horiz-adv-x="789" 
d="M174 678h440v-80h-440v80zM220 532h349q92 0 133 -40.5t41 -133.5v-119h-530v-44q0 -40 15 -54.5t55 -14.5h243q31 0 43.5 12.5t12.5 43.5v14h161v-46q0 -78 -36.5 -114t-113.5 -36h-373q-92 0 -133 40.5t-41 133.5v184q0 93 41 133.5t133 40.5zM213 347v-10h369v10
q0 40 -15 54.5t-55 14.5h-229q-40 0 -55 -14.5t-15 -54.5z" />
    <glyph glyph-name="Ebreve" unicode="&#x114;" horiz-adv-x="807" 
d="M540 742h-274q-74 0 -74 74v52h114v-30q0 -28 28 -28h138q28 0 28 28v30h114v-52q0 -74 -74 -74zM233 295v-153h546v-142h-723v700h713v-142h-536v-133h496v-130h-496z" />
    <glyph glyph-name="ebreve" unicode="&#x115;" horiz-adv-x="789" 
d="M531 574h-274q-74 0 -74 74v52h114v-30q0 -28 28 -28h138q28 0 28 28v30h114v-52q0 -74 -74 -74zM220 532h349q92 0 133 -40.5t41 -133.5v-119h-530v-44q0 -40 15 -54.5t55 -14.5h243q31 0 43.5 12.5t12.5 43.5v14h161v-46q0 -78 -36.5 -114t-113.5 -36h-373
q-92 0 -133 40.5t-41 133.5v184q0 93 41 133.5t133 40.5zM213 347v-10h369v10q0 40 -15 54.5t-55 14.5h-229q-40 0 -55 -14.5t-15 -54.5z" />
    <glyph glyph-name="Edotaccent" unicode="&#x116;" horiz-adv-x="807" 
d="M319 852h169v-102h-169v102zM233 295v-153h546v-142h-723v700h713v-142h-536v-133h496v-130h-496z" />
    <glyph glyph-name="edotaccent" unicode="&#x117;" horiz-adv-x="789" 
d="M310 684h169v-102h-169v102zM220 532h349q92 0 133 -40.5t41 -133.5v-119h-530v-44q0 -40 15 -54.5t55 -14.5h243q31 0 43.5 12.5t12.5 43.5v14h161v-46q0 -78 -36.5 -114t-113.5 -36h-373q-92 0 -133 40.5t-41 133.5v184q0 93 41 133.5t133 40.5zM213 347v-10h369v10
q0 40 -15 54.5t-55 14.5h-229q-40 0 -55 -14.5t-15 -54.5z" />
    <glyph glyph-name="Eogonek" unicode="&#x118;" horiz-adv-x="807" 
d="M610 0l-16 -9q-17 -11 -17 -28v-10q0 -25 25 -25h149v-88h-194q-82 0 -82 82v16q0 42 16 62h-435v700h713v-142h-536v-133h496v-130h-496v-153h546v-142h-169z" />
    <glyph glyph-name="eogonek" unicode="&#x119;" horiz-adv-x="789" 
d="M220 532h349q92 0 133 -40.5t41 -133.5v-119h-530v-44q0 -40 15 -54.5t55 -14.5h243q31 0 43.5 12.5t12.5 43.5v14h161v-46q0 -78 -36.5 -114t-113.5 -36h-139l-16 -9q-17 -11 -17 -28v-10q0 -25 25 -25h149v-88h-194q-82 0 -82 82v16q0 42 16 62h-115q-92 0 -133 40.5
t-41 133.5v184q0 93 41 133.5t133 40.5zM213 347v-10h369v10q0 40 -15 54.5t-55 14.5h-229q-40 0 -55 -14.5t-15 -54.5z" />
    <glyph glyph-name="Ecaron" unicode="&#x11a;" horiz-adv-x="807" 
d="M446 792l-136 26h12l-13 15l97 35l122 -27l-28 -49h-54zM233 295v-153h546v-142h-723v700h713v-142h-536v-133h496v-130h-496z" />
    <glyph glyph-name="ecaron" unicode="&#x11b;" horiz-adv-x="789" 
d="M437 624l-136 26h12l-13 15l97 35l122 -27l-28 -49h-54zM220 532h349q92 0 133 -40.5t41 -133.5v-119h-530v-44q0 -40 15 -54.5t55 -14.5h243q31 0 43.5 12.5t12.5 43.5v14h161v-46q0 -78 -36.5 -114t-113.5 -36h-373q-92 0 -133 40.5t-41 133.5v184q0 93 41 133.5
t133 40.5zM213 347v-10h369v10q0 40 -15 54.5t-55 14.5h-229q-40 0 -55 -14.5t-15 -54.5z" />
    <glyph glyph-name="Gcircumflex" unicode="&#x11c;" horiz-adv-x="929" 
d="M368 742h-123l136 126h166l136 -126h-123l-96 62zM47 194v312q0 100 47.5 147t146.5 47h447q99 0 146.5 -47t47.5 -147v-47h-177v17q0 45 -18 63.5t-64 18.5h-317q-46 0 -64 -18.5t-18 -63.5v-256q0 -45 18 -63.5t64 -18.5h323q46 0 64 18.5t18 63.5v40h-238v130h409
v-196q0 -100 -47.5 -147t-146.5 -47h-447q-99 0 -146.5 47t-47.5 147z" />
    <glyph glyph-name="gcircumflex" unicode="&#x11d;" horiz-adv-x="808" 
d="M499 574l-96 62l-96 -62h-123l136 126h166l136 -126h-123zM599 465l15 67h139v-498q0 -100 -47.5 -147t-146.5 -47h-493v120h438q45 0 63.5 18t18.5 64v56q-46 -37 -83 -47q-41 -11 -107 -11h-176q-92 0 -133 40.5t-41 133.5v144q0 93 41 133.5t133 40.5h176
q72 0 113 -12q41 -14 90 -55zM555 194l31 24v135l-31 25q-35 28 -105 28h-168q-40 0 -54.5 -14.5t-14.5 -54.5v-102q0 -40 14.5 -55t54.5 -15h168q67 0 105 29z" />
    <glyph glyph-name="Gbreve" unicode="&#x11e;" horiz-adv-x="929" 
d="M601 742h-274q-74 0 -74 74v52h114v-30q0 -28 28 -28h138q28 0 28 28v30h114v-52q0 -74 -74 -74zM47 194v312q0 100 47.5 147t146.5 47h447q99 0 146.5 -47t47.5 -147v-47h-177v17q0 45 -18 63.5t-64 18.5h-317q-46 0 -64 -18.5t-18 -63.5v-256q0 -45 18 -63.5t64 -18.5
h323q46 0 64 18.5t18 63.5v40h-238v130h409v-196q0 -100 -47.5 -147t-146.5 -47h-447q-99 0 -146.5 47t-47.5 147z" />
    <glyph glyph-name="gbreve" unicode="&#x11f;" horiz-adv-x="808" 
d="M540 574h-274q-74 0 -74 74v52h114v-30q0 -28 28 -28h138q28 0 28 28v30h114v-52q0 -74 -74 -74zM599 465l15 67h139v-498q0 -100 -47.5 -147t-146.5 -47h-493v120h438q45 0 63.5 18t18.5 64v56q-46 -37 -83 -47q-41 -11 -107 -11h-176q-92 0 -133 40.5t-41 133.5v144
q0 93 41 133.5t133 40.5h176q72 0 113 -12q41 -14 90 -55zM555 194l31 24v135l-31 25q-35 28 -105 28h-168q-40 0 -54.5 -14.5t-14.5 -54.5v-102q0 -40 14.5 -55t54.5 -15h168q67 0 105 29z" />
    <glyph glyph-name="Gdotaccent" unicode="&#x120;" horiz-adv-x="929" 
d="M549 750h-169v102h169v-102zM47 194v312q0 100 47.5 147t146.5 47h447q99 0 146.5 -47t47.5 -147v-47h-177v17q0 45 -18 63.5t-64 18.5h-317q-46 0 -64 -18.5t-18 -63.5v-256q0 -45 18 -63.5t64 -18.5h323q46 0 64 18.5t18 63.5v40h-238v130h409v-196q0 -100 -47.5 -147
t-146.5 -47h-447q-99 0 -146.5 47t-47.5 147z" />
    <glyph glyph-name="gdotaccent" unicode="&#x121;" horiz-adv-x="808" 
d="M319 684h169v-102h-169v102zM599 465l15 67h139v-498q0 -100 -47.5 -147t-146.5 -47h-493v120h438q45 0 63.5 18t18.5 64v56q-46 -37 -83 -47q-41 -11 -107 -11h-176q-92 0 -133 40.5t-41 133.5v144q0 93 41 133.5t133 40.5h176q72 0 113 -12q41 -14 90 -55zM555 194
l31 24v135l-31 25q-35 28 -105 28h-168q-40 0 -54.5 -14.5t-14.5 -54.5v-102q0 -40 14.5 -55t54.5 -15h168q67 0 105 29z" />
    <glyph glyph-name="Gcommaaccent" unicode="&#x122;" horiz-adv-x="929" 
d="M47 194v312q0 100 47.5 147t146.5 47h447q99 0 146.5 -47t47.5 -147v-47h-177v17q0 45 -18 63.5t-64 18.5h-317q-46 0 -64 -18.5t-18 -63.5v-256q0 -45 18 -63.5t64 -18.5h323q46 0 64 18.5t18 63.5v40h-238v130h409v-196q0 -100 -47.5 -147t-146.5 -47h-447
q-99 0 -146.5 47t-47.5 147zM479 -214h-85l50 88h-60v96h160v-36q0 -29 -5 -47q-4 -14 -24 -43z" />
    <glyph glyph-name="gcommaaccent" unicode="&#x123;" horiz-adv-x="808" 
d="M425 670h56v-96h-156v36q0 28 5 46q4 14 23 44l35 58h85zM599 465l15 67h139v-498q0 -100 -47.5 -147t-146.5 -47h-493v120h438q45 0 63.5 18t18.5 64v56q-46 -37 -83 -47q-41 -11 -107 -11h-176q-92 0 -133 40.5t-41 133.5v144q0 93 41 133.5t133 40.5h176q72 0 113 -12
q41 -14 90 -55zM555 194l31 24v135l-31 25q-35 28 -105 28h-168q-40 0 -54.5 -14.5t-14.5 -54.5v-102q0 -40 14.5 -55t54.5 -15h168q67 0 105 29z" />
    <glyph glyph-name="Hcircumflex" unicode="&#x124;" horiz-adv-x="916" 
d="M554 742l-96 62l-96 -62h-123l136 126h166l136 -126h-123zM684 440v260h176v-700h-176v288h-452v-288h-176v700h176v-260h452z" />
    <glyph glyph-name="hcircumflex" unicode="&#x125;" horiz-adv-x="802" 
d="M357 742h-123l-96 62l-96 -62h-123l136 126h166zM416 532h161q92 0 133 -40.5t41 -133.5v-358h-167v330q0 40 -14.5 54.5t-54.5 14.5h-159q-66 0 -104 -29l-31 -24v-346h-166v700h166v-230q46 38 85 51q39 11 110 11z" />
    <glyph glyph-name="Hbar" unicode="&#x126;" horiz-adv-x="1036" 
d="M920 616h88v-91h-88v-525h-176v288h-452v-288h-176v525h-88v91h88v84h176v-84h452v84h176v-84zM292 440h452v85h-452v-85z" />
    <glyph glyph-name="hbar" unicode="&#x127;" horiz-adv-x="843" 
d="M461 532h161q92 0 133 -40.5t41 -133.5v-358h-167v330q0 40 -14.5 54.5t-54.5 14.5h-159q-66 0 -104 -29l-31 -24v-346h-166v574h-82v74h82v52h166v-52h224v-74h-224v-104q46 38 85 51q39 11 110 11z" />
    <glyph glyph-name="Itilde" unicode="&#x128;" horiz-adv-x="300" 
d="M39 742h-96v77q0 49 50 49h123q23 0 35.5 -5t26.5 -21l33 -34q10 -8 20 -8h19q11 0 11 12v56h96v-77q0 -49 -50 -49h-123q-23 0 -35.5 5t-26.5 21l-33 34q-10 8 -20 8h-19q-11 0 -11 -12v-56zM61 0v700h178v-700h-178z" />
    <glyph glyph-name="itilde" unicode="&#x129;" horiz-adv-x="286" 
d="M32 574h-96v77q0 49 50 49h123q23 0 35.5 -5t26.5 -21l33 -34q10 -8 20 -8h19q11 0 11 12v56h96v-77q0 -49 -50 -49h-123q-23 0 -35.5 5t-26.5 21l-33 34q-10 8 -20 8h-19q-11 0 -11 -12v-56zM228 0h-169v532h169v-532z" />
    <glyph glyph-name="Imacron" unicode="&#x12a;" horiz-adv-x="300" 
d="M370 766h-440v80h440v-80zM61 0v700h178v-700h-178z" />
    <glyph glyph-name="imacron" unicode="&#x12b;" horiz-adv-x="286" 
d="M363 598h-440v80h440v-80zM228 0h-169v532h169v-532z" />
    <glyph glyph-name="Ibreve" unicode="&#x12c;" horiz-adv-x="300" 
d="M287 742h-274q-74 0 -74 74v52h114v-30q0 -28 28 -28h138q28 0 28 28v30h114v-52q0 -74 -74 -74zM61 0v700h178v-700h-178z" />
    <glyph glyph-name="ibreve" unicode="&#x12d;" horiz-adv-x="286" 
d="M280 574h-274q-74 0 -74 74v52h114v-30q0 -28 28 -28h138q28 0 28 28v30h114v-52q0 -74 -74 -74zM228 0h-169v532h169v-532z" />
    <glyph glyph-name="Iogonek" unicode="&#x12e;" horiz-adv-x="300" 
d="M115 -72h149v-88h-194q-82 0 -82 82v16q0 33 9 50.5t37 37.5l27 15v659h178v-700h-116l-16 -9q-17 -11 -17 -28v-10q0 -25 25 -25z" />
    <glyph glyph-name="iogonek" unicode="&#x12f;" horiz-adv-x="286" 
d="M59 684h169v-102h-169v102zM102 -72h149v-88h-194q-82 0 -82 82v16q0 33 9 50.5t37 37.5l38 21v485h169v-532h-118l-16 -9q-17 -11 -17 -28v-10q0 -25 25 -25z" />
    <glyph glyph-name="Idot" unicode="&#x130;" horiz-adv-x="300" 
d="M239 750h-178v102h178v-102zM61 0v700h178v-700h-178z" />
    <glyph glyph-name="dotlessi" unicode="&#x131;" horiz-adv-x="286" 
d="M228 0h-169v532h169v-532z" />
    <glyph glyph-name="IJ" unicode="&#x132;" horiz-adv-x="1128" 
d="M61 0v700h178v-700h-178zM884 0h-362q-99 0 -146.5 47t-47.5 147v88h170v-56q0 -46 18 -64t64 -18h240q46 0 64 18t18 64v474h176v-506q0 -100 -47.5 -147t-146.5 -47z" />
    <glyph glyph-name="ij" unicode="&#x133;" horiz-adv-x="618" 
d="M229 582h-170v118h170v-118zM560 582h-170v118h170v-118zM229 0h-170v532h170v-532zM410 -160h-180v124h104q32 0 44 12t12 44v512h170v-542q0 -78 -36.5 -114t-113.5 -36z" />
    <glyph glyph-name="Jcircumflex" unicode="&#x134;" horiz-adv-x="828" 
d="M594 742h-123l136 126h166l136 -126h-123l-96 62zM584 0h-362q-99 0 -146.5 47t-47.5 147v88h170v-56q0 -46 18 -64t64 -18h240q46 0 64 18t18 64v474h176v-506q0 -100 -47.5 -147t-146.5 -47z" />
    <glyph glyph-name="jcircumflex" unicode="&#x135;" horiz-adv-x="326" 
d="M87 574h-123l136 126h166l136 -126h-123l-96 62zM118 -160h-180v124h105q31 0 43.5 12t12.5 44v512h169v-542q0 -78 -36.5 -114t-113.5 -36z" />
    <glyph glyph-name="Kcommaaccent" unicode="&#x136;" horiz-adv-x="884" 
d="M876 700l-428 -337l432 -363h-260l-387 340v-340h-177v700h177v-322l382 322h261zM400 -126h-60v96h160v-36q0 -29 -5 -47q-4 -14 -24 -43l-36 -58h-85z" />
    <glyph glyph-name="kcommaaccent" unicode="&#x137;" horiz-adv-x="780" 
d="M778 532l-349 -263l356 -269h-255l-307 247v-247h-168v700h168v-416l301 248h254zM353 -126h-60v96h160v-36q0 -29 -5 -47q-4 -14 -24 -43l-36 -58h-85z" />
    <glyph glyph-name="Lacute" unicode="&#x139;" horiz-adv-x="742" 
d="M179 868h181l-145 -126h-140zM232 700v-548h496v-152h-672v700h176z" />
    <glyph glyph-name="lacute" unicode="&#x13a;" horiz-adv-x="286" 
d="M359 868l-145 -126h-140l104 126h181zM228 0h-169v700h169v-700z" />
    <glyph glyph-name="Lcommaaccent" unicode="&#x13b;" horiz-adv-x="742" 
d="M232 700v-548h496v-152h-672v700h176zM351 -126h-60v96h160v-36q0 -29 -5 -47q-4 -14 -24 -43l-36 -58h-85z" />
    <glyph glyph-name="lcommaaccent" unicode="&#x13c;" horiz-adv-x="286" 
d="M228 0h-169v700h169v-700zM158 -214h-85l50 88h-60v96h160v-36q0 -29 -5 -47q-4 -14 -24 -43z" />
    <glyph glyph-name="Lcaron" unicode="&#x13d;" horiz-adv-x="742" 
d="M232 700v-548h496v-152h-672v700h176zM465 476h-85l50 110h-60v114h160v-57q0 -47 -27 -95z" />
    <glyph glyph-name="lcaron" unicode="&#x13e;" horiz-adv-x="444" 
d="M228 0h-169v700h169v-700zM370 476h-84l49 110h-59v114h160v-57q0 -47 -27 -95z" />
    <glyph glyph-name="Ldot" unicode="&#x13f;" horiz-adv-x="742" 
d="M232 700v-548h496v-152h-672v700h176zM386 508h196v-184h-196v184z" />
    <glyph glyph-name="ldot" unicode="&#x140;" horiz-adv-x="496" 
d="M228 0h-169v700h169v-700zM482 290h-196v184h196v-184z" />
    <glyph glyph-name="Lslash" unicode="&#x141;" horiz-adv-x="802" 
d="M292 339v-187h496v-152h-672v312l-88 -13v102l88 13v286h176v-259l318 48v-102z" />
    <glyph glyph-name="lslash" unicode="&#x142;" horiz-adv-x="369" 
d="M269 426l82 15v-102l-82 -15v-324h-169v294l-82 -15v102l82 15v304h169v-274z" />
    <glyph glyph-name="Nacute" unicode="&#x143;" horiz-adv-x="936" 
d="M499 868h181l-145 -126h-140zM710 227v473h170v-700h-142l-512 480v-480h-170v700h150z" />
    <glyph glyph-name="nacute" unicode="&#x144;" horiz-adv-x="802" 
d="M436 700h181l-145 -126h-140zM410 532h167q92 0 133 -40.5t41 -133.5v-358h-167v330q0 40 -14.5 54.5t-54.5 14.5h-159q-66 0 -104 -29l-31 -24v-346h-166v532h138l15 -67q50 41 89 55q38 12 113 12z" />
    <glyph glyph-name="Ncommaaccent" unicode="&#x145;" horiz-adv-x="936" 
d="M710 227v473h170v-700h-142l-512 480v-480h-170v700h150zM448 -126h-60v96h160v-36q0 -29 -5 -47q-4 -14 -24 -43l-36 -58h-85z" />
    <glyph glyph-name="ncommaaccent" unicode="&#x146;" horiz-adv-x="802" 
d="M410 532h167q92 0 133 -40.5t41 -133.5v-358h-167v330q0 40 -14.5 54.5t-54.5 14.5h-159q-66 0 -104 -29l-31 -24v-346h-166v532h138l15 -67q50 41 89 55q38 12 113 12zM381 -126h-60v96h160v-36q0 -29 -5 -47q-4 -14 -24 -43l-36 -58h-85z" />
    <glyph glyph-name="Ncaron" unicode="&#x147;" horiz-adv-x="936" 
d="M507 792l-136 26h12l-13 15l97 35l122 -27l-28 -49h-54zM710 227v473h170v-700h-142l-512 480v-480h-170v700h150z" />
    <glyph glyph-name="ncaron" unicode="&#x148;" horiz-adv-x="802" 
d="M444 624l-136 26h12l-13 15l97 35l122 -27l-28 -49h-54zM410 532h167q92 0 133 -40.5t41 -133.5v-358h-167v330q0 40 -14.5 54.5t-54.5 14.5h-159q-66 0 -104 -29l-31 -24v-346h-166v532h138l15 -67q50 41 89 55q38 12 113 12z" />
    <glyph glyph-name="Eng" unicode="&#x14a;" horiz-adv-x="936" 
d="M710 227v473h170v-676q0 -96 -44.5 -140t-139.5 -44h-164v122h106q40 0 55.5 13.5t16.5 50.5l-484 454v-480h-170v700h150z" />
    <glyph glyph-name="eng" unicode="&#x14b;" horiz-adv-x="798" 
d="M410 532h163q92 0 133 -40.5t41 -133.5v-368q0 -78 -36.5 -114t-113.5 -36h-151l2 124h76q32 0 44 12t12 44v310q0 40 -14.5 54.5t-54.5 14.5h-155q-66 0 -104 -29l-31 -24v-346h-166v532h138l15 -67q50 41 89 55q38 12 113 12z" />
    <glyph glyph-name="Omacron" unicode="&#x14c;" horiz-adv-x="928" 
d="M684 766h-440v80h440v-80zM687 0h-446q-99 0 -146.5 47t-47.5 147v312q0 100 47.5 147t146.5 47h446q99 0 146.5 -47t47.5 -147v-312q0 -100 -47.5 -147t-146.5 -47zM305 146h318q46 0 64 18.5t18 63.5v244q0 45 -18 63.5t-64 18.5h-318q-45 0 -63.5 -18.5t-18.5 -63.5
v-244q0 -45 18.5 -63.5t63.5 -18.5z" />
    <glyph glyph-name="omacron" unicode="&#x14d;" horiz-adv-x="798" 
d="M619 598h-440v80h440v-80zM578 0h-358q-92 0 -133 40.5t-41 133.5v184q0 93 41 133.5t133 40.5h358q92 0 133 -40.5t41 -133.5v-184q0 -93 -41 -133.5t-133 -40.5zM282 130h234q40 0 55 14.5t15 54.5v134q0 40 -15 54.5t-55 14.5h-234q-40 0 -55 -14.5t-15 -54.5v-134
q0 -40 15 -54.5t55 -14.5z" />
    <glyph glyph-name="Obreve" unicode="&#x14e;" horiz-adv-x="928" 
d="M601 742h-274q-74 0 -74 74v52h114v-30q0 -28 28 -28h138q28 0 28 28v30h114v-52q0 -74 -74 -74zM687 0h-446q-99 0 -146.5 47t-47.5 147v312q0 100 47.5 147t146.5 47h446q99 0 146.5 -47t47.5 -147v-312q0 -100 -47.5 -147t-146.5 -47zM305 146h318q46 0 64 18.5
t18 63.5v244q0 45 -18 63.5t-64 18.5h-318q-45 0 -63.5 -18.5t-18.5 -63.5v-244q0 -45 18.5 -63.5t63.5 -18.5z" />
    <glyph glyph-name="obreve" unicode="&#x14f;" horiz-adv-x="798" 
d="M536 574h-274q-74 0 -74 74v52h114v-30q0 -28 28 -28h138q28 0 28 28v30h114v-52q0 -74 -74 -74zM578 0h-358q-92 0 -133 40.5t-41 133.5v184q0 93 41 133.5t133 40.5h358q92 0 133 -40.5t41 -133.5v-184q0 -93 -41 -133.5t-133 -40.5zM282 130h234q40 0 55 14.5t15 54.5
v134q0 40 -15 54.5t-55 14.5h-234q-40 0 -55 -14.5t-15 -54.5v-134q0 -40 15 -54.5t55 -14.5z" />
    <glyph glyph-name="Ohungarumlaut" unicode="&#x150;" horiz-adv-x="928" 
d="M518 868l-117 -126h-135l83 126h169zM757 868l-117 -126h-135l83 126h169zM687 0h-446q-99 0 -146.5 47t-47.5 147v312q0 100 47.5 147t146.5 47h446q99 0 146.5 -47t47.5 -147v-312q0 -100 -47.5 -147t-146.5 -47zM305 146h318q46 0 64 18.5t18 63.5v244q0 45 -18 63.5
t-64 18.5h-318q-45 0 -63.5 -18.5t-18.5 -63.5v-244q0 -45 18.5 -63.5t63.5 -18.5z" />
    <glyph glyph-name="ohungarumlaut" unicode="&#x151;" horiz-adv-x="798" 
d="M453 700l-117 -126h-135l83 126h169zM692 700l-117 -126h-135l83 126h169zM578 0h-358q-92 0 -133 40.5t-41 133.5v184q0 93 41 133.5t133 40.5h358q92 0 133 -40.5t41 -133.5v-184q0 -93 -41 -133.5t-133 -40.5zM282 130h234q40 0 55 14.5t15 54.5v134q0 40 -15 54.5
t-55 14.5h-234q-40 0 -55 -14.5t-15 -54.5v-134q0 -40 15 -54.5t55 -14.5z" />
    <glyph glyph-name="OE" unicode="&#x152;" horiz-adv-x="1446" 
d="M872 295v-153h546v-142h-1177q-99 0 -146.5 47t-47.5 147v312q0 100 47.5 147t146.5 47h1167v-142h-536v-133h496v-130h-496zM306 146h389v408h-389q-46 0 -64 -18.5t-18 -63.5v-244q0 -45 18 -63.5t64 -18.5z" />
    <glyph glyph-name="oe" unicode="&#x153;" horiz-adv-x="1329" 
d="M792 532h317q92 0 133 -40.5t41 -133.5v-119h-530v-44q0 -40 14.5 -54.5t54.5 -14.5h243q31 0 43.5 12t12.5 44v14h162v-46q0 -78 -36.5 -114t-113.5 -36h-331q-100 0 -134 52q-36 -52 -134 -52h-314q-92 0 -133 40.5t-41 133.5v184q0 93 41 133.5t133 40.5h323
q91 0 125 -48q33 48 124 48zM753 347v-10h368v10q0 40 -14.5 54.5t-54.5 14.5h-230q-40 0 -54.5 -14.5t-14.5 -54.5zM585 199v134q0 40 -14.5 54.5t-54.5 14.5h-234q-40 0 -54.5 -14.5t-14.5 -54.5v-134q0 -40 14.5 -54.5t54.5 -14.5h234q40 0 54.5 14.5t14.5 54.5z" />
    <glyph glyph-name="Racute" unicode="&#x154;" horiz-adv-x="890" 
d="M480 868h181l-145 -126h-140zM674 256l196 -256h-201l-183 244h-254v-244h-176v700h610q92 0 133 -40.5t41 -133.5v-96q0 -90 -39.5 -131t-126.5 -43zM595 572h-363v-204h363q40 0 54.5 15t14.5 55v64q0 40 -14.5 55t-54.5 15z" />
    <glyph glyph-name="racute" unicode="&#x155;" horiz-adv-x="538" 
d="M308 700h181l-145 -126h-140zM404 532h120v-149h-168q-66 0 -104 -29l-31 -24v-330h-166v532h120l18 -75l4 3q50 45 92 59q36 13 115 13z" />
    <glyph glyph-name="Rcommaaccent" unicode="&#x156;" horiz-adv-x="890" 
d="M674 256l196 -256h-201l-183 244h-254v-244h-176v700h610q92 0 133 -40.5t41 -133.5v-96q0 -90 -39.5 -131t-126.5 -43zM595 572h-363v-204h363q40 0 54.5 15t14.5 55v64q0 40 -14.5 55t-54.5 15zM419 -126h-60v96h160v-36q0 -29 -5 -47q-4 -14 -24 -43l-36 -58h-85z" />
    <glyph glyph-name="rcommaaccent" unicode="&#x157;" horiz-adv-x="538" 
d="M404 532h120v-149h-168q-66 0 -104 -29l-31 -24v-330h-166v532h120l18 -75l4 3q50 45 92 59q36 13 115 13zM118 -126h-60v96h160v-36q0 -29 -5 -47q-4 -14 -24 -43l-36 -58h-85z" />
    <glyph glyph-name="Rcaron" unicode="&#x158;" horiz-adv-x="890" 
d="M488 792l-136 26h12l-13 15l97 35l122 -27l-28 -49h-54zM674 256l196 -256h-201l-183 244h-254v-244h-176v700h610q92 0 133 -40.5t41 -133.5v-96q0 -90 -39.5 -131t-126.5 -43zM595 572h-363v-204h363q40 0 54.5 15t14.5 55v64q0 40 -14.5 55t-54.5 15z" />
    <glyph glyph-name="rcaron" unicode="&#x159;" horiz-adv-x="538" 
d="M316 624l-136 26h12l-13 15l97 35l122 -27l-28 -49h-54zM404 532h120v-149h-168q-66 0 -104 -29l-31 -24v-330h-166v532h120l18 -75l4 3q50 45 92 59q36 13 115 13z" />
    <glyph glyph-name="Sacute" unicode="&#x15a;" horiz-adv-x="909" 
d="M670 868l-145 -126h-140l104 126h181zM47 150v66h171v-27q0 -31 12.5 -43.5t43.5 -12.5h355q31 0 43.5 12.5t12.5 43.5v31q0 30 -11.5 41.5t-44.5 14.5l-422 28q-80 6 -115 40.5t-35 109.5v96q0 78 36.5 114t113.5 36h491q77 0 113.5 -36t36.5 -114v-54h-171v15
q0 31 -12.5 43.5t-43.5 12.5h-331q-31 0 -43.5 -12.5t-12.5 -43.5v-13q0 -31 12 -42.5t44 -13.5l422 -28q80 -5 115 -39.5t35 -110.5v-114q0 -78 -36.5 -114t-113.5 -36h-515q-77 0 -113.5 36t-36.5 114z" />
    <glyph glyph-name="sacute" unicode="&#x15b;" horiz-adv-x="779" 
d="M605 700l-145 -126h-140l104 126h181zM46 122v52h161v-31q0 -17 7 -24t25 -7h295q18 0 25 7t7 24v30q0 17 -7 23.5t-25 8.5l-357 24q-121 7 -121 120v62q0 58 32 89.5t89 31.5h421q57 0 89 -32t32 -90v-46h-161v25q0 17 -7 24t-25 7h-271q-18 0 -25 -7t-7 -24v-11
q0 -18 6.5 -24.5t25.5 -8.5l357 -24q121 -7 121 -120v-80q0 -58 -32 -89.5t-89 -31.5h-445q-57 0 -89 32t-32 90z" />
    <glyph glyph-name="Scircumflex" unicode="&#x15c;" horiz-adv-x="909" 
d="M358 742h-123l136 126h166l136 -126h-123l-96 62zM47 150v66h171v-27q0 -31 12.5 -43.5t43.5 -12.5h355q31 0 43.5 12.5t12.5 43.5v31q0 30 -11.5 41.5t-44.5 14.5l-422 28q-80 6 -115 40.5t-35 109.5v96q0 78 36.5 114t113.5 36h491q77 0 113.5 -36t36.5 -114v-54h-171
v15q0 31 -12.5 43.5t-43.5 12.5h-331q-31 0 -43.5 -12.5t-12.5 -43.5v-13q0 -31 12 -42.5t44 -13.5l422 -28q80 -5 115 -39.5t35 -110.5v-114q0 -78 -36.5 -114t-113.5 -36h-515q-77 0 -113.5 36t-36.5 114z" />
    <glyph glyph-name="scircumflex" unicode="&#x15d;" horiz-adv-x="779" 
d="M293 574h-123l136 126h166l136 -126h-123l-96 62zM46 122v52h161v-31q0 -17 7 -24t25 -7h295q18 0 25 7t7 24v30q0 17 -7 23.5t-25 8.5l-357 24q-121 7 -121 120v62q0 58 32 89.5t89 31.5h421q57 0 89 -32t32 -90v-46h-161v25q0 17 -7 24t-25 7h-271q-18 0 -25 -7t-7 -24
v-11q0 -18 6.5 -24.5t25.5 -8.5l357 -24q121 -7 121 -120v-80q0 -58 -32 -89.5t-89 -31.5h-445q-57 0 -89 32t-32 90z" />
    <glyph glyph-name="Scedilla" unicode="&#x15e;" horiz-adv-x="909" 
d="M290 442l422 -28q80 -5 115 -39.5t35 -110.5v-114q0 -78 -36.5 -114t-113.5 -36h-241l-9 -26h84q29 0 41.5 -12.5t12.5 -41.5v-26q0 -29 -12.5 -41.5t-41.5 -12.5h-202v53h163q11 0 11 11v11q0 11 -11 11h-115v24l17 50h-212q-77 0 -113.5 36t-36.5 114v66h171v-27
q0 -31 12.5 -43.5t43.5 -12.5h355q31 0 43.5 12.5t12.5 43.5v31q0 30 -11.5 41.5t-44.5 14.5l-422 28q-80 6 -115 40.5t-35 109.5v96q0 78 36.5 114t113.5 36h491q77 0 113.5 -36t36.5 -114v-54h-171v15q0 31 -12.5 43.5t-43.5 12.5h-331q-31 0 -43.5 -12.5t-12.5 -43.5v-13
q0 -31 12 -42.5t44 -13.5z" />
    <glyph glyph-name="scedilla" unicode="&#x15f;" horiz-adv-x="779" 
d="M255 345l357 -24q121 -7 121 -120v-80q0 -58 -32 -89.5t-89 -31.5h-206l-9 -26h84q29 0 41.5 -12.5t12.5 -41.5v-26q0 -29 -12.5 -41.5t-41.5 -12.5h-202v53h163q11 0 11 11v11q0 11 -11 11h-115v24l17 50h-177q-57 0 -89 32t-32 90v52h161v-31q0 -17 7 -24t25 -7h295
q18 0 25 7t7 24v30q0 17 -7 23.5t-25 8.5l-357 24q-121 7 -121 120v62q0 58 32 89.5t89 31.5h421q57 0 89 -32t32 -90v-46h-161v25q0 17 -7 24t-25 7h-271q-18 0 -25 -7t-7 -24v-11q0 -18 6.5 -24.5t25.5 -8.5z" />
    <glyph glyph-name="Scaron" unicode="&#x160;" horiz-adv-x="909" 
d="M551 792h-54l-136 26h12l-13 15l97 35l122 -27zM47 150v66h171v-27q0 -31 12.5 -43.5t43.5 -12.5h355q31 0 43.5 12.5t12.5 43.5v31q0 30 -11.5 41.5t-44.5 14.5l-422 28q-80 6 -115 40.5t-35 109.5v96q0 78 36.5 114t113.5 36h491q77 0 113.5 -36t36.5 -114v-54h-171v15
q0 31 -12.5 43.5t-43.5 12.5h-331q-31 0 -43.5 -12.5t-12.5 -43.5v-13q0 -31 12 -42.5t44 -13.5l422 -28q80 -5 115 -39.5t35 -110.5v-114q0 -78 -36.5 -114t-113.5 -36h-515q-77 0 -113.5 36t-36.5 114z" />
    <glyph glyph-name="scaron" unicode="&#x161;" horiz-adv-x="779" 
d="M486 624h-54l-136 26h12l-13 15l97 35l122 -27zM46 122v52h161v-31q0 -17 7 -24t25 -7h295q18 0 25 7t7 24v30q0 17 -7 23.5t-25 8.5l-357 24q-121 7 -121 120v62q0 58 32 89.5t89 31.5h421q57 0 89 -32t32 -90v-46h-161v25q0 17 -7 24t-25 7h-271q-18 0 -25 -7t-7 -24
v-11q0 -18 6.5 -24.5t25.5 -8.5l357 -24q121 -7 121 -120v-80q0 -58 -32 -89.5t-89 -31.5h-445q-57 0 -89 32t-32 90z" />
    <glyph glyph-name="uni0162" unicode="&#x162;" horiz-adv-x="808" 
d="M492 548v-548h-71l-9 -26h84q29 0 41.5 -12.5t12.5 -41.5v-26q0 -29 -12.5 -41.5t-41.5 -12.5h-202v53h163q11 0 11 11v11q0 11 -11 11h-115v24l17 50h-43v548h-302v152h780v-152h-302z" />
    <glyph glyph-name="uni0163" unicode="&#x163;" horiz-adv-x="622" 
d="M598 532v-127h-276v-219q0 -31 12.5 -43.5t43.5 -12.5h220v-130h-234l-9 -26h84q29 0 41.5 -12.5t12.5 -41.5v-26q0 -29 -12.5 -41.5t-41.5 -12.5h-202v53h163q11 0 11 11v11q0 11 -11 11h-115v24l17 50q-75 1 -110.5 37t-35.5 113v255h-142v127h142l33 120h133v-120h276
z" />
    <glyph glyph-name="Tcaron" unicode="&#x164;" horiz-adv-x="808" 
d="M447 792l-136 26h12l-13 15l97 35l122 -27l-28 -49h-54zM14 700h780v-152h-302v-548h-176v548h-302v152z" />
    <glyph glyph-name="tcaron" unicode="&#x165;" horiz-adv-x="643" 
d="M506 570h-89l47 88h-55v96h160v-36q0 -28 -5 -45q-4 -15 -23 -45zM598 532v-127h-276v-219q0 -31 12.5 -43.5t43.5 -12.5h220v-130h-292q-77 0 -113.5 36t-36.5 114v255h-142v127h142l33 120h133v-120h276z" />
    <glyph glyph-name="Tbar" unicode="&#x166;" horiz-adv-x="812" 
d="M794 700v-152h-302v-183h202v-102h-202v-263h-176v263h-198v102h198v183h-302v152h780z" />
    <glyph glyph-name="tbar" unicode="&#x167;" horiz-adv-x="623" 
d="M323 652v-206h276v-150h-276v-109q0 -31 12.5 -43.5t43.5 -12.5h220v-131h-293q-77 0 -113.5 36t-36.5 114v146h-142v150h142v86l33 120h134z" />
    <glyph glyph-name="Utilde" unicode="&#x168;" horiz-adv-x="903" 
d="M341 742h-96v77q0 49 50 49h123q23 0 35.5 -5t26.5 -21l33 -34q10 -8 20 -8h19q11 0 11 12v56h96v-77q0 -49 -50 -49h-123q-23 0 -35.5 5t-26.5 21l-33 34q-10 8 -20 8h-19q-11 0 -11 -12v-56zM660 0h-416q-99 0 -146.5 47t-47.5 147v506h176v-470q0 -45 18 -63.5
t64 -18.5h288q45 0 63.5 18.5t18.5 63.5v470h176v-506q0 -100 -47.5 -147t-146.5 -47z" />
    <glyph glyph-name="utilde" unicode="&#x169;" horiz-adv-x="802" 
d="M289 630v-56h-96v77q0 49 50 49h123q23 0 35.5 -5t26.5 -21l33 -34q10 -8 20 -8h19q11 0 11 12v56h96v-77q0 -49 -50 -49h-123q-23 0 -35.5 5t-26.5 21l-33 34q-10 8 -20 8h-19q-11 0 -11 -12zM581 532h166v-532h-138l-15 67q-51 -42 -89 -54q-36 -13 -113 -13h-167
q-92 0 -133 40.5t-41 133.5v358h167v-330q0 -40 14.5 -54.5t54.5 -14.5h159q66 0 104 29l31 24v346z" />
    <glyph glyph-name="Umacron" unicode="&#x16a;" horiz-adv-x="903" 
d="M672 766h-440v80h440v-80zM660 0h-416q-99 0 -146.5 47t-47.5 147v506h176v-470q0 -45 18 -63.5t64 -18.5h288q45 0 63.5 18.5t18.5 63.5v470h176v-506q0 -100 -47.5 -147t-146.5 -47z" />
    <glyph glyph-name="umacron" unicode="&#x16b;" horiz-adv-x="802" 
d="M180 678h440v-80h-440v80zM581 532h166v-532h-138l-15 67q-51 -42 -89 -54q-36 -13 -113 -13h-167q-92 0 -133 40.5t-41 133.5v358h167v-330q0 -40 14.5 -54.5t54.5 -14.5h159q66 0 104 29l31 24v346z" />
    <glyph glyph-name="Ubreve" unicode="&#x16c;" horiz-adv-x="903" 
d="M589 742h-274q-74 0 -74 74v52h114v-30q0 -28 28 -28h138q28 0 28 28v30h114v-52q0 -74 -74 -74zM660 0h-416q-99 0 -146.5 47t-47.5 147v506h176v-470q0 -45 18 -63.5t64 -18.5h288q45 0 63.5 18.5t18.5 63.5v470h176v-506q0 -100 -47.5 -147t-146.5 -47z" />
    <glyph glyph-name="ubreve" unicode="&#x16d;" horiz-adv-x="802" 
d="M537 574h-274q-74 0 -74 74v52h114v-30q0 -28 28 -28h138q28 0 28 28v30h114v-52q0 -74 -74 -74zM581 532h166v-532h-138l-15 67q-51 -42 -89 -54q-36 -13 -113 -13h-167q-92 0 -133 40.5t-41 133.5v358h167v-330q0 -40 14.5 -54.5t54.5 -14.5h159q66 0 104 29l31 24v346
z" />
    <glyph glyph-name="Uring" unicode="&#x16e;" horiz-adv-x="903" 
d="M292 787v26q0 29 13 42t42 13h210q29 0 42 -13t13 -42v-26q0 -29 -13 -42t-42 -13h-210q-29 0 -42 13t-13 42zM356 807v-14q0 -11 3.5 -15t14.5 -4h156q11 0 14.5 4t3.5 15v14q0 11 -3.5 15t-14.5 4h-156q-11 0 -14.5 -4t-3.5 -15zM660 0h-416q-99 0 -146.5 47t-47.5 147
v506h176v-470q0 -45 18 -63.5t64 -18.5h288q45 0 63.5 18.5t18.5 63.5v470h176v-506q0 -100 -47.5 -147t-146.5 -47z" />
    <glyph glyph-name="uring" unicode="&#x16f;" horiz-adv-x="802" 
d="M505 564h-210q-29 0 -42 13t-13 42v26q0 29 13 42t42 13h210q29 0 42 -13t13 -42v-26q0 -29 -13 -42t-42 -13zM304 639v-14q0 -11 3.5 -15t14.5 -4h156q11 0 14.5 4t3.5 15v14q0 11 -3.5 15t-14.5 4h-156q-11 0 -14.5 -4t-3.5 -15zM581 532h166v-532h-138l-15 67
q-51 -42 -89 -54q-36 -13 -113 -13h-167q-92 0 -133 40.5t-41 133.5v358h167v-330q0 -40 14.5 -54.5t54.5 -14.5h159q66 0 104 29l31 24v346z" />
    <glyph glyph-name="Uhungarumlaut" unicode="&#x170;" horiz-adv-x="903" 
d="M506 868l-117 -126h-135l83 126h169zM745 868l-117 -126h-135l83 126h169zM660 0h-416q-99 0 -146.5 47t-47.5 147v506h176v-470q0 -45 18 -63.5t64 -18.5h288q45 0 63.5 18.5t18.5 63.5v470h176v-506q0 -100 -47.5 -147t-146.5 -47z" />
    <glyph glyph-name="uhungarumlaut" unicode="&#x171;" horiz-adv-x="802" 
d="M285 700h169l-117 -126h-135zM693 700l-117 -126h-135l83 126h169zM581 532h166v-532h-138l-15 67q-51 -42 -89 -54q-36 -13 -113 -13h-167q-92 0 -133 40.5t-41 133.5v358h167v-330q0 -40 14.5 -54.5t54.5 -14.5h159q66 0 104 29l31 24v346z" />
    <glyph glyph-name="Uogonek" unicode="&#x172;" horiz-adv-x="903" 
d="M678 230v470h176v-506q0 -100 -47.5 -147t-146.5 -47h-110l-16 -9q-17 -11 -17 -28v-10q0 -25 25 -25h149v-88h-194q-82 0 -82 82v16q0 42 16 62h-187q-99 0 -146.5 47t-47.5 147v506h176v-470q0 -45 18 -63.5t64 -18.5h288q45 0 63.5 18.5t18.5 63.5z" />
    <glyph glyph-name="uogonek" unicode="&#x173;" horiz-adv-x="802" 
d="M670 -72h99v-88h-144q-82 0 -82 82v16q0 33 9.5 51.5t37.5 36.5l11 7l-7 34q-51 -42 -89 -54q-36 -13 -113 -13h-167q-92 0 -133 40.5t-41 133.5v358h167v-330q0 -40 14.5 -54.5t54.5 -14.5h159q66 0 104 29l31 24v346h166v-532h-71l-14 -9q-17 -11 -17 -29v-9
q0 -25 25 -25z" />
    <glyph glyph-name="Wcircumflex" unicode="&#x174;" horiz-adv-x="1274" 
d="M733 742l-96 62l-96 -62h-123l136 126h166l136 -126h-123zM901 213l188 487h185l-292 -700h-152l-193 473l-193 -473h-152l-292 700h194l188 -488l193 488h131z" />
    <glyph glyph-name="wcircumflex" unicode="&#x175;" horiz-adv-x="1078" 
d="M635 574l-96 62l-96 -62h-123l136 126h166l136 -126h-123zM759 183l142 349h173l-241 -532h-143l-151 349l-149 -349h-145l-241 532h180l143 -350l151 350h129z" />
    <glyph glyph-name="Ycircumflex" unicode="&#x176;" horiz-adv-x="872" 
d="M532 742l-96 62l-96 -62h-123l136 126h166l136 -126h-123zM674 700h204l-354 -443v-257h-176v257l-354 443h213l234 -307z" />
    <glyph glyph-name="ycircumflex" unicode="&#x177;" horiz-adv-x="778" 
d="M485 574l-96 62l-96 -62h-123l136 126h166l136 -126h-123zM391 158l201 374h184l-317 -536q-53 -93 -108 -125q-55 -31 -163 -31h-132v130h143q43 0 65.5 10t40.5 39l-303 513h191z" />
    <glyph glyph-name="Ydieresis" unicode="&#x178;" horiz-adv-x="872" 
d="M256 852h130v-102h-130v102zM486 852h130v-102h-130v102zM674 700h204l-354 -443v-257h-176v257l-354 443h213l234 -307z" />
    <glyph glyph-name="Zacute" unicode="&#x179;" horiz-adv-x="876" 
d="M654 868l-145 -126h-140l104 126h181zM838 0h-800v118l520 436h-500v146h780v-118l-520 -436h520v-146z" />
    <glyph glyph-name="zacute" unicode="&#x17a;" horiz-adv-x="762" 
d="M597 700l-145 -126h-140l104 126h181zM726 0h-690v98l424 310h-404v124h670v-98l-424 -310h424v-124z" />
    <glyph glyph-name="Zdotaccent" unicode="&#x17b;" horiz-adv-x="876" 
d="M523 750h-169v102h169v-102zM838 0h-800v118l520 436h-500v146h780v-118l-520 -436h520v-146z" />
    <glyph glyph-name="zdotaccent" unicode="&#x17c;" horiz-adv-x="762" 
d="M466 582h-169v102h169v-102zM726 0h-690v98l424 310h-404v124h670v-98l-424 -310h424v-124z" />
    <glyph glyph-name="Zcaron" unicode="&#x17d;" horiz-adv-x="876" 
d="M535 792h-54l-136 26h12l-13 15l97 35l122 -27zM838 0h-800v118l520 436h-500v146h780v-118l-520 -436h520v-146z" />
    <glyph glyph-name="zcaron" unicode="&#x17e;" horiz-adv-x="762" 
d="M478 624h-54l-136 26h12l-13 15l97 35l122 -27zM726 0h-690v98l424 310h-404v124h670v-98l-424 -310h424v-124z" />
    <glyph glyph-name="florin" unicode="&#x192;" horiz-adv-x="784" 
d="M742 558h-155q-44 0 -62.5 -18t-23.5 -64l-14 -131h235v-110h-247l-22 -201q-11 -104 -56.5 -149t-141.5 -45h-213v142h155q44 0 62.5 18t23.5 64l19 171h-240v110h252l17 161q11 104 56.5 149t141.5 45h213v-142z" />
    <glyph glyph-name="Aringacute" unicode="&#x1fa;" horiz-adv-x="940" 
d="M945 0h-201l-65 131h-422l-65 -131h-192l355 665q-43 4 -43 54v26q0 29 13 42t42 13h56l49 68h175l-72 -68h2q29 0 42 -13t13 -42v-26q0 -49 -42 -54zM376 739v-14q0 -11 3.5 -15t14.5 -4h156q11 0 14.5 4t3.5 15v14q0 11 -3.5 15t-14.5 4h-156q-11 0 -14.5 -4t-3.5 -15z
M468 558l-145 -294h290z" />
    <glyph glyph-name="aringacute" unicode="&#x1fb;" horiz-adv-x="794" 
d="M562 532h7q92 0 133 -40.5t41 -133.5v-358h-139l-15 64q-49 -43 -82 -53q-36 -11 -107 -11h-228q-126 0 -126 126v58q0 126 126 126h404v38q0 40 -15 54.5t-55 14.5h-219q-31 0 -43.5 -12.5t-12.5 -43.5v-15h-161v36q0 78 36.5 114t113.5 36h26q-2 16 -2 19v26
q0 29 13 42t42 13h56l49 68h175l-72 -68h2q29 0 42 -13t13 -42v-26q0 -3 -2 -19zM308 571v-14q0 -11 3.5 -15t14.5 -4h156q11 0 14.5 4t3.5 15v14q0 11 -3.5 15t-14.5 4h-156q-11 0 -14.5 -4t-3.5 -15zM261 107h192q53 0 88 26l35 27v60h-315q-28 0 -38 -10.5t-10 -37.5v-17
q0 -28 10 -38t38 -10z" />
    <glyph glyph-name="AEacute" unicode="&#x1fc;" horiz-adv-x="1282" 
d="M724 868h181l-145 -126h-140zM783 295l77 -153h394v-142h-524l-60 128h-415l-63 -128h-192l374 700h870v-142h-593l67 -133h486v-130h-421zM468 558l-147 -297h287z" />
    <glyph glyph-name="aeacute" unicode="&#x1fd;" horiz-adv-x="1319" 
d="M694 700h181l-145 -126h-140zM782 532h317q92 0 133 -40.5t41 -133.5v-119h-530v-44q0 -40 14.5 -54.5t54.5 -14.5h243q31 0 43.5 12t12.5 44v14h162v-46q0 -78 -36.5 -114t-113.5 -36h-352q-109 0 -146 57q-41 -36 -77 -47q-33 -10 -104 -10h-272q-126 0 -126 126v58
q0 126 126 126h404v38q0 40 -15 54.5t-55 14.5h-219q-31 0 -43.5 -12.5t-12.5 -43.5v-15h-161v36q0 78 36.5 114t113.5 36h317q89 0 123 -45q33 45 122 45zM743 347v-10h368v10q0 40 -14.5 54.5t-54.5 14.5h-230q-40 0 -54.5 -14.5t-14.5 -54.5zM541 133l35 27v60h-315
q-28 0 -38 -10.5t-10 -37.5v-17q0 -28 10 -38t38 -10h192q53 0 88 26z" />
    <glyph glyph-name="Oslashacute" unicode="&#x1fe;" horiz-adv-x="928" 
d="M499 868h181l-145 -126h-140zM911 730l-78 -76q48 -48 48 -148v-312q0 -100 -47.5 -147t-146.5 -47h-446q-36 0 -73 8l-39 -38h-112l78 76q-48 48 -48 148v312q0 100 47.5 147t146.5 47h446q36 0 73 -8l39 38h112zM216 478v-256q0 -32 9 -50l399 388h-326
q-46 0 -64 -18.5t-18 -63.5zM713 222v256q0 32 -9 51l-400 -389h327q45 0 63.5 18.5t18.5 63.5z" />
    <glyph glyph-name="oslashacute" unicode="&#x1ff;" horiz-adv-x="798" 
d="M434 700h181l-145 -126h-140zM782 566l-76 -70q46 -40 46 -138v-184q0 -93 -41 -133.5t-133 -40.5h-358q-36 0 -55 4l-42 -38h-107l76 70q-46 40 -46 138v184q0 93 41 133.5t133 40.5h358q36 0 55 -4l42 38h107zM198 343v-154q0 -32 10 -48l298 271h-238q-40 0 -55 -14.5
t-15 -54.5zM600 189v154q0 32 -10 48l-298 -271h238q40 0 55 14.5t15 54.5z" />
    <glyph glyph-name="Scommaaccent" unicode="&#x218;" horiz-adv-x="909" 
d="M47 150v66h171v-27q0 -31 12.5 -43.5t43.5 -12.5h355q31 0 43.5 12.5t12.5 43.5v31q0 30 -11.5 41.5t-44.5 14.5l-422 28q-80 6 -115 40.5t-35 109.5v96q0 78 36.5 114t113.5 36h491q77 0 113.5 -36t36.5 -114v-54h-171v15q0 31 -12.5 43.5t-43.5 12.5h-331
q-31 0 -43.5 -12.5t-12.5 -43.5v-13q0 -31 12 -42.5t44 -13.5l422 -28q80 -5 115 -39.5t35 -110.5v-114q0 -78 -36.5 -114t-113.5 -36h-515q-77 0 -113.5 36t-36.5 114zM469 -214h-85l50 88h-60v96h160v-36q0 -29 -5 -47q-4 -14 -24 -43z" />
    <glyph glyph-name="scommaaccent" unicode="&#x219;" horiz-adv-x="779" 
d="M46 122v52h161v-31q0 -17 7 -24t25 -7h295q18 0 25 7t7 24v30q0 17 -7 23.5t-25 8.5l-357 24q-121 7 -121 120v62q0 58 32 89.5t89 31.5h421q57 0 89 -32t32 -90v-46h-161v25q0 17 -7 24t-25 7h-271q-18 0 -25 -7t-7 -24v-11q0 -18 6.5 -24.5t25.5 -8.5l357 -24
q121 -7 121 -120v-80q0 -58 -32 -89.5t-89 -31.5h-445q-57 0 -89 32t-32 90zM404 -214h-85l50 88h-60v96h160v-36q0 -29 -5 -47q-4 -14 -24 -43z" />
    <glyph glyph-name="uni021A" unicode="&#x21a;" horiz-adv-x="808" 
d="M14 700h780v-152h-302v-548h-176v548h-302v152zM384 -126h-60v96h160v-36q0 -29 -5 -47q-4 -14 -24 -43l-36 -58h-85z" />
    <glyph glyph-name="uni021B" unicode="&#x21b;" horiz-adv-x="622" 
d="M598 532v-127h-276v-219q0 -31 12.5 -43.5t43.5 -12.5h220v-130h-292q-77 0 -113.5 36t-36.5 114v255h-142v127h142l33 120h133v-120h276zM327 -126h-60v96h160v-36q0 -29 -5 -47q-4 -14 -24 -43l-36 -58h-85z" />
    <glyph glyph-name="uni0237" unicode="&#x237;" horiz-adv-x="326" 
d="M118 -160h-180v124h105q31 0 43.5 12t12.5 44v512h169v-542q0 -78 -36.5 -114t-113.5 -36z" />
    <glyph glyph-name="circumflex" unicode="&#x2c6;" horiz-adv-x="518" 
d="M179 574h-123l136 126h166l136 -126h-123l-96 62z" />
    <glyph glyph-name="caron" unicode="&#x2c7;" horiz-adv-x="542" 
d="M372 624h-54l-136 26h12l-13 15l97 35l122 -27z" />
    <glyph glyph-name="breve" unicode="&#x2d8;" horiz-adv-x="502" 
d="M404 574h-274q-74 0 -74 74v52h114v-30q0 -28 28 -28h138q28 0 28 28v30h114v-52q0 -74 -74 -74z" />
    <glyph glyph-name="dotaccent" unicode="&#x2d9;" horiz-adv-x="277" 
d="M225 582h-169v102h169v-102z" />
    <glyph glyph-name="ring" unicode="&#x2da;" horiz-adv-x="384" 
d="M48 619v26q0 29 13 42t42 13h210q29 0 42 -13t13 -42v-26q0 -29 -13 -42t-42 -13h-210q-29 0 -42 13t-13 42zM112 639v-14q0 -11 3.5 -15t14.5 -4h156q11 0 14.5 4t3.5 15v14q0 11 -3.5 15t-14.5 4h-156q-11 0 -14.5 -4t-3.5 -15z" />
    <glyph glyph-name="ogonek" unicode="&#x2db;" horiz-adv-x="360" 
d="M212 12l-37 -21q-17 -11 -17 -28v-10q0 -25 25 -25h149v-88h-194q-82 0 -82 82v16q0 33 9 50.5t37 37.5l44 24z" />
    <glyph glyph-name="tilde" unicode="&#x2dc;" horiz-adv-x="502" 
d="M152 574h-96v77q0 49 50 49h123q23 0 35.5 -5t26.5 -21l33 -34q10 -8 20 -8h19q11 0 11 12v56h96v-77q0 -49 -50 -49h-123q-23 0 -35.5 5t-26.5 21l-33 34q-10 8 -20 8h-19q-11 0 -11 -12v-56z" />
    <glyph glyph-name="hungarumlaut" unicode="&#x2dd;" horiz-adv-x="575" 
d="M304 700l-117 -126h-135l83 126h169zM543 700l-117 -126h-135l83 126h169z" />
    <glyph glyph-name="gravecomb" unicode="&#x300;" horiz-adv-x="0" 
d="M-56 574h-141l-144 126h180z" />
    <glyph glyph-name="acutecomb" unicode="&#x301;" horiz-adv-x="0" 
d="M-56 700l-145 -126h-140l104 126h181z" />
    <glyph glyph-name="uni0302" unicode="&#x302;" horiz-adv-x="0" 
d="M-371 574h-123l136 126h166l136 -126h-123l-96 62z" />
    <glyph glyph-name="tildecomb" unicode="&#x303;" horiz-adv-x="0" 
d="M-374 574h-96v77q0 49 50 49h123q23 0 35.5 -5t26.5 -21l33 -34q10 -8 20 -8h19q11 0 11 12v56h96v-77q0 -49 -50 -49h-123q-23 0 -35.5 5t-26.5 21l-33 34q-10 8 -20 8h-19q-11 0 -11 -12v-56z" />
    <glyph glyph-name="uni0304" unicode="&#x304;" horiz-adv-x="0" 
d="M-56 598h-440v80h440v-80z" />
    <glyph glyph-name="uni0306" unicode="&#x306;" horiz-adv-x="0" 
d="M-130 574h-274q-74 0 -74 74v52h114v-30q0 -28 28 -28h138q28 0 28 28v30h114v-52q0 -74 -74 -74z" />
    <glyph glyph-name="uni0307" unicode="&#x307;" horiz-adv-x="0" 
d="M-56 582h-169v102h169v-102z" />
    <glyph glyph-name="uni0308" unicode="&#x308;" horiz-adv-x="0" 
d="M-286 582h-130v102h130v-102zM-56 582h-130v102h130v-102z" />
    <glyph glyph-name="uni030A" unicode="&#x30a;" horiz-adv-x="0" 
d="M-368 619v26q0 29 13 42t42 13h210q29 0 42 -13t13 -42v-26q0 -29 -13 -42t-42 -13h-210q-29 0 -42 13t-13 42zM-304 639v-14q0 -11 3.5 -15t14.5 -4h156q11 0 14.5 4t3.5 15v14q0 11 -3.5 15t-14.5 4h-156q-11 0 -14.5 -4t-3.5 -15z" />
    <glyph glyph-name="uni030B" unicode="&#x30b;" horiz-adv-x="0" 
d="M-287 700l-117 -126h-135l83 126h169zM-48 700l-117 -126h-135l83 126h169z" />
    <glyph glyph-name="uni030C" unicode="&#x30c;" horiz-adv-x="0" 
d="M-178 624h-54l-136 26h12l-13 15l97 35l122 -27z" />
    <glyph glyph-name="uni0312" unicode="&#x312;" horiz-adv-x="0" 
d="M-149 758h85l-48 -88h56v-96h-156v36q0 28 5 46q4 14 23 44z" />
    <glyph glyph-name="uni0326" unicode="&#x326;" horiz-adv-x="0" 
d="M-121 -214h-85l50 88h-60v96h160v-36q0 -29 -5 -47q-4 -14 -24 -43z" />
    <glyph glyph-name="uni0327" unicode="&#x327;" horiz-adv-x="0" 
d="M-102 -160h-202v53h163q11 0 11 11v11q0 11 -11 11h-115v24l24 70h62l-16 -46h84q29 0 41.5 -12.5t12.5 -41.5v-26q0 -29 -12.5 -41.5t-41.5 -12.5z" />
    <glyph glyph-name="uni0328" unicode="&#x328;" horiz-adv-x="0" 
d="M-176 12l-37 -21q-17 -11 -17 -28v-10q0 -25 25 -25h149v-88h-194q-82 0 -82 82v16q0 33 9 50.5t37 37.5l44 24z" />
    <glyph glyph-name="uni0335" unicode="&#x335;" horiz-adv-x="0" 
d="M-480 303v102h440v-102h-440z" />
    <glyph glyph-name="uni0336" unicode="&#x336;" horiz-adv-x="0" 
d="M-904 303v102h864v-102h-864z" />
    <glyph glyph-name="uni0337" unicode="&#x337;" horiz-adv-x="0" 
d="M-474 299v102l434 60v-102z" />
    <glyph glyph-name="uni0338" unicode="&#x338;" horiz-adv-x="0" 
d="M-636 -30l532 600h104l-532 -600h-104z" />
    <glyph glyph-name="uni0394" unicode="&#x394;" horiz-adv-x="944" 
d="M374 700h196l374 -700h-944zM467 561l-211 -427h423z" />
    <glyph glyph-name="uni03A9" unicode="&#x3a9;" horiz-adv-x="929" 
d="M758 134h134v-134h-367v224h98q46 0 64 18.5t18 63.5v166q0 45 -18 63.5t-64 18.5h-317q-46 0 -64 -18.5t-18 -63.5v-166q0 -45 18 -63.5t64 -18.5h98v-224h-367v134h134q-124 22 -124 172v200q0 100 47.5 147t146.5 47h447q99 0 146.5 -47t47.5 -147v-200
q0 -150 -124 -172z" />
    <glyph glyph-name="uni03BC" unicode="&#x3bc;" horiz-adv-x="847" 
d="M795 130h38v-130h-110q-99 0 -127 66q-50 -42 -87 -54t-114 -12h-165h-13v-160h-162v692h166v-330q0 -40 14.5 -54.5t54.5 -14.5h159q69 0 104 29l31 24v346h167v-358q0 -26 9.5 -35t34.5 -9z" />
    <glyph glyph-name="pi" unicode="&#x3c0;" horiz-adv-x="892" 
d="M868 532v-127h-110v-219q0 -32 12 -44t44 -12h54v-130h-126q-77 0 -113.5 36t-36.5 114v255h-312v-405h-166v405h-100v127h854z" />
    <glyph glyph-name="uni0401" unicode="&#x401;" horiz-adv-x="807" 
d="M223 852h130v-102h-130v102zM453 852h130v-102h-130v102zM233 295v-153h546v-142h-723v700h713v-142h-536v-133h496v-130h-496z" />
    <glyph glyph-name="uni0403" unicode="&#x403;" horiz-adv-x="742" 
d="M406 868h181l-145 -126h-140zM56 700h672v-152h-496v-548h-176v700z" />
    <glyph glyph-name="uni0405" unicode="&#x405;" horiz-adv-x="909" 
d="M47 150v66h171v-27q0 -31 12.5 -43.5t43.5 -12.5h355q31 0 43.5 12.5t12.5 43.5v31q0 30 -11.5 41.5t-44.5 14.5l-422 28q-80 6 -115 40.5t-35 109.5v96q0 78 36.5 114t113.5 36h491q77 0 113.5 -36t36.5 -114v-54h-171v15q0 31 -12.5 43.5t-43.5 12.5h-331
q-31 0 -43.5 -12.5t-12.5 -43.5v-13q0 -31 12 -42.5t44 -13.5l422 -28q80 -5 115 -39.5t35 -110.5v-114q0 -78 -36.5 -114t-113.5 -36h-515q-77 0 -113.5 36t-36.5 114z" />
    <glyph glyph-name="uni0406" unicode="&#x406;" horiz-adv-x="300" 
d="M61 0v700h178v-700h-178z" />
    <glyph glyph-name="uni0407" unicode="&#x407;" horiz-adv-x="300" 
d="M100 750h-130v102h130v-102zM330 750h-130v102h130v-102zM61 0v700h178v-700h-178z" />
    <glyph glyph-name="uni0408" unicode="&#x408;" horiz-adv-x="828" 
d="M584 0h-362q-99 0 -146.5 47t-47.5 147v88h170v-56q0 -46 18 -64t64 -18h240q46 0 64 18t18 64v474h176v-506q0 -100 -47.5 -147t-146.5 -47z" />
    <glyph glyph-name="uni040C" unicode="&#x40c;" horiz-adv-x="884" 
d="M414 868h181l-145 -126h-140zM448 363l432 -363h-260l-387 340v-340h-177v700h177v-322l382 322h261z" />
    <glyph glyph-name="uni040E" unicode="&#x40e;" horiz-adv-x="872" 
d="M573 742h-274q-74 0 -74 74v52h114v-30q0 -28 28 -28h138q28 0 28 28v30h114v-52q0 -74 -74 -74zM441 365l233 335h204l-519 -700h-202l179 239l-342 461h213z" />
    <glyph glyph-name="uni0410" unicode="&#x410;" horiz-adv-x="940" 
d="M945 0h-201l-65 131h-422l-65 -131h-192l374 700h197zM468 558l-145 -294h290z" />
    <glyph glyph-name="uni0411" unicode="&#x411;" horiz-adv-x="893" 
d="M701 0h-645v700h735v-133h-558v-143h468q77 0 113.5 -36t36.5 -114v-124q0 -78 -36.5 -114t-113.5 -36zM233 305v-173h385q31 0 43.5 12.5t12.5 43.5v61q0 31 -12 43.5t-44 12.5h-385z" />
    <glyph glyph-name="uni0412" unicode="&#x412;" horiz-adv-x="893" 
d="M764 364q87 -21 87 -133v-81q0 -78 -36.5 -114t-113.5 -36h-645v700h625q77 0 113.5 -36t36.5 -114v-60q0 -99 -67 -126zM598 568h-365v-150h365q32 0 44 12t12 44v38q0 31 -12.5 43.5t-43.5 12.5zM674 188v59q0 31 -12 43.5t-44 12.5h-385v-171h385q31 0 43.5 12.5
t12.5 43.5z" />
    <glyph glyph-name="uni0413" unicode="&#x413;" horiz-adv-x="742" 
d="M56 700h672v-152h-496v-548h-176v700z" />
    <glyph glyph-name="uni0414" unicode="&#x414;" horiz-adv-x="990" 
d="M882 700v-554h94v-266h-164v120h-634v-120h-164v266h54q40 0 55 14.5t18 55.5l31 484h710zM341 548l-21 -316q-4 -51 -17 -86h403v402h-365z" />
    <glyph glyph-name="uni0415" unicode="&#x415;" horiz-adv-x="807" 
d="M233 295v-153h546v-142h-723v700h713v-142h-536v-133h496v-130h-496z" />
    <glyph glyph-name="uni0416" unicode="&#x416;" horiz-adv-x="1479" 
d="M1043 363l432 -363h-261l-386 340v-340h-177v339l-386 -339h-261l432 363l-428 337h261l382 -322v322h177v-322l382 322h261z" />
    <glyph glyph-name="uni0417" unicode="&#x417;" horiz-adv-x="907" 
d="M780 362q81 -23 81 -131v-81q0 -78 -36.5 -114t-113.5 -36h-515q-77 0 -113.5 36t-36.5 114v100h171v-62q0 -31 12.5 -43.5t43.5 -12.5h355q31 0 43.5 12.5t12.5 43.5v56q0 32 -12 44t-44 12h-277v121h267q32 0 44 12.5t12 43.5v35q0 31 -12.5 43.5t-43.5 12.5h-335
q-31 0 -43.5 -12.5t-12.5 -43.5v-54h-171v92q0 78 36.5 114t113.5 36h495q77 0 113.5 -36t36.5 -114v-60q0 -101 -71 -128z" />
    <glyph glyph-name="uni0418" unicode="&#x418;" horiz-adv-x="936" 
d="M226 227l504 473h150v-700h-170v480l-512 -480h-142v700h170v-473z" />
    <glyph glyph-name="uni0419" unicode="&#x419;" horiz-adv-x="936" 
d="M605 742h-274q-74 0 -74 74v52h114v-30q0 -28 28 -28h138q28 0 28 28v30h114v-52q0 -74 -74 -74zM226 227l504 473h150v-700h-170v480l-512 -480h-142v700h170v-473z" />
    <glyph glyph-name="uni041A" unicode="&#x41a;" horiz-adv-x="884" 
d="M448 363l432 -363h-260l-387 340v-340h-177v700h177v-322l382 322h261z" />
    <glyph glyph-name="uni041B" unicode="&#x41b;" horiz-adv-x="918" 
d="M112 0h-98v146h34q40 0 55 14.5t18 55.5l31 484h710v-700h-176v548h-365l-24 -366q-7 -97 -49.5 -139.5t-135.5 -42.5z" />
    <glyph glyph-name="uni041C" unicode="&#x41c;" horiz-adv-x="1044" 
d="M526 289l314 411h148v-700h-166v448l-253 -326h-94l-253 326v-448h-166v700h155z" />
    <glyph glyph-name="uni041D" unicode="&#x41d;" horiz-adv-x="916" 
d="M684 440v260h176v-700h-176v288h-452v-288h-176v700h176v-260h452z" />
    <glyph glyph-name="uni041E" unicode="&#x41e;" horiz-adv-x="928" 
d="M687 0h-446q-99 0 -146.5 47t-47.5 147v312q0 100 47.5 147t146.5 47h446q99 0 146.5 -47t47.5 -147v-312q0 -100 -47.5 -147t-146.5 -47zM305 146h318q46 0 64 18.5t18 63.5v244q0 45 -18 63.5t-64 18.5h-318q-45 0 -63.5 -18.5t-18.5 -63.5v-244q0 -45 18.5 -63.5
t63.5 -18.5z" />
    <glyph glyph-name="uni041F" unicode="&#x41f;" horiz-adv-x="916" 
d="M232 0h-176v700h804v-700h-176v548h-452v-548z" />
    <glyph glyph-name="uni0420" unicode="&#x420;" horiz-adv-x="868" 
d="M232 0h-176v700h610q92 0 133 -40.5t41 -133.5v-132q0 -93 -41 -133.5t-133 -40.5h-434v-220zM232 566v-218h363q40 0 54.5 15t14.5 55v78q0 40 -14.5 55t-54.5 15h-363z" />
    <glyph glyph-name="uni0421" unicode="&#x421;" horiz-adv-x="900" 
d="M661 0h-420q-99 0 -146.5 47t-47.5 147v312q0 100 47.5 147t146.5 47h420q99 0 146.5 -47t47.5 -147v-82h-170v50q0 46 -18 64t-64 18h-298q-45 0 -63.5 -18t-18.5 -64v-248q0 -46 18.5 -64t63.5 -18h298q46 0 64 18t18 64v57h170v-89q0 -100 -47.5 -147t-146.5 -47z" />
    <glyph glyph-name="uni0422" unicode="&#x422;" horiz-adv-x="808" 
d="M14 700h780v-152h-302v-548h-176v548h-302v152z" />
    <glyph glyph-name="uni0423" unicode="&#x423;" horiz-adv-x="872" 
d="M441 365l233 335h204l-519 -700h-202l179 239l-342 461h213z" />
    <glyph glyph-name="uni0424" unicode="&#x424;" horiz-adv-x="1166" 
d="M665 656h260q99 0 146.5 -47t47.5 -147v-224q0 -100 -47.5 -147t-146.5 -47h-260v-84h-164v84h-260q-99 0 -146.5 47t-47.5 147v224q0 100 47.5 147t146.5 47h260v84h164v-84zM305 173h196v354h-196q-45 0 -63.5 -18t-18.5 -64v-190q0 -46 18.5 -64t63.5 -18zM943 255
v190q0 46 -18 64t-64 18h-196v-354h196q46 0 64 18t18 64z" />
    <glyph glyph-name="uni0425" unicode="&#x425;" horiz-adv-x="893" 
d="M220 0h-216l325 356l-315 344h228l210 -240l210 240h217l-314 -344l324 -356h-227l-221 253z" />
    <glyph glyph-name="uni0426" unicode="&#x426;" horiz-adv-x="968" 
d="M790 0h-734v700h176v-548h452v548h176v-548h94v-272h-164v120z" />
    <glyph glyph-name="uni0427" unicode="&#x427;" horiz-adv-x="876" 
d="M820 0h-176v228h-442q-92 0 -133 40.5t-41 133.5v298h176v-250q0 -40 14.5 -55t54.5 -15h371v320h176v-700z" />
    <glyph glyph-name="uni0428" unicode="&#x428;" horiz-adv-x="1352" 
d="M1296 0h-1240v700h176v-548h356v548h176v-548h356v548h176v-700z" />
    <glyph glyph-name="uni0429" unicode="&#x429;" horiz-adv-x="1404" 
d="M1226 0h-1170v700h176v-548h356v548h176v-548h356v548h176v-548h94v-272h-164v120z" />
    <glyph glyph-name="uni042A" unicode="&#x42a;" horiz-adv-x="1048" 
d="M228 554h-214v146h390v-220h442q92 0 133 -40.5t41 -133.5v-132q0 -93 -41 -133.5t-133 -40.5h-618v554zM404 352v-218h371q40 0 54.5 15t14.5 55v78q0 40 -14.5 55t-54.5 15h-371z" />
    <glyph glyph-name="uni042B" unicode="&#x42b;" horiz-adv-x="1168" 
d="M56 0v700h176v-220h434q92 0 133 -40.5t41 -133.5v-132q0 -93 -41 -133.5t-133 -40.5h-610zM929 0v700h178v-700h-178zM595 352h-363v-218h363q40 0 54.5 15t14.5 55v78q0 40 -14.5 55t-54.5 15z" />
    <glyph glyph-name="uni042C" unicode="&#x42c;" horiz-adv-x="868" 
d="M56 0v700h176v-220h434q92 0 133 -40.5t41 -133.5v-132q0 -93 -41 -133.5t-133 -40.5h-610zM595 352h-363v-218h363q40 0 54.5 15t14.5 55v78q0 40 -14.5 55t-54.5 15z" />
    <glyph glyph-name="uni042D" unicode="&#x42d;" horiz-adv-x="915" 
d="M238 700h436q99 0 146.5 -47t47.5 -147v-312q0 -100 -47.5 -147t-146.5 -47h-436q-99 0 -146.5 47t-47.5 147v89h170v-69q0 -46 18.5 -64t63.5 -18h314q46 0 64 18t18 64v88h-332v111h332v73q0 46 -18 64t-64 18h-314q-45 0 -63.5 -18t-18.5 -64v-62h-170v82
q0 100 47.5 147t146.5 47z" />
    <glyph glyph-name="uni042E" unicode="&#x42e;" horiz-adv-x="1359" 
d="M672 700h446q99 0 146.5 -47t47.5 -147v-312q0 -100 -47.5 -147t-146.5 -47h-446q-99 0 -146.5 47t-47.5 147v93h-246v-287h-176v700h176v-260h246v66q0 100 47.5 147t146.5 47zM1136 228v244q0 45 -18 63.5t-64 18.5h-318q-46 0 -64 -18.5t-18 -63.5v-244
q0 -45 18 -63.5t64 -18.5h318q46 0 64 18.5t18 63.5z" />
    <glyph glyph-name="uni042F" unicode="&#x42f;" horiz-adv-x="890" 
d="M224 700h610v-700h-176v244h-254l-183 -244h-201l196 256q-87 2 -126.5 43t-39.5 131v96q0 93 41 133.5t133 40.5zM295 368h363v204h-363q-40 0 -54.5 -15t-14.5 -55v-64q0 -40 14.5 -55t54.5 -15z" />
    <glyph glyph-name="uni0430" unicode="&#x430;" horiz-adv-x="789" 
d="M220 532h349q92 0 133 -40.5t41 -133.5v-358h-139l-15 64q-49 -43 -82 -53q-36 -11 -107 -11h-228q-126 0 -126 126v58q0 126 126 126h404v38q0 40 -15 54.5t-55 14.5h-219q-31 0 -43.5 -12.5t-12.5 -43.5v-15h-161v36q0 78 36.5 114t113.5 36zM261 107h192q53 0 88 26
l35 27v60h-315q-28 0 -38 -10.5t-10 -37.5v-17q0 -28 10 -38t38 -10z" />
    <glyph glyph-name="uni0431" unicode="&#x431;" horiz-adv-x="801" 
d="M298 458h307q77 0 113.5 -36t36.5 -114v-158q0 -78 -36.5 -114t-113.5 -36h-407q-77 0 -113.5 36t-36.5 114v342q0 98 46 144t148 52l493 22v-128l-466 -22q-49 -3 -69 -23t-20 -68v-61q26 50 118 50zM588 182v98q0 31 -12.5 43.5t-43.5 12.5h-261q-31 0 -43.5 -12.5
t-12.5 -43.5v-98q0 -31 12.5 -43.5t43.5 -12.5h261q31 0 43.5 12.5t12.5 43.5z" />
    <glyph glyph-name="uni0432" unicode="&#x432;" horiz-adv-x="810" 
d="M682 276q66 -16 66 -100v-62q0 -59 -27.5 -86.5t-86.5 -27.5h-577v532h562q59 0 86.5 -27.5t27.5 -86.5v-46q0 -76 -51 -96zM526 421h-302v-100h302q22 0 31 8.5t9 29.5v25q0 21 -9 29t-31 8zM580 148v39q0 22 -8.5 30t-30.5 8h-317v-114h317q22 0 30.5 8t8.5 29z" />
    <glyph glyph-name="uni0433" unicode="&#x433;" horiz-adv-x="645" 
d="M221 0h-166v532h576v-133h-410v-399z" />
    <glyph glyph-name="uni0434" unicode="&#x434;" horiz-adv-x="873" 
d="M771 532v-403h88v-249h-154v120h-537v-120h-154v249h49q34 0 47.5 13t15.5 48l23 342h622zM309 399l-14 -192q-3 -48 -16 -78h326v270h-296z" />
    <glyph glyph-name="uni0435" unicode="&#x435;" horiz-adv-x="789" 
d="M220 532h349q92 0 133 -40.5t41 -133.5v-119h-530v-44q0 -40 15 -54.5t55 -14.5h243q31 0 43.5 12.5t12.5 43.5v14h161v-46q0 -78 -36.5 -114t-113.5 -36h-373q-92 0 -133 40.5t-41 133.5v184q0 93 41 133.5t133 40.5zM213 347v-10h369v10q0 40 -15 54.5t-55 14.5h-229
q-40 0 -55 -14.5t-15 -54.5z" />
    <glyph glyph-name="uni0436" unicode="&#x436;" horiz-adv-x="1289" 
d="M935 269l356 -269h-256l-307 247v-247h-167v247l-308 -247h-255l356 269l-349 263h254l302 -249v249h167v-249l302 249h254z" />
    <glyph glyph-name="uni0437" unicode="&#x437;" horiz-adv-x="789" 
d="M682 275q61 -16 61 -99v-62q0 -59 -27.5 -86.5t-86.5 -27.5h-469q-59 0 -86.5 27.5t-27.5 86.5v75h161v-35q0 -23 9.5 -32t33.5 -9h283q24 0 33.5 9t9.5 32v27q0 24 -9.5 33t-33.5 9h-214v100h207q23 0 32.5 9.5t9.5 33.5v12q0 23 -9.5 32t-32.5 9h-269q-23 0 -32.5 -9
t-9.5 -32v-29h-161v69q0 59 27.5 86.5t86.5 27.5h453q59 0 87 -27.5t28 -86.5v-46q0 -78 -54 -97z" />
    <glyph glyph-name="uni0438" unicode="&#x438;" horiz-adv-x="820" 
d="M215 186l410 346h140v-532h-161v352l-417 -352h-132v532h160v-346z" />
    <glyph glyph-name="uni0439" unicode="&#x439;" horiz-adv-x="820" 
d="M547 574h-274q-74 0 -74 74v52h114v-30q0 -28 28 -28h138q28 0 28 28v30h114v-52q0 -74 -74 -74zM215 186l410 346h140v-532h-161v352l-417 -352h-132v532h160v-346z" />
    <glyph glyph-name="uni043A" unicode="&#x43a;" horiz-adv-x="783" 
d="M429 269l356 -269h-255l-307 247v-247h-168v532h168v-248l301 248h254z" />
    <glyph glyph-name="uni043B" unicode="&#x43b;" horiz-adv-x="805" 
d="M106 0h-92v129h27q35 0 48.5 13t15.5 48l23 342h622v-532h-166v399h-296l-18 -236q-6 -87 -43.5 -125t-120.5 -38z" />
    <glyph glyph-name="uni043C" unicode="&#x43c;" horiz-adv-x="906" 
d="M209 0h-154v532h147l254 -296l254 296h141v-532h-155v322l-205 -230h-77l-205 230v-322z" />
    <glyph glyph-name="uni043D" unicode="&#x43d;" horiz-adv-x="806" 
d="M584 340v192h167v-532h-167v206h-363v-206h-166v532h166v-192h363z" />
    <glyph glyph-name="uni043E" unicode="&#x43e;" horiz-adv-x="798" 
d="M578 0h-358q-92 0 -133 40.5t-41 133.5v184q0 93 41 133.5t133 40.5h358q92 0 133 -40.5t41 -133.5v-184q0 -93 -41 -133.5t-133 -40.5zM282 130h234q40 0 55 14.5t15 54.5v134q0 40 -15 54.5t-55 14.5h-234q-40 0 -55 -14.5t-15 -54.5v-134q0 -40 15 -54.5t55 -14.5z
" />
    <glyph glyph-name="uni043F" unicode="&#x43f;" horiz-adv-x="806" 
d="M221 0h-166v532h696v-532h-167v399h-363v-399z" />
    <glyph glyph-name="uni0440" unicode="&#x440;" horiz-adv-x="807" 
d="M410 532h177q92 0 133 -40.5t41 -133.5v-184q0 -93 -41 -133.5t-133 -40.5h-177q-69 0 -108 11q-38 11 -81 46v-217h-166v692h138l15 -67q50 41 89 55q38 12 113 12zM594 199v134q0 40 -14.5 54.5t-54.5 14.5h-169q-70 0 -104 -28l-31 -24v-168l31 -24q37 -28 104 -28
h169q40 0 54.5 14.5t14.5 54.5z" />
    <glyph glyph-name="uni0441" unicode="&#x441;" horiz-adv-x="772" 
d="M46 174v184q0 93 41 133.5t133 40.5h332q92 0 133 -40.5t41 -133.5v-45h-160v20q0 40 -15 54.5t-55 14.5h-214q-40 0 -55 -14.5t-15 -54.5v-134q0 -40 15 -54.5t55 -14.5h214q40 0 55 14.5t15 54.5v26h160v-51q0 -93 -41 -133.5t-133 -40.5h-332q-92 0 -133 40.5
t-41 133.5z" />
    <glyph glyph-name="uni0442" unicode="&#x442;" horiz-adv-x="700" 
d="M267 399h-253v133h672v-133h-253v-399h-166v399z" />
    <glyph glyph-name="uni0443" unicode="&#x443;" horiz-adv-x="778" 
d="M391 158l201 374h184l-317 -536q-53 -93 -108 -125q-55 -31 -163 -31h-132v130h143q43 0 65.5 10t40.5 39l-303 513h191z" />
    <glyph glyph-name="uni0444" unicode="&#x444;" horiz-adv-x="1118" 
d="M639 532h259q92 0 133 -40.5t41 -133.5v-184q0 -93 -41 -133.5t-133 -40.5h-259v-160h-160v160h-259q-92 0 -133 40.5t-41 133.5v184q0 93 41 133.5t133 40.5h259v168h160v-168zM282 116h197v300h-197q-40 0 -55 -15t-15 -55v-160q0 -40 15 -55t55 -15zM906 186v160
q0 40 -15 55t-55 15h-197v-300h197q40 0 55 15t15 55z" />
    <glyph glyph-name="uni0445" unicode="&#x445;" horiz-adv-x="775" 
d="M213 0h-215l271 271l-261 261h225l160 -170l160 170h214l-260 -261l270 -271h-225l-169 181z" />
    <glyph glyph-name="uni0446" unicode="&#x446;" horiz-adv-x="853" 
d="M684 0h-629v532h166v-399h363v399h167v-399h88v-253h-155v120z" />
    <glyph glyph-name="uni0447" unicode="&#x447;" horiz-adv-x="763" 
d="M28 532h166v-173q0 -31 12.5 -43.5t43.5 -12.5h292v229h166v-532h-166v170h-364q-77 0 -113.5 36t-36.5 114v212z" />
    <glyph glyph-name="uni0448" unicode="&#x448;" horiz-adv-x="1185" 
d="M1130 0h-1075v532h166v-399h288v399h167v-399h288v399h166v-532z" />
    <glyph glyph-name="uni0449" unicode="&#x449;" horiz-adv-x="1240" 
d="M1072 0h-1017v532h166v-399h292v399h167v-399h292v399h166v-399h88v-253h-154v120z" />
    <glyph glyph-name="uni044A" unicode="&#x44a;" horiz-adv-x="892" 
d="M184 399h-170v133h336v-163h368q75 0 110.5 -35t35.5 -111v-77q0 -76 -35.5 -111t-110.5 -35h-534v399zM350 262v-149h294q30 0 42 11.5t12 41.5v43q0 30 -12 41.5t-42 11.5h-294z" />
    <glyph glyph-name="uni044B" unicode="&#x44b;" horiz-adv-x="1049" 
d="M55 0v532h166v-163h368q75 0 110.5 -35t35.5 -111v-77q0 -76 -35.5 -111t-110.5 -35h-534zM991 0h-169v532h169v-532zM515 262h-294v-149h294q30 0 41.5 11.5t11.5 41.5v43q0 30 -11.5 41.5t-41.5 11.5z" />
    <glyph glyph-name="uni044C" unicode="&#x44c;" horiz-adv-x="763" 
d="M55 0v532h166v-163h368q75 0 110.5 -35t35.5 -111v-77q0 -76 -35.5 -111t-110.5 -35h-534zM515 262h-294v-149h294q30 0 41.5 11.5t11.5 41.5v43q0 30 -11.5 41.5t-41.5 11.5z" />
    <glyph glyph-name="uni044D" unicode="&#x44d;" horiz-adv-x="793" 
d="M220 532h353q92 0 133 -40.5t41 -133.5v-184q0 -93 -41 -133.5t-133 -40.5h-353q-92 0 -133 40.5t-41 133.5v51h161v-30q0 -40 15 -54.5t55 -14.5h233q40 0 55 14.5t15 54.5v30h-259v94h259v18q0 40 -15 54.5t-55 14.5h-233q-40 0 -55 -14.5t-15 -54.5v-24h-161v45
q0 93 41 133.5t133 40.5z" />
    <glyph glyph-name="uni044E" unicode="&#x44e;" horiz-adv-x="1159" 
d="M581 532h358q92 0 133 -40.5t41 -133.5v-184q0 -93 -41 -133.5t-133 -40.5h-358q-92 0 -133 40.5t-41 133.5v32h-186v-206h-166v532h166v-192h186v18q0 93 41 133.5t133 40.5zM946 199v134q0 40 -14.5 54.5t-54.5 14.5h-235q-40 0 -54.5 -14.5t-14.5 -54.5v-134
q0 -40 14.5 -54.5t54.5 -14.5h235q40 0 54.5 14.5t14.5 54.5z" />
    <glyph glyph-name="uni044F" unicode="&#x44f;" horiz-adv-x="785" 
d="M196 532h534v-532h-166v182h-227l-133 -182h-182l143 192q-59 6 -87 41t-28 103v50q0 76 35.5 111t110.5 35zM270 284h294v140h-294q-30 0 -42 -11.5t-12 -41.5v-34q0 -30 12 -41.5t42 -11.5z" />
    <glyph glyph-name="uni0451" unicode="&#x451;" horiz-adv-x="789" 
d="M214 684h130v-102h-130v102zM444 684h130v-102h-130v102zM220 532h349q92 0 133 -40.5t41 -133.5v-119h-530v-44q0 -40 15 -54.5t55 -14.5h243q31 0 43.5 12.5t12.5 43.5v14h161v-46q0 -78 -36.5 -114t-113.5 -36h-373q-92 0 -133 40.5t-41 133.5v184q0 93 41 133.5
t133 40.5zM213 347v-10h369v10q0 40 -15 54.5t-55 14.5h-229q-40 0 -55 -14.5t-15 -54.5z" />
    <glyph glyph-name="uni0453" unicode="&#x453;" horiz-adv-x="645" 
d="M538 700l-145 -126h-140l104 126h181zM221 0h-166v532h576v-133h-410v-399z" />
    <glyph glyph-name="uni0455" unicode="&#x455;" horiz-adv-x="779" 
d="M46 122v52h161v-31q0 -17 7 -24t25 -7h295q18 0 25 7t7 24v30q0 17 -7 23.5t-25 8.5l-357 24q-121 7 -121 120v62q0 58 32 89.5t89 31.5h421q57 0 89 -32t32 -90v-46h-161v25q0 17 -7 24t-25 7h-271q-18 0 -25 -7t-7 -24v-11q0 -18 6.5 -24.5t25.5 -8.5l357 -24
q121 -7 121 -120v-80q0 -58 -32 -89.5t-89 -31.5h-445q-57 0 -89 32t-32 90z" />
    <glyph glyph-name="uni0456" unicode="&#x456;" horiz-adv-x="287" 
d="M229 582h-170v118h170v-118zM229 0h-170v532h170v-532z" />
    <glyph glyph-name="uni0457" unicode="&#x457;" horiz-adv-x="286" 
d="M93 582h-130v102h130v-102zM323 582h-130v102h130v-102zM228 0h-169v532h169v-532z" />
    <glyph glyph-name="uni0458" unicode="&#x458;" horiz-adv-x="327" 
d="M269 582h-170v118h170v-118zM119 -160h-180v124h104q31 0 43.5 12t12.5 44v512h170v-542q0 -78 -36.5 -114t-113.5 -36z" />
    <glyph glyph-name="uni045C" unicode="&#x45c;" horiz-adv-x="783" 
d="M429 700h181l-145 -126h-140zM429 269l356 -269h-255l-307 247v-247h-168v532h168v-248l301 248h254z" />
    <glyph glyph-name="uni045E" unicode="&#x45e;" horiz-adv-x="778" 
d="M526 574h-274q-74 0 -74 74v52h114v-30q0 -28 28 -28h138q28 0 28 28v30h114v-52q0 -74 -74 -74zM391 158l201 374h184l-317 -536q-53 -93 -108 -125q-55 -31 -163 -31h-132v130h143q43 0 65.5 10t40.5 39l-303 513h191z" />
    <glyph glyph-name="uni0498" unicode="&#x498;" horiz-adv-x="907" 
d="M780 362q81 -23 81 -131v-81q0 -78 -36.5 -114t-113.5 -36h-241l-9 -26h84q29 0 41.5 -12.5t12.5 -41.5v-26q0 -29 -12.5 -41.5t-41.5 -12.5h-202v53h163q11 0 11 11v11q0 11 -11 11h-115v24l17 50h-212q-77 0 -113.5 36t-36.5 114v100h171v-62q0 -31 12.5 -43.5
t43.5 -12.5h355q31 0 43.5 12.5t12.5 43.5v56q0 32 -12 44t-44 12h-277v121h267q32 0 44 12.5t12 43.5v35q0 31 -12.5 43.5t-43.5 12.5h-335q-31 0 -43.5 -12.5t-12.5 -43.5v-54h-171v92q0 78 36.5 114t113.5 36h495q77 0 113.5 -36t36.5 -114v-60q0 -101 -71 -128z" />
    <glyph glyph-name="uni0499" unicode="&#x499;" horiz-adv-x="789" 
d="M682 275q61 -16 61 -99v-62q0 -59 -27.5 -86.5t-86.5 -27.5h-218l-9 -26h84q29 0 41.5 -12.5t12.5 -41.5v-26q0 -29 -12.5 -41.5t-41.5 -12.5h-202v53h163q11 0 11 11v11q0 11 -11 11h-115v24l17 50h-189q-59 0 -86.5 27.5t-27.5 86.5v75h161v-35q0 -23 9.5 -32t33.5 -9
h283q24 0 33.5 9t9.5 32v27q0 24 -9.5 33t-33.5 9h-214v100h207q23 0 32.5 9.5t9.5 33.5v12q0 23 -9.5 32t-32.5 9h-269q-23 0 -32.5 -9t-9.5 -32v-29h-161v69q0 59 27.5 86.5t86.5 27.5h453q59 0 87 -27.5t28 -86.5v-46q0 -78 -54 -97z" />
    <glyph glyph-name="uni04BB" unicode="&#x4bb;" horiz-adv-x="802" 
d="M416 532h161q92 0 133 -40.5t41 -133.5v-358h-167v330q0 40 -14.5 54.5t-54.5 14.5h-159q-66 0 -104 -29l-31 -24v-346h-166v700h166v-230q46 38 85 51q39 11 110 11z" />
    <glyph glyph-name="uni04C0" unicode="&#x4c0;" horiz-adv-x="300" 
d="M61 0v700h178v-700h-178z" />
    <glyph glyph-name="uni04C1" unicode="&#x4c1;" horiz-adv-x="1479" 
d="M877 742h-274q-74 0 -74 74v52h114v-30q0 -28 28 -28h138q28 0 28 28v30h114v-52q0 -74 -74 -74zM1043 363l432 -363h-261l-386 340v-340h-177v339l-386 -339h-261l432 363l-428 337h261l382 -322v322h177v-322l382 322h261z" />
    <glyph glyph-name="uni04C2" unicode="&#x4c2;" horiz-adv-x="1289" 
d="M781 574h-274q-74 0 -74 74v52h114v-30q0 -28 28 -28h138q28 0 28 28v30h114v-52q0 -74 -74 -74zM935 269l356 -269h-256l-307 247v-247h-167v247l-308 -247h-255l356 269l-349 263h254l302 -249v249h167v-249l302 249h254z" />
    <glyph glyph-name="uni04D0" unicode="&#x4d0;" horiz-adv-x="940" 
d="M609 742h-274q-74 0 -74 74v52h114v-30q0 -28 28 -28h138q28 0 28 28v30h114v-52q0 -74 -74 -74zM945 0h-201l-65 131h-422l-65 -131h-192l374 700h197zM468 558l-145 -294h290z" />
    <glyph glyph-name="uni04D1" unicode="&#x4d1;" horiz-adv-x="789" 
d="M536 574h-274q-74 0 -74 74v52h114v-30q0 -28 28 -28h138q28 0 28 28v30h114v-52q0 -74 -74 -74zM220 532h349q92 0 133 -40.5t41 -133.5v-358h-139l-15 64q-49 -43 -82 -53q-36 -11 -107 -11h-228q-126 0 -126 126v58q0 126 126 126h404v38q0 40 -15 54.5t-55 14.5h-219
q-31 0 -43.5 -12.5t-12.5 -43.5v-15h-161v36q0 78 36.5 114t113.5 36zM261 107h192q53 0 88 26l35 27v60h-315q-28 0 -38 -10.5t-10 -37.5v-17q0 -28 10 -38t38 -10z" />
    <glyph glyph-name="uni04D2" unicode="&#x4d2;" horiz-adv-x="940" 
d="M292 852h130v-102h-130v102zM522 852h130v-102h-130v102zM945 0h-201l-65 131h-422l-65 -131h-192l374 700h197zM468 558l-145 -294h290z" />
    <glyph glyph-name="uni04D3" unicode="&#x4d3;" horiz-adv-x="789" 
d="M219 684h130v-102h-130v102zM449 684h130v-102h-130v102zM220 532h349q92 0 133 -40.5t41 -133.5v-358h-139l-15 64q-49 -43 -82 -53q-36 -11 -107 -11h-228q-126 0 -126 126v58q0 126 126 126h404v38q0 40 -15 54.5t-55 14.5h-219q-31 0 -43.5 -12.5t-12.5 -43.5v-15
h-161v36q0 78 36.5 114t113.5 36zM261 107h192q53 0 88 26l35 27v60h-315q-28 0 -38 -10.5t-10 -37.5v-17q0 -28 10 -38t38 -10z" />
    <glyph glyph-name="uni04D4" unicode="&#x4d4;" horiz-adv-x="1282" 
d="M783 295l77 -153h394v-142h-524l-60 128h-415l-63 -128h-192l374 700h870v-142h-593l67 -133h486v-130h-421zM468 558l-147 -297h287z" />
    <glyph glyph-name="uni04D5" unicode="&#x4d5;" horiz-adv-x="1319" 
d="M782 532h317q92 0 133 -40.5t41 -133.5v-119h-530v-44q0 -40 14.5 -54.5t54.5 -14.5h243q31 0 43.5 12t12.5 44v14h162v-46q0 -78 -36.5 -114t-113.5 -36h-352q-109 0 -146 57q-41 -36 -77 -47q-33 -10 -104 -10h-272q-126 0 -126 126v58q0 126 126 126h404v38
q0 40 -15 54.5t-55 14.5h-219q-31 0 -43.5 -12.5t-12.5 -43.5v-15h-161v36q0 78 36.5 114t113.5 36h317q89 0 123 -45q33 45 122 45zM743 347v-10h368v10q0 40 -14.5 54.5t-54.5 14.5h-230q-40 0 -54.5 -14.5t-14.5 -54.5zM541 133l35 27v60h-315q-28 0 -38 -10.5t-10 -37.5
v-17q0 -28 10 -38t38 -10h192q53 0 88 26z" />
    <glyph glyph-name="uni04D6" unicode="&#x4d6;" horiz-adv-x="807" 
d="M540 742h-274q-74 0 -74 74v52h114v-30q0 -28 28 -28h138q28 0 28 28v30h114v-52q0 -74 -74 -74zM233 295v-153h546v-142h-723v700h713v-142h-536v-133h496v-130h-496z" />
    <glyph glyph-name="uni04D7" unicode="&#x4d7;" horiz-adv-x="789" 
d="M531 574h-274q-74 0 -74 74v52h114v-30q0 -28 28 -28h138q28 0 28 28v30h114v-52q0 -74 -74 -74zM220 532h349q92 0 133 -40.5t41 -133.5v-119h-530v-44q0 -40 15 -54.5t55 -14.5h243q31 0 43.5 12.5t12.5 43.5v14h161v-46q0 -78 -36.5 -114t-113.5 -36h-373
q-92 0 -133 40.5t-41 133.5v184q0 93 41 133.5t133 40.5zM213 347v-10h369v10q0 40 -15 54.5t-55 14.5h-229q-40 0 -55 -14.5t-15 -54.5z" />
    <glyph glyph-name="uni04DC" unicode="&#x4dc;" horiz-adv-x="1479" 
d="M560 852h130v-102h-130v102zM790 852h130v-102h-130v102zM1043 363l432 -363h-261l-386 340v-340h-177v339l-386 -339h-261l432 363l-428 337h261l382 -322v322h177v-322l382 322h261z" />
    <glyph glyph-name="uni04DD" unicode="&#x4dd;" horiz-adv-x="1289" 
d="M464 684h130v-102h-130v102zM694 684h130v-102h-130v102zM935 269l356 -269h-256l-307 247v-247h-167v247l-308 -247h-255l356 269l-349 263h254l302 -249v249h167v-249l302 249h254z" />
    <glyph glyph-name="uni04DE" unicode="&#x4de;" horiz-adv-x="907" 
d="M273 852h130v-102h-130v102zM503 852h130v-102h-130v102zM780 362q81 -23 81 -131v-81q0 -78 -36.5 -114t-113.5 -36h-515q-77 0 -113.5 36t-36.5 114v100h171v-62q0 -31 12.5 -43.5t43.5 -12.5h355q31 0 43.5 12.5t12.5 43.5v56q0 32 -12 44t-44 12h-277v121h267
q32 0 44 12.5t12 43.5v35q0 31 -12.5 43.5t-43.5 12.5h-335q-31 0 -43.5 -12.5t-12.5 -43.5v-54h-171v92q0 78 36.5 114t113.5 36h495q77 0 113.5 -36t36.5 -114v-60q0 -101 -71 -128z" />
    <glyph glyph-name="uni04DF" unicode="&#x4df;" horiz-adv-x="789" 
d="M214 684h130v-102h-130v102zM444 684h130v-102h-130v102zM682 275q61 -16 61 -99v-62q0 -59 -27.5 -86.5t-86.5 -27.5h-469q-59 0 -86.5 27.5t-27.5 86.5v75h161v-35q0 -23 9.5 -32t33.5 -9h283q24 0 33.5 9t9.5 32v27q0 24 -9.5 33t-33.5 9h-214v100h207q23 0 32.5 9.5
t9.5 33.5v12q0 23 -9.5 32t-32.5 9h-269q-23 0 -32.5 -9t-9.5 -32v-29h-161v69q0 59 27.5 86.5t86.5 27.5h453q59 0 87 -27.5t28 -86.5v-46q0 -78 -54 -97z" />
    <glyph glyph-name="uni04E2" unicode="&#x4e2;" horiz-adv-x="936" 
d="M248 846h440v-80h-440v80zM226 227l504 473h150v-700h-170v480l-512 -480h-142v700h170v-473z" />
    <glyph glyph-name="uni04E3" unicode="&#x4e3;" horiz-adv-x="820" 
d="M190 678h440v-80h-440v80zM215 186l410 346h140v-532h-161v352l-417 -352h-132v532h160v-346z" />
    <glyph glyph-name="uni04E4" unicode="&#x4e4;" horiz-adv-x="936" 
d="M288 852h130v-102h-130v102zM518 852h130v-102h-130v102zM226 227l504 473h150v-700h-170v480l-512 -480h-142v700h170v-473z" />
    <glyph glyph-name="uni04E5" unicode="&#x4e5;" horiz-adv-x="820" 
d="M230 684h130v-102h-130v102zM460 684h130v-102h-130v102zM215 186l410 346h140v-532h-161v352l-417 -352h-132v532h160v-346z" />
    <glyph glyph-name="uni04E6" unicode="&#x4e6;" horiz-adv-x="928" 
d="M414 750h-130v102h130v-102zM644 750h-130v102h130v-102zM687 0h-446q-99 0 -146.5 47t-47.5 147v312q0 100 47.5 147t146.5 47h446q99 0 146.5 -47t47.5 -147v-312q0 -100 -47.5 -147t-146.5 -47zM305 146h318q46 0 64 18.5t18 63.5v244q0 45 -18 63.5t-64 18.5h-318
q-45 0 -63.5 -18.5t-18.5 -63.5v-244q0 -45 18.5 -63.5t63.5 -18.5z" />
    <glyph glyph-name="uni04E7" unicode="&#x4e7;" horiz-adv-x="798" 
d="M349 582h-130v102h130v-102zM579 582h-130v102h130v-102zM578 0h-358q-92 0 -133 40.5t-41 133.5v184q0 93 41 133.5t133 40.5h358q92 0 133 -40.5t41 -133.5v-184q0 -93 -41 -133.5t-133 -40.5zM282 130h234q40 0 55 14.5t15 54.5v134q0 40 -15 54.5t-55 14.5h-234
q-40 0 -55 -14.5t-15 -54.5v-134q0 -40 15 -54.5t55 -14.5z" />
    <glyph glyph-name="uni04EC" unicode="&#x4ec;" horiz-adv-x="915" 
d="M278 852h130v-102h-130v102zM508 852h130v-102h-130v102zM238 700h436q99 0 146.5 -47t47.5 -147v-312q0 -100 -47.5 -147t-146.5 -47h-436q-99 0 -146.5 47t-47.5 147v89h170v-69q0 -46 18.5 -64t63.5 -18h314q46 0 64 18t18 64v88h-332v111h332v73q0 46 -18 64t-64 18
h-314q-45 0 -63.5 -18t-18.5 -64v-62h-170v82q0 100 47.5 147t146.5 47z" />
    <glyph glyph-name="uni04ED" unicode="&#x4ed;" horiz-adv-x="793" 
d="M210 684h130v-102h-130v102zM440 684h130v-102h-130v102zM220 532h353q92 0 133 -40.5t41 -133.5v-184q0 -93 -41 -133.5t-133 -40.5h-353q-92 0 -133 40.5t-41 133.5v51h161v-30q0 -40 15 -54.5t55 -14.5h233q40 0 55 14.5t15 54.5v30h-259v94h259v18q0 40 -15 54.5
t-55 14.5h-233q-40 0 -55 -14.5t-15 -54.5v-24h-161v45q0 93 41 133.5t133 40.5z" />
    <glyph glyph-name="uni04EE" unicode="&#x4ee;" horiz-adv-x="872" 
d="M216 846h440v-80h-440v80zM441 365l233 335h204l-519 -700h-202l179 239l-342 461h213z" />
    <glyph glyph-name="uni04EF" unicode="&#x4ef;" horiz-adv-x="778" 
d="M169 678h440v-80h-440v80zM391 158l201 374h184l-317 -536q-53 -93 -108 -125q-55 -31 -163 -31h-132v130h143q43 0 65.5 10t40.5 39l-303 513h191z" />
    <glyph glyph-name="uni04F0" unicode="&#x4f0;" horiz-adv-x="872" 
d="M256 852h130v-102h-130v102zM486 852h130v-102h-130v102zM441 365l233 335h204l-519 -700h-202l179 239l-342 461h213z" />
    <glyph glyph-name="uni04F1" unicode="&#x4f1;" horiz-adv-x="778" 
d="M209 684h130v-102h-130v102zM439 684h130v-102h-130v102zM391 158l201 374h184l-317 -536q-53 -93 -108 -125q-55 -31 -163 -31h-132v130h143q43 0 65.5 10t40.5 39l-303 513h191z" />
    <glyph glyph-name="uni04F2" unicode="&#x4f2;" horiz-adv-x="872" 
d="M321 868h169l-117 -126h-135zM729 868l-117 -126h-135l83 126h169zM441 365l233 335h204l-519 -700h-202l179 239l-342 461h213z" />
    <glyph glyph-name="uni04F3" unicode="&#x4f3;" horiz-adv-x="778" 
d="M274 700h169l-117 -126h-135zM682 700l-117 -126h-135l83 126h169zM391 158l201 374h184l-317 -536q-53 -93 -108 -125q-55 -31 -163 -31h-132v130h143q43 0 65.5 10t40.5 39l-303 513h191z" />
    <glyph glyph-name="uni04F4" unicode="&#x4f4;" horiz-adv-x="876" 
d="M388 750h-130v102h130v-102zM618 750h-130v102h130v-102zM820 0h-176v228h-442q-92 0 -133 40.5t-41 133.5v298h176v-250q0 -40 14.5 -55t54.5 -15h371v320h176v-700z" />
    <glyph glyph-name="uni04F5" unicode="&#x4f5;" horiz-adv-x="600" 
d="M186 582h-130v102h130v-102zM416 582h-130v102h130v-102zM28 532h166v-173q0 -31 12.5 -43.5t43.5 -12.5h292v229h166v-532h-166v170h-364q-77 0 -113.5 36t-36.5 114v212z" />
    <glyph glyph-name="uni04F8" unicode="&#x4f8;" horiz-adv-x="1168" 
d="M968 750h-130v102h130v-102zM1198 750h-130v102h130v-102zM56 0v700h176v-220h434q92 0 133 -40.5t41 -133.5v-132q0 -93 -41 -133.5t-133 -40.5h-610zM929 0v700h178v-700h-178zM595 352h-363v-218h363q40 0 54.5 15t14.5 55v78q0 40 -14.5 55t-54.5 15z" />
    <glyph glyph-name="uni04F9" unicode="&#x4f9;" horiz-adv-x="1049" 
d="M856 582h-130v102h130v-102zM1086 582h-130v102h130v-102zM55 0v532h166v-163h368q75 0 110.5 -35t35.5 -111v-77q0 -76 -35.5 -111t-110.5 -35h-534zM991 0h-169v532h169v-532zM515 262h-294v-149h294q30 0 41.5 11.5t11.5 41.5v43q0 30 -11.5 41.5t-41.5 11.5z" />
    <glyph glyph-name="Wgrave" unicode="&#x1e80;" horiz-adv-x="1274" 
d="M601 868l105 -126h-141l-144 126h180zM901 213l188 487h185l-292 -700h-152l-193 473l-193 -473h-152l-292 700h194l188 -488l193 488h131z" />
    <glyph glyph-name="wgrave" unicode="&#x1e81;" horiz-adv-x="1078" 
d="M503 700l105 -126h-141l-144 126h180zM759 183l142 349h173l-241 -532h-143l-151 349l-149 -349h-145l-241 532h180l143 -350l151 350h129z" />
    <glyph glyph-name="Wacute" unicode="&#x1e82;" horiz-adv-x="1274" 
d="M672 868h181l-145 -126h-140zM901 213l188 487h185l-292 -700h-152l-193 473l-193 -473h-152l-292 700h194l188 -488l193 488h131z" />
    <glyph glyph-name="wacute" unicode="&#x1e83;" horiz-adv-x="1078" 
d="M574 700h181l-145 -126h-140zM759 183l142 349h173l-241 -532h-143l-151 349l-149 -349h-145l-241 532h180l143 -350l151 350h129z" />
    <glyph glyph-name="Wdieresis" unicode="&#x1e84;" horiz-adv-x="1274" 
d="M457 852h130v-102h-130v102zM687 852h130v-102h-130v102zM901 213l188 487h185l-292 -700h-152l-193 473l-193 -473h-152l-292 700h194l188 -488l193 488h131z" />
    <glyph glyph-name="wdieresis" unicode="&#x1e85;" horiz-adv-x="1078" 
d="M359 684h130v-102h-130v102zM589 684h130v-102h-130v102zM759 183l142 349h173l-241 -532h-143l-151 349l-149 -349h-145l-241 532h180l143 -350l151 350h129z" />
    <glyph glyph-name="uni1E9E" unicode="&#x1e9e;" horiz-adv-x="928" 
d="M615 431h120q77 0 113.5 -36t36.5 -114v-131q0 -78 -36.5 -114t-113.5 -36h-370v128h287q31 0 43.5 12.5t12.5 43.5v71q0 31 -12 43.5t-44 12.5h-267v89l182 156h-258q-46 0 -64 -18.5t-18 -63.5v-474h-177v506q0 100 47.5 147t146.5 47h595v-74z" />
    <glyph glyph-name="Ygrave" unicode="&#x1ef2;" horiz-adv-x="872" 
d="M400 868l105 -126h-141l-144 126h180zM674 700h204l-354 -443v-257h-176v257l-354 443h213l234 -307z" />
    <glyph glyph-name="ygrave" unicode="&#x1ef3;" horiz-adv-x="778" 
d="M353 700l105 -126h-141l-144 126h180zM391 158l201 374h184l-317 -536q-53 -93 -108 -125q-55 -31 -163 -31h-132v130h143q43 0 65.5 10t40.5 39l-303 513h191z" />
    <glyph glyph-name="endash" unicode="&#x2013;" horiz-adv-x="760" 
d="M42 280v140h676v-140h-676z" />
    <glyph glyph-name="emdash" unicode="&#x2014;" horiz-adv-x="1028" 
d="M42 280v140h944v-140h-944z" />
    <glyph glyph-name="quoteleft" unicode="&#x2018;" horiz-adv-x="308" 
d="M141 700h105l-58 -160h64v-168h-196v66q0 68 27 123z" />
    <glyph glyph-name="quoteright" unicode="&#x2019;" horiz-adv-x="308" 
d="M167 372h-105l58 160h-64v168h196v-66q0 -68 -27 -123z" />
    <glyph glyph-name="quotesinglbase" unicode="&#x201a;" horiz-adv-x="308" 
d="M167 -160h-105l58 160h-64v168h196v-66q0 -68 -27 -123z" />
    <glyph glyph-name="quotedblleft" unicode="&#x201c;" horiz-adv-x="588" 
d="M141 700h105l-58 -160h64v-168h-196v66q0 68 27 123zM421 700h105l-58 -160h64v-168h-196v66q0 68 27 123z" />
    <glyph glyph-name="quotedblright" unicode="&#x201d;" horiz-adv-x="588" 
d="M167 372h-105l58 160h-64v168h196v-66q0 -68 -27 -123zM447 372h-105l58 160h-64v168h196v-66q0 -68 -27 -123z" />
    <glyph glyph-name="quotedblbase" unicode="&#x201e;" horiz-adv-x="588" 
d="M167 -160h-105l58 160h-64v168h196v-66q0 -68 -27 -123zM447 -160h-105l58 160h-64v168h196v-66q0 -68 -27 -123z" />
    <glyph glyph-name="dagger" unicode="&#x2020;" horiz-adv-x="498" 
d="M302 581h158v-98h-158v-217h-106v217h-158v98h158v119h106v-119z" />
    <glyph glyph-name="daggerdbl" unicode="&#x2021;" horiz-adv-x="498" 
d="M460 588v-94h-158v-122h158v-94h-158v-112h-106v112h-158v94h158v122h-158v94h158v112h106v-112h158z" />
    <glyph glyph-name="bullet" unicode="&#x2022;" horiz-adv-x="420" 
d="M278 196h-136q-86 0 -86 86v136q0 45 21 65.5t65 20.5h136q44 0 65 -20.5t21 -65.5v-136q0 -86 -86 -86z" />
    <glyph glyph-name="perthousand" unicode="&#x2030;" horiz-adv-x="1404" 
d="M317 304h-174q-105 0 -105 105v106q0 105 105 105h174q105 0 105 -105v-106q0 -105 -105 -105zM226 0h-100l620 620h100zM173 386h114q23 0 32.5 9.5t9.5 32.5v68q0 24 -9.5 33t-32.5 9h-114q-23 0 -32.5 -9t-9.5 -33v-68q0 -22 9.5 -32t32.5 -10zM829 0h-174
q-105 0 -105 105v106q0 105 105 105h174q105 0 105 -105v-106q0 -105 -105 -105zM1261 0h-174q-105 0 -105 105v106q0 105 105 105h174q105 0 105 -105v-106q0 -105 -105 -105zM685 82h114q23 0 32.5 9.5t9.5 32.5v68q0 24 -9.5 33t-32.5 9h-114q-23 0 -32.5 -9t-9.5 -33
v-68q0 -22 9.5 -32t32.5 -10zM1117 82h114q23 0 32.5 9.5t9.5 32.5v68q0 24 -9.5 33t-32.5 9h-114q-23 0 -32.5 -9t-9.5 -33v-68q0 -22 9.5 -32t32.5 -10z" />
    <glyph glyph-name="guilsinglleft" unicode="&#x2039;" horiz-adv-x="528" 
d="M48 400l432 192v-132l-278 -109l278 -109v-135l-432 192v101z" />
    <glyph glyph-name="guilsinglright" unicode="&#x203a;" horiz-adv-x="528" 
d="M48 457v135l432 -192v-101l-432 -192v132l278 109z" />
    <glyph glyph-name="fraction" unicode="&#x2044;" horiz-adv-x="241" 
d="M-131 0h-102l605 700h102z" />
    <glyph glyph-name="Euro" unicode="&#x20ac;" horiz-adv-x="892" 
d="M836 506v-82h-164v64q0 46 -18 64t-64 18h-244q-46 0 -64 -18t-18 -64v-33h310v-71h-310v-68h310v-71h-310v-33q0 -46 18 -64t64 -18h244q46 0 64 18t18 64v71h164v-89q0 -100 -47.5 -147t-146.5 -47h-354q-99 0 -146.5 47t-47.5 147v51h-90v71h90v68h-90v71h90v51
q0 100 47.5 147t146.5 47h354q99 0 146.5 -47t47.5 -147z" />
    <glyph glyph-name="trademark" unicode="&#x2122;" horiz-adv-x="660" 
d="M127 641h-99v59h264v-59h-99v-174h-66v174zM476 571l99 129h57v-233h-63v139l-77 -99h-35l-77 99v-139h-63v233h59z" />
    <glyph glyph-name="minus" unicode="&#x2212;" 
d="M62 280v140h740v-140h-740z" />
    <glyph glyph-name="approxequal" unicode="&#x2248;" 
d="M411 619l166 -134q17 -15 41 -15h20q24 0 24 24v180h140v-212q0 -52 -22 -74t-74 -22h-118q-52 0 -76 10q-26 11 -59 45l-166 134q-17 15 -41 15h-20q-24 0 -24 -24v-180h-140v212q0 52 22 74t74 22h118q52 0 76 -10q26 -11 59 -45zM411 279l166 -134q17 -15 41 -15h20
q24 0 24 24v180h140v-212q0 -52 -22 -74t-74 -22h-118q-52 0 -76 10q-26 11 -59 45l-166 134q-17 15 -41 15h-20q-24 0 -24 -24v-180h-140v212q0 52 22 74t74 22h118q52 0 76 -10q26 -11 59 -45z" />
    <glyph glyph-name="notequal" unicode="&#x2260;" 
d="M802 546v-134h-276l-60 -124h336v-134h-400l-57 -118h-128l57 118h-212v134h276l60 124h-336v134h400l57 118h128l-57 -118h212z" />
    <glyph glyph-name="lessequal" unicode="&#x2264;" 
d="M62 508l740 176v-140l-546 -97l546 -97v-139l-740 176v121zM802 16h-740v121h740v-121z" />
    <glyph glyph-name="greaterequal" unicode="&#x2265;" 
d="M62 544v140l740 -176v-121l-740 -176v139l546 97zM802 16h-740v121h740v-121z" />
    <glyph glyph-name="fi" unicode="&#xfb01;" horiz-adv-x="890" 
d="M156 467v83q0 78 36.5 114t113.5 36h283v-128h-210q-31 0 -43.5 -12.5t-12.5 -43.5v-49h266v-127h-266v-340h-167v340h-142v127h142zM662 582v118h170v-118h-170zM832 0h-170v532h170v-532z" />
    <glyph glyph-name="fl" unicode="&#xfb02;" horiz-adv-x="889" 
d="M156 467v83q0 78 36.5 114t113.5 36h283v-128h-210q-31 0 -43.5 -12.5t-12.5 -43.5v-49h266v-127h-266v-340h-167v340h-142v127h142zM662 0v700h169v-700h-169z" />
    <glyph glyph-name="null" horiz-adv-x="0" 
 />
    <glyph glyph-name="A.ss01" horiz-adv-x="924" 
d="M244 700h437q99 0 146.5 -47t47.5 -147v-506h-177v194h-471v-194h-177v506q0 100 47.5 147t146.5 47zM227 472v-138h471v138q0 45 -18 63.5t-64 18.5h-307q-46 0 -64 -18.5t-18 -63.5z" />
    <glyph glyph-name="Aacute.ss01" horiz-adv-x="924" 
d="M497 868h181l-145 -126h-140zM244 700h437q99 0 146.5 -47t47.5 -147v-506h-177v194h-471v-194h-177v506q0 100 47.5 147t146.5 47zM227 472v-138h471v138q0 45 -18 63.5t-64 18.5h-307q-46 0 -64 -18.5t-18 -63.5z" />
    <glyph glyph-name="Abreve.ss01" horiz-adv-x="924" 
d="M599 742h-274q-74 0 -74 74v52h114v-30q0 -28 28 -28h138q28 0 28 28v30h114v-52q0 -74 -74 -74zM244 700h437q99 0 146.5 -47t47.5 -147v-506h-177v194h-471v-194h-177v506q0 100 47.5 147t146.5 47zM227 472v-138h471v138q0 45 -18 63.5t-64 18.5h-307q-46 0 -64 -18.5
t-18 -63.5z" />
    <glyph glyph-name="Acircumflex.ss01" horiz-adv-x="924" 
d="M558 742l-96 62l-96 -62h-123l136 126h166l136 -126h-123zM244 700h437q99 0 146.5 -47t47.5 -147v-506h-177v194h-471v-194h-177v506q0 100 47.5 147t146.5 47zM227 472v-138h471v138q0 45 -18 63.5t-64 18.5h-307q-46 0 -64 -18.5t-18 -63.5z" />
    <glyph glyph-name="Adieresis.ss01" horiz-adv-x="924" 
d="M282 852h130v-102h-130v102zM512 852h130v-102h-130v102zM244 700h437q99 0 146.5 -47t47.5 -147v-506h-177v194h-471v-194h-177v506q0 100 47.5 147t146.5 47zM227 472v-138h471v138q0 45 -18 63.5t-64 18.5h-307q-46 0 -64 -18.5t-18 -63.5z" />
    <glyph glyph-name="Agrave.ss01" horiz-adv-x="924" 
d="M426 868l105 -126h-141l-144 126h180zM244 700h437q99 0 146.5 -47t47.5 -147v-506h-177v194h-471v-194h-177v506q0 100 47.5 147t146.5 47zM227 472v-138h471v138q0 45 -18 63.5t-64 18.5h-307q-46 0 -64 -18.5t-18 -63.5z" />
    <glyph glyph-name="Amacron.ss01" horiz-adv-x="924" 
d="M242 846h440v-80h-440v80zM244 700h437q99 0 146.5 -47t47.5 -147v-506h-177v194h-471v-194h-177v506q0 100 47.5 147t146.5 47zM227 472v-138h471v138q0 45 -18 63.5t-64 18.5h-307q-46 0 -64 -18.5t-18 -63.5z" />
    <glyph glyph-name="Aogonek.ss01" horiz-adv-x="924" 
d="M747 -72h149v-88h-194q-82 0 -82 82v16q0 33 9 50.5t37 37.5l32 17v151h-471v-194h-177v506q0 100 47.5 147t146.5 47h437q99 0 146.5 -47t47.5 -147v-506h-120l-16 -9q-17 -11 -17 -28v-10q0 -25 25 -25zM227 472v-138h471v138q0 45 -18 63.5t-64 18.5h-307
q-46 0 -64 -18.5t-18 -63.5z" />
    <glyph glyph-name="Aring.ss01" horiz-adv-x="924" 
d="M567 732h-210q-29 0 -42 13t-13 42v26q0 29 13 42t42 13h210q29 0 42 -13t13 -42v-26q0 -29 -13 -42t-42 -13zM366 807v-14q0 -11 3.5 -15t14.5 -4h156q11 0 14.5 4t3.5 15v14q0 11 -3.5 15t-14.5 4h-156q-11 0 -14.5 -4t-3.5 -15zM244 700h437q99 0 146.5 -47t47.5 -147
v-506h-177v194h-471v-194h-177v506q0 100 47.5 147t146.5 47zM227 472v-138h471v138q0 45 -18 63.5t-64 18.5h-307q-46 0 -64 -18.5t-18 -63.5z" />
    <glyph glyph-name="Aringacute.ss01" horiz-adv-x="924" 
d="M620 700h61q99 0 146.5 -47t47.5 -147v-506h-177v194h-471v-194h-177v506q0 100 47.5 147t146.5 47h60q-2 16 -2 19v26q0 29 13 42t42 13h56l49 68h175l-72 -68h2q29 0 42 -13t13 -42v-26q0 -3 -2 -19zM366 739v-14q0 -11 3.5 -15t14.5 -4h156q11 0 14.5 4t3.5 15v14
q0 11 -3.5 15t-14.5 4h-156q-11 0 -14.5 -4t-3.5 -15zM227 472v-138h471v138q0 45 -18 63.5t-64 18.5h-307q-46 0 -64 -18.5t-18 -63.5z" />
    <glyph glyph-name="Atilde.ss01" horiz-adv-x="924" 
d="M351 798v-56h-96v77q0 49 50 49h123q23 0 35.5 -5t26.5 -21l33 -34q10 -8 20 -8h19q11 0 11 12v56h96v-77q0 -49 -50 -49h-123q-23 0 -35.5 5t-26.5 21l-33 34q-10 8 -20 8h-19q-11 0 -11 -12zM244 700h437q99 0 146.5 -47t47.5 -147v-506h-177v194h-471v-194h-177v506
q0 100 47.5 147t146.5 47zM227 472v-138h471v138q0 45 -18 63.5t-64 18.5h-307q-46 0 -64 -18.5t-18 -63.5z" />
    <glyph glyph-name="I.ss01" horiz-adv-x="660" 
d="M632 700v-133h-213v-434h213v-133h-604v133h213v434h-213v133h604z" />
    <glyph glyph-name="Iacute.ss01" horiz-adv-x="660" 
d="M365 868h181l-145 -126h-140zM632 700v-133h-213v-434h213v-133h-604v133h213v434h-213v133h604z" />
    <glyph glyph-name="Icircumflex.ss01" horiz-adv-x="660" 
d="M426 742l-96 62l-96 -62h-123l136 126h166l136 -126h-123zM632 700v-133h-213v-434h213v-133h-604v133h213v434h-213v133h604z" />
    <glyph glyph-name="Idieresis.ss01" horiz-adv-x="660" 
d="M150 852h130v-102h-130v102zM380 852h130v-102h-130v102zM632 700v-133h-213v-434h213v-133h-604v133h213v434h-213v133h604z" />
    <glyph glyph-name="Idotaccent.ss01" horiz-adv-x="660" 
d="M246 852h169v-102h-169v102zM632 700v-133h-213v-434h213v-133h-604v133h213v434h-213v133h604z" />
    <glyph glyph-name="Igrave.ss01" horiz-adv-x="660" 
d="M294 868l105 -126h-141l-144 126h180zM632 700v-133h-213v-434h213v-133h-604v133h213v434h-213v133h604z" />
    <glyph glyph-name="Imacron.ss01" horiz-adv-x="660" 
d="M110 846h440v-80h-440v80zM632 700v-133h-213v-434h213v-133h-604v133h213v434h-213v133h604z" />
    <glyph glyph-name="Iogonek.ss01" horiz-adv-x="660" 
d="M632 700v-133h-213v-434h213v-133h-141l-16 -9q-17 -11 -17 -28v-10q0 -25 25 -25h149v-88h-194q-82 0 -82 82v16q0 42 16 62h-344v133h213v434h-213v133h604z" />
    <glyph glyph-name="Itilde.ss01" horiz-adv-x="660" 
d="M219 798v-56h-96v77q0 49 50 49h123q23 0 35.5 -5t26.5 -21l33 -34q10 -8 20 -8h19q11 0 11 12v56h96v-77q0 -49 -50 -49h-123q-23 0 -35.5 5t-26.5 21l-33 34q-10 8 -20 8h-19q-11 0 -11 -12zM632 700v-133h-213v-434h213v-133h-604v133h213v434h-213v133h604z" />
    <glyph glyph-name="R.ss01" horiz-adv-x="890" 
d="M840 550v-115q0 -103 -74 -129q74 -26 74 -129v-177h-176v184q0 33 -13 46.5t-47 13.5h-372v-244h-176v700h634q77 0 113.5 -36t36.5 -114zM604 572h-372v-204h372q34 0 47 13.5t13 46.5v84q0 33 -13 46.5t-47 13.5z" />
    <glyph glyph-name="Racute.ss01" horiz-adv-x="890" 
d="M480 868h181l-145 -126h-140zM840 550v-115q0 -103 -74 -129q74 -26 74 -129v-177h-176v184q0 33 -13 46.5t-47 13.5h-372v-244h-176v700h634q77 0 113.5 -36t36.5 -114zM604 572h-372v-204h372q34 0 47 13.5t13 46.5v84q0 33 -13 46.5t-47 13.5z" />
    <glyph glyph-name="Rcaron.ss01" horiz-adv-x="890" 
d="M488 792l-136 26h12l-13 15l97 35l122 -27l-28 -49h-54zM840 550v-115q0 -103 -74 -129q74 -26 74 -129v-177h-176v184q0 33 -13 46.5t-47 13.5h-372v-244h-176v700h634q77 0 113.5 -36t36.5 -114zM604 572h-372v-204h372q34 0 47 13.5t13 46.5v84q0 33 -13 46.5
t-47 13.5z" />
    <glyph glyph-name="Rcommaaccent.ss01" horiz-adv-x="890" 
d="M840 550v-115q0 -103 -74 -129q74 -26 74 -129v-177h-176v184q0 33 -13 46.5t-47 13.5h-372v-244h-176v700h634q77 0 113.5 -36t36.5 -114zM604 572h-372v-204h372q34 0 47 13.5t13 46.5v84q0 33 -13 46.5t-47 13.5zM425 -126h-60v96h160v-36q0 -29 -5 -47
q-4 -14 -24 -43l-36 -58h-85z" />
    <glyph glyph-name="i.loclTRK" horiz-adv-x="286" 
d="M228 582h-169v102h169v-102zM228 0h-169v532h169v-532z" />
    <glyph glyph-name="uni0410.ss01" horiz-adv-x="924" 
d="M244 700h437q99 0 146.5 -47t47.5 -147v-506h-177v194h-471v-194h-177v506q0 100 47.5 147t146.5 47zM227 472v-138h471v138q0 45 -18 63.5t-64 18.5h-307q-46 0 -64 -18.5t-18 -63.5z" />
    <glyph glyph-name="uni042F.ss01" horiz-adv-x="890" 
d="M200 700h634v-700h-176v244h-372q-34 0 -47 -13.5t-13 -46.5v-184h-176v177q0 103 74 129q-74 26 -74 129v115q0 78 36.5 114t113.5 36zM226 512v-84q0 -33 13 -46.5t47 -13.5h372v204h-372q-34 0 -47 -13.5t-13 -46.5z" />
    <glyph glyph-name="uni044F.ss01" horiz-adv-x="777" 
d="M156 532h566v-532h-166v182h-311q-24 0 -33.5 -9.5t-9.5 -33.5v-139h-160v140q0 79 57 97q-57 19 -57 99v82q0 59 27.5 86.5t86.5 27.5zM208 382v-56q0 -23 10 -32.5t33 -9.5h305v140h-305q-24 0 -33.5 -9t-9.5 -33z" />
    <glyph glyph-name="zero.tf" 
d="M614 0h-364q-99 0 -146.5 47t-47.5 147v312q0 100 47.5 147t146.5 47h364q99 0 146.5 -47t47.5 -147v-312q0 -100 -47.5 -147t-146.5 -47zM308 142h248q46 0 64 18t18 64v252q0 46 -18 64t-64 18h-248q-46 0 -64 -18t-18 -64v-252q0 -46 18 -64t64 -18z" />
    <glyph glyph-name="one.tf" 
d="M542 700v-566h280v-134h-780v134h328v419l-298 -23v140l390 30h80z" />
    <glyph glyph-name="two.tf" 
d="M797 140v-140h-741v226q0 74 35.5 110.5t114.5 45.5l375 40q32 4 44 16.5t12 43.5v28q0 32 -12.5 44t-43.5 12h-290q-31 0 -43.5 -12t-12.5 -44v-26h-165v66q0 78 36.5 114t113.5 36h438q77 0 113.5 -36t36.5 -114v-98q0 -74 -35.5 -110.5t-114.5 -45.5l-375 -40
q-32 -4 -44 -16.5t-12 -43.5v-56h570z" />
    <glyph glyph-name="three.tf" 
d="M729 362q81 -22 81 -131v-81q0 -78 -36.5 -114t-113.5 -36h-456q-77 0 -113.5 36t-36.5 114v90h165v-54q0 -32 12.5 -44t43.5 -12h308q31 0 43.5 12t12.5 44v58q0 32 -12.5 44t-43.5 12h-244v120h234q31 0 43.5 12.5t12.5 43.5v38q0 32 -12.5 44t-43.5 12h-288
q-31 0 -43.5 -12t-12.5 -44v-46h-165v82q0 78 36.5 114t113.5 36h436q77 0 113.5 -36t36.5 -114v-60q0 -101 -71 -128z" />
    <glyph glyph-name="four.tf" 
d="M679 274h163v-127h-163v-147h-166v147h-491v107l461 446h196v-426zM513 569l-305 -295h305v295z" />
    <glyph glyph-name="five.tf" 
d="M658 0h-598v140h521q31 0 43.5 12.5t12.5 43.5v50q0 32 -12.5 44t-43.5 12h-521v398h718v-140h-547v-122h427q77 0 113.5 -36t36.5 -114v-138q0 -78 -36.5 -114t-113.5 -36z" />
    <glyph glyph-name="six.tf" 
d="M328 440h330q77 0 113.5 -36t36.5 -114v-140q0 -78 -36.5 -114t-113.5 -36h-452q-77 0 -113.5 36t-36.5 114v356q0 100 47.5 147t146.5 47h528v-140h-469q-46 0 -64 -18.5t-18 -63.5v-71q29 33 101 33zM637 190v62q0 32 -12.5 44t-43.5 12h-298q-31 0 -43.5 -12
t-12.5 -44v-62q0 -32 12.5 -44t43.5 -12h298q31 0 43.5 12t12.5 44z" />
    <glyph glyph-name="seven.tf" 
d="M42 554v146h780v-126l-295 -264q-37 -33 -47 -62q-12 -32 -12 -87v-161h-174v158q0 91 19 139q19 49 75 96l191 161h-537z" />
    <glyph glyph-name="eight.tf" 
d="M729 362q81 -22 81 -131v-81q0 -78 -36.5 -114t-113.5 -36h-456q-77 0 -113.5 36t-36.5 114v81q0 109 81 131q-71 27 -71 128v60q0 78 36.5 114t113.5 36h436q77 0 113.5 -36t36.5 -114v-60q0 -101 -71 -128zM235 517v-44q0 -31 12.5 -43.5t43.5 -12.5h282
q31 0 43.5 12.5t12.5 43.5v44q0 31 -12.5 43.5t-43.5 12.5h-282q-31 0 -43.5 -12.5t-12.5 -43.5zM639 183v65q0 32 -12.5 44t-43.5 12h-302q-31 0 -43.5 -12t-12.5 -44v-65q0 -31 12.5 -43.5t43.5 -12.5h302q31 0 43.5 12.5t12.5 43.5z" />
    <glyph glyph-name="nine.tf" 
d="M206 700h452q77 0 113.5 -36t36.5 -114v-356q0 -100 -47.5 -147t-146.5 -47h-528v140h469q46 0 64 18.5t18 63.5v65q-29 -33 -101 -33h-330q-77 0 -113.5 36t-36.5 114v146q0 78 36.5 114t113.5 36zM283 386h298q31 0 43.5 12t12.5 44v68q0 32 -12.5 44t-43.5 12h-298
q-31 0 -43.5 -12t-12.5 -44v-68q0 -32 12.5 -44t43.5 -12z" />
    <glyph glyph-name="zero.subs" horiz-adv-x="544" 
d="M383 -100h-221q-62 0 -91.5 29.5t-29.5 91.5v178q0 62 29.5 91.5t91.5 29.5h221q62 0 91.5 -29.5t29.5 -91.5v-178q0 -62 -29.5 -91.5t-91.5 -29.5zM205 3h135q22 0 30.5 9t8.5 30v136q0 21 -8.5 30t-30.5 9h-135q-22 0 -31 -9t-9 -30v-136q0 -21 9 -30t31 -9z" />
    <glyph glyph-name="one.subs" horiz-adv-x="507" 
d="M326 320v-322h153v-98h-451v98h172v215l-154 -13v102l219 18h61z" />
    <glyph glyph-name="two.subs" horiz-adv-x="544" 
d="M497 0v-100h-456v138q0 48 22.5 71t71.5 28l217 20q16 2 21.5 7.5t5.5 20.5v17q0 15 -6 21t-21 6h-156q-15 0 -21 -6t-6 -21v-19h-120v42q0 95 95 95h265q95 0 95 -95v-54q0 -48 -22 -70.5t-73 -27.5l-217 -20q-15 -2 -21 -8t-6 -20v-25h332z" />
    <glyph glyph-name="three.subs" horiz-adv-x="541" 
d="M453 116q50 -14 50 -81v-40q0 -95 -94 -95h-277q-49 0 -71.5 23t-22.5 72v57h120v-31q0 -15 6 -20.5t21 -5.5h166q16 0 21.5 5t5.5 21v26q0 15 -5.5 21t-21.5 6h-137v81h131q16 0 21.5 6t5.5 21v17q0 16 -5.5 21t-21.5 5h-154q-15 0 -21 -5.5t-6 -20.5v-26h-120v52
q0 49 22.5 72t71.5 23h265q94 0 94 -95v-30q0 -64 -44 -79z" />
    <glyph glyph-name="four.subs" horiz-adv-x="561" 
d="M437 71h96v-91h-96v-80h-121v80h-288v77l269 263h140v-249zM316 217l-151 -146h151v146z" />
    <glyph glyph-name="five.subs" horiz-adv-x="525" 
d="M390 -100h-348v100h291q16 0 22 5.5t6 20.5v21q0 15 -6 21t-22 6h-291v246h424v-100h-299v-55h223q49 0 71.5 -22.5t22.5 -71.5v-76q0 -49 -22.5 -72t-71.5 -23z" />
    <glyph glyph-name="six.subs" horiz-adv-x="544" 
d="M226 164h183q49 0 72 -22.5t23 -71.5v-75q0 -95 -95 -95h-274q-49 0 -71.5 23t-22.5 72v204q0 62 29.5 91.5t91.5 29.5h324v-100h-281q-22 0 -31 -8.5t-9 -30.5v-36q16 19 61 19zM379 22v29q0 16 -6 22t-21 6h-160q-15 0 -21 -6t-6 -22v-29q0 -15 6 -21t21 -6h160
q15 0 21 6t6 21z" />
    <glyph glyph-name="seven.subs" horiz-adv-x="520" 
d="M491 320v-92h1l-171 -157q-17 -15 -22.5 -30.5t-5.5 -43.5v-97h-129v95q0 52 11 82t44 57l92 79h-283v107h463z" />
    <glyph glyph-name="eight.subs" horiz-adv-x="543" 
d="M455 116q49 -15 49 -81v-40q0 -49 -22.5 -72t-71.5 -23h-276q-95 0 -95 95v40q0 66 50 81q-44 15 -44 79v30q0 95 95 95h264q49 0 71.5 -23t22.5 -72v-30q0 -64 -43 -79zM170 201v-22q0 -15 6 -20.5t21 -5.5h150q16 0 21 5.5t5 20.5v22q0 15 -5.5 21t-20.5 6h-150
q-15 0 -21 -6t-6 -21zM379 19v30q0 15 -5.5 21t-20.5 6h-162q-16 0 -21.5 -6t-5.5 -21v-30q0 -15 5.5 -21t21.5 -6h162q15 0 20.5 6t5.5 21z" />
    <glyph glyph-name="nine.subs" horiz-adv-x="544" 
d="M135 320h274q95 0 95 -95v-204q0 -62 -29.5 -91.5t-91.5 -29.5h-324v99h281q22 0 30.5 8.5t8.5 30.5v34q-17 -20 -61 -20h-183q-49 0 -71.5 23t-22.5 72v78q0 49 22.5 72t71.5 23zM192 138h160q15 0 21 6t6 21v32q0 15 -6 21t-21 6h-160q-15 0 -21 -6t-6 -21v-32
q0 -15 6 -21t21 -6z" />
    <glyph glyph-name="zero.dnom" horiz-adv-x="544" 
d="M383 0h-221q-62 0 -91.5 29.5t-29.5 91.5v178q0 62 29.5 91.5t91.5 29.5h221q62 0 91.5 -29.5t29.5 -91.5v-178q0 -62 -29.5 -91.5t-91.5 -29.5zM205 103h135q22 0 30.5 9t8.5 30v136q0 21 -8.5 30t-30.5 9h-135q-22 0 -31 -9t-9 -30v-136q0 -21 9 -30t31 -9z" />
    <glyph glyph-name="one.dnom" horiz-adv-x="507" 
d="M326 420v-322h153v-98h-451v98h172v215l-154 -13v102l219 18h61z" />
    <glyph glyph-name="two.dnom" horiz-adv-x="544" 
d="M497 100v-100h-456v138q0 48 22.5 71t71.5 28l217 20q16 2 21.5 7.5t5.5 20.5v17q0 15 -6 21t-21 6h-156q-15 0 -21 -6t-6 -21v-19h-120v42q0 95 95 95h265q95 0 95 -95v-54q0 -48 -22 -70.5t-73 -27.5l-217 -20q-15 -2 -21 -8t-6 -20v-25h332z" />
    <glyph glyph-name="three.dnom" horiz-adv-x="541" 
d="M453 216q50 -14 50 -81v-40q0 -95 -94 -95h-277q-49 0 -71.5 23t-22.5 72v57h120v-31q0 -15 6 -20.5t21 -5.5h166q16 0 21.5 5t5.5 21v26q0 15 -5.5 21t-21.5 6h-137v81h131q16 0 21.5 6t5.5 21v17q0 16 -5.5 21t-21.5 5h-154q-15 0 -21 -5.5t-6 -20.5v-26h-120v52
q0 49 22.5 72t71.5 23h265q94 0 94 -95v-30q0 -64 -44 -79z" />
    <glyph glyph-name="four.dnom" horiz-adv-x="561" 
d="M437 171h96v-91h-96v-80h-121v80h-288v77l269 263h140v-249zM316 317l-151 -146h151v146z" />
    <glyph glyph-name="five.dnom" horiz-adv-x="525" 
d="M390 0h-348v100h291q16 0 22 5.5t6 20.5v21q0 15 -6 21t-22 6h-291v246h424v-100h-299v-55h223q49 0 71.5 -22.5t22.5 -71.5v-76q0 -49 -22.5 -72t-71.5 -23z" />
    <glyph glyph-name="six.dnom" horiz-adv-x="544" 
d="M226 264h183q49 0 72 -22.5t23 -71.5v-75q0 -95 -95 -95h-274q-49 0 -71.5 23t-22.5 72v204q0 62 29.5 91.5t91.5 29.5h324v-100h-281q-22 0 -31 -8.5t-9 -30.5v-36q16 19 61 19zM379 122v29q0 16 -6 22t-21 6h-160q-15 0 -21 -6t-6 -22v-29q0 -15 6 -21t21 -6h160
q15 0 21 6t6 21z" />
    <glyph glyph-name="seven.dnom" horiz-adv-x="520" 
d="M491 420v-92h1l-171 -157q-17 -15 -22.5 -30.5t-5.5 -43.5v-97h-129v95q0 52 11 82t44 57l92 79h-283v107h463z" />
    <glyph glyph-name="eight.dnom" horiz-adv-x="543" 
d="M455 216q49 -15 49 -81v-40q0 -49 -22.5 -72t-71.5 -23h-276q-95 0 -95 95v40q0 66 50 81q-44 15 -44 79v30q0 95 95 95h264q49 0 71.5 -23t22.5 -72v-30q0 -64 -43 -79zM170 301v-22q0 -15 6 -20.5t21 -5.5h150q16 0 21 5.5t5 20.5v22q0 15 -5.5 21t-20.5 6h-150
q-15 0 -21 -6t-6 -21zM379 119v30q0 15 -5.5 21t-20.5 6h-162q-16 0 -21.5 -6t-5.5 -21v-30q0 -15 5.5 -21t21.5 -6h162q15 0 20.5 6t5.5 21z" />
    <glyph glyph-name="nine.dnom" horiz-adv-x="544" 
d="M135 420h274q95 0 95 -95v-204q0 -62 -29.5 -91.5t-91.5 -29.5h-324v99h281q22 0 30.5 8.5t8.5 30.5v34q-17 -20 -61 -20h-183q-49 0 -71.5 23t-22.5 72v78q0 49 22.5 72t71.5 23zM192 238h160q15 0 21 6t6 21v32q0 15 -6 21t-21 6h-160q-15 0 -21 -6t-6 -21v-32
q0 -15 6 -21t21 -6z" />
    <glyph glyph-name="zero.numr" horiz-adv-x="544" 
d="M383 280h-221q-62 0 -91.5 29.5t-29.5 91.5v178q0 62 29.5 91.5t91.5 29.5h221q62 0 91.5 -29.5t29.5 -91.5v-178q0 -62 -29.5 -91.5t-91.5 -29.5zM205 383h135q22 0 30.5 9t8.5 30v136q0 21 -8.5 30t-30.5 9h-135q-22 0 -31 -9t-9 -30v-136q0 -21 9 -30t31 -9z" />
    <glyph glyph-name="one.numr" horiz-adv-x="507" 
d="M326 700v-322h153v-98h-451v98h172v215l-154 -13v102l219 18h61z" />
    <glyph glyph-name="two.numr" horiz-adv-x="544" 
d="M497 380v-100h-456v138q0 48 22.5 71t71.5 28l217 20q16 2 21.5 7.5t5.5 20.5v17q0 15 -6 21t-21 6h-156q-15 0 -21 -6t-6 -21v-19h-120v42q0 95 95 95h265q95 0 95 -95v-54q0 -48 -22 -70.5t-73 -27.5l-217 -20q-15 -2 -21 -8t-6 -20v-25h332z" />
    <glyph glyph-name="three.numr" horiz-adv-x="541" 
d="M453 496q50 -14 50 -81v-40q0 -95 -94 -95h-277q-49 0 -71.5 23t-22.5 72v57h120v-31q0 -15 6 -20.5t21 -5.5h166q16 0 21.5 5t5.5 21v26q0 15 -5.5 21t-21.5 6h-137v81h131q16 0 21.5 6t5.5 21v17q0 16 -5.5 21t-21.5 5h-154q-15 0 -21 -5.5t-6 -20.5v-26h-120v52
q0 49 22.5 72t71.5 23h265q94 0 94 -95v-30q0 -64 -44 -79z" />
    <glyph glyph-name="four.numr" horiz-adv-x="561" 
d="M437 451h96v-91h-96v-80h-121v80h-288v77l269 263h140v-249zM316 597l-151 -146h151v146z" />
    <glyph glyph-name="five.numr" horiz-adv-x="525" 
d="M390 280h-348v100h291q16 0 22 5.5t6 20.5v21q0 15 -6 21t-22 6h-291v246h424v-100h-299v-55h223q49 0 71.5 -22.5t22.5 -71.5v-76q0 -49 -22.5 -72t-71.5 -23z" />
    <glyph glyph-name="six.numr" horiz-adv-x="544" 
d="M226 544h183q49 0 72 -22.5t23 -71.5v-75q0 -95 -95 -95h-274q-49 0 -71.5 23t-22.5 72v204q0 62 29.5 91.5t91.5 29.5h324v-100h-281q-22 0 -31 -8.5t-9 -30.5v-36q16 19 61 19zM379 402v29q0 16 -6 22t-21 6h-160q-15 0 -21 -6t-6 -22v-29q0 -15 6 -21t21 -6h160
q15 0 21 6t6 21z" />
    <glyph glyph-name="seven.numr" horiz-adv-x="520" 
d="M491 700v-92h1l-171 -157q-17 -15 -22.5 -30.5t-5.5 -43.5v-97h-129v95q0 52 11 82t44 57l92 79h-283v107h463z" />
    <glyph glyph-name="eight.numr" horiz-adv-x="543" 
d="M455 496q49 -15 49 -81v-40q0 -49 -22.5 -72t-71.5 -23h-276q-95 0 -95 95v40q0 66 50 81q-44 15 -44 79v30q0 95 95 95h264q49 0 71.5 -23t22.5 -72v-30q0 -64 -43 -79zM170 581v-22q0 -15 6 -20.5t21 -5.5h150q16 0 21 5.5t5 20.5v22q0 15 -5.5 21t-20.5 6h-150
q-15 0 -21 -6t-6 -21zM379 399v30q0 15 -5.5 21t-20.5 6h-162q-16 0 -21.5 -6t-5.5 -21v-30q0 -15 5.5 -21t21.5 -6h162q15 0 20.5 6t5.5 21z" />
    <glyph glyph-name="nine.numr" horiz-adv-x="544" 
d="M135 700h274q95 0 95 -95v-204q0 -62 -29.5 -91.5t-91.5 -29.5h-324v99h281q22 0 30.5 8.5t8.5 30.5v34q-17 -20 -61 -20h-183q-49 0 -71.5 23t-22.5 72v78q0 49 22.5 72t71.5 23zM192 518h160q15 0 21 6t6 21v32q0 15 -6 21t-21 6h-160q-15 0 -21 -6t-6 -21v-32
q0 -15 6 -21t21 -6z" />
    <glyph glyph-name="zero.sups" horiz-adv-x="544" 
d="M383 380h-221q-62 0 -91.5 29.5t-29.5 91.5v178q0 62 29.5 91.5t91.5 29.5h221q62 0 91.5 -29.5t29.5 -91.5v-178q0 -62 -29.5 -91.5t-91.5 -29.5zM205 483h135q22 0 30.5 9t8.5 30v136q0 21 -8.5 30t-30.5 9h-135q-22 0 -31 -9t-9 -30v-136q0 -21 9 -30t31 -9z" />
    <glyph glyph-name="one.sups" horiz-adv-x="507" 
d="M326 800v-322h153v-98h-451v98h172v215l-154 -13v102l219 18h61z" />
    <glyph glyph-name="two.sups" horiz-adv-x="544" 
d="M497 480v-100h-456v138q0 48 22.5 71t71.5 28l217 20q16 2 21.5 7.5t5.5 20.5v17q0 15 -6 21t-21 6h-156q-15 0 -21 -6t-6 -21v-19h-120v42q0 95 95 95h265q95 0 95 -95v-54q0 -48 -22 -70.5t-73 -27.5l-217 -20q-15 -2 -21 -8t-6 -20v-25h332z" />
    <glyph glyph-name="three.sups" horiz-adv-x="541" 
d="M453 596q50 -14 50 -81v-40q0 -95 -94 -95h-277q-49 0 -71.5 23t-22.5 72v57h120v-31q0 -15 6 -20.5t21 -5.5h166q16 0 21.5 5t5.5 21v26q0 15 -5.5 21t-21.5 6h-137v81h131q16 0 21.5 6t5.5 21v17q0 16 -5.5 21t-21.5 5h-154q-15 0 -21 -5.5t-6 -20.5v-26h-120v52
q0 49 22.5 72t71.5 23h265q94 0 94 -95v-30q0 -64 -44 -79z" />
    <glyph glyph-name="four.sups" horiz-adv-x="561" 
d="M437 551h96v-91h-96v-80h-121v80h-288v77l269 263h140v-249zM316 697l-151 -146h151v146z" />
    <glyph glyph-name="five.sups" horiz-adv-x="525" 
d="M390 380h-348v100h291q16 0 22 5.5t6 20.5v21q0 15 -6 21t-22 6h-291v246h424v-100h-299v-55h223q49 0 71.5 -22.5t22.5 -71.5v-76q0 -49 -22.5 -72t-71.5 -23z" />
    <glyph glyph-name="six.sups" horiz-adv-x="544" 
d="M226 644h183q49 0 72 -22.5t23 -71.5v-75q0 -95 -95 -95h-274q-49 0 -71.5 23t-22.5 72v204q0 62 29.5 91.5t91.5 29.5h324v-100h-281q-22 0 -31 -8.5t-9 -30.5v-36q16 19 61 19zM379 502v29q0 16 -6 22t-21 6h-160q-15 0 -21 -6t-6 -22v-29q0 -15 6 -21t21 -6h160
q15 0 21 6t6 21z" />
    <glyph glyph-name="seven.sups" horiz-adv-x="520" 
d="M491 800v-92h1l-171 -157q-17 -15 -22.5 -30.5t-5.5 -43.5v-97h-129v95q0 52 11 82t44 57l92 79h-283v107h463z" />
    <glyph glyph-name="eight.sups" horiz-adv-x="543" 
d="M455 596q49 -15 49 -81v-40q0 -49 -22.5 -72t-71.5 -23h-276q-95 0 -95 95v40q0 66 50 81q-44 15 -44 79v30q0 95 95 95h264q49 0 71.5 -23t22.5 -72v-30q0 -64 -43 -79zM170 681v-22q0 -15 6 -20.5t21 -5.5h150q16 0 21 5.5t5 20.5v22q0 15 -5.5 21t-20.5 6h-150
q-15 0 -21 -6t-6 -21zM379 499v30q0 15 -5.5 21t-20.5 6h-162q-16 0 -21.5 -6t-5.5 -21v-30q0 -15 5.5 -21t21.5 -6h162q15 0 20.5 6t5.5 21z" />
    <glyph glyph-name="nine.sups" horiz-adv-x="544" 
d="M135 800h274q95 0 95 -95v-204q0 -62 -29.5 -91.5t-91.5 -29.5h-324v99h281q22 0 30.5 8.5t8.5 30.5v34q-17 -20 -61 -20h-183q-49 0 -71.5 23t-22.5 72v78q0 49 22.5 72t71.5 23zM192 618h160q15 0 21 6t6 21v32q0 15 -6 21t-21 6h-160q-15 0 -21 -6t-6 -21v-32
q0 -15 6 -21t21 -6z" />
    <glyph glyph-name="numbersign.numr" horiz-adv-x="545" 
d="M510 605v-73h-91l-14 -84h79v-73h-90l-15 -95h-91l15 95h-99l-15 -95h-90l15 95h-79v73h90l14 84h-79v73h90l15 95h90l-15 -95h99l15 95h91l-15 -95h80zM215 448h99l14 84h-99z" />
    <glyph glyph-name="numbersign.tf" 
d="M818 530v-102h-152l-24 -156h134v-102h-150l-27 -170h-127l27 170h-190l-27 -170h-127l27 170h-136v102h152l24 156h-134v102h150l27 170h127l-27 -170h190l27 170h127l-27 -170h136zM325 272h190l24 156h-190z" />
    <glyph glyph-name="cent.numr" horiz-adv-x="544" 
d="M504 591v-37h-120v17q0 19 -7 26t-26 7h-153q-19 0 -26 -7t-7 -26v-90q0 -19 7 -25.5t26 -6.5h153q19 0 26 6.5t7 25.5v21h120v-41q0 -58 -26 -83.5t-83 -25.5h-82v-60h-80v60h-83q-57 0 -83 25.5t-26 83.5v130q0 58 26 83.5t83 25.5h83v60h80v-60h82q57 0 83 -25.5
t26 -83.5z" />
    <glyph glyph-name="dollar.numr" horiz-adv-x="544" 
d="M195 548l216 -15q51 -4 73 -25.5t22 -68.5v-64q0 -95 -95 -95h-99v-60h-80v60h-100q-49 0 -71.5 23t-22.5 72v39h120v-18q0 -16 5.5 -21.5t21.5 -5.5h169q15 0 21 5.5t6 21.5v18q0 14 -5.5 19t-21.5 7l-215 15q-51 5 -73 26t-22 68v56q0 49 22.5 72t71.5 23h94v60h80v-60
h91q94 0 94 -95v-34h-120v13q0 16 -5.5 21.5t-21.5 5.5h-155q-15 0 -21 -5.5t-6 -21.5v-11q0 -15 5.5 -19.5t21.5 -5.5z" />
    <glyph glyph-name="Euro.numr" horiz-adv-x="562" 
d="M521 579v-53h-120v41q0 22 -8.5 30.5t-30.5 8.5h-134q-22 0 -30.5 -8.5t-8.5 -30.5v-12h163v-48h-163v-34h163v-48h-163v-12q0 -22 8.5 -30.5t30.5 -8.5h134q22 0 30.5 8.5t8.5 30.5v45h120v-57q0 -62 -29.5 -91.5t-91.5 -29.5h-215q-62 0 -91.5 29.5t-29.5 91.5v24h-50
v48h50v34h-50v48h50v24q0 62 29.5 91.5t91.5 29.5h215q62 0 91.5 -29.5t29.5 -91.5z" />
    <glyph glyph-name="florin.numr" horiz-adv-x="495" 
d="M460 597h-96q-22 0 -31 -8.5t-11 -30.5l-7 -66h133v-76h-140l-11 -111q-7 -64 -35.5 -92.5t-88.5 -28.5h-140v103h97q21 0 30 9t12 31l9 89h-136v76h144l9 87q7 65 35 93t88 28h139v-103z" />
    <glyph glyph-name="sterling.numr" horiz-adv-x="559" 
d="M518 579v-43h-120v31q0 22 -8.5 30.5t-30.5 8.5h-132q-19 0 -27 -8.5t-8 -30.5v-39h156v-65h-156v-84h179q15 0 20.5 5.5t5.5 20.5v39h121v-69q0 -95 -95 -95h-403v99h47v84h-53v65h53v51q0 62 29.5 91.5t91.5 29.5h209q62 0 91.5 -29.5t29.5 -91.5z" />
    <glyph glyph-name="yen.numr" horiz-adv-x="543" 
d="M376 700h145l-159 -223h141v-54h-169v-37h169v-54h-169v-52h-125v52h-169v54h169v37h-169v54h141l-159 223h151l102 -159z" />
    <glyph glyph-name="cent.tf" 
d="M808 526v-57h-164v30q0 40 -14.5 54.5t-54.5 14.5h-280q-40 0 -54.5 -14.5t-14.5 -54.5v-168q0 -40 14.5 -54.5t54.5 -14.5h280q40 0 54.5 14.5t14.5 54.5v37h164v-64q0 -93 -41 -133.5t-133 -40.5h-144v-100h-112v100h-148q-92 0 -133 40.5t-41 133.5v222q0 93 41 133.5
t133 40.5h148v100h112v-100h144q92 0 133 -40.5t41 -133.5z" />
    <glyph glyph-name="dollar.tf" 
d="M289 440l373 -28q80 -6 115 -40t35 -110v-112q0 -78 -36.5 -114t-113.5 -36h-175v-100h-111v100h-174q-77 0 -113.5 36t-36.5 114v65h165v-27q0 -31 12.5 -43.5t43.5 -12.5h312q31 0 43.5 12.5t12.5 43.5v34q0 31 -12 42.5t-44 13.5l-373 28q-80 7 -115 41t-35 109v94
q0 78 36.5 114t113.5 36h164v100h111v-100h161q77 0 113.5 -36t36.5 -114v-53h-165v15q0 31 -12.5 43.5t-43.5 12.5h-288q-31 0 -43.5 -12.5t-12.5 -43.5v-16q0 -31 12 -42.5t44 -13.5z" />
    <glyph glyph-name="Euro.tf" 
d="M808 506v-82h-164v64q0 46 -18 64t-64 18h-234q-46 0 -64 -18t-18 -64v-33h300v-71h-300v-68h300v-71h-300v-33q0 -46 18 -64t64 -18h234q46 0 64 18t18 64v71h164v-89q0 -100 -47.5 -147t-146.5 -47h-344q-99 0 -146.5 47t-47.5 147v51h-72v71h72v68h-72v71h72v51
q0 100 47.5 147t146.5 47h344q99 0 146.5 -47t47.5 -147z" />
    <glyph glyph-name="florin.tf" 
d="M802 558h-175q-44 0 -62.5 -18t-23.5 -64l-14 -131h255v-110h-267l-22 -201q-11 -104 -56.5 -149t-141.5 -45h-233v142h175q44 0 62.5 18t23.5 64l19 171h-260v110h272l17 161q11 104 56.5 149t141.5 45h233v-142z" />
    <glyph glyph-name="sterling.tf" 
d="M808 506v-66h-164v48q0 46 -18 64t-64 18h-230q-42 0 -59 -18.5t-17 -63.5v-84h290v-94h-290v-174h332q32 0 44 12t12 44v64h164v-106q0 -78 -36.5 -114t-113.5 -36h-644v136h72v174h-82v94h82v102q0 100 47.5 147t146.5 47h334q99 0 146.5 -47t47.5 -147z" />
    <glyph glyph-name="yen.tf" 
d="M647 700h195l-283 -380h253v-78h-295v-74h295v-78h-295v-90h-170v90h-295v78h295v74h-295v78h253l-283 380h204l211 -305z" />
    <glyph glyph-name="percent.numr" horiz-adv-x="609" 
d="M213 503h-117q-63 0 -63 63v71q0 63 63 63h117q63 0 63 -63v-71q0 -63 -63 -63zM149 280h-68l378 420h68zM119 561h73q18 0 18 18v44q0 11 -4 15t-14 4h-73q-11 0 -15 -4t-4 -15v-44q0 -18 19 -18zM514 280h-119q-63 0 -63 63v71q0 63 63 63h119q62 0 62 -63v-71
q0 -63 -62 -63zM418 338h73q18 0 18 19v44q0 11 -3.5 14.5t-14.5 3.5h-73q-10 0 -14 -3.5t-4 -14.5v-44q0 -19 18 -19z" />
    <glyph glyph-name="perthousand.numr" horiz-adv-x="880" 
d="M213 503h-117q-63 0 -63 63v71q0 63 63 63h117q63 0 63 -63v-71q0 -63 -63 -63zM149 280h-68l378 420h68zM119 561h73q18 0 18 18v44q0 11 -4 15t-14 4h-73q-11 0 -15 -4t-4 -15v-44q0 -18 19 -18zM514 280h-119q-63 0 -63 63v71q0 63 63 63h119q62 0 62 -63v-71
q0 -63 -62 -63zM785 280h-119q-63 0 -63 63v71q0 63 63 63h119q62 0 62 -63v-71q0 -63 -62 -63zM418 338h73q18 0 18 19v44q0 11 -3.5 14.5t-14.5 3.5h-73q-10 0 -14 -3.5t-4 -14.5v-44q0 -19 18 -19zM689 338h73q18 0 18 19v44q0 11 -4 14.5t-14 3.5h-73q-11 0 -14.5 -3.5
t-3.5 -14.5v-44q0 -19 18 -19z" />
    <glyph glyph-name="percent.tf" horiz-adv-x="972" 
d="M327 374h-184q-105 0 -105 105v116q0 105 105 105h184q105 0 105 -105v-116q0 -105 -105 -105zM220 0h-99l631 700h99zM173 456h124q23 0 32.5 9.5t9.5 32.5v78q0 24 -9.5 33t-32.5 9h-124q-23 0 -32.5 -9t-9.5 -33v-78q0 -22 9.5 -32t32.5 -10zM829 0h-184
q-105 0 -105 105v116q0 105 105 105h184q105 0 105 -105v-116q0 -105 -105 -105zM675 82h124q23 0 32.5 9.5t9.5 32.5v78q0 24 -9.5 33t-32.5 9h-124q-23 0 -32.5 -9t-9.5 -33v-78q0 -22 9.5 -32t32.5 -10z" />
    <glyph glyph-name="perthousand.tf" horiz-adv-x="1414" 
d="M327 374h-184q-105 0 -105 105v116q0 105 105 105h184q105 0 105 -105v-116q0 -105 -105 -105zM220 0h-99l631 700h99zM173 456h124q23 0 32.5 9.5t9.5 32.5v78q0 24 -9.5 33t-32.5 9h-124q-23 0 -32.5 -9t-9.5 -33v-78q0 -22 9.5 -32t32.5 -10zM829 0h-184
q-105 0 -105 105v116q0 105 105 105h184q105 0 105 -105v-116q0 -105 -105 -105zM1271 0h-184q-105 0 -105 105v116q0 105 105 105h184q105 0 105 -105v-116q0 -105 -105 -105zM675 82h124q23 0 32.5 9.5t9.5 32.5v78q0 24 -9.5 33t-32.5 9h-124q-23 0 -32.5 -9t-9.5 -33
v-78q0 -22 9.5 -32t32.5 -10zM1117 82h124q23 0 32.5 9.5t9.5 32.5v78q0 24 -9.5 33t-32.5 9h-124q-23 0 -32.5 -9t-9.5 -33v-78q0 -22 9.5 -32t32.5 -10z" />
    <glyph glyph-name="brevecombcy" horiz-adv-x="0" 
d="M-130 574h-274q-74 0 -74 74v52h114v-30q0 -28 28 -28h138q28 0 28 28v30h114v-52q0 -74 -74 -74z" />
    <glyph glyph-name="ringacutecomb" horiz-adv-x="416" 
d="M311 632h2q29 0 42 -13t13 -42v-26q0 -29 -13 -42t-42 -13h-210q-29 0 -42 13t-13 42v26q0 29 13 42t42 13h56l49 68h175zM304 557v14q0 11 -3.5 15t-14.5 4h-156q-11 0 -14.5 -4t-3.5 -15v-14q0 -11 3.5 -15t14.5 -4h156q11 0 14.5 4t3.5 15z" />
    </font>
</defs>
</svg>
