<?xml version="1.0" standalone="no"?>
<!DOCTYPE svg PUBLIC "-//W3C//DTD SVG 1.1//EN" "http://www.w3.org/Graphics/SVG/1.1/DTD/svg11.dtd" >
<svg xmlns="http://www.w3.org/2000/svg" xmlns:xlink="http://www.w3.org/1999/xlink" version="1.1">
<metadata>
Created by FontForge 20170731 at Thu Jun 30 17:45:13 2016
 By Aleksey,,,
(c)2016 Richard Miller
</metadata>
<defs>
<font id="TacticSans-Ult" horiz-adv-x="752" >
  <font-face 
    font-family="TacticSans-Ult"
    font-weight="400"
    font-stretch="normal"
    units-per-em="1000"
    panose-1="0 0 10 0 0 0 0 0 0 0"
    ascent="814"
    descent="-186"
    x-height="540"
    cap-height="700"
    bbox="-920 -250 1288 860"
    underline-thickness="50"
    underline-position="-200"
    unicode-range="U+0020-FB02"
  />
<missing-glyph horiz-adv-x="720" 
d="M10 0v700h700v-700h-700zM259 350l-169 -169l107 -107l169 169l169 -169l107 107l-169 169l169 169l-107 107l-169 -169l-169 169l-107 -107z" />
    <glyph glyph-name="ellipsis" unicode="&#x2e;&#x2e;&#x2e;" horiz-adv-x="1160" 
d="M320 0h-280v260h280v-260zM720 0h-280v260h280v-260zM1120 0h-280v260h280v-260z" />
    <glyph glyph-name="blackbox.liga" unicode="[&#x2b;]" horiz-adv-x="940" 
d="M120 0v700h700v-700h-700z" />
    <glyph glyph-name="checkbox.liga" unicode="[]" horiz-adv-x="940" 
d="M120 0v700h700v-700h-700zM706 590h-472v-480h472v480z" />
    <glyph glyph-name="checkround.liga" unicode="&#x28;&#x29;" horiz-adv-x="940" 
d="M726 95q-105 -105 -256 -105q-152 0 -255 105q-105 103 -105 255q0 151 105 256q104 104 255 104q150 0 256 -104q104 -106 104 -256q0 -151 -104 -255zM295 173q70 -73 175 -73t175 73q71 73 71 177t-71 178q-71 72 -175 72t-175 -72q-71 -74 -71 -178t71 -177z" />
    <glyph glyph-name="checkstar.liga" unicode="&#x7b;&#x7d;" horiz-adv-x="940" 
d="M378 437l92 283l92 -283h297l-240 -174l91 -283l-240 175l-240 -175l91 283l-240 174h297zM502 355l-32 99l-33 -99h-104l85 -60l-32 -100l84 61l83 -61l-32 100l85 60h-104z" />
    <glyph glyph-name="blackround.liga" unicode="&#x28;&#x2b;&#x29;" horiz-adv-x="940" 
d="M726 95q-105 -105 -256 -105q-152 0 -255 105q-105 103 -105 255q0 151 105 256q104 104 255 104q150 0 256 -104q104 -106 104 -256q0 -151 -104 -255z" />
    <glyph glyph-name="filledstar.liga" unicode="&#x7b;&#x2b;&#x7d;" horiz-adv-x="940" 
d="M378 437l92 283l92 -283h297l-240 -174l91 -283l-240 175l-240 -175l91 283l-240 174h297z" />
    <glyph glyph-name="ff.liga" unicode="ff" horiz-adv-x="924" 
d="M914 524h-116q-19 0 -25.5 -6.5t-6.5 -25.5v-20h148v-188h-148v-284h-244v284h-178v-284h-244v284h-90v188h90v62q0 87 40 126.5t126 39.5h206v-176h-96q-19 0 -25.5 -6.5t-6.5 -25.5v-20h178v62q0 87 40 126.5t126 39.5h226v-176z" />
    <glyph glyph-name=".notdef" horiz-adv-x="720" 
d="M10 0v700h700v-700h-700zM259 350l-169 -169l107 -107l169 169l169 -169l107 107l-169 169l169 169l-107 107l-169 -169l-169 169l-107 -107z" />
    <glyph glyph-name=".null" horiz-adv-x="0" 
 />
    <glyph glyph-name="nonmarkingreturn" horiz-adv-x="333" 
 />
    <glyph glyph-name="space" unicode=" " horiz-adv-x="300" 
 />
    <glyph glyph-name="exclam" unicode="!" horiz-adv-x="360" 
d="M90 270l-50 430h280l-50 -430h-180zM320 0h-280v230h280v-230z" />
    <glyph glyph-name="quotedbl" unicode="&#x22;" horiz-adv-x="540" 
d="M40 300v400h200v-400h-200zM300 300v400h200v-400h-200z" />
    <glyph glyph-name="numbersign" unicode="#" 
d="M722 506v-146h-108l-18 -100h82v-146h-108l-20 -114h-176l20 114h-106l-20 -114h-176l20 114h-82v146h108l18 100h-82v146h108l20 114h176l-20 -114h106l20 114h176l-20 -114h82zM314 260h106l18 100h-106z" />
    <glyph glyph-name="dollar" unicode="$" 
d="M324 454l230 -22q90 -9 128 -46t38 -120v-100q0 -87 -40 -126.5t-126 -39.5h-102v-100h-152v100h-102q-86 0 -126 39.5t-40 126.5v68h240v-32q0 -19 6.5 -25.5t25.5 -6.5h134q19 0 25.5 6.5t6.5 25.5v20q0 18 -6.5 24t-25.5 8l-230 22q-90 9 -128 46t-38 120v92
q0 87 40 126.5t126 39.5h92v100h152v-100h88q86 0 126 -39.5t40 -126.5v-60h-240v24q0 19 -6.5 25.5t-25.5 6.5h-110q-19 0 -25.5 -6.5t-6.5 -25.5v-12q0 -18 6.5 -24t25.5 -8z" />
    <glyph glyph-name="percent" unicode="%" horiz-adv-x="860" 
d="M265 300h-130q-105 0 -105 105v110q0 105 105 105h130q105 0 105 -105v-110q0 -105 -105 -105zM240 0h-120l500 620h120zM178 412h44q13 0 18 5t5 18v50q0 13 -4.5 18t-18.5 5h-44q-13 0 -18 -5t-5 -18v-50q0 -13 5 -18t18 -5zM725 0h-130q-105 0 -105 105v110
q0 105 105 105h130q105 0 105 -105v-110q0 -105 -105 -105zM638 112h44q13 0 18 5t5 18v50q0 13 -4.5 18t-18.5 5h-44q-13 0 -18 -5t-5 -18v-50q0 -13 5 -18t18 -5z" />
    <glyph glyph-name="ampersand" unicode="&#x26;" horiz-adv-x="842" 
d="M342 426h490v-144h-100v-116q0 -87 -40 -126.5t-126 -39.5h-370q-86 0 -126 39.5t-40 126.5v50q0 124 100 142q-70 30 -70 134v42q0 87 40 126.5t126 39.5h310q86 0 126 -39.5t40 -126.5v-62h-240v18q0 19 -6.5 25.5t-25.5 6.5h-88q-19 0 -25.5 -6.5t-6.5 -25.5v-32
q0 -19 6.5 -25.5t25.5 -6.5zM492 210v72h-180q-19 0 -25.5 -6.5t-6.5 -25.5v-40q0 -19 6.5 -25.5t25.5 -6.5h148q19 0 25.5 6.5t6.5 25.5z" />
    <glyph glyph-name="quotesingle" unicode="'" horiz-adv-x="280" 
d="M40 300v400h200v-400h-200z" />
    <glyph glyph-name="parenleft" unicode="(" horiz-adv-x="440" 
d="M420 -100h-120q-260 0 -260 260v380q0 260 260 260h120v-190h-92q-74 0 -74 -74v-372q0 -74 74 -74h92v-190z" />
    <glyph glyph-name="parenright" unicode=")" horiz-adv-x="440" 
d="M20 800h120q260 0 260 -260v-380q0 -260 -260 -260h-120v190h92q74 0 74 74v372q0 74 -74 74h-92v190z" />
    <glyph glyph-name="asterisk" unicode="*" horiz-adv-x="490" 
d="M414 628l43 -133l-119 -26l81 -90l-113 -82l-61 105l-61 -105l-113 82l81 90l-119 26l43 133l111 -48l-12 120h140l-12 -120z" />
    <glyph glyph-name="plus" unicode="+" 
d="M484 454h218v-208h-218v-206h-216v206h-218v208h218v206h216v-206z" />
    <glyph glyph-name="comma" unicode="," horiz-adv-x="360" 
d="M206 -160h-150l74 160h-90v260h280v-106q0 -98 -42 -178z" />
    <glyph glyph-name="hyphen" unicode="-" horiz-adv-x="420" 
d="M30 246v208h360v-208h-360z" />
    <glyph glyph-name="period" unicode="." horiz-adv-x="360" 
d="M320 0h-280v260h280v-260z" />
    <glyph glyph-name="slash" unicode="/" horiz-adv-x="500" 
d="M0 -100l340 900h160l-340 -900h-160z" />
    <glyph glyph-name="zero" unicode="0" 
d="M506 0h-260q-107 0 -158.5 51t-51.5 159v280q0 108 51.5 159t158.5 51h260q107 0 158.5 -51t51.5 -159v-280q0 -108 -51.5 -159t-158.5 -51zM332 212h88q26 0 36 10t10 36v184q0 26 -10 36t-36 10h-88q-26 0 -36 -10t-10 -36v-184q0 -26 10 -36t36 -10z" />
    <glyph glyph-name="one" unicode="1" horiz-adv-x="692" 
d="M488 700v-500h184v-200h-652v200h216v277l-186 -17v210l320 30h118z" />
    <glyph glyph-name="two" unicode="2" 
d="M704 200v-200h-668v238q0 82 38.5 121.5t127.5 50.5l232 28q19 2 25.5 8.5t6.5 23.5v20q0 19 -6.5 25.5t-25.5 6.5h-112q-19 0 -25.5 -6.5t-6.5 -25.5v-32h-240v76q0 87 40 126.5t126 39.5h334q86 0 126 -39.5t40 -126.5v-90q0 -82 -38.5 -121.5t-127.5 -50.5l-232 -28
q-19 -2 -25.5 -8.5t-6.5 -23.5v-12h418z" />
    <glyph glyph-name="three" unicode="3" 
d="M630 355q88 -22 88 -139v-50q0 -87 -40 -126.5t-126 -39.5h-352q-86 0 -126 39.5t-40 126.5v100h240v-46q0 -19 6.5 -25.5t25.5 -6.5h130q19 0 25.5 6.5t6.5 25.5v24q0 19 -6.5 25.5t-25.5 6.5h-114v156h104q19 0 25.5 6.5t6.5 25.5v16q0 19 -6.5 25.5t-25.5 6.5h-110
q-19 0 -25.5 -6.5t-6.5 -25.5v-38h-240v92q0 87 40 126.5t126 39.5h332q86 0 126 -39.5t40 -126.5v-42q0 -112 -78 -137z" />
    <glyph glyph-name="four" unicode="4" horiz-adv-x="782" 
d="M646 302h116v-188h-116v-114h-240v114h-386v158l346 428h280v-398zM406 477l-141 -175h141v175z" />
    <glyph glyph-name="five" unicode="5" horiz-adv-x="722" 
d="M520 0h-480v200h364q19 0 25.5 6.5t6.5 25.5v6q0 19 -6.5 25.5t-25.5 6.5h-364v430h616v-200h-366v-50h230q86 0 126 -39.5t40 -126.5v-118q0 -87 -40 -126.5t-126 -39.5z" />
    <glyph glyph-name="six" unicode="6" 
d="M388 444h162q86 0 126 -39.5t40 -126.5v-112q0 -87 -40 -126.5t-126 -39.5h-348q-86 0 -126 39.5t-40 126.5v324q0 108 51.5 159t158.5 51h440v-200h-354q-26 0 -36 -10t-10 -36v-41q27 31 102 31zM466 216v34q0 19 -6.5 25.5t-25.5 6.5h-116q-19 0 -25.5 -6.5
t-6.5 -25.5v-34q0 -19 6.5 -25.5t25.5 -6.5h116q19 0 25.5 6.5t6.5 25.5z" />
    <glyph glyph-name="seven" unicode="7" horiz-adv-x="712" 
d="M20 480v220h672v-190l-226 -252q-20 -23 -27 -44.5t-7 -59.5v-154h-256v142q0 94 16 138q17 46 68 100l95 100h-335z" />
    <glyph glyph-name="eight" unicode="8" 
d="M630 355q88 -22 88 -139v-50q0 -87 -40 -126.5t-126 -39.5h-352q-86 0 -126 39.5t-40 126.5v50q0 117 88 139q-78 25 -78 137v42q0 87 40 126.5t126 39.5h332q86 0 126 -39.5t40 -126.5v-42q0 -112 -78 -137zM294 484v-26q0 -19 6.5 -25.5t25.5 -6.5h100q19 0 25.5 6.5
t6.5 25.5v26q0 19 -6.5 25.5t-25.5 6.5h-100q-19 0 -25.5 -6.5t-6.5 -25.5zM468 216v34q0 19 -6.5 25.5t-25.5 6.5h-120q-19 0 -25.5 -6.5t-6.5 -25.5v-34q0 -19 6.5 -25.5t25.5 -6.5h120q19 0 25.5 6.5t6.5 25.5z" />
    <glyph glyph-name="nine" unicode="9" 
d="M202 700h348q86 0 126 -39.5t40 -126.5v-324q0 -108 -51.5 -159t-158.5 -51h-440v196h354q26 0 36 10t10 36v39q-27 -31 -102 -31h-162q-86 0 -126 39.5t-40 126.5v118q0 87 40 126.5t126 39.5zM318 412h116q19 0 25.5 6.5t6.5 25.5v34q0 19 -6.5 25.5t-25.5 6.5h-116
q-19 0 -25.5 -6.5t-6.5 -25.5v-34q0 -19 6.5 -25.5t25.5 -6.5z" />
    <glyph glyph-name="colon" unicode=":" horiz-adv-x="360" 
d="M320 300h-280v240h280v-240zM320 0h-280v240h280v-240z" />
    <glyph glyph-name="semicolon" unicode=";" horiz-adv-x="360" 
d="M320 300h-280v240h280v-240zM206 -160h-150l74 160h-90v240h280v-86q0 -98 -42 -178z" />
    <glyph glyph-name="less" unicode="&#x3c;" 
d="M50 454l652 230v-216l-363 -117l363 -117v-218l-652 230v208z" />
    <glyph glyph-name="equal" unicode="=" 
d="M50 386v198h652v-198h-652zM50 116v198h652v-198h-652z" />
    <glyph glyph-name="greater" unicode="&#x3e;" 
d="M50 466v218l652 -230v-208l-652 -230v216l363 117z" />
    <glyph glyph-name="question" unicode="?" horiz-adv-x="686" 
d="M436 240h-232v60q0 64 21 91q21 26 93 46l74 19q24 6 24 26v8q0 16 -6 22t-22 6h-100q-16 0 -22 -6t-6 -22v-46h-240v90q0 87 40 126.5t126 39.5h314q86 0 126 -39.5t40 -126.5v-60q0 -73 -30 -111t-110 -59l-68 -18q-22 -4 -22 -26v-20zM460 0h-280v200h280v-200z" />
    <glyph glyph-name="at" unicode="@" horiz-adv-x="872" 
d="M242 700h388q107 0 158.5 -51t51.5 -159v-180q0 -73 -34 -106.5t-106 -33.5h-123q-73 0 -96 47q-39 -31 -61 -38q-26 -9 -75 -9h-28q-131 0 -107 131l19 106q12 67 45 95t99 28h28q48 0 68 -7q22 -8 43 -32l19 39h136l-38 -220q-5 -24 16 -24h31q22 0 30 7t8 27v160
q0 60 -22.5 82t-81.5 22h-348q-59 0 -81.5 -22t-22.5 -82v-260q0 -60 22.5 -82t81.5 -22h514v-116h-534q-107 0 -158.5 51t-51.5 159v280q0 108 51.5 159t158.5 51zM456 309l11 9l11 64l-7 9q-9 11 -34 11h-22q-15 0 -20.5 -5t-8.5 -19l-9 -53q-3 -15 2 -21t20 -6h22
q22 0 35 11z" />
    <glyph glyph-name="A" unicode="A" horiz-adv-x="852" 
d="M852 0h-288l-28 88h-234l-28 -88h-274l278 700h296zM419 451l-62 -193h124z" />
    <glyph glyph-name="B" unicode="B" horiz-adv-x="780" 
d="M656 357q94 -21 94 -141v-50q0 -87 -40 -126.5t-126 -39.5h-544v700h524q86 0 126 -39.5t40 -126.5v-42q0 -106 -74 -135zM438 510h-138v-82h138q19 0 25.5 6.5t6.5 25.5v18q0 19 -6.5 25.5t-25.5 6.5zM490 222v26q0 19 -6.5 25.5t-25.5 6.5h-158v-90h158q19 0 25.5 6.5
t6.5 25.5z" />
    <glyph glyph-name="C" unicode="C" horiz-adv-x="782" 
d="M542 0h-300q-107 0 -158.5 51t-51.5 159v280q0 108 51.5 159t158.5 51h300q107 0 158.5 -51t51.5 -159v-96h-250v44q0 26 -10 36t-36 10h-118q-26 0 -36 -10t-10 -36v-176q0 -26 10 -36t36 -10h118q26 0 36 10t10 36v50h250v-102q0 -108 -51.5 -159t-158.5 -51z" />
    <glyph glyph-name="D" unicode="D" horiz-adv-x="812" 
d="M520 0h-480v700h480q126 0 193 -66.5t67 -193.5v-180q0 -127 -67 -193.5t-193 -66.5zM300 480v-260h164q56 0 56 56v148q0 56 -56 56h-164z" />
    <glyph glyph-name="E" unicode="E" horiz-adv-x="690" 
d="M300 271v-71h370v-200h-630v700h620v-200h-360v-63h320v-166h-320z" />
    <glyph glyph-name="F" unicode="F" horiz-adv-x="660" 
d="M650 700v-210h-350v-80h310v-190h-310v-220h-260v700h610z" />
    <glyph glyph-name="G" unicode="G" horiz-adv-x="814" 
d="M32 210v280q0 108 51.5 159t158.5 51h330q107 0 158.5 -51t51.5 -159v-56h-260v14q0 26 -10 36t-36 10h-138q-26 0 -36 -10t-10 -36v-216q0 -26 10 -36t36 -10h148q26 0 36 10t10 36v14h-132v152h382v-188q0 -108 -51.5 -159t-158.5 -51h-330q-107 0 -158.5 51t-51.5 159
z" />
    <glyph glyph-name="H" unicode="H" horiz-adv-x="800" 
d="M500 475v225h260v-700h-260v245h-200v-245h-260v700h260v-225h200z" />
    <glyph glyph-name="I" unicode="I" horiz-adv-x="352" 
d="M44 0v700h264v-700h-264z" />
    <glyph glyph-name="J" unicode="J" horiz-adv-x="726" 
d="M480 0h-250q-107 0 -158.5 51t-51.5 159v100h250v-48q0 -26 10 -36t36 -10h68q26 0 36 10t10 36v438h260v-490q0 -108 -51.5 -159t-158.5 -51z" />
    <glyph glyph-name="K" unicode="K" horiz-adv-x="814" 
d="M564 364l250 -364h-314l-200 325v-325h-260v700h260v-310l196 310h314z" />
    <glyph glyph-name="L" unicode="L" horiz-adv-x="630" 
d="M300 700v-470h320v-230h-580v700h260z" />
    <glyph glyph-name="M" unicode="M" horiz-adv-x="920" 
d="M465 372l197 328h218v-700h-240v277l-114 -181h-132l-114 181v-277h-240v700h228z" />
    <glyph glyph-name="N" unicode="N" horiz-adv-x="820" 
d="M530 381v319h250v-700h-210l-280 330v-330h-250v700h220z" />
    <glyph glyph-name="O" unicode="O" horiz-adv-x="814" 
d="M572 0h-330q-107 0 -158.5 51t-51.5 159v280q0 108 51.5 159t158.5 51h330q107 0 158.5 -51t51.5 -159v-280q0 -108 -51.5 -159t-158.5 -51zM338 220h138q26 0 36 10t10 36v168q0 26 -10 36t-36 10h-138q-26 0 -36 -10t-10 -36v-168q0 -26 10 -36t36 -10z" />
    <glyph glyph-name="P" unicode="P" horiz-adv-x="760" 
d="M300 0h-260v700h510q99 0 144.5 -45t45.5 -145v-140q0 -100 -45.5 -145t-144.5 -45h-250v-180zM300 500v-130h142q22 0 30 8t8 30v54q0 22 -8 30t-30 8h-142z" />
    <glyph glyph-name="Q" unicode="Q" horiz-adv-x="814" 
d="M242 700h330q107 0 158.5 -51t51.5 -159v-280q0 -180 -151 -205l89 -145h-254l-79 140h-145q-107 0 -158.5 51t-51.5 159v280q0 108 51.5 159t158.5 51zM292 434v-168q0 -26 10 -36t36 -10h138q26 0 36 10t10 36v168q0 26 -10 36t-36 10h-138q-26 0 -36 -10t-10 -36z" />
    <glyph glyph-name="R" unicode="R" horiz-adv-x="780" 
d="M629 235l141 -235h-280l-119 206h-71v-206h-260v700h510q99 0 144.5 -45t45.5 -145v-94q0 -150 -111 -181zM442 510h-142v-120h142q22 0 30 8t8 30v44q0 22 -8 30t-30 8z" />
    <glyph glyph-name="S" unicode="S" horiz-adv-x="794" 
d="M32 166v68h250v-32q0 -19 6.5 -25.5t25.5 -6.5h156q19 0 25.5 6.5t6.5 25.5v20q0 18 -6.5 24t-25.5 8l-262 22q-89 8 -127.5 45.5t-38.5 120.5v92q0 87 40 126.5t126 39.5h374q86 0 126 -39.5t40 -126.5v-60h-250v24q0 19 -6.5 25.5t-25.5 6.5h-132q-19 0 -25.5 -6.5
t-6.5 -25.5v-12q0 -18 6.5 -24t25.5 -8l262 -22q89 -8 127.5 -45.5t38.5 -120.5v-100q0 -87 -40 -126.5t-126 -39.5h-398q-86 0 -126 39.5t-40 126.5z" />
    <glyph glyph-name="T" unicode="T" horiz-adv-x="700" 
d="M10 700h680v-230h-210v-470h-260v470h-210v230z" />
    <glyph glyph-name="U" unicode="U" horiz-adv-x="792" 
d="M546 0h-300q-107 0 -158.5 51t-51.5 159v490h260v-434q0 -26 10 -36t36 -10h108q26 0 36 10t10 36v434h260v-490q0 -108 -51.5 -159t-158.5 -51z" />
    <glyph glyph-name="V" unicode="V" horiz-adv-x="824" 
d="M419 317l135 383h270l-286 -700h-252l-286 700h284z" />
    <glyph glyph-name="W" unicode="W" horiz-adv-x="1150" 
d="M782 368l98 332h270l-246 -700h-224l-105 316l-105 -316h-224l-246 700h284l97 -329l104 329h190z" />
    <glyph glyph-name="X" unicode="X" horiz-adv-x="800" 
d="M286 0h-286l231 357l-221 343h302l96 -167l96 167h286l-221 -343l231 -357h-302l-106 181z" />
    <glyph glyph-name="Y" unicode="Y" horiz-adv-x="776" 
d="M500 700h286l-268 -445v-255h-260v255l-268 445h300l105 -205z" />
    <glyph glyph-name="Z" unicode="Z" horiz-adv-x="760" 
d="M730 0h-700v180l320 300h-300v220h680v-180l-320 -300h320v-220z" />
    <glyph glyph-name="bracketleft" unicode="[" horiz-adv-x="420" 
d="M400 -100h-360v900h360v-190h-146v-520h146v-190z" />
    <glyph glyph-name="backslash" unicode="\" horiz-adv-x="500" 
d="M0 800h160l340 -900h-160z" />
    <glyph glyph-name="bracketright" unicode="]" horiz-adv-x="420" 
d="M20 800h360v-900h-360v190h146v520h-146v190z" />
    <glyph glyph-name="asciicircum" unicode="^" 
d="M476 700l236 -420h-238l-96 191l-96 -191h-242l236 420h200z" />
    <glyph glyph-name="underscore" unicode="_" horiz-adv-x="680" 
d="M0 -200v160h680v-160h-680z" />
    <glyph glyph-name="grave" unicode="`" horiz-adv-x="388" 
d="M348 570h-188l-120 130h248z" />
    <glyph glyph-name="a" unicode="a" horiz-adv-x="684" 
d="M220 540h240q99 0 144.5 -45t45.5 -145v-350h-204l-15 46q-36 -30 -66 -37q-31 -9 -99 -9h-106q-62 0 -96 33.5t-34 96.5v54q0 63 34 96.5t96 33.5h246v30q0 22 -8 30t-30 8h-48q-19 0 -25.5 -6.5t-6.5 -25.5v-11h-234v35q0 87 40 126.5t126 39.5zM300 138h49q27 0 43 16
l14 14v40h-106q-16 0 -21 -5t-5 -21v-18q0 -16 5 -21t21 -5z" />
    <glyph glyph-name="b" unicode="b" horiz-adv-x="698" 
d="M432 540h46q99 0 144.5 -45t45.5 -145v-160q0 -100 -45.5 -145t-144.5 -45h-46q-70 0 -101 10q-36 11 -72 44l-17 -54h-204v700h244v-195q29 21 59 28t91 7zM424 230v80q0 22 -8 30t-30 8h-39q-36 0 -51 -16l-14 -14v-96l14 -14q16 -16 51 -16h39q22 0 30 8t8 30z" />
    <glyph glyph-name="c" unicode="c" horiz-adv-x="660" 
d="M30 190v160q0 100 45.5 145t144.5 45h220q99 0 144.5 -45t45.5 -145v-53h-234v13q0 22 -8 30t-30 8h-46q-22 0 -30 -8t-8 -30v-80q0 -22 8 -30t30 -8h46q22 0 30 8t8 30v17h234v-57q0 -100 -45.5 -145t-144.5 -45h-220q-99 0 -144.5 45t-45.5 145z" />
    <glyph glyph-name="d" unicode="d" horiz-adv-x="698" 
d="M416 505v195h244v-700h-204l-17 54q-36 -33 -71 -44q-33 -10 -102 -10h-46q-99 0 -144.5 45t-45.5 145v160q0 100 45.5 145t144.5 45h46q61 0 91 -7t59 -28zM312 192h39q35 0 51 16l14 14v96l-14 14q-15 16 -51 16h-39q-22 0 -30 -8t-8 -30v-80q0 -22 8 -30t30 -8z" />
    <glyph glyph-name="e" unicode="e" horiz-adv-x="680" 
d="M220 540h240q99 0 144.5 -45t45.5 -145v-112h-376v-24q0 -22 8 -30t30 -8h72q19 0 25.5 6.5t6.5 25.5v5h234v-47q0 -87 -40 -126.5t-126 -39.5h-264q-99 0 -144.5 45t-45.5 145v160q0 100 45.5 145t144.5 45zM274 360v-16h142v16q0 22 -8 30t-30 8h-66q-22 0 -30 -8
t-8 -30z" />
    <glyph glyph-name="f" unicode="f" horiz-adv-x="502" 
d="M492 524h-116q-19 0 -25.5 -6.5t-6.5 -25.5v-20h148v-188h-148v-284h-244v284h-90v188h90v62q0 87 40 126.5t126 39.5h226v-176z" />
    <glyph glyph-name="g" unicode="g" horiz-adv-x="698" 
d="M439 486l17 54h204v-490q0 -108 -51.5 -159t-158.5 -51h-400v176h320q26 0 36 10t10 36v28q-30 -21 -62 -28.5t-88 -7.5h-46q-99 0 -144.5 45t-45.5 145v106q0 100 45.5 145t144.5 45h46q65 0 99 -10t74 -44zM402 238l14 14v82l-14 14q-15 16 -51 16h-39q-22 0 -30 -8
t-8 -30v-66q0 -22 8 -30t30 -8h39q35 0 51 16z" />
    <glyph glyph-name="h" unicode="h" horiz-adv-x="692" 
d="M442 540h26q99 0 144.5 -45t45.5 -145v-350h-244v304q0 22 -8 30t-30 8h-29q-36 0 -51 -16l-14 -14v-312h-244v700h244v-203q34 28 65 35q34 8 95 8z" />
    <glyph glyph-name="i" unicode="i" horiz-adv-x="332" 
d="M290 570h-248v130h248v-130zM290 0h-248v540h248v-540z" />
    <glyph glyph-name="j" unicode="j" horiz-adv-x="332" 
d="M290 570h-248v130h248v-130zM124 -160h-144v182h30q19 0 25.5 6.5t6.5 25.5v486h248v-534q0 -87 -40 -126.5t-126 -39.5z" />
    <glyph glyph-name="k" unicode="k" horiz-adv-x="718" 
d="M524 274l204 -274h-296l-150 236v-236h-244v700h244v-398l142 238h296z" />
    <glyph glyph-name="l" unicode="l" horiz-adv-x="332" 
d="M290 0h-248v700h248v-700z" />
    <glyph glyph-name="m" unicode="m" horiz-adv-x="1048" 
d="M798 540h26q99 0 144.5 -45t45.5 -145v-350h-244v304q0 22 -8 30t-30 8h-19q-36 0 -51 -16l-14 -14v-312h-244v304q0 22 -8 30t-30 8h-19q-36 0 -51 -16l-14 -14v-312h-244v540h204l17 -54q36 33 72 44q31 10 101 10h26q116 0 158 -61q45 40 77 50q36 11 105 11z" />
    <glyph glyph-name="n" unicode="n" horiz-adv-x="692" 
d="M432 540h36q99 0 144.5 -45t45.5 -145v-350h-244v304q0 22 -8 30t-30 8h-29q-36 0 -51 -16l-14 -14v-312h-244v540h204l17 -54q36 33 72 44q31 10 101 10z" />
    <glyph glyph-name="o" unicode="o" horiz-adv-x="690" 
d="M470 0h-250q-99 0 -144.5 45t-45.5 145v160q0 100 45.5 145t144.5 45h250q99 0 144.5 -45t45.5 -145v-160q0 -100 -45.5 -145t-144.5 -45zM312 192h66q22 0 30 8t8 30v80q0 22 -8 30t-30 8h-66q-22 0 -30 -8t-8 -30v-80q0 -22 8 -30t30 -8z" />
    <glyph glyph-name="p" unicode="p" horiz-adv-x="698" 
d="M432 540h46q99 0 144.5 -45t45.5 -145v-160q0 -100 -45.5 -145t-144.5 -45h-46q-61 0 -91 7t-59 28v-195h-244v700h204l17 -54q36 33 72 44q31 10 101 10zM424 230v80q0 22 -8 30t-30 8h-39q-36 0 -51 -16l-14 -14v-96l14 -14q16 -16 51 -16h39q22 0 30 8t8 30z" />
    <glyph glyph-name="q" unicode="q" horiz-adv-x="698" 
d="M439 486l17 54h204v-700h-244v193q-26 -20 -54 -26.5t-86 -6.5h-56q-99 0 -144.5 45t-45.5 145v160q0 100 45.5 145t144.5 45h46q69 0 102 -10q35 -11 71 -44zM402 208l14 14v96l-14 14q-15 16 -51 16h-39q-22 0 -30 -8t-8 -30v-80q0 -22 8 -30t30 -8h39q35 0 51 16z" />
    <glyph glyph-name="r" unicode="r" horiz-adv-x="470" 
d="M422 540h38v-228h-113q-36 0 -51 -16l-14 -14v-282h-244v540h174l21 -68q47 44 81 56t108 12z" />
    <glyph glyph-name="s" unicode="s" horiz-adv-x="670" 
d="M30 134v50h234v-28q0 -14 4 -18t18 -4h88q14 0 18 4t4 18v14q0 13 -3.5 16.5t-18.5 5.5l-202 20q-132 14 -132 130v66q0 63 35 97.5t97 34.5h322q62 0 97 -35.5t35 -98.5v-42h-234v20q0 14 -4 18t-18 4h-64q-14 0 -18 -4t-4 -18v-8q0 -13 3.5 -16.5t18.5 -5.5l202 -20
q132 -14 132 -130v-72q0 -63 -35 -97.5t-97 -34.5h-346q-62 0 -97 35.5t-35 98.5z" />
    <glyph glyph-name="t" unicode="t" horiz-adv-x="522" 
d="M502 540v-188h-158v-128q0 -19 6.5 -25.5t25.5 -6.5h126v-192h-236q-86 0 -126 39.5t-40 126.5v186h-90v188h90l48 120h196v-120h158z" />
    <glyph glyph-name="u" unicode="u" horiz-adv-x="692" 
d="M410 540h244v-540h-204l-17 54q-36 -33 -71 -44q-33 -10 -102 -10h-36q-99 0 -144.5 45t-45.5 145v350h244v-304q0 -22 8 -30t30 -8h29q36 0 51 16l14 14v312z" />
    <glyph glyph-name="v" unicode="v" horiz-adv-x="698" 
d="M354 301l86 239h258l-238 -540h-222l-238 540h268z" />
    <glyph glyph-name="w" unicode="w" horiz-adv-x="962" 
d="M652 318l64 222h246l-197 -540h-212l-71 224l-69 -224h-216l-197 540h256l65 -222l72 222h186z" />
    <glyph glyph-name="x" unicode="x" horiz-adv-x="700" 
d="M266 0h-276l193 276l-183 264h292l66 -115l66 115h276l-183 -264l193 -276h-292l-76 128z" />
    <glyph glyph-name="y" unicode="y" horiz-adv-x="698" 
d="M354 281l86 259h258l-233 -530q-44 -102 -98 -137q-54 -33 -169 -33h-138v192h146q14 0 18 1l-224 507h268z" />
    <glyph glyph-name="z" unicode="z" horiz-adv-x="654" 
d="M626 0h-598v146l245 212h-225v182h578v-146l-245 -212h245v-182z" />
    <glyph glyph-name="braceleft" unicode="{" horiz-adv-x="500" 
d="M334 560v-85q0 -94 -67 -125q67 -33 67 -126v-84q0 -28 11 -39t39 -11h96v-190h-140q-113 0 -166.5 53t-53.5 167v110q0 34 -34 34h-66v171h66q34 0 34 34v111q0 114 53.5 167t166.5 53h140v-190h-96q-28 0 -39 -11t-11 -39z" />
    <glyph glyph-name="bar" unicode="|" horiz-adv-x="290" 
d="M50 -100v900h190v-900h-190z" />
    <glyph glyph-name="braceright" unicode="}" horiz-adv-x="500" 
d="M414 436h66v-171h-66q-34 0 -34 -34v-111q0 -114 -53.5 -167t-166.5 -53h-140v190h96q28 0 39 11t11 39v85q0 93 67 126q-67 31 -67 125v84q0 28 -11 39t-39 11h-96v190h140q113 0 166.5 -53t53.5 -167v-110q0 -34 34 -34z" />
    <glyph glyph-name="asciitilde" unicode="~" 
d="M440 434l41 -83q3 -6 9 -6h6q6 0 6 6v153h200v-208q0 -54 -23 -77t-77 -23h-160q-56 0 -82 14t-48 57l-41 82q-3 6 -9 6h-6q-6 0 -6 -6v-153h-200v208q0 54 23 77t77 23h160q57 0 83 -13q26 -14 47 -57z" />
    <glyph glyph-name="exclamdown" unicode="&#xa1;" horiz-adv-x="360" 
d="M40 700h280v-230h-280v230zM270 430l50 -430h-280l50 430h180z" />
    <glyph glyph-name="cent" unicode="&#xa2;" 
d="M716 510v-63h-240v19q0 22 -8 30t-30 8h-114q-22 0 -30 -8t-8 -30v-102q0 -22 8 -30t30 -8h114q22 0 30 8t8 30v23h240v-67q0 -100 -45.5 -145t-144.5 -45h-72v-100h-152v100h-76q-99 0 -144.5 45t-45.5 145v190q0 100 45.5 145t144.5 45h76v100h152v-100h72
q99 0 144.5 -45t45.5 -145z" />
    <glyph glyph-name="sterling" unicode="&#xa3;" horiz-adv-x="772" 
d="M736 490v-76h-240v48q0 26 -10 36t-36 10h-88q-19 0 -27.5 -10t-8.5 -36v-36h124v-132h-124v-92h138q19 0 25.5 6.5t6.5 25.5v58h240v-126q0 -87 -40 -126.5t-126 -39.5h-560v202h66v92h-76v132h76v64q0 108 51.5 159t158.5 51h240q107 0 158.5 -51t51.5 -159z" />
    <glyph glyph-name="currency" unicode="&#xa4;" 
d="M646 430v-160q0 -20 -5 -48l91 -91l-111 -111l-82 82q-33 -12 -73 -12h-180q-40 0 -73 12l-82 -82l-111 111l91 91q-5 28 -5 48v160q0 20 5 48l-91 91l111 111l82 -82q33 12 73 12h180q40 0 73 -12l82 82l111 -111l-91 -91q5 -28 5 -48zM346 276h60q26 0 36 10t10 36v56
q0 26 -10 36t-36 10h-60q-26 0 -36 -10t-10 -36v-56q0 -26 10 -36t36 -10z" />
    <glyph glyph-name="yen" unicode="&#xa5;" 
d="M474 700h268l-199 -360h169v-106h-211v-46h211v-106h-211v-82h-250v82h-211v106h211v46h-211v106h169l-199 360h282l91 -197z" />
    <glyph glyph-name="brokenbar" unicode="&#xa6;" horiz-adv-x="290" 
d="M50 460v340h190v-340h-190zM50 -100v340h190v-340h-190z" />
    <glyph glyph-name="section" unicode="&#xa7;" horiz-adv-x="930" 
d="M430 558l324 -30q80 -8 113 -43t33 -113v-66q0 -72 -26.5 -109t-83.5 -45v-10v-76q0 -87 -40 -126.5t-126 -39.5h-308q-86 0 -126 39.5t-40 126.5v64h250v-28q0 -19 6.5 -25.5t25.5 -6.5h68q17 0 23.5 6.5t6.5 23.5v12q0 17 -5.5 22.5t-24.5 7.5l-324 30q-80 8 -113 43
t-33 113v66q0 72 26.5 109t83.5 45v10v76q0 87 40 126.5t126 39.5h308q86 0 126 -39.5t40 -126.5v-64h-250v28q0 19 -6.5 25.5t-25.5 6.5h-68q-17 0 -23.5 -6.5t-6.5 -23.5v-12q0 -17 5.5 -22.5t24.5 -7.5zM310 338l324 -30h4q2 8 2 12v22q0 11 -4.5 15t-15.5 5l-324 30h-4
q-2 -8 -2 -12v-22q0 -11 4.5 -15t15.5 -5z" />
    <glyph glyph-name="dieresis" unicode="&#xa8;" horiz-adv-x="480" 
d="M220 570h-180v130h180v-130zM440 570h-180v130h180v-130z" />
    <glyph glyph-name="copyright" unicode="&#xa9;" horiz-adv-x="800" 
d="M530 0h-260q-103 0 -166 63q-64 63 -64 167v240q0 104 64 167q63 63 166 63h260q102 0 167 -63q63 -63 63 -167v-240q0 -104 -63 -167q-65 -63 -167 -63zM286 70h228q83 0 127.5 44.5t44.5 127.5v216q0 83 -44.5 127.5t-127.5 44.5h-228q-83 0 -127.5 -44.5t-44.5 -127.5
v-216q0 -83 44.5 -127.5t127.5 -44.5zM490 126h-180q-71 0 -105.5 34t-34.5 106v168q0 72 34.5 106t105.5 34h180q71 0 105.5 -34t34.5 -106v-59h-167v25q0 17 -6.5 23.5t-23.5 6.5h-59q-17 0 -24 -6.5t-7 -23.5v-100q0 -17 7 -23.5t24 -6.5h59q17 0 23.5 6.5t6.5 23.5v29
h167v-63q0 -72 -34.5 -106t-105.5 -34z" />
    <glyph glyph-name="ordfeminine" unicode="&#xaa;" horiz-adv-x="411" 
d="M132 700h144q60 0 87.5 -27t27.5 -87v-210h-124l-9 28q-21 -18 -40 -23t-60 -5h-63q-37 0 -57.5 20.5t-20.5 57.5v33q0 37 20.5 57.5t57.5 20.5h148v17q0 12 -4.5 16.5t-17.5 4.5h-30q-11 0 -14.5 -3.5t-3.5 -14.5v-7h-142v22q0 52 24.5 76t76.5 24zM180 461h31
q16 0 25 9l7 7v23h-63q-9 0 -12 -3t-3 -12v-10q0 -9 3 -11.5t12 -2.5z" />
    <glyph glyph-name="guillemotleft" unicode="&#xab;" horiz-adv-x="850" 
d="M40 276v148l360 180v-188l-152 -64l152 -64v-192zM450 424l360 180v-188l-152 -64l152 -64v-192l-360 180v148z" />
    <glyph glyph-name="logicalnot" unicode="&#xac;" 
d="M482 246h-432v208h652v-368h-220v160z" />
    <glyph glyph-name="uni00AD" unicode="&#xad;" horiz-adv-x="420" 
d="M30 246v208h360v-208h-360z" />
    <glyph glyph-name="registered" unicode="&#xae;" horiz-adv-x="391" 
d="M143 700h105q113 0 113 -113v-92q0 -113 -113 -113h-105q-113 0 -113 113v92q0 113 113 113zM313 497v88q0 39 -15.5 54t-53.5 15h-97q-38 0 -53.5 -15t-15.5 -54v-88q0 -38 15.5 -53.5t53.5 -15.5h97q38 0 53.5 15.5t15.5 53.5zM275 576v-18q0 -36 -29 -41l36 -54h-60
l-27 46h-21v-46h-54v155h113q42 0 42 -42zM213 579h-39v-32h39q9 0 9 8v15q0 9 -9 9z" />
    <glyph glyph-name="overscore" unicode="&#xaf;" horiz-adv-x="520" 
d="M480 580h-440v110h440v-110z" />
    <glyph glyph-name="degree" unicode="&#xb0;" horiz-adv-x="440" 
d="M283 330h-126q-59 0 -93 34t-34 93v116q0 60 34 93.5t93 33.5h126q59 0 93 -33.5t34 -93.5v-116q0 -59 -34 -93t-93 -34zM194 454h52q17 0 23.5 6.5t6.5 23.5v62q0 18 -6.5 24t-23.5 6h-52q-17 0 -23.5 -6t-6.5 -24v-62q0 -17 6.5 -23.5t23.5 -6.5z" />
    <glyph glyph-name="plusminus" unicode="&#xb1;" 
d="M484 700v-146h218v-188h-218v-146h-216v146h-218v188h218v146h216zM702 0h-652v188h652v-188z" />
    <glyph glyph-name="uni00B2" unicode="&#xb2;" horiz-adv-x="468" 
d="M432 403v-123h-403v144q0 50 23.5 74t76.5 30l138 16q12 2 15 5t3 13v11q0 11 -3.5 14.5t-14.5 3.5h-64q-11 0 -14.5 -3.5t-3.5 -14.5v-19h-148v46q0 52 24.5 76t76.5 24h200q52 0 76.5 -24t24.5 -76v-52q0 -51 -23 -74.5t-77 -29.5l-138 -16q-12 -2 -15 -5t-3 -13v-7
h249z" />
    <glyph glyph-name="uni00B3" unicode="&#xb3;" horiz-adv-x="466" 
d="M385 493q54 -13 54 -84v-29q0 -52 -24 -76t-76 -24h-212q-52 0 -76 24t-24 76v61h148v-27q0 -11 3.5 -14.5t14.5 -3.5h74q11 0 14.5 3.5t3.5 14.5v12q0 11 -3.5 14.5t-14.5 3.5h-66v96h60q11 0 14.5 3.5t3.5 14.5v8q0 11 -3.5 14.5t-14.5 3.5h-62q-11 0 -14.5 -3.5
t-3.5 -14.5v-22h-148v56q0 52 24 76t76 24h200q52 0 76 -24t24 -76v-24q0 -66 -48 -83z" />
    <glyph glyph-name="acute" unicode="&#xb4;" horiz-adv-x="388" 
d="M348 700l-120 -130h-188l60 130h248z" />
    <glyph glyph-name="paragraph" unicode="&#xb6;" horiz-adv-x="870" 
d="M20 390v120q0 100 45.5 145t144.5 45h580v-700h-220v500h-60v-500h-220v200h-80q-99 0 -144.5 45t-45.5 145z" />
    <glyph glyph-name="middot" unicode="&#xb7;" horiz-adv-x="360" 
d="M320 220h-280v260h280v-260z" />
    <glyph glyph-name="cedilla" unicode="&#xb8;" horiz-adv-x="320" 
d="M224 -160h-184v66h127q7 0 7 7v4q0 7 -7 7h-97v32l20 64h80l-12 -38h66q30 0 43 -13t13 -43v-30q0 -30 -13 -43t-43 -13z" />
    <glyph glyph-name="uni00B9" unicode="&#xb9;" horiz-adv-x="430" 
d="M302 700v-297h109v-123h-392v123h128v160l-110 -10v129l192 18h73z" />
    <glyph glyph-name="ordmasculine" unicode="&#xba;" horiz-adv-x="414" 
d="M282 376h-150q-60 0 -87.5 27t-27.5 88v95q0 60 27.5 87t87.5 27h150q60 0 87.5 -27t27.5 -87v-95q0 -61 -27.5 -88t-87.5 -27zM186 494h41q13 0 17.5 4.5t4.5 16.5v46q0 12 -4.5 16.5t-17.5 4.5h-41q-12 0 -16.5 -4.5t-4.5 -16.5v-46q0 -12 4.5 -16.5t16.5 -4.5z" />
    <glyph glyph-name="guillemotright" unicode="&#xbb;" horiz-adv-x="850" 
d="M192 348l-152 64v192l360 -180v-148l-360 -180v188zM450 412v192l360 -180v-148l-360 -180v188l152 64z" />
    <glyph glyph-name="onequarter" unicode="&#xbc;" horiz-adv-x="1052" 
d="M301 403h109v-123h-392v123h128v160l-110 -10v129l192 18h73v-297zM259 0l510 700h130l-510 -700h-130zM966 182h68v-115h-68v-67h-148v67h-230v97l205 256h173v-238zM818 282l-80 -100h80v100z" />
    <glyph glyph-name="onehalf" unicode="&#xbd;" horiz-adv-x="1156" 
d="M301 403h109v-123h-392v123h128v160l-110 -10v129l192 18h73v-297zM259 0l510 700h130l-510 -700h-130zM1028 162l-138 -16q-12 -2 -15 -5t-3 -13v-5h249v-123h-403v144q0 50 23.5 74t76.5 30l138 16q12 2 15 5t3 13v11q0 11 -4 14.5t-14 3.5h-64q-10 0 -14 -3.5
t-4 -14.5v-19h-148v46q0 52 24.5 76t76.5 24h200q52 0 76.5 -24t24.5 -76v-54q0 -51 -23 -74.5t-77 -29.5z" />
    <glyph glyph-name="threequarters" unicode="&#xbe;" horiz-adv-x="1050" 
d="M440 409v-29q0 -52 -24 -76t-76 -24h-212q-52 0 -76 24t-24 76v61h148v-27q0 -11 3.5 -14.5t14.5 -3.5h74q11 0 14.5 3.5t3.5 14.5v12q0 11 -3.5 14.5t-14.5 3.5h-66v96h60q11 0 14.5 3.5t3.5 14.5v8q0 11 -3.5 14.5t-14.5 3.5h-62q-11 0 -14.5 -3.5t-3.5 -14.5v-22h-148
v56q0 52 24 76t76 24h200q52 0 76 -24t24 -76v-24q0 -66 -48 -83q54 -13 54 -84zM257 0l510 700h130l-510 -700h-130zM964 182h68v-115h-68v-67h-148v67h-230v97l205 256h173v-238zM816 282l-80 -100h80v100z" />
    <glyph glyph-name="questiondown" unicode="&#xbf;" horiz-adv-x="686" 
d="M226 700h280v-200h-280v200zM250 460h232v-60q0 -64 -21 -91q-21 -26 -93 -46l-74 -19q-24 -6 -24 -26v-8q0 -16 6 -22t22 -6h100q16 0 22 6t6 22v46h240v-90q0 -87 -40 -126.5t-126 -39.5h-314q-86 0 -126 39.5t-40 126.5v60q0 73 30 111t110 59l68 18q22 4 22 26v20z
" />
    <glyph glyph-name="Agrave" unicode="&#xc0;" horiz-adv-x="852" 
d="M464 860l60 -130h-188l-120 130h248zM852 0h-288l-28 88h-234l-28 -88h-274l278 700h296zM419 451l-62 -193h124z" />
    <glyph glyph-name="Aacute" unicode="&#xc1;" horiz-adv-x="852" 
d="M388 860h248l-120 -130h-188zM852 0h-288l-28 88h-234l-28 -88h-274l278 700h296zM419 451l-62 -193h124z" />
    <glyph glyph-name="Acircumflex" unicode="&#xc2;" horiz-adv-x="852" 
d="M493 730l-67 42l-67 -42h-168l120 130h230l120 -130h-168zM852 0h-288l-28 88h-234l-28 -88h-274l278 700h296zM419 451l-62 -193h124z" />
    <glyph glyph-name="Atilde" unicode="&#xc3;" horiz-adv-x="852" 
d="M340 780v-50h-129v82q0 48 49 48h161q42 0 59 -28l15 -23q3 -4 7 -4h5q5 0 5 5v50h129v-82q0 -48 -49 -48h-161q-42 0 -59 28l-15 23q-3 4 -7 4h-5q-5 0 -5 -5zM852 0h-288l-28 88h-234l-28 -88h-274l278 700h296zM419 451l-62 -193h124z" />
    <glyph glyph-name="Adieresis" unicode="&#xc4;" horiz-adv-x="852" 
d="M226 860h180v-130h-180v130zM446 860h180v-130h-180v130zM852 0h-288l-28 88h-234l-28 -88h-274l278 700h296zM419 451l-62 -193h124z" />
    <glyph glyph-name="Aring" unicode="&#xc5;" horiz-adv-x="852" 
d="M520 720h-188q-30 0 -43 13t-13 43v28q0 30 13 43t43 13h188q30 0 43 -13t13 -43v-28q0 -30 -13 -43t-43 -13zM356 795v-10q0 -11 3 -14t13 -3h108q10 0 13 3t3 14v10q0 11 -3 14t-13 3h-108q-10 0 -13 -3t-3 -14zM852 0h-288l-28 88h-234l-28 -88h-274l278 700h296z
M419 451l-62 -193h124z" />
    <glyph glyph-name="AE" unicode="&#xc6;" horiz-adv-x="1090" 
d="M744 271l25 -71h301v-200h-518l-23 78h-230l-25 -78h-274l278 700h782v-200h-397l22 -63h335v-166h-276zM420 454l-66 -206h126z" />
    <glyph glyph-name="Ccedilla" unicode="&#xc7;" horiz-adv-x="782" 
d="M752 490v-96h-250v44q0 26 -10 36t-36 10h-118q-26 0 -36 -10t-10 -36v-176q0 -26 10 -36t36 -10h118q26 0 36 10t10 36v50h250v-102q0 -108 -51.5 -159t-158.5 -51h-127l-6 -18h66q30 0 43 -13t13 -43v-30q0 -30 -13 -43t-43 -13h-184v66h127q7 0 7 7v4q0 7 -7 7h-97v32
l14 44h-93q-107 0 -158.5 51t-51.5 159v280q0 108 51.5 159t158.5 51h300q107 0 158.5 -51t51.5 -159z" />
    <glyph glyph-name="Egrave" unicode="&#xc8;" horiz-adv-x="690" 
d="M383 860l60 -130h-188l-120 130h248zM300 271v-71h370v-200h-630v700h620v-200h-360v-63h320v-166h-320z" />
    <glyph glyph-name="Eacute" unicode="&#xc9;" horiz-adv-x="690" 
d="M307 860h248l-120 -130h-188zM300 271v-71h370v-200h-630v700h620v-200h-360v-63h320v-166h-320z" />
    <glyph glyph-name="Ecircumflex" unicode="&#xca;" horiz-adv-x="690" 
d="M412 730l-67 42l-67 -42h-168l120 130h230l120 -130h-168zM300 271v-71h370v-200h-630v700h620v-200h-360v-63h320v-166h-320z" />
    <glyph glyph-name="Edieresis" unicode="&#xcb;" horiz-adv-x="690" 
d="M145 860h180v-130h-180v130zM365 860h180v-130h-180v130zM300 271v-71h370v-200h-630v700h620v-200h-360v-63h320v-166h-320z" />
    <glyph glyph-name="Igrave" unicode="&#xcc;" horiz-adv-x="352" 
d="M274 730h-188l-120 130h248zM44 0v700h264v-700h-264z" />
    <glyph glyph-name="Iacute" unicode="&#xcd;" horiz-adv-x="352" 
d="M386 860l-120 -130h-188l60 130h248zM44 0v700h264v-700h-264z" />
    <glyph glyph-name="Icircumflex" unicode="&#xce;" horiz-adv-x="352" 
d="M109 730h-168l120 130h230l120 -130h-168l-67 42zM44 0v700h264v-700h-264z" />
    <glyph glyph-name="Idieresis" unicode="&#xcf;" horiz-adv-x="352" 
d="M156 730h-180v130h180v-130zM376 730h-180v130h180v-130zM44 0v700h264v-700h-264z" />
    <glyph glyph-name="Eth" unicode="&#xd0;" horiz-adv-x="872" 
d="M100 700h480q126 0 193 -66.5t67 -193.5v-180q0 -127 -67 -193.5t-193 -66.5h-480v277h-80v146h80v277zM580 276v148q0 56 -56 56h-164v-57h130v-146h-130v-57h164q56 0 56 56z" />
    <glyph glyph-name="Ntilde" unicode="&#xd1;" horiz-adv-x="820" 
d="M314 780v-50h-129v82q0 48 49 48h161q42 0 59 -28l15 -23q3 -4 7 -4h5q5 0 5 5v50h129v-82q0 -48 -49 -48h-161q-42 0 -59 28l-15 23q-3 4 -7 4h-5q-5 0 -5 -5zM530 381v319h250v-700h-210l-280 330v-330h-250v700h220z" />
    <glyph glyph-name="Ograve" unicode="&#xd2;" horiz-adv-x="814" 
d="M505 730h-188l-120 130h248zM572 0h-330q-107 0 -158.5 51t-51.5 159v280q0 108 51.5 159t158.5 51h330q107 0 158.5 -51t51.5 -159v-280q0 -108 -51.5 -159t-158.5 -51zM338 220h138q26 0 36 10t10 36v168q0 26 -10 36t-36 10h-138q-26 0 -36 -10t-10 -36v-168
q0 -26 10 -36t36 -10z" />
    <glyph glyph-name="Oacute" unicode="&#xd3;" horiz-adv-x="814" 
d="M617 860l-120 -130h-188l60 130h248zM572 0h-330q-107 0 -158.5 51t-51.5 159v280q0 108 51.5 159t158.5 51h330q107 0 158.5 -51t51.5 -159v-280q0 -108 -51.5 -159t-158.5 -51zM338 220h138q26 0 36 10t10 36v168q0 26 -10 36t-36 10h-138q-26 0 -36 -10t-10 -36v-168
q0 -26 10 -36t36 -10z" />
    <glyph glyph-name="Ocircumflex" unicode="&#xd4;" horiz-adv-x="814" 
d="M340 730h-168l120 130h230l120 -130h-168l-67 42zM572 0h-330q-107 0 -158.5 51t-51.5 159v280q0 108 51.5 159t158.5 51h330q107 0 158.5 -51t51.5 -159v-280q0 -108 -51.5 -159t-158.5 -51zM338 220h138q26 0 36 10t10 36v168q0 26 -10 36t-36 10h-138q-26 0 -36 -10
t-10 -36v-168q0 -26 10 -36t36 -10z" />
    <glyph glyph-name="Otilde" unicode="&#xd5;" horiz-adv-x="814" 
d="M321 730h-129v82q0 48 49 48h161q42 0 59 -28l15 -23q3 -4 7 -4h5q5 0 5 5v50h129v-82q0 -48 -49 -48h-161q-42 0 -59 28l-15 23q-3 4 -7 4h-5q-5 0 -5 -5v-50zM572 0h-330q-107 0 -158.5 51t-51.5 159v280q0 108 51.5 159t158.5 51h330q107 0 158.5 -51t51.5 -159v-280
q0 -108 -51.5 -159t-158.5 -51zM338 220h138q26 0 36 10t10 36v168q0 26 -10 36t-36 10h-138q-26 0 -36 -10t-10 -36v-168q0 -26 10 -36t36 -10z" />
    <glyph glyph-name="Odieresis" unicode="&#xd6;" horiz-adv-x="814" 
d="M387 730h-180v130h180v-130zM607 730h-180v130h180v-130zM572 0h-330q-107 0 -158.5 51t-51.5 159v280q0 108 51.5 159t158.5 51h330q107 0 158.5 -51t51.5 -159v-280q0 -108 -51.5 -159t-158.5 -51zM338 220h138q26 0 36 10t10 36v168q0 26 -10 36t-36 10h-138
q-26 0 -36 -10t-10 -36v-168q0 -26 10 -36t36 -10z" />
    <glyph glyph-name="multiply" unicode="&#xd7;" 
d="M555 676l147 -147l-179 -179l179 -179l-147 -147l-179 179l-179 -179l-147 147l179 179l-179 179l147 147l179 -179z" />
    <glyph glyph-name="Oslash" unicode="&#xd8;" horiz-adv-x="814" 
d="M672 730h140l-76 -87q46 -49 46 -153v-280q0 -108 -51.5 -159t-158.5 -51h-330q-38 0 -68 6l-32 -36h-140l76 87q-46 49 -46 153v280q0 108 51.5 159t158.5 51h330q38 0 68 -6zM278 444v-161l182 207h-136q-26 0 -36 -10t-10 -36zM536 256v161l-182 -207h136q26 0 36 10
t10 36z" />
    <glyph glyph-name="Ugrave" unicode="&#xd9;" horiz-adv-x="792" 
d="M494 730h-188l-120 130h248zM546 0h-300q-107 0 -158.5 51t-51.5 159v490h260v-434q0 -26 10 -36t36 -10h108q26 0 36 10t10 36v434h260v-490q0 -108 -51.5 -159t-158.5 -51z" />
    <glyph glyph-name="Uacute" unicode="&#xda;" horiz-adv-x="792" 
d="M606 860l-120 -130h-188l60 130h248zM546 0h-300q-107 0 -158.5 51t-51.5 159v490h260v-434q0 -26 10 -36t36 -10h108q26 0 36 10t10 36v434h260v-490q0 -108 -51.5 -159t-158.5 -51z" />
    <glyph glyph-name="Ucircumflex" unicode="&#xdb;" horiz-adv-x="792" 
d="M329 730h-168l120 130h230l120 -130h-168l-67 42zM546 0h-300q-107 0 -158.5 51t-51.5 159v490h260v-434q0 -26 10 -36t36 -10h108q26 0 36 10t10 36v434h260v-490q0 -108 -51.5 -159t-158.5 -51z" />
    <glyph glyph-name="Udieresis" unicode="&#xdc;" horiz-adv-x="792" 
d="M376 730h-180v130h180v-130zM596 730h-180v130h180v-130zM546 0h-300q-107 0 -158.5 51t-51.5 159v490h260v-434q0 -26 10 -36t36 -10h108q26 0 36 10t10 36v434h260v-490q0 -108 -51.5 -159t-158.5 -51z" />
    <glyph glyph-name="Yacute" unicode="&#xdd;" horiz-adv-x="776" 
d="M350 860h248l-120 -130h-188zM500 700h286l-268 -445v-255h-260v255l-268 445h300l105 -205z" />
    <glyph glyph-name="Thorn" unicode="&#xde;" horiz-adv-x="760" 
d="M300 620h250q99 0 144.5 -45t45.5 -145v-140q0 -100 -45.5 -145t-144.5 -45h-250v-100h-260v700h260v-80zM480 328v54q0 22 -8 30t-30 8h-142v-130h142q22 0 30 8t8 30z" />
    <glyph glyph-name="germandbls" unicode="&#xdf;" horiz-adv-x="700" 
d="M578 357q94 -21 94 -141v-50q0 -87 -40 -126.5t-126 -39.5h-178v176h68q19 0 25.5 6.5t6.5 25.5v40q0 19 -6.5 25.5t-25.5 6.5h-68v148h48q19 0 25.5 6.5t6.5 25.5v32q0 19 -6.5 25.5t-25.5 6.5h-62q-19 0 -25.5 -6.5t-6.5 -25.5v-492h-244v534q0 87 40 126.5t126 39.5
h282q86 0 126 -39.5t40 -126.5v-42q0 -106 -74 -135z" />
    <glyph glyph-name="agrave" unicode="&#xe0;" horiz-adv-x="684" 
d="M386 700l60 -130h-188l-120 130h248zM220 540h240q99 0 144.5 -45t45.5 -145v-350h-204l-15 46q-36 -30 -66 -37q-31 -9 -99 -9h-106q-62 0 -96 33.5t-34 96.5v54q0 63 34 96.5t96 33.5h246v30q0 22 -8 30t-30 8h-48q-19 0 -25.5 -6.5t-6.5 -25.5v-11h-234v35
q0 87 40 126.5t126 39.5zM300 138h49q27 0 43 16l14 14v40h-106q-16 0 -21 -5t-5 -21v-18q0 -16 5 -21t21 -5z" />
    <glyph glyph-name="aacute" unicode="&#xe1;" horiz-adv-x="684" 
d="M310 700h248l-120 -130h-188zM220 540h240q99 0 144.5 -45t45.5 -145v-350h-204l-15 46q-36 -30 -66 -37q-31 -9 -99 -9h-106q-62 0 -96 33.5t-34 96.5v54q0 63 34 96.5t96 33.5h246v30q0 22 -8 30t-30 8h-48q-19 0 -25.5 -6.5t-6.5 -25.5v-11h-234v35q0 87 40 126.5
t126 39.5zM300 138h49q27 0 43 16l14 14v40h-106q-16 0 -21 -5t-5 -21v-18q0 -16 5 -21t21 -5z" />
    <glyph glyph-name="acircumflex" unicode="&#xe2;" horiz-adv-x="684" 
d="M415 570l-67 42l-67 -42h-168l120 130h230l120 -130h-168zM220 540h240q99 0 144.5 -45t45.5 -145v-350h-204l-15 46q-36 -30 -66 -37q-31 -9 -99 -9h-106q-62 0 -96 33.5t-34 96.5v54q0 63 34 96.5t96 33.5h246v30q0 22 -8 30t-30 8h-48q-19 0 -25.5 -6.5t-6.5 -25.5
v-11h-234v35q0 87 40 126.5t126 39.5zM300 138h49q27 0 43 16l14 14v40h-106q-16 0 -21 -5t-5 -21v-18q0 -16 5 -21t21 -5z" />
    <glyph glyph-name="atilde" unicode="&#xe3;" horiz-adv-x="684" 
d="M262 620v-50h-129v82q0 48 49 48h161q42 0 59 -28l15 -23q3 -4 7 -4h5q5 0 5 5v50h129v-82q0 -48 -49 -48h-161q-42 0 -59 28l-15 23q-3 4 -7 4h-5q-5 0 -5 -5zM220 540h240q99 0 144.5 -45t45.5 -145v-350h-204l-15 46q-36 -30 -66 -37q-31 -9 -99 -9h-106
q-62 0 -96 33.5t-34 96.5v54q0 63 34 96.5t96 33.5h246v30q0 22 -8 30t-30 8h-48q-19 0 -25.5 -6.5t-6.5 -25.5v-11h-234v35q0 87 40 126.5t126 39.5zM300 138h49q27 0 43 16l14 14v40h-106q-16 0 -21 -5t-5 -21v-18q0 -16 5 -21t21 -5z" />
    <glyph glyph-name="adieresis" unicode="&#xe4;" horiz-adv-x="684" 
d="M148 700h180v-130h-180v130zM368 700h180v-130h-180v130zM220 540h240q99 0 144.5 -45t45.5 -145v-350h-204l-15 46q-36 -30 -66 -37q-31 -9 -99 -9h-106q-62 0 -96 33.5t-34 96.5v54q0 63 34 96.5t96 33.5h246v30q0 22 -8 30t-30 8h-48q-19 0 -25.5 -6.5t-6.5 -25.5v-11
h-234v35q0 87 40 126.5t126 39.5zM300 138h49q27 0 43 16l14 14v40h-106q-16 0 -21 -5t-5 -21v-18q0 -16 5 -21t21 -5z" />
    <glyph glyph-name="aring" unicode="&#xe5;" horiz-adv-x="684" 
d="M442 560h-188q-30 0 -43 13t-13 43v28q0 30 13 43t43 13h188q30 0 43 -13t13 -43v-28q0 -30 -13 -43t-43 -13zM278 635v-10q0 -11 3 -14t13 -3h108q10 0 13 3t3 14v10q0 11 -3 14t-13 3h-108q-10 0 -13 -3t-3 -14zM220 540h240q99 0 144.5 -45t45.5 -145v-350h-204
l-15 46q-36 -30 -66 -37q-31 -9 -99 -9h-106q-62 0 -96 33.5t-34 96.5v54q0 63 34 96.5t96 33.5h246v30q0 22 -8 30t-30 8h-48q-19 0 -25.5 -6.5t-6.5 -25.5v-11h-234v35q0 87 40 126.5t126 39.5zM300 138h49q27 0 43 16l14 14v40h-106q-16 0 -21 -5t-5 -21v-18q0 -16 5 -21
t21 -5z" />
    <glyph glyph-name="ae" unicode="&#xe6;" horiz-adv-x="1056" 
d="M646 540h190q99 0 144.5 -45t45.5 -145v-112h-376v-24q0 -22 8 -30t30 -8h72q19 0 25.5 6.5t6.5 25.5v5h234v-47q0 -87 -40 -126.5t-126 -39.5h-234q-90 0 -136 37q-30 -23 -61 -30q-29 -7 -93 -7h-176q-62 0 -96 33.5t-34 96.5v54q0 63 34 96.5t96 33.5h246v30
q0 22 -8 30t-30 8h-48q-19 0 -25.5 -6.5t-6.5 -25.5v-11h-234v35q0 87 40 126.5t126 39.5h190q80 0 118 -41q38 41 118 41zM650 360v-16h142v16q0 22 -8 30t-30 8h-66q-22 0 -30 -8t-8 -30zM392 154l14 14v40h-106q-16 0 -21 -5t-5 -21v-18q0 -16 5 -21t21 -5h49q27 0 43 16
z" />
    <glyph glyph-name="ccedilla" unicode="&#xe7;" horiz-adv-x="660" 
d="M630 350v-53h-234v13q0 22 -8 30t-30 8h-46q-22 0 -30 -8t-8 -30v-80q0 -22 8 -30t30 -8h46q22 0 30 8t8 30v17h234v-57q0 -100 -45.5 -145t-144.5 -45h-86l-6 -18h66q30 0 43 -13t13 -43v-30q0 -30 -13 -43t-43 -13h-184v66h127q7 0 7 7v4q0 7 -7 7h-97v32l14 44h-54
q-99 0 -144.5 45t-45.5 145v160q0 100 45.5 145t144.5 45h220q99 0 144.5 -45t45.5 -145z" />
    <glyph glyph-name="egrave" unicode="&#xe8;" horiz-adv-x="680" 
d="M378 700l60 -130h-188l-120 130h248zM220 540h240q99 0 144.5 -45t45.5 -145v-112h-376v-24q0 -22 8 -30t30 -8h72q19 0 25.5 6.5t6.5 25.5v5h234v-47q0 -87 -40 -126.5t-126 -39.5h-264q-99 0 -144.5 45t-45.5 145v160q0 100 45.5 145t144.5 45zM274 360v-16h142v16
q0 22 -8 30t-30 8h-66q-22 0 -30 -8t-8 -30z" />
    <glyph glyph-name="eacute" unicode="&#xe9;" horiz-adv-x="680" 
d="M302 700h248l-120 -130h-188zM220 540h240q99 0 144.5 -45t45.5 -145v-112h-376v-24q0 -22 8 -30t30 -8h72q19 0 25.5 6.5t6.5 25.5v5h234v-47q0 -87 -40 -126.5t-126 -39.5h-264q-99 0 -144.5 45t-45.5 145v160q0 100 45.5 145t144.5 45zM274 360v-16h142v16q0 22 -8 30
t-30 8h-66q-22 0 -30 -8t-8 -30z" />
    <glyph glyph-name="ecircumflex" unicode="&#xea;" horiz-adv-x="680" 
d="M407 570l-67 42l-67 -42h-168l120 130h230l120 -130h-168zM220 540h240q99 0 144.5 -45t45.5 -145v-112h-376v-24q0 -22 8 -30t30 -8h72q19 0 25.5 6.5t6.5 25.5v5h234v-47q0 -87 -40 -126.5t-126 -39.5h-264q-99 0 -144.5 45t-45.5 145v160q0 100 45.5 145t144.5 45z
M274 360v-16h142v16q0 22 -8 30t-30 8h-66q-22 0 -30 -8t-8 -30z" />
    <glyph glyph-name="edieresis" unicode="&#xeb;" horiz-adv-x="680" 
d="M140 700h180v-130h-180v130zM360 700h180v-130h-180v130zM220 540h240q99 0 144.5 -45t45.5 -145v-112h-376v-24q0 -22 8 -30t30 -8h72q19 0 25.5 6.5t6.5 25.5v5h234v-47q0 -87 -40 -126.5t-126 -39.5h-264q-99 0 -144.5 45t-45.5 145v160q0 100 45.5 145t144.5 45z
M274 360v-16h142v16q0 22 -8 30t-30 8h-66q-22 0 -30 -8t-8 -30z" />
    <glyph glyph-name="igrave" unicode="&#xec;" horiz-adv-x="332" 
d="M264 570h-188l-120 130h248zM290 0h-248v540h248v-540z" />
    <glyph glyph-name="iacute" unicode="&#xed;" horiz-adv-x="332" 
d="M376 700l-120 -130h-188l60 130h248zM290 0h-248v540h248v-540z" />
    <glyph glyph-name="icircumflex" unicode="&#xee;" horiz-adv-x="332" 
d="M99 570h-168l120 130h230l120 -130h-168l-67 42zM290 0h-248v540h248v-540z" />
    <glyph glyph-name="idieresis" unicode="&#xef;" horiz-adv-x="332" 
d="M146 570h-180v130h180v-130zM366 570h-180v130h180v-130zM290 0h-248v540h248v-540z" />
    <glyph glyph-name="eth" unicode="&#xf0;" horiz-adv-x="690" 
d="M408 700h42q107 0 158.5 -51t51.5 -159v-324q0 -87 -40 -126.5t-126 -39.5h-298q-86 0 -126 39.5t-40 126.5v118q0 87 40 126.5t126 39.5h114q79 0 106 -31v59q0 26 -10 36t-36 10h-48l-24 -48h-120l24 48h-92v176h178l30 60h120zM416 204v52q0 19 -6.5 25.5t-25.5 6.5
h-78q-19 0 -25.5 -6.5t-6.5 -25.5v-52q0 -19 6.5 -25.5t25.5 -6.5h78q19 0 25.5 6.5t6.5 25.5z" />
    <glyph glyph-name="ntilde" unicode="&#xf1;" horiz-adv-x="692" 
d="M260 620v-50h-129v82q0 48 49 48h161q42 0 59 -28l15 -23q3 -4 7 -4h5q5 0 5 5v50h129v-82q0 -48 -49 -48h-161q-42 0 -59 28l-15 23q-3 4 -7 4h-5q-5 0 -5 -5zM432 540h36q99 0 144.5 -45t45.5 -145v-350h-244v304q0 22 -8 30t-30 8h-29q-36 0 -51 -16l-14 -14v-312
h-244v540h204l17 -54q36 33 72 44q31 10 101 10z" />
    <glyph glyph-name="ograve" unicode="&#xf2;" horiz-adv-x="690" 
d="M443 570h-188l-120 130h248zM470 0h-250q-99 0 -144.5 45t-45.5 145v160q0 100 45.5 145t144.5 45h250q99 0 144.5 -45t45.5 -145v-160q0 -100 -45.5 -145t-144.5 -45zM312 192h66q22 0 30 8t8 30v80q0 22 -8 30t-30 8h-66q-22 0 -30 -8t-8 -30v-80q0 -22 8 -30t30 -8z
" />
    <glyph glyph-name="oacute" unicode="&#xf3;" horiz-adv-x="690" 
d="M555 700l-120 -130h-188l60 130h248zM470 0h-250q-99 0 -144.5 45t-45.5 145v160q0 100 45.5 145t144.5 45h250q99 0 144.5 -45t45.5 -145v-160q0 -100 -45.5 -145t-144.5 -45zM312 192h66q22 0 30 8t8 30v80q0 22 -8 30t-30 8h-66q-22 0 -30 -8t-8 -30v-80q0 -22 8 -30
t30 -8z" />
    <glyph glyph-name="ocircumflex" unicode="&#xf4;" horiz-adv-x="690" 
d="M278 570h-168l120 130h230l120 -130h-168l-67 42zM470 0h-250q-99 0 -144.5 45t-45.5 145v160q0 100 45.5 145t144.5 45h250q99 0 144.5 -45t45.5 -145v-160q0 -100 -45.5 -145t-144.5 -45zM312 192h66q22 0 30 8t8 30v80q0 22 -8 30t-30 8h-66q-22 0 -30 -8t-8 -30v-80
q0 -22 8 -30t30 -8z" />
    <glyph glyph-name="otilde" unicode="&#xf5;" horiz-adv-x="690" 
d="M259 570h-129v82q0 48 49 48h161q42 0 59 -28l15 -23q3 -4 7 -4h5q5 0 5 5v50h129v-82q0 -48 -49 -48h-161q-42 0 -59 28l-15 23q-3 4 -7 4h-5q-5 0 -5 -5v-50zM470 0h-250q-99 0 -144.5 45t-45.5 145v160q0 100 45.5 145t144.5 45h250q99 0 144.5 -45t45.5 -145v-160
q0 -100 -45.5 -145t-144.5 -45zM312 192h66q22 0 30 8t8 30v80q0 22 -8 30t-30 8h-66q-22 0 -30 -8t-8 -30v-80q0 -22 8 -30t30 -8z" />
    <glyph glyph-name="odieresis" unicode="&#xf6;" horiz-adv-x="690" 
d="M325 570h-180v130h180v-130zM545 570h-180v130h180v-130zM470 0h-250q-99 0 -144.5 45t-45.5 145v160q0 100 45.5 145t144.5 45h250q99 0 144.5 -45t45.5 -145v-160q0 -100 -45.5 -145t-144.5 -45zM312 192h66q22 0 30 8t8 30v80q0 22 -8 30t-30 8h-66q-22 0 -30 -8
t-8 -30v-80q0 -22 8 -30t30 -8z" />
    <glyph glyph-name="divide" unicode="&#xf7;" 
d="M516 510h-280v190h280v-190zM50 246v208h652v-208h-652zM516 0h-280v190h280v-190z" />
    <glyph glyph-name="oslash" unicode="&#xf8;" horiz-adv-x="690" 
d="M560 570h130l-73 -78q43 -46 43 -142v-160q0 -100 -45.5 -145t-144.5 -45h-250q-37 0 -58 4l-32 -34h-130l73 78q-43 46 -43 142v160q0 100 45.5 145t144.5 45h250q37 0 58 -4zM244 330v-99l127 137h-89q-22 0 -30 -8t-8 -30zM446 210v99l-127 -137h89q22 0 30 8t8 30z
" />
    <glyph glyph-name="ugrave" unicode="&#xf9;" horiz-adv-x="692" 
d="M384 700l60 -130h-188l-120 130h248zM410 540h244v-540h-204l-17 54q-36 -33 -71 -44q-33 -10 -102 -10h-36q-99 0 -144.5 45t-45.5 145v350h244v-304q0 -22 8 -30t30 -8h29q36 0 51 16l14 14v312z" />
    <glyph glyph-name="uacute" unicode="&#xfa;" horiz-adv-x="692" 
d="M308 700h248l-120 -130h-188zM410 540h244v-540h-204l-17 54q-36 -33 -71 -44q-33 -10 -102 -10h-36q-99 0 -144.5 45t-45.5 145v350h244v-304q0 -22 8 -30t30 -8h29q36 0 51 16l14 14v312z" />
    <glyph glyph-name="ucircumflex" unicode="&#xfb;" horiz-adv-x="692" 
d="M413 570l-67 42l-67 -42h-168l120 130h230l120 -130h-168zM410 540h244v-540h-204l-17 54q-36 -33 -71 -44q-33 -10 -102 -10h-36q-99 0 -144.5 45t-45.5 145v350h244v-304q0 -22 8 -30t30 -8h29q36 0 51 16l14 14v312z" />
    <glyph glyph-name="udieresis" unicode="&#xfc;" horiz-adv-x="692" 
d="M146 700h180v-130h-180v130zM366 700h180v-130h-180v130zM410 540h244v-540h-204l-17 54q-36 -33 -71 -44q-33 -10 -102 -10h-36q-99 0 -144.5 45t-45.5 145v350h244v-304q0 -22 8 -30t30 -8h29q36 0 51 16l14 14v312z" />
    <glyph glyph-name="yacute" unicode="&#xfd;" horiz-adv-x="698" 
d="M311 700h248l-120 -130h-188zM354 281l86 259h258l-233 -530q-44 -102 -98 -137q-54 -33 -169 -33h-138v192h146q14 0 18 1l-224 507h268z" />
    <glyph glyph-name="thorn" unicode="&#xfe;" horiz-adv-x="698" 
d="M432 540h46q99 0 144.5 -45t45.5 -145v-160q0 -100 -45.5 -145t-144.5 -45h-46q-61 0 -91 7t-59 28v-195h-244v860h244v-195q29 21 59 28t91 7zM424 230v80q0 22 -8 30t-30 8h-39q-36 0 -51 -16l-14 -14v-96l14 -14q16 -16 51 -16h39q22 0 30 8t8 30z" />
    <glyph glyph-name="ydieresis" unicode="&#xff;" horiz-adv-x="698" 
d="M149 700h180v-130h-180v130zM369 700h180v-130h-180v130zM354 281l86 259h258l-233 -530q-44 -102 -98 -137q-54 -33 -169 -33h-138v192h146q14 0 18 1l-224 507h268z" />
    <glyph glyph-name="Amacron" unicode="&#x100;" horiz-adv-x="852" 
d="M206 850h440v-110h-440v110zM852 0h-288l-28 88h-234l-28 -88h-274l278 700h296zM419 451l-62 -193h124z" />
    <glyph glyph-name="amacron" unicode="&#x101;" horiz-adv-x="684" 
d="M128 690h440v-110h-440v110zM220 540h240q99 0 144.5 -45t45.5 -145v-350h-204l-15 46q-36 -30 -66 -37q-31 -9 -99 -9h-106q-62 0 -96 33.5t-34 96.5v54q0 63 34 96.5t96 33.5h246v30q0 22 -8 30t-30 8h-48q-19 0 -25.5 -6.5t-6.5 -25.5v-11h-234v35q0 87 40 126.5
t126 39.5zM300 138h49q27 0 43 16l14 14v40h-106q-16 0 -21 -5t-5 -21v-18q0 -16 5 -21t21 -5z" />
    <glyph glyph-name="Abreve" unicode="&#x102;" horiz-adv-x="852" 
d="M565 730h-278q-76 0 -76 76v54h158v-18q0 -22 22 -22h70q22 0 22 22v18h158v-54q0 -76 -76 -76zM852 0h-288l-28 88h-234l-28 -88h-274l278 700h296zM419 451l-62 -193h124z" />
    <glyph glyph-name="abreve" unicode="&#x103;" horiz-adv-x="684" 
d="M487 570h-278q-76 0 -76 76v54h158v-18q0 -22 22 -22h70q22 0 22 22v18h158v-54q0 -76 -76 -76zM220 540h240q99 0 144.5 -45t45.5 -145v-350h-204l-15 46q-36 -30 -66 -37q-31 -9 -99 -9h-106q-62 0 -96 33.5t-34 96.5v54q0 63 34 96.5t96 33.5h246v30q0 22 -8 30t-30 8
h-48q-19 0 -25.5 -6.5t-6.5 -25.5v-11h-234v35q0 87 40 126.5t126 39.5zM300 138h49q27 0 43 16l14 14v40h-106q-16 0 -21 -5t-5 -21v-18q0 -16 5 -21t21 -5z" />
    <glyph glyph-name="Aogonek" unicode="&#x104;" horiz-adv-x="852" 
d="M680 -19v-4q0 -13 13 -13h149v-124h-214q-86 0 -86 86v16q0 45 18 70l-24 76h-234l-28 -88h-274l278 700h296l278 -700h-162l-2 -2q-8 -8 -8 -17zM419 451l-62 -193h124z" />
    <glyph glyph-name="aogonek" unicode="&#x105;" horiz-adv-x="684" 
d="M558 0l-2 -2q-8 -8 -8 -17v-4q0 -13 13 -13h89v-124h-154q-86 0 -86 86v16q0 51 28 82l-7 22q-36 -30 -66 -37q-31 -9 -99 -9h-106q-62 0 -96 33.5t-34 96.5v54q0 63 34 96.5t96 33.5h246v30q0 22 -8 30t-30 8h-48q-19 0 -25.5 -6.5t-6.5 -25.5v-11h-234v35
q0 87 40 126.5t126 39.5h240q99 0 144.5 -45t45.5 -145v-350h-92zM300 138h49q27 0 43 16l14 14v40h-106q-16 0 -21 -5t-5 -21v-18q0 -16 5 -21t21 -5z" />
    <glyph glyph-name="Cacute" unicode="&#x106;" horiz-adv-x="782" 
d="M601 860l-120 -130h-188l60 130h248zM542 0h-300q-107 0 -158.5 51t-51.5 159v280q0 108 51.5 159t158.5 51h300q107 0 158.5 -51t51.5 -159v-96h-250v44q0 26 -10 36t-36 10h-118q-26 0 -36 -10t-10 -36v-176q0 -26 10 -36t36 -10h118q26 0 36 10t10 36v50h250v-102
q0 -108 -51.5 -159t-158.5 -51z" />
    <glyph glyph-name="cacute" unicode="&#x107;" horiz-adv-x="660" 
d="M540 700l-120 -130h-188l60 130h248zM30 190v160q0 100 45.5 145t144.5 45h220q99 0 144.5 -45t45.5 -145v-53h-234v13q0 22 -8 30t-30 8h-46q-22 0 -30 -8t-8 -30v-80q0 -22 8 -30t30 -8h46q22 0 30 8t8 30v17h234v-57q0 -100 -45.5 -145t-144.5 -45h-220
q-99 0 -144.5 45t-45.5 145z" />
    <glyph glyph-name="Ccircumflex" unicode="&#x108;" horiz-adv-x="782" 
d="M324 730h-168l120 130h230l120 -130h-168l-67 42zM542 0h-300q-107 0 -158.5 51t-51.5 159v280q0 108 51.5 159t158.5 51h300q107 0 158.5 -51t51.5 -159v-96h-250v44q0 26 -10 36t-36 10h-118q-26 0 -36 -10t-10 -36v-176q0 -26 10 -36t36 -10h118q26 0 36 10t10 36v50
h250v-102q0 -108 -51.5 -159t-158.5 -51z" />
    <glyph glyph-name="ccircumflex" unicode="&#x109;" horiz-adv-x="660" 
d="M263 570h-168l120 130h230l120 -130h-168l-67 42zM30 190v160q0 100 45.5 145t144.5 45h220q99 0 144.5 -45t45.5 -145v-53h-234v13q0 22 -8 30t-30 8h-46q-22 0 -30 -8t-8 -30v-80q0 -22 8 -30t30 -8h46q22 0 30 8t8 30v17h234v-57q0 -100 -45.5 -145t-144.5 -45h-220
q-99 0 -144.5 45t-45.5 145z" />
    <glyph glyph-name="Cdotaccent" unicode="&#x10a;" horiz-adv-x="782" 
d="M515 730h-248v130h248v-130zM542 0h-300q-107 0 -158.5 51t-51.5 159v280q0 108 51.5 159t158.5 51h300q107 0 158.5 -51t51.5 -159v-96h-250v44q0 26 -10 36t-36 10h-118q-26 0 -36 -10t-10 -36v-176q0 -26 10 -36t36 -10h118q26 0 36 10t10 36v50h250v-102
q0 -108 -51.5 -159t-158.5 -51z" />
    <glyph glyph-name="cdotaccent" unicode="&#x10b;" horiz-adv-x="660" 
d="M454 570h-248v130h248v-130zM30 190v160q0 100 45.5 145t144.5 45h220q99 0 144.5 -45t45.5 -145v-53h-234v13q0 22 -8 30t-30 8h-46q-22 0 -30 -8t-8 -30v-80q0 -22 8 -30t30 -8h46q22 0 30 8t8 30v17h234v-57q0 -100 -45.5 -145t-144.5 -45h-220q-99 0 -144.5 45
t-45.5 145z" />
    <glyph glyph-name="Ccaron" unicode="&#x10c;" horiz-adv-x="782" 
d="M506 730h-230l-120 130h168l67 -42l67 42h168zM542 0h-300q-107 0 -158.5 51t-51.5 159v280q0 108 51.5 159t158.5 51h300q107 0 158.5 -51t51.5 -159v-96h-250v44q0 26 -10 36t-36 10h-118q-26 0 -36 -10t-10 -36v-176q0 -26 10 -36t36 -10h118q26 0 36 10t10 36v50h250
v-102q0 -108 -51.5 -159t-158.5 -51z" />
    <glyph glyph-name="ccaron" unicode="&#x10d;" horiz-adv-x="660" 
d="M445 570h-230l-120 130h168l67 -42l67 42h168zM30 190v160q0 100 45.5 145t144.5 45h220q99 0 144.5 -45t45.5 -145v-53h-234v13q0 22 -8 30t-30 8h-46q-22 0 -30 -8t-8 -30v-80q0 -22 8 -30t30 -8h46q22 0 30 8t8 30v17h234v-57q0 -100 -45.5 -145t-144.5 -45h-220
q-99 0 -144.5 45t-45.5 145z" />
    <glyph glyph-name="Dcaron" unicode="&#x10e;" horiz-adv-x="812" 
d="M521 730h-230l-120 130h168l67 -42l67 42h168zM520 0h-480v700h480q126 0 193 -66.5t67 -193.5v-180q0 -127 -67 -193.5t-193 -66.5zM300 480v-260h164q56 0 56 56v148q0 56 -56 56h-164z" />
    <glyph glyph-name="dcaron" unicode="&#x10f;" horiz-adv-x="920" 
d="M416 505v195h244v-700h-204l-17 54q-36 -33 -71 -44q-33 -10 -102 -10h-46q-99 0 -144.5 45t-45.5 145v160q0 100 45.5 145t144.5 45h46q61 0 91 -7t59 -28zM700 550v150h220v-71q0 -42 -7 -66q-7 -25 -30 -66l-43 -77h-122l58 130h-76zM312 192h39q35 0 51 16l14 14v96
l-14 14q-15 16 -51 16h-39q-22 0 -30 -8t-8 -30v-80q0 -22 8 -30t30 -8z" />
    <glyph glyph-name="Dcroat" unicode="&#x110;" horiz-adv-x="872" 
d="M100 700h480q126 0 193 -66.5t67 -193.5v-180q0 -127 -67 -193.5t-193 -66.5h-480v277h-80v146h80v277zM580 276v148q0 56 -56 56h-164v-57h130v-146h-130v-57h164q56 0 56 56z" />
    <glyph glyph-name="dslash" unicode="&#x111;" horiz-adv-x="740" 
d="M660 663h70v-100h-70v-563h-204l-17 54q-36 -33 -71 -44q-33 -10 -102 -10h-46q-99 0 -144.5 45t-45.5 145v160q0 100 45.5 145t144.5 45h46q61 0 91 -7t59 -28v58h-126v100h126v37h244v-37zM312 192h39q35 0 51 16l14 14v96l-14 14q-15 16 -51 16h-39q-22 0 -30 -8
t-8 -30v-80q0 -22 8 -30t30 -8z" />
    <glyph glyph-name="Emacron" unicode="&#x112;" horiz-adv-x="690" 
d="M125 850h440v-110h-440v110zM300 271v-71h370v-200h-630v700h620v-200h-360v-63h320v-166h-320z" />
    <glyph glyph-name="emacron" unicode="&#x113;" horiz-adv-x="680" 
d="M120 690h440v-110h-440v110zM220 540h240q99 0 144.5 -45t45.5 -145v-112h-376v-24q0 -22 8 -30t30 -8h72q19 0 25.5 6.5t6.5 25.5v5h234v-47q0 -87 -40 -126.5t-126 -39.5h-264q-99 0 -144.5 45t-45.5 145v160q0 100 45.5 145t144.5 45zM274 360v-16h142v16q0 22 -8 30
t-30 8h-66q-22 0 -30 -8t-8 -30z" />
    <glyph glyph-name="Ebreve" unicode="&#x114;" horiz-adv-x="690" 
d="M484 730h-278q-76 0 -76 76v54h158v-18q0 -22 22 -22h70q22 0 22 22v18h158v-54q0 -76 -76 -76zM300 271v-71h370v-200h-630v700h620v-200h-360v-63h320v-166h-320z" />
    <glyph glyph-name="ebreve" unicode="&#x115;" horiz-adv-x="680" 
d="M479 570h-278q-76 0 -76 76v54h158v-18q0 -22 22 -22h70q22 0 22 22v18h158v-54q0 -76 -76 -76zM220 540h240q99 0 144.5 -45t45.5 -145v-112h-376v-24q0 -22 8 -30t30 -8h72q19 0 25.5 6.5t6.5 25.5v5h234v-47q0 -87 -40 -126.5t-126 -39.5h-264q-99 0 -144.5 45
t-45.5 145v160q0 100 45.5 145t144.5 45zM274 360v-16h142v16q0 22 -8 30t-30 8h-66q-22 0 -30 -8t-8 -30z" />
    <glyph glyph-name="Edotaccent" unicode="&#x116;" horiz-adv-x="690" 
d="M221 860h248v-130h-248v130zM300 271v-71h370v-200h-630v700h620v-200h-360v-63h320v-166h-320z" />
    <glyph glyph-name="edotaccent" unicode="&#x117;" horiz-adv-x="680" 
d="M216 700h248v-130h-248v130zM220 540h240q99 0 144.5 -45t45.5 -145v-112h-376v-24q0 -22 8 -30t30 -8h72q19 0 25.5 6.5t6.5 25.5v5h234v-47q0 -87 -40 -126.5t-126 -39.5h-264q-99 0 -144.5 45t-45.5 145v160q0 100 45.5 145t144.5 45zM274 360v-16h142v16q0 22 -8 30
t-30 8h-66q-22 0 -30 -8t-8 -30z" />
    <glyph glyph-name="Eogonek" unicode="&#x118;" horiz-adv-x="690" 
d="M518 0l-2 -2q-8 -8 -8 -17v-4q0 -13 13 -13h149v-124h-214q-86 0 -86 86v16q0 34 11 58h-341v700h620v-200h-360v-63h320v-166h-320v-71h370v-200h-152z" />
    <glyph glyph-name="eogonek" unicode="&#x119;" horiz-adv-x="680" 
d="M220 540h240q99 0 144.5 -45t45.5 -145v-112h-376v-24q0 -22 8 -30t30 -8h72q19 0 25.5 6.5t6.5 25.5v5h234v-47q0 -87 -40 -126.5t-126 -39.5h-64l-2 -2q-8 -8 -8 -17v-4q0 -13 13 -13h149v-124h-214q-86 0 -86 86v16q0 34 11 58h-63q-99 0 -144.5 45t-45.5 145v160
q0 100 45.5 145t144.5 45zM274 360v-16h142v16q0 22 -8 30t-30 8h-66q-22 0 -30 -8t-8 -30z" />
    <glyph glyph-name="Ecaron" unicode="&#x11a;" horiz-adv-x="690" 
d="M580 860l-120 -130h-230l-120 130h168l67 -42l67 42h168zM300 271v-71h370v-200h-630v700h620v-200h-360v-63h320v-166h-320z" />
    <glyph glyph-name="ecaron" unicode="&#x11b;" horiz-adv-x="680" 
d="M575 700l-120 -130h-230l-120 130h168l67 -42l67 42h168zM220 540h240q99 0 144.5 -45t45.5 -145v-112h-376v-24q0 -22 8 -30t30 -8h72q19 0 25.5 6.5t6.5 25.5v5h234v-47q0 -87 -40 -126.5t-126 -39.5h-264q-99 0 -144.5 45t-45.5 145v160q0 100 45.5 145t144.5 45z
M274 360v-16h142v16q0 22 -8 30t-30 8h-66q-22 0 -30 -8t-8 -30z" />
    <glyph glyph-name="Gcircumflex" unicode="&#x11c;" horiz-adv-x="814" 
d="M340 730h-168l120 130h230l120 -130h-168l-67 42zM32 210v280q0 108 51.5 159t158.5 51h330q107 0 158.5 -51t51.5 -159v-56h-260v14q0 26 -10 36t-36 10h-138q-26 0 -36 -10t-10 -36v-216q0 -26 10 -36t36 -10h148q26 0 36 10t10 36v14h-132v152h382v-188
q0 -108 -51.5 -159t-158.5 -51h-330q-107 0 -158.5 51t-51.5 159z" />
    <glyph glyph-name="gcircumflex" unicode="&#x11d;" horiz-adv-x="698" 
d="M416 570l-67 42l-67 -42h-168l120 130h230l120 -130h-168zM439 486l17 54h204v-490q0 -108 -51.5 -159t-158.5 -51h-400v176h320q26 0 36 10t10 36v28q-30 -21 -62 -28.5t-88 -7.5h-46q-99 0 -144.5 45t-45.5 145v106q0 100 45.5 145t144.5 45h46q65 0 99 -10t74 -44z
M402 238l14 14v82l-14 14q-15 16 -51 16h-39q-22 0 -30 -8t-8 -30v-66q0 -22 8 -30t30 -8h39q35 0 51 16z" />
    <glyph glyph-name="Gbreve" unicode="&#x11e;" horiz-adv-x="814" 
d="M546 730h-278q-76 0 -76 76v54h158v-18q0 -22 22 -22h70q22 0 22 22v18h158v-54q0 -76 -76 -76zM32 210v280q0 108 51.5 159t158.5 51h330q107 0 158.5 -51t51.5 -159v-56h-260v14q0 26 -10 36t-36 10h-138q-26 0 -36 -10t-10 -36v-216q0 -26 10 -36t36 -10h148
q26 0 36 10t10 36v14h-132v152h382v-188q0 -108 -51.5 -159t-158.5 -51h-330q-107 0 -158.5 51t-51.5 159z" />
    <glyph glyph-name="gbreve" unicode="&#x11f;" horiz-adv-x="698" 
d="M488 570h-278q-76 0 -76 76v54h158v-18q0 -22 22 -22h70q22 0 22 22v18h158v-54q0 -76 -76 -76zM439 486l17 54h204v-490q0 -108 -51.5 -159t-158.5 -51h-400v176h320q26 0 36 10t10 36v28q-30 -21 -62 -28.5t-88 -7.5h-46q-99 0 -144.5 45t-45.5 145v106q0 100 45.5 145
t144.5 45h46q65 0 99 -10t74 -44zM402 238l14 14v82l-14 14q-15 16 -51 16h-39q-22 0 -30 -8t-8 -30v-66q0 -22 8 -30t30 -8h39q35 0 51 16z" />
    <glyph glyph-name="Gdotaccent" unicode="&#x120;" horiz-adv-x="814" 
d="M531 730h-248v130h248v-130zM32 210v280q0 108 51.5 159t158.5 51h330q107 0 158.5 -51t51.5 -159v-56h-260v14q0 26 -10 36t-36 10h-138q-26 0 -36 -10t-10 -36v-216q0 -26 10 -36t36 -10h148q26 0 36 10t10 36v14h-132v152h382v-188q0 -108 -51.5 -159t-158.5 -51h-330
q-107 0 -158.5 51t-51.5 159z" />
    <glyph glyph-name="gdotaccent" unicode="&#x121;" horiz-adv-x="698" 
d="M225 700h248v-130h-248v130zM439 486l17 54h204v-490q0 -108 -51.5 -159t-158.5 -51h-400v176h320q26 0 36 10t10 36v28q-30 -21 -62 -28.5t-88 -7.5h-46q-99 0 -144.5 45t-45.5 145v106q0 100 45.5 145t144.5 45h46q65 0 99 -10t74 -44zM402 238l14 14v82l-14 14
q-15 16 -51 16h-39q-22 0 -30 -8t-8 -30v-66q0 -22 8 -30t30 -8h39q35 0 51 16z" />
    <glyph glyph-name="Gcommaaccent" unicode="&#x122;" horiz-adv-x="814" 
d="M32 210v280q0 108 51.5 159t158.5 51h330q107 0 158.5 -51t51.5 -159v-56h-260v14q0 26 -10 36t-36 10h-138q-26 0 -36 -10t-10 -36v-216q0 -26 10 -36t36 -10h148q26 0 36 10t10 36v14h-132v152h382v-188q0 -108 -51.5 -159t-158.5 -51h-330q-107 0 -158.5 51t-51.5 159
zM437 -250h-122l58 100h-76v120h220v-36q0 -44 -6 -65q-8 -21 -34 -60z" />
    <glyph glyph-name="gcommaaccent" unicode="&#x123;" horiz-adv-x="698" 
d="M383 690h76v-120h-220v36q0 45 7 65q6 19 33 60l40 59h122zM439 486l17 54h204v-490q0 -108 -51.5 -159t-158.5 -51h-400v176h320q26 0 36 10t10 36v28q-30 -21 -62 -28.5t-88 -7.5h-46q-99 0 -144.5 45t-45.5 145v106q0 100 45.5 145t144.5 45h46q65 0 99 -10t74 -44z
M402 238l14 14v82l-14 14q-15 16 -51 16h-39q-22 0 -30 -8t-8 -30v-66q0 -22 8 -30t30 -8h39q35 0 51 16z" />
    <glyph glyph-name="Hcircumflex" unicode="&#x124;" horiz-adv-x="800" 
d="M467 730l-67 42l-67 -42h-168l120 130h230l120 -130h-168zM500 475v225h260v-700h-260v245h-200v-245h-260v700h260v-225h200z" />
    <glyph glyph-name="hcircumflex" unicode="&#x125;" horiz-adv-x="692" 
d="M227 730l-67 42l-67 -42h-168l120 130h230l120 -130h-168zM442 540h26q99 0 144.5 -45t45.5 -145v-350h-244v304q0 22 -8 30t-30 8h-29q-36 0 -51 -16l-14 -14v-312h-244v700h244v-203q34 28 65 35q34 8 95 8z" />
    <glyph glyph-name="Hbar" unicode="&#x126;" horiz-adv-x="920" 
d="M820 649h80v-130h-80v-519h-260v245h-200v-245h-260v519h-80v130h80v51h260v-51h200v51h260v-51zM360 475h200v44h-200v-44z" />
    <glyph glyph-name="hbar" unicode="&#x127;" horiz-adv-x="734" 
d="M484 540h26q99 0 144.5 -45t45.5 -145v-350h-244v304q0 22 -8 30t-30 8h-29q-36 0 -51 -16l-14 -14v-312h-244v563h-70v100h70v37h244v-37h126v-100h-126v-66q34 28 65 35q34 8 95 8z" />
    <glyph glyph-name="Itilde" unicode="&#x128;" horiz-adv-x="352" 
d="M90 730h-129v82q0 48 49 48h161q42 0 59 -28l15 -23q3 -4 7 -4h5q5 0 5 5v50h129v-82q0 -48 -49 -48h-161q-42 0 -59 28l-15 23q-3 4 -7 4h-5q-5 0 -5 -5v-50zM44 0v700h264v-700h-264z" />
    <glyph glyph-name="itilde" unicode="&#x129;" horiz-adv-x="332" 
d="M80 570h-129v82q0 48 49 48h161q42 0 59 -28l15 -23q3 -4 7 -4h5q5 0 5 5v50h129v-82q0 -48 -49 -48h-161q-42 0 -59 28l-15 23q-3 4 -7 4h-5q-5 0 -5 -5v-50zM290 0h-248v540h248v-540z" />
    <glyph glyph-name="Imacron" unicode="&#x12a;" horiz-adv-x="352" 
d="M396 740h-440v110h440v-110zM44 0v700h264v-700h-264z" />
    <glyph glyph-name="imacron" unicode="&#x12b;" horiz-adv-x="332" 
d="M386 580h-440v110h440v-110zM290 0h-248v540h248v-540z" />
    <glyph glyph-name="Ibreve" unicode="&#x12c;" horiz-adv-x="352" 
d="M315 730h-278q-76 0 -76 76v54h158v-18q0 -22 22 -22h70q22 0 22 22v18h158v-54q0 -76 -76 -76zM44 0v700h264v-700h-264z" />
    <glyph glyph-name="ibreve" unicode="&#x12d;" horiz-adv-x="332" 
d="M305 570h-278q-76 0 -76 76v54h158v-18q0 -22 22 -22h70q22 0 22 22v18h158v-54q0 -76 -76 -76zM290 0h-248v540h248v-540z" />
    <glyph glyph-name="Iogonek" unicode="&#x12e;" horiz-adv-x="352" 
d="M156 0l-2 -2q-8 -8 -8 -17v-4q0 -13 13 -13h149v-124h-214q-86 0 -86 86v16q0 56 36 91v667h264v-700h-152z" />
    <glyph glyph-name="iogonek" unicode="&#x12f;" horiz-adv-x="332" 
d="M42 570v130h248v-130h-248zM35 41l7 6v493h248v-540h-152l-2 -2q-8 -8 -8 -17v-4q0 -13 13 -13h149v-124h-214q-86 0 -86 86v16q0 33 9.5 54.5t35.5 44.5z" />
    <glyph glyph-name="Idot" unicode="&#x130;" horiz-adv-x="352" 
d="M308 730h-264v130h264v-130zM44 0v700h264v-700h-264z" />
    <glyph glyph-name="dotlessi" unicode="&#x131;" horiz-adv-x="332" 
d="M290 0h-248v540h248v-540z" />
    <glyph glyph-name="IJ" unicode="&#x132;" horiz-adv-x="1078" 
d="M44 0v700h264v-700h-264zM832 0h-250q-107 0 -158.5 51t-51.5 159v100h250v-48q0 -26 10 -36t36 -10h68q26 0 36 10t10 36v438h260v-490q0 -108 -51.5 -159t-158.5 -51z" />
    <glyph glyph-name="ij" unicode="&#x133;" horiz-adv-x="664" 
d="M290 570h-248v130h248v-130zM622 570h-248v130h248v-130zM290 0h-248v540h248v-540zM456 -160h-144v182h30q19 0 25.5 6.5t6.5 25.5v486h248v-534q0 -87 -40 -126.5t-126 -39.5z" />
    <glyph glyph-name="Jcircumflex" unicode="&#x134;" horiz-adv-x="726" 
d="M493 730h-168l120 130h230l120 -130h-168l-67 42zM480 0h-250q-107 0 -158.5 51t-51.5 159v100h250v-48q0 -26 10 -36t36 -10h68q26 0 36 10t10 36v438h260v-490q0 -108 -51.5 -159t-158.5 -51z" />
    <glyph glyph-name="jcircumflex" unicode="&#x135;" horiz-adv-x="332" 
d="M99 570h-168l120 130h230l120 -130h-168l-67 42zM124 -160h-144v182h30q19 0 25.5 6.5t6.5 25.5v486h248v-534q0 -87 -40 -126.5t-126 -39.5z" />
    <glyph glyph-name="Kcommaaccent" unicode="&#x136;" horiz-adv-x="814" 
d="M500 0l-200 325v-325h-260v700h260v-310l196 310h314l-246 -336l250 -364h-314zM363 -150h-76v120h220v-36q0 -44 -6 -65q-8 -21 -34 -60l-40 -59h-122z" />
    <glyph glyph-name="kcommaaccent" unicode="&#x137;" horiz-adv-x="718" 
d="M432 0l-150 236v-236h-244v700h244v-398l142 238h296l-196 -266l204 -274h-296zM325 -150h-76v120h220v-36q0 -44 -6 -65q-8 -21 -34 -60l-40 -59h-122z" />
    <glyph glyph-name="Lacute" unicode="&#x139;" horiz-adv-x="630" 
d="M132 860h248l-120 -130h-188zM300 700v-470h320v-230h-580v700h260z" />
    <glyph glyph-name="lacute" unicode="&#x13a;" horiz-adv-x="332" 
d="M376 860l-120 -130h-188l60 130h248zM290 0h-248v700h248v-700z" />
    <glyph glyph-name="Lcommaaccent" unicode="&#x13b;" horiz-adv-x="630" 
d="M300 700v-470h320v-230h-580v700h260zM281 -150h-76v120h220v-36q0 -44 -6 -65q-8 -21 -34 -60l-40 -59h-122z" />
    <glyph glyph-name="lcommaaccent" unicode="&#x13c;" horiz-adv-x="332" 
d="M290 0h-248v700h248v-700zM196 -250h-122l58 100h-76v120h220v-36q0 -44 -6 -65q-8 -21 -34 -60z" />
    <glyph glyph-name="Lcaron" unicode="&#x13d;" horiz-adv-x="630" 
d="M300 700v-470h320v-230h-580v700h260zM510 420h-122l58 130h-76v150h220v-71q0 -42 -7 -66q-7 -25 -30 -66z" />
    <glyph glyph-name="lcaron" unicode="&#x13e;" horiz-adv-x="550" 
d="M290 0h-248v700h248v-700zM470 420h-122l58 130h-76v150h220v-71q0 -42 -7 -66q-7 -25 -30 -66z" />
    <glyph glyph-name="Ldot" unicode="&#x13f;" horiz-adv-x="630" 
d="M40 700h260v-470h320v-230h-580v700zM340 300v260h280v-260h-280z" />
    <glyph glyph-name="ldot" unicode="&#x140;" horiz-adv-x="620" 
d="M290 0h-248v700h248v-700zM610 250h-280v260h280v-260z" />
    <glyph glyph-name="Lslash" unicode="&#x141;" horiz-adv-x="690" 
d="M360 328v-98h320v-230h-580v289l-80 -12v146l80 12v265h260v-226l190 29v-146z" />
    <glyph glyph-name="lslash" unicode="&#x142;" horiz-adv-x="408" 
d="M328 452l70 11v-146l-70 -11v-306h-248v268l-70 -11v146l70 11v286h248v-248z" />
    <glyph glyph-name="Nacute" unicode="&#x143;" horiz-adv-x="820" 
d="M362 860h248l-120 -130h-188zM530 381v319h250v-700h-210l-280 330v-330h-250v700h220z" />
    <glyph glyph-name="nacute" unicode="&#x144;" horiz-adv-x="692" 
d="M308 700h248l-120 -130h-188zM432 540h36q99 0 144.5 -45t45.5 -145v-350h-244v304q0 22 -8 30t-30 8h-29q-36 0 -51 -16l-14 -14v-312h-244v540h204l17 -54q36 33 72 44q31 10 101 10z" />
    <glyph glyph-name="Ncommaaccent" unicode="&#x145;" horiz-adv-x="820" 
d="M530 381v319h250v-700h-210l-280 330v-330h-250v700h220zM376 -150h-76v120h220v-36q0 -44 -6 -65q-8 -21 -34 -60l-40 -59h-122z" />
    <glyph glyph-name="ncommaaccent" unicode="&#x146;" horiz-adv-x="692" 
d="M432 540h36q99 0 144.5 -45t45.5 -145v-350h-244v304q0 22 -8 30t-30 8h-29q-36 0 -51 -16l-14 -14v-312h-244v540h204l17 -54q36 33 72 44q31 10 101 10zM312 -150h-76v120h220v-36q0 -44 -6 -65q-8 -21 -34 -60l-40 -59h-122z" />
    <glyph glyph-name="Ncaron" unicode="&#x147;" horiz-adv-x="820" 
d="M635 860l-120 -130h-230l-120 130h168l67 -42l67 42h168zM530 381v319h250v-700h-210l-280 330v-330h-250v700h220z" />
    <glyph glyph-name="ncaron" unicode="&#x148;" horiz-adv-x="692" 
d="M581 700l-120 -130h-230l-120 130h168l67 -42l67 42h168zM432 540h36q99 0 144.5 -45t45.5 -145v-350h-244v304q0 22 -8 30t-30 8h-29q-36 0 -51 -16l-14 -14v-312h-244v540h204l17 -54q36 33 72 44q31 10 101 10z" />
    <glyph glyph-name="Eng" unicode="&#x14a;" horiz-adv-x="820" 
d="M530 381v319h250v-660q0 -103 -49 -151.5t-151 -48.5h-160v180h74q21 0 28 5t8 22l-240 283v-330h-250v700h220z" />
    <glyph glyph-name="eng" unicode="&#x14b;" horiz-adv-x="692" 
d="M432 540h36q99 0 144.5 -45t45.5 -145v-344q0 -87 -40 -126.5t-126 -39.5h-144l4 182h30q19 0 25.5 6.5t6.5 25.5v250q0 22 -8 30t-30 8h-29q-36 0 -51 -16l-14 -14v-312h-244v540h204l17 -54q36 33 72 44q31 10 101 10z" />
    <glyph glyph-name="Omacron" unicode="&#x14c;" horiz-adv-x="814" 
d="M627 740h-440v110h440v-110zM572 0h-330q-107 0 -158.5 51t-51.5 159v280q0 108 51.5 159t158.5 51h330q107 0 158.5 -51t51.5 -159v-280q0 -108 -51.5 -159t-158.5 -51zM338 220h138q26 0 36 10t10 36v168q0 26 -10 36t-36 10h-138q-26 0 -36 -10t-10 -36v-168
q0 -26 10 -36t36 -10z" />
    <glyph glyph-name="omacron" unicode="&#x14d;" horiz-adv-x="690" 
d="M565 580h-440v110h440v-110zM470 0h-250q-99 0 -144.5 45t-45.5 145v160q0 100 45.5 145t144.5 45h250q99 0 144.5 -45t45.5 -145v-160q0 -100 -45.5 -145t-144.5 -45zM312 192h66q22 0 30 8t8 30v80q0 22 -8 30t-30 8h-66q-22 0 -30 -8t-8 -30v-80q0 -22 8 -30t30 -8z
" />
    <glyph glyph-name="Obreve" unicode="&#x14e;" horiz-adv-x="814" 
d="M546 730h-278q-76 0 -76 76v54h158v-18q0 -22 22 -22h70q22 0 22 22v18h158v-54q0 -76 -76 -76zM572 0h-330q-107 0 -158.5 51t-51.5 159v280q0 108 51.5 159t158.5 51h330q107 0 158.5 -51t51.5 -159v-280q0 -108 -51.5 -159t-158.5 -51zM338 220h138q26 0 36 10t10 36
v168q0 26 -10 36t-36 10h-138q-26 0 -36 -10t-10 -36v-168q0 -26 10 -36t36 -10z" />
    <glyph glyph-name="obreve" unicode="&#x14f;" horiz-adv-x="690" 
d="M484 570h-278q-76 0 -76 76v54h158v-18q0 -22 22 -22h70q22 0 22 22v18h158v-54q0 -76 -76 -76zM470 0h-250q-99 0 -144.5 45t-45.5 145v160q0 100 45.5 145t144.5 45h250q99 0 144.5 -45t45.5 -145v-160q0 -100 -45.5 -145t-144.5 -45zM312 192h66q22 0 30 8t8 30v80
q0 22 -8 30t-30 8h-66q-22 0 -30 -8t-8 -30v-80q0 -22 8 -30t30 -8z" />
    <glyph glyph-name="Ohungarumlaut" unicode="&#x150;" horiz-adv-x="814" 
d="M467 860l-100 -130h-188l50 130h238zM717 860l-100 -130h-188l50 130h238zM572 0h-330q-107 0 -158.5 51t-51.5 159v280q0 108 51.5 159t158.5 51h330q107 0 158.5 -51t51.5 -159v-280q0 -108 -51.5 -159t-158.5 -51zM338 220h138q26 0 36 10t10 36v168q0 26 -10 36
t-36 10h-138q-26 0 -36 -10t-10 -36v-168q0 -26 10 -36t36 -10z" />
    <glyph glyph-name="ohungarumlaut" unicode="&#x151;" horiz-adv-x="690" 
d="M405 700l-100 -130h-188l50 130h238zM655 700l-100 -130h-188l50 130h238zM470 0h-250q-99 0 -144.5 45t-45.5 145v160q0 100 45.5 145t144.5 45h250q99 0 144.5 -45t45.5 -145v-160q0 -100 -45.5 -145t-144.5 -45zM312 192h66q22 0 30 8t8 30v80q0 22 -8 30t-30 8h-66
q-22 0 -30 -8t-8 -30v-80q0 -22 8 -30t30 -8z" />
    <glyph glyph-name="OE" unicode="&#x152;" horiz-adv-x="1162" 
d="M772 271v-71h370v-200h-900q-107 0 -158.5 51t-51.5 159v280q0 108 51.5 159t158.5 51h890v-200h-360v-63h320v-166h-320zM338 220h174v260h-174q-26 0 -36 -10t-10 -36v-168q0 -26 10 -36t36 -10z" />
    <glyph glyph-name="oe" unicode="&#x153;" horiz-adv-x="1066" 
d="M656 540h190q99 0 144.5 -45t45.5 -145v-112h-376v-24q0 -22 8 -30t30 -8h72q19 0 25.5 6.5t6.5 25.5v5h234v-47q0 -87 -40 -126.5t-126 -39.5h-214q-80 0 -118 41q-38 -41 -118 -41h-200q-99 0 -144.5 45t-45.5 145v160q0 100 45.5 145t144.5 45h200q80 0 118 -41
q38 41 118 41zM660 360v-16h142v16q0 22 -8 30t-30 8h-66q-22 0 -30 -8t-8 -30zM416 230v80q0 22 -8 30t-30 8h-66q-22 0 -30 -8t-8 -30v-80q0 -22 8 -30t30 -8h66q22 0 30 8t8 30z" />
    <glyph glyph-name="Racute" unicode="&#x154;" horiz-adv-x="780" 
d="M352 860h248l-120 -130h-188zM629 235l141 -235h-280l-119 206h-71v-206h-260v700h510q99 0 144.5 -45t45.5 -145v-94q0 -150 -111 -181zM442 510h-142v-120h142q22 0 30 8t8 30v44q0 22 -8 30t-30 8z" />
    <glyph glyph-name="racute" unicode="&#x155;" horiz-adv-x="470" 
d="M207 700h248l-120 -130h-188zM422 540h38v-228h-113q-36 0 -51 -16l-14 -14v-282h-244v540h174l21 -68q47 44 81 56t108 12z" />
    <glyph glyph-name="Rcommaaccent" unicode="&#x156;" horiz-adv-x="780" 
d="M371 206h-71v-206h-260v700h510q99 0 144.5 -45t45.5 -145v-94q0 -150 -111 -181l141 -235h-280zM442 510h-142v-120h142q22 0 30 8t8 30v44q0 22 -8 30t-30 8zM356 -150h-76v120h220v-36q0 -44 -6 -65q-8 -21 -34 -60l-40 -59h-122z" />
    <glyph glyph-name="rcommaaccent" unicode="&#x157;" horiz-adv-x="470" 
d="M422 540h38v-228h-113q-36 0 -51 -16l-14 -14v-282h-244v540h174l21 -68q47 44 81 56t108 12zM126 -150h-76v120h220v-36q0 -44 -6 -65q-8 -21 -34 -60l-40 -59h-122z" />
    <glyph glyph-name="Rcaron" unicode="&#x158;" horiz-adv-x="780" 
d="M625 860l-120 -130h-230l-120 130h168l67 -42l67 42h168zM629 235l141 -235h-280l-119 206h-71v-206h-260v700h510q99 0 144.5 -45t45.5 -145v-94q0 -150 -111 -181zM442 510h-142v-120h142q22 0 30 8t8 30v44q0 22 -8 30t-30 8z" />
    <glyph glyph-name="rcaron" unicode="&#x159;" horiz-adv-x="470" 
d="M480 700l-120 -130h-230l-120 130h168l67 -42l67 42h168zM212 540l21 -68q47 44 81 56t108 12h38v-228h-113q-36 0 -51 -16l-14 -14v-282h-244v540h174z" />
    <glyph glyph-name="Sacute" unicode="&#x15a;" horiz-adv-x="794" 
d="M607 860l-120 -130h-188l60 130h248zM32 166v68h250v-32q0 -19 6.5 -25.5t25.5 -6.5h156q19 0 25.5 6.5t6.5 25.5v20q0 18 -6.5 24t-25.5 8l-262 22q-89 8 -127.5 45.5t-38.5 120.5v92q0 87 40 126.5t126 39.5h374q86 0 126 -39.5t40 -126.5v-60h-250v24q0 19 -6.5 25.5
t-25.5 6.5h-132q-19 0 -25.5 -6.5t-6.5 -25.5v-12q0 -18 6.5 -24t25.5 -8l262 -22q89 -8 127.5 -45.5t38.5 -120.5v-100q0 -87 -40 -126.5t-126 -39.5h-398q-86 0 -126 39.5t-40 126.5z" />
    <glyph glyph-name="sacute" unicode="&#x15b;" horiz-adv-x="670" 
d="M545 700l-120 -130h-188l60 130h248zM30 134v50h234v-28q0 -14 4 -18t18 -4h88q14 0 18 4t4 18v14q0 13 -3.5 16.5t-18.5 5.5l-202 20q-132 14 -132 130v66q0 63 35 97.5t97 34.5h322q62 0 97 -35.5t35 -98.5v-42h-234v20q0 14 -4 18t-18 4h-64q-14 0 -18 -4t-4 -18v-8
q0 -13 3.5 -16.5t18.5 -5.5l202 -20q132 -14 132 -130v-72q0 -63 -35 -97.5t-97 -34.5h-346q-62 0 -97 35.5t-35 98.5z" />
    <glyph glyph-name="Scircumflex" unicode="&#x15c;" horiz-adv-x="794" 
d="M330 730h-168l120 130h230l120 -130h-168l-67 42zM32 166v68h250v-32q0 -19 6.5 -25.5t25.5 -6.5h156q19 0 25.5 6.5t6.5 25.5v20q0 18 -6.5 24t-25.5 8l-262 22q-89 8 -127.5 45.5t-38.5 120.5v92q0 87 40 126.5t126 39.5h374q86 0 126 -39.5t40 -126.5v-60h-250v24
q0 19 -6.5 25.5t-25.5 6.5h-132q-19 0 -25.5 -6.5t-6.5 -25.5v-12q0 -18 6.5 -24t25.5 -8l262 -22q89 -8 127.5 -45.5t38.5 -120.5v-100q0 -87 -40 -126.5t-126 -39.5h-398q-86 0 -126 39.5t-40 126.5z" />
    <glyph glyph-name="scircumflex" unicode="&#x15d;" horiz-adv-x="670" 
d="M268 570h-168l120 130h230l120 -130h-168l-67 42zM30 134v50h234v-28q0 -14 4 -18t18 -4h88q14 0 18 4t4 18v14q0 13 -3.5 16.5t-18.5 5.5l-202 20q-132 14 -132 130v66q0 63 35 97.5t97 34.5h322q62 0 97 -35.5t35 -98.5v-42h-234v20q0 14 -4 18t-18 4h-64q-14 0 -18 -4
t-4 -18v-8q0 -13 3.5 -16.5t18.5 -5.5l202 -20q132 -14 132 -130v-72q0 -63 -35 -97.5t-97 -34.5h-346q-62 0 -97 35.5t-35 98.5z" />
    <glyph glyph-name="Scedilla" unicode="&#x15e;" horiz-adv-x="794" 
d="M334 454l262 -22q89 -8 127.5 -45.5t38.5 -120.5v-100q0 -87 -40 -126.5t-126 -39.5h-175l-6 -18h66q30 0 43 -13t13 -43v-30q0 -30 -13 -43t-43 -13h-184v66h127q7 0 7 7v4q0 7 -7 7h-97v32l14 44h-143q-86 0 -126 39.5t-40 126.5v68h250v-32q0 -19 6.5 -25.5t25.5 -6.5
h156q19 0 25.5 6.5t6.5 25.5v20q0 18 -6.5 24t-25.5 8l-262 22q-89 8 -127.5 45.5t-38.5 120.5v92q0 87 40 126.5t126 39.5h374q86 0 126 -39.5t40 -126.5v-60h-250v24q0 19 -6.5 25.5t-25.5 6.5h-132q-19 0 -25.5 -6.5t-6.5 -25.5v-12q0 -18 6.5 -24t25.5 -8z" />
    <glyph glyph-name="scedilla" unicode="&#x15f;" horiz-adv-x="670" 
d="M306 354l202 -20q132 -14 132 -130v-72q0 -63 -35 -97.5t-97 -34.5h-149l-6 -18h66q30 0 43 -13t13 -43v-30q0 -30 -13 -43t-43 -13h-184v66h127q7 0 7 7v4q0 7 -7 7h-97v32l14 44h-117q-62 0 -97 35.5t-35 98.5v50h234v-28q0 -14 4 -18t18 -4h88q14 0 18 4t4 18v14
q0 13 -3.5 16.5t-18.5 5.5l-202 20q-132 14 -132 130v66q0 63 35 97.5t97 34.5h322q62 0 97 -35.5t35 -98.5v-42h-234v20q0 14 -4 18t-18 4h-64q-14 0 -18 -4t-4 -18v-8q0 -13 3.5 -16.5t18.5 -5.5z" />
    <glyph glyph-name="Scaron" unicode="&#x160;" horiz-adv-x="794" 
d="M512 730h-230l-120 130h168l67 -42l67 42h168zM32 166v68h250v-32q0 -19 6.5 -25.5t25.5 -6.5h156q19 0 25.5 6.5t6.5 25.5v20q0 18 -6.5 24t-25.5 8l-262 22q-89 8 -127.5 45.5t-38.5 120.5v92q0 87 40 126.5t126 39.5h374q86 0 126 -39.5t40 -126.5v-60h-250v24
q0 19 -6.5 25.5t-25.5 6.5h-132q-19 0 -25.5 -6.5t-6.5 -25.5v-12q0 -18 6.5 -24t25.5 -8l262 -22q89 -8 127.5 -45.5t38.5 -120.5v-100q0 -87 -40 -126.5t-126 -39.5h-398q-86 0 -126 39.5t-40 126.5z" />
    <glyph glyph-name="scaron" unicode="&#x161;" horiz-adv-x="670" 
d="M450 570h-230l-120 130h168l67 -42l67 42h168zM30 134v50h234v-28q0 -14 4 -18t18 -4h88q14 0 18 4t4 18v14q0 13 -3.5 16.5t-18.5 5.5l-202 20q-132 14 -132 130v66q0 63 35 97.5t97 34.5h322q62 0 97 -35.5t35 -98.5v-42h-234v20q0 14 -4 18t-18 4h-64q-14 0 -18 -4
t-4 -18v-8q0 -13 3.5 -16.5t18.5 -5.5l202 -20q132 -14 132 -130v-72q0 -63 -35 -97.5t-97 -34.5h-346q-62 0 -97 35.5t-35 98.5z" />
    <glyph glyph-name="uni0162" unicode="&#x162;" horiz-adv-x="700" 
d="M480 470v-470h-106l-6 -18h66q30 0 43 -13t13 -43v-30q0 -30 -13 -43t-43 -13h-184v66h127q7 0 7 7v4q0 7 -7 7h-97v32l14 44h-74v470h-210v230h680v-230h-210z" />
    <glyph glyph-name="uni0163" unicode="&#x163;" horiz-adv-x="522" 
d="M502 540v-188h-158v-128q0 -19 6.5 -25.5t25.5 -6.5h126v-192h-167l-6 -18h66q30 0 43 -13t13 -43v-30q0 -30 -13 -43t-43 -13h-184v66h127q7 0 7 7v4q0 7 -7 7h-97v32l14 44q-80 2 -117.5 42t-37.5 124v186h-90v188h90l48 120h196v-120h158z" />
    <glyph glyph-name="Tcaron" unicode="&#x164;" horiz-adv-x="700" 
d="M585 860l-120 -130h-230l-120 130h168l67 -42l67 42h168zM10 700h680v-230h-210v-470h-260v470h-210v230z" />
    <glyph glyph-name="tcaron" unicode="&#x165;" horiz-adv-x="574" 
d="M374 670v120h220v-36q0 -44 -6 -64q-8 -22 -34 -61l-40 -59h-122l58 100h-76zM148 660h196v-120h158v-188h-158v-128q0 -19 6.5 -25.5t25.5 -6.5h126v-192h-236q-86 0 -126 39.5t-40 126.5v186h-90v188h90z" />
    <glyph glyph-name="Tbar" unicode="&#x166;" horiz-adv-x="700" 
d="M690 700v-230h-210v-107h130v-146h-130v-217h-260v217h-130v146h130v107h-210v230h680z" />
    <glyph glyph-name="tbar" unicode="&#x167;" horiz-adv-x="522" 
d="M502 540v-174h-158v-34h158v-120h-158v-2q0 -19 6.5 -25.5t25.5 -6.5h126v-178h-236q-86 0 -126 39.5t-40 126.5v46h-90v120h90v34h-90v174h90l48 120h196v-120h158z" />
    <glyph glyph-name="Utilde" unicode="&#x168;" horiz-adv-x="792" 
d="M310 730h-129v82q0 48 49 48h161q42 0 59 -28l15 -23q3 -4 7 -4h5q5 0 5 5v50h129v-82q0 -48 -49 -48h-161q-42 0 -59 28l-15 23q-3 4 -7 4h-5q-5 0 -5 -5v-50zM546 0h-300q-107 0 -158.5 51t-51.5 159v490h260v-434q0 -26 10 -36t36 -10h108q26 0 36 10t10 36v434h260
v-490q0 -108 -51.5 -159t-158.5 -51z" />
    <glyph glyph-name="utilde" unicode="&#x169;" horiz-adv-x="692" 
d="M260 620v-50h-129v82q0 48 49 48h161q42 0 59 -28l15 -23q3 -4 7 -4h5q5 0 5 5v50h129v-82q0 -48 -49 -48h-161q-42 0 -59 28l-15 23q-3 4 -7 4h-5q-5 0 -5 -5zM410 540h244v-540h-204l-17 54q-36 -33 -71 -44q-33 -10 -102 -10h-36q-99 0 -144.5 45t-45.5 145v350h244
v-304q0 -22 8 -30t30 -8h29q36 0 51 16l14 14v312z" />
    <glyph glyph-name="Umacron" unicode="&#x16a;" horiz-adv-x="792" 
d="M616 740h-440v110h440v-110zM546 0h-300q-107 0 -158.5 51t-51.5 159v490h260v-434q0 -26 10 -36t36 -10h108q26 0 36 10t10 36v434h260v-490q0 -108 -51.5 -159t-158.5 -51z" />
    <glyph glyph-name="umacron" unicode="&#x16b;" horiz-adv-x="692" 
d="M126 690h440v-110h-440v110zM410 540h244v-540h-204l-17 54q-36 -33 -71 -44q-33 -10 -102 -10h-36q-99 0 -144.5 45t-45.5 145v350h244v-304q0 -22 8 -30t30 -8h29q36 0 51 16l14 14v312z" />
    <glyph glyph-name="Ubreve" unicode="&#x16c;" horiz-adv-x="792" 
d="M535 730h-278q-76 0 -76 76v54h158v-18q0 -22 22 -22h70q22 0 22 22v18h158v-54q0 -76 -76 -76zM546 0h-300q-107 0 -158.5 51t-51.5 159v490h260v-434q0 -26 10 -36t36 -10h108q26 0 36 10t10 36v434h260v-490q0 -108 -51.5 -159t-158.5 -51z" />
    <glyph glyph-name="ubreve" unicode="&#x16d;" horiz-adv-x="692" 
d="M485 570h-278q-76 0 -76 76v54h158v-18q0 -22 22 -22h70q22 0 22 22v18h158v-54q0 -76 -76 -76zM410 540h244v-540h-204l-17 54q-36 -33 -71 -44q-33 -10 -102 -10h-36q-99 0 -144.5 45t-45.5 145v350h244v-304q0 -22 8 -30t30 -8h29q36 0 51 16l14 14v312z" />
    <glyph glyph-name="Uring" unicode="&#x16e;" horiz-adv-x="792" 
d="M246 776v28q0 30 13 43t43 13h188q30 0 43 -13t13 -43v-28q0 -30 -13 -43t-43 -13h-188q-30 0 -43 13t-13 43zM326 795v-10q0 -11 3 -14t13 -3h108q10 0 13 3t3 14v10q0 11 -3 14t-13 3h-108q-10 0 -13 -3t-3 -14zM546 0h-300q-107 0 -158.5 51t-51.5 159v490h260v-434
q0 -26 10 -36t36 -10h108q26 0 36 10t10 36v434h260v-490q0 -108 -51.5 -159t-158.5 -51z" />
    <glyph glyph-name="uring" unicode="&#x16f;" horiz-adv-x="692" 
d="M440 560h-188q-30 0 -43 13t-13 43v28q0 30 13 43t43 13h188q30 0 43 -13t13 -43v-28q0 -30 -13 -43t-43 -13zM276 635v-10q0 -11 3 -14t13 -3h108q10 0 13 3t3 14v10q0 11 -3 14t-13 3h-108q-10 0 -13 -3t-3 -14zM410 540h244v-540h-204l-17 54q-36 -33 -71 -44
q-33 -10 -102 -10h-36q-99 0 -144.5 45t-45.5 145v350h244v-304q0 -22 8 -30t30 -8h29q36 0 51 16l14 14v312z" />
    <glyph glyph-name="Uhungarumlaut" unicode="&#x170;" horiz-adv-x="792" 
d="M456 860l-100 -130h-188l50 130h238zM706 860l-100 -130h-188l50 130h238zM546 0h-300q-107 0 -158.5 51t-51.5 159v490h260v-434q0 -26 10 -36t36 -10h108q26 0 36 10t10 36v434h260v-490q0 -108 -51.5 -159t-158.5 -51z" />
    <glyph glyph-name="uhungarumlaut" unicode="&#x171;" horiz-adv-x="692" 
d="M168 700h238l-100 -130h-188zM656 700l-100 -130h-188l50 130h238zM410 228v312h244v-540h-204l-17 54q-36 -33 -71 -44q-33 -10 -102 -10h-36q-99 0 -144.5 45t-45.5 145v350h244v-304q0 -22 8 -30t30 -8h29q36 0 51 16z" />
    <glyph glyph-name="Uogonek" unicode="&#x172;" horiz-adv-x="792" 
d="M496 266v434h260v-490q0 -108 -51.5 -159t-158.5 -51h-65l-2 -2q-8 -8 -8 -17v-4q0 -13 13 -13h149v-124h-214q-86 0 -86 86v16q0 34 11 58h-98q-107 0 -158.5 51t-51.5 159v490h260v-434q0 -26 10 -36t36 -10h108q26 0 36 10t10 36z" />
    <glyph glyph-name="uogonek" unicode="&#x173;" horiz-adv-x="692" 
d="M562 0l-2 -2q-8 -8 -8 -17v-4q0 -13 13 -13h89v-124h-154q-86 0 -86 86v16q0 52 28 83l-9 29q-36 -33 -71 -44q-33 -10 -102 -10h-36q-99 0 -144.5 45t-45.5 145v350h244v-304q0 -22 8 -30t30 -8h29q36 0 51 16l14 14v312h244v-540h-92z" />
    <glyph glyph-name="Wcircumflex" unicode="&#x174;" horiz-adv-x="1150" 
d="M642 730l-67 42l-67 -42h-168l120 130h230l120 -130h-168zM782 368l98 332h270l-246 -700h-224l-105 316l-105 -316h-224l-246 700h284l97 -329l104 329h190z" />
    <glyph glyph-name="wcircumflex" unicode="&#x175;" horiz-adv-x="962" 
d="M548 570l-67 42l-67 -42h-168l120 130h230l120 -130h-168zM652 318l64 222h246l-197 -540h-212l-71 224l-69 -224h-216l-197 540h256l65 -222l72 222h186z" />
    <glyph glyph-name="Ycircumflex" unicode="&#x176;" horiz-adv-x="776" 
d="M455 730l-67 42l-67 -42h-168l120 130h230l120 -130h-168zM500 700h286l-268 -445v-255h-260v255l-268 445h300l105 -205z" />
    <glyph glyph-name="ycircumflex" unicode="&#x177;" horiz-adv-x="698" 
d="M416 570l-67 42l-67 -42h-168l120 130h230l120 -130h-168zM354 281l86 259h258l-233 -530q-44 -102 -98 -137q-54 -33 -169 -33h-138v192h146q14 0 18 1l-224 507h268z" />
    <glyph glyph-name="Ydieresis" unicode="&#x178;" horiz-adv-x="776" 
d="M188 860h180v-130h-180v130zM408 860h180v-130h-180v130zM500 700h286l-268 -445v-255h-260v255l-268 445h300l105 -205z" />
    <glyph glyph-name="Zacute" unicode="&#x179;" horiz-adv-x="760" 
d="M590 860l-120 -130h-188l60 130h248zM730 0h-700v180l320 300h-300v220h680v-180l-320 -300h320v-220z" />
    <glyph glyph-name="zacute" unicode="&#x17a;" horiz-adv-x="654" 
d="M537 700l-120 -130h-188l60 130h248zM626 0h-598v146l245 212h-225v182h578v-146l-245 -212h245v-182z" />
    <glyph glyph-name="Zdotaccent" unicode="&#x17b;" horiz-adv-x="760" 
d="M504 730h-248v130h248v-130zM730 0h-700v180l320 300h-300v220h680v-180l-320 -300h320v-220z" />
    <glyph glyph-name="zdotaccent" unicode="&#x17c;" horiz-adv-x="654" 
d="M451 570h-248v130h248v-130zM626 0h-598v146l245 212h-225v182h578v-146l-245 -212h245v-182z" />
    <glyph glyph-name="Zcaron" unicode="&#x17d;" horiz-adv-x="760" 
d="M495 730h-230l-120 130h168l67 -42l67 42h168zM730 0h-700v180l320 300h-300v220h680v-180l-320 -300h320v-220z" />
    <glyph glyph-name="zcaron" unicode="&#x17e;" horiz-adv-x="654" 
d="M442 570h-230l-120 130h168l67 -42l67 42h168zM626 0h-598v146l245 212h-225v182h578v-146l-245 -212h245v-182z" />
    <glyph glyph-name="florin" unicode="&#x192;" horiz-adv-x="672" 
d="M642 488h-113q-26 0 -35.5 -9.5t-12.5 -36.5l-7 -72h148v-160h-165l-16 -160q-12 -112 -60.5 -161t-151.5 -49h-199v212h113q26 0 35.5 9.5t12.5 36.5l11 112h-152v160h169l12 120q12 112 60.5 161t151.5 49h199v-212z" />
    <glyph glyph-name="Aringacute" unicode="&#x1fa;" horiz-adv-x="852" 
d="M852 0h-288l-28 88h-234l-28 -88h-274l277 698q-1 4 -1 18v28q0 30 13 43t43 13h10l24 60h248l-60 -67q22 -12 22 -49v-28q0 -14 -1 -18zM356 735v-10q0 -11 3 -14t13 -3h108q10 0 13 3t3 14v10q0 11 -3 14t-13 3h-108q-10 0 -13 -3t-3 -14zM419 451l-62 -193h124z" />
    <glyph glyph-name="aringacute" unicode="&#x1fb;" horiz-adv-x="684" 
d="M497 538q80 -8 116.5 -52.5t36.5 -135.5v-350h-204l-15 46q-36 -30 -66 -37q-31 -9 -99 -9h-106q-62 0 -96 33.5t-34 96.5v54q0 63 34 96.5t96 33.5h246v30q0 22 -8 30t-30 8h-48q-19 0 -25.5 -6.5t-6.5 -25.5v-11h-234v35q0 81 35 120.5t110 44.5q-1 3 -1 17v28
q0 30 13 43t43 13h10l24 60h248l-60 -67q22 -12 22 -49v-28q0 -14 -1 -18zM278 575v-10q0 -11 3 -14t13 -3h108q10 0 13 3t3 14v10q0 11 -3 14t-13 3h-108q-10 0 -13 -3t-3 -14zM300 138h49q27 0 43 16l14 14v40h-106q-16 0 -21 -5t-5 -21v-18q0 -16 5 -21t21 -5z" />
    <glyph glyph-name="AEacute" unicode="&#x1fc;" horiz-adv-x="1090" 
d="M587 860h248l-120 -130h-188zM744 271l25 -71h301v-200h-518l-23 78h-230l-25 -78h-274l278 700h782v-200h-397l22 -63h335v-166h-276zM420 454l-66 -206h126z" />
    <glyph glyph-name="aeacute" unicode="&#x1fd;" horiz-adv-x="1056" 
d="M490 700h248l-120 -130h-188zM646 540h190q99 0 144.5 -45t45.5 -145v-112h-376v-24q0 -22 8 -30t30 -8h72q19 0 25.5 6.5t6.5 25.5v5h234v-47q0 -87 -40 -126.5t-126 -39.5h-234q-90 0 -136 37q-30 -23 -61 -30q-29 -7 -93 -7h-176q-62 0 -96 33.5t-34 96.5v54
q0 63 34 96.5t96 33.5h246v30q0 22 -8 30t-30 8h-48q-19 0 -25.5 -6.5t-6.5 -25.5v-11h-234v35q0 87 40 126.5t126 39.5h190q80 0 118 -41q38 41 118 41zM650 360v-16h142v16q0 22 -8 30t-30 8h-66q-22 0 -30 -8t-8 -30zM392 154l14 14v40h-106q-16 0 -21 -5t-5 -21v-18
q0 -16 5 -21t21 -5h49q27 0 43 16z" />
    <glyph glyph-name="Oslashacute" unicode="&#x1fe;" horiz-adv-x="814" 
d="M369 860h248l-120 -130h-188zM672 730h140l-76 -87q46 -49 46 -153v-280q0 -108 -51.5 -159t-158.5 -51h-330q-38 0 -68 6l-32 -36h-140l76 87q-46 49 -46 153v280q0 108 51.5 159t158.5 51h330q38 0 68 -6zM278 444v-161l182 207h-136q-26 0 -36 -10t-10 -36zM536 256
v161l-182 -207h136q26 0 36 10t10 36z" />
    <glyph glyph-name="oslashacute" unicode="&#x1ff;" horiz-adv-x="690" 
d="M307 700h248l-120 -130h-188zM560 570h130l-73 -78q43 -46 43 -142v-160q0 -100 -45.5 -145t-144.5 -45h-250q-37 0 -58 4l-32 -34h-130l73 78q-43 46 -43 142v160q0 100 45.5 145t144.5 45h250q37 0 58 -4zM244 330v-99l127 137h-89q-22 0 -30 -8t-8 -30zM446 210v99
l-127 -137h89q22 0 30 8t8 30z" />
    <glyph glyph-name="Scommaaccent" unicode="&#x218;" horiz-adv-x="794" 
d="M32 166v68h250v-32q0 -19 6.5 -25.5t25.5 -6.5h156q19 0 25.5 6.5t6.5 25.5v20q0 18 -6.5 24t-25.5 8l-262 22q-89 8 -127.5 45.5t-38.5 120.5v92q0 87 40 126.5t126 39.5h374q86 0 126 -39.5t40 -126.5v-60h-250v24q0 19 -6.5 25.5t-25.5 6.5h-132q-19 0 -25.5 -6.5
t-6.5 -25.5v-12q0 -18 6.5 -24t25.5 -8l262 -22q89 -8 127.5 -45.5t38.5 -120.5v-100q0 -87 -40 -126.5t-126 -39.5h-398q-86 0 -126 39.5t-40 126.5zM427 -250h-122l58 100h-76v120h220v-36q0 -44 -6 -65q-8 -21 -34 -60z" />
    <glyph glyph-name="scommaaccent" unicode="&#x219;" horiz-adv-x="670" 
d="M30 134v50h234v-28q0 -14 4 -18t18 -4h88q14 0 18 4t4 18v14q0 13 -3.5 16.5t-18.5 5.5l-202 20q-132 14 -132 130v66q0 63 35 97.5t97 34.5h322q62 0 97 -35.5t35 -98.5v-42h-234v20q0 14 -4 18t-18 4h-64q-14 0 -18 -4t-4 -18v-8q0 -13 3.5 -16.5t18.5 -5.5l202 -20
q132 -14 132 -130v-72q0 -63 -35 -97.5t-97 -34.5h-346q-62 0 -97 35.5t-35 98.5zM365 -250h-122l58 100h-76v120h220v-36q0 -44 -6 -65q-8 -21 -34 -60z" />
    <glyph glyph-name="uni021A" unicode="&#x21a;" horiz-adv-x="700" 
d="M10 700h680v-230h-210v-470h-260v470h-210v230zM316 -150h-76v120h220v-36q0 -44 -6 -65q-8 -21 -34 -60l-40 -59h-122z" />
    <glyph glyph-name="uni021B" unicode="&#x21b;" horiz-adv-x="522" 
d="M502 540v-188h-158v-128q0 -19 6.5 -25.5t25.5 -6.5h126v-192h-236q-86 0 -126 39.5t-40 126.5v186h-90v188h90l48 120h196v-120h158zM277 -150h-76v120h220v-36q0 -44 -6 -65q-8 -21 -34 -60l-40 -59h-122z" />
    <glyph glyph-name="uni0237" unicode="&#x237;" horiz-adv-x="332" 
d="M124 -160h-144v182h30q19 0 25.5 6.5t6.5 25.5v486h248v-534q0 -87 -40 -126.5t-126 -39.5z" />
    <glyph glyph-name="circumflex" unicode="&#x2c6;" horiz-adv-x="550" 
d="M208 570h-168l120 130h230l120 -130h-168l-67 42z" />
    <glyph glyph-name="caron" unicode="&#x2c7;" horiz-adv-x="550" 
d="M390 570h-230l-120 130h168l67 -42l67 42h168z" />
    <glyph glyph-name="breve" unicode="&#x2d8;" horiz-adv-x="510" 
d="M394 570h-278q-76 0 -76 76v54h158v-18q0 -22 22 -22h70q22 0 22 22v18h158v-54q0 -76 -76 -76z" />
    <glyph glyph-name="dotaccent" unicode="&#x2d9;" horiz-adv-x="328" 
d="M288 570h-248v130h248v-130z" />
    <glyph glyph-name="ring" unicode="&#x2da;" horiz-adv-x="380" 
d="M40 616v28q0 30 13 43t43 13h188q30 0 43 -13t13 -43v-28q0 -30 -13 -43t-43 -13h-188q-30 0 -43 13t-13 43zM120 635v-10q0 -11 3 -14t13 -3h108q10 0 13 3t3 14v10q0 11 -3 14t-13 3h-108q-10 0 -13 -3t-3 -14z" />
    <glyph glyph-name="ogonek" unicode="&#x2db;" horiz-adv-x="380" 
d="M205 17l-19 -19q-8 -8 -8 -17v-4q0 -13 13 -13h149v-124h-214q-86 0 -86 86v16q0 33 9.5 54.5t35.5 44.5l10 9z" />
    <glyph glyph-name="tilde" unicode="&#x2dc;" horiz-adv-x="510" 
d="M169 570h-129v82q0 48 49 48h161q42 0 59 -28l15 -23q3 -4 7 -4h5q5 0 5 5v50h129v-82q0 -48 -49 -48h-161q-42 0 -59 28l-15 23q-3 4 -7 4h-5q-5 0 -5 -5v-50z" />
    <glyph glyph-name="hungarumlaut" unicode="&#x2dd;" horiz-adv-x="618" 
d="M328 700l-100 -130h-188l50 130h238zM578 700l-100 -130h-188l50 130h238z" />
    <glyph glyph-name="gravecomb" unicode="&#x300;" horiz-adv-x="0" 
d="M-40 570h-188l-120 130h248z" />
    <glyph glyph-name="acutecomb" unicode="&#x301;" horiz-adv-x="0" 
d="M-40 700l-120 -130h-188l60 130h248z" />
    <glyph glyph-name="uni0302" unicode="&#x302;" horiz-adv-x="0" 
d="M-342 570h-168l120 130h230l120 -130h-168l-67 42z" />
    <glyph glyph-name="tildecomb" unicode="&#x303;" horiz-adv-x="0" 
d="M-341 570h-129v82q0 48 49 48h161q42 0 59 -28l15 -23q3 -4 7 -4h5q5 0 5 5v50h129v-82q0 -48 -49 -48h-161q-42 0 -59 28l-15 23q-3 4 -7 4h-5q-5 0 -5 -5v-50z" />
    <glyph glyph-name="uni0304" unicode="&#x304;" horiz-adv-x="0" 
d="M-40 580h-440v110h440v-110z" />
    <glyph glyph-name="uni0306" unicode="&#x306;" horiz-adv-x="0" 
d="M-116 570h-278q-76 0 -76 76v54h158v-18q0 -22 22 -22h70q22 0 22 22v18h158v-54q0 -76 -76 -76z" />
    <glyph glyph-name="uni0307" unicode="&#x307;" horiz-adv-x="0" 
d="M-40 570h-248v130h248v-130z" />
    <glyph glyph-name="uni0308" unicode="&#x308;" horiz-adv-x="0" 
d="M-260 570h-180v130h180v-130zM-40 570h-180v130h180v-130z" />
    <glyph glyph-name="uni030A" unicode="&#x30a;" horiz-adv-x="0" 
d="M-340 616v28q0 30 13 43t43 13h188q30 0 43 -13t13 -43v-28q0 -30 -13 -43t-43 -13h-188q-30 0 -43 13t-13 43zM-260 635v-10q0 -11 3 -14t13 -3h108q10 0 13 3t3 14v10q0 11 -3 14t-13 3h-108q-10 0 -13 -3t-3 -14z" />
    <glyph glyph-name="uni030B" unicode="&#x30b;" horiz-adv-x="0" 
d="M-290 700l-100 -130h-188l50 130h238zM-40 700l-100 -130h-188l50 130h238z" />
    <glyph glyph-name="uni030C" unicode="&#x30c;" horiz-adv-x="0" 
d="M-160 570h-230l-120 130h168l67 -42l67 42h168z" />
    <glyph glyph-name="uni0312" unicode="&#x312;" horiz-adv-x="0" 
d="M-180 790h122l-58 -100h76v-120h-220v36q0 44 6 65q8 21 34 60z" />
    <glyph glyph-name="uni0326" unicode="&#x326;" horiz-adv-x="0" 
d="M-120 -250h-122l58 100h-76v120h220v-36q0 -45 -7 -65q-6 -19 -33 -60z" />
    <glyph glyph-name="uni0327" unicode="&#x327;" horiz-adv-x="0" 
d="M-96 -160h-184v66h127q7 0 7 7v4q0 7 -7 7h-97v32l20 64h80l-12 -38h66q30 0 43 -13t13 -43v-30q0 -30 -13 -43t-43 -13z" />
    <glyph glyph-name="uni0328" unicode="&#x328;" horiz-adv-x="0" 
d="M-175 17l-19 -19q-8 -8 -8 -17v-4q0 -13 13 -13h149v-124h-214q-86 0 -86 86v16q0 33 9.5 54.5t35.5 44.5l10 9z" />
    <glyph glyph-name="uni0335" unicode="&#x335;" horiz-adv-x="0" 
d="M-480 281v146h440v-146h-440z" />
    <glyph glyph-name="uni0336" unicode="&#x336;" horiz-adv-x="0" 
d="M-920 281v146h880v-146h-880z" />
    <glyph glyph-name="uni0337" unicode="&#x337;" horiz-adv-x="0" 
d="M-490 277v146l450 60v-146z" />
    <glyph glyph-name="uni0338" unicode="&#x338;" horiz-adv-x="0" 
d="M-660 -30l520 600h140l-520 -600h-140z" />
    <glyph glyph-name="uni0394" unicode="&#x394;" horiz-adv-x="852" 
d="M278 700h296l278 -700h-852zM419 451l-81 -251h162z" />
    <glyph glyph-name="uni03A9" unicode="&#x3a9;" horiz-adv-x="814" 
d="M696 200h96v-200h-350v290h34q26 0 36 10t10 36v98q0 26 -10 36t-36 10h-138q-26 0 -36 -10t-10 -36v-98q0 -26 10 -36t36 -10h34v-290h-350v200h96q-86 38 -86 164v126q0 108 51.5 159t158.5 51h330q107 0 158.5 -51t51.5 -159v-126q0 -126 -86 -164z" />
    <glyph glyph-name="uni03BC" unicode="&#x3bc;" horiz-adv-x="718" 
d="M684 192h24v-192h-134q-99 0 -135 55q-35 -32 -67 -43q-32 -10 -90 -12v-160h-244v700h244v-304q0 -22 8 -30t30 -8h29q36 0 51 16l14 14v312h244v-322q0 -16 5 -21t21 -5z" />
    <glyph glyph-name="pi" unicode="&#x3c0;" horiz-adv-x="780" 
d="M760 540v-188h-70v-128q0 -19 6.5 -25.5t25.5 -6.5h38v-192h-148q-86 0 -126 39.5t-40 126.5v186h-112v-352h-244v352h-80v188h750z" />
    <glyph glyph-name="uni0401" unicode="&#x401;" horiz-adv-x="690" 
d="M145 860h180v-130h-180v130zM365 860h180v-130h-180v130zM300 271v-71h370v-200h-630v700h620v-200h-360v-63h320v-166h-320z" />
    <glyph glyph-name="uni0403" unicode="&#x403;" horiz-adv-x="630" 
d="M277 860h248l-120 -130h-188zM40 700h580v-230h-320v-470h-260v700z" />
    <glyph glyph-name="uni0405" unicode="&#x405;" horiz-adv-x="794" 
d="M32 166v68h250v-32q0 -19 6.5 -25.5t25.5 -6.5h156q19 0 25.5 6.5t6.5 25.5v20q0 18 -6.5 24t-25.5 8l-262 22q-89 8 -127.5 45.5t-38.5 120.5v92q0 87 40 126.5t126 39.5h374q86 0 126 -39.5t40 -126.5v-60h-250v24q0 19 -6.5 25.5t-25.5 6.5h-132q-19 0 -25.5 -6.5
t-6.5 -25.5v-12q0 -18 6.5 -24t25.5 -8l262 -22q89 -8 127.5 -45.5t38.5 -120.5v-100q0 -87 -40 -126.5t-126 -39.5h-398q-86 0 -126 39.5t-40 126.5z" />
    <glyph glyph-name="uni0406" unicode="&#x406;" horiz-adv-x="352" 
d="M44 0v700h264v-700h-264z" />
    <glyph glyph-name="uni0407" unicode="&#x407;" horiz-adv-x="352" 
d="M156 730h-180v130h180v-130zM376 730h-180v130h180v-130zM44 0v700h264v-700h-264z" />
    <glyph glyph-name="uni0408" unicode="&#x408;" horiz-adv-x="726" 
d="M480 0h-250q-107 0 -158.5 51t-51.5 159v100h250v-48q0 -26 10 -36t36 -10h68q26 0 36 10t10 36v438h260v-490q0 -108 -51.5 -159t-158.5 -51z" />
    <glyph glyph-name="uni040C" unicode="&#x40c;" horiz-adv-x="814" 
d="M369 860h248l-120 -130h-188zM564 364l250 -364h-314l-200 325v-325h-260v700h260v-310l196 310h314z" />
    <glyph glyph-name="uni040E" unicode="&#x40e;" horiz-adv-x="776" 
d="M527 730h-278q-76 0 -76 76v54h158v-18q0 -22 22 -22h70q22 0 22 22v18h158v-54q0 -76 -76 -76zM395 473l105 227h286l-387 -700h-285l135 232l-259 468h300z" />
    <glyph glyph-name="uni0410" unicode="&#x410;" horiz-adv-x="852" 
d="M852 0h-288l-28 88h-234l-28 -88h-274l278 700h296zM419 451l-62 -193h124z" />
    <glyph glyph-name="uni0411" unicode="&#x411;" horiz-adv-x="780" 
d="M584 0h-544v700h650v-194h-390v-68h284q86 0 126 -39.5t40 -126.5v-106q0 -87 -40 -126.5t-126 -39.5zM300 278v-88h158q19 0 25.5 6.5t6.5 25.5v24q0 19 -6.5 25.5t-25.5 6.5h-158z" />
    <glyph glyph-name="uni0412" unicode="&#x412;" horiz-adv-x="780" 
d="M656 357q94 -21 94 -141v-50q0 -87 -40 -126.5t-126 -39.5h-544v700h524q86 0 126 -39.5t40 -126.5v-42q0 -106 -74 -135zM438 510h-138v-82h138q19 0 25.5 6.5t6.5 25.5v18q0 19 -6.5 25.5t-25.5 6.5zM490 222v26q0 19 -6.5 25.5t-25.5 6.5h-158v-90h158q19 0 25.5 6.5
t6.5 25.5z" />
    <glyph glyph-name="uni0413" unicode="&#x413;" horiz-adv-x="630" 
d="M40 700h580v-230h-320v-470h-260v700z" />
    <glyph glyph-name="uni0414" unicode="&#x414;" horiz-adv-x="930" 
d="M810 700v-480h110v-340h-240v120h-430v-120h-240v340h70q26 0 35.5 9.5t11.5 36.5l29 434h654zM406 470l-14 -180q-3 -40 -11 -70h169v250h-144z" />
    <glyph glyph-name="uni0415" unicode="&#x415;" horiz-adv-x="690" 
d="M300 271v-71h370v-200h-630v700h620v-200h-360v-63h320v-166h-320z" />
    <glyph glyph-name="uni0416" unicode="&#x416;" horiz-adv-x="1288" 
d="M1038 364l250 -364h-314l-200 325v-325h-260v325l-200 -325h-314l250 364l-246 336h314l196 -310v310h260v-310l196 310h314z" />
    <glyph glyph-name="uni0417" unicode="&#x417;" horiz-adv-x="790" 
d="M672 355q88 -22 88 -139v-50q0 -87 -40 -126.5t-126 -39.5h-398q-86 0 -126 39.5t-40 126.5v110h250v-54q0 -19 6.5 -25.5t25.5 -6.5h156q19 0 25.5 6.5t6.5 25.5v21q0 19 -6.5 25.5t-25.5 6.5h-128v158h118q19 0 25.5 6.5t6.5 25.5v13q0 19 -6.5 25.5t-25.5 6.5h-136
q-19 0 -25.5 -6.5t-6.5 -25.5v-46h-250v102q0 87 40 126.5t126 39.5h378q86 0 126 -39.5t40 -126.5v-42q0 -112 -78 -137z" />
    <glyph glyph-name="uni0418" unicode="&#x418;" horiz-adv-x="820" 
d="M290 381l270 319h220v-700h-250v330l-280 -330h-210v700h250v-319z" />
    <glyph glyph-name="uni0419" unicode="&#x419;" horiz-adv-x="820" 
d="M549 730h-278q-76 0 -76 76v54h158v-18q0 -22 22 -22h70q22 0 22 22v18h158v-54q0 -76 -76 -76zM290 381l270 319h220v-700h-250v330l-280 -330h-210v700h250v-319z" />
    <glyph glyph-name="uni041A" unicode="&#x41a;" horiz-adv-x="814" 
d="M564 364l250 -364h-314l-200 325v-325h-260v700h260v-310l196 310h314z" />
    <glyph glyph-name="uni041B" unicode="&#x41b;" horiz-adv-x="810" 
d="M136 0h-126v220h30q26 0 35.5 9.5t11.5 36.5l29 434h654v-700h-260v470h-144l-19 -260q-8 -111 -57.5 -160.5t-153.5 -49.5z" />
    <glyph glyph-name="uni041C" unicode="&#x41c;" horiz-adv-x="920" 
d="M465 372l197 328h218v-700h-240v277l-114 -181h-132l-114 181v-277h-240v700h228z" />
    <glyph glyph-name="uni041D" unicode="&#x41d;" horiz-adv-x="800" 
d="M500 475v225h260v-700h-260v245h-200v-245h-260v700h260v-225h200z" />
    <glyph glyph-name="uni041E" unicode="&#x41e;" horiz-adv-x="814" 
d="M572 0h-330q-107 0 -158.5 51t-51.5 159v280q0 108 51.5 159t158.5 51h330q107 0 158.5 -51t51.5 -159v-280q0 -108 -51.5 -159t-158.5 -51zM338 220h138q26 0 36 10t10 36v168q0 26 -10 36t-36 10h-138q-26 0 -36 -10t-10 -36v-168q0 -26 10 -36t36 -10z" />
    <glyph glyph-name="uni041F" unicode="&#x41f;" horiz-adv-x="800" 
d="M300 0h-260v700h720v-700h-260v470h-200v-470z" />
    <glyph glyph-name="uni0420" unicode="&#x420;" horiz-adv-x="760" 
d="M300 0h-260v700h510q99 0 144.5 -45t45.5 -145v-140q0 -100 -45.5 -145t-144.5 -45h-250v-180zM300 500v-130h142q22 0 30 8t8 30v54q0 22 -8 30t-30 8h-142z" />
    <glyph glyph-name="uni0421" unicode="&#x421;" horiz-adv-x="782" 
d="M542 0h-300q-107 0 -158.5 51t-51.5 159v280q0 108 51.5 159t158.5 51h300q107 0 158.5 -51t51.5 -159v-96h-250v44q0 26 -10 36t-36 10h-118q-26 0 -36 -10t-10 -36v-176q0 -26 10 -36t36 -10h118q26 0 36 10t10 36v50h250v-102q0 -108 -51.5 -159t-158.5 -51z" />
    <glyph glyph-name="uni0422" unicode="&#x422;" horiz-adv-x="700" 
d="M10 700h680v-230h-210v-470h-260v470h-210v230z" />
    <glyph glyph-name="uni0423" unicode="&#x423;" horiz-adv-x="776" 
d="M395 473l105 227h286l-387 -700h-285l135 232l-259 468h300z" />
    <glyph glyph-name="uni0424" unicode="&#x424;" horiz-adv-x="1020" 
d="M630 660h148q107 0 158.5 -51t51.5 -159v-200q0 -108 -51.5 -159t-158.5 -51h-148v-80h-240v80h-148q-107 0 -158.5 51t-51.5 159v200q0 108 51.5 159t158.5 51h148v80h240v-80zM338 226h52v248h-52q-26 0 -36 -10t-10 -36v-156q0 -26 10 -36t36 -10zM728 272v156
q0 26 -10 36t-36 10h-52v-248h52q26 0 36 10t10 36z" />
    <glyph glyph-name="uni0425" unicode="&#x425;" horiz-adv-x="800" 
d="M286 0h-286l231 357l-221 343h302l96 -167l96 167h286l-221 -343l231 -357h-302l-106 181z" />
    <glyph glyph-name="uni0426" unicode="&#x426;" horiz-adv-x="880" 
d="M630 0h-590v700h260v-470h200v470h260v-470h110v-350h-240v120z" />
    <glyph glyph-name="uni0427" unicode="&#x427;" horiz-adv-x="760" 
d="M720 0h-260v180h-250q-99 0 -144.5 45t-45.5 145v330h260v-252q0 -22 8 -30t30 -8h142v290h260v-700z" />
    <glyph glyph-name="uni0428" unicode="&#x428;" horiz-adv-x="1180" 
d="M1140 0h-1100v700h260v-470h160v470h260v-470h160v470h260v-700z" />
    <glyph glyph-name="uni0429" unicode="&#x429;" horiz-adv-x="1260" 
d="M1010 0h-970v700h260v-470h160v470h260v-470h160v470h260v-470h110v-350h-240v120z" />
    <glyph glyph-name="uni042A" unicode="&#x42a;" horiz-adv-x="920" 
d="M200 480h-190v220h450v-180h250q99 0 144.5 -45t45.5 -145v-140q0 -100 -45.5 -145t-144.5 -45h-510v480zM460 330v-130h142q22 0 30 8t8 30v54q0 22 -8 30t-30 8h-142z" />
    <glyph glyph-name="uni042B" unicode="&#x42b;" horiz-adv-x="1112" 
d="M40 0v700h260v-180h250q99 0 144.5 -45t45.5 -145v-140q0 -100 -45.5 -145t-144.5 -45h-510zM804 0v700h264v-700h-264zM442 330h-142v-130h142q22 0 30 8t8 30v54q0 22 -8 30t-30 8z" />
    <glyph glyph-name="uni042C" unicode="&#x42c;" horiz-adv-x="760" 
d="M40 0v700h260v-180h250q99 0 144.5 -45t45.5 -145v-140q0 -100 -45.5 -145t-144.5 -45h-510zM442 330h-142v-130h142q22 0 30 8t8 30v54q0 22 -8 30t-30 8z" />
    <glyph glyph-name="uni042D" unicode="&#x42d;" horiz-adv-x="802" 
d="M240 700h320q107 0 158.5 -51t51.5 -159v-280q0 -108 -51.5 -159t-158.5 -51h-320q-107 0 -158.5 51t-51.5 159v102h250v-70q0 -26 10 -36t36 -10h138q26 0 36 10t10 36v30h-160v160h160v26q0 26 -10 36t-36 10h-138q-26 0 -36 -10t-10 -36v-64h-250v96q0 108 51.5 159
t158.5 51z" />
    <glyph glyph-name="uni042E" unicode="&#x42e;" horiz-adv-x="1212" 
d="M640 700h330q107 0 158.5 -51t51.5 -159v-280q0 -108 -51.5 -159t-158.5 -51h-330q-107 0 -158.5 51t-51.5 159v34h-130v-244h-260v700h260v-226h130v16q0 108 51.5 159t158.5 51zM920 266v168q0 26 -10 36t-36 10h-138q-26 0 -36 -10t-10 -36v-168q0 -26 10 -36t36 -10
h138q26 0 36 10t10 36z" />
    <glyph glyph-name="uni042F" unicode="&#x42f;" horiz-adv-x="780" 
d="M230 700h510v-700h-260v206h-71l-119 -206h-280l141 235q-111 31 -111 181v94q0 100 45.5 145t144.5 45zM338 390h142v120h-142q-22 0 -30 -8t-8 -30v-44q0 -22 8 -30t30 -8z" />
    <glyph glyph-name="uni0430" unicode="&#x430;" horiz-adv-x="684" 
d="M220 540h240q99 0 144.5 -45t45.5 -145v-350h-204l-15 46q-36 -30 -66 -37q-31 -9 -99 -9h-106q-62 0 -96 33.5t-34 96.5v54q0 63 34 96.5t96 33.5h246v30q0 22 -8 30t-30 8h-48q-19 0 -25.5 -6.5t-6.5 -25.5v-11h-234v35q0 87 40 126.5t126 39.5zM300 138h49q27 0 43 16
l14 14v40h-106q-16 0 -21 -5t-5 -21v-18q0 -16 5 -21t21 -5z" />
    <glyph glyph-name="uni0431" unicode="&#x431;" horiz-adv-x="694" 
d="M354 452h144q86 0 126 -39.5t40 -126.5v-120q0 -87 -40 -126.5t-126 -39.5h-298q-86 0 -126 39.5t-40 126.5v308q0 105 50.5 155t159.5 57l400 24v-190l-358 -23q-32 -2 -45 -15.5t-13 -45.5v-38q24 54 126 54zM420 210v46q0 19 -6.5 25.5t-25.5 6.5h-78
q-19 0 -25.5 -6.5t-6.5 -25.5v-46q0 -19 6.5 -25.5t25.5 -6.5h78q19 0 25.5 6.5t6.5 25.5z" />
    <glyph glyph-name="uni0432" unicode="&#x432;" horiz-adv-x="680" 
d="M579 275q73 -16 73 -108v-39q0 -67 -31 -97.5t-97 -30.5h-486v540h471q66 0 97 -30.5t31 -97.5v-32q0 -86 -58 -105zM368 393h-86v-63h86q14 0 19.5 5.5t5.5 19.5v14q0 14 -5.5 19t-19.5 5zM408 171v20q0 15 -5 20t-20 5h-101v-69h101q15 0 20 5t5 19z" />
    <glyph glyph-name="uni0433" unicode="&#x433;" horiz-adv-x="540" 
d="M282 0h-244v540h492v-198h-248v-342z" />
    <glyph glyph-name="uni0434" unicode="&#x434;" horiz-adv-x="814" 
d="M704 540v-349h100v-311h-224v120h-346v-120h-224v311h67q21 0 28.5 7.5t9.5 29.5l21 312h568zM370 342l-7 -83q-3 -32 -11 -68h108v151h-90z" />
    <glyph glyph-name="uni0435" unicode="&#x435;" horiz-adv-x="680" 
d="M220 540h240q99 0 144.5 -45t45.5 -145v-112h-376v-24q0 -22 8 -30t30 -8h72q19 0 25.5 6.5t6.5 25.5v5h234v-47q0 -87 -40 -126.5t-126 -39.5h-264q-99 0 -144.5 45t-45.5 145v160q0 100 45.5 145t144.5 45zM274 360v-16h142v16q0 22 -8 30t-30 8h-66q-22 0 -30 -8
t-8 -30z" />
    <glyph glyph-name="uni0436" unicode="&#x436;" horiz-adv-x="1116" 
d="M922 274l204 -274h-296l-150 236v-236h-244v236l-150 -236h-296l204 274l-196 266h296l142 -238v238h244v-238l142 238h296z" />
    <glyph glyph-name="uni0437" unicode="&#x437;" horiz-adv-x="680" 
d="M582 274q68 -18 68 -107v-39q0 -67 -31 -97.5t-97 -30.5h-364q-66 0 -97 30.5t-31 97.5v87h234v-42q0 -14 5 -19t20 -5h92q14 0 19.5 5t5.5 19v16q0 15 -5.5 20t-19.5 5h-71v118h63q14 0 19.5 5t5.5 20v10q0 14 -5.5 19t-19.5 5h-77q-14 0 -19 -5t-5 -19v-36h-234v81
q0 67 31 97.5t97 30.5h348q66 0 97 -30.5t31 -97.5v-32q0 -86 -60 -106z" />
    <glyph glyph-name="uni0438" unicode="&#x438;" horiz-adv-x="710" 
d="M272 318l196 222h204v-540h-234v234l-206 -234h-194v540h234v-222z" />
    <glyph glyph-name="uni0439" unicode="&#x439;" horiz-adv-x="710" 
d="M494 570h-278q-76 0 -76 76v54h158v-18q0 -22 22 -22h70q22 0 22 22v18h158v-54q0 -76 -76 -76zM272 318l196 222h204v-540h-234v234l-206 -234h-194v540h234v-222z" />
    <glyph glyph-name="uni043A" unicode="&#x43a;" horiz-adv-x="718" 
d="M524 274l204 -274h-296l-150 236v-236h-244v540h244v-238l142 238h296z" />
    <glyph glyph-name="uni043B" unicode="&#x43b;" horiz-adv-x="700" 
d="M126 0h-116v191h25q21 0 28.5 7.5t9.5 29.5l21 312h568v-540h-244v342h-90l-12 -153q-8 -103 -51 -146t-139 -43z" />
    <glyph glyph-name="uni043C" unicode="&#x43c;" horiz-adv-x="796" 
d="M262 0h-224v540h215l149 -247l151 247h205v-540h-224v208l-80 -134h-112l-80 134v-208z" />
    <glyph glyph-name="uni043D" unicode="&#x43d;" horiz-adv-x="696" 
d="M414 374v166h244v-540h-244v176h-132v-176h-244v540h244v-166h132z" />
    <glyph glyph-name="uni043E" unicode="&#x43e;" horiz-adv-x="690" 
d="M470 0h-250q-99 0 -144.5 45t-45.5 145v160q0 100 45.5 145t144.5 45h250q99 0 144.5 -45t45.5 -145v-160q0 -100 -45.5 -145t-144.5 -45zM312 192h66q22 0 30 8t8 30v80q0 22 -8 30t-30 8h-66q-22 0 -30 -8t-8 -30v-80q0 -22 8 -30t30 -8z" />
    <glyph glyph-name="uni043F" unicode="&#x43f;" horiz-adv-x="696" 
d="M282 0h-244v540h620v-540h-244v342h-132v-342z" />
    <glyph glyph-name="uni0440" unicode="&#x440;" horiz-adv-x="698" 
d="M432 540h46q99 0 144.5 -45t45.5 -145v-160q0 -100 -45.5 -145t-144.5 -45h-46q-61 0 -91 7t-59 28v-195h-244v700h204l17 -54q36 33 72 44q31 10 101 10zM424 230v80q0 22 -8 30t-30 8h-39q-36 0 -51 -16l-14 -14v-96l14 -14q16 -16 51 -16h39q22 0 30 8t8 30z" />
    <glyph glyph-name="uni0441" unicode="&#x441;" horiz-adv-x="660" 
d="M30 190v160q0 100 45.5 145t144.5 45h220q99 0 144.5 -45t45.5 -145v-53h-234v13q0 22 -8 30t-30 8h-46q-22 0 -30 -8t-8 -30v-80q0 -22 8 -30t30 -8h46q22 0 30 8t8 30v17h234v-57q0 -100 -45.5 -145t-144.5 -45h-220q-99 0 -144.5 45t-45.5 145z" />
    <glyph glyph-name="uni0442" unicode="&#x442;" horiz-adv-x="600" 
d="M178 342h-168v198h580v-198h-168v-342h-244v342z" />
    <glyph glyph-name="uni0443" unicode="&#x443;" horiz-adv-x="698" 
d="M354 281l86 259h258l-233 -530q-44 -102 -98 -137q-54 -33 -169 -33h-138v192h146q14 0 18 1l-224 507h268z" />
    <glyph glyph-name="uni0444" unicode="&#x444;" horiz-adv-x="986" 
d="M610 540h156q99 0 144.5 -45t45.5 -145v-160q0 -100 -45.5 -145t-144.5 -45h-156v-160h-234v160h-156q-99 0 -144.5 45t-45.5 145v160q0 100 45.5 145t144.5 45h156v160h234v-160zM312 168h64v204h-64q-22 0 -30 -8t-8 -30v-128q0 -22 8 -30t30 -8zM712 206v128
q0 22 -8 30t-30 8h-64v-204h64q22 0 30 8t8 30z" />
    <glyph glyph-name="uni0445" unicode="&#x445;" horiz-adv-x="700" 
d="M266 0h-276l193 276l-183 264h292l66 -115l66 115h276l-183 -264l193 -276h-292l-76 128z" />
    <glyph glyph-name="uni0446" unicode="&#x446;" horiz-adv-x="768" 
d="M534 0h-496v540h244v-342h132v342h244v-342h100v-318h-224v120z" />
    <glyph glyph-name="uni0447" unicode="&#x447;" horiz-adv-x="662" 
d="M20 540h244v-178q0 -19 6.5 -25.5t25.5 -6.5h84v210h244v-540h-244v132h-194q-86 0 -126 39.5t-40 126.5v242z" />
    <glyph glyph-name="uni0448" unicode="&#x448;" horiz-adv-x="1028" 
d="M990 0h-952v540h244v-342h110v342h244v-342h110v342h244v-540z" />
    <glyph glyph-name="uni0449" unicode="&#x449;" horiz-adv-x="1100" 
d="M866 0h-828v540h244v-342h110v342h244v-342h110v342h244v-342h100v-318h-224v120z" />
    <glyph glyph-name="uni044A" unicode="&#x44a;" horiz-adv-x="784" 
d="M160 342h-150v198h394v-132h198q84 0 123 -38.5t39 -123.5v-84q0 -85 -39 -123.5t-123 -38.5h-442v342zM404 254v-90h86q17 0 23.5 6.5t6.5 23.5v30q0 17 -6.5 23.5t-23.5 6.5h-86z" />
    <glyph glyph-name="uni044B" unicode="&#x44b;" horiz-adv-x="994" 
d="M38 0v540h244v-132h198q84 0 123 -38.5t39 -123.5v-84q0 -85 -39 -123.5t-123 -38.5h-442zM952 0h-248v540h248v-540zM368 254h-86v-90h86q17 0 23.5 6.5t6.5 23.5v30q0 17 -6.5 23.5t-23.5 6.5z" />
    <glyph glyph-name="uni044C" unicode="&#x44c;" horiz-adv-x="662" 
d="M38 0v540h244v-132h198q84 0 123 -38.5t39 -123.5v-84q0 -85 -39 -123.5t-123 -38.5h-442zM368 254h-86v-90h86q17 0 23.5 6.5t6.5 23.5v30q0 17 -6.5 23.5t-23.5 6.5z" />
    <glyph glyph-name="uni044D" unicode="&#x44d;" horiz-adv-x="680" 
d="M220 540h240q99 0 144.5 -45t45.5 -145v-160q0 -100 -45.5 -145t-144.5 -45h-240q-99 0 -144.5 45t-45.5 145v57h234v-43q0 -22 8 -30t30 -8h66q22 0 30 8t8 30v15h-94v110h94v7q0 22 -8 30t-30 8h-66q-22 0 -30 -8t-8 -30v-39h-234v53q0 100 45.5 145t144.5 45z" />
    <glyph glyph-name="uni044E" unicode="&#x44e;" horiz-adv-x="1022" 
d="M552 540h250q99 0 144.5 -45t45.5 -145v-160q0 -100 -45.5 -145t-144.5 -45h-250q-96 0 -141.5 42t-48.5 134h-80v-176h-244v540h244v-166h81q4 87 49.5 126.5t139.5 39.5zM748 230v80q0 22 -8 30t-30 8h-66q-22 0 -30 -8t-8 -30v-80q0 -22 8 -30t30 -8h66q22 0 30 8
t8 30z" />
    <glyph glyph-name="uni044F" unicode="&#x44f;" horiz-adv-x="680" 
d="M200 540h442v-540h-244v156h-44l-86 -156h-258l106 183q-78 31 -78 149v46q0 85 39 123.5t123 38.5zM312 302h86v82h-86q-17 0 -23.5 -6.5t-6.5 -23.5v-22q0 -17 6.5 -23.5t23.5 -6.5z" />
    <glyph glyph-name="uni0451" unicode="&#x451;" horiz-adv-x="680" 
d="M140 700h180v-130h-180v130zM360 700h180v-130h-180v130zM220 540h240q99 0 144.5 -45t45.5 -145v-112h-376v-24q0 -22 8 -30t30 -8h72q19 0 25.5 6.5t6.5 25.5v5h234v-47q0 -87 -40 -126.5t-126 -39.5h-264q-99 0 -144.5 45t-45.5 145v160q0 100 45.5 145t144.5 45z
M274 360v-16h142v16q0 22 -8 30t-30 8h-66q-22 0 -30 -8t-8 -30z" />
    <glyph glyph-name="uni0453" unicode="&#x453;" horiz-adv-x="540" 
d="M480 700l-120 -130h-188l60 130h248zM282 0h-244v540h492v-198h-248v-342z" />
    <glyph glyph-name="uni0455" unicode="&#x455;" horiz-adv-x="670" 
d="M30 134v50h234v-28q0 -14 4 -18t18 -4h88q14 0 18 4t4 18v14q0 13 -3.5 16.5t-18.5 5.5l-202 20q-132 14 -132 130v66q0 63 35 97.5t97 34.5h322q62 0 97 -35.5t35 -98.5v-42h-234v20q0 14 -4 18t-18 4h-64q-14 0 -18 -4t-4 -18v-8q0 -13 3.5 -16.5t18.5 -5.5l202 -20
q132 -14 132 -130v-72q0 -63 -35 -97.5t-97 -34.5h-346q-62 0 -97 35.5t-35 98.5z" />
    <glyph glyph-name="uni0456" unicode="&#x456;" horiz-adv-x="332" 
d="M290 570h-248v130h248v-130zM290 0h-248v540h248v-540z" />
    <glyph glyph-name="uni0457" unicode="&#x457;" horiz-adv-x="332" 
d="M146 570h-180v130h180v-130zM366 570h-180v130h180v-130zM290 0h-248v540h248v-540z" />
    <glyph glyph-name="uni0458" unicode="&#x458;" horiz-adv-x="332" 
d="M290 570h-248v130h248v-130zM124 -160h-144v182h30q19 0 25.5 6.5t6.5 25.5v486h248v-534q0 -87 -40 -126.5t-126 -39.5z" />
    <glyph glyph-name="uni045C" unicode="&#x45c;" horiz-adv-x="718" 
d="M321 700h248l-120 -130h-188zM524 274l204 -274h-296l-150 236v-236h-244v540h244v-238l142 238h296z" />
    <glyph glyph-name="uni045E" unicode="&#x45e;" horiz-adv-x="698" 
d="M488 570h-278q-76 0 -76 76v54h158v-18q0 -22 22 -22h70q22 0 22 22v18h158v-54q0 -76 -76 -76zM354 281l86 259h258l-233 -530q-44 -102 -98 -137q-54 -33 -169 -33h-138v192h146q14 0 18 1l-224 507h268z" />
    <glyph glyph-name="uni0498" unicode="&#x498;" horiz-adv-x="790" 
d="M672 355q88 -22 88 -139v-50q0 -87 -40 -126.5t-126 -39.5h-175l-6 -18h66q30 0 43 -13t13 -43v-30q0 -30 -13 -43t-43 -13h-184v66h127q7 0 7 7v4q0 7 -7 7h-97v32l14 44h-143q-86 0 -126 39.5t-40 126.5v110h250v-54q0 -19 6.5 -25.5t25.5 -6.5h156q19 0 25.5 6.5
t6.5 25.5v21q0 19 -6.5 25.5t-25.5 6.5h-128v158h118q19 0 25.5 6.5t6.5 25.5v13q0 19 -6.5 25.5t-25.5 6.5h-136q-19 0 -25.5 -6.5t-6.5 -25.5v-46h-250v102q0 87 40 126.5t126 39.5h378q86 0 126 -39.5t40 -126.5v-42q0 -112 -78 -137z" />
    <glyph glyph-name="uni0499" unicode="&#x499;" horiz-adv-x="680" 
d="M582 274q68 -18 68 -107v-39q0 -67 -31 -97.5t-97 -30.5h-158l-6 -18h66q30 0 43 -13t13 -43v-30q0 -30 -13 -43t-43 -13h-184v66h127q7 0 7 7v4q0 7 -7 7h-97v32l14 44h-126q-66 0 -97 30.5t-31 97.5v87h234v-42q0 -14 5 -19t20 -5h92q14 0 19.5 5t5.5 19v16
q0 15 -5.5 20t-19.5 5h-71v118h63q14 0 19.5 5t5.5 20v10q0 14 -5.5 19t-19.5 5h-77q-14 0 -19 -5t-5 -19v-36h-234v81q0 67 31 97.5t97 30.5h348q66 0 97 -30.5t31 -97.5v-32q0 -86 -60 -106z" />
    <glyph glyph-name="uni04BB" unicode="&#x4bb;" horiz-adv-x="692" 
d="M442 540h26q99 0 144.5 -45t45.5 -145v-350h-244v304q0 22 -8 30t-30 8h-29q-36 0 -51 -16l-14 -14v-312h-244v700h244v-203q34 28 65 35q34 8 95 8z" />
    <glyph glyph-name="uni04C0" unicode="&#x4c0;" horiz-adv-x="352" 
d="M44 0v700h264v-700h-264z" />
    <glyph glyph-name="uni04C1" unicode="&#x4c1;" horiz-adv-x="1288" 
d="M783 730h-278q-76 0 -76 76v54h158v-18q0 -22 22 -22h70q22 0 22 22v18h158v-54q0 -76 -76 -76zM1038 364l250 -364h-314l-200 325v-325h-260v325l-200 -325h-314l250 364l-246 336h314l196 -310v310h260v-310l196 310h314z" />
    <glyph glyph-name="uni04C2" unicode="&#x4c2;" horiz-adv-x="1116" 
d="M697 570h-278q-76 0 -76 76v54h158v-18q0 -22 22 -22h70q22 0 22 22v18h158v-54q0 -76 -76 -76zM922 274l204 -274h-296l-150 236v-236h-244v236l-150 -236h-296l204 274l-196 266h296l142 -238v238h244v-238l142 238h296z" />
    <glyph glyph-name="uni04D0" unicode="&#x4d0;" horiz-adv-x="852" 
d="M565 730h-278q-76 0 -76 76v54h158v-18q0 -22 22 -22h70q22 0 22 22v18h158v-54q0 -76 -76 -76zM852 0h-288l-28 88h-234l-28 -88h-274l278 700h296zM419 451l-62 -193h124z" />
    <glyph glyph-name="uni04D1" unicode="&#x4d1;" horiz-adv-x="684" 
d="M487 570h-278q-76 0 -76 76v54h158v-18q0 -22 22 -22h70q22 0 22 22v18h158v-54q0 -76 -76 -76zM220 540h240q99 0 144.5 -45t45.5 -145v-350h-204l-15 46q-36 -30 -66 -37q-31 -9 -99 -9h-106q-62 0 -96 33.5t-34 96.5v54q0 63 34 96.5t96 33.5h246v30q0 22 -8 30t-30 8
h-48q-19 0 -25.5 -6.5t-6.5 -25.5v-11h-234v35q0 87 40 126.5t126 39.5zM300 138h49q27 0 43 16l14 14v40h-106q-16 0 -21 -5t-5 -21v-18q0 -16 5 -21t21 -5z" />
    <glyph glyph-name="uni04D2" unicode="&#x4d2;" horiz-adv-x="852" 
d="M226 860h180v-130h-180v130zM446 860h180v-130h-180v130zM852 0h-288l-28 88h-234l-28 -88h-274l278 700h296zM419 451l-62 -193h124z" />
    <glyph glyph-name="uni04D3" unicode="&#x4d3;" horiz-adv-x="684" 
d="M148 700h180v-130h-180v130zM368 700h180v-130h-180v130zM220 540h240q99 0 144.5 -45t45.5 -145v-350h-204l-15 46q-36 -30 -66 -37q-31 -9 -99 -9h-106q-62 0 -96 33.5t-34 96.5v54q0 63 34 96.5t96 33.5h246v30q0 22 -8 30t-30 8h-48q-19 0 -25.5 -6.5t-6.5 -25.5v-11
h-234v35q0 87 40 126.5t126 39.5zM300 138h49q27 0 43 16l14 14v40h-106q-16 0 -21 -5t-5 -21v-18q0 -16 5 -21t21 -5z" />
    <glyph glyph-name="uni04D4" unicode="&#x4d4;" horiz-adv-x="1090" 
d="M744 271l25 -71h301v-200h-518l-23 78h-230l-25 -78h-274l278 700h782v-200h-397l22 -63h335v-166h-276zM420 454l-66 -206h126z" />
    <glyph glyph-name="uni04D5" unicode="&#x4d5;" horiz-adv-x="1056" 
d="M646 540h190q99 0 144.5 -45t45.5 -145v-112h-376v-24q0 -22 8 -30t30 -8h72q19 0 25.5 6.5t6.5 25.5v5h234v-47q0 -87 -40 -126.5t-126 -39.5h-234q-90 0 -136 37q-30 -23 -61 -30q-29 -7 -93 -7h-176q-62 0 -96 33.5t-34 96.5v54q0 63 34 96.5t96 33.5h246v30
q0 22 -8 30t-30 8h-48q-19 0 -25.5 -6.5t-6.5 -25.5v-11h-234v35q0 87 40 126.5t126 39.5h190q80 0 118 -41q38 41 118 41zM650 360v-16h142v16q0 22 -8 30t-30 8h-66q-22 0 -30 -8t-8 -30zM392 154l14 14v40h-106q-16 0 -21 -5t-5 -21v-18q0 -16 5 -21t21 -5h49q27 0 43 16
z" />
    <glyph glyph-name="uni04D6" unicode="&#x4d6;" horiz-adv-x="690" 
d="M484 730h-278q-76 0 -76 76v54h158v-18q0 -22 22 -22h70q22 0 22 22v18h158v-54q0 -76 -76 -76zM300 271v-71h370v-200h-630v700h620v-200h-360v-63h320v-166h-320z" />
    <glyph glyph-name="uni04D7" unicode="&#x4d7;" horiz-adv-x="680" 
d="M479 570h-278q-76 0 -76 76v54h158v-18q0 -22 22 -22h70q22 0 22 22v18h158v-54q0 -76 -76 -76zM220 540h240q99 0 144.5 -45t45.5 -145v-112h-376v-24q0 -22 8 -30t30 -8h72q19 0 25.5 6.5t6.5 25.5v5h234v-47q0 -87 -40 -126.5t-126 -39.5h-264q-99 0 -144.5 45
t-45.5 145v160q0 100 45.5 145t144.5 45zM274 360v-16h142v16q0 22 -8 30t-30 8h-66q-22 0 -30 -8t-8 -30z" />
    <glyph glyph-name="uni04DC" unicode="&#x4dc;" horiz-adv-x="1288" 
d="M444 860h180v-130h-180v130zM664 860h180v-130h-180v130zM1038 364l250 -364h-314l-200 325v-325h-260v325l-200 -325h-314l250 364l-246 336h314l196 -310v310h260v-310l196 310h314z" />
    <glyph glyph-name="uni04DD" unicode="&#x4dd;" horiz-adv-x="1116" 
d="M358 700h180v-130h-180v130zM578 700h180v-130h-180v130zM922 274l204 -274h-296l-150 236v-236h-244v236l-150 -236h-296l204 274l-196 266h296l142 -238v238h244v-238l142 238h296z" />
    <glyph glyph-name="uni04DE" unicode="&#x4de;" horiz-adv-x="790" 
d="M195 860h180v-130h-180v130zM415 860h180v-130h-180v130zM672 355q88 -22 88 -139v-50q0 -87 -40 -126.5t-126 -39.5h-398q-86 0 -126 39.5t-40 126.5v110h250v-54q0 -19 6.5 -25.5t25.5 -6.5h156q19 0 25.5 6.5t6.5 25.5v21q0 19 -6.5 25.5t-25.5 6.5h-128v158h118
q19 0 25.5 6.5t6.5 25.5v13q0 19 -6.5 25.5t-25.5 6.5h-136q-19 0 -25.5 -6.5t-6.5 -25.5v-46h-250v102q0 87 40 126.5t126 39.5h378q86 0 126 -39.5t40 -126.5v-42q0 -112 -78 -137z" />
    <glyph glyph-name="uni04DF" unicode="&#x4df;" horiz-adv-x="680" 
d="M140 700h180v-130h-180v130zM360 700h180v-130h-180v130zM582 274q68 -18 68 -107v-39q0 -67 -31 -97.5t-97 -30.5h-364q-66 0 -97 30.5t-31 97.5v87h234v-42q0 -14 5 -19t20 -5h92q14 0 19.5 5t5.5 19v16q0 15 -5.5 20t-19.5 5h-71v118h63q14 0 19.5 5t5.5 20v10
q0 14 -5.5 19t-19.5 5h-77q-14 0 -19 -5t-5 -19v-36h-234v81q0 67 31 97.5t97 30.5h348q66 0 97 -30.5t31 -97.5v-32q0 -86 -60 -106z" />
    <glyph glyph-name="uni04E2" unicode="&#x4e2;" horiz-adv-x="820" 
d="M190 850h440v-110h-440v110zM290 381l270 319h220v-700h-250v330l-280 -330h-210v700h250v-319z" />
    <glyph glyph-name="uni04E3" unicode="&#x4e3;" horiz-adv-x="710" 
d="M135 690h440v-110h-440v110zM272 318l196 222h204v-540h-234v234l-206 -234h-194v540h234v-222z" />
    <glyph glyph-name="uni04E4" unicode="&#x4e4;" horiz-adv-x="820" 
d="M210 860h180v-130h-180v130zM430 860h180v-130h-180v130zM290 381l270 319h220v-700h-250v330l-280 -330h-210v700h250v-319z" />
    <glyph glyph-name="uni04E5" unicode="&#x4e5;" horiz-adv-x="710" 
d="M155 700h180v-130h-180v130zM375 700h180v-130h-180v130zM272 318l196 222h204v-540h-234v234l-206 -234h-194v540h234v-222z" />
    <glyph glyph-name="uni04E6" unicode="&#x4e6;" horiz-adv-x="814" 
d="M387 730h-180v130h180v-130zM607 730h-180v130h180v-130zM572 0h-330q-107 0 -158.5 51t-51.5 159v280q0 108 51.5 159t158.5 51h330q107 0 158.5 -51t51.5 -159v-280q0 -108 -51.5 -159t-158.5 -51zM338 220h138q26 0 36 10t10 36v168q0 26 -10 36t-36 10h-138
q-26 0 -36 -10t-10 -36v-168q0 -26 10 -36t36 -10z" />
    <glyph glyph-name="uni04E7" unicode="&#x4e7;" horiz-adv-x="690" 
d="M325 570h-180v130h180v-130zM545 570h-180v130h180v-130zM470 0h-250q-99 0 -144.5 45t-45.5 145v160q0 100 45.5 145t144.5 45h250q99 0 144.5 -45t45.5 -145v-160q0 -100 -45.5 -145t-144.5 -45zM312 192h66q22 0 30 8t8 30v80q0 22 -8 30t-30 8h-66q-22 0 -30 -8
t-8 -30v-80q0 -22 8 -30t30 -8z" />
    <glyph glyph-name="uni04EC" unicode="&#x4ec;" horiz-adv-x="802" 
d="M201 860h180v-130h-180v130zM421 860h180v-130h-180v130zM240 700h320q107 0 158.5 -51t51.5 -159v-280q0 -108 -51.5 -159t-158.5 -51h-320q-107 0 -158.5 51t-51.5 159v102h250v-70q0 -26 10 -36t36 -10h138q26 0 36 10t10 36v30h-160v160h160v26q0 26 -10 36t-36 10
h-138q-26 0 -36 -10t-10 -36v-64h-250v96q0 108 51.5 159t158.5 51z" />
    <glyph glyph-name="uni04ED" unicode="&#x4ed;" horiz-adv-x="680" 
d="M130 700h180v-130h-180v130zM350 700h180v-130h-180v130zM220 540h240q99 0 144.5 -45t45.5 -145v-160q0 -100 -45.5 -145t-144.5 -45h-240q-99 0 -144.5 45t-45.5 145v57h234v-43q0 -22 8 -30t30 -8h66q22 0 30 8t8 30v15h-94v110h94v7q0 22 -8 30t-30 8h-66
q-22 0 -30 -8t-8 -30v-39h-234v53q0 100 45.5 145t144.5 45z" />
    <glyph glyph-name="uni04EE" unicode="&#x4ee;" horiz-adv-x="776" 
d="M168 850h440v-110h-440v110zM395 473l105 227h286l-387 -700h-285l135 232l-259 468h300z" />
    <glyph glyph-name="uni04EF" unicode="&#x4ef;" horiz-adv-x="698" 
d="M129 690h440v-110h-440v110zM354 281l86 259h258l-233 -530q-44 -102 -98 -137q-54 -33 -169 -33h-138v192h146q14 0 18 1l-224 507h268z" />
    <glyph glyph-name="uni04F0" unicode="&#x4f0;" horiz-adv-x="776" 
d="M188 860h180v-130h-180v130zM408 860h180v-130h-180v130zM395 473l105 227h286l-387 -700h-285l135 232l-259 468h300z" />
    <glyph glyph-name="uni04F1" unicode="&#x4f1;" horiz-adv-x="698" 
d="M149 700h180v-130h-180v130zM369 700h180v-130h-180v130zM354 281l86 259h258l-233 -530q-44 -102 -98 -137q-54 -33 -169 -33h-138v192h146q14 0 18 1l-224 507h268z" />
    <glyph glyph-name="uni04F2" unicode="&#x4f2;" horiz-adv-x="776" 
d="M210 860h238l-100 -130h-188zM698 860l-100 -130h-188l50 130h238zM395 473l105 227h286l-387 -700h-285l135 232l-259 468h300z" />
    <glyph glyph-name="uni04F3" unicode="&#x4f3;" horiz-adv-x="698" 
d="M171 700h238l-100 -130h-188zM659 700l-100 -130h-188l50 130h238zM354 281l86 259h258l-233 -530q-44 -102 -98 -137q-54 -33 -169 -33h-138v192h146q14 0 18 1l-224 507h268z" />
    <glyph glyph-name="uni04F4" unicode="&#x4f4;" horiz-adv-x="760" 
d="M360 730h-180v130h180v-130zM580 730h-180v130h180v-130zM720 0h-260v180h-250q-99 0 -144.5 45t-45.5 145v330h260v-252q0 -22 8 -30t30 -8h142v290h260v-700z" />
    <glyph glyph-name="uni04F5" unicode="&#x4f5;" horiz-adv-x="600" 
d="M220 570h-180v130h180v-130zM440 570h-180v130h180v-130zM20 540h244v-178q0 -19 6.5 -25.5t25.5 -6.5h84v210h244v-540h-244v132h-194q-86 0 -126 39.5t-40 126.5v242z" />
    <glyph glyph-name="uni04F8" unicode="&#x4f8;" horiz-adv-x="1112" 
d="M916 730h-180v130h180v-130zM1136 730h-180v130h180v-130zM40 0v700h260v-180h250q99 0 144.5 -45t45.5 -145v-140q0 -100 -45.5 -145t-144.5 -45h-510zM804 0v700h264v-700h-264zM442 330h-142v-130h142q22 0 30 8t8 30v54q0 22 -8 30t-30 8z" />
    <glyph glyph-name="uni04F9" unicode="&#x4f9;" horiz-adv-x="994" 
d="M808 570h-180v130h180v-130zM1028 570h-180v130h180v-130zM38 0v540h244v-132h198q84 0 123 -38.5t39 -123.5v-84q0 -85 -39 -123.5t-123 -38.5h-442zM952 0h-248v540h248v-540zM368 254h-86v-90h86q17 0 23.5 6.5t6.5 23.5v30q0 17 -6.5 23.5t-23.5 6.5z" />
    <glyph glyph-name="Wgrave" unicode="&#x1e80;" horiz-adv-x="1150" 
d="M613 860l60 -130h-188l-120 130h248zM782 368l98 332h270l-246 -700h-224l-105 316l-105 -316h-224l-246 700h284l97 -329l104 329h190z" />
    <glyph glyph-name="wgrave" unicode="&#x1e81;" horiz-adv-x="962" 
d="M519 700l60 -130h-188l-120 130h248zM652 318l64 222h246l-197 -540h-212l-71 224l-69 -224h-216l-197 540h256l65 -222l72 222h186z" />
    <glyph glyph-name="Wacute" unicode="&#x1e82;" horiz-adv-x="1150" 
d="M537 860h248l-120 -130h-188zM782 368l98 332h270l-246 -700h-224l-105 316l-105 -316h-224l-246 700h284l97 -329l104 329h190z" />
    <glyph glyph-name="wacute" unicode="&#x1e83;" horiz-adv-x="962" 
d="M443 700h248l-120 -130h-188zM652 318l64 222h246l-197 -540h-212l-71 224l-69 -224h-216l-197 540h256l65 -222l72 222h186z" />
    <glyph glyph-name="Wdieresis" unicode="&#x1e84;" horiz-adv-x="1150" 
d="M375 860h180v-130h-180v130zM595 860h180v-130h-180v130zM782 368l98 332h270l-246 -700h-224l-105 316l-105 -316h-224l-246 700h284l97 -329l104 329h190z" />
    <glyph glyph-name="wdieresis" unicode="&#x1e85;" horiz-adv-x="962" 
d="M281 700h180v-130h-180v130zM501 700h180v-130h-180v130zM652 318l64 222h246l-197 -540h-212l-71 224l-69 -224h-216l-197 540h256l65 -222l72 222h186z" />
    <glyph glyph-name="uni1E9E" unicode="&#x1e9e;" horiz-adv-x="814" 
d="M740 597l-115 -165q84 -2 122.5 -41.5t38.5 -124.5v-100q0 -87 -40 -126.5t-126 -39.5h-270v190h144q19 0 25.5 6.5t6.5 25.5v31q0 19 -6.5 25.5t-25.5 6.5h-124v127l49 78h-77q-26 0 -36 -10t-10 -36v-444h-260v490q0 108 51.5 159t158.5 51h494v-103z" />
    <glyph glyph-name="Ygrave" unicode="&#x1ef2;" horiz-adv-x="776" 
d="M426 860l60 -130h-188l-120 130h248zM500 700h286l-268 -445v-255h-260v255l-268 445h300l105 -205z" />
    <glyph glyph-name="ygrave" unicode="&#x1ef3;" horiz-adv-x="698" 
d="M387 700l60 -130h-188l-120 130h248zM354 281l86 259h258l-233 -530q-44 -102 -98 -137q-54 -33 -169 -33h-138v192h146q14 0 18 1l-224 507h268z" />
    <glyph glyph-name="endash" unicode="&#x2013;" horiz-adv-x="640" 
d="M30 246v208h580v-208h-580z" />
    <glyph glyph-name="emdash" unicode="&#x2014;" horiz-adv-x="900" 
d="M30 246v208h840v-208h-840z" />
    <glyph glyph-name="quoteleft" unicode="&#x2018;" horiz-adv-x="360" 
d="M154 700h150l-74 -160h90v-240h-280v86q0 98 42 178z" />
    <glyph glyph-name="quoteright" unicode="&#x2019;" horiz-adv-x="360" 
d="M206 300h-150l74 160h-90v240h280v-86q0 -98 -42 -178z" />
    <glyph glyph-name="quotesinglbase" unicode="&#x201a;" horiz-adv-x="360" 
d="M206 -160h-150l74 160h-90v240h280v-86q0 -98 -42 -178z" />
    <glyph glyph-name="quotedblleft" unicode="&#x201c;" horiz-adv-x="700" 
d="M154 700h150l-74 -160h90v-240h-280v86q0 98 42 178zM494 700h150l-74 -160h90v-240h-280v86q0 98 42 178z" />
    <glyph glyph-name="quotedblright" unicode="&#x201d;" horiz-adv-x="700" 
d="M206 300h-150l74 160h-90v240h280v-86q0 -98 -42 -178zM546 300h-150l74 160h-90v240h280v-86q0 -98 -42 -178z" />
    <glyph glyph-name="quotedblbase" unicode="&#x201e;" horiz-adv-x="700" 
d="M206 -160h-150l74 160h-90v240h280v-86q0 -98 -42 -178zM546 -160h-150l74 160h-90v240h280v-86q0 -98 -42 -178z" />
    <glyph glyph-name="dagger" unicode="&#x2020;" horiz-adv-x="426" 
d="M286 590h110v-140h-110v-200h-146v200h-110v140h110v110h146v-110z" />
    <glyph glyph-name="daggerdbl" unicode="&#x2021;" horiz-adv-x="426" 
d="M396 600v-134h-110v-90h110v-134h-110v-100h-146v100h-110v134h110v90h-110v134h110v100h146v-100h110z" />
    <glyph glyph-name="bullet" unicode="&#x2022;" horiz-adv-x="500" 
d="M343 140h-186q-117 0 -117 117v186q0 60 28.5 88.5t88.5 28.5h186q60 0 88.5 -28.5t28.5 -88.5v-186q0 -117 -117 -117z" />
    <glyph glyph-name="perthousand" unicode="&#x2030;" horiz-adv-x="1240" 
d="M265 300h-130q-105 0 -105 105v110q0 105 105 105h130q105 0 105 -105v-110q0 -105 -105 -105zM240 0h-120l500 620h120zM178 412h44q13 0 18 5t5 18v50q0 13 -4.5 18t-18.5 5h-44q-13 0 -18 -5t-5 -18v-50q0 -13 5 -18t18 -5zM725 0h-130q-105 0 -105 105v110
q0 105 105 105h130q105 0 105 -105v-110q0 -105 -105 -105zM1105 0h-130q-105 0 -105 105v110q0 105 105 105h130q105 0 105 -105v-110q0 -105 -105 -105zM638 112h44q13 0 18 5t5 18v50q0 13 -4.5 18t-18.5 5h-44q-13 0 -18 -5t-5 -18v-50q0 -13 5 -18t18 -5zM1018 112h44
q13 0 18 5t5 18v50q0 13 -4.5 18t-18.5 5h-44q-13 0 -18 -5t-5 -18v-50q0 -13 5 -18t18 -5z" />
    <glyph glyph-name="guilsinglleft" unicode="&#x2039;" horiz-adv-x="440" 
d="M40 424l360 180v-188l-152 -64l152 -64v-192l-360 180v148z" />
    <glyph glyph-name="guilsinglright" unicode="&#x203a;" horiz-adv-x="440" 
d="M40 412v192l360 -180v-148l-360 -180v188l152 64z" />
    <glyph glyph-name="fraction" unicode="&#x2044;" horiz-adv-x="220" 
d="M-80 0h-130l510 700h130z" />
    <glyph glyph-name="Euro" unicode="&#x20ac;" horiz-adv-x="772" 
d="M736 490v-96h-240v68q0 26 -10 36t-36 10h-88q-26 0 -36 -10t-10 -36h134v-94h-134v-36h134v-94h-134q0 -26 10 -36t36 -10h88q26 0 36 10t10 36v74h240v-102q0 -108 -51.5 -159t-158.5 -51h-250q-107 0 -158.5 51t-51.5 159v28h-66v94h66v36h-66v94h66v28
q0 108 51.5 159t158.5 51h250q107 0 158.5 -51t51.5 -159z" />
    <glyph glyph-name="trademark" unicode="&#x2122;" horiz-adv-x="567" 
d="M20 700h227v-77h-70v-156h-87v156h-70v77zM409 590l66 110h72v-233h-80v93l-38 -61h-44l-38 61v-93h-80v233h76z" />
    <glyph glyph-name="minus" unicode="&#x2212;" 
d="M50 246v208h652v-208h-652z" />
    <glyph glyph-name="approxequal" unicode="&#x2248;" 
d="M440 604l41 -83q3 -6 9 -6h6q6 0 6 6v153h200v-208q0 -54 -23 -77t-77 -23h-160q-56 0 -82 14t-48 57l-41 82q-3 6 -9 6h-6q-6 0 -6 -6v-153h-200v208q0 54 23 77t77 23h160q57 0 83 -13q26 -14 47 -57zM440 264l41 -83q3 -6 9 -6h6q6 0 6 6v153h200v-208q0 -54 -23 -77
t-77 -23h-160q-56 0 -82 14t-48 57l-41 82q-3 6 -9 6h-6q-6 0 -6 -6v-153h-200v208q0 54 23 77t77 23h160q57 0 83 -13q26 -14 47 -57z" />
    <glyph glyph-name="notequal" unicode="&#x2260;" 
d="M702 584v-198h-225l-26 -72h251v-198h-323l-35 -96h-176l35 96h-153v198h225l26 72h-251v198h323l35 96h176l-35 -96h153z" />
    <glyph glyph-name="lessequal" unicode="&#x2264;" 
d="M50 540l652 160v-206l-312 -43l312 -43v-206l-652 160v178zM702 0h-652v178h652v-178z" />
    <glyph glyph-name="greaterequal" unicode="&#x2265;" 
d="M50 494v206l652 -160v-178l-652 -160v206l312 43zM702 0h-652v178h652v-178z" />
    <glyph glyph-name="fi" unicode="&#xfb01;" horiz-adv-x="834" 
d="M100 472v62q0 87 40 126.5t126 39.5h226v-176h-116q-19 0 -25.5 -6.5t-6.5 -25.5v-20h148v-188h-148v-284h-244v284h-90v188h90zM544 570v130h248v-130h-248zM792 0h-248v540h248v-540z" />
    <glyph glyph-name="fl" unicode="&#xfb02;" horiz-adv-x="834" 
d="M100 472v62q0 87 40 126.5t126 39.5h226v-176h-116q-19 0 -25.5 -6.5t-6.5 -25.5v-20h148v-188h-148v-284h-244v284h-90v188h90zM544 0v700h248v-700h-248z" />
    <glyph glyph-name="null" horiz-adv-x="0" 
 />
    <glyph glyph-name="A.ss01" horiz-adv-x="802" 
d="M246 700h310q107 0 158.5 -51t51.5 -159v-490h-260v140h-210v-140h-260v490q0 108 51.5 159t158.5 51zM296 434v-94h210v94q0 26 -10 36t-36 10h-118q-26 0 -36 -10t-10 -36z" />
    <glyph glyph-name="Aacute.ss01" horiz-adv-x="802" 
d="M368 860h248l-120 -130h-188zM246 700h310q107 0 158.5 -51t51.5 -159v-490h-260v140h-210v-140h-260v490q0 108 51.5 159t158.5 51zM296 434v-94h210v94q0 26 -10 36t-36 10h-118q-26 0 -36 -10t-10 -36z" />
    <glyph glyph-name="Abreve.ss01" horiz-adv-x="802" 
d="M545 730h-278q-76 0 -76 76v54h158v-18q0 -22 22 -22h70q22 0 22 22v18h158v-54q0 -76 -76 -76zM246 700h310q107 0 158.5 -51t51.5 -159v-490h-260v140h-210v-140h-260v490q0 108 51.5 159t158.5 51zM296 434v-94h210v94q0 26 -10 36t-36 10h-118q-26 0 -36 -10t-10 -36
z" />
    <glyph glyph-name="Acircumflex.ss01" horiz-adv-x="802" 
d="M473 730l-67 42l-67 -42h-168l120 130h230l120 -130h-168zM246 700h310q107 0 158.5 -51t51.5 -159v-490h-260v140h-210v-140h-260v490q0 108 51.5 159t158.5 51zM296 434v-94h210v94q0 26 -10 36t-36 10h-118q-26 0 -36 -10t-10 -36z" />
    <glyph glyph-name="Adieresis.ss01" horiz-adv-x="802" 
d="M206 860h180v-130h-180v130zM426 860h180v-130h-180v130zM246 700h310q107 0 158.5 -51t51.5 -159v-490h-260v140h-210v-140h-260v490q0 108 51.5 159t158.5 51zM296 434v-94h210v94q0 26 -10 36t-36 10h-118q-26 0 -36 -10t-10 -36z" />
    <glyph glyph-name="Agrave.ss01" horiz-adv-x="802" 
d="M444 860l60 -130h-188l-120 130h248zM246 700h310q107 0 158.5 -51t51.5 -159v-490h-260v140h-210v-140h-260v490q0 108 51.5 159t158.5 51zM296 434v-94h210v94q0 26 -10 36t-36 10h-118q-26 0 -36 -10t-10 -36z" />
    <glyph glyph-name="Amacron.ss01" horiz-adv-x="802" 
d="M186 850h440v-110h-440v110zM246 700h310q107 0 158.5 -51t51.5 -159v-490h-260v140h-210v-140h-260v490q0 108 51.5 159t158.5 51zM296 434v-94h210v94q0 26 -10 36t-36 10h-118q-26 0 -36 -10t-10 -36z" />
    <glyph glyph-name="Aogonek.ss01" horiz-adv-x="802" 
d="M614 0l-2 -2q-8 -8 -8 -17v-4q0 -13 13 -13h149v-124h-214q-86 0 -86 86v16q0 33 8.5 53t31.5 41v104h-210v-140h-260v490q0 108 51.5 159t158.5 51h310q107 0 158.5 -51t51.5 -159v-490h-152zM296 434v-94h210v94q0 26 -10 36t-36 10h-118q-26 0 -36 -10t-10 -36z" />
    <glyph glyph-name="Aring.ss01" horiz-adv-x="802" 
d="M500 720h-188q-30 0 -43 13t-13 43v28q0 30 13 43t43 13h188q30 0 43 -13t13 -43v-28q0 -30 -13 -43t-43 -13zM336 795v-10q0 -11 3 -14t13 -3h108q10 0 13 3t3 14v10q0 11 -3 14t-13 3h-108q-10 0 -13 -3t-3 -14zM246 700h310q107 0 158.5 -51t51.5 -159v-490h-260v140
h-210v-140h-260v490q0 108 51.5 159t158.5 51zM296 434v-94h210v94q0 26 -10 36t-36 10h-118q-26 0 -36 -10t-10 -36z" />
    <glyph glyph-name="Aringacute.ss01" horiz-adv-x="802" 
d="M555 700h1q107 0 158.5 -51t51.5 -159v-490h-260v140h-210v-140h-260v490q0 108 51.5 159t158.5 51h11q-1 3 -1 16v28q0 30 13 43t43 13h10l24 60h248l-60 -67q22 -12 22 -49v-28q0 -13 -1 -16zM336 735v-10q0 -11 3 -14t13 -3h108q10 0 13 3t3 14v10q0 11 -3 14t-13 3
h-108q-10 0 -13 -3t-3 -14zM296 434v-94h210v94q0 26 -10 36t-36 10h-118q-26 0 -36 -10t-10 -36z" />
    <glyph glyph-name="Atilde.ss01" horiz-adv-x="802" 
d="M320 780v-50h-129v82q0 48 49 48h161q42 0 59 -28l15 -23q3 -4 7 -4h5q5 0 5 5v50h129v-82q0 -48 -49 -48h-161q-42 0 -59 28l-15 23q-3 4 -7 4h-5q-5 0 -5 -5zM246 700h310q107 0 158.5 -51t51.5 -159v-490h-260v140h-210v-140h-260v490q0 108 51.5 159t158.5 51z
M296 434v-94h210v94q0 26 -10 36t-36 10h-118q-26 0 -36 -10t-10 -36z" />
    <glyph glyph-name="I.ss01" horiz-adv-x="584" 
d="M564 700v-200h-140v-300h140v-200h-544v200h140v300h-140v200h544z" />
    <glyph glyph-name="Iacute.ss01" horiz-adv-x="584" 
d="M254 860h248l-120 -130h-188zM564 700v-200h-140v-300h140v-200h-544v200h140v300h-140v200h544z" />
    <glyph glyph-name="Icircumflex.ss01" horiz-adv-x="584" 
d="M359 730l-67 42l-67 -42h-168l120 130h230l120 -130h-168zM564 700v-200h-140v-300h140v-200h-544v200h140v300h-140v200h544z" />
    <glyph glyph-name="Idieresis.ss01" horiz-adv-x="584" 
d="M92 860h180v-130h-180v130zM312 860h180v-130h-180v130zM564 700v-200h-140v-300h140v-200h-544v200h140v300h-140v200h544z" />
    <glyph glyph-name="Idotaccent.ss01" horiz-adv-x="584" 
d="M168 860h248v-130h-248v130zM564 700v-200h-140v-300h140v-200h-544v200h140v300h-140v200h544z" />
    <glyph glyph-name="Igrave.ss01" horiz-adv-x="584" 
d="M330 860l60 -130h-188l-120 130h248zM564 700v-200h-140v-300h140v-200h-544v200h140v300h-140v200h544z" />
    <glyph glyph-name="Imacron.ss01" horiz-adv-x="584" 
d="M72 850h440v-110h-440v110zM564 700v-200h-140v-300h140v-200h-544v200h140v300h-140v200h544z" />
    <glyph glyph-name="Iogonek.ss01" horiz-adv-x="584" 
d="M564 700v-200h-140v-300h140v-200h-152l-2 -2q-8 -8 -8 -17v-4q0 -13 13 -13h149v-124h-214q-86 0 -86 86v16q0 34 11 58h-255v200h140v300h-140v200h544z" />
    <glyph glyph-name="Itilde.ss01" horiz-adv-x="584" 
d="M206 780v-50h-129v82q0 48 49 48h161q42 0 59 -28l15 -23q3 -4 7 -4h5q5 0 5 5v50h129v-82q0 -48 -49 -48h-161q-42 0 -59 28l-15 23q-3 4 -7 4h-5q-5 0 -5 -5zM564 700v-200h-140v-300h140v-200h-544v200h140v300h-140v200h544z" />
    <glyph glyph-name="R.ss01" horiz-adv-x="776" 
d="M740 534v-98q0 -112 -83 -138q83 -26 83 -138v-160h-260v168q0 22 -8 30t-30 8h-142v-206h-260v700h534q86 0 126 -39.5t40 -126.5zM442 510h-142v-120h142q22 0 30 8t8 30v44q0 22 -8 30t-30 8z" />
    <glyph glyph-name="Racute.ss01" horiz-adv-x="776" 
d="M350 860h248l-120 -130h-188zM740 534v-98q0 -112 -83 -138q83 -26 83 -138v-160h-260v168q0 22 -8 30t-30 8h-142v-206h-260v700h534q86 0 126 -39.5t40 -126.5zM442 510h-142v-120h142q22 0 30 8t8 30v44q0 22 -8 30t-30 8z" />
    <glyph glyph-name="Rcaron.ss01" horiz-adv-x="776" 
d="M623 860l-120 -130h-230l-120 130h168l67 -42l67 42h168zM740 534v-98q0 -112 -83 -138q83 -26 83 -138v-160h-260v168q0 22 -8 30t-30 8h-142v-206h-260v700h534q86 0 126 -39.5t40 -126.5zM442 510h-142v-120h142q22 0 30 8t8 30v44q0 22 -8 30t-30 8z" />
    <glyph glyph-name="Rcommaaccent.ss01" horiz-adv-x="776" 
d="M740 534v-98q0 -112 -83 -138q83 -26 83 -138v-160h-260v168q0 22 -8 30t-30 8h-142v-206h-260v700h534q86 0 126 -39.5t40 -126.5zM442 510h-142v-120h142q22 0 30 8t8 30v44q0 22 -8 30t-30 8zM354 -150h-76v120h220v-36q0 -44 -6 -65q-8 -21 -34 -60l-40 -59h-122z
" />
    <glyph glyph-name="i.loclTRK" horiz-adv-x="332" 
d="M290 570h-248v130h248v-130zM290 0h-248v540h248v-540z" />
    <glyph glyph-name="uni0410.ss01" horiz-adv-x="812" 
d="M246 700h320q107 0 158.5 -51t51.5 -159v-490h-260v140h-220v-140h-260v490q0 108 51.5 159t158.5 51zM296 434v-94h220v94q0 26 -10 36t-36 10h-128q-26 0 -36 -10t-10 -36z" />
    <glyph glyph-name="uni042F.ss01" horiz-adv-x="776" 
d="M202 700h534v-700h-260v206h-142q-22 0 -30 -8t-8 -30v-168h-260v160q0 112 83 138q-83 26 -83 138v98q0 87 40 126.5t126 39.5zM296 472v-44q0 -22 8 -30t30 -8h142v120h-142q-22 0 -30 -8t-8 -30z" />
    <glyph glyph-name="uni044F.ss01" horiz-adv-x="672" 
d="M158 540h476v-540h-244v156h-101q-15 0 -20 -5t-5 -20v-131h-234v131q0 87 64 106q-64 19 -64 107v68q0 67 31 97.5t97 30.5zM274 360v-33q0 -14 5.5 -19.5t19.5 -5.5h91v82h-91q-14 0 -19.5 -5t-5.5 -19z" />
    <glyph glyph-name="zero.tf" 
d="M506 0h-260q-107 0 -158.5 51t-51.5 159v280q0 108 51.5 159t158.5 51h260q107 0 158.5 -51t51.5 -159v-280q0 -108 -51.5 -159t-158.5 -51zM332 212h88q26 0 36 10t10 36v184q0 26 -10 36t-36 10h-88q-26 0 -36 -10t-10 -36v-184q0 -26 10 -36t36 -10z" />
    <glyph glyph-name="one.tf" 
d="M518 700v-500h204v-200h-692v200h236v278l-206 -18v210l340 30h118z" />
    <glyph glyph-name="two.tf" 
d="M704 200v-200h-668v238q0 82 38.5 121.5t127.5 50.5l232 28q19 2 25.5 8.5t6.5 23.5v20q0 19 -6.5 25.5t-25.5 6.5h-112q-19 0 -25.5 -6.5t-6.5 -25.5v-32h-240v76q0 87 40 126.5t126 39.5h334q86 0 126 -39.5t40 -126.5v-90q0 -82 -38.5 -121.5t-127.5 -50.5l-232 -28
q-19 -2 -25.5 -8.5t-6.5 -23.5v-12h418z" />
    <glyph glyph-name="three.tf" 
d="M630 355q88 -22 88 -139v-50q0 -87 -40 -126.5t-126 -39.5h-352q-86 0 -126 39.5t-40 126.5v100h240v-46q0 -19 6.5 -25.5t25.5 -6.5h130q19 0 25.5 6.5t6.5 25.5v24q0 19 -6.5 25.5t-25.5 6.5h-114v156h104q19 0 25.5 6.5t6.5 25.5v16q0 19 -6.5 25.5t-25.5 6.5h-110
q-19 0 -25.5 -6.5t-6.5 -25.5v-38h-240v92q0 87 40 126.5t126 39.5h332q86 0 126 -39.5t40 -126.5v-42q0 -112 -78 -137z" />
    <glyph glyph-name="four.tf" 
d="M631 302h111v-188h-111v-114h-240v114h-381v158l331 428h290v-398zM391 482l-139 -180h139v180z" />
    <glyph glyph-name="five.tf" 
d="M550 0h-510v200h394q19 0 25.5 6.5t6.5 25.5v6q0 19 -6.5 25.5t-25.5 6.5h-394v430h646v-200h-396v-50h260q86 0 126 -39.5t40 -126.5v-118q0 -87 -40 -126.5t-126 -39.5z" />
    <glyph glyph-name="six.tf" 
d="M388 444h162q86 0 126 -39.5t40 -126.5v-112q0 -87 -40 -126.5t-126 -39.5h-348q-86 0 -126 39.5t-40 126.5v324q0 108 51.5 159t158.5 51h440v-200h-354q-26 0 -36 -10t-10 -36v-41q27 31 102 31zM466 216v34q0 19 -6.5 25.5t-25.5 6.5h-116q-19 0 -25.5 -6.5
t-6.5 -25.5v-34q0 -19 6.5 -25.5t25.5 -6.5h116q19 0 25.5 6.5t6.5 25.5z" />
    <glyph glyph-name="seven.tf" 
d="M30 480v220h692v-190l-235 -252q-21 -21 -28 -43t-7 -61v-154h-256v142q0 93 18 142q16 47 69 100l97 96h-350z" />
    <glyph glyph-name="eight.tf" 
d="M630 355q88 -22 88 -139v-50q0 -87 -40 -126.5t-126 -39.5h-352q-86 0 -126 39.5t-40 126.5v50q0 117 88 139q-78 25 -78 137v42q0 87 40 126.5t126 39.5h332q86 0 126 -39.5t40 -126.5v-42q0 -112 -78 -137zM294 484v-26q0 -19 6.5 -25.5t25.5 -6.5h100q19 0 25.5 6.5
t6.5 25.5v26q0 19 -6.5 25.5t-25.5 6.5h-100q-19 0 -25.5 -6.5t-6.5 -25.5zM468 216v34q0 19 -6.5 25.5t-25.5 6.5h-120q-19 0 -25.5 -6.5t-6.5 -25.5v-34q0 -19 6.5 -25.5t25.5 -6.5h120q19 0 25.5 6.5t6.5 25.5z" />
    <glyph glyph-name="nine.tf" 
d="M202 700h348q86 0 126 -39.5t40 -126.5v-324q0 -108 -51.5 -159t-158.5 -51h-440v196h354q26 0 36 10t10 36v39q-27 -31 -102 -31h-162q-86 0 -126 39.5t-40 126.5v118q0 87 40 126.5t126 39.5zM318 412h116q19 0 25.5 6.5t6.5 25.5v34q0 19 -6.5 25.5t-25.5 6.5h-116
q-19 0 -25.5 -6.5t-6.5 -25.5v-34q0 -19 6.5 -25.5t25.5 -6.5z" />
    <glyph glyph-name="zero.subs" horiz-adv-x="468" 
d="M312 -100h-156q-65 0 -96 31t-31 96v166q0 65 31 96t96 31h156q65 0 96 -31t31 -96v-166q0 -65 -31 -96t-96 -31zM209 30h50q15 0 20.5 6t5.5 20v108q0 14 -5.5 20t-20.5 6h-50q-15 0 -20.5 -6t-5.5 -20v-108q0 -14 5.5 -20t20.5 -6z" />
    <glyph glyph-name="one.subs" horiz-adv-x="430" 
d="M302 320v-297h109v-123h-392v123h128v160l-110 -10v129l192 18h73z" />
    <glyph glyph-name="two.subs" horiz-adv-x="468" 
d="M432 23v-123h-403v144q0 50 23.5 74t76.5 30l138 16q12 2 15 5t3 13v11q0 11 -3.5 14.5t-14.5 3.5h-64q-11 0 -14.5 -3.5t-3.5 -14.5v-19h-148v46q0 52 24.5 76t76.5 24h200q52 0 76.5 -24t24.5 -76v-52q0 -51 -23 -74.5t-77 -29.5l-138 -16q-12 -2 -15 -5t-3 -13v-7h249
z" />
    <glyph glyph-name="three.subs" horiz-adv-x="466" 
d="M385 113q54 -13 54 -84v-29q0 -52 -24 -76t-76 -24h-212q-52 0 -76 24t-24 76v61h148v-27q0 -11 3.5 -14.5t14.5 -3.5h74q11 0 14.5 3.5t3.5 14.5v12q0 11 -3.5 14.5t-14.5 3.5h-66v96h60q11 0 14.5 3.5t3.5 14.5v8q0 11 -3.5 14.5t-14.5 3.5h-62q-11 0 -14.5 -3.5
t-3.5 -14.5v-22h-148v56q0 52 24 76t76 24h200q52 0 76 -24t24 -76v-24q0 -66 -48 -83z" />
    <glyph glyph-name="four.subs" horiz-adv-x="484" 
d="M397 82h68v-115h-68v-67h-148v67h-230v97l205 256h173v-238zM249 182l-80 -100h80v100z" />
    <glyph glyph-name="five.subs" horiz-adv-x="449" 
d="M320 -100h-289v123h217q11 0 15 3.5t4 13.5v3q0 10 -4 13.5t-15 3.5h-217v260h371v-123h-217v-26h135q52 0 76 -24t24 -76v-71q0 -52 -24 -76t-76 -24z" />
    <glyph glyph-name="six.subs" horiz-adv-x="468" 
d="M244 167h94q52 0 76.5 -24t24.5 -76v-67q0 -52 -24.5 -76t-76.5 -24h-209q-52 0 -76 24t-24 76v193q0 65 31 96t96 31h265v-123h-212q-15 0 -20.5 -5.5t-5.5 -20.5v-22q17 18 61 18zM285 31v18q0 11 -3.5 15t-14.5 4h-66q-11 0 -14.5 -4t-3.5 -15v-18q0 -11 3.5 -14.5
t14.5 -3.5h66q11 0 14.5 3.5t3.5 14.5z" />
    <glyph glyph-name="seven.subs" horiz-adv-x="443" 
d="M423 320v-117h1l-136 -151q-19 -20 -19 -56v-96h-158v84q0 57 9 82q9 26 40 58l57 61h-198v135h404z" />
    <glyph glyph-name="eight.subs" horiz-adv-x="466" 
d="M385 113q54 -13 54 -84v-29q0 -52 -24 -76t-76 -24h-212q-52 0 -76 24t-24 76v29q0 71 54 84q-48 17 -48 83v24q0 52 24 76t76 24h200q52 0 76 -24t24 -76v-24q0 -66 -48 -83zM187 189v-15q0 -10 3.5 -14t14.5 -4h56q11 0 14.5 3.5t3.5 14.5v15q0 11 -3.5 14.5t-14.5 3.5
h-56q-11 0 -14.5 -3.5t-3.5 -14.5zM285 31v19q0 11 -3.5 14.5t-14.5 3.5h-68q-11 0 -14.5 -4t-3.5 -14v-19q0 -11 3.5 -14.5t14.5 -3.5h68q11 0 14.5 3.5t3.5 14.5z" />
    <glyph glyph-name="nine.subs" horiz-adv-x="468" 
d="M129 320h209q52 0 76.5 -24t24.5 -76v-193q0 -65 -31 -96t-96 -31h-265v121h212q15 0 20.5 5.5t5.5 19.5v22q-16 -19 -61 -19h-95q-52 0 -76 24.5t-24 76.5v70q0 52 24 76t76 24zM201 149h66q11 0 14.5 3.5t3.5 14.5v18q0 11 -3.5 14.5t-14.5 3.5h-66q-11 0 -14.5 -3.5
t-3.5 -14.5v-18q0 -11 3.5 -14.5t14.5 -3.5z" />
    <glyph glyph-name="zero.dnom" horiz-adv-x="468" 
d="M312 0h-156q-65 0 -96 31t-31 96v166q0 65 31 96t96 31h156q65 0 96 -31t31 -96v-166q0 -65 -31 -96t-96 -31zM209 130h50q15 0 20.5 6t5.5 20v108q0 14 -5.5 20t-20.5 6h-50q-15 0 -20.5 -6t-5.5 -20v-108q0 -14 5.5 -20t20.5 -6z" />
    <glyph glyph-name="one.dnom" horiz-adv-x="430" 
d="M302 420v-297h109v-123h-392v123h128v160l-110 -10v129l192 18h73z" />
    <glyph glyph-name="two.dnom" horiz-adv-x="468" 
d="M432 123v-123h-403v144q0 50 23.5 74t76.5 30l138 16q12 2 15 5t3 13v11q0 11 -3.5 14.5t-14.5 3.5h-64q-11 0 -14.5 -3.5t-3.5 -14.5v-19h-148v46q0 52 24.5 76t76.5 24h200q52 0 76.5 -24t24.5 -76v-52q0 -51 -23 -74.5t-77 -29.5l-138 -16q-12 -2 -15 -5t-3 -13v-7
h249z" />
    <glyph glyph-name="three.dnom" horiz-adv-x="466" 
d="M385 213q54 -13 54 -84v-29q0 -52 -24 -76t-76 -24h-212q-52 0 -76 24t-24 76v61h148v-27q0 -11 3.5 -14.5t14.5 -3.5h74q11 0 14.5 3.5t3.5 14.5v12q0 11 -3.5 14.5t-14.5 3.5h-66v96h60q11 0 14.5 3.5t3.5 14.5v8q0 11 -3.5 14.5t-14.5 3.5h-62q-11 0 -14.5 -3.5
t-3.5 -14.5v-22h-148v56q0 52 24 76t76 24h200q52 0 76 -24t24 -76v-24q0 -66 -48 -83z" />
    <glyph glyph-name="four.dnom" horiz-adv-x="484" 
d="M397 182h68v-115h-68v-67h-148v67h-230v97l205 256h173v-238zM249 282l-80 -100h80v100z" />
    <glyph glyph-name="five.dnom" horiz-adv-x="449" 
d="M320 0h-289v123h217q11 0 15 3.5t4 13.5v3q0 10 -4 13.5t-15 3.5h-217v260h371v-123h-217v-26h135q52 0 76 -24t24 -76v-71q0 -52 -24 -76t-76 -24z" />
    <glyph glyph-name="six.dnom" horiz-adv-x="468" 
d="M244 267h94q52 0 76.5 -24t24.5 -76v-67q0 -52 -24.5 -76t-76.5 -24h-209q-52 0 -76 24t-24 76v193q0 65 31 96t96 31h265v-123h-212q-15 0 -20.5 -5.5t-5.5 -20.5v-22q17 18 61 18zM285 131v18q0 11 -3.5 15t-14.5 4h-66q-11 0 -14.5 -4t-3.5 -15v-18q0 -11 3.5 -14.5
t14.5 -3.5h66q11 0 14.5 3.5t3.5 14.5z" />
    <glyph glyph-name="seven.dnom" horiz-adv-x="443" 
d="M423 420v-117h1l-136 -151q-19 -20 -19 -56v-96h-158v84q0 56 9 82t40 58l57 61h-198v135h404z" />
    <glyph glyph-name="eight.dnom" horiz-adv-x="466" 
d="M385 213q54 -13 54 -84v-29q0 -52 -24 -76t-76 -24h-212q-52 0 -76 24t-24 76v29q0 71 54 84q-48 17 -48 83v24q0 52 24 76t76 24h200q52 0 76 -24t24 -76v-24q0 -66 -48 -83zM187 289v-15q0 -10 3.5 -14t14.5 -4h56q11 0 14.5 3.5t3.5 14.5v15q0 11 -3.5 14.5t-14.5 3.5
h-56q-11 0 -14.5 -3.5t-3.5 -14.5zM285 131v19q0 11 -3.5 14.5t-14.5 3.5h-68q-11 0 -14.5 -4t-3.5 -14v-19q0 -11 3.5 -14.5t14.5 -3.5h68q11 0 14.5 3.5t3.5 14.5z" />
    <glyph glyph-name="nine.dnom" horiz-adv-x="468" 
d="M129 420h209q52 0 76.5 -24t24.5 -76v-193q0 -65 -31 -96t-96 -31h-265v121h212q15 0 20.5 5.5t5.5 19.5v22q-16 -19 -61 -19h-95q-52 0 -76 24.5t-24 76.5v70q0 52 24 76t76 24zM201 249h66q11 0 14.5 3.5t3.5 14.5v18q0 11 -3.5 14.5t-14.5 3.5h-66q-11 0 -14.5 -3.5
t-3.5 -14.5v-18q0 -11 3.5 -14.5t14.5 -3.5z" />
    <glyph glyph-name="zero.numr" horiz-adv-x="468" 
d="M312 280h-156q-65 0 -96 31t-31 96v166q0 65 31 96t96 31h156q65 0 96 -31t31 -96v-166q0 -65 -31 -96t-96 -31zM209 410h50q15 0 20.5 6t5.5 20v108q0 14 -5.5 20t-20.5 6h-50q-15 0 -20.5 -6t-5.5 -20v-108q0 -14 5.5 -20t20.5 -6z" />
    <glyph glyph-name="one.numr" horiz-adv-x="430" 
d="M302 700v-297h109v-123h-392v123h128v160l-110 -10v129l192 18h73z" />
    <glyph glyph-name="two.numr" horiz-adv-x="468" 
d="M432 403v-123h-403v144q0 50 23.5 74t76.5 30l138 16q12 2 15 5t3 13v11q0 11 -3.5 14.5t-14.5 3.5h-64q-11 0 -14.5 -3.5t-3.5 -14.5v-19h-148v46q0 52 24.5 76t76.5 24h200q52 0 76.5 -24t24.5 -76v-52q0 -51 -23 -74.5t-77 -29.5l-138 -16q-12 -2 -15 -5t-3 -13v-7
h249z" />
    <glyph glyph-name="three.numr" horiz-adv-x="466" 
d="M385 493q54 -13 54 -84v-29q0 -52 -24 -76t-76 -24h-212q-52 0 -76 24t-24 76v61h148v-27q0 -11 3.5 -14.5t14.5 -3.5h74q11 0 14.5 3.5t3.5 14.5v12q0 11 -3.5 14.5t-14.5 3.5h-66v96h60q11 0 14.5 3.5t3.5 14.5v8q0 11 -3.5 14.5t-14.5 3.5h-62q-11 0 -14.5 -3.5
t-3.5 -14.5v-22h-148v56q0 52 24 76t76 24h200q52 0 76 -24t24 -76v-24q0 -66 -48 -83z" />
    <glyph glyph-name="four.numr" horiz-adv-x="484" 
d="M397 462h68v-115h-68v-67h-148v67h-230v97l205 256h173v-238zM249 562l-80 -100h80v100z" />
    <glyph glyph-name="five.numr" horiz-adv-x="449" 
d="M320 280h-289v123h217q11 0 15 3.5t4 13.5v3q0 10 -4 13.5t-15 3.5h-217v260h371v-123h-217v-26h135q52 0 76 -24t24 -76v-71q0 -52 -24 -76t-76 -24z" />
    <glyph glyph-name="six.numr" horiz-adv-x="468" 
d="M244 547h94q52 0 76.5 -24t24.5 -76v-67q0 -52 -24.5 -76t-76.5 -24h-209q-52 0 -76 24t-24 76v193q0 65 31 96t96 31h265v-123h-212q-15 0 -20.5 -5.5t-5.5 -20.5v-22q17 18 61 18zM285 411v18q0 11 -3.5 15t-14.5 4h-66q-11 0 -14.5 -4t-3.5 -15v-18q0 -11 3.5 -14.5
t14.5 -3.5h66q11 0 14.5 3.5t3.5 14.5z" />
    <glyph glyph-name="seven.numr" horiz-adv-x="443" 
d="M423 700v-117h1l-136 -151q-19 -20 -19 -56v-96h-158v84q0 57 9 82q9 26 40 58l57 61h-198v135h404z" />
    <glyph glyph-name="eight.numr" horiz-adv-x="466" 
d="M385 493q54 -13 54 -84v-29q0 -52 -24 -76t-76 -24h-212q-52 0 -76 24t-24 76v29q0 71 54 84q-48 17 -48 83v24q0 52 24 76t76 24h200q52 0 76 -24t24 -76v-24q0 -66 -48 -83zM187 569v-15q0 -10 3.5 -14t14.5 -4h56q11 0 14.5 3.5t3.5 14.5v15q0 11 -3.5 14.5t-14.5 3.5
h-56q-11 0 -14.5 -3.5t-3.5 -14.5zM285 411v19q0 11 -3.5 14.5t-14.5 3.5h-68q-11 0 -14.5 -4t-3.5 -14v-19q0 -11 3.5 -14.5t14.5 -3.5h68q11 0 14.5 3.5t3.5 14.5z" />
    <glyph glyph-name="nine.numr" horiz-adv-x="468" 
d="M129 700h209q52 0 76.5 -24t24.5 -76v-193q0 -65 -31 -96t-96 -31h-265v121h212q15 0 20.5 5.5t5.5 19.5v22q-16 -19 -61 -19h-95q-52 0 -76 24.5t-24 76.5v70q0 52 24 76t76 24zM201 529h66q11 0 14.5 3.5t3.5 14.5v18q0 11 -3.5 14.5t-14.5 3.5h-66q-11 0 -14.5 -3.5
t-3.5 -14.5v-18q0 -11 3.5 -14.5t14.5 -3.5z" />
    <glyph glyph-name="zero.sups" horiz-adv-x="468" 
d="M312 380h-156q-65 0 -96 31t-31 96v166q0 65 31 96t96 31h156q65 0 96 -31t31 -96v-166q0 -65 -31 -96t-96 -31zM209 510h50q15 0 20.5 6t5.5 20v108q0 14 -5.5 20t-20.5 6h-50q-15 0 -20.5 -6t-5.5 -20v-108q0 -14 5.5 -20t20.5 -6z" />
    <glyph glyph-name="one.sups" horiz-adv-x="430" 
d="M302 800v-297h109v-123h-392v123h128v160l-110 -10v129l192 18h73z" />
    <glyph glyph-name="two.sups" horiz-adv-x="468" 
d="M432 503v-123h-403v144q0 50 23.5 74t76.5 30l138 16q12 2 15 5t3 13v11q0 11 -3.5 14.5t-14.5 3.5h-64q-11 0 -14.5 -3.5t-3.5 -14.5v-19h-148v46q0 52 24.5 76t76.5 24h200q52 0 76.5 -24t24.5 -76v-52q0 -51 -23 -74.5t-77 -29.5l-138 -16q-12 -2 -15 -5t-3 -13v-7
h249z" />
    <glyph glyph-name="three.sups" horiz-adv-x="466" 
d="M385 593q54 -13 54 -84v-29q0 -52 -24 -76t-76 -24h-212q-52 0 -76 24t-24 76v61h148v-27q0 -11 3.5 -14.5t14.5 -3.5h74q11 0 14.5 3.5t3.5 14.5v12q0 11 -3.5 14.5t-14.5 3.5h-66v96h60q11 0 14.5 3.5t3.5 14.5v8q0 11 -3.5 14.5t-14.5 3.5h-62q-11 0 -14.5 -3.5
t-3.5 -14.5v-22h-148v56q0 52 24 76t76 24h200q52 0 76 -24t24 -76v-24q0 -66 -48 -83z" />
    <glyph glyph-name="four.sups" horiz-adv-x="484" 
d="M397 562h68v-115h-68v-67h-148v67h-230v97l205 256h173v-238zM249 662l-80 -100h80v100z" />
    <glyph glyph-name="five.sups" horiz-adv-x="449" 
d="M320 380h-289v123h217q11 0 15 3.5t4 13.5v3q0 10 -4 13.5t-15 3.5h-217v260h371v-123h-217v-26h135q52 0 76 -24t24 -76v-71q0 -52 -24 -76t-76 -24z" />
    <glyph glyph-name="six.sups" horiz-adv-x="468" 
d="M244 647h94q52 0 76.5 -24t24.5 -76v-67q0 -52 -24.5 -76t-76.5 -24h-209q-52 0 -76 24t-24 76v193q0 65 31 96t96 31h265v-123h-212q-15 0 -20.5 -5.5t-5.5 -20.5v-22q17 18 61 18zM285 511v18q0 11 -3.5 15t-14.5 4h-66q-11 0 -14.5 -4t-3.5 -15v-18q0 -11 3.5 -14.5
t14.5 -3.5h66q11 0 14.5 3.5t3.5 14.5z" />
    <glyph glyph-name="seven.sups" horiz-adv-x="443" 
d="M423 800v-117h1l-136 -151q-19 -20 -19 -56v-96h-158v84q0 56 9 82t40 58l57 61h-198v135h404z" />
    <glyph glyph-name="eight.sups" horiz-adv-x="466" 
d="M385 593q54 -13 54 -84v-29q0 -52 -24 -76t-76 -24h-212q-52 0 -76 24t-24 76v29q0 71 54 84q-48 17 -48 83v24q0 52 24 76t76 24h200q52 0 76 -24t24 -76v-24q0 -66 -48 -83zM187 669v-15q0 -10 3.5 -14t14.5 -4h56q11 0 14.5 3.5t3.5 14.5v15q0 11 -3.5 14.5t-14.5 3.5
h-56q-11 0 -14.5 -3.5t-3.5 -14.5zM285 511v19q0 11 -3.5 14.5t-14.5 3.5h-68q-11 0 -14.5 -4t-3.5 -14v-19q0 -11 3.5 -14.5t14.5 -3.5h68q11 0 14.5 3.5t3.5 14.5z" />
    <glyph glyph-name="nine.sups" horiz-adv-x="468" 
d="M129 800h209q52 0 76.5 -24t24.5 -76v-193q0 -65 -31 -96t-96 -31h-265v121h212q15 0 20.5 5.5t5.5 19.5v22q-16 -19 -61 -19h-95q-52 0 -76 24.5t-24 76.5v70q0 52 24 76t76 24zM201 629h66q11 0 14.5 3.5t3.5 14.5v18q0 11 -3.5 14.5t-14.5 3.5h-66q-11 0 -14.5 -3.5
t-3.5 -14.5v-18q0 -11 3.5 -14.5t14.5 -3.5z" />
    <glyph glyph-name="numbersign.numr" horiz-adv-x="466" 
d="M441 615v-90h-63l-11 -70h48v-90h-63l-13 -85h-108l13 85h-62l-13 -85h-108l13 85h-49v90h64l11 70h-49v90h63l13 85h108l-13 -85h62l13 85h108l-13 -85h49zM197 455h62l11 70h-62z" />
    <glyph glyph-name="numbersign.tf" 
d="M722 556v-146h-108l-18 -120h82v-146h-105l-23 -144h-176l23 144h-106l-23 -144h-176l23 144h-85v146h108l18 120h-82v146h105l23 144h176l-23 -144h106l23 144h176l-23 -144h85zM314 290h106l18 120h-106z" />
    <glyph glyph-name="cent.numr" horiz-adv-x="468" 
d="M439 585v-41h-148v14q0 12 -4.5 16.5t-16.5 4.5h-66q-12 0 -16.5 -4.5t-4.5 -16.5v-68q0 -12 4.5 -16.5t16.5 -4.5h66q12 0 16.5 4.5t4.5 16.5v17h148v-44q0 -61 -27.5 -88t-87.5 -27h-42v-60h-94v60h-44q-60 0 -87.5 27t-27.5 88v122q0 61 27.5 88t87.5 27h44v60h94v-60
h42q60 0 87.5 -27t27.5 -88z" />
    <glyph glyph-name="dollar.numr" horiz-adv-x="467" 
d="M204 553l137 -13q55 -5 77.5 -27.5t22.5 -72.5v-60q0 -52 -24.5 -76t-76.5 -24h-60v-60h-93v60h-61q-52 0 -76 24t-24 76v41h148v-18q0 -11 3.5 -15t14.5 -4h77q11 0 14.5 4t3.5 15v10q0 10 -3.5 13.5t-14.5 4.5l-136 13q-55 5 -78 27.5t-23 72.5v56q0 52 24 76t76 24h55
v60h93v-60h52q52 0 76 -24t24 -76v-37h-147v14q0 11 -4 15t-15 4h-62q-11 0 -14.5 -4t-3.5 -15v-6q0 -10 3.5 -13.5t14.5 -4.5z" />
    <glyph glyph-name="Euro.numr" horiz-adv-x="480" 
d="M451 573v-58h-148v41q0 15 -5.5 20.5t-20.5 5.5h-50q-26 0 -26 -24h76v-58h-76v-20h76v-58h-76q0 -24 26 -24h50q15 0 20.5 5.5t5.5 20.5v45h148v-62q0 -65 -31 -96t-96 -31h-150q-65 0 -96 31t-31 96v15h-39v58h39v20h-39v58h39v15q0 65 31 96t96 31h150q65 0 96 -31
t31 -96z" />
    <glyph glyph-name="florin.numr" horiz-adv-x="418" 
d="M393 570h-68q-15 0 -20 -5t-7 -21l-4 -41h87v-98h-97l-9 -95q-7 -67 -37 -96.5t-92 -29.5h-121v130h68q15 0 20.5 5.5t7.5 21.5l7 64h-91v98h101l7 70q6 67 35.5 97t91.5 30h121v-130z" />
    <glyph glyph-name="sterling.numr" horiz-adv-x="480" 
d="M451 573v-46h-148v29q0 15 -5.5 20.5t-20.5 5.5h-51q-19 0 -19 -26v-19h70v-81h-70v-52h78q11 0 14.5 4t3.5 14v35h148v-77q0 -52 -24.5 -76t-76.5 -24h-336v124h39v52h-45v81h45v36q0 65 31 96t96 31h144q65 0 96 -31t31 -96z" />
    <glyph glyph-name="yen.numr" horiz-adv-x="466" 
d="M288 700h165l-117 -215h99v-65h-125v-26h125v-65h-125v-49h-154v49h-125v65h125v26h-125v65h100l-118 215h173l51 -112z" />
    <glyph glyph-name="cent.tf" 
d="M716 510v-63h-240v19q0 22 -8 30t-30 8h-114q-22 0 -30 -8t-8 -30v-102q0 -22 8 -30t30 -8h114q22 0 30 8t8 30v23h240v-67q0 -100 -45.5 -145t-144.5 -45h-72v-100h-152v100h-76q-99 0 -144.5 45t-45.5 145v190q0 100 45.5 145t144.5 45h76v100h152v-100h72
q99 0 144.5 -45t45.5 -145z" />
    <glyph glyph-name="dollar.tf" 
d="M324 454l230 -22q90 -9 128 -46t38 -120v-100q0 -87 -40 -126.5t-126 -39.5h-102v-100h-152v100h-102q-86 0 -126 39.5t-40 126.5v68h240v-32q0 -19 6.5 -25.5t25.5 -6.5h134q19 0 25.5 6.5t6.5 25.5v20q0 18 -6.5 24t-25.5 8l-230 22q-90 9 -128 46t-38 120v92
q0 87 40 126.5t126 39.5h92v100h152v-100h88q86 0 126 -39.5t40 -126.5v-60h-240v24q0 19 -6.5 25.5t-25.5 6.5h-110q-19 0 -25.5 -6.5t-6.5 -25.5v-12q0 -18 6.5 -24t25.5 -8z" />
    <glyph glyph-name="Euro.tf" 
d="M716 490v-96h-240v68q0 26 -10 36t-36 10h-78q-26 0 -36 -10t-10 -36h124v-94h-124v-36h124v-94h-124q0 -26 10 -36t36 -10h78q26 0 36 10t10 36v74h240v-102q0 -108 -51.5 -159t-158.5 -51h-240q-107 0 -158.5 51t-51.5 159v28h-56v94h56v36h-56v94h56v28
q0 108 51.5 159t158.5 51h240q107 0 158.5 -51t51.5 -159z" />
    <glyph glyph-name="florin.tf" 
d="M702 488h-133q-26 0 -35.5 -9.5t-12.5 -36.5l-7 -72h168v-160h-185l-16 -160q-12 -112 -60.5 -161t-151.5 -49h-219v212h133q26 0 35.5 9.5t12.5 36.5l11 112h-172v160h189l12 120q12 112 60.5 161t151.5 49h219v-212z" />
    <glyph glyph-name="sterling.tf" 
d="M716 490v-76h-240v48q0 26 -10 36t-36 10h-78q-19 0 -27.5 -10t-8.5 -36v-36h114v-132h-114v-92h128q19 0 25.5 6.5t6.5 25.5v58h240v-126q0 -87 -40 -126.5t-126 -39.5h-540v202h56v92h-66v132h66v64q0 108 51.5 159t158.5 51h230q107 0 158.5 -51t51.5 -159z" />
    <glyph glyph-name="yen.tf" 
d="M474 700h268l-199 -360h169v-106h-211v-46h211v-106h-211v-82h-250v82h-211v106h211v46h-211v106h169l-199 360h282l91 -197z" />
    <glyph glyph-name="percent.numr" horiz-adv-x="533" 
d="M173 502h-84q-63 0 -63 63v72q0 63 63 63h84q63 0 63 -63v-72q0 -63 -63 -63zM147 280h-73l311 420h74zM116 570h31q13 0 13 13v35q0 8 -2.5 10.5t-10.5 2.5h-31q-8 0 -10.5 -2.5t-2.5 -10.5v-35q0 -13 13 -13zM444 280h-85q-63 0 -63 63v72q0 63 63 63h85q63 0 63 -63
v-72q0 -63 -63 -63zM386 349h31q13 0 13 13v35q0 13 -13 13h-31q-13 0 -13 -13v-35q0 -13 13 -13z" />
    <glyph glyph-name="perthousand.numr" horiz-adv-x="767" 
d="M173 502h-84q-63 0 -63 63v72q0 63 63 63h84q63 0 63 -63v-72q0 -63 -63 -63zM147 280h-73l311 420h74zM116 570h31q13 0 13 13v35q0 8 -2.5 10.5t-10.5 2.5h-31q-8 0 -10.5 -2.5t-2.5 -10.5v-35q0 -13 13 -13zM444 280h-85q-63 0 -63 63v72q0 63 63 63h85q63 0 63 -63
v-72q0 -63 -63 -63zM678 280h-85q-63 0 -63 63v72q0 63 63 63h85q63 0 63 -63v-72q0 -63 -63 -63zM386 349h31q13 0 13 13v35q0 13 -13 13h-31q-13 0 -13 -13v-35q0 -13 13 -13zM620 349h31q13 0 13 13v35q0 13 -13 13h-31q-13 0 -13 -13v-35q0 -13 13 -13z" />
    <glyph glyph-name="percent.tf" horiz-adv-x="860" 
d="M275 370h-140q-105 0 -105 105v120q0 105 105 105h140q105 0 105 -105v-120q0 -105 -105 -105zM230 0h-120l520 700h120zM178 482h54q13 0 18 5t5 18v60q0 13 -4.5 18t-18.5 5h-54q-13 0 -18 -5t-5 -18v-60q0 -13 5 -18t18 -5zM725 0h-140q-105 0 -105 105v120
q0 105 105 105h140q105 0 105 -105v-120q0 -105 -105 -105zM628 112h54q13 0 18 5t5 18v60q0 13 -4.5 18t-18.5 5h-54q-13 0 -18 -5t-5 -18v-60q0 -13 5 -18t18 -5z" />
    <glyph glyph-name="perthousand.tf" horiz-adv-x="1250" 
d="M275 370h-140q-105 0 -105 105v120q0 105 105 105h140q105 0 105 -105v-120q0 -105 -105 -105zM230 0h-120l520 700h120zM178 482h54q13 0 18 5t5 18v60q0 13 -4.5 18t-18.5 5h-54q-13 0 -18 -5t-5 -18v-60q0 -13 5 -18t18 -5zM725 0h-140q-105 0 -105 105v120
q0 105 105 105h140q105 0 105 -105v-120q0 -105 -105 -105zM1115 0h-140q-105 0 -105 105v120q0 105 105 105h140q105 0 105 -105v-120q0 -105 -105 -105zM628 112h54q13 0 18 5t5 18v60q0 13 -4.5 18t-18.5 5h-54q-13 0 -18 -5t-5 -18v-60q0 -13 5 -18t18 -5zM1018 112h54
q13 0 18 5t5 18v60q0 13 -4.5 18t-18.5 5h-54q-13 0 -18 -5t-5 -18v-60q0 -13 5 -18t18 -5z" />
    <glyph glyph-name="brevecombcy" horiz-adv-x="0" 
d="M-116 570h-278q-76 0 -76 76v54h158v-18q0 -22 22 -22h70q22 0 22 22v18h158v-54q0 -76 -76 -76z" />
    <glyph glyph-name="ringacutecomb" horiz-adv-x="380" 
d="M378 700l-60 -67q22 -12 22 -49v-28q0 -30 -13 -43t-43 -13h-188q-30 0 -43 13t-13 43v28q0 30 13 43t43 13h10l24 60h248zM260 565v10q0 11 -3 14t-13 3h-108q-10 0 -13 -3t-3 -14v-10q0 -11 3 -14t13 -3h108q10 0 13 3t3 14z" />
    </font>
</defs>
</svg>
