<?xml version="1.0" standalone="no"?>
<!DOCTYPE svg PUBLIC "-//W3C//DTD SVG 1.1//EN" "http://www.w3.org/Graphics/SVG/1.1/DTD/svg11.dtd" >
<svg xmlns="http://www.w3.org/2000/svg" xmlns:xlink="http://www.w3.org/1999/xlink" version="1.1">
<metadata>
Created by FontForge 20170731 at Thu Jun 30 17:45:15 2016
 By Aleksey,,,
(c)2016 Richard Miller
</metadata>
<defs>
<font id="TacticSansExd-Med" horiz-adv-x="864" >
  <font-face 
    font-family="TacticSansExd-Med"
    font-weight="400"
    font-stretch="expanded"
    units-per-em="1000"
    panose-1="0 0 6 5 0 0 0 0 0 0"
    ascent="814"
    descent="-186"
    x-height="528"
    cap-height="700"
    bbox="-896 -196 1450 872"
    underline-thickness="50"
    underline-position="-200"
    unicode-range="U+0020-FB02"
  />
<missing-glyph horiz-adv-x="720" 
d="M10 0v700h700v-700h-700zM259 350l-169 -169l107 -107l169 169l169 -169l107 107l-169 169l169 169l-107 107l-169 -169l-169 169l-107 -107z" />
    <glyph glyph-name="ellipsis" unicode="&#x2e;&#x2e;&#x2e;" horiz-adv-x="968" 
d="M216 0h-152v144h152v-144zM560 0h-152v144h152v-144zM904 0h-152v144h152v-144z" />
    <glyph glyph-name="blackbox.liga" unicode="[&#x2b;]" horiz-adv-x="940" 
d="M120 0v700h700v-700h-700z" />
    <glyph glyph-name="checkbox.liga" unicode="[]" horiz-adv-x="940" 
d="M120 0v700h700v-700h-700zM750 633h-560v-566h560v566z" />
    <glyph glyph-name="checkround.liga" unicode="&#x28;&#x29;" horiz-adv-x="940" 
d="M726 95q-105 -105 -256 -105q-152 0 -255 105q-105 103 -105 255q0 151 105 256q104 104 255 104q150 0 256 -104q104 -106 104 -256q0 -151 -104 -255zM264 142q84 -85 206 -85t206 85q84 84 84 208q0 123 -84 209q-84 84 -206 84t-206 -84q-84 -86 -84 -209
q0 -124 84 -208z" />
    <glyph glyph-name="checkstar.liga" unicode="&#x7b;&#x7d;" horiz-adv-x="940" 
d="M378 437l92 283l92 -283h297l-240 -174l91 -283l-240 175l-240 -175l91 283l-240 174h297zM522 383l-52 161l-53 -161h-169l138 -99l-53 -162l137 100l136 -100l-52 162l137 99h-169z" />
    <glyph glyph-name="blackround.liga" unicode="&#x28;&#x2b;&#x29;" horiz-adv-x="940" 
d="M726 95q-105 -105 -256 -105q-152 0 -255 105q-105 103 -105 255q0 151 105 256q104 104 255 104q150 0 256 -104q104 -106 104 -256q0 -151 -104 -255z" />
    <glyph glyph-name="filledstar.liga" unicode="&#x7b;&#x2b;&#x7d;" horiz-adv-x="940" 
d="M378 437l92 283l92 -283h297l-240 -174l91 -283l-240 175l-240 -175l91 283l-240 174h297z" />
    <glyph glyph-name="ff.liga" unicode="ff" horiz-adv-x="1064" 
d="M1048 608h-220q-38 0 -53 -15t-15 -53v-75h288v-97h-288v-368h-126v368h-344v-368h-126v368h-148v97h148v93q0 74 34.5 108t107.5 34h232v-92h-180q-38 0 -53 -15t-15 -53v-75h344v93q0 74 34.5 108t107.5 34h272v-92z" />
    <glyph glyph-name=".notdef" horiz-adv-x="720" 
d="M10 0v700h700v-700h-700zM259 350l-169 -169l107 -107l169 169l169 -169l107 107l-169 169l169 169l-107 107l-169 -169l-169 169l-107 -107z" />
    <glyph glyph-name=".null" horiz-adv-x="0" 
 />
    <glyph glyph-name="nonmarkingreturn" horiz-adv-x="333" 
 />
    <glyph glyph-name="space" unicode=" " horiz-adv-x="300" 
 />
    <glyph glyph-name="exclam" unicode="!" horiz-adv-x="280" 
d="M92 204l-24 496h144l-24 -496h-96zM216 0h-152v128h152v-128z" />
    <glyph glyph-name="quotedbl" unicode="&#x22;" horiz-adv-x="440" 
d="M64 408v292h108v-292h-108zM268 408v292h108v-292h-108z" />
    <glyph glyph-name="numbersign" unicode="#" 
d="M812 467v-80h-159l-28 -154h145v-80h-159l-27 -153h-99l27 153h-216l-27 -153h-99l27 153h-145v80h159l28 154h-145v80h159l27 153h99l-27 -153h216l27 153h99l-27 -153h145zM310 233h216l28 154h-216z" />
    <glyph glyph-name="dollar" unicode="$" 
d="M267 428l393 -31q75 -6 108.5 -38.5t33.5 -103.5v-113q0 -73 -35 -107.5t-107 -34.5h-185v-100h-87v100h-184q-72 0 -107 34.5t-35 107.5v63h123v-37q0 -38 15 -53t53 -15h354q38 0 53 15t15 53v59q0 37 -14.5 51t-53.5 17l-393 31q-75 6 -108.5 38.5t-33.5 103.5v90
q0 73 35 107.5t107 34.5h174v100h87v-100h171q72 0 107 -34.5t35 -107.5v-49h-123v23q0 38 -15 53t-53 15h-330q-38 0 -53 -15t-15 -53v-36q0 -36 14.5 -50.5t53.5 -17.5z" />
    <glyph glyph-name="percent" unicode="%" horiz-adv-x="972" 
d="M318 306h-172q-104 0 -104 104v106q0 54 25.5 79t78.5 25h172q53 0 78.5 -25t25.5 -79v-106q0 -104 -104 -104zM216 0h-86l626 620h86zM169 372h126q28 0 39.5 12t11.5 40v78q0 28 -11.5 40t-39.5 12h-126q-28 0 -39.5 -12t-11.5 -40v-78q0 -28 11.5 -40t39.5 -12zM826 0
h-172q-104 0 -104 104v106q0 54 25.5 79t78.5 25h172q53 0 78.5 -25t25.5 -79v-106q0 -104 -104 -104zM677 66h126q28 0 39.5 12t11.5 40v78q0 28 -11.5 40t-39.5 12h-126q-28 0 -39.5 -12t-11.5 -40v-78q0 -28 11.5 -40t39.5 -12z" />
    <glyph glyph-name="ampersand" unicode="&#x26;" horiz-adv-x="943" 
d="M279 407h648v-87h-108v-178q0 -73 -35 -107.5t-107 -34.5h-481q-72 0 -107 34.5t-35 107.5v97q0 110 89 130q-59 29 -59 120v69q0 73 35 107.5t107 34.5h421q72 0 107 -34.5t35 -107.5v-47h-123v26q0 38 -15 53t-53 15h-319q-38 0 -53 -15t-15 -53v-62q0 -38 15 -53
t53 -15zM696 163v157h-447q-38 0 -53 -15t-15 -53v-89q0 -38 15 -53t53 -15h379q38 0 53 15t15 53z" />
    <glyph glyph-name="quotesingle" unicode="'" horiz-adv-x="236" 
d="M64 408v292h108v-292h-108z" />
    <glyph glyph-name="parenleft" unicode="(" horiz-adv-x="496" 
d="M464 -100h-170q-230 0 -230 230v440q0 230 230 230h170v-98h-151q-135 0 -135 -135v-434q0 -135 135 -135h151v-98z" />
    <glyph glyph-name="parenright" unicode=")" horiz-adv-x="496" 
d="M32 800h170q230 0 230 -230v-440q0 -230 -230 -230h-170v98h151q135 0 135 135v434q0 135 -135 135h-151v98z" />
    <glyph glyph-name="asterisk" unicode="*" horiz-adv-x="458" 
d="M389 612l25 -76l-133 -35l87 -107l-64 -47l-75 117l-75 -117l-64 47l87 107l-134 35l25 76l129 -50l-8 138h80l-8 -138z" />
    <glyph glyph-name="plus" unicode="+" 
d="M489 402h307v-104h-307v-252h-114v252h-307v104h307v252h114v-252z" />
    <glyph glyph-name="comma" unicode="," horiz-adv-x="280" 
d="M145 -160h-81l51 160h-51v144h152v-67q0 -52 -20 -97z" />
    <glyph glyph-name="hyphen" unicode="-" horiz-adv-x="516" 
d="M48 298v104h420v-104h-420z" />
    <glyph glyph-name="period" unicode="." horiz-adv-x="280" 
d="M216 0h-152v144h152v-144z" />
    <glyph glyph-name="slash" unicode="/" horiz-adv-x="527" 
d="M6 -100l428 900h87l-428 -900h-87z" />
    <glyph glyph-name="zero" unicode="0" 
d="M612 0h-360q-96 0 -141 45t-45 141v328q0 96 45 141t141 45h360q96 0 141 -45t45 -141v-328q0 -96 -45 -141t-141 -45zM294 106h276q55 0 77.5 22.5t22.5 77.5v288q0 55 -22.5 77.5t-77.5 22.5h-276q-55 0 -77.5 -22.5t-22.5 -77.5v-288q0 -55 22.5 -77.5t77.5 -22.5z
" />
    <glyph glyph-name="one" unicode="1" horiz-adv-x="804" 
d="M492 700v-598h274v-102h-728v102h326v486l-296 -24v106l364 30h60z" />
    <glyph glyph-name="two" unicode="2" 
d="M787 105v-105h-721v215q0 71 33.5 105t108.5 43l395 46q38 5 53 21t15 53v48q0 38 -15 53t-53 15h-332q-38 0 -53 -15t-15 -53v-34h-123v61q0 73 35 107.5t107 34.5h434q72 0 107 -34.5t35 -107.5v-97q0 -71 -33.5 -105t-108.5 -43l-395 -46q-39 -5 -53.5 -21t-14.5 -53
v-88h594z" />
    <glyph glyph-name="three" unicode="3" 
d="M723 366q77 -24 77 -127v-97q0 -73 -35 -107.5t-107 -34.5h-452q-72 0 -107 34.5t-35 107.5v85h123v-60q0 -38 15 -53t53 -15h350q38 0 53 15t15 53v82q0 38 -15 53t-53 15h-265v92h255q38 0 53 15.5t15 52.5v56q0 38 -15 53t-53 15h-330q-38 0 -53 -15t-15 -53v-52h-123
v77q0 73 35 107.5t107 34.5h432q72 0 107 -34.5t35 -107.5v-69q0 -98 -67 -123z" />
    <glyph glyph-name="four" unicode="4" horiz-adv-x="894" 
d="M676 260h180v-97h-180v-163h-126v163h-512v81l494 456h144v-440zM550 597l-365 -337h365v337z" />
    <glyph glyph-name="five" unicode="5" horiz-adv-x="834" 
d="M626 0h-556v105h503q38 0 53 15.5t15 52.5v83q0 38 -15 53t-53 15h-503v376h668v-105h-541v-168h429q72 0 107 -34.5t35 -107.5v-143q0 -73 -35 -107.5t-107 -34.5z" />
    <glyph glyph-name="six" unicode="6" 
d="M293 429h363q73 0 107.5 -34t34.5 -108v-145q0 -73 -35 -107.5t-107 -34.5h-448q-72 0 -107 34.5t-35 107.5v372q0 96 45 141t141 45h516v-105h-475q-55 0 -77.5 -22.5t-22.5 -77.5v-99q29 33 100 33zM671 169v92q0 38 -15 53t-53 15h-342q-38 0 -53 -15t-15 -53v-92
q0 -38 15 -53t53 -15h342q38 0 53 15t15 53z" />
    <glyph glyph-name="seven" unicode="7" horiz-adv-x="824" 
d="M38 590v110h748v-94l-296 -276q-39 -36 -51 -69q-12 -34 -12 -97v-164h-130v164q0 86 18 132q17 48 69 94l222 200h-568z" />
    <glyph glyph-name="eight" unicode="8" 
d="M723 366q77 -24 77 -127v-97q0 -73 -35 -107.5t-107 -34.5h-452q-72 0 -107 34.5t-35 107.5v97q0 103 77 127q-67 25 -67 123v69q0 73 35 107.5t107 34.5h432q72 0 107 -34.5t35 -107.5v-69q0 -98 -67 -123zM201 535v-60q0 -38 15 -53t53 -15h326q38 0 53 15t15 53v60
q0 38 -15 53t-53 15h-326q-38 0 -53 -15t-15 -53zM673 165v87q0 38 -15 53t-53 15h-346q-38 0 -53 -15t-15 -53v-87q0 -38 15 -53t53 -15h346q38 0 53 15t15 53z" />
    <glyph glyph-name="nine" unicode="9" 
d="M208 700h448q72 0 107 -34.5t35 -107.5v-372q0 -96 -45 -141t-141 -45h-516v105h475q55 0 77.5 22.5t22.5 77.5v92q-29 -33 -100 -33h-363q-73 0 -107.5 34t-34.5 108v152q0 73 35 107.5t107 34.5zM261 364h342q38 0 53 15t15 53v99q0 38 -15 53t-53 15h-342
q-38 0 -53 -15t-15 -53v-99q0 -38 15 -53t53 -15z" />
    <glyph glyph-name="colon" unicode=":" horiz-adv-x="280" 
d="M216 396h-152v132h152v-132zM216 0h-152v132h152v-132z" />
    <glyph glyph-name="semicolon" unicode=";" horiz-adv-x="280" 
d="M216 396h-152v132h152v-132zM145 -160h-81l51 160h-51v132h152v-55q0 -52 -20 -97z" />
    <glyph glyph-name="less" unicode="&#x3c;" 
d="M68 402l728 248v-111l-584 -188l584 -189v-112l-728 248v104z" />
    <glyph glyph-name="equal" unicode="=" 
d="M68 426v100h728v-100h-728zM68 174v100h728v-100h-728z" />
    <glyph glyph-name="greater" unicode="&#x3e;" 
d="M68 538v112l728 -248v-104l-728 -248v111l584 189z" />
    <glyph glyph-name="question" unicode="?" horiz-adv-x="797" 
d="M427 192h-120v75q0 63 26.5 93.5t93.5 43.5l131 21q36 7 52 24t16 50v34q0 36 -15 51t-52 15h-326q-37 0 -51.5 -15t-14.5 -51v-41h-123v66q0 73 35 107.5t107 34.5h425q72 0 107 -34.5t35 -107.5v-67q0 -66 -33 -102t-105 -50l-129 -21q-33 -6 -46 -22t-13 -50v-54z
M442 0h-151v116h151v-116z" />
    <glyph glyph-name="at" unicode="@" horiz-adv-x="1006" 
d="M241 700h524q96 0 141 -45t45 -141v-222q0 -65 -29 -93.5t-93 -28.5h-91q-72 0 -91 49l-12 -8q-39 -29 -67 -36q-28 -9 -80 -9h-156q-119 0 -97 121l23 131q11 63 41.5 89.5t90.5 26.5h154q51 0 78.5 -9.5t55.5 -37.5l3 -3l16 42h78l-42 -241q-4 -25 4 -36t31 -11h44
q35 0 47.5 12t12.5 47v212q0 68 -27.5 95.5t-95.5 27.5h-493q-68 0 -95.5 -27.5t-27.5 -95.5v-318q0 -68 27.5 -95.5t95.5 -27.5h631v-68h-646q-96 0 -141 45t-45 141v328q0 96 45 141t141 45zM613 263l25 17l25 142l-19 16q-28 23 -85 23h-149q-31 0 -43.5 -11.5
t-17.5 -44.5l-19 -108q-7 -33 2 -45.5t42 -12.5h151q53 0 88 24z" />
    <glyph glyph-name="A" unicode="A" horiz-adv-x="923" 
d="M925 0h-148l-83 156h-468l-83 -156h-141l390 700h144zM460 597l-180 -340h361z" />
    <glyph glyph-name="B" unicode="B" horiz-adv-x="885" 
d="M754 367q83 -21 83 -128v-97q0 -73 -35 -107.5t-107 -34.5h-631v700h611q72 0 107 -34.5t35 -107.5v-69q0 -93 -63 -122zM618 600h-423v-192h423q38 0 53 15t15 53v56q0 38 -15 53t-53 15zM706 168v83q0 38 -15 53t-53 15h-443v-219h443q38 0 53 15t15 53z" />
    <glyph glyph-name="C" unicode="C" horiz-adv-x="896" 
d="M659 0h-418q-96 0 -141 45t-45 141v328q0 96 45 141t141 45h418q96 0 141 -45t45 -141v-74h-128v52q0 55 -22.5 77.5t-77.5 22.5h-330q-55 0 -77.5 -22.5t-22.5 -77.5v-284q0 -55 22.5 -77.5t77.5 -22.5h330q55 0 77.5 22.5t22.5 77.5v61h128v-83q0 -96 -45 -141
t-141 -45z" />
    <glyph glyph-name="D" unicode="D" horiz-adv-x="923" 
d="M638 0h-574v700h574q112 0 171 -58.5t59 -171.5v-240q0 -113 -59 -171.5t-171 -58.5zM196 590v-480h412q128 0 128 128v224q0 128 -128 128h-412z" />
    <glyph glyph-name="E" unicode="E" horiz-adv-x="801" 
d="M195 314v-207h574v-107h-705v700h695v-107h-564v-181h524v-98h-524z" />
    <glyph glyph-name="F" unicode="F" horiz-adv-x="765" 
d="M749 700v-112h-554v-199h514v-106h-514v-283h-131v700h685z" />
    <glyph glyph-name="G" unicode="G" horiz-adv-x="922" 
d="M55 186v328q0 96 45 141t141 45h440q96 0 141 -45t45 -141v-42h-130v21q0 55 -22.5 77.5t-77.5 22.5h-352q-55 0 -77.5 -22.5t-22.5 -77.5v-289q0 -55 22.5 -77.5t77.5 -22.5h356q55 0 77.5 22.5t22.5 77.5v72h-263v99h389v-189q0 -96 -45 -141t-141 -45h-440
q-96 0 -141 45t-45 141z" />
    <glyph glyph-name="H" unicode="H" horiz-adv-x="912" 
d="M716 423v277h132v-700h-132v309h-520v-309h-132v700h132v-277h520z" />
    <glyph glyph-name="I" unicode="I" horiz-adv-x="272" 
d="M69 0v700h134v-700h-134z" />
    <glyph glyph-name="J" unicode="J" horiz-adv-x="820" 
d="M578 0h-360q-96 0 -141 45t-45 141v82h128v-60q0 -55 22.5 -77.5t77.5 -22.5h272q55 0 77.5 22.5t22.5 77.5v492h132v-514q0 -96 -45 -141t-141 -45z" />
    <glyph glyph-name="K" unicode="K" horiz-adv-x="858" 
d="M368 362l484 -362h-211l-446 344v-344h-131v700h131v-327l441 327h212z" />
    <glyph glyph-name="L" unicode="L" horiz-adv-x="736" 
d="M196 700v-586h524v-114h-656v700h132z" />
    <glyph glyph-name="M" unicode="M" horiz-adv-x="1040" 
d="M523 261l341 439h112v-700h-126v506l-294 -372h-72l-294 372v-506h-126v700h117z" />
    <glyph glyph-name="N" unicode="N" horiz-adv-x="932" 
d="M740 174v526h128v-700h-106l-570 532v-532h-128v700h112z" />
    <glyph glyph-name="O" unicode="O" horiz-adv-x="924" 
d="M683 0h-442q-96 0 -141 45t-45 141v328q0 96 45 141t141 45h442q96 0 141 -45t45 -141v-328q0 -96 -45 -141t-141 -45zM287 110h350q55 0 77.5 22.5t22.5 77.5v280q0 55 -22.5 77.5t-77.5 22.5h-350q-55 0 -77.5 -22t-22.5 -78v-280q0 -56 22.5 -78t77.5 -22z" />
    <glyph glyph-name="P" unicode="P" horiz-adv-x="860" 
d="M196 0h-132v700h598q88 0 127 -38.5t39 -127.5v-128q0 -89 -39 -127.5t-127 -38.5h-466v-240zM196 598v-260h415q49 0 67 17.5t18 66.5v92q0 49 -18 66.5t-67 17.5h-415z" />
    <glyph glyph-name="Q" unicode="Q" horiz-adv-x="924" 
d="M869 514v-328q0 -93 -42 -138t-131 -48l131 -140h-146l-124 140h-316q-96 0 -141 45t-45 141v328q0 96 45 141t141 45h442q96 0 141 -45t45 -141zM737 210v280q0 55 -22.5 77.5t-77.5 22.5h-350q-55 0 -77.5 -22t-22.5 -78v-280q0 -56 22.5 -78t77.5 -22h350
q55 0 77.5 22.5t22.5 77.5z" />
    <glyph glyph-name="R" unicode="R" horiz-adv-x="884" 
d="M644 268l214 -268h-155l-206 262h-301v-262h-132v700h598q88 0 127 -38.5t39 -127.5v-98q0 -89 -39 -127.5t-127 -38.5zM611 602h-415v-244h415q49 0 67 17.5t18 66.5v76q0 49 -18 66.5t-67 17.5z" />
    <glyph glyph-name="S" unicode="S" horiz-adv-x="902" 
d="M55 142v63h126v-36q0 -37 15.5 -52.5t52.5 -15.5h400q37 0 52.5 15.5t15.5 52.5v57q0 36 -14.5 50t-53.5 18l-442 31q-76 6 -109 38.5t-33 103.5v91q0 73 34.5 107.5t107.5 34.5h484q73 0 107.5 -34.5t34.5 -107.5v-49h-126v22q0 37 -15.5 52.5t-52.5 15.5h-376
q-37 0 -52.5 -15.5t-15.5 -52.5v-34q0 -36 14.5 -50t53.5 -18l442 -30q76 -6 109 -38.5t33 -103.5v-115q0 -73 -34.5 -107.5t-107.5 -34.5h-508q-73 0 -107.5 34.5t-34.5 107.5z" />
    <glyph glyph-name="T" unicode="T" horiz-adv-x="800" 
d="M16 700h768v-114h-318v-586h-132v586h-318v114z" />
    <glyph glyph-name="U" unicode="U" horiz-adv-x="897" 
d="M654 0h-412q-96 0 -141 45t-45 141v514h132v-488q0 -55 22.5 -77.5t77.5 -22.5h320q56 0 78 22t22 78v488h132v-514q0 -96 -45 -141t-141 -45z" />
    <glyph glyph-name="V" unicode="V" horiz-adv-x="900" 
d="M454 133l302 567h142l-386 -700h-124l-386 700h149z" />
    <glyph glyph-name="W" unicode="W" horiz-adv-x="1258" 
d="M900 161l216 539h140l-295 -700h-115l-217 526l-217 -526h-115l-295 700h147l215 -540l217 540h101z" />
    <glyph glyph-name="X" unicode="X" horiz-adv-x="875" 
d="M167 0h-161l344 356l-334 344h171l255 -274l253 274h164l-334 -344l344 -356h-171l-264 286z" />
    <glyph glyph-name="Y" unicode="Y" horiz-adv-x="856" 
d="M704 700h156l-366 -443v-257h-132v257l-366 443h163l273 -340z" />
    <glyph glyph-name="Z" unicode="Z" horiz-adv-x="872" 
d="M830 0h-788v88l573 502h-553v110h768v-88l-573 -502h573v-110z" />
    <glyph glyph-name="bracketleft" unicode="[" horiz-adv-x="476" 
d="M444 -100h-380v900h380v-98h-266v-704h266v-98z" />
    <glyph glyph-name="backslash" unicode="\" horiz-adv-x="527" 
d="M6 800h87l428 -900h-87z" />
    <glyph glyph-name="bracketright" unicode="]" horiz-adv-x="476" 
d="M32 800h380v-900h-380v98h266v704h-266v98z" />
    <glyph glyph-name="asciicircum" unicode="^" 
d="M482 700l324 -420h-128l-245 321l-245 -321h-130l324 420h100z" />
    <glyph glyph-name="underscore" unicode="_" horiz-adv-x="764" 
d="M0 -126v86h764v-86h-764z" />
    <glyph glyph-name="grave" unicode="`" horiz-adv-x="353" 
d="M321 576h-111l-146 124h142z" />
    <glyph glyph-name="a" unicode="a" horiz-adv-x="788" 
d="M220 528h343q88 0 127 -38.5t39 -127.5v-362h-102l-14 71l-17 -13q-47 -38 -80 -48t-105 -10h-233q-124 0 -124 124v55q0 124 124 124h427v52q0 48 -18.5 66t-67.5 18h-253q-38 0 -53 -15t-15 -53v-19h-120v34q0 73 35 107.5t107 34.5zM559 114l46 34v83h-366
q-34 0 -47.5 -13.5t-13.5 -47.5v-26q0 -34 13.5 -47.5t47.5 -13.5h210q67 0 110 31z" />
    <glyph glyph-name="b" unicode="b" horiz-adv-x="803" 
d="M398 528h185q88 0 127 -38.5t39 -127.5v-196q0 -89 -39 -127.5t-127 -38.5h-185q-76 0 -116 12q-41 12 -92 54l-9 7l-14 -73h-104v700h126v-239l1 1q51 42 92 54q40 12 116 12zM624 183v162q0 49 -18 67t-67 18h-180q-83 0 -130 -35l-40 -30v-202l40 -30q47 -35 130 -35
h180q49 0 67 18t18 67z" />
    <glyph glyph-name="c" unicode="c" horiz-adv-x="770" 
d="M54 166v196q0 89 39 127.5t127 38.5h330q88 0 127 -38.5t39 -127.5v-41h-122v24q0 49 -17.5 67t-66.5 18h-246q-49 0 -66.5 -18t-17.5 -67v-162q0 -49 17.5 -67t66.5 -18h246q49 0 66.5 18t17.5 67v32h122v-49q0 -89 -39 -127.5t-127 -38.5h-330q-88 0 -127 38.5
t-39 127.5z" />
    <glyph glyph-name="d" unicode="d" horiz-adv-x="803" 
d="M614 461v239h126v-700h-104l-14 73l-9 -7q-51 -42 -91 -54t-116 -12h-186q-88 0 -127 38.5t-39 127.5v196q0 89 39 127.5t127 38.5h186q76 0 116 -12t91 -54zM575 133l39 30v202l-39 30q-49 35 -131 35h-180q-49 0 -66.5 -18t-17.5 -67v-162q0 -49 17.5 -67t66.5 -18h180
q82 0 131 35z" />
    <glyph glyph-name="e" unicode="e" horiz-adv-x="783" 
d="M220 528h343q88 0 127 -38.5t39 -127.5v-114h-551v-67q0 -49 18 -67t67 -18h278q37 0 52.5 15.5t15.5 52.5v23h120v-45q0 -73 -35 -107.5t-107 -34.5h-367q-88 0 -127 38.5t-39 127.5v196q0 89 39 127.5t127 38.5zM178 354v-28h431v28q0 49 -18.5 67t-67.5 18h-260
q-49 0 -67 -18t-18 -67z" />
    <glyph glyph-name="f" unicode="f" horiz-adv-x="593" 
d="M577 603h-221q-38 0 -53 -15.5t-15 -52.5v-70h289v-97h-289v-368h-124v368h-148v97h148v93q0 73 35 107.5t107 34.5h271v-97z" />
    <glyph glyph-name="g" unicode="g" horiz-adv-x="802" 
d="M623 455l14 73h102v-502q0 -96 -45 -141t-141 -45h-479v92h440q55 0 77.5 22.5t22.5 77.5v72l-1 -1q-50 -41 -92 -53q-42 -13 -116 -13h-185q-88 0 -127 38.5t-39 127.5v159q0 89 39 127.5t127 38.5h185q74 0 116 -12t92 -53zM575 168l39 29v171l-39 30q-46 34 -131 34
h-181q-49 0 -67 -18t-18 -67v-129q0 -49 18 -67t67 -18h181q82 0 131 35z" />
    <glyph glyph-name="h" unicode="h" horiz-adv-x="798" 
d="M402 528h171q88 0 127 -38.5t39 -127.5v-362h-125v342q0 49 -18 67t-67 18h-170q-86 0 -130 -34l-40 -30v-363h-126v700h126v-242l5 4q51 42 92 54t116 12z" />
    <glyph glyph-name="i" unicode="i" horiz-adv-x="260" 
d="M193 601h-126v99h126v-99zM193 0h-126v528h126v-528z" />
    <glyph glyph-name="j" unicode="j" horiz-adv-x="300" 
d="M233 601h-126v99h126v-99zM91 -160h-153v95h101q38 0 53 15t15 53v525h126v-546q0 -73 -34.5 -107.5t-107.5 -34.5z" />
    <glyph glyph-name="k" unicode="k" horiz-adv-x="750" 
d="M357 266l395 -266h-208l-356 250v-250h-125v700h125v-423l352 251h206z" />
    <glyph glyph-name="l" unicode="l" horiz-adv-x="262" 
d="M194 0h-127v700h127v-700z" />
    <glyph glyph-name="m" unicode="m" horiz-adv-x="1277" 
d="M912 528h140q88 0 127 -38.5t39 -127.5v-362h-126v342q0 49 -18 67t-67 18h-134q-84 0 -130 -34l-40 -30v-363h-125v342q0 49 -18 67t-67 18h-134q-86 0 -130 -34l-40 -30v-363h-126v528h104l14 -73l9 7q51 42 92 54q40 12 116 12h139q121 0 152 -78l15 12q51 42 92 54
q40 12 116 12z" />
    <glyph glyph-name="n" unicode="n" horiz-adv-x="798" 
d="M398 528h175q88 0 127 -38.5t39 -127.5v-362h-125v342q0 49 -18 67t-67 18h-170q-86 0 -130 -34l-40 -30v-363h-126v528h104l14 -73l9 7q51 42 92 54q40 12 116 12z" />
    <glyph glyph-name="o" unicode="o" horiz-adv-x="794" 
d="M574 0h-354q-88 0 -127 38.5t-39 127.5v196q0 89 39 127.5t127 38.5h354q88 0 127 -38.5t39 -127.5v-196q0 -89 -39 -127.5t-127 -38.5zM264 98h266q49 0 66.5 18t17.5 67v162q0 49 -17.5 67t-66.5 18h-266q-49 0 -66.5 -18t-17.5 -67v-162q0 -49 17.5 -67t66.5 -18z" />
    <glyph glyph-name="p" unicode="p" horiz-adv-x="803" 
d="M398 528h185q88 0 127 -38.5t39 -127.5v-196q0 -89 -39 -127.5t-127 -38.5h-185q-76 0 -116 12q-41 12 -92 54l-1 1v-227h-126v688h104l14 -73l9 7q51 42 92 54q40 12 116 12zM624 183v162q0 49 -18 67t-67 18h-180q-83 0 -130 -35l-40 -30v-202l40 -30q47 -35 130 -35
h180q49 0 67 18t18 67z" />
    <glyph glyph-name="q" unicode="q" horiz-adv-x="803" 
d="M622 455l14 73h104v-688h-126v227l-1 -1q-51 -42 -89 -54q-39 -12 -114 -12h-190q-88 0 -127 38.5t-39 127.5v196q0 89 39 127.5t127 38.5h186q76 0 116 -12t91 -54zM575 133l39 30v202l-39 30q-49 35 -131 35h-180q-49 0 -66.5 -18t-17.5 -67v-162q0 -49 17.5 -67
t66.5 -18h180q82 0 131 35z" />
    <glyph glyph-name="r" unicode="r" horiz-adv-x="530" 
d="M394 528h120v-111h-155q-86 0 -130 -34l-40 -30v-353h-126v528h92l15 -78l16 12q51 42 92 54t116 12z" />
    <glyph glyph-name="s" unicode="s" horiz-adv-x="773" 
d="M54 116v50h120v-35q0 -24 10 -34t35 -10h331q24 0 34.5 10t10.5 34v42q0 23 -10.5 33t-34.5 12l-371 26q-115 9 -115 115v54q0 56 30 85.5t85 29.5h410q55 0 85.5 -30t30.5 -86v-45h-120v30q0 24 -10.5 34t-34.5 10h-307q-25 0 -35 -10t-10 -34v-17q0 -24 10.5 -34
t34.5 -12l370 -26q116 -11 116 -115v-78q0 -56 -30.5 -85.5t-85.5 -29.5h-434q-55 0 -85 30t-30 86z" />
    <glyph glyph-name="t" unicode="t" horiz-adv-x="614" 
d="M588 528v-97h-298v-265q0 -38 15 -53t53 -15h230v-98h-282q-73 0 -107.5 34t-34.5 108v289h-148v97h148l25 120h101v-120h298z" />
    <glyph glyph-name="u" unicode="u" horiz-adv-x="798" 
d="M609 528h126v-528h-104l-14 73l-9 -7q-51 -42 -91 -54q-41 -12 -117 -12h-175q-88 0 -127 38.5t-39 127.5v362h125v-342q0 -49 18 -67t67 -18h170q86 0 130 34l40 30v363z" />
    <glyph glyph-name="v" unicode="v" horiz-adv-x="758" 
d="M382 127l230 401h142l-320 -528h-110l-320 528h147z" />
    <glyph glyph-name="w" unicode="w" horiz-adv-x="1058" 
d="M754 140l166 388h132l-244 -528h-107l-171 387l-171 -387h-109l-244 528h137l168 -387l172 387h97z" />
    <glyph glyph-name="x" unicode="x" horiz-adv-x="757" 
d="M165 0h-163l288 269l-278 259h171l199 -197l199 197h164l-278 -259l288 -269h-172l-208 207z" />
    <glyph glyph-name="y" unicode="y" horiz-adv-x="758" 
d="M381 122l231 406h142l-328 -540q-55 -90 -106 -119q-53 -29 -157 -29h-109v98h120q56 0 84 15q27 16 56 64l-310 511h147z" />
    <glyph glyph-name="z" unicode="z" horiz-adv-x="758" 
d="M718 0h-678v74l470 360h-450v94h658v-74l-470 -360h470v-94z" />
    <glyph glyph-name="braceleft" unicode="{" horiz-adv-x="564" 
d="M276 601v-145q0 -80 -57 -106q57 -28 57 -107v-144q0 -53 24 -77t77 -24h155v-98h-180q-96 0 -143 46.5t-47 143.5v159q0 56 -56 56h-74v90h74q56 0 56 55v160q0 97 47 143.5t143 46.5h180v-98h-155q-53 0 -77 -24t-24 -77z" />
    <glyph glyph-name="bar" unicode="|" horiz-adv-x="252" 
d="M74 -100v900h104v-900h-104z" />
    <glyph glyph-name="braceright" unicode="}" horiz-adv-x="564" 
d="M458 395h74v-90h-74q-56 0 -56 -55v-160q0 -97 -47 -143.5t-143 -46.5h-180v98h155q53 0 77 24t24 77v145q0 80 57 106q-57 28 -57 107v144q0 53 -24 77t-77 24h-155v98h180q96 0 143 -46.5t47 -143.5v-159q0 -56 56 -56z" />
    <glyph glyph-name="asciitilde" unicode="~" 
d="M385 452l192 -154q23 -21 55 -21h23q18 0 25.5 7.5t7.5 25.5v194h108v-214q0 -51 -21.5 -72.5t-72.5 -21.5h-91q-48 0 -71 10q-25 9 -61 42l-192 154q-23 21 -55 21h-23q-18 0 -25.5 -7.5t-7.5 -25.5v-194h-108v214q0 51 21.5 72.5t72.5 21.5h91q47 0 72 -9
q26 -11 60 -43z" />
    <glyph glyph-name="exclamdown" unicode="&#xa1;" horiz-adv-x="280" 
d="M64 700h152v-128h-152v128zM188 496l24 -496h-144l24 496h96z" />
    <glyph glyph-name="cent" unicode="&#xa2;" 
d="M798 534v-55h-124v36q0 49 -18 67t-67 18h-310q-49 0 -67 -18t-18 -67v-200q0 -49 18 -67t67 -18h310q49 0 67 18t18 67v43h124v-62q0 -89 -39 -127.5t-127 -38.5h-154v-100h-88v100h-158q-88 0 -127 38.5t-39 127.5v238q0 89 39 127.5t127 38.5h158v100h88v-100h154
q88 0 127 -38.5t39 -127.5z" />
    <glyph glyph-name="sterling" unicode="&#xa3;" horiz-adv-x="892" 
d="M826 514v-60h-124v48q0 55 -22.5 77.5t-77.5 22.5h-264q-52 0 -74 -22.5t-22 -77.5v-109h340v-74h-340v-217h392q38 0 53 15t15 53v68h124v-96q0 -74 -34.5 -108t-107.5 -34h-668v102h98v217h-108v74h108v121q0 96 45 141t141 45h340q96 0 141 -45t45 -141z" />
    <glyph glyph-name="currency" unicode="&#xa4;" 
d="M739 432v-164q0 -45 -13 -74l97 -97l-59 -59l-90 90q-41 -28 -103 -28h-278q-62 0 -103 28l-90 -90l-59 59l97 97q-13 29 -13 74v164q0 45 13 74l-97 97l59 59l90 -90q41 28 103 28h278q62 0 103 -28l90 90l59 -59l-97 -97q13 -29 13 -74zM325 196h214q49 0 71.5 22.5
t22.5 71.5v120q0 49 -22.5 71.5t-71.5 22.5h-214q-49 0 -71.5 -22.5t-22.5 -71.5v-120q0 -49 22.5 -71.5t71.5 -22.5z" />
    <glyph glyph-name="yen" unicode="&#xa5;" 
d="M685 700h151l-302 -389h272v-64h-310v-90h310v-64h-310v-93h-128v93h-310v64h310v90h-310v64h272l-302 389h158l249 -340z" />
    <glyph glyph-name="brokenbar" unicode="&#xa6;" horiz-adv-x="252" 
d="M74 478v322h104v-322h-104zM74 -100v322h104v-322h-104z" />
    <glyph glyph-name="section" unicode="&#xa7;" horiz-adv-x="1041" 
d="M362 544l491 -40q72 -7 103 -38.5t31 -99.5v-71q0 -130 -115 -137q5 -20 5 -49v-67q0 -73 -35 -107.5t-107 -34.5h-419q-72 0 -107 34.5t-35 107.5v50h127v-29q0 -38 15 -53t53 -15h310q37 0 52 15t15 52v27q0 35 -14.5 49t-52.5 18l-491 40q-72 7 -103 38.5t-31 99.5v71
q0 66 27.5 98.5t87.5 37.5q-5 28 -5 50v67q0 73 35 107.5t107 34.5h419q72 0 107 -34.5t35 -107.5v-50h-127v29q0 37 -15 52.5t-53 15.5h-310q-37 0 -52 -15t-15 -52v-27q0 -36 14 -49.5t53 -17.5zM248 290l491 -39q29 -3 57 -11q33 1 46.5 15t13.5 48v44q0 33 -13.5 46
t-49.5 17l-491 39q-29 3 -57 11q-33 -1 -46.5 -15t-13.5 -48v-44q0 -33 13.5 -46t49.5 -17z" />
    <glyph glyph-name="dieresis" unicode="&#xa8;" horiz-adv-x="432" 
d="M166 588h-102v88h102v-88zM392 588h-102v88h102v-88z" />
    <glyph glyph-name="copyright" unicode="&#xa9;" horiz-adv-x="924" 
d="M661 0h-398q-105 0 -164 58.5t-59 164.5v254q0 106 59 164.5t164 58.5h398q105 0 164 -58.5t59 -164.5v-254q0 -106 -59 -164.5t-164 -58.5zM273 50h378q179 0 179 179v242q0 179 -179 179h-378q-179 0 -179 -179v-242q0 -179 179 -179zM627 132h-330q-62 0 -91.5 29
t-29.5 92v194q0 63 29.5 92t91.5 29h330q62 0 91.5 -29t29.5 -92v-46h-95v31q0 32 -12 44.5t-44 12.5h-268q-32 0 -44 -12.5t-12 -44.5v-164q0 -32 12 -44.5t44 -12.5h268q32 0 44 12.5t12 44.5v36h95v-51q0 -63 -29.5 -92t-91.5 -29z" />
    <glyph glyph-name="ordfeminine" unicode="&#xaa;" horiz-adv-x="475" 
d="M132 700h207q54 0 78 -24t24 -78v-216h-70l-9 41l-5 -4q-28 -24 -49 -30q-20 -7 -63 -7h-140q-75 0 -75 75v35q0 75 75 75h251v26q0 27 -9.5 37t-36.5 10h-146q-21 0 -29 -8.5t-8 -29.5v-9h-83v20q0 87 88 87zM149 438h122q35 0 60 17l25 18v46h-207q-19 0 -26.5 -7.5
t-7.5 -26.5v-14q0 -19 7.5 -26t26.5 -7z" />
    <glyph glyph-name="guillemotleft" unicode="&#xab;" horiz-adv-x="1000" 
d="M52 311v77l420 198v-103l-308 -132l308 -133v-105zM528 388l420 198v-103l-308 -132l308 -133v-105l-420 198v77z" />
    <glyph glyph-name="logicalnot" unicode="&#xac;" 
d="M682 298h-614v104h728v-280h-114v176z" />
    <glyph glyph-name="uni00AD" unicode="&#xad;" horiz-adv-x="516" 
d="M48 298v104h420v-104h-420z" />
    <glyph glyph-name="registered" unicode="&#xae;" horiz-adv-x="391" 
d="M143 700h105q107 0 107 -107v-92q0 -107 -107 -107h-105q-107 0 -107 107v92q0 107 107 107zM318 503v88q0 41 -16.5 57.5t-57.5 16.5h-97q-41 0 -57.5 -16.5t-16.5 -57.5v-88q0 -40 17 -57t57 -17h97q40 0 57 17t17 57zM271 587v-27q0 -35 -34 -36l41 -55h-44l-38 52
h-32v-52h-40v155h110q20 0 28.5 -8.5t8.5 -28.5zM220 592h-56v-39h56q11 0 11 12v15q0 12 -11 12z" />
    <glyph glyph-name="overscore" unicode="&#xaf;" horiz-adv-x="520" 
d="M488 606h-424v66h424v-66z" />
    <glyph glyph-name="degree" unicode="&#xb0;" horiz-adv-x="428" 
d="M265 360h-102q-58 0 -89.5 32t-31.5 89v98q0 58 31.5 89.5t89.5 31.5h102q58 0 89.5 -31.5t31.5 -89.5v-98q0 -57 -31.5 -89t-89.5 -32zM179 431h70q61 0 61 61v76q0 32 -14.5 46.5t-46.5 14.5h-70q-32 0 -46.5 -14.5t-14.5 -46.5v-76q0 -61 61 -61z" />
    <glyph glyph-name="plusminus" unicode="&#xb1;" 
d="M489 676v-192h307v-96h-307v-192h-114v192h-307v96h307v192h114zM796 24h-728v97h728v-97z" />
    <glyph glyph-name="uni00B2" unicode="&#xb2;" horiz-adv-x="548" 
d="M495 368v-88h-449v135q0 46 22 68.5t70 27.5l226 22q18 2 24.5 9t6.5 24v21q0 17 -7 24t-24 7h-175q-17 0 -24 -7t-7 -24v-19h-104v40q0 48 22.5 70t69.5 22h264q47 0 69.5 -22t22.5 -70v-55q0 -47 -21.5 -69t-70.5 -27l-225 -22q-18 -2 -25 -9.5t-7 -23.5v-34h342z" />
    <glyph glyph-name="uni00B3" unicode="&#xb3;" horiz-adv-x="544" 
d="M454 497q47 -15 47 -79v-46q0 -48 -22 -70t-69 -22h-275q-47 0 -69.5 22t-22.5 70v55h104v-32q0 -18 6.5 -24.5t24.5 -6.5h185q18 0 24.5 6.5t6.5 24.5v32q0 17 -6.5 24t-24.5 7h-148v75h142q18 0 24.5 7t6.5 25v20q0 18 -6.5 24.5t-24.5 6.5h-173q-18 0 -24.5 -6.5
t-6.5 -24.5v-27h-104v50q0 48 22.5 70t69.5 22h263q47 0 69 -22t22 -70v-34q0 -62 -41 -77z" />
    <glyph glyph-name="acute" unicode="&#xb4;" horiz-adv-x="353" 
d="M321 700l-145 -124h-112l116 124h141z" />
    <glyph glyph-name="paragraph" unicode="&#xb6;" horiz-adv-x="874" 
d="M50 438v96q0 89 39 127.5t127 38.5h554v-700h-116v598h-178v-598h-116v272h-144q-88 0 -127 38.5t-39 127.5z" />
    <glyph glyph-name="middot" unicode="&#xb7;" horiz-adv-x="280" 
d="M216 278h-152v144h152v-144z" />
    <glyph glyph-name="cedilla" unicode="&#xb8;" horiz-adv-x="320" 
d="M248 -160h-196v47h167q13 0 13 13v13q0 13 -13 13h-117v22l26 72h52l-18 -50h86q28 0 40 -12t12 -40v-26q0 -28 -12 -40t-40 -12z" />
    <glyph glyph-name="uni00B9" unicode="&#xb9;" horiz-adv-x="512" 
d="M321 700v-335h158v-85h-447v85h181v241l-163 -13v89l219 18h52z" />
    <glyph glyph-name="ordmasculine" unicode="&#xba;" horiz-adv-x="477" 
d="M345 383h-213q-54 0 -78 23.5t-24 77.5v115q0 54 24 77.5t78 23.5h213q53 0 77 -23.5t24 -77.5v-115q0 -54 -24 -77.5t-77 -23.5zM162 451h152q28 0 37.5 10t9.5 37v87q0 27 -9.5 37t-37.5 10h-152q-26 0 -36 -10t-10 -37v-87q0 -27 10 -37t36 -10z" />
    <glyph glyph-name="guillemotright" unicode="&#xbb;" horiz-adv-x="1000" 
d="M360 349l-308 132v105l420 -198v-77l-420 -198v103zM528 481v105l420 -198v-77l-420 -198v103l308 133z" />
    <glyph glyph-name="onequarter" unicode="&#xbc;" horiz-adv-x="1192" 
d="M322 365h158v-85h-447v85h180v241l-162 -13v89l219 18h52v-335zM303 0l615 700h85l-616 -700h-84zM1056 166h103v-80h-103v-86h-103v86h-295v67l279 267h119v-254zM953 329l-172 -163h172v163z" />
    <glyph glyph-name="onehalf" unicode="&#xbd;" horiz-adv-x="1298" 
d="M322 365h158v-85h-447v85h180v241l-162 -13v89l219 18h52v-335zM303 0l615 700h85l-616 -700h-84zM1159 177l-225 -22q-18 -2 -25 -9.5t-7 -23.5v-34h342v-88h-449v135q0 46 22 68.5t70 27.5l226 22q18 2 24.5 9t6.5 24v21q0 17 -7 24t-24 7h-175q-17 0 -24 -7t-7 -24
v-19h-104v40q0 48 22.5 70t69.5 22h264q47 0 69.5 -22t22.5 -70v-55q0 -47 -21.5 -69t-70.5 -27z" />
    <glyph glyph-name="threequarters" unicode="&#xbe;" horiz-adv-x="1217" 
d="M505 418v-46q0 -48 -22 -70t-69 -22h-275q-47 0 -69.5 22t-22.5 70v55h102v-32q0 -18 6.5 -24.5t24.5 -6.5h188q18 0 24.5 6.5t6.5 24.5v32q0 17 -6.5 24t-24.5 7h-149v75h143q18 0 24.5 7t6.5 25v20q0 18 -6.5 24.5t-24.5 6.5h-176q-18 0 -24.5 -6.5t-6.5 -24.5v-27
h-102v50q0 48 22.5 70t69.5 22h263q47 0 69 -22t22 -70v-34q0 -62 -41 -77q47 -15 47 -79zM316 0l615 700h85l-615 -700h-85zM1081 166h103v-80h-103v-86h-103v86h-295v67l279 267h119v-254zM978 329l-172 -163h172v163z" />
    <glyph glyph-name="questiondown" unicode="&#xbf;" horiz-adv-x="797" 
d="M355 700h150v-116h-150v116zM370 508h119v-75q0 -64 -26 -94t-93 -43l-131 -21q-36 -7 -52 -24t-16 -50v-34q0 -36 14.5 -51t51.5 -15h326q37 0 52 15t15 51v41h123v-66q0 -73 -35 -107.5t-107 -34.5h-425q-72 0 -107 34.5t-35 107.5v67q0 66 33 102t105 50l128 21
q34 6 47 22t13 50v54z" />
    <glyph glyph-name="Agrave" unicode="&#xc0;" horiz-adv-x="923" 
d="M400 872l115 -124h-111l-146 124h142zM925 0h-148l-83 156h-468l-83 -156h-141l390 700h144zM460 597l-180 -340h361z" />
    <glyph glyph-name="Aacute" unicode="&#xc1;" horiz-adv-x="923" 
d="M527 872h141l-145 -124h-112zM925 0h-148l-83 156h-468l-83 -156h-141l390 700h144zM460 597l-180 -340h361z" />
    <glyph glyph-name="Acircumflex" unicode="&#xc2;" horiz-adv-x="923" 
d="M568 748l-105 72l-105 -72h-98l138 124h130l138 -124h-98zM925 0h-148l-83 156h-468l-83 -156h-141l390 700h144zM460 597l-180 -340h361z" />
    <glyph glyph-name="Atilde" unicode="&#xc3;" horiz-adv-x="923" 
d="M343 808v-60h-77v74q0 50 50 50h99q23 0 35 -5t27 -20l42 -39q10 -10 25 -10h24q15 0 15 14v60h77v-74q0 -50 -50 -50h-99q-23 0 -35 5t-27 20l-42 39q-10 10 -25 10h-24q-15 0 -15 -14zM925 0h-148l-83 156h-468l-83 -156h-141l390 700h144zM460 597l-180 -340h361z" />
    <glyph glyph-name="Adieresis" unicode="&#xc4;" horiz-adv-x="923" 
d="M299 848h102v-88h-102v88zM525 848h102v-88h-102v88zM925 0h-148l-83 156h-468l-83 -156h-141l390 700h144zM460 597l-180 -340h361z" />
    <glyph glyph-name="Aring" unicode="&#xc5;" horiz-adv-x="923" 
d="M566 738h-206q-54 0 -54 54v26q0 54 54 54h206q54 0 54 -54v-26q0 -54 -54 -54zM361 812v-14q0 -12 4 -16.5t16 -4.5h164q12 0 16 4.5t4 16.5v14q0 12 -4 16.5t-16 4.5h-164q-12 0 -16 -4.5t-4 -16.5zM925 0h-148l-83 156h-468l-83 -156h-141l390 700h144zM460 597
l-180 -340h361z" />
    <glyph glyph-name="AE" unicode="&#xc6;" horiz-adv-x="1280" 
d="M746 314l109 -207h393v-107h-484l-78 154h-461l-82 -154h-141l390 700h846v-107h-639l95 -181h504v-98h-452zM461 597l-183 -343h357z" />
    <glyph glyph-name="Ccedilla" unicode="&#xc7;" horiz-adv-x="896" 
d="M845 514v-74h-128v52q0 55 -22.5 77.5t-77.5 22.5h-330q-55 0 -77.5 -22.5t-22.5 -77.5v-284q0 -55 22.5 -77.5t77.5 -22.5h330q55 0 77.5 22.5t22.5 77.5v61h128v-83q0 -96 -45 -141t-141 -45h-196l-11 -30h86q28 0 40 -12t12 -40v-26q0 -28 -12 -40t-40 -12h-196v47
h167q13 0 13 13v13q0 13 -13 13h-117v22l19 52h-170q-96 0 -141 45t-45 141v328q0 96 45 141t141 45h418q96 0 141 -45t45 -141z" />
    <glyph glyph-name="Egrave" unicode="&#xc8;" horiz-adv-x="801" 
d="M337 872l115 -124h-111l-146 124h142zM195 314v-207h574v-107h-705v700h695v-107h-564v-181h524v-98h-524z" />
    <glyph glyph-name="Eacute" unicode="&#xc9;" horiz-adv-x="801" 
d="M464 872h141l-145 -124h-112zM195 314v-207h574v-107h-705v700h695v-107h-564v-181h524v-98h-524z" />
    <glyph glyph-name="Ecircumflex" unicode="&#xca;" horiz-adv-x="801" 
d="M505 748l-105 72l-105 -72h-98l138 124h130l138 -124h-98zM195 314v-207h574v-107h-705v700h695v-107h-564v-181h524v-98h-524z" />
    <glyph glyph-name="Edieresis" unicode="&#xcb;" horiz-adv-x="801" 
d="M236 848h102v-88h-102v88zM462 848h102v-88h-102v88zM195 314v-207h574v-107h-705v700h695v-107h-564v-181h524v-98h-524z" />
    <glyph glyph-name="Igrave" unicode="&#xcc;" horiz-adv-x="272" 
d="M188 748h-111l-146 124h142zM69 0v700h134v-700h-134z" />
    <glyph glyph-name="Iacute" unicode="&#xcd;" horiz-adv-x="272" 
d="M341 872l-145 -124h-112l116 124h141zM69 0v700h134v-700h-134z" />
    <glyph glyph-name="Icircumflex" unicode="&#xce;" horiz-adv-x="272" 
d="M31 748h-98l138 124h130l138 -124h-98l-105 72zM69 0v700h134v-700h-134z" />
    <glyph glyph-name="Idieresis" unicode="&#xcf;" horiz-adv-x="272" 
d="M74 760h-102v88h102v-88zM300 760h-102v88h102v-88zM69 0v700h134v-700h-134z" />
    <glyph glyph-name="Eth" unicode="&#xd0;" horiz-adv-x="983" 
d="M124 700h574q112 0 171 -58.5t59 -171.5v-240q0 -113 -59 -171.5t-171 -58.5h-574v311h-92v78h92v311zM796 238v224q0 128 -128 128h-412v-201h298v-78h-298v-201h412q128 0 128 128z" />
    <glyph glyph-name="Ntilde" unicode="&#xd1;" horiz-adv-x="932" 
d="M344 808v-60h-77v74q0 50 50 50h99q23 0 35 -5t27 -20l42 -39q10 -10 25 -10h24q15 0 15 14v60h77v-74q0 -50 -50 -50h-99q-23 0 -35 5t-27 20l-42 39q-10 10 -25 10h-24q-15 0 -15 -14zM740 174v526h128v-700h-106l-570 532v-532h-128v700h112z" />
    <glyph glyph-name="Ograve" unicode="&#xd2;" horiz-adv-x="924" 
d="M514 748h-111l-146 124h142zM683 0h-442q-96 0 -141 45t-45 141v328q0 96 45 141t141 45h442q96 0 141 -45t45 -141v-328q0 -96 -45 -141t-141 -45zM287 110h350q55 0 77.5 22.5t22.5 77.5v280q0 55 -22.5 77.5t-77.5 22.5h-350q-55 0 -77.5 -22t-22.5 -78v-280
q0 -56 22.5 -78t77.5 -22z" />
    <glyph glyph-name="Oacute" unicode="&#xd3;" horiz-adv-x="924" 
d="M667 872l-145 -124h-112l116 124h141zM683 0h-442q-96 0 -141 45t-45 141v328q0 96 45 141t141 45h442q96 0 141 -45t45 -141v-328q0 -96 -45 -141t-141 -45zM287 110h350q55 0 77.5 22.5t22.5 77.5v280q0 55 -22.5 77.5t-77.5 22.5h-350q-55 0 -77.5 -22t-22.5 -78v-280
q0 -56 22.5 -78t77.5 -22z" />
    <glyph glyph-name="Ocircumflex" unicode="&#xd4;" horiz-adv-x="924" 
d="M357 748h-98l138 124h130l138 -124h-98l-105 72zM683 0h-442q-96 0 -141 45t-45 141v328q0 96 45 141t141 45h442q96 0 141 -45t45 -141v-328q0 -96 -45 -141t-141 -45zM287 110h350q55 0 77.5 22.5t22.5 77.5v280q0 55 -22.5 77.5t-77.5 22.5h-350q-55 0 -77.5 -22
t-22.5 -78v-280q0 -56 22.5 -78t77.5 -22z" />
    <glyph glyph-name="Otilde" unicode="&#xd5;" horiz-adv-x="924" 
d="M342 748h-77v74q0 50 50 50h99q23 0 35 -5t27 -20l42 -39q10 -10 25 -10h24q15 0 15 14v60h77v-74q0 -50 -50 -50h-99q-23 0 -35 5t-27 20l-42 39q-10 10 -25 10h-24q-15 0 -15 -14v-60zM683 0h-442q-96 0 -141 45t-45 141v328q0 96 45 141t141 45h442q96 0 141 -45
t45 -141v-328q0 -96 -45 -141t-141 -45zM287 110h350q55 0 77.5 22.5t22.5 77.5v280q0 55 -22.5 77.5t-77.5 22.5h-350q-55 0 -77.5 -22t-22.5 -78v-280q0 -56 22.5 -78t77.5 -22z" />
    <glyph glyph-name="Odieresis" unicode="&#xd6;" horiz-adv-x="924" 
d="M400 760h-102v88h102v-88zM626 760h-102v88h102v-88zM683 0h-442q-96 0 -141 45t-45 141v328q0 96 45 141t141 45h442q96 0 141 -45t45 -141v-328q0 -96 -45 -141t-141 -45zM287 110h350q55 0 77.5 22.5t22.5 77.5v280q0 55 -22.5 77.5t-77.5 22.5h-350q-55 0 -77.5 -22
t-22.5 -78v-280q0 -56 22.5 -78t77.5 -22z" />
    <glyph glyph-name="multiply" unicode="&#xd7;" 
d="M711 645l67 -79l-264 -216l264 -216l-67 -79l-279 228l-279 -228l-67 79l264 216l-264 216l67 79l279 -228z" />
    <glyph glyph-name="Oslash" unicode="&#xd8;" horiz-adv-x="924" 
d="M899 730l-76 -74q46 -45 46 -142v-328q0 -96 -45 -141t-141 -45h-442q-50 0 -81 10l-41 -40h-94l76 74q-46 45 -46 142v328q0 96 45 141t141 45h442q50 0 81 -10l41 40h94zM182 494v-288q0 -46 15 -68l467 455q-5 1 -22 1h-360q-55 0 -77.5 -22.5t-22.5 -77.5zM742 206
v288q0 46 -15 68l-467 -455q5 -1 22 -1h360q55 0 77.5 22.5t22.5 77.5z" />
    <glyph glyph-name="Ugrave" unicode="&#xd9;" horiz-adv-x="897" 
d="M500 748h-111l-146 124h142zM654 0h-412q-96 0 -141 45t-45 141v514h132v-488q0 -55 22.5 -77.5t77.5 -22.5h320q56 0 78 22t22 78v488h132v-514q0 -96 -45 -141t-141 -45z" />
    <glyph glyph-name="Uacute" unicode="&#xda;" horiz-adv-x="897" 
d="M653 872l-145 -124h-112l116 124h141zM654 0h-412q-96 0 -141 45t-45 141v514h132v-488q0 -55 22.5 -77.5t77.5 -22.5h320q56 0 78 22t22 78v488h132v-514q0 -96 -45 -141t-141 -45z" />
    <glyph glyph-name="Ucircumflex" unicode="&#xdb;" horiz-adv-x="897" 
d="M343 748h-98l138 124h130l138 -124h-98l-105 72zM654 0h-412q-96 0 -141 45t-45 141v514h132v-488q0 -55 22.5 -77.5t77.5 -22.5h320q56 0 78 22t22 78v488h132v-514q0 -96 -45 -141t-141 -45z" />
    <glyph glyph-name="Udieresis" unicode="&#xdc;" horiz-adv-x="897" 
d="M386 760h-102v88h102v-88zM612 760h-102v88h102v-88zM654 0h-412q-96 0 -141 45t-45 141v514h132v-488q0 -55 22.5 -77.5t77.5 -22.5h320q56 0 78 22t22 78v488h132v-514q0 -96 -45 -141t-141 -45z" />
    <glyph glyph-name="Yacute" unicode="&#xdd;" horiz-adv-x="856" 
d="M492 872h141l-145 -124h-112zM704 700h156l-366 -443v-257h-132v257l-366 443h163l273 -340z" />
    <glyph glyph-name="Thorn" unicode="&#xde;" horiz-adv-x="860" 
d="M196 590h466q88 0 127 -38.5t39 -127.5v-128q0 -89 -39 -127.5t-127 -38.5h-466v-130h-132v700h132v-110zM696 312v92q0 49 -18 66.5t-67 17.5h-415v-260h415q49 0 67 17.5t18 66.5z" />
    <glyph glyph-name="germandbls" unicode="&#xdf;" horiz-adv-x="804" 
d="M669 367q83 -21 83 -128v-97q0 -73 -35 -107.5t-107 -34.5h-233v97h183q38 0 53 15.5t15 52.5v88q0 37 -15 52.5t-53 15.5h-183v86h163q38 0 53 15t15 53v60q0 37 -15 52.5t-53 15.5h-285q-37 0 -52.5 -15.5t-15.5 -52.5v-535h-124v558q0 73 35 107.5t107 34.5h385
q72 0 107 -34.5t35 -107.5v-69q0 -93 -63 -122z" />
    <glyph glyph-name="agrave" unicode="&#xe0;" horiz-adv-x="788" 
d="M339 700l115 -124h-111l-146 124h142zM220 528h343q88 0 127 -38.5t39 -127.5v-362h-102l-14 71l-17 -13q-47 -38 -80 -48t-105 -10h-233q-124 0 -124 124v55q0 124 124 124h427v52q0 48 -18.5 66t-67.5 18h-253q-38 0 -53 -15t-15 -53v-19h-120v34q0 73 35 107.5
t107 34.5zM559 114l46 34v83h-366q-34 0 -47.5 -13.5t-13.5 -47.5v-26q0 -34 13.5 -47.5t47.5 -13.5h210q67 0 110 31z" />
    <glyph glyph-name="aacute" unicode="&#xe1;" horiz-adv-x="788" 
d="M466 700h141l-145 -124h-112zM220 528h343q88 0 127 -38.5t39 -127.5v-362h-102l-14 71l-17 -13q-47 -38 -80 -48t-105 -10h-233q-124 0 -124 124v55q0 124 124 124h427v52q0 48 -18.5 66t-67.5 18h-253q-38 0 -53 -15t-15 -53v-19h-120v34q0 73 35 107.5t107 34.5z
M559 114l46 34v83h-366q-34 0 -47.5 -13.5t-13.5 -47.5v-26q0 -34 13.5 -47.5t47.5 -13.5h210q67 0 110 31z" />
    <glyph glyph-name="acircumflex" unicode="&#xe2;" horiz-adv-x="788" 
d="M507 576l-105 72l-105 -72h-98l138 124h130l138 -124h-98zM220 528h343q88 0 127 -38.5t39 -127.5v-362h-102l-14 71l-17 -13q-47 -38 -80 -48t-105 -10h-233q-124 0 -124 124v55q0 124 124 124h427v52q0 48 -18.5 66t-67.5 18h-253q-38 0 -53 -15t-15 -53v-19h-120v34
q0 73 35 107.5t107 34.5zM559 114l46 34v83h-366q-34 0 -47.5 -13.5t-13.5 -47.5v-26q0 -34 13.5 -47.5t47.5 -13.5h210q67 0 110 31z" />
    <glyph glyph-name="atilde" unicode="&#xe3;" horiz-adv-x="788" 
d="M282 636v-60h-77v74q0 50 50 50h99q23 0 35 -5t27 -20l42 -39q10 -10 25 -10h24q15 0 15 14v60h77v-74q0 -50 -50 -50h-99q-23 0 -35 5t-27 20l-42 39q-10 10 -25 10h-24q-15 0 -15 -14zM220 528h343q88 0 127 -38.5t39 -127.5v-362h-102l-14 71l-17 -13q-47 -38 -80 -48
t-105 -10h-233q-124 0 -124 124v55q0 124 124 124h427v52q0 48 -18.5 66t-67.5 18h-253q-38 0 -53 -15t-15 -53v-19h-120v34q0 73 35 107.5t107 34.5zM559 114l46 34v83h-366q-34 0 -47.5 -13.5t-13.5 -47.5v-26q0 -34 13.5 -47.5t47.5 -13.5h210q67 0 110 31z" />
    <glyph glyph-name="adieresis" unicode="&#xe4;" horiz-adv-x="788" 
d="M238 676h102v-88h-102v88zM464 676h102v-88h-102v88zM220 528h343q88 0 127 -38.5t39 -127.5v-362h-102l-14 71l-17 -13q-47 -38 -80 -48t-105 -10h-233q-124 0 -124 124v55q0 124 124 124h427v52q0 48 -18.5 66t-67.5 18h-253q-38 0 -53 -15t-15 -53v-19h-120v34
q0 73 35 107.5t107 34.5zM559 114l46 34v83h-366q-34 0 -47.5 -13.5t-13.5 -47.5v-26q0 -34 13.5 -47.5t47.5 -13.5h210q67 0 110 31z" />
    <glyph glyph-name="aring" unicode="&#xe5;" horiz-adv-x="788" 
d="M505 566h-206q-29 0 -41.5 13t-12.5 41v26q0 28 12.5 41t41.5 13h206q29 0 41.5 -13t12.5 -41v-26q0 -28 -12.5 -41t-41.5 -13zM300 640v-14q0 -12 4 -16.5t16 -4.5h164q12 0 16 4.5t4 16.5v14q0 12 -4 16.5t-16 4.5h-164q-12 0 -16 -4.5t-4 -16.5zM220 528h343
q88 0 127 -38.5t39 -127.5v-362h-102l-14 71l-17 -13q-47 -38 -80 -48t-105 -10h-233q-124 0 -124 124v55q0 124 124 124h427v52q0 48 -18.5 66t-67.5 18h-253q-38 0 -53 -15t-15 -53v-19h-120v34q0 73 35 107.5t107 34.5zM559 114l46 34v83h-366q-34 0 -47.5 -13.5
t-13.5 -47.5v-26q0 -34 13.5 -47.5t47.5 -13.5h210q67 0 110 31z" />
    <glyph glyph-name="ae" unicode="&#xe6;" horiz-adv-x="1333" 
d="M794 528h319q88 0 127 -38.5t39 -127.5v-114h-550v-67q0 -49 17.5 -67t66.5 -18h278q37 0 52.5 15t15.5 53v23h120v-45q0 -73 -34.5 -107.5t-107.5 -34.5h-351q-113 0 -148 68l-12 -10q-47 -38 -80 -48t-105 -10h-263q-124 0 -124 124v55q0 124 124 124h427v52
q0 48 -18.5 66t-67.5 18h-253q-38 0 -53 -15t-15 -53v-19h-120v34q0 73 35 107.5t107 34.5h319q93 0 128 -51q35 51 127 51zM729 354v-28h430v28q0 49 -18 67t-67 18h-261q-49 0 -66.5 -18t-17.5 -67zM558 114l46 34v83h-365q-34 0 -47.5 -13.5t-13.5 -47.5v-26
q0 -34 13.5 -47.5t47.5 -13.5h210q66 0 109 31z" />
    <glyph glyph-name="ccedilla" unicode="&#xe7;" horiz-adv-x="770" 
d="M716 362v-41h-122v24q0 49 -17.5 67t-66.5 18h-246q-49 0 -66.5 -18t-17.5 -67v-162q0 -49 17.5 -67t66.5 -18h246q49 0 66.5 18t17.5 67v32h122v-49q0 -89 -39 -127.5t-127 -38.5h-150l-11 -30h86q28 0 40 -12t12 -40v-26q0 -28 -12 -40t-40 -12h-196v47h167q13 0 13 13
v13q0 13 -13 13h-117v22l19 52h-128q-88 0 -127 38.5t-39 127.5v196q0 89 39 127.5t127 38.5h330q88 0 127 -38.5t39 -127.5z" />
    <glyph glyph-name="egrave" unicode="&#xe8;" horiz-adv-x="783" 
d="M328 700l115 -124h-111l-146 124h142zM220 528h343q88 0 127 -38.5t39 -127.5v-114h-551v-67q0 -49 18 -67t67 -18h278q37 0 52.5 15.5t15.5 52.5v23h120v-45q0 -73 -35 -107.5t-107 -34.5h-367q-88 0 -127 38.5t-39 127.5v196q0 89 39 127.5t127 38.5zM178 354v-28h431
v28q0 49 -18.5 67t-67.5 18h-260q-49 0 -67 -18t-18 -67z" />
    <glyph glyph-name="eacute" unicode="&#xe9;" horiz-adv-x="783" 
d="M455 700h141l-145 -124h-112zM220 528h343q88 0 127 -38.5t39 -127.5v-114h-551v-67q0 -49 18 -67t67 -18h278q37 0 52.5 15.5t15.5 52.5v23h120v-45q0 -73 -35 -107.5t-107 -34.5h-367q-88 0 -127 38.5t-39 127.5v196q0 89 39 127.5t127 38.5zM178 354v-28h431v28
q0 49 -18.5 67t-67.5 18h-260q-49 0 -67 -18t-18 -67z" />
    <glyph glyph-name="ecircumflex" unicode="&#xea;" horiz-adv-x="783" 
d="M496 576l-105 72l-105 -72h-98l138 124h130l138 -124h-98zM220 528h343q88 0 127 -38.5t39 -127.5v-114h-551v-67q0 -49 18 -67t67 -18h278q37 0 52.5 15.5t15.5 52.5v23h120v-45q0 -73 -35 -107.5t-107 -34.5h-367q-88 0 -127 38.5t-39 127.5v196q0 89 39 127.5
t127 38.5zM178 354v-28h431v28q0 49 -18.5 67t-67.5 18h-260q-49 0 -67 -18t-18 -67z" />
    <glyph glyph-name="edieresis" unicode="&#xeb;" horiz-adv-x="783" 
d="M227 676h102v-88h-102v88zM453 676h102v-88h-102v88zM220 528h343q88 0 127 -38.5t39 -127.5v-114h-551v-67q0 -49 18 -67t67 -18h278q37 0 52.5 15.5t15.5 52.5v23h120v-45q0 -73 -35 -107.5t-107 -34.5h-367q-88 0 -127 38.5t-39 127.5v196q0 89 39 127.5t127 38.5z
M178 354v-28h431v28q0 49 -18.5 67t-67.5 18h-260q-49 0 -67 -18t-18 -67z" />
    <glyph glyph-name="igrave" unicode="&#xec;" horiz-adv-x="262" 
d="M183 576h-111l-146 124h142zM194 0h-127v528h127v-528z" />
    <glyph glyph-name="iacute" unicode="&#xed;" horiz-adv-x="262" 
d="M336 700l-145 -124h-112l116 124h141zM194 0h-127v528h127v-528z" />
    <glyph glyph-name="icircumflex" unicode="&#xee;" horiz-adv-x="262" 
d="M26 576h-98l138 124h130l138 -124h-98l-105 72zM194 0h-127v528h127v-528z" />
    <glyph glyph-name="idieresis" unicode="&#xef;" horiz-adv-x="262" 
d="M69 588h-102v88h102v-88zM295 588h-102v88h102v-88zM194 0h-127v528h127v-528z" />
    <glyph glyph-name="eth" unicode="&#xf0;" horiz-adv-x="793" 
d="M463 700h90q96 0 141 -45t45 -141v-372q0 -73 -35 -107.5t-107 -34.5h-401q-72 0 -107 34.5t-35 107.5v143q0 74 34.5 108t107.5 34h316q74 0 103 -36v114q0 55 -22.5 77.5t-77.5 22.5h-119l-49 -69h-78l49 69h-184v95h251l42 60h78zM615 163v105q0 37 -15.5 52.5
t-52.5 15.5h-301q-38 0 -53 -15t-15 -53v-105q0 -38 15 -53t53 -15h301q37 0 52.5 15t15.5 53z" />
    <glyph glyph-name="ntilde" unicode="&#xf1;" horiz-adv-x="798" 
d="M279 636v-60h-77v74q0 50 50 50h99q23 0 35 -5t27 -20l42 -39q10 -10 25 -10h24q15 0 15 14v60h77v-74q0 -50 -50 -50h-99q-23 0 -35 5t-27 20l-42 39q-10 10 -25 10h-24q-15 0 -15 -14zM398 528h175q88 0 127 -38.5t39 -127.5v-362h-125v342q0 49 -18 67t-67 18h-170
q-86 0 -130 -34l-40 -30v-363h-126v528h104l14 -73l9 7q51 42 92 54q40 12 116 12z" />
    <glyph glyph-name="ograve" unicode="&#xf2;" horiz-adv-x="794" 
d="M449 576h-111l-146 124h142zM574 0h-354q-88 0 -127 38.5t-39 127.5v196q0 89 39 127.5t127 38.5h354q88 0 127 -38.5t39 -127.5v-196q0 -89 -39 -127.5t-127 -38.5zM264 98h266q49 0 66.5 18t17.5 67v162q0 49 -17.5 67t-66.5 18h-266q-49 0 -66.5 -18t-17.5 -67v-162
q0 -49 17.5 -67t66.5 -18z" />
    <glyph glyph-name="oacute" unicode="&#xf3;" horiz-adv-x="794" 
d="M602 700l-145 -124h-112l116 124h141zM574 0h-354q-88 0 -127 38.5t-39 127.5v196q0 89 39 127.5t127 38.5h354q88 0 127 -38.5t39 -127.5v-196q0 -89 -39 -127.5t-127 -38.5zM264 98h266q49 0 66.5 18t17.5 67v162q0 49 -17.5 67t-66.5 18h-266q-49 0 -66.5 -18
t-17.5 -67v-162q0 -49 17.5 -67t66.5 -18z" />
    <glyph glyph-name="ocircumflex" unicode="&#xf4;" horiz-adv-x="794" 
d="M292 576h-98l138 124h130l138 -124h-98l-105 72zM574 0h-354q-88 0 -127 38.5t-39 127.5v196q0 89 39 127.5t127 38.5h354q88 0 127 -38.5t39 -127.5v-196q0 -89 -39 -127.5t-127 -38.5zM264 98h266q49 0 66.5 18t17.5 67v162q0 49 -17.5 67t-66.5 18h-266
q-49 0 -66.5 -18t-17.5 -67v-162q0 -49 17.5 -67t66.5 -18z" />
    <glyph glyph-name="otilde" unicode="&#xf5;" horiz-adv-x="794" 
d="M277 576h-77v74q0 50 50 50h99q23 0 35 -5t27 -20l42 -39q10 -10 25 -10h24q15 0 15 14v60h77v-74q0 -50 -50 -50h-99q-23 0 -35 5t-27 20l-42 39q-10 10 -25 10h-24q-15 0 -15 -14v-60zM574 0h-354q-88 0 -127 38.5t-39 127.5v196q0 89 39 127.5t127 38.5h354
q88 0 127 -38.5t39 -127.5v-196q0 -89 -39 -127.5t-127 -38.5zM264 98h266q49 0 66.5 18t17.5 67v162q0 49 -17.5 67t-66.5 18h-266q-49 0 -66.5 -18t-17.5 -67v-162q0 -49 17.5 -67t66.5 -18z" />
    <glyph glyph-name="odieresis" unicode="&#xf6;" horiz-adv-x="794" 
d="M335 588h-102v88h102v-88zM561 588h-102v88h102v-88zM574 0h-354q-88 0 -127 38.5t-39 127.5v196q0 89 39 127.5t127 38.5h354q88 0 127 -38.5t39 -127.5v-196q0 -89 -39 -127.5t-127 -38.5zM264 98h266q49 0 66.5 18t17.5 67v162q0 49 -17.5 67t-66.5 18h-266
q-49 0 -66.5 -18t-17.5 -67v-162q0 -49 17.5 -67t66.5 -18z" />
    <glyph glyph-name="divide" unicode="&#xf7;" 
d="M508 540h-152v112h152v-112zM68 298v104h728v-104h-728zM508 48h-152v112h152v-112z" />
    <glyph glyph-name="oslash" unicode="&#xf8;" horiz-adv-x="794" 
d="M770 564l-75 -69q45 -37 45 -133v-196q0 -89 -39 -127.5t-127 -38.5h-354q-27 0 -60 5l-45 -41h-91l75 69q-45 37 -45 133v196q0 89 39 127.5t127 38.5h354q27 0 60 -5l45 41h91zM172 351v-174q0 -46 15 -64l352 323h-1h-282q-49 0 -66.5 -18t-17.5 -67zM622 177v174
q0 46 -15 64l-352 -323h1h282q49 0 66.5 18t17.5 67z" />
    <glyph glyph-name="ugrave" unicode="&#xf9;" horiz-adv-x="798" 
d="M334 700l115 -124h-111l-146 124h142zM609 528h126v-528h-104l-14 73l-9 -7q-51 -42 -91 -54q-41 -12 -117 -12h-175q-88 0 -127 38.5t-39 127.5v362h125v-342q0 -49 18 -67t67 -18h170q86 0 130 34l40 30v363z" />
    <glyph glyph-name="uacute" unicode="&#xfa;" horiz-adv-x="798" 
d="M461 700h141l-145 -124h-112zM609 528h126v-528h-104l-14 73l-9 -7q-51 -42 -91 -54q-41 -12 -117 -12h-175q-88 0 -127 38.5t-39 127.5v362h125v-342q0 -49 18 -67t67 -18h170q86 0 130 34l40 30v363z" />
    <glyph glyph-name="ucircumflex" unicode="&#xfb;" horiz-adv-x="798" 
d="M502 576l-105 72l-105 -72h-98l138 124h130l138 -124h-98zM609 528h126v-528h-104l-14 73l-9 -7q-51 -42 -91 -54q-41 -12 -117 -12h-175q-88 0 -127 38.5t-39 127.5v362h125v-342q0 -49 18 -67t67 -18h170q86 0 130 34l40 30v363z" />
    <glyph glyph-name="udieresis" unicode="&#xfc;" horiz-adv-x="798" 
d="M233 676h102v-88h-102v88zM459 676h102v-88h-102v88zM609 528h126v-528h-104l-14 73l-9 -7q-51 -42 -91 -54q-41 -12 -117 -12h-175q-88 0 -127 38.5t-39 127.5v362h125v-342q0 -49 18 -67t67 -18h170q86 0 130 34l40 30v363z" />
    <glyph glyph-name="yacute" unicode="&#xfd;" horiz-adv-x="758" 
d="M443 700h141l-145 -124h-112zM381 122l231 406h142l-328 -540q-55 -90 -106 -119q-53 -29 -157 -29h-109v98h120q56 0 84 15q27 16 56 64l-310 511h147z" />
    <glyph glyph-name="thorn" unicode="&#xfe;" horiz-adv-x="803" 
d="M398 528h185q88 0 127 -38.5t39 -127.5v-196q0 -89 -39 -127.5t-127 -38.5h-185q-76 0 -116 12q-41 12 -92 54l-1 1v-227h-126v860h126v-239l1 1q51 42 92 54q40 12 116 12zM624 183v162q0 49 -18 67t-67 18h-180q-83 0 -130 -35l-40 -30v-202l40 -30q47 -35 130 -35h180
q49 0 67 18t18 67z" />
    <glyph glyph-name="ydieresis" unicode="&#xff;" horiz-adv-x="758" 
d="M215 676h102v-88h-102v88zM441 676h102v-88h-102v88zM381 122l231 406h142l-328 -540q-55 -90 -106 -119q-53 -29 -157 -29h-109v98h120q56 0 84 15q27 16 56 64l-310 511h147z" />
    <glyph glyph-name="Amacron" unicode="&#x100;" horiz-adv-x="923" 
d="M251 844h424v-66h-424v66zM925 0h-148l-83 156h-468l-83 -156h-141l390 700h144zM460 597l-180 -340h361z" />
    <glyph glyph-name="amacron" unicode="&#x101;" horiz-adv-x="788" 
d="M190 672h424v-66h-424v66zM220 528h343q88 0 127 -38.5t39 -127.5v-362h-102l-14 71l-17 -13q-47 -38 -80 -48t-105 -10h-233q-124 0 -124 124v55q0 124 124 124h427v52q0 48 -18.5 66t-67.5 18h-253q-38 0 -53 -15t-15 -53v-19h-120v34q0 73 35 107.5t107 34.5zM559 114
l46 34v83h-366q-34 0 -47.5 -13.5t-13.5 -47.5v-26q0 -34 13.5 -47.5t47.5 -13.5h210q67 0 110 31z" />
    <glyph glyph-name="Abreve" unicode="&#x102;" horiz-adv-x="923" 
d="M591 748h-256q-73 0 -73 73v51h90v-36q0 -30 30 -30h162q30 0 30 30v36h90v-51q0 -73 -73 -73zM925 0h-148l-83 156h-468l-83 -156h-141l390 700h144zM460 597l-180 -340h361z" />
    <glyph glyph-name="abreve" unicode="&#x103;" horiz-adv-x="788" 
d="M530 576h-256q-73 0 -73 73v51h90v-36q0 -30 30 -30h162q30 0 30 30v36h90v-51q0 -73 -73 -73zM220 528h343q88 0 127 -38.5t39 -127.5v-362h-102l-14 71l-17 -13q-47 -38 -80 -48t-105 -10h-233q-124 0 -124 124v55q0 124 124 124h427v52q0 48 -18.5 66t-67.5 18h-253
q-38 0 -53 -15t-15 -53v-19h-120v34q0 73 35 107.5t107 34.5zM559 114l46 34v83h-366q-34 0 -47.5 -13.5t-13.5 -47.5v-26q0 -34 13.5 -47.5t47.5 -13.5h210q67 0 110 31z" />
    <glyph glyph-name="Aogonek" unicode="&#x104;" horiz-adv-x="923" 
d="M807 -90h137v-70h-170q-42 0 -61 19t-19 61v16q0 34 8.5 49.5t38.5 33.5l20 11l-67 126h-468l-83 -156h-141l390 700h144l389 -700h-105l-22 -12q-22 -10 -22 -34v-13q0 -17 7 -24t24 -7zM460 597l-180 -340h361z" />
    <glyph glyph-name="aogonek" unicode="&#x105;" horiz-adv-x="785" 
d="M668 -90h99v-70h-132q-42 0 -61 19t-19 61v16q0 33 9 49t38 34l19 11l-8 41l-17 -13q-47 -38 -80 -48t-105 -10h-233q-124 0 -124 124v55q0 124 124 124h427v52q0 48 -18.5 66t-67.5 18h-253q-38 0 -53 -15t-15 -53v-19h-120v34q0 73 35 107.5t107 34.5h343
q88 0 127 -38.5t39 -127.5v-362h-50l-20 -12q-14 -8 -18 -15t-4 -20v-12q0 -17 7 -24t24 -7zM559 114l46 34v83h-366q-34 0 -47.5 -13.5t-13.5 -47.5v-26q0 -34 13.5 -47.5t47.5 -13.5h210q67 0 110 31z" />
    <glyph glyph-name="Cacute" unicode="&#x106;" horiz-adv-x="896" 
d="M653 872l-145 -124h-112l116 124h141zM659 0h-418q-96 0 -141 45t-45 141v328q0 96 45 141t141 45h418q96 0 141 -45t45 -141v-74h-128v52q0 55 -22.5 77.5t-77.5 22.5h-330q-55 0 -77.5 -22.5t-22.5 -77.5v-284q0 -55 22.5 -77.5t77.5 -22.5h330q55 0 77.5 22.5
t22.5 77.5v61h128v-83q0 -96 -45 -141t-141 -45z" />
    <glyph glyph-name="cacute" unicode="&#x107;" horiz-adv-x="770" 
d="M590 700l-145 -124h-112l116 124h141zM54 166v196q0 89 39 127.5t127 38.5h330q88 0 127 -38.5t39 -127.5v-41h-122v24q0 49 -17.5 67t-66.5 18h-246q-49 0 -66.5 -18t-17.5 -67v-162q0 -49 17.5 -67t66.5 -18h246q49 0 66.5 18t17.5 67v32h122v-49q0 -89 -39 -127.5
t-127 -38.5h-330q-88 0 -127 38.5t-39 127.5z" />
    <glyph glyph-name="Ccircumflex" unicode="&#x108;" horiz-adv-x="896" 
d="M343 748h-98l138 124h130l138 -124h-98l-105 72zM659 0h-418q-96 0 -141 45t-45 141v328q0 96 45 141t141 45h418q96 0 141 -45t45 -141v-74h-128v52q0 55 -22.5 77.5t-77.5 22.5h-330q-55 0 -77.5 -22.5t-22.5 -77.5v-284q0 -55 22.5 -77.5t77.5 -22.5h330
q55 0 77.5 22.5t22.5 77.5v61h128v-83q0 -96 -45 -141t-141 -45z" />
    <glyph glyph-name="ccircumflex" unicode="&#x109;" horiz-adv-x="770" 
d="M280 576h-98l138 124h130l138 -124h-98l-105 72zM54 166v196q0 89 39 127.5t127 38.5h330q88 0 127 -38.5t39 -127.5v-41h-122v24q0 49 -17.5 67t-66.5 18h-246q-49 0 -66.5 -18t-17.5 -67v-162q0 -49 17.5 -67t66.5 -18h246q49 0 66.5 18t17.5 67v32h122v-49
q0 -89 -39 -127.5t-127 -38.5h-330q-88 0 -127 38.5t-39 127.5z" />
    <glyph glyph-name="Cdotaccent" unicode="&#x10a;" horiz-adv-x="896" 
d="M511 760h-127v88h127v-88zM659 0h-418q-96 0 -141 45t-45 141v328q0 96 45 141t141 45h418q96 0 141 -45t45 -141v-74h-128v52q0 55 -22.5 77.5t-77.5 22.5h-330q-55 0 -77.5 -22.5t-22.5 -77.5v-284q0 -55 22.5 -77.5t77.5 -22.5h330q55 0 77.5 22.5t22.5 77.5v61h128
v-83q0 -96 -45 -141t-141 -45z" />
    <glyph glyph-name="cdotaccent" unicode="&#x10b;" horiz-adv-x="770" 
d="M448 588h-127v88h127v-88zM54 166v196q0 89 39 127.5t127 38.5h330q88 0 127 -38.5t39 -127.5v-41h-122v24q0 49 -17.5 67t-66.5 18h-246q-49 0 -66.5 -18t-17.5 -67v-162q0 -49 17.5 -67t66.5 -18h246q49 0 66.5 18t17.5 67v32h122v-49q0 -89 -39 -127.5t-127 -38.5
h-330q-88 0 -127 38.5t-39 127.5z" />
    <glyph glyph-name="Ccaron" unicode="&#x10c;" horiz-adv-x="896" 
d="M527 798h-18l-138 24h-14l-3 5l106 45l97 -27zM659 0h-418q-96 0 -141 45t-45 141v328q0 96 45 141t141 45h418q96 0 141 -45t45 -141v-74h-128v52q0 55 -22.5 77.5t-77.5 22.5h-330q-55 0 -77.5 -22.5t-22.5 -77.5v-284q0 -55 22.5 -77.5t77.5 -22.5h330q55 0 77.5 22.5
t22.5 77.5v61h128v-83q0 -96 -45 -141t-141 -45z" />
    <glyph glyph-name="ccaron" unicode="&#x10d;" horiz-adv-x="770" 
d="M464 626h-18l-138 24h-14l-3 5l106 45l97 -27zM54 166v196q0 89 39 127.5t127 38.5h330q88 0 127 -38.5t39 -127.5v-41h-122v24q0 49 -17.5 67t-66.5 18h-246q-49 0 -66.5 -18t-17.5 -67v-162q0 -49 17.5 -67t66.5 -18h246q49 0 66.5 18t17.5 67v32h122v-49
q0 -89 -39 -127.5t-127 -38.5h-330q-88 0 -127 38.5t-39 127.5z" />
    <glyph glyph-name="Dcaron" unicode="&#x10e;" horiz-adv-x="923" 
d="M542 798h-18l-138 24h-14l-3 5l106 45l97 -27zM638 0h-574v700h574q112 0 171 -58.5t59 -171.5v-240q0 -113 -59 -171.5t-171 -58.5zM196 590v-480h412q128 0 128 128v224q0 128 -128 128h-412z" />
    <glyph glyph-name="dcaron" unicode="&#x10f;" horiz-adv-x="926" 
d="M613 462l1 -1v239h126v-700h-104l-14 73l-9 -7q-51 -42 -91 -54t-116 -12h-186q-88 0 -127 38.5t-39 127.5v196q0 89 39 127.5t127 38.5h186q76 0 116 -12t91 -54zM786 604v96h128v-49q0 -39 -21 -77l-36 -70h-65l43 100h-49zM575 133l39 30v202l-39 30q-49 35 -131 35
h-180q-49 0 -66.5 -18t-17.5 -67v-162q0 -49 17.5 -67t66.5 -18h180q82 0 131 35z" />
    <glyph glyph-name="Dcroat" unicode="&#x110;" horiz-adv-x="983" 
d="M124 700h574q112 0 171 -58.5t59 -171.5v-240q0 -113 -59 -171.5t-171 -58.5h-574v311h-92v78h92v311zM796 238v224q0 128 -128 128h-412v-201h298v-78h-298v-201h412q128 0 128 128z" />
    <glyph glyph-name="dslash" unicode="&#x111;" horiz-adv-x="844" 
d="M740 641h82v-62h-82v-579h-104l-14 73l-9 -7q-51 -42 -91 -54t-116 -12h-186q-88 0 -127 38.5t-39 127.5v196q0 89 39 127.5t127 38.5h186q76 0 116 -12t91 -54l1 -1v118h-248v62h248v59h126v-59zM575 133l39 30v202l-39 30q-49 35 -131 35h-180q-49 0 -66.5 -18
t-17.5 -67v-162q0 -49 17.5 -67t66.5 -18h180q82 0 131 35z" />
    <glyph glyph-name="Emacron" unicode="&#x112;" horiz-adv-x="801" 
d="M188 844h424v-66h-424v66zM195 314v-207h574v-107h-705v700h695v-107h-564v-181h524v-98h-524z" />
    <glyph glyph-name="emacron" unicode="&#x113;" horiz-adv-x="783" 
d="M179 672h424v-66h-424v66zM220 528h343q88 0 127 -38.5t39 -127.5v-114h-551v-67q0 -49 18 -67t67 -18h278q37 0 52.5 15.5t15.5 52.5v23h120v-45q0 -73 -35 -107.5t-107 -34.5h-367q-88 0 -127 38.5t-39 127.5v196q0 89 39 127.5t127 38.5zM178 354v-28h431v28
q0 49 -18.5 67t-67.5 18h-260q-49 0 -67 -18t-18 -67z" />
    <glyph glyph-name="Ebreve" unicode="&#x114;" horiz-adv-x="801" 
d="M528 748h-256q-73 0 -73 73v51h90v-36q0 -30 30 -30h162q30 0 30 30v36h90v-51q0 -73 -73 -73zM195 314v-207h574v-107h-705v700h695v-107h-564v-181h524v-98h-524z" />
    <glyph glyph-name="ebreve" unicode="&#x115;" horiz-adv-x="783" 
d="M519 576h-256q-73 0 -73 73v51h90v-36q0 -30 30 -30h162q30 0 30 30v36h90v-51q0 -73 -73 -73zM220 528h343q88 0 127 -38.5t39 -127.5v-114h-551v-67q0 -49 18 -67t67 -18h278q37 0 52.5 15.5t15.5 52.5v23h120v-45q0 -73 -35 -107.5t-107 -34.5h-367q-88 0 -127 38.5
t-39 127.5v196q0 89 39 127.5t127 38.5zM178 354v-28h431v28q0 49 -18.5 67t-67.5 18h-260q-49 0 -67 -18t-18 -67z" />
    <glyph glyph-name="Edotaccent" unicode="&#x116;" horiz-adv-x="801" 
d="M336 848h127v-88h-127v88zM195 314v-207h574v-107h-705v700h695v-107h-564v-181h524v-98h-524z" />
    <glyph glyph-name="edotaccent" unicode="&#x117;" horiz-adv-x="783" 
d="M327 676h127v-88h-127v88zM220 528h343q88 0 127 -38.5t39 -127.5v-114h-551v-67q0 -49 18 -67t67 -18h278q37 0 52.5 15.5t15.5 52.5v23h120v-45q0 -73 -35 -107.5t-107 -34.5h-367q-88 0 -127 38.5t-39 127.5v196q0 89 39 127.5t127 38.5zM178 354v-28h431v28
q0 49 -18.5 67t-67.5 18h-260q-49 0 -67 -18t-18 -67z" />
    <glyph glyph-name="Eogonek" unicode="&#x118;" horiz-adv-x="801" 
d="M627 0l-22 -12q-22 -10 -22 -34v-13q0 -17 7 -24t24 -7h137v-70h-170q-42 0 -61 19t-19 61v16q0 44 21 64h-458v700h695v-107h-564v-181h524v-98h-524v-207h574v-107h-142z" />
    <glyph glyph-name="eogonek" unicode="&#x119;" horiz-adv-x="783" 
d="M220 528h343q88 0 127 -38.5t39 -127.5v-114h-551v-67q0 -49 18 -67t67 -18h278q37 0 52.5 15.5t15.5 52.5v23h120v-45q0 -73 -35 -107.5t-107 -34.5h-131l-22 -12q-22 -10 -22 -34v-13q0 -17 7 -24t24 -7h137v-70h-170q-42 0 -61 19t-19 61v16q0 44 21 64h-131
q-88 0 -127 38.5t-39 127.5v196q0 89 39 127.5t127 38.5zM178 354v-28h431v28q0 49 -18.5 67t-67.5 18h-260q-49 0 -67 -18t-18 -67z" />
    <glyph glyph-name="Ecaron" unicode="&#x11a;" horiz-adv-x="801" 
d="M461 798l-138 24h-14l-3 5l106 45l97 -27l-30 -47h-18zM195 314v-207h574v-107h-705v700h695v-107h-564v-181h524v-98h-524z" />
    <glyph glyph-name="ecaron" unicode="&#x11b;" horiz-adv-x="783" 
d="M452 626l-138 24h-14l-3 5l106 45l97 -27l-30 -47h-18zM220 528h343q88 0 127 -38.5t39 -127.5v-114h-551v-67q0 -49 18 -67t67 -18h278q37 0 52.5 15.5t15.5 52.5v23h120v-45q0 -73 -35 -107.5t-107 -34.5h-367q-88 0 -127 38.5t-39 127.5v196q0 89 39 127.5t127 38.5z
M178 354v-28h431v28q0 49 -18.5 67t-67.5 18h-260q-49 0 -67 -18t-18 -67z" />
    <glyph glyph-name="Gcircumflex" unicode="&#x11c;" horiz-adv-x="922" 
d="M356 748h-98l138 124h130l138 -124h-98l-105 72zM55 186v328q0 96 45 141t141 45h440q96 0 141 -45t45 -141v-42h-130v21q0 55 -22.5 77.5t-77.5 22.5h-352q-55 0 -77.5 -22.5t-22.5 -77.5v-289q0 -55 22.5 -77.5t77.5 -22.5h356q55 0 77.5 22.5t22.5 77.5v72h-263v99
h389v-189q0 -96 -45 -141t-141 -45h-440q-96 0 -141 45t-45 141z" />
    <glyph glyph-name="gcircumflex" unicode="&#x11d;" horiz-adv-x="802" 
d="M506 576l-105 72l-105 -72h-98l138 124h130l138 -124h-98zM623 455l14 73h102v-502q0 -96 -45 -141t-141 -45h-479v92h440q55 0 77.5 22.5t22.5 77.5v72l-1 -1q-50 -41 -92 -53q-42 -13 -116 -13h-185q-88 0 -127 38.5t-39 127.5v159q0 89 39 127.5t127 38.5h185
q74 0 116 -12t92 -53zM575 168l39 29v171l-39 30q-46 34 -131 34h-181q-49 0 -67 -18t-18 -67v-129q0 -49 18 -67t67 -18h181q82 0 131 35z" />
    <glyph glyph-name="Gbreve" unicode="&#x11e;" horiz-adv-x="922" 
d="M589 748h-256q-73 0 -73 73v51h90v-36q0 -30 30 -30h162q30 0 30 30v36h90v-51q0 -73 -73 -73zM55 186v328q0 96 45 141t141 45h440q96 0 141 -45t45 -141v-42h-130v21q0 55 -22.5 77.5t-77.5 22.5h-352q-55 0 -77.5 -22.5t-22.5 -77.5v-289q0 -55 22.5 -77.5t77.5 -22.5
h356q55 0 77.5 22.5t22.5 77.5v72h-263v99h389v-189q0 -96 -45 -141t-141 -45h-440q-96 0 -141 45t-45 141z" />
    <glyph glyph-name="gbreve" unicode="&#x11f;" horiz-adv-x="802" 
d="M529 576h-256q-73 0 -73 73v51h90v-36q0 -30 30 -30h162q30 0 30 30v36h90v-51q0 -73 -73 -73zM623 455l14 73h102v-502q0 -96 -45 -141t-141 -45h-479v92h440q55 0 77.5 22.5t22.5 77.5v72l-1 -1q-50 -41 -92 -53q-42 -13 -116 -13h-185q-88 0 -127 38.5t-39 127.5v159
q0 89 39 127.5t127 38.5h185q74 0 116 -12t92 -53zM575 168l39 29v171l-39 30q-46 34 -131 34h-181q-49 0 -67 -18t-18 -67v-129q0 -49 18 -67t67 -18h181q82 0 131 35z" />
    <glyph glyph-name="Gdotaccent" unicode="&#x120;" horiz-adv-x="922" 
d="M524 760h-127v88h127v-88zM55 186v328q0 96 45 141t141 45h440q96 0 141 -45t45 -141v-42h-130v21q0 55 -22.5 77.5t-77.5 22.5h-352q-55 0 -77.5 -22.5t-22.5 -77.5v-289q0 -55 22.5 -77.5t77.5 -22.5h356q55 0 77.5 22.5t22.5 77.5v72h-263v99h389v-189q0 -96 -45 -141
t-141 -45h-440q-96 0 -141 45t-45 141z" />
    <glyph glyph-name="gdotaccent" unicode="&#x121;" horiz-adv-x="802" 
d="M337 676h127v-88h-127v88zM623 455l14 73h102v-502q0 -96 -45 -141t-141 -45h-479v92h440q55 0 77.5 22.5t22.5 77.5v72l-1 -1q-50 -41 -92 -53q-42 -13 -116 -13h-185q-88 0 -127 38.5t-39 127.5v159q0 89 39 127.5t127 38.5h185q74 0 116 -12t92 -53zM575 168l39 29
v171l-39 30q-46 34 -131 34h-181q-49 0 -67 -18t-18 -67v-129q0 -49 18 -67t67 -18h181q82 0 131 35z" />
    <glyph glyph-name="Gcommaaccent" unicode="&#x122;" horiz-adv-x="922" 
d="M55 186v328q0 96 45 141t141 45h440q96 0 141 -45t45 -141v-42h-130v21q0 55 -22.5 77.5t-77.5 22.5h-352q-55 0 -77.5 -22.5t-22.5 -77.5v-289q0 -55 22.5 -77.5t77.5 -22.5h356q55 0 77.5 22.5t22.5 77.5v72h-263v99h389v-189q0 -96 -45 -141t-141 -45h-440
q-96 0 -141 45t-45 141zM468 -196h-65l43 82h-49v84h128v-35q0 -24 -4 -37.5t-19 -36.5z" />
    <glyph glyph-name="gcommaaccent" unicode="&#x123;" horiz-adv-x="802" 
d="M418 660h45v-84h-124v35q0 25 4 39t18 35l33 57h65zM623 455l14 73h102v-502q0 -96 -45 -141t-141 -45h-479v92h440q55 0 77.5 22.5t22.5 77.5v72l-1 -1q-50 -41 -92 -53q-42 -13 -116 -13h-185q-88 0 -127 38.5t-39 127.5v159q0 89 39 127.5t127 38.5h185q74 0 116 -12
t92 -53zM575 168l39 29v171l-39 30q-46 34 -131 34h-181q-49 0 -67 -18t-18 -67v-129q0 -49 18 -67t67 -18h181q82 0 131 35z" />
    <glyph glyph-name="Hcircumflex" unicode="&#x124;" horiz-adv-x="912" 
d="M561 748l-105 72l-105 -72h-98l138 124h130l138 -124h-98zM716 423v277h132v-700h-132v309h-520v-309h-132v700h132v-277h520z" />
    <glyph glyph-name="hcircumflex" unicode="&#x125;" horiz-adv-x="798" 
d="M329 748h-98l-105 72l-105 -72h-98l138 124h130zM402 528h171q88 0 127 -38.5t39 -127.5v-362h-125v342q0 49 -18 67t-67 18h-170q-86 0 -130 -34l-40 -30v-363h-126v700h126v-242l5 4q51 42 92 54t116 12z" />
    <glyph glyph-name="Hbar" unicode="&#x126;" horiz-adv-x="1032" 
d="M908 600h92v-73h-92v-527h-132v309h-520v-309h-132v527h-92v73h92v100h132v-100h520v100h132v-100zM256 423h520v104h-520v-104z" />
    <glyph glyph-name="hbar" unicode="&#x127;" horiz-adv-x="839" 
d="M449 528h171q88 0 127 -38.5t39 -127.5v-362h-125v342q0 49 -18 67t-67 18h-170q-86 0 -130 -34l-40 -30v-363h-126v579h-88v62h88v59h126v-59h242v-62h-242v-121l5 4q51 42 92 54q40 12 116 12z" />
    <glyph glyph-name="Itilde" unicode="&#x128;" horiz-adv-x="272" 
d="M16 748h-77v74q0 50 50 50h99q23 0 35 -5t27 -20l42 -39q10 -10 25 -10h24q15 0 15 14v60h77v-74q0 -50 -50 -50h-99q-23 0 -35 5t-27 20l-42 39q-10 10 -25 10h-24q-15 0 -15 -14v-60zM69 0v700h134v-700h-134z" />
    <glyph glyph-name="itilde" unicode="&#x129;" horiz-adv-x="262" 
d="M11 576h-77v74q0 50 50 50h99q23 0 35 -5t27 -20l42 -39q10 -10 25 -10h24q15 0 15 14v60h77v-74q0 -50 -50 -50h-99q-23 0 -35 5t-27 20l-42 39q-10 10 -25 10h-24q-15 0 -15 -14v-60zM194 0h-127v528h127v-528z" />
    <glyph glyph-name="Imacron" unicode="&#x12a;" horiz-adv-x="272" 
d="M348 778h-424v66h424v-66zM69 0v700h134v-700h-134z" />
    <glyph glyph-name="imacron" unicode="&#x12b;" horiz-adv-x="262" 
d="M343 606h-424v66h424v-66zM194 0h-127v528h127v-528z" />
    <glyph glyph-name="Ibreve" unicode="&#x12c;" horiz-adv-x="272" 
d="M264 748h-256q-73 0 -73 73v51h90v-36q0 -30 30 -30h162q30 0 30 30v36h90v-51q0 -73 -73 -73zM69 0v700h134v-700h-134z" />
    <glyph glyph-name="ibreve" unicode="&#x12d;" horiz-adv-x="262" 
d="M259 576h-256q-73 0 -73 73v51h90v-36q0 -30 30 -30h162q30 0 30 30v36h90v-51q0 -73 -73 -73zM194 0h-127v528h127v-528z" />
    <glyph glyph-name="Iogonek" unicode="&#x12e;" horiz-adv-x="272" 
d="M103 -90h137v-70h-170q-42 0 -61 19t-19 61v16q0 34 8.5 49.5t38.5 33.5l32 17v664h134v-700h-87l-22 -12q-22 -10 -22 -34v-13q0 -17 7 -24t24 -7z" />
    <glyph glyph-name="iogonek" unicode="&#x12f;" horiz-adv-x="262" 
d="M67 676h127v-88h-127v88zM92 -90h137v-70h-170q-42 0 -61 19t-19 61v16q0 34 8.5 49.5t38.5 33.5l41 22v487h127v-528h-89l-22 -12q-22 -10 -22 -34v-13q0 -17 7 -24t24 -7z" />
    <glyph glyph-name="Idot" unicode="&#x130;" horiz-adv-x="272" 
d="M203 760h-134v88h134v-88zM69 0v700h134v-700h-134z" />
    <glyph glyph-name="dotlessi" unicode="&#x131;" horiz-adv-x="262" 
d="M194 0h-127v528h127v-528z" />
    <glyph glyph-name="IJ" unicode="&#x132;" horiz-adv-x="1092" 
d="M69 0v700h134v-700h-134zM850 0h-360q-96 0 -141 45t-45 141v82h128v-60q0 -55 22.5 -77.5t77.5 -22.5h272q55 0 77.5 22.5t22.5 77.5v492h132v-514q0 -96 -45 -141t-141 -45z" />
    <glyph glyph-name="ij" unicode="&#x133;" horiz-adv-x="564" 
d="M193 601h-126v99h126v-99zM497 601h-126v99h126v-99zM193 0h-126v528h126v-528zM355 -160h-153v95h101q38 0 53 15t15 53v525h126v-546q0 -73 -34.5 -107.5t-107.5 -34.5z" />
    <glyph glyph-name="Jcircumflex" unicode="&#x134;" horiz-adv-x="820" 
d="M593 748h-98l138 124h130l138 -124h-98l-105 72zM578 0h-360q-96 0 -141 45t-45 141v82h128v-60q0 -55 22.5 -77.5t77.5 -22.5h272q55 0 77.5 22.5t22.5 77.5v492h132v-514q0 -96 -45 -141t-141 -45z" />
    <glyph glyph-name="jcircumflex" unicode="&#x135;" horiz-adv-x="302" 
d="M66 576h-98l138 124h130l138 -124h-98l-105 72zM92 -160h-154v94h101q37 0 52.5 15t15.5 53v526h127v-546q0 -74 -34.5 -108t-107.5 -34z" />
    <glyph glyph-name="Kcommaaccent" unicode="&#x136;" horiz-adv-x="858" 
d="M848 700l-480 -338l484 -362h-211l-446 344v-344h-131v700h131v-327l441 327h212zM397 -114h-49v84h128v-35q0 -24 -4 -37.5t-19 -36.5l-34 -57h-65z" />
    <glyph glyph-name="kcommaaccent" unicode="&#x137;" horiz-adv-x="750" 
d="M746 528l-389 -262l395 -266h-208l-356 250v-250h-125v700h125v-423l352 251h206zM348 -114h-49v84h128v-35q0 -24 -4 -37.5t-19 -36.5l-34 -57h-65z" />
    <glyph glyph-name="Lacute" unicode="&#x139;" horiz-adv-x="736" 
d="M194 872h141l-145 -124h-112zM196 700v-586h524v-114h-656v700h132z" />
    <glyph glyph-name="lacute" unicode="&#x13a;" horiz-adv-x="262" 
d="M336 872l-145 -124h-112l116 124h141zM194 0h-127v700h127v-700z" />
    <glyph glyph-name="Lcommaaccent" unicode="&#x13b;" horiz-adv-x="736" 
d="M196 700v-586h524v-114h-656v700h132zM353 -114h-49v84h128v-35q0 -24 -4 -37.5t-19 -36.5l-34 -57h-65z" />
    <glyph glyph-name="lcommaaccent" unicode="&#x13c;" horiz-adv-x="262" 
d="M194 0h-127v700h127v-700zM138 -196h-65l43 82h-49v84h128v-35q0 -24 -4 -37.5t-19 -36.5z" />
    <glyph glyph-name="Lcaron" unicode="&#x13d;" horiz-adv-x="736" 
d="M196 700v-586h524v-114h-656v700h132zM441 504h-65l43 100h-49v96h128v-49q0 -39 -21 -77z" />
    <glyph glyph-name="lcaron" unicode="&#x13e;" horiz-adv-x="386" 
d="M194 0h-127v700h127v-700zM318 504h-66l44 100h-50v96h128v-49q0 -39 -21 -77z" />
    <glyph glyph-name="Ldot" unicode="&#x13f;" horiz-adv-x="736" 
d="M196 700v-586h524v-114h-656v700h132zM388 482h152v-144h-152v144z" />
    <glyph glyph-name="ldot" unicode="&#x140;" horiz-adv-x="430" 
d="M194 0h-127v700h127v-700zM414 310h-152v144h152v-144z" />
    <glyph glyph-name="Lslash" unicode="&#x141;" horiz-adv-x="796" 
d="M256 345v-231h524v-114h-656v324l-92 -14v80l92 14v296h132v-275l342 53v-80z" />
    <glyph glyph-name="lslash" unicode="&#x142;" horiz-adv-x="347" 
d="M237 413l88 17v-80l-88 -17v-333h-127v307l-88 -17v80l88 17v313h127v-287z" />
    <glyph glyph-name="Nacute" unicode="&#x143;" horiz-adv-x="932" 
d="M528 872h141l-145 -124h-112zM740 174v526h128v-700h-106l-570 532v-532h-128v700h112z" />
    <glyph glyph-name="nacute" unicode="&#x144;" horiz-adv-x="798" 
d="M463 700h141l-145 -124h-112zM398 528h175q88 0 127 -38.5t39 -127.5v-362h-125v342q0 49 -18 67t-67 18h-170q-86 0 -130 -34l-40 -30v-363h-126v528h104l14 -73l9 7q51 42 92 54q40 12 116 12z" />
    <glyph glyph-name="Ncommaaccent" unicode="&#x145;" horiz-adv-x="932" 
d="M740 174v526h128v-700h-106l-570 532v-532h-128v700h112zM451 -114h-49v84h128v-35q0 -24 -4 -37.5t-19 -36.5l-34 -57h-65z" />
    <glyph glyph-name="ncommaaccent" unicode="&#x146;" horiz-adv-x="798" 
d="M398 528h175q88 0 127 -38.5t39 -127.5v-362h-125v342q0 49 -18 67t-67 18h-170q-86 0 -130 -34l-40 -30v-363h-126v528h104l14 -73l9 7q51 42 92 54q40 12 116 12zM384 -114h-49v84h128v-35q0 -24 -4 -37.5t-19 -36.5l-34 -57h-65z" />
    <glyph glyph-name="Ncaron" unicode="&#x147;" horiz-adv-x="932" 
d="M525 798l-138 24h-14l-3 5l106 45l97 -27l-30 -47h-18zM740 174v526h128v-700h-106l-570 532v-532h-128v700h112z" />
    <glyph glyph-name="ncaron" unicode="&#x148;" horiz-adv-x="798" 
d="M460 626l-138 24h-14l-3 5l106 45l97 -27l-30 -47h-18zM398 528h175q88 0 127 -38.5t39 -127.5v-362h-125v342q0 49 -18 67t-67 18h-170q-86 0 -130 -34l-40 -30v-363h-126v528h104l14 -73l9 7q51 42 92 54q40 12 116 12z" />
    <glyph glyph-name="Eng" unicode="&#x14a;" horiz-adv-x="932" 
d="M740 174v526h128v-684q0 -92 -42.5 -134t-133.5 -42h-152v94h110q51 0 70 18.5t20 68.5l-548 511v-532h-128v700h112z" />
    <glyph glyph-name="eng" unicode="&#x14b;" horiz-adv-x="790" 
d="M398 528h167q88 0 127 -38.5t39 -127.5v-380q0 -74 -34.5 -108t-107.5 -34h-126l1 94h74q38 0 53 15t15 53v340q0 49 -18 67t-67 18h-162q-86 0 -130 -34l-40 -30v-363h-126v528h104l14 -73l9 7q51 42 92 54q40 12 116 12z" />
    <glyph glyph-name="Omacron" unicode="&#x14c;" horiz-adv-x="924" 
d="M674 778h-424v66h424v-66zM683 0h-442q-96 0 -141 45t-45 141v328q0 96 45 141t141 45h442q96 0 141 -45t45 -141v-328q0 -96 -45 -141t-141 -45zM287 110h350q55 0 77.5 22.5t22.5 77.5v280q0 55 -22.5 77.5t-77.5 22.5h-350q-55 0 -77.5 -22t-22.5 -78v-280
q0 -56 22.5 -78t77.5 -22z" />
    <glyph glyph-name="omacron" unicode="&#x14d;" horiz-adv-x="794" 
d="M609 606h-424v66h424v-66zM574 0h-354q-88 0 -127 38.5t-39 127.5v196q0 89 39 127.5t127 38.5h354q88 0 127 -38.5t39 -127.5v-196q0 -89 -39 -127.5t-127 -38.5zM264 98h266q49 0 66.5 18t17.5 67v162q0 49 -17.5 67t-66.5 18h-266q-49 0 -66.5 -18t-17.5 -67v-162
q0 -49 17.5 -67t66.5 -18z" />
    <glyph glyph-name="Obreve" unicode="&#x14e;" horiz-adv-x="924" 
d="M590 748h-256q-73 0 -73 73v51h90v-36q0 -30 30 -30h162q30 0 30 30v36h90v-51q0 -73 -73 -73zM683 0h-442q-96 0 -141 45t-45 141v328q0 96 45 141t141 45h442q96 0 141 -45t45 -141v-328q0 -96 -45 -141t-141 -45zM287 110h350q55 0 77.5 22.5t22.5 77.5v280
q0 55 -22.5 77.5t-77.5 22.5h-350q-55 0 -77.5 -22t-22.5 -78v-280q0 -56 22.5 -78t77.5 -22z" />
    <glyph glyph-name="obreve" unicode="&#x14f;" horiz-adv-x="794" 
d="M525 576h-256q-73 0 -73 73v51h90v-36q0 -30 30 -30h162q30 0 30 30v36h90v-51q0 -73 -73 -73zM574 0h-354q-88 0 -127 38.5t-39 127.5v196q0 89 39 127.5t127 38.5h354q88 0 127 -38.5t39 -127.5v-196q0 -89 -39 -127.5t-127 -38.5zM264 98h266q49 0 66.5 18t17.5 67
v162q0 49 -17.5 67t-66.5 18h-266q-49 0 -66.5 -18t-17.5 -67v-162q0 -49 17.5 -67t66.5 -18z" />
    <glyph glyph-name="Ohungarumlaut" unicode="&#x150;" horiz-adv-x="924" 
d="M511 872l-120 -124h-106l94 124h132zM738 872l-120 -124h-106l95 124h131zM683 0h-442q-96 0 -141 45t-45 141v328q0 96 45 141t141 45h442q96 0 141 -45t45 -141v-328q0 -96 -45 -141t-141 -45zM287 110h350q55 0 77.5 22.5t22.5 77.5v280q0 55 -22.5 77.5t-77.5 22.5
h-350q-55 0 -77.5 -22t-22.5 -78v-280q0 -56 22.5 -78t77.5 -22z" />
    <glyph glyph-name="ohungarumlaut" unicode="&#x151;" horiz-adv-x="794" 
d="M446 700l-120 -124h-106l94 124h132zM673 700l-120 -124h-106l95 124h131zM574 0h-354q-88 0 -127 38.5t-39 127.5v196q0 89 39 127.5t127 38.5h354q88 0 127 -38.5t39 -127.5v-196q0 -89 -39 -127.5t-127 -38.5zM264 98h266q49 0 66.5 18t17.5 67v162q0 49 -17.5 67
t-66.5 18h-266q-49 0 -66.5 -18t-17.5 -67v-162q0 -49 17.5 -67t66.5 -18z" />
    <glyph glyph-name="OE" unicode="&#x152;" horiz-adv-x="1463" 
d="M857 314v-207h574v-107h-1190q-96 0 -141 45t-45 141v328q0 96 45 141t141 45h1180v-107h-564v-181h524v-98h-524zM285 109h442v482h-442q-55 0 -77.5 -22.5t-22.5 -77.5v-282q0 -55 22.5 -77.5t77.5 -22.5z" />
    <glyph glyph-name="oe" unicode="&#x153;" horiz-adv-x="1343" 
d="M804 528h319q88 0 127 -38.5t39 -127.5v-114h-550v-67q0 -49 17.5 -67t66.5 -18h278q37 0 52.5 15t15.5 53v23h120v-45q0 -73 -34.5 -107.5t-107.5 -34.5h-337q-100 0 -135 56q-33 -56 -134 -56h-321q-88 0 -127 38.5t-39 127.5v196q0 89 39 127.5t127 38.5h327
q96 0 129 -53q32 53 128 53zM739 354v-28h430v28q0 49 -18 67t-67 18h-261q-49 0 -66.5 -18t-17.5 -67zM614 183v162q0 49 -18 66.5t-67 17.5h-266q-49 0 -67 -17.5t-18 -66.5v-162q0 -49 18 -66.5t67 -17.5h266q49 0 67 17.5t18 66.5z" />
    <glyph glyph-name="Racute" unicode="&#x154;" horiz-adv-x="884" 
d="M506 872h141l-145 -124h-112zM644 268l214 -268h-155l-206 262h-301v-262h-132v700h598q88 0 127 -38.5t39 -127.5v-98q0 -89 -39 -127.5t-127 -38.5zM611 602h-415v-244h415q49 0 67 17.5t18 66.5v76q0 49 -18 66.5t-67 17.5z" />
    <glyph glyph-name="racute" unicode="&#x155;" horiz-adv-x="530" 
d="M331 700h141l-145 -124h-112zM394 528h120v-111h-155q-86 0 -130 -34l-40 -30v-353h-126v528h92l15 -78l16 12q51 42 92 54t116 12z" />
    <glyph glyph-name="Rcommaaccent" unicode="&#x156;" horiz-adv-x="884" 
d="M662 270l-18 -2l214 -268h-155l-206 262h-301v-262h-132v700h598q88 0 127 -38.5t39 -127.5v-98q0 -89 -39 -127.5t-127 -38.5zM611 602h-415v-244h415q49 0 67 17.5t18 66.5v76q0 49 -18 66.5t-67 17.5zM421 -114h-49v84h128v-35q0 -24 -4 -37.5t-19 -36.5l-34 -57h-65z
" />
    <glyph glyph-name="rcommaaccent" unicode="&#x157;" horiz-adv-x="530" 
d="M394 528h120v-111h-155q-86 0 -130 -34l-40 -30v-353h-126v528h92l15 -78l16 12q51 42 92 54t116 12zM111 -114h-49v84h128v-35q0 -24 -4 -37.5t-19 -36.5l-34 -57h-65z" />
    <glyph glyph-name="Rcaron" unicode="&#x158;" horiz-adv-x="884" 
d="M503 798l-138 24h-14l-3 5l106 45l97 -27l-30 -47h-18zM644 268l214 -268h-155l-206 262h-301v-262h-132v700h598q88 0 127 -38.5t39 -127.5v-98q0 -89 -39 -127.5t-127 -38.5zM611 602h-415v-244h415q49 0 67 17.5t18 66.5v76q0 49 -18 66.5t-67 17.5z" />
    <glyph glyph-name="rcaron" unicode="&#x159;" horiz-adv-x="530" 
d="M328 626l-138 24h-14l-3 5l106 45l97 -27l-30 -47h-18zM394 528h120v-111h-155q-86 0 -130 -34l-40 -30v-353h-126v528h92l15 -78l16 12q51 42 92 54t116 12z" />
    <glyph glyph-name="Sacute" unicode="&#x15a;" horiz-adv-x="902" 
d="M656 872l-145 -124h-112l116 124h141zM55 142v63h126v-36q0 -37 15.5 -52.5t52.5 -15.5h400q37 0 52.5 15.5t15.5 52.5v57q0 36 -14.5 50t-53.5 18l-442 31q-76 6 -109 38.5t-33 103.5v91q0 73 34.5 107.5t107.5 34.5h484q73 0 107.5 -34.5t34.5 -107.5v-49h-126v22
q0 37 -15.5 52.5t-52.5 15.5h-376q-37 0 -52.5 -15.5t-15.5 -52.5v-34q0 -36 14.5 -50t53.5 -18l442 -30q76 -6 109 -38.5t33 -103.5v-115q0 -73 -34.5 -107.5t-107.5 -34.5h-508q-73 0 -107.5 34.5t-34.5 107.5z" />
    <glyph glyph-name="sacute" unicode="&#x15b;" horiz-adv-x="773" 
d="M591 700l-145 -124h-112l116 124h141zM54 116v50h120v-35q0 -24 10 -34t35 -10h331q24 0 34.5 10t10.5 34v42q0 23 -10.5 33t-34.5 12l-371 26q-115 9 -115 115v54q0 56 30 85.5t85 29.5h410q55 0 85.5 -30t30.5 -86v-45h-120v30q0 24 -10.5 34t-34.5 10h-307
q-25 0 -35 -10t-10 -34v-17q0 -24 10.5 -34t34.5 -12l370 -26q116 -11 116 -115v-78q0 -56 -30.5 -85.5t-85.5 -29.5h-434q-55 0 -85 30t-30 86z" />
    <glyph glyph-name="Scircumflex" unicode="&#x15c;" horiz-adv-x="902" 
d="M346 748h-98l138 124h130l138 -124h-98l-105 72zM55 142v63h126v-36q0 -37 15.5 -52.5t52.5 -15.5h400q37 0 52.5 15.5t15.5 52.5v57q0 36 -14.5 50t-53.5 18l-442 31q-76 6 -109 38.5t-33 103.5v91q0 73 34.5 107.5t107.5 34.5h484q73 0 107.5 -34.5t34.5 -107.5v-49
h-126v22q0 37 -15.5 52.5t-52.5 15.5h-376q-37 0 -52.5 -15.5t-15.5 -52.5v-34q0 -36 14.5 -50t53.5 -18l442 -30q76 -6 109 -38.5t33 -103.5v-115q0 -73 -34.5 -107.5t-107.5 -34.5h-508q-73 0 -107.5 34.5t-34.5 107.5z" />
    <glyph glyph-name="scircumflex" unicode="&#x15d;" horiz-adv-x="773" 
d="M281 576h-98l138 124h130l138 -124h-98l-105 72zM54 116v50h120v-35q0 -24 10 -34t35 -10h331q24 0 34.5 10t10.5 34v42q0 23 -10.5 33t-34.5 12l-371 26q-115 9 -115 115v54q0 56 30 85.5t85 29.5h410q55 0 85.5 -30t30.5 -86v-45h-120v30q0 24 -10.5 34t-34.5 10h-307
q-25 0 -35 -10t-10 -34v-17q0 -24 10.5 -34t34.5 -12l370 -26q116 -11 116 -115v-78q0 -56 -30.5 -85.5t-85.5 -29.5h-434q-55 0 -85 30t-30 86z" />
    <glyph glyph-name="Scedilla" unicode="&#x15e;" horiz-adv-x="902" 
d="M263 429l442 -30q76 -6 109 -38.5t33 -103.5v-115q0 -73 -34.5 -107.5t-107.5 -34.5h-239l-11 -30h86q28 0 40 -12t12 -40v-26q0 -28 -12 -40t-40 -12h-196v47h167q13 0 13 13v13q0 13 -13 13h-117v22l19 52h-217q-73 0 -107.5 34.5t-34.5 107.5v63h126v-36
q0 -37 15.5 -52.5t52.5 -15.5h400q37 0 52.5 15.5t15.5 52.5v57q0 36 -14.5 50t-53.5 18l-442 31q-76 6 -109 38.5t-33 103.5v91q0 73 34.5 107.5t107.5 34.5h484q73 0 107.5 -34.5t34.5 -107.5v-49h-126v22q0 37 -15.5 52.5t-52.5 15.5h-376q-37 0 -52.5 -15.5t-15.5 -52.5
v-34q0 -36 14.5 -50t53.5 -18z" />
    <glyph glyph-name="scedilla" unicode="&#x15f;" horiz-adv-x="773" 
d="M233 334l370 -26q116 -11 116 -115v-78q0 -56 -30.5 -85.5t-85.5 -29.5h-202l-11 -30h86q28 0 40 -12t12 -40v-26q0 -28 -12 -40t-40 -12h-196v47h167q13 0 13 13v13q0 13 -13 13h-117v22l19 52h-180q-55 0 -85 30t-30 86v50h120v-35q0 -24 10 -34t35 -10h331
q24 0 34.5 10t10.5 34v42q0 23 -10.5 33t-34.5 12l-371 26q-115 9 -115 115v54q0 56 30 85.5t85 29.5h410q55 0 85.5 -30t30.5 -86v-45h-120v30q0 24 -10.5 34t-34.5 10h-307q-25 0 -35 -10t-10 -34v-17q0 -24 10.5 -34t34.5 -12z" />
    <glyph glyph-name="Scaron" unicode="&#x160;" horiz-adv-x="902" 
d="M530 798h-18l-138 24h-14l-3 5l106 45l97 -27zM55 142v63h126v-36q0 -37 15.5 -52.5t52.5 -15.5h400q37 0 52.5 15.5t15.5 52.5v57q0 36 -14.5 50t-53.5 18l-442 31q-76 6 -109 38.5t-33 103.5v91q0 73 34.5 107.5t107.5 34.5h484q73 0 107.5 -34.5t34.5 -107.5v-49h-126
v22q0 37 -15.5 52.5t-52.5 15.5h-376q-37 0 -52.5 -15.5t-15.5 -52.5v-34q0 -36 14.5 -50t53.5 -18l442 -30q76 -6 109 -38.5t33 -103.5v-115q0 -73 -34.5 -107.5t-107.5 -34.5h-508q-73 0 -107.5 34.5t-34.5 107.5z" />
    <glyph glyph-name="scaron" unicode="&#x161;" horiz-adv-x="773" 
d="M465 626h-18l-138 24h-14l-3 5l106 45l97 -27zM54 116v50h120v-35q0 -24 10 -34t35 -10h331q24 0 34.5 10t10.5 34v42q0 23 -10.5 33t-34.5 12l-371 26q-115 9 -115 115v54q0 56 30 85.5t85 29.5h410q55 0 85.5 -30t30.5 -86v-45h-120v30q0 24 -10.5 34t-34.5 10h-307
q-25 0 -35 -10t-10 -34v-17q0 -24 10.5 -34t34.5 -12l370 -26q116 -11 116 -115v-78q0 -56 -30.5 -85.5t-85.5 -29.5h-434q-55 0 -85 30t-30 86z" />
    <glyph glyph-name="uni0162" unicode="&#x162;" horiz-adv-x="800" 
d="M466 586v-586h-51l-11 -30h86q28 0 40 -12t12 -40v-26q0 -28 -12 -40t-40 -12h-196v47h167q13 0 13 13v13q0 13 -13 13h-117v22l19 52h-29v586h-318v114h768v-114h-318z" />
    <glyph glyph-name="uni0163" unicode="&#x163;" horiz-adv-x="614" 
d="M588 528v-97h-298v-265q0 -38 15 -53t53 -15h230v-98h-232l-11 -30h86q28 0 40 -12t12 -40v-26q0 -28 -12 -40t-40 -12h-196v47h167q13 0 13 13v13q0 13 -13 13h-117v22l19 52q-72 1 -106 35t-34 107v289h-148v97h148l25 120h101v-120h298z" />
    <glyph glyph-name="Tcaron" unicode="&#x164;" horiz-adv-x="800" 
d="M461 798l-138 24h-14l-3 5l106 45l97 -27l-30 -47h-18zM16 700h768v-114h-318v-586h-132v586h-318v114z" />
    <glyph glyph-name="tcaron" unicode="&#x165;" horiz-adv-x="624" 
d="M470 570h-69l42 82h-46v84h128v-35q0 -25 -4 -39t-18 -35zM588 528v-97h-298v-265q0 -38 15 -53t53 -15h230v-98h-282q-73 0 -107.5 34t-34.5 108v289h-148v97h148l25 120h101v-120h298z" />
    <glyph glyph-name="Tbar" unicode="&#x166;" horiz-adv-x="808" 
d="M784 700v-114h-318v-220h218v-80h-218v-286h-132v286h-210v80h210v220h-318v114h768z" />
    <glyph glyph-name="tbar" unicode="&#x167;" horiz-adv-x="613" 
d="M288 648v-209h299v-125h-299v-147q0 -37 15 -52.5t53 -15.5h231v-99h-281q-72 0 -107 34.5t-35 107.5v172h-148v125h148v89l25 120h99z" />
    <glyph glyph-name="Utilde" unicode="&#x168;" horiz-adv-x="897" 
d="M328 748h-77v74q0 50 50 50h99q23 0 35 -5t27 -20l42 -39q10 -10 25 -10h24q15 0 15 14v60h77v-74q0 -50 -50 -50h-99q-23 0 -35 5t-27 20l-42 39q-10 10 -25 10h-24q-15 0 -15 -14v-60zM654 0h-412q-96 0 -141 45t-45 141v514h132v-488q0 -55 22.5 -77.5t77.5 -22.5h320
q56 0 78 22t22 78v488h132v-514q0 -96 -45 -141t-141 -45z" />
    <glyph glyph-name="utilde" unicode="&#x169;" horiz-adv-x="798" 
d="M277 636v-60h-77v74q0 50 50 50h99q23 0 35 -5t27 -20l42 -39q10 -10 25 -10h24q15 0 15 14v60h77v-74q0 -50 -50 -50h-99q-23 0 -35 5t-27 20l-42 39q-10 10 -25 10h-24q-15 0 -15 -14zM609 528h126v-528h-104l-14 73l-9 -7q-51 -42 -91 -54q-41 -12 -117 -12h-175
q-88 0 -127 38.5t-39 127.5v362h125v-342q0 -49 18 -67t67 -18h170q86 0 130 34l40 30v363z" />
    <glyph glyph-name="Umacron" unicode="&#x16a;" horiz-adv-x="897" 
d="M660 778h-424v66h424v-66zM654 0h-412q-96 0 -141 45t-45 141v514h132v-488q0 -55 22.5 -77.5t77.5 -22.5h320q56 0 78 22t22 78v488h132v-514q0 -96 -45 -141t-141 -45z" />
    <glyph glyph-name="umacron" unicode="&#x16b;" horiz-adv-x="798" 
d="M185 672h424v-66h-424v66zM609 528h126v-528h-104l-14 73l-9 -7q-51 -42 -91 -54q-41 -12 -117 -12h-175q-88 0 -127 38.5t-39 127.5v362h125v-342q0 -49 18 -67t67 -18h170q86 0 130 34l40 30v363z" />
    <glyph glyph-name="Ubreve" unicode="&#x16c;" horiz-adv-x="897" 
d="M576 748h-256q-73 0 -73 73v51h90v-36q0 -30 30 -30h162q30 0 30 30v36h90v-51q0 -73 -73 -73zM654 0h-412q-96 0 -141 45t-45 141v514h132v-488q0 -55 22.5 -77.5t77.5 -22.5h320q56 0 78 22t22 78v488h132v-514q0 -96 -45 -141t-141 -45z" />
    <glyph glyph-name="ubreve" unicode="&#x16d;" horiz-adv-x="798" 
d="M525 576h-256q-73 0 -73 73v51h90v-36q0 -30 30 -30h162q30 0 30 30v36h90v-51q0 -73 -73 -73zM609 528h126v-528h-104l-14 73l-9 -7q-51 -42 -91 -54q-41 -12 -117 -12h-175q-88 0 -127 38.5t-39 127.5v362h125v-342q0 -49 18 -67t67 -18h170q86 0 130 34l40 30v363z
" />
    <glyph glyph-name="Uring" unicode="&#x16e;" horiz-adv-x="897" 
d="M291 792v26q0 28 12.5 41t41.5 13h206q29 0 41.5 -13t12.5 -41v-26q0 -28 -12.5 -41t-41.5 -13h-206q-29 0 -41.5 13t-12.5 41zM346 812v-14q0 -12 4 -16.5t16 -4.5h164q12 0 16 4.5t4 16.5v14q0 12 -4 16.5t-16 4.5h-164q-12 0 -16 -4.5t-4 -16.5zM654 0h-412
q-96 0 -141 45t-45 141v514h132v-488q0 -55 22.5 -77.5t77.5 -22.5h320q56 0 78 22t22 78v488h132v-514q0 -96 -45 -141t-141 -45z" />
    <glyph glyph-name="uring" unicode="&#x16f;" horiz-adv-x="798" 
d="M500 566h-206q-54 0 -54 54v26q0 54 54 54h206q54 0 54 -54v-26q0 -54 -54 -54zM295 640v-14q0 -12 4 -16.5t16 -4.5h164q12 0 16 4.5t4 16.5v14q0 12 -4 16.5t-16 4.5h-164q-12 0 -16 -4.5t-4 -16.5zM609 528h126v-528h-104l-14 73l-9 -7q-51 -42 -91 -54
q-41 -12 -117 -12h-175q-88 0 -127 38.5t-39 127.5v362h125v-342q0 -49 18 -67t67 -18h170q86 0 130 34l40 30v363z" />
    <glyph glyph-name="Uhungarumlaut" unicode="&#x170;" horiz-adv-x="897" 
d="M497 872l-120 -124h-106l94 124h132zM724 872l-120 -124h-106l95 124h131zM654 0h-412q-96 0 -141 45t-45 141v514h132v-488q0 -55 22.5 -77.5t77.5 -22.5h320q56 0 78 22t22 78v488h132v-514q0 -96 -45 -141t-141 -45z" />
    <glyph glyph-name="uhungarumlaut" unicode="&#x171;" horiz-adv-x="798" 
d="M314 700h132l-120 -124h-106zM542 700h131l-120 -124h-106zM609 528h126v-528h-104l-14 73l-9 -7q-51 -42 -91 -54q-41 -12 -117 -12h-175q-88 0 -127 38.5t-39 127.5v362h125v-342q0 -49 18 -67t67 -18h170q86 0 130 34l40 30v363z" />
    <glyph glyph-name="Uogonek" unicode="&#x172;" horiz-adv-x="897" 
d="M708 212v488h132v-514q0 -96 -45 -141t-141 -45h-109l-22 -12q-22 -10 -22 -34v-13q0 -17 7 -24t24 -7h137v-70h-170q-42 0 -61 19t-19 61v16q0 44 21 64h-198q-96 0 -141 45t-45 141v514h132v-488q0 -55 22.5 -77.5t77.5 -22.5h320q56 0 78 22t22 78z" />
    <glyph glyph-name="uogonek" unicode="&#x173;" horiz-adv-x="796" 
d="M669 -90h99v-70h-132q-42 0 -61 19t-19 61v16q0 33 9 49t38 34l22 13l-8 41l-9 -7q-51 -42 -91 -54q-41 -12 -117 -12h-175q-88 0 -127 38.5t-39 127.5v362h125v-342q0 -49 18 -67t67 -18h170q86 0 130 34l40 30v363h126v-528h-55l-20 -12q-14 -8 -18 -15t-4 -20v-12
q0 -17 7 -24t24 -7z" />
    <glyph glyph-name="Wcircumflex" unicode="&#x174;" horiz-adv-x="1258" 
d="M734 748l-105 72l-105 -72h-98l138 124h130l138 -124h-98zM900 161l216 539h140l-295 -700h-115l-217 526l-217 -526h-115l-295 700h147l215 -540l217 540h101z" />
    <glyph glyph-name="wcircumflex" unicode="&#x175;" horiz-adv-x="1058" 
d="M634 576l-105 72l-105 -72h-98l138 124h130l138 -124h-98zM754 140l166 388h132l-244 -528h-107l-171 387l-171 -387h-109l-244 528h137l168 -387l172 387h97z" />
    <glyph glyph-name="Ycircumflex" unicode="&#x176;" horiz-adv-x="856" 
d="M533 748l-105 72l-105 -72h-98l138 124h130l138 -124h-98zM704 700h156l-366 -443v-257h-132v257l-366 443h163l273 -340z" />
    <glyph glyph-name="ycircumflex" unicode="&#x177;" horiz-adv-x="758" 
d="M484 576l-105 72l-105 -72h-98l138 124h130l138 -124h-98zM381 122l231 406h142l-328 -540q-55 -90 -106 -119q-53 -29 -157 -29h-109v98h120q56 0 84 15q27 16 56 64l-310 511h147z" />
    <glyph glyph-name="Ydieresis" unicode="&#x178;" horiz-adv-x="856" 
d="M264 848h102v-88h-102v88zM490 848h102v-88h-102v88zM704 700h156l-366 -443v-257h-132v257l-366 443h163l273 -340z" />
    <glyph glyph-name="Zacute" unicode="&#x179;" horiz-adv-x="872" 
d="M641 872l-145 -124h-112l116 124h141zM830 0h-788v88l573 502h-553v110h768v-88l-573 -502h573v-110z" />
    <glyph glyph-name="zacute" unicode="&#x17a;" horiz-adv-x="758" 
d="M584 700l-145 -124h-112l116 124h141zM718 0h-678v74l470 360h-450v94h658v-74l-470 -360h470v-94z" />
    <glyph glyph-name="Zdotaccent" unicode="&#x17b;" horiz-adv-x="872" 
d="M499 760h-127v88h127v-88zM830 0h-788v88l573 502h-553v110h768v-88l-573 -502h573v-110z" />
    <glyph glyph-name="zdotaccent" unicode="&#x17c;" horiz-adv-x="758" 
d="M442 588h-127v88h127v-88zM718 0h-678v74l470 360h-450v94h658v-74l-470 -360h470v-94z" />
    <glyph glyph-name="Zcaron" unicode="&#x17d;" horiz-adv-x="872" 
d="M515 798h-18l-138 24h-14l-3 5l106 45l97 -27zM830 0h-788v88l573 502h-553v110h768v-88l-573 -502h573v-110z" />
    <glyph glyph-name="zcaron" unicode="&#x17e;" horiz-adv-x="758" 
d="M458 626h-18l-138 24h-14l-3 5l106 45l97 -27zM718 0h-678v74l470 360h-450v94h658v-74l-470 -360h470v-94z" />
    <glyph glyph-name="florin" unicode="&#x192;" horiz-adv-x="784" 
d="M736 594h-149q-54 0 -76.5 -21.5t-29.5 -78.5l-17 -161h252v-86h-261l-24 -221q-11 -99 -55 -142.5t-137 -43.5h-191v106h149q54 0 76.5 21.5t29.5 78.5l21 201h-256v86h266l19 181q11 99 55 142.5t137 43.5h191v-106z" />
    <glyph glyph-name="Aringacute" unicode="&#x1fa;" horiz-adv-x="923" 
d="M925 0h-148l-83 156h-468l-83 -156h-141l371 666h-13q-54 0 -54 54v26q0 54 54 54h69l60 72h136l-78 -72h19q54 0 54 -54v-26q0 -54 -54 -54h-11zM361 740v-14q0 -12 4 -16.5t16 -4.5h164q12 0 16 4.5t4 16.5v14q0 12 -4 16.5t-16 4.5h-164q-12 0 -16 -4.5t-4 -16.5z
M460 597l-180 -340h361z" />
    <glyph glyph-name="aringacute" unicode="&#x1fb;" horiz-adv-x="788" 
d="M557 528h6q88 0 127 -38.5t39 -127.5v-362h-102l-14 71l-17 -13q-47 -38 -80 -48t-105 -10h-233q-124 0 -124 124v55q0 124 124 124h427v52q0 48 -18.5 66t-67.5 18h-253q-38 0 -53 -15t-15 -53v-19h-120v34q0 73 35 107.5t107 34.5h27q-2 16 -2 20v26q0 28 12.5 41
t41.5 13h69l60 72h136l-78 -72h19q29 0 41.5 -13t12.5 -41v-26q0 -4 -2 -20zM300 568v-14q0 -12 4 -16.5t16 -4.5h164q12 0 16 4.5t4 16.5v14q0 12 -4 16.5t-16 4.5h-164q-12 0 -16 -4.5t-4 -16.5zM559 114l46 34v83h-366q-34 0 -47.5 -13.5t-13.5 -47.5v-26
q0 -34 13.5 -47.5t47.5 -13.5h210q67 0 110 31z" />
    <glyph glyph-name="AEacute" unicode="&#x1fc;" horiz-adv-x="1280" 
d="M752 872h141l-145 -124h-112zM746 314l109 -207h393v-107h-484l-78 154h-461l-82 -154h-141l390 700h846v-107h-639l95 -181h504v-98h-452zM461 597l-183 -343h357z" />
    <glyph glyph-name="aeacute" unicode="&#x1fd;" horiz-adv-x="1333" 
d="M731 700h141l-145 -124h-112zM794 528h319q88 0 127 -38.5t39 -127.5v-114h-550v-67q0 -49 17.5 -67t66.5 -18h278q37 0 52.5 15t15.5 53v23h120v-45q0 -73 -34.5 -107.5t-107.5 -34.5h-351q-113 0 -148 68l-12 -10q-47 -38 -80 -48t-105 -10h-263q-124 0 -124 124v55
q0 124 124 124h427v52q0 48 -18.5 66t-67.5 18h-253q-38 0 -53 -15t-15 -53v-19h-120v34q0 73 35 107.5t107 34.5h319q93 0 128 -51q35 51 127 51zM729 354v-28h430v28q0 49 -18 67t-67 18h-261q-49 0 -66.5 -18t-17.5 -67zM558 114l46 34v83h-365q-34 0 -47.5 -13.5
t-13.5 -47.5v-26q0 -34 13.5 -47.5t47.5 -13.5h210q66 0 109 31z" />
    <glyph glyph-name="Oslashacute" unicode="&#x1fe;" horiz-adv-x="924" 
d="M526 872h141l-145 -124h-112zM899 730l-76 -74q46 -45 46 -142v-328q0 -96 -45 -141t-141 -45h-442q-50 0 -81 10l-41 -40h-94l76 74q-46 45 -46 142v328q0 96 45 141t141 45h442q50 0 81 -10l41 40h94zM182 494v-288q0 -46 15 -68l467 455q-5 1 -22 1h-360
q-55 0 -77.5 -22.5t-22.5 -77.5zM742 206v288q0 46 -15 68l-467 -455q5 -1 22 -1h360q55 0 77.5 22.5t22.5 77.5z" />
    <glyph glyph-name="oslashacute" unicode="&#x1ff;" horiz-adv-x="794" 
d="M461 700h141l-145 -124h-112zM770 564l-75 -69q45 -37 45 -133v-196q0 -89 -39 -127.5t-127 -38.5h-354q-27 0 -60 5l-45 -41h-91l75 69q-45 37 -45 133v196q0 89 39 127.5t127 38.5h354q27 0 60 -5l45 41h91zM172 351v-174q0 -46 15 -64l352 323h-1h-282
q-49 0 -66.5 -18t-17.5 -67zM622 177v174q0 46 -15 64l-352 -323h1h282q49 0 66.5 18t17.5 67z" />
    <glyph glyph-name="Scommaaccent" unicode="&#x218;" horiz-adv-x="902" 
d="M55 142v63h126v-36q0 -37 15.5 -52.5t52.5 -15.5h400q37 0 52.5 15.5t15.5 52.5v57q0 36 -14.5 50t-53.5 18l-442 31q-76 6 -109 38.5t-33 103.5v91q0 73 34.5 107.5t107.5 34.5h484q73 0 107.5 -34.5t34.5 -107.5v-49h-126v22q0 37 -15.5 52.5t-52.5 15.5h-376
q-37 0 -52.5 -15.5t-15.5 -52.5v-34q0 -36 14.5 -50t53.5 -18l442 -30q76 -6 109 -38.5t33 -103.5v-115q0 -73 -34.5 -107.5t-107.5 -34.5h-508q-73 0 -107.5 34.5t-34.5 107.5zM458 -196h-65l43 82h-49v84h128v-35q0 -24 -4 -37.5t-19 -36.5z" />
    <glyph glyph-name="scommaaccent" unicode="&#x219;" horiz-adv-x="773" 
d="M54 116v50h120v-35q0 -24 10 -34t35 -10h331q24 0 34.5 10t10.5 34v42q0 23 -10.5 33t-34.5 12l-371 26q-115 9 -115 115v54q0 56 30 85.5t85 29.5h410q55 0 85.5 -30t30.5 -86v-45h-120v30q0 24 -10.5 34t-34.5 10h-307q-25 0 -35 -10t-10 -34v-17q0 -24 10.5 -34
t34.5 -12l370 -26q116 -11 116 -115v-78q0 -56 -30.5 -85.5t-85.5 -29.5h-434q-55 0 -85 30t-30 86zM393 -196h-65l43 82h-49v84h128v-35q0 -24 -4 -37.5t-19 -36.5z" />
    <glyph glyph-name="uni021A" unicode="&#x21a;" horiz-adv-x="800" 
d="M16 700h768v-114h-318v-586h-132v586h-318v114zM385 -114h-49v84h128v-35q0 -24 -4 -37.5t-19 -36.5l-34 -57h-65z" />
    <glyph glyph-name="uni021B" unicode="&#x21b;" horiz-adv-x="614" 
d="M588 528v-97h-298v-265q0 -38 15 -53t53 -15h230v-98h-282q-73 0 -107.5 34t-34.5 108v289h-148v97h148l25 120h101v-120h298zM326 -114h-49v84h128v-35q0 -24 -4 -37.5t-19 -36.5l-34 -57h-65z" />
    <glyph glyph-name="uni0237" unicode="&#x237;" horiz-adv-x="302" 
d="M92 -160h-154v94h101q37 0 52.5 15t15.5 53v526h127v-546q0 -74 -34.5 -108t-107.5 -34z" />
    <glyph glyph-name="circumflex" unicode="&#x2c6;" horiz-adv-x="502" 
d="M162 576h-98l138 124h130l138 -124h-98l-105 72z" />
    <glyph glyph-name="caron" unicode="&#x2c7;" horiz-adv-x="526" 
d="M346 626h-18l-138 24h-14l-3 5l106 45l97 -27z" />
    <glyph glyph-name="breve" unicode="&#x2d8;" horiz-adv-x="498" 
d="M393 576h-256q-73 0 -73 73v51h90v-36q0 -30 30 -30h162q30 0 30 30v36h90v-51q0 -73 -73 -73z" />
    <glyph glyph-name="dotaccent" unicode="&#x2d9;" horiz-adv-x="251" 
d="M191 588h-127v88h127v-88z" />
    <glyph glyph-name="ring" unicode="&#x2da;" horiz-adv-x="386" 
d="M52 620v26q0 54 54 54h206q54 0 54 -54v-26q0 -54 -54 -54h-206q-54 0 -54 54zM107 640v-14q0 -12 4 -16.5t16 -4.5h164q12 0 16 4.5t4 16.5v14q0 12 -4 16.5t-16 4.5h-164q-12 0 -16 -4.5t-4 -16.5z" />
    <glyph glyph-name="ogonek" unicode="&#x2db;" horiz-adv-x="350" 
d="M207 9l-39 -21q-22 -10 -22 -34v-13q0 -17 7 -24t24 -7h137v-70h-170q-42 0 -61 19t-19 61v16q0 34 8.5 49.5t38.5 33.5l50 27z" />
    <glyph glyph-name="tilde" unicode="&#x2dc;" horiz-adv-x="498" 
d="M141 576h-77v74q0 50 50 50h99q23 0 35 -5t27 -20l42 -39q10 -10 25 -10h24q15 0 15 14v60h77v-74q0 -50 -50 -50h-99q-23 0 -35 5t-27 20l-42 39q-10 10 -25 10h-24q-15 0 -15 -14v-60z" />
    <glyph glyph-name="hungarumlaut" unicode="&#x2dd;" horiz-adv-x="553" 
d="M286 700l-120 -124h-106l94 124h132zM513 700l-120 -124h-106l95 124h131z" />
    <glyph glyph-name="gravecomb" unicode="&#x300;" horiz-adv-x="0" 
d="M-64 576h-111l-146 124h142z" />
    <glyph glyph-name="acutecomb" unicode="&#x301;" horiz-adv-x="0" 
d="M-64 700l-145 -124h-112l116 124h141z" />
    <glyph glyph-name="uni0302" unicode="&#x302;" horiz-adv-x="0" 
d="M-372 576h-98l138 124h130l138 -124h-98l-105 72z" />
    <glyph glyph-name="tildecomb" unicode="&#x303;" horiz-adv-x="0" 
d="M-381 576h-77v74q0 50 50 50h99q23 0 35 -5t27 -20l42 -39q10 -10 25 -10h24q15 0 15 14v60h77v-74q0 -50 -50 -50h-99q-23 0 -35 5t-27 20l-42 39q-10 10 -25 10h-24q-15 0 -15 -14v-60z" />
    <glyph glyph-name="uni0304" unicode="&#x304;" horiz-adv-x="0" 
d="M-64 606h-424v66h424v-66z" />
    <glyph glyph-name="uni0306" unicode="&#x306;" horiz-adv-x="0" 
d="M-137 576h-256q-73 0 -73 73v51h90v-36q0 -30 30 -30h162q30 0 30 30v36h90v-51q0 -73 -73 -73z" />
    <glyph glyph-name="uni0307" unicode="&#x307;" horiz-adv-x="0" 
d="M-64 588h-127v88h127v-88z" />
    <glyph glyph-name="uni0308" unicode="&#x308;" horiz-adv-x="0" 
d="M-290 588h-102v88h102v-88zM-64 588h-102v88h102v-88z" />
    <glyph glyph-name="uni030A" unicode="&#x30a;" horiz-adv-x="0" 
d="M-366 620v26q0 54 54 54h206q54 0 54 -54v-26q0 -54 -54 -54h-206q-54 0 -54 54zM-311 640v-14q0 -12 4 -16.5t16 -4.5h164q12 0 16 4.5t4 16.5v14q0 12 -4 16.5t-16 4.5h-164q-12 0 -16 -4.5t-4 -16.5z" />
    <glyph glyph-name="uni030B" unicode="&#x30b;" horiz-adv-x="0" 
d="M-283 700l-120 -124h-106l94 124h132zM-56 700l-120 -124h-106l95 124h131z" />
    <glyph glyph-name="uni030C" unicode="&#x30c;" horiz-adv-x="0" 
d="M-188 626h-18l-138 24h-14l-3 5l106 45l97 -27z" />
    <glyph glyph-name="uni0312" unicode="&#x312;" horiz-adv-x="0" 
d="M-133 742h65l-41 -82h45v-84h-124v35q0 25 4 39t18 35z" />
    <glyph glyph-name="uni0326" unicode="&#x326;" horiz-adv-x="0" 
d="M-121 -196h-65l43 82h-49v84h128v-35q0 -24 -4 -37.5t-19 -36.5z" />
    <glyph glyph-name="uni0327" unicode="&#x327;" horiz-adv-x="0" 
d="M-104 -160h-196v47h167q13 0 13 13v13q0 13 -13 13h-117v22l26 72h52l-18 -50h86q28 0 40 -12t12 -40v-26q0 -28 -12 -40t-40 -12z" />
    <glyph glyph-name="uni0328" unicode="&#x328;" horiz-adv-x="0" 
d="M-171 9l-39 -21q-22 -10 -22 -34v-13q0 -17 7 -24t24 -7h137v-70h-170q-42 0 -61 19t-19 61v16q0 34 8.5 49.5t38.5 33.5l50 27z" />
    <glyph glyph-name="uni0335" unicode="&#x335;" horiz-adv-x="0" 
d="M-480 314v80h440v-80h-440z" />
    <glyph glyph-name="uni0336" unicode="&#x336;" horiz-adv-x="0" 
d="M-896 314v80h856v-80h-856z" />
    <glyph glyph-name="uni0337" unicode="&#x337;" horiz-adv-x="0" 
d="M-466 310v80l426 60v-80z" />
    <glyph glyph-name="uni0338" unicode="&#x338;" horiz-adv-x="0" 
d="M-624 -30l538 600h86l-538 -600h-86z" />
    <glyph glyph-name="uni0394" unicode="&#x394;" horiz-adv-x="928" 
d="M391 700h146l389 -700h-924zM461 594l-262 -492h523z" />
    <glyph glyph-name="uni03A9" unicode="&#x3a9;" horiz-adv-x="922" 
d="M634 113v-12h243v-101h-346v188h106q55 0 77.5 22.5t22.5 77.5v203q0 55 -22.5 77.5t-77.5 22.5h-352q-55 0 -77.5 -22.5t-22.5 -77.5v-203q0 -55 22.5 -77.5t77.5 -22.5h106v-188h-346v101h243v12h-59q-90 0 -132 42t-42 132v227q0 96 45 141t141 45h440q96 0 141 -45
t45 -141v-227q0 -90 -42 -132t-132 -42h-59z" />
    <glyph glyph-name="uni03BC" unicode="&#x3bc;" horiz-adv-x="849" 
d="M793 98h40v-98h-92q-98 0 -120 73l-9 -7q-51 -42 -91 -54q-41 -12 -116 -12h-173q-26 0 -47 3v-163h-122v688h126v-342q0 -49 18 -67t67 -18h170q84 0 130 34l40 30v363h125v-376q0 -30 12 -42t42 -12z" />
    <glyph glyph-name="pi" unicode="&#x3c0;" horiz-adv-x="884" 
d="M858 528v-97h-124v-265q0 -38 15 -53t53 -15h56v-98h-108q-73 0 -107.5 34t-34.5 108v289h-362v-431h-126v431h-104v97h842z" />
    <glyph glyph-name="uni0401" unicode="&#x401;" horiz-adv-x="801" 
d="M236 848h102v-88h-102v88zM462 848h102v-88h-102v88zM195 314v-207h574v-107h-705v700h695v-107h-564v-181h524v-98h-524z" />
    <glyph glyph-name="uni0403" unicode="&#x403;" horiz-adv-x="736" 
d="M432 872h141l-145 -124h-112zM64 700h656v-114h-524v-586h-132v700z" />
    <glyph glyph-name="uni0405" unicode="&#x405;" horiz-adv-x="902" 
d="M55 142v63h126v-36q0 -37 15.5 -52.5t52.5 -15.5h400q37 0 52.5 15.5t15.5 52.5v57q0 36 -14.5 50t-53.5 18l-442 31q-76 6 -109 38.5t-33 103.5v91q0 73 34.5 107.5t107.5 34.5h484q73 0 107.5 -34.5t34.5 -107.5v-49h-126v22q0 37 -15.5 52.5t-52.5 15.5h-376
q-37 0 -52.5 -15.5t-15.5 -52.5v-34q0 -36 14.5 -50t53.5 -18l442 -30q76 -6 109 -38.5t33 -103.5v-115q0 -73 -34.5 -107.5t-107.5 -34.5h-508q-73 0 -107.5 34.5t-34.5 107.5z" />
    <glyph glyph-name="uni0406" unicode="&#x406;" horiz-adv-x="272" 
d="M69 0v700h134v-700h-134z" />
    <glyph glyph-name="uni0407" unicode="&#x407;" horiz-adv-x="272" 
d="M74 760h-102v88h102v-88zM300 760h-102v88h102v-88zM69 0v700h134v-700h-134z" />
    <glyph glyph-name="uni0408" unicode="&#x408;" horiz-adv-x="820" 
d="M578 0h-360q-96 0 -141 45t-45 141v82h128v-60q0 -55 22.5 -77.5t77.5 -22.5h272q55 0 77.5 22.5t22.5 77.5v492h132v-514q0 -96 -45 -141t-141 -45z" />
    <glyph glyph-name="uni040C" unicode="&#x40c;" horiz-adv-x="858" 
d="M430 872h141l-145 -124h-112zM368 362l484 -362h-211l-446 344v-344h-131v700h131v-327l441 327h212z" />
    <glyph glyph-name="uni040E" unicode="&#x40e;" horiz-adv-x="856" 
d="M556 748h-256q-73 0 -73 73v51h90v-36q0 -30 30 -30h162q30 0 30 30v36h90v-51q0 -73 -73 -73zM431 330l273 370h156l-537 -700h-154l182 237l-355 463h163z" />
    <glyph glyph-name="uni0410" unicode="&#x410;" horiz-adv-x="920" 
d="M925 0h-148l-83 156h-468l-83 -156h-141l390 700h144zM460 597l-180 -340h361z" />
    <glyph glyph-name="uni0411" unicode="&#x411;" horiz-adv-x="885" 
d="M695 0h-631v700h713v-101h-582v-186h500q73 0 107.5 -34t34.5 -108v-129q0 -73 -35 -107.5t-107 -34.5zM195 322v-222h443q38 0 53 15t15 53v86q0 38 -15 53t-53 15h-443z" />
    <glyph glyph-name="uni0412" unicode="&#x412;" horiz-adv-x="885" 
d="M754 367q83 -21 83 -128v-97q0 -73 -35 -107.5t-107 -34.5h-631v700h611q72 0 107 -34.5t35 -107.5v-69q0 -93 -63 -122zM618 600h-423v-192h423q38 0 53 15t15 53v56q0 38 -15 53t-53 15zM706 168v83q0 38 -15 53t-53 15h-443v-219h443q38 0 53 15t15 53z" />
    <glyph glyph-name="uni0413" unicode="&#x413;" horiz-adv-x="736" 
d="M64 700h656v-114h-524v-586h-132v700z" />
    <glyph glyph-name="uni0414" unicode="&#x414;" horiz-adv-x="958" 
d="M858 700v-590h84v-230h-124v120h-678v-120h-124v230h44q48 0 65.5 17t19.5 65l33 508h680zM305 586l-26 -382q-4 -60 -20 -94h467v476h-421z" />
    <glyph glyph-name="uni0415" unicode="&#x415;" horiz-adv-x="801" 
d="M195 314v-207h574v-107h-705v700h695v-107h-564v-181h524v-98h-524z" />
    <glyph glyph-name="uni0416" unicode="&#x416;" horiz-adv-x="1456" 
d="M967 362l483 -362h-211l-445 344v-344h-132v344l-445 -344h-211l483 362l-479 338h212l440 -326v326h132v-326l440 326h212z" />
    <glyph glyph-name="uni0417" unicode="&#x417;" horiz-adv-x="901" 
d="M770 366q77 -24 77 -127v-97q0 -73 -35 -107.5t-107 -34.5h-509q-72 0 -107 34.5t-35 107.5v95h127v-69q0 -38 15 -53t53 -15h399q38 0 53 15t15 53v81q0 38 -15 53t-53 15h-302v93h292q38 0 53 15t15 53v54q0 38 -15 53t-53 15h-379q-38 0 -53 -15t-15 -53v-61h-127v87
q0 73 35 107.5t107 34.5h489q72 0 107 -34.5t35 -107.5v-69q0 -98 -67 -123z" />
    <glyph glyph-name="uni0418" unicode="&#x418;" horiz-adv-x="932" 
d="M192 174l564 526h112v-700h-128v532l-570 -532h-106v700h128v-526z" />
    <glyph glyph-name="uni0419" unicode="&#x419;" horiz-adv-x="932" 
d="M594 748h-256q-73 0 -73 73v51h90v-36q0 -30 30 -30h162q30 0 30 30v36h90v-51q0 -73 -73 -73zM192 174l564 526h112v-700h-128v532l-570 -532h-106v700h128v-526z" />
    <glyph glyph-name="uni041A" unicode="&#x41a;" horiz-adv-x="858" 
d="M368 362l484 -362h-211l-446 344v-344h-131v700h131v-327l441 327h212z" />
    <glyph glyph-name="uni041B" unicode="&#x41b;" horiz-adv-x="910" 
d="M94 0h-78v110h32q48 0 65.5 17t19.5 65l33 508h680v-700h-132v586h-421l-28 -418q-6 -90 -45 -129t-126 -39z" />
    <glyph glyph-name="uni041C" unicode="&#x41c;" horiz-adv-x="1040" 
d="M523 261l341 439h112v-700h-126v506l-294 -372h-72l-294 372v-506h-126v700h117z" />
    <glyph glyph-name="uni041D" unicode="&#x41d;" horiz-adv-x="912" 
d="M716 423v277h132v-700h-132v309h-520v-309h-132v700h132v-277h520z" />
    <glyph glyph-name="uni041E" unicode="&#x41e;" horiz-adv-x="924" 
d="M683 0h-442q-96 0 -141 45t-45 141v328q0 96 45 141t141 45h442q96 0 141 -45t45 -141v-328q0 -96 -45 -141t-141 -45zM287 110h350q55 0 77.5 22.5t22.5 77.5v280q0 55 -22.5 77.5t-77.5 22.5h-350q-55 0 -77.5 -22t-22.5 -78v-280q0 -56 22.5 -78t77.5 -22z" />
    <glyph glyph-name="uni041F" unicode="&#x41f;" horiz-adv-x="912" 
d="M196 0h-132v700h784v-700h-132v586h-520v-586z" />
    <glyph glyph-name="uni0420" unicode="&#x420;" horiz-adv-x="860" 
d="M196 0h-132v700h598q88 0 127 -38.5t39 -127.5v-128q0 -89 -39 -127.5t-127 -38.5h-466v-240zM196 598v-260h415q49 0 67 17.5t18 66.5v92q0 49 -18 66.5t-67 17.5h-415z" />
    <glyph glyph-name="uni0421" unicode="&#x421;" horiz-adv-x="896" 
d="M659 0h-418q-96 0 -141 45t-45 141v328q0 96 45 141t141 45h418q96 0 141 -45t45 -141v-74h-128v52q0 55 -22.5 77.5t-77.5 22.5h-330q-55 0 -77.5 -22.5t-22.5 -77.5v-284q0 -55 22.5 -77.5t77.5 -22.5h330q55 0 77.5 22.5t22.5 77.5v61h128v-83q0 -96 -45 -141
t-141 -45z" />
    <glyph glyph-name="uni0422" unicode="&#x422;" horiz-adv-x="800" 
d="M16 700h768v-114h-318v-586h-132v586h-318v114z" />
    <glyph glyph-name="uni0423" unicode="&#x423;" horiz-adv-x="856" 
d="M431 330l273 370h156l-537 -700h-154l182 237l-355 463h163z" />
    <glyph glyph-name="uni0424" unicode="&#x424;" horiz-adv-x="1162" 
d="M643 654h278q96 0 141 -45t45 -141v-236q0 -96 -45 -141t-141 -45h-278v-86h-124v86h-278q-96 0 -141 45t-45 141v236q0 96 45 141t141 45h278v86h124v-86zM287 145h232v410h-232q-55 0 -77.5 -22.5t-22.5 -77.5v-210q0 -55 22.5 -77.5t77.5 -22.5zM975 245v210
q0 55 -22.5 77.5t-77.5 22.5h-232v-410h232q55 0 77.5 22.5t22.5 77.5z" />
    <glyph glyph-name="uni0425" unicode="&#x425;" horiz-adv-x="875" 
d="M167 0h-161l344 356l-334 344h171l255 -274l253 274h164l-334 -344l344 -356h-171l-264 286z" />
    <glyph glyph-name="uni0426" unicode="&#x426;" horiz-adv-x="948" 
d="M808 0h-744v700h132v-586h520v586h132v-586h84v-234h-124v120z" />
    <glyph glyph-name="uni0427" unicode="&#x427;" horiz-adv-x="868" 
d="M804 0h-132v252h-474q-88 0 -127 38.5t-39 127.5v282h132v-250q0 -49 18 -66.5t67 -17.5h423v334h132v-700z" />
    <glyph glyph-name="uni0428" unicode="&#x428;" horiz-adv-x="1360" 
d="M1296 0h-1232v700h132v-586h418v586h132v-586h418v586h132v-700z" />
    <glyph glyph-name="uni0429" unicode="&#x429;" horiz-adv-x="1396" 
d="M1256 0h-1192v700h132v-586h418v586h132v-586h418v586h132v-586h84v-234h-124v120z" />
    <glyph glyph-name="uni042A" unicode="&#x42a;" horiz-adv-x="1038" 
d="M234 590h-218v110h350v-240h474q88 0 127 -38.5t39 -127.5v-128q0 -89 -39 -127.5t-127 -38.5h-606v590zM366 362v-260h423q49 0 67 17.5t18 66.5v92q0 49 -18 66.5t-67 17.5h-423z" />
    <glyph glyph-name="uni042B" unicode="&#x42b;" horiz-adv-x="1132" 
d="M64 0v700h132v-240h466q88 0 127 -38.5t39 -127.5v-128q0 -89 -39 -127.5t-127 -38.5h-598zM929 0v700h134v-700h-134zM611 362h-415v-260h415q49 0 67 17.5t18 66.5v92q0 49 -18 66.5t-67 17.5z" />
    <glyph glyph-name="uni042C" unicode="&#x42c;" horiz-adv-x="860" 
d="M64 0v700h132v-240h466q88 0 127 -38.5t39 -127.5v-128q0 -89 -39 -127.5t-127 -38.5h-598zM611 362h-415v-260h415q49 0 67 17.5t18 66.5v92q0 49 -18 66.5t-67 17.5z" />
    <glyph glyph-name="uni042D" unicode="&#x42d;" horiz-adv-x="910" 
d="M238 700h432q96 0 141 -45t45 -141v-328q0 -96 -45 -141t-141 -45h-432q-96 0 -141 45t-45 141v83h128v-69q0 -55 22.5 -77.5t77.5 -22.5h344q55 0 77.5 22.5t22.5 77.5v118h-364v85h364v97q0 55 -22.5 77.5t-77.5 22.5h-344q-55 0 -77.5 -22.5t-22.5 -77.5v-60h-128v74
q0 96 45 141t141 45z" />
    <glyph glyph-name="uni042E" unicode="&#x42e;" horiz-adv-x="1355" 
d="M672 700h442q96 0 141 -45t45 -141v-328q0 -96 -45 -141t-141 -45h-442q-96 0 -141 45t-45 141v123h-290v-309h-132v700h132v-278h290v92q0 96 45 141t141 45zM1168 210v280q0 55 -22.5 77.5t-77.5 22.5h-350q-55 0 -77.5 -22.5t-22.5 -77.5v-280q0 -55 22.5 -77.5
t77.5 -22.5h350q55 0 77.5 22.5t22.5 77.5z" />
    <glyph glyph-name="uni042F" unicode="&#x42f;" horiz-adv-x="884" 
d="M222 700h598v-700h-132v262h-301l-206 -262h-155l214 268l-18 2q-88 0 -127 38.5t-39 127.5v98q0 89 39 127.5t127 38.5zM273 358h415v244h-415q-49 0 -67 -17.5t-18 -66.5v-76q0 -49 18 -66.5t67 -17.5z" />
    <glyph glyph-name="uni0430" unicode="&#x430;" horiz-adv-x="785" 
d="M220 528h343q88 0 127 -38.5t39 -127.5v-362h-102l-14 71l-17 -13q-47 -38 -80 -48t-105 -10h-233q-124 0 -124 124v55q0 124 124 124h427v52q0 48 -18.5 66t-67.5 18h-253q-38 0 -53 -15t-15 -53v-19h-120v34q0 73 35 107.5t107 34.5zM559 114l46 34v83h-366
q-34 0 -47.5 -13.5t-13.5 -47.5v-26q0 -34 13.5 -47.5t47.5 -13.5h210q67 0 110 31z" />
    <glyph glyph-name="uni0431" unicode="&#x431;" horiz-adv-x="794" 
d="M269 458h329q73 0 107.5 -34t34.5 -108v-174q0 -73 -35 -107.5t-107 -34.5h-401q-72 0 -107 34.5t-35 107.5v359q0 94 44 138t142 50l479 21v-97l-461 -22q-58 -3 -81 -26t-23 -80v-74q29 47 114 47zM616 164v133q0 37 -15.5 52.5t-52.5 15.5h-301q-37 0 -52.5 -15.5
t-15.5 -52.5v-133q0 -37 15.5 -52.5t52.5 -15.5h301q38 0 53 15t15 53z" />
    <glyph glyph-name="uni0432" unicode="&#x432;" horiz-adv-x="796" 
d="M672 277q61 -16 61 -97v-73q0 -107 -107 -107h-561v528h546q107 0 107 -107v-53q0 -72 -46 -91zM545 442h-356v-131h356q27 0 38 11t11 38v35q0 26 -11 36.5t-38 10.5zM609 133v54q0 27 -11 37.5t-37 10.5h-372v-149h372q26 0 37 10.5t11 36.5z" />
    <glyph glyph-name="uni0433" unicode="&#x433;" horiz-adv-x="639" 
d="M189 0h-126v528h560v-101h-434v-427z" />
    <glyph glyph-name="uni0434" unicode="&#x434;" horiz-adv-x="843" 
d="M747 528v-430h80v-218h-118v120h-575v-120h-118v218h37q42 0 58 16t19 58l24 356h593zM274 427l-18 -246q-4 -49 -19 -83h384v329h-347z" />
    <glyph glyph-name="uni0435" unicode="&#x435;" horiz-adv-x="783" 
d="M220 528h343q88 0 127 -38.5t39 -127.5v-114h-551v-67q0 -49 18 -67t67 -18h278q37 0 52.5 15.5t15.5 52.5v23h120v-45q0 -73 -35 -107.5t-107 -34.5h-367q-88 0 -127 38.5t-39 127.5v196q0 89 39 127.5t127 38.5zM178 354v-28h431v28q0 49 -18.5 67t-67.5 18h-260
q-49 0 -67 -18t-18 -67z" />
    <glyph glyph-name="uni0436" unicode="&#x436;" horiz-adv-x="1257" 
d="M859 266l396 -266h-208l-356 249v-249h-125v249l-355 -249h-209l396 266l-390 262h207l351 -251v251h125v-251l352 251h206z" />
    <glyph glyph-name="uni0437" unicode="&#x437;" horiz-adv-x="783" 
d="M672 275q57 -18 57 -95v-73q0 -55 -26 -81t-82 -26h-460q-107 0 -107 107v69h120v-39q0 -28 11.5 -39t39.5 -11h328q29 0 40.5 11t11.5 39v46q0 28 -11.5 39.5t-40.5 11.5h-238v79h231q28 0 39.5 11.5t11.5 39.5v27q0 28 -11.5 39t-39.5 11h-314q-28 0 -39 -11t-11 -39
v-33h-120v63q0 107 107 107h445q108 0 108 -107v-53q0 -72 -50 -93z" />
    <glyph glyph-name="uni0438" unicode="&#x438;" horiz-adv-x="816" 
d="M185 145l462 383h106v-528h-121v389l-469 -389h-100v528h122v-383z" />
    <glyph glyph-name="uni0439" unicode="&#x439;" horiz-adv-x="816" 
d="M536 576h-256q-73 0 -73 73v51h90v-36q0 -30 30 -30h162q30 0 30 30v36h90v-51q0 -73 -73 -73zM185 145l462 383h106v-528h-121v389l-469 -389h-100v528h122v-383z" />
    <glyph glyph-name="uni043A" unicode="&#x43a;" horiz-adv-x="754" 
d="M357 266l395 -266h-208l-356 250v-250h-125v528h125v-251l352 251h206z" />
    <glyph glyph-name="uni043B" unicode="&#x43b;" horiz-adv-x="797" 
d="M89 0h-73v98h25q41 0 57 16t19 58l24 356h593v-528h-126v427h-347l-19 -278q-6 -78 -42 -113.5t-111 -35.5z" />
    <glyph glyph-name="uni043C" unicode="&#x43c;" horiz-adv-x="902" 
d="M181 0h-118v528h112l278 -319l280 319h106v-528h-117v371l-241 -271h-59l-241 271v-371z" />
    <glyph glyph-name="uni043D" unicode="&#x43d;" horiz-adv-x="802" 
d="M614 322v206h125v-528h-125v222h-425v-222h-126v528h126v-206h425z" />
    <glyph glyph-name="uni043E" unicode="&#x43e;" horiz-adv-x="794" 
d="M574 0h-354q-88 0 -127 38.5t-39 127.5v196q0 89 39 127.5t127 38.5h354q88 0 127 -38.5t39 -127.5v-196q0 -89 -39 -127.5t-127 -38.5zM264 98h266q49 0 66.5 18t17.5 67v162q0 49 -17.5 67t-66.5 18h-266q-49 0 -66.5 -18t-17.5 -67v-162q0 -49 17.5 -67t66.5 -18z" />
    <glyph glyph-name="uni043F" unicode="&#x43f;" horiz-adv-x="802" 
d="M189 0h-126v528h676v-528h-125v427h-425v-427z" />
    <glyph glyph-name="uni0440" unicode="&#x440;" horiz-adv-x="803" 
d="M398 528h185q88 0 127 -38.5t39 -127.5v-196q0 -89 -39 -127.5t-127 -38.5h-185q-76 0 -116 12q-41 12 -92 54l-1 1v-227h-126v688h104l14 -73l9 7q51 42 92 54q40 12 116 12zM624 183v162q0 49 -18 67t-67 18h-180q-83 0 -130 -35l-40 -30v-202l40 -30q47 -35 130 -35
h180q49 0 67 18t18 67z" />
    <glyph glyph-name="uni0441" unicode="&#x441;" horiz-adv-x="770" 
d="M54 166v196q0 89 39 127.5t127 38.5h330q88 0 127 -38.5t39 -127.5v-41h-122v24q0 49 -17.5 67t-66.5 18h-246q-49 0 -66.5 -18t-17.5 -67v-162q0 -49 17.5 -67t66.5 -18h246q49 0 66.5 18t17.5 67v32h122v-49q0 -89 -39 -127.5t-127 -38.5h-330q-88 0 -127 38.5
t-39 127.5z" />
    <glyph glyph-name="uni0442" unicode="&#x442;" horiz-adv-x="692" 
d="M283 427h-267v101h660v-101h-267v-427h-126v427z" />
    <glyph glyph-name="uni0443" unicode="&#x443;" horiz-adv-x="758" 
d="M381 122l231 406h142l-328 -540q-55 -90 -106 -119q-53 -29 -157 -29h-109v98h120q56 0 84 15q27 16 56 64l-310 511h147z" />
    <glyph glyph-name="uni0444" unicode="&#x444;" horiz-adv-x="1114" 
d="M618 528h276q88 0 127 -38.5t39 -127.5v-196q0 -89 -39 -127.5t-127 -38.5h-276v-160h-122v160h-276q-88 0 -127 38.5t-39 127.5v196q0 89 39 127.5t127 38.5h276v172h122v-172zM264 90h232v348h-232q-49 0 -66.5 -18t-17.5 -67v-178q0 -49 17.5 -67t66.5 -18zM934 175
v178q0 49 -17.5 67t-66.5 18h-232v-348h232q49 0 66.5 18t17.5 67z" />
    <glyph glyph-name="uni0445" unicode="&#x445;" horiz-adv-x="757" 
d="M165 0h-163l288 269l-278 259h171l199 -197l199 197h164l-278 -259l288 -269h-172l-208 207z" />
    <glyph glyph-name="uni0446" unicode="&#x446;" horiz-adv-x="835" 
d="M702 0h-639v528h126v-427h425v427h125v-427h80v-221h-117v120z" />
    <glyph glyph-name="uni0447" unicode="&#x447;" horiz-adv-x="755" 
d="M32 529l126 -1v-171q0 -38 15 -53t53 -15h340v239h126v-528h-126v188h-392q-73 0 -107.5 34.5t-34.5 107.5v199z" />
    <glyph glyph-name="uni0448" unicode="&#x448;" horiz-adv-x="1187" 
d="M1124 0h-1061v528h126v-427h342v427h125v-427h342v427h126v-528z" />
    <glyph glyph-name="uni0449" unicode="&#x449;" horiz-adv-x="1228" 
d="M1094 0h-1031v528h126v-427h346v427h125v-427h346v427h126v-427h80v-221h-118v120z" />
    <glyph glyph-name="uni044A" unicode="&#x44a;" horiz-adv-x="882" 
d="M190 427h-174v101h300v-179h396q72 0 105 -33t33 -105v-73q0 -72 -33 -105t-105 -33h-522v427zM316 266v-179h344q36 0 50 14.5t14 50.5v49q0 36 -14 50.5t-50 14.5h-344z" />
    <glyph glyph-name="uni044B" unicode="&#x44b;" horiz-adv-x="1017" 
d="M63 0v528h126v-179h396q72 0 105 -33t33 -105v-73q0 -72 -33 -105t-105 -33h-522zM949 0h-127v528h127v-528zM533 266h-344v-179h344q36 0 50.5 14.5t14.5 50.5v49q0 36 -14.5 50.5t-50.5 14.5z" />
    <glyph glyph-name="uni044C" unicode="&#x44c;" horiz-adv-x="755" 
d="M63 0v528h126v-179h396q72 0 105 -33t33 -105v-73q0 -72 -33 -105t-105 -33h-522zM533 266h-344v-179h344q36 0 50.5 14.5t14.5 50.5v49q0 36 -14.5 50.5t-50.5 14.5z" />
    <glyph glyph-name="uni044D" unicode="&#x44d;" horiz-adv-x="789" 
d="M220 528h349q88 0 127 -38.5t39 -127.5v-196q0 -89 -39 -127.5t-127 -38.5h-349q-88 0 -127 38.5t-39 127.5v48h120v-33q0 -49 18 -67t67 -18h266q49 0 67.5 18t18.5 67v55h-294v75h294v36q0 49 -18.5 67t-67.5 18h-266q-49 0 -67 -18t-18 -67v-26h-120v41q0 89 39 127.5
t127 38.5z" />
    <glyph glyph-name="uni044E" unicode="&#x44e;" horiz-adv-x="1155" 
d="M581 528h354q88 0 127 -38.5t39 -127.5v-196q0 -89 -39 -127.5t-127 -38.5h-354q-88 0 -127 38.5t-39 127.5v56h-226v-222h-126v528h126v-206h226v40q0 89 39 127.5t127 38.5zM976 183v162q0 49 -18 67t-67 18h-265q-49 0 -67 -18t-18 -67v-162q0 -49 18 -67t67 -18h265
q49 0 67 18t18 67z" />
    <glyph glyph-name="uni044F" unicode="&#x44f;" horiz-adv-x="779" 
d="M194 528h522v-528h-126v194h-271l-151 -194h-140l158 200q-67 2 -98.5 35.5t-31.5 102.5v52q0 72 33 105t105 33zM246 274h344v170h-344q-36 0 -50 -14.5t-14 -50.5v-40q0 -36 14 -50.5t50 -14.5z" />
    <glyph glyph-name="uni0451" unicode="&#x451;" horiz-adv-x="783" 
d="M227 676h102v-88h-102v88zM453 676h102v-88h-102v88zM220 528h343q88 0 127 -38.5t39 -127.5v-114h-551v-67q0 -49 18 -67t67 -18h278q37 0 52.5 15.5t15.5 52.5v23h120v-45q0 -73 -35 -107.5t-107 -34.5h-367q-88 0 -127 38.5t-39 127.5v196q0 89 39 127.5t127 38.5z
M178 354v-28h431v28q0 49 -18.5 67t-67.5 18h-260q-49 0 -67 -18t-18 -67z" />
    <glyph glyph-name="uni0453" unicode="&#x453;" horiz-adv-x="639" 
d="M525 700l-145 -124h-112l116 124h141zM189 0h-126v528h560v-101h-434v-427z" />
    <glyph glyph-name="uni0455" unicode="&#x455;" horiz-adv-x="773" 
d="M54 116v50h120v-35q0 -24 10 -34t35 -10h331q24 0 34.5 10t10.5 34v42q0 23 -10.5 33t-34.5 12l-371 26q-115 9 -115 115v54q0 56 30 85.5t85 29.5h410q55 0 85.5 -30t30.5 -86v-45h-120v30q0 24 -10.5 34t-34.5 10h-307q-25 0 -35 -10t-10 -34v-17q0 -24 10.5 -34
t34.5 -12l370 -26q116 -11 116 -115v-78q0 -56 -30.5 -85.5t-85.5 -29.5h-434q-55 0 -85 30t-30 86z" />
    <glyph glyph-name="uni0456" unicode="&#x456;" horiz-adv-x="260" 
d="M193 601h-126v99h126v-99zM193 0h-126v528h126v-528z" />
    <glyph glyph-name="uni0457" unicode="&#x457;" horiz-adv-x="262" 
d="M69 588h-102v88h102v-88zM295 588h-102v88h102v-88zM194 0h-127v528h127v-528z" />
    <glyph glyph-name="uni0458" unicode="&#x458;" horiz-adv-x="300" 
d="M233 601h-126v99h126v-99zM91 -160h-153v95h101q38 0 53 15t15 53v525h126v-546q0 -73 -34.5 -107.5t-107.5 -34.5z" />
    <glyph glyph-name="uni045C" unicode="&#x45c;" horiz-adv-x="754" 
d="M445 700h141l-145 -124h-112zM357 266l395 -266h-208l-356 250v-250h-125v528h125v-251l352 251h206z" />
    <glyph glyph-name="uni045E" unicode="&#x45e;" horiz-adv-x="758" 
d="M507 576h-256q-73 0 -73 73v51h90v-36q0 -30 30 -30h162q30 0 30 30v36h90v-51q0 -73 -73 -73zM381 122l231 406h142l-328 -540q-55 -90 -106 -119q-53 -29 -157 -29h-109v98h120q56 0 84 15q27 16 56 64l-310 511h147z" />
    <glyph glyph-name="uni0498" unicode="&#x498;" horiz-adv-x="901" 
d="M770 366q77 -24 77 -127v-97q0 -73 -35 -107.5t-107 -34.5h-240l-11 -30h86q28 0 40 -12t12 -40v-26q0 -28 -12 -40t-40 -12h-196v47h167q13 0 13 13v13q0 13 -13 13h-117v22l19 52h-217q-72 0 -107 34.5t-35 107.5v95h127v-69q0 -38 15 -53t53 -15h399q38 0 53 15t15 53
v81q0 38 -15 53t-53 15h-302v93h292q38 0 53 15t15 53v54q0 38 -15 53t-53 15h-379q-38 0 -53 -15t-15 -53v-61h-127v87q0 73 35 107.5t107 34.5h489q72 0 107 -34.5t35 -107.5v-69q0 -98 -67 -123z" />
    <glyph glyph-name="uni0499" unicode="&#x499;" horiz-adv-x="783" 
d="M672 275q57 -18 57 -95v-73q0 -55 -26 -81t-82 -26h-215l-11 -30h86q28 0 40 -12t12 -40v-26q0 -28 -12 -40t-40 -12h-196v47h167q13 0 13 13v13q0 13 -13 13h-117v22l19 52h-193q-107 0 -107 107v69h120v-39q0 -28 11.5 -39t39.5 -11h328q29 0 40.5 11t11.5 39v46
q0 28 -11.5 39.5t-40.5 11.5h-238v79h231q28 0 39.5 11.5t11.5 39.5v27q0 28 -11.5 39t-39.5 11h-314q-28 0 -39 -11t-11 -39v-33h-120v63q0 107 107 107h445q108 0 108 -107v-53q0 -72 -50 -93z" />
    <glyph glyph-name="uni04BB" unicode="&#x4bb;" horiz-adv-x="798" 
d="M402 528h171q88 0 127 -38.5t39 -127.5v-362h-125v342q0 49 -18 67t-67 18h-170q-86 0 -130 -34l-40 -30v-363h-126v700h126v-242l5 4q51 42 92 54t116 12z" />
    <glyph glyph-name="uni04C0" unicode="&#x4c0;" horiz-adv-x="272" 
d="M69 0v700h134v-700h-134z" />
    <glyph glyph-name="uni04C1" unicode="&#x4c1;" horiz-adv-x="1456" 
d="M856 748h-256q-73 0 -73 73v51h90v-36q0 -30 30 -30h162q30 0 30 30v36h90v-51q0 -73 -73 -73zM967 362l483 -362h-211l-445 344v-344h-132v344l-445 -344h-211l483 362l-479 338h212l440 -326v326h132v-326l440 326h212z" />
    <glyph glyph-name="uni04C2" unicode="&#x4c2;" horiz-adv-x="1257" 
d="M757 576h-256q-73 0 -73 73v51h90v-36q0 -30 30 -30h162q30 0 30 30v36h90v-51q0 -73 -73 -73zM859 266l396 -266h-208l-356 249v-249h-125v249l-355 -249h-209l396 266l-390 262h207l351 -251v251h125v-251l352 251h206z" />
    <glyph glyph-name="uni04D0" unicode="&#x4d0;" horiz-adv-x="920" 
d="M591 748h-256q-73 0 -73 73v51h90v-36q0 -30 30 -30h162q30 0 30 30v36h90v-51q0 -73 -73 -73zM925 0h-148l-83 156h-468l-83 -156h-141l390 700h144zM460 597l-180 -340h361z" />
    <glyph glyph-name="uni04D1" unicode="&#x4d1;" horiz-adv-x="785" 
d="M525 576h-256q-73 0 -73 73v51h90v-36q0 -30 30 -30h162q30 0 30 30v36h90v-51q0 -73 -73 -73zM220 528h343q88 0 127 -38.5t39 -127.5v-362h-102l-14 71l-17 -13q-47 -38 -80 -48t-105 -10h-233q-124 0 -124 124v55q0 124 124 124h427v52q0 48 -18.5 66t-67.5 18h-253
q-38 0 -53 -15t-15 -53v-19h-120v34q0 73 35 107.5t107 34.5zM559 114l46 34v83h-366q-34 0 -47.5 -13.5t-13.5 -47.5v-26q0 -34 13.5 -47.5t47.5 -13.5h210q67 0 110 31z" />
    <glyph glyph-name="uni04D2" unicode="&#x4d2;" horiz-adv-x="920" 
d="M299 848h102v-88h-102v88zM525 848h102v-88h-102v88zM925 0h-148l-83 156h-468l-83 -156h-141l390 700h144zM460 597l-180 -340h361z" />
    <glyph glyph-name="uni04D3" unicode="&#x4d3;" horiz-adv-x="785" 
d="M233 676h102v-88h-102v88zM459 676h102v-88h-102v88zM220 528h343q88 0 127 -38.5t39 -127.5v-362h-102l-14 71l-17 -13q-47 -38 -80 -48t-105 -10h-233q-124 0 -124 124v55q0 124 124 124h427v52q0 48 -18.5 66t-67.5 18h-253q-38 0 -53 -15t-15 -53v-19h-120v34
q0 73 35 107.5t107 34.5zM559 114l46 34v83h-366q-34 0 -47.5 -13.5t-13.5 -47.5v-26q0 -34 13.5 -47.5t47.5 -13.5h210q67 0 110 31z" />
    <glyph glyph-name="uni04D4" unicode="&#x4d4;" horiz-adv-x="1280" 
d="M746 314l109 -207h393v-107h-484l-78 154h-461l-82 -154h-141l390 700h846v-107h-639l95 -181h504v-98h-452zM461 597l-183 -343h357z" />
    <glyph glyph-name="uni04D5" unicode="&#x4d5;" horiz-adv-x="1333" 
d="M794 528h319q88 0 127 -38.5t39 -127.5v-114h-550v-67q0 -49 17.5 -67t66.5 -18h278q37 0 52.5 15t15.5 53v23h120v-45q0 -73 -34.5 -107.5t-107.5 -34.5h-351q-113 0 -148 68l-12 -10q-47 -38 -80 -48t-105 -10h-263q-124 0 -124 124v55q0 124 124 124h427v52
q0 48 -18.5 66t-67.5 18h-253q-38 0 -53 -15t-15 -53v-19h-120v34q0 73 35 107.5t107 34.5h319q93 0 128 -51q35 51 127 51zM729 354v-28h430v28q0 49 -18 67t-67 18h-261q-49 0 -66.5 -18t-17.5 -67zM558 114l46 34v83h-365q-34 0 -47.5 -13.5t-13.5 -47.5v-26
q0 -34 13.5 -47.5t47.5 -13.5h210q66 0 109 31z" />
    <glyph glyph-name="uni04D6" unicode="&#x4d6;" horiz-adv-x="801" 
d="M528 748h-256q-73 0 -73 73v51h90v-36q0 -30 30 -30h162q30 0 30 30v36h90v-51q0 -73 -73 -73zM195 314v-207h574v-107h-705v700h695v-107h-564v-181h524v-98h-524z" />
    <glyph glyph-name="uni04D7" unicode="&#x4d7;" horiz-adv-x="783" 
d="M519 576h-256q-73 0 -73 73v51h90v-36q0 -30 30 -30h162q30 0 30 30v36h90v-51q0 -73 -73 -73zM220 528h343q88 0 127 -38.5t39 -127.5v-114h-551v-67q0 -49 18 -67t67 -18h278q37 0 52.5 15.5t15.5 52.5v23h120v-45q0 -73 -35 -107.5t-107 -34.5h-367q-88 0 -127 38.5
t-39 127.5v196q0 89 39 127.5t127 38.5zM178 354v-28h431v28q0 49 -18.5 67t-67.5 18h-260q-49 0 -67 -18t-18 -67z" />
    <glyph glyph-name="uni04DC" unicode="&#x4dc;" horiz-adv-x="1456" 
d="M564 848h102v-88h-102v88zM790 848h102v-88h-102v88zM967 362l483 -362h-211l-445 344v-344h-132v344l-445 -344h-211l483 362l-479 338h212l440 -326v326h132v-326l440 326h212z" />
    <glyph glyph-name="uni04DD" unicode="&#x4dd;" horiz-adv-x="1257" 
d="M465 676h102v-88h-102v88zM691 676h102v-88h-102v88zM859 266l396 -266h-208l-356 249v-249h-125v249l-355 -249h-209l396 266l-390 262h207l351 -251v251h125v-251l352 251h206z" />
    <glyph glyph-name="uni04DE" unicode="&#x4de;" horiz-adv-x="901" 
d="M286 848h102v-88h-102v88zM512 848h102v-88h-102v88zM770 366q77 -24 77 -127v-97q0 -73 -35 -107.5t-107 -34.5h-509q-72 0 -107 34.5t-35 107.5v95h127v-69q0 -38 15 -53t53 -15h399q38 0 53 15t15 53v81q0 38 -15 53t-53 15h-302v93h292q38 0 53 15t15 53v54
q0 38 -15 53t-53 15h-379q-38 0 -53 -15t-15 -53v-61h-127v87q0 73 35 107.5t107 34.5h489q72 0 107 -34.5t35 -107.5v-69q0 -98 -67 -123z" />
    <glyph glyph-name="uni04DF" unicode="&#x4df;" horiz-adv-x="783" 
d="M227 676h102v-88h-102v88zM453 676h102v-88h-102v88zM672 275q57 -18 57 -95v-73q0 -55 -26 -81t-82 -26h-460q-107 0 -107 107v69h120v-39q0 -28 11.5 -39t39.5 -11h328q29 0 40.5 11t11.5 39v46q0 28 -11.5 39.5t-40.5 11.5h-238v79h231q28 0 39.5 11.5t11.5 39.5v27
q0 28 -11.5 39t-39.5 11h-314q-28 0 -39 -11t-11 -39v-33h-120v63q0 107 107 107h445q108 0 108 -107v-53q0 -72 -50 -93z" />
    <glyph glyph-name="uni04E2" unicode="&#x4e2;" horiz-adv-x="932" 
d="M254 844h424v-66h-424v66zM192 174l564 526h112v-700h-128v532l-570 -532h-106v700h128v-526z" />
    <glyph glyph-name="uni04E3" unicode="&#x4e3;" horiz-adv-x="816" 
d="M196 672h424v-66h-424v66zM185 145l462 383h106v-528h-121v389l-469 -389h-100v528h122v-383z" />
    <glyph glyph-name="uni04E4" unicode="&#x4e4;" horiz-adv-x="932" 
d="M302 848h102v-88h-102v88zM528 848h102v-88h-102v88zM192 174l564 526h112v-700h-128v532l-570 -532h-106v700h128v-526z" />
    <glyph glyph-name="uni04E5" unicode="&#x4e5;" horiz-adv-x="816" 
d="M244 676h102v-88h-102v88zM470 676h102v-88h-102v88zM185 145l462 383h106v-528h-121v389l-469 -389h-100v528h122v-383z" />
    <glyph glyph-name="uni04E6" unicode="&#x4e6;" horiz-adv-x="924" 
d="M400 760h-102v88h102v-88zM626 760h-102v88h102v-88zM683 0h-442q-96 0 -141 45t-45 141v328q0 96 45 141t141 45h442q96 0 141 -45t45 -141v-328q0 -96 -45 -141t-141 -45zM287 110h350q55 0 77.5 22.5t22.5 77.5v280q0 55 -22.5 77.5t-77.5 22.5h-350q-55 0 -77.5 -22
t-22.5 -78v-280q0 -56 22.5 -78t77.5 -22z" />
    <glyph glyph-name="uni04E7" unicode="&#x4e7;" horiz-adv-x="794" 
d="M335 588h-102v88h102v-88zM561 588h-102v88h102v-88zM574 0h-354q-88 0 -127 38.5t-39 127.5v196q0 89 39 127.5t127 38.5h354q88 0 127 -38.5t39 -127.5v-196q0 -89 -39 -127.5t-127 -38.5zM264 98h266q49 0 66.5 18t17.5 67v162q0 49 -17.5 67t-66.5 18h-266
q-49 0 -66.5 -18t-17.5 -67v-162q0 -49 17.5 -67t66.5 -18z" />
    <glyph glyph-name="uni04EC" unicode="&#x4ec;" horiz-adv-x="910" 
d="M291 848h102v-88h-102v88zM517 848h102v-88h-102v88zM238 700h432q96 0 141 -45t45 -141v-328q0 -96 -45 -141t-141 -45h-432q-96 0 -141 45t-45 141v83h128v-69q0 -55 22.5 -77.5t77.5 -22.5h344q55 0 77.5 22.5t22.5 77.5v118h-364v85h364v97q0 55 -22.5 77.5
t-77.5 22.5h-344q-55 0 -77.5 -22.5t-22.5 -77.5v-60h-128v74q0 96 45 141t141 45z" />
    <glyph glyph-name="uni04ED" unicode="&#x4ed;" horiz-adv-x="789" 
d="M224 676h102v-88h-102v88zM450 676h102v-88h-102v88zM220 528h349q88 0 127 -38.5t39 -127.5v-196q0 -89 -39 -127.5t-127 -38.5h-349q-88 0 -127 38.5t-39 127.5v48h120v-33q0 -49 18 -67t67 -18h266q49 0 67.5 18t18.5 67v55h-294v75h294v36q0 49 -18.5 67t-67.5 18
h-266q-49 0 -67 -18t-18 -67v-26h-120v41q0 89 39 127.5t127 38.5z" />
    <glyph glyph-name="uni04EE" unicode="&#x4ee;" horiz-adv-x="856" 
d="M216 844h424v-66h-424v66zM431 330l273 370h156l-537 -700h-154l182 237l-355 463h163z" />
    <glyph glyph-name="uni04EF" unicode="&#x4ef;" horiz-adv-x="758" 
d="M167 672h424v-66h-424v66zM381 122l231 406h142l-328 -540q-55 -90 -106 -119q-53 -29 -157 -29h-109v98h120q56 0 84 15q27 16 56 64l-310 511h147z" />
    <glyph glyph-name="uni04F0" unicode="&#x4f0;" horiz-adv-x="856" 
d="M264 848h102v-88h-102v88zM490 848h102v-88h-102v88zM431 330l273 370h156l-537 -700h-154l182 237l-355 463h163z" />
    <glyph glyph-name="uni04F1" unicode="&#x4f1;" horiz-adv-x="758" 
d="M215 676h102v-88h-102v88zM441 676h102v-88h-102v88zM381 122l231 406h142l-328 -540q-55 -90 -106 -119q-53 -29 -157 -29h-109v98h120q56 0 84 15q27 16 56 64l-310 511h147z" />
    <glyph glyph-name="uni04F2" unicode="&#x4f2;" horiz-adv-x="856" 
d="M345 872h132l-120 -124h-106zM573 872h131l-120 -124h-106zM431 330l273 370h156l-537 -700h-154l182 237l-355 463h163z" />
    <glyph glyph-name="uni04F3" unicode="&#x4f3;" horiz-adv-x="758" 
d="M296 700h132l-120 -124h-106zM524 700h131l-120 -124h-106zM381 122l231 406h142l-328 -540q-55 -90 -106 -119q-53 -29 -157 -29h-109v98h120q56 0 84 15q27 16 56 64l-310 511h147z" />
    <glyph glyph-name="uni04F4" unicode="&#x4f4;" horiz-adv-x="868" 
d="M372 760h-102v88h102v-88zM598 760h-102v88h102v-88zM804 0h-132v252h-474q-88 0 -127 38.5t-39 127.5v282h132v-250q0 -49 18 -66.5t67 -17.5h423v334h132v-700z" />
    <glyph glyph-name="uni04F5" unicode="&#x4f5;" horiz-adv-x="600" 
d="M166 588h-102v88h102v-88zM392 588h-102v88h102v-88zM32 529l126 -1v-171q0 -38 15 -53t53 -15h340v239h126v-528h-126v188h-392q-73 0 -107.5 34.5t-34.5 107.5v199z" />
    <glyph glyph-name="uni04F8" unicode="&#x4f8;" horiz-adv-x="1132" 
d="M934 760h-102v88h102v-88zM1160 760h-102v88h102v-88zM64 0v700h132v-240h466q88 0 127 -38.5t39 -127.5v-128q0 -89 -39 -127.5t-127 -38.5h-598zM929 0v700h134v-700h-134zM611 362h-415v-260h415q49 0 67 17.5t18 66.5v92q0 49 -18 66.5t-67 17.5z" />
    <glyph glyph-name="uni04F9" unicode="&#x4f9;" horiz-adv-x="1017" 
d="M824 588h-102v88h102v-88zM1050 588h-102v88h102v-88zM63 0v528h126v-179h396q72 0 105 -33t33 -105v-73q0 -72 -33 -105t-105 -33h-522zM949 0h-127v528h127v-528zM533 266h-344v-179h344q36 0 50.5 14.5t14.5 50.5v49q0 36 -14.5 50.5t-50.5 14.5z" />
    <glyph glyph-name="Wgrave" unicode="&#x1e80;" horiz-adv-x="1258" 
d="M566 872l115 -124h-111l-146 124h142zM900 161l216 539h140l-295 -700h-115l-217 526l-217 -526h-115l-295 700h147l215 -540l217 540h101z" />
    <glyph glyph-name="wgrave" unicode="&#x1e81;" horiz-adv-x="1058" 
d="M466 700l115 -124h-111l-146 124h142zM754 140l166 388h132l-244 -528h-107l-171 387l-171 -387h-109l-244 528h137l168 -387l172 387h97z" />
    <glyph glyph-name="Wacute" unicode="&#x1e82;" horiz-adv-x="1258" 
d="M693 872h141l-145 -124h-112zM900 161l216 539h140l-295 -700h-115l-217 526l-217 -526h-115l-295 700h147l215 -540l217 540h101z" />
    <glyph glyph-name="wacute" unicode="&#x1e83;" horiz-adv-x="1058" 
d="M593 700h141l-145 -124h-112zM754 140l166 388h132l-244 -528h-107l-171 387l-171 -387h-109l-244 528h137l168 -387l172 387h97z" />
    <glyph glyph-name="Wdieresis" unicode="&#x1e84;" horiz-adv-x="1258" 
d="M465 848h102v-88h-102v88zM691 848h102v-88h-102v88zM900 161l216 539h140l-295 -700h-115l-217 526l-217 -526h-115l-295 700h147l215 -540l217 540h101z" />
    <glyph glyph-name="wdieresis" unicode="&#x1e85;" horiz-adv-x="1058" 
d="M365 676h102v-88h-102v88zM591 676h102v-88h-102v88zM754 140l166 388h132l-244 -528h-107l-171 387l-171 -387h-109l-244 528h137l168 -387l172 387h97z" />
    <glyph glyph-name="uni1E9E" unicode="&#x1e9e;" horiz-adv-x="920" 
d="M559 420h168q73 0 107.5 -34t34.5 -108v-136q0 -73 -34.5 -107.5t-107.5 -34.5h-368v97h312q37 0 52.5 15.5t15.5 52.5v95q0 38 -15 53t-53 15h-292v68l243 196h-335q-55 0 -77.5 -22.5t-22.5 -77.5v-492h-130v514q0 96 45 141t141 45h580v-58z" />
    <glyph glyph-name="Ygrave" unicode="&#x1ef2;" horiz-adv-x="856" 
d="M365 872l115 -124h-111l-146 124h142zM704 700h156l-366 -443v-257h-132v257l-366 443h163l273 -340z" />
    <glyph glyph-name="ygrave" unicode="&#x1ef3;" horiz-adv-x="758" 
d="M316 700l115 -124h-111l-146 124h142zM381 122l231 406h142l-328 -540q-55 -90 -106 -119q-53 -29 -157 -29h-109v98h120q56 0 84 15q27 16 56 64l-310 511h147z" />
    <glyph glyph-name="endash" unicode="&#x2013;" horiz-adv-x="760" 
d="M48 298v104h664v-104h-664z" />
    <glyph glyph-name="emdash" unicode="&#x2014;" horiz-adv-x="1028" 
d="M48 298v104h932v-104h-932z" />
    <glyph glyph-name="quoteleft" unicode="&#x2018;" horiz-adv-x="280" 
d="M135 700h81l-51 -160h51v-132h-152v55q0 52 20 97z" />
    <glyph glyph-name="quoteright" unicode="&#x2019;" horiz-adv-x="280" 
d="M145 408h-81l51 160h-51v132h152v-55q0 -52 -20 -97z" />
    <glyph glyph-name="quotesinglbase" unicode="&#x201a;" horiz-adv-x="280" 
d="M145 -160h-81l51 160h-51v132h152v-55q0 -52 -20 -97z" />
    <glyph glyph-name="quotedblleft" unicode="&#x201c;" horiz-adv-x="528" 
d="M135 700h81l-51 -160h51v-132h-152v55q0 52 20 97zM383 700h81l-51 -160h51v-132h-152v55q0 52 20 97z" />
    <glyph glyph-name="quotedblright" unicode="&#x201d;" horiz-adv-x="528" 
d="M145 408h-81l51 160h-51v132h152v-55q0 -52 -20 -97zM393 408h-81l51 160h-51v132h152v-55q0 -52 -20 -97z" />
    <glyph glyph-name="quotedblbase" unicode="&#x201e;" horiz-adv-x="528" 
d="M145 -160h-81l51 160h-51v132h152v-55q0 -52 -20 -97zM393 -160h-81l51 160h-51v132h152v-55q0 -52 -20 -97z" />
    <glyph glyph-name="dagger" unicode="&#x2020;" horiz-adv-x="494" 
d="M290 576h162v-76h-162v-226h-86v226h-162v76h162v124h86v-124z" />
    <glyph glyph-name="daggerdbl" unicode="&#x2021;" horiz-adv-x="494" 
d="M452 582v-74h-162v-138h162v-74h-162v-118h-86v118h-162v74h162v138h-162v74h162v118h86v-118h162z" />
    <glyph glyph-name="bullet" unicode="&#x2022;" horiz-adv-x="380" 
d="M245 224h-110q-71 0 -71 71v110q0 71 71 71h110q71 0 71 -71v-110q0 -71 -71 -71z" />
    <glyph glyph-name="perthousand" unicode="&#x2030;" horiz-adv-x="1404" 
d="M318 306h-172q-104 0 -104 104v106q0 54 25.5 79t78.5 25h172q53 0 78.5 -25t25.5 -79v-106q0 -104 -104 -104zM216 0h-86l626 620h86zM169 372h126q28 0 39.5 12t11.5 40v78q0 28 -11.5 40t-39.5 12h-126q-28 0 -39.5 -12t-11.5 -40v-78q0 -28 11.5 -40t39.5 -12zM826 0
h-172q-104 0 -104 104v106q0 54 25.5 79t78.5 25h172q53 0 78.5 -25t25.5 -79v-106q0 -104 -104 -104zM1258 0h-172q-104 0 -104 104v106q0 54 25.5 79t78.5 25h172q53 0 78.5 -25t25.5 -79v-106q0 -104 -104 -104zM677 66h126q28 0 39.5 12t11.5 40v78q0 28 -11.5 40
t-39.5 12h-126q-28 0 -39.5 -12t-11.5 -40v-78q0 -28 11.5 -40t39.5 -12zM1109 66h126q28 0 39.5 12t11.5 40v78q0 28 -11.5 40t-39.5 12h-126q-28 0 -39.5 -12t-11.5 -40v-78q0 -28 11.5 -40t39.5 -12z" />
    <glyph glyph-name="guilsinglleft" unicode="&#x2039;" horiz-adv-x="524" 
d="M52 388l420 198v-103l-308 -132l308 -133v-105l-420 198v77z" />
    <glyph glyph-name="guilsinglright" unicode="&#x203a;" horiz-adv-x="524" 
d="M52 481v105l420 -198v-77l-420 -198v103l308 133z" />
    <glyph glyph-name="fraction" unicode="&#x2044;" horiz-adv-x="233" 
d="M-148 0h-85l615 700h84z" />
    <glyph glyph-name="Euro" unicode="&#x20ac;" horiz-adv-x="892" 
d="M826 514v-74h-124v62q0 55 -22.5 77.5t-77.5 22.5h-270q-55 0 -77.5 -22.5t-22.5 -77.5v-50h350v-59h-350v-86h350v-59h-350v-50q0 -55 22.5 -77.5t77.5 -22.5h270q55 0 77.5 22.5t22.5 77.5v71h124v-83q0 -96 -45 -141t-141 -45h-350q-96 0 -141 45t-45 141v62h-98v59
h98v86h-98v59h98v62q0 96 45 141t141 45h350q96 0 141 -45t45 -141z" />
    <glyph glyph-name="trademark" unicode="&#x2122;" horiz-adv-x="663" 
d="M135 650h-103v50h261v-50h-103v-183h-55v183zM477 567l105 133h49v-233h-54v153l-87 -108h-29l-87 108v-153h-54v233h51z" />
    <glyph glyph-name="minus" unicode="&#x2212;" 
d="M68 298v104h728v-104h-728z" />
    <glyph glyph-name="approxequal" unicode="&#x2248;" 
d="M385 622l192 -154q23 -21 55 -21h23q18 0 25.5 7.5t7.5 25.5v194h108v-214q0 -51 -21.5 -72.5t-72.5 -21.5h-91q-48 0 -71 10q-25 9 -61 42l-192 154q-23 21 -55 21h-23q-18 0 -25.5 -7.5t-7.5 -25.5v-194h-108v214q0 51 21.5 72.5t72.5 21.5h91q47 0 72 -9
q26 -11 60 -43zM385 282l192 -154q23 -21 55 -21h23q18 0 25.5 7.5t7.5 25.5v194h108v-214q0 -51 -21.5 -72.5t-72.5 -21.5h-91q-48 0 -71 10q-25 9 -61 42l-192 154q-23 21 -55 21h-23q-18 0 -25.5 -7.5t-7.5 -25.5v-194h-108v214q0 51 21.5 72.5t72.5 21.5h91q47 0 72 -9
q26 -11 60 -43z" />
    <glyph glyph-name="notequal" unicode="&#x2260;" 
d="M796 526v-100h-275l-77 -152h352v-100h-402l-66 -130h-101l66 130h-225v100h275l77 152h-352v100h402l66 130h101l-66 -130h225z" />
    <glyph glyph-name="lessequal" unicode="&#x2264;" 
d="M68 492l728 184v-106l-592 -124l592 -124v-107l-728 184v93zM796 24h-728v93h728v-93z" />
    <glyph glyph-name="greaterequal" unicode="&#x2265;" 
d="M68 570v106l728 -184v-93l-728 -184v107l592 124zM796 24h-728v93h728v-93z" />
    <glyph glyph-name="fi" unicode="&#xfb01;" horiz-adv-x="853" 
d="M164 465v93q0 73 35 107.5t107 34.5h271v-97h-221q-38 0 -53 -15.5t-15 -52.5v-70h289v-97h-289v-368h-124v368h-148v97h148zM660 601v99h126v-99h-126zM786 0h-126v528h126v-528z" />
    <glyph glyph-name="fl" unicode="&#xfb02;" horiz-adv-x="855" 
d="M164 465v93q0 73 35 107.5t107 34.5h271v-97h-221q-38 0 -53 -15.5t-15 -52.5v-70h289v-97h-289v-368h-124v368h-148v97h148zM660 0v700h127v-700h-127z" />
    <glyph glyph-name="null" horiz-adv-x="0" 
 />
    <glyph glyph-name="A.ss01" horiz-adv-x="912" 
d="M243 700h427q96 0 141 -45t45 -141v-514h-131v223h-538v-223h-130v514q0 96 45 141t141 45zM187 491v-162h538v162q0 55 -22.5 77.5t-77.5 22.5h-338q-55 0 -77.5 -22.5t-22.5 -77.5z" />
    <glyph glyph-name="Aacute.ss01" horiz-adv-x="912" 
d="M522 872h141l-145 -124h-112zM243 700h427q96 0 141 -45t45 -141v-514h-131v223h-538v-223h-130v514q0 96 45 141t141 45zM187 491v-162h538v162q0 55 -22.5 77.5t-77.5 22.5h-338q-55 0 -77.5 -22.5t-22.5 -77.5z" />
    <glyph glyph-name="Abreve.ss01" horiz-adv-x="912" 
d="M586 748h-256q-73 0 -73 73v51h90v-36q0 -30 30 -30h162q30 0 30 30v36h90v-51q0 -73 -73 -73zM243 700h427q96 0 141 -45t45 -141v-514h-131v223h-538v-223h-130v514q0 96 45 141t141 45zM187 491v-162h538v162q0 55 -22.5 77.5t-77.5 22.5h-338q-55 0 -77.5 -22.5
t-22.5 -77.5z" />
    <glyph glyph-name="Acircumflex.ss01" horiz-adv-x="912" 
d="M563 748l-105 72l-105 -72h-98l138 124h130l138 -124h-98zM243 700h427q96 0 141 -45t45 -141v-514h-131v223h-538v-223h-130v514q0 96 45 141t141 45zM187 491v-162h538v162q0 55 -22.5 77.5t-77.5 22.5h-338q-55 0 -77.5 -22.5t-22.5 -77.5z" />
    <glyph glyph-name="Adieresis.ss01" horiz-adv-x="912" 
d="M294 848h102v-88h-102v88zM520 848h102v-88h-102v88zM243 700h427q96 0 141 -45t45 -141v-514h-131v223h-538v-223h-130v514q0 96 45 141t141 45zM187 491v-162h538v162q0 55 -22.5 77.5t-77.5 22.5h-338q-55 0 -77.5 -22.5t-22.5 -77.5z" />
    <glyph glyph-name="Agrave.ss01" horiz-adv-x="912" 
d="M395 872l115 -124h-111l-146 124h142zM243 700h427q96 0 141 -45t45 -141v-514h-131v223h-538v-223h-130v514q0 96 45 141t141 45zM187 491v-162h538v162q0 55 -22.5 77.5t-77.5 22.5h-338q-55 0 -77.5 -22.5t-22.5 -77.5z" />
    <glyph glyph-name="Amacron.ss01" horiz-adv-x="912" 
d="M246 844h424v-66h-424v66zM243 700h427q96 0 141 -45t45 -141v-514h-131v223h-538v-223h-130v514q0 96 45 141t141 45zM187 491v-162h538v162q0 55 -22.5 77.5t-77.5 22.5h-338q-55 0 -77.5 -22.5t-22.5 -77.5z" />
    <glyph glyph-name="Aogonek.ss01" horiz-adv-x="912" 
d="M751 -90h137v-70h-170q-42 0 -61 19t-19 61v16q0 34 8.5 49.5t38.5 33.5l40 22v182h-538v-223h-130v514q0 96 45 141t141 45h427q96 0 141 -45t45 -141v-514h-92l-22 -12q-22 -10 -22 -34v-13q0 -17 7 -24t24 -7zM187 491v-162h538v162q0 55 -22.5 77.5t-77.5 22.5h-338
q-55 0 -77.5 -22.5t-22.5 -77.5z" />
    <glyph glyph-name="Aring.ss01" horiz-adv-x="912" 
d="M561 738h-206q-29 0 -41.5 13t-12.5 41v26q0 28 12.5 41t41.5 13h206q29 0 41.5 -13t12.5 -41v-26q0 -28 -12.5 -41t-41.5 -13zM356 812v-14q0 -12 4 -16.5t16 -4.5h164q12 0 16 4.5t4 16.5v14q0 12 -4 16.5t-16 4.5h-164q-12 0 -16 -4.5t-4 -16.5zM243 700h427
q96 0 141 -45t45 -141v-514h-131v223h-538v-223h-130v514q0 96 45 141t141 45zM187 491v-162h538v162q0 55 -22.5 77.5t-77.5 22.5h-338q-55 0 -77.5 -22.5t-22.5 -77.5z" />
    <glyph glyph-name="Aringacute.ss01" horiz-adv-x="912" 
d="M613 700h57q96 0 141 -45t45 -141v-514h-131v223h-538v-223h-130v514q0 96 45 141t141 45h60q-2 16 -2 20v26q0 28 12.5 41t41.5 13h69l60 72h136l-78 -72h19q29 0 41.5 -13t12.5 -41v-26q0 -4 -2 -20zM356 740v-14q0 -12 4 -16.5t16 -4.5h164q12 0 16 4.5t4 16.5v14
q0 12 -4 16.5t-16 4.5h-164q-12 0 -16 -4.5t-4 -16.5zM187 491v-162h538v162q0 55 -22.5 77.5t-77.5 22.5h-338q-55 0 -77.5 -22.5t-22.5 -77.5z" />
    <glyph glyph-name="Atilde.ss01" horiz-adv-x="912" 
d="M338 808v-60h-77v74q0 50 50 50h99q23 0 35 -5t27 -20l42 -39q10 -10 25 -10h24q15 0 15 14v60h77v-74q0 -50 -50 -50h-99q-23 0 -35 5t-27 20l-42 39q-10 10 -25 10h-24q-15 0 -15 -14zM243 700h427q96 0 141 -45t45 -141v-514h-131v223h-538v-223h-130v514q0 96 45 141
t141 45zM187 491v-162h538v162q0 55 -22.5 77.5t-77.5 22.5h-338q-55 0 -77.5 -22.5t-22.5 -77.5z" />
    <glyph glyph-name="I.ss01" horiz-adv-x="656" 
d="M624 700v-99h-229v-502h229v-99h-592v99h229v502h-229v99h592z" />
    <glyph glyph-name="Iacute.ss01" horiz-adv-x="656" 
d="M392 872h141l-145 -124h-112zM624 700v-99h-229v-502h229v-99h-592v99h229v502h-229v99h592z" />
    <glyph glyph-name="Icircumflex.ss01" horiz-adv-x="656" 
d="M433 748l-105 72l-105 -72h-98l138 124h130l138 -124h-98zM624 700v-99h-229v-502h229v-99h-592v99h229v502h-229v99h592z" />
    <glyph glyph-name="Idieresis.ss01" horiz-adv-x="656" 
d="M164 848h102v-88h-102v88zM390 848h102v-88h-102v88zM624 700v-99h-229v-502h229v-99h-592v99h229v502h-229v99h592z" />
    <glyph glyph-name="Idotaccent.ss01" horiz-adv-x="656" 
d="M264 848h127v-88h-127v88zM624 700v-99h-229v-502h229v-99h-592v99h229v502h-229v99h592z" />
    <glyph glyph-name="Igrave.ss01" horiz-adv-x="656" 
d="M265 872l115 -124h-111l-146 124h142zM624 700v-99h-229v-502h229v-99h-592v99h229v502h-229v99h592z" />
    <glyph glyph-name="Imacron.ss01" horiz-adv-x="656" 
d="M116 844h424v-66h-424v66zM624 700v-99h-229v-502h229v-99h-592v99h229v502h-229v99h592z" />
    <glyph glyph-name="Iogonek.ss01" horiz-adv-x="656" 
d="M624 700v-99h-229v-502h229v-99h-124l-22 -12q-22 -10 -22 -34v-13q0 -17 7 -24t24 -7h137v-70h-170q-42 0 -61 19t-19 61v16q0 44 21 64h-363v99h229v502h-229v99h592z" />
    <glyph glyph-name="Itilde.ss01" horiz-adv-x="656" 
d="M208 808v-60h-77v74q0 50 50 50h99q23 0 35 -5t27 -20l42 -39q10 -10 25 -10h24q15 0 15 14v60h77v-74q0 -50 -50 -50h-99q-23 0 -35 5t-27 20l-42 39q-10 10 -25 10h-24q-15 0 -15 -14zM624 700v-99h-229v-502h229v-99h-592v99h229v502h-229v99h592z" />
    <glyph glyph-name="R.ss01" horiz-adv-x="884" 
d="M828 558v-123q0 -99 -71 -125q71 -26 71 -125v-185h-132v192q0 39 -16 54.5t-54 15.5h-430v-262h-132v700h622q73 0 107.5 -34t34.5 -108zM626 602h-430v-244h430q38 0 54 15.5t16 54.5v104q0 39 -16 54.5t-54 15.5z" />
    <glyph glyph-name="Racute.ss01" horiz-adv-x="884" 
d="M506 872h141l-145 -124h-112zM828 558v-123q0 -99 -71 -125q71 -26 71 -125v-185h-132v192q0 39 -16 54.5t-54 15.5h-430v-262h-132v700h622q73 0 107.5 -34t34.5 -108zM626 602h-430v-244h430q38 0 54 15.5t16 54.5v104q0 39 -16 54.5t-54 15.5z" />
    <glyph glyph-name="Rcaron.ss01" horiz-adv-x="884" 
d="M503 798l-138 24h-14l-3 5l106 45l97 -27l-30 -47h-18zM828 558v-123q0 -99 -71 -125q71 -26 71 -125v-185h-132v192q0 39 -16 54.5t-54 15.5h-430v-262h-132v700h622q73 0 107.5 -34t34.5 -108zM626 602h-430v-244h430q38 0 54 15.5t16 54.5v104q0 39 -16 54.5t-54 15.5
z" />
    <glyph glyph-name="Rcommaaccent.ss01" horiz-adv-x="884" 
d="M828 558v-123q0 -99 -71 -125q71 -26 71 -125v-185h-132v192q0 39 -16 54.5t-54 15.5h-430v-262h-132v700h622q73 0 107.5 -34t34.5 -108zM626 602h-430v-244h430q38 0 54 15.5t16 54.5v104q0 39 -16 54.5t-54 15.5zM427 -114h-49v84h128v-35q0 -24 -4 -37.5t-19 -36.5
l-34 -57h-65z" />
    <glyph glyph-name="i.loclTRK" horiz-adv-x="262" 
d="M194 588h-127v88h127v-88zM194 0h-127v528h127v-528z" />
    <glyph glyph-name="uni0410.ss01" horiz-adv-x="915" 
d="M243 700h430q96 0 141 -45t45 -141v-514h-130v223h-542v-223h-130v514q0 96 45 141t141 45zM187 491v-162h542v162q0 55 -22.5 77.5t-77.5 22.5h-342q-55 0 -77.5 -22.5t-22.5 -77.5z" />
    <glyph glyph-name="uni042F.ss01" horiz-adv-x="884" 
d="M198 700h622v-700h-132v262h-430q-38 0 -54 -15.5t-16 -54.5v-192h-132v185q0 99 71 125q-71 26 -71 125v123q0 74 34.5 108t107.5 34zM188 532v-104q0 -39 16 -54.5t54 -15.5h430v244h-430q-38 0 -54 -15.5t-16 -54.5z" />
    <glyph glyph-name="uni044F.ss01" horiz-adv-x="771" 
d="M155 528h553v-528h-126v194h-362q-28 0 -39 -11t-11 -39v-144h-122v144q0 74 53 94q-53 20 -53 95v87q0 56 26 82t81 26zM174 394v-68q0 -29 11.5 -40.5t39.5 -11.5h357v170h-357q-28 0 -39.5 -11t-11.5 -39z" />
    <glyph glyph-name="zero.tf" 
d="M612 0h-360q-96 0 -141 45t-45 141v328q0 96 45 141t141 45h360q96 0 141 -45t45 -141v-328q0 -96 -45 -141t-141 -45zM294 106h276q55 0 77.5 22.5t22.5 77.5v288q0 55 -22.5 77.5t-77.5 22.5h-276q-55 0 -77.5 -22.5t-22.5 -77.5v-288q0 -55 22.5 -77.5t77.5 -22.5z
" />
    <glyph glyph-name="one.tf" 
d="M522 700v-598h294v-102h-768v102h346v487l-316 -25v106l384 30h60z" />
    <glyph glyph-name="two.tf" 
d="M787 105v-105h-721v215q0 71 33.5 105t108.5 43l395 46q38 5 53 21t15 53v48q0 38 -15 53t-53 15h-332q-38 0 -53 -15t-15 -53v-34h-123v61q0 73 35 107.5t107 34.5h434q72 0 107 -34.5t35 -107.5v-97q0 -71 -33.5 -105t-108.5 -43l-395 -46q-39 -5 -53.5 -21t-14.5 -53
v-88h594z" />
    <glyph glyph-name="three.tf" 
d="M723 366q77 -24 77 -127v-97q0 -73 -35 -107.5t-107 -34.5h-452q-72 0 -107 34.5t-35 107.5v85h123v-60q0 -38 15 -53t53 -15h350q38 0 53 15t15 53v82q0 38 -15 53t-53 15h-265v92h255q38 0 53 15.5t15 52.5v56q0 38 -15 53t-53 15h-330q-38 0 -53 -15t-15 -53v-52h-123
v77q0 73 35 107.5t107 34.5h432q72 0 107 -34.5t35 -107.5v-69q0 -98 -67 -123z" />
    <glyph glyph-name="four.tf" 
d="M661 260h175v-97h-175v-163h-126v163h-507v81l487 456h146v-440zM535 598l-361 -338h361v338z" />
    <glyph glyph-name="five.tf" 
d="M656 0h-586v105h533q38 0 53 15.5t15 52.5v83q0 38 -15 53t-53 15h-533v376h698v-105h-571v-168h459q72 0 107 -34.5t35 -107.5v-143q0 -73 -35 -107.5t-107 -34.5z" />
    <glyph glyph-name="six.tf" 
d="M293 429h363q73 0 107.5 -34t34.5 -108v-145q0 -73 -35 -107.5t-107 -34.5h-448q-72 0 -107 34.5t-35 107.5v372q0 96 45 141t141 45h516v-105h-475q-55 0 -77.5 -22.5t-22.5 -77.5v-99q29 33 100 33zM671 169v92q0 38 -15 53t-53 15h-342q-38 0 -53 -15t-15 -53v-92
q0 -38 15 -53t53 -15h342q38 0 53 15t15 53z" />
    <glyph glyph-name="seven.tf" 
d="M48 590v110h768v-94l-303 -273q-39 -34 -53 -71q-13 -33 -13 -98v-164h-130v164q0 87 19 135q17 48 72 95l226 196h-586z" />
    <glyph glyph-name="eight.tf" 
d="M723 366q77 -24 77 -127v-97q0 -73 -35 -107.5t-107 -34.5h-452q-72 0 -107 34.5t-35 107.5v97q0 103 77 127q-67 25 -67 123v69q0 73 35 107.5t107 34.5h432q72 0 107 -34.5t35 -107.5v-69q0 -98 -67 -123zM201 535v-60q0 -38 15 -53t53 -15h326q38 0 53 15t15 53v60
q0 38 -15 53t-53 15h-326q-38 0 -53 -15t-15 -53zM673 165v87q0 38 -15 53t-53 15h-346q-38 0 -53 -15t-15 -53v-87q0 -38 15 -53t53 -15h346q38 0 53 15t15 53z" />
    <glyph glyph-name="nine.tf" 
d="M208 700h448q72 0 107 -34.5t35 -107.5v-372q0 -96 -45 -141t-141 -45h-516v105h475q55 0 77.5 22.5t22.5 77.5v92q-29 -33 -100 -33h-363q-73 0 -107.5 34t-34.5 108v152q0 73 35 107.5t107 34.5zM261 364h342q38 0 53 15t15 53v99q0 38 -15 53t-53 15h-342
q-38 0 -53 -15t-15 -53v-99q0 -38 15 -53t53 -15z" />
    <glyph glyph-name="zero.subs" horiz-adv-x="548" 
d="M384 -100h-220q-60 0 -89 28.5t-29 89.5v184q0 61 29 89.5t89 28.5h220q60 0 89 -28.5t29 -89.5v-184q0 -61 -29 -89.5t-89 -28.5zM199 -10h150q25 0 35.5 10t10.5 35v150q0 25 -10.5 35t-35.5 10h-150q-25 0 -35.5 -10t-10.5 -35v-150q0 -25 10.5 -35t35.5 -10z" />
    <glyph glyph-name="one.subs" horiz-adv-x="512" 
d="M321 320v-335h158v-85h-447v85h181v241l-163 -13v89l219 18h52z" />
    <glyph glyph-name="two.subs" horiz-adv-x="548" 
d="M495 -12v-88h-449v135q0 46 22 68.5t70 27.5l226 22q18 2 24.5 9t6.5 24v21q0 17 -7 24t-24 7h-175q-17 0 -24 -7t-7 -24v-19h-104v40q0 48 22.5 70t69.5 22h264q47 0 69.5 -22t22.5 -70v-55q0 -47 -21.5 -69t-70.5 -27l-225 -22q-18 -2 -25 -9.5t-7 -23.5v-34h342z" />
    <glyph glyph-name="three.subs" horiz-adv-x="544" 
d="M454 117q47 -15 47 -79v-46q0 -48 -22 -70t-69 -22h-275q-47 0 -69.5 22t-22.5 70v55h104v-32q0 -18 6.5 -24.5t24.5 -6.5h185q18 0 24.5 6.5t6.5 24.5v32q0 17 -6.5 24t-24.5 7h-148v75h142q18 0 24.5 7t6.5 25v20q0 18 -6.5 24.5t-24.5 6.5h-173q-18 0 -24.5 -6.5
t-6.5 -24.5v-27h-104v50q0 48 22.5 70t69.5 22h263q47 0 69 -22t22 -70v-34q0 -62 -41 -77z" />
    <glyph glyph-name="four.subs" horiz-adv-x="566" 
d="M431 66h102v-80h-102v-86h-103v86h-296v67l280 267h119v-254zM328 229l-173 -163h173v163z" />
    <glyph glyph-name="five.subs" horiz-adv-x="529" 
d="M392 -100h-344v88h296q18 0 25 7t7 24v29q0 18 -7 25t-25 7h-296v240h417v-88h-310v-69h237q47 0 69 -22t22 -70v-79q0 -48 -22 -70t-69 -22z" />
    <glyph glyph-name="six.subs" horiz-adv-x="548" 
d="M214 163h196q47 0 69.5 -22t22.5 -69v-80q0 -48 -22.5 -70t-69.5 -22h-272q-47 0 -69.5 22t-22.5 70v210q0 61 29 89.5t89 28.5h320v-88h-285q-25 0 -35.5 -10t-10.5 -36v-43q17 20 61 20zM395 17v35q0 18 -7 25t-24 7h-179q-18 0 -25 -7t-7 -25v-35q0 -17 7 -24t25 -7
h179q17 0 24 7t7 24z" />
    <glyph glyph-name="seven.subs" horiz-adv-x="524" 
d="M32 227v93h459v-80l-174 -161q-18 -17 -24.5 -34t-6.5 -48v-97h-110v96q0 51 11 81q11 29 42 57l106 93h-303z" />
    <glyph glyph-name="eight.subs" horiz-adv-x="548" 
d="M456 117q47 -15 47 -79v-46q0 -48 -22 -70t-69 -22h-275q-47 0 -69.5 22t-22.5 70v46q0 64 48 79q-42 15 -42 77v34q0 48 22.5 70t69.5 22h263q47 0 69 -22t22 -70v-34q0 -62 -41 -77zM158 207v-25q0 -17 7 -24t24 -7h169q18 0 24.5 7t6.5 24v25q0 17 -6.5 24t-24.5 7
h-169q-17 0 -24 -7t-7 -24zM395 13v36q0 17 -6.5 24t-24.5 7h-181q-17 0 -24 -7t-7 -24v-36q0 -17 7 -24t24 -7h181q18 0 24.5 7t6.5 24z" />
    <glyph glyph-name="nine.subs" horiz-adv-x="548" 
d="M138 320h272q47 0 69.5 -22t22.5 -70v-210q0 -61 -29 -89.5t-89 -28.5h-320v88h285q25 0 35.5 10t10.5 36v40q-17 -20 -61 -20h-196q-47 0 -69.5 22t-22.5 69v83q0 48 22.5 70t69.5 22zM185 133h179q17 0 24 7t7 25v38q0 17 -7 24t-24 7h-179q-18 0 -25 -7t-7 -24v-38
q0 -18 7 -25t25 -7z" />
    <glyph glyph-name="zero.dnom" horiz-adv-x="548" 
d="M384 0h-220q-60 0 -89 28.5t-29 89.5v184q0 61 29 89.5t89 28.5h220q60 0 89 -28.5t29 -89.5v-184q0 -61 -29 -89.5t-89 -28.5zM199 90h150q25 0 35.5 10t10.5 35v150q0 25 -10.5 35t-35.5 10h-150q-25 0 -35.5 -10t-10.5 -35v-150q0 -25 10.5 -35t35.5 -10z" />
    <glyph glyph-name="one.dnom" horiz-adv-x="512" 
d="M321 420v-335h158v-85h-447v85h181v241l-163 -13v89l219 18h52z" />
    <glyph glyph-name="two.dnom" horiz-adv-x="548" 
d="M495 88v-88h-449v135q0 46 22 68.5t70 27.5l226 22q18 2 24.5 9t6.5 24v21q0 17 -7 24t-24 7h-175q-17 0 -24 -7t-7 -24v-19h-104v40q0 48 22.5 70t69.5 22h264q47 0 69.5 -22t22.5 -70v-55q0 -47 -21.5 -69t-70.5 -27l-225 -22q-18 -2 -25 -9.5t-7 -23.5v-34h342z" />
    <glyph glyph-name="three.dnom" horiz-adv-x="544" 
d="M454 217q47 -15 47 -79v-46q0 -48 -22 -70t-69 -22h-275q-47 0 -69.5 22t-22.5 70v55h104v-32q0 -18 6.5 -24.5t24.5 -6.5h185q18 0 24.5 6.5t6.5 24.5v32q0 17 -6.5 24t-24.5 7h-148v75h142q18 0 24.5 7t6.5 25v20q0 18 -6.5 24.5t-24.5 6.5h-173q-18 0 -24.5 -6.5
t-6.5 -24.5v-27h-104v50q0 48 22.5 70t69.5 22h263q47 0 69 -22t22 -70v-34q0 -62 -41 -77z" />
    <glyph glyph-name="four.dnom" horiz-adv-x="566" 
d="M431 166h102v-80h-102v-86h-103v86h-296v67l280 267h119v-254zM328 329l-173 -163h173v163z" />
    <glyph glyph-name="five.dnom" horiz-adv-x="529" 
d="M392 0h-344v88h296q18 0 25 7t7 24v29q0 18 -7 25t-25 7h-296v240h417v-88h-310v-69h237q47 0 69 -22t22 -70v-79q0 -48 -22 -70t-69 -22z" />
    <glyph glyph-name="six.dnom" horiz-adv-x="548" 
d="M214 263h196q47 0 69.5 -22t22.5 -69v-80q0 -48 -22.5 -70t-69.5 -22h-272q-47 0 -69.5 22t-22.5 70v210q0 61 29 89.5t89 28.5h320v-88h-285q-25 0 -35.5 -10t-10.5 -36v-43q17 20 61 20zM395 117v35q0 18 -7 25t-24 7h-179q-18 0 -25 -7t-7 -25v-35q0 -17 7 -24t25 -7
h179q17 0 24 7t7 24z" />
    <glyph glyph-name="seven.dnom" horiz-adv-x="524" 
d="M32 327v93h459v-80l-174 -161q-18 -17 -24.5 -34t-6.5 -48v-97h-110v96q0 51 11 81q11 29 42 57l106 93h-303z" />
    <glyph glyph-name="eight.dnom" horiz-adv-x="548" 
d="M456 217q47 -15 47 -79v-46q0 -48 -22 -70t-69 -22h-275q-47 0 -69.5 22t-22.5 70v46q0 64 48 79q-42 15 -42 77v34q0 48 22.5 70t69.5 22h263q47 0 69 -22t22 -70v-34q0 -62 -41 -77zM158 307v-25q0 -17 7 -24t24 -7h169q18 0 24.5 7t6.5 24v25q0 17 -6.5 24t-24.5 7
h-169q-17 0 -24 -7t-7 -24zM395 113v36q0 17 -6.5 24t-24.5 7h-181q-17 0 -24 -7t-7 -24v-36q0 -17 7 -24t24 -7h181q18 0 24.5 7t6.5 24z" />
    <glyph glyph-name="nine.dnom" horiz-adv-x="548" 
d="M138 420h272q47 0 69.5 -22t22.5 -70v-210q0 -61 -29 -89.5t-89 -28.5h-320v88h285q25 0 35.5 10t10.5 36v40q-17 -20 -61 -20h-196q-47 0 -69.5 22t-22.5 69v83q0 48 22.5 70t69.5 22zM185 233h179q17 0 24 7t7 25v38q0 17 -7 24t-24 7h-179q-18 0 -25 -7t-7 -24v-38
q0 -18 7 -25t25 -7z" />
    <glyph glyph-name="zero.numr" horiz-adv-x="548" 
d="M384 280h-220q-60 0 -89 28.5t-29 89.5v184q0 61 29 89.5t89 28.5h220q60 0 89 -28.5t29 -89.5v-184q0 -61 -29 -89.5t-89 -28.5zM199 370h150q25 0 35.5 10t10.5 35v150q0 25 -10.5 35t-35.5 10h-150q-25 0 -35.5 -10t-10.5 -35v-150q0 -25 10.5 -35t35.5 -10z" />
    <glyph glyph-name="one.numr" horiz-adv-x="512" 
d="M321 700v-335h158v-85h-447v85h181v241l-163 -13v89l219 18h52z" />
    <glyph glyph-name="two.numr" horiz-adv-x="548" 
d="M495 368v-88h-449v135q0 46 22 68.5t70 27.5l226 22q18 2 24.5 9t6.5 24v21q0 17 -7 24t-24 7h-175q-17 0 -24 -7t-7 -24v-19h-104v40q0 48 22.5 70t69.5 22h264q47 0 69.5 -22t22.5 -70v-55q0 -47 -21.5 -69t-70.5 -27l-225 -22q-18 -2 -25 -9.5t-7 -23.5v-34h342z" />
    <glyph glyph-name="three.numr" horiz-adv-x="544" 
d="M454 497q47 -15 47 -79v-46q0 -48 -22 -70t-69 -22h-275q-47 0 -69.5 22t-22.5 70v55h104v-32q0 -18 6.5 -24.5t24.5 -6.5h185q18 0 24.5 6.5t6.5 24.5v32q0 17 -6.5 24t-24.5 7h-148v75h142q18 0 24.5 7t6.5 25v20q0 18 -6.5 24.5t-24.5 6.5h-173q-18 0 -24.5 -6.5
t-6.5 -24.5v-27h-104v50q0 48 22.5 70t69.5 22h263q47 0 69 -22t22 -70v-34q0 -62 -41 -77z" />
    <glyph glyph-name="four.numr" horiz-adv-x="566" 
d="M431 446h102v-80h-102v-86h-103v86h-296v67l280 267h119v-254zM328 609l-173 -163h173v163z" />
    <glyph glyph-name="five.numr" horiz-adv-x="529" 
d="M392 280h-344v88h296q18 0 25 7t7 24v29q0 18 -7 25t-25 7h-296v240h417v-88h-310v-69h237q47 0 69 -22t22 -70v-79q0 -48 -22 -70t-69 -22z" />
    <glyph glyph-name="six.numr" horiz-adv-x="548" 
d="M214 543h196q47 0 69.5 -22t22.5 -69v-80q0 -48 -22.5 -70t-69.5 -22h-272q-47 0 -69.5 22t-22.5 70v210q0 61 29 89.5t89 28.5h320v-88h-285q-25 0 -35.5 -10t-10.5 -36v-43q17 20 61 20zM395 397v35q0 18 -7 25t-24 7h-179q-18 0 -25 -7t-7 -25v-35q0 -17 7 -24t25 -7
h179q17 0 24 7t7 24z" />
    <glyph glyph-name="seven.numr" horiz-adv-x="524" 
d="M32 607v93h459v-80l-174 -161q-18 -17 -24.5 -34t-6.5 -48v-97h-110v96q0 51 11 81q11 29 42 57l106 93h-303z" />
    <glyph glyph-name="eight.numr" horiz-adv-x="548" 
d="M456 497q47 -15 47 -79v-46q0 -48 -22 -70t-69 -22h-275q-47 0 -69.5 22t-22.5 70v46q0 64 48 79q-42 15 -42 77v34q0 48 22.5 70t69.5 22h263q47 0 69 -22t22 -70v-34q0 -62 -41 -77zM158 587v-25q0 -17 7 -24t24 -7h169q18 0 24.5 7t6.5 24v25q0 17 -6.5 24t-24.5 7
h-169q-17 0 -24 -7t-7 -24zM395 393v36q0 17 -6.5 24t-24.5 7h-181q-17 0 -24 -7t-7 -24v-36q0 -17 7 -24t24 -7h181q18 0 24.5 7t6.5 24z" />
    <glyph glyph-name="nine.numr" horiz-adv-x="548" 
d="M138 700h272q47 0 69.5 -22t22.5 -70v-210q0 -61 -29 -89.5t-89 -28.5h-320v88h285q25 0 35.5 10t10.5 36v40q-17 -20 -61 -20h-196q-47 0 -69.5 22t-22.5 69v83q0 48 22.5 70t69.5 22zM185 513h179q17 0 24 7t7 25v38q0 17 -7 24t-24 7h-179q-18 0 -25 -7t-7 -24v-38
q0 -18 7 -25t25 -7z" />
    <glyph glyph-name="zero.sups" horiz-adv-x="548" 
d="M384 380h-220q-60 0 -89 28.5t-29 89.5v184q0 61 29 89.5t89 28.5h220q60 0 89 -28.5t29 -89.5v-184q0 -61 -29 -89.5t-89 -28.5zM199 470h150q25 0 35.5 10t10.5 35v150q0 25 -10.5 35t-35.5 10h-150q-25 0 -35.5 -10t-10.5 -35v-150q0 -25 10.5 -35t35.5 -10z" />
    <glyph glyph-name="one.sups" horiz-adv-x="512" 
d="M321 800v-335h158v-85h-447v85h181v241l-163 -13v89l219 18h52z" />
    <glyph glyph-name="two.sups" horiz-adv-x="548" 
d="M495 468v-88h-449v135q0 46 22 68.5t70 27.5l226 22q18 2 24.5 9t6.5 24v21q0 17 -7 24t-24 7h-175q-17 0 -24 -7t-7 -24v-19h-104v40q0 48 22.5 70t69.5 22h264q47 0 69.5 -22t22.5 -70v-55q0 -47 -21.5 -69t-70.5 -27l-225 -22q-18 -2 -25 -9.5t-7 -23.5v-34h342z" />
    <glyph glyph-name="three.sups" horiz-adv-x="544" 
d="M454 597q47 -15 47 -79v-46q0 -48 -22 -70t-69 -22h-275q-47 0 -69.5 22t-22.5 70v55h104v-32q0 -18 6.5 -24.5t24.5 -6.5h185q18 0 24.5 6.5t6.5 24.5v32q0 17 -6.5 24t-24.5 7h-148v75h142q18 0 24.5 7t6.5 25v20q0 18 -6.5 24.5t-24.5 6.5h-173q-18 0 -24.5 -6.5
t-6.5 -24.5v-27h-104v50q0 48 22.5 70t69.5 22h263q47 0 69 -22t22 -70v-34q0 -62 -41 -77z" />
    <glyph glyph-name="four.sups" horiz-adv-x="566" 
d="M431 546h102v-80h-102v-86h-103v86h-296v67l280 267h119v-254zM328 709l-173 -163h173v163z" />
    <glyph glyph-name="five.sups" horiz-adv-x="529" 
d="M392 380h-344v88h296q18 0 25 7t7 24v29q0 18 -7 25t-25 7h-296v240h417v-88h-310v-69h237q47 0 69 -22t22 -70v-79q0 -48 -22 -70t-69 -22z" />
    <glyph glyph-name="six.sups" horiz-adv-x="548" 
d="M214 643h196q47 0 69.5 -22t22.5 -69v-80q0 -48 -22.5 -70t-69.5 -22h-272q-47 0 -69.5 22t-22.5 70v210q0 61 29 89.5t89 28.5h320v-88h-285q-25 0 -35.5 -10t-10.5 -36v-43q17 20 61 20zM395 497v35q0 18 -7 25t-24 7h-179q-18 0 -25 -7t-7 -25v-35q0 -17 7 -24t25 -7
h179q17 0 24 7t7 24z" />
    <glyph glyph-name="seven.sups" horiz-adv-x="524" 
d="M32 707v93h459v-80l-174 -161q-18 -17 -24.5 -34t-6.5 -48v-97h-110v96q0 51 11 81q11 29 42 57l106 93h-303z" />
    <glyph glyph-name="eight.sups" horiz-adv-x="548" 
d="M456 597q47 -15 47 -79v-46q0 -48 -22 -70t-69 -22h-275q-47 0 -69.5 22t-22.5 70v46q0 64 48 79q-42 15 -42 77v34q0 48 22.5 70t69.5 22h263q47 0 69 -22t22 -70v-34q0 -62 -41 -77zM158 687v-25q0 -17 7 -24t24 -7h169q18 0 24.5 7t6.5 24v25q0 17 -6.5 24t-24.5 7
h-169q-17 0 -24 -7t-7 -24zM395 493v36q0 17 -6.5 24t-24.5 7h-181q-17 0 -24 -7t-7 -24v-36q0 -17 7 -24t24 -7h181q18 0 24.5 7t6.5 24z" />
    <glyph glyph-name="nine.sups" horiz-adv-x="548" 
d="M138 800h272q47 0 69.5 -22t22.5 -70v-210q0 -61 -29 -89.5t-89 -28.5h-320v88h285q25 0 35.5 10t10.5 36v40q-17 -20 -61 -20h-196q-47 0 -69.5 22t-22.5 69v83q0 48 22.5 70t69.5 22zM185 613h179q17 0 24 7t7 25v38q0 17 -7 24t-24 7h-179q-18 0 -25 -7t-7 -24v-38
q0 -18 7 -25t25 -7z" />
    <glyph glyph-name="numbersign.numr" horiz-adv-x="550" 
d="M510 601v-65h-95l-14 -92h84v-65h-94l-16 -99h-79l16 99h-109l-16 -99h-79l16 99h-85v65h95l14 92h-84v65h94l16 99h79l-16 -99h109l16 99h79l-16 -99h85zM213 444h109l14 92h-109z" />
    <glyph glyph-name="numbersign.tf" 
d="M812 517v-80h-159l-28 -174h145v-80h-157l-29 -183h-99l29 183h-216l-29 -183h-99l29 183h-147v80h159l28 174h-145v80h157l29 183h99l-29 -183h216l29 183h99l-29 -183h147zM310 263h216l28 174h-216z" />
    <glyph glyph-name="cent.numr" horiz-adv-x="548" 
d="M502 594v-36h-103v20q0 22 -8 30t-30 8h-169q-22 0 -30.5 -8t-8.5 -30v-102q0 -22 8.5 -30t30.5 -8h169q22 0 30 8t8 30v24h103v-40q0 -56 -25 -81t-81 -25h-86v-60h-70v60h-88q-56 0 -81 25t-25 81v134q0 56 25 81t81 25h88v60h70v-60h86q56 0 81 -25t25 -81z" />
    <glyph glyph-name="dollar.numr" horiz-adv-x="548" 
d="M187 545l225 -16q49 -4 70.5 -25t21.5 -66v-66q0 -48 -22.5 -70t-69.5 -22h-103v-60h-70v60h-104q-47 0 -69.5 22t-22.5 70v39h104v-18q0 -18 6.5 -25t24.5 -7h188q17 0 24 7t7 25v21q0 17 -6 22.5t-25 7.5l-225 17q-50 4 -71 24t-21 67v56q0 48 22.5 70t69.5 22h98v60
h70v-60h95q47 0 69 -22t22 -70v-33h-102v12q0 18 -7 25t-25 7h-173q-18 0 -25 -7t-7 -25v-12q0 -17 6.5 -22.5t24.5 -7.5z" />
    <glyph glyph-name="Euro.numr" horiz-adv-x="566" 
d="M520 582v-51h-104v41q0 26 -10 36t-35 10h-148q-25 0 -35.5 -10t-10.5 -36v-18h181v-44h-181v-40h181v-44h-181v-18q0 -26 10.5 -36t35.5 -10h148q25 0 35 10t10 36v45h104v-55q0 -61 -29 -89.5t-89 -28.5h-214q-60 0 -89 28.5t-29 89.5v28h-54v44h54v40h-54v44h54v28
q0 61 29 89.5t89 28.5h214q60 0 89 -28.5t29 -89.5z" />
    <glyph glyph-name="florin.numr" horiz-adv-x="500" 
d="M460 610h-95q-26 0 -36.5 -10t-12.5 -35l-8 -78h140v-66h-147l-12 -119q-6 -63 -34 -90.5t-87 -27.5h-131v90h96q25 0 35 10t13 36l11 101h-143v66h150l10 95q7 63 34 90.5t86 27.5h131v-90z" />
    <glyph glyph-name="sterling.numr" horiz-adv-x="560" 
d="M514 582v-41h-103v31q0 26 -10.5 36t-35.5 10h-144q-24 0 -34 -10.5t-10 -35.5v-48h176v-58h-176v-100h203q17 0 23.5 7t6.5 24v40h104v-65q0 -48 -22.5 -70t-69.5 -22h-400v86h48v100h-54v58h54v58q0 61 29 89.5t89 28.5h208q60 0 89 -28.5t29 -89.5z" />
    <glyph glyph-name="yen.numr" horiz-adv-x="548" 
d="M502 425h-175v-43h176v-49h-176v-53h-107v53h-176v49h176v43h-176v49h148l-166 226h131l120 -178l119 178h125l-166 -226h147v-49z" />
    <glyph glyph-name="cent.tf" 
d="M798 534v-55h-124v36q0 49 -18 67t-67 18h-310q-49 0 -67 -18t-18 -67v-200q0 -49 18 -67t67 -18h310q49 0 67 18t18 67v43h124v-62q0 -89 -39 -127.5t-127 -38.5h-154v-100h-88v100h-158q-88 0 -127 38.5t-39 127.5v238q0 89 39 127.5t127 38.5h158v100h88v-100h154
q88 0 127 -38.5t39 -127.5z" />
    <glyph glyph-name="dollar.tf" 
d="M267 428l393 -31q75 -6 108.5 -38.5t33.5 -103.5v-113q0 -73 -35 -107.5t-107 -34.5h-185v-100h-87v100h-184q-72 0 -107 34.5t-35 107.5v63h123v-37q0 -38 15 -53t53 -15h354q38 0 53 15t15 53v59q0 37 -14.5 51t-53.5 17l-393 31q-75 6 -108.5 38.5t-33.5 103.5v90
q0 73 35 107.5t107 34.5h174v100h87v-100h171q72 0 107 -34.5t35 -107.5v-49h-123v23q0 38 -15 53t-53 15h-330q-38 0 -53 -15t-15 -53v-36q0 -36 14.5 -50.5t53.5 -17.5z" />
    <glyph glyph-name="Euro.tf" 
d="M798 514v-74h-124v62q0 55 -22.5 77.5t-77.5 22.5h-260q-55 0 -77.5 -22.5t-22.5 -77.5v-50h340v-59h-340v-86h340v-59h-340v-50q0 -55 22.5 -77.5t77.5 -22.5h260q55 0 77.5 22.5t22.5 77.5v71h124v-83q0 -96 -45 -141t-141 -45h-340q-96 0 -141 45t-45 141v62h-80v59
h80v86h-80v59h80v62q0 96 45 141t141 45h340q96 0 141 -45t45 -141z" />
    <glyph glyph-name="florin.tf" 
d="M796 594h-169q-54 0 -76.5 -21.5t-29.5 -78.5l-17 -161h272v-86h-281l-24 -221q-11 -99 -55 -142.5t-137 -43.5h-211v106h169q54 0 76.5 21.5t29.5 78.5l21 201h-276v86h286l19 181q11 99 55 142.5t137 43.5h211v-106z" />
    <glyph glyph-name="sterling.tf" 
d="M798 514v-60h-124v48q0 55 -22.5 77.5t-77.5 22.5h-254q-52 0 -74 -22.5t-22 -77.5v-109h330v-74h-330v-217h382q38 0 53 15t15 53v68h124v-96q0 -74 -34.5 -108t-107.5 -34h-640v102h80v217h-90v74h90v121q0 96 45 141t141 45h330q96 0 141 -45t45 -141z" />
    <glyph glyph-name="yen.tf" 
d="M685 700h151l-302 -389h272v-64h-310v-90h310v-64h-310v-93h-128v93h-310v64h310v90h-310v64h272l-302 389h158l249 -340z" />
    <glyph glyph-name="percent.numr" horiz-adv-x="613" 
d="M215 504h-116q-63 0 -63 63v70q0 63 63 63h116q63 0 63 -63v-70q0 -63 -63 -63zM147 280h-62l379 420h64zM118 556h80q20 0 20 21v49q0 12 -4 16.5t-16 4.5h-80q-12 0 -16.5 -4t-4.5 -17v-49q0 -21 21 -21zM514 280h-117q-63 0 -63 63v70q0 63 63 63h117q62 0 62 -63v-70
q0 -63 -62 -63zM416 333h80q11 0 15.5 4.5t4.5 16.5v49q0 12 -4.5 16.5t-15.5 4.5h-80q-12 0 -16.5 -4.5t-4.5 -16.5v-49q0 -12 4.5 -16.5t16.5 -4.5z" />
    <glyph glyph-name="perthousand.numr" horiz-adv-x="885" 
d="M215 504h-116q-63 0 -63 63v70q0 63 63 63h116q63 0 63 -63v-70q0 -63 -63 -63zM147 280h-62l379 420h64zM118 556h80q20 0 20 21v49q0 12 -4 16.5t-16 4.5h-80q-12 0 -16.5 -4t-4.5 -17v-49q0 -21 21 -21zM514 280h-117q-63 0 -63 63v70q0 63 63 63h117q62 0 62 -63v-70
q0 -63 -62 -63zM786 280h-117q-63 0 -63 63v70q0 63 63 63h117q62 0 62 -63v-70q0 -63 -62 -63zM416 333h80q11 0 15.5 4.5t4.5 16.5v49q0 12 -4.5 16.5t-15.5 4.5h-80q-12 0 -16.5 -4.5t-4.5 -16.5v-49q0 -12 4.5 -16.5t16.5 -4.5zM688 333h80q11 0 15.5 4.5t4.5 16.5v49
q0 12 -4.5 16.5t-15.5 4.5h-80q-12 0 -16.5 -4.5t-4.5 -16.5v-49q0 -12 4.5 -16.5t16.5 -4.5z" />
    <glyph glyph-name="percent.tf" horiz-adv-x="972" 
d="M328 376h-182q-104 0 -104 104v116q0 54 25.5 79t78.5 25h182q53 0 78.5 -25t25.5 -79v-116q0 -104 -104 -104zM208 0h-84l640 700h84zM169 442h136q28 0 39.5 12t11.5 40v88q0 28 -11.5 40t-39.5 12h-136q-28 0 -39.5 -12t-11.5 -40v-88q0 -28 11.5 -40t39.5 -12zM826 0
h-182q-104 0 -104 104v116q0 54 25.5 79t78.5 25h182q53 0 78.5 -25t25.5 -79v-116q0 -104 -104 -104zM667 66h136q28 0 39.5 12t11.5 40v88q0 28 -11.5 40t-39.5 12h-136q-28 0 -39.5 -12t-11.5 -40v-88q0 -28 11.5 -40t39.5 -12z" />
    <glyph glyph-name="perthousand.tf" horiz-adv-x="1414" 
d="M328 376h-182q-104 0 -104 104v116q0 54 25.5 79t78.5 25h182q53 0 78.5 -25t25.5 -79v-116q0 -104 -104 -104zM209 0h-85l639 700h85zM169 442h136q28 0 39.5 12t11.5 40v88q0 28 -11.5 40t-39.5 12h-136q-28 0 -39.5 -12t-11.5 -40v-88q0 -28 11.5 -40t39.5 -12zM826 0
h-182q-104 0 -104 104v116q0 54 25.5 79t78.5 25h182q53 0 78.5 -25t25.5 -79v-116q0 -104 -104 -104zM1268 0h-182q-104 0 -104 104v116q0 54 25.5 79t78.5 25h182q53 0 78.5 -25t25.5 -79v-116q0 -104 -104 -104zM667 66h136q28 0 39.5 12t11.5 40v88q0 28 -11.5 40
t-39.5 12h-136q-28 0 -39.5 -12t-11.5 -40v-88q0 -28 11.5 -40t39.5 -12zM1109 66h136q28 0 39.5 12t11.5 40v88q0 28 -11.5 40t-39.5 12h-136q-28 0 -39.5 -12t-11.5 -40v-88q0 -28 11.5 -40t39.5 -12z" />
    <glyph glyph-name="brevecombcy" horiz-adv-x="0" 
d="M-137 576h-256q-73 0 -73 73v51h90v-36q0 -30 30 -30h162q30 0 30 30v36h90v-51q0 -73 -73 -73z" />
    <glyph glyph-name="ringacutecomb" horiz-adv-x="418" 
d="M293 628h19q54 0 54 -54v-26q0 -54 -54 -54h-206q-54 0 -54 54v26q0 54 54 54h69l60 72h136zM311 554v14q0 12 -4 16.5t-16 4.5h-164q-12 0 -16 -4.5t-4 -16.5v-14q0 -12 4 -16.5t16 -4.5h164q12 0 16 4.5t4 16.5z" />
    </font>
</defs>
</svg>
