<?xml version="1.0" standalone="no"?>
<!DOCTYPE svg PUBLIC "-//W3C//DTD SVG 1.1//EN" "http://www.w3.org/Graphics/SVG/1.1/DTD/svg11.dtd" >
<svg xmlns="http://www.w3.org/2000/svg" xmlns:xlink="http://www.w3.org/1999/xlink" version="1.1">
<metadata>
Created by FontForge 20170731 at Thu Jun 30 17:45:19 2016
 By Aleksey,,,
@ 2016 Richard Miller
</metadata>
<defs>
<font id="TacticSansExtExd-ThnIt" horiz-adv-x="1032" >
  <font-face 
    font-family="TacticSansExtExd-ThnIt"
    font-weight="400"
    font-style="italic"
    font-stretch="extra-expanded"
    units-per-em="1000"
    panose-1="0 0 3 7 0 0 0 0 0 0"
    ascent="814"
    descent="-186"
    x-height="520"
    cap-height="700"
    bbox="-866 -160 1888 880"
    underline-thickness="50"
    underline-position="-200"
    slope="-10"
    unicode-range="U+0020-FB02"
  />
<missing-glyph horiz-adv-x="720" 
d="M-36 0l124 700h700l-124 -700h-700zM275 350l-199 -169l88 -107l199 169l139 -169l126 107l-139 169l199 169l-88 107l-199 -169l-139 169l-126 -107z" />
    <glyph glyph-name="ellipsis" unicode="&#x2e;&#x2e;&#x2e;" horiz-adv-x="820" 
d="M94 0h-60l11 60h60zM394 0h-60l11 60h60zM694 0h-60l11 60h60z" />
    <glyph glyph-name="blackbox.liga" unicode="[&#x2b;]" horiz-adv-x="940" 
d="M120 0v700h700v-700h-700z" />
    <glyph glyph-name="checkbox.liga" unicode="[]" horiz-adv-x="940" 
d="M120 0v700h700v-700h-700zM780 662h-620v-624h620v624z" />
    <glyph glyph-name="checkround.liga" unicode="&#x28;&#x29;" horiz-adv-x="940" 
d="M726 95q-105 -105 -256 -105q-152 0 -255 105q-105 103 -105 255q0 151 105 256q104 104 255 104q150 0 256 -104q104 -106 104 -256q0 -151 -104 -255zM243 121q93 -93 227 -93t227 93t93 229t-93 229t-227 93t-227 -93t-93 -229t93 -229z" />
    <glyph glyph-name="checkstar.liga" unicode="&#x7b;&#x7d;" horiz-adv-x="940" 
d="M378 437l92 283l92 -283h297l-240 -174l91 -283l-240 175l-240 -175l91 283l-240 174h297zM536 401l-66 203l-66 -203h-212l172 -125l-66 -202l172 125l172 -125l-66 202l172 125h-212z" />
    <glyph glyph-name="blackround.liga" unicode="&#x28;&#x2b;&#x29;" horiz-adv-x="940" 
d="M726 95q-105 -105 -256 -105q-152 0 -255 105q-105 103 -105 255q0 151 105 256q104 104 255 104q150 0 256 -104q104 -106 104 -256q0 -151 -104 -255z" />
    <glyph glyph-name="filledstar.liga" unicode="&#x7b;&#x2b;&#x7d;" horiz-adv-x="940" 
d="M378 437l92 283l92 -283h297l-240 -174l91 -283l-240 175l-240 -175l91 283l-240 174h297z" />
    <glyph glyph-name="ff.liga" unicode="ff" horiz-adv-x="1304" 
d="M1355 664h-356q-49 0 -71 -18.5t-30 -67.5l-21 -118h442l-6 -36h-442l-75 -424h-40l74 424h-521l-75 -424h-40l74 424h-219l6 36h220l21 122q11 65 43.5 91.5t96.5 26.5h304l-7 -36h-296q-49 0 -71 -18.5t-30 -67.5l-21 -118h522l21 122q11 65 43.5 91.5t96.5 26.5h364z
" />
    <glyph glyph-name=".notdef" horiz-adv-x="720" 
d="M-36 0l124 700h700l-124 -700h-700zM275 350l-199 -169l88 -107l199 169l139 -169l126 107l-139 169l199 169l-88 107l-199 -169l-139 169l-126 -107z" />
    <glyph glyph-name=".null" horiz-adv-x="0" 
 />
    <glyph glyph-name="nonmarkingreturn" horiz-adv-x="333" 
 />
    <glyph glyph-name="space" unicode=" " horiz-adv-x="300" 
 />
    <glyph glyph-name="exclam" unicode="!" horiz-adv-x="220" 
d="M77 160l87 540h48l-103 -540h-32zM95 0h-60l10 60h60z" />
    <glyph glyph-name="quotedbl" unicode="&#x22;" horiz-adv-x="360" 
d="M120 480l38 220h40l-39 -220h-39zM280 480l38 220h40l-39 -220h-39z" />
    <glyph glyph-name="numbersign" unicode="#" 
d="M984 441l-6 -36h-230l-34 -190h230l-6 -36h-230l-32 -179h-42l32 179h-328l-32 -179h-42l32 179h-230l6 36h230l34 190h-230l6 36h230l32 179h42l-32 -179h328l32 179h42l-32 -179h230zM344 215h328l34 190h-328z" />
    <glyph glyph-name="dollar" unicode="$" 
d="M614 700h262q63 0 93 -35t20 -99l-5 -32h-40l5 32q8 51 -11 74.5t-69 23.5h-580q-49 0 -71 -18.5t-30 -67.5l-13 -76q-9 -51 10 -74t71 -26l576 -34q134 -8 113 -134l-20 -116q-11 -65 -42 -91.5t-95 -26.5h-298l-17 -100h-40l17 100h-276q-63 0 -94 35.5t-20 98.5l9 50
h40l-9 -50q-18 -98 81 -98h604q49 0 70.5 18.5t29.5 67.5l19 110q9 51 -10 74t-70 26l-576 34q-135 8 -114 134l14 82q11 65 42.5 91.5t95.5 26.5h288l17 100h40z" />
    <glyph glyph-name="percent" unicode="%" horiz-adv-x="1140" 
d="M543 508l-17 -100q-9 -53 -35.5 -75.5t-79.5 -22.5h-240q-53 0 -77 29.5t-15 82.5l17 100q9 54 35.5 76t80.5 22h240q53 0 76.5 -29t14.5 -83zM153 0h-63l915 620h63zM178 346h232q38 0 55 14.5t24 52.5l17 96q14 75 -62 75h-232q-38 0 -54.5 -14t-23.5 -53l-17 -96
q-13 -75 61 -75zM946 0h-240q-53 0 -77 29.5t-15 82.5l17 100q9 54 35.5 76t80.5 22h240q53 0 76.5 -29t14.5 -83l-17 -100q-9 -53 -35.5 -75.5t-79.5 -22.5zM713 36h232q38 0 55 14.5t24 52.5l17 96q13 75 -62 75h-232q-38 0 -54.5 -14t-23.5 -53l-17 -96q-14 -75 61 -75z
" />
    <glyph glyph-name="ampersand" unicode="&#x26;" horiz-adv-x="1112" 
d="M260 388h855l-7 -36h-120l-40 -234q-11 -65 -43 -91.5t-96 -26.5h-650q-64 0 -93 35.5t-18 100.5l22 126q10 57 35 84t73 32q-52 34 -37 118l15 86q11 65 43 91.5t96 26.5h590q64 0 93 -36t18 -100l-5 -28h-40l5 30q8 51 -11 74.5t-69 23.5h-580q-50 0 -71.5 -18
t-29.5 -68l-15 -92q-8 -51 11 -74.5t69 -23.5zM908 122l40 230h-736q-50 0 -71 -18t-30 -68l-23 -132q-18 -98 80 -98h640q50 0 70.5 18t29.5 68z" />
    <glyph glyph-name="quotesingle" unicode="'" horiz-adv-x="200" 
d="M120 480l38 220h40l-39 -220h-39z" />
    <glyph glyph-name="parenleft" unicode="(" horiz-adv-x="600" 
d="M497 -100h-258q-102 0 -151.5 60t-31.5 162l84 480q18 104 73.5 151t159.5 47h282l-6 -36h-274q-88 0 -133.5 -39t-61.5 -127l-84 -476q-16 -90 23.5 -138t129.5 -48h254z" />
    <glyph glyph-name="parenright" unicode=")" horiz-adv-x="600" 
d="M135 800h258q102 0 151.5 -60t31.5 -162l-84 -480q-18 -104 -73.5 -151t-159.5 -47h-282l6 36h274q88 0 133.5 39t61.5 127l84 476q16 90 -23.5 138t-129.5 48h-254z" />
    <glyph glyph-name="asterisk" unicode="*" horiz-adv-x="436" 
d="M430 574l7 -40l-147 -16l68 -132l-36 -17l-61 134l-104 -105l-28 28l109 100l-132 67l19 35l128 -72l22 145l39 -7l-29 -144z" />
    <glyph glyph-name="plus" unicode="+" 
d="M555 368h416l-6 -36h-416l-50 -282h-40l50 282h-416l6 36h416l50 282h40z" />
    <glyph glyph-name="comma" unicode="," horiz-adv-x="220" 
d="M24 -160h-30l63 160h-23l11 60h60l-6 -35q-5 -26 -13 -42z" />
    <glyph glyph-name="hyphen" unicode="-" horiz-adv-x="660" 
d="M73 332l6 36h540l-6 -36h-540z" />
    <glyph glyph-name="period" unicode="." horiz-adv-x="220" 
d="M94 0h-60l11 60h60z" />
    <glyph glyph-name="slash" unicode="/" horiz-adv-x="578" 
d="M-53 -100l675 900h41l-675 -900h-41z" />
    <glyph glyph-name="zero" unicode="0" 
d="M740 0h-520q-87 0 -125.5 46.5t-22.5 133.5l64 360q16 89 58 124.5t130 35.5h520q87 0 125.5 -46.5t22.5 -133.5l-64 -360q-16 -89 -58 -124.5t-130 -35.5zM231 36h504q74 0 107.5 29t46.5 103l62 352q13 74 -15.5 109t-102.5 35h-504q-74 0 -107.5 -29t-46.5 -103
l-62 -352q-13 -74 15.5 -109t102.5 -35z" />
    <glyph glyph-name="one" unicode="1" horiz-adv-x="972" 
d="M620 700l-117 -664h380l-7 -36h-872l7 36h452l110 627l-427 -29l6 36l450 30h18z" />
    <glyph glyph-name="two" unicode="2" 
d="M897 36l-7 -36h-850l36 202q11 65 41 91q27 24 97 32l630 60q52 5 72 23.5t28 69.5l15 88q8 51 -11 74.5t-69 23.5h-582q-50 0 -71.5 -18t-29.5 -68l-9 -54h-40l10 58q11 65 43 91.5t96 26.5h592q64 0 93 -35.5t18 -100.5l-16 -92q-11 -65 -40.5 -91.5t-97.5 -33.5
l-630 -60q-53 -5 -73 -23q-21 -19 -28 -68l-27 -160h810z" />
    <glyph glyph-name="three" unicode="3" 
d="M290 700h590q64 0 93 -35.5t18 -100.5l-15 -86q-17 -92 -79 -110q65 -32 48 -124l-22 -126q-11 -65 -43 -91.5t-96 -26.5h-610q-64 0 -92.5 35.5t-18.5 100.5l11 66h40l-11 -68q-8 -51 11 -74.5t69 -23.5h600q50 0 71.5 18t29.5 68l22 132q8 51 -11 74.5t-69 23.5h-448
l7 36h449q50 0 71 18t30 68l16 92q18 98 -80 98h-580q-50 0 -70.5 -18t-29.5 -68l-13 -72h-40l13 76q11 65 43 91.5t96 26.5z" />
    <glyph glyph-name="four" unicode="4" horiz-adv-x="1062" 
d="M751 232h256l-6 -36h-256l-35 -196h-40l35 196h-666l5 30l746 474h44zM786 658l-670 -426h595z" />
    <glyph glyph-name="five" unicode="5" horiz-adv-x="1002" 
d="M752 0h-708l7 36h700q50 0 70.5 18t29.5 68l26 148q18 98 -80 98h-688l59 332h796l-7 -36h-756l-45 -260h650q64 0 93 -35.5t18 -100.5l-26 -150q-11 -65 -43 -91.5t-96 -26.5z" />
    <glyph glyph-name="six" unicode="6" 
d="M986 664h-663q-73 0 -104 -27q-32 -29 -45 -101l-28 -163q37 35 105 35h585q64 0 93 -35.5t18 -100.5l-26 -154q-11 -65 -43 -91.5t-96 -26.5h-607q-64 0 -93 35.5t-18 100.5l71 404q16 89 58 124.5t130 35.5h670zM827 372h-590q-46 0 -70.5 -17.5t-34.5 -58.5l-28 -162
q-18 -98 80 -98h597q50 0 71.5 18t29.5 68l25 152q8 51 -11 74.5t-69 23.5z" />
    <glyph glyph-name="seven" unicode="7" horiz-adv-x="992" 
d="M121 664l7 36h892l-6 -30l-423 -277q-73 -48 -99 -90q-24 -39 -41 -134l-30 -169h-40l32 181q16 90 45 140q27 46 100 94l384 249h-821z" />
    <glyph glyph-name="eight" unicode="8" 
d="M288 700h592q64 0 93 -35.5t18 -100.5l-15 -86q-17 -92 -79 -110q65 -32 48 -124l-22 -126q-11 -65 -43 -91.5t-96 -26.5h-611q-64 0 -93 35.5t-18 100.5l22 126q9 52 30.5 79t61.5 35q-57 32 -42 120l15 86q11 65 43 91.5t96 26.5zM935 474l16 92q18 98 -80 98h-582
q-50 0 -70.5 -18t-29.5 -68l-16 -92q-18 -98 80 -98h581q50 0 71 18t30 68zM884 122l22 132q8 51 -11 74.5t-69 23.5h-600q-50 0 -71 -18t-30 -68l-23 -132q-18 -98 80 -98h601q50 0 71.5 18t29.5 68z" />
    <glyph glyph-name="nine" unicode="9" 
d="M282 700h606q64 0 93 -35.5t18 -100.5l-71 -404q-16 -89 -58 -124.5t-130 -35.5h-669l7 36h662q74 0 105 28q30 26 44 100l27 156q-36 -36 -106 -36h-584q-64 0 -93 35.5t-18 100.5l28 162q11 65 43 91.5t96 26.5zM932 412l27 154q18 98 -80 98h-596q-50 0 -71 -18
t-30 -68l-28 -160q-18 -98 81 -98h589q50 0 75 21t33 71z" />
    <glyph glyph-name="colon" unicode=":" horiz-adv-x="220" 
d="M175 460h-60l11 60h60zM94 0h-60l11 60h60z" />
    <glyph glyph-name="semicolon" unicode=";" horiz-adv-x="220" 
d="M175 460h-60l11 60h60zM24 -160h-30l63 160h-23l11 60h60l-6 -35q-5 -26 -13 -42z" />
    <glyph glyph-name="less" unicode="&#x3c;" 
d="M101 378l915 250l-7 -40l-856 -230l772 -250l-7 -36l-823 270z" />
    <glyph glyph-name="equal" unicode="=" 
d="M114 452l6 36h872l-6 -36h-872zM72 212l6 36h872l-6 -36h-872z" />
    <glyph glyph-name="greater" unicode="&#x3e;" 
d="M139 592l7 36l823 -270l-6 -36l-915 -250l7 40l856 230z" />
    <glyph glyph-name="question" unicode="?" horiz-adv-x="966" 
d="M448 160h-40l16 89q12 67 41 95t94 35l240 24q52 5 76.5 27t33.5 72l11 64q18 98 -84 98h-579q-48 0 -69 -19t-31 -69l-10 -52h-40l10 58q11 65 42 91.5t95 26.5h593q64 0 94 -34.5t19 -99.5l-12 -70q-11 -64 -46 -94t-104 -37l-239 -24q-48 -5 -68 -25.5t-28 -70.5z
M430 0h-60l11 60h60z" />
    <glyph glyph-name="at" unicode="@" horiz-adv-x="1188" 
d="M306 700h706q88 0 127.5 -47.5t23.5 -136.5l-44 -248q-10 -56 -35 -77t-80 -21h-22q-68 0 -83 48l-29 -18q-35 -21 -65.5 -28.5t-80.5 -7.5h-368q-112 0 -91 114l26 147q10 59 39.5 85t84.5 26h364q91 0 140 -39l18 -14l11 40h32l-44 -255q-6 -34 5 -48t43 -14h17
q41 0 55.5 13t22.5 55l43 244q13 75 -16 110.5t-103 35.5h-694q-73 0 -105 -27q-31 -27 -45 -101l-62 -354q-13 -74 16.5 -110t103.5 -36h798l-7 -36h-800q-88 0 -127.5 47.5t-23.5 136.5l63 358q17 90 57 124t129 34zM858 232l35 22l34 195l-27 21q-38 30 -120 30h-366
q-42 0 -58.5 -15.5t-24.5 -61.5l-26 -144q-8 -48 3.5 -63.5t56.5 -15.5h369q72 0 124 32z" />
    <glyph glyph-name="A" unicode="A" horiz-adv-x="1072" 
d="M633 700l393 -700h-42l-117 208v-1h-678l-189 -207h-46l641 700h38zM609 666l-387 -423h625z" />
    <glyph glyph-name="B" unicode="B" horiz-adv-x="1050" 
d="M158 700h754q63 0 93 -36.5t19 -99.5l-15 -86q-8 -48 -25.5 -73.5t-48.5 -35.5q70 -32 53 -125l-23 -126q-12 -66 -42.5 -92t-96.5 -26h-792zM969 474l16 90q18 100 -84 100h-710l-48 -276h724q50 0 71.5 18t30.5 68zM926 122l24 130q18 100 -84 100h-730l-55 -316h744
q50 0 71 18t30 68z" />
    <glyph glyph-name="C" unicode="C" horiz-adv-x="1066" 
d="M794 0h-590q-87 0 -125.5 46.5t-22.5 133.5l64 360q16 89 58 124.5t130 35.5h590q87 0 125.5 -46.5t22.5 -133.5l-9 -50h-41l9 50q13 74 -15.5 109t-102.5 35h-574q-74 0 -107.5 -29t-46.5 -103l-62 -352q-13 -74 15.5 -109t102.5 -35h574q73 0 107 29t47 103l13 72h40
l-14 -80q-16 -89 -58 -124.5t-130 -35.5z" />
    <glyph glyph-name="D" unicode="D" horiz-adv-x="1090" 
d="M778 0h-744l124 700h716q102 0 152.5 -61t31.5 -163l-50 -280q-19 -105 -72.5 -150.5t-157.5 -45.5zM191 664l-110 -628h694q88 0 133.5 38.5t61.5 127.5l48 276q16 90 -23.5 138t-129.5 48h-674z" />
    <glyph glyph-name="E" unicode="E" horiz-adv-x="970" 
d="M998 700l-7 -36h-799l-49 -276h760l-7 -36h-760l-56 -316h811l-7 -36h-850l124 700h840z" />
    <glyph glyph-name="F" unicode="F" horiz-adv-x="930" 
d="M988 700l-7 -36h-789l-53 -296h750l-6 -36h-750l-59 -332h-40l124 700h830z" />
    <glyph glyph-name="G" unicode="G" horiz-adv-x="1090" 
d="M814 0h-610q-87 0 -125.5 46.5t-22.5 133.5l64 360q16 89 58 124.5t130 35.5h610q87 0 125.5 -46.5t22.5 -133.5l-4 -22h-41l4 22q13 74 -15.5 109t-102.5 35h-594q-74 0 -107.5 -29t-46.5 -103l-62 -352q-13 -74 15.5 -109t102.5 -35h594q73 0 107 29t47 103l25 140
h-401l6 36h442l-33 -184q-16 -89 -58 -124.5t-130 -35.5z" />
    <glyph glyph-name="H" unicode="H" horiz-adv-x="1080" 
d="M983 388l55 312h40l-124 -700h-40l62 352h-840l-62 -352h-40l124 700h40l-55 -312h840z" />
    <glyph glyph-name="I" unicode="I" horiz-adv-x="212" 
d="M40 0l124 700h40l-124 -700h-40z" />
    <glyph glyph-name="J" unicode="J" horiz-adv-x="970" 
d="M694 0h-520q-87 0 -125.5 46.5t-22.5 133.5l11 60h40l-11 -60q-13 -74 16 -109t103 -35h504q74 0 107.5 28.5t47.5 103.5l94 532h40l-96 -540q-16 -89 -58 -124.5t-130 -35.5z" />
    <glyph glyph-name="K" unicode="K" horiz-adv-x="956" 
d="M921 700h99l-818 -344l698 -356h-89l-675 350l-62 -350h-40l124 700h40l-59 -332z" />
    <glyph glyph-name="L" unicode="L" horiz-adv-x="900" 
d="M198 700l-118 -664h761l-7 -36h-800l124 700h40z" />
    <glyph glyph-name="M" unicode="M" horiz-adv-x="1220" 
d="M596 197l584 503h38l-124 -700h-40l113 639l-562 -479h-26l-392 479l-113 -639h-40l124 700h32z" />
    <glyph glyph-name="N" unicode="N" horiz-adv-x="1100" 
d="M943 51l115 649h40l-124 -700h-30l-755 652l-115 -652h-40l124 700h34z" />
    <glyph glyph-name="O" unicode="O" horiz-adv-x="1090" 
d="M814 0h-610q-87 0 -125.5 46.5t-22.5 133.5l64 360q16 89 58 124.5t130 35.5h610q87 0 125.5 -46.5t22.5 -133.5l-64 -360q-16 -89 -58 -124.5t-130 -35.5zM215 36h594q74 0 107.5 29t46.5 103l62 352q13 74 -15.5 109t-102.5 35h-594q-74 0 -107.5 -29t-46.5 -103
l-62 -352q-13 -74 15.5 -109t102.5 -35z" />
    <glyph glyph-name="P" unicode="P" horiz-adv-x="1020" 
d="M74 0h-40l124 700h740q159 0 131 -160l-21 -118q-13 -80 -49 -111q-35 -31 -117 -31h-718zM191 664l-61 -348h710q66 0 91 22t37 88l21 114q12 67 -11.5 95.5t-90.5 28.5h-696z" />
    <glyph glyph-name="Q" unicode="Q" horiz-adv-x="1090" 
d="M308 700h610q87 0 125.5 -46.5t22.5 -133.5l-64 -360q-16 -88 -56.5 -123.5t-125.5 -36.5l138 -140h-53l-134 140h-567q-87 0 -125.5 46.5t-22.5 133.5l64 360q16 89 58 124.5t130 35.5zM963 168l62 352q13 74 -15.5 109t-102.5 35h-594q-74 0 -107.5 -29t-46.5 -103
l-62 -352q-13 -74 15.5 -109t102.5 -35h594q74 0 107.5 29t46.5 103z" />
    <glyph glyph-name="R" unicode="R" horiz-adv-x="1050" 
d="M158 700h740q159 0 131 -160l-17 -98q-13 -80 -49 -111q-35 -31 -117 -31h-121l237 -300h-51l-235 300h-549l-53 -300h-40zM972 446l17 94q12 67 -11.5 95.5t-90.5 28.5h-696l-57 -328h710q66 0 91 22t37 88z" />
    <glyph glyph-name="S" unicode="S" horiz-adv-x="1070" 
d="M48 134l9 50h40l-9 -50q-18 -98 81 -98h666q49 0 70.5 18.5t29.5 67.5l19 110q9 50 -10 73.5t-70 26.5l-638 34q-137 8 -114 134l14 82q11 65 42.5 91.5t95.5 26.5h652q63 0 93 -35t20 -99l-5 -32h-40l5 32q8 51 -11 74.5t-69 23.5h-642q-49 0 -71 -18.5t-30 -67.5
l-13 -76q-8 -50 11 -73.5t70 -26.5l638 -34q136 -8 113 -134l-20 -116q-11 -65 -42 -91.5t-95 -26.5h-676q-63 0 -94 35.5t-20 98.5z" />
    <glyph glyph-name="T" unicode="T" horiz-adv-x="960" 
d="M98 700h920l-7 -36h-440l-117 -664h-40l117 664h-440z" />
    <glyph glyph-name="U" unicode="U" horiz-adv-x="1060" 
d="M784 0h-580q-87 0 -125.5 46.5t-22.5 133.5l92 520h40l-91 -520q-13 -74 15.5 -109t102.5 -35h564q74 0 108 29t47 103l94 532h40l-96 -540q-16 -89 -58 -124.5t-130 -35.5z" />
    <glyph glyph-name="V" unicode="V" horiz-adv-x="1044" 
d="M481 37l595 663h46l-627 -700h-38l-379 700h42z" />
    <glyph glyph-name="W" unicode="W" horiz-adv-x="1450" 
d="M1028 49l454 651h46l-487 -700h-37l-210 646l-438 -646h-39l-239 700h42l224 -652l439 652h36z" />
    <glyph glyph-name="X" unicode="X" horiz-adv-x="1020" 
d="M32 0h-68l536 355l-402 345h62l369 -318l481 318h68l-524 -345l410 -355h-62l-377 329z" />
    <glyph glyph-name="Y" unicode="Y" horiz-adv-x="996" 
d="M1014 700h60l-556 -439l-46 -261h-40l46 261l-400 439h54l370 -409z" />
    <glyph glyph-name="Z" unicode="Z" horiz-adv-x="1040" 
d="M944 0h-940l5 26l973 638h-841l7 36h920l-5 -26l-973 -638h861z" />
    <glyph glyph-name="bracketleft" unicode="[" horiz-adv-x="580" 
d="M457 -100h-460l158 900h460l-6 -36h-420l-146 -828h420z" />
    <glyph glyph-name="backslash" unicode="\" horiz-adv-x="578" 
d="M105 800h35l365 -900h-35z" />
    <glyph glyph-name="bracketright" unicode="]" horiz-adv-x="580" 
d="M155 800h460l-158 -900h-460l6 36h420l146 828h-420z" />
    <glyph glyph-name="asciicircum" unicode="^" 
d="M610 700l356 -420h-45l-330 386l-466 -386h-51l504 420h32z" />
    <glyph glyph-name="underscore" unicode="_" horiz-adv-x="920" 
d="M-59 -76l6 36h920l-6 -36h-920z" />
    <glyph glyph-name="grave" unicode="`" horiz-adv-x="330" 
d="M384 580h-50l-174 120h60z" />
    <glyph glyph-name="a" unicode="a" horiz-adv-x="946" 
d="M258 520h500q159 0 130 -158l-64 -362h-30l7 82l-60 -36q-52 -30 -85 -37q-36 -9 -100 -9h-404q-60 0 -88 34t-17 94l9 48q12 62 41 87t90 25h648l13 74q12 68 -10.5 95t-90.5 27h-488q-49 0 -71 -18.5t-30 -67.5l-6 -34h-40l7 38q12 65 43.5 91.5t95.5 26.5zM730 79
l76 46l17 95l6 32h-640q-46 0 -67 -17.5t-28 -62.5l-7 -44q-8 -49 10 -70.5t66 -21.5h408q89 0 159 43z" />
    <glyph glyph-name="b" unicode="b" horiz-adv-x="960" 
d="M410 520h368q159 0 130 -158l-39 -220q-13 -81 -50 -111q-35 -31 -117 -31h-376q-78 0 -119 10q-43 9 -84 42l-37 30l-22 -82h-30l124 700h40l-46 -260l45 28q51 32 97 43q44 9 116 9zM829 144l38 216q12 67 -11 95.5t-90 28.5h-370q-109 0 -188 -49l-64 -40l-48 -274
l50 -40q56 -45 179 -45h378q65 0 90 22q25 21 36 86z" />
    <glyph glyph-name="c" unicode="c" horiz-adv-x="930" 
d="M674 0h-488q-79 0 -113 41t-20 121l38 218q13 80 49 111q35 29 116 29h488q156 0 133 -162l-3 -21h-40l3 21q10 68 -14 97t-90 29h-474q-67 0 -92 -22q-27 -24 -37 -88l-37 -212q-12 -67 12.5 -96.5t91.5 -29.5h474q67 0 92 22q27 24 37 88l8 47h40l-9 -53
q-13 -81 -49 -110q-34 -30 -116 -30z" />
    <glyph glyph-name="d" unicode="d" horiz-adv-x="960" 
d="M872 440l46 260h40l-124 -700h-30l7 82l-48 -30q-53 -33 -96 -42q-41 -10 -117 -10h-368q-159 0 -130 158l39 220q13 80 50 112q36 30 117 30h376q76 0 119 -9q44 -11 84 -43zM752 85l64 40l48 274l-50 40q-56 45 -179 45h-378q-65 0 -90 -21q-25 -23 -36 -87l-38 -216
q-12 -67 11 -95.5t90 -28.5h370q109 0 188 49z" />
    <glyph glyph-name="e" unicode="e" horiz-adv-x="940" 
d="M258 520h500q79 0 110.5 -38t18.5 -118l-16 -97h-758l-20 -111q-12 -67 9.5 -93.5t88.5 -26.5h512q48 0 70 19.5t32 68.5l9 46h40l-10 -50q-13 -66 -44 -93t-94 -27h-524q-156 0 -129 158l38 220q13 80 50 112q36 30 117 30zM131 372l-12 -69h718l10 61q11 67 -10.5 93.5
t-87.5 26.5h-488q-64 0 -92 -23q-27 -24 -38 -89z" />
    <glyph glyph-name="f" unicode="f" horiz-adv-x="742" 
d="M793 664h-356q-49 0 -71 -18.5t-30 -67.5l-21 -118h442l-6 -36h-442l-75 -424h-40l74 424h-219l6 36h220l21 122q11 65 43.5 91.5t96.5 26.5h364z" />
    <glyph glyph-name="g" unicode="g" horiz-adv-x="960" 
d="M874 438l22 82h30l-90 -510q-16 -89 -64 -129.5t-136 -40.5h-620l6 36h614q74 0 110 30.5t50 105.5l18 100l-45 -28q-53 -33 -96 -42q-41 -10 -117 -10h-368q-159 0 -130 158l33 188q13 80 50 112q36 30 117 30h376q76 0 119 -9q44 -11 84 -43zM758 117l64 40l5 28
l37 214l-50 40q-56 45 -179 45h-378q-65 0 -90 -21q-25 -23 -36 -87l-32 -184q-11 -67 12 -95.5t89 -28.5h370q109 0 188 49z" />
    <glyph glyph-name="h" unicode="h" horiz-adv-x="956" 
d="M406 520h358q79 0 113 -41t20 -121l-63 -358h-40l63 358q12 67 -12 96.5t-91 29.5h-358q-111 0 -188 -47l-64 -40l-70 -397h-40l124 700h40l-46 -257l41 25q51 32 97 43q44 9 116 9z" />
    <glyph glyph-name="i" unicode="i" horiz-adv-x="208" 
d="M191 640h-40l11 60h40zM78 0h-40l92 520h40z" />
    <glyph glyph-name="j" unicode="j" horiz-adv-x="308" 
d="M291 640h-40l11 60h40zM32 -160h-230l7 36h222q50 0 71 18t30 68l98 558h40l-99 -562q-11 -65 -43 -91.5t-96 -26.5z" />
    <glyph glyph-name="k" unicode="k" horiz-adv-x="834" 
d="M778 520h108l-688 -261l600 -259h-98l-581 252l-45 -252h-40l124 700h40l-76 -432z" />
    <glyph glyph-name="l" unicode="l" horiz-adv-x="208" 
d="M78 0h-40l124 700h40z" />
    <glyph glyph-name="m" unicode="m" horiz-adv-x="1596" 
d="M1106 520h298q79 0 113 -41t20 -121l-63 -358h-40l63 358q12 67 -12.5 96.5t-91.5 29.5h-298q-110 0 -187 -47l-64 -40l-70 -397h-40l63 358q12 67 -12.5 96.5t-91.5 29.5h-298q-110 0 -187 -47l-64 -40l-70 -397h-40l92 520h30l-7 -79l44 27q51 32 97 43q44 9 116 9h298
q116 0 134 -86l55 34q51 32 97 43q43 9 116 9z" />
    <glyph glyph-name="n" unicode="n" horiz-adv-x="956" 
d="M406 520h358q79 0 113 -41t20 -121l-63 -358h-40l63 358q12 67 -12.5 96.5t-91.5 29.5h-358q-110 0 -187 -47l-64 -40l-70 -397h-40l92 520h30l-7 -79l44 27q51 32 97 43q44 9 116 9z" />
    <glyph glyph-name="o" unicode="o" horiz-adv-x="950" 
d="M694 0h-508q-79 0 -113 41t-20 121l38 218q13 80 49 111q35 29 116 29h508q79 0 113 -41t20 -121l-38 -218q-13 -81 -49 -110q-34 -30 -116 -30zM197 36h494q67 0 92 22q27 24 37 88l37 212q12 67 -12.5 96.5t-91.5 29.5h-494q-67 0 -92 -22q-27 -24 -37 -88l-37 -212
q-12 -67 12.5 -96.5t91.5 -29.5z" />
    <glyph glyph-name="p" unicode="p" horiz-adv-x="960" 
d="M410 520h368q159 0 130 -158l-39 -220q-13 -81 -50 -111q-35 -31 -117 -31h-376q-78 0 -119 10q-43 9 -84 42l-35 28l-42 -240h-40l120 680h30l-7 -81l48 29q51 32 97 43q44 9 116 9zM829 144l38 216q12 67 -11 95.5t-90 28.5h-370q-109 0 -188 -49l-64 -40l-30 -170
l-18 -104l50 -40q56 -45 179 -45h378q65 0 90 22q25 21 36 86z" />
    <glyph glyph-name="q" unicode="q" horiz-adv-x="960" 
d="M874 438l22 82h30l-120 -680h-40l43 240l-46 -28q-53 -33 -96 -42q-41 -10 -117 -10h-368q-159 0 -130 158l39 220q13 80 50 112q36 30 117 30h376q76 0 119 -9q44 -11 84 -43zM752 85l64 40l48 274l-50 40q-56 45 -179 45h-378q-65 0 -90 -21q-25 -23 -36 -87l-38 -216
q-12 -67 11 -95.5t90 -28.5h370q109 0 188 49z" />
    <glyph glyph-name="r" unicode="r" horiz-adv-x="630" 
d="M410 520h246l-7 -36h-254q-110 0 -187 -47l-64 -40l-70 -397h-40l92 520h30l-6 -79l43 27q51 32 98 43q45 9 119 9z" />
    <glyph glyph-name="s" unicode="s" horiz-adv-x="930" 
d="M44 112l6 37h40l-6 -37q-12 -76 63 -76h568q35 0 53 15.5t24 50.5l11 64q7 39 -7.5 58t-52.5 21l-551 30q-109 7 -90 110l7 36q10 52 38 75.5t78 23.5h555q51 0 77 -30.5t16 -81.5l-7 -34h-40l6 35q12 75 -62 75h-544q-35 0 -53 -15.5t-25 -51.5l-5 -27q-13 -75 60 -79
l551 -30q52 -3 76 -32t14 -80l-13 -72q-9 -51 -36 -74t-78 -23h-581q-50 0 -75 30t-17 82z" />
    <glyph glyph-name="t" unicode="t" horiz-adv-x="762" 
d="M771 484h-451l-62 -352q-9 -50 10 -73t69 -23h355l-6 -36h-359q-64 0 -92 33.5t-17 98.5l62 352h-220l6 36h220l31 120h30l-21 -120h451z" />
    <glyph glyph-name="u" unicode="u" horiz-adv-x="956" 
d="M882 520h40l-92 -520h-30l7 79l-44 -27q-53 -33 -96 -42q-41 -10 -117 -10h-358q-79 0 -113 41t-20 121l63 358h40l-63 -358q-12 -67 12.5 -96.5t91.5 -29.5h358q110 0 187 47l64 40z" />
    <glyph glyph-name="v" unicode="v" horiz-adv-x="898" 
d="M407 38l474 482h53l-514 -520h-34l-330 520h47z" />
    <glyph glyph-name="w" unicode="w" horiz-adv-x="1242" 
d="M870 46l360 474h48l-397 -520h-35l-188 470l-356 -470h-33l-213 520h44l192 -474l357 474h32z" />
    <glyph glyph-name="x" unicode="x" horiz-adv-x="882" 
d="M39 0h-75l445 265l-343 255h67l310 -232l390 232h75l-433 -255l351 -265h-67l-318 241z" />
    <glyph glyph-name="y" unicode="y" horiz-adv-x="898" 
d="M407 38l474 482h53l-545 -552q-76 -77 -128 -104q-49 -24 -146 -24h-129l6 36h141q73 0 114 19t100 81l33 34l-324 510h47z" />
    <glyph glyph-name="z" unicode="z" horiz-adv-x="914" 
d="M820 0h-818l5 26l814 458h-714l7 36h798l-5 -26l-814 -458h734z" />
    <glyph glyph-name="braceleft" unicode="{" horiz-adv-x="700" 
d="M317 636l-35 -198q-12 -70 -67 -89q45 -25 33 -99l-29 -170q-12 -70 18 -107t100 -37h266l-6 -36h-270q-83 0 -122.5 48.5t-25.5 131.5l31 180q12 72 -59 72h-98l6 36h102q69 0 81 68l35 204q14 85 58.5 122.5t129.5 37.5h290l-6 -36h-282q-68 0 -103 -30t-47 -98z" />
    <glyph glyph-name="bar" unicode="|" horiz-adv-x="220" 
d="M27 -100l158 900h40l-158 -900h-40z" />
    <glyph glyph-name="braceright" unicode="}" horiz-adv-x="700" 
d="M581 368h98l-6 -36h-102q-69 0 -81 -68l-35 -204q-14 -85 -58.5 -122.5t-129.5 -37.5h-290l6 36h282q68 0 103 30t47 98l35 198q12 70 67 89q-45 25 -33 99l29 170q12 70 -18 107t-100 37h-266l6 36h270q83 0 122.5 -48.5t25.5 -131.5l-31 -180q-12 -72 59 -72z" />
    <glyph glyph-name="asciitilde" unicode="~" 
d="M387 466l327 -211q37 -23 87 -23h56q28 0 41 11t18 39l39 222h40l-38 -218q-9 -50 -33 -70t-73 -20h-49q-43 0 -64 7q-23 6 -61 31l-327 211q-37 23 -87 23h-56q-28 0 -41 -11t-18 -39l-39 -222h-40l38 218q9 50 33 70t73 20h49q42 0 64 -6q25 -8 61 -32z" />
    <glyph glyph-name="exclamdown" unicode="&#xa1;" horiz-adv-x="220" 
d="M158 700h60l-10 -60h-60zM176 540l-87 -540h-48l103 540h32z" />
    <glyph glyph-name="cent" unicode="&#xa2;" 
d="M616 700h248q159 0 131 -160l-7 -39h-40l7 39q12 67 -11.5 95.5t-90.5 28.5h-546q-65 0 -90 -22q-26 -23 -38 -88l-48 -264q-12 -67 11.5 -95.5t90.5 -28.5h547q65 0 90 22q24 22 38 88l12 63h40l-12 -67q-15 -81 -50 -112q-36 -30 -116 -30h-266l-18 -100h-40l18 100
h-254q-159 0 -131 160l48 268q15 81 50 112q34 30 115 30h272l18 100h40z" />
    <glyph glyph-name="sterling" unicode="&#xa3;" horiz-adv-x="1072" 
d="M384 700h500q86 0 124.5 -46t23.5 -134l-7 -40h-41l7 40q13 74 -15.5 109t-102.5 35h-484q-74 0 -108 -29t-47 -103l-28 -161h584l-7 -36h-584l-52 -299h671q50 0 72 19t31 69l14 78h40l-14 -82q-11 -65 -44.5 -92.5t-97.5 -27.5h-845l7 36h126l53 299h-137l7 36h136
l30 169q16 89 58 124.5t130 35.5z" />
    <glyph glyph-name="currency" unicode="&#xa4;" 
d="M923 423l-30 -166q-9 -51 -31 -84l83 -100l-28 -23l-79 96q-42 -39 -121 -39h-436q-75 0 -115 46l-121 -103l-22 27l125 107q-17 42 -7 93l30 166q9 51 31 84l-83 100l28 23l79 -96q42 39 121 39h436q75 0 115 -46l121 103l22 -27l-125 -107q17 -42 7 -93zM290 143h424
q64 0 96.5 28t43.5 92l28 162q11 64 -16.5 98t-91.5 34h-424q-64 0 -96.5 -28t-43.5 -92l-28 -162q-11 -64 16.5 -98t91.5 -34z" />
    <glyph glyph-name="yen" unicode="&#xa5;" 
d="M1011 700h59l-497 -409h395l-7 -36h-426l-21 -118h426l-6 -36h-426l-18 -101h-40l18 101h-426l6 36h426l21 118h-426l7 36h394l-352 409h53l350 -407z" />
    <glyph glyph-name="brokenbar" unicode="&#xa6;" horiz-adv-x="220" 
d="M131 490l54 310h40l-54 -310h-40zM27 -100l54 310h40l-54 -310h-40z" />
    <glyph glyph-name="section" unicode="&#xa7;" horiz-adv-x="1210" 
d="M360 528l687 -45q131 -9 109 -133l-12 -68q-11 -64 -42.5 -91t-94.5 -27h-21q24 -34 12 -90l-11 -56q-13 -64 -44 -91t-94 -27h-586q-63 0 -93 35t-20 99l5 32h40l-5 -32q-8 -51 11 -74.5t69 -23.5h576q48 0 69.5 18.5t31.5 67.5l10 50q10 49 -8 73t-67 27l-687 45
q-131 9 -109 133l12 68q11 64 42.5 91t94.5 27h21q-24 34 -12 90l11 56q13 64 44 91t94 27h586q63 0 93 -35t20 -99l-5 -32h-40l5 32q8 51 -11 74.5t-69 23.5h-576q-48 0 -69.5 -18.5t-31.5 -67.5l-10 -50q-10 -49 8 -73t67 -27zM1104 286l11 62q9 49 -8.5 72.5t-65.5 26.5
l-687 45q-26 2 -45 8h-71q-48 0 -70 -19t-30 -67l-11 -62q-9 -49 8.5 -72.5t65.5 -26.5l687 -45q26 -2 45 -8h71q48 0 70 19t30 67z" />
    <glyph glyph-name="dieresis" unicode="&#xa8;" horiz-adv-x="400" 
d="M181 600h-40l10 60h40zM421 600h-40l10 60h40z" />
    <glyph glyph-name="copyright" unicode="&#xa9;" horiz-adv-x="1198" 
d="M907 0h-584q-106 0 -162 55.5t-56 162.5v264q0 107 56 162.5t162 55.5h584q106 0 162 -55.5t56 -162.5v-264q0 -107 -56 -162.5t-162 -55.5zM329 36h572q94 0 139 45t45 139v260q0 94 -45 139t-139 45h-572q-94 0 -139 -45t-45 -139v-260q0 -94 45 -139t139 -45zM876 136
h-522q-56 0 -82.5 26t-26.5 83v210q0 57 26.5 83t82.5 26h522q56 0 82.5 -26t26.5 -83v-36h-40v35q0 41 -16 57.5t-57 16.5h-514q-41 0 -57 -16.5t-16 -57.5v-208q0 -41 16 -57.5t57 -16.5h514q41 0 57 16.5t16 57.5v42h40v-43q0 -57 -26.5 -83t-82.5 -26z" />
    <glyph glyph-name="ordfeminine" unicode="&#xaa;" horiz-adv-x="567" 
d="M207 700h297q99 0 81 -96l-39 -217h-30l2 47l-27 -17q-34 -21 -52 -25q-23 -5 -60 -5h-240q-36 0 -54 20.5t-11 55.5l6 33q7 37 26.5 53.5t56.5 16.5h376l6 33q7 37 -4.5 52t-47.5 15h-280q-26 0 -38 -10.5t-19 -37.5l-4 -15h-39l5 22q9 41 29 58t60 17zM476 444l46 27
l11 62h-361q-27 0 -38.5 -9t-15.5 -35l-3 -18q-5 -26 4 -38t35 -12h237q44 0 85 23z" />
    <glyph glyph-name="guillemotleft" unicode="&#xab;" horiz-adv-x="1260" 
d="M575 124l-500 220l6 30l574 200l-9 -50l-511 -169l449 -186zM681 374l574 200l-9 -50l-511 -169l449 -186l-9 -45l-500 220z" />
    <glyph glyph-name="logicalnot" unicode="&#xac;" 
d="M929 332h-836l7 36h872l-40 -222h-36z" />
    <glyph glyph-name="uni00AD" unicode="&#xad;" horiz-adv-x="660" 
d="M73 332l6 36h540l-6 -36h-540z" />
    <glyph glyph-name="registered" unicode="&#xae;" horiz-adv-x="393" 
d="M195 700h105q53 0 78 -25t25 -78v-92q0 -103 -103 -103h-105q-103 0 -103 103v92q0 53 25 78t78 25zM373 507v88q0 43 -17.5 60t-59.5 17h-97q-42 0 -59.5 -17t-17.5 -60v-88q0 -41 17.5 -59t59.5 -18h97q42 0 59.5 18t17.5 59zM287 529h-5l46 -56h-34l-46 56h-38v-56
h-31v155h108q18 0 25.5 -7.5t7.5 -25.5v-33q0 -18 -7.5 -25.5t-25.5 -7.5zM276 600h-66v-43h66q8 0 10.5 2.5t2.5 11.5v15q0 9 -2.5 11.5t-10.5 2.5z" />
    <glyph glyph-name="overscore" unicode="&#xaf;" horiz-adv-x="520" 
d="M585 624h-440l6 36h440z" />
    <glyph glyph-name="degree" unicode="&#xb0;" horiz-adv-x="420" 
d="M281 380h-86q-56 0 -84 34t-18 89l16 86q19 111 130 111h86q57 0 84.5 -33t17.5 -90l-16 -86q-21 -111 -130 -111zM199 416h82q41 0 62.5 18.5t29.5 60.5l16 86q15 83 -68 83h-82q-41 0 -63 -18.5t-29 -60.5l-16 -86q-15 -83 68 -83z" />
    <glyph glyph-name="plusminus" unicode="&#xb1;" 
d="M607 660l-39 -222h416l-7 -36h-416l-39 -222h-40l39 222h-416l7 36h416l39 222h40zM913 40h-872l7 36h872z" />
    <glyph glyph-name="uni00B2" unicode="&#xb2;" horiz-adv-x="661" 
d="M597 314l-7 -34h-518l22 125q7 40 25.5 56.5t60.5 20.5l372 34q30 3 40.5 13t15.5 38l8 45q10 55 -45 55h-336q-28 0 -40 -10t-16 -38l-5 -29h-38l6 37q7 40 26.5 56.5t60.5 16.5h357q40 0 58 -22t11 -63l-9 -56q-7 -40 -25.5 -56.5t-60.5 -20.5l-372 -34
q-30 -3 -40.5 -12.5t-15.5 -37.5l-14 -84h479z" />
    <glyph glyph-name="uni00B3" unicode="&#xb3;" horiz-adv-x="662" 
d="M224 700h358q40 0 58 -22t11 -62l-9 -49q-11 -57 -49 -67q39 -18 30 -76l-12 -70q-7 -40 -27 -57t-60 -17h-369q-40 0 -58 22t-11 63l7 41h38l-6 -39q-9 -54 44 -54h348q28 0 39.5 10t16.5 37l12 71q9 54 -45 54h-272l6 32h272q28 0 39.5 10t16.5 38l9 48q11 54 -44 54
h-337q-27 0 -38.5 -10t-16.5 -38l-7 -40h-39l8 47q7 40 27 57t60 17z" />
    <glyph glyph-name="acute" unicode="&#xb4;" horiz-adv-x="330" 
d="M410 700l-218 -120h-58l208 120h68z" />
    <glyph glyph-name="paragraph" unicode="&#xb6;" horiz-adv-x="910" 
d="M109 478l14 80q13 80 50 112q36 30 117 30h578l-124 -700h-40l117 664h-270l-117 -664h-40l57 320h-212q-81 0 -112.5 38.5t-17.5 119.5z" />
    <glyph glyph-name="middot" unicode="&#xb7;" horiz-adv-x="220" 
d="M151 320h-60l11 60h60z" />
    <glyph glyph-name="cedilla" unicode="&#xb8;" horiz-adv-x="320" 
d="M218 -160h-232l6 34h228q10 0 13.5 3t5.5 13l4 20q5 18 -15 18h-146l2 14l44 78h32l-32 -58h108q52 0 43 -52l-4 -22q-5 -28 -17 -38t-40 -10z" />
    <glyph glyph-name="uni00B9" unicode="&#xb9;" horiz-adv-x="626" 
d="M425 700l-68 -386h231l-6 -34h-530l6 34h260l62 351l-245 -17l6 34l266 18h18z" />
    <glyph glyph-name="ordmasculine" unicode="&#xba;" horiz-adv-x="569" 
d="M463 387h-301q-101 0 -83 101l22 124q9 50 32 69t73 19h301q101 0 83 -100l-22 -124q-9 -50 -32 -69.5t-73 -19.5zM173 423h284q37 0 51.5 12.5t21.5 49.5l20 112q7 37 -5 52.5t-48 15.5h-284q-37 0 -52 -12.5t-22 -49.5l-20 -112q-7 -37 5 -52.5t49 -15.5z" />
    <glyph glyph-name="guillemotright" unicode="&#xbb;" horiz-adv-x="1260" 
d="M557 343l-449 186l9 45l500 -220l-6 -30l-574 -200l9 50zM708 529l9 45l500 -220l-6 -30l-574 -200l9 50l511 169z" />
    <glyph glyph-name="onequarter" unicode="&#xbc;" horiz-adv-x="1372" 
d="M357 314h231l-6 -34h-530l6 34h260l62 351l-245 -17l6 34l266 18h18zM301 0l874 700h55l-874 -700h-55zM1152 144h152l-5 -32h-152l-20 -112h-38l20 112h-394l4 27l437 281h45zM1157 385l-374 -241h331z" />
    <glyph glyph-name="onehalf" unicode="&#xbd;" horiz-adv-x="1483" 
d="M357 314h231l-6 -34h-530l6 34h260l62 351l-245 -17l6 34l266 18h18zM301 0l874 700h55l-874 -700h-55zM1002 420h357q40 0 58 -22t11 -63l-9 -56q-7 -40 -25.5 -56.5t-60.5 -20.5l-372 -34q-30 -3 -40.5 -12.5t-15.5 -37.5l-14 -84h479l-7 -34h-518l22 125
q7 40 25.5 56.5t60.5 20.5l372 34q30 3 40.5 13t15.5 38l8 45q10 55 -45 55h-336q-28 0 -40 -10t-16 -38l-5 -29h-38l6 37q7 40 26.5 56.5t60.5 16.5z" />
    <glyph glyph-name="threequarters" unicode="&#xbe;" horiz-adv-x="1408" 
d="M623 424l-12 -70q-7 -40 -27 -57t-60 -17h-369q-40 0 -58 22t-11 63l7 41h38l-6 -39q-9 -54 44 -54h348q28 0 39.5 10t16.5 37l12 71q9 54 -45 54h-272l6 32h272q28 0 39.5 10t16.5 38l9 48q11 54 -44 54h-337q-27 0 -38.5 -10t-16.5 -38l-7 -40h-39l8 47q7 40 27 57
t60 17h358q40 0 58 -22t11 -62l-9 -49q-11 -57 -49 -67q39 -18 30 -76zM338 0l874 700h55l-874 -700h-55zM1189 144h152l-5 -32h-152l-20 -112h-38l20 112h-394l4 27l437 281h45zM1194 385l-374 -241h331z" />
    <glyph glyph-name="questiondown" unicode="&#xbf;" horiz-adv-x="966" 
d="M568 700h60l-11 -60h-60zM550 540h40l-16 -89q-12 -67 -41 -95t-94 -35l-240 -24q-52 -5 -76.5 -27t-33.5 -72l-11 -64q-18 -98 84 -98h579q48 0 69 19t31 69l10 52h40l-10 -58q-11 -65 -42 -91.5t-95 -26.5h-593q-64 0 -94 34.5t-19 99.5l12 70q11 64 46 94t104 37
l239 24q48 5 68 25.5t28 70.5z" />
    <glyph glyph-name="Agrave" unicode="&#xc0;" horiz-adv-x="1072" 
d="M483 880l164 -120h-50l-174 120h60zM633 700l393 -700h-42l-117 208v-1h-678l-189 -207h-46l641 700h38zM609 666l-387 -423h625z" />
    <glyph glyph-name="Aacute" unicode="&#xc1;" horiz-adv-x="1072" 
d="M805 880h68l-218 -120h-58zM633 700l393 -700h-42l-117 208v-1h-678l-189 -207h-46l641 700h38zM609 666l-387 -423h625z" />
    <glyph glyph-name="Acircumflex" unicode="&#xc2;" horiz-adv-x="1072" 
d="M771 760l-126 92l-160 -92h-56l192 120h50l148 -120h-48zM633 700l393 -700h-42l-117 208v-1h-678l-189 -207h-46l641 700h38zM609 666l-387 -423h625z" />
    <glyph glyph-name="Atilde" unicode="&#xc3;" horiz-adv-x="1072" 
d="M482 826l-12 -66h-36l13 71q5 27 18 38t40 11h56q24 0 35.5 -4t26.5 -19l51 -50q16 -14 37 -14h52q21 0 25 21l12 66h36l-13 -71q-5 -27 -18 -38t-40 -11h-56q-24 0 -35.5 4t-26.5 19l-51 50q-16 14 -37 14h-52q-21 0 -25 -21zM633 700l393 -700h-42l-117 208v-1h-678
l-189 -207h-46l641 700h38zM609 666l-387 -423h625z" />
    <glyph glyph-name="Adieresis" unicode="&#xc4;" horiz-adv-x="1072" 
d="M498 840h40l-10 -60h-40zM738 840h40l-10 -60h-40zM633 700l393 -700h-42l-117 208v-1h-678l-189 -207h-46l641 700h38zM609 666l-387 -423h625z" />
    <glyph glyph-name="Aring" unicode="&#xc5;" horiz-adv-x="1072" 
d="M747 750h-243q-55 0 -46 55l4 24q4 29 17 40t43 11h243q55 0 46 -55l-4 -24q-4 -29 -17 -40t-43 -11zM497 825l-3 -18q-4 -24 18 -24h235q13 0 18 4.5t7 17.5l3 18q5 24 -18 24h-235q-13 0 -18 -4.5t-7 -17.5zM633 700l393 -700h-42l-117 208v-1h-678l-189 -207h-46
l641 700h38zM609 666l-387 -423h625z" />
    <glyph glyph-name="AE" unicode="&#xc6;" horiz-adv-x="1570" 
d="M1598 700l-7 -36h-938l155 -276h695l-7 -36h-668l178 -316h485l-7 -36h-500l-117 207h-678l-189 -207h-46l641 700h1003zM609 666l-387 -423h625z" />
    <glyph glyph-name="Ccedilla" unicode="&#xc7;" horiz-adv-x="1066" 
d="M308 700h590q87 0 125.5 -46.5t22.5 -133.5l-9 -50h-41l9 50q13 74 -15.5 109t-102.5 35h-574q-74 0 -107.5 -29t-46.5 -103l-62 -352q-13 -74 15.5 -109t102.5 -35h574q73 0 107 29t47 103l13 72h40l-14 -80q-16 -89 -58 -124.5t-130 -35.5h-298l-21 -38h108
q52 0 43 -52l-4 -22q-5 -28 -17 -38t-40 -10h-232l6 34h228q10 0 13.5 3t5.5 13l4 20q4 18 -15 18h-146l2 14l33 58h-260q-87 0 -125.5 46.5t-22.5 133.5l64 360q16 89 58 124.5t130 35.5z" />
    <glyph glyph-name="Egrave" unicode="&#xc8;" horiz-adv-x="970" 
d="M432 880l164 -120h-50l-174 120h60zM998 700l-7 -36h-799l-49 -276h760l-7 -36h-760l-56 -316h811l-7 -36h-850l124 700h840z" />
    <glyph glyph-name="Eacute" unicode="&#xc9;" horiz-adv-x="970" 
d="M754 880h68l-218 -120h-58zM998 700l-7 -36h-799l-49 -276h760l-7 -36h-760l-56 -316h811l-7 -36h-850l124 700h840z" />
    <glyph glyph-name="Ecircumflex" unicode="&#xca;" horiz-adv-x="970" 
d="M720 760l-126 92l-160 -92h-56l192 120h50l148 -120h-48zM998 700l-7 -36h-799l-49 -276h760l-7 -36h-760l-56 -316h811l-7 -36h-850l124 700h840z" />
    <glyph glyph-name="Edieresis" unicode="&#xcb;" horiz-adv-x="970" 
d="M447 840h40l-10 -60h-40zM687 840h40l-10 -60h-40zM998 700l-7 -36h-799l-49 -276h760l-7 -36h-760l-56 -316h811l-7 -36h-850l124 700h840z" />
    <glyph glyph-name="Igrave" unicode="&#xcc;" horiz-adv-x="212" 
d="M217 760h-50l-174 120h60zM40 0l124 700h40l-124 -700h-40z" />
    <glyph glyph-name="Iacute" unicode="&#xcd;" horiz-adv-x="212" 
d="M443 880l-218 -120h-58l208 120h68zM40 0l124 700h40l-124 -700h-40z" />
    <glyph glyph-name="Icircumflex" unicode="&#xce;" horiz-adv-x="212" 
d="M55 760h-56l192 120h50l148 -120h-48l-126 92zM40 0l124 700h40l-124 -700h-40z" />
    <glyph glyph-name="Idieresis" unicode="&#xcf;" horiz-adv-x="212" 
d="M98 780h-40l10 60h40zM338 780h-40l10 60h40zM40 0l124 700h40l-124 -700h-40z" />
    <glyph glyph-name="Eth" unicode="&#xd0;" horiz-adv-x="1150" 
d="M218 700h716q102 0 152.5 -61t31.5 -163l-50 -280q-19 -105 -72.5 -150.5t-157.5 -45.5h-744l59 332h-100l6 36h100zM1030 202l48 276q16 90 -23.5 138t-129.5 48h-674l-52 -296h480l-6 -36h-480l-52 -296h694q88 0 133.5 38.5t61.5 127.5z" />
    <glyph glyph-name="Ntilde" unicode="&#xd1;" horiz-adv-x="1100" 
d="M496 826l-12 -66h-36l13 71q5 27 18 38t40 11h56q24 0 35.5 -4t26.5 -19l51 -50q16 -14 37 -14h52q21 0 25 21l12 66h36l-13 -71q-5 -27 -18 -38t-40 -11h-56q-24 0 -35.5 4t-26.5 19l-51 50q-16 14 -37 14h-52q-20 0 -25 -21zM943 51l115 649h40l-124 -700h-30l-755 652
l-115 -652h-40l124 700h34z" />
    <glyph glyph-name="Ograve" unicode="&#xd2;" horiz-adv-x="1090" 
d="M656 760h-50l-174 120h60zM814 0h-610q-87 0 -125.5 46.5t-22.5 133.5l64 360q16 89 58 124.5t130 35.5h610q87 0 125.5 -46.5t22.5 -133.5l-64 -360q-16 -89 -58 -124.5t-130 -35.5zM215 36h594q74 0 107.5 29t46.5 103l62 352q13 74 -15.5 109t-102.5 35h-594
q-74 0 -107.5 -29t-46.5 -103l-62 -352q-13 -74 15.5 -109t102.5 -35z" />
    <glyph glyph-name="Oacute" unicode="&#xd3;" horiz-adv-x="1090" 
d="M882 880l-218 -120h-58l208 120h68zM814 0h-610q-87 0 -125.5 46.5t-22.5 133.5l64 360q16 89 58 124.5t130 35.5h610q87 0 125.5 -46.5t22.5 -133.5l-64 -360q-16 -89 -58 -124.5t-130 -35.5zM215 36h594q74 0 107.5 29t46.5 103l62 352q13 74 -15.5 109t-102.5 35h-594
q-74 0 -107.5 -29t-46.5 -103l-62 -352q-13 -74 15.5 -109t102.5 -35z" />
    <glyph glyph-name="Ocircumflex" unicode="&#xd4;" horiz-adv-x="1090" 
d="M494 760h-56l192 120h50l148 -120h-48l-126 92zM814 0h-610q-87 0 -125.5 46.5t-22.5 133.5l64 360q16 89 58 124.5t130 35.5h610q87 0 125.5 -46.5t22.5 -133.5l-64 -360q-16 -89 -58 -124.5t-130 -35.5zM215 36h594q74 0 107.5 29t46.5 103l62 352q13 74 -15.5 109
t-102.5 35h-594q-74 0 -107.5 -29t-46.5 -103l-62 -352q-13 -74 15.5 -109t102.5 -35z" />
    <glyph glyph-name="Otilde" unicode="&#xd5;" horiz-adv-x="1090" 
d="M479 760h-36l13 71q5 27 18 38t40 11h56q24 0 35.5 -4t26.5 -19l51 -50q16 -14 37 -14h52q20 0 25 21l12 66h36l-13 -71q-5 -27 -18 -38t-40 -11h-56q-24 0 -35.5 4t-26.5 19l-51 50q-16 14 -37 14h-52q-20 0 -25 -21zM814 0h-610q-87 0 -125.5 46.5t-22.5 133.5l64 360
q16 89 58 124.5t130 35.5h610q87 0 125.5 -46.5t22.5 -133.5l-64 -360q-16 -89 -58 -124.5t-130 -35.5zM215 36h594q74 0 107.5 29t46.5 103l62 352q13 74 -15.5 109t-102.5 35h-594q-74 0 -107.5 -29t-46.5 -103l-62 -352q-13 -74 15.5 -109t102.5 -35z" />
    <glyph glyph-name="Odieresis" unicode="&#xd6;" horiz-adv-x="1090" 
d="M537 780h-40l10 60h40zM777 780h-40l10 60h40zM814 0h-610q-87 0 -125.5 46.5t-22.5 133.5l64 360q16 89 58 124.5t130 35.5h610q87 0 125.5 -46.5t22.5 -133.5l-64 -360q-16 -89 -58 -124.5t-130 -35.5zM215 36h594q74 0 107.5 29t46.5 103l62 352q13 74 -15.5 109
t-102.5 35h-594q-74 0 -107.5 -29t-46.5 -103l-62 -352q-13 -74 15.5 -109t102.5 -35z" />
    <glyph glyph-name="multiply" unicode="&#xd7;" 
d="M961 620l18 -32l-414 -240l330 -242l-24 -26l-340 249l-429 -249l-18 32l415 240l-330 242l24 26l339 -248z" />
    <glyph glyph-name="Oslash" unicode="&#xd8;" horiz-adv-x="1090" 
d="M1133 730l-97 -68q46 -46 30 -142l-64 -360q-16 -89 -58 -124.5t-130 -35.5h-610q-53 0 -85 16l-66 -46h-64l97 68q-46 46 -30 142l64 360q16 89 58 124.5t130 35.5h610q53 0 85 -16l66 46h64zM159 532l-62 -352q-15 -82 23 -117l845 594q-21 7 -58 7h-594
q-74 0 -107.5 -29t-46.5 -103zM963 168l62 352q15 82 -23 117l-845 -594q21 -7 58 -7h594q74 0 107.5 29t46.5 103z" />
    <glyph glyph-name="Ugrave" unicode="&#xd9;" horiz-adv-x="1060" 
d="M641 760h-50l-174 120h60zM784 0h-580q-87 0 -125.5 46.5t-22.5 133.5l92 520h40l-91 -520q-13 -74 15.5 -109t102.5 -35h564q74 0 108 29t47 103l94 532h40l-96 -540q-16 -89 -58 -124.5t-130 -35.5z" />
    <glyph glyph-name="Uacute" unicode="&#xda;" horiz-adv-x="1060" 
d="M867 880l-218 -120h-58l208 120h68zM784 0h-580q-87 0 -125.5 46.5t-22.5 133.5l92 520h40l-91 -520q-13 -74 15.5 -109t102.5 -35h564q74 0 108 29t47 103l94 532h40l-96 -540q-16 -89 -58 -124.5t-130 -35.5z" />
    <glyph glyph-name="Ucircumflex" unicode="&#xdb;" horiz-adv-x="1060" 
d="M479 760h-56l192 120h50l148 -120h-48l-126 92zM784 0h-580q-87 0 -125.5 46.5t-22.5 133.5l92 520h40l-91 -520q-13 -74 15.5 -109t102.5 -35h564q74 0 108 29t47 103l94 532h40l-96 -540q-16 -89 -58 -124.5t-130 -35.5z" />
    <glyph glyph-name="Udieresis" unicode="&#xdc;" horiz-adv-x="1060" 
d="M522 780h-40l10 60h40zM762 780h-40l10 60h40zM784 0h-580q-87 0 -125.5 46.5t-22.5 133.5l92 520h40l-91 -520q-13 -74 15.5 -109t102.5 -35h564q74 0 108 29t47 103l94 532h40l-96 -540q-16 -89 -58 -124.5t-130 -35.5z" />
    <glyph glyph-name="Yacute" unicode="&#xdd;" horiz-adv-x="996" 
d="M767 880h68l-218 -120h-58zM1014 700h60l-556 -439l-46 -261h-40l46 261l-400 439h54l370 -409z" />
    <glyph glyph-name="Thorn" unicode="&#xde;" horiz-adv-x="1020" 
d="M175 570h700q160 0 132 -160l-21 -118q-13 -80 -49 -111q-35 -31 -116 -31h-720l-27 -150h-40l124 700h40zM946 296l21 114q12 67 -12 95.5t-91 28.5h-695l-62 -348h712q65 0 90 22t37 88z" />
    <glyph glyph-name="germandbls" unicode="&#xdf;" horiz-adv-x="962" 
d="M278 700h542q64 0 92 -33.5t17 -98.5l-15 -88q-15 -87 -73 -109q68 -29 52 -123l-22 -128q-11 -65 -45 -92.5t-98 -27.5h-324l7 36h316q49 0 72.5 19.5t31.5 68.5l23 132q9 50 -10.5 73t-69.5 23h-308l7 36h296q49 0 72.5 19.5t31.5 68.5l16 92q9 50 -10.5 73t-69.5 23
h-530q-49 0 -72.5 -19.5t-31.5 -68.5l-101 -576h-40l101 580q11 65 45 92.5t98 27.5z" />
    <glyph glyph-name="agrave" unicode="&#xe0;" horiz-adv-x="946" 
d="M398 700l164 -120h-50l-174 120h60zM258 520h500q159 0 130 -158l-64 -362h-30l7 82l-60 -36q-52 -30 -85 -37q-36 -9 -100 -9h-404q-60 0 -88 34t-17 94l9 48q12 62 41 87t90 25h648l13 74q12 68 -10.5 95t-90.5 27h-488q-49 0 -71 -18.5t-30 -67.5l-6 -34h-40l7 38
q12 65 43.5 91.5t95.5 26.5zM730 79l76 46l17 95l6 32h-640q-46 0 -67 -17.5t-28 -62.5l-7 -44q-8 -49 10 -70.5t66 -21.5h408q89 0 159 43z" />
    <glyph glyph-name="aacute" unicode="&#xe1;" horiz-adv-x="946" 
d="M720 700h68l-218 -120h-58zM258 520h500q159 0 130 -158l-64 -362h-30l7 82l-60 -36q-52 -30 -85 -37q-36 -9 -100 -9h-404q-60 0 -88 34t-17 94l9 48q12 62 41 87t90 25h648l13 74q12 68 -10.5 95t-90.5 27h-488q-49 0 -71 -18.5t-30 -67.5l-6 -34h-40l7 38
q12 65 43.5 91.5t95.5 26.5zM730 79l76 46l17 95l6 32h-640q-46 0 -67 -17.5t-28 -62.5l-7 -44q-8 -49 10 -70.5t66 -21.5h408q89 0 159 43z" />
    <glyph glyph-name="acircumflex" unicode="&#xe2;" horiz-adv-x="946" 
d="M686 580l-126 92l-160 -92h-56l192 120h50l148 -120h-48zM258 520h500q159 0 130 -158l-64 -362h-30l7 82l-60 -36q-52 -30 -85 -37q-36 -9 -100 -9h-404q-60 0 -88 34t-17 94l9 48q12 62 41 87t90 25h648l13 74q12 68 -10.5 95t-90.5 27h-488q-49 0 -71 -18.5t-30 -67.5
l-6 -34h-40l7 38q12 65 43.5 91.5t95.5 26.5zM730 79l76 46l17 95l6 32h-640q-46 0 -67 -17.5t-28 -62.5l-7 -44q-8 -49 10 -70.5t66 -21.5h408q89 0 159 43z" />
    <glyph glyph-name="atilde" unicode="&#xe3;" horiz-adv-x="946" 
d="M397 646l-12 -66h-36l13 71q5 27 18 38t40 11h56q24 0 35.5 -4t26.5 -19l51 -50q16 -14 37 -14h52q20 0 25 21l12 66h36l-13 -71q-5 -27 -18 -38t-40 -11h-56q-24 0 -35.5 4t-26.5 19l-51 50q-16 14 -37 14h-52q-20 0 -25 -21zM258 520h500q159 0 130 -158l-64 -362h-30
l7 82l-60 -36q-52 -30 -85 -37q-36 -9 -100 -9h-404q-60 0 -88 34t-17 94l9 48q12 62 41 87t90 25h648l13 74q12 68 -10.5 95t-90.5 27h-488q-49 0 -71 -18.5t-30 -67.5l-6 -34h-40l7 38q12 65 43.5 91.5t95.5 26.5zM730 79l76 46l17 95l6 32h-640q-46 0 -67 -17.5
t-28 -62.5l-7 -44q-8 -49 10 -70.5t66 -21.5h408q89 0 159 43z" />
    <glyph glyph-name="adieresis" unicode="&#xe4;" horiz-adv-x="946" 
d="M413 660h40l-10 -60h-40zM653 660h40l-10 -60h-40zM258 520h500q159 0 130 -158l-64 -362h-30l7 82l-60 -36q-52 -30 -85 -37q-36 -9 -100 -9h-404q-60 0 -88 34t-17 94l9 48q12 62 41 87t90 25h648l13 74q12 68 -10.5 95t-90.5 27h-488q-49 0 -71 -18.5t-30 -67.5
l-6 -34h-40l7 38q12 65 43.5 91.5t95.5 26.5zM730 79l76 46l17 95l6 32h-640q-46 0 -67 -17.5t-28 -62.5l-7 -44q-8 -49 10 -70.5t66 -21.5h408q89 0 159 43z" />
    <glyph glyph-name="aring" unicode="&#xe5;" horiz-adv-x="946" 
d="M662 570h-243q-55 0 -46 55l4 24q4 29 17 40t43 11h243q55 0 46 -55l-4 -24q-4 -29 -17 -40t-43 -11zM412 645l-3 -18q-5 -24 18 -24h235q13 0 18 4.5t7 17.5l3 18q4 24 -18 24h-235q-13 0 -18 -4.5t-7 -17.5zM258 520h500q159 0 130 -158l-64 -362h-30l7 82l-60 -36
q-52 -30 -85 -37q-36 -9 -100 -9h-404q-60 0 -88 34t-17 94l9 48q12 62 41 87t90 25h648l13 74q12 68 -10.5 95t-90.5 27h-488q-49 0 -71 -18.5t-30 -67.5l-6 -34h-40l7 38q12 65 43.5 91.5t95.5 26.5zM730 79l76 46l17 95l6 32h-640q-46 0 -67 -17.5t-28 -62.5l-7 -44
q-8 -49 10 -70.5t66 -21.5h408q89 0 159 43z" />
    <glyph glyph-name="ae" unicode="&#xe6;" horiz-adv-x="1700" 
d="M1018 520h500q80 0 111 -38t18 -120l-16 -95h-758l-20 -111q-12 -67 9.5 -93.5t88.5 -26.5h512q48 0 70 19.5t32 68.5l9 46h40l-10 -52q-12 -64 -43.5 -91t-94.5 -27h-523q-119 0 -132 88l-70 -42q-52 -30 -85 -37q-36 -9 -100 -9h-404q-60 0 -88 34t-17 94l9 48
q12 62 41 87t90 25h648l13 74q12 68 -10.5 95t-90.5 27h-488q-49 0 -71 -18.5t-30 -67.5l-6 -34h-40l7 38q12 65 43.5 91.5t95.5 26.5h500q101 0 122 -63q18 35 49 49t89 14zM891 372l-12 -69h718l10 61q11 67 -10.5 93.5t-87.5 26.5h-488q-67 0 -92 -22q-26 -23 -38 -90z
M730 79l76 46l23 127h-640q-46 0 -67 -17.5t-28 -62.5l-7 -44q-8 -49 10 -70.5t66 -21.5h408q89 0 159 43z" />
    <glyph glyph-name="ccedilla" unicode="&#xe7;" horiz-adv-x="930" 
d="M256 520h488q156 0 133 -162l-3 -21h-40l3 21q10 68 -14 97t-90 29h-474q-67 0 -92 -22q-27 -24 -37 -88l-37 -212q-12 -67 12.5 -96.5t91.5 -29.5h474q67 0 92 22q27 24 37 88l8 47h40l-9 -53q-13 -81 -49 -110q-34 -30 -116 -30h-246l-21 -38h108q52 0 43 -52l-4 -22
q-5 -28 -17 -38t-40 -10h-232l6 34h228q10 0 13.5 3t5.5 13l4 20q4 18 -15 18h-146l2 14l33 58h-210q-79 0 -113 41t-20 121l38 218q13 80 49 111q35 29 116 29z" />
    <glyph glyph-name="egrave" unicode="&#xe8;" horiz-adv-x="940" 
d="M385 700l164 -120h-50l-174 120h60zM258 520h500q79 0 110.5 -38t18.5 -118l-16 -97h-758l-20 -111q-12 -67 9.5 -93.5t88.5 -26.5h512q48 0 70 19.5t32 68.5l9 46h40l-10 -50q-13 -66 -44 -93t-94 -27h-524q-156 0 -129 158l38 220q13 80 50 112q36 30 117 30zM131 372
l-12 -69h718l10 61q11 67 -10.5 93.5t-87.5 26.5h-488q-64 0 -92 -23q-27 -24 -38 -89z" />
    <glyph glyph-name="eacute" unicode="&#xe9;" horiz-adv-x="940" 
d="M707 700h68l-218 -120h-58zM258 520h500q79 0 110.5 -38t18.5 -118l-16 -97h-758l-20 -111q-12 -67 9.5 -93.5t88.5 -26.5h512q48 0 70 19.5t32 68.5l9 46h40l-10 -50q-13 -66 -44 -93t-94 -27h-524q-156 0 -129 158l38 220q13 80 50 112q36 30 117 30zM131 372l-12 -69
h718l10 61q11 67 -10.5 93.5t-87.5 26.5h-488q-64 0 -92 -23q-27 -24 -38 -89z" />
    <glyph glyph-name="ecircumflex" unicode="&#xea;" horiz-adv-x="940" 
d="M673 580l-126 92l-160 -92h-56l192 120h50l148 -120h-48zM258 520h500q79 0 110.5 -38t18.5 -118l-16 -97h-758l-20 -111q-12 -67 9.5 -93.5t88.5 -26.5h512q48 0 70 19.5t32 68.5l9 46h40l-10 -50q-13 -66 -44 -93t-94 -27h-524q-156 0 -129 158l38 220q13 80 50 112
q36 30 117 30zM131 372l-12 -69h718l10 61q11 67 -10.5 93.5t-87.5 26.5h-488q-64 0 -92 -23q-27 -24 -38 -89z" />
    <glyph glyph-name="edieresis" unicode="&#xeb;" horiz-adv-x="940" 
d="M400 660h40l-10 -60h-40zM640 660h40l-10 -60h-40zM258 520h500q79 0 110.5 -38t18.5 -118l-16 -97h-758l-20 -111q-12 -67 9.5 -93.5t88.5 -26.5h512q48 0 70 19.5t32 68.5l9 46h40l-10 -50q-13 -66 -44 -93t-94 -27h-524q-156 0 -129 158l38 220q13 80 50 112
q36 30 117 30zM131 372l-12 -69h718l10 61q11 67 -10.5 93.5t-87.5 26.5h-488q-64 0 -92 -23q-27 -24 -38 -89z" />
    <glyph glyph-name="igrave" unicode="&#xec;" horiz-adv-x="208" 
d="M183 580h-50l-174 120h60zM78 0h-40l92 520h40z" />
    <glyph glyph-name="iacute" unicode="&#xed;" horiz-adv-x="208" 
d="M409 700l-218 -120h-58l208 120h68zM78 0h-40l92 520h40z" />
    <glyph glyph-name="icircumflex" unicode="&#xee;" horiz-adv-x="208" 
d="M21 580h-56l192 120h50l148 -120h-48l-126 92zM78 0h-40l92 520h40z" />
    <glyph glyph-name="idieresis" unicode="&#xef;" horiz-adv-x="208" 
d="M64 600h-40l10 60h40zM304 600h-40l10 60h40zM78 0h-40l92 520h40z" />
    <glyph glyph-name="eth" unicode="&#xf0;" horiz-adv-x="950" 
d="M624 700h149q88 0 128 -47.5t24 -136.5l-70 -396q-11 -65 -44 -92.5t-97 -27.5h-558q-63 0 -91.5 34.5t-17.5 97.5l28 156q12 65 44.5 92.5t96.5 27.5h544q74 0 99 -39l26 149q13 76 -15.5 111t-104.5 35h-187l-112 -88h-58l112 88h-299l6 36h339l76 60h58zM816 124
l27 156q9 50 -10 71t-71 21h-544q-49 0 -72.5 -19.5t-31.5 -68.5l-26 -150q-18 -98 80 -98h544q49 0 72.5 19.5t31.5 68.5z" />
    <glyph glyph-name="ntilde" unicode="&#xf1;" horiz-adv-x="956" 
d="M392 646l-12 -66h-36l13 71q5 27 18 38t40 11h56q24 0 35.5 -4t26.5 -19l51 -50q16 -14 37 -14h52q21 0 25 21l12 66h36l-13 -71q-5 -27 -18 -38t-40 -11h-56q-24 0 -35.5 4t-26.5 19l-51 50q-16 14 -37 14h-52q-21 0 -25 -21zM406 520h358q79 0 113 -41t20 -121
l-63 -358h-40l63 358q12 67 -12.5 96.5t-91.5 29.5h-358q-110 0 -187 -47l-64 -40l-70 -397h-40l92 520h30l-7 -79l44 27q51 32 97 43q44 9 116 9z" />
    <glyph glyph-name="ograve" unicode="&#xf2;" horiz-adv-x="950" 
d="M554 580h-50l-174 120h60zM694 0h-508q-79 0 -113 41t-20 121l38 218q13 80 49 111q35 29 116 29h508q79 0 113 -41t20 -121l-38 -218q-13 -81 -49 -110q-34 -30 -116 -30zM197 36h494q67 0 92 22q27 24 37 88l37 212q12 67 -12.5 96.5t-91.5 29.5h-494q-67 0 -92 -22
q-27 -24 -37 -88l-37 -212q-12 -67 12.5 -96.5t91.5 -29.5z" />
    <glyph glyph-name="oacute" unicode="&#xf3;" horiz-adv-x="950" 
d="M780 700l-218 -120h-58l208 120h68zM694 0h-508q-79 0 -113 41t-20 121l38 218q13 80 49 111q35 29 116 29h508q79 0 113 -41t20 -121l-38 -218q-13 -81 -49 -110q-34 -30 -116 -30zM197 36h494q67 0 92 22q27 24 37 88l37 212q12 67 -12.5 96.5t-91.5 29.5h-494
q-67 0 -92 -22q-27 -24 -37 -88l-37 -212q-12 -67 12.5 -96.5t91.5 -29.5z" />
    <glyph glyph-name="ocircumflex" unicode="&#xf4;" horiz-adv-x="950" 
d="M392 580h-56l192 120h50l148 -120h-48l-126 92zM694 0h-508q-79 0 -113 41t-20 121l38 218q13 80 49 111q35 29 116 29h508q79 0 113 -41t20 -121l-38 -218q-13 -81 -49 -110q-34 -30 -116 -30zM197 36h494q67 0 92 22q27 24 37 88l37 212q12 67 -12.5 96.5t-91.5 29.5
h-494q-67 0 -92 -22q-27 -24 -37 -88l-37 -212q-12 -67 12.5 -96.5t91.5 -29.5z" />
    <glyph glyph-name="otilde" unicode="&#xf5;" horiz-adv-x="950" 
d="M377 580h-36l13 71q5 27 18 38t40 11h56q24 0 35.5 -4t26.5 -19l51 -50q16 -14 37 -14h52q20 0 25 21l12 66h36l-13 -71q-5 -27 -18 -38t-40 -11h-56q-24 0 -35.5 4t-26.5 19l-51 50q-16 14 -37 14h-52q-20 0 -25 -21zM694 0h-508q-79 0 -113 41t-20 121l38 218
q13 80 49 111q35 29 116 29h508q79 0 113 -41t20 -121l-38 -218q-13 -81 -49 -110q-34 -30 -116 -30zM197 36h494q67 0 92 22q27 24 37 88l37 212q12 67 -12.5 96.5t-91.5 29.5h-494q-67 0 -92 -22q-27 -24 -37 -88l-37 -212q-12 -67 12.5 -96.5t91.5 -29.5z" />
    <glyph glyph-name="odieresis" unicode="&#xf6;" horiz-adv-x="950" 
d="M435 600h-40l10 60h40zM675 600h-40l10 60h40zM694 0h-508q-79 0 -113 41t-20 121l38 218q13 80 49 111q35 29 116 29h508q79 0 113 -41t20 -121l-38 -218q-13 -81 -49 -110q-34 -30 -116 -30zM197 36h494q67 0 92 22q27 24 37 88l37 212q12 67 -12.5 96.5t-91.5 29.5
h-494q-67 0 -92 -22q-27 -24 -37 -88l-37 -212q-12 -67 12.5 -96.5t91.5 -29.5z" />
    <glyph glyph-name="divide" unicode="&#xf7;" 
d="M599 560h-60l11 60h60zM93 332l6 36h872l-6 -36h-872zM514 80h-60l11 60h60z" />
    <glyph glyph-name="oslash" unicode="&#xf8;" horiz-adv-x="950" 
d="M963 560l-101 -67q51 -39 35 -135l-38 -218q-13 -81 -49 -110q-34 -30 -116 -30h-508q-37 0 -59 7l-72 -47h-68l101 67q-51 39 -35 135l38 218q13 80 49 111q35 29 116 29h508q37 0 59 -7l72 47h68zM130 374l-37 -212q-15 -85 31 -112l654 433q-5 1 -25 1h-494
q-67 0 -92 -22q-27 -24 -37 -88zM820 146l37 212q15 85 -31 112l-654 -433q5 -1 25 -1h494q67 0 92 22q27 24 37 88z" />
    <glyph glyph-name="ugrave" unicode="&#xf9;" horiz-adv-x="956" 
d="M393 700l164 -120h-50l-174 120h60zM882 520h40l-92 -520h-30l7 79l-44 -27q-53 -33 -96 -42q-41 -10 -117 -10h-358q-79 0 -113 41t-20 121l63 358h40l-63 -358q-12 -67 12.5 -96.5t91.5 -29.5h358q110 0 187 47l64 40z" />
    <glyph glyph-name="uacute" unicode="&#xfa;" horiz-adv-x="956" 
d="M715 700h68l-218 -120h-58zM882 520h40l-92 -520h-30l7 79l-44 -27q-53 -33 -96 -42q-41 -10 -117 -10h-358q-79 0 -113 41t-20 121l63 358h40l-63 -358q-12 -67 12.5 -96.5t91.5 -29.5h358q110 0 187 47l64 40z" />
    <glyph glyph-name="ucircumflex" unicode="&#xfb;" horiz-adv-x="956" 
d="M681 580l-126 92l-160 -92h-56l192 120h50l148 -120h-48zM882 520h40l-92 -520h-30l7 79l-44 -27q-53 -33 -96 -42q-41 -10 -117 -10h-358q-79 0 -113 41t-20 121l63 358h40l-63 -358q-12 -67 12.5 -96.5t91.5 -29.5h358q110 0 187 47l64 40z" />
    <glyph glyph-name="udieresis" unicode="&#xfc;" horiz-adv-x="956" 
d="M408 660h40l-10 -60h-40zM648 660h40l-10 -60h-40zM882 520h40l-92 -520h-30l7 79l-44 -27q-53 -33 -96 -42q-41 -10 -117 -10h-358q-79 0 -113 41t-20 121l63 358h40l-63 -358q-12 -67 12.5 -96.5t91.5 -29.5h358q110 0 187 47l64 40z" />
    <glyph glyph-name="yacute" unicode="&#xfd;" horiz-adv-x="898" 
d="M686 700h68l-218 -120h-58zM407 38l474 482h53l-545 -552q-76 -77 -128 -104q-49 -24 -146 -24h-129l6 36h141q73 0 114 19t100 81l33 34l-324 510h47z" />
    <glyph glyph-name="thorn" unicode="&#xfe;" horiz-adv-x="960" 
d="M410 520h368q159 0 130 -158l-39 -220q-13 -81 -50 -111q-35 -31 -117 -31h-376q-78 0 -119 10q-43 9 -84 42l-34 28l-43 -240h-40l152 860h40l-46 -260l45 28q51 32 97 43q44 9 116 9zM829 144l38 216q12 67 -11 95.5t-90 28.5h-370q-109 0 -188 -49l-64 -40l-48 -274
l50 -40q56 -45 179 -45h378q65 0 90 22q25 21 36 86z" />
    <glyph glyph-name="ydieresis" unicode="&#xff;" horiz-adv-x="898" 
d="M379 660h40l-10 -60h-40zM619 660h40l-10 -60h-40zM407 38l474 482h53l-545 -552q-76 -77 -128 -104q-49 -24 -146 -24h-129l6 36h141q73 0 114 19t100 81l33 34l-324 510h47z" />
    <glyph glyph-name="Amacron" unicode="&#x100;" horiz-adv-x="1072" 
d="M419 840h440l-6 -36h-440zM633 700l393 -700h-42l-117 208v-1h-678l-189 -207h-46l641 700h38zM609 666l-387 -423h625z" />
    <glyph glyph-name="amacron" unicode="&#x101;" horiz-adv-x="946" 
d="M334 660h440l-6 -36h-440zM258 520h500q159 0 130 -158l-64 -362h-30l7 82l-60 -36q-52 -30 -85 -37q-36 -9 -100 -9h-404q-60 0 -88 34t-17 94l9 48q12 62 41 87t90 25h648l13 74q12 68 -10.5 95t-90.5 27h-488q-49 0 -71 -18.5t-30 -67.5l-6 -34h-40l7 38
q12 65 43.5 91.5t95.5 26.5zM730 79l76 46l17 95l6 32h-640q-46 0 -67 -17.5t-28 -62.5l-7 -44q-8 -49 10 -70.5t66 -21.5h408q89 0 159 43z" />
    <glyph glyph-name="Abreve" unicode="&#x102;" horiz-adv-x="1072" 
d="M759 760h-268q-35 0 -51 19.5t-9 53.5l9 47h38l-9 -47q-7 -37 31 -37h261q36 0 42 36l9 48h38l-9 -51q-7 -37 -25.5 -53t-56.5 -16zM633 700l393 -700h-42l-117 208v-1h-678l-189 -207h-46l641 700h38zM609 666l-387 -423h625z" />
    <glyph glyph-name="abreve" unicode="&#x103;" horiz-adv-x="946" 
d="M674 580h-268q-35 0 -51 19.5t-9 53.5l9 47h38l-9 -47q-7 -37 31 -37h261q36 0 42 36l9 48h38l-9 -51q-7 -37 -25.5 -53t-56.5 -16zM258 520h500q159 0 130 -158l-64 -362h-30l7 82l-60 -36q-52 -30 -85 -37q-36 -9 -100 -9h-404q-60 0 -88 34t-17 94l9 48q12 62 41 87
t90 25h648l13 74q12 68 -10.5 95t-90.5 27h-488q-49 0 -71 -18.5t-30 -67.5l-6 -34h-40l7 38q12 65 43.5 91.5t95.5 26.5zM730 79l76 46l17 95l6 32h-640q-46 0 -67 -17.5t-28 -62.5l-7 -44q-8 -49 10 -70.5t66 -21.5h408q89 0 159 43z" />
    <glyph glyph-name="Aogonek" unicode="&#x104;" horiz-adv-x="1072" 
d="M905 -126h147l-6 -34h-151q-40 0 -55 18.5t-10 59.5l2 15q4 28 16.5 42t45.5 25l77 24l-104 184v-1h-678l-189 -207h-46l641 700h38l393 -700h-32l-86 -27q-21 -7 -28 -13.5t-9 -22.5l-3 -19q-4 -24 4.5 -34t32.5 -10zM609 666l-387 -423h625z" />
    <glyph glyph-name="aogonek" unicode="&#x105;" horiz-adv-x="946" 
d="M702 -63l-3 -19q-4 -24 4.5 -34t32.5 -10h127l-6 -34h-131q-40 0 -55 18.5t-10 59.5l2 15q4 27 16.5 40.5t45.5 26.5l72 28l4 54l-60 -36q-52 -30 -85 -37q-36 -9 -100 -9h-404q-60 0 -88 34t-17 94l9 48q12 62 41 87t90 25h648l13 74q12 68 -10.5 95t-90.5 27h-488
q-49 0 -71 -18.5t-30 -67.5l-6 -34h-40l7 38q12 65 43.5 91.5t95.5 26.5h500q159 0 130 -158l-64 -362h-16l-69 -27q-22 -8 -28.5 -14.5t-8.5 -21.5zM730 79l76 46l17 95l6 32h-640q-46 0 -67 -17.5t-28 -62.5l-7 -44q-8 -49 10 -70.5t66 -21.5h408q89 0 159 43z" />
    <glyph glyph-name="Cacute" unicode="&#x106;" horiz-adv-x="1066" 
d="M870 880l-218 -120h-58l208 120h68zM794 0h-590q-87 0 -125.5 46.5t-22.5 133.5l64 360q16 89 58 124.5t130 35.5h590q87 0 125.5 -46.5t22.5 -133.5l-9 -50h-41l9 50q13 74 -15.5 109t-102.5 35h-574q-74 0 -107.5 -29t-46.5 -103l-62 -352q-13 -74 15.5 -109t102.5 -35
h574q73 0 107 29t47 103l13 72h40l-14 -80q-16 -89 -58 -124.5t-130 -35.5z" />
    <glyph glyph-name="cacute" unicode="&#x107;" horiz-adv-x="930" 
d="M770 700l-218 -120h-58l208 120h68zM674 0h-488q-79 0 -113 41t-20 121l38 218q13 80 49 111q35 29 116 29h488q156 0 133 -162l-3 -21h-40l3 21q10 68 -14 97t-90 29h-474q-67 0 -92 -22q-27 -24 -37 -88l-37 -212q-12 -67 12.5 -96.5t91.5 -29.5h474q67 0 92 22
q27 24 37 88l8 47h40l-9 -53q-13 -81 -49 -110q-34 -30 -116 -30z" />
    <glyph glyph-name="Ccircumflex" unicode="&#x108;" horiz-adv-x="1066" 
d="M482 760h-56l192 120h50l148 -120h-48l-126 92zM794 0h-590q-87 0 -125.5 46.5t-22.5 133.5l64 360q16 89 58 124.5t130 35.5h590q87 0 125.5 -46.5t22.5 -133.5l-9 -50h-41l9 50q13 74 -15.5 109t-102.5 35h-574q-74 0 -107.5 -29t-46.5 -103l-62 -352
q-13 -74 15.5 -109t102.5 -35h574q73 0 107 29t47 103l13 72h40l-14 -80q-16 -89 -58 -124.5t-130 -35.5z" />
    <glyph glyph-name="ccircumflex" unicode="&#x109;" horiz-adv-x="930" 
d="M382 580h-56l192 120h50l148 -120h-48l-126 92zM674 0h-488q-79 0 -113 41t-20 121l38 218q13 80 49 111q35 29 116 29h488q156 0 133 -162l-3 -21h-40l3 21q10 68 -14 97t-90 29h-474q-67 0 -92 -22q-27 -24 -37 -88l-37 -212q-12 -67 12.5 -96.5t91.5 -29.5h474
q67 0 92 22q27 24 37 88l8 47h40l-9 -53q-13 -81 -49 -110q-34 -30 -116 -30z" />
    <glyph glyph-name="Cdotaccent" unicode="&#x10a;" horiz-adv-x="1066" 
d="M645 780h-40l10 60h40zM794 0h-590q-87 0 -125.5 46.5t-22.5 133.5l64 360q16 89 58 124.5t130 35.5h590q87 0 125.5 -46.5t22.5 -133.5l-9 -50h-41l9 50q13 74 -15.5 109t-102.5 35h-574q-74 0 -107.5 -29t-46.5 -103l-62 -352q-13 -74 15.5 -109t102.5 -35h574
q73 0 107 29t47 103l13 72h40l-14 -80q-16 -89 -58 -124.5t-130 -35.5z" />
    <glyph glyph-name="cdotaccent" unicode="&#x10b;" horiz-adv-x="930" 
d="M545 600h-40l10 60h40zM674 0h-488q-79 0 -113 41t-20 121l38 218q13 80 49 111q35 29 116 29h488q156 0 133 -162l-3 -21h-40l3 21q10 68 -14 97t-90 29h-474q-67 0 -92 -22q-27 -24 -37 -88l-37 -212q-12 -67 12.5 -96.5t91.5 -29.5h474q67 0 92 22q27 24 37 88l8 47
h40l-9 -53q-13 -81 -49 -110q-34 -30 -116 -30z" />
    <glyph glyph-name="Ccaron" unicode="&#x10c;" horiz-adv-x="1066" 
d="M781 880h56l-192 -120h-50l-148 120h48l126 -92zM794 0h-590q-87 0 -125.5 46.5t-22.5 133.5l64 360q16 89 58 124.5t130 35.5h590q87 0 125.5 -46.5t22.5 -133.5l-9 -50h-41l9 50q13 74 -15.5 109t-102.5 35h-574q-74 0 -107.5 -29t-46.5 -103l-62 -352
q-13 -74 15.5 -109t102.5 -35h574q73 0 107 29t47 103l13 72h40l-14 -80q-16 -89 -58 -124.5t-130 -35.5z" />
    <glyph glyph-name="ccaron" unicode="&#x10d;" horiz-adv-x="930" 
d="M681 700h56l-192 -120h-50l-148 120h48l126 -92zM674 0h-488q-79 0 -113 41t-20 121l38 218q13 80 49 111q35 29 116 29h488q156 0 133 -162l-3 -21h-40l3 21q10 68 -14 97t-90 29h-474q-67 0 -92 -22q-27 -24 -37 -88l-37 -212q-12 -67 12.5 -96.5t91.5 -29.5h474
q67 0 92 22q27 24 37 88l8 47h40l-9 -53q-13 -81 -49 -110q-34 -30 -116 -30z" />
    <glyph glyph-name="Dcaron" unicode="&#x10e;" horiz-adv-x="1090" 
d="M793 880h56l-192 -120h-50l-148 120h48l126 -92zM778 0h-744l124 700h716q102 0 152.5 -61t31.5 -163l-50 -280q-19 -105 -72.5 -150.5t-157.5 -45.5zM191 664l-110 -628h694q88 0 133.5 38.5t61.5 127.5l48 276q16 90 -23.5 138t-129.5 48h-674z" />
    <glyph glyph-name="dcaron" unicode="&#x10f;" horiz-adv-x="1010" 
d="M837 468l35 -28l46 260h40l-124 -700h-30l7 82l-48 -30q-53 -33 -96 -42q-41 -10 -117 -10h-368q-159 0 -130 158l39 220q13 80 50 112q36 30 117 30h376q76 0 119 -9q44 -11 84 -43zM997 640l10 60h60l-6 -35q-5 -21 -16 -40l-40 -65h-30l45 80h-23zM752 85l64 40
l48 274l-50 40q-56 45 -179 45h-378q-65 0 -90 -21q-25 -23 -36 -87l-38 -216q-12 -67 11 -95.5t90 -28.5h370q109 0 188 49z" />
    <glyph glyph-name="Dcroat" unicode="&#x110;" horiz-adv-x="1150" 
d="M218 700h716q102 0 152.5 -61t31.5 -163l-50 -280q-19 -105 -72.5 -150.5t-157.5 -45.5h-744l59 332h-100l6 36h100zM1030 202l48 276q16 90 -23.5 138t-129.5 48h-674l-52 -296h480l-6 -36h-480l-52 -296h694q88 0 133.5 38.5t61.5 127.5z" />
    <glyph glyph-name="dslash" unicode="&#x111;" horiz-adv-x="1000" 
d="M945 626h89l-6 -36h-89l-105 -590h-30l7 82l-48 -30q-53 -33 -96 -42q-41 -10 -117 -10h-368q-159 0 -130 158l39 220q13 80 50 112q36 30 117 30h376q76 0 119 -9q44 -11 84 -43l35 -28l27 150h-381l6 36h381l13 74h40zM752 85l64 40l48 274l-50 40q-56 45 -179 45h-378
q-65 0 -90 -21q-25 -23 -36 -87l-38 -216q-12 -67 11 -95.5t90 -28.5h370q109 0 188 49z" />
    <glyph glyph-name="Emacron" unicode="&#x112;" horiz-adv-x="970" 
d="M368 840h440l-6 -36h-440zM998 700l-7 -36h-799l-49 -276h760l-7 -36h-760l-56 -316h811l-7 -36h-850l124 700h840z" />
    <glyph glyph-name="emacron" unicode="&#x113;" horiz-adv-x="940" 
d="M321 660h440l-6 -36h-440zM258 520h500q79 0 110.5 -38t18.5 -118l-16 -97h-758l-20 -111q-12 -67 9.5 -93.5t88.5 -26.5h512q48 0 70 19.5t32 68.5l9 46h40l-10 -50q-13 -66 -44 -93t-94 -27h-524q-156 0 -129 158l38 220q13 80 50 112q36 30 117 30zM131 372l-12 -69
h718l10 61q11 67 -10.5 93.5t-87.5 26.5h-488q-64 0 -92 -23q-27 -24 -38 -89z" />
    <glyph glyph-name="Ebreve" unicode="&#x114;" horiz-adv-x="970" 
d="M708 760h-268q-35 0 -51 19.5t-9 53.5l9 47h38l-9 -47q-7 -37 31 -37h261q36 0 42 36l9 48h38l-9 -51q-7 -37 -25.5 -53t-56.5 -16zM998 700l-7 -36h-799l-49 -276h760l-7 -36h-760l-56 -316h811l-7 -36h-850l124 700h840z" />
    <glyph glyph-name="ebreve" unicode="&#x115;" horiz-adv-x="940" 
d="M661 580h-268q-35 0 -51 19.5t-9 53.5l9 47h38l-9 -47q-7 -37 31 -37h261q36 0 42 36l9 48h38l-9 -51q-7 -37 -25.5 -53t-56.5 -16zM258 520h500q79 0 110.5 -38t18.5 -118l-16 -97h-758l-20 -111q-12 -67 9.5 -93.5t88.5 -26.5h512q48 0 70 19.5t32 68.5l9 46h40
l-10 -50q-13 -66 -44 -93t-94 -27h-524q-156 0 -129 158l38 220q13 80 50 112q36 30 117 30zM131 372l-12 -69h718l10 61q11 67 -10.5 93.5t-87.5 26.5h-488q-64 0 -92 -23q-27 -24 -38 -89z" />
    <glyph glyph-name="Edotaccent" unicode="&#x116;" horiz-adv-x="970" 
d="M567 840h40l-10 -60h-40zM998 700l-7 -36h-799l-49 -276h760l-7 -36h-760l-56 -316h811l-7 -36h-850l124 700h840z" />
    <glyph glyph-name="edotaccent" unicode="&#x117;" horiz-adv-x="940" 
d="M520 660h40l-10 -60h-40zM258 520h500q79 0 110.5 -38t18.5 -118l-16 -97h-758l-20 -111q-12 -67 9.5 -93.5t88.5 -26.5h512q48 0 70 19.5t32 68.5l9 46h40l-10 -50q-13 -66 -44 -93t-94 -27h-524q-156 0 -129 158l38 220q13 80 50 112q36 30 117 30zM131 372l-12 -69
h718l10 61q11 67 -10.5 93.5t-87.5 26.5h-488q-64 0 -92 -23q-27 -24 -38 -89z" />
    <glyph glyph-name="Eogonek" unicode="&#x118;" horiz-adv-x="970" 
d="M998 700l-7 -36h-799l-49 -276h760l-7 -36h-760l-56 -316h811l-7 -36h-80l-86 -27q-21 -7 -28 -13.5t-9 -22.5l-3 -19q-4 -24 4.5 -34t32.5 -10h147l-6 -34h-151q-40 0 -55 18.5t-10 59.5l2 15q4 28 16.5 42t45.5 25h-670l124 700h840z" />
    <glyph glyph-name="eogonek" unicode="&#x119;" horiz-adv-x="940" 
d="M258 520h500q79 0 110.5 -38t18.5 -118l-16 -97h-758l-20 -111q-12 -67 9.5 -93.5t88.5 -26.5h512q48 0 70 19.5t32 68.5l9 46h40l-10 -50q-13 -66 -44 -93t-94 -27h-161l-86 -27q-21 -7 -28 -13.5t-9 -22.5l-3 -19q-4 -24 4.5 -34t32.5 -10h147l-6 -34h-151
q-40 0 -55 18.5t-10 59.5l2 15q4 28 16.5 42t45.5 25h-263q-156 0 -129 158l38 220q13 80 50 112q36 30 117 30zM131 372l-12 -69h718l10 61q11 67 -10.5 93.5t-87.5 26.5h-488q-64 0 -92 -23q-27 -24 -38 -89z" />
    <glyph glyph-name="Ecaron" unicode="&#x11a;" horiz-adv-x="970" 
d="M789 880l-192 -120h-50l-148 120h48l126 -92l160 92h56zM998 700l-7 -36h-799l-49 -276h760l-7 -36h-760l-56 -316h811l-7 -36h-850l124 700h840z" />
    <glyph glyph-name="ecaron" unicode="&#x11b;" horiz-adv-x="940" 
d="M742 700l-192 -120h-50l-148 120h48l126 -92l160 92h56zM258 520h500q79 0 110.5 -38t18.5 -118l-16 -97h-758l-20 -111q-12 -67 9.5 -93.5t88.5 -26.5h512q48 0 70 19.5t32 68.5l9 46h40l-10 -50q-13 -66 -44 -93t-94 -27h-524q-156 0 -129 158l38 220q13 80 50 112
q36 30 117 30zM131 372l-12 -69h718l10 61q11 67 -10.5 93.5t-87.5 26.5h-488q-64 0 -92 -23q-27 -24 -38 -89z" />
    <glyph glyph-name="Gcircumflex" unicode="&#x11c;" horiz-adv-x="1090" 
d="M494 760h-56l192 120h50l148 -120h-48l-126 92zM814 0h-610q-87 0 -125.5 46.5t-22.5 133.5l64 360q16 89 58 124.5t130 35.5h610q87 0 125.5 -46.5t22.5 -133.5l-4 -22h-41l4 22q13 74 -15.5 109t-102.5 35h-594q-74 0 -107.5 -29t-46.5 -103l-62 -352
q-13 -74 15.5 -109t102.5 -35h594q73 0 107 29t47 103l25 140h-401l6 36h442l-33 -184q-16 -89 -58 -124.5t-130 -35.5z" />
    <glyph glyph-name="gcircumflex" unicode="&#x11d;" horiz-adv-x="960" 
d="M683 580l-126 92l-160 -92h-56l192 120h50l148 -120h-48zM874 438l22 82h30l-90 -510q-16 -89 -64 -129.5t-136 -40.5h-620l6 36h614q74 0 110 30.5t50 105.5l18 100l-45 -28q-53 -33 -96 -42q-41 -10 -117 -10h-368q-159 0 -130 158l33 188q13 80 50 112q36 30 117 30
h376q76 0 119 -9q44 -11 84 -43zM758 117l64 40l5 28l37 214l-50 40q-56 45 -179 45h-378q-65 0 -90 -21q-25 -23 -36 -87l-32 -184q-11 -67 12 -95.5t89 -28.5h370q109 0 188 49z" />
    <glyph glyph-name="Gbreve" unicode="&#x11e;" horiz-adv-x="1090" 
d="M768 760h-268q-35 0 -51 19.5t-9 53.5l9 47h38l-9 -47q-7 -37 31 -37h261q36 0 42 36l9 48h38l-9 -51q-7 -37 -25.5 -53t-56.5 -16zM814 0h-610q-87 0 -125.5 46.5t-22.5 133.5l64 360q16 89 58 124.5t130 35.5h610q87 0 125.5 -46.5t22.5 -133.5l-4 -22h-41l4 22
q13 74 -15.5 109t-102.5 35h-594q-74 0 -107.5 -29t-46.5 -103l-62 -352q-13 -74 15.5 -109t102.5 -35h594q73 0 107 29t47 103l25 140h-401l6 36h442l-33 -184q-16 -89 -58 -124.5t-130 -35.5z" />
    <glyph glyph-name="gbreve" unicode="&#x11f;" horiz-adv-x="960" 
d="M671 580h-268q-35 0 -51 19.5t-9 53.5l9 47h38l-9 -47q-7 -37 31 -37h261q36 0 42 36l9 48h38l-9 -51q-7 -37 -25.5 -53t-56.5 -16zM874 438l22 82h30l-90 -510q-16 -89 -64 -129.5t-136 -40.5h-620l6 36h614q74 0 110 30.5t50 105.5l18 100l-45 -28q-53 -33 -96 -42
q-41 -10 -117 -10h-368q-159 0 -130 158l33 188q13 80 50 112q36 30 117 30h376q76 0 119 -9q44 -11 84 -43zM758 117l64 40l5 28l37 214l-50 40q-56 45 -179 45h-378q-65 0 -90 -21q-25 -23 -36 -87l-32 -184q-11 -67 12 -95.5t89 -28.5h370q109 0 188 49z" />
    <glyph glyph-name="Gdotaccent" unicode="&#x120;" horiz-adv-x="1090" 
d="M657 780h-40l10 60h40zM814 0h-610q-87 0 -125.5 46.5t-22.5 133.5l64 360q16 89 58 124.5t130 35.5h610q87 0 125.5 -46.5t22.5 -133.5l-4 -22h-41l4 22q13 74 -15.5 109t-102.5 35h-594q-74 0 -107.5 -29t-46.5 -103l-62 -352q-13 -74 15.5 -109t102.5 -35h594
q73 0 107 29t47 103l25 140h-401l6 36h442l-33 -184q-16 -89 -58 -124.5t-130 -35.5z" />
    <glyph glyph-name="gdotaccent" unicode="&#x121;" horiz-adv-x="960" 
d="M530 660h40l-10 -60h-40zM874 438l22 82h30l-90 -510q-16 -89 -64 -129.5t-136 -40.5h-620l6 36h614q74 0 110 30.5t50 105.5l18 100l-45 -28q-53 -33 -96 -42q-41 -10 -117 -10h-368q-159 0 -130 158l33 188q13 80 50 112q36 30 117 30h376q76 0 119 -9q44 -11 84 -43z
M758 117l64 40l5 28l37 214l-50 40q-56 45 -179 45h-378q-65 0 -90 -21q-25 -23 -36 -87l-32 -184q-11 -67 12 -95.5t89 -28.5h370q109 0 188 49z" />
    <glyph glyph-name="Gcommaaccent" unicode="&#x122;" horiz-adv-x="1090" 
d="M814 0h-610q-87 0 -125.5 46.5t-22.5 133.5l64 360q16 89 58 124.5t130 35.5h610q87 0 125.5 -46.5t22.5 -133.5l-4 -22h-41l4 22q13 74 -15.5 109t-102.5 35h-594q-74 0 -107.5 -29t-46.5 -103l-62 -352q-13 -74 15.5 -109t102.5 -35h594q73 0 107 29t47 103l25 140
h-401l6 36h442l-33 -184q-16 -89 -58 -124.5t-130 -35.5zM467 -160h-30l43 70h-23l10 60h60l-6 -35q-3 -17 -17 -39z" />
    <glyph glyph-name="gcommaaccent" unicode="&#x123;" horiz-adv-x="960" 
d="M550 640h23l-10 -60h-60l6 35q3 17 17 39l37 56h30zM874 438l22 82h30l-90 -510q-16 -89 -64 -129.5t-136 -40.5h-620l6 36h614q74 0 110 30.5t50 105.5l18 100l-45 -28q-53 -33 -96 -42q-41 -10 -117 -10h-368q-159 0 -130 158l33 188q13 80 50 112q36 30 117 30h376
q76 0 119 -9q44 -11 84 -43zM758 117l64 40l5 28l37 214l-50 40q-56 45 -179 45h-378q-65 0 -90 -21q-25 -23 -36 -87l-32 -184q-11 -67 12 -95.5t89 -28.5h370q109 0 188 49z" />
    <glyph glyph-name="Hcircumflex" unicode="&#x124;" horiz-adv-x="1080" 
d="M775 760l-126 92l-160 -92h-56l192 120h50l148 -120h-48zM983 388l55 312h40l-124 -700h-40l62 352h-840l-62 -352h-40l124 700h40l-55 -312h840z" />
    <glyph glyph-name="hcircumflex" unicode="&#x125;" horiz-adv-x="956" 
d="M335 760l-126 92l-160 -92h-56l192 120h50l148 -120h-48zM406 520h358q79 0 113 -41t20 -121l-63 -358h-40l63 358q12 67 -12 96.5t-91 29.5h-358q-111 0 -188 -47l-64 -40l-70 -397h-40l124 700h40l-46 -257l41 25q51 32 97 43q44 9 116 9z" />
    <glyph glyph-name="Hbar" unicode="&#x126;" horiz-adv-x="1200" 
d="M1115 568h99l-6 -36h-100l-94 -532h-40l62 352h-840l-62 -352h-40l94 532h-100l6 36h101l23 132h40l-23 -132h840l23 132h40zM203 388h840l25 144h-840z" />
    <glyph glyph-name="hbar" unicode="&#x127;" horiz-adv-x="996" 
d="M456 520h358q79 0 113 -41t20 -121l-63 -358h-40l63 358q12 67 -12 96.5t-91 29.5h-358q-111 0 -188 -47l-64 -40l-70 -397h-40l105 590h-100l6 36h100l13 74h40l-13 -74h370l-6 -36h-370l-27 -147l41 25q51 32 97 43q43 9 116 9z" />
    <glyph glyph-name="Itilde" unicode="&#x128;" horiz-adv-x="212" 
d="M40 760h-36l13 71q5 27 18 38t40 11h56q24 0 35.5 -4t26.5 -19l51 -50q16 -14 37 -14h52q21 0 25 21l12 66h36l-13 -71q-5 -27 -18 -38t-40 -11h-56q-24 0 -35.5 4t-26.5 19l-51 50q-16 14 -37 14h-52q-21 0 -25 -21zM40 0l124 700h40l-124 -700h-40z" />
    <glyph glyph-name="itilde" unicode="&#x129;" horiz-adv-x="208" 
d="M6 580h-36l13 71q5 27 18 38t40 11h56q24 0 35.5 -4t26.5 -19l51 -50q16 -14 37 -14h52q21 0 25 21l12 66h36l-13 -71q-5 -27 -18 -38t-40 -11h-56q-24 0 -35.5 4t-26.5 19l-51 50q-16 14 -37 14h-52q-21 0 -25 -21zM78 0h-40l92 520h40z" />
    <glyph glyph-name="Imacron" unicode="&#x12a;" horiz-adv-x="212" 
d="M423 804h-440l6 36h440zM40 0l124 700h40l-124 -700h-40z" />
    <glyph glyph-name="imacron" unicode="&#x12b;" horiz-adv-x="208" 
d="M389 624h-440l6 36h440zM78 0h-40l92 520h40z" />
    <glyph glyph-name="Ibreve" unicode="&#x12c;" horiz-adv-x="212" 
d="M329 760h-268q-35 0 -51 19.5t-9 53.5l9 47h38l-9 -47q-7 -37 31 -37h261q36 0 42 36l9 48h38l-9 -51q-7 -37 -25.5 -53t-56.5 -16zM40 0l124 700h40l-124 -700h-40z" />
    <glyph glyph-name="ibreve" unicode="&#x12d;" horiz-adv-x="208" 
d="M295 580h-268q-35 0 -51 19.5t-9 53.5l9 47h38l-9 -47q-7 -37 31 -37h261q36 0 42 36l9 48h38l-9 -51q-7 -37 -25.5 -53t-56.5 -16zM78 0h-40l92 520h40z" />
    <glyph glyph-name="Iogonek" unicode="&#x12e;" horiz-adv-x="212" 
d="M-63 -63l-3 -19q-4 -24 4.5 -34t32.5 -10h147l-6 -34h-151q-40 0 -55 18.5t-10 59.5l2 15q4 28 16.5 42t45.5 25l85 26l119 674h40l-124 -700h-20l-86 -27q-21 -7 -28 -13.5t-9 -22.5z" />
    <glyph glyph-name="iogonek" unicode="&#x12f;" horiz-adv-x="208" 
d="M144 600l10 60h40l-10 -60h-40zM-65 -63l-3 -19q-4 -24 4.5 -34t32.5 -10h147l-6 -34h-151q-40 0 -55 18.5t-10 59.5l2 15q4 28 16.5 42t45.5 25l85 26l87 494h40l-92 -520h-20l-86 -27q-21 -7 -28 -13.5t-9 -22.5z" />
    <glyph glyph-name="Idot" unicode="&#x130;" horiz-adv-x="212" 
d="M218 780h-40l10 60h40zM40 0l124 700h40l-124 -700h-40z" />
    <glyph glyph-name="dotlessi" unicode="&#x131;" horiz-adv-x="208" 
d="M78 0h-40l92 520h40z" />
    <glyph glyph-name="IJ" unicode="&#x132;" horiz-adv-x="1182" 
d="M40 0l124 700h40l-124 -700h-40zM906 0h-520q-87 0 -125.5 46.5t-22.5 133.5l11 60h40l-11 -60q-13 -74 16 -109t103 -35h504q74 0 107.5 28.5t47.5 103.5l94 532h40l-96 -540q-16 -89 -58 -124.5t-130 -35.5z" />
    <glyph glyph-name="ij" unicode="&#x133;" horiz-adv-x="416" 
d="M191 640h-40l11 60h40zM399 640h-40l11 60h40zM140 -160h-230l7 36h222q50 0 71 18t30 68l98 558h40l-99 -562q-11 -65 -43 -91.5t-96 -26.5zM78 0h-40l92 520h40z" />
    <glyph glyph-name="Jcircumflex" unicode="&#x134;" horiz-adv-x="970" 
d="M829 760h-56l192 120h50l148 -120h-48l-126 92zM694 0h-520q-87 0 -125.5 46.5t-22.5 133.5l11 60h40l-11 -60q-13 -74 16 -109t103 -35h504q74 0 107.5 28.5t47.5 103.5l94 532h40l-96 -540q-16 -89 -58 -124.5t-130 -35.5z" />
    <glyph glyph-name="jcircumflex" unicode="&#x135;" horiz-adv-x="308" 
d="M121 580h-56l192 120h50l148 -120h-48l-126 92zM32 -160h-230l7 36h222q50 0 71 18t30 68l98 558h40l-99 -562q-11 -65 -43 -91.5t-96 -26.5z" />
    <glyph glyph-name="Kcommaaccent" unicode="&#x136;" horiz-adv-x="956" 
d="M921 700h99l-818 -344l698 -356h-89l-675 350l-62 -350h-40l124 700h40l-59 -332zM393 -90h-23l10 60h60l-6 -35q-3 -17 -17 -39l-37 -56h-30z" />
    <glyph glyph-name="kcommaaccent" unicode="&#x137;" horiz-adv-x="834" 
d="M778 520h108l-688 -261l600 -259h-98l-581 252l-45 -252h-40l124 700h40l-76 -432zM332 -90h-23l10 60h60l-6 -35q-3 -17 -17 -39l-37 -56h-30z" />
    <glyph glyph-name="Lacute" unicode="&#x139;" horiz-adv-x="900" 
d="M369 880h68l-218 -120h-58zM198 700l-118 -664h761l-7 -36h-800l124 700h40z" />
    <glyph glyph-name="lacute" unicode="&#x13a;" horiz-adv-x="208" 
d="M441 880l-218 -120h-58l208 120h68zM78 0h-40l124 700h40z" />
    <glyph glyph-name="Lcommaaccent" unicode="&#x13b;" horiz-adv-x="900" 
d="M198 700l-118 -664h761l-7 -36h-800l124 700h40zM385 -90h-23l10 60h60l-6 -35q-3 -17 -17 -39l-37 -56h-30z" />
    <glyph glyph-name="lcommaaccent" unicode="&#x13c;" horiz-adv-x="208" 
d="M78 0h-40l124 700h40zM26 -160h-30l43 70h-23l10 60h60l-6 -35q-3 -17 -17 -39z" />
    <glyph glyph-name="Lcaron" unicode="&#x13d;" horiz-adv-x="900" 
d="M198 700l-118 -664h761l-7 -36h-800l124 700h40zM486 625l-40 -65h-30l45 80h-23l10 60h60l-6 -35q-5 -21 -16 -40z" />
    <glyph glyph-name="lcaron" unicode="&#x13e;" horiz-adv-x="264" 
d="M78 0h-40l124 700h40zM259 560h-30l45 80h-23l10 60h60l-6 -35q-5 -21 -16 -40z" />
    <glyph glyph-name="Ldot" unicode="&#x13f;" horiz-adv-x="900" 
d="M198 700l-118 -664h761l-7 -36h-800l124 700h40zM465 430h60l-11 -60h-60z" />
    <glyph glyph-name="ldot" unicode="&#x140;" horiz-adv-x="289" 
d="M78 0h-40l124 700h40zM284 350h-60l11 60h60z" />
    <glyph glyph-name="Lslash" unicode="&#x141;" horiz-adv-x="960" 
d="M197 354l-57 -318h761l-7 -36h-800l62 347l-103 -15l6 36l103 15l56 317h40l-55 -310l524 78l-6 -36z" />
    <glyph glyph-name="lslash" unicode="&#x142;" horiz-adv-x="300" 
d="M192 383l104 25l-6 -36l-105 -25l-61 -347h-40l60 337l-104 -25l6 36l104 25l58 327h40z" />
    <glyph glyph-name="Nacute" unicode="&#x143;" horiz-adv-x="1100" 
d="M819 880h68l-218 -120h-58zM943 51l115 649h40l-124 -700h-30l-755 652l-115 -652h-40l124 700h34z" />
    <glyph glyph-name="nacute" unicode="&#x144;" horiz-adv-x="956" 
d="M715 700h68l-218 -120h-58zM406 520h358q79 0 113 -41t20 -121l-63 -358h-40l63 358q12 67 -12.5 96.5t-91.5 29.5h-358q-110 0 -187 -47l-64 -40l-70 -397h-40l92 520h30l-7 -79l44 27q51 32 97 43q44 9 116 9z" />
    <glyph glyph-name="Ncommaaccent" unicode="&#x145;" horiz-adv-x="1100" 
d="M943 51l115 649h40l-124 -700h-30l-755 652l-115 -652h-40l124 700h34zM485 -90h-23l10 60h60l-6 -35q-3 -17 -17 -39l-37 -56h-30z" />
    <glyph glyph-name="ncommaaccent" unicode="&#x146;" horiz-adv-x="956" 
d="M406 520h358q79 0 113 -41t20 -121l-63 -358h-40l63 358q12 67 -12.5 96.5t-91.5 29.5h-358q-110 0 -187 -47l-64 -40l-70 -397h-40l92 520h30l-7 -79l44 27q51 32 97 43q44 9 116 9zM413 -90h-23l10 60h60l-6 -35q-3 -17 -17 -39l-37 -56h-30z" />
    <glyph glyph-name="Ncaron" unicode="&#x147;" horiz-adv-x="1100" 
d="M854 880l-192 -120h-50l-148 120h48l126 -92l160 92h56zM943 51l115 649h40l-124 -700h-30l-755 652l-115 -652h-40l124 700h34z" />
    <glyph glyph-name="ncaron" unicode="&#x148;" horiz-adv-x="956" 
d="M750 700l-192 -120h-50l-148 120h48l126 -92l160 92h56zM406 520h358q79 0 113 -41t20 -121l-63 -358h-40l63 358q12 67 -12.5 96.5t-91.5 29.5h-358q-110 0 -187 -47l-64 -40l-70 -397h-40l92 520h30l-7 -79l44 27q51 32 97 43q44 9 116 9z" />
    <glyph glyph-name="Eng" unicode="&#x14a;" horiz-adv-x="1100" 
d="M943 51l115 649h40l-125 -706q-15 -84 -56 -119t-125 -35h-166l7 36h158q68 0 99.5 27t43.5 95l2 9l-747 645l-115 -652h-40l124 700h34z" />
    <glyph glyph-name="eng" unicode="&#x14b;" horiz-adv-x="956" 
d="M406 520h358q79 0 113 -41t20 -121l-71 -400q-11 -65 -43 -91.5t-96 -26.5h-160l7 36h152q50 0 71 18t30 68l70 396q12 67 -12.5 96.5t-91.5 29.5h-358q-110 0 -187 -47l-64 -40l-70 -397h-40l92 520h30l-7 -79l44 27q51 32 97 43q44 9 116 9z" />
    <glyph glyph-name="Omacron" unicode="&#x14c;" horiz-adv-x="1090" 
d="M862 804h-440l6 36h440zM814 0h-610q-87 0 -125.5 46.5t-22.5 133.5l64 360q16 89 58 124.5t130 35.5h610q87 0 125.5 -46.5t22.5 -133.5l-64 -360q-16 -89 -58 -124.5t-130 -35.5zM215 36h594q74 0 107.5 29t46.5 103l62 352q13 74 -15.5 109t-102.5 35h-594
q-74 0 -107.5 -29t-46.5 -103l-62 -352q-13 -74 15.5 -109t102.5 -35z" />
    <glyph glyph-name="omacron" unicode="&#x14d;" horiz-adv-x="950" 
d="M760 624h-440l6 36h440zM694 0h-508q-79 0 -113 41t-20 121l38 218q13 80 49 111q35 29 116 29h508q79 0 113 -41t20 -121l-38 -218q-13 -81 -49 -110q-34 -30 -116 -30zM197 36h494q67 0 92 22q27 24 37 88l37 212q12 67 -12.5 96.5t-91.5 29.5h-494q-67 0 -92 -22
q-27 -24 -37 -88l-37 -212q-12 -67 12.5 -96.5t91.5 -29.5z" />
    <glyph glyph-name="Obreve" unicode="&#x14e;" horiz-adv-x="1090" 
d="M768 760h-268q-35 0 -51 19.5t-9 53.5l9 47h38l-9 -47q-7 -37 31 -37h261q36 0 42 36l9 48h38l-9 -51q-7 -37 -25.5 -53t-56.5 -16zM814 0h-610q-87 0 -125.5 46.5t-22.5 133.5l64 360q16 89 58 124.5t130 35.5h610q87 0 125.5 -46.5t22.5 -133.5l-64 -360
q-16 -89 -58 -124.5t-130 -35.5zM215 36h594q74 0 107.5 29t46.5 103l62 352q13 74 -15.5 109t-102.5 35h-594q-74 0 -107.5 -29t-46.5 -103l-62 -352q-13 -74 15.5 -109t102.5 -35z" />
    <glyph glyph-name="obreve" unicode="&#x14f;" horiz-adv-x="950" 
d="M666 580h-268q-35 0 -51 19.5t-9 53.5l9 47h38l-9 -47q-7 -37 31 -37h261q36 0 42 36l9 48h38l-9 -51q-7 -37 -25.5 -53t-56.5 -16zM694 0h-508q-79 0 -113 41t-20 121l38 218q13 80 49 111q35 29 116 29h508q79 0 113 -41t20 -121l-38 -218q-13 -81 -49 -110
q-34 -30 -116 -30zM197 36h494q67 0 92 22q27 24 37 88l37 212q12 67 -12.5 96.5t-91.5 29.5h-494q-67 0 -92 -22q-27 -24 -37 -88l-37 -212q-12 -67 12.5 -96.5t91.5 -29.5z" />
    <glyph glyph-name="Ohungarumlaut" unicode="&#x150;" horiz-adv-x="1090" 
d="M718 880l-172 -120h-52l162 120h62zM934 880l-172 -120h-52l162 120h62zM814 0h-610q-87 0 -125.5 46.5t-22.5 133.5l64 360q16 89 58 124.5t130 35.5h610q87 0 125.5 -46.5t22.5 -133.5l-64 -360q-16 -89 -58 -124.5t-130 -35.5zM215 36h594q74 0 107.5 29t46.5 103
l62 352q13 74 -15.5 109t-102.5 35h-594q-74 0 -107.5 -29t-46.5 -103l-62 -352q-13 -74 15.5 -109t102.5 -35z" />
    <glyph glyph-name="ohungarumlaut" unicode="&#x151;" horiz-adv-x="950" 
d="M616 700l-172 -120h-52l162 120h62zM832 700l-172 -120h-52l162 120h62zM694 0h-508q-79 0 -113 41t-20 121l38 218q13 80 49 111q35 29 116 29h508q79 0 113 -41t20 -121l-38 -218q-13 -81 -49 -110q-34 -30 -116 -30zM197 36h494q67 0 92 22q27 24 37 88l37 212
q12 67 -12.5 96.5t-91.5 29.5h-494q-67 0 -92 -22q-27 -24 -37 -88l-37 -212q-12 -67 12.5 -96.5t91.5 -29.5z" />
    <glyph glyph-name="OE" unicode="&#x152;" horiz-adv-x="1860" 
d="M1888 700l-7 -36h-799l-49 -276h760l-7 -36h-760l-56 -316h811l-7 -36h-1570q-87 0 -125.5 46.5t-22.5 133.5l64 360q16 89 58 124.5t130 35.5h1580zM215 36h716l110 628h-728q-75 0 -107 -28q-33 -29 -47 -104l-62 -352q-13 -74 15.5 -109t102.5 -35z" />
    <glyph glyph-name="oe" unicode="&#x153;" horiz-adv-x="1710" 
d="M1028 520h500q80 0 111 -38t18 -120l-16 -95h-758l-20 -111q-12 -67 9.5 -93.5t88.5 -26.5h512q48 0 70 19.5t32 68.5l9 46h40l-10 -52q-12 -64 -43.5 -91t-94.5 -27h-523q-101 0 -122 65q-18 -36 -50.5 -50.5t-92.5 -14.5h-502q-79 0 -113 41t-20 121l38 218
q13 80 49 111q35 29 116 29h502q104 0 129 -69q17 38 49 53.5t92 15.5zM197 36h494q67 0 92 22q27 24 37 88l37 212q12 67 -12.5 96.5t-91.5 29.5h-494q-67 0 -92 -22q-27 -24 -37 -88l-37 -212q-12 -67 12.5 -96.5t91.5 -29.5zM901 372l-12 -69h718l10 61q11 67 -10.5 93.5
t-87.5 26.5h-488q-67 0 -92 -22q-26 -23 -38 -90z" />
    <glyph glyph-name="Racute" unicode="&#x154;" horiz-adv-x="1050" 
d="M794 880h68l-218 -120h-58zM158 700h740q159 0 131 -160l-17 -98q-13 -80 -49 -111q-35 -31 -117 -31h-121l237 -300h-51l-235 300h-549l-53 -300h-40zM972 446l17 94q12 67 -11.5 95.5t-90.5 28.5h-696l-57 -328h710q66 0 91 22t37 88z" />
    <glyph glyph-name="racute" unicode="&#x155;" horiz-adv-x="630" 
d="M552 700h68l-218 -120h-58zM410 520h246l-7 -36h-254q-110 0 -187 -47l-64 -40l-70 -397h-40l92 520h30l-6 -79l43 27q51 32 98 43q45 9 119 9z" />
    <glyph glyph-name="Rcommaaccent" unicode="&#x156;" horiz-adv-x="1050" 
d="M158 700h740q159 0 131 -160l-17 -98q-13 -80 -49 -111q-35 -31 -117 -31h-121l237 -300h-51l-235 300h-549l-53 -300h-40zM972 446l17 94q12 67 -11.5 95.5t-90.5 28.5h-696l-57 -328h710q66 0 91 22t37 88zM460 -90h-23l10 60h60l-6 -35q-3 -17 -17 -39l-37 -56h-30z
" />
    <glyph glyph-name="rcommaaccent" unicode="&#x157;" horiz-adv-x="630" 
d="M410 520h246l-7 -36h-254q-110 0 -187 -47l-64 -40l-70 -397h-40l92 520h30l-6 -79l43 27q51 32 98 43q45 9 119 9zM35 -90h-23l10 60h60l-6 -35q-3 -17 -17 -39l-37 -56h-30z" />
    <glyph glyph-name="Rcaron" unicode="&#x158;" horiz-adv-x="1050" 
d="M829 880l-192 -120h-50l-148 120h48l126 -92l160 92h56zM158 700h740q159 0 131 -160l-17 -98q-13 -80 -49 -111q-35 -31 -117 -31h-121l237 -300h-51l-235 300h-549l-53 -300h-40zM972 446l17 94q12 67 -11.5 95.5t-90.5 28.5h-696l-57 -328h710q66 0 91 22t37 88z" />
    <glyph glyph-name="rcaron" unicode="&#x159;" horiz-adv-x="630" 
d="M587 700l-192 -120h-50l-148 120h48l126 -92l160 92h56zM410 520h246l-7 -36h-254q-110 0 -187 -47l-64 -40l-70 -397h-40l92 520h30l-6 -79l43 27q51 32 98 43q45 9 119 9z" />
    <glyph glyph-name="Sacute" unicode="&#x15a;" horiz-adv-x="1070" 
d="M872 880l-218 -120h-58l208 120h68zM48 134l9 50h40l-9 -50q-18 -98 81 -98h666q49 0 70.5 18.5t29.5 67.5l19 110q9 50 -10 73.5t-70 26.5l-638 34q-137 8 -114 134l14 82q11 65 42.5 91.5t95.5 26.5h652q63 0 93 -35t20 -99l-5 -32h-40l5 32q8 51 -11 74.5t-69 23.5
h-642q-49 0 -71 -18.5t-30 -67.5l-13 -76q-8 -50 11 -73.5t70 -26.5l638 -34q136 -8 113 -134l-20 -116q-11 -65 -42 -91.5t-95 -26.5h-676q-63 0 -94 35.5t-20 98.5z" />
    <glyph glyph-name="sacute" unicode="&#x15b;" horiz-adv-x="930" 
d="M770 700l-218 -120h-58l208 120h68zM44 112l6 37h40l-6 -37q-12 -76 63 -76h568q35 0 53 15.5t24 50.5l11 64q7 39 -7.5 58t-52.5 21l-551 30q-109 7 -90 110l7 36q10 52 38 75.5t78 23.5h555q51 0 77 -30.5t16 -81.5l-7 -34h-40l6 35q12 75 -62 75h-544q-35 0 -53 -15.5
t-25 -51.5l-5 -27q-13 -75 60 -79l551 -30q52 -3 76 -32t14 -80l-13 -72q-9 -51 -36 -74t-78 -23h-581q-50 0 -75 30t-17 82z" />
    <glyph glyph-name="Scircumflex" unicode="&#x15c;" horiz-adv-x="1070" 
d="M484 760h-56l192 120h50l148 -120h-48l-126 92zM48 134l9 50h40l-9 -50q-18 -98 81 -98h666q49 0 70.5 18.5t29.5 67.5l19 110q9 50 -10 73.5t-70 26.5l-638 34q-137 8 -114 134l14 82q11 65 42.5 91.5t95.5 26.5h652q63 0 93 -35t20 -99l-5 -32h-40l5 32q8 51 -11 74.5
t-69 23.5h-642q-49 0 -71 -18.5t-30 -67.5l-13 -76q-8 -50 11 -73.5t70 -26.5l638 -34q136 -8 113 -134l-20 -116q-11 -65 -42 -91.5t-95 -26.5h-676q-63 0 -94 35.5t-20 98.5z" />
    <glyph glyph-name="scircumflex" unicode="&#x15d;" horiz-adv-x="930" 
d="M382 580h-56l192 120h50l148 -120h-48l-126 92zM44 112l6 37h40l-6 -37q-12 -76 63 -76h568q35 0 53 15.5t24 50.5l11 64q7 39 -7.5 58t-52.5 21l-551 30q-109 7 -90 110l7 36q10 52 38 75.5t78 23.5h555q51 0 77 -30.5t16 -81.5l-7 -34h-40l6 35q12 75 -62 75h-544
q-35 0 -53 -15.5t-25 -51.5l-5 -27q-13 -75 60 -79l551 -30q52 -3 76 -32t14 -80l-13 -72q-9 -51 -36 -74t-78 -23h-581q-50 0 -75 30t-17 82z" />
    <glyph glyph-name="Scedilla" unicode="&#x15e;" horiz-adv-x="1070" 
d="M274 700h652q63 0 93 -35t20 -99l-5 -32h-40l5 32q8 51 -11 74.5t-69 23.5h-642q-49 0 -71 -18.5t-30 -67.5l-13 -76q-8 -50 11 -73.5t70 -26.5l638 -34q136 -8 113 -134l-20 -116q-11 -65 -42 -91.5t-95 -26.5h-340l-21 -38h108q52 0 43 -52l-4 -22q-5 -28 -17 -38
t-40 -10h-232l6 34h228q10 0 13.5 3t5.5 13l4 20q4 18 -15 18h-146l2 14l33 58h-304q-63 0 -94 35.5t-20 98.5l9 50h40l-9 -50q-18 -98 81 -98h666q49 0 70.5 18.5t29.5 67.5l19 110q9 50 -10 73.5t-70 26.5l-638 34q-137 8 -114 134l14 82q11 65 42.5 91.5t95.5 26.5z" />
    <glyph glyph-name="scedilla" unicode="&#x15f;" horiz-adv-x="930" 
d="M225 520h555q51 0 77 -30.5t16 -81.5l-7 -34h-40l6 35q12 75 -62 75h-544q-35 0 -53 -15.5t-25 -51.5l-5 -27q-13 -75 60 -79l551 -30q52 -3 76 -32t14 -80l-13 -72q-9 -51 -36 -74t-78 -23h-289l-21 -38h108q52 0 43 -52l-4 -22q-5 -28 -17 -38t-40 -10h-232l6 34h228
q10 0 13.5 3t5.5 13l4 20q4 18 -15 18h-146l2 14l33 58h-260q-50 0 -75 30t-17 82l6 37h40l-6 -37q-12 -76 63 -76h568q35 0 53 15.5t24 50.5l11 64q7 39 -7.5 58t-52.5 21l-551 30q-109 7 -90 110l7 36q10 52 38 75.5t78 23.5z" />
    <glyph glyph-name="Scaron" unicode="&#x160;" horiz-adv-x="1070" 
d="M783 880h56l-192 -120h-50l-148 120h48l126 -92zM48 134l9 50h40l-9 -50q-18 -98 81 -98h666q49 0 70.5 18.5t29.5 67.5l19 110q9 50 -10 73.5t-70 26.5l-638 34q-137 8 -114 134l14 82q11 65 42.5 91.5t95.5 26.5h652q63 0 93 -35t20 -99l-5 -32h-40l5 32q8 51 -11 74.5
t-69 23.5h-642q-49 0 -71 -18.5t-30 -67.5l-13 -76q-8 -50 11 -73.5t70 -26.5l638 -34q136 -8 113 -134l-20 -116q-11 -65 -42 -91.5t-95 -26.5h-676q-63 0 -94 35.5t-20 98.5z" />
    <glyph glyph-name="scaron" unicode="&#x161;" horiz-adv-x="930" 
d="M681 700h56l-192 -120h-50l-148 120h48l126 -92zM44 112l6 37h40l-6 -37q-12 -76 63 -76h568q35 0 53 15.5t24 50.5l11 64q7 39 -7.5 58t-52.5 21l-551 30q-109 7 -90 110l7 36q10 52 38 75.5t78 23.5h555q51 0 77 -30.5t16 -81.5l-7 -34h-40l6 35q12 75 -62 75h-544
q-35 0 -53 -15.5t-25 -51.5l-5 -27q-13 -75 60 -79l551 -30q52 -3 76 -32t14 -80l-13 -72q-9 -51 -36 -74t-78 -23h-581q-50 0 -75 30t-17 82z" />
    <glyph glyph-name="uni0162" unicode="&#x162;" horiz-adv-x="960" 
d="M571 664l-117 -664h-11l-21 -38h108q52 0 43 -52l-4 -22q-5 -28 -17 -38t-40 -10h-232l6 34h228q10 0 13.5 3t5.5 13l4 20q5 18 -15 18h-146l2 14l37 66l116 656h-440l7 36h920l-7 -36h-440z" />
    <glyph glyph-name="uni0163" unicode="&#x163;" horiz-adv-x="762" 
d="M771 484h-451l-62 -352q-9 -50 10 -73t69 -23h355l-6 -36h-302l-21 -38h108q52 0 43 -52l-4 -22q-5 -28 -17 -38t-40 -10h-232l6 34h228q10 0 13.5 3t5.5 13l4 20q4 18 -15 18h-146l2 14l33 58h-25q-64 0 -92 33.5t-17 98.5l62 352h-220l6 36h220l31 120h30l-21 -120h451
z" />
    <glyph glyph-name="Tcaron" unicode="&#x164;" horiz-adv-x="960" 
d="M784 880l-192 -120h-50l-148 120h48l126 -92l160 92h56zM98 700h920l-7 -36h-440l-117 -664h-40l117 664h-440z" />
    <glyph glyph-name="tcaron" unicode="&#x165;" horiz-adv-x="762" 
d="M554 626l-37 -56h-30l43 70h-23l10 60h60l-6 -35q-3 -17 -17 -39zM771 484h-451l-62 -352q-9 -50 10 -73t69 -23h355l-6 -36h-359q-64 0 -92 33.5t-17 98.5l62 352h-220l6 36h220l31 120h30l-21 -120h451z" />
    <glyph glyph-name="Tbar" unicode="&#x166;" horiz-adv-x="960" 
d="M1018 700l-7 -36h-440l-52 -296h300l-6 -36h-300l-59 -332h-40l59 332h-300l6 36h300l52 296h-440l7 36h920z" />
    <glyph glyph-name="tbar" unicode="&#x167;" horiz-adv-x="762" 
d="M777 520l-6 -36h-451l-35 -196h451l-6 -36h-451l-21 -120q-9 -50 10 -73t69 -23h355l-6 -36h-359q-64 0 -92 33.5t-17 98.5l21 120h-220l6 36h220l35 196h-220l6 36h220l31 120h30l-21 -120h451z" />
    <glyph glyph-name="Utilde" unicode="&#x168;" horiz-adv-x="1060" 
d="M464 760h-36l13 71q5 27 18 38t40 11h56q24 0 35.5 -4t26.5 -19l51 -50q16 -14 37 -14h52q21 0 25 21l12 66h36l-13 -71q-5 -27 -18 -38t-40 -11h-56q-24 0 -35.5 4t-26.5 19l-51 50q-16 14 -37 14h-52q-21 0 -25 -21zM784 0h-580q-87 0 -125.5 46.5t-22.5 133.5l92 520
h40l-91 -520q-13 -74 15.5 -109t102.5 -35h564q74 0 108 29t47 103l94 532h40l-96 -540q-16 -89 -58 -124.5t-130 -35.5z" />
    <glyph glyph-name="utilde" unicode="&#x169;" horiz-adv-x="956" 
d="M392 646l-12 -66h-36l13 71q5 27 18 38t40 11h56q24 0 35.5 -4t26.5 -19l51 -50q16 -14 37 -14h52q21 0 25 21l12 66h36l-13 -71q-5 -27 -18 -38t-40 -11h-56q-24 0 -35.5 4t-26.5 19l-51 50q-16 14 -37 14h-52q-21 0 -25 -21zM882 520h40l-92 -520h-30l7 79l-44 -27
q-53 -33 -96 -42q-41 -10 -117 -10h-358q-79 0 -113 41t-20 121l63 358h40l-63 -358q-12 -67 12.5 -96.5t91.5 -29.5h358q110 0 187 47l64 40z" />
    <glyph glyph-name="Umacron" unicode="&#x16a;" horiz-adv-x="1060" 
d="M847 804h-440l6 36h440zM784 0h-580q-87 0 -125.5 46.5t-22.5 133.5l92 520h40l-91 -520q-13 -74 15.5 -109t102.5 -35h564q74 0 108 29t47 103l94 532h40l-96 -540q-16 -89 -58 -124.5t-130 -35.5z" />
    <glyph glyph-name="umacron" unicode="&#x16b;" horiz-adv-x="956" 
d="M329 660h440l-6 -36h-440zM882 520h40l-92 -520h-30l7 79l-44 -27q-53 -33 -96 -42q-41 -10 -117 -10h-358q-79 0 -113 41t-20 121l63 358h40l-63 -358q-12 -67 12.5 -96.5t91.5 -29.5h358q110 0 187 47l64 40z" />
    <glyph glyph-name="Ubreve" unicode="&#x16c;" horiz-adv-x="1060" 
d="M753 760h-268q-35 0 -51 19.5t-9 53.5l9 47h38l-9 -47q-7 -37 31 -37h261q36 0 42 36l9 48h38l-9 -51q-7 -37 -25.5 -53t-56.5 -16zM784 0h-580q-87 0 -125.5 46.5t-22.5 133.5l92 520h40l-91 -520q-13 -74 15.5 -109t102.5 -35h564q74 0 108 29t47 103l94 532h40
l-96 -540q-16 -89 -58 -124.5t-130 -35.5z" />
    <glyph glyph-name="ubreve" unicode="&#x16d;" horiz-adv-x="956" 
d="M669 580h-268q-35 0 -51 19.5t-9 53.5l9 47h38l-9 -47q-7 -37 31 -37h261q36 0 42 36l9 48h38l-9 -51q-7 -37 -25.5 -53t-56.5 -16zM882 520h40l-92 -520h-30l7 79l-44 -27q-53 -33 -96 -42q-41 -10 -117 -10h-358q-79 0 -113 41t-20 121l63 358h40l-63 -358
q-12 -67 12.5 -96.5t91.5 -29.5h358q110 0 187 47l64 40z" />
    <glyph glyph-name="Uring" unicode="&#x16e;" horiz-adv-x="1060" 
d="M452 805l4 24q4 29 17 40t43 11h243q55 0 46 -55l-4 -24q-4 -29 -17 -40t-43 -11h-243q-55 0 -46 55zM491 825l-3 -18q-4 -24 18 -24h235q13 0 18 4.5t7 17.5l3 18q5 24 -18 24h-235q-13 0 -18 -4.5t-7 -17.5zM784 0h-580q-87 0 -125.5 46.5t-22.5 133.5l92 520h40
l-91 -520q-13 -74 15.5 -109t102.5 -35h564q74 0 108 29t47 103l94 532h40l-96 -540q-16 -89 -58 -124.5t-130 -35.5z" />
    <glyph glyph-name="uring" unicode="&#x16f;" horiz-adv-x="956" 
d="M657 570h-243q-55 0 -46 55l4 24q4 29 17 40t43 11h243q55 0 46 -55l-4 -24q-4 -29 -17 -40t-43 -11zM407 645l-3 -18q-4 -24 18 -24h235q13 0 18 4.5t7 17.5l3 18q5 24 -18 24h-235q-13 0 -18 -4.5t-7 -17.5zM882 520h40l-92 -520h-30l7 79l-44 -27q-53 -33 -96 -42
q-41 -10 -117 -10h-358q-79 0 -113 41t-20 121l63 358h40l-63 -358q-12 -67 12.5 -96.5t91.5 -29.5h358q110 0 187 47l64 40z" />
    <glyph glyph-name="Uhungarumlaut" unicode="&#x170;" horiz-adv-x="1060" 
d="M703 880l-172 -120h-52l162 120h62zM919 880l-172 -120h-52l162 120h62zM784 0h-580q-87 0 -125.5 46.5t-22.5 133.5l92 520h40l-91 -520q-13 -74 15.5 -109t102.5 -35h564q74 0 108 29t47 103l94 532h40l-96 -540q-16 -89 -58 -124.5t-130 -35.5z" />
    <glyph glyph-name="uhungarumlaut" unicode="&#x171;" horiz-adv-x="956" 
d="M557 700h62l-172 -120h-52zM835 700l-172 -120h-52l162 120h62zM882 520h40l-92 -520h-30l7 79l-44 -27q-53 -33 -96 -42q-41 -10 -117 -10h-358q-79 0 -113 41t-20 121l63 358h40l-63 -358q-12 -67 12.5 -96.5t91.5 -29.5h358q110 0 187 47l64 40z" />
    <glyph glyph-name="Uogonek" unicode="&#x172;" horiz-adv-x="1060" 
d="M934 168l94 532h40l-96 -540q-16 -89 -58 -124.5t-130 -35.5h-151l-86 -27q-21 -7 -28 -13.5t-9 -22.5l-3 -19q-4 -24 4.5 -34t32.5 -10h147l-6 -34h-151q-40 0 -55 18.5t-10 59.5l2 15q4 28 16.5 42t45.5 25h-329q-87 0 -125.5 46.5t-22.5 133.5l92 520h40l-91 -520
q-13 -74 15.5 -109t102.5 -35h564q74 0 108 29t47 103z" />
    <glyph glyph-name="uogonek" unicode="&#x173;" horiz-adv-x="966" 
d="M749 -63l-3 -19q-4 -24 4.5 -34t32.5 -10h87l-6 -34h-91q-40 0 -55 18.5t-10 59.5l2 15q5 31 14 43q10 13 45 31l33 17l5 55l-44 -27q-53 -33 -96 -42q-41 -10 -117 -10h-358q-79 0 -113 41t-20 121l63 358h40l-63 -358q-12 -67 12.5 -96.5t91.5 -29.5h358q110 0 187 47
l64 40l70 397h40l-92 -520h-9l-32 -16q-22 -11 -29.5 -20t-10.5 -27z" />
    <glyph glyph-name="Wcircumflex" unicode="&#x174;" horiz-adv-x="1450" 
d="M960 760l-126 92l-160 -92h-56l192 120h50l148 -120h-48zM1028 49l454 651h46l-487 -700h-37l-210 646l-438 -646h-39l-239 700h42l224 -652l439 652h36z" />
    <glyph glyph-name="wcircumflex" unicode="&#x175;" horiz-adv-x="1242" 
d="M820 580l-126 92l-160 -92h-56l192 120h50l148 -120h-48zM870 46l360 474h48l-397 -520h-35l-188 470l-356 -470h-33l-213 520h44l192 -474l357 474h32z" />
    <glyph glyph-name="Ycircumflex" unicode="&#x176;" horiz-adv-x="996" 
d="M733 760l-126 92l-160 -92h-56l192 120h50l148 -120h-48zM1014 700h60l-556 -439l-46 -261h-40l46 261l-400 439h54l370 -409z" />
    <glyph glyph-name="ycircumflex" unicode="&#x177;" horiz-adv-x="898" 
d="M652 580l-126 92l-160 -92h-56l192 120h50l148 -120h-48zM407 38l474 482h53l-545 -552q-76 -77 -128 -104q-49 -24 -146 -24h-129l6 36h141q73 0 114 19t100 81l33 34l-324 510h47z" />
    <glyph glyph-name="Ydieresis" unicode="&#x178;" horiz-adv-x="996" 
d="M460 840h40l-10 -60h-40zM700 840h40l-10 -60h-40zM1014 700h60l-556 -439l-46 -261h-40l46 261l-400 439h54l370 -409z" />
    <glyph glyph-name="Zacute" unicode="&#x179;" horiz-adv-x="1040" 
d="M857 880l-218 -120h-58l208 120h68zM944 0h-940l5 26l973 638h-841l7 36h920l-5 -26l-973 -638h861z" />
    <glyph glyph-name="zacute" unicode="&#x17a;" horiz-adv-x="914" 
d="M762 700l-218 -120h-58l208 120h68zM820 0h-818l5 26l814 458h-714l7 36h798l-5 -26l-814 -458h734z" />
    <glyph glyph-name="Zdotaccent" unicode="&#x17b;" horiz-adv-x="1040" 
d="M632 780h-40l10 60h40zM944 0h-940l5 26l973 638h-841l7 36h920l-5 -26l-973 -638h861z" />
    <glyph glyph-name="zdotaccent" unicode="&#x17c;" horiz-adv-x="914" 
d="M537 600h-40l10 60h40zM820 0h-818l5 26l814 458h-714l7 36h798l-5 -26l-814 -458h734z" />
    <glyph glyph-name="Zcaron" unicode="&#x17d;" horiz-adv-x="1040" 
d="M768 880h56l-192 -120h-50l-148 120h48l126 -92zM944 0h-940l5 26l973 638h-841l7 36h920l-5 -26l-973 -638h861z" />
    <glyph glyph-name="zcaron" unicode="&#x17e;" horiz-adv-x="914" 
d="M673 700h56l-192 -120h-50l-148 120h48l126 -92zM820 0h-818l5 26l814 458h-714l7 36h798l-5 -26l-814 -458h734z" />
    <glyph glyph-name="florin" unicode="&#x192;" horiz-adv-x="952" 
d="M963 664h-223q-72 0 -109 -30t-59 -106l-63 -220h372l-7 -36h-376l-75 -262q-27 -92 -73 -131t-131 -39h-233l7 36h223q72 0 109 30t59 106l75 260h-377l7 36h380l64 222q27 92 73 131t131 39h233z" />
    <glyph glyph-name="Aringacute" unicode="&#x1fa;" horiz-adv-x="1072" 
d="M650 670l376 -670h-42l-117 208v-1h-678l-189 -207h-46l614 670h-77q-55 0 -46 55l4 24q4 29 17 40t43 11h123l112 80h58l-120 -80h70q55 0 46 -55l-4 -24q-4 -29 -17 -40t-43 -11h-84zM484 745l-3 -18q-5 -24 18 -24h235q13 0 18 4.5t7 17.5l3 18q4 24 -18 24h-235
q-13 0 -18 -4.5t-7 -17.5zM609 666l-387 -423h625z" />
    <glyph glyph-name="aringacute" unicode="&#x1fb;" horiz-adv-x="946" 
d="M704 520h54q159 0 130 -158l-64 -362h-30l7 82l-60 -36q-52 -30 -85 -37q-36 -9 -100 -9h-404q-60 0 -88 34t-17 94l9 48q12 62 41 87t90 25h648l13 74q12 68 -10.5 95t-90.5 27h-488q-49 0 -71 -18.5t-30 -67.5l-6 -34h-40l7 38q12 65 43.5 91.5t95.5 26.5h102
q-3 11 0 25l4 24q4 29 17 40t43 11h123l112 80h58l-120 -80h70q55 0 46 -55l-4 -24q-2 -14 -5 -21zM399 565l-3 -18q-4 -24 18 -24h235q13 0 18 4.5t7 17.5l3 18q5 24 -18 24h-235q-13 0 -18 -4.5t-7 -17.5zM730 79l76 46l17 95l6 32h-640q-46 0 -67 -17.5t-28 -62.5l-7 -44
q-8 -49 10 -70.5t66 -21.5h408q89 0 159 43z" />
    <glyph glyph-name="AEacute" unicode="&#x1fc;" horiz-adv-x="1570" 
d="M1054 880h68l-218 -120h-58zM1598 700l-7 -36h-938l155 -276h695l-7 -36h-668l178 -316h485l-7 -36h-500l-117 207h-678l-189 -207h-46l641 700h1003zM609 666l-387 -423h625z" />
    <glyph glyph-name="aeacute" unicode="&#x1fd;" horiz-adv-x="1700" 
d="M1087 700h68l-218 -120h-58zM1018 520h500q80 0 111 -38t18 -120l-16 -95h-758l-20 -111q-12 -67 9.5 -93.5t88.5 -26.5h512q48 0 70 19.5t32 68.5l9 46h40l-10 -52q-12 -64 -43.5 -91t-94.5 -27h-523q-119 0 -132 88l-70 -42q-52 -30 -85 -37q-36 -9 -100 -9h-404
q-60 0 -88 34t-17 94l9 48q12 62 41 87t90 25h648l13 74q12 68 -10.5 95t-90.5 27h-488q-49 0 -71 -18.5t-30 -67.5l-6 -34h-40l7 38q12 65 43.5 91.5t95.5 26.5h500q101 0 122 -63q18 35 49 49t89 14zM891 372l-12 -69h718l10 61q11 67 -10.5 93.5t-87.5 26.5h-488
q-67 0 -92 -22q-26 -23 -38 -90zM730 79l76 46l23 127h-640q-46 0 -67 -17.5t-28 -62.5l-7 -44q-8 -49 10 -70.5t66 -21.5h408q89 0 159 43z" />
    <glyph glyph-name="Oslashacute" unicode="&#x1fe;" horiz-adv-x="1090" 
d="M814 880h68l-218 -120h-58zM1133 730l-97 -68q46 -46 30 -142l-64 -360q-16 -89 -58 -124.5t-130 -35.5h-610q-53 0 -85 16l-66 -46h-64l97 68q-46 46 -30 142l64 360q16 89 58 124.5t130 35.5h610q53 0 85 -16l66 46h64zM159 532l-62 -352q-15 -82 23 -117l845 594
q-21 7 -58 7h-594q-74 0 -107.5 -29t-46.5 -103zM963 168l62 352q15 82 -23 117l-845 -594q21 -7 58 -7h594q74 0 107.5 29t46.5 103z" />
    <glyph glyph-name="oslashacute" unicode="&#x1ff;" horiz-adv-x="950" 
d="M712 700h68l-218 -120h-58zM963 560l-101 -67q51 -39 35 -135l-38 -218q-13 -81 -49 -110q-34 -30 -116 -30h-508q-37 0 -59 7l-72 -47h-68l101 67q-51 39 -35 135l38 218q13 80 49 111q35 29 116 29h508q37 0 59 -7l72 47h68zM130 374l-37 -212q-15 -85 31 -112l654 433
q-5 1 -25 1h-494q-67 0 -92 -22q-27 -24 -37 -88zM820 146l37 212q15 85 -31 112l-654 -433q5 -1 25 -1h494q67 0 92 22q27 24 37 88z" />
    <glyph glyph-name="Scommaaccent" unicode="&#x218;" horiz-adv-x="1070" 
d="M48 134l9 50h40l-9 -50q-18 -98 81 -98h666q49 0 70.5 18.5t29.5 67.5l19 110q9 50 -10 73.5t-70 26.5l-638 34q-137 8 -114 134l14 82q11 65 42.5 91.5t95.5 26.5h652q63 0 93 -35t20 -99l-5 -32h-40l5 32q8 51 -11 74.5t-69 23.5h-642q-49 0 -71 -18.5t-30 -67.5
l-13 -76q-8 -50 11 -73.5t70 -26.5l638 -34q136 -8 113 -134l-20 -116q-11 -65 -42 -91.5t-95 -26.5h-676q-63 0 -94 35.5t-20 98.5zM457 -160h-30l43 70h-23l10 60h60l-6 -35q-3 -17 -17 -39z" />
    <glyph glyph-name="scommaaccent" unicode="&#x219;" horiz-adv-x="930" 
d="M44 112l6 37h40l-6 -37q-12 -76 63 -76h568q35 0 53 15.5t24 50.5l11 64q7 39 -7.5 58t-52.5 21l-551 30q-109 7 -90 110l7 36q10 52 38 75.5t78 23.5h555q51 0 77 -30.5t16 -81.5l-7 -34h-40l6 35q12 75 -62 75h-544q-35 0 -53 -15.5t-25 -51.5l-5 -27q-13 -75 60 -79
l551 -30q52 -3 76 -32t14 -80l-13 -72q-9 -51 -36 -74t-78 -23h-581q-50 0 -75 30t-17 82zM387 -160h-30l43 70h-23l10 60h60l-6 -35q-3 -17 -17 -39z" />
    <glyph glyph-name="uni021A" unicode="&#x21a;" horiz-adv-x="960" 
d="M98 700h920l-7 -36h-440l-117 -664h-40l117 664h-440zM415 -90h-23l10 60h60l-6 -35q-3 -17 -17 -39l-37 -56h-30z" />
    <glyph glyph-name="uni021B" unicode="&#x21b;" horiz-adv-x="762" 
d="M771 484h-451l-62 -352q-9 -50 10 -73t69 -23h355l-6 -36h-359q-64 0 -92 33.5t-17 98.5l62 352h-220l6 36h220l31 120h30l-21 -120h451zM356 -90h-23l10 60h60l-6 -35q-3 -17 -17 -39l-37 -56h-30z" />
    <glyph glyph-name="uni0237" unicode="&#x237;" horiz-adv-x="308" 
d="M32 -160h-230l7 36h222q50 0 71 18t30 68l98 558h40l-99 -562q-11 -65 -43 -91.5t-96 -26.5z" />
    <glyph glyph-name="circumflex" unicode="&#x2c6;" horiz-adv-x="470" 
d="M192 580h-56l192 120h50l148 -120h-48l-126 92z" />
    <glyph glyph-name="caron" unicode="&#x2c7;" horiz-adv-x="550" 
d="M492 700h56l-192 -120h-50l-148 120h48l126 -92z" />
    <glyph glyph-name="breve" unicode="&#x2d8;" horiz-adv-x="490" 
d="M477 580h-268q-35 0 -51 19.5t-9 53.5l9 47h38l-9 -47q-7 -37 31 -37h261q36 0 42 36l9 48h38l-9 -51q-7 -37 -25.5 -53t-56.5 -16z" />
    <glyph glyph-name="dotaccent" unicode="&#x2d9;" horiz-adv-x="200" 
d="M181 600h-40l10 60h40z" />
    <glyph glyph-name="ring" unicode="&#x2da;" horiz-adv-x="390" 
d="M125 625l4 24q4 29 17 40t43 11h243q55 0 46 -55l-4 -24q-4 -29 -17 -40t-43 -11h-243q-55 0 -46 55zM164 645l-3 -18q-5 -24 18 -24h235q13 0 18 4.5t7 17.5l3 18q4 24 -18 24h-235q-13 0 -18 -4.5t-7 -17.5z" />
    <glyph glyph-name="ogonek" unicode="&#x2db;" horiz-adv-x="330" 
d="M198 4l-99 -31q-21 -7 -28 -13.5t-9 -22.5l-3 -19q-4 -24 4.5 -34t32.5 -10h147l-6 -34h-151q-40 0 -55 18.5t-10 59.5l2 15q4 28 16.5 42t45.5 25l103 32z" />
    <glyph glyph-name="tilde" unicode="&#x2dc;" horiz-adv-x="490" 
d="M172 580h-36l13 71q5 27 18 38t40 11h56q24 0 35.5 -4t26.5 -19l51 -50q16 -14 37 -14h52q21 0 25 21l12 66h36l-13 -71q-5 -27 -18 -38t-40 -11h-56q-24 0 -35.5 4t-26.5 19l-51 50q-16 14 -37 14h-52q-21 0 -25 -21z" />
    <glyph glyph-name="hungarumlaut" unicode="&#x2dd;" horiz-adv-x="510" 
d="M326 700l-172 -120h-52l162 120h62zM542 700l-172 -120h-52l162 120h62z" />
    <glyph glyph-name="gravecomb" unicode="&#x300;" horiz-adv-x="0" 
d="M-26 580h-50l-174 120h60z" />
    <glyph glyph-name="acutecomb" unicode="&#x301;" horiz-adv-x="0" 
d="M-276 700l-218 -120h-58l208 120h68z" />
    <glyph glyph-name="uni0302" unicode="&#x302;" horiz-adv-x="0" 
d="M-358 580h-56l192 120h50l148 -120h-48l-126 92z" />
    <glyph glyph-name="tildecomb" unicode="&#x303;" horiz-adv-x="0" 
d="M-368 580h-36l13 71q5 27 18 38t40 11h56q24 0 35.5 -4t26.5 -19l51 -50q16 -14 37 -14h52q21 0 25 21l12 66h36l-13 -71q-5 -27 -18 -38t-40 -11h-56q-24 0 -35.5 4t-26.5 19l-51 50q-16 14 -37 14h-52q-21 0 -25 -21z" />
    <glyph glyph-name="uni0304" unicode="&#x304;" horiz-adv-x="0" 
d="M-15 624h-440l6 36h440z" />
    <glyph glyph-name="uni0306" unicode="&#x306;" horiz-adv-x="0" 
d="M-93 580h-268q-35 0 -51 19.5t-9 53.5l9 47h38l-9 -47q-7 -37 31 -37h261q36 0 42 36l9 48h38l-9 -51q-7 -37 -25.5 -53t-56.5 -16z" />
    <glyph glyph-name="uni0307" unicode="&#x307;" horiz-adv-x="0" 
d="M-19 600h-40l10 60h40z" />
    <glyph glyph-name="uni0308" unicode="&#x308;" horiz-adv-x="0" 
d="M-259 600h-40l10 60h40zM-19 600h-40l10 60h40z" />
    <glyph glyph-name="uni030A" unicode="&#x30a;" horiz-adv-x="0" 
d="M-345 625l4 24q4 29 17 40t43 11h243q55 0 46 -55l-4 -24q-4 -29 -17 -40t-43 -11h-243q-55 0 -46 55zM-306 645l-3 -18q-5 -24 18 -24h235q13 0 18 4.5t7 17.5l3 18q4 24 -18 24h-235q-13 0 -18 -4.5t-7 -17.5z" />
    <glyph glyph-name="uni030B" unicode="&#x30b;" horiz-adv-x="0" 
d="M-184 700l-172 -120h-52l162 120h62zM32 700l-172 -120h-52l162 120h62z" />
    <glyph glyph-name="uni030C" unicode="&#x30c;" horiz-adv-x="0" 
d="M-58 700h56l-192 -120h-50l-148 120h48l126 -92z" />
    <glyph glyph-name="uni0312" unicode="&#x312;" horiz-adv-x="0" 
d="M-23 710h30l-43 -70h23l-10 -60h-60l6 35q3 17 17 39z" />
    <glyph glyph-name="uni0326" unicode="&#x326;" horiz-adv-x="0" 
d="M-191 -160h-30l43 70h-23l10 60h60l-6 -35q-3 -17 -17 -39z" />
    <glyph glyph-name="uni0327" unicode="&#x327;" horiz-adv-x="0" 
d="M-182 -160h-232l6 34h228q10 0 13.5 3t5.5 13l4 20q5 18 -15 18h-146l2 14l44 78h32l-32 -58h108q52 0 43 -52l-4 -22q-5 -28 -17 -38t-40 -10z" />
    <glyph glyph-name="uni0328" unicode="&#x328;" horiz-adv-x="0" 
d="M-192 4l-99 -31q-21 -7 -28 -13.5t-9 -22.5l-3 -19q-4 -24 4.5 -34t32.5 -10h147l-6 -34h-151q-40 0 -55 18.5t-10 59.5l2 15q4 28 16.5 42t45.5 25l103 32z" />
    <glyph glyph-name="uni0335" unicode="&#x335;" horiz-adv-x="0" 
d="M-466 336l6 36h440l-6 -36h-440z" />
    <glyph glyph-name="uni0336" unicode="&#x336;" horiz-adv-x="0" 
d="M-866 336l6 36h840l-6 -36h-840z" />
    <glyph glyph-name="uni0337" unicode="&#x337;" horiz-adv-x="0" 
d="M-437 332l6 36l420 60l-6 -36z" />
    <glyph glyph-name="uni0338" unicode="&#x338;" horiz-adv-x="0" 
d="M-651 -30l656 600h50l-656 -600h-50z" />
    <glyph glyph-name="uni0394" unicode="&#x394;" horiz-adv-x="1072" 
d="M595 700h38l393 -700h-1072zM609 666l-576 -630h931z" />
    <glyph glyph-name="uni03A9" unicode="&#x3a9;" horiz-adv-x="1090" 
d="M308 700h610q87 0 125.5 -46.5t22.5 -133.5l-50 -280q-16 -89 -58 -124.5t-130 -35.5h-170l-7 -44h340l-7 -36h-380l21 116h198q74 0 107.5 29t46.5 103l48 272q13 74 -15.5 109t-102.5 35h-594q-74 0 -108 -29t-47 -103l-47 -272q-13 -74 15.5 -109t102.5 -35h186
l-21 -116h-380l7 36h340l7 44h-150q-87 0 -125.5 46.5t-22.5 133.5l50 280q16 89 58 124.5t130 35.5z" />
    <glyph glyph-name="uni03BC" unicode="&#x3bc;" horiz-adv-x="1030" 
d="M915 36h56l-7 -36h-58q-91 0 -91 82l-48 -30q-53 -33 -96 -42q-41 -10 -117 -10h-358q-85 0 -113 46l-37 -206h-40l120 680h40l-63 -358q-12 -67 12.5 -96.5t91.5 -29.5h358q110 0 187 47l64 40l70 397h40l-73 -408q-7 -40 7.5 -58t54.5 -18z" />
    <glyph glyph-name="pi" unicode="&#x3c0;" horiz-adv-x="1040" 
d="M1049 484h-170l-61 -350q-18 -98 81 -98h72l-7 -36h-76q-64 0 -93 34.5t-18 99.5l62 350h-610l-85 -484h-40l85 484h-130l7 36h990z" />
    <glyph glyph-name="uni0401" unicode="&#x401;" horiz-adv-x="970" 
d="M447 840h40l-10 -60h-40zM687 840h40l-10 -60h-40zM998 700l-7 -36h-799l-49 -276h760l-7 -36h-760l-56 -316h811l-7 -36h-850l124 700h840z" />
    <glyph glyph-name="uni0403" unicode="&#x403;" horiz-adv-x="900" 
d="M719 880h68l-218 -120h-58zM158 700h800l-7 -36h-759l-118 -664h-40z" />
    <glyph glyph-name="uni0405" unicode="&#x405;" horiz-adv-x="1070" 
d="M48 134l9 50h40l-9 -50q-18 -98 81 -98h666q49 0 70.5 18.5t29.5 67.5l19 110q9 50 -10 73.5t-70 26.5l-638 34q-137 8 -114 134l14 82q11 65 42.5 91.5t95.5 26.5h652q63 0 93 -35t20 -99l-5 -32h-40l5 32q8 51 -11 74.5t-69 23.5h-642q-49 0 -71 -18.5t-30 -67.5
l-13 -76q-8 -50 11 -73.5t70 -26.5l638 -34q136 -8 113 -134l-20 -116q-11 -65 -42 -91.5t-95 -26.5h-676q-63 0 -94 35.5t-20 98.5z" />
    <glyph glyph-name="uni0406" unicode="&#x406;" horiz-adv-x="212" 
d="M40 0l124 700h40l-124 -700h-40z" />
    <glyph glyph-name="uni0407" unicode="&#x407;" horiz-adv-x="212" 
d="M98 780h-40l10 60h40zM338 780h-40l10 60h40zM40 0l124 700h40l-124 -700h-40z" />
    <glyph glyph-name="uni0408" unicode="&#x408;" horiz-adv-x="970" 
d="M694 0h-520q-87 0 -125.5 46.5t-22.5 133.5l11 60h40l-11 -60q-13 -74 16 -109t103 -35h504q74 0 107.5 28.5t47.5 103.5l94 532h40l-96 -540q-16 -89 -58 -124.5t-130 -35.5z" />
    <glyph glyph-name="uni040C" unicode="&#x40c;" horiz-adv-x="956" 
d="M747 880h68l-218 -120h-58zM921 700h99l-818 -344l698 -356h-89l-675 350l-62 -350h-40l124 700h40l-59 -332z" />
    <glyph glyph-name="uni040E" unicode="&#x40e;" horiz-adv-x="996" 
d="M768 760h-268q-35 0 -51 19.5t-9 53.5l9 47h38l-9 -47q-7 -37 31 -37h261q36 0 42 36l9 48h38l-9 -51q-7 -37 -25.5 -53t-56.5 -16zM494 256l523 444h57l-822 -700h-58l269 231l-385 469h51z" />
    <glyph glyph-name="uni0410" unicode="&#x410;" horiz-adv-x="1072" 
d="M633 700l393 -700h-42l-117 208v-1h-678l-189 -207h-46l641 700h38zM609 666l-387 -423h625z" />
    <glyph glyph-name="uni0411" unicode="&#x411;" horiz-adv-x="1050" 
d="M826 0h-792l124 700h850l-7 -36h-810l-48 -272h734q64 0 93.5 -35.5t18.5 -100.5l-24 -138q-11 -65 -43 -91.5t-96 -26.5zM137 356l-56 -320h744q48 0 69.5 18.5t30.5 67.5l24 134q9 52 -10.5 76t-71.5 24h-730z" />
    <glyph glyph-name="uni0412" unicode="&#x412;" horiz-adv-x="1050" 
d="M158 700h754q63 0 93 -36.5t19 -99.5l-15 -86q-8 -48 -25.5 -73.5t-48.5 -35.5q70 -32 53 -125l-23 -126q-12 -66 -42.5 -92t-96.5 -26h-792zM969 474l16 90q18 100 -84 100h-710l-48 -276h724q50 0 71.5 18t30.5 68zM926 122l24 130q18 100 -84 100h-730l-55 -316h744
q50 0 71 18t30 68z" />
    <glyph glyph-name="uni0413" unicode="&#x413;" horiz-adv-x="900" 
d="M158 700h800l-7 -36h-759l-118 -664h-40z" />
    <glyph glyph-name="uni0414" unicode="&#x414;" horiz-adv-x="1070" 
d="M274 700h784l-116 -664h69l-28 -156h-40l22 120h-950l-21 -120h-40l27 156h30q63 0 89 22t41 84zM306 664l-124 -518q-19 -79 -58 -110h778l110 628h-706z" />
    <glyph glyph-name="uni0415" unicode="&#x415;" horiz-adv-x="970" 
d="M998 700l-7 -36h-799l-49 -276h760l-7 -36h-760l-56 -316h811l-7 -36h-850l124 700h840z" />
    <glyph glyph-name="uni0416" unicode="&#x416;" horiz-adv-x="1712" 
d="M1677 700h99l-818 -344l698 -356h-89l-675 349l-62 -349h-40l62 352l-791 -352h-97l826 362l-698 338h91l673 -329l58 329h40l-59 -333z" />
    <glyph glyph-name="uni0417" unicode="&#x417;" horiz-adv-x="1070" 
d="M274 700h656q64 0 94 -36.5t19 -101.5l-15 -86q-8 -49 -26.5 -74.5t-52.5 -35.5q63 -32 48 -124l-22 -126q-11 -65 -42 -90.5t-95 -25.5h-676q-64 0 -94 36.5t-19 101.5l13 74h40l-13 -74q-18 -102 84 -102h664q49 0 69 17.5t29 66.5l23 130q18 102 -84 102h-508l7 36
h516q49 0 69 17.5t29 66.5l16 90q18 102 -84 102h-644q-49 0 -69 -17.5t-29 -66.5l-15 -84h-40l15 88q11 65 42 90.5t95 25.5z" />
    <glyph glyph-name="uni0418" unicode="&#x418;" horiz-adv-x="1100" 
d="M85 59l979 641h34l-124 -700h-40l114 644l-984 -644h-30l124 700h40z" />
    <glyph glyph-name="uni0419" unicode="&#x419;" horiz-adv-x="1100" 
d="M810 760h-268q-35 0 -51 19.5t-9 53.5l9 47h38l-9 -47q-7 -37 31 -37h261q36 0 42 36l9 48h38l-9 -51q-7 -37 -25.5 -53t-56.5 -16zM85 59l979 641h34l-124 -700h-40l114 644l-984 -644h-30l124 700h40z" />
    <glyph glyph-name="uni041A" unicode="&#x41a;" horiz-adv-x="956" 
d="M921 700h99l-818 -344l698 -356h-89l-675 350l-62 -350h-40l124 700h40l-59 -332z" />
    <glyph glyph-name="uni041B" unicode="&#x41b;" horiz-adv-x="1070" 
d="M20 0h-46l7 36h40q63 0 88 22q26 22 41 84l134 558h784l-124 -700h-40l117 664h-706l-125 -524q-19 -77 -56.5 -108.5t-113.5 -31.5z" />
    <glyph glyph-name="uni041C" unicode="&#x41c;" horiz-adv-x="1220" 
d="M596 197l584 503h38l-124 -700h-40l113 639l-562 -479h-26l-392 479l-113 -639h-40l124 700h32z" />
    <glyph glyph-name="uni041D" unicode="&#x41d;" horiz-adv-x="1080" 
d="M983 388l55 312h40l-124 -700h-40l62 352h-840l-62 -352h-40l124 700h40l-55 -312h840z" />
    <glyph glyph-name="uni041E" unicode="&#x41e;" horiz-adv-x="1090" 
d="M814 0h-610q-87 0 -125.5 46.5t-22.5 133.5l64 360q16 89 58 124.5t130 35.5h610q87 0 125.5 -46.5t22.5 -133.5l-64 -360q-16 -89 -58 -124.5t-130 -35.5zM215 36h594q74 0 107.5 29t46.5 103l62 352q13 74 -15.5 109t-102.5 35h-594q-74 0 -107.5 -29t-46.5 -103
l-62 -352q-13 -74 15.5 -109t102.5 -35z" />
    <glyph glyph-name="uni041F" unicode="&#x41f;" horiz-adv-x="1080" 
d="M74 0h-40l124 700h920l-124 -700h-40l117 664h-840z" />
    <glyph glyph-name="uni0420" unicode="&#x420;" horiz-adv-x="1020" 
d="M74 0h-40l124 700h740q159 0 131 -160l-21 -118q-13 -80 -49 -111q-35 -31 -117 -31h-718zM191 664l-61 -348h710q66 0 91 22t37 88l21 114q12 67 -11.5 95.5t-90.5 28.5h-696z" />
    <glyph glyph-name="uni0421" unicode="&#x421;" horiz-adv-x="1066" 
d="M794 0h-590q-87 0 -125.5 46.5t-22.5 133.5l64 360q16 89 58 124.5t130 35.5h590q87 0 125.5 -46.5t22.5 -133.5l-9 -50h-41l9 50q13 74 -15.5 109t-102.5 35h-574q-74 0 -107.5 -29t-46.5 -103l-62 -352q-13 -74 15.5 -109t102.5 -35h574q73 0 107 29t47 103l13 72h40
l-14 -80q-16 -89 -58 -124.5t-130 -35.5z" />
    <glyph glyph-name="uni0422" unicode="&#x422;" horiz-adv-x="960" 
d="M98 700h920l-7 -36h-440l-117 -664h-40l117 664h-440z" />
    <glyph glyph-name="uni0423" unicode="&#x423;" horiz-adv-x="996" 
d="M494 256l523 444h57l-822 -700h-58l269 231l-385 469h51z" />
    <glyph glyph-name="uni0424" unicode="&#x424;" horiz-adv-x="1376" 
d="M777 650h418q87 0 125.5 -46t22.5 -134l-46 -260q-16 -89 -58 -124.5t-130 -35.5h-438l-16 -90h-40l16 90h-418q-87 0 -125.5 46t-22.5 134l46 260q16 89 58 124.5t130 35.5h438l16 90h40zM224 86h413l94 528h-427q-75 0 -107 -28q-33 -29 -47 -104l-45 -252
q-13 -75 15.5 -109.5t103.5 -34.5zM1258 218l45 252q13 75 -15.5 109.5t-103.5 34.5h-413l-94 -528h427q73 0 107 29t47 103z" />
    <glyph glyph-name="uni0425" unicode="&#x425;" horiz-adv-x="1020" 
d="M32 0h-68l536 355l-402 345h62l369 -318l481 318h68l-524 -345l410 -355h-62l-377 329z" />
    <glyph glyph-name="uni0426" unicode="&#x426;" horiz-adv-x="1090" 
d="M985 0h-950l123 700h40l-117 -664h840l117 664h40l-117 -664h70l-28 -156h-40z" />
    <glyph glyph-name="uni0427" unicode="&#x427;" horiz-adv-x="1040" 
d="M914 0h-40l53 300h-720q-159 0 -131 160l42 240h40l-42 -240q-12 -67 11.5 -95.5t90.5 -28.5h716l64 364h40z" />
    <glyph glyph-name="uni0428" unicode="&#x428;" horiz-adv-x="1600" 
d="M1474 0h-1440l124 700h40l-117 -664h660l117 664h40l-117 -664h660l117 664h40z" />
    <glyph glyph-name="uni0429" unicode="&#x429;" horiz-adv-x="1610" 
d="M1505 0h-1470l123 700h40l-117 -664h660l117 664h40l-117 -664h660l117 664h40l-117 -664h70l-28 -156h-40z" />
    <glyph glyph-name="uni042A" unicode="&#x42a;" horiz-adv-x="1230" 
d="M341 664h-250l7 36h290l-50 -280h720q160 0 132 -160l-21 -118q-13 -81 -50 -111q-35 -31 -117 -31h-778zM332 384l-61 -348h730q66 0 91 22t37 88l21 114q12 67 -11.5 95.5t-90.5 28.5h-716z" />
    <glyph glyph-name="uni042B" unicode="&#x42b;" horiz-adv-x="1232" 
d="M34 0l124 700h40l-50 -280h700q160 0 132 -160l-21 -118q-13 -81 -50 -111q-35 -31 -117 -31h-758zM1060 0l124 700h40l-124 -700h-40zM838 384h-696l-61 -348h710q66 0 91 22t37 88l21 114q12 67 -11.5 95.5t-90.5 28.5z" />
    <glyph glyph-name="uni042C" unicode="&#x42c;" horiz-adv-x="1020" 
d="M34 0l124 700h40l-50 -280h700q160 0 132 -160l-21 -118q-13 -81 -50 -111q-35 -31 -117 -31h-758zM838 384h-696l-61 -348h710q66 0 91 22t37 88l21 114q12 67 -11.5 95.5t-90.5 28.5z" />
    <glyph glyph-name="uni042D" unicode="&#x42d;" horiz-adv-x="1076" 
d="M304 700h600q87 0 125.5 -46.5t22.5 -133.5l-64 -360q-16 -89 -58 -124.5t-130 -35.5h-600q-87 0 -125.5 46.5t-22.5 133.5l11 60h41l-11 -60q-13 -74 15.5 -109t102.5 -35h584q74 0 107.5 29t46.5 103l32 180h-599l6 36h599l24 136q13 74 -15.5 109t-102.5 35h-584
q-74 0 -108 -29t-47 -103l-11 -62h-40l13 70q17 89 59 125q41 35 129 35z" />
    <glyph glyph-name="uni042E" unicode="&#x42e;" horiz-adv-x="1570" 
d="M788 700h610q87 0 125.5 -46.5t22.5 -133.5l-64 -360q-16 -89 -58 -124.5t-130 -35.5h-610q-87 0 -125.5 46.5t-22.5 133.5l31 172h-431l-62 -352h-40l124 700h40l-55 -312h430l27 152q16 89 58 124.5t130 35.5zM1443 168l62 352q13 74 -15.5 109t-102.5 35h-594
q-74 0 -107.5 -29t-46.5 -103l-62 -352q-13 -74 15.5 -109t102.5 -35h594q74 0 107.5 29t46.5 103z" />
    <glyph glyph-name="uni042F" unicode="&#x42f;" horiz-adv-x="1050" 
d="M290 700h758l-124 -700h-40l53 300h-544l-342 -300h-59l344 300h-98q-160 0 -132 160l17 98q13 80 50 112q36 30 117 30zM248 336h696l57 328h-710q-65 0 -90 -22q-26 -23 -38 -88l-17 -94q-12 -67 11.5 -95.5t90.5 -28.5z" />
    <glyph glyph-name="uni0430" unicode="&#x430;" horiz-adv-x="946" 
d="M258 520h500q159 0 130 -158l-64 -362h-30l7 82l-60 -36q-52 -30 -85 -37q-36 -9 -100 -9h-404q-60 0 -88 34t-17 94l9 48q12 62 41 87t90 25h648l13 74q12 68 -10.5 95t-90.5 27h-488q-49 0 -71 -18.5t-30 -67.5l-6 -34h-40l7 38q12 65 43.5 91.5t95.5 26.5zM730 79
l76 46l17 95l6 32h-640q-46 0 -67 -17.5t-28 -62.5l-7 -44q-8 -49 10 -70.5t66 -21.5h408q89 0 159 43z" />
    <glyph glyph-name="uni0431" unicode="&#x431;" horiz-adv-x="950" 
d="M933 674l-628 -20q-75 -2 -108 -30t-46 -100l-19 -106q34 40 105 40h542q64 0 94 -35.5t18 -100.5l-37 -204q-12 -65 -43.5 -91.5t-95.5 -26.5h-555q-64 0 -93.5 35.5t-18.5 100.5l69 392q17 89 59 124q43 35 132 38l632 20zM769 422h-544q-48 0 -71.5 -21.5t-31.5 -72.5
l-34 -192q-18 -100 83 -100h543q48 0 69.5 18.5t30.5 67.5l37 200q18 100 -82 100z" />
    <glyph glyph-name="uni0432" unicode="&#x432;" horiz-adv-x="934" 
d="M126 520h678q48 0 70 -27t13 -75l-11 -61q-12 -66 -56 -83q52 -21 40 -93l-16 -91q-8 -48 -32.5 -69t-72.5 -21h-705l47 267zM836 359l10 55q7 37 -7 53.5t-52 16.5h-628l-33 -192h632q37 0 54 14.5t24 52.5zM805 102l15 84q7 38 -6.5 54t-50.5 16h-644l-38 -220h648
q37 0 53 14t23 52z" />
    <glyph glyph-name="uni0433" unicode="&#x433;" horiz-adv-x="792" 
d="M74 0h-40l92 520h692l-7 -36h-652z" />
    <glyph glyph-name="uni0434" unicode="&#x434;" horiz-adv-x="962" 
d="M215 520h703l-85 -484h70l-28 -156h-40l22 120h-842l-21 -120h-40l27 156h21q55 0 80 21t39 77zM108 36h685l79 448h-625l-88 -355q-15 -63 -51 -93z" />
    <glyph glyph-name="uni0435" unicode="&#x435;" horiz-adv-x="940" 
d="M258 520h500q79 0 110.5 -38t18.5 -118l-16 -97h-758l-20 -111q-12 -67 9.5 -93.5t88.5 -26.5h512q48 0 70 19.5t32 68.5l9 46h40l-10 -50q-13 -66 -44 -93t-94 -27h-524q-156 0 -129 158l38 220q13 80 50 112q36 30 117 30zM131 372l-12 -69h718l10 61q11 67 -10.5 93.5
t-87.5 26.5h-488q-64 0 -92 -23q-27 -24 -38 -89z" />
    <glyph glyph-name="uni0436" unicode="&#x436;" horiz-adv-x="1508" 
d="M1432 520h108l-688 -261l600 -259h-98l-581 252l-45 -252h-40l45 252l-659 -252h-110l692 263l-596 257h96l579 -252l45 252h40l-45 -252z" />
    <glyph glyph-name="uni0437" unicode="&#x437;" horiz-adv-x="940" 
d="M211 520h597q48 0 70 -27t13 -75l-11 -61q-14 -67 -60 -84q48 -24 36 -92l-16 -91q-8 -48 -32.5 -69t-72.5 -21h-610q-48 0 -70 27t-13 75l9 48h40l-8 -44q-7 -37 7 -53.5t52 -16.5h583q37 0 53 14t23 52l15 84q7 38 -6.5 54t-50.5 16h-440l7 36h436q37 0 54 14.5
t24 52.5l10 55q7 37 -7 53.5t-52 16.5h-570q-36 0 -52 -13.5t-24 -52.5l-8 -42h-40l9 54q8 48 32.5 69t72.5 21z" />
    <glyph glyph-name="uni0438" unicode="&#x438;" horiz-adv-x="974" 
d="M84 55l822 465h34l-92 -520h-40l83 468l-827 -468h-30l92 520h40z" />
    <glyph glyph-name="uni0439" unicode="&#x439;" horiz-adv-x="974" 
d="M705 580h-268q-35 0 -51 19.5t-9 53.5l9 47h38l-9 -47q-7 -37 31 -37h261q36 0 42 36l9 48h38l-9 -51q-7 -37 -25.5 -53t-56.5 -16zM84 55l822 465h34l-92 -520h-40l83 468l-827 -468h-30l92 520h40z" />
    <glyph glyph-name="uni043A" unicode="&#x43a;" horiz-adv-x="854" 
d="M778 520h108l-688 -261l600 -259h-98l-581 252l-45 -252h-40l92 520h40l-45 -252z" />
    <glyph glyph-name="uni043B" unicode="&#x43b;" horiz-adv-x="962" 
d="M19 0h-45l7 36h31q55 0 80 21t39 77l94 386h703l-92 -520h-40l85 484h-625l-88 -361q-16 -63 -51.5 -93t-97.5 -30z" />
    <glyph glyph-name="uni043C" unicode="&#x43c;" horiz-adv-x="1060" 
d="M74 0h-40l92 520h32l350 -366l480 366h38l-92 -520h-40l83 469l-460 -351h-24l-336 351z" />
    <glyph glyph-name="uni043D" unicode="&#x43d;" horiz-adv-x="960" 
d="M845 288l41 232h40l-92 -520h-40l45 252h-720l-45 -252h-40l92 520h40l-41 -232h720z" />
    <glyph glyph-name="uni043E" unicode="&#x43e;" horiz-adv-x="950" 
d="M694 0h-508q-79 0 -113 41t-20 121l38 218q13 80 49 111q35 29 116 29h508q79 0 113 -41t20 -121l-38 -218q-13 -81 -49 -110q-34 -30 -116 -30zM197 36h494q67 0 92 22q27 24 37 88l37 212q12 67 -12.5 96.5t-91.5 29.5h-494q-67 0 -92 -22q-27 -24 -37 -88l-37 -212
q-12 -67 12.5 -96.5t91.5 -29.5z" />
    <glyph glyph-name="uni043F" unicode="&#x43f;" horiz-adv-x="960" 
d="M74 0h-40l92 520h800l-92 -520h-40l85 484h-720z" />
    <glyph glyph-name="uni0440" unicode="&#x440;" horiz-adv-x="960" 
d="M410 520h368q159 0 130 -158l-39 -220q-13 -81 -50 -111q-35 -31 -117 -31h-376q-78 0 -119 10q-43 9 -84 42l-35 28l-42 -240h-40l120 680h30l-7 -81l48 29q51 32 97 43q44 9 116 9zM829 144l38 216q12 67 -11 95.5t-90 28.5h-370q-109 0 -188 -49l-64 -40l-30 -170
l-18 -104l50 -40q56 -45 179 -45h378q65 0 90 22q25 21 36 86z" />
    <glyph glyph-name="uni0441" unicode="&#x441;" horiz-adv-x="930" 
d="M674 0h-488q-79 0 -113 41t-20 121l38 218q13 80 49 111q35 29 116 29h488q156 0 133 -162l-3 -21h-40l3 21q10 68 -14 97t-90 29h-474q-67 0 -92 -22q-27 -24 -37 -88l-37 -212q-12 -67 12.5 -96.5t91.5 -29.5h474q67 0 92 22q27 24 37 88l8 47h40l-9 -53
q-13 -81 -49 -110q-34 -30 -116 -30z" />
    <glyph glyph-name="uni0442" unicode="&#x442;" horiz-adv-x="840" 
d="M439 484h-380l7 36h800l-7 -36h-380l-85 -484h-40z" />
    <glyph glyph-name="uni0443" unicode="&#x443;" horiz-adv-x="898" 
d="M407 38l474 482h53l-545 -552q-76 -77 -128 -104q-49 -24 -146 -24h-129l6 36h141q73 0 114 19t100 81l33 34l-324 510h47z" />
    <glyph glyph-name="uni0444" unicode="&#x444;" horiz-adv-x="1306" 
d="M719 520h401q79 0 113 -41t20 -121l-38 -218q-13 -81 -49 -110q-34 -30 -116 -30h-423l-28 -160h-40l28 160h-401q-79 0 -113 41t-20 121l38 218q13 80 49 111q35 29 116 29h423l32 180h40zM197 36h397l79 448h-414q-67 0 -92 -22q-27 -24 -37 -88l-37 -212
q-12 -67 12.5 -96.5t91.5 -29.5zM1176 146l37 212q12 67 -12.5 96.5t-91.5 29.5h-396l-79 -448h413q67 0 92 22q27 24 37 88z" />
    <glyph glyph-name="uni0445" unicode="&#x445;" horiz-adv-x="882" 
d="M39 0h-75l445 265l-343 255h67l310 -232l390 232h75l-433 -255l351 -265h-67l-318 241z" />
    <glyph glyph-name="uni0446" unicode="&#x446;" horiz-adv-x="970" 
d="M865 0h-830l91 520h40l-85 -484h720l85 484h40l-85 -484h70l-28 -156h-40z" />
    <glyph glyph-name="uni0447" unicode="&#x447;" horiz-adv-x="904" 
d="M86 521l40 -1l-29 -162q-9 -50 10 -73t69 -23h608l46 258h40l-92 -520h-40l40 226h-610q-64 0 -92.5 34.5t-17.5 99.5z" />
    <glyph glyph-name="uni0448" unicode="&#x448;" horiz-adv-x="1420" 
d="M1294 0h-1260l92 520h40l-85 -484h570l85 484h40l-85 -484h570l85 484h40z" />
    <glyph glyph-name="uni0449" unicode="&#x449;" horiz-adv-x="1450" 
d="M1345 0h-1310l91 520h40l-85 -484h580l85 484h40l-85 -484h580l85 484h40l-85 -484h70l-28 -156h-40z" />
    <glyph glyph-name="uni044A" unicode="&#x44a;" horiz-adv-x="1044" 
d="M259 484h-200l7 36h240l-37 -210h614q63 0 90.5 -33.5t16.5 -96.5l-11 -64q-11 -63 -42.5 -89.5t-94.5 -26.5h-668zM262 274l-41 -238h620q47 0 69 18.5t30 65.5l10 60q8 50 -10 72t-68 22h-610z" />
    <glyph glyph-name="uni044B" unicode="&#x44b;" horiz-adv-x="1112" 
d="M34 0l92 520h40l-37 -210h614q63 0 90.5 -33.5t16.5 -96.5l-11 -64q-11 -63 -42.5 -89.5t-94.5 -26.5h-668zM982 0h-40l92 520h40zM732 274h-610l-41 -238h620q47 0 69 18.5t30 65.5l10 60q8 50 -10 72t-68 22z" />
    <glyph glyph-name="uni044C" unicode="&#x44c;" horiz-adv-x="904" 
d="M34 0l92 520h40l-37 -210h614q63 0 90.5 -33.5t16.5 -96.5l-11 -64q-11 -63 -42.5 -89.5t-94.5 -26.5h-668zM732 274h-610l-41 -238h620q47 0 69 18.5t30 65.5l10 60q8 50 -10 72t-68 22z" />
    <glyph glyph-name="uni044D" unicode="&#x44d;" horiz-adv-x="950" 
d="M256 520h508q79 0 113 -41t20 -121l-38 -218q-13 -81 -49 -110q-34 -30 -116 -30h-508q-158 0 -133 162l5 31h40l-5 -31q-11 -67 13.5 -96.5t90.5 -29.5h494q67 0 92 22q27 24 37 88l20 112h-518l6 36h518l11 64q12 67 -12.5 96.5t-91.5 29.5h-494q-67 0 -92 -22
q-27 -22 -37 -88l-6 -37h-40l7 43q14 81 49 111q35 29 116 29z" />
    <glyph glyph-name="uni044E" unicode="&#x44e;" horiz-adv-x="1354" 
d="M660 520h508q79 0 113 -41t20 -121l-38 -218q-13 -81 -49 -110q-34 -30 -116 -30h-508q-79 0 -113 41t-20 121l16 90h-354l-45 -252h-40l92 520h40l-41 -232h354l16 92q13 80 49 111q35 29 116 29zM1224 146l37 212q12 67 -12.5 96.5t-91.5 29.5h-494q-67 0 -92 -22
q-27 -24 -37 -88l-37 -212q-12 -67 12.5 -96.5t91.5 -29.5h494q67 0 92 22q27 24 37 88z" />
    <glyph glyph-name="uni044F" unicode="&#x44f;" horiz-adv-x="932" 
d="M230 520h668l-92 -520h-40l39 220h-506l-249 -220h-58l251 220h-53q-63 0 -91 33.5t-16 96.5l10 54q12 63 43 89.5t94 26.5zM200 256h611l40 228h-620q-47 0 -68.5 -18.5t-29.5 -65.5l-9 -50q-9 -50 8.5 -72t67.5 -22z" />
    <glyph glyph-name="uni0451" unicode="&#x451;" horiz-adv-x="940" 
d="M400 660h40l-10 -60h-40zM640 660h40l-10 -60h-40zM258 520h500q79 0 110.5 -38t18.5 -118l-16 -97h-758l-20 -111q-12 -67 9.5 -93.5t88.5 -26.5h512q48 0 70 19.5t32 68.5l9 46h40l-10 -50q-13 -66 -44 -93t-94 -27h-524q-156 0 -129 158l38 220q13 80 50 112
q36 30 117 30zM131 372l-12 -69h718l10 61q11 67 -10.5 93.5t-87.5 26.5h-488q-64 0 -92 -23q-27 -24 -38 -89z" />
    <glyph glyph-name="uni0453" unicode="&#x453;" horiz-adv-x="792" 
d="M701 700l-218 -120h-58l208 120h68zM74 0h-40l92 520h692l-7 -36h-652z" />
    <glyph glyph-name="uni0455" unicode="&#x455;" horiz-adv-x="930" 
d="M44 112l6 37h40l-6 -37q-12 -76 63 -76h568q35 0 53 15.5t24 50.5l11 64q7 39 -7.5 58t-52.5 21l-551 30q-109 7 -90 110l7 36q10 52 38 75.5t78 23.5h555q51 0 77 -30.5t16 -81.5l-7 -34h-40l6 35q12 75 -62 75h-544q-35 0 -53 -15.5t-25 -51.5l-5 -27q-13 -75 60 -79
l551 -30q52 -3 76 -32t14 -80l-13 -72q-9 -51 -36 -74t-78 -23h-581q-50 0 -75 30t-17 82z" />
    <glyph glyph-name="uni0456" unicode="&#x456;" horiz-adv-x="208" 
d="M191 640h-40l11 60h40zM78 0h-40l92 520h40z" />
    <glyph glyph-name="uni0457" unicode="&#x457;" horiz-adv-x="208" 
d="M64 600h-40l10 60h40zM304 600h-40l10 60h40zM78 0h-40l92 520h40z" />
    <glyph glyph-name="uni0458" unicode="&#x458;" horiz-adv-x="308" 
d="M291 640h-40l11 60h40zM32 -160h-230l7 36h222q50 0 71 18t30 68l98 558h40l-99 -562q-11 -65 -43 -91.5t-96 -26.5z" />
    <glyph glyph-name="uni045C" unicode="&#x45c;" horiz-adv-x="854" 
d="M664 700h68l-218 -120h-58zM778 520h108l-688 -261l600 -259h-98l-581 252l-45 -252h-40l92 520h40l-45 -252z" />
    <glyph glyph-name="uni045E" unicode="&#x45e;" horiz-adv-x="898" 
d="M687 580h-268q-35 0 -51 19.5t-9 53.5l9 47h38l-9 -47q-7 -37 31 -37h261q36 0 42 36l9 48h38l-9 -51q-7 -37 -25.5 -53t-56.5 -16zM407 38l474 482h53l-545 -552q-76 -77 -128 -104q-49 -24 -146 -24h-129l6 36h141q73 0 114 19t100 81l33 34l-324 510h47z" />
    <glyph glyph-name="uni0498" unicode="&#x498;" horiz-adv-x="1070" 
d="M274 700h656q64 0 94 -36.5t19 -101.5l-15 -86q-8 -49 -26.5 -74.5t-52.5 -35.5q63 -32 48 -124l-22 -126q-11 -65 -42 -90.5t-95 -25.5h-340l-21 -38h108q52 0 43 -52l-4 -22q-5 -28 -17 -38t-40 -10h-232l6 34h228q10 0 13.5 3t5.5 13l4 20q4 18 -15 18h-146l2 14
l33 58h-304q-64 0 -94 36.5t-19 101.5l13 74h40l-13 -74q-18 -102 84 -102h664q49 0 69 17.5t29 66.5l23 130q18 102 -84 102h-508l7 36h516q49 0 69 17.5t29 66.5l16 90q18 102 -84 102h-644q-49 0 -69 -17.5t-29 -66.5l-15 -84h-40l15 88q11 65 42 90.5t95 25.5z" />
    <glyph glyph-name="uni0499" unicode="&#x499;" horiz-adv-x="940" 
d="M211 520h597q48 0 70 -27t13 -75l-11 -61q-14 -67 -60 -84q48 -24 36 -92l-16 -91q-8 -48 -32.5 -69t-72.5 -21h-302l-21 -38h108q52 0 43 -52l-4 -22q-5 -28 -17 -38t-40 -10h-232l6 34h228q10 0 13.5 3t5.5 13l4 20q5 18 -15 18h-146l2 14l33 58h-276q-48 0 -70 27
t-13 75l9 48h40l-8 -44q-7 -37 7 -53.5t52 -16.5h583q37 0 53 14t23 52l15 84q7 38 -6.5 54t-50.5 16h-440l7 36h436q37 0 54 14.5t24 52.5l10 55q7 37 -7 53.5t-52 16.5h-570q-36 0 -52 -13.5t-24 -52.5l-8 -42h-40l9 54q8 48 32.5 69t72.5 21z" />
    <glyph glyph-name="uni04BB" unicode="&#x4bb;" horiz-adv-x="956" 
d="M406 520h358q79 0 113 -41t20 -121l-63 -358h-40l63 358q12 67 -12 96.5t-91 29.5h-358q-111 0 -188 -47l-64 -40l-70 -397h-40l124 700h40l-46 -257l41 25q51 32 97 43q44 9 116 9z" />
    <glyph glyph-name="uni04C0" unicode="&#x4c0;" horiz-adv-x="212" 
d="M40 0l124 700h40l-124 -700h-40z" />
    <glyph glyph-name="uni04C1" unicode="&#x4c1;" horiz-adv-x="1712" 
d="M1126 760h-268q-35 0 -51 19.5t-9 53.5l9 47h38l-9 -47q-7 -37 31 -37h261q36 0 42 36l9 48h38l-9 -51q-7 -37 -25.5 -53t-56.5 -16zM1677 700h99l-818 -344l698 -356h-89l-675 349l-62 -349h-40l62 352l-791 -352h-97l826 362l-698 338h91l673 -329l58 329h40l-59 -333z
" />
    <glyph glyph-name="uni04C2" unicode="&#x4c2;" horiz-adv-x="1508" 
d="M992 580h-268q-35 0 -51 19.5t-9 53.5l9 47h38l-9 -47q-7 -37 31 -37h261q36 0 42 36l9 48h38l-9 -51q-7 -37 -25.5 -53t-56.5 -16zM1432 520h108l-688 -261l600 -259h-98l-581 252l-45 -252h-40l45 252l-659 -252h-110l692 263l-596 257h96l579 -252l45 252h40l-45 -252
z" />
    <glyph glyph-name="uni04D0" unicode="&#x4d0;" horiz-adv-x="1072" 
d="M806 760h-268q-35 0 -51 19.5t-9 53.5l9 47h38l-9 -47q-7 -37 31 -37h261q36 0 42 36l9 48h38l-9 -51q-7 -37 -25.5 -53t-56.5 -16zM633 700l393 -700h-42l-117 208v-1h-678l-189 -207h-46l641 700h38zM609 666l-387 -423h625z" />
    <glyph glyph-name="uni04D1" unicode="&#x4d1;" horiz-adv-x="946" 
d="M711 580h-268q-35 0 -51 19.5t-9 53.5l9 47h38l-9 -47q-7 -37 31 -37h261q36 0 42 36l9 48h38l-9 -51q-7 -37 -25.5 -53t-56.5 -16zM258 520h500q159 0 130 -158l-64 -362h-30l7 82l-60 -36q-52 -30 -85 -37q-36 -9 -100 -9h-404q-60 0 -88 34t-17 94l9 48q12 62 41 87
t90 25h648l13 74q12 68 -10.5 95t-90.5 27h-488q-49 0 -71 -18.5t-30 -67.5l-6 -34h-40l7 38q12 65 43.5 91.5t95.5 26.5zM730 79l76 46l17 95l6 32h-640q-46 0 -67 -17.5t-28 -62.5l-7 -44q-8 -49 10 -70.5t66 -21.5h408q89 0 159 43z" />
    <glyph glyph-name="uni04D2" unicode="&#x4d2;" horiz-adv-x="1072" 
d="M498 840h40l-10 -60h-40zM738 840h40l-10 -60h-40zM633 700l393 -700h-42l-117 208v-1h-678l-189 -207h-46l641 700h38zM609 666l-387 -423h625z" />
    <glyph glyph-name="uni04D3" unicode="&#x4d3;" horiz-adv-x="946" 
d="M403 660h40l-10 -60h-40zM643 660h40l-10 -60h-40zM258 520h500q159 0 130 -158l-64 -362h-30l7 82l-60 -36q-52 -30 -85 -37q-36 -9 -100 -9h-404q-60 0 -88 34t-17 94l9 48q12 62 41 87t90 25h648l13 74q12 68 -10.5 95t-90.5 27h-488q-49 0 -71 -18.5t-30 -67.5
l-6 -34h-40l7 38q12 65 43.5 91.5t95.5 26.5zM730 79l76 46l17 95l6 32h-640q-46 0 -67 -17.5t-28 -62.5l-7 -44q-8 -49 10 -70.5t66 -21.5h408q89 0 159 43z" />
    <glyph glyph-name="uni04D4" unicode="&#x4d4;" horiz-adv-x="1570" 
d="M1598 700l-7 -36h-938l155 -276h695l-7 -36h-668l178 -316h485l-7 -36h-500l-117 207h-678l-189 -207h-46l641 700h1003zM609 666l-387 -423h625z" />
    <glyph glyph-name="uni04D5" unicode="&#x4d5;" horiz-adv-x="1700" 
d="M1018 520h500q80 0 111 -38t18 -120l-16 -95h-758l-20 -111q-12 -67 9.5 -93.5t88.5 -26.5h512q48 0 70 19.5t32 68.5l9 46h40l-10 -52q-12 -64 -43.5 -91t-94.5 -27h-523q-119 0 -132 88l-70 -42q-52 -30 -85 -37q-36 -9 -100 -9h-404q-60 0 -88 34t-17 94l9 48
q12 62 41 87t90 25h648l13 74q12 68 -10.5 95t-90.5 27h-488q-49 0 -71 -18.5t-30 -67.5l-6 -34h-40l7 38q12 65 43.5 91.5t95.5 26.5h500q101 0 122 -63q18 35 49 49t89 14zM891 372l-12 -69h718l10 61q11 67 -10.5 93.5t-87.5 26.5h-488q-67 0 -92 -22q-26 -23 -38 -90z
M730 79l76 46l23 127h-640q-46 0 -67 -17.5t-28 -62.5l-7 -44q-8 -49 10 -70.5t66 -21.5h408q89 0 159 43z" />
    <glyph glyph-name="uni04D6" unicode="&#x4d6;" horiz-adv-x="970" 
d="M755 760h-268q-35 0 -51 19.5t-9 53.5l9 47h38l-9 -47q-7 -37 31 -37h261q36 0 42 36l9 48h38l-9 -51q-7 -37 -25.5 -53t-56.5 -16zM998 700l-7 -36h-799l-49 -276h760l-7 -36h-760l-56 -316h811l-7 -36h-850l124 700h840z" />
    <glyph glyph-name="uni04D7" unicode="&#x4d7;" horiz-adv-x="940" 
d="M708 580h-268q-35 0 -51 19.5t-9 53.5l9 47h38l-9 -47q-7 -37 31 -37h261q36 0 42 36l9 48h38l-9 -51q-7 -37 -25.5 -53t-56.5 -16zM258 520h500q79 0 110.5 -38t18.5 -118l-16 -97h-758l-20 -111q-12 -67 9.5 -93.5t88.5 -26.5h512q48 0 70 19.5t32 68.5l9 46h40
l-10 -50q-13 -66 -44 -93t-94 -27h-524q-156 0 -129 158l38 220q13 80 50 112q36 30 117 30zM131 372l-12 -69h718l10 61q11 67 -10.5 93.5t-87.5 26.5h-488q-64 0 -92 -23q-27 -24 -38 -89z" />
    <glyph glyph-name="uni04DC" unicode="&#x4dc;" horiz-adv-x="1712" 
d="M818 840h40l-10 -60h-40zM1058 840h40l-10 -60h-40zM1677 700h99l-818 -344l698 -356h-89l-675 349l-62 -349h-40l62 352l-791 -352h-97l826 362l-698 338h91l673 -329l58 329h40l-59 -333z" />
    <glyph glyph-name="uni04DD" unicode="&#x4dd;" horiz-adv-x="1508" 
d="M684 660h40l-10 -60h-40zM924 660h40l-10 -60h-40zM1432 520h108l-688 -261l600 -259h-98l-581 252l-45 -252h-40l45 252l-659 -252h-110l692 263l-596 257h96l579 -252l45 252h40l-45 -252z" />
    <glyph glyph-name="uni04DE" unicode="&#x4de;" horiz-adv-x="1070" 
d="M497 840h40l-10 -60h-40zM737 840h40l-10 -60h-40zM274 700h656q64 0 94 -36.5t19 -101.5l-15 -86q-8 -49 -26.5 -74.5t-52.5 -35.5q63 -32 48 -124l-22 -126q-11 -65 -42 -90.5t-95 -25.5h-676q-64 0 -94 36.5t-19 101.5l13 74h40l-13 -74q-18 -102 84 -102h664
q49 0 69 17.5t29 66.5l23 130q18 102 -84 102h-508l7 36h516q49 0 69 17.5t29 66.5l16 90q18 102 -84 102h-644q-49 0 -69 -17.5t-29 -66.5l-15 -84h-40l15 88q11 65 42 90.5t95 25.5z" />
    <glyph glyph-name="uni04DF" unicode="&#x4df;" horiz-adv-x="940" 
d="M400 660h40l-10 -60h-40zM640 660h40l-10 -60h-40zM211 520h597q48 0 70 -27t13 -75l-11 -61q-14 -67 -60 -84q48 -24 36 -92l-16 -91q-8 -48 -32.5 -69t-72.5 -21h-610q-48 0 -70 27t-13 75l9 48h40l-8 -44q-7 -37 7 -53.5t52 -16.5h583q37 0 53 14t23 52l15 84
q7 38 -6.5 54t-50.5 16h-440l7 36h436q37 0 54 14.5t24 52.5l10 55q7 37 -7 53.5t-52 16.5h-570q-36 0 -52 -13.5t-24 -52.5l-8 -42h-40l9 54q8 48 32.5 69t72.5 21z" />
    <glyph glyph-name="uni04E2" unicode="&#x4e2;" horiz-adv-x="1100" 
d="M423 840h440l-6 -36h-440zM85 59l979 641h34l-124 -700h-40l114 644l-984 -644h-30l124 700h40z" />
    <glyph glyph-name="uni04E3" unicode="&#x4e3;" horiz-adv-x="974" 
d="M318 660h440l-6 -36h-440zM84 55l822 465h34l-92 -520h-40l83 468l-827 -468h-30l92 520h40z" />
    <glyph glyph-name="uni04E4" unicode="&#x4e4;" horiz-adv-x="1100" 
d="M502 840h40l-10 -60h-40zM742 840h40l-10 -60h-40zM85 59l979 641h34l-124 -700h-40l114 644l-984 -644h-30l124 700h40z" />
    <glyph glyph-name="uni04E5" unicode="&#x4e5;" horiz-adv-x="974" 
d="M397 660h40l-10 -60h-40zM637 660h40l-10 -60h-40zM84 55l822 465h34l-92 -520h-40l83 468l-827 -468h-30l92 520h40z" />
    <glyph glyph-name="uni04E6" unicode="&#x4e6;" horiz-adv-x="1090" 
d="M537 780h-40l10 60h40zM777 780h-40l10 60h40zM814 0h-610q-87 0 -125.5 46.5t-22.5 133.5l64 360q16 89 58 124.5t130 35.5h610q87 0 125.5 -46.5t22.5 -133.5l-64 -360q-16 -89 -58 -124.5t-130 -35.5zM215 36h594q74 0 107.5 29t46.5 103l62 352q13 74 -15.5 109
t-102.5 35h-594q-74 0 -107.5 -29t-46.5 -103l-62 -352q-13 -74 15.5 -109t102.5 -35z" />
    <glyph glyph-name="uni04E7" unicode="&#x4e7;" horiz-adv-x="950" 
d="M435 600h-40l10 60h40zM675 600h-40l10 60h40zM694 0h-508q-79 0 -113 41t-20 121l38 218q13 80 49 111q35 29 116 29h508q79 0 113 -41t20 -121l-38 -218q-13 -81 -49 -110q-34 -30 -116 -30zM197 36h494q67 0 92 22q27 24 37 88l37 212q12 67 -12.5 96.5t-91.5 29.5
h-494q-67 0 -92 -22q-27 -24 -37 -88l-37 -212q-12 -67 12.5 -96.5t91.5 -29.5z" />
    <glyph glyph-name="uni04EC" unicode="&#x4ec;" horiz-adv-x="1076" 
d="M500 840h40l-10 -60h-40zM740 840h40l-10 -60h-40zM304 700h600q87 0 125.5 -46.5t22.5 -133.5l-64 -360q-16 -89 -58 -124.5t-130 -35.5h-600q-87 0 -125.5 46.5t-22.5 133.5l11 60h41l-11 -60q-13 -74 15.5 -109t102.5 -35h584q74 0 107.5 29t46.5 103l32 180h-599
l6 36h599l24 136q13 74 -15.5 109t-102.5 35h-584q-74 0 -108 -29t-47 -103l-11 -62h-40l13 70q17 89 59 125q41 35 129 35z" />
    <glyph glyph-name="uni04ED" unicode="&#x4ed;" horiz-adv-x="950" 
d="M405 660h40l-10 -60h-40zM645 660h40l-10 -60h-40zM256 520h508q79 0 113 -41t20 -121l-38 -218q-13 -81 -49 -110q-34 -30 -116 -30h-508q-158 0 -133 162l5 31h40l-5 -31q-11 -67 13.5 -96.5t90.5 -29.5h494q67 0 92 22q27 24 37 88l20 112h-518l6 36h518l11 64
q12 67 -12.5 96.5t-91.5 29.5h-494q-67 0 -92 -22q-27 -22 -37 -88l-6 -37h-40l7 43q14 81 49 111q35 29 116 29z" />
    <glyph glyph-name="uni04EE" unicode="&#x4ee;" horiz-adv-x="996" 
d="M381 840h440l-6 -36h-440zM494 256l523 444h57l-822 -700h-58l269 231l-385 469h51z" />
    <glyph glyph-name="uni04EF" unicode="&#x4ef;" horiz-adv-x="898" 
d="M300 660h440l-6 -36h-440zM407 38l474 482h53l-545 -552q-76 -77 -128 -104q-49 -24 -146 -24h-129l6 36h141q73 0 114 19t100 81l33 34l-324 510h47z" />
    <glyph glyph-name="uni04F0" unicode="&#x4f0;" horiz-adv-x="996" 
d="M460 840h40l-10 -60h-40zM700 840h40l-10 -60h-40zM494 256l523 444h57l-822 -700h-58l269 231l-385 469h51z" />
    <glyph glyph-name="uni04F1" unicode="&#x4f1;" horiz-adv-x="898" 
d="M379 660h40l-10 -60h-40zM619 660h40l-10 -60h-40zM407 38l474 482h53l-545 -552q-76 -77 -128 -104q-49 -24 -146 -24h-129l6 36h141q73 0 114 19t100 81l33 34l-324 510h47z" />
    <glyph glyph-name="uni04F2" unicode="&#x4f2;" horiz-adv-x="996" 
d="M609 880h62l-172 -120h-52zM887 880l-172 -120h-52l162 120h62zM494 256l523 444h57l-822 -700h-58l269 231l-385 469h51z" />
    <glyph glyph-name="uni04F3" unicode="&#x4f3;" horiz-adv-x="898" 
d="M528 700h62l-172 -120h-52zM806 700l-172 -120h-52l162 120h62zM407 38l474 482h53l-545 -552q-76 -77 -128 -104q-49 -24 -146 -24h-129l6 36h141q73 0 114 19t100 81l33 34l-324 510h47z" />
    <glyph glyph-name="uni04F4" unicode="&#x4f4;" horiz-adv-x="1040" 
d="M512 780h-40l10 60h40zM752 780h-40l10 60h40zM914 0h-40l53 300h-720q-159 0 -131 160l42 240h40l-42 -240q-12 -67 11.5 -95.5t90.5 -28.5h716l64 364h40z" />
    <glyph glyph-name="uni04F5" unicode="&#x4f5;" horiz-adv-x="600" 
d="M181 600h-40l10 60h40zM421 600h-40l10 60h40zM86 521l40 -1l-29 -162q-9 -50 10 -73t69 -23h608l46 258h40l-92 -520h-40l40 226h-610q-64 0 -92.5 34.5t-17.5 99.5z" />
    <glyph glyph-name="uni04F8" unicode="&#x4f8;" horiz-adv-x="1232" 
d="M1118 780h-40l10 60h40zM1358 780h-40l10 60h40zM34 0l124 700h40l-50 -280h700q160 0 132 -160l-21 -118q-13 -81 -50 -111q-35 -31 -117 -31h-758zM1060 0l124 700h40l-124 -700h-40zM838 384h-696l-61 -348h710q66 0 91 22t37 88l21 114q12 67 -11.5 95.5t-90.5 28.5z
" />
    <glyph glyph-name="uni04F9" unicode="&#x4f9;" horiz-adv-x="1112" 
d="M968 600h-40l10 60h40zM1208 600h-40l10 60h40zM34 0l92 520h40l-37 -210h614q63 0 90.5 -33.5t16.5 -96.5l-11 -64q-11 -63 -42.5 -89.5t-94.5 -26.5h-668zM982 0h-40l92 520h40zM732 274h-610l-41 -238h620q47 0 69 18.5t30 65.5l10 60q8 50 -10 72t-68 22z" />
    <glyph glyph-name="Wgrave" unicode="&#x1e80;" horiz-adv-x="1450" 
d="M672 880l164 -120h-50l-174 120h60zM1028 49l454 651h46l-487 -700h-37l-210 646l-438 -646h-39l-239 700h42l224 -652l439 652h36z" />
    <glyph glyph-name="wgrave" unicode="&#x1e81;" horiz-adv-x="1242" 
d="M532 700l164 -120h-50l-174 120h60zM870 46l360 474h48l-397 -520h-35l-188 470l-356 -470h-33l-213 520h44l192 -474l357 474h32z" />
    <glyph glyph-name="Wacute" unicode="&#x1e82;" horiz-adv-x="1450" 
d="M994 880h68l-218 -120h-58zM1028 49l454 651h46l-487 -700h-37l-210 646l-438 -646h-39l-239 700h42l224 -652l439 652h36z" />
    <glyph glyph-name="wacute" unicode="&#x1e83;" horiz-adv-x="1242" 
d="M854 700h68l-218 -120h-58zM870 46l360 474h48l-397 -520h-35l-188 470l-356 -470h-33l-213 520h44l192 -474l357 474h32z" />
    <glyph glyph-name="Wdieresis" unicode="&#x1e84;" horiz-adv-x="1450" 
d="M687 840h40l-10 -60h-40zM927 840h40l-10 -60h-40zM1028 49l454 651h46l-487 -700h-37l-210 646l-438 -646h-39l-239 700h42l224 -652l439 652h36z" />
    <glyph glyph-name="wdieresis" unicode="&#x1e85;" horiz-adv-x="1242" 
d="M547 660h40l-10 -60h-40zM787 660h40l-10 -60h-40zM870 46l360 474h48l-397 -520h-35l-188 470l-356 -470h-33l-213 520h44l192 -474l357 474h32z" />
    <glyph glyph-name="uni1E9E" unicode="&#x1e9e;" horiz-adv-x="1086" 
d="M309 700h743l-5 -26l-528 -276h389q64 0 93.5 -35.5t18.5 -100.5l-25 -146q-11 -65 -42 -90.5t-95 -25.5h-530l7 36h522q49 0 69.5 17.5t28.5 66.5l25 142q9 52 -10.5 76t-71.5 24h-486l5 26l535 276h-642q-73 0 -106 -27.5t-46 -100.5l-93 -536h-40l94 540
q16 89 59 124.5t131 35.5z" />
    <glyph glyph-name="Ygrave" unicode="&#x1ef2;" horiz-adv-x="996" 
d="M445 880l164 -120h-50l-174 120h60zM1014 700h60l-556 -439l-46 -261h-40l46 261l-400 439h54l370 -409z" />
    <glyph glyph-name="ygrave" unicode="&#x1ef3;" horiz-adv-x="898" 
d="M364 700l164 -120h-50l-174 120h60zM407 38l474 482h53l-545 -552q-76 -77 -128 -104q-49 -24 -146 -24h-129l6 36h141q73 0 114 19t100 81l33 34l-324 510h47z" />
    <glyph glyph-name="endash" unicode="&#x2013;" horiz-adv-x="940" 
d="M73 332l6 36h820l-6 -36h-820z" />
    <glyph glyph-name="emdash" unicode="&#x2014;" horiz-adv-x="1220" 
d="M73 332l6 36h1100l-6 -36h-1100z" />
    <glyph glyph-name="quoteleft" unicode="&#x2018;" horiz-adv-x="220" 
d="M199 700h30l-63 -160h23l-10 -60h-60l6 35q5 23 12 42z" />
    <glyph glyph-name="quoteright" unicode="&#x2019;" horiz-adv-x="220" 
d="M137 480h-30l63 160h-23l10 60h60l-6 -35q-5 -23 -12 -42z" />
    <glyph glyph-name="quotesinglbase" unicode="&#x201a;" horiz-adv-x="220" 
d="M25 -160h-30l63 160h-23l10 60h60l-6 -35q-5 -23 -12 -42z" />
    <glyph glyph-name="quotedblleft" unicode="&#x201c;" horiz-adv-x="400" 
d="M199 700h30l-63 -160h23l-10 -60h-60l6 35q5 23 12 42zM379 700h30l-63 -160h23l-10 -60h-60l6 35q5 23 12 42z" />
    <glyph glyph-name="quotedblright" unicode="&#x201d;" horiz-adv-x="400" 
d="M137 480h-30l63 160h-23l10 60h60l-6 -35q-5 -23 -12 -42zM317 480h-30l63 160h-23l10 60h60l-6 -35q-5 -23 -12 -42z" />
    <glyph glyph-name="quotedblbase" unicode="&#x201e;" horiz-adv-x="400" 
d="M25 -160h-30l63 160h-23l10 60h60l-6 -35q-5 -23 -12 -42zM205 -160h-30l63 160h-23l10 60h60l-6 -35q-5 -23 -12 -42z" />
    <glyph glyph-name="dagger" unicode="&#x2020;" horiz-adv-x="606" 
d="M376 567h234l-6 -34h-234l-43 -243h-38l43 243h-234l6 34h234l23 133h38z" />
    <glyph glyph-name="daggerdbl" unicode="&#x2021;" horiz-adv-x="606" 
d="M611 570l-6 -34h-234l-30 -170h234l-6 -34h-234l-23 -130h-38l23 130h-234l6 34h234l30 170h-234l6 34h234l23 130h38l-23 -130h234z" />
    <glyph glyph-name="bullet" unicode="&#x2022;" horiz-adv-x="300" 
d="M186 280h-60q-42 0 -34 42l10 60q4 21 13.5 29.5t30.5 8.5h60q42 0 34 -42l-10 -60q-4 -21 -13.5 -29.5t-30.5 -8.5z" />
    <glyph glyph-name="perthousand" unicode="&#x2030;" horiz-adv-x="1650" 
d="M543 508l-17 -100q-9 -53 -35.5 -75.5t-79.5 -22.5h-240q-53 0 -77 29.5t-15 82.5l17 100q9 54 35.5 76t80.5 22h240q53 0 76.5 -29t14.5 -83zM153 0h-63l915 620h63zM178 346h232q38 0 55 14.5t24 52.5l17 96q14 75 -62 75h-232q-38 0 -54.5 -14t-23.5 -53l-17 -96
q-13 -75 61 -75zM946 0h-240q-53 0 -77 29.5t-15 82.5l17 100q9 54 35.5 76t80.5 22h240q53 0 76.5 -29t14.5 -83l-17 -100q-9 -53 -35.5 -75.5t-79.5 -22.5zM1456 0h-240q-53 0 -77 29.5t-15 82.5l17 100q9 54 35.5 76t80.5 22h240q53 0 76.5 -29t14.5 -83l-17 -100
q-9 -53 -35.5 -75.5t-79.5 -22.5zM713 36h232q38 0 55 14.5t24 52.5l17 96q13 75 -62 75h-232q-38 0 -54.5 -14t-23.5 -53l-17 -96q-14 -75 61 -75zM1223 36h232q38 0 55 14.5t24 52.5l17 96q13 75 -62 75h-232q-38 0 -54.5 -14t-23.5 -53l-17 -96q-14 -75 61 -75z" />
    <glyph glyph-name="guilsinglleft" unicode="&#x2039;" horiz-adv-x="660" 
d="M81 374l574 200l-9 -50l-511 -169l449 -186l-9 -45l-500 220z" />
    <glyph glyph-name="guilsinglright" unicode="&#x203a;" horiz-adv-x="660" 
d="M108 529l9 45l500 -220l-6 -30l-574 -200l9 50l511 169z" />
    <glyph glyph-name="fraction" unicode="&#x2044;" horiz-adv-x="246" 
d="M-271 0h-55l874 700h55z" />
    <glyph glyph-name="Euro" unicode="&#x20ac;" horiz-adv-x="1072" 
d="M374 700h510q87 0 125.5 -46.5t22.5 -133.5l-9 -50h-41l9 50q13 74 -15.5 109t-102.5 35h-494q-74 0 -107.5 -29t-46.5 -103l-15 -87h593l-7 -36h-593l-20 -118h593l-7 -36h-593l-13 -75q-13 -74 15.5 -109t102.5 -35h494q73 0 107 29t47 103l13 72h40l-14 -80
q-16 -89 -58 -124.5t-130 -35.5h-510q-87 0 -125.5 46.5t-22.5 133.5l13 75h-126l7 36h126l21 118h-127l7 36h126l17 95q16 89 58 124.5t130 35.5z" />
    <glyph glyph-name="trademark" unicode="&#x2122;" horiz-adv-x="803" 
d="M437 700l-6 -32h-143l-36 -201h-33l36 201h-143l6 32h319zM628 553l179 147h34l-42 -233h-33l34 188l-166 -135h-18l-118 135l-34 -188h-33l42 233h29z" />
    <glyph glyph-name="minus" unicode="&#x2212;" 
d="M93 332l6 36h872l-6 -36h-872z" />
    <glyph glyph-name="approxequal" unicode="&#x2248;" 
d="M417 636l327 -211q37 -23 87 -23h56q28 0 41 11t18 39l39 222h40l-38 -218q-9 -50 -33 -70t-73 -20h-49q-43 0 -64 7q-23 6 -61 31l-327 211q-37 23 -87 23h-56q-28 0 -41 -11t-18 -39l-39 -222h-40l38 218q9 50 33 70t73 20h49q42 0 64 -6q25 -8 61 -32zM357 296
l327 -211q37 -23 87 -23h56q28 0 41 11t18 39l39 222h40l-38 -218q-9 -50 -33 -70t-73 -20h-49q-43 0 -64 7q-23 6 -61 31l-327 211q-37 23 -87 23h-56q-28 0 -41 -11t-18 -39l-39 -222h-40l38 218q9 50 33 70t73 20h49q42 0 64 -6q25 -8 61 -32z" />
    <glyph glyph-name="notequal" unicode="&#x2260;" 
d="M992 488l-6 -36h-344l-175 -204h483l-6 -36h-508l-130 -152h-45l130 152h-319l6 36h344l175 204h-483l6 36h508l130 152h45l-130 -152h319z" />
    <glyph glyph-name="lessequal" unicode="&#x2264;" 
d="M117 470l905 190l-7 -42l-828 -169l765 -187l-7 -38l-834 210zM913 40h-872l7 36h872z" />
    <glyph glyph-name="greaterequal" unicode="&#x2265;" 
d="M144 622l7 38l834 -210l-6 -36l-905 -190l7 42l828 169zM913 40h-872l7 36h872z" />
    <glyph glyph-name="fi" unicode="&#xfb01;" horiz-adv-x="950" 
d="M336 578l-21 -118h442l-6 -36h-442l-75 -424h-40l74 424h-219l6 36h220l21 122q11 65 43.5 91.5t96.5 26.5h364l-7 -36h-356q-49 0 -71 -18.5t-30 -67.5zM893 640l11 60h40l-11 -60h-40zM820 0h-40l92 520h40z" />
    <glyph glyph-name="fl" unicode="&#xfb02;" horiz-adv-x="950" 
d="M336 578l-21 -118h442l-6 -36h-442l-75 -424h-40l74 424h-219l6 36h220l21 122q11 65 43.5 91.5t96.5 26.5h364l-7 -36h-356q-49 0 -71 -18.5t-30 -67.5zM780 0l124 700h40l-124 -700h-40z" />
    <glyph glyph-name="null" horiz-adv-x="0" 
 />
    <glyph glyph-name="A.ss01" horiz-adv-x="1070" 
d="M308 700h590q87 0 125.5 -46.5t22.5 -133.5l-92 -520h-40l49 282h-849l-50 -282h-40l96 540q16 89 58 124.5t130 35.5zM970 318l35 202q13 74 -15.5 109t-102.5 35h-574q-74 0 -108 -29t-47 -103l-38 -214h850z" />
    <glyph glyph-name="Aacute.ss01" horiz-adv-x="1070" 
d="M804 880h68l-218 -120h-58zM308 700h590q87 0 125.5 -46.5t22.5 -133.5l-92 -520h-40l49 282h-849l-50 -282h-40l96 540q16 89 58 124.5t130 35.5zM970 318l35 202q13 74 -15.5 109t-102.5 35h-574q-74 0 -108 -29t-47 -103l-38 -214h850z" />
    <glyph glyph-name="Abreve.ss01" horiz-adv-x="1070" 
d="M758 760h-268q-35 0 -51 19.5t-9 53.5l9 47h38l-9 -47q-7 -37 31 -37h261q36 0 42 36l9 48h38l-9 -51q-7 -37 -25.5 -53t-56.5 -16zM308 700h590q87 0 125.5 -46.5t22.5 -133.5l-92 -520h-40l49 282h-849l-50 -282h-40l96 540q16 89 58 124.5t130 35.5zM970 318l35 202
q13 74 -15.5 109t-102.5 35h-574q-74 0 -108 -29t-47 -103l-38 -214h850z" />
    <glyph glyph-name="Acircumflex.ss01" horiz-adv-x="1070" 
d="M770 760l-126 92l-160 -92h-56l192 120h50l148 -120h-48zM308 700h590q87 0 125.5 -46.5t22.5 -133.5l-92 -520h-40l49 282h-849l-50 -282h-40l96 540q16 89 58 124.5t130 35.5zM970 318l35 202q13 74 -15.5 109t-102.5 35h-574q-74 0 -108 -29t-47 -103l-38 -214h850z
" />
    <glyph glyph-name="Adieresis.ss01" horiz-adv-x="1070" 
d="M497 840h40l-10 -60h-40zM737 840h40l-10 -60h-40zM308 700h590q87 0 125.5 -46.5t22.5 -133.5l-92 -520h-40l49 282h-849l-50 -282h-40l96 540q16 89 58 124.5t130 35.5zM970 318l35 202q13 74 -15.5 109t-102.5 35h-574q-74 0 -108 -29t-47 -103l-38 -214h850z" />
    <glyph glyph-name="Agrave.ss01" horiz-adv-x="1070" 
d="M482 880l164 -120h-50l-174 120h60zM308 700h590q87 0 125.5 -46.5t22.5 -133.5l-92 -520h-40l49 282h-849l-50 -282h-40l96 540q16 89 58 124.5t130 35.5zM970 318l35 202q13 74 -15.5 109t-102.5 35h-574q-74 0 -108 -29t-47 -103l-38 -214h850z" />
    <glyph glyph-name="Amacron.ss01" horiz-adv-x="1070" 
d="M418 840h440l-6 -36h-440zM308 700h590q87 0 125.5 -46.5t22.5 -133.5l-92 -520h-40l49 282h-849l-50 -282h-40l96 540q16 89 58 124.5t130 35.5zM970 318l35 202q13 74 -15.5 109t-102.5 35h-574q-74 0 -108 -29t-47 -103l-38 -214h850z" />
    <glyph glyph-name="Aogonek.ss01" horiz-adv-x="1070" 
d="M809 -63l-3 -19q-4 -24 4.5 -34t32.5 -10h147l-6 -34h-151q-40 0 -55 18.5t-10 59.5l2 15q4 28 16.5 42t45.5 25l87 27l44 255h-849l-50 -282h-40l96 540q16 89 58 124.5t130 35.5h590q87 0 125.5 -46.5t22.5 -133.5l-92 -520h-22l-86 -27q-21 -7 -28 -13.5t-9 -22.5z
M158 532l-38 -214h850l35 202q13 74 -15.5 109t-102.5 35h-574q-74 0 -108 -29t-47 -103z" />
    <glyph glyph-name="Aring.ss01" horiz-adv-x="1070" 
d="M746 750h-243q-55 0 -46 55l4 24q4 29 17 40t43 11h243q55 0 46 -55l-4 -24q-4 -29 -17 -40t-43 -11zM496 825l-3 -18q-5 -24 18 -24h235q13 0 18 4.5t7 17.5l3 18q4 24 -18 24h-235q-13 0 -18 -4.5t-7 -17.5zM308 700h590q87 0 125.5 -46.5t22.5 -133.5l-92 -520h-40
l49 282h-849l-50 -282h-40l96 540q16 89 58 124.5t130 35.5zM970 318l35 202q13 74 -15.5 109t-102.5 35h-574q-74 0 -108 -29t-47 -103l-38 -214h850z" />
    <glyph glyph-name="Aringacute.ss01" horiz-adv-x="1070" 
d="M788 700h110q87 0 125.5 -46.5t22.5 -133.5l-92 -520h-40l49 282h-849l-50 -282h-40l96 540q16 89 58 124.5t130 35.5h136q-3 11 0 25l4 24q4 29 17 40t43 11h123l112 80h58l-120 -80h70q55 0 46 -55l-4 -24q-2 -14 -5 -21zM483 745l-3 -18q-4 -24 18 -24h235
q13 0 18 4.5t7 17.5l3 18q5 24 -18 24h-235q-13 0 -18 -4.5t-7 -17.5zM970 318l35 202q13 74 -15.5 109t-102.5 35h-574q-74 0 -108 -29t-47 -103l-38 -214h850z" />
    <glyph glyph-name="Atilde.ss01" horiz-adv-x="1070" 
d="M481 826l-12 -66h-36l13 71q5 27 18 38t40 11h56q24 0 35.5 -4t26.5 -19l51 -50q16 -14 37 -14h52q20 0 25 21l12 66h36l-13 -71q-5 -27 -18 -38t-40 -11h-56q-24 0 -35.5 4t-26.5 19l-51 50q-16 14 -37 14h-52q-20 0 -25 -21zM308 700h590q87 0 125.5 -46.5t22.5 -133.5
l-92 -520h-40l49 282h-849l-50 -282h-40l96 540q16 89 58 124.5t130 35.5zM970 318l35 202q13 74 -15.5 109t-102.5 35h-574q-74 0 -108 -29t-47 -103l-38 -214h850z" />
    <glyph glyph-name="I.ss01" horiz-adv-x="764" 
d="M802 700l-6 -32h-322l-112 -636h322l-6 -32h-684l6 32h322l112 636h-322l6 32h684z" />
    <glyph glyph-name="Iacute.ss01" horiz-adv-x="764" 
d="M651 880h68l-218 -120h-58zM802 700l-6 -32h-322l-112 -636h322l-6 -32h-684l6 32h322l112 636h-322l6 32h684z" />
    <glyph glyph-name="Icircumflex.ss01" horiz-adv-x="764" 
d="M617 760l-126 92l-160 -92h-56l192 120h50l148 -120h-48zM802 700l-6 -32h-322l-112 -636h322l-6 -32h-684l6 32h322l112 636h-322l6 32h684z" />
    <glyph glyph-name="Idieresis.ss01" horiz-adv-x="764" 
d="M344 840h40l-10 -60h-40zM584 840h40l-10 -60h-40zM802 700l-6 -32h-322l-112 -636h322l-6 -32h-684l6 32h322l112 636h-322l6 32h684z" />
    <glyph glyph-name="Idotaccent.ss01" horiz-adv-x="764" 
d="M464 840h40l-10 -60h-40zM802 700l-6 -32h-322l-112 -636h322l-6 -32h-684l6 32h322l112 636h-322l6 32h684z" />
    <glyph glyph-name="Igrave.ss01" horiz-adv-x="764" 
d="M329 880l164 -120h-50l-174 120h60zM802 700l-6 -32h-322l-112 -636h322l-6 -32h-684l6 32h322l112 636h-322l6 32h684z" />
    <glyph glyph-name="Imacron.ss01" horiz-adv-x="764" 
d="M265 840h440l-6 -36h-440zM802 700l-6 -32h-322l-112 -636h322l-6 -32h-684l6 32h322l112 636h-322l6 32h684z" />
    <glyph glyph-name="Iogonek.ss01" horiz-adv-x="764" 
d="M802 700l-6 -32h-322l-112 -636h322l-6 -32h-81l-86 -27q-21 -7 -28 -13.5t-9 -22.5l-3 -19q-4 -24 4.5 -34t32.5 -10h147l-6 -34h-151q-40 0 -55 18.5t-10 59.5l2 15q4 28 16.5 42t45.5 25h-503l6 32h322l112 636h-322l6 32h684z" />
    <glyph glyph-name="Itilde.ss01" horiz-adv-x="764" 
d="M328 826l-12 -66h-36l13 71q5 27 18 38t40 11h56q24 0 35.5 -4t26.5 -19l51 -50q16 -14 37 -14h52q21 0 25 21l12 66h36l-13 -71q-5 -27 -18 -38t-40 -11h-56q-24 0 -35.5 4t-26.5 19l-51 50q-16 14 -37 14h-52q-21 0 -25 -21zM802 700l-6 -32h-322l-112 -636h322l-6 -32
h-684l6 32h322l112 636h-322l6 32h684z" />
    <glyph glyph-name="R.ss01" horiz-adv-x="1050" 
d="M158 700h766q62 0 91.5 -35.5t18.5 -98.5l-25 -140q-9 -51 -28.5 -77t-56.5 -36q59 -32 44 -119l-34 -194h-40l36 202q9 51 -11 74.5t-71 23.5h-722l-52 -300h-40zM969 422l26 144q18 98 -82 98h-722l-58 -328h734q50 0 71.5 18t30.5 68z" />
    <glyph glyph-name="Racute.ss01" horiz-adv-x="1050" 
d="M794 880h68l-218 -120h-58zM158 700h766q62 0 91.5 -35.5t18.5 -98.5l-25 -140q-9 -51 -28.5 -77t-56.5 -36q59 -32 44 -119l-34 -194h-40l36 202q9 51 -11 74.5t-71 23.5h-722l-52 -300h-40zM969 422l26 144q18 98 -82 98h-722l-58 -328h734q50 0 71.5 18t30.5 68z" />
    <glyph glyph-name="Rcaron.ss01" horiz-adv-x="1050" 
d="M829 880l-192 -120h-50l-148 120h48l126 -92l160 92h56zM158 700h766q62 0 91.5 -35.5t18.5 -98.5l-25 -140q-9 -51 -28.5 -77t-56.5 -36q59 -32 44 -119l-34 -194h-40l36 202q9 51 -11 74.5t-71 23.5h-722l-52 -300h-40zM969 422l26 144q18 98 -82 98h-722l-58 -328h734
q50 0 71.5 18t30.5 68z" />
    <glyph glyph-name="Rcommaaccent.ss01" horiz-adv-x="1050" 
d="M158 700h766q62 0 91.5 -35.5t18.5 -98.5l-25 -140q-9 -51 -28.5 -77t-56.5 -36q59 -32 44 -119l-34 -194h-40l36 202q9 51 -11 74.5t-71 23.5h-722l-52 -300h-40zM969 422l26 144q18 98 -82 98h-722l-58 -328h734q50 0 71.5 18t30.5 68zM460 -90h-23l10 60h60l-6 -35
q-3 -17 -17 -39l-37 -56h-30z" />
    <glyph glyph-name="i.loclTRK" horiz-adv-x="208" 
d="M184 600h-40l10 60h40zM78 0h-40l92 520h40z" />
    <glyph glyph-name="uni0410.ss01" horiz-adv-x="1070" 
d="M308 700h590q87 0 125.5 -46.5t22.5 -133.5l-92 -520h-40l49 282h-849l-50 -282h-40l96 540q16 89 58 124.5t130 35.5zM970 318l35 202q13 74 -15.5 109t-102.5 35h-574q-74 0 -108 -29t-47 -103l-38 -214h850z" />
    <glyph glyph-name="uni042F.ss01" horiz-adv-x="1050" 
d="M268 700h780l-124 -700h-40l53 300h-732q-49 0 -71.5 -19.5t-31.5 -68.5l-38 -212h-40l37 208q17 95 86 114q-60 28 -45 120l24 138q11 65 44.5 92.5t97.5 27.5zM166 576l-25 -142q-18 -98 81 -98h722l57 328h-732q-49 0 -72 -19.5t-31 -68.5z" />
    <glyph glyph-name="uni044F.ss01" horiz-adv-x="924" 
d="M195 520h695l-92 -520h-40l39 220h-637q-37 0 -54 -14.5t-24 -52.5l-28 -153h-40l28 156q14 72 64 85q-46 22 -34 91l18 98q9 49 33.5 69.5t71.5 20.5zM129 418l-17 -92q-7 -38 6.5 -54t50.5 -16h634l40 228h-638q-37 0 -53 -14t-23 -52z" />
    <glyph glyph-name="zero.tf" 
d="M740 0h-520q-87 0 -125.5 46.5t-22.5 133.5l64 360q16 89 58 124.5t130 35.5h520q87 0 125.5 -46.5t22.5 -133.5l-64 -360q-16 -89 -58 -124.5t-130 -35.5zM231 36h504q74 0 107.5 29t46.5 103l62 352q13 74 -15.5 109t-102.5 35h-504q-74 0 -107.5 -29t-46.5 -103
l-62 -352q-13 -74 15.5 -109t102.5 -35z" />
    <glyph glyph-name="one.tf" 
d="M650 700l-117 -664h400l-7 -36h-912l7 36h472l110 627l-447 -29l6 36l470 30h18z" />
    <glyph glyph-name="two.tf" 
d="M897 36l-7 -36h-850l36 202q11 65 41 91q27 24 97 32l630 60q52 5 72 23.5t28 69.5l15 88q8 51 -11 74.5t-69 23.5h-582q-50 0 -71.5 -18t-29.5 -68l-9 -54h-40l10 58q11 65 43 91.5t96 26.5h592q64 0 93 -35.5t18 -100.5l-16 -92q-11 -65 -40.5 -91.5t-97.5 -33.5
l-630 -60q-53 -5 -73 -23q-21 -19 -28 -68l-27 -160h810z" />
    <glyph glyph-name="three.tf" 
d="M290 700h590q64 0 93 -35.5t18 -100.5l-15 -86q-17 -92 -79 -110q65 -32 48 -124l-22 -126q-11 -65 -43 -91.5t-96 -26.5h-610q-64 0 -92.5 35.5t-18.5 100.5l11 66h40l-11 -68q-8 -51 11 -74.5t69 -23.5h600q50 0 71.5 18t29.5 68l22 132q8 51 -11 74.5t-69 23.5h-448
l7 36h449q50 0 71 18t30 68l16 92q18 98 -80 98h-580q-50 0 -70.5 -18t-29.5 -68l-13 -72h-40l13 76q11 65 43 91.5t96 26.5z" />
    <glyph glyph-name="four.tf" 
d="M736 232h251l-6 -36h-251l-35 -196h-40l35 196h-661l5 30l738 474h47zM771 661l-667 -429h592z" />
    <glyph glyph-name="five.tf" 
d="M782 0h-738l7 36h730q50 0 70.5 18t29.5 68l26 148q18 98 -80 98h-718l59 332h826l-7 -36h-786l-45 -260h680q64 0 93 -35.5t18 -100.5l-26 -150q-11 -65 -43 -91.5t-96 -26.5z" />
    <glyph glyph-name="six.tf" 
d="M986 664h-663q-73 0 -104 -27q-32 -29 -45 -101l-28 -163q37 35 105 35h585q64 0 93 -35.5t18 -100.5l-26 -154q-11 -65 -43 -91.5t-96 -26.5h-607q-64 0 -93 35.5t-18 100.5l71 404q16 89 58 124.5t130 35.5h670zM827 372h-590q-46 0 -70.5 -17.5t-34.5 -58.5l-28 -162
q-18 -98 80 -98h597q50 0 71.5 18t29.5 68l25 152q8 51 -11 74.5t-69 23.5z" />
    <glyph glyph-name="seven.tf" 
d="M131 664l7 36h912l-6 -30l-433 -277q-74 -48 -98 -89q-25 -40 -42 -135l-30 -169h-40l32 181q17 92 45 140t100 94l393 249h-840z" />
    <glyph glyph-name="eight.tf" 
d="M288 700h592q64 0 93 -35.5t18 -100.5l-15 -86q-17 -92 -79 -110q65 -32 48 -124l-22 -126q-11 -65 -43 -91.5t-96 -26.5h-611q-64 0 -93 35.5t-18 100.5l22 126q9 52 30.5 79t61.5 35q-57 32 -42 120l15 86q11 65 43 91.5t96 26.5zM935 474l16 92q18 98 -80 98h-582
q-50 0 -70.5 -18t-29.5 -68l-16 -92q-18 -98 80 -98h581q50 0 71 18t30 68zM884 122l22 132q8 51 -11 74.5t-69 23.5h-600q-50 0 -71 -18t-30 -68l-23 -132q-18 -98 80 -98h601q50 0 71.5 18t29.5 68z" />
    <glyph glyph-name="nine.tf" 
d="M282 700h606q64 0 93 -35.5t18 -100.5l-71 -404q-16 -89 -58 -124.5t-130 -35.5h-669l7 36h662q74 0 105 28q30 26 44 100l27 156q-36 -36 -106 -36h-584q-64 0 -93 35.5t-18 100.5l28 162q11 65 43 91.5t96 26.5zM932 412l27 154q18 98 -80 98h-596q-50 0 -71 -18
t-30 -68l-28 -160q-18 -98 81 -98h589q50 0 75 21t33 71z" />
    <glyph glyph-name="zero.subs" horiz-adv-x="661" 
d="M431 -100h-316q-53 0 -77 28.5t-14 82.5l37 210q10 55 36 77t80 22h316q54 0 78 -28.5t14 -82.5l-38 -210q-10 -55 -36 -77t-80 -22zM129 -66h295q41 0 59 16t26 58l35 198q15 80 -65 80h-295q-41 0 -59.5 -16t-25.5 -57l-35 -199q-15 -80 65 -80z" />
    <glyph glyph-name="one.subs" horiz-adv-x="626" 
d="M358 320l-68 -386h231l-6 -34h-530l6 34h260l62 351l-245 -17l6 34l266 18h18z" />
    <glyph glyph-name="two.subs" horiz-adv-x="661" 
d="M530 -66l-7 -34h-518l22 125q7 40 25.5 56.5t60.5 20.5l372 34q30 3 40.5 13t15.5 38l8 45q10 55 -45 55h-336q-28 0 -40 -10t-16 -38l-5 -29h-38l6 37q7 40 26.5 56.5t60.5 16.5h357q40 0 58 -22t11 -63l-9 -56q-7 -40 -25.5 -56.5t-60.5 -20.5l-372 -34
q-30 -3 -40.5 -12.5t-15.5 -37.5l-14 -84h479z" />
    <glyph glyph-name="three.subs" horiz-adv-x="662" 
d="M157 320h358q40 0 58 -22t11 -62l-9 -49q-11 -57 -49 -67q39 -18 30 -76l-12 -70q-7 -40 -27 -57t-60 -17h-369q-40 0 -58 22t-11 63l7 41h38l-6 -39q-9 -54 44 -54h348q28 0 39.5 10t16.5 37l12 71q9 54 -45 54h-272l6 32h272q28 0 39.5 10t16.5 38l9 48q10 54 -44 54
h-337q-27 0 -38.5 -10t-16.5 -38l-7 -40h-39l8 47q7 40 27 57t60 17z" />
    <glyph glyph-name="four.subs" horiz-adv-x="680" 
d="M442 44h152l-5 -32h-152l-20 -112h-38l20 112h-394l4 27l437 281h45zM447 285l-374 -241h331z" />
    <glyph glyph-name="five.subs" horiz-adv-x="643" 
d="M438 -100h-431l6 34h419q27 0 38 10t16 37l14 78q10 54 -44 54h-411l36 207h487l-6 -34h-448l-24 -139h381q40 0 58 -22.5t11 -63.5l-15 -88q-7 -40 -27 -56.5t-60 -16.5z" />
    <glyph glyph-name="six.subs" horiz-adv-x="661" 
d="M579 286h-398q-40 0 -57 -15t-25 -57l-15 -85q22 20 63 20h342q40 0 58 -22t11 -62l-15 -91q-7 -40 -27 -57t-60 -17h-368q-40 0 -58 22t-11 62l42 237q10 55 36 77t80 22h408zM474 115h-342q-46 0 -57 -35l-16 -93q-11 -54 44 -54h346q28 0 40 10.5t16 38.5l13 79
q9 54 -44 54z" />
    <glyph glyph-name="seven.subs" horiz-adv-x="638" 
d="M59 320h542l-5 -30h-1l-251 -163q-38 -24 -54.5 -51t-25.5 -76l-18 -100h-40l18 107q9 54 28 85.5t60 57.5l211 135h-470z" />
    <glyph glyph-name="eight.subs" horiz-adv-x="662" 
d="M157 320h359q40 0 58 -22t11 -62l-9 -49q-11 -57 -49 -67q39 -18 30 -76l-12 -70q-7 -40 -27 -57t-60 -17h-370q-40 0 -58 22t-11 62l12 71q10 59 57 70q-35 18 -26 73l8 48q7 40 27 57t60 17zM536 184l9 49q11 54 -44 54h-337q-28 0 -39 -9.5t-16 -37.5l-9 -50
q-10 -54 44 -54h336q28 0 39.5 10t16.5 38zM507 -20l12 71q9 54 -44 54h-348q-28 0 -40 -10t-16 -37l-12 -71q-9 -54 44 -54h348q28 0 40 10t16 37z" />
    <glyph glyph-name="nine.subs" horiz-adv-x="661" 
d="M153 320h367q40 0 58 -22t11 -62l-42 -237q-10 -55 -36 -77t-80 -22h-408l6 34h398q40 0 57 15t25 56l14 82q-20 -20 -63 -20h-342q-40 0 -58 22t-11 63l17 94q8 41 27.5 57.5t59.5 16.5zM533 141l16 91q10 55 -44 55h-345q-28 0 -40 -10t-17 -39l-15 -84q-10 -54 45 -54
h342q48 0 58 41z" />
    <glyph glyph-name="zero.dnom" horiz-adv-x="661" 
d="M449 0h-316q-53 0 -77 28.5t-14 82.5l37 210q10 55 36 77t80 22h316q54 0 78 -28.5t14 -82.5l-38 -210q-10 -55 -36 -77t-80 -22zM147 34h295q41 0 59 16t26 58l35 198q15 80 -65 80h-295q-41 0 -59.5 -16t-25.5 -57l-35 -199q-15 -80 65 -80z" />
    <glyph glyph-name="one.dnom" horiz-adv-x="626" 
d="M376 420l-68 -386h231l-6 -34h-530l6 34h260l62 351l-245 -17l6 34l266 18h18z" />
    <glyph glyph-name="two.dnom" horiz-adv-x="661" 
d="M548 34l-7 -34h-518l22 125q7 40 25.5 56.5t60.5 20.5l372 34q30 3 40.5 13t15.5 38l8 45q10 55 -45 55h-336q-28 0 -40 -10t-16 -38l-5 -29h-38l6 37q7 40 26.5 56.5t60.5 16.5h357q40 0 58 -22t11 -63l-9 -56q-7 -40 -25.5 -56.5t-60.5 -20.5l-372 -34
q-30 -3 -40.5 -12.5t-15.5 -37.5l-14 -84h479z" />
    <glyph glyph-name="three.dnom" horiz-adv-x="662" 
d="M175 420h358q40 0 58 -22t11 -62l-9 -49q-11 -57 -49 -67q39 -18 30 -76l-12 -70q-7 -40 -27 -57t-60 -17h-369q-40 0 -58 22t-11 63l7 41h38l-6 -39q-9 -54 44 -54h348q28 0 39.5 10t16.5 37l12 71q9 54 -45 54h-272l6 32h272q28 0 39.5 10t16.5 38l9 48q10 54 -44 54
h-337q-27 0 -38.5 -10t-16.5 -38l-7 -40h-39l8 47q7 40 27 57t60 17z" />
    <glyph glyph-name="four.dnom" horiz-adv-x="680" 
d="M460 144h152l-5 -32h-152l-20 -112h-38l20 112h-394l4 27l437 281h45zM465 385l-374 -241h331z" />
    <glyph glyph-name="five.dnom" horiz-adv-x="643" 
d="M456 0h-431l6 34h419q27 0 38 10t16 37l14 78q10 54 -44 54h-411l36 207h487l-6 -34h-448l-24 -139h381q40 0 58 -22.5t11 -63.5l-15 -88q-7 -40 -27 -56.5t-60 -16.5z" />
    <glyph glyph-name="six.dnom" horiz-adv-x="661" 
d="M597 386h-398q-40 0 -57 -15t-25 -57l-15 -85q22 20 63 20h342q40 0 58 -22t11 -62l-15 -91q-7 -40 -27 -57t-60 -17h-368q-40 0 -58 22t-11 62l42 237q10 55 36 77t80 22h408zM492 215h-342q-46 0 -57 -35l-16 -93q-11 -54 44 -54h346q28 0 40 10.5t16 38.5l13 79
q9 54 -44 54z" />
    <glyph glyph-name="seven.dnom" horiz-adv-x="638" 
d="M77 420h542l-5 -30h-1l-251 -163q-38 -24 -54.5 -51t-25.5 -76l-18 -100h-40l18 107q9 54 28 85.5t60 57.5l211 135h-470z" />
    <glyph glyph-name="eight.dnom" horiz-adv-x="662" 
d="M175 420h359q40 0 58 -22t11 -62l-9 -49q-11 -57 -49 -67q39 -18 30 -76l-12 -70q-7 -40 -27 -57t-60 -17h-370q-40 0 -58 22t-11 62l12 71q10 59 57 70q-35 18 -26 73l8 48q7 40 27 57t60 17zM554 284l9 49q11 54 -44 54h-337q-28 0 -39 -9.5t-16 -37.5l-9 -50
q-10 -54 44 -54h336q28 0 39.5 10t16.5 38zM525 80l12 71q9 54 -44 54h-348q-28 0 -40 -10t-16 -37l-12 -71q-9 -54 44 -54h348q28 0 40 10t16 37z" />
    <glyph glyph-name="nine.dnom" horiz-adv-x="661" 
d="M171 420h367q40 0 58 -22t11 -62l-42 -237q-10 -55 -36 -77t-80 -22h-408l6 34h398q40 0 57 15t25 56l14 82q-20 -20 -63 -20h-342q-40 0 -58 22t-11 63l17 94q8 41 27.5 57.5t59.5 16.5zM551 241l16 91q10 55 -44 55h-345q-28 0 -40 -10t-17 -39l-15 -84q-10 -54 45 -54
h342q48 0 58 41z" />
    <glyph glyph-name="zero.numr" horiz-adv-x="661" 
d="M498 280h-316q-53 0 -77 28.5t-14 82.5l37 210q10 55 36 77t80 22h316q54 0 78 -28.5t14 -82.5l-38 -210q-10 -55 -36 -77t-80 -22zM196 314h295q41 0 59 16t26 58l35 198q15 80 -65 80h-295q-41 0 -59.5 -16t-25.5 -57l-35 -199q-15 -80 65 -80z" />
    <glyph glyph-name="one.numr" horiz-adv-x="626" 
d="M425 700l-68 -386h231l-6 -34h-530l6 34h260l62 351l-245 -17l6 34l266 18h18z" />
    <glyph glyph-name="two.numr" horiz-adv-x="661" 
d="M597 314l-7 -34h-518l22 125q7 40 25.5 56.5t60.5 20.5l372 34q30 3 40.5 13t15.5 38l8 45q10 55 -45 55h-336q-28 0 -40 -10t-16 -38l-5 -29h-38l6 37q7 40 26.5 56.5t60.5 16.5h357q40 0 58 -22t11 -63l-9 -56q-7 -40 -25.5 -56.5t-60.5 -20.5l-372 -34
q-30 -3 -40.5 -12.5t-15.5 -37.5l-14 -84h479z" />
    <glyph glyph-name="three.numr" horiz-adv-x="662" 
d="M224 700h358q40 0 58 -22t11 -62l-9 -49q-11 -57 -49 -67q39 -18 30 -76l-12 -70q-7 -40 -27 -57t-60 -17h-369q-40 0 -58 22t-11 63l7 41h38l-6 -39q-9 -54 44 -54h348q28 0 39.5 10t16.5 37l12 71q9 54 -45 54h-272l6 32h272q28 0 39.5 10t16.5 38l9 48q11 54 -44 54
h-337q-27 0 -38.5 -10t-16.5 -38l-7 -40h-39l8 47q7 40 27 57t60 17z" />
    <glyph glyph-name="four.numr" horiz-adv-x="680" 
d="M509 424h152l-5 -32h-152l-20 -112h-38l20 112h-394l4 27l437 281h45zM514 665l-374 -241h331z" />
    <glyph glyph-name="five.numr" horiz-adv-x="643" 
d="M505 280h-431l6 34h419q27 0 38 10t16 37l14 78q11 54 -44 54h-411l36 207h487l-6 -34h-448l-24 -139h381q40 0 58 -22.5t11 -63.5l-15 -88q-7 -40 -27 -56.5t-60 -16.5z" />
    <glyph glyph-name="six.numr" horiz-adv-x="661" 
d="M646 666h-398q-40 0 -57 -15t-25 -57l-15 -85q22 20 63 20h342q40 0 58 -22t11 -62l-15 -91q-7 -40 -27 -57t-60 -17h-368q-40 0 -58 22t-11 62l42 237q10 55 36 77t80 22h408zM541 495h-342q-46 0 -57 -35l-16 -93q-11 -54 44 -54h346q28 0 40 10.5t16 38.5l13 79
q9 54 -44 54z" />
    <glyph glyph-name="seven.numr" horiz-adv-x="638" 
d="M126 700h542l-5 -30h-1l-251 -163q-38 -24 -54.5 -51t-25.5 -76l-18 -100h-40l18 107q9 54 28 85.5t60 57.5l211 135h-470z" />
    <glyph glyph-name="eight.numr" horiz-adv-x="662" 
d="M224 700h359q40 0 58 -22t11 -62l-9 -49q-11 -57 -49 -67q39 -18 30 -76l-12 -70q-7 -40 -27 -57t-60 -17h-370q-40 0 -58 22t-11 62l12 71q10 59 57 70q-35 18 -26 73l8 48q7 40 27 57t60 17zM603 564l9 49q10 54 -44 54h-337q-28 0 -39 -9.5t-16 -37.5l-9 -50
q-11 -54 44 -54h336q28 0 39.5 10t16.5 38zM574 360l12 71q9 54 -44 54h-348q-28 0 -40 -10t-16 -37l-12 -71q-9 -54 44 -54h348q28 0 40 10t16 37z" />
    <glyph glyph-name="nine.numr" horiz-adv-x="661" 
d="M220 700h367q40 0 58 -22t11 -62l-42 -237q-10 -55 -36 -77t-80 -22h-408l6 34h398q40 0 57 15t25 56l14 82q-20 -20 -63 -20h-342q-40 0 -58 22t-11 63l17 94q8 41 27.5 57.5t59.5 16.5zM600 521l16 91q10 55 -44 55h-345q-28 0 -40 -10t-17 -39l-15 -84q-11 -54 45 -54
h342q48 0 58 41z" />
    <glyph glyph-name="zero.sups" horiz-adv-x="661" 
d="M516 380h-316q-53 0 -77 28.5t-14 82.5l37 210q10 55 36 77t80 22h316q54 0 78 -28.5t14 -82.5l-38 -210q-10 -55 -36 -77t-80 -22zM214 414h295q41 0 59 16t26 58l35 198q15 80 -65 80h-295q-41 0 -59.5 -16t-25.5 -57l-35 -199q-15 -80 65 -80z" />
    <glyph glyph-name="one.sups" horiz-adv-x="626" 
d="M443 800l-68 -386h231l-6 -34h-530l6 34h260l62 351l-245 -17l6 34l266 18h18z" />
    <glyph glyph-name="two.sups" horiz-adv-x="661" 
d="M615 414l-7 -34h-518l22 125q7 40 25.5 56.5t60.5 20.5l372 34q30 3 40.5 13t15.5 38l8 45q10 55 -45 55h-336q-28 0 -40 -10t-16 -38l-5 -29h-38l6 37q7 40 26.5 56.5t60.5 16.5h357q40 0 58 -22t11 -63l-9 -56q-7 -40 -25.5 -56.5t-60.5 -20.5l-372 -34
q-30 -3 -40.5 -12.5t-15.5 -37.5l-14 -84h479z" />
    <glyph glyph-name="three.sups" horiz-adv-x="662" 
d="M242 800h358q40 0 58 -22t11 -62l-9 -49q-11 -57 -49 -67q39 -18 30 -76l-12 -70q-7 -40 -27 -57t-60 -17h-369q-40 0 -58 22t-11 63l7 41h38l-6 -39q-9 -54 44 -54h348q28 0 39.5 10t16.5 37l12 71q9 54 -45 54h-272l6 32h272q28 0 39.5 10t16.5 38l9 48q11 54 -44 54
h-337q-27 0 -38.5 -10t-16.5 -38l-7 -40h-39l8 47q7 40 27 57t60 17z" />
    <glyph glyph-name="four.sups" horiz-adv-x="680" 
d="M527 524h152l-5 -32h-152l-20 -112h-38l20 112h-394l4 27l437 281h45zM532 765l-374 -241h331z" />
    <glyph glyph-name="five.sups" horiz-adv-x="643" 
d="M523 380h-431l6 34h419q27 0 38 10t16 37l14 78q11 54 -44 54h-411l36 207h487l-6 -34h-448l-24 -139h381q40 0 58 -22.5t11 -63.5l-15 -88q-7 -40 -27 -56.5t-60 -16.5z" />
    <glyph glyph-name="six.sups" horiz-adv-x="661" 
d="M664 766h-398q-40 0 -57 -15t-25 -57l-15 -85q22 20 63 20h342q40 0 58 -22t11 -62l-15 -91q-7 -40 -27 -57t-60 -17h-368q-40 0 -58 22t-11 62l42 237q10 55 36 77t80 22h408zM559 595h-342q-46 0 -57 -35l-16 -93q-10 -54 44 -54h346q28 0 40 10.5t16 38.5l13 79
q9 54 -44 54z" />
    <glyph glyph-name="seven.sups" horiz-adv-x="638" 
d="M144 800h542l-5 -30h-1l-251 -163q-38 -24 -54.5 -51t-25.5 -76l-18 -100h-40l18 107q9 54 28 85.5t60 57.5l211 135h-470z" />
    <glyph glyph-name="eight.sups" horiz-adv-x="662" 
d="M242 800h359q40 0 58 -22t11 -62l-9 -49q-11 -57 -49 -67q39 -18 30 -76l-12 -70q-7 -40 -27 -57t-60 -17h-370q-40 0 -58 22t-11 62l12 71q10 59 57 70q-35 18 -26 73l8 48q7 40 27 57t60 17zM621 664l9 49q10 54 -44 54h-337q-28 0 -39 -9.5t-16 -37.5l-9 -50
q-11 -54 44 -54h336q28 0 39.5 10t16.5 38zM592 460l12 71q9 54 -44 54h-348q-28 0 -40 -10t-16 -37l-12 -71q-9 -54 44 -54h348q28 0 40 10t16 37z" />
    <glyph glyph-name="nine.sups" horiz-adv-x="661" 
d="M238 800h367q40 0 58 -22t11 -62l-42 -237q-10 -55 -36 -77t-80 -22h-408l6 34h398q40 0 57 15t25 56l14 82q-20 -20 -63 -20h-342q-40 0 -58 22t-11 63l17 94q8 41 27.5 57.5t59.5 16.5zM618 621l16 91q10 55 -44 55h-345q-28 0 -40 -10t-17 -39l-15 -84q-11 -54 45 -54
h342q48 0 58 41z" />
    <glyph glyph-name="numbersign.numr" horiz-adv-x="662" 
d="M652 579l-6 -29h-142l-18 -120h141l-6 -29h-140l-19 -121h-35l19 121h-176l-19 -121h-35l19 121h-143l6 29h142l18 120h-142l6 29h141l19 121h35l-19 -121h176l19 121h35l-19 -121h143zM275 430h176l18 120h-176z" />
    <glyph glyph-name="numbersign.tf" 
d="M994 491l-6 -36h-233l-33 -210h229l-6 -36h-229l-33 -209h-42l33 209h-328l-33 -209h-42l33 209h-235l6 36h235l33 210h-230l6 36h229l33 209h42l-33 -209h328l33 209h42l-33 -209h234zM352 245h328l33 210h-328z" />
    <glyph glyph-name="cent.numr" horiz-adv-x="661" 
d="M426 700h147q49 0 70 -25t11 -74l-5 -26h-39l5 24q7 36 -6.5 52t-50.5 16h-319q-36 0 -49.5 -12.5t-20.5 -48.5l-29 -157q-7 -37 6 -52.5t50 -15.5h320q35 0 48.5 12t21.5 49l8 37h38l-8 -43q-9 -50 -31 -69t-72 -19h-157l-10 -60h-32l10 60h-151q-99 0 -81 99l30 165
q9 50 31 69t72 19h161l11 60h32z" />
    <glyph glyph-name="dollar.numr" horiz-adv-x="662" 
d="M425 700h155q40 0 58 -21.5t12 -61.5l-3 -21h-38l3 19q9 54 -45 54h-336q-27 0 -39.5 -10.5t-16.5 -37.5l-7 -41q-4 -28 6.5 -40.5t37.5 -14.5l343 -20q84 -4 70 -83l-12 -68q-8 -41 -27 -57.5t-59 -16.5h-176l-10 -60h-32l10 60h-164q-39 0 -58 22t-12 61l6 31h38
l-5 -29q-9 -54 44 -54h351q27 0 38.5 10.5t16.5 37.5l11 60q10 51 -44 55l-342 19q-85 4 -71 84l9 49q8 41 27 57.5t59 16.5h170l10 60h33z" />
    <glyph glyph-name="Euro.numr" horiz-adv-x="687" 
d="M276 700h310q53 0 77 -28.5t14 -82.5l-6 -33h-39l6 32q7 41 -9 60t-57 19h-289q-41 0 -58.5 -15t-25.5 -57l-8 -47h341l-5 -26h-341l-11 -64h341l-5 -26h-341l-7 -40q-7 -41 8.5 -60t56.5 -19h289q41 0 59 15.5t26 57.5l8 43h39l-9 -50q-10 -55 -36.5 -77t-80.5 -22h-309
q-53 0 -76.5 28.5t-14.5 81.5l7 42h-75l5 26h75l11 64h-75l5 26h75l9 53q10 55 36 77t80 22z" />
    <glyph glyph-name="florin.numr" horiz-adv-x="614" 
d="M632 666h-139q-41 0 -60.5 -15.5t-30.5 -57.5l-35 -124h219l-6 -30h-221l-43 -152q-16 -56 -44.5 -79.5t-81.5 -23.5h-148l6 34h139q40 0 59 16t31 58l42 147h-221l6 30h223l37 128q16 56 44 79.5t81 23.5h149z" />
    <glyph glyph-name="sterling.numr" horiz-adv-x="687" 
d="M283 700h303q54 0 77.5 -28.5t13.5 -82.5l-5 -26h-38l4 25q7 41 -8.5 60t-56.5 19h-284q-41 0 -59.5 -16t-25.5 -57l-15 -87h336l-5 -29h-336l-29 -164h387q28 0 40 10t16 38l8 46h39l-9 -53q-7 -40 -27.5 -57.5t-60.5 -17.5h-513l6 34h74l29 164h-80l5 29h80l17 94
q10 55 36.5 77t80.5 22z" />
    <glyph glyph-name="yen.numr" horiz-adv-x="662" 
d="M641 700h57l-290 -242h229l-4 -27h-252l-12 -65h252l-5 -27h-252l-10 -59h-39l10 59h-251l5 27h251l12 65h-251l4 27h229l-204 242h52l194 -235z" />
    <glyph glyph-name="cent.tf" 
d="M616 700h248q159 0 131 -160l-7 -39h-40l7 39q12 67 -11.5 95.5t-90.5 28.5h-546q-65 0 -90 -22q-26 -23 -38 -88l-48 -264q-12 -67 11.5 -95.5t90.5 -28.5h547q65 0 90 22q24 22 38 88l12 63h40l-12 -67q-15 -81 -50 -112q-36 -30 -116 -30h-266l-18 -100h-40l18 100
h-254q-159 0 -131 160l48 268q15 81 50 112q34 30 115 30h272l18 100h40z" />
    <glyph glyph-name="dollar.tf" 
d="M614 700h262q63 0 93 -35t20 -99l-5 -32h-40l5 32q8 51 -11 74.5t-69 23.5h-580q-49 0 -71 -18.5t-30 -67.5l-13 -76q-9 -51 10 -74t71 -26l576 -34q134 -8 113 -134l-20 -116q-11 -65 -42 -91.5t-95 -26.5h-298l-17 -100h-40l17 100h-276q-63 0 -94 35.5t-20 98.5l9 50
h40l-9 -50q-18 -98 81 -98h604q49 0 70.5 18.5t29.5 67.5l19 110q9 51 -10 74t-70 26l-576 34q-135 8 -114 134l14 82q11 65 42.5 91.5t95.5 26.5h288l17 100h40z" />
    <glyph glyph-name="Euro.tf" 
d="M344 700h500q87 0 125.5 -46.5t22.5 -133.5l-9 -50h-41l9 50q13 74 -15.5 109t-102.5 35h-484q-74 0 -107.5 -29t-46.5 -103l-15 -87h583l-7 -36h-583l-20 -118h583l-7 -36h-583l-13 -75q-13 -74 15.5 -109t102.5 -35h484q73 0 107 29t47 103l13 72h40l-14 -80
q-16 -89 -58 -124.5t-130 -35.5h-500q-87 0 -125.5 46.5t-22.5 133.5l13 75h-96l7 36h96l21 118h-97l7 36h96l17 95q16 89 58 124.5t130 35.5z" />
    <glyph glyph-name="florin.tf" 
d="M1023 664h-251q-73 0 -105 -26q-32 -28 -53 -102l-65 -228h392l-7 -36h-396l-77 -270q-27 -92 -68 -127q-43 -35 -130 -35h-257l7 36h251q73 0 105 26q32 28 53 102l77 268h-397l7 36h400l66 230q27 93 69 127q41 35 129 35h257z" />
    <glyph glyph-name="sterling.tf" 
d="M354 700h490q86 0 124.5 -46t23.5 -134l-7 -40h-41l7 40q13 74 -15.5 109t-102.5 35h-474q-74 0 -108 -29t-47 -103l-28 -161h574l-7 -36h-574l-52 -299h661q50 0 72 19t31 69l14 78h40l-14 -82q-11 -65 -44.5 -92.5t-97.5 -27.5h-805l7 36h96l53 299h-107l7 36h106
l30 169q16 89 58 124.5t130 35.5z" />
    <glyph glyph-name="yen.tf" 
d="M1011 700h59l-497 -409h395l-7 -36h-426l-21 -118h426l-6 -36h-426l-18 -101h-40l18 101h-426l6 36h426l21 118h-426l7 36h394l-352 409h53l350 -407z" />
    <glyph glyph-name="percent.numr" horiz-adv-x="727" 
d="M150 280h-49l558 420h49zM324 507h-163q-31 0 -46 18.5t-10 50.5l11 66q5 32 21 45t48 13h163q32 0 46.5 -18t9.5 -50l-11 -66q-5 -32 -21 -45.5t-48 -13.5zM171 541h149q18 0 26.5 7.5t11.5 25.5l9 56q6 36 -29 36h-149q-18 0 -26.5 -7t-11.5 -25l-9 -56q-6 -37 29 -37z
M624 280h-163q-31 0 -46 18.5t-10 50.5l11 66q5 32 21 45t48 13h163q32 0 46.5 -18t9.5 -50l-11 -66q-5 -32 -21 -45.5t-48 -13.5zM471 314h149q18 0 26.5 7.5t11.5 25.5l9 56q6 36 -29 36h-149q-18 0 -26.5 -7t-11.5 -25l-9 -56q-6 -37 29 -37z" />
    <glyph glyph-name="perthousand.numr" horiz-adv-x="1051" 
d="M150 280h-49l558 420h49zM324 507h-163q-31 0 -46 18.5t-10 50.5l11 66q5 32 21 45t48 13h163q32 0 46.5 -18t9.5 -50l-11 -66q-5 -32 -21 -45.5t-48 -13.5zM171 541h149q18 0 26.5 7.5t11.5 25.5l9 56q6 36 -29 36h-149q-18 0 -26.5 -7t-11.5 -25l-9 -56q-6 -37 29 -37z
M624 280h-163q-31 0 -46 18.5t-10 50.5l11 66q5 32 21 45t48 13h163q32 0 46.5 -18t9.5 -50l-11 -66q-5 -32 -21 -45.5t-48 -13.5zM947 280h-163q-31 0 -46 18.5t-10 50.5l11 66q5 32 21 45t48 13h163q32 0 46.5 -18t9.5 -50l-11 -66q-5 -32 -21 -45.5t-48 -13.5zM471 314
h149q18 0 26.5 7.5t11.5 25.5l9 56q6 36 -29 36h-149q-18 0 -26.5 -7t-11.5 -25l-9 -56q-6 -37 29 -37zM794 314h149q33 0 38 33l9 56q6 36 -29 36h-149q-18 0 -26.5 -7t-11.5 -25l-9 -56q-6 -37 29 -37z" />
    <glyph glyph-name="percent.tf" horiz-adv-x="1140" 
d="M567 588l-19 -110q-9 -53 -35.5 -75.5t-79.5 -22.5h-250q-53 0 -77 29.5t-15 82.5l19 110q9 54 35.5 76t80.5 22h250q53 0 76.5 -29t14.5 -83zM153 0h-63l929 700h63zM190 416h242q38 0 55 14.5t24 52.5l19 106q14 75 -62 75h-242q-38 0 -54.5 -14t-23.5 -53l-19 -106
q-13 -75 61 -75zM946 0h-250q-53 0 -77 29.5t-15 82.5l19 110q9 54 35.5 76t80.5 22h250q53 0 76.5 -29t14.5 -83l-19 -110q-9 -53 -35.5 -75.5t-79.5 -22.5zM703 36h242q38 0 55 14.5t24 52.5l19 106q13 75 -62 75h-242q-38 0 -54.5 -14t-23.5 -53l-19 -106q-14 -75 61 -75
z" />
    <glyph glyph-name="perthousand.tf" horiz-adv-x="1660" 
d="M567 588l-19 -110q-9 -53 -35.5 -75.5t-79.5 -22.5h-250q-53 0 -77 29.5t-15 82.5l19 110q9 54 35.5 76t80.5 22h250q53 0 76.5 -29t14.5 -83zM153 0h-63l929 700h63zM190 416h242q38 0 55 14.5t24 52.5l19 106q14 75 -62 75h-242q-38 0 -54.5 -14t-23.5 -53l-19 -106
q-13 -75 61 -75zM946 0h-250q-53 0 -77 29.5t-15 82.5l19 110q9 54 35.5 76t80.5 22h250q53 0 76.5 -29t14.5 -83l-19 -110q-9 -53 -35.5 -75.5t-79.5 -22.5zM1466 0h-250q-53 0 -77 29.5t-15 82.5l19 110q9 54 35.5 76t80.5 22h250q53 0 76.5 -29t14.5 -83l-19 -110
q-9 -53 -35.5 -75.5t-79.5 -22.5zM703 36h242q38 0 55 14.5t24 52.5l19 106q13 75 -62 75h-242q-38 0 -54.5 -14t-23.5 -53l-19 -106q-14 -75 61 -75zM1223 36h242q38 0 55 14.5t24 52.5l19 106q13 75 -62 75h-242q-38 0 -54.5 -14t-23.5 -53l-19 -106q-14 -75 61 -75z" />
    <glyph glyph-name="brevecombcy" horiz-adv-x="0" 
d="M-93 580h-268q-35 0 -51 19.5t-9 53.5l9 47h38l-9 -47q-7 -37 31 -37h261q36 0 42 36l9 48h38l-9 -51q-7 -37 -25.5 -53t-56.5 -16z" />
    <glyph glyph-name="ringacutecomb" horiz-adv-x="470" 
d="M348 620h70q55 0 46 -55l-4 -24q-4 -29 -17 -40t-43 -11h-243q-55 0 -46 55l4 24q4 29 17 40t43 11h123l112 80h58zM425 545l3 18q4 24 -18 24h-235q-13 0 -18 -4.5t-7 -17.5l-3 -18q-5 -24 18 -24h235q13 0 18 4.5t7 17.5z" />
    </font>
</defs>
</svg>
