<?xml version="1.0" standalone="no"?>
<!DOCTYPE svg PUBLIC "-//W3C//DTD SVG 1.1//EN" "http://www.w3.org/Graphics/SVG/1.1/DTD/svg11.dtd" >
<svg xmlns="http://www.w3.org/2000/svg" xmlns:xlink="http://www.w3.org/1999/xlink" version="1.1">
<metadata>
Created by FontForge 20170731 at Thu Jun 30 17:45:20 2016
 By Aleksey,,,
@ 2016 Richard Miller
</metadata>
<defs>
<font id="TacticSansExtExd-UltIt" horiz-adv-x="1032" >
  <font-face 
    font-family="TacticSansExtExd-UltIt"
    font-weight="400"
    font-style="italic"
    font-stretch="extra-expanded"
    units-per-em="1000"
    panose-1="0 0 10 7 0 0 0 0 0 0"
    ascent="814"
    descent="-186"
    x-height="540"
    cap-height="700"
    bbox="-918 -250 1940 860"
    underline-thickness="50"
    underline-position="-200"
    slope="-10"
    unicode-range="U+0020-FB02"
  />
<missing-glyph horiz-adv-x="720" 
d="M-38 0l124 700h700l-124 -700h-700zM273 350l-199 -169l88 -107l199 169l139 -169l126 107l-139 169l199 169l-88 107l-199 -169l-139 169l-126 -107z" />
    <glyph glyph-name="ellipsis" unicode="&#x2e;&#x2e;&#x2e;" horiz-adv-x="1220" 
d="M292 0h-300l50 280h299zM712 0h-300l50 280h299zM1132 0h-300l50 280h299z" />
    <glyph glyph-name="blackbox.liga" unicode="[&#x2b;]" horiz-adv-x="940" 
d="M120 0v700h700v-700h-700z" />
    <glyph glyph-name="checkbox.liga" unicode="[]" horiz-adv-x="940" 
d="M120 0v700h700v-700h-700zM706 590h-472v-480h472v480z" />
    <glyph glyph-name="checkround.liga" unicode="&#x28;&#x29;" horiz-adv-x="940" 
d="M726 95q-105 -105 -256 -105q-152 0 -255 105q-105 103 -105 255q0 151 105 256q104 104 255 104q150 0 256 -104q104 -106 104 -256q0 -151 -104 -255zM295 173q70 -73 175 -73t175 73q71 73 71 177t-71 178q-71 72 -175 72t-175 -72q-71 -74 -71 -178t71 -177z" />
    <glyph glyph-name="checkstar.liga" unicode="&#x7b;&#x7d;" horiz-adv-x="940" 
d="M378 437l92 283l92 -283h297l-240 -174l91 -283l-240 175l-240 -175l91 283l-240 174h297zM502 355l-32 99l-33 -99h-104l85 -60l-32 -100l84 61l83 -61l-32 100l85 60h-104z" />
    <glyph glyph-name="blackround.liga" unicode="&#x28;&#x2b;&#x29;" horiz-adv-x="940" 
d="M726 95q-105 -105 -256 -105q-152 0 -255 105q-105 103 -105 255q0 151 105 256q104 104 255 104q150 0 256 -104q104 -106 104 -256q0 -151 -104 -255z" />
    <glyph glyph-name="filledstar.liga" unicode="&#x7b;&#x2b;&#x7d;" horiz-adv-x="940" 
d="M378 437l92 283l92 -283h297l-240 -174l91 -283l-240 175l-240 -175l91 283l-240 174h297z" />
    <glyph glyph-name="ff.liga" unicode="ff" horiz-adv-x="1444" 
d="M1479 524h-298q-19 0 -26 -6.5t-10 -25.5l-4 -20h329l-34 -188h-328l-50 -284h-264l50 284h-378l-50 -284h-264l50 284h-190l34 188h190l12 70q16 87 58 122.5t128 35.5h394l-31 -176h-258q-19 0 -26 -6.5t-10 -25.5l-4 -20h379l12 70q16 87 58 122.5t128 35.5h434z" />
    <glyph glyph-name=".notdef" horiz-adv-x="720" 
d="M-38 0l124 700h700l-124 -700h-700zM273 350l-199 -169l88 -107l199 169l139 -169l126 107l-139 169l199 169l-88 107l-199 -169l-139 169l-126 -107z" />
    <glyph glyph-name=".null" horiz-adv-x="0" 
 />
    <glyph glyph-name="nonmarkingreturn" horiz-adv-x="333" 
 />
    <glyph glyph-name="space" unicode=" " horiz-adv-x="300" 
 />
    <glyph glyph-name="exclam" unicode="!" horiz-adv-x="380" 
d="M90 270l26 430h300l-126 -430h-200zM293 0h-300l40 230h300z" />
    <glyph glyph-name="quotedbl" unicode="&#x22;" horiz-adv-x="580" 
d="M45 300l71 400h219l-70 -400h-220zM325 300l71 400h219l-70 -400h-220z" />
    <glyph glyph-name="numbersign" unicode="#" 
d="M1022 506l-26 -146h-175l-18 -100h175l-26 -146h-175l-20 -114h-196l20 114h-186l-20 -114h-196l20 114h-175l26 146h175l18 100h-175l26 146h175l20 114h196l-20 -114h186l20 114h196l-20 -114h175zM421 260h186l18 100h-186z" />
    <glyph glyph-name="dollar" unicode="$" 
d="M678 700h210q169 0 142 -174l-8 -52h-260l4 24q3 19 -2.5 25.5t-24.5 6.5h-350q-19 0 -26.5 -6.5t-10.5 -25.5l-2 -13q-3 -18 3 -24.5t24 -7.5l477 -21q88 -4 123 -46.5t20 -128.5l-17 -99q-15 -87 -57 -122.5t-129 -35.5h-239l-18 -100h-172l18 100h-225
q-175 0 -143 174l11 60h260l-6 -32q-4 -19 2 -25.5t25 -6.5h374q19 0 26.5 6.5t10.5 25.5l3 21q3 19 -2.5 25t-24.5 7l-477 21q-88 4 -123.5 46.5t-20.5 128.5l16 91q15 86 58 122t129 36h230l17 100h172z" />
    <glyph glyph-name="percent" unicode="%" horiz-adv-x="1140" 
d="M542 510l-19 -110q-9 -54 -36.5 -77t-81.5 -23h-260q-108 0 -90 110l19 110q9 54 36.5 77t81.5 23h260q108 0 90 -110zM236 0h-164l846 620h164zM218 412h145q22 0 27 23l9 50q2 13 -2 18t-18 5h-145q-23 0 -27 -23l-9 -50q-5 -23 20 -23zM962 0h-260q-108 0 -90 110
l19 110q9 54 36.5 77t81.5 23h260q108 0 90 -110l-19 -110q-9 -54 -36.5 -77t-81.5 -23zM775 112h145q22 0 27 23l9 50q2 13 -2 18t-18 5h-145q-23 0 -27 -23l-9 -50q-5 -23 20 -23z" />
    <glyph glyph-name="ampersand" unicode="&#x26;" horiz-adv-x="1182" 
d="M390 426h809l-25 -144h-120l-22 -126q-15 -86 -56.5 -121t-127.5 -35h-690q-173 0 -144 176l8 50q10 68 40 99t91 36q-70 34 -52 141l7 42q14 86 55.5 121t128.5 35h630q173 0 144 -176l-8 -52h-260l3 18q3 19 -3 25.5t-25 6.5h-368q-18 0 -25 -6.5t-11 -25.5l-6 -32
q-4 -19 2 -25.5t25 -6.5zM781 210l13 72h-461q-19 0 -26.5 -6.5t-10.5 -25.5l-7 -40q-3 -19 3 -25.5t25 -6.5h428q19 0 26 6.5t10 25.5z" />
    <glyph glyph-name="quotesingle" unicode="'" horiz-adv-x="300" 
d="M45 300l71 400h219l-70 -400h-220z" />
    <glyph glyph-name="parenleft" unicode="(" horiz-adv-x="640" 
d="M555 -100h-306q-129 0 -189 72.5t-37 201.5l68 380q23 130 91 188t197 58h334l-33 -190h-274q-72 0 -85 -72l-66 -372q-7 -37 9.5 -56.5t53.5 -19.5h270z" />
    <glyph glyph-name="parenright" unicode=")" horiz-adv-x="640" 
d="M113 800h306q129 0 189 -72.5t37 -201.5l-68 -380q-23 -130 -91 -188t-197 -58h-334l33 190h274q72 0 85 72l66 372q7 37 -9.5 56.5t-53.5 19.5h-270z" />
    <glyph glyph-name="asterisk" unicode="*" horiz-adv-x="490" 
d="M474 597l19 -139l-120 -5l63 -102l-126 -62l-42 114l-78 -92l-97 100l95 75l-112 46l65 123l101 -67l9 121l138 -24l-32 -116z" />
    <glyph glyph-name="plus" unicode="+" 
d="M666 454h348l-36 -208h-348l-37 -206h-236l37 206h-348l36 208h348l37 206h236z" />
    <glyph glyph-name="comma" unicode="," horiz-adv-x="380" 
d="M150 -160h-180l103 160h-80l49 280h300l-22 -126q-17 -98 -74 -178z" />
    <glyph glyph-name="hyphen" unicode="-" horiz-adv-x="660" 
d="M26 246l36 208h600l-36 -208h-600z" />
    <glyph glyph-name="period" unicode="." horiz-adv-x="380" 
d="M292 0h-300l50 280h299z" />
    <glyph glyph-name="slash" unicode="/" horiz-adv-x="600" 
d="M-65 -100l588 900h170l-588 -900h-170z" />
    <glyph glyph-name="zero" unicode="0" 
d="M748 0h-540q-107 0 -153.5 56t-27.5 164l50 280q19 108 73.5 154t161.5 46h540q107 0 153.5 -56t27.5 -164l-50 -280q-19 -108 -73.5 -154t-161.5 -46zM344 212h328q26 0 36.5 9.5t15.5 36.5l32 184q4 26 -4.5 36t-35.5 10h-328q-26 0 -36.5 -9.5t-15.5 -36.5l-32 -184
q-4 -26 4.5 -36t35.5 -10z" />
    <glyph glyph-name="one" unicode="1" horiz-adv-x="972" 
d="M724 700l-89 -500h305l-36 -200h-932l36 200h355l50 281l-330 -21l37 210l476 30h128z" />
    <glyph glyph-name="two" unicode="2" 
d="M972 200l-36 -200h-948l43 250q14 84 55.5 120t130.5 41l507 29q18 1 25 7t12 25l4 16q4 18 -2.5 25t-25.5 7h-352q-18 0 -25 -6.5t-11 -25.5l-6 -30h-260l14 86q14 86 56 121t129 35h614q174 0 145 -176l-15 -92q-13 -84 -54.5 -120t-131.5 -41l-508 -29
q-18 -1 -25 -7.5t-11 -24.5l-2 -10h678z" />
    <glyph glyph-name="three" unicode="3" 
d="M276 700h612q173 0 144 -176l-7 -42q-10 -60 -33.5 -90.5t-67.5 -40.5q80 -30 62 -145l-8 -50q-14 -86 -55.5 -121t-128.5 -35h-632q-173 0 -144 176l15 90h260l-8 -46q-3 -19 2.5 -25.5t24.5 -6.5h370q19 0 26.5 6.5t10.5 25.5l4 24q3 19 -2.5 25.5t-24.5 6.5h-333
l27 156h325q19 0 26 6.5t11 25.5l3 16q4 19 -2 25.5t-25 6.5h-350q-19 0 -26 -6.5t-11 -25.5l-7 -38h-260l18 102q15 86 56.5 121t127.5 35z" />
    <glyph glyph-name="four" unicode="4" horiz-adv-x="1062" 
d="M871 302h177l-34 -188h-176l-20 -114h-270l20 114h-576l28 158l602 428h320zM638 508l-290 -206h254z" />
    <glyph glyph-name="five" unicode="5" horiz-adv-x="1002" 
d="M762 0h-770l36 200h625q19 0 26 6.5t10 25.5l1 6q3 19 -2.5 25.5t-24.5 6.5h-623l76 430h896l-36 -200h-626l-8 -50h480q174 0 144 -176l-20 -118q-15 -86 -56.5 -121t-127.5 -35z" />
    <glyph glyph-name="six" unicode="6" 
d="M1006 500h-615q-26 0 -37 -9.5t-16 -36.5l-7 -41q31 31 108 31h412q174 0 144 -176l-19 -112q-15 -86 -56.5 -121t-127.5 -35h-628q-174 0 -144 176l57 324q19 108 73.5 154t161.5 46h730zM695 282h-356q-19 0 -26 -6.5t-11 -25.5l-6 -34q-3 -19 3 -25.5t25 -6.5h356
q19 0 26 6.5t10 25.5l6 34q3 19 -2.5 25.5t-24.5 6.5z" />
    <glyph glyph-name="seven" unicode="7" horiz-adv-x="992" 
d="M57 480l39 220h952l-34 -190l-379 -239q-33 -21 -49 -46t-24 -67l-28 -158h-276l29 162q20 107 50 155q32 50 108 92l130 71h-518z" />
    <glyph glyph-name="eight" unicode="8" 
d="M276 700h612q173 0 144 -176l-7 -42q-10 -60 -33.5 -90.5t-67.5 -40.5q80 -30 62 -145l-8 -50q-14 -86 -55.5 -121t-128.5 -35h-632q-173 0 -144 176l8 50q10 63 36.5 94t78.5 39q-74 33 -56 143l7 42q14 86 55.5 121t128.5 35zM352 484l-5 -26q-4 -19 2 -25.5t25 -6.5
h340q19 0 26 6.5t11 25.5l5 26q4 18 -2.5 25t-25.5 7h-340q-18 0 -25 -6.5t-11 -25.5zM718 216l6 34q3 19 -2.5 25.5t-24.5 6.5h-360q-19 0 -26.5 -6.5t-10.5 -25.5l-6 -34q-3 -19 3 -25.5t25 -6.5h360q19 0 26 6.5t10 25.5z" />
    <glyph glyph-name="nine" unicode="9" 
d="M268 700h629q174 0 144 -176l-57 -324q-19 -108 -73.5 -154t-161.5 -46h-731l35 196h615q26 0 38 10t16 36l7 39q-34 -31 -108 -31h-413q-174 0 -144 176l20 118q15 86 56.5 121t127.5 35zM364 412h357q18 0 25.5 6.5t11.5 23.5l6 36q3 19 -3 25.5t-25 6.5h-357
q-19 0 -26 -6.5t-10 -25.5l-6 -34q-3 -19 2.5 -25.5t24.5 -6.5z" />
    <glyph glyph-name="colon" unicode=":" horiz-adv-x="380" 
d="M345 300h-299l42 240h299zM292 0h-299l42 240h299z" />
    <glyph glyph-name="semicolon" unicode=";" horiz-adv-x="380" 
d="M345 300h-300l43 240h300zM150 -160h-180l102 160h-80l43 240h300l-15 -86q-17 -98 -74 -178z" />
    <glyph glyph-name="less" unicode="&#x3c;" 
d="M84 464l971 220l-40 -234l-516 -102l478 -112l-40 -220l-889 240z" />
    <glyph glyph-name="equal" unicode="=" 
d="M70 386l35 198h932l-35 -198h-932zM23 116l35 198h932l-35 -198h-932z" />
    <glyph glyph-name="greater" unicode="&#x3e;" 
d="M83 464l40 220l889 -240l-36 -208l-971 -220l40 234l516 102z" />
    <glyph glyph-name="question" unicode="?" horiz-adv-x="1006" 
d="M602 240h-252l12 66q12 68 42 95q28 25 106 33l213 19q27 3 32 26l2 11q3 16 -2.5 22t-21.5 6h-381q-16 0 -22.5 -6t-9.5 -22l-8 -46h-260l16 100q14 86 56 121t129 35h635q173 0 143 -176l-10 -58q-13 -76 -58 -115t-132 -46l-195 -17q-15 -1 -21.5 -6.5t-8.5 -20.5z
M583 0h-300l36 200h300z" />
    <glyph glyph-name="at" unicode="@" horiz-adv-x="1192" 
d="M304 700h708q107 0 155 -58t29 -166l-30 -172q-13 -73 -49 -103.5t-109 -30.5h-137q-73 0 -96 47q-39 -31 -61 -38q-26 -9 -75 -9h-268q-131 0 -107 131l19 106q12 67 45 95t99 28h268q48 0 68 -7q22 -8 43 -32l19 39h156l-38 -220q-5 -24 16 -24h24q20 0 28 6.5t11 23.5
l28 160q10 60 -10 84t-79 24h-628q-58 0 -83 -20q-23 -19 -34 -80l-46 -260q-10 -60 10 -84t79 -24h810l-21 -116h-840q-107 0 -155 58t-29 166l50 280q20 110 71 152q53 44 159 44zM750 309l11 9l11 64l-7 9q-9 11 -34 11h-242q-15 0 -21 -5t-8 -19l-9 -53q-2 -15 2.5 -21
t19.5 -6h242q22 0 35 11z" />
    <glyph glyph-name="A" unicode="A" horiz-adv-x="1172" 
d="M1134 0h-310l-41 104h-431l-78 -104h-332l562 700h316zM635 484l-149 -200h227z" />
    <glyph glyph-name="B" unicode="B" horiz-adv-x="1100" 
d="M116 700h836q84 0 120 -44.5t22 -129.5l-7 -42q-10 -57 -32.5 -88t-63.5 -43q85 -27 67 -145l-8 -50q-14 -86 -56.5 -122t-129.5 -36h-872zM779 510h-417l-14 -82h419q17 0 24 6t12 26l4 18q4 18 -2.5 25t-25.5 7zM781 222l5 26q4 19 -2 25.5t-25 6.5h-437l-16 -90h439
q18 0 25 6.5t11 25.5z" />
    <glyph glyph-name="C" unicode="C" horiz-adv-x="1102" 
d="M824 0h-620q-107 0 -153.5 56t-27.5 164l50 280q19 108 73.5 154t161.5 46h620q107 0 153.5 -56t27.5 -164l-15 -86h-270l8 43q4 26 -4.5 36.5t-34.5 10.5h-398q-26 0 -37.5 -9.5t-15.5 -35.5l-32 -176q-4 -26 4.5 -36.5t34.5 -10.5h398q27 0 38 9.5t15 35.5l9 51h270
l-20 -112q-19 -108 -73.5 -154t-161.5 -46z" />
    <glyph glyph-name="D" unicode="D" horiz-adv-x="1132" 
d="M806 0h-814l124 700h786q125 0 187 -74t39 -200l-32 -180q-22 -126 -93 -186t-197 -60zM357 480l-46 -260h446q29 0 44 12.5t20 41.5l26 148q10 58 -48 58h-442z" />
    <glyph glyph-name="E" unicode="E" horiz-adv-x="1010" 
d="M1056 700l-35 -198h-660l-12 -68h620l-28 -160h-620l-14 -76h670l-35 -198h-950l124 700h940z" />
    <glyph glyph-name="F" unicode="F" horiz-adv-x="980" 
d="M1046 700l-37 -208h-650l-15 -85h610l-32 -184h-610l-40 -223h-280l124 700h930z" />
    <glyph glyph-name="G" unicode="G" horiz-adv-x="1134" 
d="M854 0h-650q-107 0 -153.5 56t-27.5 164l50 280q19 108 73.5 154t161.5 46h650q107 0 153.5 -56t27.5 -164l-8 -46h-280l2 13q4 26 -4.5 36.5t-34.5 10.5h-418q-26 0 -37.5 -9.5t-15.5 -35.5l-38 -216q-4 -26 4.5 -36.5t34.5 -10.5h428q26 0 37 9.5t16 35.5l3 15h-272
l26 152h542l-35 -198q-19 -108 -73.5 -154t-161.5 -46z" />
    <glyph glyph-name="H" unicode="H" horiz-adv-x="1120" 
d="M836 475l40 225h280l-124 -700h-280l43 245h-480l-43 -245h-280l124 700h280l-40 -225h480z" />
    <glyph glyph-name="I" unicode="I" horiz-adv-x="372" 
d="M-4 0l124 700h284l-124 -700h-284z" />
    <glyph glyph-name="J" unicode="J" horiz-adv-x="1026" 
d="M742 0h-550q-107 0 -153.5 56t-27.5 164l16 90h270l-9 -47q-5 -26 4 -36.5t35 -10.5h328q27 0 38 9.5t15 35.5l78 439h280l-89 -500q-19 -108 -73.5 -154t-161.5 -46z" />
    <glyph glyph-name="K" unicode="K" horiz-adv-x="1114" 
d="M756 700h430l-514 -344l394 -356h-406l-330 326l-58 -326h-280l124 700h280l-54 -305z" />
    <glyph glyph-name="L" unicode="L" horiz-adv-x="950" 
d="M396 700l-83 -470h620l-41 -230h-900l124 700h280z" />
    <glyph glyph-name="M" unicode="M" horiz-adv-x="1260" 
d="M627 339l411 361h258l-124 -700h-270l62 351l-289 -255h-152l-199 256l-62 -352h-270l124 700h228z" />
    <glyph glyph-name="N" unicode="N" horiz-adv-x="1140" 
d="M833 285l73 415h270l-124 -700h-230l-485 422l-75 -422h-270l124 700h240z" />
    <glyph glyph-name="O" unicode="O" horiz-adv-x="1134" 
d="M854 0h-650q-107 0 -153.5 56t-27.5 164l50 280q19 108 73.5 154t161.5 46h650q107 0 153.5 -56t27.5 -164l-50 -280q-19 -108 -73.5 -154t-161.5 -46zM350 220h418q26 0 37.5 9.5t15.5 35.5l30 168q4 26 -4.5 36.5t-34.5 10.5h-418q-26 0 -37.5 -9.5t-15.5 -35.5
l-30 -168q-4 -26 4.5 -36.5t34.5 -10.5z" />
    <glyph glyph-name="P" unicode="P" horiz-adv-x="1080" 
d="M272 0h-280l124 700h820q199 0 164 -200l-24 -140q-16 -98 -64 -140q-47 -40 -148 -40h-560zM360 500l-22 -130h423q22 0 30.5 8t12.5 30l10 54q4 22 -3.5 30t-29.5 8h-421z" />
    <glyph glyph-name="Q" unicode="Q" horiz-adv-x="1134" 
d="M308 700h650q107 0 153.5 -56t27.5 -164l-50 -280q-17 -90 -57.5 -136.5t-112.5 -58.5l127 -145h-304l-115 140h-423q-107 0 -153.5 56t-27.5 164l50 280q19 108 73.5 154t161.5 46zM341 435l-30 -168q-4 -26 4.5 -36.5t34.5 -10.5h418q26 0 37.5 9.5t15.5 35.5l30 168
q4 26 -4.5 36.5t-34.5 10.5h-418q-26 0 -37.5 -9.5t-15.5 -35.5z" />
    <glyph glyph-name="R" unicode="R" horiz-adv-x="1090" 
d="M116 700h820q199 0 164 -200l-16 -94q-16 -98 -63 -138t-141 -42l150 -226h-316l-132 206h-273l-37 -206h-280zM783 510h-421l-21 -120h423q22 0 31 8t13 30l8 44q4 22 -3.5 30t-29.5 8z" />
    <glyph glyph-name="S" unicode="S" horiz-adv-x="1114" 
d="M15 174l11 60h270l-6 -32q-4 -19 2 -25.5t25 -6.5h436q19 0 26.5 6.5t10.5 25.5l3 21q3 19 -2.5 25t-24.5 7l-549 21q-172 6 -144 175l16 91q15 86 58 122t129 36h694q169 0 142 -174l-8 -52h-270l4 24q3 19 -2.5 25.5t-24.5 6.5h-412q-19 0 -26.5 -6.5t-10.5 -25.5
l-2 -13q-3 -18 3 -24.5t24 -7.5l549 -21q171 -6 143 -175l-17 -99q-15 -87 -57 -122.5t-129 -35.5h-718q-175 0 -143 174z" />
    <glyph glyph-name="T" unicode="T" horiz-adv-x="1020" 
d="M86 700h1000l-41 -230h-360l-83 -470h-280l83 470h-360z" />
    <glyph glyph-name="U" unicode="U" horiz-adv-x="1112" 
d="M828 0h-620q-107 0 -153.5 56t-27.5 164l85 480h280l-75 -424q-4 -26 4.5 -36.5t34.5 -10.5h388q26 0 37.5 9.5t15.5 35.5l75 426h280l-89 -500q-19 -108 -73.5 -154t-161.5 -46z" />
    <glyph glyph-name="V" unicode="V" horiz-adv-x="1144" 
d="M561 271l341 429h328l-580 -700h-252l-332 700h306z" />
    <glyph glyph-name="W" unicode="W" horiz-adv-x="1550" 
d="M1072 299l246 401h318l-465 -700h-240l-138 398l-278 -398h-232l-217 700h296l104 -399l269 399h206z" />
    <glyph glyph-name="X" unicode="X" horiz-adv-x="1120" 
d="M344 0h-392l432 357l-298 343h364l144 -179l200 179h392l-420 -343l306 -357h-364l-152 193z" />
    <glyph glyph-name="Y" unicode="Y" horiz-adv-x="1116" 
d="M838 700h364l-507 -448l-45 -252h-280l45 252l-349 448h342l173 -238z" />
    <glyph glyph-name="Z" unicode="Z" horiz-adv-x="1080" 
d="M1002 0h-1020l32 180l555 300h-482l39 220h1000l-32 -180l-555 -300h502z" />
    <glyph glyph-name="bracketleft" unicode="[" horiz-adv-x="620" 
d="M525 -100h-560l158 900h560l-33 -190h-326l-92 -520h326z" />
    <glyph glyph-name="backslash" unicode="\" horiz-adv-x="600" 
d="M93 800h154l288 -900h-154z" />
    <glyph glyph-name="bracketright" unicode="]" horiz-adv-x="620" 
d="M123 800h560l-158 -900h-560l33 190h326l92 520h-326z" />
    <glyph glyph-name="asciicircum" unicode="^" 
d="M692 700l302 -420h-250l-174 240l-258 -240h-270l450 420h200z" />
    <glyph glyph-name="underscore" unicode="_" horiz-adv-x="980" 
d="M-83 -200l28 160h980l-28 -160h-980z" />
    <glyph glyph-name="grave" unicode="`" horiz-adv-x="388" 
d="M474 570h-213l-138 130h273z" />
    <glyph glyph-name="a" unicode="a" horiz-adv-x="984" 
d="M260 540h540q198 0 163 -198l-61 -342h-224l-7 45q-41 -30 -72 -37q-37 -8 -101 -8h-379q-63 0 -93.5 37t-18.5 100l10 54q23 123 144 123h533l5 30q4 22 -3 30t-29 8h-308q-19 0 -26 -6.5t-11 -25.5l-2 -11h-254l7 43q14 87 57 122.5t130 35.5zM298 138h308q30 0 46 16
l16 14l7 40h-367q-16 0 -21.5 -5t-8.5 -21l-3 -18q-2 -16 2.5 -21t20.5 -5z" />
    <glyph glyph-name="b" unicode="b" horiz-adv-x="998" 
d="M496 540h322q196 0 162 -198l-28 -160q-17 -100 -65.5 -141t-148.5 -41h-330q-71 0 -102 10q-34 11 -66 44l-26 -54h-224l124 700h264l-34 -193q32 19 63 27q31 6 89 6zM697 230l14 80q4 22 -3 30t-29 8h-299q-34 0 -53 -16l-17 -14l-17 -96l12 -14q13 -16 49 -16h299
q22 0 31 8t13 30z" />
    <glyph glyph-name="c" unicode="c" horiz-adv-x="960" 
d="M702 0h-520q-199 0 -164 200l28 160q16 99 65 140q46 40 147 40h520q197 0 164 -200l-7 -43h-254l2 13q3 22 -3.5 30t-28.5 8h-306q-22 0 -31 -8t-13 -30l-14 -80q-4 -22 3 -30t29 -8h306q22 0 31 8t13 30l3 17h254l-12 -67q-18 -101 -65 -140q-46 -40 -147 -40z" />
    <glyph glyph-name="d" unicode="d" horiz-adv-x="998" 
d="M738 505l34 195h264l-124 -700h-224l-7 53q-43 -34 -77 -43q-33 -10 -102 -10h-322q-196 0 -162 198l28 160q17 100 65.5 141t148.5 41h330q61 0 91.5 -7t56.5 -28zM319 192h299q34 0 53 16l16 13l17 98l-11 13q-13 16 -49 16h-299q-22 0 -31 -8t-13 -30l-14 -80
q-4 -22 3 -30t29 -8z" />
    <glyph glyph-name="e" unicode="e" horiz-adv-x="980" 
d="M260 540h540q99 0 139 -48.5t23 -149.5l-18 -104h-656l-4 -24q-4 -22 3 -30t29 -8h332q19 0 26 6.5t11 25.5l1 5h254l-10 -55q-16 -87 -58 -122.5t-128 -35.5h-564q-196 0 -162 198l28 160q17 100 65.5 141t148.5 41zM310 360l-3 -16h402l3 16q4 22 -3 30t-29 8h-326
q-22 0 -31 -8t-13 -30z" />
    <glyph glyph-name="f" unicode="f" horiz-adv-x="802" 
d="M837 524h-298q-19 0 -26 -6.5t-10 -25.5l-4 -20h329l-34 -188h-328l-50 -284h-264l50 284h-190l34 188h190l12 70q16 87 58 122.5t128 35.5h434z" />
    <glyph glyph-name="g" unicode="g" horiz-adv-x="998" 
d="M758 486l26 54h224l-89 -500q-19 -108 -73.5 -154t-161.5 -46h-710l31 176h598q27 0 39.5 10t16.5 36l4 25q-30 -20 -61.5 -26.5t-89.5 -6.5h-322q-99 0 -139 48.5t-23 149.5l18 106q17 102 66 142q47 40 148 40h330q71 0 102 -10q34 -11 66 -44zM676 238l17 14l3 20
l11 62l-11 14q-13 16 -49 16h-299q-22 0 -31 -8t-13 -30l-12 -66q-4 -22 3 -30t29 -8h299q34 0 53 16z" />
    <glyph glyph-name="h" unicode="h" horiz-adv-x="992" 
d="M506 540h300q200 0 164 -200l-60 -340h-264l54 304q4 22 -3 30t-29 8h-289q-34 0 -53 -16l-17 -14l-55 -312h-264l124 700h264l-36 -201q36 25 69 33q35 8 95 8z" />
    <glyph glyph-name="i" unicode="i" horiz-adv-x="352" 
d="M363 570h-268l23 130h268zM262 0h-268l96 540h268z" />
    <glyph glyph-name="j" unicode="j" horiz-adv-x="452" 
d="M463 570h-268l23 130h268zM176 -160h-372l32 182h231q19 0 26.5 6.5t10.5 25.5l86 486h268l-96 -542q-16 -87 -58 -122.5t-128 -35.5z" />
    <glyph glyph-name="k" unicode="k" horiz-adv-x="1018" 
d="M640 540h428l-430 -270l342 -270h-404l-279 241l-43 -241h-264l124 700h264l-71 -398z" />
    <glyph glyph-name="l" unicode="l" horiz-adv-x="352" 
d="M262 0h-268l124 700h268z" />
    <glyph glyph-name="m" unicode="m" horiz-adv-x="1588" 
d="M1126 540h286q98 0 135 -49t19 -151l-60 -340h-264l54 304q4 22 -3 30t-29 8h-258q-35 0 -54 -16l-17 -14l-55 -312h-264l54 304q4 22 -3 30t-29 8h-258q-35 0 -54 -16l-16 -13l-56 -313h-264l96 540h224l7 -53q42 32 80 43q33 10 103 10h286q110 0 144 -63q48 40 87 52
q38 11 109 11z" />
    <glyph glyph-name="n" unicode="n" horiz-adv-x="992" 
d="M500 540h306q200 0 164 -200l-60 -340h-264l54 304q4 22 -3 30t-29 8h-288q-35 0 -54 -16l-16 -13l-56 -313h-264l96 540h224l7 -53q42 32 80 43q33 10 103 10z" />
    <glyph glyph-name="o" unicode="o" horiz-adv-x="990" 
d="M732 0h-550q-199 0 -164 200l28 160q16 99 65 140q46 40 147 40h550q199 0 164 -200l-28 -160q-16 -98 -64 -140q-47 -40 -148 -40zM319 192h326q22 0 31 8t13 30l14 80q4 22 -3 30t-29 8h-326q-22 0 -31 -8t-13 -30l-14 -80q-4 -22 3 -30t29 -8z" />
    <glyph glyph-name="p" unicode="p" horiz-adv-x="998" 
d="M496 540h322q196 0 162 -198l-28 -160q-17 -100 -65.5 -141t-148.5 -41h-330q-61 0 -91.5 7t-56.5 28l-34 -195h-264l124 700h224l7 -53q42 33 77 44q34 9 102 9zM697 230l14 80q4 22 -3 30t-29 8h-299q-34 0 -53 -16l-16 -13l-17 -98l11 -13q13 -16 49 -16h299
q22 0 31 8t13 30z" />
    <glyph glyph-name="q" unicode="q" horiz-adv-x="998" 
d="M758 486l26 54h224l-124 -700h-264l34 193q-33 -20 -63 -26q-29 -7 -89 -7h-322q-196 0 -162 198l28 160q17 100 65.5 141t148.5 41h330q71 0 102 -10q34 -11 66 -44zM671 208l17 14l17 96l-12 14q-13 16 -49 16h-299q-22 0 -31 -8t-13 -30l-14 -80q-4 -22 3 -30t29 -8
h299q34 0 53 16z" />
    <glyph glyph-name="r" unicode="r" horiz-adv-x="690" 
d="M486 540h242l-39 -218h-313q-37 0 -54 -16l-16 -14l-52 -292h-264l96 540h194l9 -68q55 44 89 56t108 12z" />
    <glyph glyph-name="s" unicode="s" horiz-adv-x="970" 
d="M7 140l8 44h254l-5 -28q-2 -13 1.5 -17.5t17.5 -4.5h348q14 0 19 4.5t6 17.5l2 15q2 13 -2 17.5t-17 5.5l-471 20q-63 2 -93.5 38t-20.5 98l11 64q21 126 149 126h622q61 0 92.5 -38.5t20.5 -101.5l-6 -36h-254l3 20q2 13 -1.5 17.5t-17.5 4.5h-324q-14 0 -19 -4.5
t-6 -17.5l-1 -9q-2 -13 2 -17.5t17 -5.5l471 -20q63 -2 93.5 -38t20.5 -98l-12 -70q-21 -126 -149 -126h-646q-62 0 -93 38.5t-20 101.5z" />
    <glyph glyph-name="t" unicode="t" horiz-adv-x="822" 
d="M816 352h-337l-23 -128q-3 -19 3 -25.5t25 -6.5h304l-34 -192h-429q-173 0 -142 172l32 180h-190l33 188h190l69 120h216l-21 -120h337z" />
    <glyph glyph-name="u" unicode="u" horiz-adv-x="992" 
d="M738 540h264l-96 -540h-224l-7 53q-42 -32 -79 -43q-34 -10 -104 -10h-306q-200 0 -164 200l60 340h264l-54 -304q-4 -22 3 -30t29 -8h288q35 0 54 16l16 13z" />
    <glyph glyph-name="v" unicode="v" horiz-adv-x="998" 
d="M483 253l243 287h330l-494 -540h-222l-302 540h304z" />
    <glyph glyph-name="w" unicode="w" horiz-adv-x="1362" 
d="M926 263l180 277h304l-393 -540h-226l-109 293l-211 -293h-222l-201 540h278l85 -277l202 277h206z" />
    <glyph glyph-name="x" unicode="x" horiz-adv-x="980" 
d="M328 0h-386l356 276l-250 264h362l99 -117l133 117h386l-344 -264l258 -276h-362l-107 130z" />
    <glyph glyph-name="y" unicode="y" horiz-adv-x="998" 
d="M481 242l245 298h330l-494 -540q-88 -97 -154 -129q-65 -31 -186 -31h-248l34 192h233q25 0 39 5.5t28 20.5l-270 482h304z" />
    <glyph glyph-name="z" unicode="z" horiz-adv-x="954" 
d="M878 0h-898l26 146l443 212h-385l32 182h878l-26 -146l-443 -212h405z" />
    <glyph glyph-name="braceleft" unicode="{" horiz-adv-x="740" 
d="M465 560l-16 -89q-17 -95 -89 -124q62 -35 45 -127l-14 -80q-4 -28 5.5 -39t37.5 -11h254l-33 -190h-310q-114 0 -162 58t-28 172l18 100q6 34 -30 34h-124l30 171h128q18 0 26.5 8t11.5 26l22 121q21 113 77 162q56 48 169 48h330l-33 -190h-258q-27 0 -39.5 -11
t-17.5 -39z" />
    <glyph glyph-name="bar" unicode="|" horiz-adv-x="310" 
d="M-15 -100l158 900h210l-158 -900h-210z" />
    <glyph glyph-name="braceright" unicode="}" horiz-adv-x="740" 
d="M625 436h124l-30 -171h-128q-18 0 -26.5 -8t-11.5 -26l-22 -121q-21 -113 -77 -162q-56 -48 -169 -48h-330l33 190h258q27 0 39.5 11t17.5 39l16 89q17 95 89 124q-62 35 -45 127l14 80q4 28 -5.5 39t-37.5 11h-254l33 190h310q114 0 162 -58t28 -172l-18 -100
q-6 -34 30 -34z" />
    <glyph glyph-name="asciitilde" unicode="~" 
d="M546 466l178 -116q8 -5 16 -5h26q10 0 11 9l26 150h220l-37 -208q-10 -54 -36.5 -77t-80.5 -23h-198q-55 0 -89 8q-33 8 -68 31l-178 115q-8 5 -16 5h-26q-10 0 -11 -9l-26 -150h-220l37 208q10 54 36.5 77t80.5 23h198q61 0 90 -7q32 -8 67 -31z" />
    <glyph glyph-name="exclamdown" unicode="&#xa1;" horiz-adv-x="380" 
d="M116 700h300l-40 -230h-300zM319 430l-26 -430h-300l126 430h200z" />
    <glyph glyph-name="cent" unicode="&#xa2;" 
d="M681 700h190q200 0 165 -200l-9 -53h-260l3 19q4 22 -3.5 30t-29.5 8h-353q-22 0 -30.5 -8t-12.5 -30l-18 -102q-4 -22 3.5 -30t29.5 -8h353q22 0 30.5 8t12.5 30l4 23h260l-14 -77q-20 -102 -65 -140q-46 -40 -146 -40h-211l-18 -100h-172l18 100h-196q-201 0 -165 200
l34 190q18 99 65 140q46 40 146 40h217l17 100h172z" />
    <glyph glyph-name="sterling" unicode="&#xa3;" horiz-adv-x="1072" 
d="M373 700h519q107 0 153.5 -56.5t27.5 -163.5l-12 -66h-260l9 48q5 26 -4 36t-36 10h-327q-19 0 -28.5 -10t-13.5 -36l-6 -36h342l-23 -132h-343l-16 -92h378q19 0 26.5 6.5t10.5 25.5l10 58h260l-23 -132q-15 -86 -59 -123t-130 -37h-865l36 202h86l16 92h-96l23 132h97
l13 74q19 108 73.5 154t161.5 46z" />
    <glyph glyph-name="currency" unicode="&#xa4;" 
d="M952 420l-28 -160q-4 -22 -13 -47l74 -90l-120 -103l-67 81q-36 -11 -74 -11h-460q-39 0 -72 13l-97 -83l-98 119l108 91q-2 24 3 50l28 160q4 22 13 47l-74 90l120 103l67 -81q36 11 74 11h460q39 0 72 -13l97 83l98 -119l-108 -91q2 -24 -3 -50zM368 276h300
q26 0 37 9.5t16 36.5l10 56q4 26 -4.5 36t-34.5 10h-300q-26 0 -37 -9.5t-16 -36.5l-10 -56q-4 -26 4.5 -36t34.5 -10z" />
    <glyph glyph-name="yen" unicode="&#xa5;" 
d="M742 700h356l-374 -360h280l-18 -106h-342l-8 -46h341l-18 -106h-342l-14 -82h-270l14 82h-340l18 106h341l8 46h-340l18 106h281l-247 360h334l122 -221z" />
    <glyph glyph-name="brokenbar" unicode="&#xa6;" horiz-adv-x="310" 
d="M84 460l60 340h210l-60 -340h-210zM-14 -100l60 340h210l-60 -340h-210z" />
    <glyph glyph-name="section" unicode="&#xa7;" horiz-adv-x="1250" 
d="M501 558l608 -30q156 -8 127 -166l-12 -66q-13 -75 -43.5 -108t-92.5 -37l-3 -19l-13 -76q-15 -87 -56 -121.5t-127 -34.5h-628q-85 0 -122 45t-23 131l9 54h270l-5 -28q-3 -19 3 -25.5t25 -6.5h348q17 0 24 6.5t10 23.5l2 12q3 17 -2.5 23t-22.5 7l-608 30
q-156 8 -127 166l12 66q13 75 43.5 108t92.5 37l3 19l13 76q15 87 56 121.5t127 34.5h628q85 0 122 -45t23 -131l-9 -54h-270l5 28q3 19 -3 25.5t-25 6.5h-348q-17 0 -24 -6.5t-10 -23.5l-2 -12q-3 -17 2.5 -23t22.5 -7zM343 338l602 -29q3 4 4 11l4 22q4 19 -18 20l-602 29
q-3 -4 -4 -11l-4 -22q-4 -19 18 -20z" />
    <glyph glyph-name="dieresis" unicode="&#xa8;" horiz-adv-x="480" 
d="M304 570h-210l22 130h210zM574 570h-210l22 130h210z" />
    <glyph glyph-name="copyright" unicode="&#xa9;" horiz-adv-x="1172" 
d="M890 0h-580q-103 0 -166 63q-64 63 -64 167v240q0 104 64 167q63 63 166 63h580q102 0 167 -63q63 -63 63 -167v-240q0 -104 -63 -167q-65 -63 -167 -63zM326 70h548q83 0 127.5 44.5t44.5 127.5v216q0 83 -44.5 127.5t-127.5 44.5h-548q-83 0 -127.5 -44.5t-44.5 -127.5
v-216q0 -83 44.5 -127.5t127.5 -44.5zM850 126h-500q-71 0 -105.5 34t-34.5 106v168q0 72 34.5 106t105.5 34h500q71 0 105.5 -34t34.5 -106v-59h-187v25q0 17 -6.5 23.5t-23.5 6.5h-339q-17 0 -24 -6.5t-7 -23.5v-100q0 -17 7 -23.5t24 -6.5h339q17 0 23.5 6.5t6.5 23.5v29
h187v-63q0 -72 -34.5 -106t-105.5 -34z" />
    <glyph glyph-name="ordfeminine" unicode="&#xaa;" horiz-adv-x="591" 
d="M205 700h324q118 0 97 -118l-36 -206h-138l-4 27q-23 -17 -42.5 -22t-59.5 -5h-228q-37 0 -55.5 22.5t-11.5 59.5l6 33q14 74 87 74h318l3 17q2 12 -2 16.5t-17 4.5h-182q-20 0 -21 -18l-1 -7h-156l5 26q10 52 36 74t78 22zM228 461h183q17 0 27 9l8 7l4 23h-215
q-15 0 -17 -15l-2 -10q-1 -9 1 -11.5t11 -2.5z" />
    <glyph glyph-name="guillemotleft" unicode="&#xab;" horiz-adv-x="1330" 
d="M69 434l630 170l-35 -196l-273 -59l250 -69l-32 -184l-566 190zM719 434l630 170l-35 -196l-273 -59l250 -69l-32 -184l-566 190z" />
    <glyph glyph-name="logicalnot" unicode="&#xac;" 
d="M738 246h-692l36 208h932l-64 -368h-240z" />
    <glyph glyph-name="uni00AD" unicode="&#xad;" horiz-adv-x="660" 
d="M26 246l36 208h600l-36 -208h-600z" />
    <glyph glyph-name="registered" unicode="&#xae;" horiz-adv-x="393" 
d="M192 700h105q113 0 113 -113v-92q0 -113 -113 -113h-105q-113 0 -113 113v92q0 113 113 113zM362 497v88q0 39 -15.5 54t-53.5 15h-97q-38 0 -53.5 -15t-15.5 -54v-88q0 -38 15.5 -53.5t53.5 -15.5h97q38 0 53.5 15.5t15.5 53.5zM324 576v-18q0 -36 -29 -41l36 -54h-60
l-27 46h-21v-46h-54v155h113q42 0 42 -42zM262 579h-39v-32h39q9 0 9 8v15q0 9 -9 9z" />
    <glyph glyph-name="overscore" unicode="&#xaf;" horiz-adv-x="520" 
d="M615 580h-520l20 110h520z" />
    <glyph glyph-name="degree" unicode="&#xb0;" horiz-adv-x="440" 
d="M303 330h-126q-59 0 -90.5 38.5t-21.5 98.5l20 116q19 117 138 117h126q59 0 90.5 -38.5t21.5 -98.5l-20 -116q-19 -117 -138 -117zM227 454h52q17 0 24.5 6.5t10.5 23.5l10 62q3 18 -2.5 24t-22.5 6h-52q-17 0 -24.5 -6t-10.5 -24l-10 -62q-3 -17 2.5 -23.5t22.5 -6.5z
" />
    <glyph glyph-name="plusminus" unicode="&#xb1;" 
d="M711 700l-26 -146h348l-33 -188h-348l-26 -146h-236l26 146h-348l33 188h348l26 146h236zM935 0h-932l33 188h932z" />
    <glyph glyph-name="uni00B2" unicode="&#xb2;" horiz-adv-x="638" 
d="M626 403l-22 -123h-573l26 150q9 51 34 73t78 25l303 16q17 2 20 18l2 13q3 16 -15 16h-205q-11 0 -14.5 -3t-5.5 -15l-4 -20h-162l8 53q8 51 33.5 72.5t77.5 21.5h371q108 0 88 -108l-9 -50q-9 -51 -34.5 -72.5t-78.5 -24.5l-302 -16q-16 -1 -19 -19l-1 -7h404z" />
    <glyph glyph-name="uni00B3" unicode="&#xb3;" horiz-adv-x="636" 
d="M204 700h370q105 0 87 -105l-4 -24q-11 -69 -62 -80q51 -17 39 -87l-5 -29q-9 -52 -35 -73.5t-78 -21.5h-382q-102 0 -86 105l9 56h162l-4 -27q-1 -12 1.5 -15t13.5 -3h216q12 0 16 3.5t5 14.5l2 14q2 11 -1 14.5t-15 3.5h-195l17 92h191q11 0 15 3.5t5 14.5l1 10
q2 11 -1 14.5t-14 3.5h-204q-11 0 -15 -3.5t-6 -14.5l-4 -22h-162l11 61q10 52 35 73.5t77 21.5z" />
    <glyph glyph-name="acute" unicode="&#xb4;" horiz-adv-x="388" 
d="M509 700l-182 -130h-238l122 130h298z" />
    <glyph glyph-name="paragraph" unicode="&#xb6;" horiz-adv-x="1010" 
d="M43 400l21 120q16 99 65 140q46 40 147 40h730l-124 -700h-240l88 500h-100l-88 -500h-240l36 200h-130q-200 0 -165 200z" />
    <glyph glyph-name="middot" unicode="&#xb7;" horiz-adv-x="380" 
d="M329 210h-300l50 280h299z" />
    <glyph glyph-name="cedilla" unicode="&#xb8;" horiz-adv-x="320" 
d="M230 -160h-266l12 66h187q7 0 8 7l1 4q1 7 -6 7h-127l6 32l31 64h92l-19 -38h102q58 0 48 -58l-5 -30q-5 -30 -19.5 -42t-44.5 -12z" />
    <glyph glyph-name="uni00B9" unicode="&#xb9;" horiz-adv-x="600" 
d="M464 700l-53 -297h194l-22 -123h-562l22 123h200l29 162l-185 -12l23 129l267 18h87z" />
    <glyph glyph-name="ordmasculine" unicode="&#xba;" horiz-adv-x="594" 
d="M486 376h-330q-119 0 -98 120l16 95q10 60 40 84.5t90 24.5h330q60 0 83.5 -29.5t13.5 -89.5l-16 -95q-10 -60 -39.5 -85t-89.5 -25zM239 494h193q22 0 26 21l8 46q2 12 -1.5 16.5t-16.5 4.5h-193q-20 0 -25 -21l-8 -46q-2 -12 1.5 -16.5t15.5 -4.5z" />
    <glyph glyph-name="guillemotright" unicode="&#xbb;" horiz-adv-x="1330" 
d="M67 420l32 184l566 -190l-26 -148l-630 -170l35 196l273 59zM717 420l32 184l566 -190l-26 -148l-630 -170l35 196l273 59z" />
    <glyph glyph-name="onequarter" unicode="&#xbc;" horiz-adv-x="1414" 
d="M411 403h194l-22 -123h-562l22 123h200l29 162l-185 -12l23 129l267 18h87zM303 0l803 700h160l-803 -700h-160zM1270 182h110l-20 -115h-110l-12 -67h-164l12 67h-342l17 97l356 256h195zM1126 298l-166 -116h146z" />
    <glyph glyph-name="onehalf" unicode="&#xbd;" horiz-adv-x="1528" 
d="M411 403h194l-22 -123h-562l22 123h200l29 162l-185 -12l23 129l267 18h87zM303 0l803 700h160l-803 -700h-160zM1048 420h371q108 0 88 -108l-9 -50q-9 -51 -34.5 -72.5t-78.5 -24.5l-302 -16q-16 -1 -19 -19l-1 -7h404l-22 -123h-573l26 150q9 51 34 73t78 25l303 16
q17 2 20 18l2 13q3 16 -15 16h-205q-11 0 -14.5 -3t-5.5 -15l-4 -20h-162l8 53q8 51 33.5 72.5t77.5 21.5z" />
    <glyph glyph-name="threequarters" unicode="&#xbe;" horiz-adv-x="1450" 
d="M634 404l-5 -29q-9 -52 -35 -73.5t-78 -21.5h-382q-102 0 -86 105l9 56h162l-4 -27q-1 -12 1.5 -15t13.5 -3h216q12 0 16 3.5t5 14.5l2 14q2 11 -1 14.5t-15 3.5h-195l17 92h191q11 0 15 3.5t5 14.5l1 10q2 11 -1 14.5t-14 3.5h-204q-11 0 -15 -3.5t-6 -14.5l-4 -22h-162
l11 61q10 52 35 73.5t77 21.5h370q105 0 87 -105l-4 -24q-11 -69 -62 -80q51 -17 39 -87zM339 0l803 700h160l-803 -700h-160zM1306 182h110l-20 -115h-110l-12 -67h-164l12 67h-342l17 97l356 256h195zM1162 298l-166 -116h146z" />
    <glyph glyph-name="questiondown" unicode="&#xbf;" horiz-adv-x="1006" 
d="M452 700h300l-36 -200h-300zM433 460h252l-12 -66q-12 -68 -41 -94t-107 -34l-213 -19q-27 -3 -32 -26l-2 -11q-3 -16 2.5 -22t21.5 -6h381q16 0 22.5 6t9.5 22l8 46h260l-16 -100q-14 -86 -56 -121t-129 -35h-635q-173 0 -143 176l10 58q13 76 58 115t132 46l195 17
q15 1 21.5 6.5t8.5 20.5z" />
    <glyph glyph-name="Agrave" unicode="&#xc0;" horiz-adv-x="1172" 
d="M698 860l78 -130h-213l-138 130h273zM1134 0h-310l-41 104h-431l-78 -104h-332l562 700h316zM635 484l-149 -200h227z" />
    <glyph glyph-name="Aacute" unicode="&#xc1;" horiz-adv-x="1172" 
d="M671 860h298l-182 -130h-238zM1134 0h-310l-41 104h-431l-78 -104h-332l562 700h316zM635 484l-149 -200h227z" />
    <glyph glyph-name="Acircumflex" unicode="&#xc2;" horiz-adv-x="1172" 
d="M762 730l-80 42l-94 -42h-196l162 130h270l118 -130h-180zM1134 0h-310l-41 104h-431l-78 -104h-332l562 700h316zM635 484l-149 -200h227z" />
    <glyph glyph-name="Atilde" unicode="&#xc3;" horiz-adv-x="1172" 
d="M575 780l-8 -50h-149l14 82q9 48 57 48h205q24 0 34.5 -5.5t20.5 -22.5l13 -23q3 -4 8 -4h7q4 0 6 5l8 50h149l-14 -82q-9 -48 -57 -48h-205q-24 0 -34.5 5.5t-20.5 22.5l-13 23q-3 4 -8 4h-7q-4 0 -6 -5zM1134 0h-310l-41 104h-431l-78 -104h-332l562 700h316zM635 484
l-149 -200h227z" />
    <glyph glyph-name="Adieresis" unicode="&#xc4;" horiz-adv-x="1172" 
d="M450 860h210l-22 -130h-210zM720 860h210l-22 -130h-210zM1134 0h-310l-41 104h-431l-78 -104h-332l562 700h316zM635 484l-149 -200h227z" />
    <glyph glyph-name="Aring" unicode="&#xc5;" horiz-adv-x="1172" 
d="M802 720h-268q-58 0 -48 58l5 28q5 30 19 42t44 12h268q58 0 48 -58l-5 -28q-5 -30 -19 -42t-44 -12zM579 795l-2 -10q-2 -11 0.5 -14t12.5 -3h168q10 0 13.5 3t5.5 14l2 10q2 11 -0.5 14t-12.5 3h-168q-10 0 -13.5 -3t-5.5 -14zM1134 0h-310l-41 104h-431l-78 -104h-332
l562 700h316zM635 484l-149 -200h227z" />
    <glyph glyph-name="AE" unicode="&#xc6;" horiz-adv-x="1580" 
d="M1626 700l-35 -198h-681l28 -68h601l-28 -160h-508l31 -76h513l-35 -198h-708l-37 104h-415l-78 -104h-332l562 700h1122zM631 479l-145 -195h216z" />
    <glyph glyph-name="Ccedilla" unicode="&#xc7;" horiz-adv-x="1102" 
d="M308 700h620q107 0 153.5 -56t27.5 -164l-15 -86h-270l8 43q4 26 -4.5 36.5t-34.5 10.5h-398q-26 0 -37.5 -9.5t-15.5 -35.5l-32 -176q-4 -26 4.5 -36.5t34.5 -10.5h398q27 0 38 9.5t15 35.5l9 51h270l-20 -112q-19 -108 -73.5 -154t-161.5 -46h-293l-9 -18h102
q58 0 48 -58l-5 -30q-5 -30 -19.5 -42t-44.5 -12h-266l12 66h187q7 0 8 7l1 4q1 7 -6 7h-127l6 32l21 44h-235q-107 0 -153.5 56t-27.5 164l50 280q19 108 73.5 154t161.5 46z" />
    <glyph glyph-name="Egrave" unicode="&#xc8;" horiz-adv-x="1010" 
d="M617 860l78 -130h-213l-138 130h273zM1056 700l-35 -198h-660l-12 -68h620l-28 -160h-620l-14 -76h670l-35 -198h-950l124 700h940z" />
    <glyph glyph-name="Eacute" unicode="&#xc9;" horiz-adv-x="1010" 
d="M590 860h298l-182 -130h-238zM1056 700l-35 -198h-660l-12 -68h620l-28 -160h-620l-14 -76h670l-35 -198h-950l124 700h940z" />
    <glyph glyph-name="Ecircumflex" unicode="&#xca;" horiz-adv-x="1010" 
d="M681 730l-80 42l-94 -42h-196l162 130h270l118 -130h-180zM1056 700l-35 -198h-660l-12 -68h620l-28 -160h-620l-14 -76h670l-35 -198h-950l124 700h940z" />
    <glyph glyph-name="Edieresis" unicode="&#xcb;" horiz-adv-x="1010" 
d="M369 860h210l-22 -130h-210zM639 860h210l-22 -130h-210zM1056 700l-35 -198h-660l-12 -68h620l-28 -160h-620l-14 -76h670l-35 -198h-950l124 700h940z" />
    <glyph glyph-name="Igrave" unicode="&#xcc;" horiz-adv-x="372" 
d="M376 730h-213l-138 130h273zM-4 0l124 700h284l-124 -700h-284z" />
    <glyph glyph-name="Iacute" unicode="&#xcd;" horiz-adv-x="372" 
d="M569 860l-182 -130h-238l122 130h298zM-4 0l124 700h284l-124 -700h-284z" />
    <glyph glyph-name="Icircumflex" unicode="&#xce;" horiz-adv-x="372" 
d="M188 730h-196l162 130h270l118 -130h-180l-80 42zM-4 0l124 700h284l-124 -700h-284z" />
    <glyph glyph-name="Idieresis" unicode="&#xcf;" horiz-adv-x="372" 
d="M238 730h-210l22 130h210zM508 730h-210l22 130h210zM-4 0l124 700h284l-124 -700h-284z" />
    <glyph glyph-name="Eth" unicode="&#xd0;" horiz-adv-x="1192" 
d="M176 700h786q125 0 187 -74t39 -200l-32 -180q-22 -126 -93 -186t-197 -60h-814l50 280h-80l24 140h80zM881 274l26 148q10 58 -48 58h-442l-11 -60h300l-24 -140h-300l-11 -60h446q29 0 44 12.5t20 41.5z" />
    <glyph glyph-name="Ntilde" unicode="&#xd1;" horiz-adv-x="1140" 
d="M549 780l-8 -50h-149l14 82q9 48 57 48h205q24 0 34.5 -5.5t20.5 -22.5l13 -23q3 -4 8 -4h7q4 0 6 5l8 50h149l-14 -82q-9 -48 -57 -48h-205q-24 0 -34.5 5.5t-20.5 22.5l-13 23q-3 4 -8 4h-7q-4 0 -6 -5zM833 285l73 415h270l-124 -700h-230l-485 422l-75 -422h-270
l124 700h240z" />
    <glyph glyph-name="Ograve" unicode="&#xd2;" horiz-adv-x="1134" 
d="M757 730h-213l-138 130h273zM854 0h-650q-107 0 -153.5 56t-27.5 164l50 280q19 108 73.5 154t161.5 46h650q107 0 153.5 -56t27.5 -164l-50 -280q-19 -108 -73.5 -154t-161.5 -46zM350 220h418q26 0 37.5 9.5t15.5 35.5l30 168q4 26 -4.5 36.5t-34.5 10.5h-418
q-26 0 -37.5 -9.5t-15.5 -35.5l-30 -168q-4 -26 4.5 -36.5t34.5 -10.5z" />
    <glyph glyph-name="Oacute" unicode="&#xd3;" horiz-adv-x="1134" 
d="M950 860l-182 -130h-238l122 130h298zM854 0h-650q-107 0 -153.5 56t-27.5 164l50 280q19 108 73.5 154t161.5 46h650q107 0 153.5 -56t27.5 -164l-50 -280q-19 -108 -73.5 -154t-161.5 -46zM350 220h418q26 0 37.5 9.5t15.5 35.5l30 168q4 26 -4.5 36.5t-34.5 10.5h-418
q-26 0 -37.5 -9.5t-15.5 -35.5l-30 -168q-4 -26 4.5 -36.5t34.5 -10.5z" />
    <glyph glyph-name="Ocircumflex" unicode="&#xd4;" horiz-adv-x="1134" 
d="M569 730h-196l162 130h270l118 -130h-180l-80 42zM854 0h-650q-107 0 -153.5 56t-27.5 164l50 280q19 108 73.5 154t161.5 46h650q107 0 153.5 -56t27.5 -164l-50 -280q-19 -108 -73.5 -154t-161.5 -46zM350 220h418q26 0 37.5 9.5t15.5 35.5l30 168q4 26 -4.5 36.5
t-34.5 10.5h-418q-26 0 -37.5 -9.5t-15.5 -35.5l-30 -168q-4 -26 4.5 -36.5t34.5 -10.5z" />
    <glyph glyph-name="Otilde" unicode="&#xd5;" horiz-adv-x="1134" 
d="M548 730h-149l14 82q9 48 57 48h205q23 0 34 -5.5t21 -22.5l13 -23q3 -4 8 -4h7q4 0 6 5l8 50h149l-14 -82q-9 -48 -57 -48h-205q-23 0 -34 5.5t-21 22.5l-13 23q-3 4 -8 4h-7q-4 0 -6 -5zM854 0h-650q-107 0 -153.5 56t-27.5 164l50 280q19 108 73.5 154t161.5 46h650
q107 0 153.5 -56t27.5 -164l-50 -280q-19 -108 -73.5 -154t-161.5 -46zM350 220h418q26 0 37.5 9.5t15.5 35.5l30 168q4 26 -4.5 36.5t-34.5 10.5h-418q-26 0 -37.5 -9.5t-15.5 -35.5l-30 -168q-4 -26 4.5 -36.5t34.5 -10.5z" />
    <glyph glyph-name="Odieresis" unicode="&#xd6;" horiz-adv-x="1134" 
d="M619 730h-210l22 130h210zM889 730h-210l22 130h210zM854 0h-650q-107 0 -153.5 56t-27.5 164l50 280q19 108 73.5 154t161.5 46h650q107 0 153.5 -56t27.5 -164l-50 -280q-19 -108 -73.5 -154t-161.5 -46zM350 220h418q26 0 37.5 9.5t15.5 35.5l30 168q4 26 -4.5 36.5
t-34.5 10.5h-418q-26 0 -37.5 -9.5t-15.5 -35.5l-30 -168q-4 -26 4.5 -36.5t34.5 -10.5z" />
    <glyph glyph-name="multiply" unicode="&#xd7;" 
d="M928 696l98 -179l-309 -178l245 -180l-134 -155l-305 224l-390 -224l-98 179l309 177l-246 181l134 155l305 -225z" />
    <glyph glyph-name="Oslash" unicode="&#xd8;" horiz-adv-x="1134" 
d="M1033 730h180l-116 -81q61 -61 40 -179l-48 -270q-19 -108 -73.5 -154t-161.5 -46h-640q-7 0 -39 2l-46 -32h-180l116 81q-61 61 -40 179l48 270q19 108 73.5 154t161.5 46h640q7 0 39 -2zM333 445l-34 -188q-5 -30 5 -38l387 271h-305q-26 0 -37.5 -9.5t-15.5 -35.5z
M829 255l34 188q5 28 -5 38l-387 -271h305q26 0 37.5 9.5t15.5 35.5z" />
    <glyph glyph-name="Ugrave" unicode="&#xd9;" horiz-adv-x="1112" 
d="M746 730h-213l-138 130h273zM828 0h-620q-107 0 -153.5 56t-27.5 164l85 480h280l-75 -424q-4 -26 4.5 -36.5t34.5 -10.5h388q26 0 37.5 9.5t15.5 35.5l75 426h280l-89 -500q-19 -108 -73.5 -154t-161.5 -46z" />
    <glyph glyph-name="Uacute" unicode="&#xda;" horiz-adv-x="1112" 
d="M939 860l-182 -130h-238l122 130h298zM828 0h-620q-107 0 -153.5 56t-27.5 164l85 480h280l-75 -424q-4 -26 4.5 -36.5t34.5 -10.5h388q26 0 37.5 9.5t15.5 35.5l75 426h280l-89 -500q-19 -108 -73.5 -154t-161.5 -46z" />
    <glyph glyph-name="Ucircumflex" unicode="&#xdb;" horiz-adv-x="1112" 
d="M558 730h-196l162 130h270l118 -130h-180l-80 42zM828 0h-620q-107 0 -153.5 56t-27.5 164l85 480h280l-75 -424q-4 -26 4.5 -36.5t34.5 -10.5h388q26 0 37.5 9.5t15.5 35.5l75 426h280l-89 -500q-19 -108 -73.5 -154t-161.5 -46z" />
    <glyph glyph-name="Udieresis" unicode="&#xdc;" horiz-adv-x="1112" 
d="M608 730h-210l22 130h210zM878 730h-210l22 130h210zM828 0h-620q-107 0 -153.5 56t-27.5 164l85 480h280l-75 -424q-4 -26 4.5 -36.5t34.5 -10.5h388q26 0 37.5 9.5t15.5 35.5l75 426h280l-89 -500q-19 -108 -73.5 -154t-161.5 -46z" />
    <glyph glyph-name="Yacute" unicode="&#xdd;" horiz-adv-x="1116" 
d="M633 860h298l-182 -130h-238zM838 700h364l-507 -448l-45 -252h-280l45 252l-349 448h342l173 -238z" />
    <glyph glyph-name="Thorn" unicode="&#xde;" horiz-adv-x="1080" 
d="M382 620h540q199 0 164 -200l-24 -140q-16 -98 -64 -140q-47 -40 -148 -40h-560l-18 -100h-280l124 700h280zM790 328l10 54q4 22 -3.5 30t-29.5 8h-421l-23 -130h423q22 0 31 8t13 30z" />
    <glyph glyph-name="germandbls" unicode="&#xdf;" horiz-adv-x="1000" 
d="M271 700h582q174 0 145 -176l-7 -42q-10 -58 -32.5 -88.5t-63.5 -40.5q85 -28 67 -147l-8 -50q-14 -86 -56 -121t-129 -35h-348l31 176h209q19 0 26.5 6.5t10.5 25.5l7 40q3 19 -2.5 25.5t-24.5 6.5h-207l26 148h189q18 0 25 6.5t11 25.5l6 32q4 19 -2 25.5t-25 6.5h-322
q-19 0 -26.5 -6.5t-10.5 -25.5l-87 -492h-264l95 544q15 86 56.5 121t128.5 35z" />
    <glyph glyph-name="agrave" unicode="&#xe0;" horiz-adv-x="984" 
d="M586 700l78 -130h-213l-138 130h273zM260 540h540q198 0 163 -198l-61 -342h-224l-7 45q-41 -30 -72 -37q-37 -8 -101 -8h-379q-63 0 -93.5 37t-18.5 100l10 54q23 123 144 123h533l5 30q4 22 -3 30t-29 8h-308q-19 0 -26 -6.5t-11 -25.5l-2 -11h-254l7 43
q14 87 57 122.5t130 35.5zM298 138h308q30 0 46 16l16 14l7 40h-367q-16 0 -21.5 -5t-8.5 -21l-3 -18q-2 -16 2.5 -21t20.5 -5z" />
    <glyph glyph-name="aacute" unicode="&#xe1;" horiz-adv-x="984" 
d="M559 700h298l-182 -130h-238zM260 540h540q198 0 163 -198l-61 -342h-224l-7 45q-41 -30 -72 -37q-37 -8 -101 -8h-379q-63 0 -93.5 37t-18.5 100l10 54q23 123 144 123h533l5 30q4 22 -3 30t-29 8h-308q-19 0 -26 -6.5t-11 -25.5l-2 -11h-254l7 43q14 87 57 122.5
t130 35.5zM298 138h308q30 0 46 16l16 14l7 40h-367q-16 0 -21.5 -5t-8.5 -21l-3 -18q-2 -16 2.5 -21t20.5 -5z" />
    <glyph glyph-name="acircumflex" unicode="&#xe2;" horiz-adv-x="984" 
d="M650 570l-80 42l-94 -42h-196l162 130h270l118 -130h-180zM260 540h540q198 0 163 -198l-61 -342h-224l-7 45q-41 -30 -72 -37q-37 -8 -101 -8h-379q-63 0 -93.5 37t-18.5 100l10 54q23 123 144 123h533l5 30q4 22 -3 30t-29 8h-308q-19 0 -26 -6.5t-11 -25.5l-2 -11
h-254l7 43q14 87 57 122.5t130 35.5zM298 138h308q30 0 46 16l16 14l7 40h-367q-16 0 -21.5 -5t-8.5 -21l-3 -18q-2 -16 2.5 -21t20.5 -5z" />
    <glyph glyph-name="atilde" unicode="&#xe3;" horiz-adv-x="984" 
d="M463 620l-8 -50h-149l14 82q9 48 57 48h205q24 0 34.5 -5.5t20.5 -22.5l13 -23q3 -4 8 -4h7q4 0 6 5l8 50h149l-14 -82q-9 -48 -57 -48h-205q-24 0 -34.5 5.5t-20.5 22.5l-13 23q-3 4 -8 4h-7q-4 0 -6 -5zM260 540h540q198 0 163 -198l-61 -342h-224l-7 45
q-41 -30 -72 -37q-37 -8 -101 -8h-379q-63 0 -93.5 37t-18.5 100l10 54q23 123 144 123h533l5 30q4 22 -3 30t-29 8h-308q-19 0 -26 -6.5t-11 -25.5l-2 -11h-254l7 43q14 87 57 122.5t130 35.5zM298 138h308q30 0 46 16l16 14l7 40h-367q-16 0 -21.5 -5t-8.5 -21l-3 -18
q-2 -16 2.5 -21t20.5 -5z" />
    <glyph glyph-name="adieresis" unicode="&#xe4;" horiz-adv-x="984" 
d="M338 700h210l-22 -130h-210zM608 700h210l-22 -130h-210zM260 540h540q198 0 163 -198l-61 -342h-224l-7 45q-41 -30 -72 -37q-37 -8 -101 -8h-379q-63 0 -93.5 37t-18.5 100l10 54q23 123 144 123h533l5 30q4 22 -3 30t-29 8h-308q-19 0 -26 -6.5t-11 -25.5l-2 -11h-254
l7 43q14 87 57 122.5t130 35.5zM298 138h308q30 0 46 16l16 14l7 40h-367q-16 0 -21.5 -5t-8.5 -21l-3 -18q-2 -16 2.5 -21t20.5 -5z" />
    <glyph glyph-name="aring" unicode="&#xe5;" horiz-adv-x="984" 
d="M690 560h-268q-58 0 -48 58l5 28q5 30 19 42t44 12h268q58 0 48 -58l-5 -28q-5 -30 -19 -42t-44 -12zM467 635l-2 -10q-2 -11 0.5 -14t12.5 -3h168q10 0 13.5 3t5.5 14l2 10q2 11 -0.5 14t-12.5 3h-168q-10 0 -13.5 -3t-5.5 -14zM260 540h540q198 0 163 -198l-61 -342
h-224l-7 45q-41 -30 -72 -37q-37 -8 -101 -8h-379q-63 0 -93.5 37t-18.5 100l10 54q23 123 144 123h533l5 30q4 22 -3 30t-29 8h-308q-19 0 -26 -6.5t-11 -25.5l-2 -11h-254l7 43q14 87 57 122.5t130 35.5zM298 138h308q30 0 46 16l16 14l7 40h-367q-16 0 -21.5 -5t-8.5 -21
l-3 -18q-2 -16 2.5 -21t20.5 -5z" />
    <glyph glyph-name="ae" unicode="&#xe6;" horiz-adv-x="1636" 
d="M966 540h490q196 0 162 -198l-18 -104h-656l-4 -24q-4 -22 3 -30t29 -8h332q19 0 26 6.5t11 25.5l1 5h254l-10 -55q-16 -87 -58 -122.5t-128 -35.5h-524q-92 0 -132 40q-34 -24 -69 -32q-37 -8 -97 -8h-459q-63 0 -93.5 37t-18.5 100l10 54q23 123 144 123h533l5 30
q4 22 -3 30t-29 8h-308q-19 0 -26 -6.5t-11 -25.5l-2 -11h-254l7 43q14 87 57 122.5t130 35.5h490q71 0 104 -34q40 34 112 34zM966 360l-3 -16h402l3 16q4 22 -3 30t-29 8h-326q-22 0 -31 -8t-13 -30zM652 154l16 14l7 40h-367q-16 0 -21.5 -5t-8.5 -21l-3 -18
q-2 -16 2.5 -21t20.5 -5h308q30 0 46 16z" />
    <glyph glyph-name="ccedilla" unicode="&#xe7;" horiz-adv-x="960" 
d="M258 540h520q197 0 164 -200l-7 -43h-254l2 13q3 22 -3.5 30t-28.5 8h-306q-22 0 -31 -8t-13 -30l-14 -80q-4 -22 3 -30t29 -8h306q22 0 31 8t13 30l3 17h254l-12 -67q-18 -101 -65 -140q-46 -40 -147 -40h-242l-9 -18h102q58 0 48 -58l-5 -30q-5 -30 -19.5 -42
t-44.5 -12h-266l12 66h187q7 0 8 7l1 4q1 7 -6 7h-127l6 32l21 44h-186q-199 0 -164 200l28 160q16 99 65 140q46 40 147 40z" />
    <glyph glyph-name="egrave" unicode="&#xe8;" horiz-adv-x="980" 
d="M574 700l78 -130h-213l-138 130h273zM260 540h540q99 0 139 -48.5t23 -149.5l-18 -104h-656l-4 -24q-4 -22 3 -30t29 -8h332q19 0 26 6.5t11 25.5l1 5h254l-10 -55q-16 -87 -58 -122.5t-128 -35.5h-564q-196 0 -162 198l28 160q17 100 65.5 141t148.5 41zM310 360l-3 -16
h402l3 16q4 22 -3 30t-29 8h-326q-22 0 -31 -8t-13 -30z" />
    <glyph glyph-name="eacute" unicode="&#xe9;" horiz-adv-x="980" 
d="M547 700h298l-182 -130h-238zM260 540h540q99 0 139 -48.5t23 -149.5l-18 -104h-656l-4 -24q-4 -22 3 -30t29 -8h332q19 0 26 6.5t11 25.5l1 5h254l-10 -55q-16 -87 -58 -122.5t-128 -35.5h-564q-196 0 -162 198l28 160q17 100 65.5 141t148.5 41zM310 360l-3 -16h402
l3 16q4 22 -3 30t-29 8h-326q-22 0 -31 -8t-13 -30z" />
    <glyph glyph-name="ecircumflex" unicode="&#xea;" horiz-adv-x="980" 
d="M638 570l-80 42l-94 -42h-196l162 130h270l118 -130h-180zM260 540h540q99 0 139 -48.5t23 -149.5l-18 -104h-656l-4 -24q-4 -22 3 -30t29 -8h332q19 0 26 6.5t11 25.5l1 5h254l-10 -55q-16 -87 -58 -122.5t-128 -35.5h-564q-196 0 -162 198l28 160q17 100 65.5 141
t148.5 41zM310 360l-3 -16h402l3 16q4 22 -3 30t-29 8h-326q-22 0 -31 -8t-13 -30z" />
    <glyph glyph-name="edieresis" unicode="&#xeb;" horiz-adv-x="980" 
d="M326 700h210l-22 -130h-210zM596 700h210l-22 -130h-210zM260 540h540q99 0 139 -48.5t23 -149.5l-18 -104h-656l-4 -24q-4 -22 3 -30t29 -8h332q19 0 26 6.5t11 25.5l1 5h254l-10 -55q-16 -87 -58 -122.5t-128 -35.5h-564q-196 0 -162 198l28 160q17 100 65.5 141
t148.5 41zM310 360l-3 -16h402l3 16q4 22 -3 30t-29 8h-326q-22 0 -31 -8t-13 -30z" />
    <glyph glyph-name="igrave" unicode="&#xec;" horiz-adv-x="352" 
d="M338 570h-213l-138 130h273zM262 0h-268l96 540h268z" />
    <glyph glyph-name="iacute" unicode="&#xed;" horiz-adv-x="352" 
d="M531 700l-182 -130h-238l122 130h298zM262 0h-268l96 540h268z" />
    <glyph glyph-name="icircumflex" unicode="&#xee;" horiz-adv-x="352" 
d="M150 570h-196l162 130h270l118 -130h-180l-80 42zM262 0h-268l96 540h268z" />
    <glyph glyph-name="idieresis" unicode="&#xef;" horiz-adv-x="352" 
d="M200 570h-210l22 130h210zM470 570h-210l22 130h210zM262 0h-268l96 540h268z" />
    <glyph glyph-name="eth" unicode="&#xf0;" horiz-adv-x="990" 
d="M684 700h132q107 0 153.5 -56t27.5 -164l-57 -324q-15 -87 -56 -121.5t-127 -34.5h-598q-87 0 -124.5 45t-21.5 131l21 118q16 87 57 121.5t127 34.5h394q86 0 110 -36l11 64q4 26 -4.5 36t-34.5 10h-190l-49 -48h-156l49 48h-193l31 176h342l61 60h156zM310 172h338
q19 0 26.5 6.5t10.5 25.5l9 52q4 19 -2 25.5t-25 6.5h-338q-19 0 -26.5 -6.5t-10.5 -25.5l-9 -52q-3 -19 2.5 -25.5t24.5 -6.5z" />
    <glyph glyph-name="ntilde" unicode="&#xf1;" horiz-adv-x="992" 
d="M457 620l-8 -50h-149l14 82q9 48 57 48h205q24 0 34.5 -5.5t20.5 -22.5l13 -23q3 -4 8 -4h7q4 0 6 5l8 50h149l-14 -82q-9 -48 -57 -48h-205q-24 0 -34.5 5.5t-20.5 22.5l-13 23q-3 4 -8 4h-7q-4 0 -6 -5zM500 540h306q200 0 164 -200l-60 -340h-264l54 304q4 22 -3 30
t-29 8h-288q-35 0 -54 -16l-16 -13l-56 -313h-264l96 540h224l7 -53q42 32 80 43q33 10 103 10z" />
    <glyph glyph-name="ograve" unicode="&#xf2;" horiz-adv-x="990" 
d="M657 570h-213l-138 130h273zM732 0h-550q-199 0 -164 200l28 160q16 99 65 140q46 40 147 40h550q199 0 164 -200l-28 -160q-16 -98 -64 -140q-47 -40 -148 -40zM319 192h326q22 0 31 8t13 30l14 80q4 22 -3 30t-29 8h-326q-22 0 -31 -8t-13 -30l-14 -80q-4 -22 3 -30
t29 -8z" />
    <glyph glyph-name="oacute" unicode="&#xf3;" horiz-adv-x="990" 
d="M850 700l-182 -130h-238l122 130h298zM732 0h-550q-199 0 -164 200l28 160q16 99 65 140q46 40 147 40h550q199 0 164 -200l-28 -160q-16 -98 -64 -140q-47 -40 -148 -40zM319 192h326q22 0 31 8t13 30l14 80q4 22 -3 30t-29 8h-326q-22 0 -31 -8t-13 -30l-14 -80
q-4 -22 3 -30t29 -8z" />
    <glyph glyph-name="ocircumflex" unicode="&#xf4;" horiz-adv-x="990" 
d="M469 570h-196l162 130h270l118 -130h-180l-80 42zM732 0h-550q-199 0 -164 200l28 160q16 99 65 140q46 40 147 40h550q199 0 164 -200l-28 -160q-16 -98 -64 -140q-47 -40 -148 -40zM319 192h326q22 0 31 8t13 30l14 80q4 22 -3 30t-29 8h-326q-22 0 -31 -8t-13 -30
l-14 -80q-4 -22 3 -30t29 -8z" />
    <glyph glyph-name="otilde" unicode="&#xf5;" horiz-adv-x="990" 
d="M448 570h-149l14 82q9 48 57 48h205q23 0 34 -5.5t21 -22.5l13 -23q3 -4 8 -4h7q4 0 6 5l8 50h149l-14 -82q-9 -48 -57 -48h-205q-23 0 -34 5.5t-21 22.5l-13 23q-3 4 -8 4h-7q-4 0 -6 -5zM732 0h-550q-199 0 -164 200l28 160q16 99 65 140q46 40 147 40h550
q199 0 164 -200l-28 -160q-16 -98 -64 -140q-47 -40 -148 -40zM319 192h326q22 0 31 8t13 30l14 80q4 22 -3 30t-29 8h-326q-22 0 -31 -8t-13 -30l-14 -80q-4 -22 3 -30t29 -8z" />
    <glyph glyph-name="odieresis" unicode="&#xf6;" horiz-adv-x="990" 
d="M519 570h-210l22 130h210zM789 570h-210l22 130h210zM732 0h-550q-199 0 -164 200l28 160q16 99 65 140q46 40 147 40h550q199 0 164 -200l-28 -160q-16 -98 -64 -140q-47 -40 -148 -40zM319 192h326q22 0 31 8t13 30l14 80q4 22 -3 30t-29 8h-326q-22 0 -31 -8t-13 -30
l-14 -80q-4 -22 3 -30t29 -8z" />
    <glyph glyph-name="divide" unicode="&#xf7;" 
d="M708 510h-300l34 190h300zM46 246l36 208h932l-36 -208h-932zM618 0h-300l34 190h300z" />
    <glyph glyph-name="oslash" unicode="&#xf8;" horiz-adv-x="990" 
d="M1043 570l-106 -68q54 -50 35 -162l-28 -160q-16 -98 -64 -140q-47 -40 -148 -40h-550h-18l-47 -30h-170l106 68q-54 50 -35 162l28 160q16 99 65 140q46 40 147 40h550h18l47 30h170zM275 330l-22 -120q-4 -27 11 -35l297 193h-243q-22 0 -30.5 -8t-12.5 -30zM715 210
l22 120q4 27 -11 35l-297 -193h243q22 0 30.5 8t12.5 30z" />
    <glyph glyph-name="ugrave" unicode="&#xf9;" horiz-adv-x="992" 
d="M580 700l78 -130h-213l-138 130h273zM738 540h264l-96 -540h-224l-7 53q-42 -32 -79 -43q-34 -10 -104 -10h-306q-200 0 -164 200l60 340h264l-54 -304q-4 -22 3 -30t29 -8h288q35 0 54 16l16 13z" />
    <glyph glyph-name="uacute" unicode="&#xfa;" horiz-adv-x="992" 
d="M553 700h298l-182 -130h-238zM738 540h264l-96 -540h-224l-7 53q-42 -32 -79 -43q-34 -10 -104 -10h-306q-200 0 -164 200l60 340h264l-54 -304q-4 -22 3 -30t29 -8h288q35 0 54 16l16 13z" />
    <glyph glyph-name="ucircumflex" unicode="&#xfb;" horiz-adv-x="992" 
d="M644 570l-80 42l-94 -42h-196l162 130h270l118 -130h-180zM738 540h264l-96 -540h-224l-7 53q-42 -32 -79 -43q-34 -10 -104 -10h-306q-200 0 -164 200l60 340h264l-54 -304q-4 -22 3 -30t29 -8h288q35 0 54 16l16 13z" />
    <glyph glyph-name="udieresis" unicode="&#xfc;" horiz-adv-x="992" 
d="M332 700h210l-22 -130h-210zM602 700h210l-22 -130h-210zM738 540h264l-96 -540h-224l-7 53q-42 -32 -79 -43q-34 -10 -104 -10h-306q-200 0 -164 200l60 340h264l-54 -304q-4 -22 3 -30t29 -8h288q35 0 54 16l16 13z" />
    <glyph glyph-name="yacute" unicode="&#xfd;" horiz-adv-x="998" 
d="M546 700h298l-182 -130h-238zM481 242l245 298h330l-494 -540q-88 -97 -154 -129q-65 -31 -186 -31h-248l34 192h233q25 0 39 5.5t28 20.5l-270 482h304z" />
    <glyph glyph-name="thorn" unicode="&#xfe;" horiz-adv-x="998" 
d="M496 540h322q196 0 162 -198l-28 -160q-17 -100 -65.5 -141t-148.5 -41h-330q-61 0 -91.5 7t-56.5 28l-34 -195h-264l152 860h264l-34 -193q32 19 63 27q31 6 89 6zM697 230l14 80q4 22 -3 30t-29 8h-299q-34 0 -53 -16l-17 -14l-17 -96l12 -14q13 -16 49 -16h299
q22 0 31 8t13 30z" />
    <glyph glyph-name="ydieresis" unicode="&#xff;" horiz-adv-x="998" 
d="M325 700h210l-22 -130h-210zM595 700h210l-22 -130h-210zM481 242l245 298h330l-494 -540q-88 -97 -154 -129q-65 -31 -186 -31h-248l34 192h233q25 0 39 5.5t28 20.5l-270 482h304z" />
    <glyph glyph-name="Amacron" unicode="&#x100;" horiz-adv-x="1172" 
d="M429 850h520l-20 -110h-520zM1134 0h-310l-41 104h-431l-78 -104h-332l562 700h316zM635 484l-149 -200h227z" />
    <glyph glyph-name="amacron" unicode="&#x101;" horiz-adv-x="984" 
d="M317 690h520l-20 -110h-520zM260 540h540q198 0 163 -198l-61 -342h-224l-7 45q-41 -30 -72 -37q-37 -8 -101 -8h-379q-63 0 -93.5 37t-18.5 100l10 54q23 123 144 123h533l5 30q4 22 -3 30t-29 8h-308q-19 0 -26 -6.5t-11 -25.5l-2 -11h-254l7 43q14 87 57 122.5
t130 35.5zM298 138h308q30 0 46 16l16 14l7 40h-367q-16 0 -21.5 -5t-8.5 -21l-3 -18q-2 -16 2.5 -21t20.5 -5z" />
    <glyph glyph-name="Abreve" unicode="&#x102;" horiz-adv-x="1172" 
d="M848 730h-358q-78 0 -65 78l9 52h178l-3 -18q-4 -22 19 -22h110q21 0 25 22l3 18h178l-9 -56q-11 -74 -87 -74zM1134 0h-310l-41 104h-431l-78 -104h-332l562 700h316zM635 484l-149 -200h227z" />
    <glyph glyph-name="abreve" unicode="&#x103;" horiz-adv-x="984" 
d="M736 570h-358q-78 0 -65 78l9 52h178l-3 -18q-4 -22 19 -22h110q21 0 25 22l3 18h178l-9 -56q-11 -74 -87 -74zM260 540h540q198 0 163 -198l-61 -342h-224l-7 45q-41 -30 -72 -37q-37 -8 -101 -8h-379q-63 0 -93.5 37t-18.5 100l10 54q23 123 144 123h533l5 30
q4 22 -3 30t-29 8h-308q-19 0 -26 -6.5t-11 -25.5l-2 -11h-254l7 43q14 87 57 122.5t130 35.5zM298 138h308q30 0 46 16l16 14l7 40h-367q-16 0 -21.5 -5t-8.5 -21l-3 -18q-2 -16 2.5 -21t20.5 -5z" />
    <glyph glyph-name="Aogonek" unicode="&#x104;" horiz-adv-x="1172" 
d="M881 -19v-4q0 -13 10 -13h208l-22 -124h-291q-43 0 -60 21.5t-12 66.5l2 16q4 32 17.5 53t45.5 44l23 16l-19 47h-431l-78 -104h-332l562 700h316l314 -700h-240l-2 -2q-11 -11 -11 -17zM635 484l-149 -200h227z" />
    <glyph glyph-name="aogonek" unicode="&#x105;" horiz-adv-x="984" 
d="M260 540h540q198 0 163 -198l-61 -342h-101l-2 -2q-11 -11 -11 -17v-4q0 -13 10 -13h98l-22 -124h-181q-43 0 -60 21.5t-12 66.5l2 16q4 52 50 87l-2 14q-41 -30 -72 -37q-37 -8 -101 -8h-379q-63 0 -93.5 37t-18.5 100l10 54q23 123 144 123h533l5 30q4 22 -3 30t-29 8
h-308q-19 0 -26 -6.5t-11 -25.5l-2 -11h-254l7 43q14 87 57 122.5t130 35.5zM298 138h308q30 0 46 16l16 14l7 40h-367q-16 0 -21.5 -5t-8.5 -21l-3 -18q-2 -16 2.5 -21t20.5 -5z" />
    <glyph glyph-name="Cacute" unicode="&#x106;" horiz-adv-x="1102" 
d="M934 860l-182 -130h-238l122 130h298zM824 0h-620q-107 0 -153.5 56t-27.5 164l50 280q19 108 73.5 154t161.5 46h620q107 0 153.5 -56t27.5 -164l-15 -86h-270l8 43q4 26 -4.5 36.5t-34.5 10.5h-398q-26 0 -37.5 -9.5t-15.5 -35.5l-32 -176q-4 -26 4.5 -36.5t34.5 -10.5
h398q27 0 38 9.5t15 35.5l9 51h270l-20 -112q-19 -108 -73.5 -154t-161.5 -46z" />
    <glyph glyph-name="cacute" unicode="&#x107;" horiz-adv-x="960" 
d="M835 700l-182 -130h-238l122 130h298zM702 0h-520q-199 0 -164 200l28 160q16 99 65 140q46 40 147 40h520q197 0 164 -200l-7 -43h-254l2 13q3 22 -3.5 30t-28.5 8h-306q-22 0 -31 -8t-13 -30l-14 -80q-4 -22 3 -30t29 -8h306q22 0 31 8t13 30l3 17h254l-12 -67
q-18 -101 -65 -140q-46 -40 -147 -40z" />
    <glyph glyph-name="Ccircumflex" unicode="&#x108;" horiz-adv-x="1102" 
d="M553 730h-196l162 130h270l118 -130h-180l-80 42zM824 0h-620q-107 0 -153.5 56t-27.5 164l50 280q19 108 73.5 154t161.5 46h620q107 0 153.5 -56t27.5 -164l-15 -86h-270l8 43q4 26 -4.5 36.5t-34.5 10.5h-398q-26 0 -37.5 -9.5t-15.5 -35.5l-32 -176q-4 -26 4.5 -36.5
t34.5 -10.5h398q27 0 38 9.5t15 35.5l9 51h270l-20 -112q-19 -108 -73.5 -154t-161.5 -46z" />
    <glyph glyph-name="ccircumflex" unicode="&#x109;" horiz-adv-x="960" 
d="M454 570h-196l162 130h270l118 -130h-180l-80 42zM702 0h-520q-199 0 -164 200l28 160q16 99 65 140q46 40 147 40h520q197 0 164 -200l-7 -43h-254l2 13q3 22 -3.5 30t-28.5 8h-306q-22 0 -31 -8t-13 -30l-14 -80q-4 -22 3 -30t29 -8h306q22 0 31 8t13 30l3 17h254
l-12 -67q-18 -101 -65 -140q-46 -40 -147 -40z" />
    <glyph glyph-name="Cdotaccent" unicode="&#x10a;" horiz-adv-x="1102" 
d="M767 730h-268l22 130h268zM824 0h-620q-107 0 -153.5 56t-27.5 164l50 280q19 108 73.5 154t161.5 46h620q107 0 153.5 -56t27.5 -164l-15 -86h-270l8 43q4 26 -4.5 36.5t-34.5 10.5h-398q-26 0 -37.5 -9.5t-15.5 -35.5l-32 -176q-4 -26 4.5 -36.5t34.5 -10.5h398
q27 0 38 9.5t15 35.5l9 51h270l-20 -112q-19 -108 -73.5 -154t-161.5 -46z" />
    <glyph glyph-name="cdotaccent" unicode="&#x10b;" horiz-adv-x="960" 
d="M668 570h-268l22 130h268zM702 0h-520q-199 0 -164 200l28 160q16 99 65 140q46 40 147 40h520q197 0 164 -200l-7 -43h-254l2 13q3 22 -3.5 30t-28.5 8h-306q-22 0 -31 -8t-13 -30l-14 -80q-4 -22 3 -30t29 -8h306q22 0 31 8t13 30l3 17h254l-12 -67q-18 -101 -65 -140
q-46 -40 -147 -40z" />
    <glyph glyph-name="Ccaron" unicode="&#x10c;" horiz-adv-x="1102" 
d="M734 860h196l-162 -130h-270l-118 130h180l80 -42zM824 0h-620q-107 0 -153.5 56t-27.5 164l50 280q19 108 73.5 154t161.5 46h620q107 0 153.5 -56t27.5 -164l-15 -86h-270l8 43q4 26 -4.5 36.5t-34.5 10.5h-398q-26 0 -37.5 -9.5t-15.5 -35.5l-32 -176
q-4 -26 4.5 -36.5t34.5 -10.5h398q27 0 38 9.5t15 35.5l9 51h270l-20 -112q-19 -108 -73.5 -154t-161.5 -46z" />
    <glyph glyph-name="ccaron" unicode="&#x10d;" horiz-adv-x="960" 
d="M635 700h196l-162 -130h-270l-118 130h180l80 -42zM702 0h-520q-199 0 -164 200l28 160q16 99 65 140q46 40 147 40h520q197 0 164 -200l-7 -43h-254l2 13q3 22 -3.5 30t-28.5 8h-306q-22 0 -31 -8t-13 -30l-14 -80q-4 -22 3 -30t29 -8h306q22 0 31 8t13 30l3 17h254
l-12 -67q-18 -101 -65 -140q-46 -40 -147 -40z" />
    <glyph glyph-name="Dcaron" unicode="&#x10e;" horiz-adv-x="1132" 
d="M749 860h196l-162 -130h-270l-118 130h180l80 -42zM806 0h-814l124 700h786q125 0 187 -74t39 -200l-32 -180q-22 -126 -93 -186t-197 -60zM357 480l-46 -260h446q29 0 44 12.5t20 41.5l26 148q10 58 -48 58h-442z" />
    <glyph glyph-name="dcaron" unicode="&#x10f;" horiz-adv-x="1240" 
d="M738 505l34 195h264l-124 -700h-224l-7 53q-43 -34 -77 -43q-33 -10 -102 -10h-322q-196 0 -162 198l28 160q17 100 65.5 141t148.5 41h330q61 0 91.5 -7t56.5 -28zM1049 550l27 150h240l-13 -71q-7 -39 -20 -67q-12 -25 -44 -65l-63 -77h-132l91 130h-86zM319 192h299
q34 0 53 16l16 13l17 98l-11 13q-13 16 -49 16h-299q-22 0 -31 -8t-13 -30l-14 -80q-4 -22 3 -30t29 -8z" />
    <glyph glyph-name="Dcroat" unicode="&#x110;" horiz-adv-x="1192" 
d="M176 700h786q125 0 187 -74t39 -200l-32 -180q-22 -126 -93 -186t-197 -60h-814l50 280h-80l24 140h80zM881 274l26 148q10 58 -48 58h-442l-11 -60h300l-24 -140h-300l-11 -60h446q29 0 44 12.5t20 41.5z" />
    <glyph glyph-name="dslash" unicode="&#x111;" horiz-adv-x="1040" 
d="M1029 663h70l-18 -100h-69l-100 -563h-224l-7 53q-43 -34 -77 -43q-33 -10 -102 -10h-322q-196 0 -162 198l28 160q17 100 65.5 141t148.5 41h330q61 0 91.5 -7t56.5 -28l10 58h-277l18 100h276l7 37h264zM319 192h299q34 0 53 16l16 13l17 98l-11 13q-13 16 -49 16h-299
q-22 0 -31 -8t-13 -30l-14 -80q-4 -22 3 -30t29 -8z" />
    <glyph glyph-name="Emacron" unicode="&#x112;" horiz-adv-x="1010" 
d="M348 850h520l-20 -110h-520zM1056 700l-35 -198h-660l-12 -68h620l-28 -160h-620l-14 -76h670l-35 -198h-950l124 700h940z" />
    <glyph glyph-name="emacron" unicode="&#x113;" horiz-adv-x="980" 
d="M305 690h520l-20 -110h-520zM260 540h540q99 0 139 -48.5t23 -149.5l-18 -104h-656l-4 -24q-4 -22 3 -30t29 -8h332q19 0 26 6.5t11 25.5l1 5h254l-10 -55q-16 -87 -58 -122.5t-128 -35.5h-564q-196 0 -162 198l28 160q17 100 65.5 141t148.5 41zM310 360l-3 -16h402
l3 16q4 22 -3 30t-29 8h-326q-22 0 -31 -8t-13 -30z" />
    <glyph glyph-name="Ebreve" unicode="&#x114;" horiz-adv-x="1010" 
d="M767 730h-358q-79 0 -65 78l9 52h178l-3 -18q-4 -22 19 -22h110q21 0 25 22l3 18h178l-9 -56q-11 -74 -87 -74zM1056 700l-35 -198h-660l-12 -68h620l-28 -160h-620l-14 -76h670l-35 -198h-950l124 700h940z" />
    <glyph glyph-name="ebreve" unicode="&#x115;" horiz-adv-x="980" 
d="M724 570h-358q-78 0 -65 78l9 52h178l-3 -18q-4 -22 19 -22h110q21 0 25 22l3 18h178l-9 -56q-11 -74 -87 -74zM260 540h540q99 0 139 -48.5t23 -149.5l-18 -104h-656l-4 -24q-4 -22 3 -30t29 -8h332q19 0 26 6.5t11 25.5l1 5h254l-10 -55q-16 -87 -58 -122.5t-128 -35.5
h-564q-196 0 -162 198l28 160q17 100 65.5 141t148.5 41zM310 360l-3 -16h402l3 16q4 22 -3 30t-29 8h-326q-22 0 -31 -8t-13 -30z" />
    <glyph glyph-name="Edotaccent" unicode="&#x116;" horiz-adv-x="1010" 
d="M475 860h268l-22 -130h-268zM1056 700l-35 -198h-660l-12 -68h620l-28 -160h-620l-14 -76h670l-35 -198h-950l124 700h940z" />
    <glyph glyph-name="edotaccent" unicode="&#x117;" horiz-adv-x="980" 
d="M432 700h268l-22 -130h-268zM260 540h540q99 0 139 -48.5t23 -149.5l-18 -104h-656l-4 -24q-4 -22 3 -30t29 -8h332q19 0 26 6.5t11 25.5l1 5h254l-10 -55q-16 -87 -58 -122.5t-128 -35.5h-564q-196 0 -162 198l28 160q17 100 65.5 141t148.5 41zM310 360l-3 -16h402
l3 16q4 22 -3 30t-29 8h-326q-22 0 -31 -8t-13 -30z" />
    <glyph glyph-name="Eogonek" unicode="&#x118;" horiz-adv-x="1010" 
d="M1056 700l-35 -198h-660l-12 -68h620l-28 -160h-620l-14 -76h670l-35 -198h-211l-2 -2q-11 -11 -11 -17v-4q0 -13 10 -13h208l-22 -124h-291q-43 0 -60 21.5t-12 66.5l2 16q4 33 19 56h-580l124 700h940z" />
    <glyph glyph-name="eogonek" unicode="&#x119;" horiz-adv-x="980" 
d="M260 540h540q99 0 139 -48.5t23 -149.5l-18 -104h-656l-4 -24q-4 -22 3 -30t29 -8h332q19 0 26 6.5t11 25.5l1 5h254l-10 -55q-16 -87 -58 -122.5t-128 -35.5h-163l-2 -2q-11 -11 -11 -17v-4q0 -13 10 -13h208l-22 -124h-291q-43 0 -60 21.5t-12 66.5l2 16q4 33 19 56
h-242q-196 0 -162 198l28 160q17 100 65.5 141t148.5 41zM310 360l-3 -16h402l3 16q4 22 -3 30t-29 8h-326q-22 0 -31 -8t-13 -30z" />
    <glyph glyph-name="Ecaron" unicode="&#x11a;" horiz-adv-x="1010" 
d="M884 860l-162 -130h-270l-118 130h180l80 -42l94 42h196zM1056 700l-35 -198h-660l-12 -68h620l-28 -160h-620l-14 -76h670l-35 -198h-950l124 700h940z" />
    <glyph glyph-name="ecaron" unicode="&#x11b;" horiz-adv-x="980" 
d="M841 700l-162 -130h-270l-118 130h180l80 -42l94 42h196zM260 540h540q99 0 139 -48.5t23 -149.5l-18 -104h-656l-4 -24q-4 -22 3 -30t29 -8h332q19 0 26 6.5t11 25.5l1 5h254l-10 -55q-16 -87 -58 -122.5t-128 -35.5h-564q-196 0 -162 198l28 160q17 100 65.5 141
t148.5 41zM310 360l-3 -16h402l3 16q4 22 -3 30t-29 8h-326q-22 0 -31 -8t-13 -30z" />
    <glyph glyph-name="Gcircumflex" unicode="&#x11c;" horiz-adv-x="1134" 
d="M569 730h-196l162 130h270l118 -130h-180l-80 42zM854 0h-650q-107 0 -153.5 56t-27.5 164l50 280q19 108 73.5 154t161.5 46h650q107 0 153.5 -56t27.5 -164l-8 -46h-280l2 13q4 26 -4.5 36.5t-34.5 10.5h-418q-26 0 -37.5 -9.5t-15.5 -35.5l-38 -216q-4 -26 4.5 -36.5
t34.5 -10.5h428q26 0 37 9.5t16 35.5l3 15h-272l26 152h542l-35 -198q-19 -108 -73.5 -154t-161.5 -46z" />
    <glyph glyph-name="gcircumflex" unicode="&#x11d;" horiz-adv-x="998" 
d="M647 570l-80 42l-94 -42h-196l162 130h270l118 -130h-180zM758 486l26 54h224l-89 -500q-19 -108 -73.5 -154t-161.5 -46h-710l31 176h598q27 0 39.5 10t16.5 36l4 25q-30 -20 -61.5 -26.5t-89.5 -6.5h-322q-99 0 -139 48.5t-23 149.5l18 106q17 102 66 142q47 40 148 40
h330q71 0 102 -10q34 -11 66 -44zM676 238l17 14l3 20l11 62l-11 14q-13 16 -49 16h-299q-22 0 -31 -8t-13 -30l-12 -66q-4 -22 3 -30t29 -8h299q34 0 53 16z" />
    <glyph glyph-name="Gbreve" unicode="&#x11e;" horiz-adv-x="1134" 
d="M829 730h-358q-79 0 -65 78l9 52h178l-3 -18q-4 -22 19 -22h110q21 0 25 22l3 18h178l-9 -56q-11 -74 -87 -74zM854 0h-650q-107 0 -153.5 56t-27.5 164l50 280q19 108 73.5 154t161.5 46h650q107 0 153.5 -56t27.5 -164l-8 -46h-280l2 13q4 26 -4.5 36.5t-34.5 10.5
h-418q-26 0 -37.5 -9.5t-15.5 -35.5l-38 -216q-4 -26 4.5 -36.5t34.5 -10.5h428q26 0 37 9.5t16 35.5l3 15h-272l26 152h542l-35 -198q-19 -108 -73.5 -154t-161.5 -46z" />
    <glyph glyph-name="gbreve" unicode="&#x11f;" horiz-adv-x="998" 
d="M733 570h-358q-79 0 -65 78l9 52h178l-3 -18q-4 -22 19 -22h110q21 0 25 22l3 18h178l-9 -56q-11 -74 -87 -74zM758 486l26 54h224l-89 -500q-19 -108 -73.5 -154t-161.5 -46h-710l31 176h598q27 0 39.5 10t16.5 36l4 25q-30 -20 -61.5 -26.5t-89.5 -6.5h-322
q-99 0 -139 48.5t-23 149.5l18 106q17 102 66 142q47 40 148 40h330q71 0 102 -10q34 -11 66 -44zM676 238l17 14l3 20l11 62l-11 14q-13 16 -49 16h-299q-22 0 -31 -8t-13 -30l-12 -66q-4 -22 3 -30t29 -8h299q34 0 53 16z" />
    <glyph glyph-name="Gdotaccent" unicode="&#x120;" horiz-adv-x="1134" 
d="M783 730h-268l22 130h268zM854 0h-650q-107 0 -153.5 56t-27.5 164l50 280q19 108 73.5 154t161.5 46h650q107 0 153.5 -56t27.5 -164l-8 -46h-280l2 13q4 26 -4.5 36.5t-34.5 10.5h-418q-26 0 -37.5 -9.5t-15.5 -35.5l-38 -216q-4 -26 4.5 -36.5t34.5 -10.5h428
q26 0 37 9.5t16 35.5l3 15h-272l26 152h542l-35 -198q-19 -108 -73.5 -154t-161.5 -46z" />
    <glyph glyph-name="gdotaccent" unicode="&#x121;" horiz-adv-x="998" 
d="M441 700h268l-22 -130h-268zM758 486l26 54h224l-89 -500q-19 -108 -73.5 -154t-161.5 -46h-710l31 176h598q27 0 39.5 10t16.5 36l4 25q-30 -20 -61.5 -26.5t-89.5 -6.5h-322q-99 0 -139 48.5t-23 149.5l18 106q17 102 66 142q47 40 148 40h330q71 0 102 -10
q34 -11 66 -44zM676 238l17 14l3 20l11 62l-11 14q-13 16 -49 16h-299q-22 0 -31 -8t-13 -30l-12 -66q-4 -22 3 -30t29 -8h299q34 0 53 16z" />
    <glyph glyph-name="Gcommaaccent" unicode="&#x122;" horiz-adv-x="1134" 
d="M854 0h-650q-107 0 -153.5 56t-27.5 164l50 280q19 108 73.5 154t161.5 46h650q107 0 153.5 -56t27.5 -164l-8 -46h-280l2 13q4 26 -4.5 36.5t-34.5 10.5h-418q-26 0 -37.5 -9.5t-15.5 -35.5l-38 -216q-4 -26 4.5 -36.5t34.5 -10.5h428q26 0 37 9.5t16 35.5l3 15h-272
l26 152h542l-35 -198q-19 -108 -73.5 -154t-161.5 -46zM507 -250h-132l85 100h-86l21 120h240l-6 -36q-7 -43 -19 -65q-12 -23 -49 -61z" />
    <glyph glyph-name="gcommaaccent" unicode="&#x123;" horiz-adv-x="998" 
d="M622 690h66l-21 -120h-220l6 36q8 44 18 65q12 23 44 60l50 59h132zM758 486l26 54h224l-89 -500q-19 -108 -73.5 -154t-161.5 -46h-710l31 176h598q27 0 39.5 10t16.5 36l4 25q-30 -20 -61.5 -26.5t-89.5 -6.5h-322q-99 0 -139 48.5t-23 149.5l18 106q17 102 66 142
q47 40 148 40h330q71 0 102 -10q34 -11 66 -44zM676 238l17 14l3 20l11 62l-11 14q-13 16 -49 16h-299q-22 0 -31 -8t-13 -30l-12 -66q-4 -22 3 -30t29 -8h299q34 0 53 16z" />
    <glyph glyph-name="Hcircumflex" unicode="&#x124;" horiz-adv-x="1120" 
d="M736 730l-80 42l-94 -42h-196l162 130h270l118 -130h-180zM836 475l40 225h280l-124 -700h-280l43 245h-480l-43 -245h-280l124 700h280l-40 -225h480z" />
    <glyph glyph-name="hcircumflex" unicode="&#x125;" horiz-adv-x="992" 
d="M346 730l-80 42l-94 -42h-196l162 130h270l118 -130h-180zM506 540h300q200 0 164 -200l-60 -340h-264l54 304q4 22 -3 30t-29 8h-289q-34 0 -53 -16l-17 -14l-55 -312h-264l124 700h264l-36 -201q36 25 69 33q35 8 95 8z" />
    <glyph glyph-name="Hbar" unicode="&#x126;" horiz-adv-x="1240" 
d="M1206 646h80l-22 -124h-80l-92 -522h-280l43 245h-480l-43 -245h-280l92 522h-80l22 124h80l10 54h280l-10 -54h480l10 54h280zM416 475h480l8 47h-480z" />
    <glyph glyph-name="hbar" unicode="&#x127;" horiz-adv-x="1034" 
d="M548 540h300q200 0 164 -200l-60 -340h-264l54 304q4 22 -3 30t-29 8h-289q-34 0 -53 -16l-17 -14l-55 -312h-264l100 563h-70l18 100h69l7 37h264l-7 -37h277l-18 -100h-276l-12 -64q36 25 69 33q35 8 95 8z" />
    <glyph glyph-name="Itilde" unicode="&#x128;" horiz-adv-x="372" 
d="M167 730h-149l14 82q9 48 57 48h205q24 0 34.5 -5.5t20.5 -22.5l13 -23q3 -4 8 -4h7q4 0 6 5l8 50h149l-14 -82q-9 -48 -57 -48h-205q-24 0 -34.5 5.5t-20.5 22.5l-13 23q-3 4 -8 4h-7q-4 0 -6 -5zM-4 0l124 700h284l-124 -700h-284z" />
    <glyph glyph-name="itilde" unicode="&#x129;" horiz-adv-x="352" 
d="M129 570h-149l14 82q9 48 57 48h205q24 0 34.5 -5.5t20.5 -22.5l13 -23q3 -4 8 -4h7q4 0 6 5l8 50h149l-14 -82q-9 -48 -57 -48h-205q-24 0 -34.5 5.5t-20.5 22.5l-13 23q-3 4 -8 4h-7q-4 0 -6 -5zM262 0h-268l96 540h268z" />
    <glyph glyph-name="Imacron" unicode="&#x12a;" horiz-adv-x="372" 
d="M529 740h-520l20 110h520zM-4 0l124 700h284l-124 -700h-284z" />
    <glyph glyph-name="imacron" unicode="&#x12b;" horiz-adv-x="352" 
d="M491 580h-520l20 110h520zM262 0h-268l96 540h268z" />
    <glyph glyph-name="Ibreve" unicode="&#x12c;" horiz-adv-x="372" 
d="M448 730h-358q-78 0 -65 78l9 52h178l-3 -18q-4 -22 19 -22h110q21 0 25 22l3 18h178l-9 -56q-11 -74 -87 -74zM-4 0l124 700h284l-124 -700h-284z" />
    <glyph glyph-name="ibreve" unicode="&#x12d;" horiz-adv-x="352" 
d="M410 570h-358q-78 0 -65 78l9 52h178l-3 -18q-4 -22 19 -22h110q21 0 25 22l3 18h178l-9 -56q-11 -74 -87 -74zM262 0h-268l96 540h268z" />
    <glyph glyph-name="Iogonek" unicode="&#x12e;" horiz-adv-x="372" 
d="M69 0l-2 -2q-11 -11 -11 -17v-4q0 -13 10 -13h208l-22 -124h-291q-43 0 -60 21.5t-12 66.5l2 16q4 32 17.5 53t45.5 44l56 40l110 619h284l-124 -700h-211z" />
    <glyph glyph-name="iogonek" unicode="&#x12f;" horiz-adv-x="352" 
d="M96 570l22 130h268l-22 -130h-268zM-59 41l69 49l80 450h268l-96 -540h-206l-2 -2q-11 -11 -11 -17v-4q0 -13 10 -13h208l-22 -124h-291q-43 0 -60 21.5t-12 66.5l2 16q4 32 17.5 53t45.5 44z" />
    <glyph glyph-name="Idot" unicode="&#x130;" horiz-adv-x="372" 
d="M409 730h-283l22 130h283zM-4 0l124 700h284l-124 -700h-284z" />
    <glyph glyph-name="dotlessi" unicode="&#x131;" horiz-adv-x="352" 
d="M262 0h-268l96 540h268z" />
    <glyph glyph-name="IJ" unicode="&#x132;" horiz-adv-x="1398" 
d="M-4 0l124 700h284l-124 -700h-284zM1114 0h-550q-107 0 -153.5 56t-27.5 164l16 90h270l-9 -47q-5 -26 4 -36.5t35 -10.5h328q27 0 38 9.5t15 35.5l78 439h280l-89 -500q-19 -108 -73.5 -154t-161.5 -46z" />
    <glyph glyph-name="ij" unicode="&#x133;" horiz-adv-x="924" 
d="M363 570h-268l23 130h268zM935 570h-268l23 130h268zM262 0h-268l96 540h268zM648 -160h-372l32 182h231q19 0 26.5 6.5t10.5 25.5l86 486h268l-96 -542q-16 -87 -58 -122.5t-128 -35.5z" />
    <glyph glyph-name="Jcircumflex" unicode="&#x134;" horiz-adv-x="1026" 
d="M852 730h-196l162 130h270l118 -130h-180l-80 42zM742 0h-550q-107 0 -153.5 56t-27.5 164l16 90h270l-9 -47q-5 -26 4 -36.5t35 -10.5h328q27 0 38 9.5t15 35.5l78 439h280l-89 -500q-19 -108 -73.5 -154t-161.5 -46z" />
    <glyph glyph-name="jcircumflex" unicode="&#x135;" horiz-adv-x="452" 
d="M250 570h-196l162 130h270l118 -130h-180l-80 42zM176 -160h-372l32 182h231q19 0 26.5 6.5t10.5 25.5l86 486h268l-96 -542q-16 -87 -58 -122.5t-128 -35.5z" />
    <glyph glyph-name="Kcommaaccent" unicode="&#x136;" horiz-adv-x="1114" 
d="M756 700h430l-514 -344l394 -356h-406l-330 326l-58 -326h-280l124 700h280l-54 -305zM400 -150h-86l21 120h240l-6 -36q-7 -43 -19 -65q-12 -23 -49 -61l-54 -58h-132z" />
    <glyph glyph-name="kcommaaccent" unicode="&#x137;" horiz-adv-x="1018" 
d="M640 540h428l-430 -270l342 -270h-404l-279 241l-43 -241h-264l124 700h264l-71 -398zM342 -150h-86l21 120h240l-6 -36q-7 -43 -19 -65q-12 -23 -49 -61l-54 -58h-132z" />
    <glyph glyph-name="Lacute" unicode="&#x139;" horiz-adv-x="950" 
d="M265 860h298l-182 -130h-238zM396 700l-83 -470h620l-41 -230h-900l124 700h280z" />
    <glyph glyph-name="lacute" unicode="&#x13a;" horiz-adv-x="352" 
d="M559 860l-182 -130h-238l122 130h298zM262 0h-268l124 700h268z" />
    <glyph glyph-name="Lcommaaccent" unicode="&#x13b;" horiz-adv-x="950" 
d="M396 700l-83 -470h620l-41 -230h-900l124 700h280zM368 -150h-86l21 120h240l-6 -36q-7 -43 -19 -65q-12 -23 -49 -61l-54 -58h-132z" />
    <glyph glyph-name="lcommaaccent" unicode="&#x13c;" horiz-adv-x="352" 
d="M262 0h-268l124 700h268zM116 -250h-132l85 100h-86l21 120h240l-6 -36q-7 -43 -19 -65q-12 -23 -49 -61z" />
    <glyph glyph-name="Lcaron" unicode="&#x13d;" horiz-adv-x="950" 
d="M396 700l-83 -470h620l-41 -230h-900l124 700h280zM609 497l-63 -77h-132l91 130h-86l27 150h240l-13 -71q-7 -39 -20 -67q-12 -25 -44 -65z" />
    <glyph glyph-name="lcaron" unicode="&#x13e;" horiz-adv-x="590" 
d="M262 0h-268l124 700h268zM516 420h-132l91 130h-86l27 150h240l-13 -71q-7 -39 -20 -67q-12 -25 -44 -65z" />
    <glyph glyph-name="Ldot" unicode="&#x13f;" horiz-adv-x="950" 
d="M396 700l-83 -470h620l-41 -230h-900l124 700h280zM492 560h299l-49 -280h-300z" />
    <glyph glyph-name="ldot" unicode="&#x140;" horiz-adv-x="660" 
d="M262 0h-268l124 700h268zM646 250h-300l50 280h299z" />
    <glyph glyph-name="Lslash" unicode="&#x141;" horiz-adv-x="1010" 
d="M390 325l-17 -95h620l-41 -230h-900l51 288l-82 -11l26 146l82 11l47 266h280l-41 -229l400 52l-26 -146z" />
    <glyph glyph-name="lslash" unicode="&#x142;" horiz-adv-x="428" 
d="M380 453l72 10l-26 -146l-72 -10l-54 -307h-268l47 267l-71 -10l26 146l71 10l51 287h268z" />
    <glyph glyph-name="Nacute" unicode="&#x143;" horiz-adv-x="1140" 
d="M645 860h298l-182 -130h-238zM833 285l73 415h270l-124 -700h-230l-485 422l-75 -422h-270l124 700h240z" />
    <glyph glyph-name="nacute" unicode="&#x144;" horiz-adv-x="992" 
d="M553 700h298l-182 -130h-238zM500 540h306q200 0 164 -200l-60 -340h-264l54 304q4 22 -3 30t-29 8h-288q-35 0 -54 -16l-16 -13l-56 -313h-264l96 540h224l7 -53q42 32 80 43q33 10 103 10z" />
    <glyph glyph-name="Ncommaaccent" unicode="&#x145;" horiz-adv-x="1140" 
d="M833 285l73 415h270l-124 -700h-230l-485 422l-75 -422h-270l124 700h240zM473 -150h-86l21 120h240l-6 -36q-7 -43 -19 -65q-12 -23 -49 -61l-54 -58h-132z" />
    <glyph glyph-name="ncommaaccent" unicode="&#x146;" horiz-adv-x="992" 
d="M500 540h306q200 0 164 -200l-60 -340h-264l54 304q4 22 -3 30t-29 8h-288q-35 0 -54 -16l-16 -13l-56 -313h-264l96 540h224l7 -53q42 32 80 43q33 10 103 10zM389 -150h-86l21 120h240l-6 -36q-7 -43 -19 -65q-12 -23 -49 -61l-54 -58h-132z" />
    <glyph glyph-name="Ncaron" unicode="&#x147;" horiz-adv-x="1140" 
d="M939 860l-162 -130h-270l-118 130h180l80 -42l94 42h196zM833 285l73 415h270l-124 -700h-230l-485 422l-75 -422h-270l124 700h240z" />
    <glyph glyph-name="ncaron" unicode="&#x148;" horiz-adv-x="992" 
d="M847 700l-162 -130h-270l-118 130h180l80 -42l94 42h196zM500 540h306q200 0 164 -200l-60 -340h-264l54 304q4 22 -3 30t-29 8h-288q-35 0 -54 -16l-16 -13l-56 -313h-264l96 540h224l7 -53q42 32 80 43q33 10 103 10z" />
    <glyph glyph-name="Eng" unicode="&#x14a;" horiz-adv-x="1140" 
d="M833 286l73 414h270l-119 -670q-18 -103 -69.5 -146.5t-153.5 -43.5h-250l32 180h134q29 0 35 12l-448 390l-75 -422h-270l124 700h240z" />
    <glyph glyph-name="eng" unicode="&#x14b;" horiz-adv-x="992" 
d="M500 540h306q200 0 164 -200l-60 -342q-15 -86 -57.5 -122t-128.5 -36h-298l32 182h161q19 0 26.5 6.5t10.5 25.5l44 250q4 22 -3 30t-29 8h-288q-35 0 -54 -16l-16 -13l-56 -313h-264l96 540h224l7 -53q42 32 80 43q33 10 103 10z" />
    <glyph glyph-name="Omacron" unicode="&#x14c;" horiz-adv-x="1134" 
d="M910 740h-520l20 110h520zM854 0h-650q-107 0 -153.5 56t-27.5 164l50 280q19 108 73.5 154t161.5 46h650q107 0 153.5 -56t27.5 -164l-50 -280q-19 -108 -73.5 -154t-161.5 -46zM350 220h418q26 0 37.5 9.5t15.5 35.5l30 168q4 26 -4.5 36.5t-34.5 10.5h-418
q-26 0 -37.5 -9.5t-15.5 -35.5l-30 -168q-4 -26 4.5 -36.5t34.5 -10.5z" />
    <glyph glyph-name="omacron" unicode="&#x14d;" horiz-adv-x="990" 
d="M810 580h-520l20 110h520zM732 0h-550q-199 0 -164 200l28 160q16 99 65 140q46 40 147 40h550q199 0 164 -200l-28 -160q-16 -98 -64 -140q-47 -40 -148 -40zM319 192h326q22 0 31 8t13 30l14 80q4 22 -3 30t-29 8h-326q-22 0 -31 -8t-13 -30l-14 -80q-4 -22 3 -30
t29 -8z" />
    <glyph glyph-name="Obreve" unicode="&#x14e;" horiz-adv-x="1134" 
d="M829 730h-358q-79 0 -65 78l9 52h178l-3 -18q-4 -22 19 -22h110q21 0 25 22l3 18h178l-9 -56q-11 -74 -87 -74zM854 0h-650q-107 0 -153.5 56t-27.5 164l50 280q19 108 73.5 154t161.5 46h650q107 0 153.5 -56t27.5 -164l-50 -280q-19 -108 -73.5 -154t-161.5 -46z
M350 220h418q26 0 37.5 9.5t15.5 35.5l30 168q4 26 -4.5 36.5t-34.5 10.5h-418q-26 0 -37.5 -9.5t-15.5 -35.5l-30 -168q-4 -26 4.5 -36.5t34.5 -10.5z" />
    <glyph glyph-name="obreve" unicode="&#x14f;" horiz-adv-x="990" 
d="M729 570h-358q-79 0 -65 78l9 52h178l-3 -18q-4 -22 19 -22h110q21 0 25 22l3 18h178l-9 -56q-11 -74 -87 -74zM732 0h-550q-199 0 -164 200l28 160q16 99 65 140q46 40 147 40h550q199 0 164 -200l-28 -160q-16 -98 -64 -140q-47 -40 -148 -40zM319 192h326q22 0 31 8
t13 30l14 80q4 22 -3 30t-29 8h-326q-22 0 -31 -8t-13 -30l-14 -80q-4 -22 3 -30t29 -8z" />
    <glyph glyph-name="Ohungarumlaut" unicode="&#x150;" horiz-adv-x="1134" 
d="M750 860l-142 -130h-218l92 130h268zM1050 860l-142 -130h-218l92 130h268zM854 0h-650q-107 0 -153.5 56t-27.5 164l50 280q19 108 73.5 154t161.5 46h650q107 0 153.5 -56t27.5 -164l-50 -280q-19 -108 -73.5 -154t-161.5 -46zM350 220h418q26 0 37.5 9.5t15.5 35.5
l30 168q4 26 -4.5 36.5t-34.5 10.5h-418q-26 0 -37.5 -9.5t-15.5 -35.5l-30 -168q-4 -26 4.5 -36.5t34.5 -10.5z" />
    <glyph glyph-name="ohungarumlaut" unicode="&#x151;" horiz-adv-x="990" 
d="M650 700l-142 -130h-218l92 130h268zM950 700l-142 -130h-218l92 130h268zM732 0h-550q-199 0 -164 200l28 160q16 99 65 140q46 40 147 40h550q199 0 164 -200l-28 -160q-16 -98 -64 -140q-47 -40 -148 -40zM319 192h326q22 0 31 8t13 30l14 80q4 22 -3 30t-29 8h-326
q-22 0 -31 -8t-13 -30l-14 -80q-4 -22 3 -30t29 -8z" />
    <glyph glyph-name="OE" unicode="&#x152;" horiz-adv-x="1782" 
d="M1828 700l-35 -198h-660l-12 -68h620l-28 -160h-620l-14 -76h670l-35 -198h-1510q-107 0 -153.5 56t-27.5 164l50 280q19 108 73.5 154t161.5 46h1520zM350 220h453l46 260h-455q-26 0 -37.5 -9.5t-15.5 -35.5l-30 -168q-4 -26 4.5 -36.5t34.5 -10.5z" />
    <glyph glyph-name="oe" unicode="&#x153;" horiz-adv-x="1646" 
d="M976 540h490q196 0 162 -198l-18 -104h-656l-4 -24q-4 -22 3 -30t29 -8h332q19 0 26 6.5t11 25.5l1 5h254l-10 -55q-16 -87 -58 -122.5t-128 -35.5h-512q-70 0 -104 34q-37 -34 -112 -34h-500q-199 0 -164 200l28 160q16 99 65 140q46 40 147 40h500q70 0 105 -30
q39 30 113 30zM976 360l-3 -16h402l3 16q4 22 -3 30t-29 8h-326q-22 0 -31 -8t-13 -30zM689 230l14 80q4 22 -3 30t-29 8h-326q-22 0 -31 -8t-13 -30l-14 -80q-4 -22 3 -30t29 -8h326q22 0 31 8t13 30z" />
    <glyph glyph-name="Racute" unicode="&#x154;" horiz-adv-x="1090" 
d="M630 860h298l-182 -130h-238zM116 700h820q199 0 164 -200l-16 -94q-16 -98 -63 -138t-141 -42l150 -226h-316l-132 206h-273l-37 -206h-280zM783 510h-421l-21 -120h423q22 0 31 8t13 30l8 44q4 22 -3.5 30t-29.5 8z" />
    <glyph glyph-name="racute" unicode="&#x155;" horiz-adv-x="690" 
d="M402 700h298l-182 -130h-238zM486 540h242l-39 -218h-313q-37 0 -54 -16l-16 -14l-52 -292h-264l96 540h194l9 -68q55 44 89 56t108 12z" />
    <glyph glyph-name="Rcommaaccent" unicode="&#x156;" horiz-adv-x="1090" 
d="M116 700h820q199 0 164 -200l-16 -94q-16 -98 -63 -138t-141 -42l150 -226h-316l-132 206h-273l-37 -206h-280zM783 510h-421l-21 -120h423q22 0 31 8t13 30l8 44q4 22 -3.5 30t-29.5 8zM438 -150h-86l21 120h240l-6 -36q-7 -43 -19 -65q-12 -23 -49 -61l-54 -58h-132z
" />
    <glyph glyph-name="rcommaaccent" unicode="&#x157;" horiz-adv-x="690" 
d="M486 540h242l-39 -218h-313q-37 0 -54 -16l-16 -14l-52 -292h-264l96 540h194l9 -68q55 44 89 56t108 12zM63 -150h-86l21 120h240l-6 -36q-7 -43 -19 -65q-12 -23 -49 -61l-54 -58h-132z" />
    <glyph glyph-name="Rcaron" unicode="&#x158;" horiz-adv-x="1090" 
d="M924 860l-162 -130h-270l-118 130h180l80 -42l94 42h196zM116 700h820q199 0 164 -200l-16 -94q-16 -98 -63 -138t-141 -42l150 -226h-316l-132 206h-273l-37 -206h-280zM783 510h-421l-21 -120h423q22 0 31 8t13 30l8 44q4 22 -3.5 30t-29.5 8z" />
    <glyph glyph-name="rcaron" unicode="&#x159;" horiz-adv-x="690" 
d="M696 700l-162 -130h-270l-118 130h180l80 -42l94 42h196zM486 540h242l-39 -218h-313q-37 0 -54 -16l-16 -14l-52 -292h-264l96 540h194l9 -68q55 44 89 56t108 12z" />
    <glyph glyph-name="Sacute" unicode="&#x15a;" horiz-adv-x="1114" 
d="M940 860l-182 -130h-238l122 130h298zM15 174l11 60h270l-6 -32q-4 -19 2 -25.5t25 -6.5h436q19 0 26.5 6.5t10.5 25.5l3 21q3 19 -2.5 25t-24.5 7l-549 21q-172 6 -144 175l16 91q15 86 58 122t129 36h694q169 0 142 -174l-8 -52h-270l4 24q3 19 -2.5 25.5t-24.5 6.5
h-412q-19 0 -26.5 -6.5t-10.5 -25.5l-2 -13q-3 -18 3 -24.5t24 -7.5l549 -21q171 -6 143 -175l-17 -99q-15 -87 -57 -122.5t-129 -35.5h-718q-175 0 -143 174z" />
    <glyph glyph-name="sacute" unicode="&#x15b;" horiz-adv-x="970" 
d="M840 700l-182 -130h-238l122 130h298zM7 140l8 44h254l-5 -28q-2 -13 1.5 -17.5t17.5 -4.5h348q14 0 19 4.5t6 17.5l2 15q2 13 -2 17.5t-17 5.5l-471 20q-63 2 -93.5 38t-20.5 98l11 64q21 126 149 126h622q61 0 92.5 -38.5t20.5 -101.5l-6 -36h-254l3 20q2 13 -1.5 17.5
t-17.5 4.5h-324q-14 0 -19 -4.5t-6 -17.5l-1 -9q-2 -13 2 -17.5t17 -5.5l471 -20q63 -2 93.5 -38t20.5 -98l-12 -70q-21 -126 -149 -126h-646q-62 0 -93 38.5t-20 101.5z" />
    <glyph glyph-name="Scircumflex" unicode="&#x15c;" horiz-adv-x="1114" 
d="M559 730h-196l162 130h270l118 -130h-180l-80 42zM15 174l11 60h270l-6 -32q-4 -19 2 -25.5t25 -6.5h436q19 0 26.5 6.5t10.5 25.5l3 21q3 19 -2.5 25t-24.5 7l-549 21q-172 6 -144 175l16 91q15 86 58 122t129 36h694q169 0 142 -174l-8 -52h-270l4 24q3 19 -2.5 25.5
t-24.5 6.5h-412q-19 0 -26.5 -6.5t-10.5 -25.5l-2 -13q-3 -18 3 -24.5t24 -7.5l549 -21q171 -6 143 -175l-17 -99q-15 -87 -57 -122.5t-129 -35.5h-718q-175 0 -143 174z" />
    <glyph glyph-name="scircumflex" unicode="&#x15d;" horiz-adv-x="970" 
d="M459 570h-196l162 130h270l118 -130h-180l-80 42zM7 140l8 44h254l-5 -28q-2 -13 1.5 -17.5t17.5 -4.5h348q14 0 19 4.5t6 17.5l2 15q2 13 -2 17.5t-17 5.5l-471 20q-63 2 -93.5 38t-20.5 98l11 64q21 126 149 126h622q61 0 92.5 -38.5t20.5 -101.5l-6 -36h-254l3 20
q2 13 -1.5 17.5t-17.5 4.5h-324q-14 0 -19 -4.5t-6 -17.5l-1 -9q-2 -13 2 -17.5t17 -5.5l471 -20q63 -2 93.5 -38t20.5 -98l-12 -70q-21 -126 -149 -126h-646q-62 0 -93 38.5t-20 101.5z" />
    <glyph glyph-name="Scedilla" unicode="&#x15e;" horiz-adv-x="1114" 
d="M276 700h694q169 0 142 -174l-8 -52h-270l4 24q3 19 -2.5 25.5t-24.5 6.5h-412q-19 0 -26.5 -6.5t-10.5 -25.5l-2 -13q-3 -18 3 -24.5t24 -7.5l549 -21q171 -6 143 -175l-17 -99q-15 -87 -57 -122.5t-129 -35.5h-339l-9 -18h102q58 0 48 -58l-5 -30q-5 -30 -19.5 -42
t-44.5 -12h-266l12 66h187q7 0 8 7l1 4q1 7 -6 7h-127l6 32l21 44h-287q-175 0 -143 174l11 60h270l-6 -32q-4 -19 2 -25.5t25 -6.5h436q19 0 26.5 6.5t10.5 25.5l3 21q3 19 -2.5 25t-24.5 7l-549 21q-172 6 -144 175l16 91q15 86 58 122t129 36z" />
    <glyph glyph-name="scedilla" unicode="&#x15f;" horiz-adv-x="970" 
d="M214 540h622q61 0 92.5 -38.5t20.5 -101.5l-6 -36h-254l3 20q2 13 -1.5 17.5t-17.5 4.5h-324q-14 0 -19 -4.5t-6 -17.5l-1 -9q-2 -13 2 -17.5t17 -5.5l471 -20q63 -2 93.5 -38t20.5 -98l-12 -70q-21 -126 -149 -126h-301l-9 -18h102q58 0 48 -58l-5 -30q-5 -30 -19.5 -42
t-44.5 -12h-266l12 66h187q7 0 8 7l1 4q1 7 -6 7h-127l6 32l21 44h-253q-62 0 -93 38.5t-20 101.5l8 44h254l-5 -28q-2 -13 1.5 -17.5t17.5 -4.5h348q14 0 19 4.5t6 17.5l2 15q2 13 -2 17.5t-17 5.5l-471 20q-63 2 -93.5 38t-20.5 98l11 64q21 126 149 126z" />
    <glyph glyph-name="Scaron" unicode="&#x160;" horiz-adv-x="1114" 
d="M740 860h196l-162 -130h-270l-118 130h180l80 -42zM15 174l11 60h270l-6 -32q-4 -19 2 -25.5t25 -6.5h436q19 0 26.5 6.5t10.5 25.5l3 21q3 19 -2.5 25t-24.5 7l-549 21q-172 6 -144 175l16 91q15 86 58 122t129 36h694q169 0 142 -174l-8 -52h-270l4 24q3 19 -2.5 25.5
t-24.5 6.5h-412q-19 0 -26.5 -6.5t-10.5 -25.5l-2 -13q-3 -18 3 -24.5t24 -7.5l549 -21q171 -6 143 -175l-17 -99q-15 -87 -57 -122.5t-129 -35.5h-718q-175 0 -143 174z" />
    <glyph glyph-name="scaron" unicode="&#x161;" horiz-adv-x="970" 
d="M640 700h196l-162 -130h-270l-118 130h180l80 -42zM7 140l8 44h254l-5 -28q-2 -13 1.5 -17.5t17.5 -4.5h348q14 0 19 4.5t6 17.5l2 15q2 13 -2 17.5t-17 5.5l-471 20q-63 2 -93.5 38t-20.5 98l11 64q21 126 149 126h622q61 0 92.5 -38.5t20.5 -101.5l-6 -36h-254l3 20
q2 13 -1.5 17.5t-17.5 4.5h-324q-14 0 -19 -4.5t-6 -17.5l-1 -9q-2 -13 2 -17.5t17 -5.5l471 -20q63 -2 93.5 -38t20.5 -98l-12 -70q-21 -126 -149 -126h-646q-62 0 -93 38.5t-20 101.5z" />
    <glyph glyph-name="uni0162" unicode="&#x162;" horiz-adv-x="1020" 
d="M685 470l-83 -470h-112l-9 -18h102q58 0 48 -58l-5 -30q-5 -30 -19.5 -42t-44.5 -12h-266l12 66h187q7 0 8 7l1 4q1 7 -6 7h-127l6 32l21 44h-76l83 470h-360l41 230h1000l-41 -230h-360z" />
    <glyph glyph-name="uni0163" unicode="&#x163;" horiz-adv-x="822" 
d="M816 352h-337l-23 -128q-3 -19 3 -25.5t25 -6.5h304l-34 -192h-323l-9 -18h102q58 0 48 -58l-5 -30q-5 -30 -19.5 -42t-44.5 -12h-266l12 66h187q7 0 8 7l1 4q1 7 -6 7h-127l6 32l21 44h-14q-173 0 -142 172l32 180h-190l33 188h190l69 120h216l-21 -120h337z" />
    <glyph glyph-name="Tcaron" unicode="&#x164;" horiz-adv-x="1020" 
d="M889 860l-162 -130h-270l-118 130h180l80 -42l94 42h196zM86 700h1000l-41 -230h-360l-83 -470h-280l83 470h-360z" />
    <glyph glyph-name="tcaron" unicode="&#x165;" horiz-adv-x="822" 
d="M765 629l-50 -59h-152l75 100h-66l21 120h240l-6 -36q-8 -45 -18 -64q-11 -23 -44 -61zM816 352h-337l-23 -128q-3 -19 3 -25.5t25 -6.5h304l-34 -192h-429q-173 0 -142 172l32 180h-190l33 188h190l69 120h216l-21 -120h337z" />
    <glyph glyph-name="Tbar" unicode="&#x166;" horiz-adv-x="1020" 
d="M1086 700l-41 -230h-360l-19 -107h241l-26 -146h-241l-38 -217h-280l38 217h-239l26 146h239l19 107h-360l41 230h1000z" />
    <glyph glyph-name="tbar" unicode="&#x167;" horiz-adv-x="822" 
d="M849 540l-31 -174h-337l-6 -34h337l-21 -120h-337v-2q-3 -19 2.5 -25.5t24.5 -6.5h304l-31 -178h-429q-173 0 -142 172l7 40h-190l21 120h190l6 34h-190l31 174h190l69 120h216l-21 -120h337z" />
    <glyph glyph-name="Utilde" unicode="&#x168;" horiz-adv-x="1112" 
d="M537 730h-149l14 82q9 48 57 48h205q24 0 34.5 -5.5t20.5 -22.5l13 -23q3 -4 8 -4h7q4 0 6 5l8 50h149l-14 -82q-9 -48 -57 -48h-205q-24 0 -34.5 5.5t-20.5 22.5l-13 23q-3 4 -8 4h-7q-4 0 -6 -5zM828 0h-620q-107 0 -153.5 56t-27.5 164l85 480h280l-75 -424
q-4 -26 4.5 -36.5t34.5 -10.5h388q26 0 37.5 9.5t15.5 35.5l75 426h280l-89 -500q-19 -108 -73.5 -154t-161.5 -46z" />
    <glyph glyph-name="utilde" unicode="&#x169;" horiz-adv-x="992" 
d="M457 620l-8 -50h-149l14 82q9 48 57 48h205q24 0 34.5 -5.5t20.5 -22.5l13 -23q3 -4 8 -4h7q4 0 6 5l8 50h149l-14 -82q-9 -48 -57 -48h-205q-24 0 -34.5 5.5t-20.5 22.5l-13 23q-3 4 -8 4h-7q-4 0 -6 -5zM738 540h264l-96 -540h-224l-7 53q-42 -32 -79 -43
q-34 -10 -104 -10h-306q-200 0 -164 200l60 340h264l-54 -304q-4 -22 3 -30t29 -8h288q35 0 54 16l16 13z" />
    <glyph glyph-name="Umacron" unicode="&#x16a;" horiz-adv-x="1112" 
d="M899 740h-520l20 110h520zM828 0h-620q-107 0 -153.5 56t-27.5 164l85 480h280l-75 -424q-4 -26 4.5 -36.5t34.5 -10.5h388q26 0 37.5 9.5t15.5 35.5l75 426h280l-89 -500q-19 -108 -73.5 -154t-161.5 -46z" />
    <glyph glyph-name="umacron" unicode="&#x16b;" horiz-adv-x="992" 
d="M311 690h520l-20 -110h-520zM738 540h264l-96 -540h-224l-7 53q-42 -32 -79 -43q-34 -10 -104 -10h-306q-200 0 -164 200l60 340h264l-54 -304q-4 -22 3 -30t29 -8h288q35 0 54 16l16 13z" />
    <glyph glyph-name="Ubreve" unicode="&#x16c;" horiz-adv-x="1112" 
d="M818 730h-358q-78 0 -65 78l9 52h178l-3 -18q-4 -22 19 -22h110q21 0 25 22l3 18h178l-9 -56q-11 -74 -87 -74zM828 0h-620q-107 0 -153.5 56t-27.5 164l85 480h280l-75 -424q-4 -26 4.5 -36.5t34.5 -10.5h388q26 0 37.5 9.5t15.5 35.5l75 426h280l-89 -500
q-19 -108 -73.5 -154t-161.5 -46z" />
    <glyph glyph-name="ubreve" unicode="&#x16d;" horiz-adv-x="992" 
d="M730 570h-358q-78 0 -65 78l9 52h178l-3 -18q-4 -22 19 -22h110q21 0 25 22l3 18h178l-9 -56q-11 -74 -87 -74zM738 540h264l-96 -540h-224l-7 53q-42 -32 -79 -43q-34 -10 -104 -10h-306q-200 0 -164 200l60 340h264l-54 -304q-4 -22 3 -30t29 -8h288q35 0 54 16l16 13z
" />
    <glyph glyph-name="Uring" unicode="&#x16e;" horiz-adv-x="1112" 
d="M456 778l5 28q5 30 19 42t44 12h268q58 0 48 -58l-5 -28q-5 -30 -19 -42t-44 -12h-268q-58 0 -48 58zM549 795l-2 -10q-2 -11 0.5 -14t12.5 -3h168q10 0 13.5 3t5.5 14l2 10q2 11 -0.5 14t-12.5 3h-168q-10 0 -13.5 -3t-5.5 -14zM828 0h-620q-107 0 -153.5 56t-27.5 164
l85 480h280l-75 -424q-4 -26 4.5 -36.5t34.5 -10.5h388q26 0 37.5 9.5t15.5 35.5l75 426h280l-89 -500q-19 -108 -73.5 -154t-161.5 -46z" />
    <glyph glyph-name="uring" unicode="&#x16f;" horiz-adv-x="992" 
d="M684 560h-268q-58 0 -48 58l5 28q5 30 19 42t44 12h268q58 0 48 -58l-5 -28q-5 -30 -19 -42t-44 -12zM461 635l-2 -10q-2 -11 0.5 -14t12.5 -3h168q10 0 13.5 3t5.5 14l2 10q2 11 -0.5 14t-12.5 3h-168q-10 0 -13.5 -3t-5.5 -14zM738 540h264l-96 -540h-224l-7 53
q-42 -32 -79 -43q-34 -10 -104 -10h-306q-200 0 -164 200l60 340h264l-54 -304q-4 -22 3 -30t29 -8h288q35 0 54 16l16 13z" />
    <glyph glyph-name="Uhungarumlaut" unicode="&#x170;" horiz-adv-x="1112" 
d="M739 860l-142 -130h-218l92 130h268zM1039 860l-142 -130h-218l92 130h268zM828 0h-620q-107 0 -153.5 56t-27.5 164l85 480h280l-75 -424q-4 -26 4.5 -36.5t34.5 -10.5h388q26 0 37.5 9.5t15.5 35.5l75 426h280l-89 -500q-19 -108 -73.5 -154t-161.5 -46z" />
    <glyph glyph-name="uhungarumlaut" unicode="&#x171;" horiz-adv-x="992" 
d="M383 700h268l-142 -130h-218zM951 700l-142 -130h-218l92 130h268zM738 540h264l-96 -540h-224l-7 53q-42 -32 -79 -43q-34 -10 -104 -10h-306q-200 0 -164 200l60 340h264l-54 -304q-4 -22 3 -30t29 -8h288q35 0 54 16l16 13z" />
    <glyph glyph-name="Uogonek" unicode="&#x172;" horiz-adv-x="1112" 
d="M797 274l75 426h280l-89 -500q-19 -108 -73.5 -154t-161.5 -46h-178l-2 -2q-11 -11 -11 -17v-4q0 -13 10 -13h208l-22 -124h-291q-43 0 -60 21.5t-12 66.5l2 16q4 33 19 56h-283q-107 0 -153.5 56t-27.5 164l85 480h280l-75 -424q-4 -26 4.5 -36.5t34.5 -10.5h388
q26 0 37.5 9.5t15.5 35.5z" />
    <glyph glyph-name="uogonek" unicode="&#x173;" horiz-adv-x="992" 
d="M804 0l-2 -2q-11 -11 -11 -17v-4q0 -13 10 -13h98l-22 -124h-181q-43 0 -60 21.5t-12 66.5l2 16q4 30 15 49.5t37 39.5l-3 20q-42 -32 -79 -43q-34 -10 -104 -10h-306q-200 0 -164 200l60 340h264l-54 -304q-4 -22 3 -30t29 -8h288q35 0 54 16l16 13l56 313h264l-96 -540
h-102z" />
    <glyph glyph-name="Wcircumflex" unicode="&#x174;" horiz-adv-x="1550" 
d="M931 730l-80 42l-94 -42h-196l162 130h270l118 -130h-180zM1072 299l246 401h318l-465 -700h-240l-138 398l-278 -398h-232l-217 700h296l104 -399l269 399h206z" />
    <glyph glyph-name="wcircumflex" unicode="&#x175;" horiz-adv-x="1362" 
d="M813 570l-80 42l-94 -42h-196l162 130h270l118 -130h-180zM926 263l180 277h304l-393 -540h-226l-109 293l-211 -293h-222l-201 540h278l85 -277l202 277h206z" />
    <glyph glyph-name="Ycircumflex" unicode="&#x176;" horiz-adv-x="1116" 
d="M724 730l-80 42l-94 -42h-196l162 130h270l118 -130h-180zM838 700h364l-507 -448l-45 -252h-280l45 252l-349 448h342l173 -238z" />
    <glyph glyph-name="ycircumflex" unicode="&#x177;" horiz-adv-x="998" 
d="M637 570l-80 42l-94 -42h-196l162 130h270l118 -130h-180zM481 242l245 298h330l-494 -540q-88 -97 -154 -129q-65 -31 -186 -31h-248l34 192h233q25 0 39 5.5t28 20.5l-270 482h304z" />
    <glyph glyph-name="Ydieresis" unicode="&#x178;" horiz-adv-x="1116" 
d="M412 860h210l-22 -130h-210zM682 860h210l-22 -130h-210zM838 700h364l-507 -448l-45 -252h-280l45 252l-349 448h342l173 -238z" />
    <glyph glyph-name="Zacute" unicode="&#x179;" horiz-adv-x="1080" 
d="M923 860l-182 -130h-238l122 130h298zM1002 0h-1020l32 180l555 300h-482l39 220h1000l-32 -180l-555 -300h502z" />
    <glyph glyph-name="zacute" unicode="&#x17a;" horiz-adv-x="954" 
d="M832 700l-182 -130h-238l122 130h298zM878 0h-898l26 146l443 212h-385l32 182h878l-26 -146l-443 -212h405z" />
    <glyph glyph-name="Zdotaccent" unicode="&#x17b;" horiz-adv-x="1080" 
d="M756 730h-268l22 130h268zM1002 0h-1020l32 180l555 300h-482l39 220h1000l-32 -180l-555 -300h502z" />
    <glyph glyph-name="zdotaccent" unicode="&#x17c;" horiz-adv-x="954" 
d="M665 570h-268l22 130h268zM878 0h-898l26 146l443 212h-385l32 182h878l-26 -146l-443 -212h405z" />
    <glyph glyph-name="Zcaron" unicode="&#x17d;" horiz-adv-x="1080" 
d="M723 860h196l-162 -130h-270l-118 130h180l80 -42zM1002 0h-1020l32 180l555 300h-482l39 220h1000l-32 -180l-555 -300h502z" />
    <glyph glyph-name="zcaron" unicode="&#x17e;" horiz-adv-x="954" 
d="M632 700h196l-162 -130h-270l-118 130h180l80 -42zM878 0h-898l26 146l443 212h-385l32 182h878l-26 -146l-443 -212h405z" />
    <glyph glyph-name="florin" unicode="&#x192;" horiz-adv-x="952" 
d="M960 488h-243q-26 0 -37 -9t-19 -37l-20 -72h279l-29 -160h-295l-44 -160q-32 -113 -86 -161q-55 -49 -159 -49h-353l38 212h243q26 0 37 9t19 37l31 112h-283l29 160h299l33 120q32 113 86 161q55 49 159 49h353z" />
    <glyph glyph-name="Aringacute" unicode="&#x1fa;" horiz-adv-x="1172" 
d="M1134 0h-310l-41 104h-431l-78 -104h-332l542 675q-10 12 -6 43l5 28q5 30 19 42t44 12h50l47 60h268l-79 -62q39 -7 30 -56l-5 -28q-6 -34 -23 -45zM571 735l-2 -10q-2 -11 0.5 -14t12.5 -3h168q10 0 13.5 3t5.5 14l2 10q2 11 -0.5 14t-12.5 3h-168q-10 0 -13.5 -3
t-5.5 -14zM635 484l-149 -200h227z" />
    <glyph glyph-name="aringacute" unicode="&#x1fb;" horiz-adv-x="984" 
d="M742 540h58q198 0 163 -198l-61 -342h-224l-7 45q-41 -30 -72 -37q-37 -8 -101 -8h-379q-63 0 -93.5 37t-18.5 100l10 54q23 123 144 123h533l5 30q4 22 -3 30t-29 8h-308q-19 0 -26 -6.5t-11 -25.5l-2 -11h-254l7 43q14 87 57 122.5t130 35.5h104l2 18l5 28q5 30 19 42
t44 12h50l47 60h268l-79 -62q39 -7 30 -56l-5 -28zM459 575l-2 -10q-2 -11 0.5 -14t12.5 -3h168q10 0 13.5 3t5.5 14l2 10q2 11 -0.5 14t-12.5 3h-168q-10 0 -13.5 -3t-5.5 -14zM298 138h308q30 0 46 16l16 14l7 40h-367q-16 0 -21.5 -5t-8.5 -21l-3 -18q-2 -16 2.5 -21
t20.5 -5z" />
    <glyph glyph-name="AEacute" unicode="&#x1fc;" horiz-adv-x="1580" 
d="M875 860h298l-182 -130h-238zM1626 700l-35 -198h-681l28 -68h601l-28 -160h-508l31 -76h513l-35 -198h-708l-37 104h-415l-78 -104h-332l562 700h1122zM631 479l-145 -195h216z" />
    <glyph glyph-name="aeacute" unicode="&#x1fd;" horiz-adv-x="1636" 
d="M875 700h298l-182 -130h-238zM966 540h490q196 0 162 -198l-18 -104h-656l-4 -24q-4 -22 3 -30t29 -8h332q19 0 26 6.5t11 25.5l1 5h254l-10 -55q-16 -87 -58 -122.5t-128 -35.5h-524q-92 0 -132 40q-34 -24 -69 -32q-37 -8 -97 -8h-459q-63 0 -93.5 37t-18.5 100l10 54
q23 123 144 123h533l5 30q4 22 -3 30t-29 8h-308q-19 0 -26 -6.5t-11 -25.5l-2 -11h-254l7 43q14 87 57 122.5t130 35.5h490q71 0 104 -34q40 34 112 34zM966 360l-3 -16h402l3 16q4 22 -3 30t-29 8h-326q-22 0 -31 -8t-13 -30zM652 154l16 14l7 40h-367q-16 0 -21.5 -5
t-8.5 -21l-3 -18q-2 -16 2.5 -21t20.5 -5h308q30 0 46 16z" />
    <glyph glyph-name="Oslashacute" unicode="&#x1fe;" horiz-adv-x="1134" 
d="M652 860h298l-182 -130h-238zM1033 730h180l-116 -81q61 -61 40 -179l-48 -270q-19 -108 -73.5 -154t-161.5 -46h-640q-7 0 -39 2l-46 -32h-180l116 81q-61 61 -40 179l48 270q19 108 73.5 154t161.5 46h640q7 0 39 -2zM333 445l-34 -188q-5 -30 5 -38l387 271h-305
q-26 0 -37.5 -9.5t-15.5 -35.5zM829 255l34 188q5 28 -5 38l-387 -271h305q26 0 37.5 9.5t15.5 35.5z" />
    <glyph glyph-name="oslashacute" unicode="&#x1ff;" horiz-adv-x="990" 
d="M552 700h298l-182 -130h-238zM1043 570l-106 -68q54 -50 35 -162l-28 -160q-16 -98 -64 -140q-47 -40 -148 -40h-550h-18l-47 -30h-170l106 68q-54 50 -35 162l28 160q16 99 65 140q46 40 147 40h550h18l47 30h170zM275 330l-22 -120q-4 -27 11 -35l297 193h-243
q-22 0 -30.5 -8t-12.5 -30zM715 210l22 120q4 27 -11 35l-297 -193h243q22 0 30.5 8t12.5 30z" />
    <glyph glyph-name="Scommaaccent" unicode="&#x218;" horiz-adv-x="1114" 
d="M15 174l11 60h270l-6 -32q-4 -19 2 -25.5t25 -6.5h436q19 0 26.5 6.5t10.5 25.5l3 21q3 19 -2.5 25t-24.5 7l-549 21q-172 6 -144 175l16 91q15 86 58 122t129 36h694q169 0 142 -174l-8 -52h-270l4 24q3 19 -2.5 25.5t-24.5 6.5h-412q-19 0 -26.5 -6.5t-10.5 -25.5
l-2 -13q-3 -18 3 -24.5t24 -7.5l549 -21q171 -6 143 -175l-17 -99q-15 -87 -57 -122.5t-129 -35.5h-718q-175 0 -143 174zM497 -250h-132l85 100h-86l21 120h240l-6 -36q-7 -43 -19 -65q-12 -23 -49 -61z" />
    <glyph glyph-name="scommaaccent" unicode="&#x219;" horiz-adv-x="970" 
d="M7 140l8 44h254l-5 -28q-2 -13 1.5 -17.5t17.5 -4.5h348q14 0 19 4.5t6 17.5l2 15q2 13 -2 17.5t-17 5.5l-471 20q-63 2 -93.5 38t-20.5 98l11 64q21 126 149 126h622q61 0 92.5 -38.5t20.5 -101.5l-6 -36h-254l3 20q2 13 -1.5 17.5t-17.5 4.5h-324q-14 0 -19 -4.5
t-6 -17.5l-1 -9q-2 -13 2 -17.5t17 -5.5l471 -20q63 -2 93.5 -38t20.5 -98l-12 -70q-21 -126 -149 -126h-646q-62 0 -93 38.5t-20 101.5zM425 -250h-132l85 100h-86l21 120h240l-6 -36q-7 -43 -19 -65q-12 -23 -49 -61z" />
    <glyph glyph-name="uni021A" unicode="&#x21a;" horiz-adv-x="1020" 
d="M86 700h1000l-41 -230h-360l-83 -470h-280l83 470h-360zM403 -150h-86l21 120h240l-6 -36q-7 -43 -19 -65q-12 -23 -49 -61l-54 -58h-132z" />
    <glyph glyph-name="uni021B" unicode="&#x21b;" horiz-adv-x="822" 
d="M816 352h-337l-23 -128q-3 -19 3 -25.5t25 -6.5h304l-34 -192h-429q-173 0 -142 172l32 180h-190l33 188h190l69 120h216l-21 -120h337zM344 -150h-86l21 120h240l-6 -36q-7 -43 -19 -65q-12 -23 -49 -61l-54 -58h-132z" />
    <glyph glyph-name="uni0237" unicode="&#x237;" horiz-adv-x="452" 
d="M176 -160h-372l32 182h231q19 0 26.5 6.5t10.5 25.5l86 486h268l-96 -542q-16 -87 -58 -122.5t-128 -35.5z" />
    <glyph glyph-name="circumflex" unicode="&#x2c6;" horiz-adv-x="550" 
d="M289 570h-196l162 130h270l118 -130h-180l-80 42z" />
    <glyph glyph-name="caron" unicode="&#x2c7;" horiz-adv-x="588" 
d="M470 700h196l-162 -130h-270l-118 130h180l80 -42z" />
    <glyph glyph-name="breve" unicode="&#x2d8;" horiz-adv-x="510" 
d="M530 570h-358q-79 0 -65 78l9 52h178l-3 -18q-4 -22 19 -22h110q21 0 25 22l3 18h178l-9 -56q-11 -74 -87 -74z" />
    <glyph glyph-name="dotaccent" unicode="&#x2d9;" horiz-adv-x="328" 
d="M362 570h-268l22 130h268z" />
    <glyph glyph-name="ring" unicode="&#x2da;" horiz-adv-x="380" 
d="M102 618l5 28q5 30 19 42t44 12h268q58 0 48 -58l-5 -28q-5 -30 -19 -42t-44 -12h-268q-58 0 -48 58zM195 635l-2 -10q-2 -11 0.5 -14t12.5 -3h168q10 0 13.5 3t5.5 14l2 10q2 11 -0.5 14t-12.5 3h-168q-10 0 -13.5 -3t-5.5 -14z" />
    <glyph glyph-name="ogonek" unicode="&#x2db;" horiz-adv-x="380" 
d="M180 16l-21 -18q-11 -11 -11 -17v-4q0 -13 10 -13h208l-22 -124h-291q-43 0 -60 21.5t-12 66.5l2 16q4 32 17.5 53t45.5 44l70 50z" />
    <glyph glyph-name="tilde" unicode="&#x2dc;" horiz-adv-x="510" 
d="M242 570h-149l14 82q9 48 57 48h205q23 0 34 -5.5t21 -22.5l13 -23q3 -4 8 -4h7q4 0 6 5l8 50h149l-14 -82q-9 -48 -57 -48h-205q-23 0 -34 5.5t-21 22.5l-13 23q-3 4 -8 4h-7q-4 0 -6 -5z" />
    <glyph glyph-name="hungarumlaut" unicode="&#x2dd;" horiz-adv-x="618" 
d="M444 700l-142 -130h-218l92 130h268zM744 700l-142 -130h-218l92 130h268z" />
    <glyph glyph-name="gravecomb" unicode="&#x300;" horiz-adv-x="0" 
d="M6 570h-213l-138 130h273z" />
    <glyph glyph-name="acutecomb" unicode="&#x301;" horiz-adv-x="0" 
d="M41 700l-182 -130h-238l122 130h298z" />
    <glyph glyph-name="uni0302" unicode="&#x302;" horiz-adv-x="0" 
d="M-341 570h-196l162 130h270l118 -130h-180l-80 42z" />
    <glyph glyph-name="tildecomb" unicode="&#x303;" horiz-adv-x="0" 
d="M-338 570h-149l14 82q9 48 57 48h205q23 0 34 -5.5t21 -22.5l13 -23q3 -4 8 -4h7q4 0 6 5l8 50h149l-14 -82q-9 -48 -57 -48h-205q-23 0 -34 5.5t-21 22.5l-13 23q-3 4 -8 4h-7q-4 0 -6 -5z" />
    <glyph glyph-name="uni0304" unicode="&#x304;" horiz-adv-x="0" 
d="M15 580h-520l20 110h520z" />
    <glyph glyph-name="uni0306" unicode="&#x306;" horiz-adv-x="0" 
d="M-60 570h-358q-78 0 -65 78l9 52h178l-3 -18q-4 -22 19 -22h110q21 0 25 22l3 18h178l-9 -56q-11 -74 -87 -74z" />
    <glyph glyph-name="uni0307" unicode="&#x307;" horiz-adv-x="0" 
d="M14 570h-268l22 130h268z" />
    <glyph glyph-name="uni0308" unicode="&#x308;" horiz-adv-x="0" 
d="M-256 570h-210l22 130h210zM14 570h-210l22 130h210z" />
    <glyph glyph-name="uni030A" unicode="&#x30a;" horiz-adv-x="0" 
d="M-358 618l5 28q5 30 19 42t44 12h268q58 0 48 -58l-5 -28q-5 -30 -19 -42t-44 -12h-268q-58 0 -48 58zM-265 635l-2 -10q-2 -11 0.5 -14t12.5 -3h168q10 0 13.5 3t5.5 14l2 10q2 11 -0.5 14t-12.5 3h-168q-10 0 -13.5 -3t-5.5 -14z" />
    <glyph glyph-name="uni030B" unicode="&#x30b;" horiz-adv-x="0" 
d="M-254 700l-142 -130h-218l92 130h268zM46 700l-142 -130h-218l92 130h268z" />
    <glyph glyph-name="uni030C" unicode="&#x30c;" horiz-adv-x="0" 
d="M-160 700h196l-162 -130h-270l-118 130h180l80 -42z" />
    <glyph glyph-name="uni0312" unicode="&#x312;" horiz-adv-x="0" 
d="M-89 790h132l-75 -100h66l-21 -120h-220l6 36q8 44 18 65q12 23 44 60z" />
    <glyph glyph-name="uni0326" unicode="&#x326;" horiz-adv-x="0" 
d="M-221 -250h-132l85 100h-86l21 120h240l-6 -36q-7 -43 -19 -65q-12 -23 -49 -61z" />
    <glyph glyph-name="uni0327" unicode="&#x327;" horiz-adv-x="0" 
d="M-170 -160h-266l12 66h187q7 0 8 7l1 4q1 7 -6 7h-127l6 32l31 64h92l-19 -38h102q58 0 48 -58l-5 -30q-5 -30 -19.5 -42t-44.5 -12z" />
    <glyph glyph-name="uni0328" unicode="&#x328;" horiz-adv-x="0" 
d="M-280 16l-21 -18q-11 -11 -11 -17v-4q0 -13 10 -13h208l-22 -124h-291q-43 0 -60 21.5t-12 66.5l2 16q4 32 17.5 53t45.5 44l70 50z" />
    <glyph glyph-name="uni0335" unicode="&#x335;" horiz-adv-x="0" 
d="M-478 281l26 146h440l-26 -146h-440z" />
    <glyph glyph-name="uni0336" unicode="&#x336;" horiz-adv-x="0" 
d="M-918 281l26 146h880l-26 -146h-880z" />
    <glyph glyph-name="uni0337" unicode="&#x337;" horiz-adv-x="0" 
d="M-488 277l26 146l460 60l-26 -146z" />
    <glyph glyph-name="uni0338" unicode="&#x338;" horiz-adv-x="0" 
d="M-713 -30l626 600h140l-626 -600h-140z" />
    <glyph glyph-name="uni0394" unicode="&#x394;" horiz-adv-x="1172" 
d="M504 700h316l314 -700h-1192zM635 484l-212 -284h323z" />
    <glyph glyph-name="uni03A9" unicode="&#x3a9;" horiz-adv-x="1134" 
d="M308 700h650q96 0 148 -58t33 -162l-22 -121q-23 -125 -111 -159h94l-36 -200h-490l51 290h156q26 0 37 9.5t16 36.5l17 98q4 26 -4.5 36t-35.5 10h-418q-26 0 -36.5 -9.5t-15.5 -36.5l-17 -98q-4 -26 4.5 -36t34.5 -10h152l-51 -290h-490l36 200h98q-83 39 -59 169
l24 131q19 108 73.5 154t161.5 46z" />
    <glyph glyph-name="uni03BC" unicode="&#x3bc;" horiz-adv-x="1038" 
d="M971 192h43l-34 -192h-166q-98 0 -125 61q-49 -40 -84 -50q-39 -11 -109 -11h-262l-28 -160h-244l124 700h264l-54 -304q-4 -22 3 -30t29 -8h288q35 0 54 16l17 14l55 312h264l-57 -322q-3 -16 1.5 -21t20.5 -5z" />
    <glyph glyph-name="pi" unicode="&#x3c0;" horiz-adv-x="1120" 
d="M1114 352h-100l-22 -128q-3 -19 2.5 -25.5t24.5 -6.5h67l-34 -192h-190q-172 0 -142 174l31 178h-353l-62 -352h-264l62 352h-110l34 188h1090z" />
    <glyph glyph-name="uni0401" unicode="&#x401;" horiz-adv-x="1010" 
d="M369 860h210l-22 -130h-210zM639 860h210l-22 -130h-210zM1056 700l-35 -198h-660l-12 -68h620l-28 -160h-620l-14 -76h670l-35 -198h-950l124 700h940z" />
    <glyph glyph-name="uni0403" unicode="&#x403;" horiz-adv-x="950" 
d="M560 860h298l-182 -130h-238zM116 700h900l-41 -230h-620l-83 -470h-280z" />
    <glyph glyph-name="uni0405" unicode="&#x405;" horiz-adv-x="1114" 
d="M15 174l11 60h270l-6 -32q-4 -19 2 -25.5t25 -6.5h436q19 0 26.5 6.5t10.5 25.5l3 21q3 19 -2.5 25t-24.5 7l-549 21q-172 6 -144 175l16 91q15 86 58 122t129 36h694q169 0 142 -174l-8 -52h-270l4 24q3 19 -2.5 25.5t-24.5 6.5h-412q-19 0 -26.5 -6.5t-10.5 -25.5
l-2 -13q-3 -18 3 -24.5t24 -7.5l549 -21q171 -6 143 -175l-17 -99q-15 -87 -57 -122.5t-129 -35.5h-718q-175 0 -143 174z" />
    <glyph glyph-name="uni0406" unicode="&#x406;" horiz-adv-x="372" 
d="M-4 0l124 700h284l-124 -700h-284z" />
    <glyph glyph-name="uni0407" unicode="&#x407;" horiz-adv-x="372" 
d="M238 730h-210l22 130h210zM508 730h-210l22 130h210zM-4 0l124 700h284l-124 -700h-284z" />
    <glyph glyph-name="uni0408" unicode="&#x408;" horiz-adv-x="1026" 
d="M742 0h-550q-107 0 -153.5 56t-27.5 164l16 90h270l-9 -47q-5 -26 4 -36.5t35 -10.5h328q27 0 38 9.5t15 35.5l78 439h280l-89 -500q-19 -108 -73.5 -154t-161.5 -46z" />
    <glyph glyph-name="uni040C" unicode="&#x40c;" horiz-adv-x="1114" 
d="M642 860h298l-182 -130h-238zM756 700h430l-514 -344l394 -356h-406l-330 326l-58 -326h-280l124 700h280l-54 -305z" />
    <glyph glyph-name="uni040E" unicode="&#x40e;" horiz-adv-x="1116" 
d="M849 730h-358q-78 0 -65 78l9 52h178l-3 -18q-4 -22 19 -22h110q21 0 25 22l3 18h178l-9 -56q-11 -74 -87 -74zM577 448l259 252h366l-765 -700h-365l307 278l-313 422h340z" />
    <glyph glyph-name="uni0410" unicode="&#x410;" horiz-adv-x="1172" 
d="M1134 0h-310l-41 104h-431l-78 -104h-332l562 700h316zM635 484l-149 -200h227z" />
    <glyph glyph-name="uni0411" unicode="&#x411;" horiz-adv-x="1100" 
d="M864 0h-872l124 700h970l-34 -194h-690l-12 -68h576q172 0 142 -174l-18 -106q-15 -87 -57 -122.5t-129 -35.5zM321 278l-15 -88h439q18 0 25 6.5t11 25.5l5 24q4 18 -2.5 25t-25.5 7h-437z" />
    <glyph glyph-name="uni0412" unicode="&#x412;" horiz-adv-x="1100" 
d="M116 700h836q84 0 120 -44.5t22 -129.5l-7 -42q-10 -57 -32.5 -88t-63.5 -43q85 -27 67 -145l-8 -50q-14 -86 -56.5 -122t-129.5 -36h-872zM779 510h-417l-14 -82h419q17 0 24 6t12 26l4 18q4 18 -2.5 25t-25.5 7zM781 222l5 26q4 19 -2 25.5t-25 6.5h-437l-16 -90h439
q18 0 25 6.5t11 25.5z" />
    <glyph glyph-name="uni0413" unicode="&#x413;" horiz-adv-x="950" 
d="M116 700h900l-41 -230h-620l-83 -470h-280z" />
    <glyph glyph-name="uni0414" unicode="&#x414;" horiz-adv-x="1250" 
d="M1195 700l-85 -480h121l-60 -340h-260l21 120h-710l-21 -120h-260l60 340h80q26 0 37.5 10t17.5 36l105 434h954zM471 470l-46 -180q-12 -43 -23 -70h429l44 250h-404z" />
    <glyph glyph-name="uni0415" unicode="&#x415;" horiz-adv-x="1010" 
d="M1056 700l-35 -198h-660l-12 -68h620l-28 -160h-620l-14 -76h670l-35 -198h-950l124 700h940z" />
    <glyph glyph-name="uni0416" unicode="&#x416;" horiz-adv-x="1868" 
d="M1510 700h430l-512 -344l392 -356h-406l-330 326l-58 -326h-280l58 325l-422 -325h-430l520 356l-392 344h406l329 -308l55 308h280l-54 -305z" />
    <glyph glyph-name="uni0417" unicode="&#x417;" horiz-adv-x="1110" 
d="M272 700h698q173 0 144 -176l-7 -42q-10 -60 -33.5 -90.5t-67.5 -40.5q80 -30 62 -145l-8 -50q-14 -86 -55.5 -121t-128.5 -35h-718q-174 0 -144 176l17 100h270l-10 -54q-4 -18 2.5 -25t25.5 -7h436q18 0 25 6.5t11 25.5l4 21q4 19 -2 25.5t-25 6.5h-387l28 158h379
q17 0 24 6t12 26l3 13q4 18 -2.5 25t-25.5 7h-416q-18 0 -25 -6.5t-11 -25.5l-9 -46h-270l20 112q16 87 57 121.5t127 34.5z" />
    <glyph glyph-name="uni0418" unicode="&#x418;" horiz-adv-x="1140" 
d="M318 317l618 383h240l-124 -700h-270l69 390l-629 -390h-230l124 700h270z" />
    <glyph glyph-name="uni0419" unicode="&#x419;" horiz-adv-x="1140" 
d="M861 730h-358q-79 0 -65 78l9 52h178l-3 -18q-4 -22 19 -22h110q21 0 25 22l3 18h178l-9 -56q-11 -74 -87 -74zM318 317l618 383h240l-124 -700h-270l69 390l-629 -390h-230l124 700h270z" />
    <glyph glyph-name="uni041A" unicode="&#x41a;" horiz-adv-x="1114" 
d="M756 700h430l-514 -344l394 -356h-406l-330 326l-58 -326h-280l124 700h280l-54 -305z" />
    <glyph glyph-name="uni041B" unicode="&#x41b;" horiz-adv-x="1130" 
d="M128 0h-166l39 220h50q26 0 37 9.5t18 36.5l106 434h954l-124 -700h-280l83 470h-404l-65 -260q-27 -111 -85 -160.5t-163 -49.5z" />
    <glyph glyph-name="uni041C" unicode="&#x41c;" horiz-adv-x="1260" 
d="M627 339l411 361h258l-124 -700h-270l62 351l-289 -255h-152l-199 256l-62 -352h-270l124 700h228z" />
    <glyph glyph-name="uni041D" unicode="&#x41d;" horiz-adv-x="1120" 
d="M836 475l40 225h280l-124 -700h-280l43 245h-480l-43 -245h-280l124 700h280l-40 -225h480z" />
    <glyph glyph-name="uni041E" unicode="&#x41e;" horiz-adv-x="1134" 
d="M854 0h-650q-107 0 -153.5 56t-27.5 164l50 280q19 108 73.5 154t161.5 46h650q107 0 153.5 -56t27.5 -164l-50 -280q-19 -108 -73.5 -154t-161.5 -46zM350 220h418q26 0 37.5 9.5t15.5 35.5l30 168q4 26 -4.5 36.5t-34.5 10.5h-418q-26 0 -37.5 -9.5t-15.5 -35.5
l-30 -168q-4 -26 4.5 -36.5t34.5 -10.5z" />
    <glyph glyph-name="uni041F" unicode="&#x41f;" horiz-adv-x="1120" 
d="M272 0h-280l124 700h1040l-124 -700h-280l83 470h-480z" />
    <glyph glyph-name="uni0420" unicode="&#x420;" horiz-adv-x="1080" 
d="M272 0h-280l124 700h820q199 0 164 -200l-24 -140q-16 -98 -64 -140q-47 -40 -148 -40h-560zM360 500l-22 -130h423q22 0 30.5 8t12.5 30l10 54q4 22 -3.5 30t-29.5 8h-421z" />
    <glyph glyph-name="uni0421" unicode="&#x421;" horiz-adv-x="1102" 
d="M824 0h-620q-107 0 -153.5 56t-27.5 164l50 280q19 108 73.5 154t161.5 46h620q107 0 153.5 -56t27.5 -164l-15 -86h-270l8 43q4 26 -4.5 36.5t-34.5 10.5h-398q-26 0 -37.5 -9.5t-15.5 -35.5l-32 -176q-4 -26 4.5 -36.5t34.5 -10.5h398q27 0 38 9.5t15 35.5l9 51h270
l-20 -112q-19 -108 -73.5 -154t-161.5 -46z" />
    <glyph glyph-name="uni0422" unicode="&#x422;" horiz-adv-x="1020" 
d="M86 700h1000l-41 -230h-360l-83 -470h-280l83 470h-360z" />
    <glyph glyph-name="uni0423" unicode="&#x423;" horiz-adv-x="1116" 
d="M577 448l259 252h366l-765 -700h-365l307 278l-313 422h340z" />
    <glyph glyph-name="uni0424" unicode="&#x424;" horiz-adv-x="1420" 
d="M909 660h328q107 0 153.5 -56t27.5 -164l-36 -200q-19 -108 -73.5 -154t-161.5 -46h-348l-14 -80h-260l14 80h-328q-107 0 -153.5 56t-27.5 164l36 200q19 108 73.5 154t161.5 46h348l14 80h260zM354 240h221l38 220h-223q-26 0 -37 -9.5t-16 -36.5l-22 -128
q-4 -26 4.5 -36t34.5 -10zM1111 286l22 128q4 26 -4.5 36t-34.5 10h-221l-38 -220h223q26 0 37 9.5t16 36.5z" />
    <glyph glyph-name="uni0425" unicode="&#x425;" horiz-adv-x="1120" 
d="M344 0h-392l432 357l-298 343h364l144 -179l200 179h392l-420 -343l306 -357h-364l-152 193z" />
    <glyph glyph-name="uni0426" unicode="&#x426;" horiz-adv-x="1210" 
d="M893 0h-900l123 700h280l-83 -470h480l83 470h280l-83 -470h120l-62 -350h-260z" />
    <glyph glyph-name="uni0427" unicode="&#x427;" horiz-adv-x="1100" 
d="M1012 0h-280l32 180h-560q-199 0 -164 200l56 320h280l-45 -252q-4 -22 3.5 -30t29.5 -8h441l51 290h280z" />
    <glyph glyph-name="uni0428" unicode="&#x428;" horiz-adv-x="1580" 
d="M1492 0h-1500l124 700h280l-83 -470h330l83 470h280l-83 -470h330l83 470h280z" />
    <glyph glyph-name="uni0429" unicode="&#x429;" horiz-adv-x="1670" 
d="M1353 0h-1360l123 700h280l-83 -470h330l83 470h280l-83 -470h330l83 470h280l-83 -470h120l-62 -350h-260z" />
    <glyph glyph-name="uni042A" unicode="&#x42a;" horiz-adv-x="1300" 
d="M277 480h-230l39 220h510l-32 -180h560q199 0 164 -200l-24 -140q-16 -98 -64 -140q-47 -40 -148 -40h-860zM530 330l-22 -130h443q22 0 30.5 8t12.5 30l10 54q4 22 -3.5 30t-29.5 8h-441z" />
    <glyph glyph-name="uni042B" unicode="&#x42b;" horiz-adv-x="1452" 
d="M-8 0l124 700h280l-32 -180h540q199 0 164 -200l-24 -140q-16 -98 -64 -140q-47 -40 -148 -40h-840zM1076 0l124 700h284l-124 -700h-284zM751 330h-421l-22 -130h423q22 0 30.5 8t12.5 30l10 54q4 22 -3.5 30t-29.5 8z" />
    <glyph glyph-name="uni042C" unicode="&#x42c;" horiz-adv-x="1080" 
d="M-8 0l124 700h280l-32 -180h540q199 0 164 -200l-24 -140q-16 -98 -64 -140q-47 -40 -148 -40h-840zM751 330h-421l-22 -130h423q22 0 30.5 8t12.5 30l10 54q4 22 -3.5 30t-29.5 8z" />
    <glyph glyph-name="uni042D" unicode="&#x42d;" horiz-adv-x="1120" 
d="M306 700h640q107 0 153.5 -56t27.5 -164l-50 -280q-19 -108 -73.5 -154t-161.5 -46h-640q-107 0 -153.5 56.5t-27.5 163.5l16 92h270l-12 -70q-5 -26 3.5 -36t34.5 -10h418q26 0 38 10t16 36l5 30h-420l28 160h420l5 26q5 26 -3.5 36t-34.5 10h-418q-26 0 -38 -10
t-16 -36l-11 -64h-270l19 106q19 108 73.5 154t161.5 46z" />
    <glyph glyph-name="uni042E" unicode="&#x42e;" horiz-adv-x="1612" 
d="M786 700h650q107 0 153.5 -56t27.5 -164l-50 -280q-19 -108 -73.5 -154t-161.5 -46h-650q-107 0 -153.5 56t-27.5 164l4 24h-190l-43 -244h-280l124 700h280l-40 -226h190l5 26q19 108 73.5 154t161.5 46zM1299 265l30 168q4 26 -4.5 36.5t-34.5 10.5h-418
q-26 0 -37.5 -9.5t-15.5 -35.5l-30 -168q-4 -26 4.5 -36.5t34.5 -10.5h418q26 0 37.5 9.5t15.5 35.5z" />
    <glyph glyph-name="uni042F" unicode="&#x42f;" horiz-adv-x="1090" 
d="M286 700h840l-124 -700h-280l37 206h-251l-204 -206h-356l232 229q-152 20 -122 197l16 94q16 99 65 140q46 40 147 40zM370 390h421l21 120h-423q-22 0 -30.5 -8t-12.5 -30l-8 -44q-4 -22 3 -30t29 -8z" />
    <glyph glyph-name="uni0430" unicode="&#x430;" horiz-adv-x="984" 
d="M260 540h540q198 0 163 -198l-61 -342h-224l-7 45q-41 -30 -72 -37q-37 -8 -101 -8h-379q-63 0 -93.5 37t-18.5 100l10 54q23 123 144 123h533l5 30q4 22 -3 30t-29 8h-308q-19 0 -26 -6.5t-11 -25.5l-2 -11h-254l7 43q14 87 57 122.5t130 35.5zM298 138h308q30 0 46 16
l16 14l7 40h-367q-16 0 -21.5 -5t-8.5 -21l-3 -18q-2 -16 2.5 -21t20.5 -5z" />
    <glyph glyph-name="uni0431" unicode="&#x431;" horiz-adv-x="994" 
d="M986 520l-654 -23q-32 -1 -46.5 -14.5t-20.5 -46.5l-5 -31q30 47 124 47h434q175 0 145 -176l-21 -120q-15 -86 -56.5 -121t-127.5 -35h-598q-174 0 -144 176l54 308q19 107 72.5 152.5t162.5 49.5l715 24zM668 288h-338q-19 0 -26 -6.5t-10 -25.5h-1l-8 -46
q-4 -18 2.5 -25t25.5 -7h338q18 0 25 6.5t11 25.5l9 46q4 18 -2.5 25t-25.5 7z" />
    <glyph glyph-name="uni0432" unicode="&#x432;" horiz-adv-x="980" 
d="M86 540h765q136 0 110 -134l-6 -32q-15 -84 -74 -101q68 -22 52 -112l-7 -39q-12 -67 -45 -94.5t-99 -27.5h-792l48 267h-1zM669 393h-345l-11 -63h347q14 0 20 5.5t8 19.5l2 14q2 14 -2.5 19t-18.5 5zM671 171l3 20q2 15 -2.5 20t-19.5 5h-360l-12 -69h362q15 0 21 5
t8 19z" />
    <glyph glyph-name="uni0433" unicode="&#x433;" horiz-adv-x="840" 
d="M254 0h-264l96 540h792l-35 -198h-528z" />
    <glyph glyph-name="uni0434" unicode="&#x434;" horiz-adv-x="1114" 
d="M1041 540l-62 -349h111l-55 -311h-244l21 120h-606l-21 -120h-244l55 311h77q21 0 30 7.5t14 29.5l76 312h848zM412 342l-21 -83q-12 -44 -22 -68h346l27 151h-330z" />
    <glyph glyph-name="uni0435" unicode="&#x435;" horiz-adv-x="980" 
d="M260 540h540q99 0 139 -48.5t23 -149.5l-18 -104h-656l-4 -24q-4 -22 3 -30t29 -8h332q19 0 26 6.5t11 25.5l1 5h254l-10 -55q-16 -87 -58 -122.5t-128 -35.5h-564q-196 0 -162 198l28 160q17 100 65.5 141t148.5 41zM310 360l-3 -16h402l3 16q4 22 -3 30t-29 8h-326
q-22 0 -31 -8t-13 -30z" />
    <glyph glyph-name="uni0436" unicode="&#x436;" horiz-adv-x="1696" 
d="M1318 540h428l-429 -270l341 -270h-404l-279 240l-43 -240h-264l42 234l-340 -234h-428l439 278l-335 262h404l271 -243l43 243h264l-42 -237z" />
    <glyph glyph-name="uni0437" unicode="&#x437;" horiz-adv-x="980" 
d="M208 540h648q136 0 110 -134l-6 -32q-8 -46 -26.5 -70t-51.5 -32q65 -23 49 -111l-7 -39q-12 -67 -45 -94.5t-99 -27.5h-664q-133 0 -110 134l14 81h254l-7 -42q-2 -14 2 -19t19 -5h352q14 0 20 5t9 19l3 16q3 15 -1.5 20t-19.5 5h-311l21 118h303q14 0 20 5t9 20l2 10
q3 14 -1.5 19t-19.5 5h-337q-14 0 -20 -5t-8 -19l-6 -36h-254l15 87q11 66 44.5 94t99.5 28z" />
    <glyph glyph-name="uni0438" unicode="&#x438;" horiz-adv-x="1010" 
d="M291 263l505 277h224l-96 -540h-254l50 283l-516 -283h-214l96 540h254z" />
    <glyph glyph-name="uni0439" unicode="&#x439;" horiz-adv-x="1010" 
d="M768 570h-358q-78 0 -65 78l9 52h178l-3 -18q-4 -22 19 -22h110q21 0 25 22l3 18h178l-9 -56q-11 -74 -87 -74zM291 263l505 277h224l-96 -540h-254l50 283l-516 -283h-214l96 540h254z" />
    <glyph glyph-name="uni043A" unicode="&#x43a;" horiz-adv-x="1018" 
d="M640 540h428l-430 -270l342 -270h-404l-279 241l-43 -241h-264l96 540h264l-42 -238z" />
    <glyph glyph-name="uni043B" unicode="&#x43b;" horiz-adv-x="1000" 
d="M118 0h-156l34 191h45q21 0 30.5 8t14.5 29l76 312h848l-96 -540h-264l61 342h-330l-39 -153q-26 -103 -77 -146t-147 -43z" />
    <glyph glyph-name="uni043C" unicode="&#x43c;" horiz-adv-x="1096" 
d="M234 0h-244l96 540h223l233 -259l327 259h237l-96 -540h-244l48 270l-245 -196h-112l-175 196z" />
    <glyph glyph-name="uni043D" unicode="&#x43d;" horiz-adv-x="996" 
d="M712 374l30 166h264l-96 -540h-264l31 176h-392l-31 -176h-264l96 540h264l-30 -166h392z" />
    <glyph glyph-name="uni043E" unicode="&#x43e;" horiz-adv-x="990" 
d="M732 0h-550q-199 0 -164 200l28 160q16 99 65 140q46 40 147 40h550q199 0 164 -200l-28 -160q-16 -98 -64 -140q-47 -40 -148 -40zM319 192h326q22 0 31 8t13 30l14 80q4 22 -3 30t-29 8h-326q-22 0 -31 -8t-13 -30l-14 -80q-4 -22 3 -30t29 -8z" />
    <glyph glyph-name="uni043F" unicode="&#x43f;" horiz-adv-x="996" 
d="M254 0h-264l96 540h920l-96 -540h-264l61 342h-392z" />
    <glyph glyph-name="uni0440" unicode="&#x440;" horiz-adv-x="998" 
d="M496 540h322q196 0 162 -198l-28 -160q-17 -100 -65.5 -141t-148.5 -41h-330q-61 0 -91.5 7t-56.5 28l-34 -195h-264l124 700h224l7 -53q42 33 77 44q34 9 102 9zM697 230l14 80q4 22 -3 30t-29 8h-299q-34 0 -53 -16l-16 -13l-17 -98l11 -13q13 -16 49 -16h299
q22 0 31 8t13 30z" />
    <glyph glyph-name="uni0441" unicode="&#x441;" horiz-adv-x="960" 
d="M702 0h-520q-199 0 -164 200l28 160q16 99 65 140q46 40 147 40h520q197 0 164 -200l-7 -43h-254l2 13q3 22 -3.5 30t-28.5 8h-306q-22 0 -31 -8t-13 -30l-14 -80q-4 -22 3 -30t29 -8h306q22 0 31 8t13 30l3 17h254l-12 -67q-18 -101 -65 -140q-46 -40 -147 -40z" />
    <glyph glyph-name="uni0442" unicode="&#x442;" horiz-adv-x="900" 
d="M331 342h-308l35 198h880l-35 -198h-308l-61 -342h-264z" />
    <glyph glyph-name="uni0443" unicode="&#x443;" horiz-adv-x="998" 
d="M481 242l245 298h330l-494 -540q-88 -97 -154 -129q-65 -31 -186 -31h-248l34 192h233q25 0 39 5.5t28 20.5l-270 482h304z" />
    <glyph glyph-name="uni0444" unicode="&#x444;" horiz-adv-x="1346" 
d="M848 540h316q199 0 164 -200l-28 -160q-16 -98 -64 -140q-47 -40 -148 -40h-336l-28 -160h-254l28 160h-316q-199 0 -164 200l28 160q16 99 65 140q46 40 147 40h336l28 160h254zM316 174h213l34 192h-215q-22 0 -31 -8t-13 -30l-20 -116q-4 -22 3 -30t29 -8zM1042 212
l20 116q4 22 -3 30t-29 8h-213l-34 -192h215q22 0 31 8t13 30z" />
    <glyph glyph-name="uni0445" unicode="&#x445;" horiz-adv-x="980" 
d="M328 0h-386l356 276l-250 264h362l99 -117l133 117h386l-344 -264l258 -276h-362l-107 130z" />
    <glyph glyph-name="uni0446" unicode="&#x446;" horiz-adv-x="1078" 
d="M777 0h-786l95 540h264l-60 -342h392l60 342h264l-60 -342h109l-56 -318h-244z" />
    <glyph glyph-name="uni0447" unicode="&#x447;" horiz-adv-x="962" 
d="M68 540h264l-32 -178q-3 -19 2.5 -25.5t24.5 -6.5h344l37 210h264l-96 -540h-264l24 132h-466q-86 0 -123 44t-21 130z" />
    <glyph glyph-name="uni0448" unicode="&#x448;" horiz-adv-x="1408" 
d="M1322 0h-1332l96 540h264l-61 -342h270l61 342h264l-61 -342h270l61 342h264z" />
    <glyph glyph-name="uni0449" unicode="&#x449;" horiz-adv-x="1510" 
d="M1209 0h-1218l95 540h264l-60 -342h280l60 342h264l-60 -342h280l60 342h264l-60 -342h109l-56 -318h-244z" />
    <glyph glyph-name="uni044A" unicode="&#x44a;" horiz-adv-x="1114" 
d="M203 342h-180l35 198h444l-24 -132h470q170 0 140 -170l-15 -84q-15 -85 -56 -119.5t-125 -34.5h-750zM451 254l-16 -90h346q17 0 25 6.5t11 23.5l5 30q3 17 -2.5 23.5t-22.5 6.5h-346z" />
    <glyph glyph-name="uni044B" unicode="&#x44b;" horiz-adv-x="1314" 
d="M-10 0l96 540h264l-24 -132h470q170 0 140 -170l-15 -84q-15 -85 -56 -119.5t-125 -34.5h-750zM1224 0h-268l96 540h268zM645 254h-346l-16 -90h346q17 0 25 6.5t11 23.5l5 30q3 17 -2.5 23.5t-22.5 6.5z" />
    <glyph glyph-name="uni044C" unicode="&#x44c;" horiz-adv-x="962" 
d="M-10 0l96 540h264l-24 -132h470q170 0 140 -170l-15 -84q-15 -85 -56 -119.5t-125 -34.5h-750zM645 254h-346l-16 -90h346q17 0 25 6.5t11 23.5l5 30q3 17 -2.5 23.5t-22.5 6.5z" />
    <glyph glyph-name="uni044D" unicode="&#x44d;" horiz-adv-x="980" 
d="M258 540h540q199 0 164 -200l-28 -160q-16 -98 -64 -140q-47 -40 -148 -40h-540q-199 0 -164 200l8 47h254l-8 -43q-4 -22 3.5 -30t29.5 -8h326q22 0 30.5 8t12.5 30l3 15h-334l19 110h335l1 7q4 22 -3.5 30t-29.5 8h-326q-22 0 -30.5 -8t-12.5 -30l-7 -39h-254l11 63
q16 99 65 140q46 40 147 40z" />
    <glyph glyph-name="uni044E" unicode="&#x44e;" horiz-adv-x="1392" 
d="M660 540h550q199 0 164 -200l-28 -160q-16 -98 -64 -140q-47 -40 -148 -40h-550q-187 0 -167 176h-132l-31 -176h-264l96 540h264l-30 -166h131q18 92 65 129t144 37zM1091 230l14 80q4 22 -3 30t-29 8h-326q-22 0 -31 -8t-13 -30l-14 -80q-4 -22 3 -30t29 -8h326
q22 0 31 8t13 30z" />
    <glyph glyph-name="uni044F" unicode="&#x44f;" horiz-adv-x="980" 
d="M240 540h750l-96 -540h-264l28 156h-254l-144 -156h-302l169 178q-100 28 -76 162l8 46q15 85 56 119.5t125 34.5zM339 302h345l14 82h-347q-17 0 -24 -6.5t-10 -23.5l-4 -22q-3 -17 3 -23.5t23 -6.5z" />
    <glyph glyph-name="uni0451" unicode="&#x451;" horiz-adv-x="980" 
d="M326 700h210l-22 -130h-210zM596 700h210l-22 -130h-210zM260 540h540q99 0 139 -48.5t23 -149.5l-18 -104h-656l-4 -24q-4 -22 3 -30t29 -8h332q19 0 26 6.5t11 25.5l1 5h254l-10 -55q-16 -87 -58 -122.5t-128 -35.5h-564q-196 0 -162 198l28 160q17 100 65.5 141
t148.5 41zM310 360l-3 -16h402l3 16q4 22 -3 30t-29 8h-326q-22 0 -31 -8t-13 -30z" />
    <glyph glyph-name="uni0453" unicode="&#x453;" horiz-adv-x="840" 
d="M775 700l-182 -130h-238l122 130h298zM254 0h-264l96 540h792l-35 -198h-528z" />
    <glyph glyph-name="uni0455" unicode="&#x455;" horiz-adv-x="970" 
d="M7 140l8 44h254l-5 -28q-2 -13 1.5 -17.5t17.5 -4.5h348q14 0 19 4.5t6 17.5l2 15q2 13 -2 17.5t-17 5.5l-471 20q-63 2 -93.5 38t-20.5 98l11 64q21 126 149 126h622q61 0 92.5 -38.5t20.5 -101.5l-6 -36h-254l3 20q2 13 -1.5 17.5t-17.5 4.5h-324q-14 0 -19 -4.5
t-6 -17.5l-1 -9q-2 -13 2 -17.5t17 -5.5l471 -20q63 -2 93.5 -38t20.5 -98l-12 -70q-21 -126 -149 -126h-646q-62 0 -93 38.5t-20 101.5z" />
    <glyph glyph-name="uni0456" unicode="&#x456;" horiz-adv-x="352" 
d="M363 570h-268l23 130h268zM262 0h-268l96 540h268z" />
    <glyph glyph-name="uni0457" unicode="&#x457;" horiz-adv-x="352" 
d="M200 570h-210l22 130h210zM470 570h-210l22 130h210zM262 0h-268l96 540h268z" />
    <glyph glyph-name="uni0458" unicode="&#x458;" horiz-adv-x="452" 
d="M463 570h-268l23 130h268zM176 -160h-372l32 182h231q19 0 26.5 6.5t10.5 25.5l86 486h268l-96 -542q-16 -87 -58 -122.5t-128 -35.5z" />
    <glyph glyph-name="uni045C" unicode="&#x45c;" horiz-adv-x="1018" 
d="M566 700h298l-182 -130h-238zM640 540h428l-430 -270l342 -270h-404l-279 241l-43 -241h-264l96 540h264l-42 -238z" />
    <glyph glyph-name="uni045E" unicode="&#x45e;" horiz-adv-x="998" 
d="M772 570h-358q-78 0 -65 78l9 52h178l-3 -18q-4 -22 19 -22h110q21 0 25 22l3 18h178l-9 -56q-11 -74 -87 -74zM481 242l245 298h330l-494 -540q-88 -97 -154 -129q-65 -31 -186 -31h-248l34 192h233q25 0 39 5.5t28 20.5l-270 482h304z" />
    <glyph glyph-name="uni0498" unicode="&#x498;" horiz-adv-x="1110" 
d="M272 700h698q173 0 144 -176l-7 -42q-10 -60 -33.5 -90.5t-67.5 -40.5q80 -30 62 -145l-8 -50q-14 -86 -55.5 -121t-128.5 -35h-341l-9 -18h102q58 0 48 -58l-5 -30q-5 -30 -19.5 -42t-44.5 -12h-266l12 66h187q7 0 8 7l1 4q1 7 -6 7h-127l6 32l21 44h-285
q-174 0 -144 176l17 100h270l-10 -54q-4 -18 2.5 -25t25.5 -7h436q18 0 25 6.5t11 25.5l4 21q4 19 -2 25.5t-25 6.5h-387l28 158h379q17 0 24 6t12 26l3 13q4 18 -2.5 25t-25.5 7h-416q-18 0 -25 -6.5t-11 -25.5l-9 -46h-270l20 112q16 87 57 121.5t127 34.5z" />
    <glyph glyph-name="uni0499" unicode="&#x499;" horiz-adv-x="980" 
d="M208 540h648q136 0 110 -134l-6 -32q-8 -46 -26.5 -70t-51.5 -32q65 -23 49 -111l-7 -39q-12 -67 -45 -94.5t-99 -27.5h-310l-9 -18h102q58 0 48 -58l-5 -30q-5 -30 -19.5 -42t-44.5 -12h-266l12 66h187q7 0 8 7l1 4q1 7 -6 7h-127l6 32l21 44h-262q-133 0 -110 134
l14 81h254l-7 -42q-2 -14 2 -19t19 -5h352q14 0 20 5t9 19l3 16q3 15 -1.5 20t-19.5 5h-311l21 118h303q14 0 20 5t9 20l2 10q3 14 -1.5 19t-19.5 5h-337q-14 0 -20 -5t-8 -19l-6 -36h-254l15 87q11 66 44.5 94t99.5 28z" />
    <glyph glyph-name="uni04BB" unicode="&#x4bb;" horiz-adv-x="992" 
d="M506 540h300q200 0 164 -200l-60 -340h-264l54 304q4 22 -3 30t-29 8h-289q-34 0 -53 -16l-17 -14l-55 -312h-264l124 700h264l-36 -201q36 25 69 33q35 8 95 8z" />
    <glyph glyph-name="uni04C0" unicode="&#x4c0;" horiz-adv-x="372" 
d="M-4 0l124 700h284l-124 -700h-284z" />
    <glyph glyph-name="uni04C1" unicode="&#x4c1;" horiz-adv-x="1868" 
d="M1245 730h-358q-79 0 -65 78l9 52h178l-3 -18q-4 -22 19 -22h110q21 0 25 22l3 18h178l-9 -56q-11 -74 -87 -74zM1510 700h430l-512 -344l392 -356h-406l-330 326l-58 -326h-280l58 325l-422 -325h-430l520 356l-392 344h406l329 -308l55 308h280l-54 -305z" />
    <glyph glyph-name="uni04C2" unicode="&#x4c2;" horiz-adv-x="1696" 
d="M1131 570h-358q-79 0 -65 78l9 52h178l-3 -18q-4 -22 19 -22h110q21 0 25 22l3 18h178l-9 -56q-11 -74 -87 -74zM1318 540h428l-429 -270l341 -270h-404l-279 240l-43 -240h-264l42 234l-340 -234h-428l439 278l-335 262h404l271 -243l43 243h264l-42 -237z" />
    <glyph glyph-name="uni04D0" unicode="&#x4d0;" horiz-adv-x="1172" 
d="M897 730h-358q-79 0 -65 78l9 52h178l-3 -18q-4 -22 19 -22h110q21 0 25 22l3 18h178l-9 -56q-11 -74 -87 -74zM1134 0h-310l-41 104h-431l-78 -104h-332l562 700h316zM635 484l-149 -200h227z" />
    <glyph glyph-name="uni04D1" unicode="&#x4d1;" horiz-adv-x="984" 
d="M775 570h-358q-79 0 -65 78l9 52h178l-3 -18q-4 -22 19 -22h110q21 0 25 22l3 18h178l-9 -56q-11 -74 -87 -74zM260 540h540q198 0 163 -198l-61 -342h-224l-7 45q-41 -30 -72 -37q-37 -8 -101 -8h-379q-63 0 -93.5 37t-18.5 100l10 54q23 123 144 123h533l5 30
q4 22 -3 30t-29 8h-308q-19 0 -26 -6.5t-11 -25.5l-2 -11h-254l7 43q14 87 57 122.5t130 35.5zM298 138h308q30 0 46 16l16 14l7 40h-367q-16 0 -21.5 -5t-8.5 -21l-3 -18q-2 -16 2.5 -21t20.5 -5z" />
    <glyph glyph-name="uni04D2" unicode="&#x4d2;" horiz-adv-x="1172" 
d="M450 860h210l-22 -130h-210zM720 860h210l-22 -130h-210zM1134 0h-310l-41 104h-431l-78 -104h-332l562 700h316zM635 484l-149 -200h227z" />
    <glyph glyph-name="uni04D3" unicode="&#x4d3;" horiz-adv-x="984" 
d="M328 700h210l-22 -130h-210zM598 700h210l-22 -130h-210zM260 540h540q198 0 163 -198l-61 -342h-224l-7 45q-41 -30 -72 -37q-37 -8 -101 -8h-379q-63 0 -93.5 37t-18.5 100l10 54q23 123 144 123h533l5 30q4 22 -3 30t-29 8h-308q-19 0 -26 -6.5t-11 -25.5l-2 -11h-254
l7 43q14 87 57 122.5t130 35.5zM298 138h308q30 0 46 16l16 14l7 40h-367q-16 0 -21.5 -5t-8.5 -21l-3 -18q-2 -16 2.5 -21t20.5 -5z" />
    <glyph glyph-name="uni04D4" unicode="&#x4d4;" horiz-adv-x="1580" 
d="M1626 700l-35 -198h-681l28 -68h601l-28 -160h-508l31 -76h513l-35 -198h-708l-37 104h-415l-78 -104h-332l562 700h1122zM631 479l-145 -195h216z" />
    <glyph glyph-name="uni04D5" unicode="&#x4d5;" horiz-adv-x="1636" 
d="M966 540h490q196 0 162 -198l-18 -104h-656l-4 -24q-4 -22 3 -30t29 -8h332q19 0 26 6.5t11 25.5l1 5h254l-10 -55q-16 -87 -58 -122.5t-128 -35.5h-524q-92 0 -132 40q-34 -24 -69 -32q-37 -8 -97 -8h-459q-63 0 -93.5 37t-18.5 100l10 54q23 123 144 123h533l5 30
q4 22 -3 30t-29 8h-308q-19 0 -26 -6.5t-11 -25.5l-2 -11h-254l7 43q14 87 57 122.5t130 35.5h490q71 0 104 -34q40 34 112 34zM966 360l-3 -16h402l3 16q4 22 -3 30t-29 8h-326q-22 0 -31 -8t-13 -30zM652 154l16 14l7 40h-367q-16 0 -21.5 -5t-8.5 -21l-3 -18
q-2 -16 2.5 -21t20.5 -5h308q30 0 46 16z" />
    <glyph glyph-name="uni04D6" unicode="&#x4d6;" horiz-adv-x="1010" 
d="M816 730h-358q-78 0 -65 78l9 52h178l-3 -18q-4 -22 19 -22h110q21 0 25 22l3 18h178l-9 -56q-11 -74 -87 -74zM1056 700l-35 -198h-660l-12 -68h620l-28 -160h-620l-14 -76h670l-35 -198h-950l124 700h940z" />
    <glyph glyph-name="uni04D7" unicode="&#x4d7;" horiz-adv-x="980" 
d="M773 570h-358q-79 0 -65 78l9 52h178l-3 -18q-4 -22 19 -22h110q21 0 25 22l3 18h178l-9 -56q-11 -74 -87 -74zM260 540h540q99 0 139 -48.5t23 -149.5l-18 -104h-656l-4 -24q-4 -22 3 -30t29 -8h332q19 0 26 6.5t11 25.5l1 5h254l-10 -55q-16 -87 -58 -122.5t-128 -35.5
h-564q-196 0 -162 198l28 160q17 100 65.5 141t148.5 41zM310 360l-3 -16h402l3 16q4 22 -3 30t-29 8h-326q-22 0 -31 -8t-13 -30z" />
    <glyph glyph-name="uni04DC" unicode="&#x4dc;" horiz-adv-x="1868" 
d="M798 860h210l-22 -130h-210zM1068 860h210l-22 -130h-210zM1510 700h430l-512 -344l392 -356h-406l-330 326l-58 -326h-280l58 325l-422 -325h-430l520 356l-392 344h406l329 -308l55 308h280l-54 -305z" />
    <glyph glyph-name="uni04DD" unicode="&#x4dd;" horiz-adv-x="1696" 
d="M684 700h210l-22 -130h-210zM954 700h210l-22 -130h-210zM1318 540h428l-429 -270l341 -270h-404l-279 240l-43 -240h-264l42 234l-340 -234h-428l439 278l-335 262h404l271 -243l43 243h264l-42 -237z" />
    <glyph glyph-name="uni04DE" unicode="&#x4de;" horiz-adv-x="1110" 
d="M419 860h210l-22 -130h-210zM689 860h210l-22 -130h-210zM272 700h698q173 0 144 -176l-7 -42q-10 -60 -33.5 -90.5t-67.5 -40.5q80 -30 62 -145l-8 -50q-14 -86 -55.5 -121t-128.5 -35h-718q-174 0 -144 176l17 100h270l-10 -54q-4 -18 2.5 -25t25.5 -7h436q18 0 25 6.5
t11 25.5l4 21q4 19 -2 25.5t-25 6.5h-387l28 158h379q17 0 24 6t12 26l3 13q4 18 -2.5 25t-25.5 7h-416q-18 0 -25 -6.5t-11 -25.5l-9 -46h-270l20 112q16 87 57 121.5t127 34.5z" />
    <glyph glyph-name="uni04DF" unicode="&#x4df;" horiz-adv-x="980" 
d="M326 700h210l-22 -130h-210zM596 700h210l-22 -130h-210zM208 540h648q136 0 110 -134l-6 -32q-8 -46 -26.5 -70t-51.5 -32q65 -23 49 -111l-7 -39q-12 -67 -45 -94.5t-99 -27.5h-664q-133 0 -110 134l14 81h254l-7 -42q-2 -14 2 -19t19 -5h352q14 0 20 5t9 19l3 16
q3 15 -1.5 20t-19.5 5h-311l21 118h303q14 0 20 5t9 20l2 10q3 14 -1.5 19t-19.5 5h-337q-14 0 -20 -5t-8 -19l-6 -36h-254l15 87q11 66 44.5 94t99.5 28z" />
    <glyph glyph-name="uni04E2" unicode="&#x4e2;" horiz-adv-x="1140" 
d="M393 850h520l-20 -110h-520zM318 317l618 383h240l-124 -700h-270l69 390l-629 -390h-230l124 700h270z" />
    <glyph glyph-name="uni04E3" unicode="&#x4e3;" horiz-adv-x="1010" 
d="M300 690h520l-20 -110h-520zM291 263l505 277h224l-96 -540h-254l50 283l-516 -283h-214l96 540h254z" />
    <glyph glyph-name="uni04E4" unicode="&#x4e4;" horiz-adv-x="1140" 
d="M414 860h210l-22 -130h-210zM684 860h210l-22 -130h-210zM318 317l618 383h240l-124 -700h-270l69 390l-629 -390h-230l124 700h270z" />
    <glyph glyph-name="uni04E5" unicode="&#x4e5;" horiz-adv-x="1010" 
d="M321 700h210l-22 -130h-210zM591 700h210l-22 -130h-210zM291 263l505 277h224l-96 -540h-254l50 283l-516 -283h-214l96 540h254z" />
    <glyph glyph-name="uni04E6" unicode="&#x4e6;" horiz-adv-x="1134" 
d="M619 730h-210l22 130h210zM889 730h-210l22 130h210zM854 0h-650q-107 0 -153.5 56t-27.5 164l50 280q19 108 73.5 154t161.5 46h650q107 0 153.5 -56t27.5 -164l-50 -280q-19 -108 -73.5 -154t-161.5 -46zM350 220h418q26 0 37.5 9.5t15.5 35.5l30 168q4 26 -4.5 36.5
t-34.5 10.5h-418q-26 0 -37.5 -9.5t-15.5 -35.5l-30 -168q-4 -26 4.5 -36.5t34.5 -10.5z" />
    <glyph glyph-name="uni04E7" unicode="&#x4e7;" horiz-adv-x="990" 
d="M519 570h-210l22 130h210zM789 570h-210l22 130h210zM732 0h-550q-199 0 -164 200l28 160q16 99 65 140q46 40 147 40h550q199 0 164 -200l-28 -160q-16 -98 -64 -140q-47 -40 -148 -40zM319 192h326q22 0 31 8t13 30l14 80q4 22 -3 30t-29 8h-326q-22 0 -31 -8t-13 -30
l-14 -80q-4 -22 3 -30t29 -8z" />
    <glyph glyph-name="uni04EC" unicode="&#x4ec;" horiz-adv-x="1120" 
d="M424 860h210l-22 -130h-210zM694 860h210l-22 -130h-210zM306 700h640q107 0 153.5 -56t27.5 -164l-50 -280q-19 -108 -73.5 -154t-161.5 -46h-640q-107 0 -153.5 56.5t-27.5 163.5l16 92h270l-12 -70q-5 -26 3.5 -36t34.5 -10h418q26 0 38 10t16 36l5 30h-420l28 160
h420l5 26q5 26 -3.5 36t-34.5 10h-418q-26 0 -38 -10t-16 -36l-11 -64h-270l19 106q19 108 73.5 154t161.5 46z" />
    <glyph glyph-name="uni04ED" unicode="&#x4ed;" horiz-adv-x="980" 
d="M326 700h210l-22 -130h-210zM596 700h210l-22 -130h-210zM258 540h540q199 0 164 -200l-28 -160q-16 -98 -64 -140q-47 -40 -148 -40h-540q-199 0 -164 200l8 47h254l-8 -43q-4 -22 3.5 -30t29.5 -8h326q22 0 30.5 8t12.5 30l3 15h-334l19 110h335l1 7q4 22 -3.5 30
t-29.5 8h-326q-22 0 -30.5 -8t-12.5 -30l-7 -39h-254l11 63q16 99 65 140q46 40 147 40z" />
    <glyph glyph-name="uni04EE" unicode="&#x4ee;" horiz-adv-x="1116" 
d="M381 850h520l-20 -110h-520zM577 448l259 252h366l-765 -700h-365l307 278l-313 422h340z" />
    <glyph glyph-name="uni04EF" unicode="&#x4ef;" horiz-adv-x="998" 
d="M304 690h520l-20 -110h-520zM481 242l245 298h330l-494 -540q-88 -97 -154 -129q-65 -31 -186 -31h-248l34 192h233q25 0 39 5.5t28 20.5l-270 482h304z" />
    <glyph glyph-name="uni04F0" unicode="&#x4f0;" horiz-adv-x="1116" 
d="M402 860h210l-22 -130h-210zM672 860h210l-22 -130h-210zM577 448l259 252h366l-765 -700h-365l307 278l-313 422h340z" />
    <glyph glyph-name="uni04F1" unicode="&#x4f1;" horiz-adv-x="998" 
d="M325 700h210l-22 -130h-210zM595 700h210l-22 -130h-210zM481 242l245 298h330l-494 -540q-88 -97 -154 -129q-65 -31 -186 -31h-248l34 192h233q25 0 39 5.5t28 20.5l-270 482h304z" />
    <glyph glyph-name="uni04F2" unicode="&#x4f2;" horiz-adv-x="1116" 
d="M453 860h268l-142 -130h-218zM1021 860l-142 -130h-218l92 130h268zM577 448l259 252h366l-765 -700h-365l307 278l-313 422h340z" />
    <glyph glyph-name="uni04F3" unicode="&#x4f3;" horiz-adv-x="998" 
d="M376 700h268l-142 -130h-218zM944 700l-142 -130h-218l92 130h268zM481 242l245 298h330l-494 -540q-88 -97 -154 -129q-65 -31 -186 -31h-248l34 192h233q25 0 39 5.5t28 20.5l-270 482h304z" />
    <glyph glyph-name="uni04F4" unicode="&#x4f4;" horiz-adv-x="1100" 
d="M602 730h-210l22 130h210zM872 730h-210l22 130h210zM1012 0h-280l32 180h-560q-199 0 -164 200l56 320h280l-45 -252q-4 -22 3.5 -30t29.5 -8h441l51 290h280z" />
    <glyph glyph-name="uni04F5" unicode="&#x4f5;" horiz-adv-x="600" 
d="M304 570h-210l22 130h210zM574 570h-210l22 130h210zM68 540h264l-32 -178q-3 -19 2.5 -25.5t24.5 -6.5h344l37 210h264l-96 -540h-264l24 132h-466q-86 0 -123 44t-21 130z" />
    <glyph glyph-name="uni04F8" unicode="&#x4f8;" horiz-adv-x="1452" 
d="M1318 730h-210l22 130h210zM1588 730h-210l22 130h210zM-8 0l124 700h280l-32 -180h540q199 0 164 -200l-24 -140q-16 -98 -64 -140q-47 -40 -148 -40h-840zM1076 0l124 700h284l-124 -700h-284zM751 330h-421l-22 -130h423q22 0 30.5 8t12.5 30l10 54q4 22 -3.5 30
t-29.5 8z" />
    <glyph glyph-name="uni04F9" unicode="&#x4f9;" horiz-adv-x="1314" 
d="M1162 570h-210l22 130h210zM1432 570h-210l22 130h210zM-10 0l96 540h264l-24 -132h470q170 0 140 -170l-15 -84q-15 -85 -56 -119.5t-125 -34.5h-750zM1224 0h-268l96 540h268zM645 254h-346l-16 -90h346q17 0 25 6.5t11 23.5l5 30q3 17 -2.5 23.5t-22.5 6.5z" />
    <glyph glyph-name="Wgrave" unicode="&#x1e80;" horiz-adv-x="1550" 
d="M867 860l78 -130h-213l-138 130h273zM1072 299l246 401h318l-465 -700h-240l-138 398l-278 -398h-232l-217 700h296l104 -399l269 399h206z" />
    <glyph glyph-name="wgrave" unicode="&#x1e81;" horiz-adv-x="1362" 
d="M749 700l78 -130h-213l-138 130h273zM926 263l180 277h304l-393 -540h-226l-109 293l-211 -293h-222l-201 540h278l85 -277l202 277h206z" />
    <glyph glyph-name="Wacute" unicode="&#x1e82;" horiz-adv-x="1550" 
d="M840 860h298l-182 -130h-238zM1072 299l246 401h318l-465 -700h-240l-138 398l-278 -398h-232l-217 700h296l104 -399l269 399h206z" />
    <glyph glyph-name="wacute" unicode="&#x1e83;" horiz-adv-x="1362" 
d="M722 700h298l-182 -130h-238zM926 263l180 277h304l-393 -540h-226l-109 293l-211 -293h-222l-201 540h278l85 -277l202 277h206z" />
    <glyph glyph-name="Wdieresis" unicode="&#x1e84;" horiz-adv-x="1550" 
d="M619 860h210l-22 -130h-210zM889 860h210l-22 -130h-210zM1072 299l246 401h318l-465 -700h-240l-138 398l-278 -398h-232l-217 700h296l104 -399l269 399h206z" />
    <glyph glyph-name="wdieresis" unicode="&#x1e85;" horiz-adv-x="1362" 
d="M501 700h210l-22 -130h-210zM771 700h210l-22 -130h-210zM926 263l180 277h304l-393 -540h-226l-109 293l-211 -293h-222l-201 540h278l85 -277l202 277h206z" />
    <glyph glyph-name="uni1E9E" unicode="&#x1e9e;" horiz-adv-x="1134" 
d="M312 700h824l-20 -113l-275 -149h118q175 0 145 -176l-18 -106q-15 -86 -56.5 -121t-127.5 -35h-540l34 190h385q18 0 25 6.5t11 25.5l5 27q4 19 -2 25.5t-25 6.5h-363l23 131l152 78h-206q-26 0 -38 -10t-16 -36l-79 -444h-280l89 500q19 108 73.5 154t161.5 46z" />
    <glyph glyph-name="Ygrave" unicode="&#x1ef2;" horiz-adv-x="1116" 
d="M660 860l78 -130h-213l-138 130h273zM838 700h364l-507 -448l-45 -252h-280l45 252l-349 448h342l173 -238z" />
    <glyph glyph-name="ygrave" unicode="&#x1ef3;" horiz-adv-x="998" 
d="M573 700l78 -130h-213l-138 130h273zM481 242l245 298h330l-494 -540q-88 -97 -154 -129q-65 -31 -186 -31h-248l34 192h233q25 0 39 5.5t28 20.5l-270 482h304z" />
    <glyph glyph-name="endash" unicode="&#x2013;" horiz-adv-x="940" 
d="M26 246l36 208h880l-36 -208h-880z" />
    <glyph glyph-name="emdash" unicode="&#x2014;" horiz-adv-x="1220" 
d="M26 246l36 208h1160l-36 -208h-1160z" />
    <glyph glyph-name="quoteleft" unicode="&#x2018;" horiz-adv-x="380" 
d="M229 700h180l-102 -160h80l-42 -240h-300l15 86q10 55 25.5 93.5t47.5 84.5z" />
    <glyph glyph-name="quoteright" unicode="&#x2019;" horiz-adv-x="380" 
d="M232 300h-180l102 160h-80l42 240h300l-15 -86q-10 -55 -25.5 -93.5t-47.5 -84.5z" />
    <glyph glyph-name="quotesinglbase" unicode="&#x201a;" horiz-adv-x="380" 
d="M151 -160h-180l102 160h-80l42 240h300l-15 -86q-10 -55 -25.5 -93.5t-47.5 -84.5z" />
    <glyph glyph-name="quotedblleft" unicode="&#x201c;" horiz-adv-x="740" 
d="M229 700h180l-102 -160h80l-42 -240h-300l15 86q10 55 25.5 93.5t47.5 84.5zM589 700h180l-102 -160h80l-42 -240h-300l15 86q10 55 25.5 93.5t47.5 84.5z" />
    <glyph glyph-name="quotedblright" unicode="&#x201d;" horiz-adv-x="740" 
d="M232 300h-180l102 160h-80l42 240h300l-15 -86q-10 -55 -25.5 -93.5t-47.5 -84.5zM592 300h-180l102 160h-80l42 240h300l-15 -86q-10 -55 -25.5 -93.5t-47.5 -84.5z" />
    <glyph glyph-name="quotedblbase" unicode="&#x201e;" horiz-adv-x="740" 
d="M151 -160h-180l102 160h-80l42 240h300l-15 -86q-10 -55 -25.5 -93.5t-47.5 -84.5zM511 -160h-180l102 160h-80l42 240h300l-15 -86q-10 -55 -25.5 -93.5t-47.5 -84.5z" />
    <glyph glyph-name="dagger" unicode="&#x2020;" horiz-adv-x="626" 
d="M452 590h200l-24 -140h-200l-36 -200h-166l36 200h-200l24 140h200l20 110h166z" />
    <glyph glyph-name="daggerdbl" unicode="&#x2021;" horiz-adv-x="626" 
d="M655 600l-24 -134h-200l-16 -90h200l-24 -134h-199l-18 -100h-166l18 100h-201l24 134h200l16 90h-200l24 134h199l18 100h166l-18 -100h201z" />
    <glyph glyph-name="bullet" unicode="&#x2022;" horiz-adv-x="500" 
d="M327 140h-186q-59 0 -85.5 32t-15.5 91l32 186q10 60 40.5 85.5t90.5 25.5h186q122 0 101 -123l-32 -186q-10 -59 -41 -85t-90 -26z" />
    <glyph glyph-name="perthousand" unicode="&#x2030;" horiz-adv-x="1650" 
d="M542 510l-19 -110q-9 -54 -36.5 -77t-81.5 -23h-260q-108 0 -90 110l19 110q9 54 36.5 77t81.5 23h260q108 0 90 -110zM236 0h-164l846 620h164zM218 412h145q22 0 27 23l9 50q2 13 -2 18t-18 5h-145q-23 0 -27 -23l-9 -50q-5 -23 20 -23zM962 0h-260q-108 0 -90 110
l19 110q9 54 36.5 77t81.5 23h260q108 0 90 -110l-19 -110q-9 -54 -36.5 -77t-81.5 -23zM1472 0h-260q-108 0 -90 110l19 110q9 54 36.5 77t81.5 23h260q108 0 90 -110l-19 -110q-9 -54 -36.5 -77t-81.5 -23zM775 112h145q22 0 27 23l9 50q2 13 -2 18t-18 5h-145
q-23 0 -27 -23l-9 -50q-5 -23 20 -23zM1285 112h145q22 0 27 23l9 50q2 13 -2 18t-18 5h-145q-23 0 -27 -23l-9 -50q-5 -23 20 -23z" />
    <glyph glyph-name="guilsinglleft" unicode="&#x2039;" horiz-adv-x="680" 
d="M69 434l630 170l-35 -196l-273 -59l250 -69l-32 -184l-566 190z" />
    <glyph glyph-name="guilsinglright" unicode="&#x203a;" horiz-adv-x="680" 
d="M67 420l32 184l566 -190l-26 -148l-630 -170l35 196l273 59z" />
    <glyph glyph-name="fraction" unicode="&#x2044;" horiz-adv-x="340" 
d="M-138 0h-160l803 700h160z" />
    <glyph glyph-name="Euro" unicode="&#x20ac;" horiz-adv-x="1072" 
d="M362 700h530q107 0 153.5 -56.5t27.5 -163.5l-15 -86h-260l12 68q4 26 -4.5 36t-35.5 10h-328q-26 0 -36.5 -9.5t-15.5 -36.5h354l-17 -94h-354l-6 -36h354l-17 -94h-354q-4 -26 4.5 -36t35.5 -10h328q26 0 36.5 9.5t15.5 36.5l13 74h260l-20 -112q-19 -108 -73.5 -154
t-161.5 -46h-530q-107 0 -153.5 56t-27.5 164l3 18h-86l17 94h86l6 36h-86l17 94h86l7 38q19 108 73.5 154t161.5 46z" />
    <glyph glyph-name="trademark" unicode="&#x2122;" horiz-adv-x="782" 
d="M429 700l-14 -77h-120l-28 -156h-93l28 156h-120l14 77h333zM617 580l137 120h84l-42 -233h-90l21 116l-96 -84h-50l-67 85l-21 -117h-89l42 233h77z" />
    <glyph glyph-name="minus" unicode="&#x2212;" 
d="M46 246l36 208h932l-36 -208h-932z" />
    <glyph glyph-name="approxequal" unicode="&#x2248;" 
d="M576 636l178 -116q8 -5 16 -5h26q10 0 11 9l26 150h220l-37 -208q-10 -54 -36.5 -77t-80.5 -23h-198q-55 0 -89 8q-33 8 -68 31l-178 115q-8 5 -16 5h-26q-10 0 -11 -9l-26 -150h-220l37 208q10 54 36.5 77t80.5 23h198q61 0 90 -7q32 -8 67 -31zM516 296l178 -116
q8 -5 16 -5h26q10 0 11 9l26 150h220l-37 -208q-10 -54 -36.5 -77t-80.5 -23h-198q-55 0 -89 8q-33 8 -68 31l-178 115q-8 5 -16 5h-26q-10 0 -11 -9l-26 -150h-220l37 208q10 54 36.5 77t80.5 23h198q61 0 90 -7q32 -8 67 -31z" />
    <glyph glyph-name="notequal" unicode="&#x2260;" 
d="M1037 584l-35 -198h-339l-50 -72h377l-35 -198h-479l-66 -96h-216l66 96h-237l35 198h339l50 72h-377l35 198h479l66 96h216l-66 -96h237z" />
    <glyph glyph-name="lessequal" unicode="&#x2264;" 
d="M100 550l958 150l-38 -214l-451 -38l436 -48l-35 -198l-902 170zM934 0h-932l32 178h932z" />
    <glyph glyph-name="greaterequal" unicode="&#x2265;" 
d="M91 502l35 198l902 -170l-32 -178l-958 -150l38 214l451 38zM934 0h-932l32 178h932z" />
    <glyph glyph-name="fi" unicode="&#xfb01;" horiz-adv-x="1154" 
d="M499 472h329l-34 -188h-328l-50 -284h-264l50 284h-190l34 188h190l12 70q16 87 58 122.5t128 35.5h434l-31 -176h-298q-19 0 -26 -6.5t-10 -25.5zM897 570l23 130h268l-23 -130h-268zM1064 0h-268l96 540h268z" />
    <glyph glyph-name="fl" unicode="&#xfb02;" horiz-adv-x="1154" 
d="M499 472h329l-34 -188h-328l-50 -284h-264l50 284h-190l34 188h190l12 70q16 87 58 122.5t128 35.5h434l-31 -176h-298q-19 0 -26 -6.5t-10 -25.5zM796 0l124 700h268l-124 -700h-268z" />
    <glyph glyph-name="null" horiz-adv-x="0" 
 />
    <glyph glyph-name="A.ss01" horiz-adv-x="1122" 
d="M312 700h630q107 0 153.5 -56t27.5 -164l-85 -480h-280l25 140h-490l-25 -140h-280l89 500q19 108 73.5 154t161.5 46zM345 435l-17 -95h490l17 93q4 26 -4.5 36.5t-34.5 10.5h-398q-26 0 -37.5 -9.5t-15.5 -35.5z" />
    <glyph glyph-name="Aacute.ss01" horiz-adv-x="1122" 
d="M646 860h298l-182 -130h-238zM312 700h630q107 0 153.5 -56t27.5 -164l-85 -480h-280l25 140h-490l-25 -140h-280l89 500q19 108 73.5 154t161.5 46zM345 435l-17 -95h490l17 93q4 26 -4.5 36.5t-34.5 10.5h-398q-26 0 -37.5 -9.5t-15.5 -35.5z" />
    <glyph glyph-name="Abreve.ss01" horiz-adv-x="1122" 
d="M823 730h-358q-79 0 -65 78l9 52h178l-3 -18q-4 -22 19 -22h110q21 0 25 22l3 18h178l-9 -56q-11 -74 -87 -74zM312 700h630q107 0 153.5 -56t27.5 -164l-85 -480h-280l25 140h-490l-25 -140h-280l89 500q19 108 73.5 154t161.5 46zM345 435l-17 -95h490l17 93
q4 26 -4.5 36.5t-34.5 10.5h-398q-26 0 -37.5 -9.5t-15.5 -35.5z" />
    <glyph glyph-name="Acircumflex.ss01" horiz-adv-x="1122" 
d="M737 730l-80 42l-94 -42h-196l162 130h270l118 -130h-180zM312 700h630q107 0 153.5 -56t27.5 -164l-85 -480h-280l25 140h-490l-25 -140h-280l89 500q19 108 73.5 154t161.5 46zM345 435l-17 -95h490l17 93q4 26 -4.5 36.5t-34.5 10.5h-398q-26 0 -37.5 -9.5
t-15.5 -35.5z" />
    <glyph glyph-name="Adieresis.ss01" horiz-adv-x="1122" 
d="M425 860h210l-22 -130h-210zM695 860h210l-22 -130h-210zM312 700h630q107 0 153.5 -56t27.5 -164l-85 -480h-280l25 140h-490l-25 -140h-280l89 500q19 108 73.5 154t161.5 46zM345 435l-17 -95h490l17 93q4 26 -4.5 36.5t-34.5 10.5h-398q-26 0 -37.5 -9.5t-15.5 -35.5
z" />
    <glyph glyph-name="Agrave.ss01" horiz-adv-x="1122" 
d="M673 860l78 -130h-213l-138 130h273zM312 700h630q107 0 153.5 -56t27.5 -164l-85 -480h-280l25 140h-490l-25 -140h-280l89 500q19 108 73.5 154t161.5 46zM345 435l-17 -95h490l17 93q4 26 -4.5 36.5t-34.5 10.5h-398q-26 0 -37.5 -9.5t-15.5 -35.5z" />
    <glyph glyph-name="Amacron.ss01" horiz-adv-x="1122" 
d="M404 850h520l-20 -110h-520zM312 700h630q107 0 153.5 -56t27.5 -164l-85 -480h-280l25 140h-490l-25 -140h-280l89 500q19 108 73.5 154t161.5 46zM345 435l-17 -95h490l17 93q4 26 -4.5 36.5t-34.5 10.5h-398q-26 0 -37.5 -9.5t-15.5 -35.5z" />
    <glyph glyph-name="Aogonek.ss01" horiz-adv-x="1122" 
d="M312 700h630q107 0 153.5 -56t27.5 -164l-85 -480h-211l-2 -2q-11 -11 -11 -17v-4q0 -13 10 -13h208l-22 -124h-291q-43 0 -60 21.5t-12 66.5l2 16q4 32 17.5 53t45.5 44l61 44l10 55h-490l-25 -140h-280l89 500q19 108 73.5 154t161.5 46zM345 435l-17 -95h490l17 93
q4 26 -4.5 36.5t-34.5 10.5h-398q-26 0 -37.5 -9.5t-15.5 -35.5z" />
    <glyph glyph-name="Aring.ss01" horiz-adv-x="1122" 
d="M777 720h-268q-58 0 -48 58l5 28q5 30 19 42t44 12h268q58 0 48 -58l-5 -28q-5 -30 -19 -42t-44 -12zM554 795l-2 -10q-2 -11 0.5 -14t12.5 -3h168q10 0 13.5 3t5.5 14l2 10q2 11 -0.5 14t-12.5 3h-168q-10 0 -13.5 -3t-5.5 -14zM312 700h630q107 0 153.5 -56t27.5 -164
l-85 -480h-280l25 140h-490l-25 -140h-280l89 500q19 108 73.5 154t161.5 46zM345 435l-17 -95h490l17 93q4 26 -4.5 36.5t-34.5 10.5h-398q-26 0 -37.5 -9.5t-15.5 -35.5z" />
    <glyph glyph-name="Aringacute.ss01" horiz-adv-x="1122" 
d="M829 700h113q107 0 153.5 -56t27.5 -164l-85 -480h-280l25 140h-490l-25 -140h-280l89 500q19 108 73.5 154t161.5 46h139l2 18l5 28q5 30 19 42t44 12h50l47 60h268l-79 -62q39 -7 30 -56l-5 -28zM546 735l-2 -10q-2 -11 0.5 -14t12.5 -3h168q10 0 13.5 3t5.5 14l2 10
q2 11 -0.5 14t-12.5 3h-168q-10 0 -13.5 -3t-5.5 -14zM345 435l-17 -95h490l17 93q4 26 -4.5 36.5t-34.5 10.5h-398q-26 0 -37.5 -9.5t-15.5 -35.5z" />
    <glyph glyph-name="Atilde.ss01" horiz-adv-x="1122" 
d="M550 780l-8 -50h-149l14 82q9 48 57 48h205q23 0 34 -5.5t21 -22.5l13 -23q3 -4 8 -4h7q4 0 6 5l8 50h149l-14 -82q-9 -48 -57 -48h-205q-23 0 -34 5.5t-21 22.5l-13 23q-3 4 -8 4h-7q-4 0 -6 -5zM312 700h630q107 0 153.5 -56t27.5 -164l-85 -480h-280l25 140h-490
l-25 -140h-280l89 500q19 108 73.5 154t161.5 46zM345 435l-17 -95h490l17 93q4 26 -4.5 36.5t-34.5 10.5h-398q-26 0 -37.5 -9.5t-15.5 -35.5z" />
    <glyph glyph-name="I.ss01" horiz-adv-x="804" 
d="M861 700l-36 -200h-240l-52 -300h240l-36 -200h-764l36 200h240l52 300h-240l36 200h764z" />
    <glyph glyph-name="Iacute.ss01" horiz-adv-x="804" 
d="M487 860h298l-182 -130h-238zM861 700l-36 -200h-240l-52 -300h240l-36 -200h-764l36 200h240l52 300h-240l36 200h764z" />
    <glyph glyph-name="Icircumflex.ss01" horiz-adv-x="804" 
d="M578 730l-80 42l-94 -42h-196l162 130h270l118 -130h-180zM861 700l-36 -200h-240l-52 -300h240l-36 -200h-764l36 200h240l52 300h-240l36 200h764z" />
    <glyph glyph-name="Idieresis.ss01" horiz-adv-x="804" 
d="M266 860h210l-22 -130h-210zM536 860h210l-22 -130h-210zM861 700l-36 -200h-240l-52 -300h240l-36 -200h-764l36 200h240l52 300h-240l36 200h764z" />
    <glyph glyph-name="Idotaccent.ss01" horiz-adv-x="804" 
d="M372 860h268l-22 -130h-268zM861 700l-36 -200h-240l-52 -300h240l-36 -200h-764l36 200h240l52 300h-240l36 200h764z" />
    <glyph glyph-name="Igrave.ss01" horiz-adv-x="804" 
d="M514 860l78 -130h-213l-138 130h273zM861 700l-36 -200h-240l-52 -300h240l-36 -200h-764l36 200h240l52 300h-240l36 200h764z" />
    <glyph glyph-name="Imacron.ss01" horiz-adv-x="804" 
d="M245 850h520l-20 -110h-520zM861 700l-36 -200h-240l-52 -300h240l-36 -200h-764l36 200h240l52 300h-240l36 200h764z" />
    <glyph glyph-name="Iogonek.ss01" horiz-adv-x="804" 
d="M861 700l-36 -200h-240l-52 -300h240l-36 -200h-211l-2 -2q-11 -11 -11 -17v-4q0 -13 10 -13h208l-22 -124h-291q-43 0 -60 21.5t-12 66.5l2 16q4 33 19 56h-394l36 200h240l52 300h-240l36 200h764z" />
    <glyph glyph-name="Itilde.ss01" horiz-adv-x="804" 
d="M391 780l-8 -50h-149l14 82q9 48 57 48h205q24 0 34.5 -5.5t20.5 -22.5l13 -23q3 -4 8 -4h7q4 0 6 5l8 50h149l-14 -82q-9 -48 -57 -48h-205q-24 0 -34.5 5.5t-20.5 22.5l-13 23q-3 4 -8 4h-7q-4 0 -6 -5zM861 700l-36 -200h-240l-52 -300h240l-36 -200h-764l36 200h240
l52 300h-240l36 200h764z" />
    <glyph glyph-name="R.ss01" horiz-adv-x="1096" 
d="M116 700h848q84 0 120.5 -44t21.5 -130l-20 -116q-17 -102 -84 -127q54 -37 38 -131l-27 -152h-280l30 168q4 22 -3.5 30t-29.5 8h-421l-37 -206h-280zM784 510h-421l-21 -120h423q22 0 31 8t13 30l8 44q4 22 -3.5 30t-29.5 8z" />
    <glyph glyph-name="Racute.ss01" horiz-adv-x="1096" 
d="M633 860h298l-182 -130h-238zM116 700h848q84 0 120.5 -44t21.5 -130l-20 -116q-17 -102 -84 -127q54 -37 38 -131l-27 -152h-280l30 168q4 22 -3.5 30t-29.5 8h-421l-37 -206h-280zM784 510h-421l-21 -120h423q22 0 31 8t13 30l8 44q4 22 -3.5 30t-29.5 8z" />
    <glyph glyph-name="Rcaron.ss01" horiz-adv-x="1096" 
d="M927 860l-162 -130h-270l-118 130h180l80 -42l94 42h196zM116 700h848q84 0 120.5 -44t21.5 -130l-20 -116q-17 -102 -84 -127q54 -37 38 -131l-27 -152h-280l30 168q4 22 -3.5 30t-29.5 8h-421l-37 -206h-280zM784 510h-421l-21 -120h423q22 0 31 8t13 30l8 44
q4 22 -3.5 30t-29.5 8z" />
    <glyph glyph-name="Rcommaaccent.ss01" horiz-adv-x="1096" 
d="M116 700h848q84 0 120.5 -44t21.5 -130l-20 -116q-17 -102 -84 -127q54 -37 38 -131l-27 -152h-280l30 168q4 22 -3.5 30t-29.5 8h-421l-37 -206h-280zM784 510h-421l-21 -120h423q22 0 31 8t13 30l8 44q4 22 -3.5 30t-29.5 8zM441 -150h-86l21 120h240l-6 -36
q-7 -43 -19 -65q-12 -23 -49 -61l-54 -58h-132z" />
    <glyph glyph-name="i.loclTRK" horiz-adv-x="352" 
d="M364 570h-268l22 130h268zM262 0h-268l96 540h268z" />
    <glyph glyph-name="uni0410.ss01" horiz-adv-x="1122" 
d="M312 700h630q107 0 153.5 -56t27.5 -164l-85 -480h-280l25 140h-490l-25 -140h-280l89 500q19 108 73.5 154t161.5 46zM345 435l-17 -95h490l17 93q4 26 -4.5 36.5t-34.5 10.5h-398q-26 0 -37.5 -9.5t-15.5 -35.5z" />
    <glyph glyph-name="uni042F.ss01" horiz-adv-x="1096" 
d="M278 700h854l-124 -700h-280l37 206h-422q-22 0 -31.5 -8t-13.5 -30l-30 -168h-280l28 160q21 112 107 138q-79 25 -58 138l17 98q15 86 62.5 126t133.5 40zM352 472l-8 -44q-4 -22 2.5 -30t28.5 -8h422l21 120h-422q-22 0 -31 -8t-13 -30z" />
    <glyph glyph-name="uni044F.ss01" horiz-adv-x="972" 
d="M200 540h782l-96 -540h-264l28 156h-361q-15 0 -21 -5t-9 -20l-23 -131h-254l25 137q8 47 27.5 71t55.5 31q-60 24 -45 111l12 68q12 67 44.5 94.5t98.5 27.5zM310 360l-6 -33q-2 -14 2.5 -19.5t18.5 -5.5h351l14 82h-351q-14 0 -20.5 -5t-8.5 -19z" />
    <glyph glyph-name="zero.tf" 
d="M748 0h-540q-107 0 -153.5 56t-27.5 164l50 280q19 108 73.5 154t161.5 46h540q107 0 153.5 -56t27.5 -164l-50 -280q-19 -108 -73.5 -154t-161.5 -46zM344 212h328q26 0 36.5 9.5t15.5 36.5l32 184q4 26 -4.5 36t-35.5 10h-328q-26 0 -36.5 -9.5t-15.5 -36.5l-32 -184
q-4 -26 4.5 -36t35.5 -10z" />
    <glyph glyph-name="one.tf" 
d="M754 700l-89 -500h325l-36 -200h-972l36 200h375l50 281l-350 -21l37 210l496 30h128z" />
    <glyph glyph-name="two.tf" 
d="M972 200l-36 -200h-948l43 250q14 84 55.5 120t130.5 41l507 29q18 1 25 7t12 25l4 16q4 18 -2.5 25t-25.5 7h-352q-18 0 -25 -6.5t-11 -25.5l-6 -30h-260l14 86q14 86 56 121t129 35h614q174 0 145 -176l-15 -92q-13 -84 -54.5 -120t-131.5 -41l-508 -29
q-18 -1 -25 -7.5t-11 -24.5l-2 -10h678z" />
    <glyph glyph-name="three.tf" 
d="M276 700h612q173 0 144 -176l-7 -42q-10 -60 -33.5 -90.5t-67.5 -40.5q80 -30 62 -145l-8 -50q-14 -86 -55.5 -121t-128.5 -35h-632q-173 0 -144 176l15 90h260l-8 -46q-3 -19 2.5 -25.5t24.5 -6.5h370q19 0 26.5 6.5t10.5 25.5l4 24q3 19 -2.5 25.5t-24.5 6.5h-333
l27 156h325q19 0 26 6.5t11 25.5l3 16q4 19 -2 25.5t-25 6.5h-350q-19 0 -26 -6.5t-11 -25.5l-7 -38h-260l18 102q15 86 56.5 121t127.5 35z" />
    <glyph glyph-name="four.tf" 
d="M856 302h172l-34 -188h-171l-20 -114h-270l20 114h-571l28 158l597 428h320zM623 507l-286 -205h250z" />
    <glyph glyph-name="five.tf" 
d="M792 0h-800l36 200h655q19 0 26 6.5t10 25.5l1 6q3 19 -2.5 25.5t-24.5 6.5h-653l76 430h926l-36 -200h-656l-8 -50h510q174 0 144 -176l-20 -118q-15 -86 -56.5 -121t-127.5 -35z" />
    <glyph glyph-name="six.tf" 
d="M1006 500h-615q-26 0 -37 -9.5t-16 -36.5l-7 -41q31 31 108 31h412q174 0 144 -176l-19 -112q-15 -86 -56.5 -121t-127.5 -35h-628q-174 0 -144 176l57 324q19 108 73.5 154t161.5 46h730zM695 282h-356q-19 0 -26 -6.5t-11 -25.5l-6 -34q-3 -19 3 -25.5t25 -6.5h356
q19 0 26 6.5t10 25.5l6 34q3 19 -2.5 25.5t-24.5 6.5z" />
    <glyph glyph-name="seven.tf" 
d="M67 480l39 220h972l-34 -190l-389 -239q-33 -21 -49 -45.5t-24 -67.5l-28 -158h-276l29 162q19 104 51 156q31 51 109 92l132 70h-532z" />
    <glyph glyph-name="eight.tf" 
d="M276 700h612q173 0 144 -176l-7 -42q-10 -60 -33.5 -90.5t-67.5 -40.5q80 -30 62 -145l-8 -50q-14 -86 -55.5 -121t-128.5 -35h-632q-173 0 -144 176l8 50q10 63 36.5 94t78.5 39q-74 33 -56 143l7 42q14 86 55.5 121t128.5 35zM352 484l-5 -26q-4 -19 2 -25.5t25 -6.5
h340q19 0 26 6.5t11 25.5l5 26q4 18 -2.5 25t-25.5 7h-340q-18 0 -25 -6.5t-11 -25.5zM718 216l6 34q3 19 -2.5 25.5t-24.5 6.5h-360q-19 0 -26.5 -6.5t-10.5 -25.5l-6 -34q-3 -19 3 -25.5t25 -6.5h360q19 0 26 6.5t10 25.5z" />
    <glyph glyph-name="nine.tf" 
d="M268 700h629q174 0 144 -176l-57 -324q-19 -108 -73.5 -154t-161.5 -46h-731l35 196h615q26 0 38 10t16 36l7 39q-34 -31 -108 -31h-413q-174 0 -144 176l20 118q15 86 56.5 121t127.5 35zM364 412h357q18 0 25.5 6.5t11.5 23.5l6 36q3 19 -3 25.5t-25 6.5h-357
q-19 0 -26 -6.5t-10 -25.5l-6 -34q-3 -19 2.5 -25.5t24.5 -6.5z" />
    <glyph glyph-name="zero.subs" horiz-adv-x="638" 
d="M423 -100h-327q-65 0 -92.5 34t-16.5 98l29 167q11 65 44.5 93t97.5 28h327q133 0 109 -133l-30 -166q-12 -65 -44.5 -93t-96.5 -28zM183 30h189q15 0 21.5 6t8.5 21l18 107q2 15 -3 20.5t-19 5.5h-189q-15 0 -21.5 -6t-8.5 -21l-18 -107q-2 -15 3 -20.5t19 -5.5z" />
    <glyph glyph-name="one.subs" horiz-adv-x="600" 
d="M397 320l-53 -297h194l-22 -123h-562l22 123h200l29 162l-185 -12l23 129l267 18h87z" />
    <glyph glyph-name="two.subs" horiz-adv-x="638" 
d="M559 23l-22 -123h-573l26 150q9 51 34 73t78 25l303 16q17 2 20 18l2 13q3 16 -15 16h-205q-11 0 -14.5 -3t-5.5 -15l-4 -20h-162l8 53q8 51 33.5 72.5t77.5 21.5h371q107 0 88 -108l-9 -50q-9 -51 -34.5 -72.5t-78.5 -24.5l-302 -16q-16 -1 -19 -19l-1 -7h404z" />
    <glyph glyph-name="three.subs" horiz-adv-x="636" 
d="M137 320h370q105 0 87 -105l-4 -24q-11 -69 -62 -80q51 -17 39 -87l-5 -29q-9 -52 -35 -73.5t-78 -21.5h-382q-103 0 -86 105l9 56h162l-4 -27q-1 -12 1.5 -15t13.5 -3h216q12 0 16 3.5t5 14.5l2 14q2 11 -1 14.5t-15 3.5h-195l17 92h191q11 0 15 3.5t5 14.5l1 10
q2 11 -1 14.5t-14 3.5h-204q-11 0 -15 -3.5t-6 -14.5l-4 -22h-162l11 61q10 52 35 73.5t77 21.5z" />
    <glyph glyph-name="four.subs" horiz-adv-x="654" 
d="M492 82h110l-20 -115h-110l-12 -67h-164l12 67h-342l17 97l356 256h195zM348 198l-166 -116h146z" />
    <glyph glyph-name="five.subs" horiz-adv-x="619" 
d="M430 -100h-465l22 123h373q12 0 16 2.5t5 12.5l1 8q2 10 -1.5 13t-14.5 3h-373l46 258h541l-22 -123h-373l-4 -28h285q105 0 87 -106l-12 -69q-9 -52 -34 -73t-77 -21z" />
    <glyph glyph-name="six.subs" horiz-adv-x="638" 
d="M577 197h-368q-15 0 -21 -5.5t-9 -20.5l-4 -22q19 18 64 18h244q106 0 88 -106l-11 -67q-9 -52 -34.5 -73t-77.5 -21h-379q-105 0 -87 106l34 193q11 65 44 93t98 28h441zM386 68h-207q-17 0 -21 -15l-4 -22q-1 -10 2 -14t14 -4h207q20 0 21 18l3 18q2 11 -1 15t-14 4z
" />
    <glyph glyph-name="seven.subs" horiz-adv-x="613" 
d="M28 320h574l-21 -117h1l-233 -147q-29 -18 -36 -60l-17 -96h-172l19 110q10 58 29 88q16 26 62 52l62 35h-292z" />
    <glyph glyph-name="eight.subs" horiz-adv-x="636" 
d="M137 320h369q103 0 87 -106l-4 -25q-10 -67 -62 -78q51 -19 39 -88l-5 -29q-9 -53 -34 -73.5t-77 -20.5h-382q-105 0 -87 107l5 28q7 39 23 57.5t47 22.5q-46 19 -35 86l4 25q8 53 33 73.5t79 20.5zM187 190l-3 -16q-4 -18 16 -18h196q11 0 15.5 3.5t6.5 14.5l3 15
q4 18 -16 18h-198q-16 0 -20 -17zM399 30l4 21q3 17 -15 17h-211q-20 0 -21 -18l-3 -19q-1 -10 2 -14t14 -4h209q11 0 15 3.5t6 13.5z" />
    <glyph glyph-name="nine.subs" horiz-adv-x="638" 
d="M132 320h379q106 0 88 -106l-34 -193q-11 -65 -44 -93t-98 -28h-441l21 121h368q15 0 22 5.5t9 19.5l4 22q-19 -19 -65 -19h-245q-105 0 -87 107l12 70q9 52 34 73t77 21zM195 149h207q16 0 20 13l4 23q1 10 -2 14t-14 4h-207q-20 0 -21 -18l-3 -18q-1 -10 2 -14t14 -4z
" />
    <glyph glyph-name="zero.dnom" horiz-adv-x="638" 
d="M441 0h-327q-65 0 -92.5 34t-16.5 98l29 167q11 65 44.5 93t97.5 28h327q133 0 109 -133l-30 -166q-12 -65 -44.5 -93t-96.5 -28zM201 130h189q15 0 21.5 6t8.5 21l18 107q2 15 -3 20.5t-19 5.5h-189q-15 0 -21.5 -6t-8.5 -21l-18 -107q-2 -15 3 -20.5t19 -5.5z" />
    <glyph glyph-name="one.dnom" horiz-adv-x="600" 
d="M415 420l-53 -297h194l-22 -123h-562l22 123h200l29 162l-185 -12l23 129l267 18h87z" />
    <glyph glyph-name="two.dnom" horiz-adv-x="638" 
d="M577 123l-22 -123h-573l26 150q9 51 34 73t78 25l303 16q17 2 20 18l2 13q3 16 -15 16h-205q-11 0 -14.5 -3t-5.5 -15l-4 -20h-162l8 53q8 51 33.5 72.5t77.5 21.5h371q107 0 88 -108l-9 -50q-9 -51 -34.5 -72.5t-78.5 -24.5l-302 -16q-16 -1 -19 -19l-1 -7h404z" />
    <glyph glyph-name="three.dnom" horiz-adv-x="636" 
d="M155 420h370q105 0 87 -105l-4 -24q-11 -69 -62 -80q51 -17 39 -87l-5 -29q-9 -52 -35 -73.5t-78 -21.5h-382q-103 0 -86 105l9 56h162l-4 -27q-1 -12 1.5 -15t13.5 -3h216q12 0 16 3.5t5 14.5l2 14q2 11 -1 14.5t-15 3.5h-195l17 92h191q11 0 15 3.5t5 14.5l1 10
q2 11 -1 14.5t-14 3.5h-204q-11 0 -15 -3.5t-6 -14.5l-4 -22h-162l11 61q10 52 35 73.5t77 21.5z" />
    <glyph glyph-name="four.dnom" horiz-adv-x="654" 
d="M510 182h110l-20 -115h-110l-12 -67h-164l12 67h-342l17 97l356 256h195zM366 298l-166 -116h146z" />
    <glyph glyph-name="five.dnom" horiz-adv-x="619" 
d="M448 0h-465l22 123h373q12 0 16 2.5t5 12.5l1 8q2 10 -1.5 13t-14.5 3h-373l46 258h541l-22 -123h-373l-4 -28h285q105 0 87 -106l-12 -69q-9 -52 -34 -73t-77 -21z" />
    <glyph glyph-name="six.dnom" horiz-adv-x="638" 
d="M595 297h-368q-15 0 -21 -5.5t-9 -20.5l-4 -22q19 18 64 18h244q106 0 88 -106l-11 -67q-9 -52 -34.5 -73t-77.5 -21h-379q-105 0 -87 106l34 193q11 65 44 93t98 28h441zM404 168h-207q-17 0 -21 -15l-4 -22q-1 -10 2 -14t14 -4h207q20 0 21 18l3 18q2 11 -1 15t-14 4z
" />
    <glyph glyph-name="seven.dnom" horiz-adv-x="613" 
d="M46 420h574l-21 -117h1l-233 -147q-29 -18 -36 -60l-17 -96h-172l19 110q10 58 29 88q16 26 62 52l62 35h-292z" />
    <glyph glyph-name="eight.dnom" horiz-adv-x="636" 
d="M155 420h369q103 0 87 -106l-4 -25q-10 -67 -62 -78q51 -19 39 -88l-5 -29q-9 -53 -34 -73.5t-77 -20.5h-382q-105 0 -87 107l5 28q7 39 23 57.5t47 22.5q-46 19 -35 86l4 25q8 53 33 73.5t79 20.5zM205 290l-3 -16q-4 -18 16 -18h196q11 0 15.5 3.5t6.5 14.5l3 15
q4 18 -16 18h-198q-16 0 -20 -17zM417 130l4 21q3 17 -15 17h-211q-20 0 -21 -18l-3 -19q-1 -10 2 -14t14 -4h209q11 0 15 3.5t6 13.5z" />
    <glyph glyph-name="nine.dnom" horiz-adv-x="638" 
d="M150 420h379q106 0 88 -106l-34 -193q-11 -65 -44 -93t-98 -28h-441l21 121h368q15 0 22 5.5t9 19.5l4 22q-19 -19 -65 -19h-245q-105 0 -87 107l12 70q9 52 34 73t77 21zM213 249h207q16 0 20 13l4 23q1 10 -2 14t-14 4h-207q-20 0 -21 -18l-3 -18q-1 -10 2 -14t14 -4z
" />
    <glyph glyph-name="zero.numr" horiz-adv-x="638" 
d="M490 280h-327q-65 0 -92.5 34t-16.5 98l29 167q11 65 44.5 93t97.5 28h327q133 0 109 -133l-30 -166q-12 -65 -44.5 -93t-96.5 -28zM250 410h189q15 0 21.5 6t8.5 21l18 107q2 15 -3 20.5t-19 5.5h-189q-15 0 -21.5 -6t-8.5 -21l-18 -107q-2 -15 3 -20.5t19 -5.5z" />
    <glyph glyph-name="one.numr" horiz-adv-x="600" 
d="M464 700l-53 -297h194l-22 -123h-562l22 123h200l29 162l-185 -12l23 129l267 18h87z" />
    <glyph glyph-name="two.numr" horiz-adv-x="638" 
d="M626 403l-22 -123h-573l26 150q9 51 34 73t78 25l303 16q17 2 20 18l2 13q3 16 -15 16h-205q-11 0 -14.5 -3t-5.5 -15l-4 -20h-162l8 53q8 51 33.5 72.5t77.5 21.5h371q108 0 88 -108l-9 -50q-9 -51 -34.5 -72.5t-78.5 -24.5l-302 -16q-16 -1 -19 -19l-1 -7h404z" />
    <glyph glyph-name="three.numr" horiz-adv-x="636" 
d="M204 700h370q105 0 87 -105l-4 -24q-11 -69 -62 -80q51 -17 39 -87l-5 -29q-9 -52 -35 -73.5t-78 -21.5h-382q-102 0 -86 105l9 56h162l-4 -27q-1 -12 1.5 -15t13.5 -3h216q12 0 16 3.5t5 14.5l2 14q2 11 -1 14.5t-15 3.5h-195l17 92h191q11 0 15 3.5t5 14.5l1 10
q2 11 -1 14.5t-14 3.5h-204q-11 0 -15 -3.5t-6 -14.5l-4 -22h-162l11 61q10 52 35 73.5t77 21.5z" />
    <glyph glyph-name="four.numr" horiz-adv-x="654" 
d="M559 462h110l-20 -115h-110l-12 -67h-164l12 67h-342l17 97l356 256h195zM415 578l-166 -116h146z" />
    <glyph glyph-name="five.numr" horiz-adv-x="619" 
d="M497 280h-465l22 123h373q12 0 16 2.5t5 12.5l1 8q1 10 -2 13t-14 3h-373l46 258h541l-22 -123h-373l-4 -28h285q105 0 87 -106l-12 -69q-9 -52 -34 -73t-77 -21z" />
    <glyph glyph-name="six.numr" horiz-adv-x="638" 
d="M644 577h-368q-15 0 -21 -5.5t-9 -20.5l-4 -22q19 18 64 18h244q106 0 88 -106l-11 -67q-9 -52 -34.5 -73t-77.5 -21h-379q-105 0 -87 106l34 193q11 65 44 93t98 28h441zM453 448h-207q-16 0 -21 -15l-4 -22q-1 -10 2 -14t14 -4h207q20 0 21 18l3 18q2 11 -1 15t-14 4z
" />
    <glyph glyph-name="seven.numr" horiz-adv-x="613" 
d="M95 700h574l-21 -117h1l-233 -147q-28 -18 -36 -60l-17 -96h-172l19 110q10 58 29 88q16 26 62 52l62 35h-292z" />
    <glyph glyph-name="eight.numr" horiz-adv-x="636" 
d="M204 700h369q103 0 87 -106l-4 -25q-10 -67 -62 -78q51 -19 39 -88l-5 -29q-9 -53 -34 -73.5t-77 -20.5h-382q-105 0 -87 107l5 28q7 39 23 57.5t47 22.5q-46 19 -35 86l4 25q8 53 33 73.5t79 20.5zM254 570l-3 -16q-4 -18 16 -18h196q11 0 15.5 3.5t6.5 14.5l3 15
q4 18 -16 18h-198q-16 0 -20 -17zM466 410l4 21q3 17 -15 17h-211q-20 0 -21 -18l-3 -19q-1 -10 2 -14t14 -4h209q11 0 15 3.5t6 13.5z" />
    <glyph glyph-name="nine.numr" horiz-adv-x="638" 
d="M199 700h379q106 0 88 -106l-34 -193q-11 -65 -44 -93t-98 -28h-441l21 121h368q15 0 22 5.5t9 19.5l4 22q-19 -19 -65 -19h-245q-105 0 -87 107l12 70q9 52 34 73t77 21zM262 529h207q16 0 20 13l4 23q1 10 -2 14t-14 4h-207q-20 0 -21 -18l-3 -18q-1 -10 2 -14t14 -4z
" />
    <glyph glyph-name="zero.sups" horiz-adv-x="638" 
d="M508 380h-327q-65 0 -92.5 34t-16.5 98l29 167q11 65 44.5 93t97.5 28h327q133 0 109 -133l-30 -166q-12 -65 -44.5 -93t-96.5 -28zM268 510h189q15 0 21.5 6t8.5 21l18 107q2 15 -3 20.5t-19 5.5h-189q-15 0 -21.5 -6t-8.5 -21l-18 -107q-2 -15 3 -20.5t19 -5.5z" />
    <glyph glyph-name="one.sups" horiz-adv-x="600" 
d="M482 800l-53 -297h194l-22 -123h-562l22 123h200l29 162l-185 -12l23 129l267 18h87z" />
    <glyph glyph-name="two.sups" horiz-adv-x="638" 
d="M644 503l-22 -123h-573l26 150q9 51 34 73t78 25l303 16q17 2 20 18l2 13q3 16 -15 16h-205q-11 0 -14.5 -3t-5.5 -15l-4 -20h-162l8 53q8 51 33.5 72.5t77.5 21.5h371q108 0 88 -108l-9 -50q-9 -51 -34.5 -72.5t-78.5 -24.5l-302 -16q-16 -1 -19 -19l-1 -7h404z" />
    <glyph glyph-name="three.sups" horiz-adv-x="636" 
d="M222 800h370q105 0 87 -105l-4 -24q-11 -69 -62 -80q51 -17 39 -87l-5 -29q-9 -52 -35 -73.5t-78 -21.5h-382q-102 0 -86 105l9 56h162l-4 -27q-1 -12 1.5 -15t13.5 -3h216q12 0 16 3.5t5 14.5l2 14q2 11 -1 14.5t-15 3.5h-195l17 92h191q11 0 15 3.5t5 14.5l1 10
q2 11 -1 14.5t-14 3.5h-204q-11 0 -15 -3.5t-6 -14.5l-4 -22h-162l11 61q10 52 35 73.5t77 21.5z" />
    <glyph glyph-name="four.sups" horiz-adv-x="654" 
d="M577 562h110l-20 -115h-110l-12 -67h-164l12 67h-342l17 97l356 256h195zM433 678l-166 -116h146z" />
    <glyph glyph-name="five.sups" horiz-adv-x="619" 
d="M515 380h-465l22 123h373q12 0 16 2.5t5 12.5l1 8q1 10 -2 13t-14 3h-373l46 258h541l-22 -123h-373l-4 -28h285q105 0 87 -106l-12 -69q-9 -52 -34 -73t-77 -21z" />
    <glyph glyph-name="six.sups" horiz-adv-x="638" 
d="M662 677h-368q-15 0 -21 -5.5t-9 -20.5l-4 -22q20 18 64 18h244q106 0 88 -106l-11 -67q-9 -52 -34.5 -73t-77.5 -21h-379q-105 0 -87 106l34 193q11 65 44 93t98 28h441zM471 548h-207q-16 0 -21 -15l-4 -22q-1 -10 2 -14t14 -4h207q20 0 21 18l3 18q2 11 -1 15t-14 4z
" />
    <glyph glyph-name="seven.sups" horiz-adv-x="613" 
d="M113 800h574l-21 -117h1l-233 -147q-28 -18 -36 -60l-17 -96h-172l19 110q10 58 29 88q16 26 62 52l62 35h-292z" />
    <glyph glyph-name="eight.sups" horiz-adv-x="636" 
d="M222 800h369q103 0 87 -106l-4 -25q-10 -67 -62 -78q51 -19 39 -88l-5 -29q-9 -53 -34 -73.5t-77 -20.5h-382q-105 0 -87 107l5 28q7 39 23 57.5t47 22.5q-46 19 -35 86l4 25q8 53 33 73.5t79 20.5zM272 670l-3 -16q-4 -18 16 -18h196q11 0 15.5 3.5t6.5 14.5l3 15
q4 18 -16 18h-198q-16 0 -20 -17zM484 510l4 21q3 17 -15 17h-211q-20 0 -21 -18l-3 -19q-1 -10 2 -14t14 -4h209q11 0 15 3.5t6 13.5z" />
    <glyph glyph-name="nine.sups" horiz-adv-x="638" 
d="M217 800h379q106 0 88 -106l-34 -193q-11 -65 -44 -93t-98 -28h-441l21 121h368q15 0 22 5.5t9 19.5l4 22q-19 -19 -65 -19h-245q-105 0 -87 107l12 70q9 52 34 73t77 21zM280 629h207q16 0 20 13l4 23q1 10 -2 14t-14 4h-207q-20 0 -21 -18l-3 -18q-1 -10 2 -14t14 -4z
" />
    <glyph glyph-name="numbersign.numr" horiz-adv-x="636" 
d="M658 615l-16 -90h-108l-11 -70h109l-16 -90h-108l-13 -85h-120l13 85h-102l-13 -85h-120l13 85h-110l16 90h109l11 70h-110l16 90h108l13 85h120l-13 -85h102l13 85h120l-13 -85h110zM301 455h102l11 70h-102z" />
    <glyph glyph-name="numbersign.tf" 
d="M1032 556l-26 -146h-178l-18 -120h176l-26 -146h-173l-23 -144h-196l23 144h-186l-23 -144h-196l23 144h-181l26 146h178l18 120h-175l26 146h172l23 144h196l-23 -144h186l23 144h196l-23 -144h181zM428 290h186l18 120h-186z" />
    <glyph glyph-name="cent.numr" horiz-adv-x="638" 
d="M450 700h114q121 0 100 -121l-6 -35h-162l2 14q1 12 -3 16.5t-16 4.5h-207q-12 0 -17 -4.5t-7 -16.5l-12 -68q-2 -12 2 -16.5t16 -4.5h208q12 0 17 4.5t7 16.5l3 17h162l-9 -50q-11 -61 -39.5 -85t-88.5 -24h-126l-11 -60h-108l11 60h-116q-122 0 -100 121l23 122
q11 61 39 85t88 24h128l11 60h108z" />
    <glyph glyph-name="dollar.numr" horiz-adv-x="637" 
d="M449 700h125q102 0 86 -105l-5 -32h-161l2 15q2 11 -1 14.5t-15 3.5h-204q-20 0 -21 -18l-1 -7q-1 -10 1.5 -13.5t13.5 -4.5l285 -13q53 -2 74 -27.5t12 -78.5l-10 -58q-9 -52 -35 -74t-77 -22h-143l-11 -60h-107l11 60h-134q-52 0 -74.5 26.5t-12.5 78.5l7 36h162
l-4 -19q-2 -10 1 -14t14 -4h219q17 0 21 19l2 11q2 10 -1 13.5t-15 4.5l-284 12q-103 4 -87 106l9 54q9 52 35 74t78 22h137l11 60h107z" />
    <glyph glyph-name="Euro.numr" horiz-adv-x="664" 
d="M258 700h320q65 0 93 -34.5t17 -98.5l-9 -52h-162l7 41q2 15 -3 20.5t-20 5.5h-192q-14 0 -20 -5t-9 -19h205l-11 -58h-204l-4 -20h205l-11 -58h-204q-4 -24 22 -24h193q15 0 20.5 5.5t8.5 20.5l8 45h162l-12 -68q-11 -65 -44.5 -93t-97.5 -28h-321q-64 0 -92 34t-17 98
l2 10h-53l10 58h53l4 20h-53l10 58h53l4 21q12 65 44.5 93t97.5 28z" />
    <glyph glyph-name="florin.numr" horiz-adv-x="588" 
d="M617 570h-146q-15 0 -21.5 -5.5t-10.5 -20.5l-11 -41h165l-18 -98h-174l-26 -97q-18 -66 -52 -95t-97 -29h-215l22 130h146q14 0 21 5.5t12 21.5l18 64h-169l18 98h178l20 72q18 67 51.5 96t95.5 29h215z" />
    <glyph glyph-name="sterling.numr" horiz-adv-x="664" 
d="M264 700h314q64 0 92 -34t17 -99l-7 -40h-162l6 29q3 15 -2 20.5t-20 5.5h-193q-19 0 -24 -26l-3 -19h199l-14 -81h-200l-9 -52h222q10 0 14 3.5t6 14.5l6 35h162l-14 -80q-9 -52 -35.5 -74.5t-78.5 -22.5h-524l22 124h53l9 52h-59l14 81h59l8 42q12 65 44.5 93t97.5 28z
" />
    <glyph glyph-name="yen.numr" horiz-adv-x="636" 
d="M480 700h219l-223 -215h167l-11 -65h-203l-5 -26h203l-11 -65h-203l-9 -49h-168l9 49h-203l11 65h203l5 26h-203l11 65h168l-148 215h207l70 -124z" />
    <glyph glyph-name="cent.tf" 
d="M681 700h190q200 0 165 -200l-9 -53h-260l3 19q4 22 -3.5 30t-29.5 8h-353q-22 0 -30.5 -8t-12.5 -30l-18 -102q-4 -22 3.5 -30t29.5 -8h353q22 0 30.5 8t12.5 30l4 23h260l-14 -77q-20 -102 -65 -140q-46 -40 -146 -40h-211l-18 -100h-172l18 100h-196q-201 0 -165 200
l34 190q18 99 65 140q46 40 146 40h217l17 100h172z" />
    <glyph glyph-name="dollar.tf" 
d="M678 700h210q169 0 142 -174l-8 -52h-260l4 24q3 19 -2.5 25.5t-24.5 6.5h-350q-19 0 -26.5 -6.5t-10.5 -25.5l-2 -13q-3 -18 3 -24.5t24 -7.5l477 -21q88 -4 123 -46.5t20 -128.5l-17 -99q-15 -87 -57 -122.5t-129 -35.5h-239l-18 -100h-172l18 100h-225
q-175 0 -143 174l11 60h260l-6 -32q-4 -19 2 -25.5t25 -6.5h374q19 0 26.5 6.5t10.5 25.5l3 21q3 19 -2.5 25t-24.5 7l-477 21q-88 4 -123.5 46.5t-20.5 128.5l16 91q15 86 58 122t129 36h230l17 100h172z" />
    <glyph glyph-name="Euro.tf" 
d="M332 700h520q107 0 153.5 -56.5t27.5 -163.5l-15 -86h-260l12 68q4 26 -4.5 36t-35.5 10h-318q-26 0 -36.5 -9.5t-15.5 -36.5h344l-17 -94h-344l-6 -36h344l-17 -94h-344q-4 -26 4.5 -36t35.5 -10h318q26 0 36.5 9.5t15.5 36.5l13 74h260l-20 -112q-19 -108 -73.5 -154
t-161.5 -46h-520q-107 0 -153.5 56t-27.5 164l3 18h-56l17 94h56l6 36h-56l17 94h56l7 38q19 108 73.5 154t161.5 46z" />
    <glyph glyph-name="florin.tf" 
d="M1020 488h-264q-26 0 -36.5 -9t-18.5 -37l-20 -72h299l-29 -160h-314l-47 -170q-32 -112 -82 -156q-52 -44 -155 -44h-379l38 212h264q26 0 36.5 9t18.5 37l31 112h-303l29 160h318l36 130q32 112 82 156q52 44 155 44h379z" />
    <glyph glyph-name="sterling.tf" 
d="M343 700h509q107 0 153.5 -56.5t27.5 -163.5l-12 -66h-260l9 48q5 26 -4 36t-36 10h-317q-19 0 -28.5 -10t-13.5 -36l-6 -36h332l-23 -132h-333l-16 -92h368q19 0 26.5 6.5t10.5 25.5l10 58h260l-23 -132q-15 -86 -59 -123t-130 -37h-825l36 202h56l16 92h-66l23 132h67
l13 74q19 108 73.5 154t161.5 46z" />
    <glyph glyph-name="yen.tf" 
d="M742 700h356l-374 -360h280l-18 -106h-342l-8 -46h341l-18 -106h-342l-14 -82h-270l14 82h-340l18 106h341l8 46h-340l18 106h281l-247 360h334l122 -221z" />
    <glyph glyph-name="percent.numr" horiz-adv-x="703" 
d="M307 502h-174q-65 0 -54 65l12 73q5 32 22 46t49 14h175q66 0 54 -66l-13 -72q-6 -32 -22.5 -46t-48.5 -14zM168 280h-92l537 420h92zM177 570h105q12 0 15 14l6 35q2 8 0 10t-11 2h-104q-15 0 -16 -13l-6 -35q-3 -13 11 -13zM619 280h-175q-66 0 -54 66l13 72
q6 32 22.5 46t48.5 14h174q66 0 54 -66l-13 -72q-6 -32 -22 -46t-48 -14zM489 349h104q12 0 15 12l7 36q3 13 -11 13h-105q-12 0 -15 -13l-7 -36q-1 -7 1.5 -9.5t10.5 -2.5z" />
    <glyph glyph-name="perthousand.numr" horiz-adv-x="1026" 
d="M307 502h-174q-65 0 -54 65l12 73q5 32 22 46t49 14h175q66 0 54 -66l-13 -72q-6 -32 -22.5 -46t-48.5 -14zM168 280h-92l537 420h92zM177 570h105q12 0 15 14l6 35q2 8 0 10t-11 2h-104q-15 0 -16 -13l-6 -35q-3 -13 11 -13zM619 280h-175q-66 0 -54 66l13 72
q6 32 22.5 46t48.5 14h174q66 0 54 -66l-13 -72q-6 -32 -22 -46t-48 -14zM942 280h-175q-66 0 -54 66l13 72q6 32 22.5 46t48.5 14h174q66 0 54 -66l-13 -72q-6 -32 -22 -46t-48 -14zM489 349h104q12 0 15 12l7 36q3 13 -11 13h-105q-12 0 -15 -13l-7 -36q-1 -7 1.5 -9.5
t10.5 -2.5zM812 349h104q12 0 15 12l7 36q3 13 -11 13h-105q-12 0 -15 -13l-7 -36q-1 -7 1.5 -9.5t10.5 -2.5z" />
    <glyph glyph-name="percent.tf" horiz-adv-x="1140" 
d="M566 590l-21 -120q-10 -54 -37.5 -77t-80.5 -23h-270q-53 0 -76.5 28t-13.5 82l21 120q10 54 37.5 77t80.5 23h270q53 0 76.5 -28t13.5 -82zM230 0h-158l866 700h158zM230 482h155q22 0 27 23l11 60q2 13 -2 18t-18 5h-155q-23 0 -27 -23l-11 -60q-5 -23 20 -23zM962 0
h-270q-53 0 -76.5 28t-13.5 82l21 120q10 54 37.5 77t80.5 23h270q53 0 76.5 -28t13.5 -82l-21 -120q-10 -54 -37.5 -77t-80.5 -23zM765 112h155q22 0 27 23l11 60q2 13 -2 18t-18 5h-155q-23 0 -27 -23l-11 -60q-5 -23 20 -23z" />
    <glyph glyph-name="perthousand.tf" horiz-adv-x="1660" 
d="M566 590l-21 -120q-10 -54 -37.5 -77t-80.5 -23h-270q-53 0 -76.5 28t-13.5 82l21 120q10 54 37.5 77t80.5 23h270q53 0 76.5 -28t13.5 -82zM230 0h-158l866 700h158zM230 482h155q22 0 27 23l11 60q2 13 -2 18t-18 5h-155q-23 0 -27 -23l-11 -60q-5 -23 20 -23zM962 0
h-270q-53 0 -76.5 28t-13.5 82l21 120q10 54 37.5 77t80.5 23h270q53 0 76.5 -28t13.5 -82l-21 -120q-10 -54 -37.5 -77t-80.5 -23zM1482 0h-270q-53 0 -76.5 28t-13.5 82l21 120q10 54 37.5 77t80.5 23h270q53 0 76.5 -28t13.5 -82l-21 -120q-10 -54 -37.5 -77t-80.5 -23z
M765 112h155q22 0 27 23l11 60q2 13 -2 18t-18 5h-155q-23 0 -27 -23l-11 -60q-5 -23 20 -23zM1285 112h155q22 0 27 23l11 60q2 13 -2 18t-18 5h-155q-23 0 -27 -23l-11 -60q-5 -23 20 -23z" />
    <glyph glyph-name="brevecombcy" horiz-adv-x="0" 
d="M-60 570h-358q-78 0 -65 78l9 52h178l-3 -18q-4 -22 19 -22h110q21 0 25 22l3 18h178l-9 -56q-11 -74 -87 -74z" />
    <glyph glyph-name="ringacutecomb" horiz-adv-x="460" 
d="M524 700l-79 -62q39 -7 30 -56l-5 -28q-5 -30 -19 -42t-44 -12h-268q-58 0 -48 58l5 28q5 30 19 42t44 12h50l47 60h268zM382 565l2 10q2 11 -0.5 14t-12.5 3h-168q-10 0 -13.5 -3t-5.5 -14l-2 -10q-2 -11 0.5 -14t12.5 -3h168q10 0 13.5 3t5.5 14z" />
    </font>
</defs>
</svg>
