<?xml version="1.0" standalone="no"?>
<!DOCTYPE svg PUBLIC "-//W3C//DTD SVG 1.1//EN" "http://www.w3.org/Graphics/SVG/1.1/DTD/svg11.dtd" >
<svg xmlns="http://www.w3.org/2000/svg" xmlns:xlink="http://www.w3.org/1999/xlink" version="1.1">
<metadata>
Created by FontForge 20170731 at Thu Jun 30 17:45:18 2016
 By Aleksey,,,
@ 2016 Richard Miller
</metadata>
<defs>
<font id="TacticSansExtExd-LgtIt" horiz-adv-x="1032" >
  <font-face 
    font-family="TacticSansExtExd-LgtIt"
    font-weight="400"
    font-style="italic"
    font-stretch="extra-expanded"
    units-per-em="1000"
    panose-1="0 0 4 7 0 0 0 0 0 0"
    ascent="814"
    descent="-186"
    x-height="522"
    cap-height="700"
    bbox="-871 -169 1882 878"
    underline-thickness="50"
    underline-position="-200"
    slope="-10"
    unicode-range="U+0020-FB02"
  />
<missing-glyph horiz-adv-x="720" 
d="M-36 0l124 700h700l-124 -700h-700zM275 350l-199 -169l88 -107l199 169l139 -169l126 107l-139 169l199 169l-88 107l-199 -169l-139 169l-126 -107z" />
    <glyph glyph-name="ellipsis" unicode="&#x2e;&#x2e;&#x2e;" horiz-adv-x="860" 
d="M114 0h-84l15 82h84zM426 0h-84l15 82h84zM738 0h-84l15 82h84z" />
    <glyph glyph-name="blackbox.liga" unicode="[&#x2b;]" horiz-adv-x="940" 
d="M120 0v700h700v-700h-700z" />
    <glyph glyph-name="checkbox.liga" unicode="[]" horiz-adv-x="940" 
d="M120 0v700h700v-700h-700zM773 655h-606v-610h606v610z" />
    <glyph glyph-name="checkround.liga" unicode="&#x28;&#x29;" horiz-adv-x="940" 
d="M726 95q-105 -105 -256 -105q-152 0 -255 105q-105 103 -105 255q0 151 105 256q104 104 255 104q150 0 256 -104q104 -106 104 -256q0 -151 -104 -255zM248 126q91 -91 222 -91t222 91t91 224t-91 224t-222 91t-222 -91t-91 -224t91 -224z" />
    <glyph glyph-name="checkstar.liga" unicode="&#x7b;&#x7d;" horiz-adv-x="940" 
d="M378 437l92 283l92 -283h297l-240 -174l91 -283l-240 175l-240 -175l91 283l-240 174h297zM533 396l-63 193l-63 -193h-201l163 -118l-62 -192l163 119l163 -119l-62 192l163 118h-201z" />
    <glyph glyph-name="blackround.liga" unicode="&#x28;&#x2b;&#x29;" horiz-adv-x="940" 
d="M726 95q-105 -105 -256 -105q-152 0 -255 105q-105 103 -105 255q0 151 105 256q104 104 255 104q150 0 256 -104q104 -106 104 -256q0 -151 -104 -255z" />
    <glyph glyph-name="filledstar.liga" unicode="&#x7b;&#x2b;&#x7d;" horiz-adv-x="940" 
d="M378 437l92 283l92 -283h297l-240 -174l91 -283l-240 175l-240 -175l91 283l-240 174h297z" />
    <glyph glyph-name="ff.liga" unicode="ff" horiz-adv-x="1318" 
d="M1367 650h-350q-46 0 -66 -17.5t-28 -63.5l-19 -108h430l-9 -51h-430l-73 -410h-62l72 410h-507l-73 -410h-62l72 410h-217l9 51h217l20 117q12 67 45 94.5t100 27.5h313l-10 -50h-292q-46 0 -66 -17.5t-28 -63.5l-19 -108h507l20 117q12 67 45 94.5t100 27.5h371z" />
    <glyph glyph-name=".notdef" horiz-adv-x="720" 
d="M-36 0l124 700h700l-124 -700h-700zM275 350l-199 -169l88 -107l199 169l139 -169l126 107l-139 169l199 169l-88 107l-199 -169l-139 169l-126 -107z" />
    <glyph glyph-name=".null" horiz-adv-x="0" 
 />
    <glyph glyph-name="nonmarkingreturn" horiz-adv-x="333" 
 />
    <glyph glyph-name="space" unicode=" " horiz-adv-x="300" 
 />
    <glyph glyph-name="exclam" unicode="!" horiz-adv-x="236" 
d="M78 171l81 529h73l-105 -529h-49zM115 0h-84l13 77h84z" />
    <glyph glyph-name="quotedbl" unicode="&#x22;" horiz-adv-x="382" 
d="M113 462l41 238h58l-42 -238h-57zM285 462l41 238h58l-42 -238h-57z" />
    <glyph glyph-name="numbersign" unicode="#" 
d="M988 448l-8 -47h-225l-32 -181h224l-8 -47h-224l-31 -173h-57l31 173h-314l-31 -173h-57l31 173h-225l8 47h225l32 181h-225l8 47h225l31 172h57l-31 -172h314l31 172h57l-31 -172h225zM352 220h314l32 181h-314z" />
    <glyph glyph-name="dollar" unicode="$" 
d="M620 700h257q65 0 95.5 -36t20.5 -102l-5 -34h-62l4 29q8 47 -10 69t-65 22h-557q-46 0 -66 -17.5t-28 -63.5l-11 -66q-8 -48 9 -69t64 -23l569 -33q138 -7 115 -138l-20 -116q-11 -67 -43.5 -94.5t-98.5 -27.5h-292l-17 -100h-53l17 100h-271q-66 0 -97 36.5t-19 101.5
l9 51h62l-9 -46q-16 -91 76 -91h581q46 0 66 17.5t28 63.5l17 97q8 48 -8.5 69t-64.5 24l-569 33q-139 7 -116 138l14 84q12 67 44.5 94.5t98.5 27.5h282l17 100h53z" />
    <glyph glyph-name="percent" unicode="%" horiz-adv-x="1140" 
d="M543 508l-17 -101q-9 -53 -36 -75.5t-80 -22.5h-242q-53 0 -76.5 29.5t-14.5 82.5l17 101q9 54 35.5 76t80.5 22h242q53 0 76.5 -29t14.5 -83zM161 0h-73l908 620h73zM182 353h223q36 0 52 13.5t22 48.5l16 92q13 69 -57 69h-224q-35 0 -50.5 -13t-22.5 -49l-16 -92
q-12 -69 57 -69zM948 0h-242q-53 0 -77 29.5t-15 82.5l17 101q9 54 35.5 76t80.5 22h242q53 0 76.5 -29t14.5 -83l-17 -101q-9 -53 -35.5 -75.5t-79.5 -22.5zM719 44h224q35 0 51 13.5t22 48.5l17 92q11 69 -58 69h-224q-35 0 -50.5 -13t-21.5 -49l-17 -92q-12 -69 57 -69z
" />
    <glyph glyph-name="ampersand" unicode="&#x26;" horiz-adv-x="1119" 
d="M273 393h850l-9 -49h-120l-38 -222q-11 -66 -44 -94t-99 -28h-654q-66 0 -96 36.5t-18 103.5l20 118q10 57 36 85t75 33q-54 34 -39 121l14 81q12 67 45 94.5t99 27.5h594q66 0 95.5 -37t18.5 -103l-5 -30h-62l4 28q8 47 -10 69t-65 22h-558q-47 0 -67 -16.5t-28 -63.5
l-14 -85q-8 -47 10 -69t65 -22zM895 131l37 213h-708q-47 0 -67 -17t-28 -64l-21 -121q-8 -47 10 -69t65 -22h619q47 0 66 16.5t27 63.5z" />
    <glyph glyph-name="quotesingle" unicode="'" horiz-adv-x="210" 
d="M113 462l41 238h58l-42 -238h-57z" />
    <glyph glyph-name="parenleft" unicode="(" horiz-adv-x="604" 
d="M503 -100h-263q-105 0 -155.5 61t-31.5 166l82 470q19 108 75 155.5t164 47.5h287l-9 -51h-274q-82 0 -125.5 -37t-58.5 -120l-82 -466q-15 -85 22 -130t122 -45h256z" />
    <glyph glyph-name="parenright" unicode=")" horiz-adv-x="604" 
d="M133 800h263q105 0 155.5 -61t31.5 -166l-82 -470q-19 -108 -75 -155.5t-164 -47.5h-287l9 51h274q82 0 125.5 37t58.5 120l82 466q15 85 -22 130t-122 45h-256z" />
    <glyph glyph-name="asterisk" unicode="*" horiz-adv-x="441" 
d="M434 576l9 -50l-145 -14l68 -129l-45 -22l-60 133l-101 -105l-35 36l109 97l-131 65l24 44l125 -73l21 144l49 -9l-30 -142z" />
    <glyph glyph-name="plus" unicode="+" 
d="M566 377h409l-9 -54h-409l-49 -274h-59l48 274h-409l9 54h410l48 274h60z" />
    <glyph glyph-name="comma" unicode="," horiz-adv-x="236" 
d="M37 -160h-45l67 160h-29l15 82h84l-8 -44q-6 -35 -19 -56z" />
    <glyph glyph-name="hyphen" unicode="-" horiz-adv-x="660" 
d="M68 323l9 54h546l-9 -54h-546z" />
    <glyph glyph-name="period" unicode="." horiz-adv-x="236" 
d="M114 0h-84l15 82h84z" />
    <glyph glyph-name="slash" unicode="/" horiz-adv-x="580" 
d="M-54 -100l666 900h54l-666 -900h-54z" />
    <glyph glyph-name="zero" unicode="0" 
d="M741 0h-522q-89 0 -128 47t-23 137l62 352q16 90 59.5 127t133.5 37h522q89 0 128 -47t23 -137l-62 -352q-16 -90 -59.5 -127t-133.5 -37zM242 54h487q69 0 100.5 26.5t43.5 96.5l59 335q11 70 -15 102t-96 32h-486q-70 0 -101 -26.5t-43 -96.5l-59 -335
q-12 -70 14.5 -102t95.5 -32z" />
    <glyph glyph-name="one" unicode="1" horiz-adv-x="972" 
d="M630 700l-114 -648h373l-10 -52h-878l10 52h442l104 593l-417 -28l9 53l452 30h29z" />
    <glyph glyph-name="two" unicode="2" 
d="M904 53l-10 -53h-859l37 208q11 66 42 93t101 34l617 57q48 4 67 21.5t27 64.5l13 78q8 47 -10 69.5t-65 22.5h-559q-47 0 -67 -17t-27 -64l-8 -50h-62l10 61q11 67 44 94.5t100 27.5h593q66 0 96 -36.5t19 -103.5l-16 -93q-11 -67 -42 -94.5t-101 -34.5l-617 -56
q-51 -5 -69.5 -22t-25.5 -64l-24 -143h796z" />
    <glyph glyph-name="three" unicode="3" 
d="M289 700h592q66 0 96 -36.5t18 -103.5l-14 -82q-17 -93 -82 -112q67 -30 50 -126l-21 -118q-11 -66 -44 -94t-99 -28h-612q-66 0 -95.5 36.5t-18.5 103.5l11 68h62l-11 -65q-8 -47 10 -69t65 -22h577q47 0 67 16.5t28 63.5l19 120q8 47 -9.5 69t-64.5 22h-437l10 50h436
q47 0 67 17t28 64l14 83q8 47 -10 69t-65 22h-556q-47 0 -66.5 -16.5t-27.5 -63.5l-12 -68h-62l13 78q12 67 45 94.5t99 27.5z" />
    <glyph glyph-name="four" unicode="4" horiz-adv-x="1062" 
d="M763 239h248l-9 -51h-248l-33 -188h-63l33 188h-657l8 43l731 469h72zM771 644l-631 -405h560z" />
    <glyph glyph-name="five" unicode="5" horiz-adv-x="1002" 
d="M753 0h-714l10 53h693q46 0 65.5 17t27.5 64l23 132q18 91 -75 91h-681l61 343h806l-10 -53h-743l-41 -237h633q66 0 95.5 -36.5t18.5 -103.5l-25 -148q-12 -67 -45 -94.5t-99 -27.5z" />
    <glyph glyph-name="six" unicode="6" 
d="M988 647h-658q-68 0 -98 -26t-42 -94l-26 -149q37 35 106 35h568q66 0 96 -36.5t18 -103.5l-26 -151q-11 -66 -44 -94t-99 -28h-609q-66 0 -96 36.5t-18 103.5l69 396q16 91 59 127.5t134 36.5h676zM146 275l-23 -131q-8 -47 10 -69.5t65 -22.5h573q47 0 67 17t28 64
l22 137q8 47 -10 69t-65 22h-566q-48 0 -71 -19.5t-30 -66.5z" />
    <glyph glyph-name="seven" unicode="7" horiz-adv-x="992" 
d="M115 646l10 54h898l-9 -46l-419 -273q-69 -45 -93 -85q-23 -39 -40 -128l-30 -168h-63l31 179q16 91 47 142q28 47 100 93l360 232h-792z" />
    <glyph glyph-name="eight" unicode="8" 
d="M287 700h594q66 0 96 -36.5t18 -103.5l-14 -82q-17 -93 -82 -112q67 -30 50 -126l-21 -118q-11 -66 -44 -94t-99 -28h-613q-66 0 -96 36.5t-18 103.5l20 118q9 53 31 80.5t63 35.5q-58 31 -43 123l14 81q12 67 45 94.5t99 27.5zM917 473l14 85q18 91 -74 91h-558
q-47 0 -66 -16.5t-28 -64.5l-14 -84q-9 -47 9 -69t65 -22h557q47 0 67 16.5t28 63.5zM867 132l21 121q8 47 -10 69t-65 22h-576q-47 0 -66.5 -17t-28.5 -64l-21 -120q-8 -47 10 -69.5t65 -22.5h577q47 0 67 17t27 64z" />
    <glyph glyph-name="nine" unicode="9" 
d="M281 700h608q66 0 96 -36.5t18 -103.5l-69 -396q-16 -90 -59.5 -127t-133.5 -37h-675l10 53h657q68 0 98 26t42 94l24 141q-35 -35 -106 -35h-567q-66 0 -96 36.5t-19 103.5l28 159q12 67 45 94.5t99 27.5zM915 417l24 139q18 92 -74 92h-573q-47 0 -66.5 -17t-27.5 -64
l-25 -144q-18 -92 75 -92h566q48 0 71 19.5t30 66.5z" />
    <glyph glyph-name="colon" unicode=":" horiz-adv-x="236" 
d="M192 444h-84l14 78h84zM114 0h-84l14 78h84z" />
    <glyph glyph-name="semicolon" unicode=";" horiz-adv-x="236" 
d="M192 444h-84l14 78h84zM37 -160h-45l67 160h-29l14 78h84l-7 -40q-6 -34 -19 -56z" />
    <glyph glyph-name="less" unicode="&#x3c;" 
d="M100 387l920 247l-10 -60l-831 -217l752 -236l-11 -55l-829 267z" />
    <glyph glyph-name="equal" unicode="=" 
d="M110 445l9 53h878l-9 -53h-878zM67 202l9 53h878l-9 -53h-878z" />
    <glyph glyph-name="greater" unicode="&#x3e;" 
d="M133 579l11 55l829 -267l-9 -54l-920 -247l10 60l831 217z" />
    <glyph glyph-name="question" unicode="?" horiz-adv-x="970" 
d="M463 168h-61l16 88q12 66 41 94t94 35l239 24q48 4 70.5 24.5t30.5 67.5l10 56q16 91 -78 91h-559q-44 0 -64 -18t-29 -64l-9 -50h-62l10 62q12 67 44 94.5t98 27.5h597q66 0 96.5 -36t19.5 -102l-12 -70q-11 -64 -46.5 -95t-106.5 -39l-237 -23q-43 -4 -61.5 -23
t-26.5 -66zM445 0h-84l14 74h84z" />
    <glyph glyph-name="at" unicode="@" horiz-adv-x="1188" 
d="M306 700h706q90 0 130 -48.5t24 -139.5l-42 -240q-10 -57 -36.5 -79.5t-83.5 -22.5h-33q-69 0 -84 49l-25 -16q-35 -23 -65 -30.5t-81 -7.5h-358q-58 0 -81 27.5t-12 87.5l25 143q10 60 40 86t86 26h355q51 0 81 -8.5t57 -31.5l15 -12l12 41h44l-43 -252q-6 -32 4 -45
t41 -13h17q39 0 53 12.5t21 51.5l42 236q13 73 -15 107.5t-101 34.5h-688q-71 0 -103 -26q-31 -26 -43 -99l-61 -345q-12 -73 16 -107.5t101 -34.5h799l-8 -44h-804q-90 0 -130 49t-24 139l61 350q17 92 59 127q43 35 132 35zM847 240l33 20l32 182l-25 20q-34 28 -112 28
h-353q-39 0 -55 -14.5t-23 -56.5l-24 -135q-8 -43 3 -58.5t53 -15.5h356q68 0 115 30z" />
    <glyph glyph-name="A" unicode="A" horiz-adv-x="1082" 
d="M1037 0h-69l-107 195h-658l-176 -195h-74l633 700h66zM613 650l-362 -402h581z" />
    <glyph glyph-name="B" unicode="B" horiz-adv-x="1055" 
d="M153 700h763q64 0 95 -37t19 -103l-14 -81q-16 -94 -76 -112q72 -30 54 -126l-21 -119q-12 -68 -44 -95t-100 -27h-800zM952 474l14 81q18 93 -78 93h-681l-44 -255h694q47 0 67 17t28 64zM911 133l22 118q17 93 -78 93h-701l-51 -292h714q47 0 66.5 17t27.5 64z" />
    <glyph glyph-name="C" unicode="C" horiz-adv-x="1070" 
d="M797 0h-593q-89 0 -128 47t-23 137l62 352q16 90 59.5 127t133.5 37h593q89 0 128 -47t23 -137l-9 -54h-64l9 50q13 69 -14 101.5t-96 32.5h-557q-69 0 -100.5 -27t-43.5 -96l-59 -335q-12 -69 14.5 -101.5t95.5 -32.5h557q69 0 100 27t44 96l12 70h63l-14 -83
q-16 -90 -59.5 -127t-133.5 -37z" />
    <glyph glyph-name="D" unicode="D" horiz-adv-x="1094" 
d="M781 0h-751l124 700h723q105 0 156 -62t32 -167l-48 -270q-19 -107 -74.5 -154t-161.5 -47zM208 646l-104 -592h669q83 0 125.5 36.5t56.5 118.5l46 263q15 84 -22 129t-121 45h-650z" />
    <glyph glyph-name="E" unicode="E" horiz-adv-x="974" 
d="M1004 700l-10 -54h-786l-44 -252h746l-10 -51h-745l-51 -289h796l-10 -54h-860l124 700h850z" />
    <glyph glyph-name="F" unicode="F" horiz-adv-x="935" 
d="M994 700l-11 -55h-775l-48 -272h736l-9 -53h-736l-57 -320h-64l124 700h840z" />
    <glyph glyph-name="G" unicode="G" horiz-adv-x="1094" 
d="M818 0h-614q-89 0 -128 47t-23 137l62 352q16 90 59.5 127t133.5 37h614q88 0 127.5 -47t23.5 -137l-5 -26h-65l4 22q13 70 -13.5 102t-96.5 32h-576q-69 0 -100.5 -26.5t-43.5 -96.5l-59 -336q-12 -69 14.5 -101.5t95.5 -32.5h577q69 0 100 27t44 96l22 124h-387l8 52
h452l-34 -188q-16 -90 -59 -127t-133 -37z" />
    <glyph glyph-name="H" unicode="H" horiz-adv-x="1084" 
d="M968 397l54 303h64l-124 -700h-64l60 341h-804l-60 -341h-64l124 700h64l-54 -303h804z" />
    <glyph glyph-name="I" unicode="I" horiz-adv-x="228" 
d="M36 0l124 700h64l-124 -700h-64z" />
    <glyph glyph-name="J" unicode="J" horiz-adv-x="976" 
d="M699 0h-523q-89 0 -128 47t-23 137l11 63h63l-11 -59q-13 -69 14.5 -101.5t96.5 -32.5h487q69 0 100.5 27t43.5 96l93 523h64l-95 -536q-16 -90 -59.5 -127t-133.5 -37z" />
    <glyph glyph-name="K" unicode="K" horiz-adv-x="972" 
d="M897 700h137l-782 -344l662 -356h-125l-635 349l-62 -349h-64l124 700h64l-58 -329z" />
    <glyph glyph-name="L" unicode="L" horiz-adv-x="905" 
d="M218 700l-114 -645h746l-10 -55h-810l124 700h64z" />
    <glyph glyph-name="M" unicode="M" horiz-adv-x="1224" 
d="M599 211l567 489h60l-124 -700h-63l108 611l-535 -457h-39l-372 456l-108 -610h-63l124 700h51z" />
    <glyph glyph-name="N" unicode="N" horiz-adv-x="1104" 
d="M932 74l111 626h63l-124 -700h-50l-728 629l-111 -629h-63l124 700h54z" />
    <glyph glyph-name="O" unicode="O" horiz-adv-x="1094" 
d="M818 0h-614q-89 0 -128 47t-23 137l62 352q16 90 59.5 127t133.5 37h614q89 0 128 -47t23 -137l-62 -352q-16 -90 -59.5 -127t-133.5 -37zM229 54h576q70 0 101 27t43 97l59 333q12 70 -14.5 102.5t-95.5 32.5h-577q-69 0 -100.5 -27t-43.5 -97l-59 -333
q-11 -70 15.5 -102.5t95.5 -32.5z" />
    <glyph glyph-name="P" unicode="P" horiz-adv-x="1026" 
d="M94 0h-64l124 700h748q164 0 134 -164l-21 -120q-15 -83 -51 -115q-37 -31 -120 -31h-702zM208 648l-57 -327h681q60 0 85 21q25 22 35 82l20 108q11 62 -11.5 89t-84.5 27h-668z" />
    <glyph glyph-name="Q" unicode="Q" horiz-adv-x="1094" 
d="M308 700h614q89 0 128 -47t23 -137l-62 -352q-16 -88 -56.5 -125t-124.5 -39l137 -140h-78l-132 140h-553q-89 0 -128 47t-23 137l62 352q16 90 59.5 127t133.5 37zM949 178l59 333q12 70 -14.5 102.5t-95.5 32.5h-577q-69 0 -100.5 -27t-43.5 -97l-59 -333
q-11 -70 15.5 -102.5t95.5 -32.5h576q70 0 101 27t43 97z" />
    <glyph glyph-name="R" unicode="R" horiz-adv-x="1054" 
d="M154 700h748q164 0 134 -164l-17 -98q-13 -82 -51 -114q-37 -31 -119 -31l-107 -2l227 -291h-78l-224 291h-522l-51 -291h-64zM956 444l16 89q11 62 -11 89t-84 27h-669l-53 -308h681q59 0 85 21q25 22 35 82z" />
    <glyph glyph-name="S" unicode="S" horiz-adv-x="1074" 
d="M45 138l9 51h63l-8 -46q-16 -91 75 -91h643q46 0 66 17.5t28 63.5l17 97q8 47 -9 68.5t-64 24.5l-631 33q-140 8 -117 138l14 84q12 67 44.5 94.5t98.5 27.5h657q65 0 95 -36t20 -102l-5 -34h-63l4 29q8 47 -10 69t-65 22h-619q-46 0 -66 -17.5t-28 -63.5l-11 -66
q-7 -46 10 -68t64 -24l631 -33q138 -8 116 -138l-20 -116q-12 -67 -44 -94.5t-98 -27.5h-681q-65 0 -96 36.5t-20 101.5z" />
    <glyph glyph-name="T" unicode="T" horiz-adv-x="966" 
d="M97 700h928l-11 -55h-431l-114 -645h-64l114 645h-433z" />
    <glyph glyph-name="U" unicode="U" horiz-adv-x="1065" 
d="M788 0h-584q-88 0 -127.5 47t-23.5 137l91 516h64l-89 -510q-12 -70 14.5 -102.5t95.5 -32.5h547q69 0 100.5 27t43.5 97l92 521h64l-95 -536q-16 -90 -59.5 -127t-133.5 -37z" />
    <glyph glyph-name="V" unicode="V" horiz-adv-x="1054" 
d="M489 58l570 642h74l-622 -700h-60l-374 700h68z" />
    <glyph glyph-name="W" unicode="W" horiz-adv-x="1460" 
d="M1033 72l433 628h73l-485 -700h-57l-203 620l-422 -620h-58l-237 700h67l211 -629l423 629h53z" />
    <glyph glyph-name="X" unicode="X" horiz-adv-x="1030" 
d="M63 0h-101l526 355l-391 345h92l346 -306l453 306h101l-514 -345l400 -355h-92l-354 318z" />
    <glyph glyph-name="Y" unicode="Y" horiz-adv-x="1008" 
d="M996 700h91l-551 -440l-46 -260h-64l46 260l-395 440h83l350 -393z" />
    <glyph glyph-name="Z" unicode="Z" horiz-adv-x="1044" 
d="M950 0h-948l8 41l931 605h-805l10 54h928l-8 -41l-931 -605h825z" />
    <glyph glyph-name="bracketleft" unicode="[" horiz-adv-x="584" 
d="M464 -100h-470l158 900h470l-9 -51h-410l-141 -798h411z" />
    <glyph glyph-name="backslash" unicode="\" horiz-adv-x="580" 
d="M104 800h47l357 -900h-47z" />
    <glyph glyph-name="bracketright" unicode="]" horiz-adv-x="584" 
d="M152 800h470l-158 -900h-470l9 51h410l141 798h-411z" />
    <glyph glyph-name="asciicircum" unicode="^" 
d="M618 700l351 -420h-66l-313 372l-446 -372h-73l498 420h49z" />
    <glyph glyph-name="underscore" unicode="_" horiz-adv-x="926" 
d="M-61 -88l8 48h926l-8 -48h-926z" />
    <glyph glyph-name="grave" unicode="`" horiz-adv-x="336" 
d="M393 579h-66l-171 121h82z" />
    <glyph glyph-name="a" unicode="a" horiz-adv-x="950" 
d="M258 522h504q162 0 134 -162l-64 -360h-50l6 80l-50 -31q-50 -31 -87 -40q-36 -9 -101 -9h-401q-60 0 -88.5 34.5t-17.5 94.5l9 49q12 63 42 88.5t91 25.5h636l12 67q11 64 -9.5 89t-84.5 25h-470q-46 0 -67 -18t-28 -63l-5 -31h-62l7 39q13 67 45.5 94.5t98.5 27.5z
M723 88l70 43l11 61l10 55h-613q-43 0 -62.5 -16.5t-26.5 -58.5l-6 -39q-7 -45 9.5 -65t61.5 -20h398q81 0 148 40z" />
    <glyph glyph-name="b" unicode="b" horiz-adv-x="964" 
d="M419 522h363q162 0 133 -162l-38 -214q-13 -82 -51 -114t-120 -32h-372q-74 0 -118 11q-45 11 -84 44l-30 26l-23 -81h-49l124 700h62l-46 -256l35 23q54 35 97 45q40 10 117 10zM816 153l35 202q11 62 -10.5 88.5t-83.5 26.5h-363q-100 0 -174 -45l-59 -38l-45 -256
l46 -37q50 -42 166 -42h370q60 0 85 20q23 20 33 81z" />
    <glyph glyph-name="c" unicode="c" horiz-adv-x="933" 
d="M677 0h-491q-166 0 -136 166l37 212q13 82 51 114q36 30 118 30h491q159 0 137 -166l-4 -23h-61l3 20q9 63 -13 90t-84 27h-457q-61 0 -86 -20q-24 -20 -35 -82l-35 -199q-11 -62 12 -89.5t85 -27.5h457q62 0 87 21q23 19 34 81l7 44h62l-9 -54q-15 -83 -51 -113
q-37 -31 -119 -31z" />
    <glyph glyph-name="d" unicode="d" horiz-adv-x="964" 
d="M858 445l45 255h63l-124 -700h-50l6 80l-39 -25q-54 -35 -96 -45q-41 -10 -118 -10h-363q-161 0 -133 162l38 214q14 83 52 115q37 31 119 31h372q79 0 119 -10q43 -11 83 -45zM744 97l59 38l45 256l-46 37q-50 42 -166 42h-370q-61 0 -84 -20q-23 -19 -34 -81l-36 -202
q-11 -62 11 -88.5t84 -26.5h362q101 0 175 45z" />
    <glyph glyph-name="e" unicode="e" horiz-adv-x="944" 
d="M258 522h504q81 0 113.5 -39t18.5 -121l-16 -100h-749l-17 -99q-11 -62 9 -87t82 -25h495q45 0 65.5 18t29.5 64l8 41h62l-10 -50q-14 -69 -45.5 -96.5t-97.5 -27.5h-528q-160 0 -133 162l37 214q15 83 53 115q37 31 119 31zM148 368l-10 -59h687l8 52q10 63 -9.5 87.5
t-81.5 24.5h-472q-61 0 -86 -22q-26 -23 -36 -83z" />
    <glyph glyph-name="f" unicode="f" horiz-adv-x="748" 
d="M797 649h-350q-46 0 -66.5 -17.5t-28.5 -63.5l-19 -107h431l-9 -51h-431l-72 -410h-62l72 410h-217l9 51h217l20 117q12 67 45 94.5t100 27.5h371z" />
    <glyph glyph-name="g" unicode="g" horiz-adv-x="964" 
d="M864 442l23 80h50l-90 -508q-16 -91 -65 -132.5t-140 -41.5h-628l9 50h612q70 0 103.5 28.5t46.5 98.5l17 94l-35 -22q-54 -35 -97 -45q-46 -11 -117 -11h-364q-162 0 -132 161l32 181q14 83 52 115t121 32h371q77 0 118 -10q43 -11 83 -45zM752 130l60 37l6 33l32 191
l-46 38q-52 42 -165 42h-370q-60 0 -85 -20q-23 -19 -34 -81l-29 -171q-11 -63 10 -89t83 -26h363q104 0 175 46z" />
    <glyph glyph-name="h" unicode="h" horiz-adv-x="960" 
d="M416 522h352q166 0 136 -166l-62 -356h-63l62 353q11 62 -11.5 89.5t-84.5 27.5h-351q-103 0 -174 -44l-59 -37l-69 -389h-62l124 700h62l-45 -253l31 20q56 35 98 45q40 10 116 10z" />
    <glyph glyph-name="i" unicode="i" horiz-adv-x="222" 
d="M208 630h-63l13 70h62zM96 0h-62l92 522h63z" />
    <glyph glyph-name="j" unicode="j" horiz-adv-x="322" 
d="M308 630h-63l13 70h62zM46 -160h-244l10 51h223q47 0 66.5 16.5t27.5 63.5l97 551h63l-99 -560q-11 -67 -44 -94.5t-100 -27.5z" />
    <glyph glyph-name="k" unicode="k" horiz-adv-x="853" 
d="M758 522h146l-656 -262l568 -260h-135l-544 252l-45 -252h-63l124 700h63l-76 -430z" />
    <glyph glyph-name="l" unicode="l" horiz-adv-x="222" 
d="M96 0h-62l124 700h62z" />
    <glyph glyph-name="m" unicode="m" horiz-adv-x="1595" 
d="M1108 522h297q163 0 135 -166l-63 -356h-62l62 353q11 62 -12 89.5t-85 27.5h-294q-101 0 -174 -44l-59 -37l-68 -389h-63l62 353q11 62 -11.5 89.5t-84.5 27.5h-294q-103 0 -174 -44l-59 -37l-69 -389h-62l92 522h49l-5 -78l35 23q56 35 98 45q40 10 116 10h297
q117 0 136 -85l46 30q54 35 97 45q41 10 117 10z" />
    <glyph glyph-name="n" unicode="n" horiz-adv-x="960" 
d="M415 522h353q166 0 136 -166l-62 -356h-63l62 353q11 62 -11.5 89.5t-84.5 27.5h-351q-103 0 -174 -44l-59 -37l-69 -389h-62l92 522h49l-5 -78l35 23q56 35 98 45q40 10 116 10z" />
    <glyph glyph-name="o" unicode="o" horiz-adv-x="954" 
d="M698 0h-512q-166 0 -136 166l37 212q13 82 51 114q36 30 118 30h512q81 0 116 -42t21 -124l-37 -212q-15 -83 -51 -113q-37 -31 -119 -31zM209 52h477q62 0 87 21q23 19 34 81l35 199q11 62 -12 89.5t-85 27.5h-477q-61 0 -86 -20q-24 -20 -35 -82l-35 -199
q-11 -62 12 -89.5t85 -27.5z" />
    <glyph glyph-name="p" unicode="p" horiz-adv-x="964" 
d="M419 522h363q162 0 133 -162l-38 -214q-13 -82 -51 -114t-120 -32h-372q-74 0 -118 11q-45 11 -84 44l-26 22l-42 -237h-62l120 682h49l-4 -80l38 25q54 35 97 45q40 10 117 10zM816 153l35 202q11 62 -10.5 88.5t-83.5 26.5h-363q-100 0 -174 -45l-59 -38l-45 -256
l46 -37q50 -42 166 -42h370q60 0 85 20q23 20 33 81z" />
    <glyph glyph-name="q" unicode="q" horiz-adv-x="964" 
d="M861 442l24 80h49l-120 -682h-63l42 237l-34 -22q-54 -35 -96 -45q-41 -10 -118 -10h-363q-161 0 -133 162l38 214q14 83 52 115q37 31 119 31h372q79 0 119 -10q43 -11 83 -45zM744 97l59 38l45 256l-46 37q-50 42 -166 42h-370q-61 0 -84 -20q-23 -19 -34 -81l-36 -202
q-11 -62 11 -88.5t84 -26.5h362q101 0 175 45z" />
    <glyph glyph-name="r" unicode="r" horiz-adv-x="636" 
d="M418 522h245l-10 -54h-260q-103 0 -174 -44l-59 -37l-68 -387h-62l92 522h46l-4 -78l36 23q56 35 99 45q41 10 119 10z" />
    <glyph glyph-name="s" unicode="s" horiz-adv-x="934" 
d="M40 115l7 38h61l-6 -36q-11 -68 57 -68h549q33 0 49 14t22 46l10 59q6 36 -7 52.5t-48 18.5l-546 29q-110 6 -91 112l8 40q10 53 38.5 77.5t80.5 24.5h562q52 0 78 -31t16 -83l-7 -36h-61l6 34q10 67 -56 67h-526q-32 0 -48.5 -14.5t-22.5 -46.5l-4 -24q-13 -68 54 -72
l546 -29q54 -2 78 -31.5t14 -82.5l-14 -73q-17 -100 -117 -100h-588q-51 0 -76.5 31t-17.5 84z" />
    <glyph glyph-name="t" unicode="t" horiz-adv-x="768" 
d="M776 471h-440l-58 -330q-8 -47 9.5 -68t64.5 -21h350l-9 -52h-366q-136 0 -112 136l58 335h-216l8 51h217l35 120h49l-21 -120h439z" />
    <glyph glyph-name="u" unicode="u" horiz-adv-x="960" 
d="M868 522h62l-92 -522h-49l5 78l-35 -23q-56 -35 -97 -45t-117 -10h-353q-166 0 -136 166l62 356h63l-62 -353q-11 -62 11.5 -89.5t84.5 -27.5h351q103 0 174 44l59 37z" />
    <glyph glyph-name="v" unicode="v" horiz-adv-x="908" 
d="M414 57l452 465h80l-512 -522h-53l-327 522h73z" />
    <glyph glyph-name="w" unicode="w" horiz-adv-x="1254" 
d="M876 66l342 456h73l-396 -522h-54l-181 453l-341 -453h-52l-212 522h68l180 -456l342 456h50z" />
    <glyph glyph-name="x" unicode="x" horiz-adv-x="892" 
d="M67 0h-106l437 266l-334 256h97l288 -222l365 222h106l-424 -256l341 -266h-96l-297 232z" />
    <glyph glyph-name="y" unicode="y" horiz-adv-x="908" 
d="M414 56l452 466h80l-540 -551q-79 -81 -130 -106t-150 -25h-141l9 52h150q66 0 107 18q40 19 94 76l27 28l-318 508h73z" />
    <glyph glyph-name="z" unicode="z" horiz-adv-x="918" 
d="M826 0h-826l7 38l777 433h-681l9 51h806l-7 -38l-777 -433h701z" />
    <glyph glyph-name="braceleft" unicode="{" horiz-adv-x="704" 
d="M332 628l-33 -187q-14 -73 -70 -92q47 -27 35 -102l-28 -161q-23 -135 111 -135h265l-9 -51h-274q-86 0 -126.5 49.5t-25.5 135.5l29 172q12 68 -56 68h-100l8 50h105q66 0 76 64l34 196q15 88 60.5 126.5t133.5 38.5h294l-9 -51h-279q-64 0 -97 -28t-44 -93z" />
    <glyph glyph-name="bar" unicode="|" horiz-adv-x="229" 
d="M23 -100l158 900h57l-158 -900h-57z" />
    <glyph glyph-name="braceright" unicode="}" horiz-adv-x="704" 
d="M586 375h100l-8 -50h-105q-66 0 -76 -64l-34 -196q-15 -88 -60.5 -126.5t-133.5 -38.5h-294l9 51h279q64 0 97 28t44 93l33 187q14 73 70 92q-47 27 -35 102l28 161q23 135 -111 135h-265l9 51h274q86 0 126.5 -49.5t25.5 -135.5l-29 -172q-12 -68 56 -68z" />
    <glyph glyph-name="asciitilde" unicode="~" 
d="M403 466l312 -201q32 -22 80 -22h53q25 0 37 10t17 36l38 215h58l-38 -217q-9 -50 -33 -70.5t-74 -20.5h-64q-46 0 -67 7q-25 7 -61 31l-312 202q-35 21 -80 21h-53q-25 0 -37 -10t-17 -36l-38 -215h-58l38 217q9 50 33 70.5t74 20.5h64q43 0 66 -6q27 -9 62 -32z" />
    <glyph glyph-name="exclamdown" unicode="&#xa1;" horiz-adv-x="236" 
d="M154 700h84l-13 -77h-84zM191 529l-81 -529h-73l105 529h49z" />
    <glyph glyph-name="cent" unicode="&#xa2;" 
d="M623 700h242q164 0 134 -164l-7 -40h-62l7 37q10 62 -12 88.5t-84 26.5h-526q-60 0 -84 -21q-26 -21 -36 -82l-45 -248q-11 -62 11 -88.5t84 -26.5h528q60 0 84 21q25 22 35 82l12 59h62l-13 -68q-15 -83 -51 -115q-37 -31 -119 -31h-261l-18 -100h-53l18 100h-248
q-164 0 -134 164l46 260q16 84 52 115q35 31 118 31h267l17 100h53z" />
    <glyph glyph-name="sterling" unicode="&#xa3;" horiz-adv-x="1072" 
d="M383 700h502q89 0 128 -47t23 -137l-7 -43h-63l7 41q12 70 -14.5 102t-95.5 32h-469q-68 0 -99.5 -26.5t-43.5 -96.5l-26 -148h560l-9 -46h-559l-50 -278h643q47 0 67.5 17.5t28.5 64.5l14 76h62l-15 -87q-12 -67 -46 -95.5t-101 -28.5h-847l10 53h121l50 278h-133l9 46
h132l28 159q16 90 59.5 127t133.5 37z" />
    <glyph glyph-name="currency" unicode="&#xa4;" 
d="M926 423l-30 -166q-9 -48 -29 -81l82 -98l-37 -31l-76 93q-44 -35 -118 -35h-439q-72 0 -111 42l-118 -100l-30 36l123 105q-14 40 -5 89l30 166q9 51 28 80l-81 99l37 31l76 -93q44 35 118 35h438q73 0 112 -42l118 100l29 -36l-122 -105q14 -40 5 -89zM298 156h411
q60 0 90.5 26.5t41.5 86.5l26 151q11 60 -15 92t-86 32h-412q-60 0 -90 -26.5t-41 -86.5l-26 -151q-11 -60 15 -92t86 -32z" />
    <glyph glyph-name="yen" unicode="&#xa5;" 
d="M984 700h89l-485 -404h384l-8 -43h-418l-20 -111h418l-7 -43h-418l-18 -99h-63l18 99h-417l7 43h417l20 111h-417l8 43h382l-341 404h81l326 -392z" />
    <glyph glyph-name="brokenbar" unicode="&#xa6;" horiz-adv-x="229" 
d="M126 487l55 313h57l-55 -313h-57zM23 -100l55 313h57l-55 -313h-57z" />
    <glyph glyph-name="section" unicode="&#xa7;" horiz-adv-x="1214" 
d="M374 531l679 -43q133 -9 111 -136l-12 -69q-12 -66 -43.5 -93t-96.5 -27h-11q16 -34 6 -82l-12 -59q-13 -67 -45 -94.5t-97 -27.5h-590q-65 0 -95.5 36t-20.5 102l5 35h63l-5 -31q-7 -48 10.5 -69.5t64.5 -21.5h553q45 0 65 17t29 63l9 45q9 45 -7.5 67.5t-62.5 25.5
l-679 43q-133 9 -110 137l12 68q11 65 42.5 92.5t96.5 27.5h11q-15 32 -5 83l11 58q14 67 46 94.5t97 27.5h590q65 0 95.5 -36t20.5 -102l-6 -35h-63l5 31q8 47 -10 69t-65 22h-552q-45 0 -65.5 -17.5t-29.5 -62.5l-9 -45q-9 -45 8 -67.5t62 -25.5zM1088 289l10 58
q8 45 -7.5 66.5t-60.5 24.5l-680 43q-28 1 -49 9h-51q-45 0 -65 -17t-28 -62l-10 -58q-8 -45 7.5 -66.5t60.5 -24.5l680 -43q28 -1 49 -9h52q45 0 64.5 17t27.5 62z" />
    <glyph glyph-name="dieresis" unicode="&#xa8;" horiz-adv-x="408" 
d="M193 597h-57l12 67h57zM436 597h-57l12 67h57z" />
    <glyph glyph-name="copyright" unicode="&#xa9;" horiz-adv-x="1195" 
d="M905 0h-583q-106 0 -162.5 56.5t-56.5 162.5v262q0 106 56.5 162.5t162.5 56.5h583q106 0 163 -56.5t57 -162.5v-262q0 -106 -57 -162.5t-163 -56.5zM329 39h569q183 0 183 183v256q0 183 -183 183h-569q-183 0 -183 -183v-256q0 -183 183 -183zM873 135h-519
q-58 0 -85 27t-27 85v206q0 58 27 85t85 27h519q58 0 85.5 -27t27.5 -85v-38h-55v34q0 38 -15 53.5t-54 15.5h-496q-39 0 -54 -15.5t-15 -53.5v-198q0 -38 15 -53.5t54 -15.5h496q39 0 54 15.5t15 53.5v41h55v-45q0 -58 -27.5 -85t-85.5 -27z" />
    <glyph glyph-name="ordfeminine" unicode="&#xaa;" horiz-adv-x="570" 
d="M207 700h301q100 0 82 -98l-39 -216h-40l1 45l-22 -13q-32 -21 -52 -26q-21 -6 -61 -6h-240q-36 0 -54 20.5t-11 56.5l6 33q7 37 26.5 53.5t56.5 16.5h371l6 31q6 35 -4.5 49t-44.5 14h-271q-24 0 -35.5 -10t-17.5 -35l-4 -14h-51l5 22q9 42 30 59.5t62 17.5zM473 447
l42 25l9 47l2 11h-348q-25 0 -35.5 -8.5t-14.5 -32.5l-3 -17q-4 -25 4 -36t32 -11h233q42 0 79 22z" />
    <glyph glyph-name="guillemotleft" unicode="&#xab;" horiz-adv-x="1267" 
d="M578 121l-506 217l8 42l579 197l-11 -65l-496 -157l438 -175zM685 380l579 197l-11 -65l-496 -157l438 -175l-12 -59l-506 217z" />
    <glyph glyph-name="logicalnot" unicode="&#xac;" 
d="M910 323h-822l10 54h878l-42 -237h-57z" />
    <glyph glyph-name="uni00AD" unicode="&#xad;" horiz-adv-x="660" 
d="M68 323l9 54h546l-9 -54h-546z" />
    <glyph glyph-name="registered" unicode="&#xae;" horiz-adv-x="393" 
d="M195 700h105q53 0 78.5 -25t25.5 -79v-92q0 -104 -104 -104h-105q-104 0 -104 104v92q0 54 25.5 79t78.5 25zM372 506v88q0 42 -17 59t-59 17h-97q-42 0 -59 -16.5t-17 -59.5v-88q0 -41 17 -58.5t59 -17.5h97q41 0 58.5 17.5t17.5 58.5zM287 528h-4l45 -56h-36l-44 55
h-37v-55h-33v155h109q18 0 25.5 -7.5t7.5 -26.5v-31q0 -19 -7.5 -26.5t-25.5 -7.5zM275 598h-64v-42h64q8 0 10 2.5t2 10.5v15q0 9 -2 11.5t-10 2.5z" />
    <glyph glyph-name="overscore" unicode="&#xaf;" horiz-adv-x="520" 
d="M588 620h-448l7 43h448z" />
    <glyph glyph-name="degree" unicode="&#xb0;" horiz-adv-x="422" 
d="M283 375h-90q-56 0 -84.5 34.5t-18.5 89.5l17 89q19 112 130 112h90q57 0 85 -33.5t18 -90.5l-16 -89q-21 -112 -131 -112zM202 420h79q39 0 59 17.5t27 56.5l16 84q14 77 -64 77h-79q-39 0 -59 -17t-27 -57l-16 -83q-13 -78 64 -78z" />
    <glyph glyph-name="plusminus" unicode="&#xb1;" 
d="M617 664l-38 -214h410l-10 -52h-409l-38 -214h-59l38 214h-410l10 52h409l38 214h59zM915 36h-878l10 51h878z" />
    <glyph glyph-name="uni00B2" unicode="&#xb2;" horiz-adv-x="658" 
d="M601 328l-9 -48h-526l22 129q7 42 26.5 59t63.5 21l363 31q27 3 36.5 12t14.5 34l7 40q9 49 -41 49h-319q-25 0 -35 -9t-15 -35l-5 -26h-55l6 39q7 42 27.5 59t63.5 17h359q41 0 60 -22.5t12 -65.5l-9 -56q-7 -42 -26.5 -59t-63.5 -21l-363 -31q-27 -3 -37 -12t-14 -34
l-12 -71h469z" />
    <glyph glyph-name="uni00B3" unicode="&#xb3;" horiz-adv-x="658" 
d="M221 700h360q42 0 60.5 -22.5t10.5 -64.5l-8 -45q-10 -57 -50 -70q40 -19 31 -77l-11 -64q-7 -42 -28 -59.5t-63 -17.5h-371q-85 0 -72 88l7 43h56l-6 -37q-7 -48 40 -48h330q25 0 36 9t15 33l11 62q7 48 -41 48h-262l8 43h261q25 0 35.5 9t15.5 35l7 41q11 48 -39 48
h-320q-25 0 -35 -9t-14 -34l-7 -37h-56l8 49q7 42 28 59.5t63 17.5z" />
    <glyph glyph-name="acute" unicode="&#xb4;" horiz-adv-x="336" 
d="M420 700l-214 -121h-76l199 121h91z" />
    <glyph glyph-name="paragraph" unicode="&#xb6;" horiz-adv-x="920" 
d="M102 470l15 84q15 84 52 115t120 31h593l-124 -700h-60l114 648h-253l-114 -648h-60l55 308h-204q-83 0 -115.5 39.5t-18.5 122.5z" />
    <glyph glyph-name="middot" unicode="&#xb7;" horiz-adv-x="236" 
d="M169 309h-84l15 82h84z" />
    <glyph glyph-name="cedilla" unicode="&#xb8;" horiz-adv-x="320" 
d="M219 -160h-235l6 37h224q9 0 12.5 3t5.5 12l4 19q5 17 -14 17h-144l2 15l43 77h38l-31 -56h108q52 0 43 -53l-4 -22q-5 -29 -17.5 -39t-40.5 -10z" />
    <glyph glyph-name="uni00B9" unicode="&#xb9;" horiz-adv-x="622" 
d="M431 700l-66 -373h225l-8 -47h-535l9 47h251l58 323l-237 -16l8 48l268 18h27z" />
    <glyph glyph-name="ordmasculine" unicode="&#xba;" horiz-adv-x="572" 
d="M465 386h-304q-102 0 -84 103l21 121q9 51 33 70.5t75 19.5h304q102 0 84 -102l-21 -121q-9 -51 -33 -71t-75 -20zM180 430h275q34 0 47.5 11.5t20.5 46.5l19 105q6 35 -5 49.5t-45 14.5h-275q-34 0 -48 -12t-21 -46l-19 -106q-6 -34 5.5 -48.5t45.5 -14.5z" />
    <glyph glyph-name="guillemotright" unicode="&#xbb;" horiz-adv-x="1267" 
d="M542 343l-438 175l12 59l506 -217l-8 -42l-579 -197l11 65zM709 518l12 59l506 -217l-8 -42l-579 -197l11 65l496 157z" />
    <glyph glyph-name="onequarter" unicode="&#xbc;" horiz-adv-x="1376" 
d="M365 327h225l-8 -47h-535l9 47h251l58 323l-237 -16l8 48l268 18h27zM301 0l867 700h65l-867 -700h-65zM1166 150h146l-7 -44h-146l-19 -106h-56l19 106h-387l6 37l426 277h66zM1150 373l-343 -223h304z" />
    <glyph glyph-name="onehalf" unicode="&#xbd;" horiz-adv-x="1488" 
d="M365 327h225l-8 -47h-535l9 47h251l58 323l-237 -16l8 48l268 18h27zM301 0l867 700h65l-867 -700h-65zM1006 420h359q41 0 60 -22.5t12 -65.5l-9 -56q-7 -42 -26.5 -59t-63.5 -21l-363 -31q-27 -3 -37 -12t-14 -34l-12 -71h469l-9 -48h-526l22 129q7 42 26.5 59t63.5 21
l363 31q27 3 36.5 12t14.5 34l7 40q9 49 -41 49h-319q-25 0 -35 -9t-15 -35l-5 -26h-55l6 39q7 42 27.5 59t63.5 17z" />
    <glyph glyph-name="threequarters" unicode="&#xbe;" horiz-adv-x="1412" 
d="M625 421l-11 -64q-7 -42 -28 -59.5t-63 -17.5h-371q-85 0 -72 88l7 43h56l-6 -37q-7 -48 40 -48h330q25 0 36 9t15 33l11 62q7 48 -41 48h-262l8 43h261q25 0 35.5 9t15.5 35l7 41q11 48 -39 48h-320q-25 0 -35 -9t-14 -34l-7 -37h-56l8 49q7 42 28 59.5t63 17.5h360
q42 0 60.5 -22.5t10.5 -64.5l-8 -45q-10 -57 -50 -70q40 -19 31 -77zM338 0l867 700h65l-867 -700h-65zM1203 150h146l-7 -44h-146l-19 -106h-56l19 106h-387l6 37l426 277h66zM1187 373l-343 -223h304z" />
    <glyph glyph-name="questiondown" unicode="&#xbf;" horiz-adv-x="970" 
d="M557 700h84l-14 -74h-84zM539 532h61l-16 -88q-12 -66 -41 -94t-94 -35l-239 -24q-48 -4 -70.5 -24.5t-30.5 -67.5l-10 -56q-16 -91 78 -91h559q44 0 64 18t29 64l9 50h62l-10 -62q-12 -67 -44 -94.5t-98 -27.5h-597q-66 0 -96.5 36t-19.5 102l12 70q11 64 46.5 95
t106.5 39l237 23q43 4 61.5 23t26.5 66z" />
    <glyph glyph-name="Agrave" unicode="&#xc0;" horiz-adv-x="1082" 
d="M505 878l155 -121h-66l-171 121h82zM1037 0h-69l-107 195h-658l-176 -195h-74l633 700h66zM613 650l-362 -402h581z" />
    <glyph glyph-name="Aacute" unicode="&#xc1;" horiz-adv-x="1082" 
d="M792 878h91l-214 -121h-76zM1037 0h-69l-107 195h-658l-176 -195h-74l633 700h66zM613 650l-362 -402h581z" />
    <glyph glyph-name="Acircumflex" unicode="&#xc2;" horiz-adv-x="1082" 
d="M771 757l-122 87l-153 -87h-70l189 121h72l145 -121h-61zM1037 0h-69l-107 195h-658l-176 -195h-74l633 700h66zM613 650l-362 -402h581z" />
    <glyph glyph-name="Atilde" unicode="&#xc3;" horiz-adv-x="1082" 
d="M492 821l-12 -64h-47l13 72q5 27 18 38t40 11h71q24 0 35.5 -4t25.5 -19l47 -48q13 -13 34 -13h48q18 0 23 20l11 64h48l-13 -72q-5 -27 -18 -38t-40 -11h-71q-24 0 -35.5 4.5t-25.5 19.5l-48 47q-13 13 -34 13h-47q-20 0 -23 -20zM1037 0h-69l-107 195h-658l-176 -195
h-74l633 700h66zM613 650l-362 -402h581z" />
    <glyph glyph-name="Adieresis" unicode="&#xc4;" horiz-adv-x="1082" 
d="M494 842h57l-12 -67h-57zM737 842h57l-12 -67h-57zM1037 0h-69l-107 195h-658l-176 -195h-74l633 700h66zM613 650l-362 -402h581z" />
    <glyph glyph-name="Aring" unicode="&#xc5;" horiz-adv-x="1082" 
d="M752 747h-245q-55 0 -46 55l4 25q4 29 17 40t43 11h246q55 0 46 -55l-4 -25q-4 -29 -17.5 -40t-43.5 -11zM505 822l-3 -17q-2 -13 1.5 -18t16.5 -5h228q13 0 17.5 4t6.5 17l3 17q4 24 -17 24h-228q-13 0 -18 -4.5t-7 -17.5zM1037 0h-69l-107 195h-658l-176 -195h-74
l633 700h66zM613 650l-362 -402h581z" />
    <glyph glyph-name="AE" unicode="&#xc6;" horiz-adv-x="1571" 
d="M1601 700l-10 -52h-910l140 -255h686l-9 -49h-651l160 -292h490l-10 -52h-521l-106 195h-657l-176 -195h-74l633 700h1015zM613 650l-362 -402h580z" />
    <glyph glyph-name="Ccedilla" unicode="&#xc7;" horiz-adv-x="1070" 
d="M308 700h593q89 0 128 -47t23 -137l-9 -54h-64l9 50q13 69 -14 101.5t-96 32.5h-557q-69 0 -100.5 -27t-43.5 -96l-59 -335q-12 -69 14.5 -101.5t95.5 -32.5h557q69 0 100 27t44 96l12 70h63l-14 -83q-16 -90 -59.5 -127t-133.5 -37h-297l-20 -36h108q52 0 43 -53l-4 -22
q-5 -29 -17.5 -39t-40.5 -10h-235l6 37h224q9 0 12.5 3t5.5 12l4 19q5 17 -14 17h-144l2 15l32 57h-258q-89 0 -128 47t-23 137l62 352q16 90 59.5 127t133.5 37z" />
    <glyph glyph-name="Egrave" unicode="&#xc8;" horiz-adv-x="974" 
d="M451 878l155 -121h-66l-171 121h82zM1004 700l-10 -54h-786l-44 -252h746l-10 -51h-745l-51 -289h796l-10 -54h-860l124 700h850z" />
    <glyph glyph-name="Eacute" unicode="&#xc9;" horiz-adv-x="974" 
d="M738 878h91l-214 -121h-76zM1004 700l-10 -54h-786l-44 -252h746l-10 -51h-745l-51 -289h796l-10 -54h-860l124 700h850z" />
    <glyph glyph-name="Ecircumflex" unicode="&#xca;" horiz-adv-x="974" 
d="M717 757l-122 87l-153 -87h-70l189 121h72l145 -121h-61zM1004 700l-10 -54h-786l-44 -252h746l-10 -51h-745l-51 -289h796l-10 -54h-860l124 700h850z" />
    <glyph glyph-name="Edieresis" unicode="&#xcb;" horiz-adv-x="974" 
d="M440 842h57l-12 -67h-57zM683 842h57l-12 -67h-57zM1004 700l-10 -54h-786l-44 -252h746l-10 -51h-745l-51 -289h796l-10 -54h-860l124 700h850z" />
    <glyph glyph-name="Igrave" unicode="&#xcc;" horiz-adv-x="228" 
d="M233 757h-66l-171 121h82zM36 0l124 700h64l-124 -700h-64z" />
    <glyph glyph-name="Iacute" unicode="&#xcd;" horiz-adv-x="228" 
d="M456 878l-214 -121h-76l199 121h91zM36 0l124 700h64l-124 -700h-64z" />
    <glyph glyph-name="Icircumflex" unicode="&#xce;" horiz-adv-x="228" 
d="M69 757h-70l189 121h72l145 -121h-61l-122 87zM36 0l124 700h64l-124 -700h-64z" />
    <glyph glyph-name="Idieresis" unicode="&#xcf;" horiz-adv-x="228" 
d="M112 775h-57l12 67h57zM355 775h-57l12 67h57zM36 0l124 700h64l-124 -700h-64z" />
    <glyph glyph-name="Eth" unicode="&#xd0;" horiz-adv-x="1154" 
d="M214 700h723q105 0 156 -62t32 -167l-48 -270q-19 -107 -74.5 -154t-161.5 -47h-751l58 327h-98l8 46h98zM1015 209l46 263q15 84 -22 129t-121 45h-650l-48 -273h462l-8 -46h-462l-48 -273h669q83 0 125.5 36.5t56.5 118.5z" />
    <glyph glyph-name="Ntilde" unicode="&#xd1;" horiz-adv-x="1104" 
d="M502 821l-12 -64h-47l13 72q5 27 18 38t40 11h71q24 0 35.5 -4t25.5 -19l47 -48q13 -13 34 -13h48q18 0 23 20l11 64h48l-13 -72q-5 -27 -18 -38t-40 -11h-71q-24 0 -35.5 4.5t-25.5 19.5l-48 47q-13 13 -34 13h-47q-20 0 -23 -20zM932 74l111 626h63l-124 -700h-50
l-728 629l-111 -629h-63l124 700h54z" />
    <glyph glyph-name="Ograve" unicode="&#xd2;" horiz-adv-x="1094" 
d="M666 757h-66l-171 121h82zM818 0h-614q-89 0 -128 47t-23 137l62 352q16 90 59.5 127t133.5 37h614q89 0 128 -47t23 -137l-62 -352q-16 -90 -59.5 -127t-133.5 -37zM229 54h576q70 0 101 27t43 97l59 333q12 70 -14.5 102.5t-95.5 32.5h-577q-69 0 -100.5 -27t-43.5 -97
l-59 -333q-11 -70 15.5 -102.5t95.5 -32.5z" />
    <glyph glyph-name="Oacute" unicode="&#xd3;" horiz-adv-x="1094" 
d="M889 878l-214 -121h-76l199 121h91zM818 0h-614q-89 0 -128 47t-23 137l62 352q16 90 59.5 127t133.5 37h614q89 0 128 -47t23 -137l-62 -352q-16 -90 -59.5 -127t-133.5 -37zM229 54h576q70 0 101 27t43 97l59 333q12 70 -14.5 102.5t-95.5 32.5h-577q-69 0 -100.5 -27
t-43.5 -97l-59 -333q-11 -70 15.5 -102.5t95.5 -32.5z" />
    <glyph glyph-name="Ocircumflex" unicode="&#xd4;" horiz-adv-x="1094" 
d="M502 757h-70l189 121h72l145 -121h-61l-122 87zM818 0h-614q-89 0 -128 47t-23 137l62 352q16 90 59.5 127t133.5 37h614q89 0 128 -47t23 -137l-62 -352q-16 -90 -59.5 -127t-133.5 -37zM229 54h576q70 0 101 27t43 97l59 333q12 70 -14.5 102.5t-95.5 32.5h-577
q-69 0 -100.5 -27t-43.5 -97l-59 -333q-11 -70 15.5 -102.5t95.5 -32.5z" />
    <glyph glyph-name="Otilde" unicode="&#xd5;" horiz-adv-x="1094" 
d="M486 757h-47l13 72q5 27 18 38t40 11h71q24 0 35.5 -4t25.5 -19l47 -48q13 -13 34 -13h48q18 0 23 20l11 64h48l-13 -72q-5 -27 -18 -38t-40 -11h-71q-24 0 -35.5 4.5t-25.5 19.5l-48 47q-13 13 -34 13h-47q-20 0 -23 -20zM818 0h-614q-89 0 -128 47t-23 137l62 352
q16 90 59.5 127t133.5 37h614q89 0 128 -47t23 -137l-62 -352q-16 -90 -59.5 -127t-133.5 -37zM229 54h576q70 0 101 27t43 97l59 333q12 70 -14.5 102.5t-95.5 32.5h-577q-69 0 -100.5 -27t-43.5 -97l-59 -333q-11 -70 15.5 -102.5t95.5 -32.5z" />
    <glyph glyph-name="Odieresis" unicode="&#xd6;" horiz-adv-x="1094" 
d="M545 775h-57l12 67h57zM788 775h-57l12 67h57zM818 0h-614q-89 0 -128 47t-23 137l62 352q16 90 59.5 127t133.5 37h614q89 0 128 -47t23 -137l-62 -352q-16 -90 -59.5 -127t-133.5 -37zM229 54h576q70 0 101 27t43 97l59 333q12 70 -14.5 102.5t-95.5 32.5h-577
q-69 0 -100.5 -27t-43.5 -97l-59 -333q-11 -70 15.5 -102.5t95.5 -32.5z" />
    <glyph glyph-name="multiply" unicode="&#xd7;" 
d="M958 628l26 -47l-404 -234l322 -236l-35 -39l-336 247l-426 -247l-26 47l405 234l-322 236l35 39l336 -246z" />
    <glyph glyph-name="Oslash" unicode="&#xd8;" horiz-adv-x="1094" 
d="M1141 730l-99 -70q49 -46 31 -145l-62 -351q-16 -90 -59.5 -127t-133.5 -37h-613q-45 0 -82 14l-62 -44h-76l99 70q-49 46 -31 145l62 351q16 90 59.5 127t133.5 37h613q45 0 82 -14l62 44h76zM176 523l-59 -335q-13 -78 22 -110l803 565q-15 4 -43 4h-579
q-69 0 -100.5 -27t-43.5 -97zM950 177l59 335q13 78 -22 110l-803 -565q15 -4 43 -4h579q69 0 100.5 27t43.5 97z" />
    <glyph glyph-name="Ugrave" unicode="&#xd9;" horiz-adv-x="1065" 
d="M651 757h-66l-171 121h82zM788 0h-584q-88 0 -127.5 47t-23.5 137l91 516h64l-89 -510q-12 -70 14.5 -102.5t95.5 -32.5h547q69 0 100.5 27t43.5 97l92 521h64l-95 -536q-16 -90 -59.5 -127t-133.5 -37z" />
    <glyph glyph-name="Uacute" unicode="&#xda;" horiz-adv-x="1065" 
d="M874 878l-214 -121h-76l199 121h91zM788 0h-584q-88 0 -127.5 47t-23.5 137l91 516h64l-89 -510q-12 -70 14.5 -102.5t95.5 -32.5h547q69 0 100.5 27t43.5 97l92 521h64l-95 -536q-16 -90 -59.5 -127t-133.5 -37z" />
    <glyph glyph-name="Ucircumflex" unicode="&#xdb;" horiz-adv-x="1065" 
d="M487 757h-70l189 121h72l145 -121h-61l-122 87zM788 0h-584q-88 0 -127.5 47t-23.5 137l91 516h64l-89 -510q-12 -70 14.5 -102.5t95.5 -32.5h547q69 0 100.5 27t43.5 97l92 521h64l-95 -536q-16 -90 -59.5 -127t-133.5 -37z" />
    <glyph glyph-name="Udieresis" unicode="&#xdc;" horiz-adv-x="1065" 
d="M530 775h-57l12 67h57zM773 775h-57l12 67h57zM788 0h-584q-88 0 -127.5 47t-23.5 137l91 516h64l-89 -510q-12 -70 14.5 -102.5t95.5 -32.5h547q69 0 100.5 27t43.5 97l92 521h64l-95 -536q-16 -90 -59.5 -127t-133.5 -37z" />
    <glyph glyph-name="Yacute" unicode="&#xdd;" horiz-adv-x="1008" 
d="M754 878h91l-214 -121h-76zM996 700h91l-551 -440l-46 -260h-64l46 260l-395 440h83l350 -393z" />
    <glyph glyph-name="Thorn" unicode="&#xde;" horiz-adv-x="1026" 
d="M196 575h684q164 0 135 -164l-21 -120q-15 -83 -51 -115q-37 -31 -119 -31h-704l-26 -145h-64l124 700h64zM930 299l20 108q11 62 -11.5 89t-84.5 27h-667l-58 -327h683q60 0 84 21q24 22 34 82z" />
    <glyph glyph-name="germandbls" unicode="&#xdf;" horiz-adv-x="966" 
d="M277 700h546q66 0 95 -34.5t18 -101.5l-15 -84q-15 -89 -76 -111q72 -25 55 -125l-21 -120q-11 -66 -45.5 -95t-101.5 -29h-327l10 51h305q46 0 68 18.5t30 64.5l21 121q8 46 -10 67.5t-65 21.5h-298l9 49h286q46 0 67.5 18t29.5 64l14 84q9 47 -9 68.5t-65 21.5h-509
q-46 0 -68 -18.5t-29 -64.5l-100 -566h-62l100 576q12 67 46 95.5t101 28.5z" />
    <glyph glyph-name="agrave" unicode="&#xe0;" horiz-adv-x="950" 
d="M417 700l155 -121h-66l-171 121h82zM258 522h504q162 0 134 -162l-64 -360h-50l6 80l-50 -31q-50 -31 -87 -40q-36 -9 -101 -9h-401q-60 0 -88.5 34.5t-17.5 94.5l9 49q12 63 42 88.5t91 25.5h636l12 67q11 64 -9.5 89t-84.5 25h-470q-46 0 -67 -18t-28 -63l-5 -31h-62
l7 39q13 67 45.5 94.5t98.5 27.5zM723 88l70 43l11 61l10 55h-613q-43 0 -62.5 -16.5t-26.5 -58.5l-6 -39q-7 -45 9.5 -65t61.5 -20h398q81 0 148 40z" />
    <glyph glyph-name="aacute" unicode="&#xe1;" horiz-adv-x="950" 
d="M704 700h91l-214 -121h-76zM258 522h504q162 0 134 -162l-64 -360h-50l6 80l-50 -31q-50 -31 -87 -40q-36 -9 -101 -9h-401q-60 0 -88.5 34.5t-17.5 94.5l9 49q12 63 42 88.5t91 25.5h636l12 67q11 64 -9.5 89t-84.5 25h-470q-46 0 -67 -18t-28 -63l-5 -31h-62l7 39
q13 67 45.5 94.5t98.5 27.5zM723 88l70 43l11 61l10 55h-613q-43 0 -62.5 -16.5t-26.5 -58.5l-6 -39q-7 -45 9.5 -65t61.5 -20h398q81 0 148 40z" />
    <glyph glyph-name="acircumflex" unicode="&#xe2;" horiz-adv-x="950" 
d="M683 579l-122 87l-153 -87h-70l189 121h72l145 -121h-61zM258 522h504q162 0 134 -162l-64 -360h-50l6 80l-50 -31q-50 -31 -87 -40q-36 -9 -101 -9h-401q-60 0 -88.5 34.5t-17.5 94.5l9 49q12 63 42 88.5t91 25.5h636l12 67q11 64 -9.5 89t-84.5 25h-470q-46 0 -67 -18
t-28 -63l-5 -31h-62l7 39q13 67 45.5 94.5t98.5 27.5zM723 88l70 43l11 61l10 55h-613q-43 0 -62.5 -16.5t-26.5 -58.5l-6 -39q-7 -45 9.5 -65t61.5 -20h398q81 0 148 40z" />
    <glyph glyph-name="atilde" unicode="&#xe3;" horiz-adv-x="950" 
d="M404 643l-12 -64h-47l13 72q5 27 18 38t40 11h71q24 0 35.5 -4t25.5 -19l47 -48q13 -13 34 -13h48q18 0 23 20l11 64h48l-13 -72q-5 -27 -18 -38t-40 -11h-71q-24 0 -35.5 4.5t-25.5 19.5l-48 47q-13 13 -34 13h-47q-20 0 -23 -20zM258 522h504q162 0 134 -162l-64 -360
h-50l6 80l-50 -31q-50 -31 -87 -40q-36 -9 -101 -9h-401q-60 0 -88.5 34.5t-17.5 94.5l9 49q12 63 42 88.5t91 25.5h636l12 67q11 64 -9.5 89t-84.5 25h-470q-46 0 -67 -18t-28 -63l-5 -31h-62l7 39q13 67 45.5 94.5t98.5 27.5zM723 88l70 43l11 61l10 55h-613
q-43 0 -62.5 -16.5t-26.5 -58.5l-6 -39q-7 -45 9.5 -65t61.5 -20h398q81 0 148 40z" />
    <glyph glyph-name="adieresis" unicode="&#xe4;" horiz-adv-x="950" 
d="M406 664h57l-12 -67h-57zM649 664h57l-12 -67h-57zM258 522h504q162 0 134 -162l-64 -360h-50l6 80l-50 -31q-50 -31 -87 -40q-36 -9 -101 -9h-401q-60 0 -88.5 34.5t-17.5 94.5l9 49q12 63 42 88.5t91 25.5h636l12 67q11 64 -9.5 89t-84.5 25h-470q-46 0 -67 -18
t-28 -63l-5 -31h-62l7 39q13 67 45.5 94.5t98.5 27.5zM723 88l70 43l11 61l10 55h-613q-43 0 -62.5 -16.5t-26.5 -58.5l-6 -39q-7 -45 9.5 -65t61.5 -20h398q81 0 148 40z" />
    <glyph glyph-name="aring" unicode="&#xe5;" horiz-adv-x="950" 
d="M664 569h-245q-55 0 -46 55l4 25q4 29 17 40t43 11h246q55 0 46 -55l-4 -25q-4 -29 -17.5 -40t-43.5 -11zM417 644l-3 -17q-2 -13 1.5 -18t16.5 -5h228q13 0 17.5 4t6.5 17l3 17q4 24 -17 24h-228q-13 0 -18 -4.5t-7 -17.5zM258 522h504q162 0 134 -162l-64 -360h-50
l6 80l-50 -31q-50 -31 -87 -40q-36 -9 -101 -9h-401q-60 0 -88.5 34.5t-17.5 94.5l9 49q12 63 42 88.5t91 25.5h636l12 67q11 64 -9.5 89t-84.5 25h-470q-46 0 -67 -18t-28 -63l-5 -31h-62l7 39q13 67 45.5 94.5t98.5 27.5zM723 88l70 43l11 61l10 55h-613
q-43 0 -62.5 -16.5t-26.5 -58.5l-6 -39q-7 -45 9.5 -65t61.5 -20h398q81 0 148 40z" />
    <glyph glyph-name="ae" unicode="&#xe6;" horiz-adv-x="1694" 
d="M1013 522h499q81 0 113.5 -39t18.5 -123l-16 -98h-749l-17 -99q-11 -62 9 -87t82 -25h494q45 0 66 18t30 64l8 41h61l-10 -52q-12 -66 -45 -94t-98 -28h-522q-119 0 -135 84l-56 -35q-50 -31 -87 -40q-36 -9 -101 -9h-409q-60 0 -88.5 34.5t-17.5 94.5l9 50
q12 62 42 87.5t91 25.5h636l12 67q11 64 -9.5 89t-84.5 25h-470q-46 0 -67 -18t-28 -63l-5 -31h-62l7 39q13 67 45.5 94.5t98.5 27.5h499q97 0 120 -57q19 31 50 44t86 13zM898 368l-10 -59h686l9 52q10 63 -10 87.5t-82 24.5h-472q-62 0 -86 -21q-25 -22 -35 -84zM723 88
l70 43l21 116h-613q-43 0 -62.5 -16.5t-26.5 -58.5l-6 -39q-7 -45 9.5 -65t61.5 -20h398q81 0 148 40z" />
    <glyph glyph-name="ccedilla" unicode="&#xe7;" horiz-adv-x="933" 
d="M256 522h491q159 0 137 -166l-4 -23h-61l3 20q9 63 -13 90t-84 27h-457q-61 0 -86 -20q-24 -20 -35 -82l-35 -199q-11 -62 12 -89.5t85 -27.5h457q62 0 87 21q23 19 34 81l7 44h62l-9 -54q-15 -83 -51 -113q-37 -31 -119 -31h-246l-20 -36h108q52 0 43 -53l-4 -22
q-5 -29 -17.5 -39t-40.5 -10h-235l6 37h224q9 0 12.5 3t5.5 12l4 19q5 17 -14 17h-144l2 15l32 57h-207q-166 0 -136 166l37 212q13 82 51 114q36 30 118 30z" />
    <glyph glyph-name="egrave" unicode="&#xe8;" horiz-adv-x="944" 
d="M404 700l155 -121h-66l-171 121h82zM258 522h504q81 0 113.5 -39t18.5 -121l-16 -100h-749l-17 -99q-11 -62 9 -87t82 -25h495q45 0 65.5 18t29.5 64l8 41h62l-10 -50q-14 -69 -45.5 -96.5t-97.5 -27.5h-528q-160 0 -133 162l37 214q15 83 53 115q37 31 119 31zM148 368
l-10 -59h687l8 52q10 63 -9.5 87.5t-81.5 24.5h-472q-61 0 -86 -22q-26 -23 -36 -83z" />
    <glyph glyph-name="eacute" unicode="&#xe9;" horiz-adv-x="944" 
d="M691 700h91l-214 -121h-76zM258 522h504q81 0 113.5 -39t18.5 -121l-16 -100h-749l-17 -99q-11 -62 9 -87t82 -25h495q45 0 65.5 18t29.5 64l8 41h62l-10 -50q-14 -69 -45.5 -96.5t-97.5 -27.5h-528q-160 0 -133 162l37 214q15 83 53 115q37 31 119 31zM148 368l-10 -59
h687l8 52q10 63 -9.5 87.5t-81.5 24.5h-472q-61 0 -86 -22q-26 -23 -36 -83z" />
    <glyph glyph-name="ecircumflex" unicode="&#xea;" horiz-adv-x="944" 
d="M670 579l-122 87l-153 -87h-70l189 121h72l145 -121h-61zM258 522h504q81 0 113.5 -39t18.5 -121l-16 -100h-749l-17 -99q-11 -62 9 -87t82 -25h495q45 0 65.5 18t29.5 64l8 41h62l-10 -50q-14 -69 -45.5 -96.5t-97.5 -27.5h-528q-160 0 -133 162l37 214q15 83 53 115
q37 31 119 31zM148 368l-10 -59h687l8 52q10 63 -9.5 87.5t-81.5 24.5h-472q-61 0 -86 -22q-26 -23 -36 -83z" />
    <glyph glyph-name="edieresis" unicode="&#xeb;" horiz-adv-x="944" 
d="M393 664h57l-12 -67h-57zM636 664h57l-12 -67h-57zM258 522h504q81 0 113.5 -39t18.5 -121l-16 -100h-749l-17 -99q-11 -62 9 -87t82 -25h495q45 0 65.5 18t29.5 64l8 41h62l-10 -50q-14 -69 -45.5 -96.5t-97.5 -27.5h-528q-160 0 -133 162l37 214q15 83 53 115
q37 31 119 31zM148 368l-10 -59h687l8 52q10 63 -9.5 87.5t-81.5 24.5h-472q-61 0 -86 -22q-26 -23 -36 -83z" />
    <glyph glyph-name="igrave" unicode="&#xec;" horiz-adv-x="222" 
d="M198 579h-66l-171 121h82zM96 0h-62l92 522h63z" />
    <glyph glyph-name="iacute" unicode="&#xed;" horiz-adv-x="222" 
d="M421 700l-214 -121h-76l199 121h91zM96 0h-62l92 522h63z" />
    <glyph glyph-name="icircumflex" unicode="&#xee;" horiz-adv-x="222" 
d="M34 579h-70l189 121h72l145 -121h-61l-122 87zM96 0h-62l92 522h63z" />
    <glyph glyph-name="idieresis" unicode="&#xef;" horiz-adv-x="222" 
d="M77 597h-57l12 67h57zM320 597h-57l12 67h57zM96 0h-62l92 522h63z" />
    <glyph glyph-name="eth" unicode="&#xf0;" horiz-adv-x="954" 
d="M631 700h146q90 0 130.5 -48.5t24.5 -139.5l-69 -388q-11 -67 -45 -95.5t-100 -28.5h-562q-66 0 -95 35t-17 101l27 153q12 67 45.5 95.5t99.5 28.5h530q74 0 100 -38l24 138q13 71 -14 103.5t-98 32.5h-190l-104 -83h-67l103 83h-286l9 51h340l75 60h68zM803 133l25 144
q8 47 -9.5 66.5t-65.5 19.5h-524q-46 0 -68 -18.5t-29 -63.5l-24 -139q-9 -47 9 -69t65 -22h524q46 0 68 18.5t29 63.5z" />
    <glyph glyph-name="ntilde" unicode="&#xf1;" horiz-adv-x="960" 
d="M399 643l-12 -64h-47l13 72q5 27 18 38t40 11h71q24 0 35.5 -4t25.5 -19l47 -48q13 -13 34 -13h48q18 0 23 20l11 64h48l-13 -72q-5 -27 -18 -38t-40 -11h-71q-24 0 -35.5 4.5t-25.5 19.5l-48 47q-13 13 -34 13h-47q-20 0 -23 -20zM415 522h353q166 0 136 -166l-62 -356
h-63l62 353q11 62 -11.5 89.5t-84.5 27.5h-351q-103 0 -174 -44l-59 -37l-69 -389h-62l92 522h49l-5 -78l35 23q56 35 98 45q40 10 116 10z" />
    <glyph glyph-name="ograve" unicode="&#xf2;" horiz-adv-x="954" 
d="M564 579h-66l-171 121h82zM698 0h-512q-166 0 -136 166l37 212q13 82 51 114q36 30 118 30h512q81 0 116 -42t21 -124l-37 -212q-15 -83 -51 -113q-37 -31 -119 -31zM209 52h477q62 0 87 21q23 19 34 81l35 199q11 62 -12 89.5t-85 27.5h-477q-61 0 -86 -20
q-24 -20 -35 -82l-35 -199q-11 -62 12 -89.5t85 -27.5z" />
    <glyph glyph-name="oacute" unicode="&#xf3;" horiz-adv-x="954" 
d="M787 700l-214 -121h-76l199 121h91zM698 0h-512q-166 0 -136 166l37 212q13 82 51 114q36 30 118 30h512q81 0 116 -42t21 -124l-37 -212q-15 -83 -51 -113q-37 -31 -119 -31zM209 52h477q62 0 87 21q23 19 34 81l35 199q11 62 -12 89.5t-85 27.5h-477q-61 0 -86 -20
q-24 -20 -35 -82l-35 -199q-11 -62 12 -89.5t85 -27.5z" />
    <glyph glyph-name="ocircumflex" unicode="&#xf4;" horiz-adv-x="954" 
d="M400 579h-70l189 121h72l145 -121h-61l-122 87zM698 0h-512q-166 0 -136 166l37 212q13 82 51 114q36 30 118 30h512q81 0 116 -42t21 -124l-37 -212q-15 -83 -51 -113q-37 -31 -119 -31zM209 52h477q62 0 87 21q23 19 34 81l35 199q11 62 -12 89.5t-85 27.5h-477
q-61 0 -86 -20q-24 -20 -35 -82l-35 -199q-11 -62 12 -89.5t85 -27.5z" />
    <glyph glyph-name="otilde" unicode="&#xf5;" horiz-adv-x="954" 
d="M384 579h-47l13 72q5 27 18 38t40 11h71q24 0 35.5 -4t25.5 -19l47 -48q13 -13 34 -13h48q18 0 23 20l11 64h48l-13 -72q-5 -27 -18 -38t-40 -11h-71q-24 0 -35.5 4.5t-25.5 19.5l-48 47q-13 13 -34 13h-47q-20 0 -23 -20zM698 0h-512q-166 0 -136 166l37 212
q13 82 51 114q36 30 118 30h512q81 0 116 -42t21 -124l-37 -212q-15 -83 -51 -113q-37 -31 -119 -31zM209 52h477q62 0 87 21q23 19 34 81l35 199q11 62 -12 89.5t-85 27.5h-477q-61 0 -86 -20q-24 -20 -35 -82l-35 -199q-11 -62 12 -89.5t85 -27.5z" />
    <glyph glyph-name="odieresis" unicode="&#xf6;" horiz-adv-x="954" 
d="M443 597h-57l12 67h57zM686 597h-57l12 67h57zM698 0h-512q-166 0 -136 166l37 212q13 82 51 114q36 30 118 30h512q81 0 116 -42t21 -124l-37 -212q-15 -83 -51 -113q-37 -31 -119 -31zM209 52h477q62 0 87 21q23 19 34 81l35 199q11 62 -12 89.5t-85 27.5h-477
q-61 0 -86 -20q-24 -20 -35 -82l-35 -199q-11 -62 12 -89.5t85 -27.5z" />
    <glyph glyph-name="divide" unicode="&#xf7;" 
d="M610 555h-84l13 73h84zM88 323l9 54h878l-9 -54h-878zM524 72h-84l14 73h84z" />
    <glyph glyph-name="oslash" unicode="&#xf8;" horiz-adv-x="954" 
d="M971 561l-101 -67q51 -41 35 -138l-37 -212q-15 -83 -51 -113q-37 -31 -119 -31h-512q-32 0 -56 6l-69 -45h-78l101 67q-52 40 -34 138l37 212q13 82 51 114q36 30 118 30h512q32 0 56 -6l69 45h78zM145 370l-36 -203q-15 -78 29 -104l620 409h-10h-483q-61 0 -86 -20
q-24 -21 -34 -82zM810 152l35 203q15 78 -29 104l-620 -409h10h483q61 0 87 21q23 19 34 81z" />
    <glyph glyph-name="ugrave" unicode="&#xf9;" horiz-adv-x="960" 
d="M412 700l155 -121h-66l-171 121h82zM868 522h62l-92 -522h-49l5 78l-35 -23q-56 -35 -97 -45t-117 -10h-353q-166 0 -136 166l62 356h63l-62 -353q-11 -62 11.5 -89.5t84.5 -27.5h351q103 0 174 44l59 37z" />
    <glyph glyph-name="uacute" unicode="&#xfa;" horiz-adv-x="960" 
d="M699 700h91l-214 -121h-76zM868 522h62l-92 -522h-49l5 78l-35 -23q-56 -35 -97 -45t-117 -10h-353q-166 0 -136 166l62 356h63l-62 -353q-11 -62 11.5 -89.5t84.5 -27.5h351q103 0 174 44l59 37z" />
    <glyph glyph-name="ucircumflex" unicode="&#xfb;" horiz-adv-x="960" 
d="M678 579l-122 87l-153 -87h-70l189 121h72l145 -121h-61zM868 522h62l-92 -522h-49l5 78l-35 -23q-56 -35 -97 -45t-117 -10h-353q-166 0 -136 166l62 356h63l-62 -353q-11 -62 11.5 -89.5t84.5 -27.5h351q103 0 174 44l59 37z" />
    <glyph glyph-name="udieresis" unicode="&#xfc;" horiz-adv-x="960" 
d="M401 664h57l-12 -67h-57zM644 664h57l-12 -67h-57zM868 522h62l-92 -522h-49l5 78l-35 -23q-56 -35 -97 -45t-117 -10h-353q-166 0 -136 166l62 356h63l-62 -353q-11 -62 11.5 -89.5t84.5 -27.5h351q103 0 174 44l59 37z" />
    <glyph glyph-name="yacute" unicode="&#xfd;" horiz-adv-x="908" 
d="M672 700h91l-214 -121h-76zM414 56l452 466h80l-540 -551q-79 -81 -130 -106t-150 -25h-141l9 52h150q66 0 107 18q40 19 94 76l27 28l-318 508h73z" />
    <glyph glyph-name="thorn" unicode="&#xfe;" horiz-adv-x="964" 
d="M419 522h363q162 0 133 -162l-38 -214q-13 -82 -51 -114t-120 -32h-372q-74 0 -118 11q-45 11 -84 44l-26 22l-42 -237h-62l152 860h62l-45 -255l34 22q54 35 97 45q40 10 117 10zM816 153l35 202q11 62 -10.5 88.5t-83.5 26.5h-363q-100 0 -174 -45l-59 -38l-45 -256
l46 -37q50 -42 166 -42h370q60 0 85 20q23 20 33 81z" />
    <glyph glyph-name="ydieresis" unicode="&#xff;" horiz-adv-x="908" 
d="M374 664h57l-12 -67h-57zM617 664h57l-12 -67h-57zM414 56l452 466h80l-540 -551q-79 -81 -130 -106t-150 -25h-141l9 52h150q66 0 107 18q40 19 94 76l27 28l-318 508h73z" />
    <glyph glyph-name="Amacron" unicode="&#x100;" horiz-adv-x="1082" 
d="M420 841h448l-7 -43h-448zM1037 0h-69l-107 195h-658l-176 -195h-74l633 700h66zM613 650l-362 -402h581z" />
    <glyph glyph-name="amacron" unicode="&#x101;" horiz-adv-x="950" 
d="M332 663h448l-7 -43h-448zM258 522h504q162 0 134 -162l-64 -360h-50l6 80l-50 -31q-50 -31 -87 -40q-36 -9 -101 -9h-401q-60 0 -88.5 34.5t-17.5 94.5l9 49q12 63 42 88.5t91 25.5h636l12 67q11 64 -9.5 89t-84.5 25h-470q-46 0 -67 -18t-28 -63l-5 -31h-62l7 39
q13 67 45.5 94.5t98.5 27.5zM723 88l70 43l11 61l10 55h-613q-43 0 -62.5 -16.5t-26.5 -58.5l-6 -39q-7 -45 9.5 -65t61.5 -20h398q81 0 148 40z" />
    <glyph glyph-name="Abreve" unicode="&#x102;" horiz-adv-x="1082" 
d="M768 757h-277q-35 0 -51 19.5t-9 54.5l9 47h52l-9 -44q-6 -36 30 -36h246q35 0 40 35l9 45h52l-9 -51q-7 -38 -26 -54t-57 -16zM1037 0h-69l-107 195h-658l-176 -195h-74l633 700h66zM613 650l-362 -402h581z" />
    <glyph glyph-name="abreve" unicode="&#x103;" horiz-adv-x="950" 
d="M680 579h-277q-35 0 -51 19.5t-9 54.5l9 47h52l-9 -44q-6 -36 30 -36h246q35 0 40 35l9 45h52l-9 -51q-7 -38 -26 -54t-57 -16zM258 522h504q162 0 134 -162l-64 -360h-50l6 80l-50 -31q-50 -31 -87 -40q-36 -9 -101 -9h-401q-60 0 -88.5 34.5t-17.5 94.5l9 49
q12 63 42 88.5t91 25.5h636l12 67q11 64 -9.5 89t-84.5 25h-470q-46 0 -67 -18t-28 -63l-5 -31h-62l7 39q13 67 45.5 94.5t98.5 27.5zM723 88l70 43l11 61l10 55h-613q-43 0 -62.5 -16.5t-26.5 -58.5l-6 -39q-7 -45 9.5 -65t61.5 -20h398q81 0 148 40z" />
    <glyph glyph-name="Aogonek" unicode="&#x104;" horiz-adv-x="1082" 
d="M901 -117h153l-7 -43h-165q-41 0 -56 18.5t-10 60.5l2 15q4 29 16.5 43.5t45.5 26.5l72 25l-91 166h-658l-176 -195h-74l633 700h66l385 -700h-57l-76 -25q-20 -6 -26 -12t-8 -22l-3 -17q-4 -22 4 -31.5t30 -9.5zM613 650l-362 -402h581z" />
    <glyph glyph-name="aogonek" unicode="&#x105;" horiz-adv-x="950" 
d="M711 -59l-3 -17q-4 -22 4 -31.5t30 -9.5h124l-7 -43h-136q-41 0 -56 18.5t-10 60.5l2 15q4 28 16 42t46 28l63 26l4 50l-50 -31q-50 -31 -87 -40q-36 -9 -101 -9h-401q-60 0 -88.5 34.5t-17.5 94.5l9 49q12 63 42 88.5t91 25.5h636l12 67q11 64 -9.5 89t-84.5 25h-470
q-46 0 -67 -18t-28 -63l-5 -31h-62l7 39q13 67 45.5 94.5t98.5 27.5h504q162 0 134 -162l-64 -360h-26l-61 -25q-20 -7 -26.5 -13.5t-7.5 -20.5zM723 88l70 43l11 61l10 55h-613q-43 0 -62.5 -16.5t-26.5 -58.5l-6 -39q-7 -45 9.5 -65t61.5 -20h398q81 0 148 40z" />
    <glyph glyph-name="Cacute" unicode="&#x106;" horiz-adv-x="1070" 
d="M877 878l-214 -121h-76l199 121h91zM797 0h-593q-89 0 -128 47t-23 137l62 352q16 90 59.5 127t133.5 37h593q89 0 128 -47t23 -137l-9 -54h-64l9 50q13 69 -14 101.5t-96 32.5h-557q-69 0 -100.5 -27t-43.5 -96l-59 -335q-12 -69 14.5 -101.5t95.5 -32.5h557
q69 0 100 27t44 96l12 70h63l-14 -83q-16 -90 -59.5 -127t-133.5 -37z" />
    <glyph glyph-name="cacute" unicode="&#x107;" horiz-adv-x="933" 
d="M777 700l-214 -121h-76l199 121h91zM677 0h-491q-166 0 -136 166l37 212q13 82 51 114q36 30 118 30h491q159 0 137 -166l-4 -23h-61l3 20q9 63 -13 90t-84 27h-457q-61 0 -86 -20q-24 -20 -35 -82l-35 -199q-11 -62 12 -89.5t85 -27.5h457q62 0 87 21q23 19 34 81l7 44
h62l-9 -54q-15 -83 -51 -113q-37 -31 -119 -31z" />
    <glyph glyph-name="Ccircumflex" unicode="&#x108;" horiz-adv-x="1070" 
d="M490 757h-70l189 121h72l145 -121h-61l-122 87zM797 0h-593q-89 0 -128 47t-23 137l62 352q16 90 59.5 127t133.5 37h593q89 0 128 -47t23 -137l-9 -54h-64l9 50q13 69 -14 101.5t-96 32.5h-557q-69 0 -100.5 -27t-43.5 -96l-59 -335q-12 -69 14.5 -101.5t95.5 -32.5h557
q69 0 100 27t44 96l12 70h63l-14 -83q-16 -90 -59.5 -127t-133.5 -37z" />
    <glyph glyph-name="ccircumflex" unicode="&#x109;" horiz-adv-x="933" 
d="M390 579h-70l189 121h72l145 -121h-61l-122 87zM677 0h-491q-166 0 -136 166l37 212q13 82 51 114q36 30 118 30h491q159 0 137 -166l-4 -23h-61l3 20q9 63 -13 90t-84 27h-457q-61 0 -86 -20q-24 -20 -35 -82l-35 -199q-11 -62 12 -89.5t85 -27.5h457q62 0 87 21
q23 19 34 81l7 44h62l-9 -54q-15 -83 -51 -113q-37 -31 -119 -31z" />
    <glyph glyph-name="Cdotaccent" unicode="&#x10a;" horiz-adv-x="1070" 
d="M657 775h-63l12 67h62zM797 0h-593q-89 0 -128 47t-23 137l62 352q16 90 59.5 127t133.5 37h593q89 0 128 -47t23 -137l-9 -54h-64l9 50q13 69 -14 101.5t-96 32.5h-557q-69 0 -100.5 -27t-43.5 -96l-59 -335q-12 -69 14.5 -101.5t95.5 -32.5h557q69 0 100 27t44 96
l12 70h63l-14 -83q-16 -90 -59.5 -127t-133.5 -37z" />
    <glyph glyph-name="cdotaccent" unicode="&#x10b;" horiz-adv-x="933" 
d="M557 597h-63l12 67h62zM677 0h-491q-166 0 -136 166l37 212q13 82 51 114q36 30 118 30h491q159 0 137 -166l-4 -23h-61l3 20q9 63 -13 90t-84 27h-457q-61 0 -86 -20q-24 -20 -35 -82l-35 -199q-11 -62 12 -89.5t85 -27.5h457q62 0 87 21q23 19 34 81l7 44h62l-9 -54
q-15 -83 -51 -113q-37 -31 -119 -31z" />
    <glyph glyph-name="Ccaron" unicode="&#x10c;" horiz-adv-x="1070" 
d="M777 878h70l-189 -121h-72l-145 121h61l121 -87zM797 0h-593q-89 0 -128 47t-23 137l62 352q16 90 59.5 127t133.5 37h593q89 0 128 -47t23 -137l-9 -54h-64l9 50q13 69 -14 101.5t-96 32.5h-557q-69 0 -100.5 -27t-43.5 -96l-59 -335q-12 -69 14.5 -101.5t95.5 -32.5
h557q69 0 100 27t44 96l12 70h63l-14 -83q-16 -90 -59.5 -127t-133.5 -37z" />
    <glyph glyph-name="ccaron" unicode="&#x10d;" horiz-adv-x="933" 
d="M677 700h70l-189 -121h-72l-145 121h61l121 -87zM677 0h-491q-166 0 -136 166l37 212q13 82 51 114q36 30 118 30h491q159 0 137 -166l-4 -23h-61l3 20q9 63 -13 90t-84 27h-457q-61 0 -86 -20q-24 -20 -35 -82l-35 -199q-11 -62 12 -89.5t85 -27.5h457q62 0 87 21
q23 19 34 81l7 44h62l-9 -54q-15 -83 -51 -113q-37 -31 -119 -31z" />
    <glyph glyph-name="Dcaron" unicode="&#x10e;" horiz-adv-x="1094" 
d="M789 878h70l-189 -121h-72l-145 121h61l121 -87zM781 0h-751l124 700h723q105 0 156 -62t32 -167l-48 -270q-19 -107 -74.5 -154t-161.5 -47zM208 646l-104 -592h669q83 0 125.5 36.5t56.5 118.5l46 263q15 84 -22 129t-121 45h-650z" />
    <glyph glyph-name="dcaron" unicode="&#x10f;" horiz-adv-x="1033" 
d="M832 467l26 -22l45 255h63l-124 -700h-50l6 80l-39 -25q-54 -35 -96 -45q-41 -10 -118 -10h-363q-161 0 -133 162l38 214q14 83 52 115q37 31 119 31h372q79 0 119 -10q43 -11 83 -45zM1002 631l12 69h78l-7 -39q-4 -25 -21 -49l-42 -66h-40l50 85h-30zM744 97l59 38
l45 256l-46 37q-50 42 -166 42h-370q-61 0 -84 -20q-23 -19 -34 -81l-36 -202q-11 -62 11 -88.5t84 -26.5h362q101 0 175 45z" />
    <glyph glyph-name="Dcroat" unicode="&#x110;" horiz-adv-x="1154" 
d="M214 700h723q105 0 156 -62t32 -167l-48 -270q-19 -107 -74.5 -154t-161.5 -47h-751l58 327h-98l8 46h98zM1015 209l46 263q15 84 -22 129t-121 45h-650l-48 -273h462l-8 -46h-462l-48 -273h669q83 0 125.5 36.5t56.5 118.5z" />
    <glyph glyph-name="dslash" unicode="&#x111;" horiz-adv-x="1004" 
d="M954 630h87l-8 -43h-87l-104 -587h-50l6 80l-39 -25q-54 -35 -96 -45q-41 -10 -118 -10h-363q-161 0 -133 162l38 214q14 83 52 115q37 31 119 31h372q79 0 119 -10q43 -11 83 -45l26 -22l25 142h-370l8 43h370l12 70h63zM744 97l59 38l45 256l-46 37q-50 42 -166 42
h-370q-61 0 -84 -20q-23 -19 -34 -81l-36 -202q-11 -62 11 -88.5t84 -26.5h362q101 0 175 45z" />
    <glyph glyph-name="Emacron" unicode="&#x112;" horiz-adv-x="974" 
d="M366 841h448l-7 -43h-448zM1004 700l-10 -54h-786l-44 -252h746l-10 -51h-745l-51 -289h796l-10 -54h-860l124 700h850z" />
    <glyph glyph-name="emacron" unicode="&#x113;" horiz-adv-x="944" 
d="M319 663h448l-7 -43h-448zM258 522h504q81 0 113.5 -39t18.5 -121l-16 -100h-749l-17 -99q-11 -62 9 -87t82 -25h495q45 0 65.5 18t29.5 64l8 41h62l-10 -50q-14 -69 -45.5 -96.5t-97.5 -27.5h-528q-160 0 -133 162l37 214q15 83 53 115q37 31 119 31zM148 368l-10 -59
h687l8 52q10 63 -9.5 87.5t-81.5 24.5h-472q-61 0 -86 -22q-26 -23 -36 -83z" />
    <glyph glyph-name="Ebreve" unicode="&#x114;" horiz-adv-x="974" 
d="M714 757h-277q-35 0 -51 19.5t-9 54.5l9 47h52l-9 -44q-6 -36 30 -36h246q35 0 40 35l9 45h52l-9 -51q-7 -38 -26 -54t-57 -16zM1004 700l-10 -54h-786l-44 -252h746l-10 -51h-745l-51 -289h796l-10 -54h-860l124 700h850z" />
    <glyph glyph-name="ebreve" unicode="&#x115;" horiz-adv-x="944" 
d="M667 579h-277q-35 0 -51 19.5t-9 54.5l9 47h52l-9 -44q-6 -36 30 -36h246q35 0 40 35l9 45h52l-9 -51q-7 -38 -26 -54t-57 -16zM258 522h504q81 0 113.5 -39t18.5 -121l-16 -100h-749l-17 -99q-11 -62 9 -87t82 -25h495q45 0 65.5 18t29.5 64l8 41h62l-10 -50
q-14 -69 -45.5 -96.5t-97.5 -27.5h-528q-160 0 -133 162l37 214q15 83 53 115q37 31 119 31zM148 368l-10 -59h687l8 52q10 63 -9.5 87.5t-81.5 24.5h-472q-61 0 -86 -22q-26 -23 -36 -83z" />
    <glyph glyph-name="Edotaccent" unicode="&#x116;" horiz-adv-x="974" 
d="M558 842h62l-11 -67h-63zM1004 700l-10 -54h-786l-44 -252h746l-10 -51h-745l-51 -289h796l-10 -54h-860l124 700h850z" />
    <glyph glyph-name="edotaccent" unicode="&#x117;" horiz-adv-x="944" 
d="M511 664h62l-11 -67h-63zM258 522h504q81 0 113.5 -39t18.5 -121l-16 -100h-749l-17 -99q-11 -62 9 -87t82 -25h495q45 0 65.5 18t29.5 64l8 41h62l-10 -50q-14 -69 -45.5 -96.5t-97.5 -27.5h-528q-160 0 -133 162l37 214q15 83 53 115q37 31 119 31zM148 368l-10 -59
h687l8 52q10 63 -9.5 87.5t-81.5 24.5h-472q-61 0 -86 -22q-26 -23 -36 -83z" />
    <glyph glyph-name="Eogonek" unicode="&#x118;" horiz-adv-x="974" 
d="M1004 700l-10 -54h-786l-44 -252h746l-10 -51h-745l-51 -289h796l-10 -54h-102l-76 -25q-20 -6 -26 -12t-8 -22l-3 -17q-4 -22 4 -31.5t30 -9.5h153l-7 -43h-165q-41 0 -56 18.5t-10 60.5l2 15q4 28 14.5 41.5t37.5 24.5h-648l124 700h850z" />
    <glyph glyph-name="eogonek" unicode="&#x119;" horiz-adv-x="944" 
d="M258 522h504q81 0 113.5 -39t18.5 -121l-16 -100h-749l-17 -99q-11 -62 9 -87t82 -25h495q45 0 65.5 18t29.5 64l8 41h62l-10 -50q-14 -69 -45.5 -96.5t-97.5 -27.5h-142l-76 -25q-20 -6 -26 -12t-8 -22l-3 -17q-4 -22 4 -31.5t30 -9.5h153l-7 -43h-165q-41 0 -56 18.5
t-10 60.5l2 15q4 28 14.5 41.5t37.5 24.5h-276q-160 0 -133 162l37 214q15 83 53 115q37 31 119 31zM148 368l-10 -59h687l8 52q10 63 -9.5 87.5t-81.5 24.5h-472q-61 0 -86 -22q-26 -23 -36 -83z" />
    <glyph glyph-name="Ecaron" unicode="&#x11a;" horiz-adv-x="974" 
d="M799 878l-189 -121h-72l-145 121h61l121 -87l154 87h70zM1004 700l-10 -54h-786l-44 -252h746l-10 -51h-745l-51 -289h796l-10 -54h-860l124 700h850z" />
    <glyph glyph-name="ecaron" unicode="&#x11b;" horiz-adv-x="944" 
d="M752 700l-189 -121h-72l-145 121h61l121 -87l154 87h70zM258 522h504q81 0 113.5 -39t18.5 -121l-16 -100h-749l-17 -99q-11 -62 9 -87t82 -25h495q45 0 65.5 18t29.5 64l8 41h62l-10 -50q-14 -69 -45.5 -96.5t-97.5 -27.5h-528q-160 0 -133 162l37 214q15 83 53 115
q37 31 119 31zM148 368l-10 -59h687l8 52q10 63 -9.5 87.5t-81.5 24.5h-472q-61 0 -86 -22q-26 -23 -36 -83z" />
    <glyph glyph-name="Gcircumflex" unicode="&#x11c;" horiz-adv-x="1094" 
d="M489 757h-70l189 121h72l145 -121h-61l-122 87zM818 0h-614q-89 0 -128 47t-23 137l62 352q16 90 59.5 127t133.5 37h614q88 0 127.5 -47t23.5 -137l-5 -26h-65l4 22q13 70 -13.5 102t-96.5 32h-576q-69 0 -100.5 -26.5t-43.5 -96.5l-59 -336q-12 -69 14.5 -101.5
t95.5 -32.5h577q69 0 100 27t44 96l22 124h-387l8 52h452l-34 -188q-16 -90 -59 -127t-133 -37z" />
    <glyph glyph-name="gcircumflex" unicode="&#x11d;" horiz-adv-x="964" 
d="M672 579l-122 87l-153 -87h-70l189 121h72l145 -121h-61zM864 442l23 80h50l-90 -508q-16 -91 -65 -132.5t-140 -41.5h-628l9 50h612q70 0 103.5 28.5t46.5 98.5l17 94l-35 -22q-54 -35 -97 -45q-46 -11 -117 -11h-364q-162 0 -132 161l32 181q14 83 52 115t121 32h371
q77 0 118 -10q43 -11 83 -45zM752 130l60 37l6 33l32 191l-46 38q-52 42 -165 42h-370q-60 0 -85 -20q-23 -19 -34 -81l-29 -171q-11 -63 10 -89t83 -26h363q104 0 175 46z" />
    <glyph glyph-name="Gbreve" unicode="&#x11e;" horiz-adv-x="1094" 
d="M761 757h-277q-35 0 -51 19.5t-9 54.5l9 47h52l-9 -44q-6 -36 30 -36h246q35 0 40 35l9 45h52l-9 -51q-7 -38 -26 -54t-57 -16zM818 0h-614q-89 0 -128 47t-23 137l62 352q16 90 59.5 127t133.5 37h614q88 0 127.5 -47t23.5 -137l-5 -26h-65l4 22q13 70 -13.5 102
t-96.5 32h-576q-69 0 -100.5 -26.5t-43.5 -96.5l-59 -336q-12 -69 14.5 -101.5t95.5 -32.5h577q69 0 100 27t44 96l22 124h-387l8 52h452l-34 -188q-16 -90 -59 -127t-133 -37z" />
    <glyph glyph-name="gbreve" unicode="&#x11f;" horiz-adv-x="964" 
d="M669 579h-277q-35 0 -51 19.5t-9 54.5l9 47h52l-9 -44q-6 -36 30 -36h246q35 0 40 35l9 45h52l-9 -51q-7 -38 -26 -54t-57 -16zM864 442l23 80h50l-90 -508q-16 -91 -65 -132.5t-140 -41.5h-628l9 50h612q70 0 103.5 28.5t46.5 98.5l17 94l-35 -22q-54 -35 -97 -45
q-46 -11 -117 -11h-364q-162 0 -132 161l32 181q14 83 52 115t121 32h371q77 0 118 -10q43 -11 83 -45zM752 130l60 37l6 33l32 191l-46 38q-52 42 -165 42h-370q-60 0 -85 -20q-23 -19 -34 -81l-29 -171q-11 -63 10 -89t83 -26h363q104 0 175 46z" />
    <glyph glyph-name="Gdotaccent" unicode="&#x120;" horiz-adv-x="1094" 
d="M656 775h-63l12 67h62zM818 0h-614q-89 0 -128 47t-23 137l62 352q16 90 59.5 127t133.5 37h614q88 0 127.5 -47t23.5 -137l-5 -26h-65l4 22q13 70 -13.5 102t-96.5 32h-576q-69 0 -100.5 -26.5t-43.5 -96.5l-59 -336q-12 -69 14.5 -101.5t95.5 -32.5h577q69 0 100 27
t44 96l22 124h-387l8 52h452l-34 -188q-16 -90 -59 -127t-133 -37z" />
    <glyph glyph-name="gdotaccent" unicode="&#x121;" horiz-adv-x="964" 
d="M513 664h62l-11 -67h-63zM864 442l23 80h50l-90 -508q-16 -91 -65 -132.5t-140 -41.5h-628l9 50h612q70 0 103.5 28.5t46.5 98.5l17 94l-35 -22q-54 -35 -97 -45q-46 -11 -117 -11h-364q-162 0 -132 161l32 181q14 83 52 115t121 32h371q77 0 118 -10q43 -11 83 -45z
M752 130l60 37l6 33l32 191l-46 38q-52 42 -165 42h-370q-60 0 -85 -20q-23 -19 -34 -81l-29 -171q-11 -63 10 -89t83 -26h363q104 0 175 46z" />
    <glyph glyph-name="Gcommaaccent" unicode="&#x122;" horiz-adv-x="1094" 
d="M818 0h-614q-89 0 -128 47t-23 137l62 352q16 90 59.5 127t133.5 37h614q88 0 127.5 -47t23.5 -137l-5 -26h-65l4 22q13 70 -13.5 102t-96.5 32h-576q-69 0 -100.5 -26.5t-43.5 -96.5l-59 -336q-12 -69 14.5 -101.5t95.5 -32.5h577q69 0 100 27t44 96l22 124h-387l8 52
h452l-34 -188q-16 -90 -59 -127t-133 -37zM479 -169h-40l47 73h-29l11 66h78l-6 -35q-4 -22 -22 -48z" />
    <glyph glyph-name="gcommaaccent" unicode="&#x123;" horiz-adv-x="964" 
d="M549 645h28l-11 -66h-76l6 35q4 24 21 48l38 56h41zM864 442l23 80h50l-90 -508q-16 -91 -65 -132.5t-140 -41.5h-628l9 50h612q70 0 103.5 28.5t46.5 98.5l17 94l-35 -22q-54 -35 -97 -45q-46 -11 -117 -11h-364q-162 0 -132 161l32 181q14 83 52 115t121 32h371
q77 0 118 -10q43 -11 83 -45zM752 130l60 37l6 33l32 191l-46 38q-52 42 -165 42h-370q-60 0 -85 -20q-23 -19 -34 -81l-29 -171q-11 -63 10 -89t83 -26h363q104 0 175 46z" />
    <glyph glyph-name="Hcircumflex" unicode="&#x124;" horiz-adv-x="1084" 
d="M772 757l-122 87l-153 -87h-70l189 121h72l145 -121h-61zM968 397l54 303h64l-124 -700h-64l60 341h-804l-60 -341h-64l124 700h64l-54 -303h804z" />
    <glyph glyph-name="hcircumflex" unicode="&#x125;" horiz-adv-x="960" 
d="M337 757l-122 87l-153 -87h-70l189 121h72l145 -121h-61zM416 522h352q166 0 136 -166l-62 -356h-63l62 353q11 62 -11.5 89.5t-84.5 27.5h-351q-103 0 -174 -44l-59 -37l-69 -389h-62l124 700h62l-45 -253l31 20q56 35 98 45q40 10 116 10z" />
    <glyph glyph-name="Hbar" unicode="&#x126;" horiz-adv-x="1204" 
d="M1124 576h97l-7 -45h-98l-94 -531h-64l60 341h-804l-60 -341h-64l94 531h-98l7 45h99l22 124h64l-22 -124h804l22 124h64zM224 397h804l24 134h-804z" />
    <glyph glyph-name="hbar" unicode="&#x127;" horiz-adv-x="1000" 
d="M465 522h352q166 0 136 -166l-62 -356h-63l62 353q11 62 -11.5 89.5t-84.5 27.5h-351q-103 0 -174 -44l-59 -37l-69 -389h-62l104 587h-97l8 43h97l12 70h62l-12 -70h361l-8 -43h-361l-25 -140l31 20q56 35 98 45q40 10 116 10z" />
    <glyph glyph-name="Itilde" unicode="&#x128;" horiz-adv-x="228" 
d="M53 757h-47l13 72q5 27 18 38t40 11h71q24 0 35.5 -4t25.5 -19l47 -48q13 -13 34 -13h48q18 0 23 20l11 64h48l-13 -72q-5 -27 -18 -38t-40 -11h-71q-24 0 -35.5 4.5t-25.5 19.5l-48 47q-13 13 -34 13h-47q-20 0 -23 -20zM36 0l124 700h64l-124 -700h-64z" />
    <glyph glyph-name="itilde" unicode="&#x129;" horiz-adv-x="222" 
d="M18 579h-47l13 72q5 27 18 38t40 11h71q24 0 35.5 -4t25.5 -19l47 -48q13 -13 34 -13h48q18 0 23 20l11 64h48l-13 -72q-5 -27 -18 -38t-40 -11h-71q-24 0 -35.5 4.5t-25.5 19.5l-48 47q-13 13 -34 13h-47q-20 0 -23 -20zM96 0h-62l92 522h63z" />
    <glyph glyph-name="Imacron" unicode="&#x12a;" horiz-adv-x="228" 
d="M434 798h-448l7 43h448zM36 0l124 700h64l-124 -700h-64z" />
    <glyph glyph-name="imacron" unicode="&#x12b;" horiz-adv-x="222" 
d="M399 620h-448l7 43h448zM96 0h-62l92 522h63z" />
    <glyph glyph-name="Ibreve" unicode="&#x12c;" horiz-adv-x="228" 
d="M341 757h-277q-35 0 -51 19.5t-9 54.5l9 47h52l-9 -44q-6 -36 30 -36h246q35 0 40 35l9 45h52l-9 -51q-7 -38 -26 -54t-57 -16zM36 0l124 700h64l-124 -700h-64z" />
    <glyph glyph-name="ibreve" unicode="&#x12d;" horiz-adv-x="222" 
d="M306 579h-277q-35 0 -51 19.5t-9 54.5l9 47h52l-9 -44q-6 -36 30 -36h246q35 0 40 35l9 45h52l-9 -51q-7 -38 -26 -54t-57 -16zM96 0h-62l92 522h63z" />
    <glyph glyph-name="Iogonek" unicode="&#x12e;" horiz-adv-x="228" 
d="M-50 -59l-3 -17q-4 -22 4 -31.5t30 -9.5h153l-7 -43h-165q-41 0 -56 18.5t-10 60.5l2 15q4 29 16.5 43.5t45.5 26.5l82 28l118 668h64l-124 -700h-40l-76 -25q-20 -6 -26 -12t-8 -22z" />
    <glyph glyph-name="iogonek" unicode="&#x12f;" horiz-adv-x="222" 
d="M138 597l12 67h62l-11 -67h-63zM-53 -59l-3 -17q-4 -22 4 -31.5t30 -9.5h153l-7 -43h-165q-41 0 -56 18.5t-10 60.5l2 15q4 29 16.5 43.5t45.5 26.5l83 28l86 490h63l-93 -522h-39l-76 -25q-20 -6 -26 -12t-8 -22z" />
    <glyph glyph-name="Idot" unicode="&#x130;" horiz-adv-x="228" 
d="M237 775h-64l11 67h64zM36 0l124 700h64l-124 -700h-64z" />
    <glyph glyph-name="dotlessi" unicode="&#x131;" horiz-adv-x="222" 
d="M96 0h-62l92 522h63z" />
    <glyph glyph-name="IJ" unicode="&#x132;" horiz-adv-x="1204" 
d="M36 0l124 700h64l-124 -700h-64zM927 0h-523q-89 0 -128 47t-23 137l11 63h63l-11 -59q-13 -69 14.5 -101.5t96.5 -32.5h487q69 0 100.5 27t43.5 96l93 523h64l-95 -536q-16 -90 -59.5 -127t-133.5 -37z" />
    <glyph glyph-name="ij" unicode="&#x133;" horiz-adv-x="466" 
d="M208 630h-63l13 70h62zM452 630h-63l13 70h62zM190 -160h-244l10 51h223q47 0 66.5 16.5t27.5 63.5l97 551h63l-99 -560q-11 -67 -44 -94.5t-100 -27.5zM96 0h-62l92 522h63z" />
    <glyph glyph-name="Jcircumflex" unicode="&#x134;" horiz-adv-x="976" 
d="M832 757h-70l189 121h72l145 -121h-61l-122 87zM699 0h-523q-89 0 -128 47t-23 137l11 63h63l-11 -59q-13 -69 14.5 -101.5t96.5 -32.5h487q69 0 100.5 27t43.5 96l93 523h64l-95 -536q-16 -90 -59.5 -127t-133.5 -37z" />
    <glyph glyph-name="jcircumflex" unicode="&#x135;" horiz-adv-x="322" 
d="M134 579h-70l189 121h72l145 -121h-61l-122 87zM46 -160h-244l10 51h223q47 0 66.5 16.5t27.5 63.5l97 551h63l-99 -560q-11 -67 -44 -94.5t-100 -27.5z" />
    <glyph glyph-name="Kcommaaccent" unicode="&#x136;" horiz-adv-x="972" 
d="M897 700h137l-782 -344l662 -356h-125l-635 349l-62 -349h-64l124 700h64l-58 -329zM389 -96h-29l11 66h78l-6 -35q-4 -22 -22 -48l-39 -56h-40z" />
    <glyph glyph-name="kcommaaccent" unicode="&#x137;" horiz-adv-x="853" 
d="M758 522h146l-656 -262l568 -260h-135l-544 252l-45 -252h-63l124 700h63l-76 -430zM332 -96h-29l11 66h78l-6 -35q-4 -22 -22 -48l-39 -56h-40z" />
    <glyph glyph-name="Lacute" unicode="&#x139;" horiz-adv-x="905" 
d="M359 878h91l-214 -121h-76zM218 700l-114 -645h746l-10 -55h-810l124 700h64z" />
    <glyph glyph-name="lacute" unicode="&#x13a;" horiz-adv-x="222" 
d="M453 878l-214 -121h-76l199 121h91zM96 0h-62l124 700h62z" />
    <glyph glyph-name="Lcommaaccent" unicode="&#x13b;" horiz-adv-x="905" 
d="M218 700l-114 -645h746l-10 -55h-810l124 700h64zM383 -96h-29l11 66h78l-6 -35q-4 -22 -22 -48l-39 -56h-40z" />
    <glyph glyph-name="lcommaaccent" unicode="&#x13c;" horiz-adv-x="222" 
d="M96 0h-62l124 700h62zM35 -169h-40l47 73h-29l11 66h78l-6 -35q-4 -22 -22 -48z" />
    <glyph glyph-name="Lcaron" unicode="&#x13d;" horiz-adv-x="905" 
d="M218 700l-114 -645h746l-10 -55h-810l124 700h64zM498 612l-42 -66h-40l49 85h-29l12 69h78l-7 -39q-6 -28 -21 -49z" />
    <glyph glyph-name="lcaron" unicode="&#x13e;" horiz-adv-x="297" 
d="M96 0h-62l124 700h62zM285 546h-40l49 85h-29l12 69h78l-7 -39q-5 -27 -21 -49z" />
    <glyph glyph-name="Ldot" unicode="&#x13f;" horiz-adv-x="905" 
d="M218 700l-114 -645h746l-10 -55h-810l124 700h64zM468 443h84l-15 -82h-84z" />
    <glyph glyph-name="ldot" unicode="&#x140;" horiz-adv-x="326" 
d="M96 0h-62l124 700h62zM320 340h-84l15 82h84z" />
    <glyph glyph-name="Lslash" unicode="&#x141;" horiz-adv-x="965" 
d="M216 352l-52 -297h746l-10 -55h-810l61 342l-101 -15l8 47l101 15l55 311h64l-53 -301l511 75l-8 -47z" />
    <glyph glyph-name="lslash" unicode="&#x142;" horiz-adv-x="313" 
d="M210 391l102 23l-8 -47l-102 -23l-61 -344h-62l58 330l-100 -23l8 47l101 23l57 323h62z" />
    <glyph glyph-name="Nacute" unicode="&#x143;" horiz-adv-x="1104" 
d="M802 878h91l-214 -121h-76zM932 74l111 626h63l-124 -700h-50l-728 629l-111 -629h-63l124 700h54z" />
    <glyph glyph-name="nacute" unicode="&#x144;" horiz-adv-x="960" 
d="M699 700h91l-214 -121h-76zM415 522h353q166 0 136 -166l-62 -356h-63l62 353q11 62 -11.5 89.5t-84.5 27.5h-351q-103 0 -174 -44l-59 -37l-69 -389h-62l92 522h49l-5 -78l35 23q56 35 98 45q40 10 116 10z" />
    <glyph glyph-name="Ncommaaccent" unicode="&#x145;" horiz-adv-x="1104" 
d="M932 74l111 626h63l-124 -700h-50l-728 629l-111 -629h-63l124 700h54zM484 -96h-29l11 66h78l-6 -35q-4 -22 -22 -48l-39 -56h-40z" />
    <glyph glyph-name="ncommaaccent" unicode="&#x146;" horiz-adv-x="960" 
d="M415 522h353q166 0 136 -166l-62 -356h-63l62 353q11 62 -11.5 89.5t-84.5 27.5h-351q-103 0 -174 -44l-59 -37l-69 -389h-62l92 522h49l-5 -78l35 23q56 35 98 45q40 10 116 10zM411 -96h-29l11 66h78l-6 -35q-4 -22 -22 -48l-39 -56h-40z" />
    <glyph glyph-name="Ncaron" unicode="&#x147;" horiz-adv-x="1104" 
d="M863 878l-189 -121h-72l-145 121h61l121 -87l154 87h70zM932 74l111 626h63l-124 -700h-50l-728 629l-111 -629h-63l124 700h54z" />
    <glyph glyph-name="ncaron" unicode="&#x148;" horiz-adv-x="960" 
d="M760 700l-189 -121h-72l-145 121h61l121 -87l154 87h70zM415 522h353q166 0 136 -166l-62 -356h-63l62 353q11 62 -11.5 89.5t-84.5 27.5h-351q-103 0 -174 -44l-59 -37l-69 -389h-62l92 522h49l-5 -78l35 23q56 35 98 45q40 10 116 10z" />
    <glyph glyph-name="Eng" unicode="&#x14a;" horiz-adv-x="1104" 
d="M932 74l111 626h63l-125 -702q-15 -87 -57 -122.5t-128 -35.5h-174l9 50h156q64 0 93 25t40 89l1 6l-717 619l-111 -629h-63l124 700h54z" />
    <glyph glyph-name="eng" unicode="&#x14b;" horiz-adv-x="960" 
d="M415 522h353q166 0 136 -166l-70 -394q-11 -66 -44 -94t-99 -28h-174l9 51h153q47 0 67 16.5t28 63.5l67 382q11 62 -11.5 89.5t-84.5 27.5h-351q-103 0 -174 -44l-59 -37l-69 -389h-62l92 522h49l-5 -78l35 23q56 35 98 45q40 10 116 10z" />
    <glyph glyph-name="Omacron" unicode="&#x14c;" horiz-adv-x="1094" 
d="M867 798h-448l7 43h448zM818 0h-614q-89 0 -128 47t-23 137l62 352q16 90 59.5 127t133.5 37h614q89 0 128 -47t23 -137l-62 -352q-16 -90 -59.5 -127t-133.5 -37zM229 54h576q70 0 101 27t43 97l59 333q12 70 -14.5 102.5t-95.5 32.5h-577q-69 0 -100.5 -27t-43.5 -97
l-59 -333q-11 -70 15.5 -102.5t95.5 -32.5z" />
    <glyph glyph-name="omacron" unicode="&#x14d;" horiz-adv-x="954" 
d="M765 620h-448l7 43h448zM698 0h-512q-166 0 -136 166l37 212q13 82 51 114q36 30 118 30h512q81 0 116 -42t21 -124l-37 -212q-15 -83 -51 -113q-37 -31 -119 -31zM209 52h477q62 0 87 21q23 19 34 81l35 199q11 62 -12 89.5t-85 27.5h-477q-61 0 -86 -20
q-24 -20 -35 -82l-35 -199q-11 -62 12 -89.5t85 -27.5z" />
    <glyph glyph-name="Obreve" unicode="&#x14e;" horiz-adv-x="1094" 
d="M774 757h-277q-35 0 -51 19.5t-9 54.5l9 47h52l-9 -44q-6 -36 30 -36h246q35 0 40 35l9 45h52l-9 -51q-7 -38 -26 -54t-57 -16zM818 0h-614q-89 0 -128 47t-23 137l62 352q16 90 59.5 127t133.5 37h614q89 0 128 -47t23 -137l-62 -352q-16 -90 -59.5 -127t-133.5 -37z
M229 54h576q70 0 101 27t43 97l59 333q12 70 -14.5 102.5t-95.5 32.5h-577q-69 0 -100.5 -27t-43.5 -97l-59 -333q-11 -70 15.5 -102.5t95.5 -32.5z" />
    <glyph glyph-name="obreve" unicode="&#x14f;" horiz-adv-x="954" 
d="M672 579h-277q-35 0 -51 19.5t-9 54.5l9 47h52l-9 -44q-6 -36 30 -36h246q35 0 40 35l9 45h52l-9 -51q-7 -38 -26 -54t-57 -16zM698 0h-512q-166 0 -136 166l37 212q13 82 51 114q36 30 118 30h512q81 0 116 -42t21 -124l-37 -212q-15 -83 -51 -113q-37 -31 -119 -31z
M209 52h477q62 0 87 21q23 19 34 81l35 199q11 62 -12 89.5t-85 27.5h-477q-61 0 -86 -20q-24 -20 -35 -82l-35 -199q-11 -62 12 -89.5t85 -27.5z" />
    <glyph glyph-name="Ohungarumlaut" unicode="&#x150;" horiz-adv-x="1094" 
d="M721 878l-169 -121h-69l155 121h83zM945 878l-169 -121h-68l155 121h82zM818 0h-614q-89 0 -128 47t-23 137l62 352q16 90 59.5 127t133.5 37h614q89 0 128 -47t23 -137l-62 -352q-16 -90 -59.5 -127t-133.5 -37zM229 54h576q70 0 101 27t43 97l59 333q12 70 -14.5 102.5
t-95.5 32.5h-577q-69 0 -100.5 -27t-43.5 -97l-59 -333q-11 -70 15.5 -102.5t95.5 -32.5z" />
    <glyph glyph-name="ohungarumlaut" unicode="&#x151;" horiz-adv-x="954" 
d="M619 700l-169 -121h-69l155 121h83zM843 700l-169 -121h-68l155 121h82zM698 0h-512q-166 0 -136 166l37 212q13 82 51 114q36 30 118 30h512q81 0 116 -42t21 -124l-37 -212q-15 -83 -51 -113q-37 -31 -119 -31zM209 52h477q62 0 87 21q23 19 34 81l35 199
q11 62 -12 89.5t-85 27.5h-477q-61 0 -86 -20q-24 -20 -35 -82l-35 -199q-11 -62 12 -89.5t85 -27.5z" />
    <glyph glyph-name="OE" unicode="&#x152;" horiz-adv-x="1852" 
d="M1882 700l-10 -54h-786l-44 -252h746l-9 -51h-746l-51 -289h796l-10 -54h-1564q-89 0 -128 47t-23 137l62 352q16 90 59.5 127t133.5 37h1574zM229 54h689l104 592h-701q-69 0 -100 -27t-44 -97l-58 -333q-12 -70 14 -102.5t96 -32.5z" />
    <glyph glyph-name="oe" unicode="&#x153;" horiz-adv-x="1704" 
d="M1023 522h499q81 0 113.5 -39t18.5 -123l-16 -98h-749l-17 -99q-11 -62 9 -87t82 -25h494q45 0 66 18t30 64l8 41h61l-10 -52q-12 -66 -45 -94t-98 -28h-522q-97 0 -121 59q-33 -59 -140 -59h-502q-164 0 -135 164l37 212q15 84 52 115t120 31h502q98 0 125 -62
q18 34 50 48t88 14zM908 368l-10 -59h686l9 52q10 63 -10 87.5t-82 24.5h-472q-62 0 -86 -21q-25 -22 -35 -84zM807 155l35 199q11 62 -11.5 89t-84.5 27h-478q-62 0 -86 -21q-24 -20 -35 -82l-35 -199q-11 -62 11.5 -89t84.5 -27h478q62 0 87 21q24 21 34 82z" />
    <glyph glyph-name="Racute" unicode="&#x154;" horiz-adv-x="1054" 
d="M778 878h91l-214 -121h-76zM154 700h748q164 0 134 -164l-17 -98q-13 -82 -51 -114q-37 -31 -119 -31l-107 -2l227 -291h-78l-224 291h-522l-51 -291h-64zM956 444l16 89q11 62 -11 89t-84 27h-669l-53 -308h681q59 0 85 21q25 22 35 82z" />
    <glyph glyph-name="racute" unicode="&#x155;" horiz-adv-x="636" 
d="M537 700h91l-214 -121h-76zM418 522h245l-10 -54h-260q-103 0 -174 -44l-59 -37l-68 -387h-62l92 522h46l-4 -78l36 23q56 35 99 45q41 10 119 10z" />
    <glyph glyph-name="Rcommaaccent" unicode="&#x156;" horiz-adv-x="1054" 
d="M154 700h748q164 0 134 -164l-17 -98q-13 -82 -51 -114q-37 -31 -119 -31l-107 -2l227 -291h-78l-224 291h-522l-51 -291h-64zM956 444l16 89q11 62 -11 89t-84 27h-669l-53 -308h681q59 0 85 21q25 22 35 82zM458 -96h-29l11 66h78l-6 -35q-4 -22 -22 -48l-39 -56h-40z
" />
    <glyph glyph-name="rcommaaccent" unicode="&#x157;" horiz-adv-x="636" 
d="M418 522h245l-10 -54h-260q-103 0 -174 -44l-59 -37l-68 -387h-62l92 522h46l-4 -78l36 23q56 35 99 45q41 10 119 10zM38 -96h-29l11 66h78l-6 -35q-4 -22 -22 -48l-39 -56h-40z" />
    <glyph glyph-name="Rcaron" unicode="&#x158;" horiz-adv-x="1054" 
d="M839 878l-189 -121h-72l-145 121h61l121 -87l154 87h70zM154 700h748q164 0 134 -164l-17 -98q-13 -82 -51 -114q-37 -31 -119 -31l-107 -2l227 -291h-78l-224 291h-522l-51 -291h-64zM956 444l16 89q11 62 -11 89t-84 27h-669l-53 -308h681q59 0 85 21q25 22 35 82z" />
    <glyph glyph-name="rcaron" unicode="&#x159;" horiz-adv-x="636" 
d="M598 700l-189 -121h-72l-145 121h61l121 -87l154 87h70zM418 522h245l-10 -54h-260q-103 0 -174 -44l-59 -37l-68 -387h-62l92 522h46l-4 -78l36 23q56 35 99 45q41 10 119 10z" />
    <glyph glyph-name="Sacute" unicode="&#x15a;" horiz-adv-x="1074" 
d="M879 878l-214 -121h-76l199 121h91zM45 138l9 51h63l-8 -46q-16 -91 75 -91h643q46 0 66 17.5t28 63.5l17 97q8 47 -9 68.5t-64 24.5l-631 33q-140 8 -117 138l14 84q12 67 44.5 94.5t98.5 27.5h657q65 0 95 -36t20 -102l-5 -34h-63l4 29q8 47 -10 69t-65 22h-619
q-46 0 -66 -17.5t-28 -63.5l-11 -66q-7 -46 10 -68t64 -24l631 -33q138 -8 116 -138l-20 -116q-12 -67 -44 -94.5t-98 -27.5h-681q-65 0 -96 36.5t-20 101.5z" />
    <glyph glyph-name="sacute" unicode="&#x15b;" horiz-adv-x="934" 
d="M777 700l-214 -121h-76l199 121h91zM40 115l7 38h61l-6 -36q-11 -68 57 -68h549q33 0 49 14t22 46l10 59q6 36 -7 52.5t-48 18.5l-546 29q-110 6 -91 112l8 40q10 53 38.5 77.5t80.5 24.5h562q52 0 78 -31t16 -83l-7 -36h-61l6 34q10 67 -56 67h-526q-32 0 -48.5 -14.5
t-22.5 -46.5l-4 -24q-13 -68 54 -72l546 -29q54 -2 78 -31.5t14 -82.5l-14 -73q-17 -100 -117 -100h-588q-51 0 -76.5 31t-17.5 84z" />
    <glyph glyph-name="Scircumflex" unicode="&#x15c;" horiz-adv-x="1074" 
d="M492 757h-70l189 121h72l145 -121h-61l-122 87zM45 138l9 51h63l-8 -46q-16 -91 75 -91h643q46 0 66 17.5t28 63.5l17 97q8 47 -9 68.5t-64 24.5l-631 33q-140 8 -117 138l14 84q12 67 44.5 94.5t98.5 27.5h657q65 0 95 -36t20 -102l-5 -34h-63l4 29q8 47 -10 69t-65 22
h-619q-46 0 -66 -17.5t-28 -63.5l-11 -66q-7 -46 10 -68t64 -24l631 -33q138 -8 116 -138l-20 -116q-12 -67 -44 -94.5t-98 -27.5h-681q-65 0 -96 36.5t-20 101.5z" />
    <glyph glyph-name="scircumflex" unicode="&#x15d;" horiz-adv-x="934" 
d="M390 579h-70l189 121h72l145 -121h-61l-122 87zM40 115l7 38h61l-6 -36q-11 -68 57 -68h549q33 0 49 14t22 46l10 59q6 36 -7 52.5t-48 18.5l-546 29q-110 6 -91 112l8 40q10 53 38.5 77.5t80.5 24.5h562q52 0 78 -31t16 -83l-7 -36h-61l6 34q10 67 -56 67h-526
q-32 0 -48.5 -14.5t-22.5 -46.5l-4 -24q-13 -68 54 -72l546 -29q54 -2 78 -31.5t14 -82.5l-14 -73q-17 -100 -117 -100h-588q-51 0 -76.5 31t-17.5 84z" />
    <glyph glyph-name="Scedilla" unicode="&#x15e;" horiz-adv-x="1074" 
d="M274 700h657q65 0 95 -36t20 -102l-5 -34h-63l4 29q8 47 -10 69t-65 22h-619q-46 0 -66 -17.5t-28 -63.5l-11 -66q-7 -46 10 -68t64 -24l631 -33q138 -8 116 -138l-20 -116q-12 -67 -44 -94.5t-98 -27.5h-340l-20 -36h108q52 0 43 -53l-4 -22q-5 -29 -17.5 -39t-40.5 -10
h-235l6 37h224q9 0 12.5 3t5.5 12l4 19q5 17 -14 17h-144l2 15l32 57h-303q-65 0 -96 36.5t-20 101.5l9 51h63l-8 -46q-16 -91 75 -91h643q46 0 66 17.5t28 63.5l17 97q8 47 -9 68.5t-64 24.5l-631 33q-140 8 -117 138l14 84q12 67 44.5 94.5t98.5 27.5z" />
    <glyph glyph-name="scedilla" unicode="&#x15f;" horiz-adv-x="934" 
d="M224 522h562q52 0 78 -31t16 -83l-7 -36h-61l6 34q10 67 -56 67h-526q-32 0 -48.5 -14.5t-22.5 -46.5l-4 -24q-13 -68 54 -72l546 -29q54 -2 78 -31.5t14 -82.5l-14 -73q-17 -100 -117 -100h-290l-20 -36h108q52 0 43 -53l-4 -22q-5 -29 -17.5 -39t-40.5 -10h-235l6 37
h224q9 0 12.5 3t5.5 12l4 19q5 17 -14 17h-144l2 15l32 57h-260q-51 0 -76.5 31t-17.5 84l7 38h61l-6 -36q-11 -68 57 -68h549q33 0 49 14t22 46l10 59q6 36 -7 52.5t-48 18.5l-546 29q-110 6 -91 112l8 40q10 53 38.5 77.5t80.5 24.5z" />
    <glyph glyph-name="Scaron" unicode="&#x160;" horiz-adv-x="1074" 
d="M779 878h70l-189 -121h-72l-145 121h61l121 -87zM45 138l9 51h63l-8 -46q-16 -91 75 -91h643q46 0 66 17.5t28 63.5l17 97q8 47 -9 68.5t-64 24.5l-631 33q-140 8 -117 138l14 84q12 67 44.5 94.5t98.5 27.5h657q65 0 95 -36t20 -102l-5 -34h-63l4 29q8 47 -10 69t-65 22
h-619q-46 0 -66 -17.5t-28 -63.5l-11 -66q-7 -46 10 -68t64 -24l631 -33q138 -8 116 -138l-20 -116q-12 -67 -44 -94.5t-98 -27.5h-681q-65 0 -96 36.5t-20 101.5z" />
    <glyph glyph-name="scaron" unicode="&#x161;" horiz-adv-x="934" 
d="M677 700h70l-189 -121h-72l-145 121h61l121 -87zM40 115l7 38h61l-6 -36q-11 -68 57 -68h549q33 0 49 14t22 46l10 59q6 36 -7 52.5t-48 18.5l-546 29q-110 6 -91 112l8 40q10 53 38.5 77.5t80.5 24.5h562q52 0 78 -31t16 -83l-7 -36h-61l6 34q10 67 -56 67h-526
q-32 0 -48.5 -14.5t-22.5 -46.5l-4 -24q-13 -68 54 -72l546 -29q54 -2 78 -31.5t14 -82.5l-14 -73q-17 -100 -117 -100h-588q-51 0 -76.5 31t-17.5 84z" />
    <glyph glyph-name="uni0162" unicode="&#x162;" horiz-adv-x="966" 
d="M583 645l-114 -645h-21l-20 -36h108q52 0 43 -53l-4 -22q-5 -29 -17.5 -39t-40.5 -10h-235l6 37h224q9 0 12.5 3t5.5 12l4 19q5 17 -14 17h-144l2 15l32 57h-5l114 645h-433l11 55h928l-11 -55h-431z" />
    <glyph glyph-name="uni0163" unicode="&#x163;" horiz-adv-x="768" 
d="M776 471h-440l-58 -330q-8 -47 9.5 -68t64.5 -21h350l-9 -52h-304l-20 -36h108q52 0 43 -53l-4 -22q-5 -29 -17.5 -39t-40.5 -10h-235l6 37h224q9 0 12.5 3t5.5 12l4 19q5 17 -14 17h-144l2 15l32 57h-24q-136 0 -112 136l58 335h-216l8 51h217l35 120h49l-21 -120h439z
" />
    <glyph glyph-name="Tcaron" unicode="&#x164;" horiz-adv-x="966" 
d="M795 878l-189 -121h-72l-145 121h61l121 -87l154 87h70zM97 700h928l-11 -55h-431l-114 -645h-64l114 645h-433z" />
    <glyph glyph-name="tcaron" unicode="&#x165;" horiz-adv-x="768" 
d="M575 626l-38 -56h-42l46 73h-27l11 66h78l-6 -35q-4 -22 -22 -48zM776 471h-440l-58 -330q-8 -47 9.5 -68t64.5 -21h350l-9 -52h-366q-136 0 -112 136l58 335h-216l8 51h217l35 120h49l-21 -120h439z" />
    <glyph glyph-name="Tbar" unicode="&#x166;" horiz-adv-x="966" 
d="M1025 700l-11 -55h-431l-49 -277h294l-8 -47h-294l-57 -321h-64l57 321h-294l8 47h294l49 277h-433l11 55h928z" />
    <glyph glyph-name="tbar" unicode="&#x167;" horiz-adv-x="768" 
d="M784 522l-9 -51h-440l-31 -178h440l-8 -46h-440l-18 -106q-9 -47 8.5 -68t64.5 -21h351l-9 -52h-366q-66 0 -95 34.5t-18 101.5l20 111h-217l8 46h217l31 178h-217l9 51h217l35 120h48l-21 -120h440z" />
    <glyph glyph-name="Utilde" unicode="&#x168;" horiz-adv-x="1065" 
d="M471 757h-47l13 72q5 27 18 38t40 11h71q24 0 35.5 -4t25.5 -19l47 -48q13 -13 34 -13h48q18 0 23 20l11 64h48l-13 -72q-5 -27 -18 -38t-40 -11h-71q-24 0 -35.5 4.5t-25.5 19.5l-48 47q-13 13 -34 13h-47q-20 0 -23 -20zM788 0h-584q-88 0 -127.5 47t-23.5 137l91 516
h64l-89 -510q-12 -70 14.5 -102.5t95.5 -32.5h547q69 0 100.5 27t43.5 97l92 521h64l-95 -536q-16 -90 -59.5 -127t-133.5 -37z" />
    <glyph glyph-name="utilde" unicode="&#x169;" horiz-adv-x="960" 
d="M399 643l-12 -64h-47l13 72q5 27 18 38t40 11h71q24 0 35.5 -4t25.5 -19l47 -48q13 -13 34 -13h48q18 0 23 20l11 64h48l-13 -72q-5 -27 -18 -38t-40 -11h-71q-24 0 -35.5 4.5t-25.5 19.5l-48 47q-13 13 -34 13h-47q-20 0 -23 -20zM868 522h62l-92 -522h-49l5 78l-35 -23
q-56 -35 -97 -45t-117 -10h-353q-166 0 -136 166l62 356h63l-62 -353q-11 -62 11.5 -89.5t84.5 -27.5h351q103 0 174 44l59 37z" />
    <glyph glyph-name="Umacron" unicode="&#x16a;" horiz-adv-x="1065" 
d="M852 798h-448l7 43h448zM788 0h-584q-88 0 -127.5 47t-23.5 137l91 516h64l-89 -510q-12 -70 14.5 -102.5t95.5 -32.5h547q69 0 100.5 27t43.5 97l92 521h64l-95 -536q-16 -90 -59.5 -127t-133.5 -37z" />
    <glyph glyph-name="umacron" unicode="&#x16b;" horiz-adv-x="960" 
d="M327 663h448l-7 -43h-448zM868 522h62l-92 -522h-49l5 78l-35 -23q-56 -35 -97 -45t-117 -10h-353q-166 0 -136 166l62 356h63l-62 -353q-11 -62 11.5 -89.5t84.5 -27.5h351q103 0 174 44l59 37z" />
    <glyph glyph-name="Ubreve" unicode="&#x16c;" horiz-adv-x="1065" 
d="M759 757h-277q-35 0 -51 19.5t-9 54.5l9 47h52l-9 -44q-6 -36 30 -36h246q35 0 40 35l9 45h52l-9 -51q-7 -38 -26 -54t-57 -16zM788 0h-584q-88 0 -127.5 47t-23.5 137l91 516h64l-89 -510q-12 -70 14.5 -102.5t95.5 -32.5h547q69 0 100.5 27t43.5 97l92 521h64l-95 -536
q-16 -90 -59.5 -127t-133.5 -37z" />
    <glyph glyph-name="ubreve" unicode="&#x16d;" horiz-adv-x="960" 
d="M675 579h-277q-35 0 -51 19.5t-9 54.5l9 47h52l-9 -44q-6 -36 30 -36h246q35 0 40 35l9 45h52l-9 -51q-7 -38 -26 -54t-57 -16zM868 522h62l-92 -522h-49l5 78l-35 -23q-56 -35 -97 -45t-117 -10h-353q-166 0 -136 166l62 356h63l-62 -353q-11 -62 11.5 -89.5t84.5 -27.5
h351q103 0 174 44l59 37z" />
    <glyph glyph-name="Uring" unicode="&#x16e;" horiz-adv-x="1065" 
d="M452 802l4 25q4 29 17 40t43 11h246q55 0 46 -55l-4 -25q-4 -29 -17.5 -40t-43.5 -11h-245q-55 0 -46 55zM496 822l-3 -17q-2 -13 1.5 -18t16.5 -5h228q13 0 17.5 4t6.5 17l3 17q4 24 -17 24h-228q-13 0 -18 -4.5t-7 -17.5zM788 0h-584q-88 0 -127.5 47t-23.5 137l91 516
h64l-89 -510q-12 -70 14.5 -102.5t95.5 -32.5h547q69 0 100.5 27t43.5 97l92 521h64l-95 -536q-16 -90 -59.5 -127t-133.5 -37z" />
    <glyph glyph-name="uring" unicode="&#x16f;" horiz-adv-x="960" 
d="M659 569h-245q-55 0 -46 55l4 25q4 29 17 40t43 11h246q55 0 46 -55l-4 -25q-4 -29 -17.5 -40t-43.5 -11zM412 644l-3 -17q-2 -13 1.5 -18t16.5 -5h228q13 0 17.5 4t6.5 17l3 17q4 24 -17 24h-228q-13 0 -18 -4.5t-7 -17.5zM868 522h62l-92 -522h-49l5 78l-35 -23
q-56 -35 -97 -45t-117 -10h-353q-166 0 -136 166l62 356h63l-62 -353q-11 -62 11.5 -89.5t84.5 -27.5h351q103 0 174 44l59 37z" />
    <glyph glyph-name="Uhungarumlaut" unicode="&#x170;" horiz-adv-x="1065" 
d="M706 878l-169 -121h-69l155 121h83zM930 878l-169 -121h-68l155 121h82zM788 0h-584q-88 0 -127.5 47t-23.5 137l91 516h64l-89 -510q-12 -70 14.5 -102.5t95.5 -32.5h547q69 0 100.5 27t43.5 97l92 521h64l-95 -536q-16 -90 -59.5 -127t-133.5 -37z" />
    <glyph glyph-name="uhungarumlaut" unicode="&#x171;" horiz-adv-x="960" 
d="M539 700h83l-169 -121h-69zM846 700l-169 -121h-68l155 121h82zM868 522h62l-92 -522h-49l5 78l-35 -23q-56 -35 -97 -45t-117 -10h-353q-166 0 -136 166l62 356h63l-62 -353q-11 -62 11.5 -89.5t84.5 -27.5h351q103 0 174 44l59 37z" />
    <glyph glyph-name="Uogonek" unicode="&#x172;" horiz-adv-x="1065" 
d="M920 179l92 521h64l-95 -536q-16 -90 -59.5 -127t-133.5 -37h-154l-76 -25q-20 -6 -26 -12t-8 -22l-3 -17q-4 -22 4 -31.5t30 -9.5h153l-7 -43h-165q-41 0 -56 18.5t-10 60.5l2 15q4 28 14.5 41.5t37.5 24.5h-320q-88 0 -127.5 47t-23.5 137l91 516h64l-89 -510
q-12 -70 14.5 -102.5t95.5 -32.5h547q69 0 100.5 27t43.5 97z" />
    <glyph glyph-name="uogonek" unicode="&#x173;" horiz-adv-x="969" 
d="M753 -59l-2 -17q-4 -23 4 -32t30 -9h88l-8 -43h-100q-40 0 -55 18.5t-10 60.5l2 15q4 30 15 44.5t44 31.5l30 16l3 52l-35 -23q-56 -35 -97 -45t-117 -10h-353q-166 0 -136 166l62 356h63l-62 -353q-11 -62 11.5 -89.5t84.5 -27.5h351q103 0 174 44l59 37l69 389h62
l-92 -522h-19l-29 -15q-21 -11 -27.5 -19t-9.5 -25z" />
    <glyph glyph-name="Wcircumflex" unicode="&#x174;" horiz-adv-x="1460" 
d="M958 757l-122 87l-153 -87h-70l189 121h72l145 -121h-61zM1033 72l433 628h73l-485 -700h-57l-203 620l-422 -620h-58l-237 700h67l211 -629l423 629h53z" />
    <glyph glyph-name="wcircumflex" unicode="&#x175;" horiz-adv-x="1254" 
d="M820 579l-122 87l-153 -87h-70l189 121h72l145 -121h-61zM876 66l342 456h73l-396 -522h-54l-181 453l-341 -453h-52l-212 522h68l180 -456l342 456h50z" />
    <glyph glyph-name="Ycircumflex" unicode="&#x176;" horiz-adv-x="1008" 
d="M733 757l-122 87l-153 -87h-70l189 121h72l145 -121h-61zM996 700h91l-551 -440l-46 -260h-64l46 260l-395 440h83l350 -393z" />
    <glyph glyph-name="ycircumflex" unicode="&#x177;" horiz-adv-x="908" 
d="M651 579l-122 87l-153 -87h-70l189 121h72l145 -121h-61zM414 56l452 466h80l-540 -551q-79 -81 -130 -106t-150 -25h-141l9 52h150q66 0 107 18q40 19 94 76l27 28l-318 508h73z" />
    <glyph glyph-name="Ydieresis" unicode="&#x178;" horiz-adv-x="1008" 
d="M456 842h57l-12 -67h-57zM699 842h57l-12 -67h-57zM996 700h91l-551 -440l-46 -260h-64l46 260l-395 440h83l350 -393z" />
    <glyph glyph-name="Zacute" unicode="&#x179;" horiz-adv-x="1044" 
d="M864 878l-214 -121h-76l199 121h91zM950 0h-948l8 41l931 605h-805l10 54h928l-8 -41l-931 -605h825z" />
    <glyph glyph-name="zacute" unicode="&#x17a;" horiz-adv-x="918" 
d="M769 700l-214 -121h-76l199 121h91zM826 0h-826l7 38l777 433h-681l9 51h806l-7 -38l-777 -433h701z" />
    <glyph glyph-name="Zdotaccent" unicode="&#x17b;" horiz-adv-x="1044" 
d="M644 775h-63l12 67h62zM950 0h-948l8 41l931 605h-805l10 54h928l-8 -41l-931 -605h825z" />
    <glyph glyph-name="zdotaccent" unicode="&#x17c;" horiz-adv-x="918" 
d="M549 597h-63l12 67h62zM826 0h-826l7 38l777 433h-681l9 51h806l-7 -38l-777 -433h701z" />
    <glyph glyph-name="Zcaron" unicode="&#x17d;" horiz-adv-x="1044" 
d="M764 878h70l-189 -121h-72l-145 121h61l121 -87zM950 0h-948l8 41l931 605h-805l10 54h928l-8 -41l-931 -605h825z" />
    <glyph glyph-name="zcaron" unicode="&#x17e;" horiz-adv-x="918" 
d="M669 700h70l-189 -121h-72l-145 121h61l121 -87zM826 0h-826l7 38l777 433h-681l9 51h806l-7 -38l-777 -433h701z" />
    <glyph glyph-name="florin" unicode="&#x192;" horiz-adv-x="952" 
d="M963 646h-225q-68 0 -102 -27.5t-55 -99.5l-59 -205h363l-9 -48h-368l-72 -252q-27 -94 -74 -134t-134 -40h-245l10 54h225q68 0 102 27.5t55 99.5l70 245h-367l9 48h372l61 212q26 94 73.5 134t134.5 40h245z" />
    <glyph glyph-name="Aringacute" unicode="&#x1fa;" horiz-adv-x="1082" 
d="M1037 0h-69l-107 195h-658l-176 -195h-74l605 669h-64q-55 0 -46 55l4 25q4 29 17 40t43 11h117l105 78h79l-115 -78h60q55 0 46 -55l-4 -25q-4 -29 -17 -40t-43 -11h-71zM492 744l-2 -17q-2 -13 1.5 -18t15.5 -5h228q13 0 18 4t7 17l3 17q5 24 -18 24h-228
q-13 0 -18 -4.5t-7 -17.5zM613 650l-362 -402h581z" />
    <glyph glyph-name="aringacute" unicode="&#x1fb;" horiz-adv-x="950" 
d="M707 522h55q162 0 134 -162l-64 -360h-50l6 80l-50 -31q-50 -31 -87 -40q-36 -9 -101 -9h-401q-60 0 -88.5 34.5t-17.5 94.5l9 49q12 63 42 88.5t91 25.5h636l12 67q11 64 -9.5 89t-84.5 25h-470q-46 0 -67 -18t-28 -63l-5 -31h-62l7 39q13 67 45.5 94.5t98.5 27.5h102
q-3 10 0 24l4 25q4 29 17 40t43 11h117l105 78h79l-115 -78h60q55 0 46 -55l-4 -25q-3 -14 -5 -20zM404 566l-2 -17q-2 -13 1.5 -18t15.5 -5h228q13 0 18 4t7 17l3 17q5 24 -18 24h-228q-13 0 -18 -4.5t-7 -17.5zM723 88l70 43l11 61l10 55h-613q-43 0 -62.5 -16.5
t-26.5 -58.5l-6 -39q-7 -45 9.5 -65t61.5 -20h398q81 0 148 40z" />
    <glyph glyph-name="AEacute" unicode="&#x1fc;" horiz-adv-x="1571" 
d="M1036 878h91l-214 -121h-76zM1601 700l-10 -52h-910l140 -255h686l-9 -49h-651l160 -292h490l-10 -52h-521l-106 195h-657l-176 -195h-74l633 700h1015zM613 650l-362 -402h580z" />
    <glyph glyph-name="aeacute" unicode="&#x1fd;" horiz-adv-x="1694" 
d="M1066 700h91l-214 -121h-76zM1013 522h499q81 0 113.5 -39t18.5 -123l-16 -98h-749l-17 -99q-11 -62 9 -87t82 -25h494q45 0 66 18t30 64l8 41h61l-10 -52q-12 -66 -45 -94t-98 -28h-522q-119 0 -135 84l-56 -35q-50 -31 -87 -40q-36 -9 -101 -9h-409q-60 0 -88.5 34.5
t-17.5 94.5l9 50q12 62 42 87.5t91 25.5h636l12 67q11 64 -9.5 89t-84.5 25h-470q-46 0 -67 -18t-28 -63l-5 -31h-62l7 39q13 67 45.5 94.5t98.5 27.5h499q97 0 120 -57q19 31 50 44t86 13zM898 368l-10 -59h686l9 52q10 63 -10 87.5t-82 24.5h-472q-62 0 -86 -21
q-25 -22 -35 -84zM723 88l70 43l21 116h-613q-43 0 -62.5 -16.5t-26.5 -58.5l-6 -39q-7 -45 9.5 -65t61.5 -20h398q81 0 148 40z" />
    <glyph glyph-name="Oslashacute" unicode="&#x1fe;" horiz-adv-x="1094" 
d="M798 878h91l-214 -121h-76zM1141 730l-99 -70q49 -46 31 -145l-62 -351q-16 -90 -59.5 -127t-133.5 -37h-613q-45 0 -82 14l-62 -44h-76l99 70q-49 46 -31 145l62 351q16 90 59.5 127t133.5 37h613q45 0 82 -14l62 44h76zM176 523l-59 -335q-13 -78 22 -110l803 565
q-15 4 -43 4h-579q-69 0 -100.5 -27t-43.5 -97zM950 177l59 335q13 78 -22 110l-803 -565q15 -4 43 -4h579q69 0 100.5 27t43.5 97z" />
    <glyph glyph-name="oslashacute" unicode="&#x1ff;" horiz-adv-x="954" 
d="M696 700h91l-214 -121h-76zM971 561l-101 -67q51 -41 35 -138l-37 -212q-15 -83 -51 -113q-37 -31 -119 -31h-512q-32 0 -56 6l-69 -45h-78l101 67q-52 40 -34 138l37 212q13 82 51 114q36 30 118 30h512q32 0 56 -6l69 45h78zM145 370l-36 -203q-15 -78 29 -104l620 409
h-10h-483q-61 0 -86 -20q-24 -21 -34 -82zM810 152l35 203q15 78 -29 104l-620 -409h10h483q61 0 87 21q23 19 34 81z" />
    <glyph glyph-name="Scommaaccent" unicode="&#x218;" horiz-adv-x="1074" 
d="M45 138l9 51h63l-8 -46q-16 -91 75 -91h643q46 0 66 17.5t28 63.5l17 97q8 47 -9 68.5t-64 24.5l-631 33q-140 8 -117 138l14 84q12 67 44.5 94.5t98.5 27.5h657q65 0 95 -36t20 -102l-5 -34h-63l4 29q8 47 -10 69t-65 22h-619q-46 0 -66 -17.5t-28 -63.5l-11 -66
q-7 -46 10 -68t64 -24l631 -33q138 -8 116 -138l-20 -116q-12 -67 -44 -94.5t-98 -27.5h-681q-65 0 -96 36.5t-20 101.5zM461 -169h-40l47 73h-29l11 66h78l-6 -35q-4 -22 -22 -48z" />
    <glyph glyph-name="scommaaccent" unicode="&#x219;" horiz-adv-x="934" 
d="M40 115l7 38h61l-6 -36q-11 -68 57 -68h549q33 0 49 14t22 46l10 59q6 36 -7 52.5t-48 18.5l-546 29q-110 6 -91 112l8 40q10 53 38.5 77.5t80.5 24.5h562q52 0 78 -31t16 -83l-7 -36h-61l6 34q10 67 -56 67h-526q-32 0 -48.5 -14.5t-22.5 -46.5l-4 -24q-13 -68 54 -72
l546 -29q54 -2 78 -31.5t14 -82.5l-14 -73q-17 -100 -117 -100h-588q-51 0 -76.5 31t-17.5 84zM391 -169h-40l47 73h-29l11 66h78l-6 -35q-4 -22 -22 -48z" />
    <glyph glyph-name="uni021A" unicode="&#x21a;" horiz-adv-x="966" 
d="M97 700h928l-11 -55h-431l-114 -645h-64l114 645h-433zM414 -96h-29l11 66h78l-6 -35q-4 -22 -22 -48l-39 -56h-40z" />
    <glyph glyph-name="uni021B" unicode="&#x21b;" horiz-adv-x="768" 
d="M776 471h-440l-58 -330q-8 -47 9.5 -68t64.5 -21h350l-9 -52h-366q-136 0 -112 136l58 335h-216l8 51h217l35 120h49l-21 -120h439zM355 -96h-29l11 66h78l-6 -35q-4 -22 -22 -48l-39 -56h-40z" />
    <glyph glyph-name="uni0237" unicode="&#x237;" horiz-adv-x="322" 
d="M46 -160h-244l10 51h223q47 0 66.5 16.5t27.5 63.5l97 551h63l-99 -560q-11 -67 -44 -94.5t-100 -27.5z" />
    <glyph glyph-name="circumflex" unicode="&#x2c6;" horiz-adv-x="478" 
d="M202 579h-70l189 121h72l145 -121h-61l-122 87z" />
    <glyph glyph-name="caron" unicode="&#x2c7;" horiz-adv-x="554" 
d="M490 700h70l-189 -121h-72l-145 121h61l121 -87z" />
    <glyph glyph-name="breve" unicode="&#x2d8;" horiz-adv-x="492" 
d="M482 579h-277q-35 0 -51 19.5t-9 54.5l9 47h52l-9 -44q-6 -36 30 -36h246q35 0 40 35l9 45h52l-9 -51q-7 -38 -26 -54t-57 -16z" />
    <glyph glyph-name="dotaccent" unicode="&#x2d9;" horiz-adv-x="213" 
d="M199 597h-63l12 67h62z" />
    <glyph glyph-name="ring" unicode="&#x2da;" horiz-adv-x="389" 
d="M123 624l4 25q4 29 17 40t43 11h246q55 0 46 -55l-4 -25q-4 -29 -17.5 -40t-43.5 -11h-245q-55 0 -46 55zM167 644l-3 -17q-2 -13 1.5 -18t16.5 -5h228q13 0 17.5 4t6.5 17l3 17q4 24 -17 24h-228q-13 0 -18 -4.5t-7 -17.5z" />
    <glyph glyph-name="ogonek" unicode="&#x2db;" horiz-adv-x="335" 
d="M196 5l-91 -30q-20 -6 -26 -12t-8 -22l-3 -17q-4 -22 4 -31.5t30 -9.5h153l-7 -43h-165q-41 0 -56 18.5t-10 60.5l2 15q4 29 16.5 43.5t45.5 26.5l100 34z" />
    <glyph glyph-name="tilde" unicode="&#x2dc;" horiz-adv-x="492" 
d="M179 579h-47l13 72q5 27 18 38t40 11h71q24 0 35.5 -4t25.5 -19l47 -48q13 -13 34 -13h48q18 0 23 20l11 64h48l-13 -72q-5 -27 -18 -38t-40 -11h-71q-24 0 -35.5 4.5t-25.5 19.5l-48 47q-13 13 -34 13h-47q-20 0 -23 -20z" />
    <glyph glyph-name="hungarumlaut" unicode="&#x2dd;" horiz-adv-x="521" 
d="M338 700l-169 -121h-69l155 121h83zM562 700l-169 -121h-68l155 121h82z" />
    <glyph glyph-name="gravecomb" unicode="&#x300;" horiz-adv-x="0" 
d="M-23 579h-66l-171 121h82z" />
    <glyph glyph-name="acutecomb" unicode="&#x301;" horiz-adv-x="0" 
d="M4 700l-214 -121h-76l199 121h91z" />
    <glyph glyph-name="uni0302" unicode="&#x302;" horiz-adv-x="0" 
d="M-356 579h-70l189 121h72l145 -121h-61l-122 87z" />
    <glyph glyph-name="tildecomb" unicode="&#x303;" horiz-adv-x="0" 
d="M-365 579h-47l13 72q5 27 18 38t40 11h71q24 0 35.5 -4t25.5 -19l47 -48q13 -13 34 -13h48q18 0 23 20l11 64h48l-13 -72q-5 -27 -18 -38t-40 -11h-71q-24 0 -35.5 4.5t-25.5 19.5l-48 47q-13 13 -34 13h-47q-20 0 -23 -20z" />
    <glyph glyph-name="uni0304" unicode="&#x304;" horiz-adv-x="0" 
d="M-12 620h-448l7 43h448z" />
    <glyph glyph-name="uni0306" unicode="&#x306;" horiz-adv-x="0" 
d="M-90 579h-277q-35 0 -51 19.5t-9 54.5l9 47h52l-9 -44q-6 -36 30 -36h246q35 0 40 35l9 45h52l-9 -51q-7 -38 -26 -54t-57 -16z" />
    <glyph glyph-name="uni0307" unicode="&#x307;" horiz-adv-x="0" 
d="M-16 597h-63l12 67h62z" />
    <glyph glyph-name="uni0308" unicode="&#x308;" horiz-adv-x="0" 
d="M-259 597h-57l12 67h57zM-16 597h-57l12 67h57z" />
    <glyph glyph-name="uni030A" unicode="&#x30a;" horiz-adv-x="0" 
d="M-346 624l4 25q4 29 17 40t43 11h246q55 0 46 -55l-4 -25q-4 -29 -17.5 -40t-43.5 -11h-245q-55 0 -46 55zM-302 644l-3 -17q-2 -13 1.5 -18t16.5 -5h228q13 0 17.5 4t6.5 17l3 17q4 24 -17 24h-228q-13 0 -18 -4.5t-7 -17.5z" />
    <glyph glyph-name="uni030B" unicode="&#x30b;" horiz-adv-x="0" 
d="M-191 700l-169 -121h-69l155 121h83zM33 700l-169 -121h-68l155 121h82z" />
    <glyph glyph-name="uni030C" unicode="&#x30c;" horiz-adv-x="0" 
d="M-68 700h70l-189 -121h-72l-145 121h61l121 -87z" />
    <glyph glyph-name="uni0312" unicode="&#x312;" horiz-adv-x="0" 
d="M-30 718h41l-47 -73h28l-11 -66h-76l6 35q5 24 21 48z" />
    <glyph glyph-name="uni0326" unicode="&#x326;" horiz-adv-x="0" 
d="M-194 -169h-40l47 73h-29l11 66h78l-6 -35q-4 -22 -22 -48z" />
    <glyph glyph-name="uni0327" unicode="&#x327;" horiz-adv-x="0" 
d="M-181 -160h-235l6 37h224q9 0 12.5 3t5.5 12l4 19q5 17 -14 17h-144l2 15l43 77h38l-31 -56h108q52 0 43 -53l-4 -22q-5 -29 -17.5 -39t-40.5 -10z" />
    <glyph glyph-name="uni0328" unicode="&#x328;" horiz-adv-x="0" 
d="M-201 5l-91 -30q-20 -6 -26 -12t-8 -22l-3 -17q-4 -22 4 -31.5t30 -9.5h153l-7 -43h-165q-41 0 -56 18.5t-10 60.5l2 15q4 29 16.5 43.5t45.5 26.5l100 34z" />
    <glyph glyph-name="uni0335" unicode="&#x335;" horiz-adv-x="0" 
d="M-467 331l8 47h440l-8 -47h-440z" />
    <glyph glyph-name="uni0336" unicode="&#x336;" horiz-adv-x="0" 
d="M-871 331l8 47h844l-8 -47h-844z" />
    <glyph glyph-name="uni0337" unicode="&#x337;" horiz-adv-x="0" 
d="M-442 327l8 47l424 60l-8 -47z" />
    <glyph glyph-name="uni0338" unicode="&#x338;" horiz-adv-x="0" 
d="M-657 -30l653 600h59l-653 -600h-59z" />
    <glyph glyph-name="uni0394" unicode="&#x394;" horiz-adv-x="1082" 
d="M586 700h66l385 -700h-1084zM613 650l-539 -598h866z" />
    <glyph glyph-name="uni03A9" unicode="&#x3a9;" horiz-adv-x="1094" 
d="M308 700h614q89 0 128 -47t23 -137l-47 -266q-16 -89 -59 -125.5t-131 -36.5h-169l-6 -36h341l-10 -52h-391l24 134h194q69 0 100.5 27t43.5 97l44 253q12 70 -14 102.5t-96 32.5h-576q-70 0 -101.5 -27t-43.5 -97l-44 -254q-12 -69 14.5 -101.5t95.5 -32.5h183l-24 -134
h-391l10 52h339l6 36h-149q-87 0 -126 46.5t-23 134.5l48 267q16 90 59.5 127t133.5 37z" />
    <glyph glyph-name="uni03BC" unicode="&#x3bc;" horiz-adv-x="1031" 
d="M921 52h54l-9 -52h-69q-93 0 -95 80l-40 -25q-54 -35 -96 -45q-41 -10 -118 -10h-353q-65 0 -100 29l-33 -189h-60l120 682h62l-62 -353q-11 -62 12 -89.5t85 -27.5h351q101 0 174 44l59 38l69 388h62l-71 -399q-7 -38 7 -54.5t51 -16.5z" />
    <glyph glyph-name="pi" unicode="&#x3c0;" horiz-adv-x="1048" 
d="M1056 471h-163l-58 -328q-8 -47 10.5 -69t65.5 -22h72l-10 -52h-88q-66 0 -95.5 35.5t-18.5 102.5l59 333h-584l-83 -471h-62l83 471h-128l9 51h1000z" />
    <glyph glyph-name="uni0401" unicode="&#x401;" horiz-adv-x="974" 
d="M440 842h57l-12 -67h-57zM683 842h57l-12 -67h-57zM1004 700l-10 -54h-786l-44 -252h746l-10 -51h-745l-51 -289h796l-10 -54h-860l124 700h850z" />
    <glyph glyph-name="uni0403" unicode="&#x403;" horiz-adv-x="905" 
d="M703 878h91l-214 -121h-76zM154 700h810l-11 -55h-745l-114 -645h-64z" />
    <glyph glyph-name="uni0405" unicode="&#x405;" horiz-adv-x="1074" 
d="M45 138l9 51h63l-8 -46q-16 -91 75 -91h643q46 0 66 17.5t28 63.5l17 97q8 47 -9 68.5t-64 24.5l-631 33q-140 8 -117 138l14 84q12 67 44.5 94.5t98.5 27.5h657q65 0 95 -36t20 -102l-5 -34h-63l4 29q8 47 -10 69t-65 22h-619q-46 0 -66 -17.5t-28 -63.5l-11 -66
q-7 -46 10 -68t64 -24l631 -33q138 -8 116 -138l-20 -116q-12 -67 -44 -94.5t-98 -27.5h-681q-65 0 -96 36.5t-20 101.5z" />
    <glyph glyph-name="uni0406" unicode="&#x406;" horiz-adv-x="228" 
d="M36 0l124 700h64l-124 -700h-64z" />
    <glyph glyph-name="uni0407" unicode="&#x407;" horiz-adv-x="228" 
d="M112 775h-57l12 67h57zM355 775h-57l12 67h57zM36 0l124 700h64l-124 -700h-64z" />
    <glyph glyph-name="uni0408" unicode="&#x408;" horiz-adv-x="976" 
d="M699 0h-523q-89 0 -128 47t-23 137l11 63h63l-11 -59q-13 -69 14.5 -101.5t96.5 -32.5h487q69 0 100.5 27t43.5 96l93 523h64l-95 -536q-16 -90 -59.5 -127t-133.5 -37z" />
    <glyph glyph-name="uni040C" unicode="&#x40c;" horiz-adv-x="972" 
d="M737 878h91l-214 -121h-76zM897 700h137l-782 -344l662 -356h-125l-635 349l-62 -349h-64l124 700h64l-58 -329z" />
    <glyph glyph-name="uni040E" unicode="&#x40e;" horiz-adv-x="1008" 
d="M776 757h-277q-35 0 -51 19.5t-9 54.5l9 47h52l-9 -44q-6 -36 30 -36h246q35 0 40 35l9 45h52l-9 -51q-7 -38 -26 -54t-57 -16zM502 273l497 427h88l-816 -700h-89l273 235l-378 465h80z" />
    <glyph glyph-name="uni0410" unicode="&#x410;" horiz-adv-x="1082" 
d="M1037 0h-69l-107 195h-658l-176 -195h-74l633 700h66zM613 650l-362 -402h581z" />
    <glyph glyph-name="uni0411" unicode="&#x411;" horiz-adv-x="1055" 
d="M830 0h-800l124 700h862l-10 -52h-798l-44 -251h718q66 0 96.5 -36.5t18.5 -102.5l-23 -136q-12 -67 -45 -94.5t-99 -27.5zM155 348l-51 -296h713q46 0 66 17.5t28 63.5l22 121q8 49 -10 71.5t-67 22.5h-701z" />
    <glyph glyph-name="uni0412" unicode="&#x412;" horiz-adv-x="1055" 
d="M153 700h763q64 0 95 -37t19 -103l-14 -81q-16 -94 -76 -112q72 -30 54 -126l-21 -119q-12 -68 -44 -95t-100 -27h-800zM952 474l14 81q18 93 -78 93h-681l-44 -255h694q47 0 67 17t28 64zM911 133l22 118q17 93 -78 93h-701l-51 -292h714q47 0 66.5 17t27.5 64z" />
    <glyph glyph-name="uni0413" unicode="&#x413;" horiz-adv-x="905" 
d="M154 700h810l-11 -55h-745l-114 -645h-64z" />
    <glyph glyph-name="uni0414" unicode="&#x414;" horiz-adv-x="1088" 
d="M271 700h801l-113 -646h74l-31 -174h-62l22 120h-926l-21 -120h-62l30 174h35q58 0 83.5 20.5t39.5 79.5zM323 645l-117 -485q-19 -74 -51 -106h740l103 591h-675z" />
    <glyph glyph-name="uni0415" unicode="&#x415;" horiz-adv-x="974" 
d="M1004 700l-10 -54h-786l-44 -252h746l-10 -51h-745l-51 -289h796l-10 -54h-860l124 700h850z" />
    <glyph glyph-name="uni0416" unicode="&#x416;" horiz-adv-x="1728" 
d="M1655 700h137l-782 -344l662 -356h-125l-636 348l-62 -348h-64l62 350l-749 -350h-136l791 363l-662 337h127l633 -329l58 329h64l-59 -331z" />
    <glyph glyph-name="uni0417" unicode="&#x417;" horiz-adv-x="1074" 
d="M274 700h660q66 0 97 -37.5t19 -104.5l-14 -81q-9 -51 -28 -77t-54 -35q67 -31 50 -127l-21 -118q-11 -67 -42.5 -93.5t-98.5 -26.5h-680q-66 0 -97 37.5t-20 104.5l14 76h63l-13 -71q-17 -95 79 -95h641q46 0 65 16.5t27 62.5l20 117q18 95 -78 95h-495l10 51h501
q46 0 65 16t27 62l14 81q17 95 -78 95h-621q-46 0 -65 -16.5t-27 -62.5l-14 -79h-63l15 90q12 66 44 93t98 27z" />
    <glyph glyph-name="uni0418" unicode="&#x418;" horiz-adv-x="1104" 
d="M108 86l943 614h55l-124 -700h-63l109 617l-948 -617h-50l124 700h63z" />
    <glyph glyph-name="uni0419" unicode="&#x419;" horiz-adv-x="1104" 
d="M815 757h-277q-35 0 -51 19.5t-9 54.5l9 47h52l-9 -44q-6 -36 30 -36h246q35 0 40 35l9 45h52l-9 -51q-7 -38 -26 -54t-57 -16zM108 86l943 614h55l-124 -700h-63l109 617l-948 -617h-50l124 700h63z" />
    <glyph glyph-name="uni041A" unicode="&#x41a;" horiz-adv-x="972" 
d="M897 700h137l-782 -344l662 -356h-125l-635 349l-62 -349h-64l124 700h64l-58 -329z" />
    <glyph glyph-name="uni041B" unicode="&#x41b;" horiz-adv-x="1076" 
d="M31 0h-58l10 54h41q58 0 83 21q25 19 39 79l131 546h801l-124 -700h-64l113 645h-675l-119 -498q-20 -81 -60 -114t-118 -33z" />
    <glyph glyph-name="uni041C" unicode="&#x41c;" horiz-adv-x="1224" 
d="M599 211l567 489h60l-124 -700h-63l108 611l-535 -457h-39l-372 456l-108 -610h-63l124 700h51z" />
    <glyph glyph-name="uni041D" unicode="&#x41d;" horiz-adv-x="1084" 
d="M968 397l54 303h64l-124 -700h-64l60 341h-804l-60 -341h-64l124 700h64l-54 -303h804z" />
    <glyph glyph-name="uni041E" unicode="&#x41e;" horiz-adv-x="1094" 
d="M818 0h-614q-89 0 -128 47t-23 137l62 352q16 90 59.5 127t133.5 37h614q89 0 128 -47t23 -137l-62 -352q-16 -90 -59.5 -127t-133.5 -37zM229 54h576q70 0 101 27t43 97l59 333q12 70 -14.5 102.5t-95.5 32.5h-577q-69 0 -100.5 -27t-43.5 -97l-59 -333
q-11 -70 15.5 -102.5t95.5 -32.5z" />
    <glyph glyph-name="uni041F" unicode="&#x41f;" horiz-adv-x="1084" 
d="M94 0h-64l124 700h932l-124 -700h-64l113 645h-804z" />
    <glyph glyph-name="uni0420" unicode="&#x420;" horiz-adv-x="1026" 
d="M94 0h-64l124 700h748q164 0 134 -164l-21 -120q-15 -83 -51 -115q-37 -31 -120 -31h-702zM208 648l-57 -327h681q60 0 85 21q25 22 35 82l20 108q11 62 -11.5 89t-84.5 27h-668z" />
    <glyph glyph-name="uni0421" unicode="&#x421;" horiz-adv-x="1070" 
d="M797 0h-593q-89 0 -128 47t-23 137l62 352q16 90 59.5 127t133.5 37h593q89 0 128 -47t23 -137l-9 -54h-64l9 50q13 69 -14 101.5t-96 32.5h-557q-69 0 -100.5 -27t-43.5 -96l-59 -335q-12 -69 14.5 -101.5t95.5 -32.5h557q69 0 100 27t44 96l12 70h63l-14 -83
q-16 -90 -59.5 -127t-133.5 -37z" />
    <glyph glyph-name="uni0422" unicode="&#x422;" horiz-adv-x="966" 
d="M97 700h928l-11 -55h-431l-114 -645h-64l114 645h-433z" />
    <glyph glyph-name="uni0423" unicode="&#x423;" horiz-adv-x="1008" 
d="M502 273l497 427h88l-816 -700h-89l273 235l-378 465h80z" />
    <glyph glyph-name="uni0424" unicode="&#x424;" horiz-adv-x="1380" 
d="M790 651h409q89 0 128.5 -47t23.5 -137l-45 -254q-16 -90 -59.5 -127t-133.5 -37h-429l-16 -89h-62l16 89h-409q-89 0 -128 47t-23 137l45 254q16 91 59 127.5t133 36.5h429l16 89h62zM237 101h394l88 498h-406q-69 0 -100 -26q-30 -26 -44 -98l-43 -239
q-13 -70 14 -102.5t97 -32.5zM1243 225l43 239q13 70 -14 102.5t-97 32.5h-394l-88 -498h406q70 0 101 27t43 97z" />
    <glyph glyph-name="uni0425" unicode="&#x425;" horiz-adv-x="1030" 
d="M63 0h-101l526 355l-391 345h92l346 -306l453 306h101l-514 -345l400 -355h-92l-354 318z" />
    <glyph glyph-name="uni0426" unicode="&#x426;" horiz-adv-x="1102" 
d="M976 0h-945l123 700h64l-114 -645h804l114 645h64l-114 -645h75l-31 -175h-62z" />
    <glyph glyph-name="uni0427" unicode="&#x427;" horiz-adv-x="1046" 
d="M924 0h-64l51 288h-704q-164 0 -135 164l44 248h64l-42 -241q-11 -62 11 -89t84 -27h688l63 357h64z" />
    <glyph glyph-name="uni0428" unicode="&#x428;" horiz-adv-x="1598" 
d="M1476 0h-1446l124 700h64l-114 -645h627l114 645h64l-114 -645h627l114 645h64z" />
    <glyph glyph-name="uni0429" unicode="&#x429;" horiz-adv-x="1616" 
d="M1490 0h-1459l123 700h64l-114 -645h627l114 645h64l-114 -645h627l114 645h64l-114 -645h75l-31 -175h-62z" />
    <glyph glyph-name="uni042A" unicode="&#x42a;" horiz-adv-x="1237" 
d="M335 646h-248l10 54h312l-48 -270h704q164 0 135 -164l-21 -120q-15 -84 -52 -115t-120 -31h-786zM352 379l-57 -327h701q60 0 85 21q25 22 35 82l19 108q11 62 -11 89t-84 27h-688z" />
    <glyph glyph-name="uni042B" unicode="&#x42b;" horiz-adv-x="1254" 
d="M30 0l124 700h64l-48 -270h684q164 0 135 -164l-21 -120q-15 -84 -52 -115t-120 -31h-766zM1062 0l124 700h64l-124 -700h-64zM829 379h-668l-57 -327h681q59 0 85 21q25 22 35 82l19 108q11 62 -11 89t-84 27z" />
    <glyph glyph-name="uni042C" unicode="&#x42c;" horiz-adv-x="1026" 
d="M30 0l124 700h64l-48 -270h684q164 0 135 -164l-21 -120q-15 -84 -52 -115t-120 -31h-766zM829 379h-668l-57 -327h681q59 0 85 21q25 22 35 82l19 108q11 62 -11 89t-84 27z" />
    <glyph glyph-name="uni042D" unicode="&#x42d;" horiz-adv-x="1080" 
d="M304 700h604q89 0 128.5 -47t23.5 -137l-63 -352q-16 -90 -59.5 -127t-133.5 -37h-604q-88 0 -127.5 47t-23.5 137l11 63h64l-11 -61q-13 -69 14 -101.5t96 -32.5h568q69 0 100.5 27t43.5 96l29 165h-581l8 49h581l22 125q12 69 -14.5 101.5t-95.5 32.5h-567
q-69 0 -101 -27t-44 -96l-11 -63h-63l14 74q16 90 59 127t133 37z" />
    <glyph glyph-name="uni042E" unicode="&#x42e;" horiz-adv-x="1574" 
d="M788 700h614q89 0 128 -47t23 -137l-62 -352q-16 -90 -59.5 -127t-133.5 -37h-614q-89 0 -128 47t-23 137l28 157h-407l-60 -341h-64l124 700h64l-54 -303h407l24 139q16 90 59.5 127t133.5 37zM1429 178l59 333q12 70 -14.5 102.5t-95.5 32.5h-577q-69 0 -100.5 -27
t-43.5 -97l-59 -333q-11 -70 15.5 -102.5t95.5 -32.5h576q70 0 101 27t43 97z" />
    <glyph glyph-name="uni042F" unicode="&#x42f;" horiz-adv-x="1054" 
d="M290 700h766l-124 -700h-64l51 291h-515l-328 -291h-88l331 292l-83 1q-164 0 -135 164l17 97q15 84 52 115t120 31zM260 341h669l53 308h-681q-60 0 -84 -21q-26 -21 -36 -82l-16 -89q-11 -62 11 -89t84 -27z" />
    <glyph glyph-name="uni0430" unicode="&#x430;" horiz-adv-x="950" 
d="M258 522h504q162 0 134 -162l-64 -360h-50l6 80l-50 -31q-50 -31 -87 -40q-36 -9 -101 -9h-401q-60 0 -88.5 34.5t-17.5 94.5l9 49q12 63 42 88.5t91 25.5h636l12 67q11 64 -9.5 89t-84.5 25h-470q-46 0 -67 -18t-28 -63l-5 -31h-62l7 39q13 67 45.5 94.5t98.5 27.5z
M723 88l70 43l11 61l10 55h-613q-43 0 -62.5 -16.5t-26.5 -58.5l-6 -39q-7 -45 9.5 -65t61.5 -20h398q81 0 148 40z" />
    <glyph glyph-name="uni0431" unicode="&#x431;" horiz-adv-x="954" 
d="M929 659l-629 -21q-70 -2 -101 -28t-42 -95l-16 -97q33 40 107 40h531q66 0 97.5 -36t21.5 -102l-31 -197q-10 -67 -42.5 -95t-98.5 -28h-560q-65 0 -96 35.5t-22 102.5l58 384q13 90 55.5 127t135.5 41l638 20zM758 408h-524q-45 0 -66.5 -20.5t-28.5 -67.5l-1 1
l-28 -177q-15 -93 79 -93h523q45 0 64.5 17.5t27.5 63.5l31 183q15 93 -77 93z" />
    <glyph glyph-name="uni0432" unicode="&#x432;" horiz-adv-x="939" 
d="M122 522h687q49 0 72 -27.5t13 -77.5l-10 -58q-10 -67 -57 -85q53 -22 40 -95l-15 -86q-8 -50 -33.5 -71.5t-75.5 -21.5h-713l47 267zM821 360l9 48q7 35 -6.5 50.5t-48.5 15.5h-600l-30 -177h603q35 0 51 14t22 49zM792 110l13 75q7 35 -5.5 50.5t-47.5 15.5h-616
l-35 -202h620q35 0 50 13t21 48z" />
    <glyph glyph-name="uni0433" unicode="&#x433;" horiz-adv-x="797" 
d="M92 0h-62l92 522h702l-10 -52h-639z" />
    <glyph glyph-name="uni0434" unicode="&#x434;" horiz-adv-x="977" 
d="M213 522h717l-82 -471h74l-31 -171h-60l22 120h-819l-21 -120h-60l29 171h27q51 0 75 20t37 72zM264 470l-82 -328q-15 -61 -45 -91h649l73 419h-595z" />
    <glyph glyph-name="uni0435" unicode="&#x435;" horiz-adv-x="944" 
d="M258 522h504q81 0 113.5 -39t18.5 -121l-16 -100h-749l-17 -99q-11 -62 9 -87t82 -25h495q45 0 65.5 18t29.5 64l8 41h62l-10 -50q-14 -69 -45.5 -96.5t-97.5 -27.5h-528q-160 0 -133 162l37 214q15 83 53 115q37 31 119 31zM148 368l-10 -59h687l8 52q10 63 -9.5 87.5
t-81.5 24.5h-472q-61 0 -86 -22q-26 -23 -36 -83z" />
    <glyph glyph-name="uni0436" unicode="&#x436;" horiz-adv-x="1527" 
d="M1414 522h146l-656 -262l568 -260h-134l-545 252l-45 -252h-62l44 250l-621 -250h-148l661 265l-563 257h132l543 -252l44 252h63l-45 -252z" />
    <glyph glyph-name="uni0437" unicode="&#x437;" horiz-adv-x="944" 
d="M211 522h602q49 0 72 -27.5t13 -77.5l-10 -58q-13 -70 -62 -86q50 -24 37 -94l-15 -86q-8 -50 -33.5 -71.5t-75.5 -21.5h-615q-49 0 -72 27.5t-14 77.5l10 52h61l-7 -43q-7 -35 6 -50t49 -15h560q35 0 50 13.5t21 48.5l13 74q7 35 -5.5 50.5t-47.5 15.5h-427l9 46h422
q35 0 51 14t22 49l9 48q6 35 -7 50t-48 15h-546q-35 0 -49.5 -12.5t-22.5 -49.5l-7 -39h-62l10 57q8 50 33.5 71.5t75.5 21.5z" />
    <glyph glyph-name="uni0438" unicode="&#x438;" horiz-adv-x="978" 
d="M105 76l790 446h53l-92 -522h-62l80 449l-796 -449h-48l92 522h61z" />
    <glyph glyph-name="uni0439" unicode="&#x439;" horiz-adv-x="978" 
d="M711 579h-277q-35 0 -51 19.5t-9 54.5l9 47h52l-9 -44q-6 -36 30 -36h246q35 0 40 35l9 45h52l-9 -51q-7 -38 -26 -54t-57 -16zM105 76l790 446h53l-92 -522h-62l80 449l-796 -449h-48l92 522h61z" />
    <glyph glyph-name="uni043A" unicode="&#x43a;" horiz-adv-x="871" 
d="M758 522h146l-656 -262l568 -260h-135l-545 252l-44 -252h-63l93 522h62l-44 -252z" />
    <glyph glyph-name="uni043B" unicode="&#x43b;" horiz-adv-x="966" 
d="M29 0h-56l9 51h33q51 0 75 20t37 72l92 379h717l-92 -522h-63l83 470h-595l-84 -340q-17 -67 -54 -98.5t-102 -31.5z" />
    <glyph glyph-name="uni043C" unicode="&#x43c;" horiz-adv-x="1064" 
d="M90 0h-60l92 522h51l338 -355l465 355h58l-92 -522h-61l80 449l-439 -335h-33l-319 335z" />
    <glyph glyph-name="uni043D" unicode="&#x43d;" horiz-adv-x="964" 
d="M832 297l40 225h62l-92 -522h-63l43 244h-687l-43 -244h-62l92 522h62l-40 -225h688z" />
    <glyph glyph-name="uni043E" unicode="&#x43e;" horiz-adv-x="954" 
d="M698 0h-512q-166 0 -136 166l37 212q13 82 51 114q36 30 118 30h512q81 0 116 -42t21 -124l-37 -212q-15 -83 -51 -113q-37 -31 -119 -31zM209 52h477q62 0 87 21q23 19 34 81l35 199q11 62 -12 89.5t-85 27.5h-477q-61 0 -86 -20q-24 -20 -35 -82l-35 -199
q-11 -62 12 -89.5t85 -27.5z" />
    <glyph glyph-name="uni043F" unicode="&#x43f;" horiz-adv-x="964" 
d="M92 0h-62l92 522h812l-92 -522h-63l83 470h-687z" />
    <glyph glyph-name="uni0440" unicode="&#x440;" horiz-adv-x="964" 
d="M419 522h363q162 0 133 -162l-38 -214q-13 -82 -51 -114t-120 -32h-372q-74 0 -118 11q-45 11 -84 44l-26 22l-42 -237h-62l120 682h49l-4 -80l38 25q54 35 97 45q40 10 117 10zM816 153l35 202q11 62 -10.5 88.5t-83.5 26.5h-363q-100 0 -174 -45l-59 -38l-45 -256
l46 -37q50 -42 166 -42h370q60 0 85 20q23 20 33 81z" />
    <glyph glyph-name="uni0441" unicode="&#x441;" horiz-adv-x="933" 
d="M677 0h-491q-166 0 -136 166l37 212q13 82 51 114q36 30 118 30h491q159 0 137 -166l-4 -23h-61l3 20q9 63 -13 90t-84 27h-457q-61 0 -86 -20q-24 -20 -35 -82l-35 -199q-11 -62 12 -89.5t85 -27.5h457q62 0 87 21q23 19 34 81l7 44h62l-9 -54q-15 -83 -51 -113
q-37 -31 -119 -31z" />
    <glyph glyph-name="uni0442" unicode="&#x442;" horiz-adv-x="846" 
d="M428 470h-373l10 52h808l-10 -52h-372l-83 -470h-62z" />
    <glyph glyph-name="uni0443" unicode="&#x443;" horiz-adv-x="908" 
d="M414 56l452 466h80l-540 -551q-79 -81 -130 -106t-150 -25h-141l9 52h150q66 0 107 18q40 19 94 76l27 28l-318 508h73z" />
    <glyph glyph-name="uni0444" unicode="&#x444;" horiz-adv-x="1310" 
d="M733 522h391q81 0 116 -42t21 -124l-37 -212q-15 -83 -51 -113q-37 -31 -119 -31h-414l-28 -160h-62l28 160h-392q-166 0 -136 166l37 212q13 82 51 114q36 30 118 30h415l31 178h62zM209 50h378l75 422h-394q-61 0 -86 -20q-24 -20 -35 -83l-35 -202q-11 -62 12 -89.5
t85 -27.5zM1163 153l35 202q11 62 -12 89.5t-85 27.5h-377l-75 -422h393q62 0 87 21q24 21 34 82z" />
    <glyph glyph-name="uni0445" unicode="&#x445;" horiz-adv-x="892" 
d="M67 0h-106l437 266l-334 256h97l288 -222l365 222h106l-424 -256l341 -266h-96l-297 232z" />
    <glyph glyph-name="uni0446" unicode="&#x446;" horiz-adv-x="981" 
d="M856 0h-825l91 522h62l-82 -470h687l83 470h62l-82 -470h73l-30 -172h-61z" />
    <glyph glyph-name="uni0447" unicode="&#x447;" horiz-adv-x="910" 
d="M84 523l63 -1l-30 -164q-8 -47 9.5 -68t64.5 -21h582l45 253h62l-92 -522h-63l39 217h-596q-66 0 -95.5 35.5t-17.5 102.5z" />
    <glyph glyph-name="uni0448" unicode="&#x448;" horiz-adv-x="1419" 
d="M1297 0h-1267l92 522h62l-82 -470h540l82 470h63l-83 -470h540l83 470h62z" />
    <glyph glyph-name="uni0449" unicode="&#x449;" horiz-adv-x="1456" 
d="M1331 0h-1300l91 522h62l-82 -470h550l82 470h63l-83 -470h550l83 470h62l-82 -470h74l-31 -172h-61z" />
    <glyph glyph-name="uni044A" unicode="&#x44a;" horiz-adv-x="1051" 
d="M253 470h-198l10 52h261l-36 -202h600q64 0 92.5 -34t17.5 -100l-12 -66q-11 -66 -43 -93t-98 -27h-676zM281 272l-39 -223h593q44 0 64.5 17t28.5 61l9 57q8 47 -8.5 67.5t-63.5 20.5h-584z" />
    <glyph glyph-name="uni044B" unicode="&#x44b;" horiz-adv-x="1132" 
d="M30 0l92 522h62l-35 -202h599q65 0 93.5 -34t17.5 -100l-12 -66q-11 -66 -43 -93t-98 -27h-676zM1006 0h-62l92 522h63zM723 272h-583l-39 -223h593q44 0 64.5 17t28.5 61l9 57q8 47 -9 67.5t-64 20.5z" />
    <glyph glyph-name="uni044C" unicode="&#x44c;" horiz-adv-x="910" 
d="M30 0l92 522h62l-35 -202h599q65 0 93.5 -34t17.5 -100l-12 -66q-11 -66 -43 -93t-98 -27h-676zM723 272h-583l-39 -223h593q44 0 64.5 17t28.5 61l9 57q8 47 -9 67.5t-64 20.5z" />
    <glyph glyph-name="uni044D" unicode="&#x44d;" horiz-adv-x="953" 
d="M256 522h511q166 0 136 -166l-37 -212q-14 -83 -50 -113q-37 -31 -119 -31h-511q-162 0 -137 166l6 32h61l-5 -30q-10 -62 12.5 -89.5t84.5 -27.5h477q61 0 86 21q24 20 35 82l17 99h-499l7 45h500l10 56q11 62 -12 89.5t-85 27.5h-477q-61 0 -86 -20q-24 -21 -35 -83
l-6 -35h-61l7 45q14 82 51 114q36 30 119 30z" />
    <glyph glyph-name="uni044E" unicode="&#x44e;" horiz-adv-x="1358" 
d="M660 522h512q81 0 116 -42t21 -124l-37 -212q-15 -83 -51 -113q-37 -31 -119 -31h-512q-166 0 -136 166l14 78h-333l-43 -244h-62l92 522h62l-40 -225h333l14 81q13 82 51 114q36 30 118 30zM1211 154l35 199q11 62 -12 89.5t-85 27.5h-477q-61 0 -86 -20
q-24 -20 -35 -82l-35 -199q-11 -62 12 -89.5t85 -27.5h477q62 0 87 21q23 19 34 81z" />
    <glyph glyph-name="uni044F" unicode="&#x44f;" horiz-adv-x="937" 
d="M231 522h676l-92 -522h-63l38 214h-480l-239 -214h-82l241 214h-3l-37 1q-66 0 -94.5 34.5t-15.5 99.5l10 53q12 66 44 93t97 27zM214 261h584l38 213h-593q-44 0 -64 -17t-28 -62l-8 -47q-8 -47 8 -67t63 -20z" />
    <glyph glyph-name="uni0451" unicode="&#x451;" horiz-adv-x="944" 
d="M393 664h57l-12 -67h-57zM636 664h57l-12 -67h-57zM258 522h504q81 0 113.5 -39t18.5 -121l-16 -100h-749l-17 -99q-11 -62 9 -87t82 -25h495q45 0 65.5 18t29.5 64l8 41h62l-10 -50q-14 -69 -45.5 -96.5t-97.5 -27.5h-528q-160 0 -133 162l37 214q15 83 53 115
q37 31 119 31zM148 368l-10 -59h687l8 52q10 63 -9.5 87.5t-81.5 24.5h-472q-61 0 -86 -22q-26 -23 -36 -83z" />
    <glyph glyph-name="uni0453" unicode="&#x453;" horiz-adv-x="797" 
d="M709 700l-214 -121h-76l199 121h91zM92 0h-62l92 522h702l-10 -52h-639z" />
    <glyph glyph-name="uni0455" unicode="&#x455;" horiz-adv-x="934" 
d="M40 115l7 38h61l-6 -36q-11 -68 57 -68h549q33 0 49 14t22 46l10 59q6 36 -7 52.5t-48 18.5l-546 29q-110 6 -91 112l8 40q10 53 38.5 77.5t80.5 24.5h562q52 0 78 -31t16 -83l-7 -36h-61l6 34q10 67 -56 67h-526q-32 0 -48.5 -14.5t-22.5 -46.5l-4 -24q-13 -68 54 -72
l546 -29q54 -2 78 -31.5t14 -82.5l-14 -73q-17 -100 -117 -100h-588q-51 0 -76.5 31t-17.5 84z" />
    <glyph glyph-name="uni0456" unicode="&#x456;" horiz-adv-x="222" 
d="M208 630h-63l13 70h62zM96 0h-62l92 522h63z" />
    <glyph glyph-name="uni0457" unicode="&#x457;" horiz-adv-x="222" 
d="M77 597h-57l12 67h57zM320 597h-57l12 67h57zM96 0h-62l92 522h63z" />
    <glyph glyph-name="uni0458" unicode="&#x458;" horiz-adv-x="322" 
d="M308 630h-63l13 70h62zM46 -160h-244l10 51h223q47 0 66.5 16.5t27.5 63.5l97 551h63l-99 -560q-11 -67 -44 -94.5t-100 -27.5z" />
    <glyph glyph-name="uni045C" unicode="&#x45c;" horiz-adv-x="871" 
d="M655 700h91l-214 -121h-76zM758 522h146l-656 -262l568 -260h-135l-545 252l-44 -252h-63l93 522h62l-44 -252z" />
    <glyph glyph-name="uni045E" unicode="&#x45e;" horiz-adv-x="908" 
d="M695 579h-277q-35 0 -51 19.5t-9 54.5l9 47h52l-9 -44q-6 -36 30 -36h246q35 0 40 35l9 45h52l-9 -51q-7 -38 -26 -54t-57 -16zM414 56l452 466h80l-540 -551q-79 -81 -130 -106t-150 -25h-141l9 52h150q66 0 107 18q40 19 94 76l27 28l-318 508h73z" />
    <glyph glyph-name="uni0498" unicode="&#x498;" horiz-adv-x="1074" 
d="M274 700h660q66 0 97 -37.5t19 -104.5l-14 -81q-9 -51 -28 -77t-54 -35q67 -31 50 -127l-21 -118q-11 -67 -42.5 -93.5t-98.5 -26.5h-340l-20 -36h108q52 0 43 -53l-4 -22q-5 -29 -17.5 -39t-40.5 -10h-235l6 37h224q9 0 12.5 3t5.5 12l4 19q5 17 -14 17h-144l2 15l32 57
h-302q-66 0 -97 37.5t-20 104.5l14 76h63l-13 -71q-17 -95 79 -95h641q46 0 65 16.5t27 62.5l20 117q18 95 -78 95h-495l10 51h501q46 0 65 16t27 62l14 81q17 95 -78 95h-621q-46 0 -65 -16.5t-27 -62.5l-14 -79h-63l15 90q12 66 44 93t98 27z" />
    <glyph glyph-name="uni0499" unicode="&#x499;" horiz-adv-x="944" 
d="M211 522h602q49 0 72 -27.5t13 -77.5l-10 -58q-13 -70 -62 -86q50 -24 37 -94l-15 -86q-8 -50 -33.5 -71.5t-75.5 -21.5h-302l-20 -36h108q52 0 43 -53l-4 -22q-5 -29 -17.5 -39t-40.5 -10h-235l6 37h224q9 0 12.5 3t5.5 12l4 19q5 17 -14 17h-144l2 15l32 57h-275
q-49 0 -72 27.5t-14 77.5l10 52h61l-7 -43q-7 -35 6 -50t49 -15h560q35 0 50 13.5t21 48.5l13 74q7 35 -5.5 50.5t-47.5 15.5h-427l9 46h422q35 0 51 14t22 49l9 48q6 35 -7 50t-48 15h-546q-35 0 -49.5 -12.5t-22.5 -49.5l-7 -39h-62l10 57q8 50 33.5 71.5t75.5 21.5z" />
    <glyph glyph-name="uni04BB" unicode="&#x4bb;" horiz-adv-x="960" 
d="M416 522h352q166 0 136 -166l-62 -356h-63l62 353q11 62 -11.5 89.5t-84.5 27.5h-351q-103 0 -174 -44l-59 -37l-69 -389h-62l124 700h62l-45 -253l31 20q56 35 98 45q40 10 116 10z" />
    <glyph glyph-name="uni04C0" unicode="&#x4c0;" horiz-adv-x="228" 
d="M36 0l124 700h64l-124 -700h-64z" />
    <glyph glyph-name="uni04C1" unicode="&#x4c1;" horiz-adv-x="1728" 
d="M1138 757h-277q-35 0 -51 19.5t-9 54.5l9 47h52l-9 -44q-6 -36 30 -36h246q35 0 40 35l9 45h52l-9 -51q-7 -38 -26 -54t-57 -16zM1655 700h137l-782 -344l662 -356h-125l-636 348l-62 -348h-64l62 350l-749 -350h-136l791 363l-662 337h127l633 -329l58 329h64l-59 -331z
" />
    <glyph glyph-name="uni04C2" unicode="&#x4c2;" horiz-adv-x="1527" 
d="M1006 579h-277q-35 0 -51 19.5t-9 54.5l9 47h52l-9 -44q-6 -36 30 -36h246q35 0 40 35l9 45h52l-9 -51q-7 -38 -26 -54t-57 -16zM1414 522h146l-656 -262l568 -260h-134l-545 252l-45 -252h-62l44 250l-621 -250h-148l661 265l-563 257h132l543 -252l44 252h63l-45 -252z
" />
    <glyph glyph-name="uni04D0" unicode="&#x4d0;" horiz-adv-x="1082" 
d="M815 757h-277q-35 0 -51 19.5t-9 54.5l9 47h52l-9 -44q-6 -36 30 -36h246q35 0 40 35l9 45h52l-9 -51q-7 -38 -26 -54t-57 -16zM1037 0h-69l-107 195h-658l-176 -195h-74l633 700h66zM613 650l-362 -402h581z" />
    <glyph glyph-name="uni04D1" unicode="&#x4d1;" horiz-adv-x="950" 
d="M717 579h-277q-35 0 -51 19.5t-9 54.5l9 47h52l-9 -44q-6 -36 30 -36h246q35 0 40 35l9 45h52l-9 -51q-7 -38 -26 -54t-57 -16zM258 522h504q162 0 134 -162l-64 -360h-50l6 80l-50 -31q-50 -31 -87 -40q-36 -9 -101 -9h-401q-60 0 -88.5 34.5t-17.5 94.5l9 49
q12 63 42 88.5t91 25.5h636l12 67q11 64 -9.5 89t-84.5 25h-470q-46 0 -67 -18t-28 -63l-5 -31h-62l7 39q13 67 45.5 94.5t98.5 27.5zM723 88l70 43l11 61l10 55h-613q-43 0 -62.5 -16.5t-26.5 -58.5l-6 -39q-7 -45 9.5 -65t61.5 -20h398q81 0 148 40z" />
    <glyph glyph-name="uni04D2" unicode="&#x4d2;" horiz-adv-x="1082" 
d="M494 842h57l-12 -67h-57zM737 842h57l-12 -67h-57zM1037 0h-69l-107 195h-658l-176 -195h-74l633 700h66zM613 650l-362 -402h581z" />
    <glyph glyph-name="uni04D3" unicode="&#x4d3;" horiz-adv-x="950" 
d="M396 664h57l-12 -67h-57zM639 664h57l-12 -67h-57zM258 522h504q162 0 134 -162l-64 -360h-50l6 80l-50 -31q-50 -31 -87 -40q-36 -9 -101 -9h-401q-60 0 -88.5 34.5t-17.5 94.5l9 49q12 63 42 88.5t91 25.5h636l12 67q11 64 -9.5 89t-84.5 25h-470q-46 0 -67 -18
t-28 -63l-5 -31h-62l7 39q13 67 45.5 94.5t98.5 27.5zM723 88l70 43l11 61l10 55h-613q-43 0 -62.5 -16.5t-26.5 -58.5l-6 -39q-7 -45 9.5 -65t61.5 -20h398q81 0 148 40z" />
    <glyph glyph-name="uni04D4" unicode="&#x4d4;" horiz-adv-x="1571" 
d="M1601 700l-10 -52h-910l140 -255h686l-9 -49h-651l160 -292h490l-10 -52h-521l-106 195h-657l-176 -195h-74l633 700h1015zM613 650l-362 -402h580z" />
    <glyph glyph-name="uni04D5" unicode="&#x4d5;" horiz-adv-x="1694" 
d="M1013 522h499q81 0 113.5 -39t18.5 -123l-16 -98h-749l-17 -99q-11 -62 9 -87t82 -25h494q45 0 66 18t30 64l8 41h61l-10 -52q-12 -66 -45 -94t-98 -28h-522q-119 0 -135 84l-56 -35q-50 -31 -87 -40q-36 -9 -101 -9h-409q-60 0 -88.5 34.5t-17.5 94.5l9 50
q12 62 42 87.5t91 25.5h636l12 67q11 64 -9.5 89t-84.5 25h-470q-46 0 -67 -18t-28 -63l-5 -31h-62l7 39q13 67 45.5 94.5t98.5 27.5h499q97 0 120 -57q19 31 50 44t86 13zM898 368l-10 -59h686l9 52q10 63 -10 87.5t-82 24.5h-472q-62 0 -86 -21q-25 -22 -35 -84zM723 88
l70 43l21 116h-613q-43 0 -62.5 -16.5t-26.5 -58.5l-6 -39q-7 -45 9.5 -65t61.5 -20h398q81 0 148 40z" />
    <glyph glyph-name="uni04D6" unicode="&#x4d6;" horiz-adv-x="974" 
d="M761 757h-277q-35 0 -51 19.5t-9 54.5l9 47h52l-9 -44q-6 -36 30 -36h246q35 0 40 35l9 45h52l-9 -51q-7 -38 -26 -54t-57 -16zM1004 700l-10 -54h-786l-44 -252h746l-10 -51h-745l-51 -289h796l-10 -54h-860l124 700h850z" />
    <glyph glyph-name="uni04D7" unicode="&#x4d7;" horiz-adv-x="944" 
d="M714 579h-277q-35 0 -51 19.5t-9 54.5l9 47h52l-9 -44q-6 -36 30 -36h246q35 0 40 35l9 45h52l-9 -51q-7 -38 -26 -54t-57 -16zM258 522h504q81 0 113.5 -39t18.5 -121l-16 -100h-749l-17 -99q-11 -62 9 -87t82 -25h495q45 0 65.5 18t29.5 64l8 41h62l-10 -50
q-14 -69 -45.5 -96.5t-97.5 -27.5h-528q-160 0 -133 162l37 214q15 83 53 115q37 31 119 31zM148 368l-10 -59h687l8 52q10 63 -9.5 87.5t-81.5 24.5h-472q-61 0 -86 -22q-26 -23 -36 -83z" />
    <glyph glyph-name="uni04DC" unicode="&#x4dc;" horiz-adv-x="1728" 
d="M817 842h57l-12 -67h-57zM1060 842h57l-12 -67h-57zM1655 700h137l-782 -344l662 -356h-125l-636 348l-62 -348h-64l62 350l-749 -350h-136l791 363l-662 337h127l633 -329l58 329h64l-59 -331z" />
    <glyph glyph-name="uni04DD" unicode="&#x4dd;" horiz-adv-x="1527" 
d="M685 664h57l-12 -67h-57zM928 664h57l-12 -67h-57zM1414 522h146l-656 -262l568 -260h-134l-545 252l-45 -252h-62l44 250l-621 -250h-148l661 265l-563 257h132l543 -252l44 252h63l-45 -252z" />
    <glyph glyph-name="uni04DE" unicode="&#x4de;" horiz-adv-x="1074" 
d="M490 842h57l-12 -67h-57zM733 842h57l-12 -67h-57zM274 700h660q66 0 97 -37.5t19 -104.5l-14 -81q-9 -51 -28 -77t-54 -35q67 -31 50 -127l-21 -118q-11 -67 -42.5 -93.5t-98.5 -26.5h-680q-66 0 -97 37.5t-20 104.5l14 76h63l-13 -71q-17 -95 79 -95h641q46 0 65 16.5
t27 62.5l20 117q18 95 -78 95h-495l10 51h501q46 0 65 16t27 62l14 81q17 95 -78 95h-621q-46 0 -65 -16.5t-27 -62.5l-14 -79h-63l15 90q12 66 44 93t98 27z" />
    <glyph glyph-name="uni04DF" unicode="&#x4df;" horiz-adv-x="944" 
d="M393 664h57l-12 -67h-57zM636 664h57l-12 -67h-57zM211 522h602q49 0 72 -27.5t13 -77.5l-10 -58q-13 -70 -62 -86q50 -24 37 -94l-15 -86q-8 -50 -33.5 -71.5t-75.5 -21.5h-615q-49 0 -72 27.5t-14 77.5l10 52h61l-7 -43q-7 -35 6 -50t49 -15h560q35 0 50 13.5t21 48.5
l13 74q7 35 -5.5 50.5t-47.5 15.5h-427l9 46h422q35 0 51 14t22 49l9 48q6 35 -7 50t-48 15h-546q-35 0 -49.5 -12.5t-22.5 -49.5l-7 -39h-62l10 57q8 50 33.5 71.5t75.5 21.5z" />
    <glyph glyph-name="uni04E2" unicode="&#x4e2;" horiz-adv-x="1104" 
d="M420 841h448l-7 -43h-448zM108 86l943 614h55l-124 -700h-63l109 617l-948 -617h-50l124 700h63z" />
    <glyph glyph-name="uni04E3" unicode="&#x4e3;" horiz-adv-x="978" 
d="M316 663h448l-7 -43h-448zM105 76l790 446h53l-92 -522h-62l80 449l-796 -449h-48l92 522h61z" />
    <glyph glyph-name="uni04E4" unicode="&#x4e4;" horiz-adv-x="1104" 
d="M494 842h57l-12 -67h-57zM737 842h57l-12 -67h-57zM108 86l943 614h55l-124 -700h-63l109 617l-948 -617h-50l124 700h63z" />
    <glyph glyph-name="uni04E5" unicode="&#x4e5;" horiz-adv-x="978" 
d="M390 664h57l-12 -67h-57zM633 664h57l-12 -67h-57zM105 76l790 446h53l-92 -522h-62l80 449l-796 -449h-48l92 522h61z" />
    <glyph glyph-name="uni04E6" unicode="&#x4e6;" horiz-adv-x="1094" 
d="M545 775h-57l12 67h57zM788 775h-57l12 67h57zM818 0h-614q-89 0 -128 47t-23 137l62 352q16 90 59.5 127t133.5 37h614q89 0 128 -47t23 -137l-62 -352q-16 -90 -59.5 -127t-133.5 -37zM229 54h576q70 0 101 27t43 97l59 333q12 70 -14.5 102.5t-95.5 32.5h-577
q-69 0 -100.5 -27t-43.5 -97l-59 -333q-11 -70 15.5 -102.5t95.5 -32.5z" />
    <glyph glyph-name="uni04E7" unicode="&#x4e7;" horiz-adv-x="954" 
d="M443 597h-57l12 67h57zM686 597h-57l12 67h57zM698 0h-512q-166 0 -136 166l37 212q13 82 51 114q36 30 118 30h512q81 0 116 -42t21 -124l-37 -212q-15 -83 -51 -113q-37 -31 -119 -31zM209 52h477q62 0 87 21q23 19 34 81l35 199q11 62 -12 89.5t-85 27.5h-477
q-61 0 -86 -20q-24 -20 -35 -82l-35 -199q-11 -62 12 -89.5t85 -27.5z" />
    <glyph glyph-name="uni04EC" unicode="&#x4ec;" horiz-adv-x="1080" 
d="M493 842h57l-12 -67h-57zM736 842h57l-12 -67h-57zM304 700h604q89 0 128.5 -47t23.5 -137l-63 -352q-16 -90 -59.5 -127t-133.5 -37h-604q-88 0 -127.5 47t-23.5 137l11 63h64l-11 -61q-13 -69 14 -101.5t96 -32.5h568q69 0 100.5 27t43.5 96l29 165h-581l8 49h581
l22 125q12 69 -14.5 101.5t-95.5 32.5h-567q-69 0 -101 -27t-44 -96l-11 -63h-63l14 74q16 90 59 127t133 37z" />
    <glyph glyph-name="uni04ED" unicode="&#x4ed;" horiz-adv-x="953" 
d="M398 664h57l-12 -67h-57zM641 664h57l-12 -67h-57zM256 522h511q166 0 136 -166l-37 -212q-14 -83 -50 -113q-37 -31 -119 -31h-511q-162 0 -137 166l6 32h61l-5 -30q-10 -62 12.5 -89.5t84.5 -27.5h477q61 0 86 21q24 20 35 82l17 99h-499l7 45h500l10 56
q11 62 -12 89.5t-85 27.5h-477q-61 0 -86 -20q-24 -21 -35 -83l-6 -35h-61l7 45q14 82 51 114q36 30 119 30z" />
    <glyph glyph-name="uni04EE" unicode="&#x4ee;" horiz-adv-x="1008" 
d="M381 841h448l-7 -43h-448zM502 273l497 427h88l-816 -700h-89l273 235l-378 465h80z" />
    <glyph glyph-name="uni04EF" unicode="&#x4ef;" horiz-adv-x="908" 
d="M300 663h448l-7 -43h-448zM414 56l452 466h80l-540 -551q-79 -81 -130 -106t-150 -25h-141l9 52h150q66 0 107 18q40 19 94 76l27 28l-318 508h73z" />
    <glyph glyph-name="uni04F0" unicode="&#x4f0;" horiz-adv-x="1008" 
d="M455 842h57l-12 -67h-57zM698 842h57l-12 -67h-57zM502 273l497 427h88l-816 -700h-89l273 235l-378 465h80z" />
    <glyph glyph-name="uni04F1" unicode="&#x4f1;" horiz-adv-x="908" 
d="M374 664h57l-12 -67h-57zM617 664h57l-12 -67h-57zM414 56l452 466h80l-540 -551q-79 -81 -130 -106t-150 -25h-141l9 52h150q66 0 107 18q40 19 94 76l27 28l-318 508h73z" />
    <glyph glyph-name="uni04F2" unicode="&#x4f2;" horiz-adv-x="1008" 
d="M593 878h83l-169 -121h-69zM900 878l-169 -121h-68l155 121h82zM502 273l497 427h88l-816 -700h-89l273 235l-378 465h80z" />
    <glyph glyph-name="uni04F3" unicode="&#x4f3;" horiz-adv-x="908" 
d="M512 700h83l-169 -121h-69zM819 700l-169 -121h-68l155 121h82zM414 56l452 466h80l-540 -551q-79 -81 -130 -106t-150 -25h-141l9 52h150q66 0 107 18q40 19 94 76l27 28l-318 508h73z" />
    <glyph glyph-name="uni04F4" unicode="&#x4f4;" horiz-adv-x="1046" 
d="M521 775h-57l12 67h57zM764 775h-57l12 67h57zM924 0h-64l51 288h-704q-164 0 -135 164l44 248h64l-42 -241q-11 -62 11 -89t84 -27h688l63 357h64z" />
    <glyph glyph-name="uni04F5" unicode="&#x4f5;" horiz-adv-x="600" 
d="M193 597h-57l12 67h57zM436 597h-57l12 67h57zM84 523l63 -1l-30 -164q-8 -47 9.5 -68t64.5 -21h582l45 253h62l-92 -522h-63l39 217h-596q-66 0 -95.5 35.5t-17.5 102.5z" />
    <glyph glyph-name="uni04F8" unicode="&#x4f8;" horiz-adv-x="1254" 
d="M1138 775h-57l12 67h57zM1381 775h-57l12 67h57zM30 0l124 700h64l-48 -270h684q164 0 135 -164l-21 -120q-15 -84 -52 -115t-120 -31h-766zM1062 0l124 700h64l-124 -700h-64zM829 379h-668l-57 -327h681q59 0 85 21q25 22 35 82l19 108q11 62 -11 89t-84 27z" />
    <glyph glyph-name="uni04F9" unicode="&#x4f9;" horiz-adv-x="1132" 
d="M987 597h-57l12 67h57zM1230 597h-57l12 67h57zM30 0l92 522h62l-35 -202h599q65 0 93.5 -34t17.5 -100l-12 -66q-11 -66 -43 -93t-98 -27h-676zM1006 0h-62l92 522h63zM723 272h-583l-39 -223h593q44 0 64.5 17t28.5 61l9 57q8 47 -9 67.5t-64 20.5z" />
    <glyph glyph-name="Wgrave" unicode="&#x1e80;" horiz-adv-x="1460" 
d="M692 878l155 -121h-66l-171 121h82zM1033 72l433 628h73l-485 -700h-57l-203 620l-422 -620h-58l-237 700h67l211 -629l423 629h53z" />
    <glyph glyph-name="wgrave" unicode="&#x1e81;" horiz-adv-x="1254" 
d="M554 700l155 -121h-66l-171 121h82zM876 66l342 456h73l-396 -522h-54l-181 453l-341 -453h-52l-212 522h68l180 -456l342 456h50z" />
    <glyph glyph-name="Wacute" unicode="&#x1e82;" horiz-adv-x="1460" 
d="M979 878h91l-214 -121h-76zM1033 72l433 628h73l-485 -700h-57l-203 620l-422 -620h-58l-237 700h67l211 -629l423 629h53z" />
    <glyph glyph-name="wacute" unicode="&#x1e83;" horiz-adv-x="1254" 
d="M841 700h91l-214 -121h-76zM876 66l342 456h73l-396 -522h-54l-181 453l-341 -453h-52l-212 522h68l180 -456l342 456h50z" />
    <glyph glyph-name="Wdieresis" unicode="&#x1e84;" horiz-adv-x="1460" 
d="M681 842h57l-12 -67h-57zM924 842h57l-12 -67h-57zM1033 72l433 628h73l-485 -700h-57l-203 620l-422 -620h-58l-237 700h67l211 -629l423 629h53z" />
    <glyph glyph-name="wdieresis" unicode="&#x1e85;" horiz-adv-x="1254" 
d="M543 664h57l-12 -67h-57zM786 664h57l-12 -67h-57zM876 66l342 456h73l-396 -522h-54l-181 453l-341 -453h-52l-212 522h68l180 -456l342 456h50z" />
    <glyph glyph-name="uni1E9E" unicode="&#x1e9e;" horiz-adv-x="1091" 
d="M309 700h751l-6 -35l-498 -261h358q66 0 96 -36.5t19 -103.5l-25 -144q-11 -66 -43 -93t-99 -27h-531l10 51h508q46 0 65.5 16.5t26.5 62.5l23 130q9 49 -9.5 71t-66.5 22h-474l7 37l496 256h-598q-68 0 -99 -26t-43 -94l-92 -526h-64l94 536q16 90 60 127t134 37z" />
    <glyph glyph-name="Ygrave" unicode="&#x1ef2;" horiz-adv-x="1008" 
d="M467 878l155 -121h-66l-171 121h82zM996 700h91l-551 -440l-46 -260h-64l46 260l-395 440h83l350 -393z" />
    <glyph glyph-name="ygrave" unicode="&#x1ef3;" horiz-adv-x="908" 
d="M385 700l155 -121h-66l-171 121h82zM414 56l452 466h80l-540 -551q-79 -81 -130 -106t-150 -25h-141l9 52h150q66 0 107 18q40 19 94 76l27 28l-318 508h73z" />
    <glyph glyph-name="endash" unicode="&#x2013;" horiz-adv-x="940" 
d="M68 323l9 54h826l-9 -54h-826z" />
    <glyph glyph-name="emdash" unicode="&#x2014;" horiz-adv-x="1220" 
d="M68 323l9 54h1106l-9 -54h-1106z" />
    <glyph glyph-name="quoteleft" unicode="&#x2018;" horiz-adv-x="236" 
d="M202 700h45l-66 -160h28l-13 -78h-84l7 40q6 32 18 56z" />
    <glyph glyph-name="quoteright" unicode="&#x2019;" horiz-adv-x="236" 
d="M147 462h-45l66 160h-28l13 78h84l-7 -40q-6 -32 -18 -56z" />
    <glyph glyph-name="quotesinglbase" unicode="&#x201a;" horiz-adv-x="236" 
d="M38 -160h-45l66 160h-28l13 78h84l-7 -40q-6 -32 -18 -56z" />
    <glyph glyph-name="quotedblleft" unicode="&#x201c;" horiz-adv-x="434" 
d="M202 700h45l-66 -160h28l-13 -78h-84l7 40q6 32 18 56zM400 700h45l-66 -160h28l-13 -78h-84l7 40q6 32 18 56z" />
    <glyph glyph-name="quotedblright" unicode="&#x201d;" horiz-adv-x="434" 
d="M147 462h-45l66 160h-28l13 78h84l-7 -40q-6 -32 -18 -56zM345 462h-45l66 160h-28l13 78h84l-7 -40q-6 -32 -18 -56z" />
    <glyph glyph-name="quotedblbase" unicode="&#x201e;" horiz-adv-x="434" 
d="M38 -160h-45l66 160h-28l13 78h84l-7 -40q-6 -32 -18 -56zM236 -160h-45l66 160h-28l13 78h84l-7 -40q-6 -32 -18 -56z" />
    <glyph glyph-name="dagger" unicode="&#x2020;" horiz-adv-x="608" 
d="M383 569h231l-8 -44h-230l-42 -239h-51l42 239h-231l8 44h231l23 131h50z" />
    <glyph glyph-name="daggerdbl" unicode="&#x2021;" horiz-adv-x="608" 
d="M615 573l-7 -44h-231l-29 -162h231l-8 -44h-231l-22 -127h-51l22 127h-230l8 44h230l29 162h-230l7 44h231l22 127h51l-22 -127h230z" />
    <glyph glyph-name="bullet" unicode="&#x2022;" horiz-adv-x="320" 
d="M200 266h-72q-50 0 -41 50l12 73q5 25 16.5 35t36.5 10h72q50 0 41 -50l-12 -73q-5 -25 -16.5 -35t-36.5 -10z" />
    <glyph glyph-name="perthousand" unicode="&#x2030;" horiz-adv-x="1650" 
d="M543 508l-17 -101q-9 -53 -36 -75.5t-80 -22.5h-242q-53 0 -76.5 29.5t-14.5 82.5l17 101q9 54 35.5 76t80.5 22h242q53 0 76.5 -29t14.5 -83zM161 0h-73l908 620h73zM182 353h223q36 0 52 13.5t22 48.5l16 92q13 69 -57 69h-224q-35 0 -50.5 -13t-22.5 -49l-16 -92
q-12 -69 57 -69zM948 0h-242q-53 0 -77 29.5t-15 82.5l17 101q9 54 35.5 76t80.5 22h242q53 0 76.5 -29t14.5 -83l-17 -101q-9 -53 -35.5 -75.5t-79.5 -22.5zM1458 0h-242q-53 0 -77 29.5t-15 82.5l17 101q9 54 35.5 76t80.5 22h242q53 0 76.5 -29t14.5 -83l-17 -101
q-9 -53 -35.5 -75.5t-79.5 -22.5zM719 44h224q35 0 51 13.5t22 48.5l17 92q11 69 -58 69h-224q-35 0 -50.5 -13t-21.5 -49l-17 -92q-12 -69 57 -69zM1229 44h224q35 0 51 13.5t22 48.5l17 92q10 69 -58 69h-224q-35 0 -50.5 -13t-21.5 -49l-17 -92q-12 -69 57 -69z" />
    <glyph glyph-name="guilsinglleft" unicode="&#x2039;" horiz-adv-x="662" 
d="M80 380l579 197l-11 -65l-496 -157l438 -175l-12 -59l-506 217z" />
    <glyph glyph-name="guilsinglright" unicode="&#x203a;" horiz-adv-x="662" 
d="M104 518l12 59l506 -217l-8 -42l-579 -197l11 65l496 157z" />
    <glyph glyph-name="fraction" unicode="&#x2044;" horiz-adv-x="255" 
d="M-258 0h-65l867 700h65z" />
    <glyph glyph-name="Euro" unicode="&#x20ac;" horiz-adv-x="1072" 
d="M373 700h512q89 0 128 -47t23 -137l-9 -54h-63l9 52q13 69 -14 101.5t-96 32.5h-478q-69 0 -100.5 -26.5t-42.5 -96.5l-14 -78h569l-8 -42h-568l-20 -110h570l-8 -42h-569l-12 -67q-12 -70 14 -102t96 -32h477q69 0 101 27q29 25 43 96l13 72h62l-14 -83
q-16 -90 -59.5 -127t-133.5 -37h-512q-89 0 -128 47t-23 137l12 69h-122l8 42h122l19 110h-123l8 42h122l16 89q16 90 59.5 127t133.5 37z" />
    <glyph glyph-name="trademark" unicode="&#x2122;" horiz-adv-x="801" 
d="M436 700l-7 -36h-140l-35 -197h-39l35 197h-141l7 36h320zM627 556l175 144h39l-42 -233h-39l32 181l-158 -130h-21l-114 130l-32 -181h-39l42 233h34z" />
    <glyph glyph-name="minus" unicode="&#x2212;" 
d="M88 323l9 54h878l-9 -54h-878z" />
    <glyph glyph-name="approxequal" unicode="&#x2248;" 
d="M433 636l312 -201q32 -22 80 -22h53q25 0 37 10t17 36l38 215h58l-38 -217q-9 -50 -33 -70.5t-74 -20.5h-64q-46 0 -67 7q-25 7 -61 31l-312 202q-35 21 -80 21h-53q-25 0 -37 -10t-17 -36l-38 -215h-58l38 217q9 50 33 70.5t74 20.5h64q43 0 66 -6q27 -9 62 -32z
M373 296l312 -201q32 -22 80 -22h53q25 0 37 10t17 36l38 215h58l-38 -217q-9 -50 -33 -70.5t-74 -20.5h-64q-46 0 -67 7q-25 7 -61 31l-312 202q-35 21 -80 21h-53q-25 0 -37 -10t-17 -36l-38 -215h-58l38 217q9 50 33 70.5t74 20.5h64q43 0 66 -6q27 -9 62 -32z" />
    <glyph glyph-name="notequal" unicode="&#x2260;" 
d="M997 498l-9 -53h-346l-159 -190h471l-9 -53h-507l-122 -146h-62l122 146h-309l9 53h345l159 190h-470l9 53h506l122 146h62l-122 -146h310z" />
    <glyph glyph-name="lessequal" unicode="&#x2264;" 
d="M115 478l911 186l-10 -59l-810 -156l751 -173l-9 -54l-841 206zM915 36h-878l10 50h878z" />
    <glyph glyph-name="greaterequal" unicode="&#x2265;" 
d="M139 610l10 54l840 -206l-8 -50l-911 -186l11 59l811 156zM915 36h-878l10 50h878z" />
    <glyph glyph-name="fi" unicode="&#xfb01;" horiz-adv-x="970" 
d="M352 568l-19 -107h431l-9 -51h-431l-72 -410h-62l72 410h-217l9 51h217l20 117q12 67 45 94.5t100 27.5h371l-10 -51h-350q-46 0 -66.5 -17.5t-28.5 -63.5zM893 630l13 70h62l-12 -70h-63zM844 0h-62l92 522h63z" />
    <glyph glyph-name="fl" unicode="&#xfb02;" horiz-adv-x="970" 
d="M352 568l-19 -107h431l-9 -51h-431l-72 -410h-62l72 410h-217l9 51h217l20 117q12 67 45 94.5t100 27.5h371l-10 -51h-350q-46 0 -66.5 -17.5t-28.5 -63.5zM782 0l124 700h62l-124 -700h-62z" />
    <glyph glyph-name="null" horiz-adv-x="0" 
 />
    <glyph glyph-name="A.ss01" horiz-adv-x="1077" 
d="M308 700h596q89 0 128 -47t23 -137l-91 -516h-64l47 267h-815l-48 -267h-64l96 536q16 91 59 127.5t133 36.5zM177 522l-36 -201h816l33 190q12 70 -14.5 102.5t-96.5 32.5h-557q-70 0 -101.5 -27t-43.5 -97z" />
    <glyph glyph-name="Aacute.ss01" horiz-adv-x="1077" 
d="M789 878h91l-214 -121h-76zM308 700h596q89 0 128 -47t23 -137l-91 -516h-64l47 267h-815l-48 -267h-64l96 536q16 91 59 127.5t133 36.5zM177 522l-36 -201h816l33 190q12 70 -14.5 102.5t-96.5 32.5h-557q-70 0 -101.5 -27t-43.5 -97z" />
    <glyph glyph-name="Abreve.ss01" horiz-adv-x="1077" 
d="M765 757h-277q-35 0 -51 19.5t-9 54.5l9 47h52l-9 -44q-6 -36 30 -36h246q35 0 40 35l9 45h52l-9 -51q-7 -38 -26 -54t-57 -16zM308 700h596q89 0 128 -47t23 -137l-91 -516h-64l47 267h-815l-48 -267h-64l96 536q16 91 59 127.5t133 36.5zM177 522l-36 -201h816l33 190
q12 70 -14.5 102.5t-96.5 32.5h-557q-70 0 -101.5 -27t-43.5 -97z" />
    <glyph glyph-name="Acircumflex.ss01" horiz-adv-x="1077" 
d="M768 757l-122 87l-153 -87h-70l189 121h72l145 -121h-61zM308 700h596q89 0 128 -47t23 -137l-91 -516h-64l47 267h-815l-48 -267h-64l96 536q16 91 59 127.5t133 36.5zM177 522l-36 -201h816l33 190q12 70 -14.5 102.5t-96.5 32.5h-557q-70 0 -101.5 -27t-43.5 -97z" />
    <glyph glyph-name="Adieresis.ss01" horiz-adv-x="1077" 
d="M491 842h57l-12 -67h-57zM734 842h57l-12 -67h-57zM308 700h596q89 0 128 -47t23 -137l-91 -516h-64l47 267h-815l-48 -267h-64l96 536q16 91 59 127.5t133 36.5zM177 522l-36 -201h816l33 190q12 70 -14.5 102.5t-96.5 32.5h-557q-70 0 -101.5 -27t-43.5 -97z" />
    <glyph glyph-name="Agrave.ss01" horiz-adv-x="1077" 
d="M502 878l155 -121h-66l-171 121h82zM308 700h596q89 0 128 -47t23 -137l-91 -516h-64l47 267h-815l-48 -267h-64l96 536q16 91 59 127.5t133 36.5zM177 522l-36 -201h816l33 190q12 70 -14.5 102.5t-96.5 32.5h-557q-70 0 -101.5 -27t-43.5 -97z" />
    <glyph glyph-name="Amacron.ss01" horiz-adv-x="1077" 
d="M417 841h448l-7 -43h-448zM308 700h596q89 0 128 -47t23 -137l-91 -516h-64l47 267h-815l-48 -267h-64l96 536q16 91 59 127.5t133 36.5zM177 522l-36 -201h816l33 190q12 70 -14.5 102.5t-96.5 32.5h-557q-70 0 -101.5 -27t-43.5 -97z" />
    <glyph glyph-name="Aogonek.ss01" horiz-adv-x="1077" 
d="M812 -59l-3 -17q-4 -22 4 -31.5t30 -9.5h153l-7 -43h-165q-41 0 -56 18.5t-10 60.5l2 15q4 29 16.5 43.5t45.5 26.5l84 28l41 235h-815l-48 -267h-64l96 536q16 91 59 127.5t133 36.5h596q89 0 128 -47t23 -137l-91 -516h-42l-76 -25q-20 -6 -26 -12t-8 -22zM177 522
l-36 -201h816l33 190q12 70 -14.5 102.5t-96.5 32.5h-557q-70 0 -101.5 -27t-43.5 -97z" />
    <glyph glyph-name="Aring.ss01" horiz-adv-x="1077" 
d="M749 747h-245q-55 0 -46 55l4 25q4 29 17 40t43 11h246q55 0 46 -55l-4 -25q-4 -29 -17.5 -40t-43.5 -11zM502 822l-3 -17q-2 -13 1.5 -18t16.5 -5h228q13 0 17.5 4t6.5 17l3 17q4 24 -17 24h-228q-13 0 -18 -4.5t-7 -17.5zM308 700h596q89 0 128 -47t23 -137l-91 -516
h-64l47 267h-815l-48 -267h-64l96 536q16 91 59 127.5t133 36.5zM177 522l-36 -201h816l33 190q12 70 -14.5 102.5t-96.5 32.5h-557q-70 0 -101.5 -27t-43.5 -97z" />
    <glyph glyph-name="Aringacute.ss01" horiz-adv-x="1077" 
d="M792 700h112q89 0 128 -47t23 -137l-91 -516h-64l47 267h-815l-48 -267h-64l96 536q16 91 59 127.5t133 36.5h137q-3 10 0 24l4 25q4 29 17 40t43 11h117l105 78h79l-115 -78h60q55 0 46 -55l-4 -25q-3 -14 -5 -20zM489 744l-2 -17q-2 -13 1.5 -18t15.5 -5h228q13 0 18 4
t7 17l3 17q4 24 -18 24h-228q-13 0 -18 -4.5t-7 -17.5zM177 522l-36 -201h816l33 190q12 70 -14.5 102.5t-96.5 32.5h-557q-70 0 -101.5 -27t-43.5 -97z" />
    <glyph glyph-name="Atilde.ss01" horiz-adv-x="1077" 
d="M489 821l-12 -64h-47l13 72q5 27 18 38t40 11h71q24 0 35.5 -4t25.5 -19l47 -48q13 -13 34 -13h48q18 0 23 20l11 64h48l-13 -72q-5 -27 -18 -38t-40 -11h-71q-24 0 -35.5 4.5t-25.5 19.5l-48 47q-13 13 -34 13h-47q-20 0 -23 -20zM308 700h596q89 0 128 -47t23 -137
l-91 -516h-64l47 267h-815l-48 -267h-64l96 536q16 91 59 127.5t133 36.5zM177 522l-36 -201h816l33 190q12 70 -14.5 102.5t-96.5 32.5h-557q-70 0 -101.5 -27t-43.5 -97z" />
    <glyph glyph-name="I.ss01" horiz-adv-x="768" 
d="M808 700l-9 -49h-314l-106 -602h314l-9 -49h-692l9 49h314l106 602h-314l9 49h692z" />
    <glyph glyph-name="Iacute.ss01" horiz-adv-x="768" 
d="M635 878h91l-214 -121h-76zM808 700l-9 -49h-314l-106 -602h314l-9 -49h-692l9 49h314l106 602h-314l9 49h692z" />
    <glyph glyph-name="Icircumflex.ss01" horiz-adv-x="768" 
d="M614 757l-122 87l-153 -87h-70l189 121h72l145 -121h-61zM808 700l-9 -49h-314l-106 -602h314l-9 -49h-692l9 49h314l106 602h-314l9 49h692z" />
    <glyph glyph-name="Idieresis.ss01" horiz-adv-x="768" 
d="M337 842h57l-12 -67h-57zM580 842h57l-12 -67h-57zM808 700l-9 -49h-314l-106 -602h314l-9 -49h-692l9 49h314l106 602h-314l9 49h692z" />
    <glyph glyph-name="Idotaccent.ss01" horiz-adv-x="768" 
d="M455 842h62l-11 -67h-63zM808 700l-9 -49h-314l-106 -602h314l-9 -49h-692l9 49h314l106 602h-314l9 49h692z" />
    <glyph glyph-name="Igrave.ss01" horiz-adv-x="768" 
d="M348 878l155 -121h-66l-171 121h82zM808 700l-9 -49h-314l-106 -602h314l-9 -49h-692l9 49h314l106 602h-314l9 49h692z" />
    <glyph glyph-name="Imacron.ss01" horiz-adv-x="768" 
d="M263 841h448l-7 -43h-448zM808 700l-9 -49h-314l-106 -602h314l-9 -49h-692l9 49h314l106 602h-314l9 49h692z" />
    <glyph glyph-name="Iogonek.ss01" horiz-adv-x="768" 
d="M808 700l-9 -49h-314l-106 -602h314l-9 -49h-95l-76 -25q-20 -6 -26 -12t-8 -22l-3 -17q-4 -22 4 -31.5t30 -9.5h153l-7 -43h-165q-41 0 -56 18.5t-10 60.5l2 15q4 28 14.5 41.5t37.5 24.5h-487l9 49h314l106 602h-314l9 49h692z" />
    <glyph glyph-name="Itilde.ss01" horiz-adv-x="768" 
d="M335 821l-12 -64h-47l13 72q5 27 18 38t40 11h71q24 0 35.5 -4t25.5 -19l47 -48q13 -13 34 -13h48q18 0 23 20l11 64h48l-13 -72q-5 -27 -18 -38t-40 -11h-71q-24 0 -35.5 4.5t-25.5 19.5l-48 47q-13 13 -34 13h-47q-20 0 -23 -20zM808 700l-9 -49h-314l-106 -602h314
l-9 -49h-692l9 49h314l106 602h-314l9 49h692z" />
    <glyph glyph-name="R.ss01" horiz-adv-x="1055" 
d="M154 700h774q65 0 95 -36.5t18 -101.5l-24 -138q-9 -51 -28.5 -77.5t-55.5 -36.5q59 -33 42 -120l-33 -190h-64l35 199q17 92 -77 92h-692l-50 -291h-64zM953 423l24 134q18 92 -77 92h-692l-54 -308h703q47 0 67.5 17.5t28.5 64.5z" />
    <glyph glyph-name="Racute.ss01" horiz-adv-x="1055" 
d="M778 878h91l-214 -121h-76zM154 700h774q65 0 95 -36.5t18 -101.5l-24 -138q-9 -51 -28.5 -77.5t-55.5 -36.5q59 -33 42 -120l-33 -190h-64l35 199q17 92 -77 92h-692l-50 -291h-64zM953 423l24 134q18 92 -77 92h-692l-54 -308h703q47 0 67.5 17.5t28.5 64.5z" />
    <glyph glyph-name="Rcaron.ss01" horiz-adv-x="1055" 
d="M839 878l-189 -121h-72l-145 121h61l121 -87l154 87h70zM154 700h774q65 0 95 -36.5t18 -101.5l-24 -138q-9 -51 -28.5 -77.5t-55.5 -36.5q59 -33 42 -120l-33 -190h-64l35 199q17 92 -77 92h-692l-50 -291h-64zM953 423l24 134q18 92 -77 92h-692l-54 -308h703
q47 0 67.5 17.5t28.5 64.5z" />
    <glyph glyph-name="Rcommaaccent.ss01" horiz-adv-x="1055" 
d="M154 700h774q65 0 95 -36.5t18 -101.5l-24 -138q-9 -51 -28.5 -77.5t-55.5 -36.5q59 -33 42 -120l-33 -190h-64l35 199q17 92 -77 92h-692l-50 -291h-64zM953 423l24 134q18 92 -77 92h-692l-54 -308h703q47 0 67.5 17.5t28.5 64.5zM458 -96h-29l11 66h78l-6 -35
q-4 -22 -22 -48l-39 -56h-40z" />
    <glyph glyph-name="i.loclTRK" horiz-adv-x="222" 
d="M201 597h-63l12 67h62zM96 0h-62l92 522h63z" />
    <glyph glyph-name="uni0410.ss01" horiz-adv-x="1077" 
d="M308 700h596q89 0 128 -47t23 -137l-91 -516h-64l47 267h-815l-48 -267h-64l96 536q16 91 59 127.5t133 36.5zM177 522l-36 -201h816l33 190q12 70 -14.5 102.5t-96.5 32.5h-557q-70 0 -101.5 -27t-43.5 -97z" />
    <glyph glyph-name="uni042F.ss01" horiz-adv-x="1055" 
d="M269 700h787l-124 -700h-64l52 291h-701q-46 0 -67.5 -18.5t-29.5 -64.5l-38 -208h-64l37 203q17 97 87 116q-61 31 -46 122l24 134q11 67 45.5 96t101.5 29zM185 566l-24 -133q-8 -47 10.5 -69.5t65.5 -22.5h692l54 308h-701q-46 0 -67.5 -18.5t-29.5 -64.5z" />
    <glyph glyph-name="uni044F.ss01" horiz-adv-x="929" 
d="M196 522h703l-92 -522h-63l38 214h-609q-35 0 -51 -14t-22 -49l-28 -151h-61l28 154q14 74 65 87q-47 24 -35 93l18 95q9 50 34 71.5t75 21.5zM147 412l-16 -86q-6 -35 6.5 -50t47.5 -15h605l38 213h-610q-34 0 -49 -13t-22 -49z" />
    <glyph glyph-name="zero.tf" 
d="M741 0h-522q-89 0 -128 47t-23 137l62 352q16 90 59.5 127t133.5 37h522q89 0 128 -47t23 -137l-62 -352q-16 -90 -59.5 -127t-133.5 -37zM242 54h487q69 0 100.5 26.5t43.5 96.5l59 335q11 70 -15 102t-96 32h-486q-70 0 -101 -26.5t-43 -96.5l-59 -335
q-12 -70 14.5 -102t95.5 -32z" />
    <glyph glyph-name="one.tf" 
d="M660 700l-114 -648h393l-10 -52h-918l10 52h462l104 593l-437 -28l9 53l472 30h29z" />
    <glyph glyph-name="two.tf" 
d="M904 53l-10 -53h-859l37 208q11 66 42 93t101 34l617 57q48 4 67 21.5t27 64.5l13 78q8 47 -10 69.5t-65 22.5h-559q-47 0 -67 -17t-27 -64l-8 -50h-62l10 61q11 67 44 94.5t100 27.5h593q66 0 96 -36.5t19 -103.5l-16 -93q-11 -67 -42 -94.5t-101 -34.5l-617 -56
q-51 -5 -69.5 -22t-25.5 -64l-24 -143h796z" />
    <glyph glyph-name="three.tf" 
d="M289 700h592q66 0 96 -36.5t18 -103.5l-14 -82q-17 -93 -82 -112q67 -30 50 -126l-21 -118q-11 -66 -44 -94t-99 -28h-612q-66 0 -95.5 36.5t-18.5 103.5l11 68h62l-11 -65q-8 -47 10 -69t65 -22h577q47 0 67 16.5t28 63.5l19 120q8 47 -9.5 69t-64.5 22h-437l10 50h436
q47 0 67 17t28 64l14 83q8 47 -10 69t-65 22h-556q-47 0 -66.5 -16.5t-27.5 -63.5l-12 -68h-62l13 78q12 67 45 94.5t99 27.5z" />
    <glyph glyph-name="four.tf" 
d="M748 239h243l-9 -51h-243l-33 -188h-63l33 188h-652l8 43l724 469h74zM757 647l-630 -408h558z" />
    <glyph glyph-name="five.tf" 
d="M783 0h-744l10 53h722q47 0 66.5 17t27.5 64l23 132q8 47 -10 69t-65 22h-711l61 343h836l-10 -53h-773l-41 -237h663q65 0 95 -36.5t19 -103.5l-26 -148q-11 -66 -44 -94t-99 -28z" />
    <glyph glyph-name="six.tf" 
d="M988 647h-658q-68 0 -98 -26t-42 -94l-26 -149q37 35 106 35h568q66 0 96 -36.5t18 -103.5l-26 -151q-11 -66 -44 -94t-99 -28h-609q-66 0 -96 36.5t-18 103.5l69 396q16 91 59 127.5t134 36.5h676zM146 275l-23 -131q-8 -47 10 -69.5t65 -22.5h573q47 0 67 17t28 64
l22 137q8 47 -10 69t-65 22h-566q-48 0 -71 -19.5t-30 -66.5z" />
    <glyph glyph-name="seven.tf" 
d="M125 646l10 54h918l-9 -46l-429 -273q-71 -45 -93 -85q-24 -40 -40 -128l-30 -168h-63l31 179q16 91 46 142q28 47 101 94l369 231h-811z" />
    <glyph glyph-name="eight.tf" 
d="M287 700h594q66 0 96 -36.5t18 -103.5l-14 -82q-17 -93 -82 -112q67 -30 50 -126l-21 -118q-11 -66 -44 -94t-99 -28h-613q-66 0 -96 36.5t-18 103.5l20 118q9 53 31 80.5t63 35.5q-58 31 -43 123l14 81q12 67 45 94.5t99 27.5zM917 473l14 85q18 91 -74 91h-558
q-47 0 -66 -16.5t-28 -64.5l-14 -84q-9 -47 9 -69t65 -22h557q47 0 67 16.5t28 63.5zM867 132l21 121q8 47 -10 69t-65 22h-576q-47 0 -66.5 -17t-28.5 -64l-21 -120q-8 -47 10 -69.5t65 -22.5h577q47 0 67 17t27 64z" />
    <glyph glyph-name="nine.tf" 
d="M281 700h608q66 0 96 -36.5t18 -103.5l-69 -396q-16 -90 -59.5 -127t-133.5 -37h-675l10 53h657q68 0 98 26t42 94l24 141q-35 -35 -106 -35h-567q-66 0 -96 36.5t-19 103.5l28 159q12 67 45 94.5t99 27.5zM915 417l24 139q18 92 -74 92h-573q-47 0 -66.5 -17t-27.5 -64
l-25 -144q-18 -92 75 -92h566q48 0 71 19.5t30 66.5z" />
    <glyph glyph-name="zero.subs" horiz-adv-x="658" 
d="M430 -100h-318q-55 0 -79 29.5t-14 84.5l35 204q10 56 37 79t83 23h318q55 0 79.5 -29.5t14.5 -84.5l-36 -204q-10 -56 -37 -79t-83 -23zM136 -52h282q36 0 52.5 14.5t23.5 52.5l33 185q7 38 -7.5 55t-51.5 17h-281q-37 0 -54 -14.5t-23 -51.5l-33 -186q-7 -38 7.5 -55
t51.5 -17z" />
    <glyph glyph-name="one.subs" horiz-adv-x="622" 
d="M364 320l-66 -373h225l-8 -47h-535l9 47h251l58 323l-237 -16l8 48l268 18h27z" />
    <glyph glyph-name="two.subs" horiz-adv-x="658" 
d="M534 -52l-9 -48h-526l22 129q7 42 26.5 59t63.5 21l363 31q27 3 36.5 12t14.5 34l7 40q9 49 -41 49h-319q-25 0 -35 -9t-15 -35l-5 -26h-55l6 39q7 42 27.5 59t63.5 17h359q41 0 60 -22.5t12 -65.5l-9 -56q-7 -42 -26.5 -59t-63.5 -21l-363 -31q-27 -3 -37 -12t-14 -34
l-12 -71h469z" />
    <glyph glyph-name="three.subs" horiz-adv-x="658" 
d="M154 320h360q42 0 60.5 -22.5t10.5 -64.5l-8 -45q-10 -57 -50 -70q40 -19 31 -77l-11 -64q-7 -42 -28 -59.5t-63 -17.5h-371q-85 0 -72 88l7 43h56l-6 -37q-7 -48 40 -48h330q25 0 36 9t15 33l11 62q8 48 -41 48h-262l8 43h261q25 0 35.5 9t15.5 35l7 41q10 48 -39 48
h-320q-25 0 -35 -9t-14 -34l-7 -37h-56l8 49q7 42 28 59.5t63 17.5z" />
    <glyph glyph-name="four.subs" horiz-adv-x="676" 
d="M449 50h146l-7 -44h-146l-19 -106h-56l19 106h-387l6 37l426 277h66zM433 273l-343 -223h304z" />
    <glyph glyph-name="five.subs" horiz-adv-x="640" 
d="M437 -100h-436l8 48h414q24 0 34 8.5t15 33.5l12 67q9 48 -40 48h-407l38 215h495l-8 -47h-438l-21 -122h368q41 0 59.5 -23t11.5 -66l-14 -86q-7 -42 -28 -59t-63 -17z" />
    <glyph glyph-name="six.subs" horiz-adv-x="658" 
d="M579 273h-395q-36 0 -51.5 -14t-22.5 -52l-13 -74q22 20 63 20h328q42 0 60.5 -23t11.5 -65l-14 -88q-7 -42 -28 -59.5t-63 -17.5h-370q-42 0 -60.5 22.5t-10.5 64.5l40 231q10 56 37 79t83 23h413zM462 107h-324q-42 0 -51 -31l-14 -81q-10 -49 39 -49h328
q25 0 35.5 9.5t14.5 35.5l12 68q7 48 -40 48z" />
    <glyph glyph-name="seven.subs" horiz-adv-x="634" 
d="M54 320h547l-7 -42h-1l-249 -162q-35 -23 -50 -47t-23 -69l-18 -100h-59l18 107q9 55 28 86t61 57l192 121h-447z" />
    <glyph glyph-name="eight.subs" horiz-adv-x="658" 
d="M154 320h360q41 0 60 -22.5t12 -64.5l-9 -46q-11 -56 -50 -69q40 -19 31 -77l-11 -64q-7 -42 -28 -59.5t-63 -17.5h-371q-85 0 -71 88l11 64q11 62 57 71q-35 20 -26 75l8 45q7 42 27.5 59.5t62.5 17.5zM519 183l8 43q9 49 -40 49h-317q-25 0 -35 -8.5t-15 -34.5l-8 -44
q-9 -48 40 -48h316q25 0 35.5 9t15.5 34zM491 -12l11 62q4 26 -5.5 37.5t-34.5 11.5h-328q-26 0 -36.5 -9t-14.5 -34l-11 -62q-7 -49 40 -49h329q25 0 35.5 9t14.5 34z" />
    <glyph glyph-name="nine.subs" horiz-adv-x="658" 
d="M150 320h369q41 0 60 -22.5t12 -64.5l-41 -231q-10 -56 -37 -79t-83 -23h-413l8 48h395q36 0 51.5 13.5t22.5 50.5l13 72q-22 -20 -64 -20h-328q-42 0 -61 23t-11 65l16 91q8 43 28.5 60t62.5 17zM518 145l14 79q9 50 -40 50h-327q-25 0 -35.5 -9.5t-15.5 -35.5l-13 -72
q-9 -49 41 -49h324q42 0 52 37z" />
    <glyph glyph-name="zero.dnom" horiz-adv-x="658" 
d="M448 0h-318q-55 0 -79 29.5t-14 84.5l35 204q10 56 37 79t83 23h318q55 0 79.5 -29.5t14.5 -84.5l-36 -204q-10 -56 -37 -79t-83 -23zM154 48h282q36 0 52.5 14.5t23.5 52.5l33 185q7 38 -7.5 55t-51.5 17h-281q-37 0 -54 -14.5t-23 -51.5l-33 -186q-7 -38 7.5 -55
t51.5 -17z" />
    <glyph glyph-name="one.dnom" horiz-adv-x="622" 
d="M382 420l-66 -373h225l-8 -47h-535l9 47h251l58 323l-237 -16l8 48l268 18h27z" />
    <glyph glyph-name="two.dnom" horiz-adv-x="658" 
d="M552 48l-9 -48h-526l22 129q7 42 26.5 59t63.5 21l363 31q27 3 36.5 12t14.5 34l7 40q9 49 -41 49h-319q-25 0 -35 -9t-15 -35l-5 -26h-55l6 39q7 42 27.5 59t63.5 17h359q41 0 60 -22.5t12 -65.5l-9 -56q-7 -42 -26.5 -59t-63.5 -21l-363 -31q-27 -3 -37 -12t-14 -34
l-12 -71h469z" />
    <glyph glyph-name="three.dnom" horiz-adv-x="658" 
d="M172 420h360q42 0 60.5 -22.5t10.5 -64.5l-8 -45q-10 -57 -50 -70q40 -19 31 -77l-11 -64q-7 -42 -28 -59.5t-63 -17.5h-371q-85 0 -72 88l7 43h56l-6 -37q-7 -48 40 -48h330q25 0 36 9t15 33l11 62q8 48 -41 48h-262l8 43h261q25 0 35.5 9t15.5 35l7 41q10 48 -39 48
h-320q-25 0 -35 -9t-14 -34l-7 -37h-56l8 49q7 42 28 59.5t63 17.5z" />
    <glyph glyph-name="four.dnom" horiz-adv-x="676" 
d="M467 150h146l-7 -44h-146l-19 -106h-56l19 106h-387l6 37l426 277h66zM451 373l-343 -223h304z" />
    <glyph glyph-name="five.dnom" horiz-adv-x="640" 
d="M455 0h-436l8 48h414q24 0 34 8.5t15 33.5l12 67q9 48 -40 48h-407l38 215h495l-8 -47h-438l-21 -122h368q41 0 59.5 -23t11.5 -66l-14 -86q-7 -42 -28 -59t-63 -17z" />
    <glyph glyph-name="six.dnom" horiz-adv-x="658" 
d="M597 373h-395q-36 0 -51.5 -14t-22.5 -52l-13 -74q22 20 63 20h328q42 0 60.5 -23t11.5 -65l-14 -88q-7 -42 -28 -59.5t-63 -17.5h-370q-42 0 -60.5 22.5t-10.5 64.5l40 231q10 56 37 79t83 23h413zM480 207h-324q-42 0 -51 -31l-14 -81q-10 -49 39 -49h328
q25 0 35.5 9.5t14.5 35.5l12 68q7 48 -40 48z" />
    <glyph glyph-name="seven.dnom" horiz-adv-x="634" 
d="M72 420h547l-7 -42h-1l-249 -162q-35 -23 -50 -47t-23 -69l-18 -100h-59l18 107q9 55 28 86t61 57l192 121h-447z" />
    <glyph glyph-name="eight.dnom" horiz-adv-x="658" 
d="M172 420h360q41 0 60 -22.5t12 -64.5l-9 -46q-11 -56 -50 -69q40 -19 31 -77l-11 -64q-7 -42 -28 -59.5t-63 -17.5h-371q-85 0 -71 88l11 64q11 62 57 71q-35 20 -26 75l8 45q7 42 27.5 59.5t62.5 17.5zM537 283l8 43q9 49 -40 49h-317q-25 0 -35 -8.5t-15 -34.5l-8 -44
q-9 -48 40 -48h316q25 0 35.5 9t15.5 34zM509 88l11 62q4 26 -5.5 37.5t-34.5 11.5h-328q-26 0 -36.5 -9t-14.5 -34l-11 -62q-7 -49 40 -49h329q25 0 35.5 9t14.5 34z" />
    <glyph glyph-name="nine.dnom" horiz-adv-x="658" 
d="M168 420h369q41 0 60 -22.5t12 -64.5l-41 -231q-10 -56 -37 -79t-83 -23h-413l8 48h395q36 0 51.5 13.5t22.5 50.5l13 72q-22 -20 -64 -20h-328q-42 0 -61 23t-11 65l16 91q8 43 28.5 60t62.5 17zM536 245l14 79q9 50 -40 50h-327q-25 0 -35.5 -9.5t-15.5 -35.5l-13 -72
q-9 -49 41 -49h324q42 0 52 37z" />
    <glyph glyph-name="zero.numr" horiz-adv-x="658" 
d="M497 280h-318q-55 0 -79 29.5t-14 84.5l35 204q10 56 37 79t83 23h318q55 0 79.5 -29.5t14.5 -84.5l-36 -204q-10 -56 -37 -79t-83 -23zM203 328h282q36 0 52.5 14.5t23.5 52.5l33 185q7 38 -7.5 55t-51.5 17h-281q-37 0 -54 -14.5t-23 -51.5l-33 -186q-7 -38 7.5 -55
t51.5 -17z" />
    <glyph glyph-name="one.numr" horiz-adv-x="622" 
d="M431 700l-66 -373h225l-8 -47h-535l9 47h251l58 323l-237 -16l8 48l268 18h27z" />
    <glyph glyph-name="two.numr" horiz-adv-x="658" 
d="M601 328l-9 -48h-526l22 129q7 42 26.5 59t63.5 21l363 31q27 3 36.5 12t14.5 34l7 40q9 49 -41 49h-319q-25 0 -35 -9t-15 -35l-5 -26h-55l6 39q7 42 27.5 59t63.5 17h359q41 0 60 -22.5t12 -65.5l-9 -56q-7 -42 -26.5 -59t-63.5 -21l-363 -31q-27 -3 -37 -12t-14 -34
l-12 -71h469z" />
    <glyph glyph-name="three.numr" horiz-adv-x="658" 
d="M221 700h360q42 0 60.5 -22.5t10.5 -64.5l-8 -45q-10 -57 -50 -70q40 -19 31 -77l-11 -64q-7 -42 -28 -59.5t-63 -17.5h-371q-85 0 -72 88l7 43h56l-6 -37q-7 -48 40 -48h330q25 0 36 9t15 33l11 62q7 48 -41 48h-262l8 43h261q25 0 35.5 9t15.5 35l7 41q11 48 -39 48
h-320q-25 0 -35 -9t-14 -34l-7 -37h-56l8 49q7 42 28 59.5t63 17.5z" />
    <glyph glyph-name="four.numr" horiz-adv-x="676" 
d="M516 430h146l-7 -44h-146l-19 -106h-56l19 106h-387l6 37l426 277h66zM500 653l-343 -223h304z" />
    <glyph glyph-name="five.numr" horiz-adv-x="640" 
d="M504 280h-436l8 48h414q24 0 34 8.5t15 33.5l12 67q9 48 -40 48h-407l38 215h495l-8 -47h-438l-21 -122h368q41 0 59.5 -23t11.5 -66l-14 -86q-7 -42 -28 -59t-63 -17z" />
    <glyph glyph-name="six.numr" horiz-adv-x="658" 
d="M646 653h-395q-36 0 -51.5 -14t-22.5 -52l-13 -74q22 20 63 20h328q42 0 60.5 -23t11.5 -65l-14 -88q-7 -42 -28 -59.5t-63 -17.5h-370q-42 0 -60.5 22.5t-10.5 64.5l40 231q10 56 37 79t83 23h413zM529 487h-324q-42 0 -51 -31l-14 -81q-10 -49 39 -49h328
q25 0 35.5 9.5t14.5 35.5l12 68q7 48 -40 48z" />
    <glyph glyph-name="seven.numr" horiz-adv-x="634" 
d="M121 700h547l-7 -42h-1l-249 -162q-35 -23 -50 -47t-23 -69l-18 -100h-59l18 107q9 55 28 86t61 57l192 121h-447z" />
    <glyph glyph-name="eight.numr" horiz-adv-x="658" 
d="M221 700h360q41 0 60 -22.5t12 -64.5l-9 -46q-11 -56 -50 -69q40 -19 31 -77l-11 -64q-7 -42 -28 -59.5t-63 -17.5h-371q-85 0 -71 88l11 64q11 62 57 71q-35 20 -26 75l8 45q7 42 27.5 59.5t62.5 17.5zM586 563l8 43q9 49 -40 49h-317q-25 0 -35 -8.5t-15 -34.5l-8 -44
q-9 -48 40 -48h316q25 0 35.5 9t15.5 34zM558 368l11 62q4 26 -5.5 37.5t-34.5 11.5h-328q-26 0 -36.5 -9t-14.5 -34l-11 -62q-7 -49 40 -49h329q25 0 35.5 9t14.5 34z" />
    <glyph glyph-name="nine.numr" horiz-adv-x="658" 
d="M217 700h369q41 0 60 -22.5t12 -64.5l-41 -231q-10 -56 -37 -79t-83 -23h-413l8 48h395q36 0 51.5 13.5t22.5 50.5l13 72q-22 -20 -64 -20h-328q-42 0 -61 23t-11 65l16 91q8 43 28.5 60t62.5 17zM585 525l14 79q9 50 -40 50h-327q-25 0 -35.5 -9.5t-15.5 -35.5l-13 -72
q-9 -49 41 -49h324q42 0 52 37z" />
    <glyph glyph-name="zero.sups" horiz-adv-x="658" 
d="M515 380h-318q-55 0 -79 29.5t-14 84.5l35 204q10 56 37 79t83 23h318q55 0 79.5 -29.5t14.5 -84.5l-36 -204q-10 -56 -37 -79t-83 -23zM221 428h282q36 0 52.5 14.5t23.5 52.5l33 185q7 38 -7.5 55t-51.5 17h-281q-37 0 -54 -14.5t-23 -51.5l-33 -186q-7 -38 7.5 -55
t51.5 -17z" />
    <glyph glyph-name="one.sups" horiz-adv-x="622" 
d="M449 800l-66 -373h225l-8 -47h-535l9 47h251l58 323l-237 -16l8 48l268 18h27z" />
    <glyph glyph-name="two.sups" horiz-adv-x="658" 
d="M619 428l-9 -48h-526l22 129q7 42 26.5 59t63.5 21l363 31q27 3 36.5 12t14.5 34l7 40q9 49 -41 49h-319q-25 0 -35 -9t-15 -35l-5 -26h-55l6 39q7 42 27.5 59t63.5 17h359q41 0 60 -22.5t12 -65.5l-9 -56q-7 -42 -26.5 -59t-63.5 -21l-363 -31q-27 -3 -37 -12t-14 -34
l-12 -71h469z" />
    <glyph glyph-name="three.sups" horiz-adv-x="658" 
d="M239 800h360q42 0 60.5 -22.5t10.5 -64.5l-8 -45q-10 -57 -50 -70q40 -19 31 -77l-11 -64q-7 -42 -28 -59.5t-63 -17.5h-371q-85 0 -72 88l7 43h56l-6 -37q-7 -48 40 -48h330q25 0 36 9t15 33l11 62q7 48 -41 48h-262l8 43h261q25 0 35.5 9t15.5 35l7 41q11 48 -39 48
h-320q-25 0 -35 -9t-14 -34l-7 -37h-56l8 49q7 42 28 59.5t63 17.5z" />
    <glyph glyph-name="four.sups" horiz-adv-x="676" 
d="M534 530h146l-7 -44h-146l-19 -106h-56l19 106h-387l6 37l426 277h66zM518 753l-343 -223h304z" />
    <glyph glyph-name="five.sups" horiz-adv-x="640" 
d="M522 380h-436l8 48h414q24 0 34 8.5t15 33.5l12 67q9 48 -40 48h-407l38 215h495l-8 -47h-438l-21 -122h368q41 0 59.5 -23t11.5 -66l-14 -86q-7 -42 -28 -59t-63 -17z" />
    <glyph glyph-name="six.sups" horiz-adv-x="658" 
d="M664 753h-395q-36 0 -51.5 -14t-22.5 -52l-13 -74q22 20 63 20h328q42 0 60.5 -23t11.5 -65l-14 -88q-7 -42 -28 -59.5t-63 -17.5h-370q-42 0 -60.5 22.5t-10.5 64.5l40 231q10 56 37 79t83 23h413zM547 587h-324q-42 0 -51 -31l-14 -81q-10 -49 39 -49h328
q25 0 35.5 9.5t14.5 35.5l12 68q7 48 -40 48z" />
    <glyph glyph-name="seven.sups" horiz-adv-x="634" 
d="M139 800h547l-7 -42h-1l-249 -162q-35 -23 -50 -47t-23 -69l-18 -100h-59l18 107q9 55 28 86t61 57l192 121h-447z" />
    <glyph glyph-name="eight.sups" horiz-adv-x="658" 
d="M239 800h360q41 0 60 -22.5t12 -64.5l-9 -46q-11 -56 -50 -69q40 -19 31 -77l-11 -64q-7 -42 -28 -59.5t-63 -17.5h-371q-85 0 -71 88l11 64q11 62 57 71q-35 20 -26 75l8 45q7 42 27.5 59.5t62.5 17.5zM604 663l8 43q9 49 -40 49h-317q-25 0 -35 -8.5t-15 -34.5l-8 -44
q-9 -48 40 -48h316q25 0 35.5 9t15.5 34zM576 468l11 62q4 26 -5.5 37.5t-34.5 11.5h-328q-26 0 -36.5 -9t-14.5 -34l-11 -62q-7 -49 40 -49h329q25 0 35.5 9t14.5 34z" />
    <glyph glyph-name="nine.sups" horiz-adv-x="658" 
d="M235 800h369q41 0 60 -22.5t12 -64.5l-41 -231q-10 -56 -37 -79t-83 -23h-413l8 48h395q36 0 51.5 13.5t22.5 50.5l13 72q-22 -20 -64 -20h-328q-42 0 -61 23t-11 65l16 91q8 43 28.5 60t62.5 17zM603 625l14 79q9 50 -40 50h-327q-25 0 -35.5 -9.5t-15.5 -35.5l-13 -72
q-9 -49 41 -49h324q42 0 52 37z" />
    <glyph glyph-name="numbersign.numr" horiz-adv-x="660" 
d="M654 584l-8 -37h-137l-18 -113h137l-7 -38h-136l-18 -116h-47l18 116h-166l-18 -116h-46l18 116h-139l8 38h137l18 113h-138l7 37h137l18 116h46l-18 -116h166l18 116h47l-18 -116h139zM278 434h166l18 113h-166z" />
    <glyph glyph-name="numbersign.tf" 
d="M998 498l-8 -47h-228l-32 -201h225l-8 -47h-224l-32 -203h-57l32 203h-314l-32 -203h-57l32 203h-230l8 47h229l32 201h-225l8 47h224l32 202h57l-32 -202h314l32 202h57l-32 -202h229zM359 250h314l32 201h-314z" />
    <glyph glyph-name="cent.numr" horiz-adv-x="658" 
d="M429 700h143q104 0 83 -102l-5 -28h-56l5 23q7 33 -5 47t-46 14h-305q-32 0 -44.5 -11t-18.5 -44l-27 -144q-6 -33 6 -47t45 -14h305q32 0 44 11t19 44l7 34h56l-8 -44q-9 -52 -32.5 -71.5t-74.5 -19.5h-152l-11 -60h-43l11 60h-146q-103 0 -84 102l28 159q10 52 33 71.5
t74 19.5h156l11 60h43z" />
    <glyph glyph-name="dollar.numr" horiz-adv-x="658" 
d="M428 700h150q42 0 60.5 -22.5t12.5 -63.5l-4 -23h-55l3 17q4 26 -5.5 37.5t-35.5 11.5h-317q-24 0 -35 -9.5t-16 -34.5l-6 -33q-4 -26 5.5 -37t34.5 -13l334 -19q87 -4 73 -86l-12 -68q-8 -42 -28.5 -59.5t-61.5 -17.5h-170l-11 -60h-43l10 60h-159q-42 0 -61 22.5
t-11 63.5l6 32h55l-4 -26q-9 -48 39 -48h332q24 0 34.5 9t15.5 34l10 50q4 25 -5 36.5t-35 13.5l-333 18q-88 4 -74 87l9 51q8 42 28.5 59.5t61.5 17.5h165l10 60h44z" />
    <glyph glyph-name="Euro.numr" horiz-adv-x="684" 
d="M274 700h311q55 0 79.5 -29.5t14.5 -84.5l-7 -36h-56l6 34q7 37 -7.5 54t-52.5 17h-276q-37 0 -53 -14t-23 -51l-7 -41h324l-6 -30h-323l-11 -58h324l-6 -30h-323l-6 -35q-13 -71 59 -71h276q37 0 53.5 14.5t23.5 51.5l8 44h56l-9 -53q-10 -56 -37.5 -79t-83.5 -23h-311
q-55 0 -79 29t-14 84l7 38h-73l6 30h72l10 58h-72l6 30h71l9 49q10 56 37 79t83 23z" />
    <glyph glyph-name="florin.numr" horiz-adv-x="610" 
d="M630 652h-141q-37 0 -54 -14t-28 -52l-31 -112h211l-8 -39h-214l-41 -145q-16 -57 -45.5 -81.5t-83.5 -24.5h-158l8 48h141q36 0 53 14t28 53l39 136h-214l8 39h217l34 120q17 58 46 82t83 24h158z" />
    <glyph glyph-name="sterling.numr" horiz-adv-x="680" 
d="M277 700h304q55 0 79.5 -29.5t14.5 -84.5l-5 -28h-56l4 26q7 37 -7 54t-51 17h-272q-36 0 -52.5 -14.5t-23.5 -51.5l-14 -78h317l-6 -36h-317l-26 -148h364q26 0 36.5 9.5t14.5 34.5l7 44h57l-10 -57q-7 -42 -28.5 -60t-63.5 -18h-511l9 47h67l26 148h-73l6 36h74l15 87
q10 56 37.5 79t83.5 23z" />
    <glyph glyph-name="yen.numr" horiz-adv-x="658" 
d="M618 700h80l-279 -238h219l-5 -32h-246l-10 -60h245l-6 -32h-245l-10 -58h-57l10 58h-245l6 32h245l10 60h-244l5 32h219l-195 238h75l175 -222z" />
    <glyph glyph-name="cent.tf" 
d="M623 700h242q164 0 134 -164l-7 -40h-62l7 37q10 62 -12 88.5t-84 26.5h-526q-60 0 -84 -21q-26 -21 -36 -82l-45 -248q-11 -62 11 -88.5t84 -26.5h528q60 0 84 21q25 22 35 82l12 59h62l-13 -68q-15 -83 -51 -115q-37 -31 -119 -31h-261l-18 -100h-53l18 100h-248
q-164 0 -134 164l46 260q16 84 52 115q35 31 118 31h267l17 100h53z" />
    <glyph glyph-name="dollar.tf" 
d="M620 700h257q65 0 95.5 -36t20.5 -102l-5 -34h-62l4 29q8 47 -10 69t-65 22h-557q-46 0 -66 -17.5t-28 -63.5l-11 -66q-8 -48 9 -69t64 -23l569 -33q138 -7 115 -138l-20 -116q-11 -67 -43.5 -94.5t-98.5 -27.5h-292l-17 -100h-53l17 100h-271q-66 0 -97 36.5t-19 101.5
l9 51h62l-9 -46q-16 -91 76 -91h581q46 0 66 17.5t28 63.5l17 97q8 48 -8.5 69t-64.5 24l-569 33q-139 7 -116 138l14 84q12 67 44.5 94.5t98.5 27.5h282l17 100h53z" />
    <glyph glyph-name="Euro.tf" 
d="M343 700h502q89 0 128 -47t23 -137l-9 -54h-63l9 52q13 69 -14 101.5t-96 32.5h-468q-69 0 -100.5 -26.5t-42.5 -96.5l-14 -78h559l-8 -42h-558l-20 -110h560l-8 -42h-559l-12 -67q-12 -70 14 -102t96 -32h467q70 0 101 27q29 25 43 96l13 72h62l-14 -83
q-16 -90 -59.5 -127t-133.5 -37h-502q-89 0 -128 47t-23 137l12 69h-92l8 42h92l19 110h-93l8 42h92l16 89q16 90 59.5 127t133.5 37z" />
    <glyph glyph-name="florin.tf" 
d="M1023 646h-253q-68 0 -97 -24q-31 -26 -50 -95l-61 -213h383l-9 -48h-388l-74 -260q-27 -94 -69 -130q-43 -36 -133 -36h-269l10 54h252q69 0 99 24q30 27 49 95l72 253h-387l9 48h392l63 220q27 94 70 130q42 36 132 36h269z" />
    <glyph glyph-name="sterling.tf" 
d="M353 700h492q89 0 128 -47t23 -137l-7 -43h-63l7 41q12 70 -14.5 102t-95.5 32h-459q-68 0 -99.5 -26.5t-43.5 -96.5l-26 -148h550l-9 -46h-549l-50 -278h633q47 0 67.5 17.5t28.5 64.5l14 76h62l-15 -87q-12 -67 -46 -95.5t-101 -28.5h-807l10 53h91l50 278h-103l9 46
h102l28 159q16 90 59.5 127t133.5 37z" />
    <glyph glyph-name="yen.tf" 
d="M984 700h89l-485 -404h384l-8 -43h-418l-20 -111h418l-7 -43h-418l-18 -99h-63l18 99h-417l7 43h417l20 111h-417l8 43h382l-341 404h81l326 -392z" />
    <glyph glyph-name="percent.numr" horiz-adv-x="724" 
d="M153 280h-56l554 420h56zM321 506h-164q-32 0 -46.5 18.5t-9.5 50.5l11 67q5 32 21 45t48 13h165q32 0 46.5 -18t9.5 -50l-11 -67q-5 -32 -21.5 -45.5t-48.5 -13.5zM172 545h142q30 0 34 30l9 54q6 32 -26 32h-142q-17 0 -24.5 -6.5t-9.5 -22.5l-9 -54q-6 -33 26 -33z
M623 280h-165q-31 0 -45.5 18.5t-9.5 50.5l11 67q5 32 21 45t48 13h165q66 0 55 -68l-11 -67q-5 -32 -21 -45.5t-48 -13.5zM474 319h142q30 0 34 30l9 54q6 32 -27 32h-141q-30 0 -35 -29l-9 -54q-6 -33 27 -33z" />
    <glyph glyph-name="perthousand.numr" horiz-adv-x="1049" 
d="M153 280h-56l554 420h56zM321 506h-164q-32 0 -46.5 18.5t-9.5 50.5l11 67q5 32 21 45t48 13h165q32 0 46.5 -18t9.5 -50l-11 -67q-5 -32 -21.5 -45.5t-48.5 -13.5zM172 545h142q30 0 34 30l9 54q6 32 -26 32h-142q-17 0 -24.5 -6.5t-9.5 -22.5l-9 -54q-6 -33 26 -33z
M623 280h-165q-31 0 -45.5 18.5t-9.5 50.5l11 67q5 32 21 45t48 13h165q66 0 55 -68l-11 -67q-5 -32 -21 -45.5t-48 -13.5zM947 280h-165q-31 0 -45.5 18.5t-9.5 50.5l11 67q5 32 21 45t48 13h165q32 0 46.5 -18t9.5 -50l-12 -67q-5 -32 -21 -45.5t-48 -13.5zM474 319h142
q30 0 34 30l9 54q6 32 -27 32h-141q-30 0 -35 -29l-9 -54q-6 -33 27 -33zM798 319h142q30 0 34 30l9 54q6 32 -26 32h-142q-30 0 -35 -29l-9 -54q-5 -33 27 -33z" />
    <glyph glyph-name="percent.tf" horiz-adv-x="1140" 
d="M567 588l-19 -111q-9 -53 -36 -75.5t-80 -22.5h-252q-53 0 -76.5 29.5t-14.5 82.5l19 111q9 54 35.5 76t80.5 22h252q53 0 76.5 -29t14.5 -83zM161 0h-73l923 700h72zM194 423h233q36 0 52 13.5t22 48.5l18 102q13 69 -57 69h-234q-35 0 -50.5 -13t-22.5 -49l-18 -102
q-12 -69 57 -69zM948 0h-252q-53 0 -77 29.5t-15 82.5l19 111q9 54 35.5 76t80.5 22h252q53 0 76.5 -29t14.5 -83l-19 -111q-9 -53 -35.5 -75.5t-79.5 -22.5zM709 44h234q35 0 51 13.5t22 48.5l19 102q11 69 -58 69h-234q-35 0 -50.5 -13t-21.5 -49l-19 -102q-12 -69 57 -69
z" />
    <glyph glyph-name="perthousand.tf" horiz-adv-x="1660" 
d="M567 588l-19 -111q-9 -53 -36 -75.5t-80 -22.5h-252q-53 0 -76.5 29.5t-14.5 82.5l19 111q9 54 35.5 76t80.5 22h252q53 0 76.5 -29t14.5 -83zM161 0h-73l923 700h72zM194 423h233q36 0 52 13.5t22 48.5l18 102q13 69 -57 69h-234q-35 0 -50.5 -13t-22.5 -49l-18 -102
q-12 -69 57 -69zM948 0h-252q-53 0 -77 29.5t-15 82.5l19 111q9 54 35.5 76t80.5 22h252q53 0 76.5 -29t14.5 -83l-19 -111q-9 -53 -35.5 -75.5t-79.5 -22.5zM1468 0h-252q-53 0 -77 29.5t-15 82.5l19 111q9 54 35.5 76t80.5 22h252q53 0 76.5 -29t14.5 -83l-19 -111
q-9 -53 -35.5 -75.5t-79.5 -22.5zM709 44h234q35 0 51 13.5t22 48.5l19 102q11 69 -58 69h-234q-35 0 -50.5 -13t-21.5 -49l-19 -102q-12 -69 57 -69zM1229 44h234q35 0 51 13.5t22 48.5l19 102q11 69 -58 69h-234q-35 0 -50.5 -13t-21.5 -49l-19 -102q-12 -69 57 -69z" />
    <glyph glyph-name="brevecombcy" horiz-adv-x="0" 
d="M-90 579h-277q-35 0 -51 19.5t-9 54.5l9 47h52l-9 -44q-6 -36 30 -36h246q35 0 40 35l9 45h52l-9 -51q-7 -38 -26 -54t-57 -16z" />
    <glyph glyph-name="ringacutecomb" horiz-adv-x="469" 
d="M359 622h60q55 0 46 -55l-4 -25q-4 -29 -17 -40t-43 -11h-246q-55 0 -46 55l4 25q4 29 17 40t43 11h117l105 78h79zM421 547l3 17q4 24 -18 24h-228q-13 0 -18 -4.5t-7 -17.5l-2 -17q-2 -13 1.5 -18t15.5 -5h228q13 0 18 4t7 17z" />
    </font>
</defs>
</svg>
