<?xml version="1.0" standalone="no"?>
<!DOCTYPE svg PUBLIC "-//W3C//DTD SVG 1.1//EN" "http://www.w3.org/Graphics/SVG/1.1/DTD/svg11.dtd" >
<svg xmlns="http://www.w3.org/2000/svg" xmlns:xlink="http://www.w3.org/1999/xlink" version="1.1">
<metadata>
Created by FontForge 20170731 at Thu Jun 30 17:45:11 2016
 By Aleksey,,,
@ 2016 Richard Miller
</metadata>
<defs>
<font id="TacticSans-BlkIt" horiz-adv-x="752" >
  <font-face 
    font-family="TacticSans-BlkIt"
    font-weight="400"
    font-style="italic"
    font-stretch="normal"
    units-per-em="1000"
    panose-1="0 0 9 0 0 0 0 0 0 0"
    ascent="814"
    descent="-186"
    x-height="536"
    cap-height="700"
    bbox="-908 -232 1343 864"
    underline-thickness="50"
    underline-position="-200"
    slope="-10"
    unicode-range="U+0020-FB02"
  />
<missing-glyph horiz-adv-x="720" 
d="M-38 0l124 700h700l-124 -700h-700zM273 350l-199 -169l88 -107l199 169l139 -169l126 107l-139 169l199 169l-88 107l-199 -169l-139 169l-126 -107z" />
    <glyph glyph-name="ellipsis" unicode="&#x2e;&#x2e;&#x2e;" horiz-adv-x="1092" 
d="M236 0h-236l39 220h236zM616 0h-236l39 220h236zM996 0h-236l39 220h236z" />
    <glyph glyph-name="blackbox.liga" unicode="[&#x2b;]" horiz-adv-x="984" 
d="M156 0v700h700v-700h-700z" />
    <glyph glyph-name="checkbox.liga" unicode="[]" horiz-adv-x="984" 
d="M156 0v700h700v-700h-700zM757 604h-501v-508h501v508z" />
    <glyph glyph-name="checkround.liga" unicode="&#x28;&#x29;" horiz-adv-x="892" 
d="M716 95q-105 -105 -256 -105q-152 0 -255 105q-105 103 -105 255q0 151 105 256q104 104 255 104q150 0 256 -104q104 -106 104 -256q0 -151 -104 -255zM275 163q75 -77 185 -77q109 0 186 77q75 76 75 187t-75 188q-76 76 -186 76t-185 -76q-75 -77 -75 -188
q0 -110 75 -187z" />
    <glyph glyph-name="checkstar.liga" unicode="&#x7b;&#x7d;" horiz-adv-x="938" 
d="M406 437l92 283l92 -283h297l-240 -174l91 -283l-240 175l-240 -175l91 283l-240 174h297zM537 364l-39 120l-39 -120h-126l103 -73l-39 -120l101 74l101 -74l-39 120l103 73h-126z" />
    <glyph glyph-name="blackround.liga" unicode="&#x28;&#x2b;&#x29;" horiz-adv-x="892" 
d="M716 95q-105 -105 -256 -105q-152 0 -255 105q-105 103 -105 255q0 151 105 256q104 104 255 104q150 0 256 -104q104 -106 104 -256q0 -151 -104 -255z" />
    <glyph glyph-name="filledstar.liga" unicode="&#x7b;&#x2b;&#x7d;" horiz-adv-x="938" 
d="M406 437l92 283l92 -283h297l-240 -174l91 -283l-240 175l-240 -175l91 283l-240 174h297z" />
    <glyph glyph-name="ff.liga" unicode="ff" horiz-adv-x="904" 
d="M942 552h-129q-25 0 -35 -9t-14 -34l-7 -39h171l-29 -158h-170l-55 -312h-204l56 312h-207l-55 -312h-204l56 312h-97l29 158h96l14 80q14 82 54.5 116t121.5 34h200l-26 -148h-105q-25 0 -35 -9t-14 -34l-7 -39h207l14 80q14 82 54.5 116t121.5 34h224z" />
    <glyph glyph-name=".notdef" horiz-adv-x="720" 
d="M-38 0l124 700h700l-124 -700h-700zM273 350l-199 -169l88 -107l199 169l139 -169l126 107l-139 169l199 169l-88 107l-199 -169l-139 169l-126 -107z" />
    <glyph glyph-name=".null" horiz-adv-x="0" 
 />
    <glyph glyph-name="nonmarkingreturn" horiz-adv-x="333" 
 />
    <glyph glyph-name="space" unicode=" " horiz-adv-x="300" 
 />
    <glyph glyph-name="exclam" unicode="!" horiz-adv-x="332" 
d="M87 248l39 452h233l-121 -452h-151zM236 0h-236l35 196h236z" />
    <glyph glyph-name="quotedbl" unicode="&#x22;" horiz-adv-x="504" 
d="M61 336l63 364h168l-63 -364h-168zM301 336l63 364h168l-63 -364h-168z" />
    <glyph glyph-name="numbersign" unicode="#" 
d="M734 493l-22 -124h-104l-20 -118h103l-22 -124h-103l-23 -127h-149l23 127h-131l-23 -127h-149l23 127h-105l22 124h105l20 118h-103l22 124h103l23 127h149l-23 -127h131l23 127h149l-23 -127h104zM308 251h131l20 118h-131z" />
    <glyph glyph-name="dollar" unicode="$" 
d="M516 700h90q161 0 136 -166l-8 -49h-200l3 20q4 25 -4.5 34.5t-33.5 9.5h-148q-25 0 -35.5 -9.5t-14.5 -34.5l-2 -13q-4 -25 3 -33.5t30 -10.5l239 -25q84 -8 117 -47.5t19 -118.5l-18 -107q-14 -82 -54.5 -116t-122.5 -34h-118l-18 -100h-130l18 100h-104
q-163 0 -136 166l10 59h200l-5 -29q-4 -25 4.5 -34.5t34.5 -9.5h172q24 0 34.5 9.5t14.5 34.5l4 26q4 25 -2.5 34t-29.5 11l-239 24q-85 9 -118 48t-19 118l16 93q14 82 54.5 116t122.5 34h108l18 100h130z" />
    <glyph glyph-name="percent" unicode="%" horiz-adv-x="860" 
d="M412 510l-18 -108q-9 -54 -36.5 -77t-81.5 -23h-126q-53 0 -76 28.5t-14 81.5l18 108q9 54 36.5 77t81.5 23h126q108 0 90 -110zM189 0h-113l610 620h113zM199 399h55q18 0 26 7t11 25l11 59q3 19 -3.5 26t-25.5 7h-55q-18 0 -26 -7t-11 -25l-10 -59q-7 -33 28 -33z
M679 0h-126q-53 0 -76.5 28.5t-14.5 81.5l19 108q9 54 36.5 77t81.5 23h126q108 0 90 -110l-19 -108q-9 -54 -36.5 -77t-80.5 -23zM601 97h55q18 0 26 7t12 25l10 59q3 19 -3.5 26t-24.5 7h-55q-18 0 -26 -6.5t-11 -25.5l-11 -59q-6 -33 28 -33z" />
    <glyph glyph-name="ampersand" unicode="&#x26;" horiz-adv-x="832" 
d="M348 422h498l-22 -129h-100l-25 -144q-14 -83 -53.5 -116t-121.5 -33h-366q-81 0 -116 43t-21 125l11 65q11 66 40 96.5t86 35.5q-67 34 -49 136l9 51q14 82 53.5 115t121.5 33h305q164 0 138 -168l-8 -47h-200l3 19q4 25 -4.5 35t-33.5 10h-126q-25 0 -34.5 -8.5
t-14.5 -34.5l-7 -39q-4 -25 4 -35t33 -10zM507 194l17 99h-232q-25 0 -35.5 -9t-14.5 -34l-9 -53q-4 -26 5 -36t34 -10h186q24 0 34 9t15 34z" />
    <glyph glyph-name="quotesingle" unicode="'" horiz-adv-x="264" 
d="M61 336l63 364h168l-63 -364h-168z" />
    <glyph glyph-name="parenleft" unicode="(" horiz-adv-x="432" 
d="M343 -100h-96q-124 0 -181.5 69.5t-35.5 194.5l71 400q22 125 87.5 180.5t189.5 55.5h123l-27 -159h-90q-47 0 -73 -22t-34 -69l-70 -393q-8 -47 13 -72.5t68 -25.5h83z" />
    <glyph glyph-name="parenright" unicode=")" horiz-adv-x="432" 
d="M118 800h96q124 0 181.5 -69.5t35.5 -194.5l-71 -400q-22 -125 -87.5 -180.5t-189.5 -55.5h-123l27 159h90q47 0 73 22t34 69l70 393q8 47 -13 72.5t-68 25.5h-83z" />
    <glyph glyph-name="asterisk" unicode="*" horiz-adv-x="479" 
d="M465 592l17 -119l-127 -7l65 -108l-108 -53l-45 119l-84 -96l-83 86l99 80l-117 50l56 106l107 -69l11 126l118 -20l-33 -123z" />
    <glyph glyph-name="plus" unicode="+" 
d="M496 437h229l-30 -174h-230l-39 -221h-181l39 221h-229l30 174h231l39 221h180z" />
    <glyph glyph-name="comma" unicode="," horiz-adv-x="332" 
d="M109 -160h-134l94 160h-68l38 220h236l-16 -92q-15 -84 -61 -151z" />
    <glyph glyph-name="hyphen" unicode="-" horiz-adv-x="420" 
d="M35 263l30 174h348l-30 -174h-348z" />
    <glyph glyph-name="period" unicode="." horiz-adv-x="332" 
d="M236 0h-236l39 220h236z" />
    <glyph glyph-name="slash" unicode="/" horiz-adv-x="496" 
d="M-63 -100l506 900h144l-506 -900h-144z" />
    <glyph glyph-name="zero" unicode="0" 
d="M466 0h-256q-103 0 -148 54t-26 158l53 296q19 104 70.5 148t154.5 44h256q103 0 148.5 -54t26.5 -158l-53 -296q-19 -104 -71 -148t-155 -44zM305 177h116q35 0 50.5 13.5t21.5 49.5l38 218q6 35 -7 50t-49 15h-115q-36 0 -51 -13.5t-21 -49.5l-38 -218q-6 -35 7 -50
t48 -15z" />
    <glyph glyph-name="one" unicode="1" horiz-adv-x="692" 
d="M545 700l-94 -533h198l-31 -167h-640l31 167h233l61 347l-207 -19l30 175l321 30h98z" />
    <glyph glyph-name="two" unicode="2" 
d="M678 170l-31 -170h-649l43 244q14 79 52 110q39 33 124 43l268 35q25 4 34.5 12.5t14.5 31.5l5 23q11 45 -39 45h-150q-24 0 -33.5 -8.5t-14.5 -33.5l-6 -31h-200l13 81q13 81 52.5 114.5t123.5 33.5h329q81 0 116.5 -43t22.5 -125l-16 -95q-12 -78 -50 -110
q-40 -32 -126 -44l-269 -35q-25 -3 -35 -11.5t-14 -32.5l-6 -34h441z" />
    <glyph glyph-name="three" unicode="3" 
d="M279 700h328q164 0 137 -168l-9 -51q-9 -57 -31.5 -86.5t-64.5 -39.5q77 -32 59 -141l-11 -65q-13 -81 -53 -115t-122 -34h-347q-165 0 -138 168l14 85h200l-8 -48q-4 -25 4.5 -35.5t33.5 -10.5h168q24 0 34.5 9t15.5 34l6 41q4 25 -4 35t-33 10h-131l24 138h125
q24 0 34 9t15 34l5 27q5 24 -4 34.5t-34 10.5h-148q-25 0 -34.5 -8.5t-14.5 -34.5l-8 -43h-200l17 97q14 82 53.5 115t121.5 33z" />
    <glyph glyph-name="four" unicode="4" horiz-adv-x="782" 
d="M631 288h129l-29 -158h-128l-23 -130h-200l23 130h-402l24 133l438 437h241zM471 514l-226 -226h186z" />
    <glyph glyph-name="five" unicode="5" horiz-adv-x="722" 
d="M481 0h-478l30 170h377q25 0 34 8.5t14 34.5l5 28q5 24 -4 34.5t-34 10.5h-371l73 414h596l-31 -170h-388l-14 -86h249q81 0 116 -43t22 -125l-22 -128q-13 -81 -52.5 -114.5t-121.5 -33.5z" />
    <glyph glyph-name="six" unicode="6" 
d="M721 530h-360q-36 0 -51.5 -13.5t-21.5 -48.5l-10 -59q33 33 108 33h183q81 0 116 -43t21 -125l-21 -125q-14 -83 -53.5 -116t-121.5 -33h-344q-81 0 -116 43t-21 125l59 340q18 104 70.5 148t155.5 44h438zM456 295h-155q-23 0 -34 -8t-16 -29l-9 -54q-4 -25 5 -35
t34 -10h156q24 0 34 9t15 34l8 48q4 25 -4.5 35t-33.5 10z" />
    <glyph glyph-name="seven" unicode="7" horiz-adv-x="712" 
d="M70 517l32 183h660l-30 -166l-280 -263q-30 -29 -42 -52q-12 -26 -21 -70l-26 -149h-212l27 157q17 89 40 133q22 44 82 98l143 129h-373z" />
    <glyph glyph-name="eight" unicode="8" 
d="M279 700h328q164 0 137 -168l-9 -51q-9 -57 -31.5 -86.5t-64.5 -39.5q77 -32 59 -141l-11 -65q-13 -81 -53 -115t-122 -34h-348q-164 0 -137 168l11 65q10 61 35.5 91.5t74.5 38.5q-71 32 -53 138l9 51q13 81 53 114.5t122 33.5zM304 502l-7 -35q-5 -25 3.5 -35t34.5 -10
h140q25 0 35.5 8.5t14.5 33.5l6 36q4 25 -4.5 35t-33.5 10h-141q-24 0 -33.5 -9t-14.5 -34zM487 198l9 50q4 25 -4 35t-33 10h-160q-25 0 -35 -8.5t-15 -34.5l-9 -49q-4 -25 4.5 -35t33.5 -10h160q25 0 35 8.5t14 33.5z" />
    <glyph glyph-name="nine" unicode="9" 
d="M271 700h344q81 0 116 -43t21 -125l-60 -340q-18 -104 -70 -148t-155 -44h-439l30 168h360q35 0 51 13.5t23 49.5l9 54q-33 -33 -108 -33h-183q-81 0 -116.5 43t-20.5 125l23 132q14 82 53.5 115t121.5 33zM323 399h155q40 0 49 31l11 63q4 25 -4.5 35t-33.5 10h-157
q-25 0 -34.5 -8.5t-14.5 -34.5l-9 -50q-4 -25 4.5 -35.5t33.5 -10.5z" />
    <glyph glyph-name="colon" unicode=":" horiz-adv-x="332" 
d="M295 332h-236l37 204h236zM236 0h-236l37 204h236z" />
    <glyph glyph-name="semicolon" unicode=";" horiz-adv-x="332" 
d="M295 332h-236l37 204h236zM109 -160h-134l94 160h-69l37 204h236l-13 -76q-14 -80 -62 -151z" />
    <glyph glyph-name="less" unicode="&#x3c;" 
d="M88 447l680 226l-35 -191l-435 -134l386 -149l-30 -172l-596 246z" />
    <glyph glyph-name="equal" unicode="=" 
d="M79 399l29 166h640l-29 -166h-640zM33 135l29 166h640l-29 -166h-640z" />
    <glyph glyph-name="greater" unicode="&#x3e;" 
d="M97 501l30 172l596 -246l-30 -174l-680 -226l35 191l435 134z" />
    <glyph glyph-name="question" unicode="?" horiz-adv-x="682" 
d="M405 224h-193l13 73q12 61 35 86q23 23 95 41l85 22q22 5 32 13.5t14 26.5l2 14q4 23 -4.5 32.5t-31.5 9.5h-136q-22 0 -31.5 -8.5t-13.5 -31.5l-8 -42h-200l15 92q13 81 53 114.5t122 33.5h310q166 0 137 -167l-10 -63q-11 -69 -45 -100q-34 -33 -118 -54l-77 -20
q-20 -5 -28.5 -13.5t-11.5 -27.5zM387 0h-236l31 172h236z" />
    <glyph glyph-name="at" unicode="@" horiz-adv-x="875" 
d="M304 700h392q103 0 149.5 -56t27.5 -160l-32 -187q-13 -70 -47 -98.5t-103 -28.5h-74q-73 0 -94 48q-43 -33 -66 -40q-25 -9 -77 -9h-36q-127 0 -104 127l21 115q11 65 43.5 92.5t96.5 27.5h35q47 0 71 -8q23 -8 49 -35l18 41h115l-39 -227q-6 -32 22 -32h15q24 0 33 7.5
t13 30.5l31 176q11 63 -11 89.5t-84 26.5h-357q-62 0 -87 -21q-26 -23 -36 -85l-50 -278q-10 -63 12 -89.5t84 -26.5h507l-18 -100h-516q-103 0 -149.5 56t-27.5 160l52 296q20 104 69 146q50 42 152 42zM496 294l15 11l16 90l-11 12q-15 15 -51 15h-31q-20 0 -28 -7.5
t-12 -27.5l-12 -71q-4 -21 2 -29.5t27 -8.5h32q34 0 53 16z" />
    <glyph glyph-name="A" unicode="A" horiz-adv-x="832" 
d="M784 0h-227l-20 109h-286l-58 -109h-241l418 700h245zM464 505l-133 -247h178z" />
    <glyph glyph-name="B" unicode="B" horiz-adv-x="774" 
d="M123 700h504q79 0 114 -42.5t21 -123.5l-8 -51q-10 -55 -31 -85t-60 -41q81 -29 63 -141l-11 -66q-13 -81 -53.5 -115.5t-122.5 -34.5h-541zM502 539h-192l-20 -116h196q24 0 34 9t15 34l5 28q10 45 -38 45zM509 204l8 42q4 25 -4.5 35.5t-33.5 10.5h-212l-23 -131h216
q24 0 34 9t15 34z" />
    <glyph glyph-name="C" unicode="C" horiz-adv-x="779" 
d="M502 0h-298q-103 0 -148 54t-26 158l52 296q19 104 71 148t155 44h298q103 0 148 -54t26 -158l-13 -79h-209l9 45q6 35 -6.5 50.5t-48.5 15.5h-149q-36 0 -51.5 -13.5t-22.5 -48.5l-38 -212q-6 -35 6.5 -50.5t48.5 -15.5h149q36 0 51.5 13.5t22.5 48.5l9 56h208l-18 -106
q-19 -104 -71 -148t-155 -44z" />
    <glyph glyph-name="D" unicode="D" horiz-adv-x="808" 
d="M484 0h-484l124 700h456q120 0 180 -71q60 -72 38 -193l-36 -200q-22 -123 -89 -179.5t-189 -56.5zM308 517l-59 -334h212q41 0 62 18t28 59l30 173q15 84 -69 84h-204z" />
    <glyph glyph-name="E" unicode="E" horiz-adv-x="686" 
d="M728 700l-30 -171h-388l-18 -98h348l-26 -148h-348l-20 -112h399l-31 -171h-614l124 700h604z" />
    <glyph glyph-name="F" unicode="F" horiz-adv-x="654" 
d="M718 700l-32 -180h-378l-20 -115h338l-29 -166h-339l-42 -239h-216l124 700h594z" />
    <glyph glyph-name="G" unicode="G" horiz-adv-x="809" 
d="M530 0h-326q-102 0 -147.5 55t-26.5 157l53 296q19 104 70.5 148t154.5 44h326q103 0 148 -54t27 -158l-8 -46h-217l3 18q6 36 -6.5 51t-48.5 15h-169q-36 0 -51.5 -13t-21.5 -49l-41 -235q-7 -36 6 -51.5t48 -15.5h178q35 0 50.5 13.5t22.5 49.5l5 28h-156l24 141h364
l-35 -202q-18 -104 -70.5 -148t-155.5 -44z" />
    <glyph glyph-name="H" unicode="H" horiz-adv-x="796" 
d="M562 458l43 242h216l-124 -700h-216l47 266h-268l-47 -266h-216l124 700h216l-43 -242h268z" />
    <glyph glyph-name="I" unicode="I" horiz-adv-x="324" 
d="M5 0l124 700h219l-124 -700h-219z" />
    <glyph glyph-name="J" unicode="J" horiz-adv-x="719" 
d="M436 0h-248q-103 0 -148 54t-26 158l15 84h208l-9 -50q-7 -35 6 -50.5t49 -15.5h99q36 0 51.5 13.5t21.5 48.5l81 458h216l-90 -508q-19 -104 -71 -148t-155 -44z" />
    <glyph glyph-name="K" unicode="K" horiz-adv-x="793" 
d="M578 700h282l-354 -342l234 -358h-263l-204 341l-60 -341h-216l124 700h216l-56 -314z" />
    <glyph glyph-name="L" unicode="L" horiz-adv-x="624" 
d="M340 700l-90 -509h349l-35 -191h-564l124 700h216z" />
    <glyph glyph-name="M" unicode="M" horiz-adv-x="916" 
d="M462 336l289 364h193l-124 -700h-200l62 351l-197 -242h-111l-112 241l-62 -350h-200l124 700h178z" />
    <glyph glyph-name="N" unicode="N" horiz-adv-x="816" 
d="M567 304l69 396h208l-124 -700h-174l-266 406l-72 -406h-208l124 700h183z" />
    <glyph glyph-name="O" unicode="O" horiz-adv-x="809" 
d="M530 0h-326q-103 0 -148 54t-26 158l52 296q19 104 71 148t155 44h326q103 0 148 -54t26 -158l-52 -296q-19 -104 -71 -148t-155 -44zM307 183h169q36 0 51.5 13.5t21.5 49.5l37 204q6 36 -6.5 51.5t-48.5 15.5h-169q-36 0 -51.5 -13.5t-21.5 -49.5l-37 -204
q-6 -36 6.5 -51.5t48.5 -15.5z" />
    <glyph glyph-name="P" unicode="P" 
d="M216 0h-216l124 700h488q191 0 158 -192l-24 -136q-17 -97 -61 -134q-46 -38 -141 -38h-292zM310 533l-30 -174h197q30 0 42.5 11t17.5 42l12 66q5 31 -5.5 43t-41.5 12h-192z" />
    <glyph glyph-name="Q" unicode="Q" horiz-adv-x="809" 
d="M308 700h326q103 0 148 -54t26 -158l-52 -296q-15 -84 -52 -128.5t-103 -57.5l73 -146h-201l-63 140h-206q-103 0 -148 54t-26 158l52 296q19 104 71 148t155 44zM289 454l-37 -204q-6 -36 6.5 -51.5t48.5 -15.5h169q36 0 51.5 13.5t21.5 49.5l37 204q6 36 -6.5 51.5
t-48.5 15.5h-169q-36 0 -51.5 -13.5t-21.5 -49.5z" />
    <glyph glyph-name="R" unicode="R" horiz-adv-x="774" 
d="M124 700h488q191 0 158 -192l-16 -95q-15 -86 -52 -124.5t-110 -45.5l113 -243h-219l-100 225h-129l-41 -225h-216zM504 541h-192l-28 -162h196q31 0 43.5 11t17.5 42l10 54q5 31 -5.5 43t-41.5 12z" />
    <glyph glyph-name="S" unicode="S" horiz-adv-x="789" 
d="M22 166l10 59h208l-5 -29q-4 -24 4.5 -34t33.5 -10h198q24 0 34.5 9.5t15.5 34.5l4 26q4 25 -3 34t-30 11l-273 24q-83 8 -117 47.5t-20 118.5l17 93q14 82 54.5 116t122.5 34h370q160 0 135 -166l-7 -49h-208l3 20q3 25 -5.5 34.5t-33.5 9.5h-174q-24 0 -34.5 -9.5
t-14.5 -34.5l-2 -13q-4 -25 2.5 -33.5t29.5 -10.5l273 -25q84 -8 117.5 -47.5t19.5 -118.5l-19 -107q-14 -82 -54.5 -116t-121.5 -34h-394q-81 0 -115.5 42t-20.5 124z" />
    <glyph glyph-name="T" unicode="T" horiz-adv-x="692" 
d="M88 700h668l-34 -191h-226l-90 -509h-216l90 509h-226z" />
    <glyph glyph-name="U" unicode="U" horiz-adv-x="786" 
d="M503 0h-296q-103 0 -148 54t-26 158l86 488h216l-80 -450q-6 -36 6.5 -51.5t48.5 -15.5h139q36 0 52 13.5t22 49.5l80 454h216l-90 -508q-19 -104 -71 -148t-155 -44z" />
    <glyph glyph-name="V" unicode="V" horiz-adv-x="808" 
d="M395 250l251 450h236l-421 -700h-209l-174 700h225z" />
    <glyph glyph-name="W" unicode="W" horiz-adv-x="1134" 
d="M779 298l196 402h233l-373 -700h-190l-61 383l-196 -383h-184l-126 700h227l54 -400l200 400h159z" />
    <glyph glyph-name="X" unicode="X" horiz-adv-x="784" 
d="M210 0h-256l312 357l-178 343h236l99 -203l167 203h258l-300 -343l186 -357h-236l-107 216z" />
    <glyph glyph-name="Y" unicode="Y" horiz-adv-x="760" 
d="M594 700h250l-358 -444l-46 -256h-216l46 255l-202 445h238l100 -255z" />
    <glyph glyph-name="Z" unicode="Z" horiz-adv-x="756" 
d="M674 0h-688l27 149l427 368h-342l32 183h668l-26 -149l-427 -368h362z" />
    <glyph glyph-name="bracketleft" unicode="[" horiz-adv-x="412" 
d="M323 -100h-340l158 900h340l-27 -159h-161l-103 -582h161z" />
    <glyph glyph-name="backslash" unicode="\" horiz-adv-x="496" 
d="M95 800h129l205 -900h-129z" />
    <glyph glyph-name="bracketright" unicode="]" horiz-adv-x="412" 
d="M118 800h340l-158 -900h-340l27 159h161l103 582h-161z" />
    <glyph glyph-name="asciicircum" unicode="^" 
d="M536 700l172 -420h-193l-87 236l-170 -236h-210l321 420h167z" />
    <glyph glyph-name="underscore" unicode="_" horiz-adv-x="668" 
d="M-78 -175l23 135h668l-23 -135h-668z" />
    <glyph glyph-name="grave" unicode="`" horiz-adv-x="376" 
d="M376 572h-146l-100 128h197z" />
    <glyph glyph-name="a" unicode="a" horiz-adv-x="681" 
d="M260 536h236q190 0 156 -190l-61 -346h-170l-5 54q-44 -33 -81 -44q-34 -10 -105 -10h-104q-63 0 -93.5 36.5t-17.5 98.5l10 56q12 63 46 92t96 29h276l6 33q5 31 -5 43t-41 12h-80q-25 0 -35.5 -9t-14.5 -34l-2 -14h-196l7 43q13 81 54.5 115.5t123.5 34.5zM256 123h64
q39 0 69 21l28 20l5 28l4 22h-158q-22 0 -30.5 -7.5t-12.5 -29.5l-3 -15q-3 -22 4 -30.5t30 -8.5z" />
    <glyph glyph-name="b" unicode="b" horiz-adv-x="694" 
d="M463 536h51q95 0 133.5 -46.5t22.5 -143.5l-31 -172q-16 -96 -62 -135t-142 -39h-59q-72 0 -108 11q-34 10 -73 49l-27 -60h-169l124 700h203l-37 -209q39 28 75 37q37 8 99 8zM443 213l19 107q5 31 -5 43t-41 12h-49q-49 0 -80 -22l-26 -20l-23 -131l19 -19
q22 -22 75 -22h51q31 0 43 10.5t17 41.5z" />
    <glyph glyph-name="c" unicode="c" horiz-adv-x="658" 
d="M400 0h-217q-191 0 -158 192l30 172q17 98 62 134q46 38 141 38h217q189 0 158 -192l-6 -39h-195l2 15q4 31 -6 43t-41 12h-75q-31 0 -43.5 -10.5t-17.5 -41.5l-19 -107q-5 -31 5.5 -43t41.5 -12h75q31 0 43.5 10.5t17.5 41.5l4 23h195l-11 -64q-16 -96 -62 -134
t-141 -38z" />
    <glyph glyph-name="d" unicode="d" horiz-adv-x="694" 
d="M484 490l37 210h203l-124 -700h-169l-5 60q-48 -38 -86 -49t-108 -11h-52q-95 0 -133 46.5t-22 143.5l30 172q16 96 62.5 135t142.5 39h59q64 0 101 -8q31 -9 64 -38zM278 161h49q49 0 80 22l26 20l24 131l-20 19q-22 22 -75 22h-51q-30 0 -42.5 -10.5t-17.5 -41.5
l-19 -107q-5 -31 5 -43t41 -12z" />
    <glyph glyph-name="e" unicode="e" horiz-adv-x="676" 
d="M260 536h236q95 0 133 -46.5t22 -142.5l-18 -108h-396l-6 -33q-5 -31 4.5 -43t40.5 -12h104q24 0 34.5 9t15.5 34l2 11h195l-10 -54q-15 -83 -55 -117t-121 -34h-260q-189 0 -156 190l30 172q16 96 62.5 135t142.5 39zM257 355l-2 -14h201l2 12q5 31 -4.5 42.5
t-40.5 11.5h-95q-30 0 -43 -11t-18 -41z" />
    <glyph glyph-name="f" unicode="f" horiz-adv-x="494" 
d="M532 548h-130q-24 0 -34 -9t-15 -34l-6 -35h171l-28 -158h-171l-55 -312h-203l55 312h-96l28 158h96l14 80q15 82 55 116t122 34h224z" />
    <glyph glyph-name="g" unicode="g" horiz-adv-x="695" 
d="M500 475l27 61h169l-89 -502q-19 -104 -72 -149t-156 -45h-397l27 148h321q36 0 53 14t24 50l7 42q-42 -30 -74 -38q-34 -9 -99 -9h-52q-189 0 -155 190l21 125q16 97 63 136q47 38 142 38h59q71 0 109 -11q34 -10 72 -50zM413 217l26 19l12 67l7 41l-19 19
q-22 22 -75 22h-50q-31 0 -43.5 -10.5t-17.5 -41.5l-15 -84q-5 -31 5 -43t41 -12h49q48 0 80 23z" />
    <glyph glyph-name="h" unicode="h" horiz-adv-x="689" 
d="M470 536h32q192 0 157 -192l-60 -344h-203l55 315q6 31 -4.5 43t-41.5 12h-39q-49 0 -80 -22l-26 -19l-58 -329h-203l124 700h203l-38 -215q43 33 79 42q35 9 103 9z" />
    <glyph glyph-name="i" unicode="i" horiz-adv-x="307" 
d="M311 576h-206l22 124h206zM209 0h-206l95 536h206z" />
    <glyph glyph-name="j" unicode="j" horiz-adv-x="307" 
d="M311 576h-206l22 124h206zM31 -160h-128l27 153h30q25 0 35.5 9t14.5 34l88 500h207l-97 -546q-15 -82 -55 -116t-122 -34z" />
    <glyph glyph-name="k" unicode="k" horiz-adv-x="693" 
d="M474 536h265l-280 -270l192 -266h-248l-157 249l-44 -249h-204l124 700h204l-72 -407z" />
    <glyph glyph-name="l" unicode="l" horiz-adv-x="307" 
d="M209 0h-206l124 700h206z" />
    <glyph glyph-name="m" unicode="m" horiz-adv-x="1054" 
d="M846 536h28q95 0 131 -47.5t19 -144.5l-60 -344h-204l56 315q5 31 -5 43t-41 12h-22q-50 0 -81 -22l-26 -19l-58 -329h-203l55 315q6 31 -4.5 43t-41.5 12h-22q-53 0 -81 -22l-25 -19l-59 -329h-203l95 536h169l6 -60q52 39 87 49q39 11 109 11h29q113 0 143 -69
q56 44 94 57q39 12 115 12z" />
    <glyph glyph-name="n" unicode="n" horiz-adv-x="689" 
d="M465 536h37q192 0 157 -192l-60 -344h-203l55 315q6 31 -4.5 43t-41.5 12h-38q-53 0 -81 -22l-25 -19l-59 -329h-203l95 536h169l6 -60q52 39 87 49q39 11 109 11z" />
    <glyph glyph-name="o" unicode="o" horiz-adv-x="686" 
d="M428 0h-245q-191 0 -158 192l30 172q17 98 62 134q46 38 141 38h245q191 0 158 -192l-30 -172q-17 -97 -61 -134q-47 -38 -142 -38zM279 161h95q31 0 43.5 10.5t17.5 41.5l19 107q5 31 -5.5 43t-41.5 12h-95q-31 0 -43.5 -10.5t-17.5 -41.5l-19 -107q-5 -31 5.5 -43
t41.5 -12z" />
    <glyph glyph-name="p" unicode="p" horiz-adv-x="694" 
d="M463 536h51q95 0 133.5 -46.5t22.5 -143.5l-31 -172q-16 -96 -62 -135t-142 -39h-59q-66 0 -100 9q-34 7 -66 36l-36 -205h-203l123 696h169l6 -60q50 40 86 50q34 10 108 10zM443 213l19 107q5 31 -5 43t-41 12h-49q-49 0 -80 -22l-26 -20l-23 -131l19 -19
q22 -22 75 -22h51q31 0 43 10.5t17 41.5z" />
    <glyph glyph-name="q" unicode="q" horiz-adv-x="694" 
d="M499 476l27 60h170l-124 -696h-203l36 205q-41 -29 -74 -36q-35 -9 -99 -9h-52q-95 0 -133 46.5t-22 143.5l30 172q16 96 62.5 135t142.5 39h59q71 0 109 -11q34 -10 71 -49zM407 183l26 19l24 132l-20 19q-22 22 -75 22h-51q-30 0 -42.5 -10.5t-17.5 -41.5l-19 -107
q-5 -31 5 -43t41 -12h49q49 0 80 22z" />
    <glyph glyph-name="r" unicode="r" horiz-adv-x="462" 
d="M455 536h43l-35 -190h-101q-52 0 -80 -22l-26 -19l-54 -305h-203l95 536h145l7 -71q56 45 96 59q38 12 113 12z" />
    <glyph glyph-name="s" unicode="s" horiz-adv-x="666" 
d="M14 134l8 47h195l-5 -29q-3 -16 2 -21.5t21 -5.5h138q16 0 22 5.5t9 21.5l4 21q3 14 -2.5 20t-21.5 8l-215 22q-61 5 -88.5 38t-17.5 92l11 62q21 121 142 121h313q59 0 88.5 -36t19.5 -97l-6 -41h-195l4 23q3 15 -2.5 20.5t-21.5 5.5h-114q-16 0 -22 -5.5t-8 -20.5
l-2 -10q-2 -14 2.5 -19.5t20.5 -7.5l216 -22q61 -6 89 -39.5t17 -91.5l-13 -74q-22 -121 -143 -121h-337q-59 0 -88.5 36.5t-19.5 97.5z" />
    <glyph glyph-name="t" unicode="t" horiz-adv-x="514" 
d="M511 378h-180l-31 -172q-4 -25 4.5 -35t34.5 -10h134l-29 -161h-219q-165 0 -135 164l38 214h-96l28 158h96l61 120h163l-21 -120h180z" />
    <glyph glyph-name="u" unicode="u" horiz-adv-x="689" 
d="M487 536h203l-95 -536h-169l-6 60q-52 -39 -87 -49q-39 -11 -109 -11h-37q-191 0 -157 192l60 344h203l-55 -315q-6 -31 4.5 -43t41.5 -12h38q53 0 81 22l25 19z" />
    <glyph glyph-name="v" unicode="v" horiz-adv-x="678" 
d="M326 235l171 301h227l-340 -536h-185l-149 536h212z" />
    <glyph glyph-name="w" unicode="w" horiz-adv-x="942" 
d="M636 255l136 281h216l-295 -536h-180l-43 278l-140 -278h-176l-104 536h203l39 -280l143 280h155z" />
    <glyph glyph-name="x" unicode="x" horiz-adv-x="682" 
d="M196 0h-250l257 274l-152 262h229l75 -143l120 143h251l-245 -262l159 -274h-229l-83 155z" />
    <glyph glyph-name="y" unicode="y" horiz-adv-x="678" 
d="M323 221l174 315h227l-345 -544q-63 -99 -112 -126q-50 -26 -160 -26h-125l29 161h114q49 0 68 19l-143 516h212z" />
    <glyph glyph-name="z" unicode="z" horiz-adv-x="650" 
d="M570 0h-586l22 122l329 261h-262l27 153h566l-22 -122l-329 -261h282z" />
    <glyph glyph-name="braceleft" unicode="{" horiz-adv-x="488" 
d="M419 800h138l-27 -159h-95q-36 0 -52.5 -15t-23.5 -51l-19 -111q-17 -90 -85 -117q58 -33 43 -121l-17 -98q-6 -36 7.5 -52.5t50.5 -16.5h88l-28 -159h-118q-107 0 -153.5 56t-27.5 164l20 116q8 42 -35 42h-59l25 144h63q40 0 46 40l25 138q19 108 73 154t161 46z" />
    <glyph glyph-name="bar" unicode="|" horiz-adv-x="276" 
d="M-7 -100l158 900h160l-158 -900h-160z" />
    <glyph glyph-name="braceright" unicode="}" horiz-adv-x="488" 
d="M432 422h59l-25 -144h-63q-40 0 -46 -40l-25 -138q-19 -108 -73 -154t-161 -46h-138l27 159h95q36 0 52.5 15t23.5 51l19 111q17 90 85 117q-58 33 -43 121l17 98q6 36 -7.5 52.5t-50.5 16.5h-88l28 159h118q107 0 153.5 -56t27.5 -164l-20 -116q-7 -42 35 -42z" />
    <glyph glyph-name="asciitilde" unicode="~" 
d="M437 437l48 -103q7 -12 21 -12h13q15 0 18 15l29 167h171l-37 -210q-10 -53 -36 -75.5t-79 -22.5h-126q-53 0 -75 13q-24 14 -40 55l-49 102q-7 12 -21 12h-13q-14 0 -17 -15l-29 -167h-172l38 210q9 53 35 75.5t79 22.5h126q54 0 77 -13t39 -54z" />
    <glyph glyph-name="exclamdown" unicode="&#xa1;" horiz-adv-x="332" 
d="M125 700h236l-35 -196h-236zM274 452l-39 -452h-233l121 452h151z" />
    <glyph glyph-name="cent" unicode="&#xa2;" 
d="M520 700h71q191 0 158 -192l-9 -50h-200l4 23q5 31 -5.5 43t-41.5 12h-144q-30 0 -42.5 -11t-17.5 -41l-24 -135q-6 -31 4.5 -43t41.5 -12h145q30 0 42.5 11t17.5 41l6 31h200l-14 -75q-16 -96 -61 -134q-46 -38 -141 -38h-91l-18 -100h-129l18 100h-76q-192 0 -158 192
l37 206q16 97 62 135q43 37 139 37h96l18 100h129z" />
    <glyph glyph-name="sterling" unicode="&#xa3;" horiz-adv-x="772" 
d="M355 700h236q103 0 148.5 -54.5t26.5 -157.5l-11 -61h-201l9 47q7 35 -6.5 50t-49.5 15h-111q-30 0 -44 -13.5t-20 -49.5l-11 -61h163l-19 -113h-164l-24 -133h190q24 0 34.5 9t15.5 34l11 62h200l-21 -122q-14 -82 -56 -117t-124 -35h-562l30 169h74l24 133h-84l19 113
h85l17 93q19 104 70.5 148t154.5 44z" />
    <glyph glyph-name="currency" unicode="&#xa4;" 
d="M666 421l-28 -162q-6 -33 -16 -55l75 -91l-102 -87l-67 82q-38 -15 -85 -15h-176q-47 0 -82 18l-100 -85l-83 101l110 94q-3 27 3 58l28 162q6 33 16 55l-75 91l101 87l68 -82q36 15 85 15h175q49 0 83 -18l100 85l83 -101l-110 -94q3 -27 -3 -58zM336 249h77
q34 0 49.5 13.5t21.5 47.5l13 77q6 34 -6.5 49t-46.5 15h-76q-34 0 -49.5 -13.5t-21.5 -47.5l-13 -77q-6 -34 6 -49t46 -15z" />
    <glyph glyph-name="yen" unicode="&#xa5;" 
d="M577 700h235l-282 -370h187l-16 -92h-227l-10 -60h226l-16 -92h-227l-15 -86h-208l15 86h-225l16 92h226l10 60h-225l16 92h186l-151 370h224l86 -252z" />
    <glyph glyph-name="brokenbar" unicode="&#xa6;" horiz-adv-x="276" 
d="M93 466l59 334h160l-59 -334h-160zM-6 -100l59 334h160l-59 -334h-160z" />
    <glyph glyph-name="section" unicode="&#xa7;" horiz-adv-x="926" 
d="M458 553l323 -33q76 -8 106.5 -46.5t17.5 -112.5l-13 -68q-13 -73 -43 -104t-93 -35q0 -6 -4 -31l-13 -74q-14 -83 -53 -116t-121 -33h-303q-81 0 -116.5 43t-22.5 125l8 50h208l-4 -25q-4 -25 4.5 -35.5t33.5 -10.5h110q23 0 33 9t14 33l3 14q4 23 -4 32.5t-31 11.5
l-324 33q-76 8 -106.5 47t-16.5 113l12 67q14 74 44 104.5t92 34.5l4 32l13 74q15 82 54 115t120 33h304q81 0 116 -42.5t22 -124.5l-8 -51h-208l5 26q4 25 -5 35t-34 10h-109q-24 0 -33.5 -8.5t-14.5 -32.5l-2 -15q-4 -23 3.5 -32.5t31.5 -11.5zM299 323l332 -33
q24 -3 34 -5q12 7 15 28l5 28q7 32 -29 36l-332 33q-24 3 -34 5q-11 -8 -15 -28l-5 -28q-3 -18 3.5 -26t25.5 -10z" />
    <glyph glyph-name="dieresis" unicode="&#xa8;" horiz-adv-x="464" 
d="M255 576h-152l20 116h152zM471 576h-152l20 116h152z" />
    <glyph glyph-name="copyright" unicode="&#xa9;" horiz-adv-x="861" 
d="M577 0h-264q-104 0 -166 61.5t-62 166.5v244q0 105 62 166.5t166 61.5h264q104 0 166 -61.5t62 -166.5v-244q0 -105 -62 -166.5t-166 -61.5zM327 63h236q85 0 130 44.5t45 130.5v224q0 86 -45 130.5t-130 44.5h-236q-85 0 -130 -44.5t-45 -130.5v-224q0 -86 45 -130.5
t130 -44.5zM539 128h-188q-68 0 -101 32.5t-33 101.5v176q0 69 33 101.5t101 32.5h188q68 0 101 -32.5t33 -101.5v-54h-142v27q0 22 -8 30.5t-30 8.5h-90q-22 0 -31 -8.5t-9 -30.5v-122q0 -22 9 -30.5t31 -8.5h90q22 0 30 8.5t8 30.5v32h142v-59q0 -69 -33 -101.5
t-101 -32.5z" />
    <glyph glyph-name="ordfeminine" unicode="&#xaa;" horiz-adv-x="409" 
d="M206 700h141q114 0 94 -113l-37 -209h-105l-4 32q-28 -22 -46 -26q-19 -6 -62 -6h-65q-36 0 -54.5 22t-11.5 59l6 35q12 73 86 73h164l3 18q3 17 -2.5 23.5t-22.5 6.5h-47q-14 0 -20 -5t-8 -19l-2 -8h-121l5 25q9 50 34 71t75 21zM202 454h39q23 0 39 12l15 11l5 29h-89
q-13 0 -18 -4t-6 -16l-2 -11q-2 -12 1.5 -16.5t15.5 -4.5z" />
    <glyph glyph-name="guillemotleft" unicode="&#xab;" horiz-adv-x="836" 
d="M71 422l379 176l-30 -167l-200 -81l170 -92l-28 -156l-313 196zM471 422l379 176l-30 -167l-200 -81l170 -92l-28 -156l-313 196z" />
    <glyph glyph-name="logicalnot" unicode="&#xac;" 
d="M512 263h-457l31 174h640l-60 -339h-183z" />
    <glyph glyph-name="uni00AD" unicode="&#xad;" horiz-adv-x="420" 
d="M35 263l30 174h348l-30 -174h-348z" />
    <glyph glyph-name="registered" unicode="&#xae;" horiz-adv-x="393" 
d="M193 700h105q111 0 111 -111v-92q0 -111 -111 -111h-105q-111 0 -111 111v92q0 111 111 111zM364 499v88q0 40 -15.5 55.5t-54.5 15.5h-97q-39 0 -55 -15.5t-16 -55.5v-88q0 -38 16 -54.5t55 -16.5h97q39 0 54.5 16t15.5 55zM323 580v-21q0 -36 -31 -40l38 -54h-54
l-31 48h-25v-48h-49v155h112q22 0 31 -9.5t9 -30.5zM265 583h-45v-34h45q10 0 10 9v15q0 10 -10 10z" />
    <glyph glyph-name="overscore" unicode="&#xaf;" horiz-adv-x="520" 
d="M529 589h-424l17 95h424z" />
    <glyph glyph-name="degree" unicode="&#xb0;" horiz-adv-x="436" 
d="M299 340h-118q-59 0 -90 38t-20 96l19 110q21 116 136 116h118q59 0 89.5 -37.5t20.5 -96.5l-19 -110q-20 -116 -136 -116zM221 446h58q22 0 32.5 9t14.5 31l11 67q4 23 -4 32t-30 9h-58q-22 0 -32 -9t-14 -31l-11 -67q-4 -22 3.5 -31.5t29.5 -9.5z" />
    <glyph glyph-name="plusminus" unicode="&#xb1;" 
d="M542 692l-29 -161h230l-28 -158h-229l-29 -161h-181l29 161h-230l28 158h229l29 161h181zM651 8h-640l27 158h640z" />
    <glyph glyph-name="uni00B2" unicode="&#xb2;" horiz-adv-x="473" 
d="M453 391l-20 -111h-396l25 147q9 49 32.5 69t76.5 26l156 18q12 2 17 6.5t7 16.5l3 16q4 21 -19 21h-80q-12 0 -17 -4.5t-7 -17.5l-4 -20h-132l8 51q8 51 32 71t75 20h200q103 0 85 -105l-9 -51q-9 -48 -32 -68t-77 -27l-155 -18q-20 -1 -24 -23l-3 -17h258z" />
    <glyph glyph-name="uni00B3" unicode="&#xb3;" horiz-adv-x="469" 
d="M206 700h199q102 0 84 -102l-4 -28q-12 -68 -61 -78q50 -17 38 -85l-6 -35q-8 -51 -33 -71.5t-76 -20.5h-211q-100 0 -83 102l8 54h133l-5 -28q-2 -14 2 -18.5t17 -4.5h91q13 0 18 4t7 18l4 19q4 23 -20 23h-73l15 89h70q13 0 18 4t7 18l2 12q2 14 -2 18.5t-17 4.5h-79
q-24 0 -25 -22l-4 -24h-132l10 59q7 50 32 71t76 21z" />
    <glyph glyph-name="acute" unicode="&#xb4;" horiz-adv-x="376" 
d="M409 700l-143 -128h-168l93 128h218z" />
    <glyph glyph-name="paragraph" unicode="&#xb6;" horiz-adv-x="854" 
d="M56 416l20 112q17 98 62 134q46 38 141 38h563l-124 -700h-184l94 533h-94l-94 -533h-184l41 224h-83q-191 0 -158 192z" />
    <glyph glyph-name="middot" unicode="&#xb7;" horiz-adv-x="332" 
d="M278 240h-236l39 220h236z" />
    <glyph glyph-name="cedilla" unicode="&#xb8;" horiz-adv-x="320" 
d="M148 -160h-180l11 60h131q8 0 11 8l1 8q3 9 -8 9h-98l5 28l33 67h72l-21 -42h63q57 0 47 -57l-5 -28q-5 -30 -19 -41.5t-43 -11.5z" />
    <glyph glyph-name="uni00B9" unicode="&#xb9;" horiz-adv-x="435" 
d="M373 700l-55 -310h115l-19 -110h-388l20 110h134l33 187l-119 -11l21 116l194 18h64z" />
    <glyph glyph-name="ordmasculine" unicode="&#xba;" horiz-adv-x="412" 
d="M304 378h-147q-115 0 -95 116l17 101q10 57 38.5 81t86.5 24h147q113 0 95 -115l-18 -101q-10 -58 -38 -82t-86 -24zM215 480h56q17 0 24.5 6t10.5 23l11 59q3 17 -2.5 24t-22.5 7h-57q-17 0 -24 -6.5t-10 -23.5l-11 -59q-3 -17 2.5 -23.5t22.5 -6.5z" />
    <glyph glyph-name="guillemotright" unicode="&#xbb;" horiz-adv-x="836" 
d="M75 442l28 156l313 -196l-22 -124l-379 -176l30 167l200 81zM475 442l28 156l313 -196l-22 -124l-379 -176l30 167l200 81z" />
    <glyph glyph-name="onequarter" unicode="&#xbc;" horiz-adv-x="1055" 
d="M318 390h115l-19 -110h-388l20 110h134l33 187l-119 -11l21 116l194 18h64zM216 0l635 700h122l-636 -700h-121zM942 177h74l-19 -104h-73l-13 -73h-132l13 73h-236l15 87l255 260h159zM832 295l-116 -118h95z" />
    <glyph glyph-name="onehalf" unicode="&#xbd;" horiz-adv-x="1158" 
d="M317 390h115l-19 -110h-388l20 110h134l33 187l-119 -11l21 116l194 18h64zM216 0l635 700h122l-636 -700h-121zM846 420h200q103 0 85 -105l-9 -51q-9 -48 -32 -68t-77 -27l-155 -18q-20 -1 -24 -23l-3 -17h258l-20 -111h-396l25 147q9 49 32.5 69t76.5 26l156 18
q12 2 17 6.5t7 16.5l3 16q4 21 -19 21h-80q-12 0 -17 -4.5t-7 -17.5l-4 -20h-132l8 51q8 51 32 71t75 20z" />
    <glyph glyph-name="threequarters" unicode="&#xbe;" horiz-adv-x="1057" 
d="M462 407l-6 -35q-8 -51 -33 -71.5t-76 -20.5h-211q-100 0 -83 102l8 54h133l-5 -28q-2 -14 2 -18.5t17 -4.5h91q13 0 18 4t7 18l4 19q4 23 -20 23h-73l15 89h70q13 0 18 4t7 18l2 12q2 14 -2 18.5t-17 4.5h-79q-24 0 -25 -22l-4 -24h-132l10 59q7 50 32 71t76 21h199
q102 0 84 -102l-4 -28q-12 -68 -61 -78q50 -17 38 -85zM213 0l635 700h122l-636 -700h-121zM943 177h74l-19 -104h-73l-13 -73h-132l13 73h-236l15 87l255 260h159zM833 295l-116 -118h95z" />
    <glyph glyph-name="questiondown" unicode="&#xbf;" horiz-adv-x="682" 
d="M324 700h236l-31 -172h-236zM306 476h193l-13 -73q-12 -63 -34 -85q-22 -24 -96 -42l-85 -22q-22 -5 -32 -13.5t-14 -26.5l-2 -14q-4 -23 4.5 -32.5t31.5 -9.5h136q22 0 31.5 8.5t13.5 31.5l8 42h200l-15 -92q-13 -81 -53 -114.5t-122 -33.5h-310q-166 0 -137 167l10 63
q10 67 46 101q35 32 117 53l77 20q20 5 28.5 13.5t11.5 27.5z" />
    <glyph glyph-name="Agrave" unicode="&#xc0;" horiz-adv-x="832" 
d="M522 864l49 -128h-146l-100 128h197zM784 0h-227l-20 109h-286l-58 -109h-241l418 700h245zM464 505l-133 -247h178z" />
    <glyph glyph-name="Aacute" unicode="&#xc1;" horiz-adv-x="832" 
d="M510 864h218l-143 -128h-168zM784 0h-227l-20 109h-286l-58 -109h-241l418 700h245zM464 505l-133 -247h178z" />
    <glyph glyph-name="Acircumflex" unicode="&#xc2;" horiz-adv-x="832" 
d="M582 736l-67 52l-85 -52h-150l144 128h194l100 -128h-136zM784 0h-227l-20 109h-286l-58 -109h-241l418 700h245zM464 505l-133 -247h178z" />
    <glyph glyph-name="Atilde" unicode="&#xc3;" horiz-adv-x="832" 
d="M414 789l-9 -53h-110l13 80q10 48 58 48h131q23 0 34.5 -5.5t21.5 -21.5l19 -28q4 -6 14 -6h12q7 0 9 8l9 53h111l-14 -80q-9 -48 -57 -48h-132q-24 0 -34.5 5t-21.5 22l-19 28q-5 6 -13 6h-12q-8 0 -10 -8zM784 0h-227l-20 109h-286l-58 -109h-241l418 700h245zM464 505
l-133 -247h178z" />
    <glyph glyph-name="Adieresis" unicode="&#xc4;" horiz-adv-x="832" 
d="M336 856h152l-20 -116h-152zM552 856h152l-20 -116h-152zM784 0h-227l-20 109h-286l-58 -109h-241l418 700h245zM464 505l-133 -247h178z" />
    <glyph glyph-name="Aring" unicode="&#xc5;" horiz-adv-x="832" 
d="M591 726h-183q-58 0 -47 57l4 28q5 29 19 41t44 12h183q57 0 48 -57l-5 -28q-5 -29 -19 -41t-44 -12zM435 801l-2 -12q-2 -11 0.5 -14.5t13.5 -3.5h117q11 0 14.5 3t5.5 15l3 12q2 11 -1 14.5t-13 3.5h-118q-11 0 -14.5 -3t-5.5 -15zM784 0h-227l-20 109h-286l-58 -109
h-241l418 700h245zM464 505l-133 -247h178z" />
    <glyph glyph-name="AE" unicode="&#xc6;" horiz-adv-x="1088" 
d="M1131 700l-31 -171h-434l20 -98h357l-26 -148h-301l22 -112h309l-30 -171h-472l-16 101h-282l-54 -101h-239l418 700h759zM466 508l-139 -258h179z" />
    <glyph glyph-name="Ccedilla" unicode="&#xc7;" horiz-adv-x="779" 
d="M308 700h298q103 0 148 -54t26 -158l-13 -79h-209l9 45q6 35 -6.5 50.5t-48.5 15.5h-149q-36 0 -51.5 -13.5t-22.5 -48.5l-38 -212q-6 -35 6.5 -50.5t48.5 -15.5h149q36 0 51.5 13.5t22.5 48.5l9 56h208l-18 -106q-19 -104 -71 -148t-155 -44h-140l-11 -22h63
q58 0 47 -57l-5 -28q-5 -30 -19 -41.5t-43 -11.5h-180l11 60h131q8 0 11 8l1 8q3 9 -8 9h-98l5 28l23 47h-86q-103 0 -148 54t-26 158l52 296q19 104 71 148t155 44z" />
    <glyph glyph-name="Egrave" unicode="&#xc8;" horiz-adv-x="686" 
d="M449 864l49 -128h-146l-100 128h197zM728 700l-30 -171h-388l-18 -98h348l-26 -148h-348l-20 -112h399l-31 -171h-614l124 700h604z" />
    <glyph glyph-name="Eacute" unicode="&#xc9;" horiz-adv-x="686" 
d="M437 864h218l-143 -128h-168zM728 700l-30 -171h-388l-18 -98h348l-26 -148h-348l-20 -112h399l-31 -171h-614l124 700h604z" />
    <glyph glyph-name="Ecircumflex" unicode="&#xca;" horiz-adv-x="686" 
d="M509 736l-67 52l-85 -52h-150l144 128h194l100 -128h-136zM728 700l-30 -171h-388l-18 -98h348l-26 -148h-348l-20 -112h399l-31 -171h-614l124 700h604z" />
    <glyph glyph-name="Edieresis" unicode="&#xcb;" horiz-adv-x="686" 
d="M263 856h152l-20 -116h-152zM479 856h152l-20 -116h-152zM728 700l-30 -171h-388l-18 -98h348l-26 -148h-348l-20 -112h399l-31 -171h-614l124 700h604z" />
    <glyph glyph-name="Igrave" unicode="&#xcc;" horiz-adv-x="324" 
d="M316 736h-146l-100 128h197zM5 0l124 700h219l-124 -700h-219z" />
    <glyph glyph-name="Iacute" unicode="&#xcd;" horiz-adv-x="324" 
d="M473 864l-143 -128h-168l93 128h218zM5 0l124 700h219l-124 -700h-219z" />
    <glyph glyph-name="Icircumflex" unicode="&#xce;" horiz-adv-x="324" 
d="M175 736h-150l144 128h194l100 -128h-136l-67 52zM5 0l124 700h219l-124 -700h-219z" />
    <glyph glyph-name="Idieresis" unicode="&#xcf;" horiz-adv-x="324" 
d="M213 740h-152l20 116h152zM429 740h-152l20 116h152zM5 0l124 700h219l-124 -700h-219z" />
    <glyph glyph-name="Eth" unicode="&#xd0;" horiz-adv-x="868" 
d="M184 700h456q120 0 180 -71q60 -72 38 -193l-36 -200q-22 -123 -89 -179.5t-189 -56.5h-484l51 288h-84l22 124h84zM611 260l30 173q15 84 -69 84h-204l-19 -105h162l-22 -124h-161l-19 -105h212q41 0 62 18t28 59z" />
    <glyph glyph-name="Ntilde" unicode="&#xd1;" horiz-adv-x="816" 
d="M389 789l-9 -53h-110l13 80q11 48 58 48h131q23 0 34.5 -5.5t21.5 -21.5l19 -28q5 -6 14 -6h12q7 0 9 8l9 53h111l-14 -80q-9 -48 -57 -48h-132q-24 0 -34.5 5t-21.5 22l-19 28q-5 6 -13 6h-12q-8 0 -10 -8zM567 304l69 396h208l-124 -700h-174l-266 406l-72 -406h-208
l124 700h183z" />
    <glyph glyph-name="Ograve" unicode="&#xd2;" horiz-adv-x="809" 
d="M559 736h-146l-100 128h197zM530 0h-326q-103 0 -148 54t-26 158l52 296q19 104 71 148t155 44h326q103 0 148 -54t26 -158l-52 -296q-19 -104 -71 -148t-155 -44zM307 183h169q36 0 51.5 13.5t21.5 49.5l37 204q6 36 -6.5 51.5t-48.5 15.5h-169q-36 0 -51.5 -13.5
t-21.5 -49.5l-37 -204q-6 -36 6.5 -51.5t48.5 -15.5z" />
    <glyph glyph-name="Oacute" unicode="&#xd3;" horiz-adv-x="809" 
d="M716 864l-143 -128h-168l93 128h218zM530 0h-326q-103 0 -148 54t-26 158l52 296q19 104 71 148t155 44h326q103 0 148 -54t26 -158l-52 -296q-19 -104 -71 -148t-155 -44zM307 183h169q36 0 51.5 13.5t21.5 49.5l37 204q6 36 -6.5 51.5t-48.5 15.5h-169
q-36 0 -51.5 -13.5t-21.5 -49.5l-37 -204q-6 -36 6.5 -51.5t48.5 -15.5z" />
    <glyph glyph-name="Ocircumflex" unicode="&#xd4;" horiz-adv-x="809" 
d="M418 736h-150l144 128h194l100 -128h-136l-67 52zM530 0h-326q-103 0 -148 54t-26 158l52 296q19 104 71 148t155 44h326q103 0 148 -54t26 -158l-52 -296q-19 -104 -71 -148t-155 -44zM307 183h169q36 0 51.5 13.5t21.5 49.5l37 204q6 36 -6.5 51.5t-48.5 15.5h-169
q-36 0 -51.5 -13.5t-21.5 -49.5l-37 -204q-6 -36 6.5 -51.5t48.5 -15.5z" />
    <glyph glyph-name="Otilde" unicode="&#xd5;" horiz-adv-x="809" 
d="M393 736h-110l13 80q10 48 58 48h131q23 0 34.5 -5.5t21.5 -21.5l19 -28q4 -6 14 -6h12q7 0 9 8l9 53h111l-14 -80q-9 -48 -57 -48h-132q-24 0 -34.5 5t-21.5 22l-19 28q-5 6 -13 6h-12q-8 0 -10 -8zM530 0h-326q-103 0 -148 54t-26 158l52 296q19 104 71 148t155 44h326
q103 0 148 -54t26 -158l-52 -296q-19 -104 -71 -148t-155 -44zM307 183h169q36 0 51.5 13.5t21.5 49.5l37 204q6 36 -6.5 51.5t-48.5 15.5h-169q-36 0 -51.5 -13.5t-21.5 -49.5l-37 -204q-6 -36 6.5 -51.5t48.5 -15.5z" />
    <glyph glyph-name="Odieresis" unicode="&#xd6;" horiz-adv-x="809" 
d="M456 740h-152l20 116h152zM672 740h-152l20 116h152zM530 0h-326q-103 0 -148 54t-26 158l52 296q19 104 71 148t155 44h326q103 0 148 -54t26 -158l-52 -296q-19 -104 -71 -148t-155 -44zM307 183h169q36 0 51.5 13.5t21.5 49.5l37 204q6 36 -6.5 51.5t-48.5 15.5h-169
q-36 0 -51.5 -13.5t-21.5 -49.5l-37 -204q-6 -36 6.5 -51.5t48.5 -15.5z" />
    <glyph glyph-name="multiply" unicode="&#xd7;" 
d="M629 664l108 -131l-226 -192l157 -191l-133 -114l-158 191l-225 -191l-108 131l226 192l-158 191l134 114l157 -192z" />
    <glyph glyph-name="Oslash" unicode="&#xd8;" horiz-adv-x="809" 
d="M750 730h133l-100 -95q42 -59 24 -155l-51 -288q-19 -104 -71 -148t-155 -44h-318q-46 0 -80 12l-44 -42h-133l100 95q-42 59 -24 155l51 288q19 104 71 148t155 44h318q46 0 80 -12zM279 462l-40 -220v-1l297 284h-184q-36 0 -51.5 -13.5t-21.5 -49.5zM559 238l40 220v1
l-297 -284h184q36 0 51.5 13.5t21.5 49.5z" />
    <glyph glyph-name="Ugrave" unicode="&#xd9;" horiz-adv-x="786" 
d="M547 736h-146l-100 128h197zM503 0h-296q-103 0 -148 54t-26 158l86 488h216l-80 -450q-6 -36 6.5 -51.5t48.5 -15.5h139q36 0 52 13.5t22 49.5l80 454h216l-90 -508q-19 -104 -71 -148t-155 -44z" />
    <glyph glyph-name="Uacute" unicode="&#xda;" horiz-adv-x="786" 
d="M704 864l-143 -128h-168l93 128h218zM503 0h-296q-103 0 -148 54t-26 158l86 488h216l-80 -450q-6 -36 6.5 -51.5t48.5 -15.5h139q36 0 52 13.5t22 49.5l80 454h216l-90 -508q-19 -104 -71 -148t-155 -44z" />
    <glyph glyph-name="Ucircumflex" unicode="&#xdb;" horiz-adv-x="786" 
d="M406 736h-150l144 128h194l100 -128h-136l-67 52zM503 0h-296q-103 0 -148 54t-26 158l86 488h216l-80 -450q-6 -36 6.5 -51.5t48.5 -15.5h139q36 0 52 13.5t22 49.5l80 454h216l-90 -508q-19 -104 -71 -148t-155 -44z" />
    <glyph glyph-name="Udieresis" unicode="&#xdc;" horiz-adv-x="786" 
d="M444 740h-152l20 116h152zM660 740h-152l20 116h152zM503 0h-296q-103 0 -148 54t-26 158l86 488h216l-80 -450q-6 -36 6.5 -51.5t48.5 -15.5h139q36 0 52 13.5t22 49.5l80 454h216l-90 -508q-19 -104 -71 -148t-155 -44z" />
    <glyph glyph-name="Yacute" unicode="&#xdd;" horiz-adv-x="760" 
d="M465 864h218l-143 -128h-168zM594 700h250l-358 -444l-46 -256h-216l46 255l-202 445h238l100 -255z" />
    <glyph glyph-name="Thorn" unicode="&#xde;" 
d="M324 610h273q190 0 157 -192l-23 -136q-17 -97 -61 -134q-47 -38 -142 -38h-293l-19 -110h-216l124 700h216zM521 322l12 66q6 30 -5 42.5t-42 12.5h-192l-30 -174h197q30 0 42.5 11t17.5 42z" />
    <glyph glyph-name="germandbls" unicode="&#xdf;" horiz-adv-x="697" 
d="M273 700h278q81 0 116 -42.5t21 -124.5l-8 -51q-10 -56 -31.5 -85.5t-59.5 -39.5q81 -29 63 -142l-10 -66q-14 -81 -54.5 -115t-122.5 -34h-185l27 152h88q24 0 34.5 9t15.5 34l10 53q4 25 -4.5 35t-33.5 10h-85l23 129h68q24 0 34.5 9t15.5 34l7 38q4 25 -4 35t-34 10
h-99q-25 0 -36 -9t-15 -34l-89 -505h-204l97 551q14 83 53.5 116t123.5 33z" />
    <glyph glyph-name="agrave" unicode="&#xe0;" horiz-adv-x="681" 
d="M422 700l49 -128h-146l-100 128h197zM260 536h236q190 0 156 -190l-61 -346h-170l-5 54q-44 -33 -81 -44q-34 -10 -105 -10h-104q-63 0 -93.5 36.5t-17.5 98.5l10 56q12 63 46 92t96 29h276l6 33q5 31 -5 43t-41 12h-80q-25 0 -35.5 -9t-14.5 -34l-2 -14h-196l7 43
q13 81 54.5 115.5t123.5 34.5zM256 123h64q39 0 69 21l28 20l5 28l4 22h-158q-22 0 -30.5 -7.5t-12.5 -29.5l-3 -15q-3 -22 4 -30.5t30 -8.5z" />
    <glyph glyph-name="aacute" unicode="&#xe1;" horiz-adv-x="681" 
d="M410 700h218l-143 -128h-168zM260 536h236q190 0 156 -190l-61 -346h-170l-5 54q-44 -33 -81 -44q-34 -10 -105 -10h-104q-63 0 -93.5 36.5t-17.5 98.5l10 56q12 63 46 92t96 29h276l6 33q5 31 -5 43t-41 12h-80q-25 0 -35.5 -9t-14.5 -34l-2 -14h-196l7 43
q13 81 54.5 115.5t123.5 34.5zM256 123h64q39 0 69 21l28 20l5 28l4 22h-158q-22 0 -30.5 -7.5t-12.5 -29.5l-3 -15q-3 -22 4 -30.5t30 -8.5z" />
    <glyph glyph-name="acircumflex" unicode="&#xe2;" horiz-adv-x="681" 
d="M482 572l-67 52l-85 -52h-150l144 128h194l100 -128h-136zM260 536h236q190 0 156 -190l-61 -346h-170l-5 54q-44 -33 -81 -44q-34 -10 -105 -10h-104q-63 0 -93.5 36.5t-17.5 98.5l10 56q12 63 46 92t96 29h276l6 33q5 31 -5 43t-41 12h-80q-25 0 -35.5 -9t-14.5 -34
l-2 -14h-196l7 43q13 81 54.5 115.5t123.5 34.5zM256 123h64q39 0 69 21l28 20l5 28l4 22h-158q-22 0 -30.5 -7.5t-12.5 -29.5l-3 -15q-3 -22 4 -30.5t30 -8.5z" />
    <glyph glyph-name="atilde" unicode="&#xe3;" horiz-adv-x="681" 
d="M314 625l-9 -53h-110l13 80q10 48 58 48h131q23 0 34.5 -5.5t21.5 -21.5l19 -28q4 -6 14 -6h12q7 0 9 8l9 53h111l-14 -80q-9 -48 -57 -48h-132q-24 0 -34.5 5t-21.5 22l-19 28q-5 6 -13 6h-12q-8 0 -10 -8zM260 536h236q190 0 156 -190l-61 -346h-170l-5 54
q-44 -33 -81 -44q-34 -10 -105 -10h-104q-63 0 -93.5 36.5t-17.5 98.5l10 56q12 63 46 92t96 29h276l6 33q5 31 -5 43t-41 12h-80q-25 0 -35.5 -9t-14.5 -34l-2 -14h-196l7 43q13 81 54.5 115.5t123.5 34.5zM256 123h64q39 0 69 21l28 20l5 28l4 22h-158q-22 0 -30.5 -7.5
t-12.5 -29.5l-3 -15q-3 -22 4 -30.5t30 -8.5z" />
    <glyph glyph-name="adieresis" unicode="&#xe4;" horiz-adv-x="681" 
d="M236 692h152l-20 -116h-152zM452 692h152l-20 -116h-152zM260 536h236q190 0 156 -190l-61 -346h-170l-5 54q-44 -33 -81 -44q-34 -10 -105 -10h-104q-63 0 -93.5 36.5t-17.5 98.5l10 56q12 63 46 92t96 29h276l6 33q5 31 -5 43t-41 12h-80q-25 0 -35.5 -9t-14.5 -34
l-2 -14h-196l7 43q13 81 54.5 115.5t123.5 34.5zM256 123h64q39 0 69 21l28 20l5 28l4 22h-158q-22 0 -30.5 -7.5t-12.5 -29.5l-3 -15q-3 -22 4 -30.5t30 -8.5z" />
    <glyph glyph-name="aring" unicode="&#xe5;" horiz-adv-x="681" 
d="M491 562h-183q-58 0 -47 57l4 28q5 29 19 41t44 12h183q57 0 48 -57l-5 -28q-5 -29 -19 -41t-44 -12zM335 637l-2 -12q-2 -11 0.5 -14.5t13.5 -3.5h117q11 0 14.5 3t5.5 15l3 12q2 11 -1 14.5t-13 3.5h-118q-11 0 -14.5 -3t-5.5 -15zM260 536h236q190 0 156 -190
l-61 -346h-170l-5 54q-44 -33 -81 -44q-34 -10 -105 -10h-104q-63 0 -93.5 36.5t-17.5 98.5l10 56q12 63 46 92t96 29h276l6 33q5 31 -5 43t-41 12h-80q-25 0 -35.5 -9t-14.5 -34l-2 -14h-196l7 43q13 81 54.5 115.5t123.5 34.5zM256 123h64q39 0 69 21l28 20l5 28l4 22
h-158q-22 0 -30.5 -7.5t-12.5 -29.5l-3 -15q-3 -22 4 -30.5t30 -8.5z" />
    <glyph glyph-name="ae" unicode="&#xe6;" horiz-adv-x="1073" 
d="M697 536h196q189 0 155 -190l-19 -107h-396l-6 -33q-5 -31 5 -43t41 -12h104q24 0 34.5 9t15.5 34l2 11h195l-10 -55q-15 -82 -55.5 -116t-121.5 -34h-235q-98 0 -136 50q-45 -32 -78 -41q-34 -9 -102 -9h-160q-62 0 -92.5 36.5t-18.5 98.5l11 56q12 63 46 92t95 29h276
l6 33q5 31 -5 43t-41 12h-80q-25 0 -35.5 -9.5t-14.5 -33.5l-2 -14h-196l7 43q13 81 54.5 115.5t123.5 34.5h196q81 0 113 -44q38 44 128 44zM654 355l-3 -14h202l2 12q5 31 -5 42.5t-41 11.5h-94q-31 0 -43.5 -10.5t-17.5 -41.5zM389 144l28 20l9 50h-158q-22 0 -30.5 -7.5
t-12.5 -29.5l-3 -15q-3 -22 4 -30.5t30 -8.5h64q39 0 69 21z" />
    <glyph glyph-name="ccedilla" unicode="&#xe7;" horiz-adv-x="658" 
d="M258 536h217q189 0 158 -192l-6 -39h-195l2 15q4 31 -6 43t-41 12h-75q-31 0 -43.5 -10.5t-17.5 -41.5l-19 -107q-5 -31 5.5 -43t41.5 -12h75q31 0 43.5 10.5t17.5 41.5l4 23h195l-11 -64q-16 -96 -62 -134t-141 -38h-99l-11 -22h63q57 0 47 -57l-5 -28q-5 -30 -19 -41.5
t-43 -11.5h-180l11 60h131q8 0 11 8l1 8q3 9 -8 9h-98l5 28l23 47h-46q-191 0 -158 192l30 172q17 98 62 134q46 38 141 38z" />
    <glyph glyph-name="egrave" unicode="&#xe8;" horiz-adv-x="676" 
d="M415 700l49 -128h-146l-100 128h197zM260 536h236q95 0 133 -46.5t22 -142.5l-18 -108h-396l-6 -33q-5 -31 4.5 -43t40.5 -12h104q24 0 34.5 9t15.5 34l2 11h195l-10 -54q-15 -83 -55 -117t-121 -34h-260q-189 0 -156 190l30 172q16 96 62.5 135t142.5 39zM257 355
l-2 -14h201l2 12q5 31 -4.5 42.5t-40.5 11.5h-95q-30 0 -43 -11t-18 -41z" />
    <glyph glyph-name="eacute" unicode="&#xe9;" horiz-adv-x="676" 
d="M403 700h218l-143 -128h-168zM260 536h236q95 0 133 -46.5t22 -142.5l-18 -108h-396l-6 -33q-5 -31 4.5 -43t40.5 -12h104q24 0 34.5 9t15.5 34l2 11h195l-10 -54q-15 -83 -55 -117t-121 -34h-260q-189 0 -156 190l30 172q16 96 62.5 135t142.5 39zM257 355l-2 -14h201
l2 12q5 31 -4.5 42.5t-40.5 11.5h-95q-30 0 -43 -11t-18 -41z" />
    <glyph glyph-name="ecircumflex" unicode="&#xea;" horiz-adv-x="676" 
d="M475 572l-67 52l-85 -52h-150l144 128h194l100 -128h-136zM260 536h236q95 0 133 -46.5t22 -142.5l-18 -108h-396l-6 -33q-5 -31 4.5 -43t40.5 -12h104q24 0 34.5 9t15.5 34l2 11h195l-10 -54q-15 -83 -55 -117t-121 -34h-260q-189 0 -156 190l30 172q16 96 62.5 135
t142.5 39zM257 355l-2 -14h201l2 12q5 31 -4.5 42.5t-40.5 11.5h-95q-30 0 -43 -11t-18 -41z" />
    <glyph glyph-name="edieresis" unicode="&#xeb;" horiz-adv-x="676" 
d="M229 692h152l-20 -116h-152zM445 692h152l-20 -116h-152zM260 536h236q95 0 133 -46.5t22 -142.5l-18 -108h-396l-6 -33q-5 -31 4.5 -43t40.5 -12h104q24 0 34.5 9t15.5 34l2 11h195l-10 -54q-15 -83 -55 -117t-121 -34h-260q-189 0 -156 190l30 172q16 96 62.5 135
t142.5 39zM257 355l-2 -14h201l2 12q5 31 -4.5 42.5t-40.5 11.5h-95q-30 0 -43 -11t-18 -41z" />
    <glyph glyph-name="igrave" unicode="&#xec;" horiz-adv-x="307" 
d="M279 572h-146l-100 128h197zM209 0h-206l95 536h206z" />
    <glyph glyph-name="iacute" unicode="&#xed;" horiz-adv-x="307" 
d="M436 700l-143 -128h-168l93 128h218zM209 0h-206l95 536h206z" />
    <glyph glyph-name="icircumflex" unicode="&#xee;" horiz-adv-x="307" 
d="M138 572h-150l144 128h194l100 -128h-136l-67 52zM209 0h-206l95 536h206z" />
    <glyph glyph-name="idieresis" unicode="&#xef;" horiz-adv-x="307" 
d="M176 576h-152l20 116h152zM392 576h-152l20 116h152zM209 0h-206l95 536h206z" />
    <glyph glyph-name="eth" unicode="&#xf0;" horiz-adv-x="686" 
d="M479 700h33q103 0 148 -54.5t27 -158.5l-60 -338q-14 -82 -53.5 -115.5t-120.5 -33.5h-294q-81 0 -117 43t-22 124l23 128q14 82 54 115.5t121 33.5h144q83 0 108 -37l13 77q7 36 -6 51t-49 15h-49l-36 -54h-109l36 54h-102l26 150h177l40 60h108zM266 148h116
q24 0 34.5 9t15.5 34l13 75q2 21 -6.5 29t-32.5 8h-115q-25 0 -36 -9t-15 -34l-11 -67q-4 -25 4 -35t33 -10z" />
    <glyph glyph-name="ntilde" unicode="&#xf1;" horiz-adv-x="689" 
d="M313 625l-9 -53h-110l13 80q11 48 58 48h131q23 0 34.5 -5.5t21.5 -21.5l19 -28q5 -6 14 -6h12q7 0 9 8l9 53h111l-14 -80q-9 -48 -57 -48h-132q-24 0 -34.5 5t-21.5 22l-19 28q-4 6 -13 6h-12q-8 0 -10 -8zM465 536h37q192 0 157 -192l-60 -344h-203l55 315
q6 31 -4.5 43t-41.5 12h-38q-53 0 -81 -22l-25 -19l-59 -329h-203l95 536h169l6 -60q52 39 87 49q39 11 109 11z" />
    <glyph glyph-name="ograve" unicode="&#xf2;" horiz-adv-x="686" 
d="M469 572h-146l-100 128h197zM428 0h-245q-191 0 -158 192l30 172q17 98 62 134q46 38 141 38h245q191 0 158 -192l-30 -172q-17 -97 -61 -134q-47 -38 -142 -38zM279 161h95q31 0 43.5 10.5t17.5 41.5l19 107q5 31 -5.5 43t-41.5 12h-95q-31 0 -43.5 -10.5t-17.5 -41.5
l-19 -107q-5 -31 5.5 -43t41.5 -12z" />
    <glyph glyph-name="oacute" unicode="&#xf3;" horiz-adv-x="686" 
d="M626 700l-143 -128h-168l93 128h218zM428 0h-245q-191 0 -158 192l30 172q17 98 62 134q46 38 141 38h245q191 0 158 -192l-30 -172q-17 -97 -61 -134q-47 -38 -142 -38zM279 161h95q31 0 43.5 10.5t17.5 41.5l19 107q5 31 -5.5 43t-41.5 12h-95q-31 0 -43.5 -10.5
t-17.5 -41.5l-19 -107q-5 -31 5.5 -43t41.5 -12z" />
    <glyph glyph-name="ocircumflex" unicode="&#xf4;" horiz-adv-x="686" 
d="M328 572h-150l144 128h194l100 -128h-136l-67 52zM428 0h-245q-191 0 -158 192l30 172q17 98 62 134q46 38 141 38h245q191 0 158 -192l-30 -172q-17 -97 -61 -134q-47 -38 -142 -38zM279 161h95q31 0 43.5 10.5t17.5 41.5l19 107q5 31 -5.5 43t-41.5 12h-95
q-31 0 -43.5 -10.5t-17.5 -41.5l-19 -107q-5 -31 5.5 -43t41.5 -12z" />
    <glyph glyph-name="otilde" unicode="&#xf5;" horiz-adv-x="686" 
d="M303 572h-110l13 80q10 48 58 48h131q23 0 34.5 -5.5t21.5 -21.5l19 -28q4 -6 14 -6h12q7 0 9 8l9 53h111l-14 -80q-9 -48 -57 -48h-132q-24 0 -34.5 5t-21.5 22l-19 28q-5 6 -13 6h-12q-8 0 -10 -8zM428 0h-245q-191 0 -158 192l30 172q17 98 62 134q46 38 141 38h245
q191 0 158 -192l-30 -172q-17 -97 -61 -134q-47 -38 -142 -38zM279 161h95q31 0 43.5 10.5t17.5 41.5l19 107q5 31 -5.5 43t-41.5 12h-95q-31 0 -43.5 -10.5t-17.5 -41.5l-19 -107q-5 -31 5.5 -43t41.5 -12z" />
    <glyph glyph-name="odieresis" unicode="&#xf6;" horiz-adv-x="686" 
d="M366 576h-152l20 116h152zM582 576h-152l20 116h152zM428 0h-245q-191 0 -158 192l30 172q17 98 62 134q46 38 141 38h245q191 0 158 -192l-30 -172q-17 -97 -61 -134q-47 -38 -142 -38zM279 161h95q31 0 43.5 10.5t17.5 41.5l19 107q5 31 -5.5 43t-41.5 12h-95
q-31 0 -43.5 -10.5t-17.5 -41.5l-19 -107q-5 -31 5.5 -43t41.5 -12z" />
    <glyph glyph-name="divide" unicode="&#xf7;" 
d="M538 520h-236l30 164h236zM55 263l30 174h640l-30 -174h-640zM449 16h-236l30 164h236z" />
    <glyph glyph-name="oslash" unicode="&#xf8;" horiz-adv-x="686" 
d="M608 568h123l-91 -83q38 -48 21 -141l-30 -172q-17 -97 -61 -134q-47 -38 -142 -38h-245q-39 0 -63 7l-42 -39h-123l91 83q-38 48 -21 141l30 172q17 98 62 134q46 38 141 38h245q39 0 63 -7zM230 339l-25 -139v-3l210 194h-125q-31 0 -43 -10.5t-17 -41.5zM456 197
l25 139v3l-210 -194h125q31 0 43 10.5t17 41.5z" />
    <glyph glyph-name="ugrave" unicode="&#xf9;" horiz-adv-x="689" 
d="M421 700l49 -128h-146l-100 128h197zM487 536h203l-95 -536h-169l-6 60q-52 -39 -87 -49q-39 -11 -109 -11h-37q-191 0 -157 192l60 344h203l-55 -315q-6 -31 4.5 -43t41.5 -12h38q53 0 81 22l25 19z" />
    <glyph glyph-name="uacute" unicode="&#xfa;" horiz-adv-x="689" 
d="M409 700h218l-143 -128h-168zM487 536h203l-95 -536h-169l-6 60q-52 -39 -87 -49q-39 -11 -109 -11h-37q-191 0 -157 192l60 344h203l-55 -315q-6 -31 4.5 -43t41.5 -12h38q53 0 81 22l25 19z" />
    <glyph glyph-name="ucircumflex" unicode="&#xfb;" horiz-adv-x="689" 
d="M481 572l-67 52l-85 -52h-150l144 128h194l100 -128h-136zM487 536h203l-95 -536h-169l-6 60q-52 -39 -87 -49q-39 -11 -109 -11h-37q-191 0 -157 192l60 344h203l-55 -315q-6 -31 4.5 -43t41.5 -12h38q53 0 81 22l25 19z" />
    <glyph glyph-name="udieresis" unicode="&#xfc;" horiz-adv-x="689" 
d="M235 692h152l-20 -116h-152zM451 692h152l-20 -116h-152zM487 536h203l-95 -536h-169l-6 60q-52 -39 -87 -49q-39 -11 -109 -11h-37q-191 0 -157 192l60 344h203l-55 -315q-6 -31 4.5 -43t41.5 -12h38q53 0 81 22l25 19z" />
    <glyph glyph-name="yacute" unicode="&#xfd;" horiz-adv-x="678" 
d="M392 700h218l-143 -128h-168zM323 221l174 315h227l-345 -544q-63 -99 -112 -126q-50 -26 -160 -26h-125l29 161h114q49 0 68 19l-143 516h212z" />
    <glyph glyph-name="thorn" unicode="&#xfe;" horiz-adv-x="694" 
d="M463 536h51q95 0 133.5 -46.5t22.5 -143.5l-31 -172q-16 -96 -62 -135t-142 -39h-59q-67 0 -100 9q-33 7 -66 37l-36 -206h-203l152 860h203l-37 -209q39 28 75 37q37 8 99 8zM443 213l19 107q5 31 -5 43t-41 12h-49q-49 0 -80 -22l-26 -20l-23 -131l19 -19
q22 -22 75 -22h51q31 0 43 10.5t17 41.5z" />
    <glyph glyph-name="ydieresis" unicode="&#xff;" horiz-adv-x="678" 
d="M218 692h152l-20 -116h-152zM434 692h152l-20 -116h-152zM323 221l174 315h227l-345 -544q-63 -99 -112 -126q-50 -26 -160 -26h-125l29 161h114q49 0 68 19l-143 516h212z" />
    <glyph glyph-name="Amacron" unicode="&#x100;" horiz-adv-x="832" 
d="M307 848h424l-17 -95h-424zM784 0h-227l-20 109h-286l-58 -109h-241l418 700h245zM464 505l-133 -247h178z" />
    <glyph glyph-name="amacron" unicode="&#x101;" horiz-adv-x="681" 
d="M207 684h424l-17 -95h-424zM260 536h236q190 0 156 -190l-61 -346h-170l-5 54q-44 -33 -81 -44q-34 -10 -105 -10h-104q-63 0 -93.5 36.5t-17.5 98.5l10 56q12 63 46 92t96 29h276l6 33q5 31 -5 43t-41 12h-80q-25 0 -35.5 -9t-14.5 -34l-2 -14h-196l7 43
q13 81 54.5 115.5t123.5 34.5zM256 123h64q39 0 69 21l28 20l5 28l4 22h-158q-22 0 -30.5 -7.5t-12.5 -29.5l-3 -15q-3 -22 4 -30.5t30 -8.5z" />
    <glyph glyph-name="Abreve" unicode="&#x102;" horiz-adv-x="832" 
d="M631 736h-260q-78 0 -64 77l9 51h134l-4 -24q-4 -25 22 -25h92q24 0 28 25l4 24h134l-9 -55q-6 -39 -26.5 -56t-59.5 -17zM784 0h-227l-20 109h-286l-58 -109h-241l418 700h245zM464 505l-133 -247h178z" />
    <glyph glyph-name="abreve" unicode="&#x103;" horiz-adv-x="681" 
d="M531 572h-260q-78 0 -64 77l9 51h134l-4 -24q-4 -25 22 -25h92q24 0 28 25l4 24h134l-9 -55q-6 -39 -26.5 -56t-59.5 -17zM260 536h236q190 0 156 -190l-61 -346h-170l-5 54q-44 -33 -81 -44q-34 -10 -105 -10h-104q-63 0 -93.5 36.5t-17.5 98.5l10 56q12 63 46 92t96 29
h276l6 33q5 31 -5 43t-41 12h-80q-25 0 -35.5 -9t-14.5 -34l-2 -14h-196l7 43q13 81 54.5 115.5t123.5 34.5zM256 123h64q39 0 69 21l28 20l5 28l4 22h-158q-22 0 -30.5 -7.5t-12.5 -29.5l-3 -15q-3 -22 4 -30.5t30 -8.5z" />
    <glyph glyph-name="Aogonek" unicode="&#x104;" horiz-adv-x="832" 
d="M592 -28l-1 -7q-1 -19 16 -19h136l-19 -106h-187q-43 0 -59.5 20.5t-11.5 65.5l2 16q4 31 17 50t45 42l19 12l-12 63h-286l-58 -109h-241l418 700h245l169 -700h-168l-7 -5q-16 -10 -17 -23zM464 505l-133 -247h178z" />
    <glyph glyph-name="aogonek" unicode="&#x105;" horiz-adv-x="680" 
d="M490 -28v-7q-1 -19 15 -19h89l-19 -106h-140q-42 0 -59 21t-12 65l2 16q4 29 15 47t37 37l-2 28q-44 -33 -81 -44q-34 -10 -105 -10h-104q-63 0 -93.5 36.5t-17.5 98.5l10 56q12 63 46 92t96 29h276l6 33q5 31 -5 43t-41 12h-80q-25 0 -35.5 -9t-14.5 -34l-2 -14h-196
l7 43q13 81 54.5 115.5t123.5 34.5h236q190 0 156 -190l-61 -346h-77l-7 -5q-15 -10 -17 -23zM256 123h64q39 0 69 21l28 20l5 28l4 22h-158q-22 0 -30.5 -7.5t-12.5 -29.5l-3 -15q-3 -22 4 -30.5t30 -8.5z" />
    <glyph glyph-name="Cacute" unicode="&#x106;" horiz-adv-x="779" 
d="M701 864l-143 -128h-168l93 128h218zM502 0h-298q-103 0 -148 54t-26 158l52 296q19 104 71 148t155 44h298q103 0 148 -54t26 -158l-13 -79h-209l9 45q6 35 -6.5 50.5t-48.5 15.5h-149q-36 0 -51.5 -13.5t-22.5 -48.5l-38 -212q-6 -35 6.5 -50.5t48.5 -15.5h149
q36 0 51.5 13.5t22.5 48.5l9 56h208l-18 -106q-19 -104 -71 -148t-155 -44z" />
    <glyph glyph-name="cacute" unicode="&#x107;" horiz-adv-x="658" 
d="M612 700l-143 -128h-168l93 128h218zM400 0h-217q-191 0 -158 192l30 172q17 98 62 134q46 38 141 38h217q189 0 158 -192l-6 -39h-195l2 15q4 31 -6 43t-41 12h-75q-31 0 -43.5 -10.5t-17.5 -41.5l-19 -107q-5 -31 5.5 -43t41.5 -12h75q31 0 43.5 10.5t17.5 41.5l4 23
h195l-11 -64q-16 -96 -62 -134t-141 -38z" />
    <glyph glyph-name="Ccircumflex" unicode="&#x108;" horiz-adv-x="779" 
d="M403 736h-150l144 128h194l100 -128h-136l-67 52zM502 0h-298q-103 0 -148 54t-26 158l52 296q19 104 71 148t155 44h298q103 0 148 -54t26 -158l-13 -79h-209l9 45q6 35 -6.5 50.5t-48.5 15.5h-149q-36 0 -51.5 -13.5t-22.5 -48.5l-38 -212q-6 -35 6.5 -50.5t48.5 -15.5
h149q36 0 51.5 13.5t22.5 48.5l9 56h208l-18 -106q-19 -104 -71 -148t-155 -44z" />
    <glyph glyph-name="ccircumflex" unicode="&#x109;" horiz-adv-x="658" 
d="M314 572h-150l144 128h194l100 -128h-136l-67 52zM400 0h-217q-191 0 -158 192l30 172q17 98 62 134q46 38 141 38h217q189 0 158 -192l-6 -39h-195l2 15q4 31 -6 43t-41 12h-75q-31 0 -43.5 -10.5t-17.5 -41.5l-19 -107q-5 -31 5.5 -43t41.5 -12h75q31 0 43.5 10.5
t17.5 41.5l4 23h195l-11 -64q-16 -96 -62 -134t-141 -38z" />
    <glyph glyph-name="Cdotaccent" unicode="&#x10a;" horiz-adv-x="779" 
d="M577 740h-207l20 116h206zM502 0h-298q-103 0 -148 54t-26 158l52 296q19 104 71 148t155 44h298q103 0 148 -54t26 -158l-13 -79h-209l9 45q6 35 -6.5 50.5t-48.5 15.5h-149q-36 0 -51.5 -13.5t-22.5 -48.5l-38 -212q-6 -35 6.5 -50.5t48.5 -15.5h149q36 0 51.5 13.5
t22.5 48.5l9 56h208l-18 -106q-19 -104 -71 -148t-155 -44z" />
    <glyph glyph-name="cdotaccent" unicode="&#x10b;" horiz-adv-x="658" 
d="M488 576h-207l20 116h206zM400 0h-217q-191 0 -158 192l30 172q17 98 62 134q46 38 141 38h217q189 0 158 -192l-6 -39h-195l2 15q4 31 -6 43t-41 12h-75q-31 0 -43.5 -10.5t-17.5 -41.5l-19 -107q-5 -31 5.5 -43t41.5 -12h75q31 0 43.5 10.5t17.5 41.5l4 23h195l-11 -64
q-16 -96 -62 -134t-141 -38z" />
    <glyph glyph-name="Ccaron" unicode="&#x10c;" horiz-adv-x="779" 
d="M563 864h150l-144 -128h-194l-100 128h136l67 -52zM502 0h-298q-103 0 -148 54t-26 158l52 296q19 104 71 148t155 44h298q103 0 148 -54t26 -158l-13 -79h-209l9 45q6 35 -6.5 50.5t-48.5 15.5h-149q-36 0 -51.5 -13.5t-22.5 -48.5l-38 -212q-6 -35 6.5 -50.5
t48.5 -15.5h149q36 0 51.5 13.5t22.5 48.5l9 56h208l-18 -106q-19 -104 -71 -148t-155 -44z" />
    <glyph glyph-name="ccaron" unicode="&#x10d;" horiz-adv-x="658" 
d="M474 700h150l-144 -128h-194l-100 128h136l67 -52zM400 0h-217q-191 0 -158 192l30 172q17 98 62 134q46 38 141 38h217q189 0 158 -192l-6 -39h-195l2 15q4 31 -6 43t-41 12h-75q-31 0 -43.5 -10.5t-17.5 -41.5l-19 -107q-5 -31 5.5 -43t41.5 -12h75q31 0 43.5 10.5
t17.5 41.5l4 23h195l-11 -64q-16 -96 -62 -134t-141 -38z" />
    <glyph glyph-name="Dcaron" unicode="&#x10e;" horiz-adv-x="808" 
d="M577 864h150l-144 -128h-194l-100 128h136l67 -52zM484 0h-484l124 700h456q120 0 180 -71q60 -72 38 -193l-36 -200q-22 -123 -89 -179.5t-189 -56.5zM308 517l-59 -334h212q41 0 62 18t28 59l30 173q15 84 -69 84h-204z" />
    <glyph glyph-name="dcaron" unicode="&#x10f;" horiz-adv-x="882" 
d="M484 490l37 210h203l-124 -700h-169l-5 60q-48 -38 -86 -49t-108 -11h-52q-95 0 -133 46.5t-22 143.5l30 172q16 96 62.5 135t142.5 39h59q64 0 101 -8q31 -9 64 -38zM743 568l23 132h188l-11 -64q-8 -38 -16 -57q-9 -20 -36 -56l-53 -75h-112l74 120h-57zM278 161h49
q49 0 80 22l26 20l24 131l-20 19q-22 22 -75 22h-51q-30 0 -42.5 -10.5t-17.5 -41.5l-19 -107q-5 -31 5 -43t41 -12z" />
    <glyph glyph-name="Dcroat" unicode="&#x110;" horiz-adv-x="868" 
d="M184 700h456q120 0 180 -71q60 -72 38 -193l-36 -200q-22 -123 -89 -179.5t-189 -56.5h-484l51 288h-84l22 124h84zM611 260l30 173q15 84 -69 84h-204l-19 -105h162l-22 -124h-161l-19 -105h212q41 0 62 18t28 59z" />
    <glyph glyph-name="dslash" unicode="&#x111;" horiz-adv-x="736" 
d="M716 656h74l-16 -88h-73l-101 -568h-169l-5 60q-48 -38 -86 -49t-108 -11h-52q-95 0 -133 46.5t-22 143.5l30 172q16 96 62.5 135t142.5 39h59q64 0 101 -8q31 -9 64 -38l14 78h-148l16 88h147l8 44h203zM278 161h49q49 0 80 22l26 20l24 131l-20 19q-22 22 -75 22h-51
q-30 0 -42.5 -10.5t-17.5 -41.5l-19 -107q-5 -31 5 -43t41 -12z" />
    <glyph glyph-name="Emacron" unicode="&#x112;" horiz-adv-x="686" 
d="M234 848h424l-17 -95h-424zM728 700l-30 -171h-388l-18 -98h348l-26 -148h-348l-20 -112h399l-31 -171h-614l124 700h604z" />
    <glyph glyph-name="emacron" unicode="&#x113;" horiz-adv-x="676" 
d="M200 684h424l-17 -95h-424zM260 536h236q95 0 133 -46.5t22 -142.5l-18 -108h-396l-6 -33q-5 -31 4.5 -43t40.5 -12h104q24 0 34.5 9t15.5 34l2 11h195l-10 -54q-15 -83 -55 -117t-121 -34h-260q-189 0 -156 190l30 172q16 96 62.5 135t142.5 39zM257 355l-2 -14h201
l2 12q5 31 -4.5 42.5t-40.5 11.5h-95q-30 0 -43 -11t-18 -41z" />
    <glyph glyph-name="Ebreve" unicode="&#x114;" horiz-adv-x="686" 
d="M558 736h-260q-78 0 -64 77l9 51h134l-4 -24q-4 -25 22 -25h92q24 0 28 25l4 24h134l-9 -55q-6 -39 -26.5 -56t-59.5 -17zM728 700l-30 -171h-388l-18 -98h348l-26 -148h-348l-20 -112h399l-31 -171h-614l124 700h604z" />
    <glyph glyph-name="ebreve" unicode="&#x115;" horiz-adv-x="676" 
d="M524 572h-260q-78 0 -64 77l9 51h134l-4 -24q-4 -25 22 -25h92q24 0 28 25l4 24h134l-9 -55q-6 -39 -26.5 -56t-59.5 -17zM260 536h236q95 0 133 -46.5t22 -142.5l-18 -108h-396l-6 -33q-5 -31 4.5 -43t40.5 -12h104q24 0 34.5 9t15.5 34l2 11h195l-10 -54
q-15 -83 -55 -117t-121 -34h-260q-189 0 -156 190l30 172q16 96 62.5 135t142.5 39zM257 355l-2 -14h201l2 12q5 31 -4.5 42.5t-40.5 11.5h-95q-30 0 -43 -11t-18 -41z" />
    <glyph glyph-name="Edotaccent" unicode="&#x116;" horiz-adv-x="686" 
d="M344 856h206l-19 -116h-207zM728 700l-30 -171h-388l-18 -98h348l-26 -148h-348l-20 -112h399l-31 -171h-614l124 700h604z" />
    <glyph glyph-name="edotaccent" unicode="&#x117;" horiz-adv-x="676" 
d="M310 692h206l-19 -116h-207zM260 536h236q95 0 133 -46.5t22 -142.5l-18 -108h-396l-6 -33q-5 -31 4.5 -43t40.5 -12h104q24 0 34.5 9t15.5 34l2 11h195l-10 -54q-15 -83 -55 -117t-121 -34h-260q-189 0 -156 190l30 172q16 96 62.5 135t142.5 39zM257 355l-2 -14h201
l2 12q5 31 -4.5 42.5t-40.5 11.5h-95q-30 0 -43 -11t-18 -41z" />
    <glyph glyph-name="Eogonek" unicode="&#x118;" horiz-adv-x="686" 
d="M728 700l-30 -171h-388l-18 -98h348l-26 -148h-348l-20 -112h399l-31 -171h-144l-7 -5q-16 -10 -17 -23l-1 -7q-1 -19 16 -19h136l-19 -106h-187q-43 0 -59.5 20.5t-11.5 65.5l2 16q5 36 22 58h-344l124 700h604z" />
    <glyph glyph-name="eogonek" unicode="&#x119;" horiz-adv-x="676" 
d="M260 536h236q95 0 133 -46.5t22 -142.5l-18 -108h-396l-6 -33q-5 -31 4.5 -43t40.5 -12h104q24 0 34.5 9t15.5 34l2 11h195l-10 -54q-15 -83 -55 -117t-121 -34h-52l-7 -5q-16 -10 -17 -23l-1 -7q-1 -19 16 -19h136l-19 -106h-187q-43 0 -59.5 20.5t-11.5 65.5l2 16
q5 36 22 58h-82q-189 0 -156 190l30 172q16 96 62.5 135t142.5 39zM257 355l-2 -14h201l2 12q5 31 -4.5 42.5t-40.5 11.5h-95q-30 0 -43 -11t-18 -41z" />
    <glyph glyph-name="Ecaron" unicode="&#x11a;" horiz-adv-x="686" 
d="M667 864l-144 -128h-194l-100 128h136l67 -52l85 52h150zM728 700l-30 -171h-388l-18 -98h348l-26 -148h-348l-20 -112h399l-31 -171h-614l124 700h604z" />
    <glyph glyph-name="ecaron" unicode="&#x11b;" horiz-adv-x="676" 
d="M633 700l-144 -128h-194l-100 128h136l67 -52l85 52h150zM260 536h236q95 0 133 -46.5t22 -142.5l-18 -108h-396l-6 -33q-5 -31 4.5 -43t40.5 -12h104q24 0 34.5 9t15.5 34l2 11h195l-10 -54q-15 -83 -55 -117t-121 -34h-260q-189 0 -156 190l30 172q16 96 62.5 135
t142.5 39zM257 355l-2 -14h201l2 12q5 31 -4.5 42.5t-40.5 11.5h-95q-30 0 -43 -11t-18 -41z" />
    <glyph glyph-name="Gcircumflex" unicode="&#x11c;" horiz-adv-x="809" 
d="M418 736h-150l144 128h194l100 -128h-136l-67 52zM530 0h-326q-102 0 -147.5 55t-26.5 157l53 296q19 104 70.5 148t154.5 44h326q103 0 148 -54t27 -158l-8 -46h-217l3 18q6 36 -6.5 51t-48.5 15h-169q-36 0 -51.5 -13t-21.5 -49l-41 -235q-7 -36 6 -51.5t48 -15.5h178
q35 0 50.5 13.5t22.5 49.5l5 28h-156l24 141h364l-35 -202q-18 -104 -70.5 -148t-155.5 -44z" />
    <glyph glyph-name="gcircumflex" unicode="&#x11d;" horiz-adv-x="695" 
d="M484 572l-67 52l-85 -52h-150l144 128h194l100 -128h-136zM500 475l27 61h169l-89 -502q-19 -104 -72 -149t-156 -45h-397l27 148h321q36 0 53 14t24 50l7 42q-42 -30 -74 -38q-34 -9 -99 -9h-52q-189 0 -155 190l21 125q16 97 63 136q47 38 142 38h59q71 0 109 -11
q34 -10 72 -50zM413 217l26 19l12 67l7 41l-19 19q-22 22 -75 22h-50q-31 0 -43.5 -10.5t-17.5 -41.5l-15 -84q-5 -31 5 -43t41 -12h49q48 0 80 23z" />
    <glyph glyph-name="Gbreve" unicode="&#x11e;" horiz-adv-x="809" 
d="M619 736h-260q-78 0 -64 77l9 51h134l-4 -24q-4 -25 22 -25h92q24 0 28 25l4 24h134l-9 -55q-6 -39 -26.5 -56t-59.5 -17zM530 0h-326q-102 0 -147.5 55t-26.5 157l53 296q19 104 70.5 148t154.5 44h326q103 0 148 -54t27 -158l-8 -46h-217l3 18q6 36 -6.5 51t-48.5 15
h-169q-36 0 -51.5 -13t-21.5 -49l-41 -235q-7 -36 6 -51.5t48 -15.5h178q35 0 50.5 13.5t22.5 49.5l5 28h-156l24 141h364l-35 -202q-18 -104 -70.5 -148t-155.5 -44z" />
    <glyph glyph-name="gbreve" unicode="&#x11f;" horiz-adv-x="695" 
d="M533 572h-260q-78 0 -64 77l9 51h134l-4 -24q-4 -25 22 -25h92q24 0 28 25l4 24h134l-9 -55q-6 -39 -26.5 -56t-59.5 -17zM500 475l27 61h169l-89 -502q-19 -104 -72 -149t-156 -45h-397l27 148h321q36 0 53 14t24 50l7 42q-42 -30 -74 -38q-34 -9 -99 -9h-52
q-189 0 -155 190l21 125q16 97 63 136q47 38 142 38h59q71 0 109 -11q34 -10 72 -50zM413 217l26 19l12 67l7 41l-19 19q-22 22 -75 22h-50q-31 0 -43.5 -10.5t-17.5 -41.5l-15 -84q-5 -31 5 -43t41 -12h49q48 0 80 23z" />
    <glyph glyph-name="Gdotaccent" unicode="&#x120;" horiz-adv-x="809" 
d="M592 740h-207l20 116h206zM530 0h-326q-102 0 -147.5 55t-26.5 157l53 296q19 104 70.5 148t154.5 44h326q103 0 148 -54t27 -158l-8 -46h-217l3 18q6 36 -6.5 51t-48.5 15h-169q-36 0 -51.5 -13t-21.5 -49l-41 -235q-7 -36 6 -51.5t48 -15.5h178q35 0 50.5 13.5
t22.5 49.5l5 28h-156l24 141h364l-35 -202q-18 -104 -70.5 -148t-155.5 -44z" />
    <glyph glyph-name="gdotaccent" unicode="&#x121;" horiz-adv-x="695" 
d="M319 692h206l-19 -116h-207zM500 475l27 61h169l-89 -502q-19 -104 -72 -149t-156 -45h-397l27 148h321q36 0 53 14t24 50l7 42q-42 -30 -74 -38q-34 -9 -99 -9h-52q-189 0 -155 190l21 125q16 97 63 136q47 38 142 38h59q71 0 109 -11q34 -10 72 -50zM413 217l26 19
l12 67l7 41l-19 19q-22 22 -75 22h-50q-31 0 -43.5 -10.5t-17.5 -41.5l-15 -84q-5 -31 5 -43t41 -12h49q48 0 80 23z" />
    <glyph glyph-name="Gcommaaccent" unicode="&#x122;" horiz-adv-x="809" 
d="M530 0h-326q-102 0 -147.5 55t-26.5 157l53 296q19 104 70.5 148t154.5 44h326q103 0 148 -54t27 -158l-8 -46h-217l3 18q6 36 -6.5 51t-48.5 15h-169q-36 0 -51.5 -13t-21.5 -49l-41 -235q-7 -36 6 -51.5t48 -15.5h178q35 0 50.5 13.5t22.5 49.5l5 28h-156l24 141h364
l-35 -202q-18 -104 -70.5 -148t-155.5 -44zM346 -232h-112l69 94h-58l19 108h188l-6 -36q-6 -36 -15 -56q-8 -15 -38 -52z" />
    <glyph glyph-name="gcommaaccent" unicode="&#x123;" horiz-adv-x="695" 
d="M459 680h58l-19 -108h-188l6 36q8 40 16 56q6 15 37 52l47 58h112zM500 475l27 61h169l-89 -502q-19 -104 -72 -149t-156 -45h-397l27 148h321q36 0 53 14t24 50l7 42q-42 -30 -74 -38q-34 -9 -99 -9h-52q-189 0 -155 190l21 125q16 97 63 136q47 38 142 38h59
q71 0 109 -11q34 -10 72 -50zM413 217l26 19l12 67l7 41l-19 19q-22 22 -75 22h-50q-31 0 -43.5 -10.5t-17.5 -41.5l-15 -84q-5 -31 5 -43t41 -12h49q48 0 80 23z" />
    <glyph glyph-name="Hcircumflex" unicode="&#x124;" horiz-adv-x="796" 
d="M563 736l-67 52l-85 -52h-150l144 128h194l100 -128h-136zM562 458l43 242h216l-124 -700h-216l47 266h-268l-47 -266h-216l124 700h216l-43 -242h268z" />
    <glyph glyph-name="hcircumflex" unicode="&#x125;" horiz-adv-x="689" 
d="M313 736l-67 52l-85 -52h-150l144 128h194l100 -128h-136zM470 536h32q192 0 157 -192l-60 -344h-203l55 315q6 31 -4.5 43t-41.5 12h-39q-49 0 -80 -22l-26 -19l-58 -329h-203l124 700h203l-38 -215q43 33 79 42q35 9 103 9z" />
    <glyph glyph-name="Hbar" unicode="&#x126;" horiz-adv-x="916" 
d="M869 633h87l-18 -111h-89l-92 -522h-216l47 266h-268l-47 -266h-216l92 522h-79l18 111h81l12 67h216l-12 -67h268l12 67h216zM354 458h268l11 64h-268z" />
    <glyph glyph-name="hbar" unicode="&#x127;" horiz-adv-x="730" 
d="M514 536h32q191 0 157 -192l-60 -344h-203l55 315q6 31 -4.5 43t-41.5 12h-39q-49 0 -80 -22l-26 -19l-58 -329h-203l101 568h-77l16 88h76l8 44h203l-8 -44h145l-16 -88h-144l-15 -83q43 33 79 42q34 9 103 9z" />
    <glyph glyph-name="Itilde" unicode="&#x128;" horiz-adv-x="324" 
d="M150 736h-110l13 80q10 48 58 48h131q23 0 34.5 -5.5t21.5 -21.5l19 -28q4 -6 14 -6h12q7 0 9 8l9 53h111l-14 -80q-9 -48 -57 -48h-132q-24 0 -34.5 5t-21.5 22l-19 28q-5 6 -13 6h-12q-8 0 -10 -8zM5 0l124 700h219l-124 -700h-219z" />
    <glyph glyph-name="itilde" unicode="&#x129;" horiz-adv-x="307" 
d="M113 572h-110l13 80q10 48 58 48h131q23 0 34.5 -5.5t21.5 -21.5l19 -28q4 -6 14 -6h12q7 0 9 8l9 53h111l-14 -80q-9 -48 -57 -48h-132q-24 0 -34.5 5t-21.5 22l-19 28q-5 6 -13 6h-12q-8 0 -10 -8zM209 0h-206l95 536h206z" />
    <glyph glyph-name="Imacron" unicode="&#x12a;" horiz-adv-x="324" 
d="M459 753h-424l17 95h424zM5 0l124 700h219l-124 -700h-219z" />
    <glyph glyph-name="imacron" unicode="&#x12b;" horiz-adv-x="307" 
d="M422 589h-424l17 95h424zM209 0h-206l95 536h206z" />
    <glyph glyph-name="Ibreve" unicode="&#x12c;" horiz-adv-x="324" 
d="M376 736h-260q-78 0 -64 77l9 51h134l-4 -24q-4 -25 22 -25h92q24 0 28 25l4 24h134l-9 -55q-6 -39 -26.5 -56t-59.5 -17zM5 0l124 700h219l-124 -700h-219z" />
    <glyph glyph-name="ibreve" unicode="&#x12d;" horiz-adv-x="307" 
d="M339 572h-260q-78 0 -64 77l9 51h134l-4 -24q-4 -25 22 -25h92q24 0 28 25l4 24h134l-9 -55q-6 -39 -26.5 -56t-59.5 -17zM209 0h-206l95 536h206z" />
    <glyph glyph-name="Iogonek" unicode="&#x12e;" horiz-adv-x="324" 
d="M75 -28l-1 -7q-1 -19 16 -19h136l-19 -106h-187q-43 0 -59.5 20.5t-11.5 65.5l2 16q4 31 16.5 49.5t43.5 40.5l118 668h219l-124 -700h-125l-7 -5q-16 -10 -17 -23z" />
    <glyph glyph-name="iogonek" unicode="&#x12f;" horiz-adv-x="307" 
d="M105 576l20 116h206l-19 -116h-207zM60 -28l-1 -7q-1 -19 16 -19h136l-19 -106h-187q-43 0 -59.5 20.5t-11.5 65.5l2 16q4 31 17 50t45 42l12 8l88 494h206l-95 -536h-125l-7 -5q-16 -10 -17 -23z" />
    <glyph glyph-name="Idot" unicode="&#x130;" horiz-adv-x="324" 
d="M356 740h-220l20 116h219zM5 0l124 700h219l-124 -700h-219z" />
    <glyph glyph-name="dotlessi" unicode="&#x131;" horiz-adv-x="307" 
d="M209 0h-206l95 536h206z" />
    <glyph glyph-name="IJ" unicode="&#x132;" horiz-adv-x="1043" 
d="M5 0l124 700h219l-124 -700h-219zM760 0h-248q-103 0 -148 54t-26 158l15 84h208l-9 -50q-7 -35 6 -50.5t49 -15.5h99q36 0 51.5 13.5t21.5 48.5l81 458h216l-90 -508q-19 -104 -71 -148t-155 -44z" />
    <glyph glyph-name="ij" unicode="&#x133;" horiz-adv-x="614" 
d="M311 576h-206l22 124h206zM618 576h-206l22 124h206zM209 0h-206l95 536h206zM338 -160h-128l27 153h30q25 0 35.5 9t14.5 34l88 500h207l-97 -546q-15 -82 -55 -116t-122 -34z" />
    <glyph glyph-name="Jcircumflex" unicode="&#x134;" horiz-adv-x="719" 
d="M581 736h-150l144 128h194l100 -128h-136l-67 52zM436 0h-248q-103 0 -148 54t-26 158l15 84h208l-9 -50q-7 -35 6 -50.5t49 -15.5h99q36 0 51.5 13.5t21.5 48.5l81 458h216l-90 -508q-19 -104 -71 -148t-155 -44z" />
    <glyph glyph-name="jcircumflex" unicode="&#x135;" horiz-adv-x="307" 
d="M138 572h-150l144 128h194l100 -128h-136l-67 52zM31 -160h-127l27 153h29q25 0 35.5 9t14.5 34l88 500h206l-96 -546q-15 -82 -55.5 -116t-121.5 -34z" />
    <glyph glyph-name="Kcommaaccent" unicode="&#x136;" horiz-adv-x="793" 
d="M578 700h282l-354 -342l234 -358h-263l-204 341l-60 -341h-216l124 700h216l-56 -314zM290 -138h-58l19 108h188l-6 -36q-6 -36 -15 -56q-8 -15 -38 -52l-47 -58h-112z" />
    <glyph glyph-name="kcommaaccent" unicode="&#x137;" horiz-adv-x="693" 
d="M474 536h265l-280 -270l192 -266h-248l-157 249l-44 -249h-204l124 700h204l-72 -407zM240 -138h-58l19 108h188l-6 -36q-6 -36 -15 -56q-8 -15 -38 -52l-47 -58h-112z" />
    <glyph glyph-name="Lacute" unicode="&#x139;" horiz-adv-x="624" 
d="M249 864h218l-143 -128h-168zM340 700l-90 -509h349l-35 -191h-564l124 700h216z" />
    <glyph glyph-name="lacute" unicode="&#x13a;" horiz-adv-x="307" 
d="M465 864l-143 -128h-168l93 128h218zM209 0h-206l124 700h206z" />
    <glyph glyph-name="Lcommaaccent" unicode="&#x13b;" horiz-adv-x="624" 
d="M340 700l-90 -509h349l-35 -191h-564l124 700h216zM205 -138h-58l19 108h188l-6 -36q-6 -36 -15 -56q-8 -15 -38 -52l-47 -58h-112z" />
    <glyph glyph-name="lcommaaccent" unicode="&#x13c;" horiz-adv-x="307" 
d="M209 0h-206l124 700h206zM90 -232h-112l69 94h-58l19 108h188l-6 -36q-6 -36 -15 -56q-8 -15 -38 -52z" />
    <glyph glyph-name="Lcaron" unicode="&#x13d;" horiz-adv-x="624" 
d="M124 700h216l-90 -509h349l-35 -191h-564zM423 568l23 132h188l-11 -64q-8 -38 -16 -57q-11 -23 -35 -56l-54 -75h-112l74 120h-57z" />
    <glyph glyph-name="lcaron" unicode="&#x13e;" horiz-adv-x="493" 
d="M209 0h-206l124 700h206zM441 448h-112l74 120h-58l24 132h188l-12 -64q-6 -36 -15 -57q-9 -20 -36 -56z" />
    <glyph glyph-name="Ldot" unicode="&#x13f;" horiz-adv-x="624" 
d="M124 700h216l-90 -509h349l-35 -191h-564zM381 534h236l-39 -220h-236z" />
    <glyph glyph-name="ldot" unicode="&#x140;" horiz-adv-x="555" 
d="M209 0h-206l124 700h206zM543 270h-236l39 220h236z" />
    <glyph glyph-name="Lslash" unicode="&#x141;" horiz-adv-x="684" 
d="M335 335l-25 -144h349l-35 -191h-564l53 301l-86 -13l22 124l86 13l49 275h216l-43 -241l220 33l-22 -124z" />
    <glyph glyph-name="lslash" unicode="&#x142;" horiz-adv-x="386" 
d="M327 439l78 13l-22 -124l-78 -13l-56 -315h-206l50 281l-79 -13l22 124l79 13l52 295h206z" />
    <glyph glyph-name="Nacute" unicode="&#x143;" horiz-adv-x="816" 
d="M485 864h218l-143 -128h-168zM567 304l69 396h208l-124 -700h-174l-266 406l-72 -406h-208l124 700h183z" />
    <glyph glyph-name="nacute" unicode="&#x144;" horiz-adv-x="689" 
d="M409 700h218l-143 -128h-168zM465 536h37q192 0 157 -192l-60 -344h-203l55 315q6 31 -4.5 43t-41.5 12h-38q-53 0 -81 -22l-25 -19l-59 -329h-203l95 536h169l6 -60q52 39 87 49q39 11 109 11z" />
    <glyph glyph-name="Ncommaaccent" unicode="&#x145;" horiz-adv-x="816" 
d="M567 304l69 396h208l-124 -700h-174l-266 406l-72 -406h-208l124 700h183zM317 -138h-58l19 108h188l-6 -36q-6 -36 -15 -56q-8 -15 -38 -52l-47 -58h-112z" />
    <glyph glyph-name="ncommaaccent" unicode="&#x146;" horiz-adv-x="689" 
d="M465 536h37q192 0 157 -192l-60 -344h-203l55 315q6 31 -4.5 43t-41.5 12h-38q-53 0 -81 -22l-25 -19l-59 -329h-203l95 536h169l6 -60q52 39 87 49q39 11 109 11zM238 -138h-58l19 108h188l-6 -36q-6 -36 -15 -56q-8 -15 -38 -52l-47 -58h-112z" />
    <glyph glyph-name="Ncaron" unicode="&#x147;" horiz-adv-x="816" 
d="M715 864l-144 -128h-194l-100 128h136l67 -52l85 52h150zM567 304l69 396h208l-124 -700h-174l-266 406l-72 -406h-208l124 700h183z" />
    <glyph glyph-name="ncaron" unicode="&#x148;" horiz-adv-x="689" 
d="M639 700l-144 -128h-194l-100 128h136l67 -52l85 52h150zM465 536h37q192 0 157 -192l-60 -344h-203l55 315q6 31 -4.5 43t-41.5 12h-38q-53 0 -81 -22l-25 -19l-59 -329h-203l95 536h169l6 -60q52 39 87 49q39 11 109 11z" />
    <glyph glyph-name="Eng" unicode="&#x14a;" horiz-adv-x="816" 
d="M566 305l70 395h208l-119 -676q-17 -99 -67.5 -141.5t-149.5 -42.5h-156l27 151h80q32 0 43.5 9.5t16.5 40.5l-239 365l-72 -406h-208l124 700h183z" />
    <glyph glyph-name="eng" unicode="&#x14b;" horiz-adv-x="689" 
d="M465 536h37q192 0 157 -192l-62 -354q-14 -82 -54.5 -116t-121.5 -34h-125l27 153h29q26 0 36 9t14 34l49 279q6 31 -4.5 43t-41.5 12h-38q-53 0 -81 -22l-25 -19l-59 -329h-203l95 536h169l6 -60q52 39 87 49q39 11 109 11z" />
    <glyph glyph-name="Omacron" unicode="&#x14c;" horiz-adv-x="809" 
d="M702 753h-424l17 95h424zM530 0h-326q-103 0 -148 54t-26 158l52 296q19 104 71 148t155 44h326q103 0 148 -54t26 -158l-52 -296q-19 -104 -71 -148t-155 -44zM307 183h169q36 0 51.5 13.5t21.5 49.5l37 204q6 36 -6.5 51.5t-48.5 15.5h-169q-36 0 -51.5 -13.5
t-21.5 -49.5l-37 -204q-6 -36 6.5 -51.5t48.5 -15.5z" />
    <glyph glyph-name="omacron" unicode="&#x14d;" horiz-adv-x="686" 
d="M612 589h-424l17 95h424zM428 0h-245q-191 0 -158 192l30 172q17 98 62 134q46 38 141 38h245q191 0 158 -192l-30 -172q-17 -97 -61 -134q-47 -38 -142 -38zM279 161h95q31 0 43.5 10.5t17.5 41.5l19 107q5 31 -5.5 43t-41.5 12h-95q-31 0 -43.5 -10.5t-17.5 -41.5
l-19 -107q-5 -31 5.5 -43t41.5 -12z" />
    <glyph glyph-name="Obreve" unicode="&#x14e;" horiz-adv-x="809" 
d="M619 736h-260q-78 0 -64 77l9 51h134l-4 -24q-4 -25 22 -25h92q24 0 28 25l4 24h134l-9 -55q-6 -39 -26.5 -56t-59.5 -17zM530 0h-326q-103 0 -148 54t-26 158l52 296q19 104 71 148t155 44h326q103 0 148 -54t26 -158l-52 -296q-19 -104 -71 -148t-155 -44zM307 183h169
q36 0 51.5 13.5t21.5 49.5l37 204q6 36 -6.5 51.5t-48.5 15.5h-169q-36 0 -51.5 -13.5t-21.5 -49.5l-37 -204q-6 -36 6.5 -51.5t48.5 -15.5z" />
    <glyph glyph-name="obreve" unicode="&#x14f;" horiz-adv-x="686" 
d="M529 572h-260q-78 0 -64 77l9 51h134l-4 -24q-4 -25 22 -25h92q24 0 28 25l4 24h134l-9 -55q-6 -39 -26.5 -56t-59.5 -17zM428 0h-245q-191 0 -158 192l30 172q17 98 62 134q46 38 141 38h245q191 0 158 -192l-30 -172q-17 -97 -61 -134q-47 -38 -142 -38zM279 161h95
q31 0 43.5 10.5t17.5 41.5l19 107q5 31 -5.5 43t-41.5 12h-95q-31 0 -43.5 -10.5t-17.5 -41.5l-19 -107q-5 -31 5.5 -43t41.5 -12z" />
    <glyph glyph-name="Ohungarumlaut" unicode="&#x150;" horiz-adv-x="809" 
d="M571 864l-125 -128h-167l83 128h209zM819 864l-126 -128h-167l83 128h210zM530 0h-326q-103 0 -148 54t-26 158l52 296q19 104 71 148t155 44h326q103 0 148 -54t26 -158l-52 -296q-19 -104 -71 -148t-155 -44zM307 183h169q36 0 51.5 13.5t21.5 49.5l37 204
q6 36 -6.5 51.5t-48.5 15.5h-169q-36 0 -51.5 -13.5t-21.5 -49.5l-37 -204q-6 -36 6.5 -51.5t48.5 -15.5z" />
    <glyph glyph-name="ohungarumlaut" unicode="&#x151;" horiz-adv-x="686" 
d="M481 700l-125 -128h-167l83 128h209zM729 700l-126 -128h-167l83 128h210zM428 0h-245q-191 0 -158 192l30 172q17 98 62 134q46 38 141 38h245q191 0 158 -192l-30 -172q-17 -97 -61 -134q-47 -38 -142 -38zM279 161h95q31 0 43.5 10.5t17.5 41.5l19 107q5 31 -5.5 43
t-41.5 12h-95q-31 0 -43.5 -10.5t-17.5 -41.5l-19 -107q-5 -31 5.5 -43t41.5 -12z" />
    <glyph glyph-name="OE" unicode="&#x152;" horiz-adv-x="1182" 
d="M1224 700l-31 -171h-387l-18 -98h348l-25 -148h-349l-20 -112h399l-31 -171h-906q-102 0 -147.5 55t-26.5 157l53 296q19 104 70.5 148t154.5 44h916zM307 183h222l59 334h-226q-36 0 -51.5 -13t-21.5 -49l-37 -205q-6 -36 6.5 -51.5t48.5 -15.5z" />
    <glyph glyph-name="oe" unicode="&#x153;" horiz-adv-x="1083" 
d="M707 536h196q189 0 155 -190l-19 -107h-396l-6 -33q-5 -31 5 -43t41 -12h104q24 0 34.5 9t15.5 34l2 11h195l-10 -55q-15 -82 -55.5 -116t-121.5 -34h-220q-87 0 -117 48q-42 -48 -130 -48h-202q-95 0 -132.5 45t-21.5 142l30 172q17 96 65 136.5t144 40.5h202
q85 0 115 -43q37 43 127 43zM664 355l-3 -14h202l2 12q5 31 -5 42.5t-41 11.5h-94q-31 0 -43.5 -10.5t-17.5 -41.5zM435 215l19 107q5 31 -4 42t-40 11h-97q-31 0 -44 -11t-18 -42l-19 -107q-5 -31 4 -42.5t40 -11.5h97q31 0 44 11.5t18 42.5z" />
    <glyph glyph-name="Racute" unicode="&#x154;" horiz-adv-x="774" 
d="M470 864h218l-143 -128h-168zM124 700h488q191 0 158 -192l-16 -95q-15 -86 -52 -124.5t-110 -45.5l113 -243h-219l-100 225h-129l-41 -225h-216zM504 541h-192l-28 -162h196q31 0 43.5 11t17.5 42l10 54q5 31 -5.5 43t-41.5 12z" />
    <glyph glyph-name="racute" unicode="&#x155;" horiz-adv-x="462" 
d="M304 700h218l-143 -128h-168zM239 536l7 -71q56 45 96 59q38 12 113 12h43l-35 -190h-101q-52 0 -80 -22l-26 -19l-54 -305h-203l95 536h145z" />
    <glyph glyph-name="Rcommaaccent" unicode="&#x156;" horiz-adv-x="774" 
d="M124 700h488q191 0 158 -192l-16 -95q-15 -86 -52 -124.5t-110 -45.5l113 -243h-219l-100 225h-129l-41 -225h-216zM504 541h-192l-28 -162h196q31 0 43.5 11t17.5 42l10 54q5 31 -5.5 43t-41.5 12zM290 -138h-58l19 108h188l-6 -36q-6 -36 -15 -56q-8 -15 -38 -52
l-47 -58h-112z" />
    <glyph glyph-name="rcommaaccent" unicode="&#x157;" horiz-adv-x="462" 
d="M455 536h43l-35 -190h-101q-52 0 -80 -22l-26 -19l-54 -305h-203l95 536h145l7 -71q56 45 96 59q38 12 113 12zM41 -138h-58l19 108h188l-6 -36q-6 -36 -15 -56q-8 -15 -38 -52l-47 -58h-112z" />
    <glyph glyph-name="Rcaron" unicode="&#x158;" horiz-adv-x="774" 
d="M700 864l-144 -128h-194l-100 128h136l67 -52l85 52h150zM124 700h488q191 0 158 -192l-16 -95q-15 -86 -52 -124.5t-110 -45.5l113 -243h-219l-100 225h-129l-41 -225h-216zM504 541h-192l-28 -162h196q31 0 43.5 11t17.5 42l10 54q5 31 -5.5 43t-41.5 12z" />
    <glyph glyph-name="rcaron" unicode="&#x159;" horiz-adv-x="462" 
d="M534 700l-144 -128h-194l-100 128h136l67 -52l85 52h150zM239 536l7 -71q56 45 96 59q38 12 113 12h43l-35 -190h-101q-52 0 -80 -22l-26 -19l-54 -305h-203l95 536h145z" />
    <glyph glyph-name="Sacute" unicode="&#x15a;" horiz-adv-x="789" 
d="M706 864l-143 -128h-168l93 128h218zM22 166l10 59h208l-5 -29q-4 -24 4.5 -34t33.5 -10h198q24 0 34.5 9.5t15.5 34.5l4 26q4 25 -3 34t-30 11l-273 24q-83 8 -117 47.5t-20 118.5l17 93q14 82 54.5 116t122.5 34h370q160 0 135 -166l-7 -49h-208l3 20q3 25 -5.5 34.5
t-33.5 9.5h-174q-24 0 -34.5 -9.5t-14.5 -34.5l-2 -13q-4 -25 2.5 -33.5t29.5 -10.5l273 -25q84 -8 117.5 -47.5t19.5 -118.5l-19 -107q-14 -82 -54.5 -116t-121.5 -34h-394q-81 0 -115.5 42t-20.5 124z" />
    <glyph glyph-name="sacute" unicode="&#x15b;" horiz-adv-x="666" 
d="M639 700l-143 -128h-168l93 128h218zM14 134l8 47h195l-5 -29q-3 -16 2 -21.5t21 -5.5h138q16 0 22 5.5t9 21.5l4 21q3 14 -2.5 20t-21.5 8l-215 22q-61 5 -88.5 38t-17.5 92l11 62q21 121 142 121h313q59 0 88.5 -36t19.5 -97l-6 -41h-195l4 23q3 15 -2.5 20.5
t-21.5 5.5h-114q-16 0 -22 -5.5t-8 -20.5l-2 -10q-2 -14 2.5 -19.5t20.5 -7.5l216 -22q61 -6 89 -39.5t17 -91.5l-13 -74q-22 -121 -143 -121h-337q-59 0 -88.5 36.5t-19.5 97.5z" />
    <glyph glyph-name="Scircumflex" unicode="&#x15c;" horiz-adv-x="789" 
d="M408 736h-150l144 128h194l100 -128h-136l-67 52zM22 166l10 59h208l-5 -29q-4 -24 4.5 -34t33.5 -10h198q24 0 34.5 9.5t15.5 34.5l4 26q4 25 -3 34t-30 11l-273 24q-83 8 -117 47.5t-20 118.5l17 93q14 82 54.5 116t122.5 34h370q160 0 135 -166l-7 -49h-208l3 20
q3 25 -5.5 34.5t-33.5 9.5h-174q-24 0 -34.5 -9.5t-14.5 -34.5l-2 -13q-4 -25 2.5 -33.5t29.5 -10.5l273 -25q84 -8 117.5 -47.5t19.5 -118.5l-19 -107q-14 -82 -54.5 -116t-121.5 -34h-394q-81 0 -115.5 42t-20.5 124z" />
    <glyph glyph-name="scircumflex" unicode="&#x15d;" horiz-adv-x="666" 
d="M341 572h-150l144 128h194l100 -128h-136l-67 52zM14 134l8 47h195l-5 -29q-3 -16 2 -21.5t21 -5.5h138q16 0 22 5.5t9 21.5l4 21q3 14 -2.5 20t-21.5 8l-215 22q-61 5 -88.5 38t-17.5 92l11 62q21 121 142 121h313q59 0 88.5 -36t19.5 -97l-6 -41h-195l4 23
q3 15 -2.5 20.5t-21.5 5.5h-114q-16 0 -22 -5.5t-8 -20.5l-2 -10q-2 -14 2.5 -19.5t20.5 -7.5l216 -22q61 -6 89 -39.5t17 -91.5l-13 -74q-22 -121 -143 -121h-337q-59 0 -88.5 36.5t-19.5 97.5z" />
    <glyph glyph-name="Scedilla" unicode="&#x15e;" horiz-adv-x="789" 
d="M276 700h370q160 0 135 -166l-7 -49h-208l3 20q3 25 -5.5 34.5t-33.5 9.5h-174q-24 0 -34.5 -9.5t-14.5 -34.5l-2 -13q-4 -25 2.5 -33.5t29.5 -10.5l273 -25q84 -8 117.5 -47.5t19.5 -118.5l-19 -107q-14 -82 -54.5 -116t-121.5 -34h-185l-11 -22h63q57 0 47 -57l-5 -28
q-5 -30 -19 -41.5t-43 -11.5h-180l11 60h131q8 0 11 8l1 8q3 9 -8 9h-98l5 28l23 47h-137q-81 0 -115.5 42t-20.5 124l10 59h208l-5 -29q-4 -24 4.5 -34t33.5 -10h198q24 0 34.5 9.5t15.5 34.5l4 26q4 25 -3 34t-30 11l-273 24q-83 8 -117 47.5t-20 118.5l17 93
q14 82 54.5 116t122.5 34z" />
    <glyph glyph-name="scedilla" unicode="&#x15f;" horiz-adv-x="666" 
d="M216 536h313q59 0 88.5 -36t19.5 -97l-6 -41h-195l4 23q3 15 -2.5 20.5t-21.5 5.5h-114q-16 0 -22 -5.5t-8 -20.5l-2 -10q-2 -14 2.5 -19.5t20.5 -7.5l216 -22q61 -6 89 -39.5t17 -91.5l-13 -74q-22 -121 -143 -121h-177l-11 -22h63q57 0 47 -57l-5 -28q-5 -30 -19 -41.5
t-43 -11.5h-180l11 60h131q8 0 11 8l1 8q3 9 -8 9h-98l5 28l23 47h-88q-59 0 -88.5 36.5t-19.5 97.5l8 47h195l-5 -29q-3 -16 2 -21.5t21 -5.5h138q16 0 22 5.5t9 21.5l4 21q3 14 -2.5 20t-21.5 8l-215 22q-61 5 -88.5 38t-17.5 92l11 62q21 121 142 121z" />
    <glyph glyph-name="Scaron" unicode="&#x160;" horiz-adv-x="789" 
d="M568 864h150l-144 -128h-194l-100 128h136l67 -52zM22 166l10 59h208l-5 -29q-4 -24 4.5 -34t33.5 -10h198q24 0 34.5 9.5t15.5 34.5l4 26q4 25 -3 34t-30 11l-273 24q-83 8 -117 47.5t-20 118.5l17 93q14 82 54.5 116t122.5 34h370q160 0 135 -166l-7 -49h-208l3 20
q3 25 -5.5 34.5t-33.5 9.5h-174q-24 0 -34.5 -9.5t-14.5 -34.5l-2 -13q-4 -25 2.5 -33.5t29.5 -10.5l273 -25q84 -8 117.5 -47.5t19.5 -118.5l-19 -107q-14 -82 -54.5 -116t-121.5 -34h-394q-81 0 -115.5 42t-20.5 124z" />
    <glyph glyph-name="scaron" unicode="&#x161;" horiz-adv-x="666" 
d="M501 700h150l-144 -128h-194l-100 128h136l67 -52zM14 134l8 47h195l-5 -29q-3 -16 2 -21.5t21 -5.5h138q16 0 22 5.5t9 21.5l4 21q3 14 -2.5 20t-21.5 8l-215 22q-61 5 -88.5 38t-17.5 92l11 62q21 121 142 121h313q59 0 88.5 -36t19.5 -97l-6 -41h-195l4 23
q3 15 -2.5 20.5t-21.5 5.5h-114q-16 0 -22 -5.5t-8 -20.5l-2 -10q-2 -14 2.5 -19.5t20.5 -7.5l216 -22q61 -6 89 -39.5t17 -91.5l-13 -74q-22 -121 -143 -121h-337q-59 0 -88.5 36.5t-19.5 97.5z" />
    <glyph glyph-name="uni0162" unicode="&#x162;" horiz-adv-x="692" 
d="M496 509l-90 -509h-88l-11 -22h63q58 0 47 -57l-5 -28q-5 -30 -19 -41.5t-43 -11.5h-180l11 60h131q8 0 11 8l1 8q3 9 -8 9h-98l5 28l23 47h-56l90 509h-226l34 191h668l-34 -191h-226z" />
    <glyph glyph-name="uni0163" unicode="&#x163;" horiz-adv-x="514" 
d="M511 378h-180l-31 -172q-4 -25 4.5 -35t34.5 -10h134l-29 -161h-177l-11 -22h63q58 0 47 -57l-5 -28q-5 -30 -19 -41.5t-43 -11.5h-180l11 60h131q8 0 11 8l1 8q3 9 -8 9h-98l5 28l24 48q-133 15 -106 163l38 214h-96l28 158h96l61 120h163l-21 -120h180z" />
    <glyph glyph-name="Tcaron" unicode="&#x164;" horiz-adv-x="692" 
d="M669 864l-144 -128h-194l-100 128h136l67 -52l85 52h150zM88 700h668l-34 -191h-226l-90 -509h-216l90 509h-226z" />
    <glyph glyph-name="tcaron" unicode="&#x165;" horiz-adv-x="556" 
d="M435 664l18 108h188l-6 -36q-6 -37 -15 -55q-7 -16 -38 -53l-47 -58h-111l68 94h-57zM217 656h163l-21 -120h180l-28 -158h-180l-31 -172q-4 -25 4.5 -35t34.5 -10h134l-29 -161h-219q-165 0 -135 164l38 214h-96l28 158h96z" />
    <glyph glyph-name="Tbar" unicode="&#x166;" horiz-adv-x="696" 
d="M756 700l-34 -191h-226l-26 -145h147l-22 -124h-147l-42 -240h-216l42 240h-141l22 124h141l26 145h-226l34 191h668z" />
    <glyph glyph-name="tbar" unicode="&#x167;" horiz-adv-x="514" 
d="M538 536l-26 -151h-180l-11 -60h180l-19 -107h-179l-4 -21q-4 -25 3 -33.5t32 -8.5h137l-27 -155h-219q-165 0 -135 164l9 54h-96l19 107h96l11 60h-96l26 151h96l62 120h162l-21 -120h180z" />
    <glyph glyph-name="Utilde" unicode="&#x168;" horiz-adv-x="786" 
d="M381 736h-110l13 80q10 48 58 48h131q23 0 34.5 -5.5t21.5 -21.5l19 -28q4 -6 14 -6h12q7 0 9 8l9 53h111l-14 -80q-9 -48 -57 -48h-132q-24 0 -34.5 5t-21.5 22l-19 28q-5 6 -13 6h-12q-8 0 -10 -8zM503 0h-296q-103 0 -148 54t-26 158l86 488h216l-80 -450
q-6 -36 6.5 -51.5t48.5 -15.5h139q36 0 52 13.5t22 49.5l80 454h216l-90 -508q-19 -104 -71 -148t-155 -44z" />
    <glyph glyph-name="utilde" unicode="&#x169;" horiz-adv-x="689" 
d="M313 625l-9 -53h-110l13 80q11 48 58 48h131q23 0 34.5 -5.5t21.5 -21.5l19 -28q5 -6 14 -6h12q7 0 9 8l9 53h111l-14 -80q-9 -48 -57 -48h-132q-24 0 -34.5 5t-21.5 22l-19 28q-4 6 -13 6h-12q-8 0 -10 -8zM487 536h203l-95 -536h-169l-6 60q-52 -39 -87 -49
q-39 -11 -109 -11h-37q-191 0 -157 192l60 344h203l-55 -315q-6 -31 4.5 -43t41.5 -12h38q53 0 81 22l25 19z" />
    <glyph glyph-name="Umacron" unicode="&#x16a;" horiz-adv-x="786" 
d="M690 753h-424l17 95h424zM503 0h-296q-103 0 -148 54t-26 158l86 488h216l-80 -450q-6 -36 6.5 -51.5t48.5 -15.5h139q36 0 52 13.5t22 49.5l80 454h216l-90 -508q-19 -104 -71 -148t-155 -44z" />
    <glyph glyph-name="umacron" unicode="&#x16b;" horiz-adv-x="689" 
d="M206 684h424l-17 -95h-424zM487 536h203l-95 -536h-169l-6 60q-52 -39 -87 -49q-39 -11 -109 -11h-37q-191 0 -157 192l60 344h203l-55 -315q-6 -31 4.5 -43t41.5 -12h38q53 0 81 22l25 19z" />
    <glyph glyph-name="Ubreve" unicode="&#x16c;" horiz-adv-x="786" 
d="M607 736h-260q-78 0 -64 77l9 51h134l-4 -24q-4 -25 22 -25h92q24 0 28 25l4 24h134l-9 -55q-6 -39 -26.5 -56t-59.5 -17zM503 0h-296q-103 0 -148 54t-26 158l86 488h216l-80 -450q-6 -36 6.5 -51.5t48.5 -15.5h139q36 0 52 13.5t22 49.5l80 454h216l-90 -508
q-19 -104 -71 -148t-155 -44z" />
    <glyph glyph-name="ubreve" unicode="&#x16d;" horiz-adv-x="689" 
d="M530 572h-260q-78 0 -64 77l9 51h134l-4 -24q-4 -25 22 -25h92q24 0 28 25l4 24h134l-9 -55q-6 -39 -26.5 -56t-59.5 -17zM487 536h203l-95 -536h-169l-6 60q-52 -39 -87 -49q-39 -11 -109 -11h-37q-191 0 -157 192l60 344h203l-55 -315q-6 -31 4.5 -43t41.5 -12h38
q53 0 81 22l25 19z" />
    <glyph glyph-name="Uring" unicode="&#x16e;" horiz-adv-x="786" 
d="M337 783l4 28q5 29 19 41t44 12h183q57 0 48 -57l-5 -28q-5 -29 -19 -41t-44 -12h-183q-58 0 -47 57zM411 801l-2 -12q-2 -11 0.5 -14.5t13.5 -3.5h117q11 0 14.5 3t5.5 15l3 12q2 11 -1 14.5t-13 3.5h-118q-11 0 -14.5 -3t-5.5 -15zM503 0h-296q-103 0 -148 54t-26 158
l86 488h216l-80 -450q-6 -36 6.5 -51.5t48.5 -15.5h139q36 0 52 13.5t22 49.5l80 454h216l-90 -508q-19 -104 -71 -148t-155 -44z" />
    <glyph glyph-name="uring" unicode="&#x16f;" horiz-adv-x="689" 
d="M490 562h-183q-57 0 -47 57l4 28q5 29 19 41t44 12h183q57 0 48 -57l-5 -28q-5 -29 -19 -41t-44 -12zM334 637l-2 -12q-2 -11 0.5 -14.5t13.5 -3.5h117q11 0 14.5 3t5.5 15l3 12q2 11 -1 14.5t-13 3.5h-118q-11 0 -14.5 -3t-5.5 -15zM487 536h203l-95 -536h-169l-6 60
q-52 -39 -87 -49q-39 -11 -109 -11h-37q-191 0 -157 192l60 344h203l-55 -315q-6 -31 4.5 -43t41.5 -12h38q53 0 81 22l25 19z" />
    <glyph glyph-name="Uhungarumlaut" unicode="&#x170;" horiz-adv-x="786" 
d="M559 864l-125 -128h-167l83 128h209zM807 864l-126 -128h-167l83 128h210zM503 0h-296q-103 0 -148 54t-26 158l86 488h216l-80 -450q-6 -36 6.5 -51.5t48.5 -15.5h139q36 0 52 13.5t22 49.5l80 454h216l-90 -508q-19 -104 -71 -148t-155 -44z" />
    <glyph glyph-name="uhungarumlaut" unicode="&#x171;" horiz-adv-x="689" 
d="M273 700h209l-125 -128h-167zM730 700l-126 -128h-167l83 128h210zM428 207l59 329h203l-95 -536h-169l-6 60q-52 -39 -87 -49q-39 -11 -109 -11h-37q-191 0 -157 192l60 344h203l-55 -315q-6 -31 4.5 -43t41.5 -12h38q53 0 81 22z" />
    <glyph glyph-name="Uogonek" unicode="&#x172;" horiz-adv-x="786" 
d="M523 246l80 454h216l-90 -508q-19 -104 -71 -148t-155 -44h-61l-7 -5q-16 -10 -17 -23l-1 -7q-1 -19 16 -19h136l-19 -106h-187q-43 0 -59.5 20.5t-11.5 65.5l2 16q5 36 22 58h-109q-103 0 -148 54t-26 158l86 488h216l-80 -450q-6 -36 6.5 -51.5t48.5 -15.5h139
q36 0 52 13.5t22 49.5z" />
    <glyph glyph-name="uogonek" unicode="&#x173;" horiz-adv-x="687" 
d="M493 -28l-1 -7q-1 -19 15 -19h89l-19 -106h-140q-42 0 -58.5 21t-11.5 65l2 16q4 29 15 47.5t39 38.5l-3 32q-52 -39 -87 -49q-39 -11 -109 -11h-37q-191 0 -157 192l60 344h203l-55 -315q-6 -31 4.5 -43t41.5 -12h38q53 0 81 22l25 19l59 329h203l-95 -536h-79l-7 -5
q-16 -10 -16 -23z" />
    <glyph glyph-name="Wcircumflex" unicode="&#x174;" horiz-adv-x="1134" 
d="M732 736l-67 52l-85 -52h-150l144 128h194l100 -128h-136zM779 298l196 402h233l-373 -700h-190l-61 383l-196 -383h-184l-126 700h227l54 -400l200 400h159z" />
    <glyph glyph-name="wcircumflex" unicode="&#x175;" horiz-adv-x="942" 
d="M599 572l-67 52l-85 -52h-150l144 128h194l100 -128h-136zM636 255l136 281h216l-295 -536h-180l-43 278l-140 -278h-176l-104 536h203l39 -280l143 280h155z" />
    <glyph glyph-name="Ycircumflex" unicode="&#x176;" horiz-adv-x="760" 
d="M537 736l-67 52l-85 -52h-150l144 128h194l100 -128h-136zM594 700h250l-358 -444l-46 -256h-216l46 255l-202 445h238l100 -255z" />
    <glyph glyph-name="ycircumflex" unicode="&#x177;" horiz-adv-x="678" 
d="M464 572l-67 52l-85 -52h-150l144 128h194l100 -128h-136zM323 221l174 315h227l-345 -544q-63 -99 -112 -126q-50 -26 -160 -26h-125l29 161h114q49 0 68 19l-143 516h212z" />
    <glyph glyph-name="Ydieresis" unicode="&#x178;" horiz-adv-x="760" 
d="M291 856h152l-20 -116h-152zM507 856h152l-20 -116h-152zM594 700h250l-358 -444l-46 -256h-216l46 255l-202 445h238l100 -255z" />
    <glyph glyph-name="Zacute" unicode="&#x179;" horiz-adv-x="756" 
d="M689 864l-143 -128h-168l93 128h218zM674 0h-688l27 149l427 368h-342l32 183h668l-26 -149l-427 -368h362z" />
    <glyph glyph-name="zacute" unicode="&#x17a;" horiz-adv-x="650" 
d="M608 700l-143 -128h-168l93 128h218zM570 0h-586l22 122l329 261h-262l27 153h566l-22 -122l-329 -261h282z" />
    <glyph glyph-name="Zdotaccent" unicode="&#x17b;" horiz-adv-x="756" 
d="M565 740h-207l20 116h206zM674 0h-688l27 149l427 368h-342l32 183h668l-26 -149l-427 -368h362z" />
    <glyph glyph-name="zdotaccent" unicode="&#x17c;" horiz-adv-x="650" 
d="M484 576h-207l20 116h206zM570 0h-586l22 122l329 261h-262l27 153h566l-22 -122l-329 -261h282z" />
    <glyph glyph-name="Zcaron" unicode="&#x17d;" horiz-adv-x="756" 
d="M551 864h150l-144 -128h-194l-100 128h136l67 -52zM674 0h-688l27 149l427 368h-342l32 183h668l-26 -149l-427 -368h362z" />
    <glyph glyph-name="zcaron" unicode="&#x17e;" horiz-adv-x="650" 
d="M470 700h150l-144 -128h-194l-100 128h136l67 -52zM570 0h-586l22 122l329 261h-262l27 153h566l-22 -122l-329 -261h282z" />
    <glyph glyph-name="florin" unicode="&#x192;" horiz-adv-x="672" 
d="M681 523h-107q-35 0 -51.5 -13.5t-27.5 -50.5l-28 -101h165l-24 -136h-179l-51 -180q-30 -108 -84 -155t-153 -47h-181l32 177h107q35 0 51.5 13.5t27.5 50.5l40 141h-170l24 136h184l39 140q30 108 83.5 155t152.5 47h181z" />
    <glyph glyph-name="Aringacute" unicode="&#x1fa;" horiz-adv-x="832" 
d="M784 0h-227l-20 109h-286l-58 -109h-241l402 674q-14 14 -8 45l5 28q5 29 19 41t43 12h22l44 64h223l-76 -69q25 -12 18 -52l-5 -28q-5 -29 -18 -41zM420 737l-2 -12q-2 -11 1 -14.5t13 -3.5h118q10 0 14 3.5t6 14.5l2 12q2 11 -0.5 14.5t-13.5 3.5h-117q-11 0 -15 -3.5
t-6 -14.5zM464 505l-133 -247h178z" />
    <glyph glyph-name="aringacute" unicode="&#x1fb;" horiz-adv-x="681" 
d="M535 534q147 -18 117 -188l-61 -346h-170l-5 54q-44 -33 -81 -44q-34 -10 -105 -10h-104q-63 0 -93.5 36.5t-17.5 98.5l10 56q12 63 46 92t96 29h276l6 33q5 31 -5 43t-41 12h-80q-25 0 -35.5 -9t-14.5 -34l-2 -14h-196l7 43q13 78 50.5 112.5t111.5 37.5q0 1 2 19l5 28
q5 29 19 41t43 12h22l44 64h223l-76 -69q25 -12 18 -52l-5 -28q-1 -8 -4 -17zM320 573l-2 -12q-2 -11 1 -14.5t13 -3.5h118q10 0 14 3.5t6 14.5l2 12q2 11 -0.5 14.5t-13.5 3.5h-117q-11 0 -15 -3.5t-6 -14.5zM256 123h64q39 0 69 21l28 20l5 28l4 22h-158q-22 0 -30.5 -7.5
t-12.5 -29.5l-3 -15q-3 -22 4 -30.5t30 -8.5z" />
    <glyph glyph-name="AEacute" unicode="&#x1fc;" horiz-adv-x="1088" 
d="M658 864h218l-143 -128h-168zM1131 700l-31 -171h-434l20 -98h357l-26 -148h-301l22 -112h309l-30 -171h-472l-16 101h-282l-54 -101h-239l418 700h759zM466 508l-139 -258h179z" />
    <glyph glyph-name="aeacute" unicode="&#x1fd;" horiz-adv-x="1073" 
d="M601 700h218l-143 -128h-168zM697 536h196q189 0 155 -190l-19 -107h-396l-6 -33q-5 -31 5 -43t41 -12h104q24 0 34.5 9t15.5 34l2 11h195l-10 -55q-15 -82 -55.5 -116t-121.5 -34h-235q-98 0 -136 50q-45 -32 -78 -41q-34 -9 -102 -9h-160q-62 0 -92.5 36.5t-18.5 98.5
l11 56q12 63 46 92t95 29h276l6 33q5 31 -5 43t-41 12h-80q-25 0 -35.5 -9.5t-14.5 -33.5l-2 -14h-196l7 43q13 81 54.5 115.5t123.5 34.5h196q81 0 113 -44q38 44 128 44zM654 355l-3 -14h202l2 12q5 31 -5 42.5t-41 11.5h-94q-31 0 -43.5 -10.5t-17.5 -41.5zM389 144
l28 20l9 50h-158q-22 0 -30.5 -7.5t-12.5 -29.5l-3 -15q-3 -22 4 -30.5t30 -8.5h64q39 0 69 21z" />
    <glyph glyph-name="Oslashacute" unicode="&#x1fe;" horiz-adv-x="809" 
d="M498 864h218l-143 -128h-168zM750 730h133l-100 -95q42 -59 24 -155l-51 -288q-19 -104 -71 -148t-155 -44h-318q-46 0 -80 12l-44 -42h-133l100 95q-42 59 -24 155l51 288q19 104 71 148t155 44h318q46 0 80 -12zM279 462l-40 -220v-1l297 284h-184q-36 0 -51.5 -13.5
t-21.5 -49.5zM559 238l40 220v1l-297 -284h184q36 0 51.5 13.5t21.5 49.5z" />
    <glyph glyph-name="oslashacute" unicode="&#x1ff;" horiz-adv-x="686" 
d="M408 700h218l-143 -128h-168zM608 568h123l-91 -83q38 -48 21 -141l-30 -172q-17 -97 -61 -134q-47 -38 -142 -38h-245q-39 0 -63 7l-42 -39h-123l91 83q-38 48 -21 141l30 172q17 98 62 134q46 38 141 38h245q39 0 63 -7zM230 339l-25 -139v-3l210 194h-125
q-31 0 -43 -10.5t-17 -41.5zM456 197l25 139v3l-210 -194h125q31 0 43 10.5t17 41.5z" />
    <glyph glyph-name="Scommaaccent" unicode="&#x218;" horiz-adv-x="789" 
d="M22 166l10 59h208l-5 -29q-4 -24 4.5 -34t33.5 -10h198q24 0 34.5 9.5t15.5 34.5l4 26q4 25 -3 34t-30 11l-273 24q-83 8 -117 47.5t-20 118.5l17 93q14 82 54.5 116t122.5 34h370q160 0 135 -166l-7 -49h-208l3 20q3 25 -5.5 34.5t-33.5 9.5h-174q-24 0 -34.5 -9.5
t-14.5 -34.5l-2 -13q-4 -25 2.5 -33.5t29.5 -10.5l273 -25q84 -8 117.5 -47.5t19.5 -118.5l-19 -107q-14 -82 -54.5 -116t-121.5 -34h-394q-81 0 -115.5 42t-20.5 124zM331 -232h-112l69 94h-58l19 108h188l-6 -36q-6 -36 -15 -56q-8 -15 -38 -52z" />
    <glyph glyph-name="scommaaccent" unicode="&#x219;" horiz-adv-x="666" 
d="M14 134l8 47h195l-5 -29q-3 -16 2 -21.5t21 -5.5h138q16 0 22 5.5t9 21.5l4 21q3 14 -2.5 20t-21.5 8l-215 22q-61 5 -88.5 38t-17.5 92l11 62q21 121 142 121h313q59 0 88.5 -36t19.5 -97l-6 -41h-195l4 23q3 15 -2.5 20.5t-21.5 5.5h-114q-16 0 -22 -5.5t-8 -20.5
l-2 -10q-2 -14 2.5 -19.5t20.5 -7.5l216 -22q61 -6 89 -39.5t17 -91.5l-13 -74q-22 -121 -143 -121h-337q-59 0 -88.5 36.5t-19.5 97.5zM246 -232h-112l69 94h-58l19 108h188l-6 -36q-6 -36 -15 -56q-8 -15 -38 -52z" />
    <glyph glyph-name="uni021A" unicode="&#x21a;" horiz-adv-x="692" 
d="M88 700h668l-34 -191h-226l-90 -509h-216l90 509h-226zM239 -138h-58l19 108h188l-6 -36q-6 -36 -15 -56q-8 -15 -38 -52l-47 -58h-112z" />
    <glyph glyph-name="uni021B" unicode="&#x21b;" horiz-adv-x="514" 
d="M511 378h-180l-31 -172q-4 -25 4.5 -35t34.5 -10h134l-29 -161h-219q-165 0 -135 164l38 214h-96l28 158h96l61 120h163l-21 -120h180zM188 -138h-58l19 108h188l-6 -36q-6 -36 -15 -56q-8 -15 -38 -52l-47 -58h-112z" />
    <glyph glyph-name="uni0237" unicode="&#x237;" horiz-adv-x="307" 
d="M31 -160h-127l27 153h29q25 0 35.5 9t14.5 34l88 500h206l-96 -546q-15 -82 -55.5 -116t-121.5 -34z" />
    <glyph glyph-name="circumflex" unicode="&#x2c6;" horiz-adv-x="534" 
d="M252 572h-150l144 128h194l100 -128h-136l-67 52z" />
    <glyph glyph-name="caron" unicode="&#x2c7;" horiz-adv-x="534" 
d="M412 700h150l-144 -128h-194l-100 128h136l67 -52z" />
    <glyph glyph-name="breve" unicode="&#x2d8;" horiz-adv-x="506" 
d="M439 572h-260q-78 0 -64 77l9 51h134l-4 -24q-4 -25 22 -25h92q24 0 28 25l4 24h134l-9 -55q-6 -39 -26.5 -56t-59.5 -17z" />
    <glyph glyph-name="dotaccent" unicode="&#x2d9;" horiz-adv-x="302" 
d="M310 576h-207l20 116h206z" />
    <glyph glyph-name="ring" unicode="&#x2da;" horiz-adv-x="382" 
d="M107 619l4 28q5 29 19 41t44 12h183q57 0 48 -57l-5 -28q-5 -29 -19 -41t-44 -12h-183q-58 0 -47 57zM181 637l-2 -12q-2 -11 0.5 -14.5t13.5 -3.5h117q11 0 14.5 3t5.5 15l3 12q2 11 -1 14.5t-13 3.5h-118q-11 0 -14.5 -3t-5.5 -15z" />
    <glyph glyph-name="ogonek" unicode="&#x2db;" horiz-adv-x="370" 
d="M157 14l-25 -19q-16 -10 -17 -23l-1 -7q-1 -19 16 -19h136l-19 -106h-187q-43 0 -59.5 20.5t-11.5 65.5l2 16q4 31 17 50t45 42l19 12z" />
    <glyph glyph-name="tilde" unicode="&#x2dc;" horiz-adv-x="506" 
d="M212 572h-110l13 80q11 48 58 48h131q23 0 34.5 -5.5t21.5 -21.5l19 -28q4 -6 14 -6h12q7 0 9 8l9 53h111l-14 -80q-9 -48 -57 -48h-132q-24 0 -34.5 5t-21.5 22l-19 28q-5 6 -13 6h-12q-8 0 -10 -8z" />
    <glyph glyph-name="hungarumlaut" unicode="&#x2dd;" horiz-adv-x="596" 
d="M386 700l-125 -128h-167l83 128h209zM634 700l-126 -128h-167l83 128h210z" />
    <glyph glyph-name="gravecomb" unicode="&#x300;" horiz-adv-x="0" 
d="M-246 572h-146l-100 128h197z" />
    <glyph glyph-name="acutecomb" unicode="&#x301;" horiz-adv-x="0" 
d="M33 700l-143 -128h-168l93 128h218z" />
    <glyph glyph-name="uni0302" unicode="&#x302;" horiz-adv-x="0" 
d="M-282 572h-150l144 128h194l100 -128h-136l-67 52z" />
    <glyph glyph-name="tildecomb" unicode="&#x303;" horiz-adv-x="0" 
d="M-294 572h-110l13 80q10 48 58 48h131q23 0 34.5 -5.5t21.5 -21.5l19 -28q5 -6 14 -6h12q7 0 9 8l9 53h111l-14 -80q-9 -48 -57 -48h-132q-24 0 -34.5 5t-21.5 22l-19 28q-4 6 -13 6h-12q-8 0 -10 -8z" />
    <glyph glyph-name="uni0304" unicode="&#x304;" horiz-adv-x="0" 
d="M9 589h-424l17 95h424z" />
    <glyph glyph-name="uni0306" unicode="&#x306;" horiz-adv-x="0" 
d="M-67 572h-260q-78 0 -64 77l9 51h134l-4 -24q-4 -25 22 -25h92q24 0 28 25l4 24h134l-9 -55q-6 -39 -26.5 -56t-59.5 -17z" />
    <glyph glyph-name="uni0307" unicode="&#x307;" horiz-adv-x="0" 
d="M8 576h-207l20 116h206z" />
    <glyph glyph-name="uni0308" unicode="&#x308;" horiz-adv-x="0" 
d="M-209 576h-152l20 116h152zM7 576h-152l20 116h152z" />
    <glyph glyph-name="uni030A" unicode="&#x30a;" horiz-adv-x="0" 
d="M-275 619l4 28q5 29 19 41t44 12h183q57 0 48 -57l-5 -28q-5 -29 -19 -41t-44 -12h-183q-58 0 -47 57zM-201 637l-2 -12q-2 -11 0.5 -14.5t13.5 -3.5h117q11 0 14.5 3t5.5 15l3 12q2 11 -1 14.5t-13 3.5h-118q-11 0 -14.5 -3t-5.5 -15z" />
    <glyph glyph-name="uni030B" unicode="&#x30b;" horiz-adv-x="0" 
d="M-210 700l-125 -128h-167l83 128h209zM38 700l-126 -128h-167l83 128h210z" />
    <glyph glyph-name="uni030C" unicode="&#x30c;" horiz-adv-x="0" 
d="M-122 700h150l-144 -128h-194l-100 128h136l67 -52z" />
    <glyph glyph-name="uni0312" unicode="&#x312;" horiz-adv-x="0" 
d="M-77 774h112l-69 -94h58l-19 -108h-188l6 36q8 38 15 56q8 15 38 52z" />
    <glyph glyph-name="uni0326" unicode="&#x326;" horiz-adv-x="0" 
d="M-206 -232h-112l69 94h-58l19 108h188l-6 -36q-6 -36 -15 -56q-8 -15 -38 -52z" />
    <glyph glyph-name="uni0327" unicode="&#x327;" horiz-adv-x="0" 
d="M-172 -160h-180l11 60h131q8 0 11 8l1 8q3 9 -8 9h-98l5 28l33 67h72l-21 -42h63q58 0 47 -57l-5 -28q-5 -30 -19 -41.5t-43 -11.5z" />
    <glyph glyph-name="uni0328" unicode="&#x328;" horiz-adv-x="0" 
d="M-213 14l-25 -19q-16 -10 -17 -23l-1 -7q-1 -19 16 -19h136l-19 -106h-187q-43 0 -59.5 20.5t-11.5 65.5l2 16q4 31 17 50t45 42l19 12z" />
    <glyph glyph-name="uni0335" unicode="&#x335;" horiz-adv-x="0" 
d="M-476 292l22 124h440l-22 -124h-440z" />
    <glyph glyph-name="uni0336" unicode="&#x336;" horiz-adv-x="0" 
d="M-908 292l22 124h872l-22 -124h-872z" />
    <glyph glyph-name="uni0337" unicode="&#x337;" horiz-adv-x="0" 
d="M-478 288l22 124l452 60l-22 -124z" />
    <glyph glyph-name="uni0338" unicode="&#x338;" horiz-adv-x="0" 
d="M-701 -30l632 600h122l-632 -600h-122z" />
    <glyph glyph-name="uni0394" unicode="&#x394;" horiz-adv-x="836" 
d="M372 700h245l169 -700h-832zM465 505l-181 -338h244z" />
    <glyph glyph-name="uni03A9" unicode="&#x3a9;" horiz-adv-x="809" 
d="M308 700h326q103 0 148 -54t26 -158l-29 -158q-23 -135 -123 -163h106l-30 -167h-332l45 257h44q36 0 52 14t22 50l22 130q6 36 -6.5 51t-48.5 15h-169q-36 0 -51.5 -13.5t-21.5 -49.5l-23 -131q-6 -36 6.5 -51t48.5 -15h39l-45 -257h-333l31 167h117q-104 33 -77 175
l30 166q19 104 71 148t155 44z" />
    <glyph glyph-name="uni03BC" unicode="&#x3bc;" horiz-adv-x="720" 
d="M694 536l-60 -339q-4 -21 2.5 -28.5t27.5 -7.5h25l-28 -161h-109q-97 0 -120 65q-55 -43 -92 -53q-38 -12 -112 -12h-25l-29 -160h-203l123 696h203l-56 -315q-5 -31 5.5 -43t41.5 -12h38q49 0 80 22l27 19l58 329h203z" />
    <glyph glyph-name="pi" unicode="&#x3c0;" horiz-adv-x="772" 
d="M769 378h-84l-30 -172q-4 -25 4.5 -35t33.5 -10h38l-29 -161h-121q-164 0 -136 166l37 212h-163l-67 -378h-204l67 378h-84l29 158h738z" />
    <glyph glyph-name="uni0401" unicode="&#x401;" horiz-adv-x="686" 
d="M262 856h152l-20 -116h-152zM478 856h152l-20 -116h-152zM728 700l-30 -171h-388l-18 -98h348l-26 -148h-348l-20 -112h399l-31 -171h-614l124 700h604z" />
    <glyph glyph-name="uni0403" unicode="&#x403;" horiz-adv-x="624" 
d="M405 864h218l-143 -128h-168zM124 700h564l-33 -191h-348l-89 -509h-216z" />
    <glyph glyph-name="uni0405" unicode="&#x405;" horiz-adv-x="789" 
d="M22 166l10 59h208l-5 -29q-4 -24 4.5 -34t33.5 -10h198q24 0 34.5 9.5t15.5 34.5l4 26q4 25 -3 34t-30 11l-273 24q-83 8 -117 47.5t-20 118.5l17 93q14 82 54.5 116t122.5 34h370q160 0 135 -166l-7 -49h-208l3 20q3 25 -5.5 34.5t-33.5 9.5h-174q-24 0 -34.5 -9.5
t-14.5 -34.5l-2 -13q-4 -25 2.5 -33.5t29.5 -10.5l273 -25q84 -8 117.5 -47.5t19.5 -118.5l-19 -107q-14 -82 -54.5 -116t-121.5 -34h-394q-81 0 -115.5 42t-20.5 124z" />
    <glyph glyph-name="uni0406" unicode="&#x406;" horiz-adv-x="324" 
d="M5 0l124 700h219l-124 -700h-219z" />
    <glyph glyph-name="uni0407" unicode="&#x407;" horiz-adv-x="324" 
d="M213 740h-152l20 116h152zM429 740h-152l20 116h152zM5 0l124 700h219l-124 -700h-219z" />
    <glyph glyph-name="uni0408" unicode="&#x408;" horiz-adv-x="719" 
d="M436 0h-248q-103 0 -148 54t-26 158l15 84h208l-9 -50q-7 -35 6 -50.5t49 -15.5h99q36 0 51.5 13.5t21.5 48.5l81 458h216l-90 -508q-19 -104 -71 -148t-155 -44z" />
    <glyph glyph-name="uni040C" unicode="&#x40c;" horiz-adv-x="793" 
d="M487 864h218l-143 -128h-168zM578 700h282l-354 -342l234 -358h-263l-204 341l-60 -341h-216l124 700h216l-56 -314z" />
    <glyph glyph-name="uni040E" unicode="&#x40e;" horiz-adv-x="760" 
d="M581 736h-260q-78 0 -64 77l9 51h134l-4 -24q-4 -25 22 -25h92q24 0 28 25l4 24h134l-9 -55q-6 -39 -26.5 -56t-59.5 -17zM399 418l194 282h251l-529 -700h-250l187 243l-184 457h237z" />
    <glyph glyph-name="uni0410" unicode="&#x410;" horiz-adv-x="832" 
d="M784 0h-227l-20 109h-286l-58 -109h-241l418 700h245zM464 505l-133 -247h178z" />
    <glyph glyph-name="uni0411" unicode="&#x411;" horiz-adv-x="774" 
d="M541 0h-540l124 700h630l-29 -163h-414l-19 -106h308q164 0 136 -166l-20 -115q-14 -82 -54.5 -116t-121.5 -34zM268 292l-22 -131h216q24 0 34 9t15 34l7 42q4 25 -4.5 35.5t-33.5 10.5h-212z" />
    <glyph glyph-name="uni0412" unicode="&#x412;" horiz-adv-x="774" 
d="M123 700h504q79 0 114 -42.5t21 -123.5l-8 -51q-10 -55 -31 -85t-60 -41q81 -29 63 -141l-11 -66q-13 -81 -53.5 -115.5t-122.5 -34.5h-541zM502 539h-192l-20 -116h196q24 0 34 9t15 34l5 28q10 45 -38 45zM509 204l8 42q4 25 -4.5 35.5t-33.5 10.5h-212l-23 -131h216
q24 0 34 9t15 34z" />
    <glyph glyph-name="uni0413" unicode="&#x413;" horiz-adv-x="624" 
d="M124 700h564l-33 -191h-348l-89 -509h-216z" />
    <glyph glyph-name="uni0414" unicode="&#x414;" horiz-adv-x="898" 
d="M862 700l-92 -517h101l-53 -303h-200l21 120h-474l-21 -120h-200l53 303h59q33 0 48 12.5t23 46.5l111 458h624zM412 509l-62 -248q-10 -42 -27 -78h231l58 326h-200z" />
    <glyph glyph-name="uni0415" unicode="&#x415;" horiz-adv-x="686" 
d="M728 700l-30 -171h-388l-18 -98h348l-26 -148h-348l-20 -112h399l-31 -171h-614l124 700h604z" />
    <glyph glyph-name="uni0416" unicode="&#x416;" horiz-adv-x="1273" 
d="M1061 700h282l-353 -342l233 -358h-263l-203 341l-60 -341h-216l59 332l-306 -332h-280l362 368l-234 332h265l200 -325l58 325h216l-56 -314z" />
    <glyph glyph-name="uni0417" unicode="&#x417;" horiz-adv-x="786" 
d="M272 700h374q81 0 116.5 -43t21.5 -125l-9 -51q-11 -58 -33.5 -87t-63.5 -39q78 -32 60 -142l-11 -65q-14 -82 -53.5 -115t-121.5 -33h-393q-82 0 -117 43t-21 126l16 94h208l-10 -56q-4 -25 5 -35.5t34 -10.5h198q24 0 33.5 9t14.5 34l7 38q10 46 -39 46h-147l25 139
h142q24 0 34 9t15 34l4 23q5 25 -4 35.5t-35 10.5h-177q-24 0 -34 -8.5t-15 -33.5l-9 -52h-208l19 107q14 82 53.5 115t120.5 33z" />
    <glyph glyph-name="uni0418" unicode="&#x418;" horiz-adv-x="816" 
d="M267 330l395 370h182l-124 -700h-208l67 380l-405 -380h-174l124 700h208z" />
    <glyph glyph-name="uni0419" unicode="&#x419;" horiz-adv-x="816" 
d="M617 736h-260q-78 0 -64 77l9 51h134l-4 -24q-4 -25 22 -25h92q24 0 28 25l4 24h134l-9 -55q-6 -39 -26.5 -56t-59.5 -17zM267 330l395 370h182l-124 -700h-208l67 380l-405 -380h-174l124 700h208z" />
    <glyph glyph-name="uni041A" unicode="&#x41a;" horiz-adv-x="793" 
d="M578 700h282l-354 -342l234 -358h-263l-204 341l-60 -341h-216l124 700h216l-56 -314z" />
    <glyph glyph-name="uni041B" unicode="&#x41b;" horiz-adv-x="802" 
d="M70 0h-106l33 183h28q33 0 47.5 12t22.5 46l111 459h624l-124 -700h-216l90 509h-200l-77 -313q-26 -104 -80.5 -150t-152.5 -46z" />
    <glyph glyph-name="uni041C" unicode="&#x41c;" horiz-adv-x="916" 
d="M462 336l289 364h193l-124 -700h-200l62 351l-197 -242h-111l-112 241l-62 -350h-200l124 700h178z" />
    <glyph glyph-name="uni041D" unicode="&#x41d;" horiz-adv-x="796" 
d="M562 458l43 242h216l-124 -700h-216l47 266h-268l-47 -266h-216l124 700h216l-43 -242h268z" />
    <glyph glyph-name="uni041E" unicode="&#x41e;" horiz-adv-x="809" 
d="M530 0h-326q-103 0 -148 54t-26 158l52 296q19 104 71 148t155 44h326q103 0 148 -54t26 -158l-52 -296q-19 -104 -71 -148t-155 -44zM307 183h169q36 0 51.5 13.5t21.5 49.5l37 204q6 36 -6.5 51.5t-48.5 15.5h-169q-36 0 -51.5 -13.5t-21.5 -49.5l-37 -204
q-6 -36 6.5 -51.5t48.5 -15.5z" />
    <glyph glyph-name="uni041F" unicode="&#x41f;" horiz-adv-x="796" 
d="M216 0h-216l124 700h700l-124 -700h-216l90 509h-268z" />
    <glyph glyph-name="uni0420" unicode="&#x420;" 
d="M216 0h-216l124 700h488q191 0 158 -192l-24 -136q-17 -97 -61 -134q-46 -38 -141 -38h-292zM310 533l-30 -174h197q30 0 42.5 11t17.5 42l12 66q5 31 -5.5 43t-41.5 12h-192z" />
    <glyph glyph-name="uni0421" unicode="&#x421;" horiz-adv-x="779" 
d="M502 0h-298q-103 0 -148 54t-26 158l52 296q19 104 71 148t155 44h298q103 0 148 -54t26 -158l-13 -79h-209l9 45q6 35 -6.5 50.5t-48.5 15.5h-149q-36 0 -51.5 -13.5t-22.5 -48.5l-38 -212q-6 -35 6.5 -50.5t48.5 -15.5h149q36 0 51.5 13.5t22.5 48.5l9 56h208l-18 -106
q-19 -104 -71 -148t-155 -44z" />
    <glyph glyph-name="uni0422" unicode="&#x422;" horiz-adv-x="692" 
d="M88 700h668l-34 -191h-226l-90 -509h-216l90 509h-226z" />
    <glyph glyph-name="uni0423" unicode="&#x423;" horiz-adv-x="760" 
d="M399 418l194 282h251l-529 -700h-250l187 243l-184 457h237z" />
    <glyph glyph-name="uni0424" unicode="&#x424;" horiz-adv-x="1015" 
d="M676 658h157q103 0 148 -54t26 -158l-38 -212q-19 -104 -71 -148t-155 -44h-175l-15 -82h-200l15 82h-157q-103 0 -148 54t-26 158l38 212q19 104 71 148t155 44h175l15 82h200zM310 198h85l54 304h-90q-36 0 -51.5 -13.5t-21.5 -49.5l-31 -175q-7 -36 6 -51t49 -15z
M758 261l31 175q7 36 -6 51t-49 15h-85l-54 -304h90q36 0 51.5 13.5t21.5 49.5z" />
    <glyph glyph-name="uni0425" unicode="&#x425;" horiz-adv-x="784" 
d="M210 0h-256l312 357l-178 343h236l99 -203l167 203h258l-300 -343l186 -357h-236l-107 216z" />
    <glyph glyph-name="uni0426" unicode="&#x426;" horiz-adv-x="860" 
d="M601 0h-600l123 700h216l-89 -509h268l89 509h216l-89 -509h100l-56 -311h-200z" />
    <glyph glyph-name="uni0427" unicode="&#x427;" 
d="M656 0h-216l37 204h-272q-191 0 -158 192l53 304h216l-44 -250q-5 -31 5.5 -43t41.5 -12h192l53 305h216z" />
    <glyph glyph-name="uni0428" unicode="&#x428;" horiz-adv-x="1188" 
d="M1092 0h-1092l124 700h216l-89 -509h222l89 509h216l-89 -509h222l89 509h216z" />
    <glyph glyph-name="uni0429" unicode="&#x429;" horiz-adv-x="1252" 
d="M993 0h-992l123 700h216l-89 -509h222l89 509h216l-89 -509h222l89 509h216l-89 -509h100l-56 -311h-200z" />
    <glyph glyph-name="uni042A" unicode="&#x42a;" horiz-adv-x="910" 
d="M250 517h-194l32 183h410l-35 -200h272q191 0 157 -192l-23 -136q-17 -97 -61 -134q-47 -38 -142 -38h-508zM434 341l-29 -174h196q30 0 42.5 11t17.5 42l12 66q5 31 -5.5 43t-41.5 12h-192z" />
    <glyph glyph-name="uni042B" unicode="&#x42b;" horiz-adv-x="1076" 
d="M0 0l124 700h216l-35 -200h272q191 0 157 -192l-23 -136q-17 -97 -61 -134q-47 -38 -142 -38h-508zM757 0l124 700h219l-124 -700h-219zM468 341h-192l-29 -174h196q30 0 42.5 11t17.5 42l12 66q5 31 -5.5 43t-41.5 12z" />
    <glyph glyph-name="uni042C" unicode="&#x42c;" 
d="M0 0l124 700h216l-35 -200h272q191 0 157 -192l-23 -136q-17 -97 -61 -134q-47 -38 -142 -38h-508zM468 341h-192l-29 -174h196q30 0 42.5 11t17.5 42l12 66q5 31 -5.5 43t-41.5 12z" />
    <glyph glyph-name="uni042D" unicode="&#x42d;" horiz-adv-x="797" 
d="M306 700h316q103 0 148 -54t26 -158l-53 -296q-19 -104 -70.5 -148t-154.5 -44h-316q-103 0 -148 54.5t-27 157.5l15 86h208l-11 -68q-7 -36 5.5 -51t48.5 -15h167q36 0 52 13.5t22 49.5l11 60h-193l24 135h193l8 48q6 36 -6.5 51t-47.5 15h-168q-35 0 -51.5 -14
t-22.5 -49l-11 -64h-208l18 99q19 104 71 148t155 44z" />
    <glyph glyph-name="uni042E" unicode="&#x42e;" horiz-adv-x="1208" 
d="M706 700h326q103 0 148 -54t26 -158l-52 -296q-19 -104 -71 -148t-155 -44h-326q-103 0 -148 54t-26 158l9 54h-174l-47 -266h-216l124 700h216l-43 -243h174l9 51q19 104 71 148t155 44zM947 246l37 204q6 36 -6.5 51.5t-48.5 15.5h-169q-36 0 -51.5 -13.5t-21.5 -49.5
l-37 -204q-6 -36 6.5 -51.5t48.5 -15.5h169q36 0 51.5 13.5t21.5 49.5z" />
    <glyph glyph-name="uni042F" unicode="&#x42f;" horiz-adv-x="774" 
d="M295 700h507l-124 -700h-216l41 225h-116l-179 -225h-244l203 248q-118 30 -91 185l16 95q17 98 62 134q46 38 141 38zM338 379h192l28 162h-197q-30 0 -42 -11t-18 -42l-9 -54q-6 -31 4.5 -43t41.5 -12z" />
    <glyph glyph-name="uni0430" unicode="&#x430;" horiz-adv-x="681" 
d="M260 536h236q190 0 156 -190l-61 -346h-170l-5 54q-44 -33 -81 -44q-34 -10 -105 -10h-104q-63 0 -93.5 36.5t-17.5 98.5l10 56q12 63 46 92t96 29h276l6 33q5 31 -5 43t-41 12h-80q-25 0 -35.5 -9t-14.5 -34l-2 -14h-196l7 43q13 81 54.5 115.5t123.5 34.5zM256 123h64
q39 0 69 21l28 20l5 28l4 22h-158q-22 0 -30.5 -7.5t-12.5 -29.5l-3 -15q-3 -22 4 -30.5t30 -8.5z" />
    <glyph glyph-name="uni0431" unicode="&#x431;" horiz-adv-x="689" 
d="M680 551l-361 -22q-41 -3 -59.5 -19t-25.5 -56l-8 -46q32 47 121 47h168q82 0 117.5 -42.5t20.5 -125.5l-24 -138q-15 -83 -54.5 -116t-120.5 -33h-294q-81 0 -116 43t-21 125l57 325q18 101 69 145q50 43 157 49l402 23zM408 312h-115q-24 0 -34.5 -9.5t-15.5 -34.5
l-13 -70q-4 -25 5 -35.5t34 -10.5h115q24 0 34 9t15 34l14 71q4 25 -5 35.5t-34 10.5z" />
    <glyph glyph-name="uni0432" unicode="&#x432;" horiz-adv-x="675" 
d="M94 536h452q128 0 104 -127l-7 -38q-16 -82 -69 -98q64 -22 49 -108l-9 -49q-11 -63 -42.5 -89.5t-93.5 -26.5h-479l48 267h-1zM412 407h-137l-15 -81h140q19 0 27 7t11 26l3 15q4 19 -2.5 26t-26.5 7zM419 161l4 26q3 19 -3 26.5t-26 7.5h-153l-16 -92h155q19 0 27 6.5
t12 25.5z" />
    <glyph glyph-name="uni0433" unicode="&#x433;" horiz-adv-x="534" 
d="M202 0h-203l95 536h476l-29 -166h-273z" />
    <glyph glyph-name="uni0434" unicode="&#x434;" horiz-adv-x="784" 
d="M726 536l-66 -376h93l-50 -280h-187l21 120h-385l-21 -120h-187l49 280h56q27 0 39.5 10.5t19.5 38.5l79 327h539zM353 370l-34 -137q-11 -43 -26 -73h164l37 210h-141z" />
    <glyph glyph-name="uni0435" unicode="&#x435;" horiz-adv-x="676" 
d="M260 536h236q95 0 133 -46.5t22 -142.5l-18 -108h-396l-6 -33q-5 -31 4.5 -43t40.5 -12h104q24 0 34.5 9t15.5 34l2 11h195l-10 -54q-15 -83 -55 -117t-121 -34h-260q-189 0 -156 190l30 172q16 96 62.5 135t142.5 39zM257 355l-2 -14h201l2 12q5 31 -4.5 42.5
t-40.5 11.5h-95q-30 0 -43 -11t-18 -41z" />
    <glyph glyph-name="uni0436" unicode="&#x436;" horiz-adv-x="1091" 
d="M871 536h266l-280 -270l192 -266h-248l-158 249l-44 -249h-203l44 247l-228 -247h-266l289 270l-186 266h247l151 -246l44 246h203l-43 -243z" />
    <glyph glyph-name="uni0437" unicode="&#x437;" horiz-adv-x="676" 
d="M209 536h342q128 0 104 -127l-7 -38q-16 -82 -74 -99q61 -22 46 -107l-9 -49q-11 -63 -42.5 -89.5t-93.5 -26.5h-357q-126 0 -105 128l13 74h196l-7 -38q-3 -19 3.5 -26t25.5 -7h134q19 0 27 7t12 26l4 21q3 19 -3.5 26.5t-25.5 7.5h-92l19 109h85q19 0 27.5 7t11.5 26
l2 11q3 18 -3 25.5t-25 7.5h-119q-19 0 -27 -6.5t-11 -25.5l-6 -33h-195l14 81q10 63 41.5 89t94.5 26z" />
    <glyph glyph-name="uni0438" unicode="&#x438;" horiz-adv-x="707" 
d="M242 271l296 265h170l-95 -536h-195l48 274l-306 -274h-161l95 536h195z" />
    <glyph glyph-name="uni0439" unicode="&#x439;" horiz-adv-x="707" 
d="M534 572h-260q-78 0 -64 77l9 51h134l-4 -24q-4 -25 22 -25h92q24 0 28 25l4 24h134l-9 -55q-6 -39 -26.5 -56t-59.5 -17zM242 271l296 265h170l-95 -536h-195l48 274l-306 -274h-161l95 536h195z" />
    <glyph glyph-name="uni043A" unicode="&#x43a;" horiz-adv-x="693" 
d="M474 536h265l-280 -270l192 -266h-248l-157 249l-44 -249h-204l96 536h203l-43 -243z" />
    <glyph glyph-name="uni043B" unicode="&#x43b;" horiz-adv-x="692" 
d="M62 0h-98l29 160h22q28 0 40.5 10.5t19.5 38.5l80 327h539l-96 -536h-203l66 370h-141l-49 -194q-24 -95 -72 -135.5t-137 -40.5z" />
    <glyph glyph-name="uni043C" unicode="&#x43c;" horiz-adv-x="793" 
d="M186 0h-187l95 536h169l126 -270l224 270h181l-95 -536h-187l45 257l-146 -174h-95l-84 174z" />
    <glyph glyph-name="uni043D" unicode="&#x43d;" horiz-adv-x="693" 
d="M459 357l32 179h203l-95 -536h-203l34 191h-194l-34 -191h-203l95 536h203l-32 -179h194z" />
    <glyph glyph-name="uni043E" unicode="&#x43e;" horiz-adv-x="686" 
d="M428 0h-245q-191 0 -158 192l30 172q17 98 62 134q46 38 141 38h245q191 0 158 -192l-30 -172q-17 -97 -61 -134q-47 -38 -142 -38zM279 161h95q31 0 43.5 10.5t17.5 41.5l19 107q5 31 -5.5 43t-41.5 12h-95q-31 0 -43.5 -10.5t-17.5 -41.5l-19 -107q-5 -31 5.5 -43
t41.5 -12z" />
    <glyph glyph-name="uni043F" unicode="&#x43f;" horiz-adv-x="693" 
d="M202 0h-203l95 536h600l-95 -536h-203l65 370h-193z" />
    <glyph glyph-name="uni0440" unicode="&#x440;" horiz-adv-x="694" 
d="M463 536h51q95 0 133.5 -46.5t22.5 -143.5l-31 -172q-16 -96 -62 -135t-142 -39h-59q-66 0 -100 9q-34 7 -66 36l-36 -205h-203l123 696h169l6 -60q50 40 86 50q34 10 108 10zM443 213l19 107q5 31 -5 43t-41 12h-49q-49 0 -80 -22l-26 -20l-23 -131l19 -19
q22 -22 75 -22h51q31 0 43 10.5t17 41.5z" />
    <glyph glyph-name="uni0441" unicode="&#x441;" horiz-adv-x="658" 
d="M400 0h-217q-191 0 -158 192l30 172q17 98 62 134q46 38 141 38h217q189 0 158 -192l-6 -39h-195l2 15q4 31 -6 43t-41 12h-75q-31 0 -43.5 -10.5t-17.5 -41.5l-19 -107q-5 -31 5.5 -43t41.5 -12h75q31 0 43.5 10.5t17.5 41.5l4 23h195l-11 -64q-16 -96 -62 -134
t-141 -38z" />
    <glyph glyph-name="uni0442" unicode="&#x442;" horiz-adv-x="592" 
d="M213 370h-183l30 166h568l-30 -166h-182l-66 -370h-203z" />
    <glyph glyph-name="uni0443" unicode="&#x443;" horiz-adv-x="678" 
d="M323 221l174 315h227l-345 -544q-63 -99 -112 -126q-50 -26 -160 -26h-125l29 161h114q49 0 68 19l-143 516h212z" />
    <glyph glyph-name="uni0444" unicode="&#x444;" horiz-adv-x="982" 
d="M636 536h163q191 0 158 -192l-30 -172q-17 -97 -61 -134q-47 -38 -142 -38h-183l-28 -160h-195l28 160h-163q-191 0 -158 192l30 172q17 98 62 134q46 38 141 38h183l29 164h195zM275 142h96l45 252h-101q-31 0 -43.5 -10.5t-17.5 -41.5l-25 -145q-5 -31 5 -43t41 -12z
M728 194l25 145q5 31 -5 43t-41 12h-96l-45 -252h101q31 0 43.5 10.5t17.5 41.5z" />
    <glyph glyph-name="uni0445" unicode="&#x445;" horiz-adv-x="682" 
d="M196 0h-250l257 274l-152 262h229l75 -143l120 143h251l-245 -262l159 -274h-229l-83 155z" />
    <glyph glyph-name="uni0446" unicode="&#x446;" horiz-adv-x="750" 
d="M504 0h-504l94 536h203l-65 -370h194l65 370h203l-65 -370h91l-50 -286h-187z" />
    <glyph glyph-name="uni0447" unicode="&#x447;" horiz-adv-x="654" 
d="M72 536h203l-32 -175q-4 -25 4.5 -35t33.5 -10h133l38 220h204l-96 -536h-203l27 151h-214q-166 0 -138 166z" />
    <glyph glyph-name="uni0448" unicode="&#x448;" horiz-adv-x="1030" 
d="M936 0h-937l95 536h203l-66 -370h164l66 370h203l-65 -370h164l65 370h204z" />
    <glyph glyph-name="uni0449" unicode="&#x449;" horiz-adv-x="1088" 
d="M842 0h-842l94 536h203l-65 -370h164l65 370h203l-65 -370h164l65 370h204l-65 -370h91l-51 -286h-187z" />
    <glyph glyph-name="uni044A" unicode="&#x44a;" horiz-adv-x="774" 
d="M184 370h-154l30 166h357l-27 -148h219q161 0 133 -162l-14 -80q-14 -81 -53 -113.5t-119 -32.5h-438zM367 258l-21 -120h137q23 0 34 9t15 32l6 36q4 24 -4 33.5t-32 9.5h-135z" />
    <glyph glyph-name="uni044B" unicode="&#x44b;" horiz-adv-x="961" 
d="M-1 0l95 536h203l-26 -148h218q163 0 134 -162l-14 -80q-14 -81 -53 -113.5t-120 -32.5h-437zM863 0h-206l95 536h206zM382 258h-134l-21 -120h136q23 0 34 9t15 32l6 36q4 24 -4 33.5t-32 9.5z" />
    <glyph glyph-name="uni044C" unicode="&#x44c;" horiz-adv-x="654" 
d="M-1 0l95 536h203l-26 -148h218q163 0 134 -162l-14 -80q-14 -81 -53 -113.5t-120 -32.5h-437zM382 258h-134l-21 -120h136q23 0 34 9t15 32l6 36q4 24 -4 33.5t-32 9.5z" />
    <glyph glyph-name="uni044D" unicode="&#x44d;" horiz-adv-x="678" 
d="M257 536h238q191 0 158 -192l-30 -172q-17 -96 -62 -134q-46 -38 -141 -38h-237q-192 0 -158 193l7 43h195l-6 -34q-6 -30 5 -43t42 -13h96q30 0 42 11t18 42l4 23h-126l17 102h128l2 11q5 30 -6 42.5t-42 12.5h-95q-30 0 -42.5 -11t-17.5 -41l-6 -33h-195l10 59
q17 98 61 135t141 37z" />
    <glyph glyph-name="uni044E" unicode="&#x44e;" horiz-adv-x="1018" 
d="M590 536h245q191 0 158 -192l-30 -172q-17 -97 -61 -134q-47 -38 -142 -38h-245q-191 0 -158 191h-121l-34 -191h-203l95 536h203l-32 -179h121l1 7q17 98 62 134q46 38 141 38zM767 213l19 107q5 31 -5.5 43t-41.5 12h-95q-31 0 -43.5 -10.5t-17.5 -41.5l-19 -107
q-5 -31 5.5 -43t41.5 -12h95q31 0 43.5 10.5t17.5 41.5z" />
    <glyph glyph-name="uni044F" unicode="&#x44f;" horiz-adv-x="674" 
d="M238 536h438l-96 -536h-203l30 169h-84l-133 -169h-227l154 192q-81 32 -60 150l9 48q14 81 53 113.5t119 32.5zM295 293h134l20 111h-138q-23 0 -32.5 -8.5t-14.5 -32.5l-5 -27q-4 -24 4 -33.5t32 -9.5z" />
    <glyph glyph-name="uni0451" unicode="&#x451;" horiz-adv-x="676" 
d="M229 692h152l-20 -116h-152zM445 692h152l-20 -116h-152zM260 536h236q95 0 133 -46.5t22 -142.5l-18 -108h-396l-6 -33q-5 -31 4.5 -43t40.5 -12h104q24 0 34.5 9t15.5 34l2 11h195l-10 -54q-15 -83 -55 -117t-121 -34h-260q-189 0 -156 190l30 172q16 96 62.5 135
t142.5 39zM257 355l-2 -14h201l2 12q5 31 -4.5 42.5t-40.5 11.5h-95q-30 0 -43 -11t-18 -41z" />
    <glyph glyph-name="uni0453" unicode="&#x453;" horiz-adv-x="534" 
d="M550 700l-143 -128h-168l93 128h218zM202 0h-203l95 536h476l-29 -166h-273z" />
    <glyph glyph-name="uni0455" unicode="&#x455;" horiz-adv-x="666" 
d="M14 134l8 47h195l-5 -29q-3 -16 2 -21.5t21 -5.5h138q16 0 22 5.5t9 21.5l4 21q3 14 -2.5 20t-21.5 8l-215 22q-61 5 -88.5 38t-17.5 92l11 62q21 121 142 121h313q59 0 88.5 -36t19.5 -97l-6 -41h-195l4 23q3 15 -2.5 20.5t-21.5 5.5h-114q-16 0 -22 -5.5t-8 -20.5
l-2 -10q-2 -14 2.5 -19.5t20.5 -7.5l216 -22q61 -6 89 -39.5t17 -91.5l-13 -74q-22 -121 -143 -121h-337q-59 0 -88.5 36.5t-19.5 97.5z" />
    <glyph glyph-name="uni0456" unicode="&#x456;" horiz-adv-x="307" 
d="M311 576h-206l22 124h206zM209 0h-206l95 536h206z" />
    <glyph glyph-name="uni0457" unicode="&#x457;" horiz-adv-x="307" 
d="M176 576h-152l20 116h152zM392 576h-152l20 116h152zM209 0h-206l95 536h206z" />
    <glyph glyph-name="uni0458" unicode="&#x458;" horiz-adv-x="307" 
d="M311 576h-206l22 124h206zM31 -160h-128l27 153h30q25 0 35.5 9t14.5 34l88 500h207l-97 -546q-15 -82 -55 -116t-122 -34z" />
    <glyph glyph-name="uni045C" unicode="&#x45c;" horiz-adv-x="693" 
d="M411 700h218l-143 -128h-168zM474 536h265l-280 -270l192 -266h-248l-157 249l-44 -249h-204l96 536h203l-43 -243z" />
    <glyph glyph-name="uni045E" unicode="&#x45e;" horiz-adv-x="678" 
d="M508 572h-260q-78 0 -64 77l9 51h134l-4 -24q-4 -25 22 -25h92q24 0 28 25l4 24h134l-9 -55q-6 -39 -26.5 -56t-59.5 -17zM323 221l174 315h227l-345 -544q-63 -99 -112 -126q-50 -26 -160 -26h-125l29 161h114q49 0 68 19l-143 516h212z" />
    <glyph glyph-name="uni0498" unicode="&#x498;" horiz-adv-x="786" 
d="M272 700h374q81 0 116.5 -43t21.5 -125l-9 -51q-11 -58 -33.5 -87t-63.5 -39q78 -32 60 -142l-11 -65q-14 -82 -53.5 -115t-121.5 -33h-186l-11 -22h63q57 0 47 -57l-5 -28q-5 -30 -19 -41.5t-43 -11.5h-180l11 60h131q8 0 11 8l1 8q3 9 -8 9h-98l5 28l23 47h-135
q-82 0 -117 43t-21 126l16 94h208l-10 -56q-4 -25 5 -35.5t34 -10.5h198q24 0 33.5 9t14.5 34l7 38q10 46 -39 46h-147l25 139h142q24 0 34 9t15 34l4 23q5 25 -4 35.5t-35 10.5h-177q-24 0 -34 -8.5t-15 -33.5l-9 -52h-208l19 107q14 82 53.5 115t120.5 33z" />
    <glyph glyph-name="uni0499" unicode="&#x499;" horiz-adv-x="676" 
d="M209 536h342q128 0 104 -127l-7 -38q-16 -82 -74 -99q61 -22 46 -107l-9 -49q-11 -63 -42.5 -89.5t-93.5 -26.5h-164l-11 -22h63q57 0 47 -57l-5 -28q-5 -30 -19 -41.5t-43 -11.5h-180l11 60h131q8 0 11 8l1 8q3 9 -8 9h-98l5 28l23 47h-121q-126 0 -105 128l13 74h196
l-7 -38q-3 -19 3.5 -26t25.5 -7h134q19 0 27 7t12 26l4 21q3 19 -3.5 26.5t-25.5 7.5h-92l19 109h85q19 0 27.5 7t11.5 26l2 11q3 18 -3 25.5t-25 7.5h-119q-19 0 -27 -6.5t-11 -25.5l-6 -33h-195l14 81q10 63 41.5 89t94.5 26z" />
    <glyph glyph-name="uni04BB" unicode="&#x4bb;" horiz-adv-x="689" 
d="M470 536h32q192 0 157 -192l-60 -344h-203l55 315q6 31 -4.5 43t-41.5 12h-39q-49 0 -80 -22l-26 -19l-58 -329h-203l124 700h203l-38 -215q43 33 79 42q35 9 103 9z" />
    <glyph glyph-name="uni04C0" unicode="&#x4c0;" horiz-adv-x="324" 
d="M5 0l124 700h219l-124 -700h-219z" />
    <glyph glyph-name="uni04C1" unicode="&#x4c1;" horiz-adv-x="1273" 
d="M846 736h-260q-78 0 -64 77l9 51h134l-4 -24q-4 -25 22 -25h92q24 0 28 25l4 24h134l-9 -55q-6 -39 -26.5 -56t-59.5 -17zM1061 700h282l-353 -342l233 -358h-263l-203 341l-60 -341h-216l59 332l-306 -332h-280l362 368l-234 332h265l200 -325l58 325h216l-56 -314z" />
    <glyph glyph-name="uni04C2" unicode="&#x4c2;" horiz-adv-x="1091" 
d="M726 572h-260q-78 0 -64 77l9 51h134l-4 -24q-4 -25 22 -25h92q24 0 28 25l4 24h134l-9 -55q-6 -39 -26.5 -56t-59.5 -17zM871 536h266l-280 -270l192 -266h-248l-158 249l-44 -249h-203l44 247l-228 -247h-266l289 270l-186 266h247l151 -246l44 246h203l-43 -243z" />
    <glyph glyph-name="uni04D0" unicode="&#x4d0;" horiz-adv-x="832" 
d="M626 736h-260q-78 0 -64 77l9 51h134l-4 -24q-4 -25 22 -25h92q24 0 28 25l4 24h134l-9 -55q-6 -39 -26.5 -56t-59.5 -17zM784 0h-227l-20 109h-286l-58 -109h-241l418 700h245zM464 505l-133 -247h178z" />
    <glyph glyph-name="uni04D1" unicode="&#x4d1;" horiz-adv-x="681" 
d="M521 572h-260q-78 0 -64 77l9 51h134l-4 -24q-4 -25 22 -25h92q24 0 28 25l4 24h134l-9 -55q-6 -39 -26.5 -56t-59.5 -17zM260 536h236q190 0 156 -190l-61 -346h-170l-5 54q-44 -33 -81 -44q-34 -10 -105 -10h-104q-63 0 -93.5 36.5t-17.5 98.5l10 56q12 63 46 92t96 29
h276l6 33q5 31 -5 43t-41 12h-80q-25 0 -35.5 -9t-14.5 -34l-2 -14h-196l7 43q13 81 54.5 115.5t123.5 34.5zM256 123h64q39 0 69 21l28 20l5 28l4 22h-158q-22 0 -30.5 -7.5t-12.5 -29.5l-3 -15q-3 -22 4 -30.5t30 -8.5z" />
    <glyph glyph-name="uni04D2" unicode="&#x4d2;" horiz-adv-x="832" 
d="M336 856h152l-20 -116h-152zM552 856h152l-20 -116h-152zM784 0h-227l-20 109h-286l-58 -109h-241l418 700h245zM464 505l-133 -247h178z" />
    <glyph glyph-name="uni04D3" unicode="&#x4d3;" horiz-adv-x="681" 
d="M231 692h152l-20 -116h-152zM447 692h152l-20 -116h-152zM260 536h236q190 0 156 -190l-61 -346h-170l-5 54q-44 -33 -81 -44q-34 -10 -105 -10h-104q-63 0 -93.5 36.5t-17.5 98.5l10 56q12 63 46 92t96 29h276l6 33q5 31 -5 43t-41 12h-80q-25 0 -35.5 -9t-14.5 -34
l-2 -14h-196l7 43q13 81 54.5 115.5t123.5 34.5zM256 123h64q39 0 69 21l28 20l5 28l4 22h-158q-22 0 -30.5 -7.5t-12.5 -29.5l-3 -15q-3 -22 4 -30.5t30 -8.5z" />
    <glyph glyph-name="uni04D4" unicode="&#x4d4;" horiz-adv-x="1088" 
d="M1131 700l-31 -171h-434l20 -98h357l-26 -148h-301l22 -112h309l-30 -171h-472l-16 101h-282l-54 -101h-239l418 700h759zM466 508l-139 -258h179z" />
    <glyph glyph-name="uni04D5" unicode="&#x4d5;" horiz-adv-x="1073" 
d="M697 536h196q189 0 155 -190l-19 -107h-396l-6 -33q-5 -31 5 -43t41 -12h104q24 0 34.5 9t15.5 34l2 11h195l-10 -55q-15 -82 -55.5 -116t-121.5 -34h-235q-98 0 -136 50q-45 -32 -78 -41q-34 -9 -102 -9h-160q-62 0 -92.5 36.5t-18.5 98.5l11 56q12 63 46 92t95 29h276
l6 33q5 31 -5 43t-41 12h-80q-25 0 -35.5 -9.5t-14.5 -33.5l-2 -14h-196l7 43q13 81 54.5 115.5t123.5 34.5h196q81 0 113 -44q38 44 128 44zM654 355l-3 -14h202l2 12q5 31 -5 42.5t-41 11.5h-94q-31 0 -43.5 -10.5t-17.5 -41.5zM389 144l28 20l9 50h-158q-22 0 -30.5 -7.5
t-12.5 -29.5l-3 -15q-3 -22 4 -30.5t30 -8.5h64q39 0 69 21z" />
    <glyph glyph-name="uni04D6" unicode="&#x4d6;" horiz-adv-x="686" 
d="M552 736h-260q-78 0 -64 77l9 51h134l-4 -24q-4 -25 22 -25h92q24 0 28 25l4 24h134l-9 -55q-6 -39 -26.5 -56t-59.5 -17zM728 700l-30 -171h-388l-18 -98h348l-26 -148h-348l-20 -112h399l-31 -171h-614l124 700h604z" />
    <glyph glyph-name="uni04D7" unicode="&#x4d7;" horiz-adv-x="676" 
d="M519 572h-260q-78 0 -64 77l9 51h134l-4 -24q-4 -25 22 -25h92q24 0 28 25l4 24h134l-9 -55q-6 -39 -26.5 -56t-59.5 -17zM260 536h236q95 0 133 -46.5t22 -142.5l-18 -108h-396l-6 -33q-5 -31 4.5 -43t40.5 -12h104q24 0 34.5 9t15.5 34l2 11h195l-10 -54
q-15 -83 -55 -117t-121 -34h-260q-189 0 -156 190l30 172q16 96 62.5 135t142.5 39zM257 355l-2 -14h201l2 12q5 31 -4.5 42.5t-40.5 11.5h-95q-30 0 -43 -11t-18 -41z" />
    <glyph glyph-name="uni04DC" unicode="&#x4dc;" horiz-adv-x="1273" 
d="M556 856h152l-20 -116h-152zM772 856h152l-20 -116h-152zM1061 700h282l-353 -342l233 -358h-263l-203 341l-60 -341h-216l59 332l-306 -332h-280l362 368l-234 332h265l200 -325l58 325h216l-56 -314z" />
    <glyph glyph-name="uni04DD" unicode="&#x4dd;" horiz-adv-x="1091" 
d="M436 692h152l-20 -116h-152zM652 692h152l-20 -116h-152zM871 536h266l-280 -270l192 -266h-248l-158 249l-44 -249h-203l44 247l-228 -247h-266l289 270l-186 266h247l151 -246l44 246h203l-43 -243z" />
    <glyph glyph-name="uni04DE" unicode="&#x4de;" horiz-adv-x="786" 
d="M313 856h152l-20 -116h-152zM529 856h152l-20 -116h-152zM272 700h374q81 0 116.5 -43t21.5 -125l-9 -51q-11 -58 -33.5 -87t-63.5 -39q78 -32 60 -142l-11 -65q-14 -82 -53.5 -115t-121.5 -33h-393q-82 0 -117 43t-21 126l16 94h208l-10 -56q-4 -25 5 -35.5t34 -10.5
h198q24 0 33.5 9t14.5 34l7 38q10 46 -39 46h-147l25 139h142q24 0 34 9t15 34l4 23q5 25 -4 35.5t-35 10.5h-177q-24 0 -34 -8.5t-15 -33.5l-9 -52h-208l19 107q14 82 53.5 115t120.5 33z" />
    <glyph glyph-name="uni04DF" unicode="&#x4df;" horiz-adv-x="676" 
d="M229 692h152l-20 -116h-152zM445 692h152l-20 -116h-152zM209 536h342q128 0 104 -127l-7 -38q-16 -82 -74 -99q61 -22 46 -107l-9 -49q-11 -63 -42.5 -89.5t-93.5 -26.5h-357q-126 0 -105 128l13 74h196l-7 -38q-3 -19 3.5 -26t25.5 -7h134q19 0 27 7t12 26l4 21
q3 19 -3.5 26.5t-25.5 7.5h-92l19 109h85q19 0 27.5 7t11.5 26l2 11q3 18 -3 25.5t-25 7.5h-119q-19 0 -27 -6.5t-11 -25.5l-6 -33h-195l14 81q10 63 41.5 89t94.5 26z" />
    <glyph glyph-name="uni04E2" unicode="&#x4e2;" horiz-adv-x="816" 
d="M298 848h424l-17 -95h-424zM267 330l395 370h182l-124 -700h-208l67 380l-405 -380h-174l124 700h208z" />
    <glyph glyph-name="uni04E3" unicode="&#x4e3;" horiz-adv-x="707" 
d="M215 684h424l-17 -95h-424zM242 271l296 265h170l-95 -536h-195l48 274l-306 -274h-161l95 536h195z" />
    <glyph glyph-name="uni04E4" unicode="&#x4e4;" horiz-adv-x="816" 
d="M327 856h152l-20 -116h-152zM543 856h152l-20 -116h-152zM267 330l395 370h182l-124 -700h-208l67 380l-405 -380h-174l124 700h208z" />
    <glyph glyph-name="uni04E5" unicode="&#x4e5;" horiz-adv-x="707" 
d="M244 692h152l-20 -116h-152zM460 692h152l-20 -116h-152zM242 271l296 265h170l-95 -536h-195l48 274l-306 -274h-161l95 536h195z" />
    <glyph glyph-name="uni04E6" unicode="&#x4e6;" horiz-adv-x="809" 
d="M456 740h-152l20 116h152zM672 740h-152l20 116h152zM530 0h-326q-103 0 -148 54t-26 158l52 296q19 104 71 148t155 44h326q103 0 148 -54t26 -158l-52 -296q-19 -104 -71 -148t-155 -44zM307 183h169q36 0 51.5 13.5t21.5 49.5l37 204q6 36 -6.5 51.5t-48.5 15.5h-169
q-36 0 -51.5 -13.5t-21.5 -49.5l-37 -204q-6 -36 6.5 -51.5t48.5 -15.5z" />
    <glyph glyph-name="uni04E7" unicode="&#x4e7;" horiz-adv-x="686" 
d="M366 576h-152l20 116h152zM582 576h-152l20 116h152zM428 0h-245q-191 0 -158 192l30 172q17 98 62 134q46 38 141 38h245q191 0 158 -192l-30 -172q-17 -97 -61 -134q-47 -38 -142 -38zM279 161h95q31 0 43.5 10.5t17.5 41.5l19 107q5 31 -5.5 43t-41.5 12h-95
q-31 0 -43.5 -10.5t-17.5 -41.5l-19 -107q-5 -31 5.5 -43t41.5 -12z" />
    <glyph glyph-name="uni04EC" unicode="&#x4ec;" horiz-adv-x="797" 
d="M318 856h152l-20 -116h-152zM534 856h152l-20 -116h-152zM306 700h316q103 0 148 -54t26 -158l-53 -296q-19 -104 -70.5 -148t-154.5 -44h-316q-103 0 -148 54.5t-27 157.5l15 86h208l-11 -68q-7 -36 5.5 -51t48.5 -15h167q36 0 52 13.5t22 49.5l11 60h-193l24 135h193
l8 48q6 36 -6.5 51t-47.5 15h-168q-35 0 -51.5 -14t-22.5 -49l-11 -64h-208l18 99q19 104 71 148t155 44z" />
    <glyph glyph-name="uni04ED" unicode="&#x4ed;" horiz-adv-x="678" 
d="M230 692h152l-20 -116h-152zM446 692h152l-20 -116h-152zM257 536h238q191 0 158 -192l-30 -172q-17 -96 -62 -134q-46 -38 -141 -38h-237q-192 0 -158 193l7 43h195l-6 -34q-6 -30 5 -43t42 -13h96q30 0 42 11t18 42l4 23h-126l17 102h128l2 11q5 30 -6 42.5t-42 12.5
h-95q-30 0 -42.5 -11t-17.5 -41l-6 -33h-195l10 59q17 98 61 135t141 37z" />
    <glyph glyph-name="uni04EE" unicode="&#x4ee;" horiz-adv-x="760" 
d="M262 848h424l-17 -95h-424zM399 418l194 282h251l-529 -700h-250l187 243l-184 457h237z" />
    <glyph glyph-name="uni04EF" unicode="&#x4ef;" horiz-adv-x="678" 
d="M189 684h424l-17 -95h-424zM323 221l174 315h227l-345 -544q-63 -99 -112 -126q-50 -26 -160 -26h-125l29 161h114q49 0 68 19l-143 516h212z" />
    <glyph glyph-name="uni04F0" unicode="&#x4f0;" horiz-adv-x="760" 
d="M291 856h152l-20 -116h-152zM507 856h152l-20 -116h-152zM399 418l194 282h251l-529 -700h-250l187 243l-184 457h237z" />
    <glyph glyph-name="uni04F1" unicode="&#x4f1;" horiz-adv-x="678" 
d="M218 692h152l-20 -116h-152zM434 692h152l-20 -116h-152zM323 221l174 315h227l-345 -544q-63 -99 -112 -126q-50 -26 -160 -26h-125l29 161h114q49 0 68 19l-143 516h212z" />
    <glyph glyph-name="uni04F2" unicode="&#x4f2;" horiz-adv-x="760" 
d="M329 864h209l-125 -128h-167zM786 864l-126 -128h-167l83 128h210zM399 418l194 282h251l-529 -700h-250l187 243l-184 457h237z" />
    <glyph glyph-name="uni04F3" unicode="&#x4f3;" horiz-adv-x="678" 
d="M256 700h209l-125 -128h-167zM713 700l-126 -128h-167l83 128h210zM323 221l174 315h227l-345 -544q-63 -99 -112 -126q-50 -26 -160 -26h-125l29 161h114q49 0 68 19l-143 516h212z" />
    <glyph glyph-name="uni04F4" unicode="&#x4f4;" 
d="M427 740h-152l20 116h152zM643 740h-152l20 116h152zM656 0h-216l37 204h-272q-191 0 -158 192l53 304h216l-44 -250q-5 -31 5.5 -43t41.5 -12h192l53 305h216z" />
    <glyph glyph-name="uni04F5" unicode="&#x4f5;" horiz-adv-x="600" 
d="M255 576h-152l20 116h152zM471 576h-152l20 116h152zM72 536h203l-32 -175q-4 -25 4.5 -35t33.5 -10h133l38 220h204l-96 -536h-203l27 151h-214q-166 0 -138 166z" />
    <glyph glyph-name="uni04F8" unicode="&#x4f8;" horiz-adv-x="1076" 
d="M965 740h-152l20 116h152zM1181 740h-152l20 116h152zM0 0l124 700h216l-35 -200h272q191 0 157 -192l-23 -136q-17 -97 -61 -134q-47 -38 -142 -38h-508zM757 0l124 700h219l-124 -700h-219zM468 341h-192l-29 -174h196q30 0 42.5 11t17.5 42l12 66q5 31 -5.5 43
t-41.5 12z" />
    <glyph glyph-name="uni04F9" unicode="&#x4f9;" horiz-adv-x="961" 
d="M830 576h-152l20 116h152zM1046 576h-152l20 116h152zM-1 0l95 536h203l-26 -148h218q163 0 134 -162l-14 -80q-14 -81 -53 -113.5t-120 -32.5h-437zM863 0h-206l95 536h206zM382 258h-134l-21 -120h136q23 0 34 9t15 32l6 36q4 24 -4 33.5t-32 9.5z" />
    <glyph glyph-name="Wgrave" unicode="&#x1e80;" horiz-adv-x="1134" 
d="M672 864l49 -128h-146l-100 128h197zM779 298l196 402h233l-373 -700h-190l-61 383l-196 -383h-184l-126 700h227l54 -400l200 400h159z" />
    <glyph glyph-name="wgrave" unicode="&#x1e81;" horiz-adv-x="942" 
d="M539 700l49 -128h-146l-100 128h197zM636 255l136 281h216l-295 -536h-180l-43 278l-140 -278h-176l-104 536h203l39 -280l143 280h155z" />
    <glyph glyph-name="Wacute" unicode="&#x1e82;" horiz-adv-x="1134" 
d="M660 864h218l-143 -128h-168zM779 298l196 402h233l-373 -700h-190l-61 383l-196 -383h-184l-126 700h227l54 -400l200 400h159z" />
    <glyph glyph-name="wacute" unicode="&#x1e83;" horiz-adv-x="942" 
d="M527 700h218l-143 -128h-168zM636 255l136 281h216l-295 -536h-180l-43 278l-140 -278h-176l-104 536h203l39 -280l143 280h155z" />
    <glyph glyph-name="Wdieresis" unicode="&#x1e84;" horiz-adv-x="1134" 
d="M486 856h152l-20 -116h-152zM702 856h152l-20 -116h-152zM779 298l196 402h233l-373 -700h-190l-61 383l-196 -383h-184l-126 700h227l54 -400l200 400h159z" />
    <glyph glyph-name="wdieresis" unicode="&#x1e85;" horiz-adv-x="942" 
d="M353 692h152l-20 -116h-152zM569 692h152l-20 -116h-152zM636 255l136 281h216l-295 -536h-180l-43 278l-140 -278h-176l-104 536h203l39 -280l143 280h155z" />
    <glyph glyph-name="uni1E9E" unicode="&#x1e9e;" horiz-adv-x="809" 
d="M311 700h492l-15 -87l-168 -182h13q82 0 117.5 -42.5t21.5 -125.5l-20 -115q-14 -82 -53.5 -115t-121.5 -33h-278l29 159h168q24 0 34 9t15 34l9 51q5 25 -3.5 35.5t-34.5 10.5h-143l19 108l105 116h-131q-35 0 -51 -13.5t-22 -48.5l-82 -461h-216l90 508q19 104 71 148
t155 44z" />
    <glyph glyph-name="Ygrave" unicode="&#x1ef2;" horiz-adv-x="760" 
d="M477 864l49 -128h-146l-100 128h197zM594 700h250l-358 -444l-46 -256h-216l46 255l-202 445h238l100 -255z" />
    <glyph glyph-name="ygrave" unicode="&#x1ef3;" horiz-adv-x="678" 
d="M404 700l49 -128h-146l-100 128h197zM323 221l174 315h227l-345 -544q-63 -99 -112 -126q-50 -26 -160 -26h-125l29 161h114q49 0 68 19l-143 516h212z" />
    <glyph glyph-name="endash" unicode="&#x2013;" horiz-adv-x="640" 
d="M35 263l30 174h568l-30 -174h-568z" />
    <glyph glyph-name="emdash" unicode="&#x2014;" horiz-adv-x="900" 
d="M35 263l30 174h828l-30 -174h-828z" />
    <glyph glyph-name="quoteleft" unicode="&#x2018;" horiz-adv-x="332" 
d="M223 700h134l-94 -160h68l-35 -204h-236l13 76q15 84 61 151z" />
    <glyph glyph-name="quoteright" unicode="&#x2019;" horiz-adv-x="332" 
d="M197 336h-134l94 160h-68l35 204h236l-13 -76q-15 -84 -61 -151z" />
    <glyph glyph-name="quotesinglbase" unicode="&#x201a;" horiz-adv-x="332" 
d="M110 -160h-134l94 160h-68l35 204h236l-13 -76q-15 -84 -61 -151z" />
    <glyph glyph-name="quotedblleft" unicode="&#x201c;" horiz-adv-x="640" 
d="M223 700h134l-94 -160h68l-35 -204h-236l13 76q15 84 61 151zM531 700h134l-94 -160h68l-35 -204h-236l13 76q15 84 61 151z" />
    <glyph glyph-name="quotedblright" unicode="&#x201d;" horiz-adv-x="640" 
d="M197 336h-134l94 160h-68l35 204h236l-13 -76q-15 -84 -61 -151zM505 336h-134l94 160h-68l35 204h236l-13 -76q-15 -84 -61 -151z" />
    <glyph glyph-name="quotedblbase" unicode="&#x201e;" horiz-adv-x="640" 
d="M110 -160h-134l94 160h-68l35 204h236l-13 -76q-15 -84 -61 -151zM418 -160h-134l94 160h-68l35 204h236l-13 -76q-15 -84 -61 -151z" />
    <glyph glyph-name="dagger" unicode="&#x2020;" horiz-adv-x="422" 
d="M329 585h115l-21 -118h-115l-37 -209h-124l37 209h-115l21 118h115l20 115h124z" />
    <glyph glyph-name="daggerdbl" unicode="&#x2021;" horiz-adv-x="422" 
d="M446 594l-20 -114h-115l-18 -106h114l-20 -114h-114l-19 -106h-125l19 106h-115l20 114h115l18 106h-114l20 114h114l19 106h125l-19 -106h115z" />
    <glyph glyph-name="bullet" unicode="&#x2022;" horiz-adv-x="460" 
d="M299 168h-161q-52 0 -74.5 27.5t-13.5 79.5l28 161q9 52 35.5 74t78.5 22h160q106 0 88 -107l-28 -161q-9 -51 -35 -73.5t-78 -22.5z" />
    <glyph glyph-name="perthousand" unicode="&#x2030;" horiz-adv-x="1240" 
d="M412 510l-18 -108q-9 -54 -36.5 -77t-81.5 -23h-126q-53 0 -76 28.5t-14 81.5l18 108q9 54 36.5 77t81.5 23h126q108 0 90 -110zM189 0h-113l610 620h113zM199 399h55q18 0 26 7t11 25l11 59q3 19 -3.5 26t-25.5 7h-55q-18 0 -26 -7t-11 -25l-10 -59q-7 -33 28 -33z
M679 0h-126q-53 0 -76.5 28.5t-14.5 81.5l19 108q9 54 36.5 77t81.5 23h126q108 0 90 -110l-19 -108q-9 -54 -36.5 -77t-80.5 -23zM1059 0h-126q-53 0 -76.5 28.5t-14.5 81.5l19 108q9 54 36.5 77t81.5 23h126q108 0 90 -110l-19 -108q-9 -54 -36.5 -77t-80.5 -23zM601 97
h55q18 0 26 7t12 25l10 59q3 19 -3.5 26t-24.5 7h-55q-18 0 -26 -6.5t-11 -25.5l-11 -59q-6 -33 28 -33zM981 97h55q18 0 26 7t12 25l10 59q3 19 -3.5 26t-24.5 7h-55q-18 0 -26 -6.5t-11 -25.5l-11 -59q-6 -33 28 -33z" />
    <glyph glyph-name="guilsinglleft" unicode="&#x2039;" horiz-adv-x="436" 
d="M71 422l379 176l-30 -167l-200 -81l170 -92l-28 -156l-313 196z" />
    <glyph glyph-name="guilsinglright" unicode="&#x203a;" horiz-adv-x="436" 
d="M75 442l28 156l313 -196l-22 -124l-379 -176l30 167l200 81z" />
    <glyph glyph-name="fraction" unicode="&#x2044;" horiz-adv-x="212" 
d="M-137 0h-121l635 700h122z" />
    <glyph glyph-name="Euro" unicode="&#x20ac;" horiz-adv-x="772" 
d="M344 700h246q103 0 148 -54.5t27 -157.5l-14 -79h-200l11 65q7 35 -6 50t-49 15h-114q-35 0 -50.5 -13.5t-21.5 -49.5l-3 -17h174l-15 -83h-174l-9 -52h174l-15 -83h-173l-3 -15q-7 -35 6 -50t49 -15h113q36 0 51 13.5t22 49.5l13 74h200l-19 -106q-19 -104 -71 -148
t-155 -44h-246q-103 0 -148 54t-26 158l5 29h-74l15 83h74l9 52h-74l15 83h74l9 49q19 104 70.5 148t154.5 44z" />
    <glyph glyph-name="trademark" unicode="&#x2122;" horiz-adv-x="570" 
d="M325 700l-13 -68h-73l-30 -165h-77l30 165h-74l12 68h225zM462 583l93 117h67l-42 -233h-70l20 110l-61 -74h-39l-34 75l-20 -111h-71l42 233h64z" />
    <glyph glyph-name="minus" unicode="&#x2212;" 
d="M47 263l30 174h640l-30 -174h-640z" />
    <glyph glyph-name="approxequal" unicode="&#x2248;" 
d="M467 607l48 -103q7 -12 21 -12h13q15 0 18 15l29 167h171l-37 -210q-10 -53 -36 -75.5t-79 -22.5h-126q-53 0 -75 13q-24 14 -40 55l-49 102q-7 12 -21 12h-13q-14 0 -17 -15l-29 -167h-172l38 210q9 53 35 75.5t79 22.5h126q54 0 77 -13t39 -54zM407 267l48 -103
q7 -12 21 -12h13q15 0 18 15l29 167h171l-37 -210q-10 -53 -36 -75.5t-79 -22.5h-126q-53 0 -75 13q-24 14 -40 55l-49 102q-7 12 -21 12h-13q-14 0 -17 -15l-29 -167h-172l38 210q9 53 35 75.5t79 22.5h126q54 0 77 -13t39 -54z" />
    <glyph glyph-name="notequal" unicode="&#x2260;" 
d="M748 565l-29 -166h-227l-55 -98h265l-29 -166h-329l-60 -107h-149l60 107h-162l29 166h226l56 98h-265l29 166h329l60 107h148l-60 -107h163z" />
    <glyph glyph-name="lessequal" unicode="&#x2264;" 
d="M103 534l668 158l-32 -178l-410 -63l385 -77l-29 -168l-608 178zM650 8h-640l27 150h640z" />
    <glyph glyph-name="greaterequal" unicode="&#x2265;" 
d="M102 525l29 167l608 -178l-26 -150l-668 -158l32 179l412 63zM650 8h-640l27 150h640z" />
    <glyph glyph-name="fi" unicode="&#xfb01;" horiz-adv-x="801" 
d="M347 470h171l-28 -158h-171l-55 -312h-203l55 312h-96l28 158h96l14 80q15 82 55 116t122 34h224l-27 -152h-130q-24 0 -34 -9t-15 -34zM599 576l22 124h206l-22 -124h-206zM703 0h-206l95 536h206z" />
    <glyph glyph-name="fl" unicode="&#xfb02;" horiz-adv-x="801" 
d="M347 470h171l-28 -158h-171l-55 -312h-203l55 312h-96l28 158h96l14 80q15 82 55 116t122 34h224l-27 -152h-130q-24 0 -34 -9t-15 -34zM497 0l124 700h206l-124 -700h-206z" />
    <glyph glyph-name="null" horiz-adv-x="0" 
 />
    <glyph glyph-name="A.ss01" horiz-adv-x="796" 
d="M311 700h306q103 0 148.5 -54t26.5 -158l-87 -488h-216l30 167h-278l-30 -167h-216l91 508q19 104 70.5 148t154.5 44zM292 455l-21 -118h278l20 114q6 35 -6.5 50.5t-48.5 15.5h-149q-36 0 -51.5 -13.5t-21.5 -48.5z" />
    <glyph glyph-name="Aacute.ss01" horiz-adv-x="796" 
d="M491 864h218l-143 -128h-168zM311 700h306q103 0 148.5 -54t26.5 -158l-87 -488h-216l30 167h-278l-30 -167h-216l91 508q19 104 70.5 148t154.5 44zM292 455l-21 -118h278l20 114q6 35 -6.5 50.5t-48.5 15.5h-149q-36 0 -51.5 -13.5t-21.5 -48.5z" />
    <glyph glyph-name="Abreve.ss01" horiz-adv-x="796" 
d="M612 736h-260q-78 0 -64 77l9 51h134l-4 -24q-4 -25 22 -25h92q24 0 28 25l4 24h134l-9 -55q-6 -39 -26.5 -56t-59.5 -17zM311 700h306q103 0 148.5 -54t26.5 -158l-87 -488h-216l30 167h-278l-30 -167h-216l91 508q19 104 70.5 148t154.5 44zM292 455l-21 -118h278
l20 114q6 35 -6.5 50.5t-48.5 15.5h-149q-36 0 -51.5 -13.5t-21.5 -48.5z" />
    <glyph glyph-name="Acircumflex.ss01" horiz-adv-x="796" 
d="M563 736l-67 52l-85 -52h-150l144 128h194l100 -128h-136zM311 700h306q103 0 148.5 -54t26.5 -158l-87 -488h-216l30 167h-278l-30 -167h-216l91 508q19 104 70.5 148t154.5 44zM292 455l-21 -118h278l20 114q6 35 -6.5 50.5t-48.5 15.5h-149q-36 0 -51.5 -13.5
t-21.5 -48.5z" />
    <glyph glyph-name="Adieresis.ss01" horiz-adv-x="796" 
d="M317 856h152l-20 -116h-152zM533 856h152l-20 -116h-152zM311 700h306q103 0 148.5 -54t26.5 -158l-87 -488h-216l30 167h-278l-30 -167h-216l91 508q19 104 70.5 148t154.5 44zM292 455l-21 -118h278l20 114q6 35 -6.5 50.5t-48.5 15.5h-149q-36 0 -51.5 -13.5
t-21.5 -48.5z" />
    <glyph glyph-name="Agrave.ss01" horiz-adv-x="796" 
d="M503 864l49 -128h-146l-100 128h197zM311 700h306q103 0 148.5 -54t26.5 -158l-87 -488h-216l30 167h-278l-30 -167h-216l91 508q19 104 70.5 148t154.5 44zM292 455l-21 -118h278l20 114q6 35 -6.5 50.5t-48.5 15.5h-149q-36 0 -51.5 -13.5t-21.5 -48.5z" />
    <glyph glyph-name="Amacron.ss01" horiz-adv-x="796" 
d="M288 848h424l-17 -95h-424zM311 700h306q103 0 148.5 -54t26.5 -158l-87 -488h-216l30 167h-278l-30 -167h-216l91 508q19 104 70.5 148t154.5 44zM292 455l-21 -118h278l20 114q6 35 -6.5 50.5t-48.5 15.5h-149q-36 0 -51.5 -13.5t-21.5 -48.5z" />
    <glyph glyph-name="Aogonek.ss01" horiz-adv-x="796" 
d="M557 -28l-1 -7q-1 -19 16 -19h136l-19 -106h-187q-43 0 -59.5 20.5t-11.5 65.5l2 16q4 31 17 50t45 42l24 133h-278l-30 -167h-216l91 508q19 104 70.5 148t154.5 44h306q103 0 148.5 -54t26.5 -158l-87 -488h-124l-7 -5q-16 -10 -17 -23zM292 455l-21 -118h278l20 114
q6 35 -6.5 50.5t-48.5 15.5h-149q-36 0 -51.5 -13.5t-21.5 -48.5z" />
    <glyph glyph-name="Aring.ss01" horiz-adv-x="796" 
d="M572 726h-183q-57 0 -47 57l4 28q5 29 19 41t44 12h183q57 0 48 -57l-5 -28q-5 -29 -19 -41t-44 -12zM416 801l-2 -12q-2 -11 0.5 -14.5t13.5 -3.5h117q11 0 14.5 3t5.5 15l3 12q2 11 -1 14.5t-13 3.5h-118q-11 0 -14.5 -3t-5.5 -15zM311 700h306q103 0 148.5 -54
t26.5 -158l-87 -488h-216l30 167h-278l-30 -167h-216l91 508q19 104 70.5 148t154.5 44zM292 455l-21 -118h278l20 114q6 35 -6.5 50.5t-48.5 15.5h-149q-36 0 -51.5 -13.5t-21.5 -48.5z" />
    <glyph glyph-name="Aringacute.ss01" horiz-adv-x="796" 
d="M620 715l-3 -15q103 0 148.5 -54t26.5 -158l-87 -488h-216l30 167h-278l-30 -167h-216l91 508q19 104 70.5 148t154.5 44h14q0 1 2 19l5 28q5 29 19 41t43 12h22l44 64h223l-76 -69q25 -12 18 -52zM401 737l-2 -12q-2 -11 1 -14.5t13 -3.5h118q10 0 14 3.5t6 14.5l2 12
q2 11 -0.5 14.5t-13.5 3.5h-117q-11 0 -15 -3.5t-6 -14.5zM292 455l-21 -118h278l20 114q6 35 -6.5 50.5t-48.5 15.5h-149q-36 0 -51.5 -13.5t-21.5 -48.5z" />
    <glyph glyph-name="Atilde.ss01" horiz-adv-x="796" 
d="M395 789l-9 -53h-110l13 80q11 48 58 48h131q23 0 34.5 -5.5t21.5 -21.5l19 -28q5 -6 14 -6h12q7 0 9 8l9 53h111l-14 -80q-9 -48 -57 -48h-132q-24 0 -34.5 5t-21.5 22l-19 28q-5 6 -13 6h-12q-8 0 -10 -8zM311 700h306q103 0 148.5 -54t26.5 -158l-87 -488h-216l30 167
h-278l-30 -167h-216l91 508q19 104 70.5 148t154.5 44zM292 455l-21 -118h278l20 114q6 35 -6.5 50.5t-48.5 15.5h-149q-36 0 -51.5 -13.5t-21.5 -48.5z" />
    <glyph glyph-name="I.ss01" horiz-adv-x="580" 
d="M633 700l-30 -166h-156l-65 -368h157l-30 -166h-532l30 166h156l65 368h-157l30 166h532z" />
    <glyph glyph-name="Iacute.ss01" horiz-adv-x="580" 
d="M383 864h218l-143 -128h-168zM633 700l-30 -166h-156l-65 -368h157l-30 -166h-532l30 166h156l65 368h-157l30 166h532z" />
    <glyph glyph-name="Icircumflex.ss01" horiz-adv-x="580" 
d="M455 736l-67 52l-85 -52h-150l144 128h194l100 -128h-136zM633 700l-30 -166h-156l-65 -368h157l-30 -166h-532l30 166h156l65 368h-157l30 166h532z" />
    <glyph glyph-name="Idieresis.ss01" horiz-adv-x="580" 
d="M209 856h152l-20 -116h-152zM425 856h152l-20 -116h-152zM633 700l-30 -166h-156l-65 -368h157l-30 -166h-532l30 166h156l65 368h-157l30 166h532z" />
    <glyph glyph-name="Idotaccent.ss01" horiz-adv-x="580" 
d="M290 856h206l-19 -116h-207zM633 700l-30 -166h-156l-65 -368h157l-30 -166h-532l30 166h156l65 368h-157l30 166h532z" />
    <glyph glyph-name="Igrave.ss01" horiz-adv-x="580" 
d="M395 864l49 -128h-146l-100 128h197zM633 700l-30 -166h-156l-65 -368h157l-30 -166h-532l30 166h156l65 368h-157l30 166h532z" />
    <glyph glyph-name="Imacron.ss01" horiz-adv-x="580" 
d="M180 848h424l-17 -95h-424zM633 700l-30 -166h-156l-65 -368h157l-30 -166h-532l30 166h156l65 368h-157l30 166h532z" />
    <glyph glyph-name="Iogonek.ss01" horiz-adv-x="580" 
d="M633 700l-30 -166h-156l-65 -368h157l-30 -166h-137l-7 -5q-16 -10 -17 -23l-1 -7q-1 -19 16 -19h136l-19 -106h-187q-43 0 -59.5 20.5t-11.5 65.5l2 16q5 36 22 58h-269l30 166h156l65 368h-157l30 166h532z" />
    <glyph glyph-name="Itilde.ss01" horiz-adv-x="580" 
d="M287 789l-9 -53h-110l13 80q11 48 58 48h131q23 0 34.5 -5.5t21.5 -21.5l19 -28q4 -6 14 -6h12q7 0 9 8l9 53h111l-14 -80q-9 -48 -57 -48h-132q-24 0 -34.5 5t-21.5 22l-19 28q-5 6 -13 6h-12q-8 0 -10 -8zM633 700l-30 -166h-156l-65 -368h157l-30 -166h-532l30 166
h156l65 368h-157l30 166h532z" />
    <glyph glyph-name="R.ss01" horiz-adv-x="771" 
d="M124 700h516q80 0 115 -42.5t21 -123.5l-21 -121q-10 -52 -29.5 -81.5t-54.5 -42.5q55 -36 39 -129l-29 -160h-216l31 175q5 27 -5 38.5t-37 11.5h-198l-40 -225h-216zM510 541h-197l-29 -162h201q28 0 40 10t16 38l12 64q4 27 -6 38.5t-37 11.5z" />
    <glyph glyph-name="Racute.ss01" horiz-adv-x="771" 
d="M479 864h218l-143 -128h-168zM124 700h516q80 0 115 -42.5t21 -123.5l-21 -121q-10 -52 -29.5 -81.5t-54.5 -42.5q55 -36 39 -129l-29 -160h-216l31 175q5 27 -5 38.5t-37 11.5h-198l-40 -225h-216zM510 541h-197l-29 -162h201q28 0 40 10t16 38l12 64q4 27 -6 38.5
t-37 11.5z" />
    <glyph glyph-name="Rcaron.ss01" horiz-adv-x="771" 
d="M709 864l-144 -128h-194l-100 128h136l67 -52l85 52h150zM124 700h516q80 0 115 -42.5t21 -123.5l-21 -121q-10 -52 -29.5 -81.5t-54.5 -42.5q55 -36 39 -129l-29 -160h-216l31 175q5 27 -5 38.5t-37 11.5h-198l-40 -225h-216zM510 541h-197l-29 -162h201q28 0 40 10
t16 38l12 64q4 27 -6 38.5t-37 11.5z" />
    <glyph glyph-name="Rcommaaccent.ss01" horiz-adv-x="771" 
d="M124 700h516q80 0 115 -42.5t21 -123.5l-21 -121q-10 -52 -29.5 -81.5t-54.5 -42.5q55 -36 39 -129l-29 -160h-216l31 175q5 27 -5 38.5t-37 11.5h-198l-40 -225h-216zM510 541h-197l-29 -162h201q28 0 40 10t16 38l12 64q4 27 -6 38.5t-37 11.5zM279 -138h-58l19 108
h188l-6 -36q-6 -36 -15 -56q-8 -15 -38 -52l-47 -58h-112z" />
    <glyph glyph-name="i.loclTRK" horiz-adv-x="307" 
d="M312 576h-207l20 116h206zM209 0h-206l95 536h206z" />
    <glyph glyph-name="uni0410.ss01" horiz-adv-x="796" 
d="M311 700h306q103 0 148.5 -54t26.5 -158l-87 -488h-216l30 167h-278l-30 -167h-216l91 508q19 104 70.5 148t154.5 44zM292 455l-21 -118h278l20 114q6 35 -6.5 50.5t-48.5 15.5h-149q-36 0 -51.5 -13.5t-21.5 -48.5z" />
    <glyph glyph-name="uni042F.ss01" horiz-adv-x="771" 
d="M276 700h523l-124 -700h-216l40 225h-200q-27 0 -39 -10.5t-17 -37.5l-32 -177h-216l30 170q20 111 104 133q-76 25 -57 134l19 106q14 82 58.5 119.5t126.5 37.5zM299 493l-12 -64q-5 -27 4.5 -38.5t36.5 -11.5h198l29 162h-200q-27 0 -39 -10.5t-17 -37.5z" />
    <glyph glyph-name="uni044F.ss01" horiz-adv-x="666" 
d="M199 536h469l-96 -536h-203l30 169h-152q-19 0 -27 -7t-12 -27l-24 -135h-196l26 141q16 85 78 99q-56 23 -42 106l14 74q11 64 42 90t93 26zM258 372l-8 -45q-4 -19 2.5 -26.5t25.5 -7.5h143l20 111h-145q-19 0 -27 -6.5t-11 -25.5z" />
    <glyph glyph-name="zero.tf" 
d="M466 0h-256q-103 0 -148 54t-26 158l53 296q19 104 70.5 148t154.5 44h256q103 0 148.5 -54t26.5 -158l-53 -296q-19 -104 -71 -148t-155 -44zM305 177h116q35 0 50.5 13.5t21.5 49.5l38 218q6 35 -7 50t-49 15h-115q-36 0 -51 -13.5t-21 -49.5l-38 -218q-6 -35 7 -50
t48 -15z" />
    <glyph glyph-name="one.tf" 
d="M575 700l-94 -533h218l-31 -167h-680l31 167h253l61 348l-227 -20l30 175l341 30h98z" />
    <glyph glyph-name="two.tf" 
d="M678 170l-31 -170h-649l43 244q14 79 52 110q39 33 124 43l268 35q25 4 34.5 12.5t14.5 31.5l5 23q11 45 -39 45h-150q-24 0 -33.5 -8.5t-14.5 -33.5l-6 -31h-200l13 81q13 81 52.5 114.5t123.5 33.5h329q81 0 116.5 -43t22.5 -125l-16 -95q-12 -78 -50 -110
q-40 -32 -126 -44l-269 -35q-25 -3 -35 -11.5t-14 -32.5l-6 -34h441z" />
    <glyph glyph-name="three.tf" 
d="M279 700h328q164 0 137 -168l-9 -51q-9 -57 -31.5 -86.5t-64.5 -39.5q77 -32 59 -141l-11 -65q-13 -81 -53 -115t-122 -34h-347q-165 0 -138 168l14 85h200l-8 -48q-4 -25 4.5 -35.5t33.5 -10.5h168q24 0 34.5 9t15.5 34l6 41q4 25 -4 35t-33 10h-131l24 138h125
q24 0 34 9t15 34l5 27q5 24 -4 34.5t-34 10.5h-148q-25 0 -34.5 -8.5t-14.5 -34.5l-8 -43h-200l17 97q14 82 53.5 115t121.5 33z" />
    <glyph glyph-name="four.tf" 
d="M616 288h124l-29 -158h-123l-23 -130h-200l23 130h-397l24 133l425 437h249zM457 519l-224 -231h183z" />
    <glyph glyph-name="five.tf" 
d="M511 0h-508l30 170h407q25 0 34 8.5t14 34.5l5 28q5 24 -4 34.5t-34 10.5h-401l73 414h626l-31 -170h-418l-14 -86h279q81 0 116 -43t22 -125l-22 -128q-13 -81 -52.5 -114.5t-121.5 -33.5z" />
    <glyph glyph-name="six.tf" 
d="M721 530h-360q-36 0 -51.5 -13.5t-21.5 -48.5l-10 -59q33 33 108 33h183q81 0 116 -43t21 -125l-21 -125q-14 -83 -53.5 -116t-121.5 -33h-344q-81 0 -116 43t-21 125l59 340q18 104 70.5 148t155.5 44h438zM456 295h-155q-23 0 -34 -8t-16 -29l-9 -54q-4 -25 5 -35
t34 -10h156q24 0 34 9t15 34l8 48q4 25 -4.5 35t-33.5 10z" />
    <glyph glyph-name="seven.tf" 
d="M80 517l32 183h680l-30 -166l-288 -263q-29 -26 -42.5 -51t-22.5 -71l-26 -149h-212l27 157q17 90 40 135q24 45 84 96l148 129h-390z" />
    <glyph glyph-name="eight.tf" 
d="M279 700h328q164 0 137 -168l-9 -51q-9 -57 -31.5 -86.5t-64.5 -39.5q77 -32 59 -141l-11 -65q-13 -81 -53 -115t-122 -34h-348q-164 0 -137 168l11 65q10 61 35.5 91.5t74.5 38.5q-71 32 -53 138l9 51q13 81 53 114.5t122 33.5zM304 502l-7 -35q-5 -25 3.5 -35t34.5 -10
h140q25 0 35.5 8.5t14.5 33.5l6 36q4 25 -4.5 35t-33.5 10h-141q-24 0 -33.5 -9t-14.5 -34zM487 198l9 50q4 25 -4 35t-33 10h-160q-25 0 -35 -8.5t-15 -34.5l-9 -49q-4 -25 4.5 -35t33.5 -10h160q25 0 35 8.5t14 33.5z" />
    <glyph glyph-name="nine.tf" 
d="M271 700h344q81 0 116 -43t21 -125l-60 -340q-18 -104 -70 -148t-155 -44h-439l30 168h360q35 0 51 13.5t23 49.5l9 54q-33 -33 -108 -33h-183q-81 0 -116.5 43t-20.5 125l23 132q14 82 53.5 115t121.5 33zM323 399h155q40 0 49 31l11 63q4 25 -4.5 35t-33.5 10h-157
q-25 0 -34.5 -8.5t-14.5 -34.5l-9 -50q-4 -25 4.5 -35.5t33.5 -10.5z" />
    <glyph glyph-name="zero.subs" horiz-adv-x="473" 
d="M254 -100h-155q-63 0 -90 33t-16 96l30 173q10 63 42.5 90.5t95.5 27.5h155q63 0 90.5 -33t16.5 -97l-31 -172q-12 -64 -44 -91t-94 -27zM161 17h63q19 0 26.5 7t10.5 26l21 120q3 19 -3.5 26t-24.5 7h-63q-18 0 -26 -7t-11 -26l-20 -120q-3 -18 3 -25.5t24 -7.5z" />
    <glyph glyph-name="one.subs" horiz-adv-x="435" 
d="M306 320l-55 -310h115l-19 -110h-388l20 110h134l33 187l-119 -11l21 116l194 18h64z" />
    <glyph glyph-name="two.subs" horiz-adv-x="473" 
d="M386 11l-20 -111h-396l25 147q9 49 32.5 69t76.5 26l156 18q12 2 17 6.5t7 16.5l3 16q5 21 -19 21h-80q-12 0 -17 -4.5t-7 -17.5l-4 -20h-132l8 51q8 51 32 71t75 20h200q103 0 85 -105l-9 -51q-9 -48 -32 -68t-77 -27l-155 -18q-20 -1 -24 -23l-3 -17h258z" />
    <glyph glyph-name="three.subs" horiz-adv-x="469" 
d="M139 320h199q102 0 84 -102l-4 -28q-12 -68 -61 -78q50 -17 38 -85l-6 -35q-8 -51 -33 -71.5t-76 -20.5h-211q-100 0 -83 102l8 54h133l-5 -28q-2 -14 2 -18.5t17 -4.5h91q13 0 18 4t7 18l4 19q4 23 -20 23h-73l15 89h70q13 0 18 4t7 18l2 12q2 14 -2 18.5t-17 4.5h-79
q-24 0 -25 -22l-4 -24h-132l10 59q7 50 32 71t76 21z" />
    <glyph glyph-name="four.subs" horiz-adv-x="489" 
d="M358 77h74l-19 -104h-73l-13 -73h-132l13 73h-236l15 87l255 260h159zM248 195l-116 -118h95z" />
    <glyph glyph-name="five.subs" horiz-adv-x="452" 
d="M261 -100h-290l20 111h222q13 0 18.5 4t7.5 16l2 15q2 12 -2 16.5t-17 4.5h-222l45 253h364l-20 -111h-227l-6 -41h141q102 0 84 -103l-12 -74q-9 -51 -33 -71t-75 -20z" />
    <glyph glyph-name="six.subs" horiz-adv-x="471" 
d="M407 209h-215q-18 0 -25.5 -7t-11.5 -26l-5 -28q20 18 63 18h101q103 0 85 -103l-11 -72q-9 -51 -33.5 -71t-75.5 -20h-207q-103 0 -85 103l35 199q11 64 43 91t96 27h266zM241 73h-82q-21 0 -26 -20l-5 -26q-3 -23 20 -23h82q13 0 18.5 4.5t7.5 17.5l4 24q2 13 -2 18
t-17 5z" />
    <glyph glyph-name="seven.subs" horiz-adv-x="446" 
d="M11 199l21 121h400l-20 -110l-165 -155q-28 -26 -34 -67l-16 -88h-140l17 93q9 53 23 81q14 26 51 59l73 66h-210z" />
    <glyph glyph-name="eight.subs" horiz-adv-x="469" 
d="M140 320h197q101 0 85 -103l-5 -29q-6 -35 -20 -53t-40 -23q50 -20 38 -86l-6 -35q-9 -50 -33.5 -70.5t-74.5 -20.5h-210q-103 0 -85 104l6 34q7 38 22.5 56t45.5 22q-44 20 -34 84l5 29q8 51 33 71t76 20zM163 196l-3 -19q-3 -13 1 -18t18 -5h72q22 0 27 22l3 19
q2 13 -2 17.5t-18 4.5h-73q-13 0 -18 -4t-7 -17zM257 24l5 26q3 22 -19 22h-86q-13 0 -18.5 -4.5t-7.5 -17.5l-4 -25q-4 -22 20 -22h84q14 0 19 4t7 17z" />
    <glyph glyph-name="nine.subs" horiz-adv-x="471" 
d="M135 320h207q102 0 86 -103l-35 -199q-11 -64 -43.5 -91t-95.5 -27h-267l19 110h216q34 0 38 31l5 29q-19 -19 -65 -19h-101q-103 0 -85 104l13 74q9 51 33 71t75 20zM174 144h82q20 0 25 17l5 29q3 23 -20 23h-83q-24 0 -25 -22l-4 -24q-5 -23 20 -23z" />
    <glyph glyph-name="zero.dnom" horiz-adv-x="473" 
d="M272 0h-155q-63 0 -90 33t-16 96l30 173q10 63 42.5 90.5t95.5 27.5h155q63 0 90.5 -33t16.5 -97l-31 -172q-12 -64 -44 -91t-94 -27zM179 117h63q19 0 26.5 7t10.5 26l21 120q3 19 -3.5 26t-24.5 7h-63q-18 0 -26 -7t-11 -26l-20 -120q-3 -18 3 -25.5t24 -7.5z" />
    <glyph glyph-name="one.dnom" horiz-adv-x="435" 
d="M324 420l-55 -310h115l-19 -110h-388l20 110h134l33 187l-119 -11l21 116l194 18h64z" />
    <glyph glyph-name="two.dnom" horiz-adv-x="473" 
d="M404 111l-20 -111h-396l25 147q9 49 32.5 69t76.5 26l156 18q12 2 17 6.5t7 16.5l3 16q5 21 -19 21h-80q-12 0 -17 -4.5t-7 -17.5l-4 -20h-132l8 51q8 51 32 71t75 20h200q103 0 85 -105l-9 -51q-9 -48 -32 -68t-77 -27l-155 -18q-20 -1 -24 -23l-3 -17h258z" />
    <glyph glyph-name="three.dnom" horiz-adv-x="469" 
d="M157 420h199q102 0 84 -102l-4 -28q-12 -68 -61 -78q50 -17 38 -85l-6 -35q-8 -51 -33 -71.5t-76 -20.5h-211q-100 0 -83 102l8 54h133l-5 -28q-2 -14 2 -18.5t17 -4.5h91q13 0 18 4t7 18l4 19q4 23 -20 23h-73l15 89h70q13 0 18 4t7 18l2 12q2 14 -2 18.5t-17 4.5h-79
q-24 0 -25 -22l-4 -24h-132l10 59q7 50 32 71t76 21z" />
    <glyph glyph-name="four.dnom" horiz-adv-x="489" 
d="M376 177h74l-19 -104h-73l-13 -73h-132l13 73h-236l15 87l255 260h159zM266 295l-116 -118h95z" />
    <glyph glyph-name="five.dnom" horiz-adv-x="452" 
d="M279 0h-290l20 111h222q13 0 18.5 4t7.5 16l2 15q2 12 -2 16.5t-17 4.5h-222l45 253h364l-20 -111h-227l-6 -41h141q102 0 84 -103l-12 -74q-9 -51 -33 -71t-75 -20z" />
    <glyph glyph-name="six.dnom" horiz-adv-x="471" 
d="M425 309h-215q-18 0 -25.5 -7t-11.5 -26l-5 -28q20 18 63 18h101q103 0 85 -103l-11 -72q-9 -51 -33.5 -71t-75.5 -20h-207q-103 0 -85 103l35 199q11 64 43 91t96 27h266zM259 173h-82q-21 0 -26 -20l-5 -26q-3 -23 20 -23h82q13 0 18.5 4.5t7.5 17.5l4 24q2 13 -2 18
t-17 5z" />
    <glyph glyph-name="seven.dnom" horiz-adv-x="446" 
d="M29 299l21 121h400l-20 -110l-165 -155q-28 -26 -34 -67l-16 -88h-140l17 93q9 52 23 81q14 26 51 59l73 66h-210z" />
    <glyph glyph-name="eight.dnom" horiz-adv-x="469" 
d="M158 420h197q101 0 85 -103l-5 -29q-6 -35 -20 -53t-40 -23q50 -20 38 -86l-6 -35q-9 -50 -33.5 -70.5t-74.5 -20.5h-210q-103 0 -85 104l6 34q7 38 22.5 56t45.5 22q-44 20 -34 84l5 29q8 51 33 71t76 20zM181 296l-3 -19q-3 -13 1 -18t18 -5h72q22 0 27 22l3 19
q2 13 -2 17.5t-18 4.5h-73q-13 0 -18 -4t-7 -17zM275 124l5 26q3 22 -19 22h-86q-13 0 -18.5 -4.5t-7.5 -17.5l-4 -25q-4 -22 20 -22h84q14 0 19 4t7 17z" />
    <glyph glyph-name="nine.dnom" horiz-adv-x="471" 
d="M153 420h207q102 0 86 -103l-35 -199q-11 -64 -43.5 -91t-95.5 -27h-267l19 110h216q34 0 38 31l5 29q-19 -19 -65 -19h-101q-103 0 -85 104l13 74q9 51 33 71t75 20zM192 244h82q20 0 25 17l5 29q3 23 -20 23h-83q-24 0 -25 -22l-4 -24q-5 -23 20 -23z" />
    <glyph glyph-name="zero.numr" horiz-adv-x="473" 
d="M321 280h-155q-63 0 -90 33t-16 96l30 173q10 63 42.5 90.5t95.5 27.5h155q63 0 90.5 -33t16.5 -97l-31 -172q-12 -64 -44 -91t-94 -27zM228 397h63q19 0 26.5 7t10.5 26l21 120q3 19 -3.5 26t-24.5 7h-63q-18 0 -26 -7t-11 -26l-20 -120q-3 -18 3 -25.5t24 -7.5z" />
    <glyph glyph-name="one.numr" horiz-adv-x="435" 
d="M373 700l-55 -310h115l-19 -110h-388l20 110h134l33 187l-119 -11l21 116l194 18h64z" />
    <glyph glyph-name="two.numr" horiz-adv-x="473" 
d="M453 391l-20 -111h-396l25 147q9 49 32.5 69t76.5 26l156 18q12 2 17 6.5t7 16.5l3 16q4 21 -19 21h-80q-12 0 -17 -4.5t-7 -17.5l-4 -20h-132l8 51q8 51 32 71t75 20h200q103 0 85 -105l-9 -51q-9 -48 -32 -68t-77 -27l-155 -18q-20 -1 -24 -23l-3 -17h258z" />
    <glyph glyph-name="three.numr" horiz-adv-x="469" 
d="M206 700h199q102 0 84 -102l-4 -28q-12 -68 -61 -78q50 -17 38 -85l-6 -35q-8 -51 -33 -71.5t-76 -20.5h-211q-100 0 -83 102l8 54h133l-5 -28q-2 -14 2 -18.5t17 -4.5h91q13 0 18 4t7 18l4 19q4 23 -20 23h-73l15 89h70q13 0 18 4t7 18l2 12q2 14 -2 18.5t-17 4.5h-79
q-24 0 -25 -22l-4 -24h-132l10 59q7 50 32 71t76 21z" />
    <glyph glyph-name="four.numr" horiz-adv-x="489" 
d="M425 457h74l-19 -104h-73l-13 -73h-132l13 73h-236l15 87l255 260h159zM315 575l-116 -118h95z" />
    <glyph glyph-name="five.numr" horiz-adv-x="452" 
d="M328 280h-290l20 111h222q13 0 18.5 4t7.5 16l2 15q2 12 -2 16.5t-17 4.5h-222l45 253h364l-20 -111h-227l-6 -41h141q102 0 84 -103l-12 -74q-9 -51 -33 -71t-75 -20z" />
    <glyph glyph-name="six.numr" horiz-adv-x="471" 
d="M474 589h-215q-18 0 -25.5 -7t-11.5 -26l-5 -28q19 18 63 18h101q103 0 85 -103l-11 -72q-9 -51 -33.5 -71t-75.5 -20h-207q-103 0 -85 103l35 199q11 64 43 91t96 27h266zM308 453h-82q-21 0 -26 -20l-5 -26q-3 -23 20 -23h82q13 0 18.5 4.5t7.5 17.5l4 24q2 13 -2 18
t-17 5z" />
    <glyph glyph-name="seven.numr" horiz-adv-x="446" 
d="M78 579l21 121h400l-20 -110l-165 -155q-28 -26 -34 -67l-16 -88h-140l17 93q9 53 23 81q14 26 51 59l73 66h-210z" />
    <glyph glyph-name="eight.numr" horiz-adv-x="469" 
d="M207 700h197q101 0 85 -103l-5 -29q-6 -35 -20 -53t-40 -23q50 -20 38 -86l-6 -35q-9 -50 -33.5 -70.5t-74.5 -20.5h-210q-103 0 -85 104l6 34q7 38 22.5 56t45.5 22q-44 20 -34 84l5 29q8 51 33 71t76 20zM230 576l-3 -19q-3 -13 1 -18t18 -5h72q22 0 27 22l3 19
q2 13 -2 17.5t-18 4.5h-73q-13 0 -18 -4t-7 -17zM324 404l5 26q3 22 -19 22h-86q-13 0 -18.5 -4.5t-7.5 -17.5l-4 -25q-4 -22 20 -22h84q14 0 19 4t7 17z" />
    <glyph glyph-name="nine.numr" horiz-adv-x="471" 
d="M202 700h207q102 0 86 -103l-35 -199q-11 -64 -43.5 -91t-95.5 -27h-267l19 110h216q34 0 38 31l5 29q-19 -19 -65 -19h-101q-103 0 -85 104l13 74q9 51 33 71t75 20zM241 524h82q20 0 25 17l5 29q3 23 -20 23h-83q-24 0 -25 -22l-4 -24q-5 -23 20 -23z" />
    <glyph glyph-name="zero.sups" horiz-adv-x="473" 
d="M339 380h-155q-63 0 -90 33t-16 96l30 173q10 63 42.5 90.5t95.5 27.5h155q63 0 90.5 -33t16.5 -97l-31 -172q-12 -64 -44 -91t-94 -27zM246 497h63q19 0 26.5 7t10.5 26l21 120q3 19 -3.5 26t-24.5 7h-63q-18 0 -26 -7t-11 -26l-20 -120q-3 -18 3 -25.5t24 -7.5z" />
    <glyph glyph-name="one.sups" horiz-adv-x="435" 
d="M391 800l-55 -310h115l-19 -110h-388l20 110h134l33 187l-119 -11l21 116l194 18h64z" />
    <glyph glyph-name="two.sups" horiz-adv-x="473" 
d="M471 491l-20 -111h-396l25 147q9 49 32.5 69t76.5 26l156 18q12 2 17 6.5t7 16.5l3 16q4 21 -19 21h-80q-12 0 -17 -4.5t-7 -17.5l-4 -20h-132l8 51q8 51 32 71t75 20h200q103 0 85 -105l-9 -51q-9 -48 -32 -68t-77 -27l-155 -18q-20 -1 -24 -23l-3 -17h258z" />
    <glyph glyph-name="three.sups" horiz-adv-x="469" 
d="M224 800h199q102 0 84 -102l-4 -28q-12 -68 -61 -78q50 -17 38 -85l-6 -35q-8 -51 -33 -71.5t-76 -20.5h-211q-100 0 -83 102l8 54h133l-5 -28q-2 -14 2 -18.5t17 -4.5h91q13 0 18 4t7 18l4 19q4 23 -20 23h-73l15 89h70q13 0 18 4t7 18l2 12q2 14 -2 18.5t-17 4.5h-79
q-24 0 -25 -22l-4 -24h-132l10 59q7 50 32 71t76 21z" />
    <glyph glyph-name="four.sups" horiz-adv-x="489" 
d="M443 557h74l-19 -104h-73l-13 -73h-132l13 73h-236l15 87l255 260h159zM333 675l-116 -118h95z" />
    <glyph glyph-name="five.sups" horiz-adv-x="452" 
d="M346 380h-290l20 111h222q13 0 18.5 4t7.5 16l2 15q2 12 -2 16.5t-17 4.5h-222l45 253h364l-20 -111h-227l-6 -41h141q102 0 84 -103l-12 -74q-9 -51 -33 -71t-75 -20z" />
    <glyph glyph-name="six.sups" horiz-adv-x="471" 
d="M492 689h-215q-18 0 -25.5 -7t-11.5 -26l-5 -28q19 18 63 18h101q103 0 85 -103l-11 -72q-9 -51 -33.5 -71t-75.5 -20h-207q-103 0 -85 103l35 199q11 64 43 91t96 27h266zM326 553h-82q-21 0 -26 -20l-5 -26q-3 -23 20 -23h82q13 0 18.5 4.5t7.5 17.5l4 24q2 13 -2 18
t-17 5z" />
    <glyph glyph-name="seven.sups" horiz-adv-x="446" 
d="M96 679l21 121h400l-20 -110l-165 -155q-28 -26 -34 -67l-16 -88h-140l17 93q9 53 23 81q14 26 51 59l73 66h-210z" />
    <glyph glyph-name="eight.sups" horiz-adv-x="469" 
d="M225 800h197q101 0 85 -103l-5 -29q-6 -35 -20 -53t-40 -23q50 -20 38 -86l-6 -35q-9 -50 -33.5 -70.5t-74.5 -20.5h-210q-103 0 -85 104l6 34q7 38 22.5 56t45.5 22q-44 20 -34 84l5 29q8 51 33 71t76 20zM248 676l-3 -19q-3 -13 1 -18t18 -5h72q22 0 27 22l3 19
q2 13 -2 17.5t-18 4.5h-73q-13 0 -18 -4t-7 -17zM342 504l5 26q3 22 -19 22h-86q-13 0 -18.5 -4.5t-7.5 -17.5l-4 -25q-4 -22 20 -22h84q14 0 19 4t7 17z" />
    <glyph glyph-name="nine.sups" horiz-adv-x="471" 
d="M220 800h207q102 0 86 -103l-35 -199q-11 -64 -43.5 -91t-95.5 -27h-267l19 110h216q34 0 38 31l5 29q-19 -19 -65 -19h-101q-103 0 -85 104l13 74q9 51 33 71t75 20zM259 624h82q20 0 25 17l5 29q3 23 -20 23h-83q-24 0 -25 -22l-4 -24q-5 -23 20 -23z" />
    <glyph glyph-name="numbersign.numr" horiz-adv-x="471" 
d="M488 610l-15 -81h-59l-12 -78h60l-14 -81h-59l-14 -90h-97l14 90h-72l-14 -90h-98l14 90h-60l14 81h59l12 78h-60l15 81h58l14 90h98l-14 -90h72l14 90h97l-14 -90h61zM233 451h72l12 78h-72z" />
    <glyph glyph-name="numbersign.tf" 
d="M742 543l-22 -124h-104l-22 -138h105l-22 -124h-102l-25 -157h-149l25 157h-131l-25 -157h-149l25 157h-106l22 124h103l22 138h-104l22 124h101l25 157h149l-25 -157h131l25 157h149l-25 -157h107zM314 281h131l22 138h-131z" />
    <glyph glyph-name="cent.numr" horiz-adv-x="473" 
d="M356 700h40q118 0 97 -118l-5 -33h-132l2 15q3 15 -2.5 21t-21.5 6h-79q-15 0 -21 -5.5t-9 -20.5l-14 -78q-3 -15 2.5 -21t20.5 -6h80q15 0 21 5.5t9 20.5l3 20h132l-8 -48q-10 -60 -37.5 -83.5t-87.5 -23.5h-52l-10 -60h-85l10 60h-41q-120 0 -98 118l23 125
q11 59 38.5 82.5t85.5 23.5h54l11 60h85z" />
    <glyph glyph-name="dollar.numr" horiz-adv-x="472" 
d="M355 700h50q101 0 84 -102l-5 -31h-131l2 14q2 13 -2 18t-17 5h-79q-13 0 -18.5 -4.5t-7.5 -17.5l-1 -9q-2 -12 2 -16.5t17 -6.5l136 -14q52 -5 72.5 -29.5t11.5 -73.5l-11 -60q-9 -51 -33.5 -72t-74.5 -21h-69l-11 -60h-84l10 60h-59q-50 0 -72 26t-12 76l6 35h132
l-3 -18q-3 -13 1 -18t18 -5h93q13 0 18 4.5t8 18.5l2 14q3 12 -1 16.5t-18 6.5l-136 13q-52 5 -72.5 29.5t-12.5 73.5l10 55q8 51 33 72t76 21h62l11 60h85z" />
    <glyph glyph-name="Euro.numr" horiz-adv-x="485" 
d="M247 700h149q63 0 90.5 -33.5t16.5 -96.5l-8 -50h-132l6 41q3 19 -3.5 26t-24.5 7h-62q-18 0 -25.5 -7t-10.5 -25l-1 -6h92l-10 -53h-92l-4 -26h92l-10 -53h-92l-1 -5q-7 -33 28 -33h62q18 0 25.5 6.5t11.5 25.5l8 46h132l-12 -66q-11 -63 -43 -90.5t-95 -27.5h-150
q-62 0 -89.5 33t-16.5 96l3 15h-43l10 53h42l5 26h-42l9 53h42l5 26q11 64 43 91t95 27z" />
    <glyph glyph-name="florin.numr" horiz-adv-x="423" 
d="M449 583h-67q-18 0 -26.5 -6.5t-13.5 -25.5l-15 -53h96l-17 -88h-103l-28 -102q-18 -66 -52 -95t-96 -29h-112l21 117h67q18 0 26 7t13 26l21 76h-96l16 88h105l22 78q18 66 51.5 95t95.5 29h113z" />
    <glyph glyph-name="sterling.numr" horiz-adv-x="485" 
d="M253 700h142q63 0 90.5 -33.5t16.5 -96.5l-7 -38h-132l6 29q3 19 -3.5 26t-24.5 7h-62q-27 0 -32 -32l-5 -29h87l-13 -74h-88l-12 -68h102q13 0 18 4.5t7 17.5l6 37h132l-13 -76q-9 -51 -34.5 -72.5t-76.5 -21.5h-338l19 111h42l12 68h-48l13 74h48l9 49q11 64 43 91
t96 27z" />
    <glyph glyph-name="yen.numr" horiz-adv-x="471" 
d="M375 700h155l-163 -219h106l-10 -59h-132l-5 -32h131l-10 -59h-132l-9 -51h-137l9 51h-131l10 59h132l5 32h-131l10 59h107l-86 219h148l42 -136z" />
    <glyph glyph-name="cent.tf" 
d="M520 700h71q191 0 158 -192l-9 -50h-200l4 23q5 31 -5.5 43t-41.5 12h-144q-30 0 -42.5 -11t-17.5 -41l-24 -135q-6 -31 4.5 -43t41.5 -12h145q30 0 42.5 11t17.5 41l6 31h200l-14 -75q-16 -96 -61 -134q-46 -38 -141 -38h-91l-18 -100h-129l18 100h-76q-192 0 -158 192
l37 206q16 97 62 135q43 37 139 37h96l18 100h129z" />
    <glyph glyph-name="dollar.tf" 
d="M516 700h90q161 0 136 -166l-8 -49h-200l3 20q4 25 -4.5 34.5t-33.5 9.5h-148q-25 0 -35.5 -9.5t-14.5 -34.5l-2 -13q-4 -25 3 -33.5t30 -10.5l239 -25q84 -8 117 -47.5t19 -118.5l-18 -107q-14 -82 -54.5 -116t-122.5 -34h-118l-18 -100h-130l18 100h-104
q-163 0 -136 166l10 59h200l-5 -29q-4 -25 4.5 -34.5t34.5 -9.5h172q24 0 34.5 9.5t14.5 34.5l4 26q4 25 -2.5 34t-29.5 11l-239 24q-85 9 -118 48t-19 118l16 93q14 82 54.5 116t122.5 34h108l18 100h130z" />
    <glyph glyph-name="Euro.tf" 
d="M350 700h236q103 0 148 -54.5t27 -157.5l-14 -79h-200l11 65q7 35 -6 50t-49 15h-104q-35 0 -50.5 -13.5t-21.5 -49.5l-3 -17h164l-15 -83h-164l-9 -52h164l-15 -83h-163l-3 -15q-7 -35 6 -50t49 -15h103q36 0 51 13.5t22 49.5l13 74h200l-19 -106q-19 -104 -71 -148
t-155 -44h-236q-103 0 -148 54t-26 158l5 29h-64l15 83h64l9 52h-64l15 83h64l9 49q19 104 70.5 148t154.5 44z" />
    <glyph glyph-name="florin.tf" 
d="M741 523h-127q-35 0 -51.5 -13.5t-27.5 -50.5l-28 -101h185l-24 -136h-199l-51 -180q-30 -108 -84 -155t-153 -47h-201l32 177h127q35 0 51.5 13.5t27.5 50.5l40 141h-190l24 136h204l39 140q30 108 83.5 155t152.5 47h201z" />
    <glyph glyph-name="sterling.tf" 
d="M344 700h227q103 0 148 -54.5t27 -157.5l-11 -61h-201l9 47q7 35 -6.5 50t-49.5 15h-102q-30 0 -44 -13.5t-20 -49.5l-11 -61h154l-19 -113h-155l-23 -133h180q24 0 34.5 9t15.5 34l11 62h200l-21 -122q-14 -82 -56 -117t-124 -35h-542l30 169h64l23 133h-73l19 113h74
l17 93q19 104 70.5 148t154.5 44z" />
    <glyph glyph-name="yen.tf" 
d="M577 700h235l-282 -370h187l-16 -92h-227l-10 -60h226l-16 -92h-227l-15 -86h-208l15 86h-225l16 92h226l10 60h-225l16 92h186l-151 370h224l86 -252z" />
    <glyph glyph-name="percent.numr" horiz-adv-x="538" 
d="M220 503h-83q-65 0 -54 65l12 72q5 32 21.5 46t48.5 14h84q66 0 54 -66l-13 -72q-5 -32 -21.5 -45.5t-48.5 -13.5zM152 280h-72l383 420h72zM169 565h36q15 0 18 17l7 39q1 10 -1.5 12.5t-12.5 2.5h-35q-16 0 -19 -15l-7 -40q-3 -16 14 -16zM450 280h-84q-64 0 -54 66
l13 72q6 32 22 45.5t48 13.5h83q66 0 54 -66l-12 -71q-6 -32 -22 -46t-48 -14zM399 343h36q14 0 17 15l8 41q1 9 -2 12t-12 3h-36q-14 0 -18 -15l-7 -41q-4 -15 14 -15z" />
    <glyph glyph-name="perthousand.numr" horiz-adv-x="772" 
d="M220 503h-83q-65 0 -54 65l12 72q5 32 21.5 46t48.5 14h84q66 0 54 -66l-13 -72q-5 -32 -21.5 -45.5t-48.5 -13.5zM152 280h-72l383 420h72zM169 565h36q15 0 18 17l7 39q1 10 -1.5 12.5t-12.5 2.5h-35q-16 0 -19 -15l-7 -40q-3 -16 14 -16zM450 280h-84q-64 0 -54 66
l13 72q6 32 22 45.5t48 13.5h83q66 0 54 -66l-12 -71q-6 -32 -22 -46t-48 -14zM684 280h-84q-64 0 -54 66l13 72q6 32 22 45.5t48 13.5h83q66 0 54 -66l-12 -71q-6 -32 -22 -46t-48 -14zM399 343h36q14 0 17 15l8 41q1 9 -2 12t-12 3h-36q-14 0 -18 -15l-7 -41
q-4 -15 14 -15zM633 343h36q14 0 17 15l8 41q1 9 -2 12t-12 3h-36q-14 0 -18 -15l-7 -41q-5 -15 14 -15z" />
    <glyph glyph-name="percent.tf" horiz-adv-x="860" 
d="M436 590l-20 -118q-10 -54 -37.5 -77t-80.5 -23h-136q-53 0 -76.5 28.5t-13.5 81.5l20 118q10 54 37.5 77t80.5 23h136q53 0 76.5 -28t13.5 -82zM179 0h-113l644 700h113zM211 469h65q18 0 26 7t11 25l13 69q3 19 -3.5 26t-25.5 7h-65q-18 0 -26 -7t-11 -25l-12 -69
q-7 -33 28 -33zM679 0h-136q-53 0 -76.5 28.5t-14.5 81.5l21 118q10 54 37.5 77t80.5 23h136q53 0 76.5 -28t13.5 -82l-21 -118q-10 -54 -37 -77t-80 -23zM591 97h65q18 0 26 7t12 25l12 69q3 19 -3.5 26t-24.5 7h-65q-18 0 -26 -6.5t-11 -25.5l-13 -69q-6 -33 28 -33z" />
    <glyph glyph-name="perthousand.tf" horiz-adv-x="1250" 
d="M436 590l-20 -118q-10 -54 -37.5 -77t-80.5 -23h-136q-53 0 -76.5 28.5t-13.5 81.5l20 118q10 54 37.5 77t80.5 23h136q53 0 76.5 -28t13.5 -82zM179 0h-113l644 700h113zM211 469h65q18 0 26 7t11 25l13 69q3 19 -3.5 26t-25.5 7h-65q-18 0 -26 -7t-11 -25l-12 -69
q-7 -33 28 -33zM679 0h-136q-53 0 -76.5 28.5t-14.5 81.5l21 118q10 54 37.5 77t80.5 23h136q53 0 76.5 -28t13.5 -82l-21 -118q-10 -54 -37 -77t-80 -23zM1069 0h-136q-53 0 -76.5 28.5t-14.5 81.5l21 118q10 54 37.5 77t80.5 23h136q53 0 76.5 -28t13.5 -82l-21 -118
q-10 -54 -37 -77t-80 -23zM591 97h65q18 0 26 7t12 25l12 69q3 19 -3.5 26t-24.5 7h-65q-18 0 -26 -6.5t-11 -25.5l-13 -69q-6 -33 28 -33zM981 97h65q18 0 26 7t12 25l12 69q3 19 -3.5 26t-24.5 7h-65q-18 0 -26 -6.5t-11 -25.5l-13 -69q-6 -33 28 -33z" />
    <glyph glyph-name="brevecombcy" horiz-adv-x="0" 
d="M-67 572h-260q-78 0 -64 77l9 51h134l-4 -24q-4 -25 22 -25h92q24 0 28 25l4 24h134l-9 -55q-6 -39 -26.5 -56t-59.5 -17z" />
    <glyph glyph-name="ringacutecomb" horiz-adv-x="382" 
d="M450 700l-76 -69q25 -12 18 -52l-5 -28q-5 -30 -18.5 -41.5t-43.5 -11.5h-183q-58 0 -48 57l5 28q5 29 19 41t43 12h22l44 64h223zM318 561l2 12q2 11 -0.5 14.5t-13.5 3.5h-117q-11 0 -15 -3.5t-6 -14.5l-2 -12q-2 -11 1 -14.5t13 -3.5h118q10 0 14 3.5t6 14.5z" />
    </font>
</defs>
</svg>
