<?xml version="1.0" standalone="no"?>
<!DOCTYPE svg PUBLIC "-//W3C//DTD SVG 1.1//EN" "http://www.w3.org/Graphics/SVG/1.1/DTD/svg11.dtd" >
<svg xmlns="http://www.w3.org/2000/svg" xmlns:xlink="http://www.w3.org/1999/xlink" version="1.1">
<metadata>
Created by FontForge 20170731 at Thu Jun 30 17:45:10 2016
 By Aleksey,,,
@ 2016 Richard Miller
</metadata>
<defs>
<font id="TacticSans-BldIt" horiz-adv-x="752" >
  <font-face 
    font-family="TacticSans-BldIt"
    font-weight="400"
    font-style="italic"
    font-stretch="normal"
    units-per-em="1000"
    panose-1="0 0 8 0 0 0 0 0 0 0"
    ascent="814"
    descent="-186"
    x-height="532"
    cap-height="700"
    bbox="-897 -214 1327 868"
    underline-thickness="50"
    underline-position="-200"
    slope="-10"
    unicode-range="U+0020-FB02"
  />
<missing-glyph horiz-adv-x="720" 
d="M-37 0l124 700h700l-124 -700h-700zM274 350l-199 -169l88 -107l199 169l139 -169l126 107l-139 169l199 169l-88 107l-199 -169l-139 169l-126 -107z" />
    <glyph glyph-name="ellipsis" unicode="&#x2e;&#x2e;&#x2e;" horiz-adv-x="1024" 
d="M201 0h-192l32 180h192zM561 0h-192l32 180h192zM921 0h-192l32 180h192z" />
    <glyph glyph-name="blackbox.liga" unicode="[&#x2b;]" horiz-adv-x="984" 
d="M157 0v700h700v-700h-700z" />
    <glyph glyph-name="checkbox.liga" unicode="[]" horiz-adv-x="984" 
d="M157 0v700h700v-700h-700zM772 619h-531v-538h531v538z" />
    <glyph glyph-name="checkround.liga" unicode="&#x28;&#x29;" horiz-adv-x="892" 
d="M717 95q-105 -105 -256 -105t-255 105q-105 103 -105 255q0 151 105 256q104 104 255 104q150 0 256 -104q104 -106 104 -256q0 -151 -104 -255zM265 152q79 -81 196 -81t196 81q79 80 79 198t-79 198q-79 81 -196 81t-196 -81q-80 -82 -80 -198t80 -198z" />
    <glyph glyph-name="checkstar.liga" unicode="&#x7b;&#x7d;" horiz-adv-x="938" 
d="M407 437l92 283l92 -283h297l-240 -174l91 -283l-240 175l-240 -175l91 283l-240 174h297zM544 373l-45 141l-46 -141h-148l120 -86l-45 -140l119 86l118 -86l-45 140l120 86h-148z" />
    <glyph glyph-name="blackround.liga" unicode="&#x28;&#x2b;&#x29;" horiz-adv-x="892" 
d="M717 95q-105 -105 -256 -105t-255 105q-105 103 -105 255q0 151 105 256q104 104 255 104q150 0 256 -104q104 -106 104 -256q0 -151 -104 -255z" />
    <glyph glyph-name="filledstar.liga" unicode="&#x7b;&#x2b;&#x7d;" horiz-adv-x="938" 
d="M407 437l92 283l92 -283h297l-240 -174l91 -283l-240 175l-240 -175l91 283l-240 174h297z" />
    <glyph glyph-name="ff.liga" unicode="ff" horiz-adv-x="884" 
d="M925 580h-141q-31 0 -44 -11.5t-18 -42.5l-10 -59h194l-23 -127h-194l-60 -340h-162l60 340h-236l-60 -340h-162l60 340h-102l23 127h101l16 91q14 78 52.5 110t115.5 32h186l-22 -120h-113q-31 0 -44 -11.5t-18 -42.5l-10 -59h235l16 91q14 78 52.5 110t115.5 32h214z
" />
    <glyph glyph-name=".notdef" horiz-adv-x="720" 
d="M-37 0l124 700h700l-124 -700h-700zM274 350l-199 -169l88 -107l199 169l139 -169l126 107l-139 169l199 169l-88 107l-199 -169l-139 169l-126 -107z" />
    <glyph glyph-name=".null" horiz-adv-x="0" 
 />
    <glyph glyph-name="nonmarkingreturn" horiz-adv-x="333" 
 />
    <glyph glyph-name="space" unicode=" " horiz-adv-x="300" 
 />
    <glyph glyph-name="exclam" unicode="!" horiz-adv-x="304" 
d="M84 226l51 474h187l-117 -474h-121zM201 0h-192l29 162h192z" />
    <glyph glyph-name="quotedbl" unicode="&#x22;" horiz-adv-x="468" 
d="M76 372l57 328h136l-57 -328h-136zM296 372l57 328h136l-57 -328h-136z" />
    <glyph glyph-name="numbersign" unicode="#" 
d="M727 480l-18 -102h-113l-24 -136h112l-18 -102h-112l-25 -140h-123l25 140h-155l-25 -140h-122l25 140h-113l18 102h113l24 136h-113l18 102h113l25 140h122l-25 -140h155l25 140h123l-25 -140h113zM294 242h155l24 136h-155z" />
    <glyph glyph-name="dollar" unicode="$" 
d="M504 700h100q155 0 129 -158l-7 -46h-160l2 15q4 31 -7.5 43.5t-42.5 12.5h-186q-30 0 -43.5 -12.5t-18.5 -43.5l-2 -13q-4 -31 3.5 -42t34.5 -14l261 -28q79 -9 111 -46t19 -112l-20 -114q-13 -78 -51 -110t-116 -32h-128l-18 -100h-107l18 100h-113q-155 0 -129 158
l9 58h160l-4 -27q-4 -31 7 -43.5t43 -12.5h210q31 0 44 12t18 44l5 31q5 31 -2.5 43t-35.5 15l-261 28q-80 9 -111.5 45t-18.5 111l17 96q13 78 51 110t116 32h117l18 100h107z" />
    <glyph glyph-name="percent" unicode="%" horiz-adv-x="860" 
d="M412 509l-18 -106q-9 -53 -36.5 -76t-80.5 -23h-122q-53 0 -76 28.5t-14 82.5l18 106q9 54 36 76.5t81 22.5h122q108 0 90 -111zM177 0h-98l619 620h98zM194 386h66q23 0 33.5 9t14.5 31l12 69q4 23 -4.5 33t-32.5 10h-66q-23 0 -33.5 -8.5t-14.5 -31.5l-12 -69
q-7 -43 37 -43zM676 0h-122q-53 0 -76.5 29t-14.5 82l18 106q9 54 36 76.5t81 22.5h122q53 0 76.5 -28.5t14.5 -82.5l-19 -106q-9 -53 -36 -76t-80 -23zM592 82h66q24 0 34 8.5t14 31.5l12 69q4 23 -4.5 33t-31.5 10h-67q-23 0 -33 -8.5t-14 -31.5l-13 -69q-7 -43 37 -43z
" />
    <glyph glyph-name="ampersand" unicode="&#x26;" horiz-adv-x="822" 
d="M326 417h507l-19 -113h-100l-29 -163q-13 -78 -50.5 -109.5t-115.5 -31.5h-361q-77 0 -110.5 41t-20.5 119l14 80q11 64 39 93.5t83 34.5q-65 35 -47 132l11 59q14 78 51 109.5t115 31.5h301q77 0 110.5 -41t20.5 -119l-7 -42h-160l3 19q5 32 -6.5 45.5t-42.5 13.5h-164
q-31 0 -44 -11t-18 -43l-8 -47q-5 -31 6 -44.5t42 -13.5zM532 178l22 126h-283q-31 0 -44.5 -11t-18.5 -43l-11 -67q-5 -32 6.5 -45.5t42.5 -13.5h224q31 0 44 11t18 43z" />
    <glyph glyph-name="quotesingle" unicode="'" horiz-adv-x="248" 
d="M76 372l57 328h136l-57 -328h-136z" />
    <glyph glyph-name="parenleft" unicode="(" horiz-adv-x="424" 
d="M332 -100h-87q-118 0 -174 67t-35 186l75 420q21 120 83.5 173.5t182.5 53.5h113l-22 -128h-86q-58 0 -88.5 -26.5t-40.5 -83.5l-74 -414q-10 -58 15.5 -89t83.5 -31h76z" />
    <glyph glyph-name="parenright" unicode=")" horiz-adv-x="424" 
d="M122 800h87q118 0 174 -67t35 -186l-75 -420q-21 -120 -83.5 -173.5t-182.5 -53.5h-113l22 128h86q58 0 88.5 26.5t40.5 83.5l74 414q10 58 -15.5 89t-83.5 31h-76z" />
    <glyph glyph-name="asterisk" unicode="*" horiz-adv-x="468" 
d="M456 588l15 -100l-133 -8l67 -115l-90 -44l-50 124l-88 -99l-70 71l102 85l-121 54l47 88l112 -70l14 132l98 -17l-32 -129z" />
    <glyph glyph-name="plus" unicode="+" 
d="M476 420h241l-24 -140h-242l-42 -236h-145l42 236h-241l24 140h241l42 236h146z" />
    <glyph glyph-name="comma" unicode="," horiz-adv-x="304" 
d="M88 -160h-108l86 160h-57l32 180h192l-14 -78q-10 -64 -49 -123z" />
    <glyph glyph-name="hyphen" unicode="-" horiz-adv-x="420" 
d="M45 280l24 140h336l-24 -140h-336z" />
    <glyph glyph-name="period" unicode="." horiz-adv-x="304" 
d="M201 0h-192l32 180h192z" />
    <glyph glyph-name="slash" unicode="/" horiz-adv-x="491" 
d="M-60 -100l523 900h118l-523 -900h-118z" />
    <glyph glyph-name="zero" unicode="0" 
d="M465 0h-252q-99 0 -142.5 52.5t-25.5 151.5l56 312q18 100 67.5 142t148.5 42h252q99 0 142.5 -52.5t25.5 -151.5l-56 -312q-18 -100 -67.5 -142t-148.5 -42zM287 142h142q46 0 65.5 17t27.5 63l44 251q7 46 -9.5 65.5t-61.5 19.5h-143q-45 0 -65 -17t-27 -63l-44 -251
q-8 -46 8.5 -65.5t62.5 -19.5z" />
    <glyph glyph-name="one" unicode="1" horiz-adv-x="692" 
d="M526 700l-100 -566h211l-24 -134h-628l24 134h250l73 417l-224 -21l25 140l315 30h78z" />
    <glyph glyph-name="two" unicode="2" 
d="M663 140l-25 -140h-629l41 237q14 75 49 104q36 30 118 42l288 41q31 4 43 15t19 41l6 27q14 59 -50 59h-188q-31 0 -43.5 -10.5t-17.5 -42.5l-5 -29h-160l12 76q13 77 50.5 108.5t115.5 31.5h325q77 0 111 -41t21 -120l-16 -98q-12 -74 -48 -104q-38 -30 -119 -42
l-289 -41q-33 -5 -45 -15.5t-17 -40.5l-10 -58h463z" />
    <glyph glyph-name="three" unicode="3" 
d="M282 700h323q77 0 110.5 -41t20.5 -119l-11 -60q-9 -55 -30.5 -83.5t-61.5 -38.5q73 -31 57 -137l-14 -80q-13 -78 -50.5 -109.5t-115.5 -31.5h-343q-77 0 -110.5 41t-20.5 119l13 80h160l-8 -51q-5 -31 6 -45t42 -14h206q31 0 44.5 11t18.5 43l9 58q5 32 -6 45t-42 13
h-149l21 120h145q31 0 44 11.5t18 42.5l6 37q5 32 -6 45.5t-42 13.5h-186q-31 0 -44 -11t-18 -43l-8 -48h-160l16 91q13 78 50.5 109.5t115.5 31.5z" />
    <glyph glyph-name="four" unicode="4" horiz-adv-x="782" 
d="M612 274h140l-23 -127h-140l-26 -147h-160l26 147h-418l19 107l464 446h193zM501 553l-292 -279h242z" />
    <glyph glyph-name="five" unicode="5" horiz-adv-x="722" 
d="M479 0h-466l25 140h388q31 0 43 10.5t18 42.5l9 50q6 31 -5.5 45t-43.5 14h-380l70 398h576l-26 -140h-410l-20 -122h279q76 0 110 -41.5t21 -119.5l-23 -137q-13 -77 -50 -108.5t-115 -31.5z" />
    <glyph glyph-name="six" unicode="6" 
d="M716 560h-366q-45 0 -64.5 -17t-27.5 -62l-13 -74q35 33 108 33h213q77 0 110.5 -41t20.5 -119l-24 -139q-13 -78 -50.5 -109.5t-115.5 -31.5h-340q-77 0 -110 41t-20 119l62 356q17 100 67 142t149 42h426zM477 308h-194q-29 0 -42.5 -9.5t-20.5 -34.5l-12 -72
q-5 -31 6 -44.5t43 -13.5h196q31 0 44 11t18 42l10 63q5 31 -6 44.5t-42 13.5z" />
    <glyph glyph-name="seven" unicode="7" horiz-adv-x="712" 
d="M83 554l26 146h648l-24 -132l-292 -274q-35 -32 -48 -60q-14 -30 -23 -80l-27 -154h-170l29 161q15 82 38 129q23 46 79 96l183 168h-419z" />
    <glyph glyph-name="eight" unicode="8" 
d="M281 700h324q77 0 110.5 -41t20.5 -119l-11 -60q-9 -55 -30.5 -83.5t-61.5 -38.5q73 -31 57 -137l-14 -80q-13 -78 -50.5 -109.5t-115.5 -31.5h-344q-77 0 -110 41t-20 119l13 80q10 59 35 88.5t72 37.5q-69 32 -51 134l10 59q13 78 50.5 109.5t115.5 31.5zM275 520
l-9 -45q-6 -31 5.5 -44.5t43.5 -13.5h180q31 0 44.5 11t18.5 42l8 45q5 31 -6 44.5t-43 13.5h-181q-30 0 -42.5 -11t-18.5 -42zM516 180l12 66q5 31 -6 44.5t-42 13.5h-200q-31 0 -44 -11t-19 -43l-12 -65q-6 -31 5.5 -44.5t43.5 -13.5h200q31 0 44 11t18 42z" />
    <glyph glyph-name="nine" unicode="9" 
d="M273 700h340q77 0 110.5 -41t20.5 -119l-63 -356q-17 -100 -67 -142t-149 -42h-427l25 140h366q44 0 64.5 17t28.5 62l12 69q-34 -34 -109 -34h-213q-77 0 -111 41t-20 119l26 145q14 78 51 109.5t115 31.5zM301 386h195q28 0 42.5 9.5t20.5 32.5l14 79q5 32 -6.5 45.5
t-42.5 13.5h-197q-31 0 -43.5 -11t-18.5 -43l-12 -67q-12 -59 48 -59z" />
    <glyph glyph-name="colon" unicode=":" horiz-adv-x="304" 
d="M265 364h-192l30 168h192zM201 0h-192l30 168h192z" />
    <glyph glyph-name="semicolon" unicode=";" horiz-adv-x="304" 
d="M265 364h-192l30 168h192zM88 -160h-108l86 160h-57l30 168h192l-11 -66q-14 -70 -50 -123z" />
    <glyph glyph-name="less" unicode="&#x3c;" 
d="M91 430l669 232l-28 -154l-481 -158l423 -174l-24 -138l-583 252z" />
    <glyph glyph-name="equal" unicode="=" 
d="M88 412l23 134h628l-23 -134h-628zM43 154l23 134h628l-23 -134h-628z" />
    <glyph glyph-name="greater" unicode="&#x3e;" 
d="M108 524l24 138l583 -252l-24 -140l-669 -232l28 154l481 158z" />
    <glyph glyph-name="question" unicode="?" horiz-adv-x="678" 
d="M378 208h-155l15 80q10 62 35 87t94 41l90 22q30 7 43 19t17 36l3 17q11 56 -48 56h-172q-29 0 -41.5 -11t-17.5 -41l-7 -38h-160l14 83q13 78 50 109.5t115 31.5h306q77 0 110.5 -40.5t20.5 -118.5l-11 -68q-11 -66 -44 -97q-35 -32 -114 -51l-84 -21q-27 -7 -37 -17.5
t-15 -37.5zM360 0h-192l26 144h192z" />
    <glyph glyph-name="at" unicode="@" horiz-adv-x="878" 
d="M305 700h395q99 0 143.5 -54t27.5 -154l-36 -202q-11 -66 -43 -93t-98 -27h-61q-72 0 -91 49l-4 -3q-41 -32 -68 -39q-28 -9 -79 -9h-44q-123 0 -101 124l22 122q11 64 42.5 91t93.5 27h43q48 0 75 -8q25 -9 53 -37l17 40h95l-41 -234q-7 -39 29 -39h15q28 0 39 9t16 36
l34 194q11 65 -12.5 94t-88.5 29h-367q-64 0 -92 -23q-27 -23 -38 -88l-52 -298q-11 -65 12.5 -94t88.5 -29h505l-15 -84h-512q-99 0 -144 54t-27 154l55 311q18 101 66 141q47 40 147 40zM511 278l21 14l20 117l-15 14q-19 18 -68 18h-40q-26 0 -36 -9t-15 -36l-15 -89
q-5 -28 2.5 -38t34.5 -10h41q44 0 70 19z" />
    <glyph glyph-name="A" unicode="A" horiz-adv-x="812" 
d="M764 0h-180l-29 129h-336l-74 -129h-193l434 700h193zM462 552l-169 -295h234z" />
    <glyph glyph-name="B" unicode="B" horiz-adv-x="768" 
d="M129 700h492q75 0 108.5 -41t20.5 -117l-10 -60q-9 -54 -29.5 -83t-57.5 -39q79 -28 61 -137l-14 -81q-13 -78 -51 -110t-116 -32h-528zM524 568h-247l-26 -150h253q31 0 43.5 11t18.5 43l7 37q12 59 -49 59zM536 186l11 58q12 59 -49 59h-267l-30 -171h273q31 0 43.5 11
t18.5 43z" />
    <glyph glyph-name="C" unicode="C" horiz-adv-x="776" 
d="M500 0h-296q-99 0 -142.5 52.5t-25.5 151.5l56 312q18 100 67.5 142t148.5 42h296q99 0 142.5 -52.5t25.5 -151.5l-13 -72h-166l8 46q8 46 -8.5 66t-61.5 20h-181q-45 0 -65.5 -17.5t-27.5 -62.5l-44 -246q-8 -46 8.5 -66t61.5 -20h181q45 0 65 17t28 63l11 59h166
l-18 -99q-18 -100 -67.5 -142t-148.5 -42z" />
    <glyph glyph-name="D" unicode="D" horiz-adv-x="803" 
d="M483 0h-474l124 700h446q116 0 173 -68.5t36 -185.5l-39 -220q-21 -118 -85 -172t-181 -54zM279 554l-72 -408h257q53 0 80 23t37 76l34 199q20 110 -90 110h-246z" />
    <glyph glyph-name="E" unicode="E" horiz-adv-x="682" 
d="M720 700l-25 -142h-416l-24 -133h376l-23 -130h-376l-27 -153h426l-25 -142h-598l124 700h588z" />
    <glyph glyph-name="F" unicode="F" horiz-adv-x="648" 
d="M710 700l-27 -150h-406l-26 -150h366l-25 -142h-366l-46 -258h-172l124 700h578z" />
    <glyph glyph-name="G" unicode="G" horiz-adv-x="804" 
d="M526 0h-322q-99 0 -142.5 52.5t-25.5 151.5l56 312q18 100 67.5 142t148.5 42h322q99 0 142 -52.5t26 -151.5l-8 -47h-173l4 23q8 46 -8.5 66t-62.5 20h-200q-46 0 -66 -17t-28 -63l-44 -254q-8 -46 8.5 -66t61.5 -20h207q45 0 64.5 17t28.5 63l8 42h-180l22 130h346
l-36 -206q-17 -100 -67 -142t-149 -42z" />
    <glyph glyph-name="H" unicode="H" horiz-adv-x="792" 
d="M588 440l46 260h172l-124 -700h-172l51 288h-336l-51 -288h-172l124 700h172l-46 -260h336z" />
    <glyph glyph-name="I" unicode="I" horiz-adv-x="296" 
d="M14 0l124 700h174l-124 -700h-174z" />
    <glyph glyph-name="J" unicode="J" horiz-adv-x="712" 
d="M431 0h-246q-99 0 -142.5 52.5t-25.5 151.5l14 78h166l-10 -52q-8 -45 9 -65.5t62 -20.5h131q45 0 65.5 17.5t27.5 62.5l85 476h172l-92 -516q-18 -100 -67.5 -142t-148.5 -42z" />
    <glyph glyph-name="K" unicode="K" horiz-adv-x="771" 
d="M594 700h240l-401 -342l281 -358h-222l-256 346l-61 -346h-172l124 700h172l-57 -322z" />
    <glyph glyph-name="L" unicode="L" horiz-adv-x="618" 
d="M305 700l-97 -548h376l-27 -152h-548l124 700h172z" />
    <glyph glyph-name="M" unicode="M" horiz-adv-x="912" 
d="M456 302l322 398h155l-124 -700h-160l74 422l-248 -300h-90l-142 300l-74 -422h-160l124 700h141z" />
    <glyph glyph-name="N" unicode="N" horiz-adv-x="812" 
d="M586 243l81 457h166l-124 -700h-138l-314 467l-82 -467h-166l124 700h145z" />
    <glyph glyph-name="O" unicode="O" horiz-adv-x="804" 
d="M526 0h-322q-99 0 -142.5 52.5t-25.5 151.5l56 312q18 100 67.5 142t148.5 42h322q99 0 142.5 -52.5t25.5 -151.5l-56 -312q-18 -100 -67.5 -142t-148.5 -42zM284 146h200q45 0 65.5 17.5t28.5 62.5l43 242q8 45 -9 65.5t-62 20.5h-200q-45 0 -65.5 -17.5t-28.5 -62.5
l-43 -242q-8 -45 9 -65.5t62 -20.5z" />
    <glyph glyph-name="P" unicode="P" horiz-adv-x="744" 
d="M181 0h-172l124 700h476q182 0 151 -184l-23 -131q-17 -94 -59 -129q-44 -36 -135 -36h-323zM280 566l-37 -218h250q38 0 53.5 13.5t23.5 53.5l14 78q7 40 -7 56.5t-54 16.5h-243z" />
    <glyph glyph-name="Q" unicode="Q" horiz-adv-x="804" 
d="M308 700h322q99 0 142.5 -52.5t25.5 -151.5l-56 -312q-15 -83 -51 -125.5t-102 -53.5l81 -145h-164l-72 140h-230q-99 0 -142.5 52.5t-25.5 151.5l56 312q18 100 67.5 142t148.5 42zM578 226l43 242q8 45 -9 65.5t-62 20.5h-200q-45 0 -65.5 -17.5t-28.5 -62.5l-43 -242
q-8 -45 9 -65.5t62 -20.5h200q45 0 65.5 17.5t28.5 62.5z" />
    <glyph glyph-name="R" unicode="R" horiz-adv-x="768" 
d="M133 700h476q182 0 151 -184l-17 -96q-15 -88 -54.5 -124.5t-122.5 -39.5l128 -256h-176l-118 244h-176l-43 -244h-172zM574 435l11 64q7 40 -6.5 56.5t-53.5 16.5h-243l-36 -204h250q38 0 54 13.5t24 53.5z" />
    <glyph glyph-name="S" unicode="S" horiz-adv-x="784" 
d="M28 158l9 58h166l-4 -27q-4 -31 7 -43.5t43 -12.5h240q31 0 44 12t18 44l5 31q5 32 -2.5 44t-35.5 14l-297 28q-79 8 -111 44.5t-19 111.5l17 96q13 78 51 110t116 32h366q155 0 129 -158l-7 -46h-166l2 15q4 31 -7.5 43.5t-42.5 12.5h-216q-30 0 -43.5 -12.5
t-18.5 -43.5l-2 -13q-4 -31 3.5 -42.5t34.5 -13.5l297 -28q79 -8 111 -45t19 -113l-20 -114q-13 -78 -51 -110t-116 -32h-390q-155 0 -129 158z" />
    <glyph glyph-name="T" unicode="T" horiz-adv-x="684" 
d="M91 700h656l-28 -152h-241l-97 -548h-172l97 548h-243z" />
    <glyph glyph-name="U" unicode="U" horiz-adv-x="779" 
d="M498 0h-292q-99 0 -142 52.5t-25 151.5l87 496h172l-82 -468q-8 -45 8.5 -65.5t61.5 -20.5h171q45 0 65.5 17.5t28.5 62.5l83 474h172l-91 -516q-18 -100 -68 -142t-149 -42z" />
    <glyph glyph-name="V" unicode="V" horiz-adv-x="792" 
d="M378 190l298 510h189l-433 -700h-166l-185 700h179z" />
    <glyph glyph-name="W" unicode="W" horiz-adv-x="1118" 
d="M769 233l235 467h187l-377 -700h-152l-73 447l-232 -447h-147l-129 700h181l70 -466l236 466h128z" />
    <glyph glyph-name="X" unicode="X" horiz-adv-x="768" 
d="M163 0h-207l331 356l-197 344h190l130 -239l211 239h209l-319 -344l205 -356h-190l-138 252z" />
    <glyph glyph-name="Y" unicode="Y" horiz-adv-x="744" 
d="M627 700h200l-371 -443l-45 -257h-172l45 257l-213 443h190l131 -298z" />
    <glyph glyph-name="Z" unicode="Z" 
d="M667 0h-676l21 118l493 436h-396l26 146h656l-21 -118l-494 -436h417z" />
    <glyph glyph-name="bracketleft" unicode="[" horiz-adv-x="404" 
d="M312 -100h-320l158 900h320l-22 -128h-176l-114 -644h176z" />
    <glyph glyph-name="backslash" unicode="\" horiz-adv-x="491" 
d="M98 800h105l220 -900h-105z" />
    <glyph glyph-name="bracketright" unicode="]" horiz-adv-x="404" 
d="M122 800h320l-158 -900h-320l22 128h176l114 644h-176z" />
    <glyph glyph-name="asciicircum" unicode="^" 
d="M519 700l184 -420h-157l-112 276l-209 -276h-170l331 420h133z" />
    <glyph glyph-name="underscore" unicode="_" horiz-adv-x="656" 
d="M-73 -150l19 110h656l-19 -110h-656z" />
    <glyph glyph-name="grave" unicode="`" horiz-adv-x="365" 
d="M358 574h-120l-100 126h160z" />
    <glyph glyph-name="a" unicode="a" horiz-adv-x="677" 
d="M259 532h232q183 0 150 -182l-62 -350h-135l-3 63q-56 -42 -91 -52q-39 -11 -109 -11h-109q-61 0 -91.5 35.5t-18.5 97.5l11 57q12 63 45.5 91.5t94.5 28.5h299l6 35q7 41 -6.5 56.5t-53.5 15.5h-112q-31 0 -45 -12t-18 -42l-2 -17h-157l7 44q13 78 51.5 110t116.5 32z
M234 107h80q51 0 91 26l40 27l11 60h-209q-28 0 -40 -10t-16 -38l-2 -12q-4 -29 6 -41t39 -12z" />
    <glyph glyph-name="b" unicode="b" horiz-adv-x="691" 
d="M450 532h60q182 0 149 -182l-32 -184q-17 -94 -59 -129q-43 -37 -136 -37h-69q-77 0 -115 12q-40 13 -79 55l-27 -67h-134l124 700h162l-40 -224q48 35 88 46q36 10 108 10zM470 196l23 134q7 40 -6 56t-53 16h-60q-63 0 -107 -29l-35 -24l-30 -167l27 -25
q31 -27 101 -27h63q39 0 54.5 13t22.5 53z" />
    <glyph glyph-name="c" unicode="c" horiz-adv-x="656" 
d="M399 0h-215q-184 0 -152 185l32 183q17 93 59 128q42 36 134 36h215q181 0 152 -185l-5 -34h-157l3 16q6 40 -7.5 56.5t-53.5 16.5h-105q-40 0 -55.5 -13.5t-22.5 -52.5l-24 -133q-7 -40 7 -56.5t54 -16.5h105q40 0 55.5 13.5t22.5 52.5l5 29h157l-11 -61
q-17 -94 -58 -128q-44 -36 -135 -36z" />
    <glyph glyph-name="d" unicode="d" horiz-adv-x="691" 
d="M510 476l40 224h163l-124 -700h-135l-3 66q-57 -42 -96 -54t-114 -12h-60q-182 0 -149 182l32 184q16 92 59.5 129t135.5 37h69q73 0 109 -10q34 -10 73 -46zM257 130h59q63 0 107 29l36 24l29 168l-27 24q-29 27 -101 27h-62q-39 0 -54.5 -13t-22.5 -53l-24 -134
q-7 -40 6.5 -56t53.5 -16z" />
    <glyph glyph-name="e" unicode="e" horiz-adv-x="672" 
d="M259 532h232q91 0 128 -44t21 -137l-19 -112h-417l-7 -42q-7 -40 5.5 -55.5t52.5 -15.5h136q31 0 44 11.5t19 42.5l3 16h157l-10 -53q-15 -79 -52.5 -111t-114.5 -32h-256q-181 0 -149 182l32 184q16 92 59.5 129t135.5 37zM223 349l-2 -12h261l1 9q7 40 -5.5 55
t-52.5 15h-123q-39 0 -55.5 -14t-23.5 -53z" />
    <glyph glyph-name="f" unicode="f" horiz-adv-x="486" 
d="M526 572h-141q-31 0 -44 -11.5t-18 -42.5l-9 -51h194l-23 -127h-194l-60 -340h-162l60 340h-102l23 127h101l16 91q14 78 52.5 110t115.5 32h214z" />
    <glyph glyph-name="g" unicode="g" horiz-adv-x="691" 
d="M521 465l28 67h134l-89 -504q-18 -100 -70 -144t-151 -44h-382l21 120h324q46 0 68 18t30 64l10 56q-54 -37 -89 -47q-39 -11 -106 -11h-61q-181 0 -149 182l25 144q16 92 60 130q44 36 135 36h69q77 0 115 -12q38 -14 78 -55zM430 195l35 23l24 136l-27 24
q-31 28 -101 28h-62q-39 0 -54.5 -13.5t-22.5 -52.5l-18 -102q-7 -40 6 -56.5t53 -16.5h60q62 0 107 30z" />
    <glyph glyph-name="h" unicode="h" horiz-adv-x="686" 
d="M454 532h43q185 0 152 -185l-61 -347h-163l58 326q7 40 -7 56.5t-54 16.5h-48q-63 0 -107 -29l-36 -24l-61 -346h-162l124 700h162l-40 -227q55 39 90 49q36 10 110 10z" />
    <glyph glyph-name="i" unicode="i" horiz-adv-x="282" 
d="M279 582h-165l21 118h165zM176 0h-165l94 532h165z" />
    <glyph glyph-name="j" unicode="j" horiz-adv-x="282" 
d="M279 582h-165l22 118h164zM6 -160h-103l22 124h28q31 0 44 11t18 42l91 515h165l-97 -550q-14 -78 -52.5 -110t-115.5 -32z" />
    <glyph glyph-name="k" unicode="k" horiz-adv-x="669" 
d="M485 532h225l-316 -268l229 -264h-210l-199 253l-45 -253h-162l124 700h162l-74 -416z" />
    <glyph glyph-name="l" unicode="l" horiz-adv-x="282" 
d="M176 0h-164l124 700h164z" />
    <glyph glyph-name="m" unicode="m" horiz-adv-x="1059" 
d="M846 532h31q178 0 145 -185l-61 -347h-162l57 326q7 40 -6.5 56.5t-53.5 16.5h-26q-64 0 -108 -29l-35 -24l-61 -346h-163l58 326q7 40 -7 56.5t-54 16.5h-26q-66 0 -107 -29l-35 -24l-62 -346h-162l94 532h134l4 -65q57 42 97 54q41 11 113 11h31q115 0 142 -75l4 3
q60 46 101 60q40 12 118 12z" />
    <glyph glyph-name="n" unicode="n" horiz-adv-x="686" 
d="M450 532h47q185 0 152 -185l-61 -347h-163l58 326q7 40 -7 56.5t-54 16.5h-48q-66 0 -107 -29l-35 -24l-62 -346h-162l94 532h134l4 -65q57 42 97 54q41 11 113 11z" />
    <glyph glyph-name="o" unicode="o" horiz-adv-x="682" 
d="M425 0h-241q-184 0 -152 185l32 183q17 93 59 128q42 36 134 36h241q184 0 152 -185l-32 -183q-17 -93 -58 -128q-44 -36 -135 -36zM258 130h125q40 0 55.5 13.5t22.5 52.5l24 133q7 40 -7 56.5t-54 16.5h-125q-40 0 -55.5 -13.5t-22.5 -52.5l-24 -133q-7 -40 7 -56.5
t54 -16.5z" />
    <glyph glyph-name="p" unicode="p" horiz-adv-x="691" 
d="M450 532h60q182 0 149 -182l-32 -184q-17 -94 -59 -129q-43 -37 -136 -37h-69q-70 0 -109 11q-36 10 -74 45l-38 -216h-162l122 692h134l4 -67q56 43 96 55q39 12 114 12zM470 196l23 134q7 40 -6 56t-53 16h-60q-63 0 -107 -29l-35 -24l-29 -167l26 -25q31 -27 101 -27
h63q39 0 54.5 13t22.5 53z" />
    <glyph glyph-name="q" unicode="q" horiz-adv-x="691" 
d="M521 465l28 67h134l-122 -692h-163l38 216q-49 -36 -86 -46q-36 -10 -109 -10h-60q-182 0 -149 182l32 184q16 92 59.5 129t135.5 37h69q77 0 115 -12q38 -14 78 -55zM423 159l36 24l29 167l-27 25q-29 27 -101 27h-62q-39 0 -54.5 -13t-22.5 -53l-24 -134
q-7 -40 6.5 -56t53.5 -16h59q63 0 107 29z" />
    <glyph glyph-name="r" unicode="r" horiz-adv-x="454" 
d="M444 532h43l-27 -151h-90q-65 0 -106 -29l-36 -24l-58 -328h-162l94 532h116l4 -74l3 2q59 45 102 59q39 13 117 13z" />
    <glyph glyph-name="s" unicode="s" horiz-adv-x="662" 
d="M21 127l8 49h156l-6 -31q-3 -17 3.5 -24t24.5 -7h188q18 0 25 6.5t11 24.5l6 30q4 17 -2.5 23.5t-25.5 8.5l-240 24q-118 10 -98 125l11 60q21 116 136 116h304q57 0 85 -34.5t18 -92.5l-7 -43h-156l5 25q7 31 -28 31h-164q-18 0 -25.5 -6.5t-10.5 -24.5l-2 -12
q-3 -17 3 -23.5t24 -8.5l240 -24q58 -5 84 -37t15 -88l-15 -78q-23 -116 -136 -116h-328q-57 0 -85 34.5t-18 92.5z" />
    <glyph glyph-name="t" unicode="t" horiz-adv-x="506" 
d="M506 405h-203l-38 -218q-5 -31 5.5 -44t42.5 -13h145l-23 -130h-209q-158 0 -129 156l44 249h-102l22 127h102l54 120h130l-21 -120h202z" />
    <glyph glyph-name="u" unicode="u" horiz-adv-x="686" 
d="M516 532h162l-94 -532h-134l-4 65q-58 -43 -96 -53q-40 -12 -114 -12h-47q-185 0 -152 185l61 347h163l-58 -326q-7 -40 7 -56.5t54 -16.5h48q66 0 107 29l35 24z" />
    <glyph glyph-name="v" unicode="v" horiz-adv-x="658" 
d="M308 180l211 352h182l-346 -532h-147l-157 532h171z" />
    <glyph glyph-name="w" unicode="w" horiz-adv-x="922" 
d="M623 198l169 334h173l-296 -532h-144l-55 328l-170 -328h-141l-108 532h163l53 -333l174 333h124z" />
    <glyph glyph-name="x" unicode="x" horiz-adv-x="665" 
d="M155 0h-205l272 271l-167 261h186l100 -172l158 172h204l-259 -261l175 -271h-186l-109 183z" />
    <glyph glyph-name="y" unicode="y" horiz-adv-x="658" 
d="M305 169l214 363h182l-356 -547q-61 -95 -108 -120q-46 -25 -154 -25h-102l23 130h96q43 0 63 8.5t40 37.5l-152 516h171z" />
    <glyph glyph-name="z" unicode="z" horiz-adv-x="646" 
d="M563 0h-574l17 98l386 310h-311l22 124h554l-17 -98l-386 -310h331z" />
    <glyph glyph-name="braceleft" unicode="{" horiz-adv-x="476" 
d="M416 800h126l-22 -128h-92q-44 0 -65 -18.5t-29 -63.5l-24 -132q-15 -86 -81 -110q56 -32 41 -116l-20 -116q-15 -88 73 -88h83l-22 -128h-106q-101 0 -146 54t-27 156l23 132q7 49 -42 49h-53l20 117h58q46 0 55 48l27 154q18 102 70 146t153 44z" />
    <glyph glyph-name="bar" unicode="|" horiz-adv-x="262" 
d="M2 -100l158 900h130l-158 -900h-130z" />
    <glyph glyph-name="braceright" unicode="}" horiz-adv-x="476" 
d="M420 409h53l-20 -117h-58q-46 0 -55 -48l-27 -154q-18 -102 -70 -146t-153 -44h-126l22 128h92q44 0 65 18.5t29 63.5l24 132q15 86 81 110q-56 32 -41 116l20 116q15 88 -73 88h-83l22 128h106q101 0 146 -54t27 -156l-23 -132q-7 -49 42 -49z" />
    <glyph glyph-name="asciitilde" unicode="~" 
d="M413 439l71 -122q12 -17 34 -17h16q23 0 28 23l31 181h139l-38 -212q-9 -52 -34.5 -74t-77.5 -22h-100q-50 0 -72 12t-42 53l-70 122q-12 17 -34 17h-16q-23 0 -28 -23l-32 -181h-138l37 212q10 53 35.5 74.5t77.5 21.5h100q50 0 72 -12q22 -13 41 -53z" />
    <glyph glyph-name="exclamdown" unicode="&#xa1;" horiz-adv-x="304" 
d="M133 700h192l-29 -162h-192zM250 474l-51 -474h-187l117 474h121z" />
    <glyph glyph-name="cent" unicode="&#xa2;" 
d="M509 700h80q183 0 152 -184l-9 -47h-160l5 27q7 40 -7 56t-54 16h-175q-38 0 -53.5 -13.5t-23.5 -53.5l-30 -167q-7 -40 7 -56t54 -16h175q39 0 54.5 14t22.5 53l8 39h160l-14 -73q-17 -94 -58 -129q-43 -36 -135 -36h-100l-18 -100h-107l18 100h-85q-184 0 -151 184
l39 221q16 92 59 129q42 36 134 36h105l17 100h107z" />
    <glyph glyph-name="sterling" unicode="&#xa3;" horiz-adv-x="772" 
d="M357 700h232q99 0 142.5 -52.5t25.5 -151.5l-10 -56h-160l8 45q8 45 -9 65t-62 20h-135q-41 0 -60 -17.5t-27 -62.5l-15 -86h204l-17 -94h-204l-30 -174h240q31 0 44.5 11.5t18.5 42.5l12 66h160l-20 -112q-13 -77 -52.5 -110.5t-117.5 -33.5h-558l25 136h82l31 174h-93
l17 94h92l20 112q18 100 67.5 142t148.5 42z" />
    <glyph glyph-name="currency" unicode="&#xa4;" 
d="M660 421l-28 -162q-4 -28 -19 -63l76 -93l-83 -71l-69 84q-38 -19 -96 -19h-170q-55 0 -92 24l-104 -89l-68 82l113 96q-5 35 1 69l29 162q4 28 19 63l-76 93l83 71l69 -84q38 19 95 19h171q55 0 92 -24l104 89l67 -82l-113 -96q6 -34 -1 -69zM325 223h93q41 0 61 17
t27 58l17 99q15 80 -66 80h-94q-41 0 -60.5 -16.5t-27.5 -58.5l-17 -99q-7 -41 9.5 -60.5t57.5 -19.5z" />
    <glyph glyph-name="yen" unicode="&#xa5;" 
d="M618 700h189l-303 -380h206l-14 -78h-242l-13 -74h241l-13 -78h-241l-16 -90h-166l16 90h-241l13 78h241l13 74h-240l14 78h204l-167 380h179l117 -298z" />
    <glyph glyph-name="brokenbar" unicode="&#xa6;" horiz-adv-x="262" 
d="M103 472l57 328h130l-57 -328h-130zM2 -100l58 328h130l-58 -328h-130z" />
    <glyph glyph-name="section" unicode="&#xa7;" horiz-adv-x="922" 
d="M434 548l339 -36q74 -8 103.5 -45t16.5 -108l-13 -69q-13 -70 -43.5 -100.5t-92.5 -33.5q0 -13 -5 -43l-13 -72q-14 -78 -51 -109.5t-114 -31.5h-299q-76 0 -109.5 40.5t-22.5 118.5l7 47h166l-4 -23q-5 -31 6.5 -45t42.5 -14h151q30 0 43 11.5t18 41.5l3 17q5 29 -5 42
t-40 16l-340 36q-73 8 -102.5 45t-16.5 108l13 69q13 70 43 100.5t92 33.5q0 13 5 43l14 72q15 78 51.5 109.5t113.5 31.5h299q76 0 109.5 -40.5t22.5 -118.5l-7 -47h-166l4 23q5 31 -6.5 45t-42.5 14h-151q-30 0 -43 -11.5t-18 -41.5l-3 -17q-5 -29 5 -42t40 -16zM275 308
l346 -36q27 -3 53 -11q29 4 37 45l6 34q4 26 -5 37.5t-36 14.5l-345 36q-27 3 -53 11q-29 -4 -37 -45l-6 -34q-4 -26 5 -37.5t35 -14.5z" />
    <glyph glyph-name="dieresis" unicode="&#xa8;" horiz-adv-x="448" 
d="M237 582h-124l17 102h124zM449 582h-124l17 102h124z" />
    <glyph glyph-name="copyright" unicode="&#xa9;" horiz-adv-x="870" 
d="M585 0h-270q-104 0 -164.5 60t-60.5 165v250q0 105 60.5 165t164.5 60h270q104 0 164.5 -60t60.5 -165v-250q0 -105 -60.5 -165t-164.5 -60zM327 56h246q87 0 132 45t45 132v234q0 87 -45 132t-132 45h-246q-87 0 -132 -45t-45 -132v-234q0 -87 45 -132t132 -45zM548 130
h-196q-65 0 -96.5 31t-31.5 97v184q0 66 31.5 97t96.5 31h196q65 0 96.5 -31t31.5 -97v-49h-116v29q0 26 -10.5 36.5t-36.5 10.5h-121q-27 0 -37.5 -10.5t-10.5 -36.5v-144q0 -26 10.5 -36.5t37.5 -10.5h121q26 0 36.5 10.5t10.5 36.5v35h116v-55q0 -66 -31.5 -97t-96.5 -31
z" />
    <glyph glyph-name="ordfeminine" unicode="&#xaa;" horiz-adv-x="407" 
d="M206 700h139q109 0 90 -109l-37 -211h-86l-3 37q-32 -24 -52 -30q-21 -7 -64 -7h-67q-36 0 -54 21.5t-12 58.5l6 36q12 72 86 72h175l4 20q4 22 -3 30.5t-29 8.5h-64q-16 0 -23.5 -6.5t-11.5 -23.5l-2 -9h-101l5 24q9 48 33 68t71 20zM190 446h47q27 0 50 15l23 15l6 36
h-116q-16 0 -22.5 -5t-8.5 -21l-2 -12q-2 -15 3 -21.5t20 -6.5z" />
    <glyph glyph-name="guillemotleft" unicode="&#xab;" horiz-adv-x="822" 
d="M355 107l-300 202l18 101l368 182l-24 -138l-231 -103l192 -115zM463 410l368 182l-24 -138l-231 -103l192 -115l-23 -129l-300 202z" />
    <glyph glyph-name="logicalnot" unicode="&#xac;" 
d="M546 280h-481l24 140h628l-54 -310h-147z" />
    <glyph glyph-name="uni00AD" unicode="&#xad;" horiz-adv-x="420" 
d="M45 280l24 140h336l-24 -140h-336z" />
    <glyph glyph-name="registered" unicode="&#xae;" horiz-adv-x="393" 
d="M193 700h105q56 0 82.5 -26.5t26.5 -82.5v-92q0 -109 -109 -109h-105q-109 0 -109 109v92q0 109 109 109zM366 501v88q0 40 -16 56t-56 16h-97q-40 0 -56 -16t-16 -56v-88q0 -39 16 -55.5t56 -16.5h97q40 0 56 16.5t16 55.5zM322 584v-24q0 -20 -7 -29t-25 -10l40 -54
h-50l-34 50h-28v-50h-45v155h111q21 0 29.5 -9t8.5 -29zM268 587h-50v-36h50q10 0 10 10v15q0 11 -10 11z" />
    <glyph glyph-name="overscore" unicode="&#xaf;" horiz-adv-x="520" 
d="M523 598h-408l14 80h408z" />
    <glyph glyph-name="degree" unicode="&#xb0;" horiz-adv-x="432" 
d="M294 350h-110q-58 0 -88 37t-20 94l19 104q19 115 134 115h110q59 0 88.5 -36.5t19.5 -94.5l-18 -104q-19 -115 -135 -115zM216 439h64q27 0 40 11t18 38l12 72q4 28 -5.5 39.5t-36.5 11.5h-64q-27 0 -40.5 -11t-17.5 -38l-12 -72q-10 -51 42 -51z" />
    <glyph glyph-name="plusminus" unicode="&#xb1;" 
d="M523 684l-31 -176h241l-22 -128h-242l-31 -176h-145l31 176h-241l22 128h242l31 176h145zM646 16h-628l23 127h628z" />
    <glyph glyph-name="uni00B2" unicode="&#xb2;" horiz-adv-x="477" 
d="M449 380l-18 -100h-388l25 143q8 47 30.5 66.5t74.5 26.5l164 21q24 1 30 26l3 20q2 14 -3 20t-20 6h-96q-15 0 -20.5 -5t-9.5 -21l-4 -20h-116l8 48q8 49 32 69t73 20h197q101 0 83 -102l-9 -53q-8 -47 -31 -66t-75 -25l-164 -21q-15 -2 -20.5 -7.5t-8.5 -20.5l-4 -25
h267z" />
    <glyph glyph-name="uni00B3" unicode="&#xb3;" horiz-adv-x="473" 
d="M209 700h196q99 0 83 -100l-6 -30q-11 -65 -58 -76q47 -18 37 -85l-7 -39q-9 -49 -33.5 -69.5t-73.5 -20.5h-208q-97 0 -82 100l9 52h116l-4 -30q-3 -16 2 -21.5t20 -5.5h107q16 0 22 5t9 20l4 26q3 15 -2.5 21t-21.5 6h-81l15 82h77q15 0 21 5.5t9 20.5l3 17
q3 16 -2 21.5t-21 5.5h-95q-15 0 -21 -5t-9 -21l-4 -26h-116l9 57q8 49 32.5 69.5t73.5 20.5z" />
    <glyph glyph-name="acute" unicode="&#xb4;" horiz-adv-x="365" 
d="M389 700l-144 -126h-138l104 126h178z" />
    <glyph glyph-name="paragraph" unicode="&#xb6;" horiz-adv-x="838" 
d="M69 431l19 104q17 93 59 129q43 36 135 36h537l-124 -700h-148l99 566h-128l-99 -566h-148l44 248h-95q-182 0 -151 183z" />
    <glyph glyph-name="middot" unicode="&#xb7;" horiz-adv-x="304" 
d="M247 260h-192l32 180h192z" />
    <glyph glyph-name="cedilla" unicode="&#xb8;" horiz-adv-x="320" 
d="M145 -160h-172l9 53h136q9 0 12 11l2 10q3 12 -9 12h-101l5 24l36 70h62l-24 -46h64q57 0 46 -56l-5 -26q-5 -29 -18.5 -40.5t-42.5 -11.5z" />
    <glyph glyph-name="uni00B9" unicode="&#xb9;" horiz-adv-x="441" 
d="M368 700l-57 -322h121l-18 -98h-384l18 98h142l38 214l-127 -12l18 102l193 18h56z" />
    <glyph glyph-name="ordmasculine" unicode="&#xba;" horiz-adv-x="410" 
d="M302 380h-144q-112 0 -92 113l19 106q9 56 36 78.5t84 22.5h144q111 0 91 -111l-18 -107q-10 -56 -37 -79t-83 -23zM204 466h72q22 0 31 7.5t14 29.5l13 72q4 22 -3 31t-29 9h-72q-22 0 -31.5 -7.5t-13.5 -29.5l-13 -73q-4 -22 3 -30.5t29 -8.5z" />
    <glyph glyph-name="guillemotright" unicode="&#xbb;" horiz-adv-x="822" 
d="M275 348l-192 115l23 129l300 -202l-18 -101l-368 -182l24 138zM473 463l23 129l300 -202l-18 -101l-368 -182l24 138l231 103z" />
    <glyph glyph-name="onequarter" unicode="&#xbc;" horiz-adv-x="1058" 
d="M311 378h121l-18 -98h-384l18 98h142l38 214l-127 -12l18 102l193 18h56zM222 0l647 700h103l-647 -700h-103zM934 171h79l-17 -91h-78l-14 -80h-116l14 80h-244l14 77l266 263h140zM842 309l-139 -138h115z" />
    <glyph glyph-name="onehalf" unicode="&#xbd;" horiz-adv-x="1160" 
d="M310 378h121l-18 -98h-384l18 98h142l38 214l-127 -12l18 102l193 18h56zM222 0l647 700h103l-647 -700h-103zM848 420h197q101 0 83 -102l-9 -53q-8 -47 -31 -66t-75 -25l-164 -21q-15 -2 -20.5 -7.5t-8.5 -20.5l-4 -25h267l-18 -100h-388l25 143q8 47 30.5 66.5
t74.5 26.5l164 21q24 1 30 26l3 20q2 14 -3 20t-20 6h-96q-15 0 -20.5 -5t-9.5 -21l-4 -20h-116l8 48q8 49 32 69t73 20z" />
    <glyph glyph-name="threequarters" unicode="&#xbe;" horiz-adv-x="1063" 
d="M461 409l-7 -39q-9 -49 -33.5 -69.5t-73.5 -20.5h-208q-97 0 -82 100l9 52h116l-4 -30q-3 -16 2 -21.5t20 -5.5h107q16 0 22 5t9 20l4 26q3 15 -2.5 21t-21.5 6h-81l15 82h77q15 0 21 5.5t9 20.5l3 17q3 16 -2 21.5t-21 5.5h-95q-15 0 -21 -5t-9 -21l-4 -26h-116l9 57
q8 49 32.5 69.5t73.5 20.5h196q99 0 83 -100l-6 -30q-11 -65 -58 -76q47 -18 37 -85zM219 0l647 700h103l-647 -700h-103zM940 171h79l-17 -91h-78l-14 -80h-116l14 80h-244l14 77l266 263h140zM848 309l-139 -138h115z" />
    <glyph glyph-name="questiondown" unicode="&#xbf;" horiz-adv-x="678" 
d="M348 700h192l-26 -144h-192zM330 492h155l-15 -80q-10 -62 -35 -87t-94 -41l-90 -22q-30 -7 -43 -19t-17 -36l-3 -17q-11 -56 48 -56h172q29 0 41.5 11t17.5 41l7 38h160l-14 -83q-13 -78 -50 -109.5t-115 -31.5h-306q-77 0 -110.5 40.5t-20.5 118.5l11 68q11 66 44 97
q35 32 114 51l84 21q27 7 37 17.5t15 37.5z" />
    <glyph glyph-name="Agrave" unicode="&#xc0;" horiz-adv-x="812" 
d="M487 868l60 -126h-120l-100 126h160zM764 0h-180l-29 129h-336l-74 -129h-193l434 700h193zM462 552l-169 -295h234z" />
    <glyph glyph-name="Aacute" unicode="&#xc1;" horiz-adv-x="812" 
d="M528 868h178l-144 -126h-138zM764 0h-180l-29 129h-336l-74 -129h-193l434 700h193zM462 552l-169 -295h234z" />
    <glyph glyph-name="Acircumflex" unicode="&#xc2;" horiz-adv-x="812" 
d="M582 742l-74 62l-97 -62h-124l146 126h158l102 -126h-111zM764 0h-180l-29 129h-336l-74 -129h-193l434 700h193zM462 552l-169 -295h234z" />
    <glyph glyph-name="Atilde" unicode="&#xc3;" horiz-adv-x="812" 
d="M397 798l-10 -56h-92l14 78q7 48 57 48h108q24 0 34.5 -5t22.5 -22l25 -33q8 -8 19 -8h17q11 0 14 12l9 56h92l-13 -78q-5 -26 -18.5 -37t-39.5 -11h-107q-23 0 -34.5 5.5t-22.5 21.5l-26 33q-8 8 -19 8h-17q-12 0 -13 -12zM764 0h-180l-29 129h-336l-74 -129h-193
l434 700h193zM462 552l-169 -295h234z" />
    <glyph glyph-name="Adieresis" unicode="&#xc4;" horiz-adv-x="812" 
d="M341 852h124l-17 -102h-124zM553 852h124l-17 -102h-124zM764 0h-180l-29 129h-336l-74 -129h-193l434 700h193zM462 552l-169 -295h234z" />
    <glyph glyph-name="Aring" unicode="&#xc5;" horiz-adv-x="812" 
d="M580 732h-179q-56 0 -47 57l5 26q4 30 18 41.5t44 11.5h178q57 0 47 -57l-4 -26q-5 -30 -19 -41.5t-43 -11.5zM420 807l-3 -13q-2 -11 1 -15.5t14 -4.5h127q12 0 16 3.5t6 15.5l2 13q2 11 -1 15.5t-14 4.5h-127q-11 0 -15 -3.5t-6 -15.5zM764 0h-180l-29 129h-336
l-74 -129h-193l434 700h193zM462 552l-169 -295h234z" />
    <glyph glyph-name="AE" unicode="&#xc6;" horiz-adv-x="1086" 
d="M1125 700l-26 -142h-473l31 -133h379l-23 -130h-326l35 -153h314l-25 -142h-439l-24 124h-330l-71 -124h-190l433 700h735zM466 553l-174 -301h232z" />
    <glyph glyph-name="Ccedilla" unicode="&#xc7;" horiz-adv-x="776" 
d="M308 700h296q99 0 142.5 -52.5t25.5 -151.5l-13 -72h-166l8 46q8 46 -8.5 66t-61.5 20h-181q-45 0 -65.5 -17.5t-27.5 -62.5l-44 -246q-8 -46 8.5 -66t61.5 -20h181q45 0 65 17t28 63l11 59h166l-18 -99q-18 -100 -67.5 -142t-148.5 -42h-140l-14 -26h64q57 0 46 -56
l-5 -26q-5 -29 -18.5 -40.5t-42.5 -11.5h-172l9 53h136q9 0 12 11l2 10q3 12 -9 12h-101l5 24l26 50h-94q-99 0 -142.5 52.5t-25.5 151.5l56 312q18 100 67.5 142t148.5 42z" />
    <glyph glyph-name="Egrave" unicode="&#xc8;" horiz-adv-x="682" 
d="M422 868l60 -126h-120l-100 126h160zM720 700l-25 -142h-416l-24 -133h376l-23 -130h-376l-27 -153h426l-25 -142h-598l124 700h588z" />
    <glyph glyph-name="Eacute" unicode="&#xc9;" horiz-adv-x="682" 
d="M463 868h178l-144 -126h-138zM720 700l-25 -142h-416l-24 -133h376l-23 -130h-376l-27 -153h426l-25 -142h-598l124 700h588z" />
    <glyph glyph-name="Ecircumflex" unicode="&#xca;" horiz-adv-x="682" 
d="M517 742l-74 62l-97 -62h-124l146 126h158l102 -126h-111zM720 700l-25 -142h-416l-24 -133h376l-23 -130h-376l-27 -153h426l-25 -142h-598l124 700h588z" />
    <glyph glyph-name="Edieresis" unicode="&#xcb;" horiz-adv-x="682" 
d="M276 852h124l-17 -102h-124zM488 852h124l-17 -102h-124zM720 700l-25 -142h-416l-24 -133h376l-23 -130h-376l-27 -153h426l-25 -142h-598l124 700h588z" />
    <glyph glyph-name="Igrave" unicode="&#xcc;" horiz-adv-x="296" 
d="M289 742h-120l-100 126h160zM14 0l124 700h174l-124 -700h-174z" />
    <glyph glyph-name="Iacute" unicode="&#xcd;" horiz-adv-x="296" 
d="M448 868l-144 -126h-138l104 126h178zM14 0l124 700h174l-124 -700h-174z" />
    <glyph glyph-name="Icircumflex" unicode="&#xce;" horiz-adv-x="296" 
d="M153 742h-124l146 126h158l102 -126h-111l-74 62zM14 0l124 700h174l-124 -700h-174z" />
    <glyph glyph-name="Idieresis" unicode="&#xcf;" horiz-adv-x="296" 
d="M190 750h-124l17 102h124zM402 750h-124l17 102h124zM14 0l124 700h174l-124 -700h-174z" />
    <glyph glyph-name="Eth" unicode="&#xd0;" horiz-adv-x="863" 
d="M193 700h446q116 0 173 -68.5t36 -185.5l-39 -220q-21 -118 -85 -172t-181 -54h-474l53 299h-88l18 102h88zM641 245l34 199q20 110 -90 110h-246l-27 -153h194l-18 -102h-194l-27 -153h257q53 0 80 23t37 76z" />
    <glyph glyph-name="Ntilde" unicode="&#xd1;" horiz-adv-x="812" 
d="M385 798l-10 -56h-92l14 78q7 48 57 48h108q24 0 34.5 -5t22.5 -22l25 -33q8 -8 19 -8h17q11 0 14 12l9 56h92l-13 -78q-5 -26 -18.5 -37t-39.5 -11h-107q-23 0 -34.5 5.5t-22.5 21.5l-26 33q-8 8 -19 8h-17q-12 0 -13 -12zM586 243l81 457h166l-124 -700h-138l-314 467
l-82 -467h-166l124 700h145z" />
    <glyph glyph-name="Ograve" unicode="&#xd2;" horiz-adv-x="804" 
d="M543 742h-120l-100 126h160zM526 0h-322q-99 0 -142.5 52.5t-25.5 151.5l56 312q18 100 67.5 142t148.5 42h322q99 0 142.5 -52.5t25.5 -151.5l-56 -312q-18 -100 -67.5 -142t-148.5 -42zM284 146h200q45 0 65.5 17.5t28.5 62.5l43 242q8 45 -9 65.5t-62 20.5h-200
q-45 0 -65.5 -17.5t-28.5 -62.5l-43 -242q-8 -45 9 -65.5t62 -20.5z" />
    <glyph glyph-name="Oacute" unicode="&#xd3;" horiz-adv-x="804" 
d="M702 868l-144 -126h-138l104 126h178zM526 0h-322q-99 0 -142.5 52.5t-25.5 151.5l56 312q18 100 67.5 142t148.5 42h322q99 0 142.5 -52.5t25.5 -151.5l-56 -312q-18 -100 -67.5 -142t-148.5 -42zM284 146h200q45 0 65.5 17.5t28.5 62.5l43 242q8 45 -9 65.5t-62 20.5
h-200q-45 0 -65.5 -17.5t-28.5 -62.5l-43 -242q-8 -45 9 -65.5t62 -20.5z" />
    <glyph glyph-name="Ocircumflex" unicode="&#xd4;" horiz-adv-x="804" 
d="M407 742h-124l146 126h158l102 -126h-111l-74 62zM526 0h-322q-99 0 -142.5 52.5t-25.5 151.5l56 312q18 100 67.5 142t148.5 42h322q99 0 142.5 -52.5t25.5 -151.5l-56 -312q-18 -100 -67.5 -142t-148.5 -42zM284 146h200q45 0 65.5 17.5t28.5 62.5l43 242q8 45 -9 65.5
t-62 20.5h-200q-45 0 -65.5 -17.5t-28.5 -62.5l-43 -242q-8 -45 9 -65.5t62 -20.5z" />
    <glyph glyph-name="Otilde" unicode="&#xd5;" horiz-adv-x="804" 
d="M383 742h-92l14 78q7 48 57 48h108q24 0 34.5 -5t22.5 -22l25 -33q8 -8 19 -8h17q11 0 14 12l9 56h92l-13 -78q-5 -26 -18.5 -37t-39.5 -11h-107q-23 0 -34.5 5.5t-22.5 21.5l-26 33q-8 8 -19 8h-17q-12 0 -13 -12zM526 0h-322q-99 0 -142.5 52.5t-25.5 151.5l56 312
q18 100 67.5 142t148.5 42h322q99 0 142.5 -52.5t25.5 -151.5l-56 -312q-18 -100 -67.5 -142t-148.5 -42zM284 146h200q45 0 65.5 17.5t28.5 62.5l43 242q8 45 -9 65.5t-62 20.5h-200q-45 0 -65.5 -17.5t-28.5 -62.5l-43 -242q-8 -45 9 -65.5t62 -20.5z" />
    <glyph glyph-name="Odieresis" unicode="&#xd6;" horiz-adv-x="804" 
d="M444 750h-124l17 102h124zM656 750h-124l17 102h124zM526 0h-322q-99 0 -142.5 52.5t-25.5 151.5l56 312q18 100 67.5 142t148.5 42h322q99 0 142.5 -52.5t25.5 -151.5l-56 -312q-18 -100 -67.5 -142t-148.5 -42zM284 146h200q45 0 65.5 17.5t28.5 62.5l43 242
q8 45 -9 65.5t-62 20.5h-200q-45 0 -65.5 -17.5t-28.5 -62.5l-43 -242q-8 -45 9 -65.5t62 -20.5z" />
    <glyph glyph-name="multiply" unicode="&#xd7;" 
d="M641 652l87 -105l-240 -204l167 -204l-107 -91l-167 204l-240 -204l-87 105l240 204l-167 204l107 91l167 -204z" />
    <glyph glyph-name="Oslash" unicode="&#xd8;" horiz-adv-x="804" 
d="M757 730h113l-96 -92q40 -54 23 -148l-55 -306q-18 -100 -67.5 -142t-148.5 -42h-316q-47 0 -87 14l-46 -44h-113l96 92q-40 54 -23 148l55 306q18 100 67.5 142t148.5 42h316q47 0 87 -14zM249 480l-45 -254q-3 -16 -3 -29l378 362q-4 1 -19 1h-218q-45 0 -65 -17.5
t-28 -62.5zM585 220l45 254q3 17 3 29l-378 -362q4 -1 19 -1h218q45 0 65 17.5t28 62.5z" />
    <glyph glyph-name="Ugrave" unicode="&#xd9;" horiz-adv-x="779" 
d="M530 742h-120l-100 126h160zM498 0h-292q-99 0 -142 52.5t-25 151.5l87 496h172l-82 -468q-8 -45 8.5 -65.5t61.5 -20.5h171q45 0 65.5 17.5t28.5 62.5l83 474h172l-91 -516q-18 -100 -68 -142t-149 -42z" />
    <glyph glyph-name="Uacute" unicode="&#xda;" horiz-adv-x="779" 
d="M689 868l-144 -126h-138l104 126h178zM498 0h-292q-99 0 -142 52.5t-25 151.5l87 496h172l-82 -468q-8 -45 8.5 -65.5t61.5 -20.5h171q45 0 65.5 17.5t28.5 62.5l83 474h172l-91 -516q-18 -100 -68 -142t-149 -42z" />
    <glyph glyph-name="Ucircumflex" unicode="&#xdb;" horiz-adv-x="779" 
d="M394 742h-124l146 126h158l102 -126h-111l-74 62zM498 0h-292q-99 0 -142 52.5t-25 151.5l87 496h172l-82 -468q-8 -45 8.5 -65.5t61.5 -20.5h171q45 0 65.5 17.5t28.5 62.5l83 474h172l-91 -516q-18 -100 -68 -142t-149 -42z" />
    <glyph glyph-name="Udieresis" unicode="&#xdc;" horiz-adv-x="779" 
d="M431 750h-124l17 102h124zM643 750h-124l17 102h124zM498 0h-292q-99 0 -142 52.5t-25 151.5l87 496h172l-82 -468q-8 -45 8.5 -65.5t61.5 -20.5h171q45 0 65.5 17.5t28.5 62.5l83 474h172l-91 -516q-18 -100 -68 -142t-149 -42z" />
    <glyph glyph-name="Yacute" unicode="&#xdd;" horiz-adv-x="744" 
d="M488 868h178l-144 -126h-138zM627 700h200l-371 -443l-45 -257h-172l45 257l-213 443h190l131 -298z" />
    <glyph glyph-name="Thorn" unicode="&#xde;" horiz-adv-x="744" 
d="M287 600h304q184 0 151 -184l-22 -131q-17 -94 -59 -129q-43 -36 -135 -36h-324l-21 -120h-172l124 700h172zM552 315l15 78q7 40 -7 56.5t-54 16.5h-242l-39 -218h250q39 0 54.5 14t22.5 53z" />
    <glyph glyph-name="germandbls" unicode="&#xdf;" horiz-adv-x="693" 
d="M274 700h274q156 0 130 -158l-10 -61q-16 -100 -87 -121q79 -27 61 -137l-13 -81q-13 -77 -51.5 -109.5t-116.5 -32.5h-183l23 128h107q31 0 44.5 11.5t19.5 42.5l12 65q6 31 -5.5 44.5t-43.5 13.5h-103l20 111h88q31 0 44.5 11.5t18.5 42.5l8 44q6 31 -5 44.5t-43 13.5
h-137q-31 0 -45 -11.5t-19 -42.5l-91 -518h-163l98 558q13 78 51.5 110t116.5 32z" />
    <glyph glyph-name="agrave" unicode="&#xe0;" horiz-adv-x="677" 
d="M390 700l60 -126h-120l-100 126h160zM259 532h232q183 0 150 -182l-62 -350h-135l-3 63q-56 -42 -91 -52q-39 -11 -109 -11h-109q-61 0 -91.5 35.5t-18.5 97.5l11 57q12 63 45.5 91.5t94.5 28.5h299l6 35q7 41 -6.5 56.5t-53.5 15.5h-112q-31 0 -45 -12t-18 -42l-2 -17
h-157l7 44q13 78 51.5 110t116.5 32zM234 107h80q51 0 91 26l40 27l11 60h-209q-28 0 -40 -10t-16 -38l-2 -12q-4 -29 6 -41t39 -12z" />
    <glyph glyph-name="aacute" unicode="&#xe1;" horiz-adv-x="677" 
d="M431 700h178l-144 -126h-138zM259 532h232q183 0 150 -182l-62 -350h-135l-3 63q-56 -42 -91 -52q-39 -11 -109 -11h-109q-61 0 -91.5 35.5t-18.5 97.5l11 57q12 63 45.5 91.5t94.5 28.5h299l6 35q7 41 -6.5 56.5t-53.5 15.5h-112q-31 0 -45 -12t-18 -42l-2 -17h-157
l7 44q13 78 51.5 110t116.5 32zM234 107h80q51 0 91 26l40 27l11 60h-209q-28 0 -40 -10t-16 -38l-2 -12q-4 -29 6 -41t39 -12z" />
    <glyph glyph-name="acircumflex" unicode="&#xe2;" horiz-adv-x="677" 
d="M485 574l-74 62l-97 -62h-124l146 126h158l102 -126h-111zM259 532h232q183 0 150 -182l-62 -350h-135l-3 63q-56 -42 -91 -52q-39 -11 -109 -11h-109q-61 0 -91.5 35.5t-18.5 97.5l11 57q12 63 45.5 91.5t94.5 28.5h299l6 35q7 41 -6.5 56.5t-53.5 15.5h-112
q-31 0 -45 -12t-18 -42l-2 -17h-157l7 44q13 78 51.5 110t116.5 32zM234 107h80q51 0 91 26l40 27l11 60h-209q-28 0 -40 -10t-16 -38l-2 -12q-4 -29 6 -41t39 -12z" />
    <glyph glyph-name="atilde" unicode="&#xe3;" horiz-adv-x="677" 
d="M300 630l-10 -56h-92l14 78q8 48 57 48h108q24 0 34.5 -5t22.5 -22l25 -33q8 -8 19 -8h17q11 0 14 12l9 56h92l-13 -78q-5 -26 -18.5 -37t-39.5 -11h-107q-23 0 -34.5 5.5t-22.5 21.5l-26 33q-8 8 -19 8h-17q-11 0 -13 -12zM259 532h232q183 0 150 -182l-62 -350h-135
l-3 63q-56 -42 -91 -52q-39 -11 -109 -11h-109q-61 0 -91.5 35.5t-18.5 97.5l11 57q12 63 45.5 91.5t94.5 28.5h299l6 35q7 41 -6.5 56.5t-53.5 15.5h-112q-31 0 -45 -12t-18 -42l-2 -17h-157l7 44q13 78 51.5 110t116.5 32zM234 107h80q51 0 91 26l40 27l11 60h-209
q-28 0 -40 -10t-16 -38l-2 -12q-4 -29 6 -41t39 -12z" />
    <glyph glyph-name="adieresis" unicode="&#xe4;" horiz-adv-x="677" 
d="M244 684h124l-17 -102h-124zM456 684h124l-17 -102h-124zM259 532h232q183 0 150 -182l-62 -350h-135l-3 63q-56 -42 -91 -52q-39 -11 -109 -11h-109q-61 0 -91.5 35.5t-18.5 97.5l11 57q12 63 45.5 91.5t94.5 28.5h299l6 35q7 41 -6.5 56.5t-53.5 15.5h-112
q-31 0 -45 -12t-18 -42l-2 -17h-157l7 44q13 78 51.5 110t116.5 32zM234 107h80q51 0 91 26l40 27l11 60h-209q-28 0 -40 -10t-16 -38l-2 -12q-4 -29 6 -41t39 -12z" />
    <glyph glyph-name="aring" unicode="&#xe5;" horiz-adv-x="677" 
d="M483 564h-179q-56 0 -47 57l5 26q4 30 18 41.5t44 11.5h178q58 0 47 -57l-4 -26q-5 -30 -19 -41.5t-43 -11.5zM323 639l-3 -13q-2 -11 1 -15.5t14 -4.5h127q12 0 16 3.5t6 15.5l2 13q2 11 -1 15.5t-14 4.5h-127q-11 0 -15 -3.5t-6 -15.5zM259 532h232q183 0 150 -182
l-62 -350h-135l-3 63q-56 -42 -91 -52q-39 -11 -109 -11h-109q-61 0 -91.5 35.5t-18.5 97.5l11 57q12 63 45.5 91.5t94.5 28.5h299l6 35q7 41 -6.5 56.5t-53.5 15.5h-112q-31 0 -45 -12t-18 -42l-2 -17h-157l7 44q13 78 51.5 110t116.5 32zM234 107h80q51 0 91 26l40 27
l11 60h-209q-28 0 -40 -10t-16 -38l-2 -12q-4 -29 6 -41t39 -12z" />
    <glyph glyph-name="ae" unicode="&#xe6;" horiz-adv-x="1090" 
d="M707 532h202q181 0 149 -182l-20 -111h-417l-7 -42q-7 -40 6 -55.5t53 -15.5h136q31 0 44 11.5t19 42.5l3 16h156l-10 -54q-14 -78 -52 -110t-115 -32h-237q-105 0 -139 60q-52 -38 -88 -49q-38 -11 -107 -11h-151q-61 0 -91 36t-18 97l11 58q12 63 44.5 91t93.5 28h300
l6 35q7 40 -6 56t-54 16h-112q-31 0 -45 -12t-18 -42l-2 -17h-157l7 44q13 78 51.5 110t116.5 32h202q86 0 116 -48q36 48 130 48zM641 349l-2 -12h261l1 9q7 40 -6 55t-53 15h-123q-40 0 -55.5 -13.5t-22.5 -53.5zM405 133l40 27l11 60h-209q-28 0 -40 -10t-16 -38l-2 -12
q-5 -29 5 -41t39 -12h81q51 0 91 26z" />
    <glyph glyph-name="ccedilla" unicode="&#xe7;" horiz-adv-x="656" 
d="M257 532h215q181 0 152 -185l-5 -34h-157l3 16q6 40 -7.5 56.5t-53.5 16.5h-105q-40 0 -55.5 -13.5t-22.5 -52.5l-24 -133q-7 -40 7 -56.5t54 -16.5h105q40 0 55.5 13.5t22.5 52.5l5 29h157l-11 -61q-17 -94 -58 -128q-44 -36 -135 -36h-99l-14 -26h64q57 0 46 -56
l-5 -26q-5 -29 -18.5 -40.5t-42.5 -11.5h-172l9 53h136q9 0 12 11l2 10q3 12 -9 12h-101l5 24l26 50h-54q-184 0 -152 185l32 183q17 93 59 128q42 36 134 36z" />
    <glyph glyph-name="egrave" unicode="&#xe8;" horiz-adv-x="672" 
d="M387 700l60 -126h-120l-100 126h160zM259 532h232q91 0 128 -44t21 -137l-19 -112h-417l-7 -42q-7 -40 5.5 -55.5t52.5 -15.5h136q31 0 44 11.5t19 42.5l3 16h157l-10 -53q-15 -79 -52.5 -111t-114.5 -32h-256q-181 0 -149 182l32 184q16 92 59.5 129t135.5 37zM223 349
l-2 -12h261l1 9q7 40 -5.5 55t-52.5 15h-123q-39 0 -55.5 -14t-23.5 -53z" />
    <glyph glyph-name="eacute" unicode="&#xe9;" horiz-adv-x="672" 
d="M428 700h178l-144 -126h-138zM259 532h232q91 0 128 -44t21 -137l-19 -112h-417l-7 -42q-7 -40 5.5 -55.5t52.5 -15.5h136q31 0 44 11.5t19 42.5l3 16h157l-10 -53q-15 -79 -52.5 -111t-114.5 -32h-256q-181 0 -149 182l32 184q16 92 59.5 129t135.5 37zM223 349l-2 -12
h261l1 9q7 40 -5.5 55t-52.5 15h-123q-39 0 -55.5 -14t-23.5 -53z" />
    <glyph glyph-name="ecircumflex" unicode="&#xea;" horiz-adv-x="672" 
d="M482 574l-74 62l-97 -62h-124l146 126h158l102 -126h-111zM259 532h232q91 0 128 -44t21 -137l-19 -112h-417l-7 -42q-7 -40 5.5 -55.5t52.5 -15.5h136q31 0 44 11.5t19 42.5l3 16h157l-10 -53q-15 -79 -52.5 -111t-114.5 -32h-256q-181 0 -149 182l32 184
q16 92 59.5 129t135.5 37zM223 349l-2 -12h261l1 9q7 40 -5.5 55t-52.5 15h-123q-39 0 -55.5 -14t-23.5 -53z" />
    <glyph glyph-name="edieresis" unicode="&#xeb;" horiz-adv-x="672" 
d="M241 684h124l-17 -102h-124zM453 684h124l-17 -102h-124zM259 532h232q91 0 128 -44t21 -137l-19 -112h-417l-7 -42q-7 -40 5.5 -55.5t52.5 -15.5h136q31 0 44 11.5t19 42.5l3 16h157l-10 -53q-15 -79 -52.5 -111t-114.5 -32h-256q-181 0 -149 182l32 184q16 92 59.5 129
t135.5 37zM223 349l-2 -12h261l1 9q7 40 -5.5 55t-52.5 15h-123q-39 0 -55.5 -14t-23.5 -53z" />
    <glyph glyph-name="igrave" unicode="&#xec;" horiz-adv-x="282" 
d="M252 574h-120l-100 126h160zM176 0h-164l94 532h165z" />
    <glyph glyph-name="iacute" unicode="&#xed;" horiz-adv-x="282" 
d="M411 700l-144 -126h-138l104 126h178zM176 0h-164l94 532h165z" />
    <glyph glyph-name="icircumflex" unicode="&#xee;" horiz-adv-x="282" 
d="M116 574h-124l146 126h158l102 -126h-111l-74 62zM176 0h-164l94 532h165z" />
    <glyph glyph-name="idieresis" unicode="&#xef;" horiz-adv-x="282" 
d="M153 582h-124l17 102h124zM365 582h-124l17 102h124zM176 0h-164l94 532h165z" />
    <glyph glyph-name="eth" unicode="&#xf0;" horiz-adv-x="682" 
d="M473 700h34q99 0 143 -53t26 -153l-62 -352q-13 -78 -50.5 -110t-115.5 -32h-290q-77 0 -110.5 40.5t-20.5 117.5l24 138q13 77 51 109t116 32h174q83 0 105 -37l16 90q8 46 -8.5 66t-63.5 20h-50l-40 -60h-92l40 60h-119l22 124h180l40 60h91zM242 124h153
q31 0 44.5 11.5t18.5 42.5l16 91q3 27 -8.5 38t-41.5 11h-152q-31 0 -45 -12t-19 -43l-14 -81q-5 -32 6 -45t42 -13z" />
    <glyph glyph-name="ntilde" unicode="&#xf1;" horiz-adv-x="686" 
d="M304 630l-10 -56h-92l14 78q8 48 57 48h108q24 0 34.5 -5t22.5 -22l25 -33q8 -8 19 -8h17q11 0 14 12l9 56h92l-13 -78q-5 -26 -18.5 -37t-39.5 -11h-107q-23 0 -34.5 5.5t-22.5 21.5l-26 33q-8 8 -19 8h-17q-11 0 -13 -12zM450 532h47q185 0 152 -185l-61 -347h-163
l58 326q7 40 -7 56.5t-54 16.5h-48q-66 0 -107 -29l-35 -24l-62 -346h-162l94 532h134l4 -65q57 42 97 54q41 11 113 11z" />
    <glyph glyph-name="ograve" unicode="&#xf2;" horiz-adv-x="682" 
d="M452 574h-120l-100 126h160zM425 0h-241q-184 0 -152 185l32 183q17 93 59 128q42 36 134 36h241q184 0 152 -185l-32 -183q-17 -93 -58 -128q-44 -36 -135 -36zM258 130h125q40 0 55.5 13.5t22.5 52.5l24 133q7 40 -7 56.5t-54 16.5h-125q-40 0 -55.5 -13.5t-22.5 -52.5
l-24 -133q-7 -40 7 -56.5t54 -16.5z" />
    <glyph glyph-name="oacute" unicode="&#xf3;" horiz-adv-x="682" 
d="M611 700l-144 -126h-138l104 126h178zM425 0h-241q-184 0 -152 185l32 183q17 93 59 128q42 36 134 36h241q184 0 152 -185l-32 -183q-17 -93 -58 -128q-44 -36 -135 -36zM258 130h125q40 0 55.5 13.5t22.5 52.5l24 133q7 40 -7 56.5t-54 16.5h-125q-40 0 -55.5 -13.5
t-22.5 -52.5l-24 -133q-7 -40 7 -56.5t54 -16.5z" />
    <glyph glyph-name="ocircumflex" unicode="&#xf4;" horiz-adv-x="682" 
d="M316 574h-124l146 126h158l102 -126h-111l-74 62zM425 0h-241q-184 0 -152 185l32 183q17 93 59 128q42 36 134 36h241q184 0 152 -185l-32 -183q-17 -93 -58 -128q-44 -36 -135 -36zM258 130h125q40 0 55.5 13.5t22.5 52.5l24 133q7 40 -7 56.5t-54 16.5h-125
q-40 0 -55.5 -13.5t-22.5 -52.5l-24 -133q-7 -40 7 -56.5t54 -16.5z" />
    <glyph glyph-name="otilde" unicode="&#xf5;" horiz-adv-x="682" 
d="M292 574h-92l14 78q8 48 57 48h108q24 0 34.5 -5t22.5 -22l25 -33q8 -8 19 -8h17q11 0 14 12l9 56h92l-13 -78q-5 -26 -18.5 -37t-39.5 -11h-107q-23 0 -34.5 5.5t-22.5 21.5l-26 33q-8 8 -19 8h-17q-11 0 -13 -12zM425 0h-241q-184 0 -152 185l32 183q17 93 59 128
q42 36 134 36h241q184 0 152 -185l-32 -183q-17 -93 -58 -128q-44 -36 -135 -36zM258 130h125q40 0 55.5 13.5t22.5 52.5l24 133q7 40 -7 56.5t-54 16.5h-125q-40 0 -55.5 -13.5t-22.5 -52.5l-24 -133q-7 -40 7 -56.5t54 -16.5z" />
    <glyph glyph-name="odieresis" unicode="&#xf6;" horiz-adv-x="682" 
d="M353 582h-124l17 102h124zM565 582h-124l17 102h124zM425 0h-241q-184 0 -152 185l32 183q17 93 59 128q42 36 134 36h241q184 0 152 -185l-32 -183q-17 -93 -58 -128q-44 -36 -135 -36zM258 130h125q40 0 55.5 13.5t22.5 52.5l24 133q7 40 -7 56.5t-54 16.5h-125
q-40 0 -55.5 -13.5t-22.5 -52.5l-24 -133q-7 -40 7 -56.5t54 -16.5z" />
    <glyph glyph-name="divide" unicode="&#xf7;" 
d="M518 530h-192l25 138h192zM65 280l24 140h628l-24 -140h-628zM430 32h-192l25 138h192z" />
    <glyph glyph-name="oslash" unicode="&#xf8;" horiz-adv-x="682" 
d="M614 566h105l-90 -83q36 -45 21 -136l-32 -183q-17 -93 -58 -128q-44 -36 -135 -36h-241q-40 0 -70 9l-46 -43h-105l90 83q-36 45 -21 136l32 183q17 93 59 128q42 36 134 36h241q40 0 70 -9zM205 348l-28 -157q-3 -20 -2 -30l274 253h-5h-162q-39 0 -54.5 -13.5
t-22.5 -52.5zM477 184l28 157q3 20 2 30l-274 -253h5h162q39 0 54.5 13.5t22.5 52.5z" />
    <glyph glyph-name="ugrave" unicode="&#xf9;" horiz-adv-x="686" 
d="M394 700l60 -126h-120l-100 126h160zM516 532h162l-94 -532h-134l-4 65q-58 -43 -96 -53q-40 -12 -114 -12h-47q-185 0 -152 185l61 347h163l-58 -326q-7 -40 7 -56.5t54 -16.5h48q66 0 107 29l35 24z" />
    <glyph glyph-name="uacute" unicode="&#xfa;" horiz-adv-x="686" 
d="M435 700h178l-144 -126h-138zM516 532h162l-94 -532h-134l-4 65q-58 -43 -96 -53q-40 -12 -114 -12h-47q-185 0 -152 185l61 347h163l-58 -326q-7 -40 7 -56.5t54 -16.5h48q66 0 107 29l35 24z" />
    <glyph glyph-name="ucircumflex" unicode="&#xfb;" horiz-adv-x="686" 
d="M489 574l-74 62l-97 -62h-124l146 126h158l102 -126h-111zM516 532h162l-94 -532h-134l-4 65q-58 -43 -96 -53q-40 -12 -114 -12h-47q-185 0 -152 185l61 347h163l-58 -326q-7 -40 7 -56.5t54 -16.5h48q66 0 107 29l35 24z" />
    <glyph glyph-name="udieresis" unicode="&#xfc;" horiz-adv-x="686" 
d="M248 684h124l-17 -102h-124zM460 684h124l-17 -102h-124zM516 532h162l-94 -532h-134l-4 65q-58 -43 -96 -53q-40 -12 -114 -12h-47q-185 0 -152 185l61 347h163l-58 -326q-7 -40 7 -56.5t54 -16.5h48q66 0 107 29l35 24z" />
    <glyph glyph-name="yacute" unicode="&#xfd;" horiz-adv-x="658" 
d="M413 700h178l-144 -126h-138zM305 169l214 363h182l-356 -547q-61 -95 -108 -120q-46 -25 -154 -25h-102l23 130h96q43 0 63 8.5t40 37.5l-152 516h171z" />
    <glyph glyph-name="thorn" unicode="&#xfe;" horiz-adv-x="691" 
d="M450 532h60q182 0 149 -182l-32 -184q-17 -94 -59 -129q-43 -37 -136 -37h-69q-70 0 -109 11q-36 10 -74 45l-38 -216h-162l152 860h162l-39 -224q48 35 87 46q36 10 108 10zM470 196l23 134q7 40 -6 56t-53 16h-60q-63 0 -107 -29l-35 -24l-30 -167l27 -25
q31 -27 101 -27h63q39 0 54.5 13t22.5 53z" />
    <glyph glyph-name="ydieresis" unicode="&#xff;" horiz-adv-x="658" 
d="M226 684h124l-17 -102h-124zM438 684h124l-17 -102h-124zM305 169l214 363h182l-356 -547q-61 -95 -108 -120q-46 -25 -154 -25h-102l23 130h96q43 0 63 8.5t40 37.5l-152 516h171z" />
    <glyph glyph-name="Amacron" unicode="&#x100;" horiz-adv-x="812" 
d="M305 846h408l-14 -80h-408zM764 0h-180l-29 129h-336l-74 -129h-193l434 700h193zM462 552l-169 -295h234z" />
    <glyph glyph-name="amacron" unicode="&#x101;" horiz-adv-x="677" 
d="M208 678h408l-14 -80h-408zM259 532h232q183 0 150 -182l-62 -350h-135l-3 63q-56 -42 -91 -52q-39 -11 -109 -11h-109q-61 0 -91.5 35.5t-18.5 97.5l11 57q12 63 45.5 91.5t94.5 28.5h299l6 35q7 41 -6.5 56.5t-53.5 15.5h-112q-31 0 -45 -12t-18 -42l-2 -17h-157l7 44
q13 78 51.5 110t116.5 32zM234 107h80q51 0 91 26l40 27l11 60h-209q-28 0 -40 -10t-16 -38l-2 -12q-4 -29 6 -41t39 -12z" />
    <glyph glyph-name="Abreve" unicode="&#x102;" horiz-adv-x="812" 
d="M613 742h-242q-76 0 -63 76l9 50h110l-6 -30q-4 -28 24 -28h115q27 0 31 28l6 30h110l-9 -54q-7 -38 -27 -55t-58 -17zM764 0h-180l-29 129h-336l-74 -129h-193l434 700h193zM462 552l-169 -295h234z" />
    <glyph glyph-name="abreve" unicode="&#x103;" horiz-adv-x="677" 
d="M516 574h-242q-76 0 -63 76l9 50h110l-6 -30q-4 -28 24 -28h115q27 0 31 28l6 30h110l-9 -54q-7 -38 -27 -55t-58 -17zM259 532h232q183 0 150 -182l-62 -350h-135l-3 63q-56 -42 -91 -52q-39 -11 -109 -11h-109q-61 0 -91.5 35.5t-18.5 97.5l11 57q12 63 45.5 91.5
t94.5 28.5h299l6 35q7 41 -6.5 56.5t-53.5 15.5h-112q-31 0 -45 -12t-18 -42l-2 -17h-157l7 44q13 78 51.5 110t116.5 32zM234 107h80q51 0 91 26l40 27l11 60h-209q-28 0 -40 -10t-16 -38l-2 -12q-4 -29 6 -41t39 -12z" />
    <glyph glyph-name="Aogonek" unicode="&#x104;" horiz-adv-x="812" 
d="M552 -37l-2 -10q-3 -25 21 -25h124l-15 -88h-164q-42 0 -58 20.5t-11 63.5l2 16q4 31 16 48.5t45 38.5l25 15l44 -20l-24 107h-336l-74 -129h-193l434 700h193l185 -700h-178l-12 -8q-20 -12 -22 -29zM462 552l-169 -295h234z" />
    <glyph glyph-name="aogonek" unicode="&#x105;" horiz-adv-x="677" 
d="M483 -37l-1 -10q-3 -25 21 -25h88l-15 -88h-128q-42 0 -58 20.5t-11 63.5l2 16q4 31 16 48.5t45 38.5h1l-2 36q-56 -42 -91 -52q-39 -11 -109 -11h-109q-61 0 -91.5 35.5t-18.5 97.5l11 57q12 63 45.5 91.5t94.5 28.5h299l6 35q7 41 -6.5 56.5t-53.5 15.5h-112
q-31 0 -45 -12t-18 -42l-2 -17h-157l7 44q13 78 51.5 110t116.5 32h232q183 0 150 -182l-62 -350h-61l-12 -8q-21 -12 -23 -29zM234 107h80q51 0 91 26l40 27l11 60h-209q-28 0 -40 -10t-16 -38l-2 -12q-4 -29 6 -41t39 -12z" />
    <glyph glyph-name="Cacute" unicode="&#x106;" horiz-adv-x="776" 
d="M688 868l-144 -126h-138l104 126h178zM500 0h-296q-99 0 -142.5 52.5t-25.5 151.5l56 312q18 100 67.5 142t148.5 42h296q99 0 142.5 -52.5t25.5 -151.5l-13 -72h-166l8 46q8 46 -8.5 66t-61.5 20h-181q-45 0 -65.5 -17.5t-27.5 -62.5l-44 -246q-8 -46 8.5 -66t61.5 -20
h181q45 0 65 17t28 63l11 59h166l-18 -99q-18 -100 -67.5 -142t-148.5 -42z" />
    <glyph glyph-name="cacute" unicode="&#x107;" horiz-adv-x="656" 
d="M598 700l-144 -126h-138l104 126h178zM399 0h-215q-184 0 -152 185l32 183q17 93 59 128q42 36 134 36h215q181 0 152 -185l-5 -34h-157l3 16q6 40 -7.5 56.5t-53.5 16.5h-105q-40 0 -55.5 -13.5t-22.5 -52.5l-24 -133q-7 -40 7 -56.5t54 -16.5h105q40 0 55.5 13.5
t22.5 52.5l5 29h157l-11 -61q-17 -94 -58 -128q-44 -36 -135 -36z" />
    <glyph glyph-name="Ccircumflex" unicode="&#x108;" horiz-adv-x="776" 
d="M393 742h-124l146 126h158l102 -126h-111l-74 62zM500 0h-296q-99 0 -142.5 52.5t-25.5 151.5l56 312q18 100 67.5 142t148.5 42h296q99 0 142.5 -52.5t25.5 -151.5l-13 -72h-166l8 46q8 46 -8.5 66t-61.5 20h-181q-45 0 -65.5 -17.5t-27.5 -62.5l-44 -246
q-8 -46 8.5 -66t61.5 -20h181q45 0 65 17t28 63l11 59h166l-18 -99q-18 -100 -67.5 -142t-148.5 -42z" />
    <glyph glyph-name="ccircumflex" unicode="&#x109;" horiz-adv-x="656" 
d="M303 574h-124l146 126h158l102 -126h-111l-74 62zM399 0h-215q-184 0 -152 185l32 183q17 93 59 128q42 36 134 36h215q181 0 152 -185l-5 -34h-157l3 16q6 40 -7.5 56.5t-53.5 16.5h-105q-40 0 -55.5 -13.5t-22.5 -52.5l-24 -133q-7 -40 7 -56.5t54 -16.5h105
q40 0 55.5 13.5t22.5 52.5l5 29h157l-11 -61q-17 -94 -58 -128q-44 -36 -135 -36z" />
    <glyph glyph-name="Cdotaccent" unicode="&#x10a;" horiz-adv-x="776" 
d="M557 750h-165l17 102h165zM500 0h-296q-99 0 -142.5 52.5t-25.5 151.5l56 312q18 100 67.5 142t148.5 42h296q99 0 142.5 -52.5t25.5 -151.5l-13 -72h-166l8 46q8 46 -8.5 66t-61.5 20h-181q-45 0 -65.5 -17.5t-27.5 -62.5l-44 -246q-8 -46 8.5 -66t61.5 -20h181
q45 0 65 17t28 63l11 59h166l-18 -99q-18 -100 -67.5 -142t-148.5 -42z" />
    <glyph glyph-name="cdotaccent" unicode="&#x10b;" horiz-adv-x="656" 
d="M467 582h-165l17 102h165zM399 0h-215q-184 0 -152 185l32 183q17 93 59 128q42 36 134 36h215q181 0 152 -185l-5 -34h-157l3 16q6 40 -7.5 56.5t-53.5 16.5h-105q-40 0 -55.5 -13.5t-22.5 -52.5l-24 -133q-7 -40 7 -56.5t54 -16.5h105q40 0 55.5 13.5t22.5 52.5l5 29
h157l-11 -61q-17 -94 -58 -128q-44 -36 -135 -36z" />
    <glyph glyph-name="Ccaron" unicode="&#x10c;" horiz-adv-x="776" 
d="M573 868h124l-146 -126h-158l-102 126h111l74 -62zM500 0h-296q-99 0 -142.5 52.5t-25.5 151.5l56 312q18 100 67.5 142t148.5 42h296q99 0 142.5 -52.5t25.5 -151.5l-13 -72h-166l8 46q8 46 -8.5 66t-61.5 20h-181q-45 0 -65.5 -17.5t-27.5 -62.5l-44 -246
q-8 -46 8.5 -66t61.5 -20h181q45 0 65 17t28 63l11 59h166l-18 -99q-18 -100 -67.5 -142t-148.5 -42z" />
    <glyph glyph-name="ccaron" unicode="&#x10d;" horiz-adv-x="656" 
d="M483 700h124l-146 -126h-158l-102 126h111l74 -62zM399 0h-215q-184 0 -152 185l32 183q17 93 59 128q42 36 134 36h215q181 0 152 -185l-5 -34h-157l3 16q6 40 -7.5 56.5t-53.5 16.5h-105q-40 0 -55.5 -13.5t-22.5 -52.5l-24 -133q-7 -40 7 -56.5t54 -16.5h105
q40 0 55.5 13.5t22.5 52.5l5 29h157l-11 -61q-17 -94 -58 -128q-44 -36 -135 -36z" />
    <glyph glyph-name="Dcaron" unicode="&#x10e;" horiz-adv-x="803" 
d="M586 868h124l-146 -126h-158l-102 126h111l74 -62zM483 0h-474l124 700h446q116 0 173 -68.5t36 -185.5l-39 -220q-21 -118 -85 -172t-181 -54zM279 554l-72 -408h257q53 0 80 23t37 76l34 199q20 110 -90 110h-246z" />
    <glyph glyph-name="dcaron" unicode="&#x10f;" horiz-adv-x="844" 
d="M510 476l40 224h163l-124 -700h-135l-3 66q-57 -42 -96 -54t-114 -12h-60q-182 0 -149 182l32 184q16 92 59.5 129t135.5 37h69q73 0 109 -10q34 -10 73 -46zM736 586l20 114h156l-10 -57q-8 -48 -42 -95l-50 -72h-92l67 110h-49zM257 130h59q63 0 107 29l36 24l29 168
l-27 24q-29 27 -101 27h-62q-39 0 -54.5 -13t-22.5 -53l-24 -134q-7 -40 6.5 -56t53.5 -16z" />
    <glyph glyph-name="Dcroat" unicode="&#x110;" horiz-adv-x="863" 
d="M193 700h446q116 0 173 -68.5t36 -185.5l-39 -220q-21 -118 -85 -172t-181 -54h-474l53 299h-88l18 102h88zM641 245l34 199q20 110 -90 110h-246l-27 -153h194l-18 -102h-194l-27 -153h257q53 0 80 23t37 76z" />
    <glyph glyph-name="dslash" unicode="&#x111;" horiz-adv-x="732" 
d="M704 648h77l-13 -74h-77l-102 -574h-135l-3 66q-57 -42 -96 -54t-114 -12h-60q-182 0 -149 182l32 184q16 92 59.5 129t135.5 37h69q73 0 109 -10q34 -10 73 -46l18 98h-168l13 74h168l9 52h163zM257 130h59q63 0 107 29l36 24l29 168l-27 24q-29 27 -101 27h-62
q-39 0 -54.5 -13t-22.5 -53l-24 -134q-7 -40 6.5 -56t53.5 -16z" />
    <glyph glyph-name="Emacron" unicode="&#x112;" horiz-adv-x="682" 
d="M240 846h408l-14 -80h-408zM720 700l-25 -142h-416l-24 -133h376l-23 -130h-376l-27 -153h426l-25 -142h-598l124 700h588z" />
    <glyph glyph-name="emacron" unicode="&#x113;" horiz-adv-x="672" 
d="M205 678h408l-14 -80h-408zM259 532h232q91 0 128 -44t21 -137l-19 -112h-417l-7 -42q-7 -40 5.5 -55.5t52.5 -15.5h136q31 0 44 11.5t19 42.5l3 16h157l-10 -53q-15 -79 -52.5 -111t-114.5 -32h-256q-181 0 -149 182l32 184q16 92 59.5 129t135.5 37zM223 349l-2 -12
h261l1 9q7 40 -5.5 55t-52.5 15h-123q-39 0 -55.5 -14t-23.5 -53z" />
    <glyph glyph-name="Ebreve" unicode="&#x114;" horiz-adv-x="682" 
d="M548 742h-242q-76 0 -63 76l9 50h110l-6 -30q-4 -28 24 -28h115q27 0 31 28l6 30h110l-9 -54q-7 -38 -27 -55t-58 -17zM720 700l-25 -142h-416l-24 -133h376l-23 -130h-376l-27 -153h426l-25 -142h-598l124 700h588z" />
    <glyph glyph-name="ebreve" unicode="&#x115;" horiz-adv-x="672" 
d="M513 574h-242q-76 0 -63 76l9 50h110l-6 -30q-4 -28 24 -28h115q27 0 31 28l6 30h110l-9 -54q-7 -38 -27 -55t-58 -17zM259 532h232q91 0 128 -44t21 -137l-19 -112h-417l-7 -42q-7 -40 5.5 -55.5t52.5 -15.5h136q31 0 44 11.5t19 42.5l3 16h157l-10 -53
q-15 -79 -52.5 -111t-114.5 -32h-256q-181 0 -149 182l32 184q16 92 59.5 129t135.5 37zM223 349l-2 -12h261l1 9q7 40 -5.5 55t-52.5 15h-123q-39 0 -55.5 -14t-23.5 -53z" />
    <glyph glyph-name="Edotaccent" unicode="&#x116;" horiz-adv-x="682" 
d="M362 852h165l-17 -102h-165zM720 700l-25 -142h-416l-24 -133h376l-23 -130h-376l-27 -153h426l-25 -142h-598l124 700h588z" />
    <glyph glyph-name="edotaccent" unicode="&#x117;" horiz-adv-x="672" 
d="M327 684h165l-17 -102h-165zM259 532h232q91 0 128 -44t21 -137l-19 -112h-417l-7 -42q-7 -40 5.5 -55.5t52.5 -15.5h136q31 0 44 11.5t19 42.5l3 16h157l-10 -53q-15 -79 -52.5 -111t-114.5 -32h-256q-181 0 -149 182l32 184q16 92 59.5 129t135.5 37zM223 349l-2 -12
h261l1 9q7 40 -5.5 55t-52.5 15h-123q-39 0 -55.5 -14t-23.5 -53z" />
    <glyph glyph-name="Eogonek" unicode="&#x118;" horiz-adv-x="682" 
d="M720 700l-25 -142h-416l-24 -133h376l-23 -130h-376l-27 -153h426l-25 -142h-136l-12 -8q-20 -12 -22 -29l-2 -10q-3 -25 21 -25h124l-15 -88h-164q-42 0 -58 20.5t-11 63.5l2 16q5 41 26 60h-351l124 700h588z" />
    <glyph glyph-name="eogonek" unicode="&#x119;" horiz-adv-x="672" 
d="M259 532h232q91 0 128 -44t21 -137l-19 -112h-417l-7 -42q-7 -40 5.5 -55.5t52.5 -15.5h136q31 0 44 11.5t19 42.5l3 16h157l-10 -53q-15 -79 -52.5 -111t-114.5 -32h-31l-12 -8q-20 -12 -22 -29l-2 -10q-3 -25 21 -25h124l-15 -88h-164q-42 0 -58 20.5t-11 63.5l2 16
q5 41 26 60h-114q-181 0 -149 182l32 184q16 92 59.5 129t135.5 37zM223 349l-2 -12h261l1 9q7 40 -5.5 55t-52.5 15h-123q-39 0 -55.5 -14t-23.5 -53z" />
    <glyph glyph-name="Ecaron" unicode="&#x11a;" horiz-adv-x="682" 
d="M650 868l-146 -126h-158l-102 126h111l74 -62l97 62h124zM720 700l-25 -142h-416l-24 -133h376l-23 -130h-376l-27 -153h426l-25 -142h-598l124 700h588z" />
    <glyph glyph-name="ecaron" unicode="&#x11b;" horiz-adv-x="672" 
d="M615 700l-146 -126h-158l-102 126h111l74 -62l97 62h124zM259 532h232q91 0 128 -44t21 -137l-19 -112h-417l-7 -42q-7 -40 5.5 -55.5t52.5 -15.5h136q31 0 44 11.5t19 42.5l3 16h157l-10 -53q-15 -79 -52.5 -111t-114.5 -32h-256q-181 0 -149 182l32 184q16 92 59.5 129
t135.5 37zM223 349l-2 -12h261l1 9q7 40 -5.5 55t-52.5 15h-123q-39 0 -55.5 -14t-23.5 -53z" />
    <glyph glyph-name="Gcircumflex" unicode="&#x11c;" horiz-adv-x="804" 
d="M407 742h-124l146 126h158l102 -126h-111l-74 62zM526 0h-322q-99 0 -142.5 52.5t-25.5 151.5l56 312q18 100 67.5 142t148.5 42h322q99 0 142 -52.5t26 -151.5l-8 -47h-173l4 23q8 46 -8.5 66t-62.5 20h-200q-46 0 -66 -17t-28 -63l-44 -254q-8 -46 8.5 -66t61.5 -20
h207q45 0 64.5 17t28.5 63l8 42h-180l22 130h346l-36 -206q-17 -100 -67 -142t-149 -42z" />
    <glyph glyph-name="gcircumflex" unicode="&#x11d;" horiz-adv-x="691" 
d="M492 574l-74 62l-97 -62h-124l146 126h158l102 -126h-111zM521 465l28 67h134l-89 -504q-18 -100 -70 -144t-151 -44h-382l21 120h324q46 0 68 18t30 64l10 56q-54 -37 -89 -47q-39 -11 -106 -11h-61q-181 0 -149 182l25 144q16 92 60 130q44 36 135 36h69q77 0 115 -12
q38 -14 78 -55zM430 195l35 23l24 136l-27 24q-31 28 -101 28h-62q-39 0 -54.5 -13.5t-22.5 -52.5l-18 -102q-7 -40 6 -56.5t53 -16.5h60q62 0 107 30z" />
    <glyph glyph-name="Gbreve" unicode="&#x11e;" horiz-adv-x="804" 
d="M609 742h-242q-76 0 -63 76l9 50h110l-6 -30q-4 -28 24 -28h115q27 0 31 28l6 30h110l-9 -54q-7 -38 -27 -55t-58 -17zM526 0h-322q-99 0 -142.5 52.5t-25.5 151.5l56 312q18 100 67.5 142t148.5 42h322q99 0 142 -52.5t26 -151.5l-8 -47h-173l4 23q8 46 -8.5 66
t-62.5 20h-200q-46 0 -66 -17t-28 -63l-44 -254q-8 -46 8.5 -66t61.5 -20h207q45 0 64.5 17t28.5 63l8 42h-180l22 130h346l-36 -206q-17 -100 -67 -142t-149 -42z" />
    <glyph glyph-name="gbreve" unicode="&#x11f;" horiz-adv-x="691" 
d="M523 574h-242q-76 0 -63 76l9 50h110l-6 -30q-4 -28 24 -28h115q27 0 31 28l6 30h110l-9 -54q-7 -38 -27 -55t-58 -17zM521 465l28 67h134l-89 -504q-18 -100 -70 -144t-151 -44h-382l21 120h324q46 0 68 18t30 64l10 56q-54 -37 -89 -47q-39 -11 -106 -11h-61
q-181 0 -149 182l25 144q16 92 60 130q44 36 135 36h69q77 0 115 -12q38 -14 78 -55zM430 195l35 23l24 136l-27 24q-31 28 -101 28h-62q-39 0 -54.5 -13.5t-22.5 -52.5l-18 -102q-7 -40 6 -56.5t53 -16.5h60q62 0 107 30z" />
    <glyph glyph-name="Gdotaccent" unicode="&#x120;" horiz-adv-x="804" 
d="M571 750h-165l17 102h165zM526 0h-322q-99 0 -142.5 52.5t-25.5 151.5l56 312q18 100 67.5 142t148.5 42h322q99 0 142 -52.5t26 -151.5l-8 -47h-173l4 23q8 46 -8.5 66t-62.5 20h-200q-46 0 -66 -17t-28 -63l-44 -254q-8 -46 8.5 -66t61.5 -20h207q45 0 64.5 17t28.5 63
l8 42h-180l22 130h346l-36 -206q-17 -100 -67 -142t-149 -42z" />
    <glyph glyph-name="gdotaccent" unicode="&#x121;" horiz-adv-x="691" 
d="M337 684h165l-17 -102h-165zM521 465l28 67h134l-89 -504q-18 -100 -70 -144t-151 -44h-382l21 120h324q46 0 68 18t30 64l10 56q-54 -37 -89 -47q-39 -11 -106 -11h-61q-181 0 -149 182l25 144q16 92 60 130q44 36 135 36h69q77 0 115 -12q38 -14 78 -55zM430 195l35 23
l24 136l-27 24q-31 28 -101 28h-62q-39 0 -54.5 -13.5t-22.5 -52.5l-18 -102q-7 -40 6 -56.5t53 -16.5h60q62 0 107 30z" />
    <glyph glyph-name="Gcommaaccent" unicode="&#x122;" horiz-adv-x="804" 
d="M526 0h-322q-99 0 -142.5 52.5t-25.5 151.5l56 312q18 100 67.5 142t148.5 42h322q99 0 142 -52.5t26 -151.5l-8 -47h-173l4 23q8 46 -8.5 66t-62.5 20h-200q-46 0 -66 -17t-28 -63l-44 -254q-8 -46 8.5 -66t61.5 -20h207q45 0 64.5 17t28.5 63l8 42h-180l22 130h346
l-36 -206q-17 -100 -67 -142t-149 -42zM335 -214h-92l63 88h-49l16 96h156l-6 -36q-4 -30 -12 -47q-6 -12 -32 -43z" />
    <glyph glyph-name="gcommaaccent" unicode="&#x123;" horiz-adv-x="691" 
d="M448 670h49l-17 -96h-156l6 36q4 26 13 46q9 18 31 44l45 58h91zM521 465l28 67h134l-89 -504q-18 -100 -70 -144t-151 -44h-382l21 120h324q46 0 68 18t30 64l10 56q-54 -37 -89 -47q-39 -11 -106 -11h-61q-181 0 -149 182l25 144q16 92 60 130q44 36 135 36h69
q77 0 115 -12q38 -14 78 -55zM430 195l35 23l24 136l-27 24q-31 28 -101 28h-62q-39 0 -54.5 -13.5t-22.5 -52.5l-18 -102q-7 -40 6 -56.5t53 -16.5h60q62 0 107 30z" />
    <glyph glyph-name="Hcircumflex" unicode="&#x124;" horiz-adv-x="792" 
d="M572 742l-74 62l-97 -62h-124l146 126h158l102 -126h-111zM588 440l46 260h172l-124 -700h-172l51 288h-336l-51 -288h-172l124 700h172l-46 -260h336z" />
    <glyph glyph-name="hcircumflex" unicode="&#x125;" horiz-adv-x="686" 
d="M312 742l-74 62l-97 -62h-124l146 126h158l102 -126h-111zM454 532h43q185 0 152 -185l-61 -347h-163l58 326q7 40 -7 56.5t-54 16.5h-48q-63 0 -107 -29l-36 -24l-61 -346h-162l124 700h162l-40 -227q55 39 90 49q36 10 110 10z" />
    <glyph glyph-name="Hbar" unicode="&#x126;" horiz-adv-x="912" 
d="M851 617h95l-16 -93h-95l-93 -524h-172l51 288h-336l-51 -288h-172l93 524h-81l16 93h81l15 83h172l-15 -83h336l15 83h172zM312 440h336l15 84h-336z" />
    <glyph glyph-name="hbar" unicode="&#x127;" horiz-adv-x="727" 
d="M499 532h43q185 0 152 -185l-61 -347h-163l58 326q7 40 -7 56.5t-54 16.5h-48q-63 0 -107 -29l-36 -24l-61 -346h-162l102 574h-82l13 74h82l9 52h162l-9 -52h164l-13 -74h-164l-18 -101q55 39 90 49q36 10 110 10z" />
    <glyph glyph-name="Itilde" unicode="&#x128;" horiz-adv-x="296" 
d="M129 742h-92l14 78q7 48 57 48h108q24 0 34.5 -5t22.5 -22l25 -33q8 -8 19 -8h17q11 0 14 12l9 56h92l-13 -78q-5 -26 -18.5 -37t-39.5 -11h-107q-23 0 -34.5 5.5t-22.5 21.5l-26 33q-8 8 -19 8h-17q-12 0 -13 -12zM14 0l124 700h174l-124 -700h-174z" />
    <glyph glyph-name="itilde" unicode="&#x129;" horiz-adv-x="282" 
d="M92 574h-92l14 78q8 48 57 48h108q24 0 34.5 -5t22.5 -22l25 -33q8 -8 19 -8h17q11 0 14 12l9 56h92l-13 -78q-5 -26 -18.5 -37t-39.5 -11h-107q-23 0 -34.5 5.5t-22.5 21.5l-26 33q-8 8 -19 8h-17q-11 0 -13 -12zM176 0h-164l94 532h165z" />
    <glyph glyph-name="Imacron" unicode="&#x12a;" horiz-adv-x="296" 
d="M441 766h-408l14 80h408zM14 0l124 700h174l-124 -700h-174z" />
    <glyph glyph-name="imacron" unicode="&#x12b;" horiz-adv-x="282" 
d="M404 598h-408l14 80h408zM176 0h-164l94 532h165z" />
    <glyph glyph-name="Ibreve" unicode="&#x12c;" horiz-adv-x="296" 
d="M355 742h-242q-76 0 -63 76l9 50h110l-6 -30q-4 -28 24 -28h115q27 0 31 28l6 30h110l-9 -54q-7 -38 -27 -55t-58 -17zM14 0l124 700h174l-124 -700h-174z" />
    <glyph glyph-name="ibreve" unicode="&#x12d;" horiz-adv-x="282" 
d="M318 574h-242q-76 0 -63 76l9 50h110l-6 -30q-4 -28 24 -28h115q27 0 31 28l6 30h110l-9 -54q-7 -38 -27 -55t-58 -17zM176 0h-164l94 532h165z" />
    <glyph glyph-name="Iogonek" unicode="&#x12e;" horiz-adv-x="296" 
d="M55 -37l-2 -10q-3 -25 21 -25h124l-15 -88h-164q-42 0 -58 20.5t-11 63.5l2 16q4 31 16 48.5t45 38.5l6 4l119 669h174l-124 -700h-99l-12 -8q-20 -12 -22 -29z" />
    <glyph glyph-name="iogonek" unicode="&#x12f;" horiz-adv-x="282" 
d="M115 582l17 102h165l-17 -102h-165zM44 -37l-2 -10q-3 -25 21 -25h124l-15 -88h-164q-42 0 -58 20.5t-11 63.5l2 16q4 31 16 48.5t45 38.5l17 10l87 495h165l-95 -532h-98l-12 -8q-20 -12 -22 -29z" />
    <glyph glyph-name="Idot" unicode="&#x130;" horiz-adv-x="296" 
d="M321 750h-174l17 102h174zM14 0l124 700h174l-124 -700h-174z" />
    <glyph glyph-name="dotlessi" unicode="&#x131;" horiz-adv-x="282" 
d="M176 0h-164l94 532h165z" />
    <glyph glyph-name="IJ" unicode="&#x132;" horiz-adv-x="1008" 
d="M14 0l124 700h174l-124 -700h-174zM727 0h-246q-99 0 -142.5 52.5t-25.5 151.5l14 78h166l-10 -52q-8 -45 9 -65.5t62 -20.5h131q45 0 65.5 17.5t27.5 62.5l85 476h172l-92 -516q-18 -100 -67.5 -142t-148.5 -42z" />
    <glyph glyph-name="ij" unicode="&#x133;" horiz-adv-x="564" 
d="M279 582h-165l21 118h165zM561 582h-165l22 118h164zM176 0h-165l94 532h165zM288 -160h-103l22 124h28q31 0 44 11t18 42l91 515h165l-97 -550q-14 -78 -52.5 -110t-115.5 -32z" />
    <glyph glyph-name="Jcircumflex" unicode="&#x134;" horiz-adv-x="712" 
d="M581 742h-124l146 126h158l102 -126h-111l-74 62zM431 0h-246q-99 0 -142.5 52.5t-25.5 151.5l14 78h166l-10 -52q-8 -45 9 -65.5t62 -20.5h131q45 0 65.5 17.5t27.5 62.5l85 476h172l-92 -516q-18 -100 -67.5 -142t-148.5 -42z" />
    <glyph glyph-name="jcircumflex" unicode="&#x135;" horiz-adv-x="282" 
d="M116 574h-124l146 126h158l102 -126h-111l-74 62zM6 -160h-103l22 124h28q31 0 44 11t18 42l91 515h165l-97 -550q-14 -78 -52.5 -110t-115.5 -32z" />
    <glyph glyph-name="Kcommaaccent" unicode="&#x136;" horiz-adv-x="771" 
d="M594 700h240l-401 -342l281 -358h-222l-256 346l-61 -346h-172l124 700h172l-57 -322zM289 -126h-49l16 96h156l-6 -36q-4 -30 -12 -47q-6 -12 -32 -43l-44 -58h-92z" />
    <glyph glyph-name="kcommaaccent" unicode="&#x137;" horiz-adv-x="669" 
d="M485 532h225l-316 -268l229 -264h-210l-199 253l-45 -253h-162l124 700h162l-74 -416zM238 -126h-49l16 96h156l-6 -36q-4 -30 -12 -47q-6 -12 -32 -43l-44 -58h-92z" />
    <glyph glyph-name="Lacute" unicode="&#x139;" horiz-adv-x="618" 
d="M264 868h178l-144 -126h-138zM305 700l-97 -548h376l-27 -152h-548l124 700h172z" />
    <glyph glyph-name="lacute" unicode="&#x13a;" horiz-adv-x="282" 
d="M441 868l-144 -126h-138l104 126h178zM176 0h-164l124 700h164z" />
    <glyph glyph-name="Lcommaaccent" unicode="&#x13b;" horiz-adv-x="618" 
d="M305 700l-97 -548h376l-27 -152h-548l124 700h172zM213 -126h-49l16 96h156l-6 -36q-4 -30 -12 -47q-6 -12 -32 -43l-44 -58h-92z" />
    <glyph glyph-name="lcommaaccent" unicode="&#x13c;" horiz-adv-x="282" 
d="M176 0h-164l124 700h164zM74 -214h-92l63 88h-49l16 96h156l-6 -36q-4 -30 -12 -47q-6 -12 -32 -43z" />
    <glyph glyph-name="Lcaron" unicode="&#x13d;" horiz-adv-x="618" 
d="M133 700h172l-97 -548h376l-27 -152h-548zM426 586l21 114h156l-10 -57q-10 -49 -43 -95l-50 -72h-91l66 110h-49z" />
    <glyph glyph-name="lcaron" unicode="&#x13e;" horiz-adv-x="436" 
d="M176 0h-164l124 700h164zM395 476h-91l67 110h-49l20 114h156l-10 -57q-5 -29 -13.5 -47t-29.5 -48z" />
    <glyph glyph-name="Ldot" unicode="&#x13f;" horiz-adv-x="618" 
d="M305 700l-97 -548h376l-27 -152h-548l124 700h172zM373 508h192l-32 -180h-192z" />
    <glyph glyph-name="ldot" unicode="&#x140;" horiz-adv-x="489" 
d="M176 0h-164l124 700h164zM479 290h-192l32 180h192z" />
    <glyph glyph-name="Lslash" unicode="&#x141;" horiz-adv-x="678" 
d="M301 341l-33 -189h376l-27 -152h-548l55 313l-90 -14l18 102l91 14l50 285h172l-46 -257l245 38l-18 -102z" />
    <glyph glyph-name="lslash" unicode="&#x142;" horiz-adv-x="365" 
d="M292 426l86 15l-18 -102l-86 -15l-57 -324h-164l52 294l-84 -15l18 102l84 15l54 304h164z" />
    <glyph glyph-name="Nacute" unicode="&#x143;" horiz-adv-x="812" 
d="M516 868h178l-144 -126h-138zM586 243l81 457h166l-124 -700h-138l-314 467l-82 -467h-166l124 700h145z" />
    <glyph glyph-name="nacute" unicode="&#x144;" horiz-adv-x="686" 
d="M435 700h178l-144 -126h-138zM450 532h47q185 0 152 -185l-61 -347h-163l58 326q7 40 -7 56.5t-54 16.5h-48q-66 0 -107 -29l-35 -24l-62 -346h-162l94 532h134l4 -65q57 42 97 54q41 11 113 11z" />
    <glyph glyph-name="Ncommaaccent" unicode="&#x145;" horiz-adv-x="812" 
d="M586 243l81 457h166l-124 -700h-138l-314 467l-82 -467h-166l124 700h145zM322 -126h-49l16 96h156l-6 -36q-4 -30 -12 -47q-6 -12 -32 -43l-44 -58h-92z" />
    <glyph glyph-name="ncommaaccent" unicode="&#x146;" horiz-adv-x="686" 
d="M450 532h47q185 0 152 -185l-61 -347h-163l58 326q7 40 -7 56.5t-54 16.5h-48q-66 0 -107 -29l-35 -24l-62 -346h-162l94 532h134l4 -65q57 42 97 54q41 11 113 11zM247 -126h-49l16 96h156l-6 -36q-4 -30 -12 -47q-6 -12 -32 -43l-44 -58h-92z" />
    <glyph glyph-name="Ncaron" unicode="&#x147;" horiz-adv-x="812" 
d="M703 868l-146 -126h-158l-102 126h111l74 -62l97 62h124zM586 243l81 457h166l-124 -700h-138l-314 467l-82 -467h-166l124 700h145z" />
    <glyph glyph-name="ncaron" unicode="&#x148;" horiz-adv-x="686" 
d="M622 700l-146 -126h-158l-102 126h111l74 -62l97 62h124zM450 532h47q185 0 152 -185l-61 -347h-163l58 326q7 40 -7 56.5t-54 16.5h-48q-66 0 -107 -29l-35 -24l-62 -346h-162l94 532h134l4 -65q57 42 97 54q41 11 113 11z" />
    <glyph glyph-name="Eng" unicode="&#x14a;" horiz-adv-x="812" 
d="M586 242l81 458h166l-121 -684q-16 -96 -63.5 -136t-143.5 -40h-144l22 122h85q41 0 57 14t24 56v1l-292 434l-82 -467h-166l124 700h145z" />
    <glyph glyph-name="eng" unicode="&#x14b;" horiz-adv-x="686" 
d="M450 532h47q185 0 152 -185l-65 -365q-13 -78 -51 -110t-116 -32h-101l22 124h28q32 0 44.5 11t17.5 42l55 309q7 40 -7 56.5t-54 16.5h-48q-66 0 -107 -29l-35 -24l-62 -346h-162l94 532h134l4 -65q57 42 97 54q41 11 113 11z" />
    <glyph glyph-name="Omacron" unicode="&#x14c;" horiz-adv-x="804" 
d="M695 766h-408l14 80h408zM526 0h-322q-99 0 -142.5 52.5t-25.5 151.5l56 312q18 100 67.5 142t148.5 42h322q99 0 142.5 -52.5t25.5 -151.5l-56 -312q-18 -100 -67.5 -142t-148.5 -42zM284 146h200q45 0 65.5 17.5t28.5 62.5l43 242q8 45 -9 65.5t-62 20.5h-200
q-45 0 -65.5 -17.5t-28.5 -62.5l-43 -242q-8 -45 9 -65.5t62 -20.5z" />
    <glyph glyph-name="omacron" unicode="&#x14d;" horiz-adv-x="682" 
d="M604 598h-408l14 80h408zM425 0h-241q-184 0 -152 185l32 183q17 93 59 128q42 36 134 36h241q184 0 152 -185l-32 -183q-17 -93 -58 -128q-44 -36 -135 -36zM258 130h125q40 0 55.5 13.5t22.5 52.5l24 133q7 40 -7 56.5t-54 16.5h-125q-40 0 -55.5 -13.5t-22.5 -52.5
l-24 -133q-7 -40 7 -56.5t54 -16.5z" />
    <glyph glyph-name="Obreve" unicode="&#x14e;" horiz-adv-x="804" 
d="M609 742h-242q-76 0 -63 76l9 50h110l-6 -30q-4 -28 24 -28h115q27 0 31 28l6 30h110l-9 -54q-7 -38 -27 -55t-58 -17zM526 0h-322q-99 0 -142.5 52.5t-25.5 151.5l56 312q18 100 67.5 142t148.5 42h322q99 0 142.5 -52.5t25.5 -151.5l-56 -312q-18 -100 -67.5 -142
t-148.5 -42zM284 146h200q45 0 65.5 17.5t28.5 62.5l43 242q8 45 -9 65.5t-62 20.5h-200q-45 0 -65.5 -17.5t-28.5 -62.5l-43 -242q-8 -45 9 -65.5t62 -20.5z" />
    <glyph glyph-name="obreve" unicode="&#x14f;" horiz-adv-x="682" 
d="M518 574h-242q-76 0 -63 76l9 50h110l-6 -30q-4 -28 24 -28h115q27 0 31 28l6 30h110l-9 -54q-7 -38 -27 -55t-58 -17zM425 0h-241q-184 0 -152 185l32 183q17 93 59 128q42 36 134 36h241q184 0 152 -185l-32 -183q-17 -93 -58 -128q-44 -36 -135 -36zM258 130h125
q40 0 55.5 13.5t22.5 52.5l24 133q7 40 -7 56.5t-54 16.5h-125q-40 0 -55.5 -13.5t-22.5 -52.5l-24 -133q-7 -40 7 -56.5t54 -16.5z" />
    <glyph glyph-name="Ohungarumlaut" unicode="&#x150;" horiz-adv-x="804" 
d="M563 868l-129 -126h-137l95 126h171zM797 868l-128 -126h-137l94 126h171zM526 0h-322q-99 0 -142.5 52.5t-25.5 151.5l56 312q18 100 67.5 142t148.5 42h322q99 0 142.5 -52.5t25.5 -151.5l-56 -312q-18 -100 -67.5 -142t-148.5 -42zM284 146h200q45 0 65.5 17.5
t28.5 62.5l43 242q8 45 -9 65.5t-62 20.5h-200q-45 0 -65.5 -17.5t-28.5 -62.5l-43 -242q-8 -45 9 -65.5t62 -20.5z" />
    <glyph glyph-name="ohungarumlaut" unicode="&#x151;" horiz-adv-x="682" 
d="M472 700l-129 -126h-137l95 126h171zM706 700l-128 -126h-137l94 126h171zM425 0h-241q-184 0 -152 185l32 183q17 93 59 128q42 36 134 36h241q184 0 152 -185l-32 -183q-17 -93 -58 -128q-44 -36 -135 -36zM258 130h125q40 0 55.5 13.5t22.5 52.5l24 133q7 40 -7 56.5
t-54 16.5h-125q-40 0 -55.5 -13.5t-22.5 -52.5l-24 -133q-7 -40 7 -56.5t54 -16.5z" />
    <glyph glyph-name="OE" unicode="&#x152;" horiz-adv-x="1201" 
d="M1240 700l-26 -142h-415l-24 -133h376l-22 -130h-377l-27 -153h427l-26 -142h-922q-99 0 -142.5 52.5t-25.5 151.5l56 312q18 100 67.5 142t148.5 42h932zM284 146h270l72 408h-276q-46 0 -66 -17t-28 -63l-43 -242q-8 -45 9 -65.5t62 -20.5z" />
    <glyph glyph-name="oe" unicode="&#x153;" horiz-adv-x="1100" 
d="M717 532h202q181 0 149 -182l-20 -111h-417l-7 -42q-7 -40 6 -55.5t53 -15.5h136q31 0 44 11.5t19 42.5l3 16h156l-10 -54q-14 -78 -52 -110t-115 -32h-229q-97 0 -120 53q-44 -53 -138 -53h-204q-92 0 -125.5 40.5t-17.5 133.5l32 184q16 93 64 133.5t141 40.5h204
q91 0 116 -48q37 48 130 48zM651 349l-2 -12h261l1 9q7 40 -6 55t-53 15h-123q-40 0 -55.5 -13.5t-22.5 -53.5zM461 199l24 134q7 40 -5 54.5t-52 14.5h-127q-40 0 -57 -14.5t-24 -54.5l-24 -134q-7 -40 5 -54.5t52 -14.5h127q40 0 57 14.5t24 54.5z" />
    <glyph glyph-name="Racute" unicode="&#x154;" horiz-adv-x="768" 
d="M496 868h178l-144 -126h-138zM133 700h476q182 0 151 -184l-17 -96q-15 -88 -54.5 -124.5t-122.5 -39.5l128 -256h-176l-118 244h-176l-43 -244h-172zM574 435l11 64q7 40 -6.5 56.5t-53.5 16.5h-243l-36 -204h250q38 0 54 13.5t24 53.5z" />
    <glyph glyph-name="racute" unicode="&#x155;" horiz-adv-x="454" 
d="M325 700h178l-144 -126h-138zM222 458l3 2q59 45 102 59q39 13 117 13h43l-27 -151h-90q-65 0 -106 -29l-36 -24l-58 -328h-162l94 532h116z" />
    <glyph glyph-name="Rcommaaccent" unicode="&#x156;" horiz-adv-x="768" 
d="M133 700h476q182 0 151 -184l-17 -96q-15 -88 -54.5 -124.5t-122.5 -39.5l128 -256h-176l-118 244h-176l-43 -244h-172zM574 435l11 64q7 40 -6.5 56.5t-53.5 16.5h-243l-36 -204h250q38 0 54 13.5t24 53.5zM298 -126h-49l16 96h156l-6 -36q-4 -30 -12 -47
q-6 -12 -32 -43l-44 -58h-92z" />
    <glyph glyph-name="rcommaaccent" unicode="&#x157;" horiz-adv-x="454" 
d="M444 532h43l-27 -151h-90q-65 0 -106 -29l-36 -24l-58 -328h-162l94 532h116l4 -74l3 2q59 45 102 59q39 13 117 13zM40 -126h-49l16 96h156l-6 -36q-4 -30 -12 -47q-6 -12 -32 -43l-44 -58h-92z" />
    <glyph glyph-name="Rcaron" unicode="&#x158;" horiz-adv-x="768" 
d="M683 868l-146 -126h-158l-102 126h111l74 -62l97 62h124zM133 700h476q182 0 151 -184l-17 -96q-15 -88 -54.5 -124.5t-122.5 -39.5l128 -256h-176l-118 244h-176l-43 -244h-172zM574 435l11 64q7 40 -6.5 56.5t-53.5 16.5h-243l-36 -204h250q38 0 54 13.5t24 53.5z" />
    <glyph glyph-name="rcaron" unicode="&#x159;" horiz-adv-x="454" 
d="M512 700l-146 -126h-158l-102 126h111l74 -62l97 62h124zM222 458l3 2q59 45 102 59q39 13 117 13h43l-27 -151h-90q-65 0 -106 -29l-36 -24l-58 -328h-162l94 532h116z" />
    <glyph glyph-name="Sacute" unicode="&#x15a;" horiz-adv-x="784" 
d="M692 868l-144 -126h-138l104 126h178zM28 158l9 58h166l-4 -27q-4 -31 7 -43.5t43 -12.5h240q31 0 44 12t18 44l5 31q5 32 -2.5 44t-35.5 14l-297 28q-79 8 -111 44.5t-19 111.5l17 96q13 78 51 110t116 32h366q155 0 129 -158l-7 -46h-166l2 15q4 31 -7.5 43.5
t-42.5 12.5h-216q-30 0 -43.5 -12.5t-18.5 -43.5l-2 -13q-4 -31 3.5 -42.5t34.5 -13.5l297 -28q79 -8 111 -45t19 -113l-20 -114q-13 -78 -51 -110t-116 -32h-390q-155 0 -129 158z" />
    <glyph glyph-name="sacute" unicode="&#x15b;" horiz-adv-x="662" 
d="M648 700l-144 -126h-138l104 126h178zM21 127l8 49h156l-6 -31q-3 -17 3.5 -24t24.5 -7h188q18 0 25 6.5t11 24.5l6 30q4 17 -2.5 23.5t-25.5 8.5l-240 24q-118 10 -98 125l11 60q21 116 136 116h304q57 0 85 -34.5t18 -92.5l-7 -43h-156l5 25q7 31 -28 31h-164
q-18 0 -25.5 -6.5t-10.5 -24.5l-2 -12q-3 -17 3 -23.5t24 -8.5l240 -24q58 -5 84 -37t15 -88l-15 -78q-23 -116 -136 -116h-328q-57 0 -85 34.5t-18 92.5z" />
    <glyph glyph-name="Scircumflex" unicode="&#x15c;" horiz-adv-x="784" 
d="M397 742h-124l146 126h158l102 -126h-111l-74 62zM28 158l9 58h166l-4 -27q-4 -31 7 -43.5t43 -12.5h240q31 0 44 12t18 44l5 31q5 32 -2.5 44t-35.5 14l-297 28q-79 8 -111 44.5t-19 111.5l17 96q13 78 51 110t116 32h366q155 0 129 -158l-7 -46h-166l2 15
q4 31 -7.5 43.5t-42.5 12.5h-216q-30 0 -43.5 -12.5t-18.5 -43.5l-2 -13q-4 -31 3.5 -42.5t34.5 -13.5l297 -28q79 -8 111 -45t19 -113l-20 -114q-13 -78 -51 -110t-116 -32h-390q-155 0 -129 158z" />
    <glyph glyph-name="scircumflex" unicode="&#x15d;" horiz-adv-x="662" 
d="M353 574h-124l146 126h158l102 -126h-111l-74 62zM21 127l8 49h156l-6 -31q-3 -17 3.5 -24t24.5 -7h188q18 0 25 6.5t11 24.5l6 30q4 17 -2.5 23.5t-25.5 8.5l-240 24q-118 10 -98 125l11 60q21 116 136 116h304q57 0 85 -34.5t18 -92.5l-7 -43h-156l5 25q7 31 -28 31
h-164q-18 0 -25.5 -6.5t-10.5 -24.5l-2 -12q-3 -17 3 -23.5t24 -8.5l240 -24q58 -5 84 -37t15 -88l-15 -78q-23 -116 -136 -116h-328q-57 0 -85 34.5t-18 92.5z" />
    <glyph glyph-name="Scedilla" unicode="&#x15e;" horiz-adv-x="784" 
d="M275 700h366q155 0 129 -158l-7 -46h-166l2 15q4 31 -7.5 43.5t-42.5 12.5h-216q-30 0 -43.5 -12.5t-18.5 -43.5l-2 -13q-4 -31 3.5 -42.5t34.5 -13.5l297 -28q79 -8 111 -45t19 -113l-20 -114q-13 -78 -51 -110t-116 -32h-183l-14 -26h64q57 0 46 -56l-5 -26
q-5 -29 -18.5 -40.5t-42.5 -11.5h-172l9 53h136q9 0 12 11l2 10q3 12 -9 12h-101l5 24l26 50h-145q-155 0 -129 158l9 58h166l-4 -27q-4 -31 7 -43.5t43 -12.5h240q31 0 44 12t18 44l5 31q5 32 -2.5 44t-35.5 14l-297 28q-79 8 -111 44.5t-19 111.5l17 96q13 78 51 110
t116 32z" />
    <glyph glyph-name="scedilla" unicode="&#x15f;" horiz-adv-x="662" 
d="M218 532h304q57 0 85 -34.5t18 -92.5l-7 -43h-156l5 25q7 31 -28 31h-164q-18 0 -25.5 -6.5t-10.5 -24.5l-2 -12q-3 -17 3 -23.5t24 -8.5l240 -24q58 -5 84 -37t15 -88l-15 -78q-23 -116 -136 -116h-196l-14 -26h64q57 0 46 -56l-5 -26q-5 -29 -18.5 -40.5t-42.5 -11.5
h-172l9 53h136q9 0 12 11l2 10q3 12 -9 12h-101l5 24l26 50h-70q-57 0 -85 34.5t-18 92.5l8 49h156l-6 -31q-3 -17 3.5 -24t24.5 -7h188q18 0 25 6.5t11 24.5l6 30q4 17 -2.5 23.5t-25.5 8.5l-240 24q-118 10 -98 125l11 60q21 116 136 116z" />
    <glyph glyph-name="Scaron" unicode="&#x160;" horiz-adv-x="784" 
d="M577 868h124l-146 -126h-158l-102 126h111l74 -62zM28 158l9 58h166l-4 -27q-4 -31 7 -43.5t43 -12.5h240q31 0 44 12t18 44l5 31q5 32 -2.5 44t-35.5 14l-297 28q-79 8 -111 44.5t-19 111.5l17 96q13 78 51 110t116 32h366q155 0 129 -158l-7 -46h-166l2 15
q4 31 -7.5 43.5t-42.5 12.5h-216q-30 0 -43.5 -12.5t-18.5 -43.5l-2 -13q-4 -31 3.5 -42.5t34.5 -13.5l297 -28q79 -8 111 -45t19 -113l-20 -114q-13 -78 -51 -110t-116 -32h-390q-155 0 -129 158z" />
    <glyph glyph-name="scaron" unicode="&#x161;" horiz-adv-x="662" 
d="M533 700h124l-146 -126h-158l-102 126h111l74 -62zM21 127l8 49h156l-6 -31q-3 -17 3.5 -24t24.5 -7h188q18 0 25 6.5t11 24.5l6 30q4 17 -2.5 23.5t-25.5 8.5l-240 24q-118 10 -98 125l11 60q21 116 136 116h304q57 0 85 -34.5t18 -92.5l-7 -43h-156l5 25q7 31 -28 31
h-164q-18 0 -25.5 -6.5t-10.5 -24.5l-2 -12q-3 -17 3 -23.5t24 -8.5l240 -24q58 -5 84 -37t15 -88l-15 -78q-23 -116 -136 -116h-328q-57 0 -85 34.5t-18 92.5z" />
    <glyph glyph-name="uni0162" unicode="&#x162;" horiz-adv-x="684" 
d="M478 548l-97 -548h-67l-14 -26h64q57 0 46 -56l-5 -26q-5 -29 -18.5 -40.5t-42.5 -11.5h-172l9 53h136q9 0 12 11l2 10q3 12 -9 12h-101l5 24l26 50h-43l97 548h-243l28 152h656l-28 -152h-241z" />
    <glyph glyph-name="uni0163" unicode="&#x163;" horiz-adv-x="506" 
d="M506 405h-203l-38 -218q-5 -31 5.5 -44t42.5 -13h145l-23 -130h-174l-14 -26h64q57 0 46 -56l-5 -26q-5 -29 -18.5 -40.5t-42.5 -11.5h-172l9 53h136q9 0 12 11l2 10q3 12 -9 12h-101l5 24l26 51q-128 14 -102 155l44 249h-102l22 127h102l54 120h130l-21 -120h202z" />
    <glyph glyph-name="Tcaron" unicode="&#x164;" horiz-adv-x="684" 
d="M651 868l-146 -126h-158l-102 126h111l74 -62l97 62h124zM91 700h656l-28 -152h-241l-97 -548h-172l97 548h-243z" />
    <glyph glyph-name="tcaron" unicode="&#x165;" horiz-adv-x="537" 
d="M425 658l17 96h156l-6 -36q-4 -30 -12 -45q-7 -15 -32 -45l-45 -58h-91l62 88h-49zM217 652h130l-21 -120h202l-22 -127h-203l-38 -218q-5 -31 5.5 -44t42.5 -13h145l-23 -130h-209q-158 0 -129 156l44 249h-102l22 127h102z" />
    <glyph glyph-name="Tbar" unicode="&#x166;" horiz-adv-x="692" 
d="M747 700l-28 -152h-241l-33 -183h163l-18 -102h-163l-46 -263h-172l46 263h-153l18 102h153l33 183h-243l28 152h656z" />
    <glyph glyph-name="tbar" unicode="&#x167;" horiz-adv-x="506" 
d="M527 532l-22 -129h-204l-15 -85h204l-17 -94h-203l-7 -40q-5 -31 4 -42t40 -11h150l-23 -131h-209q-156 0 -129 156l12 68h-102l17 94h101l15 85h-101l22 129h102l54 120h129l-21 -120h203z" />
    <glyph glyph-name="Utilde" unicode="&#x168;" horiz-adv-x="779" 
d="M370 742h-92l14 78q8 48 57 48h108q24 0 34.5 -5t22.5 -22l25 -33q8 -8 19 -8h17q11 0 14 12l9 56h92l-13 -78q-5 -26 -18.5 -37t-39.5 -11h-107q-23 0 -34.5 5.5t-22.5 21.5l-26 33q-8 8 -19 8h-17q-11 0 -13 -12zM498 0h-292q-99 0 -142 52.5t-25 151.5l87 496h172
l-82 -468q-8 -45 8.5 -65.5t61.5 -20.5h171q45 0 65.5 17.5t28.5 62.5l83 474h172l-91 -516q-18 -100 -68 -142t-149 -42z" />
    <glyph glyph-name="utilde" unicode="&#x169;" horiz-adv-x="686" 
d="M304 630l-10 -56h-92l14 78q8 48 57 48h108q24 0 34.5 -5t22.5 -22l25 -33q8 -8 19 -8h17q11 0 14 12l9 56h92l-13 -78q-5 -26 -18.5 -37t-39.5 -11h-107q-23 0 -34.5 5.5t-22.5 21.5l-26 33q-8 8 -19 8h-17q-11 0 -13 -12zM516 532h162l-94 -532h-134l-4 65
q-58 -43 -96 -53q-40 -12 -114 -12h-47q-185 0 -152 185l61 347h163l-58 -326q-7 -40 7 -56.5t54 -16.5h48q66 0 107 29l35 24z" />
    <glyph glyph-name="Umacron" unicode="&#x16a;" horiz-adv-x="779" 
d="M682 766h-408l14 80h408zM498 0h-292q-99 0 -142 52.5t-25 151.5l87 496h172l-82 -468q-8 -45 8.5 -65.5t61.5 -20.5h171q45 0 65.5 17.5t28.5 62.5l83 474h172l-91 -516q-18 -100 -68 -142t-149 -42z" />
    <glyph glyph-name="umacron" unicode="&#x16b;" horiz-adv-x="686" 
d="M212 678h408l-14 -80h-408zM516 532h162l-94 -532h-134l-4 65q-58 -43 -96 -53q-40 -12 -114 -12h-47q-185 0 -152 185l61 347h163l-58 -326q-7 -40 7 -56.5t54 -16.5h48q66 0 107 29l35 24z" />
    <glyph glyph-name="Ubreve" unicode="&#x16c;" horiz-adv-x="779" 
d="M596 742h-242q-76 0 -63 76l9 50h110l-6 -30q-4 -28 24 -28h115q27 0 31 28l6 30h110l-9 -54q-7 -38 -27 -55t-58 -17zM498 0h-292q-99 0 -142 52.5t-25 151.5l87 496h172l-82 -468q-8 -45 8.5 -65.5t61.5 -20.5h171q45 0 65.5 17.5t28.5 62.5l83 474h172l-91 -516
q-18 -100 -68 -142t-149 -42z" />
    <glyph glyph-name="ubreve" unicode="&#x16d;" horiz-adv-x="686" 
d="M520 574h-242q-76 0 -63 76l9 50h110l-6 -30q-4 -28 24 -28h115q27 0 31 28l6 30h110l-9 -54q-7 -38 -27 -55t-58 -17zM516 532h162l-94 -532h-134l-4 65q-58 -43 -96 -53q-40 -12 -114 -12h-47q-185 0 -152 185l61 347h163l-58 -326q-7 -40 7 -56.5t54 -16.5h48
q66 0 107 29l35 24z" />
    <glyph glyph-name="Uring" unicode="&#x16e;" horiz-adv-x="779" 
d="M337 789l5 26q4 30 18 41.5t44 11.5h178q58 0 47 -57l-4 -26q-5 -30 -19 -41.5t-43 -11.5h-179q-56 0 -47 57zM403 807l-3 -13q-2 -11 1 -15.5t14 -4.5h127q12 0 16 3.5t6 15.5l2 13q2 11 -1 15.5t-14 4.5h-127q-11 0 -15 -3.5t-6 -15.5zM498 0h-292q-99 0 -142 52.5
t-25 151.5l87 496h172l-82 -468q-8 -45 8.5 -65.5t61.5 -20.5h171q45 0 65.5 17.5t28.5 62.5l83 474h172l-91 -516q-18 -100 -68 -142t-149 -42z" />
    <glyph glyph-name="uring" unicode="&#x16f;" horiz-adv-x="686" 
d="M487 564h-179q-56 0 -47 57l5 26q4 30 18 41.5t44 11.5h178q58 0 47 -57l-4 -26q-5 -30 -19 -41.5t-43 -11.5zM327 639l-3 -13q-2 -11 1 -15.5t14 -4.5h127q12 0 16 3.5t6 15.5l2 13q2 11 -1 15.5t-14 4.5h-127q-11 0 -15 -3.5t-6 -15.5zM516 532h162l-94 -532h-134
l-4 65q-58 -43 -96 -53q-40 -12 -114 -12h-47q-185 0 -152 185l61 347h163l-58 -326q-7 -40 7 -56.5t54 -16.5h48q66 0 107 29l35 24z" />
    <glyph glyph-name="Uhungarumlaut" unicode="&#x170;" horiz-adv-x="779" 
d="M550 868l-129 -126h-137l95 126h171zM784 868l-128 -126h-137l94 126h171zM498 0h-292q-99 0 -142 52.5t-25 151.5l87 496h172l-82 -468q-8 -45 8.5 -65.5t61.5 -20.5h171q45 0 65.5 17.5t28.5 62.5l83 474h172l-91 -516q-18 -100 -68 -142t-149 -42z" />
    <glyph glyph-name="uhungarumlaut" unicode="&#x171;" horiz-adv-x="686" 
d="M303 700h171l-129 -126h-137zM708 700l-128 -126h-137l94 126h171zM454 186l62 346h162l-94 -532h-134l-4 65q-58 -43 -96 -53q-40 -12 -114 -12h-47q-185 0 -152 185l61 347h163l-58 -326q-7 -40 7 -56.5t54 -16.5h48q66 0 107 29z" />
    <glyph glyph-name="Uogonek" unicode="&#x172;" horiz-adv-x="779" 
d="M551 226l83 474h172l-91 -516q-18 -100 -68 -142t-149 -42h-66l-12 -8q-20 -12 -22 -29l-2 -10q-3 -25 21 -25h124l-15 -88h-164q-42 0 -58 20.5t-11 63.5l2 16q5 41 26 60h-115q-99 0 -142 52.5t-25 151.5l87 496h172l-82 -468q-8 -45 8.5 -65.5t61.5 -20.5h171
q45 0 65.5 17.5t28.5 62.5z" />
    <glyph glyph-name="uogonek" unicode="&#x173;" horiz-adv-x="682" 
d="M485 -37l-1 -10q-3 -25 21 -25h88l-16 -88h-127q-42 0 -58 20.5t-11 63.5l2 16q4 31 16 48.5t45 38.5l4 3l-2 35q-58 -43 -96 -53q-40 -12 -114 -12h-47q-185 0 -152 185l61 347h163l-58 -326q-7 -40 7 -56.5t54 -16.5h48q66 0 107 29l35 24l62 346h162l-94 -532h-64
l-12 -8q-21 -12 -23 -29z" />
    <glyph glyph-name="Wcircumflex" unicode="&#x174;" horiz-adv-x="1118" 
d="M735 742l-74 62l-97 -62h-124l146 126h158l102 -126h-111zM769 233l235 467h187l-377 -700h-152l-73 447l-232 -447h-147l-129 700h181l70 -466l236 466h128z" />
    <glyph glyph-name="wcircumflex" unicode="&#x175;" horiz-adv-x="922" 
d="M600 574l-74 62l-97 -62h-124l146 126h158l102 -126h-111zM623 198l169 334h173l-296 -532h-144l-55 328l-170 -328h-141l-108 532h163l53 -333l174 333h124z" />
    <glyph glyph-name="Ycircumflex" unicode="&#x176;" horiz-adv-x="744" 
d="M542 742l-74 62l-97 -62h-124l146 126h158l102 -126h-111zM627 700h200l-371 -443l-45 -257h-172l45 257l-213 443h190l131 -298z" />
    <glyph glyph-name="ycircumflex" unicode="&#x177;" horiz-adv-x="658" 
d="M467 574l-74 62l-97 -62h-124l146 126h158l102 -126h-111zM305 169l214 363h182l-356 -547q-61 -95 -108 -120q-46 -25 -154 -25h-102l23 130h96q43 0 63 8.5t40 37.5l-152 516h171z" />
    <glyph glyph-name="Ydieresis" unicode="&#x178;" horiz-adv-x="744" 
d="M301 852h124l-17 -102h-124zM513 852h124l-17 -102h-124zM627 700h200l-371 -443l-45 -257h-172l45 257l-213 443h190l131 -298z" />
    <glyph glyph-name="Zacute" unicode="&#x179;" 
d="M676 868l-144 -126h-138l104 126h178zM667 0h-676l21 118l493 436h-396l26 146h656l-21 -118l-494 -436h417z" />
    <glyph glyph-name="zacute" unicode="&#x17a;" horiz-adv-x="646" 
d="M593 700l-144 -126h-138l104 126h178zM563 0h-574l17 98l386 310h-311l22 124h554l-17 -98l-386 -310h331z" />
    <glyph glyph-name="Zdotaccent" unicode="&#x17b;" 
d="M545 750h-165l17 102h165zM667 0h-676l21 118l493 436h-396l26 146h656l-21 -118l-494 -436h417z" />
    <glyph glyph-name="zdotaccent" unicode="&#x17c;" horiz-adv-x="646" 
d="M462 582h-165l17 102h165zM563 0h-574l17 98l386 310h-311l22 124h554l-17 -98l-386 -310h331z" />
    <glyph glyph-name="Zcaron" unicode="&#x17d;" 
d="M561 868h124l-146 -126h-158l-102 126h111l74 -62zM667 0h-676l21 118l493 436h-396l26 146h656l-21 -118l-494 -436h417z" />
    <glyph glyph-name="zcaron" unicode="&#x17e;" horiz-adv-x="646" 
d="M478 700h124l-146 -126h-158l-102 126h111l74 -62zM563 0h-574l17 98l386 310h-311l22 124h554l-17 -98l-386 -310h331z" />
    <glyph glyph-name="florin" unicode="&#x192;" horiz-adv-x="672" 
d="M681 558h-101q-44 0 -65.5 -18t-35.5 -64l-37 -131h182l-20 -110h-193l-57 -201q-28 -104 -80 -149t-148 -45h-159l25 142h101q45 0 66.5 18t34.5 64l48 171h-186l20 110h197l46 161q30 104 81.5 149t147.5 45h159z" />
    <glyph glyph-name="Aringacute" unicode="&#x1fa;" horiz-adv-x="812" 
d="M764 0h-180l-29 129h-336l-74 -129h-193l413 667q-33 9 -26 54l5 26q5 30 18.5 41.5t43.5 11.5h37l54 68h182l-80 -69q41 -8 32 -56l-4 -26q-7 -43 -39 -51zM405 739l-3 -13q-2 -11 1 -15.5t14 -4.5h128q11 0 15 3.5t6 15.5l2 13q2 12 -0.5 16t-14.5 4h-127
q-11 0 -15 -3.5t-6 -15.5zM462 552l-169 -295h234z" />
    <glyph glyph-name="aringacute" unicode="&#x1fb;" horiz-adv-x="677" 
d="M525 530q145 -16 116 -180l-62 -350h-135l-3 63q-56 -42 -91 -52q-39 -11 -109 -11h-109q-61 0 -91.5 35.5t-18.5 97.5l11 57q12 63 45.5 91.5t94.5 28.5h299l6 35q7 41 -6.5 56.5t-53.5 15.5h-112q-31 0 -45 -12t-18 -42l-2 -17h-157l7 44q12 73 47 105.5t103 36.5
q-1 3 1 21l5 26q5 30 18.5 41.5t43.5 11.5h37l54 68h182l-80 -69q41 -8 32 -56l-4 -26q-2 -12 -5 -19zM308 571l-3 -13q-2 -11 1 -15.5t14 -4.5h128q11 0 15 3.5t6 15.5l2 13q2 12 -0.5 16t-14.5 4h-127q-11 0 -15 -3.5t-6 -15.5zM234 107h80q51 0 91 26l40 27l11 60h-209
q-28 0 -40 -10t-16 -38l-2 -12q-4 -29 6 -41t39 -12z" />
    <glyph glyph-name="AEacute" unicode="&#x1fc;" horiz-adv-x="1086" 
d="M665 868h178l-144 -126h-138zM1125 700l-26 -142h-473l31 -133h379l-23 -130h-326l35 -153h314l-25 -142h-439l-24 124h-330l-71 -124h-190l433 700h735zM466 553l-174 -301h232z" />
    <glyph glyph-name="aeacute" unicode="&#x1fd;" horiz-adv-x="1090" 
d="M637 700h178l-144 -126h-138zM707 532h202q181 0 149 -182l-20 -111h-417l-7 -42q-7 -40 6 -55.5t53 -15.5h136q31 0 44 11.5t19 42.5l3 16h156l-10 -54q-14 -78 -52 -110t-115 -32h-237q-105 0 -139 60q-52 -38 -88 -49q-38 -11 -107 -11h-151q-61 0 -91 36t-18 97
l11 58q12 63 44.5 91t93.5 28h300l6 35q7 40 -6 56t-54 16h-112q-31 0 -45 -12t-18 -42l-2 -17h-157l7 44q13 78 51.5 110t116.5 32h202q86 0 116 -48q36 48 130 48zM641 349l-2 -12h261l1 9q7 40 -6 55t-53 15h-123q-40 0 -55.5 -13.5t-22.5 -53.5zM405 133l40 27l11 60
h-209q-28 0 -40 -10t-16 -38l-2 -12q-5 -29 5 -41t39 -12h81q51 0 91 26z" />
    <glyph glyph-name="Oslashacute" unicode="&#x1fe;" horiz-adv-x="804" 
d="M524 868h178l-144 -126h-138zM757 730h113l-96 -92q40 -54 23 -148l-55 -306q-18 -100 -67.5 -142t-148.5 -42h-316q-47 0 -87 14l-46 -44h-113l96 92q-40 54 -23 148l55 306q18 100 67.5 142t148.5 42h316q47 0 87 -14zM249 480l-45 -254q-3 -16 -3 -29l378 362
q-4 1 -19 1h-218q-45 0 -65 -17.5t-28 -62.5zM585 220l45 254q3 17 3 29l-378 -362q4 -1 19 -1h218q45 0 65 17.5t28 62.5z" />
    <glyph glyph-name="oslashacute" unicode="&#x1ff;" horiz-adv-x="682" 
d="M433 700h178l-144 -126h-138zM614 566h105l-90 -83q36 -45 21 -136l-32 -183q-17 -93 -58 -128q-44 -36 -135 -36h-241q-40 0 -70 9l-46 -43h-105l90 83q-36 45 -21 136l32 183q17 93 59 128q42 36 134 36h241q40 0 70 -9zM205 348l-28 -157q-3 -20 -2 -30l274 253h-5
h-162q-39 0 -54.5 -13.5t-22.5 -52.5zM477 184l28 157q3 20 2 30l-274 -253h5h162q39 0 54.5 13.5t22.5 52.5z" />
    <glyph glyph-name="Scommaaccent" unicode="&#x218;" horiz-adv-x="784" 
d="M28 158l9 58h166l-4 -27q-4 -31 7 -43.5t43 -12.5h240q31 0 44 12t18 44l5 31q5 32 -2.5 44t-35.5 14l-297 28q-79 8 -111 44.5t-19 111.5l17 96q13 78 51 110t116 32h366q155 0 129 -158l-7 -46h-166l2 15q4 31 -7.5 43.5t-42.5 12.5h-216q-30 0 -43.5 -12.5
t-18.5 -43.5l-2 -13q-4 -31 3.5 -42.5t34.5 -13.5l297 -28q79 -8 111 -45t19 -113l-20 -114q-13 -78 -51 -110t-116 -32h-390q-155 0 -129 158zM325 -214h-92l63 88h-49l16 96h156l-6 -36q-4 -30 -12 -47q-6 -12 -32 -43z" />
    <glyph glyph-name="scommaaccent" unicode="&#x219;" horiz-adv-x="662" 
d="M21 127l8 49h156l-6 -31q-3 -17 3.5 -24t24.5 -7h188q18 0 25 6.5t11 24.5l6 30q4 17 -2.5 23.5t-25.5 8.5l-240 24q-118 10 -98 125l11 60q21 116 136 116h304q57 0 85 -34.5t18 -92.5l-7 -43h-156l5 25q7 31 -28 31h-164q-18 0 -25.5 -6.5t-10.5 -24.5l-2 -12
q-3 -17 3 -23.5t24 -8.5l240 -24q58 -5 84 -37t15 -88l-15 -78q-23 -116 -136 -116h-328q-57 0 -85 34.5t-18 92.5zM217 -214h-92l63 88h-49l16 96h156l-6 -36q-4 -30 -12 -47q-6 -12 -32 -43z" />
    <glyph glyph-name="uni021A" unicode="&#x21a;" horiz-adv-x="684" 
d="M91 700h656l-28 -152h-241l-97 -548h-172l97 548h-243zM246 -126h-49l16 96h156l-6 -36q-4 -30 -12 -47q-6 -12 -32 -43l-44 -58h-92z" />
    <glyph glyph-name="uni021B" unicode="&#x21b;" horiz-adv-x="506" 
d="M506 405h-203l-38 -218q-5 -31 5.5 -44t42.5 -13h145l-23 -130h-209q-158 0 -129 156l44 249h-102l22 127h102l54 120h130l-21 -120h202zM193 -126h-49l16 96h156l-6 -36q-4 -30 -12 -47q-6 -12 -32 -43l-44 -58h-92z" />
    <glyph glyph-name="uni0237" unicode="&#x237;" horiz-adv-x="282" 
d="M6 -160h-103l22 124h28q31 0 44 11t18 42l91 515h165l-97 -550q-14 -78 -52.5 -110t-115.5 -32z" />
    <glyph glyph-name="circumflex" unicode="&#x2c6;" horiz-adv-x="518" 
d="M234 574h-124l146 126h158l102 -126h-111l-74 62z" />
    <glyph glyph-name="caron" unicode="&#x2c7;" horiz-adv-x="518" 
d="M415 700h124l-146 -126h-158l-102 126h111l74 -62z" />
    <glyph glyph-name="breve" unicode="&#x2d8;" horiz-adv-x="502" 
d="M429 574h-242q-76 0 -63 76l9 50h110l-6 -30q-4 -28 24 -28h115q27 0 31 28l6 30h110l-9 -54q-7 -38 -27 -55t-58 -17z" />
    <glyph glyph-name="dotaccent" unicode="&#x2d9;" horiz-adv-x="277" 
d="M278 582h-165l17 102h165z" />
    <glyph glyph-name="ring" unicode="&#x2da;" horiz-adv-x="384" 
d="M111 621l5 26q4 30 18 41.5t44 11.5h178q58 0 47 -57l-4 -26q-5 -30 -19 -41.5t-43 -11.5h-179q-56 0 -47 57zM177 639l-3 -13q-2 -11 1 -15.5t14 -4.5h127q12 0 16 3.5t6 15.5l2 13q2 11 -1 15.5t-14 4.5h-127q-11 0 -15 -3.5t-6 -15.5z" />
    <glyph glyph-name="ogonek" unicode="&#x2db;" horiz-adv-x="360" 
d="M152 11l-28 -19q-20 -12 -22 -29l-2 -10q-3 -25 21 -25h124l-15 -88h-164q-42 0 -58 20.5t-11 63.5l2 16q4 31 16 48.5t45 38.5l25 15z" />
    <glyph glyph-name="tilde" unicode="&#x2dc;" horiz-adv-x="502" 
d="M202 574h-92l14 78q8 48 57 48h108q24 0 34.5 -5t22.5 -22l25 -33q8 -8 19 -8h17q11 0 14 12l9 56h92l-13 -78q-5 -26 -18.5 -37t-39.5 -11h-107q-23 0 -34.5 5.5t-22.5 21.5l-26 33q-8 8 -19 8h-17q-11 0 -13 -12z" />
    <glyph glyph-name="hungarumlaut" unicode="&#x2dd;" horiz-adv-x="575" 
d="M369 700l-129 -126h-137l95 126h171zM603 700l-128 -126h-137l94 126h171z" />
    <glyph glyph-name="gravecomb" unicode="&#x300;" horiz-adv-x="0" 
d="M-7 574h-120l-100 126h160z" />
    <glyph glyph-name="acutecomb" unicode="&#x301;" horiz-adv-x="0" 
d="M24 700l-144 -126h-138l104 126h178z" />
    <glyph glyph-name="uni0302" unicode="&#x302;" horiz-adv-x="0" 
d="M-284 574h-124l146 126h158l102 -126h-111l-74 62z" />
    <glyph glyph-name="tildecomb" unicode="&#x303;" horiz-adv-x="0" 
d="M-300 574h-92l14 78q8 48 57 48h108q24 0 34.5 -5t22.5 -22l25 -33q8 -8 19 -8h17q11 0 14 12l9 56h92l-13 -78q-5 -26 -18.5 -37t-39.5 -11h-107q-23 0 -34.5 5.5t-22.5 21.5l-26 33q-8 8 -19 8h-17q-11 0 -13 -12z" />
    <glyph glyph-name="uni0304" unicode="&#x304;" horiz-adv-x="0" 
d="M3 598h-408l14 80h408z" />
    <glyph glyph-name="uni0306" unicode="&#x306;" horiz-adv-x="0" 
d="M-73 574h-242q-76 0 -63 76l9 50h110l-6 -30q-4 -28 24 -28h115q27 0 31 28l6 30h110l-9 -54q-7 -38 -27 -55t-58 -17z" />
    <glyph glyph-name="uni0307" unicode="&#x307;" horiz-adv-x="0" 
d="M1 582h-165l17 102h165z" />
    <glyph glyph-name="uni0308" unicode="&#x308;" horiz-adv-x="0" 
d="M-211 582h-124l17 102h124zM1 582h-124l17 102h124z" />
    <glyph glyph-name="uni030A" unicode="&#x30a;" horiz-adv-x="0" 
d="M-273 621l5 26q4 30 18 41.5t44 11.5h178q57 0 47 -57l-4 -26q-5 -30 -19 -41.5t-43 -11.5h-179q-56 0 -47 57zM-207 639l-3 -13q-2 -11 1 -15.5t14 -4.5h127q12 0 16 3.5t6 15.5l2 13q2 11 -1 15.5t-14 4.5h-127q-11 0 -15 -3.5t-6 -15.5z" />
    <glyph glyph-name="uni030B" unicode="&#x30b;" horiz-adv-x="0" 
d="M-206 700l-129 -126h-137l95 126h171zM28 700l-128 -126h-137l94 126h171z" />
    <glyph glyph-name="uni030C" unicode="&#x30c;" horiz-adv-x="0" 
d="M-103 700h124l-146 -126h-158l-102 126h111l74 -62z" />
    <glyph glyph-name="uni0312" unicode="&#x312;" horiz-adv-x="0" 
d="M-64 758h91l-62 -88h49l-17 -96h-156l6 36q4 29 12 46q7 15 32 44z" />
    <glyph glyph-name="uni0326" unicode="&#x326;" horiz-adv-x="0" 
d="M-201 -214h-92l63 88h-49l16 96h156l-6 -36q-4 -27 -13 -47q-8 -15 -31 -43z" />
    <glyph glyph-name="uni0327" unicode="&#x327;" horiz-adv-x="0" 
d="M-175 -160h-172l9 53h136q9 0 12 11l2 10q3 12 -9 12h-101l5 24l36 70h62l-24 -46h64q57 0 46 -56l-5 -26q-5 -29 -18.5 -40.5t-42.5 -11.5z" />
    <glyph glyph-name="uni0328" unicode="&#x328;" horiz-adv-x="0" 
d="M-208 11l-28 -19q-20 -12 -22 -29l-2 -10q-3 -25 21 -25h124l-15 -88h-164q-42 0 -58 20.5t-11 63.5l2 16q4 31 16 48.5t45 38.5l25 15z" />
    <glyph glyph-name="uni0335" unicode="&#x335;" horiz-adv-x="0" 
d="M-473 303l18 102h440l-18 -102h-440z" />
    <glyph glyph-name="uni0336" unicode="&#x336;" horiz-adv-x="0" 
d="M-897 303l18 102h864l-18 -102h-864z" />
    <glyph glyph-name="uni0337" unicode="&#x337;" horiz-adv-x="0" 
d="M-468 299l18 102l444 60l-18 -102z" />
    <glyph glyph-name="uni0338" unicode="&#x338;" horiz-adv-x="0" 
d="M-688 -30l638 600h104l-638 -600h-104z" />
    <glyph glyph-name="uni0394" unicode="&#x394;" horiz-adv-x="820" 
d="M390 700h193l186 -700h-812zM465 551l-240 -417h333z" />
    <glyph glyph-name="uni03A9" unicode="&#x3a9;" horiz-adv-x="804" 
d="M307 700h322q99 0 142 -52.5t25 -151.5l-35 -195q-14 -78 -48.5 -117.5t-96.5 -49.5h127l-24 -134h-314l40 224h52q46 0 66 17.5t28 63.5l28 163q8 46 -8.5 66t-62.5 20h-200q-46 0 -66 -17.5t-28 -63.5l-28 -163q-8 -46 8.5 -66t62.5 -20h46l-40 -224h-314l24 134h144
q-131 25 -103 181l36 201q18 100 68 142t149 42z" />
    <glyph glyph-name="uni03BC" unicode="&#x3bc;" horiz-adv-x="723" 
d="M657 130h28l-23 -130h-91q-98 0 -115 71q-57 -46 -99 -58q-39 -13 -118 -13h-47q-17 0 -22 1l-28 -161h-162l122 692h162l-57 -326q-7 -40 7 -56.5t54 -16.5h48q63 0 107 29l36 24l61 346h162l-63 -356q-4 -25 4 -35.5t34 -10.5z" />
    <glyph glyph-name="pi" unicode="&#x3c0;" horiz-adv-x="764" 
d="M764 405h-98l-38 -217q-5 -31 6 -44.5t43 -13.5h39l-23 -130h-103q-156 0 -129 158l43 247h-215l-72 -405h-162l71 405h-88l23 127h726z" />
    <glyph glyph-name="uni0401" unicode="&#x401;" horiz-adv-x="682" 
d="M276 852h124l-17 -102h-124zM488 852h124l-17 -102h-124zM720 700l-25 -142h-416l-24 -133h376l-23 -130h-376l-27 -153h426l-25 -142h-598l124 700h588z" />
    <glyph glyph-name="uni0403" unicode="&#x403;" horiz-adv-x="618" 
d="M431 868h178l-144 -126h-138zM133 700h548l-26 -152h-376l-96 -548h-172z" />
    <glyph glyph-name="uni0405" unicode="&#x405;" horiz-adv-x="784" 
d="M28 158l9 58h166l-4 -27q-4 -31 7 -43.5t43 -12.5h240q31 0 44 12t18 44l5 31q5 32 -2.5 44t-35.5 14l-297 28q-79 8 -111 44.5t-19 111.5l17 96q13 78 51 110t116 32h366q155 0 129 -158l-7 -46h-166l2 15q4 31 -7.5 43.5t-42.5 12.5h-216q-30 0 -43.5 -12.5
t-18.5 -43.5l-2 -13q-4 -31 3.5 -42.5t34.5 -13.5l297 -28q79 -8 111 -45t19 -113l-20 -114q-13 -78 -51 -110t-116 -32h-390q-155 0 -129 158z" />
    <glyph glyph-name="uni0406" unicode="&#x406;" horiz-adv-x="296" 
d="M14 0l124 700h174l-124 -700h-174z" />
    <glyph glyph-name="uni0407" unicode="&#x407;" horiz-adv-x="296" 
d="M190 750h-124l17 102h124zM402 750h-124l17 102h124zM14 0l124 700h174l-124 -700h-174z" />
    <glyph glyph-name="uni0408" unicode="&#x408;" horiz-adv-x="712" 
d="M431 0h-246q-99 0 -142.5 52.5t-25.5 151.5l14 78h166l-10 -52q-8 -45 9 -65.5t62 -20.5h131q45 0 65.5 17.5t27.5 62.5l85 476h172l-92 -516q-18 -100 -67.5 -142t-148.5 -42z" />
    <glyph glyph-name="uni040C" unicode="&#x40c;" horiz-adv-x="771" 
d="M501 868h178l-144 -126h-138zM594 700h240l-401 -342l281 -358h-222l-256 346l-61 -346h-172l124 700h172l-57 -322z" />
    <glyph glyph-name="uni040E" unicode="&#x40e;" horiz-adv-x="744" 
d="M568 742h-242q-76 0 -63 76l9 50h110l-6 -30q-4 -28 24 -28h115q27 0 31 28l6 30h110l-9 -54q-7 -38 -27 -55t-58 -17zM384 371l241 329h202l-548 -700h-200l189 239l-197 461h188z" />
    <glyph glyph-name="uni0410" unicode="&#x410;" horiz-adv-x="812" 
d="M764 0h-180l-29 129h-336l-74 -129h-193l434 700h193zM462 552l-169 -295h234z" />
    <glyph glyph-name="uni0411" unicode="&#x411;" horiz-adv-x="768" 
d="M537 0h-528l124 700h610l-23 -133h-438l-26 -143h339q156 0 130 -159l-21 -123q-13 -78 -51 -110t-116 -32zM234 305l-29 -173h273q31 0 44 11.5t18 42.5l10 60q5 32 -6 45.5t-43 13.5h-267z" />
    <glyph glyph-name="uni0412" unicode="&#x412;" horiz-adv-x="768" 
d="M129 700h492q75 0 108.5 -41t20.5 -117l-10 -60q-9 -54 -29.5 -83t-57.5 -39q79 -28 61 -137l-14 -81q-13 -78 -51 -110t-116 -32h-528zM524 568h-247l-26 -150h253q31 0 43.5 11t18.5 43l7 37q12 59 -49 59zM536 186l11 58q12 59 -49 59h-267l-30 -171h273q31 0 43.5 11
t18.5 43z" />
    <glyph glyph-name="uni0413" unicode="&#x413;" horiz-adv-x="618" 
d="M133 700h548l-26 -152h-376l-96 -548h-172z" />
    <glyph glyph-name="uni0414" unicode="&#x414;" horiz-adv-x="866" 
d="M244 700h594l-97 -554h90l-47 -266h-160l21 120h-518l-21 -120h-160l47 266h48q41 0 59.5 15.5t27.5 56.5zM383 548l-77 -316q-10 -47 -32 -86h295l71 402h-257z" />
    <glyph glyph-name="uni0415" unicode="&#x415;" horiz-adv-x="682" 
d="M720 700l-25 -142h-416l-24 -133h376l-23 -130h-376l-27 -153h426l-25 -142h-598l124 700h588z" />
    <glyph glyph-name="uni0416" unicode="&#x416;" horiz-adv-x="1259" 
d="M1087 700h240l-402 -342l282 -358h-222l-257 346l-61 -346h-172l60 337l-362 -337h-237l409 368l-281 332h225l252 -328l58 328h172l-57 -322z" />
    <glyph glyph-name="uni0417" unicode="&#x417;" horiz-adv-x="782" 
d="M272 700h369q77 0 111.5 -41.5t20.5 -119.5l-11 -59q-11 -57 -32.5 -85t-60.5 -37q76 -33 58 -138l-14 -80q-13 -77 -50 -108.5t-115 -31.5h-389q-77 0 -111 41t-21 120l15 89h166l-10 -58q-10 -60 51 -60h239q31 0 43.5 11t17.5 42l9 55q5 32 -6.5 46t-43.5 14h-167
l22 121h165q31 0 43.5 11t17.5 42l6 34q11 60 -50 60h-219q-31 0 -43.5 -11t-17.5 -42l-10 -57h-166l18 102q13 78 50 109t115 31z" />
    <glyph glyph-name="uni0418" unicode="&#x418;" horiz-adv-x="812" 
d="M222 265l465 435h146l-124 -700h-166l78 443l-474 -443h-138l124 700h166z" />
    <glyph glyph-name="uni0419" unicode="&#x419;" horiz-adv-x="812" 
d="M608 742h-242q-76 0 -63 76l9 50h110l-6 -30q-4 -28 24 -28h115q27 0 31 28l6 30h110l-9 -54q-7 -38 -27 -55t-58 -17zM222 265l465 435h146l-124 -700h-166l78 443l-474 -443h-138l124 700h166z" />
    <glyph glyph-name="uni041A" unicode="&#x41a;" horiz-adv-x="771" 
d="M594 700h240l-401 -342l281 -358h-222l-256 346l-61 -346h-172l124 700h172l-57 -322z" />
    <glyph glyph-name="uni041B" unicode="&#x41b;" horiz-adv-x="794" 
d="M53 0h-86l26 146h26q39 0 56.5 14t28.5 56l117 484h594l-124 -700h-172l96 548h-256l-89 -366q-24 -97 -74 -139.5t-143 -42.5z" />
    <glyph glyph-name="uni041C" unicode="&#x41c;" horiz-adv-x="912" 
d="M456 302l322 398h155l-124 -700h-160l74 422l-248 -300h-90l-142 300l-74 -422h-160l124 700h141z" />
    <glyph glyph-name="uni041D" unicode="&#x41d;" horiz-adv-x="792" 
d="M588 440l46 260h172l-124 -700h-172l51 288h-336l-51 -288h-172l124 700h172l-46 -260h336z" />
    <glyph glyph-name="uni041E" unicode="&#x41e;" horiz-adv-x="804" 
d="M526 0h-322q-99 0 -142.5 52.5t-25.5 151.5l56 312q18 100 67.5 142t148.5 42h322q99 0 142.5 -52.5t25.5 -151.5l-56 -312q-18 -100 -67.5 -142t-148.5 -42zM284 146h200q45 0 65.5 17.5t28.5 62.5l43 242q8 45 -9 65.5t-62 20.5h-200q-45 0 -65.5 -17.5t-28.5 -62.5
l-43 -242q-8 -45 9 -65.5t62 -20.5z" />
    <glyph glyph-name="uni041F" unicode="&#x41f;" horiz-adv-x="792" 
d="M181 0h-172l124 700h680l-124 -700h-172l96 548h-336z" />
    <glyph glyph-name="uni0420" unicode="&#x420;" horiz-adv-x="744" 
d="M181 0h-172l124 700h476q182 0 151 -184l-23 -131q-17 -94 -59 -129q-44 -36 -135 -36h-323zM280 566l-37 -218h250q38 0 53.5 13.5t23.5 53.5l14 78q7 40 -7 56.5t-54 16.5h-243z" />
    <glyph glyph-name="uni0421" unicode="&#x421;" horiz-adv-x="776" 
d="M500 0h-296q-99 0 -142.5 52.5t-25.5 151.5l56 312q18 100 67.5 142t148.5 42h296q99 0 142.5 -52.5t25.5 -151.5l-13 -72h-166l8 46q8 46 -8.5 66t-61.5 20h-181q-45 0 -65.5 -17.5t-27.5 -62.5l-44 -246q-8 -46 8.5 -66t61.5 -20h181q45 0 65 17t28 63l11 59h166
l-18 -99q-18 -100 -67.5 -142t-148.5 -42z" />
    <glyph glyph-name="uni0422" unicode="&#x422;" horiz-adv-x="684" 
d="M91 700h656l-28 -152h-241l-97 -548h-172l97 548h-243z" />
    <glyph glyph-name="uni0423" unicode="&#x423;" horiz-adv-x="744" 
d="M384 371l241 329h202l-548 -700h-200l189 239l-197 461h188z" />
    <glyph glyph-name="uni0424" unicode="&#x424;" horiz-adv-x="1010" 
d="M654 656h174q99 0 142.5 -52.5t25.5 -151.5l-40 -224q-18 -100 -67.5 -142t-148.5 -42h-194l-15 -84h-160l15 84h-174q-99 0 -142.5 52.5t-25.5 151.5l40 224q18 100 67.5 142t148.5 42h194l15 84h160zM288 170h120l64 360h-127q-45 0 -65 -17t-28 -63l-35 -195
q-8 -45 9 -65t62 -20zM788 250l35 195q8 45 -9 65t-62 20h-120l-64 -360h127q45 0 65 17t28 63z" />
    <glyph glyph-name="uni0425" unicode="&#x425;" horiz-adv-x="768" 
d="M163 0h-207l331 356l-197 344h190l130 -239l211 239h209l-319 -344l205 -356h-190l-138 252z" />
    <glyph glyph-name="uni0426" unicode="&#x426;" horiz-adv-x="840" 
d="M620 0h-610l123 700h172l-97 -548h336l97 548h172l-97 -548h90l-48 -272h-160z" />
    <glyph glyph-name="uni0427" unicode="&#x427;" horiz-adv-x="744" 
d="M641 0h-172l40 228h-304q-182 0 -151 184l51 288h172l-44 -247q-7 -40 7 -56.5t54 -16.5h243l56 320h172z" />
    <glyph glyph-name="uni0428" unicode="&#x428;" horiz-adv-x="1196" 
d="M1093 0h-1084l124 700h172l-97 -548h284l97 548h172l-97 -548h284l97 548h172z" />
    <glyph glyph-name="uni0429" unicode="&#x429;" horiz-adv-x="1244" 
d="M1024 0h-1014l123 700h172l-97 -548h284l97 548h172l-97 -548h284l97 548h172l-97 -548h90l-48 -272h-160z" />
    <glyph glyph-name="uni042A" unicode="&#x42a;" horiz-adv-x="900" 
d="M263 554h-198l26 146h370l-39 -220h304q182 0 151 -184l-23 -131q-17 -93 -59 -128q-43 -37 -135 -37h-495zM399 352l-38 -218h250q39 0 54.5 14t22.5 53l14 78q7 40 -6.5 56.5t-53.5 16.5h-243z" />
    <glyph glyph-name="uni042B" unicode="&#x42b;" horiz-adv-x="1040" 
d="M9 0l124 700h172l-39 -220h304q182 0 151 -184l-23 -131q-17 -93 -59 -128q-43 -37 -135 -37h-495zM758 0l124 700h174l-124 -700h-174zM486 352h-243l-38 -218h250q39 0 54.5 14t22.5 53l14 78q7 40 -6.5 56.5t-53.5 16.5z" />
    <glyph glyph-name="uni042C" unicode="&#x42c;" horiz-adv-x="744" 
d="M9 0l124 700h172l-39 -220h304q182 0 151 -184l-23 -131q-17 -93 -59 -128q-43 -37 -135 -37h-495zM486 352h-243l-38 -218h250q39 0 54.5 14t22.5 53l14 78q7 40 -6.5 56.5t-53.5 16.5z" />
    <glyph glyph-name="uni042D" unicode="&#x42d;" horiz-adv-x="792" 
d="M305 700h312q99 0 142.5 -52.5t25.5 -151.5l-56 -312q-18 -100 -67.5 -142t-148.5 -42h-312q-99 0 -142 52.5t-26 151.5l14 79h167l-12 -66q-8 -45 8.5 -65t61.5 -20h197q45 0 65.5 17.5t28.5 62.5l16 90h-224l19 111h224l12 70q8 45 -8 65t-62 20h-196
q-46 0 -66.5 -17.5t-28.5 -62.5l-11 -64h-166l17 92q18 100 67.5 142t148.5 42z" />
    <glyph glyph-name="uni042E" unicode="&#x42e;" horiz-adv-x="1203" 
d="M707 700h322q99 0 142.5 -52.5t25.5 -151.5l-56 -312q-18 -100 -67.5 -142t-148.5 -42h-322q-99 0 -142.5 52.5t-25.5 151.5l15 83h-218l-51 -287h-172l124 700h172l-46 -260h218l14 76q18 100 67.5 142t148.5 42zM977 226l43 242q8 45 -9 65.5t-62 20.5h-200
q-45 0 -65.5 -17.5t-28.5 -62.5l-43 -242q-8 -45 9 -65.5t62 -20.5h200q45 0 65.5 17.5t28.5 62.5z" />
    <glyph glyph-name="uni042F" unicode="&#x42f;" horiz-adv-x="768" 
d="M294 700h495l-124 -700h-172l43 244h-163l-205 -244h-197l222 259q-137 18 -110 181l17 95q17 93 59 129q43 36 135 36zM315 368h243l36 204h-250q-39 0 -54.5 -14t-22.5 -53l-12 -64q-7 -40 6.5 -56.5t53.5 -16.5z" />
    <glyph glyph-name="uni0430" unicode="&#x430;" horiz-adv-x="677" 
d="M259 532h232q183 0 150 -182l-62 -350h-135l-3 63q-56 -42 -91 -52q-39 -11 -109 -11h-109q-61 0 -91.5 35.5t-18.5 97.5l11 57q12 63 45.5 91.5t94.5 28.5h299l6 35q7 41 -6.5 56.5t-53.5 15.5h-112q-31 0 -45 -12t-18 -42l-2 -17h-157l7 44q13 78 51.5 110t116.5 32z
M234 107h80q51 0 91 26l40 27l11 60h-209q-28 0 -40 -10t-16 -38l-2 -12q-4 -29 6 -41t39 -12z" />
    <glyph glyph-name="uni0431" unicode="&#x431;" horiz-adv-x="684" 
d="M673 582l-358 -22q-49 -3 -71 -22t-31 -67l-10 -58q31 45 117 45h191q78 0 112 -41t20 -119l-28 -157q-14 -78 -51.5 -109.5t-114.5 -31.5h-289q-77 0 -110.5 41t-20.5 119l60 342q17 100 66 140t151 46l390 22zM427 336h-152q-30 0 -44 -13t-19 -44l-17 -94
q-10 -59 50 -59h152q30 0 43 11.5t19 42.5l18 96q12 60 -50 60z" />
    <glyph glyph-name="uni0432" unicode="&#x432;" horiz-adv-x="670" 
d="M102 532h438q59 0 84.5 -31t14.5 -90l-8 -44q-14 -78 -67 -94q63 -22 48 -104l-11 -60q-10 -59 -39.5 -84t-88.5 -25h-465l48 267h-1zM435 421h-190l-18 -100h193q23 0 33 9t15 33l3 16q4 23 -4 32.5t-32 9.5zM446 151l5 31q4 24 -4 33.5t-32 9.5h-205l-21 -114h209
q24 0 34 8.5t14 31.5z" />
    <glyph glyph-name="uni0433" unicode="&#x433;" horiz-adv-x="529" 
d="M170 0h-162l94 532h460l-24 -133h-297z" />
    <glyph glyph-name="uni0434" unicode="&#x434;" horiz-adv-x="753" 
d="M702 532l-71 -403h84l-44 -249h-150l21 120h-424l-21 -120h-151l44 249h45q34 0 49.5 13t24.5 48l83 342h510zM324 399l-48 -192q-12 -45 -29 -78h222l47 270h-192z" />
    <glyph glyph-name="uni0435" unicode="&#x435;" horiz-adv-x="672" 
d="M259 532h232q91 0 128 -44t21 -137l-19 -112h-417l-7 -42q-7 -40 5.5 -55.5t52.5 -15.5h136q31 0 44 11.5t19 42.5l3 16h157l-10 -53q-15 -79 -52.5 -111t-114.5 -32h-256q-181 0 -149 182l32 184q16 92 59.5 129t135.5 37zM223 349l-2 -12h261l1 9q7 40 -5.5 55
t-52.5 15h-123q-39 0 -55.5 -14t-23.5 -53z" />
    <glyph glyph-name="uni0436" unicode="&#x436;" horiz-adv-x="1065" 
d="M883 532h224l-317 -268l229 -264h-210l-198 252l-45 -252h-163l44 248l-271 -248h-226l324 270l-223 262h209l193 -250l45 250h163l-44 -246z" />
    <glyph glyph-name="uni0437" unicode="&#x437;" horiz-adv-x="672" 
d="M209 532h336q59 0 84.5 -31t14.5 -90l-8 -44q-17 -80 -71 -95q59 -23 44 -103l-11 -60q-10 -59 -39.5 -84t-88.5 -25h-350q-120 0 -100 121l12 68h157l-6 -34q-4 -23 4.5 -32.5t32.5 -9.5h176q23 0 33 8.5t15 32.5l5 26q9 43 -36 43h-114l17 100h108q24 0 34.5 9.5
t14.5 32.5l2 12q4 22 -4 32t-31 10h-162q-24 0 -34 -8.5t-14 -32.5l-5 -29h-157l13 74q10 59 39.5 84t88.5 25z" />
    <glyph glyph-name="uni0438" unicode="&#x438;" horiz-adv-x="704" 
d="M202 217l358 315h136l-94 -532h-157l57 322l-366 -322h-128l94 532h156z" />
    <glyph glyph-name="uni0439" unicode="&#x439;" horiz-adv-x="704" 
d="M524 574h-242q-76 0 -63 76l9 50h110l-6 -30q-4 -28 24 -28h115q27 0 31 28l6 30h110l-9 -54q-7 -38 -27 -55t-58 -17zM202 217l358 315h136l-94 -532h-157l57 322l-366 -322h-128l94 532h156z" />
    <glyph glyph-name="uni043A" unicode="&#x43a;" horiz-adv-x="669" 
d="M486 532h225l-317 -268l229 -264h-210l-199 252l-45 -252h-162l94 532h163l-44 -246z" />
    <glyph glyph-name="uni043B" unicode="&#x43b;" horiz-adv-x="685" 
d="M46 0h-79l23 129h19q35 0 51 13t24 48l83 342h510l-94 -532h-163l71 399h-192l-59 -236q-21 -87 -65.5 -125t-128.5 -38z" />
    <glyph glyph-name="uni043C" unicode="&#x43c;" horiz-adv-x="790" 
d="M158 0h-150l94 532h135l147 -293l253 293h145l-94 -532h-151l54 307l-189 -215h-77l-113 215z" />
    <glyph glyph-name="uni043D" unicode="&#x43d;" horiz-adv-x="690" 
d="M486 340l34 192h162l-94 -532h-163l37 206h-256l-36 -206h-162l94 532h162l-34 -192h256z" />
    <glyph glyph-name="uni043E" unicode="&#x43e;" horiz-adv-x="682" 
d="M425 0h-241q-184 0 -152 185l32 183q17 93 59 128q42 36 134 36h241q184 0 152 -185l-32 -183q-17 -93 -58 -128q-44 -36 -135 -36zM258 130h125q40 0 55.5 13.5t22.5 52.5l24 133q7 40 -7 56.5t-54 16.5h-125q-40 0 -55.5 -13.5t-22.5 -52.5l-24 -133q-7 -40 7 -56.5
t54 -16.5z" />
    <glyph glyph-name="uni043F" unicode="&#x43f;" horiz-adv-x="690" 
d="M170 0h-162l94 532h580l-94 -532h-163l71 399h-255z" />
    <glyph glyph-name="uni0440" unicode="&#x440;" horiz-adv-x="691" 
d="M450 532h60q182 0 149 -182l-32 -184q-17 -94 -59 -129q-43 -37 -136 -37h-69q-70 0 -109 11q-36 10 -74 45l-38 -216h-162l122 692h134l4 -67q56 43 96 55q39 12 114 12zM470 196l23 134q7 40 -6 56t-53 16h-60q-63 0 -107 -29l-35 -24l-29 -167l26 -25q31 -27 101 -27
h63q39 0 54.5 13t22.5 53z" />
    <glyph glyph-name="uni0441" unicode="&#x441;" horiz-adv-x="656" 
d="M399 0h-215q-184 0 -152 185l32 183q17 93 59 128q42 36 134 36h215q181 0 152 -185l-5 -34h-157l3 16q6 40 -7.5 56.5t-53.5 16.5h-105q-40 0 -55.5 -13.5t-22.5 -52.5l-24 -133q-7 -40 7 -56.5t54 -16.5h105q40 0 55.5 13.5t22.5 52.5l5 29h157l-11 -61
q-17 -94 -58 -128q-44 -36 -135 -36z" />
    <glyph glyph-name="uni0442" unicode="&#x442;" horiz-adv-x="584" 
d="M234 399h-197l24 133h556l-24 -133h-196l-71 -399h-162z" />
    <glyph glyph-name="uni0443" unicode="&#x443;" horiz-adv-x="658" 
d="M305 169l214 363h182l-356 -547q-61 -95 -108 -120q-46 -25 -154 -25h-102l23 130h96q43 0 63 8.5t40 37.5l-152 516h171z" />
    <glyph glyph-name="uni0444" unicode="&#x444;" horiz-adv-x="978" 
d="M614 532h180q184 0 152 -185l-32 -183q-17 -93 -58 -128q-44 -36 -135 -36h-201l-28 -160h-156l28 160h-180q-184 0 -152 185l32 183q17 93 59 128q42 36 134 36h201l30 168h156zM256 115h129l53 302h-137q-40 0 -55.5 -13.5t-22.5 -53.5l-28 -162q-7 -40 7 -56.5
t54 -16.5zM755 182l28 162q7 40 -7 56.5t-54 16.5h-128l-53 -302h136q40 0 55.5 13.5t22.5 53.5z" />
    <glyph glyph-name="uni0445" unicode="&#x445;" horiz-adv-x="665" 
d="M155 0h-205l272 271l-167 261h186l100 -172l158 172h204l-259 -261l175 -271h-186l-109 183z" />
    <glyph glyph-name="uni0446" unicode="&#x446;" horiz-adv-x="733" 
d="M522 0h-513l93 532h162l-70 -399h256l70 399h162l-70 -399h83l-44 -253h-151z" />
    <glyph glyph-name="uni0447" unicode="&#x447;" horiz-adv-x="647" 
d="M75 532h163l-31 -172q-5 -31 6 -44t42 -13h181l41 229h162l-94 -532h-163l31 170h-244q-78 0 -111 40t-19 118z" />
    <glyph glyph-name="uni0448" unicode="&#x448;" horiz-adv-x="1033" 
d="M931 0h-923l94 532h162l-70 -399h218l70 399h163l-71 -399h218l71 399h162z" />
    <glyph glyph-name="uni0449" unicode="&#x449;" horiz-adv-x="1076" 
d="M865 0h-856l93 532h162l-70 -399h218l70 399h163l-70 -399h218l70 399h162l-70 -399h84l-45 -253h-151z" />
    <glyph glyph-name="uni044A" unicode="&#x44a;" horiz-adv-x="764" 
d="M195 399h-158l24 133h321l-30 -163h248q154 0 127 -154l-14 -76q-13 -77 -50 -108t-113 -31h-425zM333 262l-26 -149h188q29 0 42.5 11t18.5 40l7 42q5 31 -5 43.5t-41 12.5h-184z" />
    <glyph glyph-name="uni044B" unicode="&#x44b;" horiz-adv-x="929" 
d="M8 0l94 532h162l-29 -163h248q154 0 127 -154l-14 -76q-13 -77 -50 -108t-113 -31h-425zM823 0h-164l94 532h165zM400 262h-184l-26 -149h188q29 0 42.5 11t18.5 40l7 42q5 31 -5.5 43.5t-40.5 12.5z" />
    <glyph glyph-name="uni044C" unicode="&#x44c;" horiz-adv-x="647" 
d="M8 0l94 532h162l-29 -163h248q154 0 127 -154l-14 -76q-13 -77 -50 -108t-113 -31h-425zM400 262h-184l-26 -149h188q29 0 42.5 11t18.5 40l7 42q5 31 -5.5 43.5t-40.5 12.5z" />
    <glyph glyph-name="uni044D" unicode="&#x44d;" horiz-adv-x="676" 
d="M256 532h235q184 0 152 -185l-32 -183q-17 -94 -58 -128q-43 -36 -135 -36h-235q-185 0 -152 185l7 40h156l-5 -26q-7 -39 7.5 -56t54.5 -17h125q39 0 54 13.5t23 53.5l6 32h-159l16 94h160l3 14q7 39 -7.5 56t-54.5 17h-125q-39 0 -54 -13.5t-23 -53.5l-5 -26h-156l9 55
q15 93 58 129q43 35 135 35z" />
    <glyph glyph-name="uni044E" unicode="&#x44e;" horiz-adv-x="1015" 
d="M590 532h241q184 0 152 -185l-32 -183q-17 -93 -58 -128q-43 -36 -135 -36h-241q-184 0 -152 185l4 21h-163l-36 -206h-162l94 532h162l-34 -192h162l5 28q17 93 59 128q42 36 134 36zM794 196l24 133q7 40 -7 56.5t-54 16.5h-125q-40 0 -55.5 -13.5t-22.5 -52.5
l-24 -133q-7 -40 7 -56.5t54 -16.5h125q40 0 55.5 13.5t22.5 52.5z" />
    <glyph glyph-name="uni044F" unicode="&#x44f;" horiz-adv-x="669" 
d="M236 532h425l-94 -532h-163l33 182h-131l-152 -182h-184l167 196q-95 25 -73 148l9 49q13 77 50 108t113 31zM271 284h184l24 140h-188q-29 0 -42 -11.5t-18 -40.5l-6 -33q-5 -30 5.5 -42.5t40.5 -12.5z" />
    <glyph glyph-name="uni0451" unicode="&#x451;" horiz-adv-x="672" 
d="M241 684h124l-17 -102h-124zM453 684h124l-17 -102h-124zM259 532h232q91 0 128 -44t21 -137l-19 -112h-417l-7 -42q-7 -40 5.5 -55.5t52.5 -15.5h136q31 0 44 11.5t19 42.5l3 16h157l-10 -53q-15 -79 -52.5 -111t-114.5 -32h-256q-181 0 -149 182l32 184q16 92 59.5 129
t135.5 37zM223 349l-2 -12h261l1 9q7 40 -5.5 55t-52.5 15h-123q-39 0 -55.5 -14t-23.5 -53z" />
    <glyph glyph-name="uni0453" unicode="&#x453;" horiz-adv-x="529" 
d="M535 700l-144 -126h-138l104 126h178zM170 0h-162l94 532h460l-24 -133h-297z" />
    <glyph glyph-name="uni0455" unicode="&#x455;" horiz-adv-x="662" 
d="M21 127l8 49h156l-6 -31q-3 -17 3.5 -24t24.5 -7h188q18 0 25 6.5t11 24.5l6 30q4 17 -2.5 23.5t-25.5 8.5l-240 24q-118 10 -98 125l11 60q21 116 136 116h304q57 0 85 -34.5t18 -92.5l-7 -43h-156l5 25q7 31 -28 31h-164q-18 0 -25.5 -6.5t-10.5 -24.5l-2 -12
q-3 -17 3 -23.5t24 -8.5l240 -24q58 -5 84 -37t15 -88l-15 -78q-23 -116 -136 -116h-328q-57 0 -85 34.5t-18 92.5z" />
    <glyph glyph-name="uni0456" unicode="&#x456;" horiz-adv-x="282" 
d="M279 582h-165l21 118h165zM176 0h-165l94 532h165z" />
    <glyph glyph-name="uni0457" unicode="&#x457;" horiz-adv-x="282" 
d="M153 582h-124l17 102h124zM365 582h-124l17 102h124zM176 0h-164l94 532h165z" />
    <glyph glyph-name="uni0458" unicode="&#x458;" horiz-adv-x="282" 
d="M279 582h-165l22 118h164zM6 -160h-103l22 124h28q31 0 44 11t18 42l91 515h165l-97 -550q-14 -78 -52.5 -110t-115.5 -32z" />
    <glyph glyph-name="uni045C" unicode="&#x45c;" horiz-adv-x="669" 
d="M427 700h178l-144 -126h-138zM486 532h225l-317 -268l229 -264h-210l-199 252l-45 -252h-162l94 532h163l-44 -246z" />
    <glyph glyph-name="uni045E" unicode="&#x45e;" horiz-adv-x="658" 
d="M493 574h-242q-76 0 -63 76l9 50h110l-6 -30q-4 -28 24 -28h115q27 0 31 28l6 30h110l-9 -54q-7 -38 -27 -55t-58 -17zM305 169l214 363h182l-356 -547q-61 -95 -108 -120q-46 -25 -154 -25h-102l23 130h96q43 0 63 8.5t40 37.5l-152 516h171z" />
    <glyph glyph-name="uni0498" unicode="&#x498;" horiz-adv-x="782" 
d="M272 700h369q77 0 111.5 -41.5t20.5 -119.5l-11 -59q-11 -57 -32.5 -85t-60.5 -37q76 -33 58 -138l-14 -80q-13 -77 -50 -108.5t-115 -31.5h-185l-14 -26h64q57 0 46 -56l-5 -26q-5 -29 -18.5 -40.5t-42.5 -11.5h-172l9 53h136q9 0 12 11l2 10q3 12 -9 12h-101l5 24
l26 50h-142q-77 0 -111 41t-21 120l15 89h166l-10 -58q-10 -60 51 -60h239q31 0 43.5 11t17.5 42l9 55q5 32 -6.5 46t-43.5 14h-167l22 121h165q31 0 43.5 11t17.5 42l6 34q11 60 -50 60h-219q-31 0 -43.5 -11t-17.5 -42l-10 -57h-166l18 102q13 78 50 109t115 31z" />
    <glyph glyph-name="uni0499" unicode="&#x499;" horiz-adv-x="672" 
d="M209 532h336q59 0 84.5 -31t14.5 -90l-8 -44q-17 -80 -71 -95q59 -23 44 -103l-11 -60q-10 -59 -39.5 -84t-88.5 -25h-162l-14 -26h64q57 0 46 -56l-5 -26q-5 -29 -18.5 -40.5t-42.5 -11.5h-172l9 53h136q9 0 12 11l2 10q3 12 -9 12h-101l5 24l26 50h-126
q-120 0 -100 121l12 68h157l-6 -34q-4 -23 4.5 -32.5t32.5 -9.5h176q23 0 33 8.5t15 32.5l5 26q9 43 -36 43h-114l17 100h108q24 0 34.5 9.5t14.5 32.5l2 12q4 22 -4 32t-31 10h-162q-24 0 -34 -8.5t-14 -32.5l-5 -29h-157l13 74q10 59 39.5 84t88.5 25z" />
    <glyph glyph-name="uni04BB" unicode="&#x4bb;" horiz-adv-x="686" 
d="M454 532h43q185 0 152 -185l-61 -347h-163l58 326q7 40 -7 56.5t-54 16.5h-48q-63 0 -107 -29l-36 -24l-61 -346h-162l124 700h162l-40 -227q55 39 90 49q36 10 110 10z" />
    <glyph glyph-name="uni04C0" unicode="&#x4c0;" horiz-adv-x="296" 
d="M14 0l124 700h174l-124 -700h-174z" />
    <glyph glyph-name="uni04C1" unicode="&#x4c1;" horiz-adv-x="1259" 
d="M831 742h-242q-76 0 -63 76l9 50h110l-6 -30q-4 -28 24 -28h115q27 0 31 28l6 30h110l-9 -54q-7 -38 -27 -55t-58 -17zM1087 700h240l-402 -342l282 -358h-222l-257 346l-61 -346h-172l60 337l-362 -337h-237l409 368l-281 332h225l252 -328l58 328h172l-57 -322z" />
    <glyph glyph-name="uni04C2" unicode="&#x4c2;" horiz-adv-x="1065" 
d="M705 574h-242q-76 0 -63 76l9 50h110l-6 -30q-4 -28 24 -28h115q27 0 31 28l6 30h110l-9 -54q-7 -38 -27 -55t-58 -17zM883 532h224l-317 -268l229 -264h-210l-198 252l-45 -252h-163l44 248l-271 -248h-226l324 270l-223 262h209l193 -250l45 250h163l-44 -246z" />
    <glyph glyph-name="uni04D0" unicode="&#x4d0;" horiz-adv-x="812" 
d="M608 742h-242q-76 0 -63 76l9 50h110l-6 -30q-4 -28 24 -28h115q27 0 31 28l6 30h110l-9 -54q-7 -38 -27 -55t-58 -17zM764 0h-180l-29 129h-336l-74 -129h-193l434 700h193zM462 552l-169 -295h234z" />
    <glyph glyph-name="uni04D1" unicode="&#x4d1;" horiz-adv-x="677" 
d="M511 574h-242q-76 0 -63 76l9 50h110l-6 -30q-4 -28 24 -28h115q27 0 31 28l6 30h110l-9 -54q-7 -38 -27 -55t-58 -17zM259 532h232q183 0 150 -182l-62 -350h-135l-3 63q-56 -42 -91 -52q-39 -11 -109 -11h-109q-61 0 -91.5 35.5t-18.5 97.5l11 57q12 63 45.5 91.5
t94.5 28.5h299l6 35q7 41 -6.5 56.5t-53.5 15.5h-112q-31 0 -45 -12t-18 -42l-2 -17h-157l7 44q13 78 51.5 110t116.5 32zM234 107h80q51 0 91 26l40 27l11 60h-209q-28 0 -40 -10t-16 -38l-2 -12q-4 -29 6 -41t39 -12z" />
    <glyph glyph-name="uni04D2" unicode="&#x4d2;" horiz-adv-x="812" 
d="M341 852h124l-17 -102h-124zM553 852h124l-17 -102h-124zM764 0h-180l-29 129h-336l-74 -129h-193l434 700h193zM462 552l-169 -295h234z" />
    <glyph glyph-name="uni04D3" unicode="&#x4d3;" horiz-adv-x="677" 
d="M244 684h124l-17 -102h-124zM456 684h124l-17 -102h-124zM259 532h232q183 0 150 -182l-62 -350h-135l-3 63q-56 -42 -91 -52q-39 -11 -109 -11h-109q-61 0 -91.5 35.5t-18.5 97.5l11 57q12 63 45.5 91.5t94.5 28.5h299l6 35q7 41 -6.5 56.5t-53.5 15.5h-112
q-31 0 -45 -12t-18 -42l-2 -17h-157l7 44q13 78 51.5 110t116.5 32zM234 107h80q51 0 91 26l40 27l11 60h-209q-28 0 -40 -10t-16 -38l-2 -12q-4 -29 6 -41t39 -12z" />
    <glyph glyph-name="uni04D4" unicode="&#x4d4;" horiz-adv-x="1086" 
d="M1125 700l-26 -142h-473l31 -133h379l-23 -130h-326l35 -153h314l-25 -142h-439l-24 124h-330l-71 -124h-190l433 700h735zM466 553l-174 -301h232z" />
    <glyph glyph-name="uni04D5" unicode="&#x4d5;" horiz-adv-x="1090" 
d="M707 532h202q181 0 149 -182l-20 -111h-417l-7 -42q-7 -40 6 -55.5t53 -15.5h136q31 0 44 11.5t19 42.5l3 16h156l-10 -54q-14 -78 -52 -110t-115 -32h-237q-105 0 -139 60q-52 -38 -88 -49q-38 -11 -107 -11h-151q-61 0 -91 36t-18 97l11 58q12 63 44.5 91t93.5 28h300
l6 35q7 40 -6 56t-54 16h-112q-31 0 -45 -12t-18 -42l-2 -17h-157l7 44q13 78 51.5 110t116.5 32h202q86 0 116 -48q36 48 130 48zM641 349l-2 -12h261l1 9q7 40 -6 55t-53 15h-123q-40 0 -55.5 -13.5t-22.5 -53.5zM405 133l40 27l11 60h-209q-28 0 -40 -10t-16 -38l-2 -12
q-5 -29 5 -41t39 -12h81q51 0 91 26z" />
    <glyph glyph-name="uni04D6" unicode="&#x4d6;" horiz-adv-x="682" 
d="M543 742h-242q-76 0 -63 76l9 50h110l-6 -30q-4 -28 24 -28h115q27 0 31 28l6 30h110l-9 -54q-7 -38 -27 -55t-58 -17zM720 700l-25 -142h-416l-24 -133h376l-23 -130h-376l-27 -153h426l-25 -142h-598l124 700h588z" />
    <glyph glyph-name="uni04D7" unicode="&#x4d7;" horiz-adv-x="672" 
d="M508 574h-242q-76 0 -63 76l9 50h110l-6 -30q-4 -28 24 -28h115q27 0 31 28l6 30h110l-9 -54q-7 -38 -27 -55t-58 -17zM259 532h232q91 0 128 -44t21 -137l-19 -112h-417l-7 -42q-7 -40 5.5 -55.5t52.5 -15.5h136q31 0 44 11.5t19 42.5l3 16h157l-10 -53
q-15 -79 -52.5 -111t-114.5 -32h-256q-181 0 -149 182l32 184q16 92 59.5 129t135.5 37zM223 349l-2 -12h261l1 9q7 40 -5.5 55t-52.5 15h-123q-39 0 -55.5 -14t-23.5 -53z" />
    <glyph glyph-name="uni04DC" unicode="&#x4dc;" horiz-adv-x="1259" 
d="M564 852h124l-17 -102h-124zM776 852h124l-17 -102h-124zM1087 700h240l-402 -342l282 -358h-222l-257 346l-61 -346h-172l60 337l-362 -337h-237l409 368l-281 332h225l252 -328l58 328h172l-57 -322z" />
    <glyph glyph-name="uni04DD" unicode="&#x4dd;" horiz-adv-x="1065" 
d="M438 684h124l-17 -102h-124zM650 684h124l-17 -102h-124zM883 532h224l-317 -268l229 -264h-210l-198 252l-45 -252h-163l44 248l-271 -248h-226l324 270l-223 262h209l193 -250l45 250h163l-44 -246z" />
    <glyph glyph-name="uni04DE" unicode="&#x4de;" horiz-adv-x="782" 
d="M326 852h124l-17 -102h-124zM538 852h124l-17 -102h-124zM272 700h369q77 0 111.5 -41.5t20.5 -119.5l-11 -59q-11 -57 -32.5 -85t-60.5 -37q76 -33 58 -138l-14 -80q-13 -77 -50 -108.5t-115 -31.5h-389q-77 0 -111 41t-21 120l15 89h166l-10 -58q-10 -60 51 -60h239
q31 0 43.5 11t17.5 42l9 55q5 32 -6.5 46t-43.5 14h-167l22 121h165q31 0 43.5 11t17.5 42l6 34q11 60 -50 60h-219q-31 0 -43.5 -11t-17.5 -42l-10 -57h-166l18 102q13 78 50 109t115 31z" />
    <glyph glyph-name="uni04DF" unicode="&#x4df;" horiz-adv-x="672" 
d="M241 684h124l-17 -102h-124zM453 684h124l-17 -102h-124zM209 532h336q59 0 84.5 -31t14.5 -90l-8 -44q-17 -80 -71 -95q59 -23 44 -103l-11 -60q-10 -59 -39.5 -84t-88.5 -25h-350q-120 0 -100 121l12 68h157l-6 -34q-4 -23 4.5 -32.5t32.5 -9.5h176q23 0 33 8.5
t15 32.5l5 26q9 43 -36 43h-114l17 100h108q24 0 34.5 9.5t14.5 32.5l2 12q4 22 -4 32t-31 10h-162q-24 0 -34 -8.5t-14 -32.5l-5 -29h-157l13 74q10 59 39.5 84t88.5 25z" />
    <glyph glyph-name="uni04E2" unicode="&#x4e2;" horiz-adv-x="812" 
d="M305 846h408l-14 -80h-408zM222 265l465 435h146l-124 -700h-166l78 443l-474 -443h-138l124 700h166z" />
    <glyph glyph-name="uni04E3" unicode="&#x4e3;" horiz-adv-x="704" 
d="M221 678h408l-14 -80h-408zM202 217l358 315h136l-94 -532h-157l57 322l-366 -322h-128l94 532h156z" />
    <glyph glyph-name="uni04E4" unicode="&#x4e4;" horiz-adv-x="812" 
d="M341 852h124l-17 -102h-124zM553 852h124l-17 -102h-124zM222 265l465 435h146l-124 -700h-166l78 443l-474 -443h-138l124 700h166z" />
    <glyph glyph-name="uni04E5" unicode="&#x4e5;" horiz-adv-x="704" 
d="M257 684h124l-17 -102h-124zM469 684h124l-17 -102h-124zM202 217l358 315h136l-94 -532h-157l57 322l-366 -322h-128l94 532h156z" />
    <glyph glyph-name="uni04E6" unicode="&#x4e6;" horiz-adv-x="804" 
d="M444 750h-124l17 102h124zM656 750h-124l17 102h124zM526 0h-322q-99 0 -142.5 52.5t-25.5 151.5l56 312q18 100 67.5 142t148.5 42h322q99 0 142.5 -52.5t25.5 -151.5l-56 -312q-18 -100 -67.5 -142t-148.5 -42zM284 146h200q45 0 65.5 17.5t28.5 62.5l43 242
q8 45 -9 65.5t-62 20.5h-200q-45 0 -65.5 -17.5t-28.5 -62.5l-43 -242q-8 -45 9 -65.5t62 -20.5z" />
    <glyph glyph-name="uni04E7" unicode="&#x4e7;" horiz-adv-x="682" 
d="M353 582h-124l17 102h124zM565 582h-124l17 102h124zM425 0h-241q-184 0 -152 185l32 183q17 93 59 128q42 36 134 36h241q184 0 152 -185l-32 -183q-17 -93 -58 -128q-44 -36 -135 -36zM258 130h125q40 0 55.5 13.5t22.5 52.5l24 133q7 40 -7 56.5t-54 16.5h-125
q-40 0 -55.5 -13.5t-22.5 -52.5l-24 -133q-7 -40 7 -56.5t54 -16.5z" />
    <glyph glyph-name="uni04EC" unicode="&#x4ec;" horiz-adv-x="792" 
d="M331 852h124l-17 -102h-124zM543 852h124l-17 -102h-124zM305 700h312q99 0 142.5 -52.5t25.5 -151.5l-56 -312q-18 -100 -67.5 -142t-148.5 -42h-312q-99 0 -142 52.5t-26 151.5l14 79h167l-12 -66q-8 -45 8.5 -65t61.5 -20h197q45 0 65.5 17.5t28.5 62.5l16 90h-224
l19 111h224l12 70q8 45 -8 65t-62 20h-196q-46 0 -66.5 -17.5t-28.5 -62.5l-11 -64h-166l17 92q18 100 67.5 142t148.5 42z" />
    <glyph glyph-name="uni04ED" unicode="&#x4ed;" horiz-adv-x="676" 
d="M243 684h124l-17 -102h-124zM455 684h124l-17 -102h-124zM256 532h235q184 0 152 -185l-32 -183q-17 -94 -58 -128q-43 -36 -135 -36h-235q-185 0 -152 185l7 40h156l-5 -26q-7 -39 7.5 -56t54.5 -17h125q39 0 54 13.5t23 53.5l6 32h-159l16 94h160l3 14q7 39 -7.5 56
t-54.5 17h-125q-39 0 -54 -13.5t-23 -53.5l-5 -26h-156l9 55q15 93 58 129q43 35 135 35z" />
    <glyph glyph-name="uni04EE" unicode="&#x4ee;" horiz-adv-x="744" 
d="M265 846h408l-14 -80h-408zM384 371l241 329h202l-548 -700h-200l189 239l-197 461h188z" />
    <glyph glyph-name="uni04EF" unicode="&#x4ef;" horiz-adv-x="658" 
d="M190 678h408l-14 -80h-408zM305 169l214 363h182l-356 -547q-61 -95 -108 -120q-46 -25 -154 -25h-102l23 130h96q43 0 63 8.5t40 37.5l-152 516h171z" />
    <glyph glyph-name="uni04F0" unicode="&#x4f0;" horiz-adv-x="744" 
d="M301 852h124l-17 -102h-124zM513 852h124l-17 -102h-124zM384 371l241 329h202l-548 -700h-200l189 239l-197 461h188z" />
    <glyph glyph-name="uni04F1" unicode="&#x4f1;" horiz-adv-x="658" 
d="M226 684h124l-17 -102h-124zM438 684h124l-17 -102h-124zM305 169l214 363h182l-356 -547q-61 -95 -108 -120q-46 -25 -154 -25h-102l23 130h96q43 0 63 8.5t40 37.5l-152 516h171z" />
    <glyph glyph-name="uni04F2" unicode="&#x4f2;" horiz-adv-x="744" 
d="M356 868h171l-129 -126h-137zM761 868l-128 -126h-137l94 126h171zM384 371l241 329h202l-548 -700h-200l189 239l-197 461h188z" />
    <glyph glyph-name="uni04F3" unicode="&#x4f3;" horiz-adv-x="658" 
d="M281 700h171l-129 -126h-137zM686 700l-128 -126h-137l94 126h171zM305 169l214 363h182l-356 -547q-61 -95 -108 -120q-46 -25 -154 -25h-102l23 130h96q43 0 63 8.5t40 37.5l-152 516h171z" />
    <glyph glyph-name="uni04F4" unicode="&#x4f4;" horiz-adv-x="744" 
d="M414 750h-124l17 102h124zM626 750h-124l17 102h124zM641 0h-172l40 228h-304q-182 0 -151 184l51 288h172l-44 -247q-7 -40 7 -56.5t54 -16.5h243l56 320h172z" />
    <glyph glyph-name="uni04F5" unicode="&#x4f5;" horiz-adv-x="600" 
d="M237 582h-124l17 102h124zM449 582h-124l17 102h124zM75 532h163l-31 -172q-5 -31 6 -44t42 -13h181l41 229h162l-94 -532h-163l31 170h-244q-78 0 -111 40t-19 118z" />
    <glyph glyph-name="uni04F8" unicode="&#x4f8;" horiz-adv-x="1040" 
d="M934 750h-124l17 102h124zM1146 750h-124l17 102h124zM9 0l124 700h172l-39 -220h304q182 0 151 -184l-23 -131q-17 -93 -59 -128q-43 -37 -135 -37h-495zM758 0l124 700h174l-124 -700h-174zM486 352h-243l-38 -218h250q39 0 54.5 14t22.5 53l14 78q7 40 -6.5 56.5
t-53.5 16.5z" />
    <glyph glyph-name="uni04F9" unicode="&#x4f9;" horiz-adv-x="929" 
d="M800 582h-124l17 102h124zM1012 582h-124l17 102h124zM8 0l94 532h162l-29 -163h248q154 0 127 -154l-14 -76q-13 -77 -50 -108t-113 -31h-425zM823 0h-164l94 532h165zM400 262h-184l-26 -149h188q29 0 42.5 11t18.5 40l7 42q5 31 -5.5 43.5t-40.5 12.5z" />
    <glyph glyph-name="Wgrave" unicode="&#x1e80;" horiz-adv-x="1118" 
d="M640 868l60 -126h-120l-100 126h160zM769 233l235 467h187l-377 -700h-152l-73 447l-232 -447h-147l-129 700h181l70 -466l236 466h128z" />
    <glyph glyph-name="wgrave" unicode="&#x1e81;" horiz-adv-x="922" 
d="M505 700l60 -126h-120l-100 126h160zM623 198l169 334h173l-296 -532h-144l-55 328l-170 -328h-141l-108 532h163l53 -333l174 333h124z" />
    <glyph glyph-name="Wacute" unicode="&#x1e82;" horiz-adv-x="1118" 
d="M681 868h178l-144 -126h-138zM769 233l235 467h187l-377 -700h-152l-73 447l-232 -447h-147l-129 700h181l70 -466l236 466h128z" />
    <glyph glyph-name="wacute" unicode="&#x1e83;" horiz-adv-x="922" 
d="M546 700h178l-144 -126h-138zM623 198l169 334h173l-296 -532h-144l-55 328l-170 -328h-141l-108 532h163l53 -333l174 333h124z" />
    <glyph glyph-name="Wdieresis" unicode="&#x1e84;" horiz-adv-x="1118" 
d="M494 852h124l-17 -102h-124zM706 852h124l-17 -102h-124zM769 233l235 467h187l-377 -700h-152l-73 447l-232 -447h-147l-129 700h181l70 -466l236 466h128z" />
    <glyph glyph-name="wdieresis" unicode="&#x1e85;" horiz-adv-x="922" 
d="M359 684h124l-17 -102h-124zM571 684h124l-17 -102h-124zM623 198l169 334h173l-296 -532h-144l-55 328l-170 -328h-141l-108 532h163l53 -333l174 333h124z" />
    <glyph glyph-name="uni1E9E" unicode="&#x1e9e;" horiz-adv-x="803" 
d="M310 700h480l-12 -72l-192 -198h42q77 0 111 -41t21 -119l-22 -130q-13 -78 -50.5 -109t-115.5 -31h-276l24 128h191q31 0 43.5 11t17.5 42l13 72q6 31 -5.5 45t-43.5 14h-164l16 90l149 154h-186q-45 0 -65 -17t-28 -62l-84 -477h-172l91 516q18 100 68 142t149 42z" />
    <glyph glyph-name="Ygrave" unicode="&#x1ef2;" horiz-adv-x="744" 
d="M447 868l60 -126h-120l-100 126h160zM627 700h200l-371 -443l-45 -257h-172l45 257l-213 443h190l131 -298z" />
    <glyph glyph-name="ygrave" unicode="&#x1ef3;" horiz-adv-x="658" 
d="M372 700l60 -126h-120l-100 126h160zM305 169l214 363h182l-356 -547q-61 -95 -108 -120q-46 -25 -154 -25h-102l23 130h96q43 0 63 8.5t40 37.5l-152 516h171z" />
    <glyph glyph-name="endash" unicode="&#x2013;" horiz-adv-x="640" 
d="M45 280l24 140h556l-24 -140h-556z" />
    <glyph glyph-name="emdash" unicode="&#x2014;" horiz-adv-x="900" 
d="M45 280l24 140h816l-24 -140h-816z" />
    <glyph glyph-name="quoteleft" unicode="&#x2018;" horiz-adv-x="304" 
d="M217 700h108l-86 -160h57l-29 -168h-192l11 66q10 64 49 123z" />
    <glyph glyph-name="quoteright" unicode="&#x2019;" horiz-adv-x="304" 
d="M182 372h-108l86 160h-57l29 168h192l-11 -66q-10 -64 -49 -123z" />
    <glyph glyph-name="quotesinglbase" unicode="&#x201a;" horiz-adv-x="304" 
d="M89 -160h-108l86 160h-57l29 168h192l-11 -66q-10 -64 -49 -123z" />
    <glyph glyph-name="quotedblleft" unicode="&#x201c;" horiz-adv-x="580" 
d="M217 700h108l-86 -160h57l-29 -168h-192l11 66q10 64 49 123zM493 700h108l-86 -160h57l-29 -168h-192l11 66q10 64 49 123z" />
    <glyph glyph-name="quotedblright" unicode="&#x201d;" horiz-adv-x="580" 
d="M182 372h-108l86 160h-57l29 168h192l-11 -66q-10 -64 -49 -123zM458 372h-108l86 160h-57l29 168h192l-11 -66q-10 -64 -49 -123z" />
    <glyph glyph-name="quotedblbase" unicode="&#x201e;" horiz-adv-x="580" 
d="M89 -160h-108l86 160h-57l29 168h192l-11 -66q-10 -64 -49 -123zM365 -160h-108l86 160h-57l29 168h192l-11 -66q-10 -64 -49 -123z" />
    <glyph glyph-name="dagger" unicode="&#x2020;" horiz-adv-x="418" 
d="M316 581h119l-17 -98h-119l-39 -217h-103l39 217h-120l17 98h120l21 119h103z" />
    <glyph glyph-name="daggerdbl" unicode="&#x2021;" horiz-adv-x="418" 
d="M437 588l-16 -94h-120l-22 -122h120l-17 -94h-119l-20 -112h-103l20 112h-120l17 94h119l22 122h-119l16 94h119l20 112h103l-20 -112h120z" />
    <glyph glyph-name="bullet" unicode="&#x2022;" horiz-adv-x="420" 
d="M271 196h-136q-90 0 -74 91l23 135q7 45 29 63.5t67 18.5h136q89 0 74 -91l-23 -135q-8 -44 -30 -63t-66 -19z" />
    <glyph glyph-name="perthousand" unicode="&#x2030;" horiz-adv-x="1240" 
d="M412 509l-18 -106q-9 -53 -36.5 -76t-80.5 -23h-122q-53 0 -76 28.5t-14 82.5l18 106q9 54 36 76.5t81 22.5h122q108 0 90 -111zM177 0h-98l619 620h98zM194 386h66q23 0 33.5 9t14.5 31l12 69q4 23 -4.5 33t-32.5 10h-66q-23 0 -33.5 -8.5t-14.5 -31.5l-12 -69
q-7 -43 37 -43zM676 0h-122q-53 0 -76.5 29t-14.5 82l18 106q9 54 36 76.5t81 22.5h122q53 0 76.5 -28.5t14.5 -82.5l-19 -106q-9 -53 -36 -76t-80 -23zM1056 0h-122q-53 0 -76.5 29t-14.5 82l18 106q9 54 36 76.5t81 22.5h122q53 0 76.5 -28.5t14.5 -82.5l-19 -106
q-9 -53 -36 -76t-80 -23zM592 82h66q24 0 34 8.5t14 31.5l12 69q4 23 -4.5 33t-31.5 10h-67q-23 0 -33 -8.5t-14 -31.5l-13 -69q-7 -43 37 -43zM972 82h66q24 0 34 8.5t14 31.5l12 69q4 23 -4.5 33t-31.5 10h-67q-23 0 -33 -8.5t-14 -31.5l-13 -69q-7 -43 37 -43z" />
    <glyph glyph-name="guilsinglleft" unicode="&#x2039;" horiz-adv-x="432" 
d="M73 410l368 182l-24 -138l-231 -103l192 -115l-23 -129l-300 202z" />
    <glyph glyph-name="guilsinglright" unicode="&#x203a;" horiz-adv-x="432" 
d="M83 463l23 129l300 -202l-18 -101l-368 -182l24 138l231 103z" />
    <glyph glyph-name="fraction" unicode="&#x2044;" horiz-adv-x="204" 
d="M-155 0h-103l647 700h103z" />
    <glyph glyph-name="Euro" unicode="&#x20ac;" horiz-adv-x="772" 
d="M347 700h242q99 0 142 -52.5t26 -151.5l-13 -72h-160l10 61q8 46 -8.5 65.5t-62.5 19.5h-138q-46 0 -65.5 -17t-27.5 -63l-6 -35h214l-13 -71h-214l-12 -68h214l-13 -71h-214l-5 -30q-7 -46 9.5 -65.5t61.5 -19.5h139q45 0 65 17t28 63l13 73h160l-18 -99
q-18 -100 -67.5 -142t-148.5 -42h-242q-99 0 -142.5 52.5t-25.5 151.5l7 41h-82l13 71h82l12 68h-82l13 71h82l11 61q18 100 67.5 142t148.5 42z" />
    <glyph glyph-name="trademark" unicode="&#x2122;" horiz-adv-x="573" 
d="M326 700l-11 -59h-78l-31 -174h-65l31 174h-78l11 59h221zM462 576l101 124h58l-42 -233h-61l23 128l-72 -88h-34l-42 88l-23 -128h-61l42 233h55z" />
    <glyph glyph-name="minus" unicode="&#x2212;" 
d="M59 280l24 140h628l-24 -140h-628z" />
    <glyph glyph-name="approxequal" unicode="&#x2248;" 
d="M443 609l71 -122q12 -17 34 -17h16q23 0 28 23l31 181h139l-38 -212q-9 -52 -34.5 -74t-77.5 -22h-100q-50 0 -72 12t-42 53l-70 122q-12 17 -34 17h-16q-23 0 -28 -23l-32 -181h-138l37 212q10 53 35.5 74.5t77.5 21.5h100q50 0 72 -12q22 -13 41 -53zM383 269l71 -122
q12 -17 34 -17h16q23 0 28 23l31 181h139l-38 -212q-9 -52 -34.5 -74t-77.5 -22h-100q-50 0 -72 12t-42 53l-70 122q-12 17 -34 17h-16q-23 0 -28 -23l-32 -181h-138l37 212q10 53 35.5 74.5t77.5 21.5h100q50 0 72 -12q22 -13 41 -53z" />
    <glyph glyph-name="notequal" unicode="&#x2260;" 
d="M739 546l-23 -134h-228l-73 -124h279l-23 -134h-334l-69 -118h-121l69 118h-173l23 134h228l72 124h-278l23 134h333l69 118h122l-69 -118h173z" />
    <glyph glyph-name="lessequal" unicode="&#x2264;" 
d="M107 518l657 166l-26 -144l-472 -89l437 -105l-23 -135l-595 186zM646 16h-628l22 121h628z" />
    <glyph glyph-name="greaterequal" unicode="&#x2265;" 
d="M113 549l23 135l595 -186l-22 -121l-657 -166l26 144l472 89zM646 16h-628l22 121h628z" />
    <glyph glyph-name="fi" unicode="&#xfb01;" horiz-adv-x="768" 
d="M314 467h194l-23 -127h-194l-60 -340h-162l60 340h-102l23 127h101l16 91q14 78 52.5 110t115.5 32h214l-23 -128h-141q-31 0 -44 -11.5t-18 -42.5zM600 582l21 118h165l-21 -118h-165zM662 0h-165l94 532h165z" />
    <glyph glyph-name="fl" unicode="&#xfb02;" horiz-adv-x="768" 
d="M314 467h194l-23 -127h-194l-60 -340h-162l60 340h-102l23 127h101l16 91q14 78 52.5 110t115.5 32h214l-23 -128h-141q-31 0 -44 -11.5t-18 -42.5zM498 0l124 700h164l-124 -700h-164z" />
    <glyph glyph-name="null" horiz-adv-x="0" 
 />
    <glyph glyph-name="A.ss01" horiz-adv-x="789" 
d="M310 700h302q99 0 142.5 -52.5t25.5 -151.5l-88 -496h-172l34 194h-346l-34 -194h-172l92 516q18 100 67.5 142t148.5 42zM258 474l-25 -140h346l24 134q8 45 -9 65.5t-62 20.5h-180q-45 0 -65.5 -17.5t-28.5 -62.5z" />
    <glyph glyph-name="Aacute.ss01" horiz-adv-x="789" 
d="M516 868h178l-144 -126h-138zM310 700h302q99 0 142.5 -52.5t25.5 -151.5l-88 -496h-172l34 194h-346l-34 -194h-172l92 516q18 100 67.5 142t148.5 42zM258 474l-25 -140h346l24 134q8 45 -9 65.5t-62 20.5h-180q-45 0 -65.5 -17.5t-28.5 -62.5z" />
    <glyph glyph-name="Abreve.ss01" horiz-adv-x="789" 
d="M601 742h-242q-76 0 -63 76l9 50h110l-6 -30q-4 -28 24 -28h115q27 0 31 28l6 30h110l-9 -54q-7 -38 -27 -55t-58 -17zM310 700h302q99 0 142.5 -52.5t25.5 -151.5l-88 -496h-172l34 194h-346l-34 -194h-172l92 516q18 100 67.5 142t148.5 42zM258 474l-25 -140h346
l24 134q8 45 -9 65.5t-62 20.5h-180q-45 0 -65.5 -17.5t-28.5 -62.5z" />
    <glyph glyph-name="Acircumflex.ss01" horiz-adv-x="789" 
d="M570 742l-74 62l-97 -62h-124l146 126h158l102 -126h-111zM310 700h302q99 0 142.5 -52.5t25.5 -151.5l-88 -496h-172l34 194h-346l-34 -194h-172l92 516q18 100 67.5 142t148.5 42zM258 474l-25 -140h346l24 134q8 45 -9 65.5t-62 20.5h-180q-45 0 -65.5 -17.5
t-28.5 -62.5z" />
    <glyph glyph-name="Adieresis.ss01" horiz-adv-x="789" 
d="M329 852h124l-17 -102h-124zM541 852h124l-17 -102h-124zM310 700h302q99 0 142.5 -52.5t25.5 -151.5l-88 -496h-172l34 194h-346l-34 -194h-172l92 516q18 100 67.5 142t148.5 42zM258 474l-25 -140h346l24 134q8 45 -9 65.5t-62 20.5h-180q-45 0 -65.5 -17.5
t-28.5 -62.5z" />
    <glyph glyph-name="Agrave.ss01" horiz-adv-x="789" 
d="M475 868l60 -126h-120l-100 126h160zM310 700h302q99 0 142.5 -52.5t25.5 -151.5l-88 -496h-172l34 194h-346l-34 -194h-172l92 516q18 100 67.5 142t148.5 42zM258 474l-25 -140h346l24 134q8 45 -9 65.5t-62 20.5h-180q-45 0 -65.5 -17.5t-28.5 -62.5z" />
    <glyph glyph-name="Amacron.ss01" horiz-adv-x="789" 
d="M293 846h408l-14 -80h-408zM310 700h302q99 0 142.5 -52.5t25.5 -151.5l-88 -496h-172l34 194h-346l-34 -194h-172l92 516q18 100 67.5 142t148.5 42zM258 474l-25 -140h346l24 134q8 45 -9 65.5t-62 20.5h-180q-45 0 -65.5 -17.5t-28.5 -62.5z" />
    <glyph glyph-name="Aogonek.ss01" horiz-adv-x="789" 
d="M562 -37l-2 -10q-3 -25 21 -25h124l-15 -88h-164q-42 0 -58 20.5t-11 63.5l2 16q4 31 16 48.5t45 38.5l5 3l29 164h-346l-34 -194h-172l92 516q18 100 67.5 142t148.5 42h302q99 0 142.5 -52.5t25.5 -151.5l-88 -496h-96l-12 -8q-20 -12 -22 -29zM258 474l-25 -140h346
l24 134q8 45 -9 65.5t-62 20.5h-180q-45 0 -65.5 -17.5t-28.5 -62.5z" />
    <glyph glyph-name="Aring.ss01" horiz-adv-x="789" 
d="M568 732h-179q-56 0 -47 57l5 26q4 30 18 41.5t44 11.5h178q57 0 47 -57l-4 -26q-5 -30 -19 -41.5t-43 -11.5zM408 807l-3 -13q-2 -11 1 -15.5t14 -4.5h127q12 0 16 3.5t6 15.5l2 13q2 11 -1 15.5t-14 4.5h-127q-11 0 -15 -3.5t-6 -15.5zM310 700h302q99 0 142.5 -52.5
t25.5 -151.5l-88 -496h-172l34 194h-346l-34 -194h-172l92 516q18 100 67.5 142t148.5 42zM258 474l-25 -140h346l24 134q8 45 -9 65.5t-62 20.5h-180q-45 0 -65.5 -17.5t-28.5 -62.5z" />
    <glyph glyph-name="Aringacute.ss01" horiz-adv-x="789" 
d="M611 700h1q99 0 142.5 -52.5t25.5 -151.5l-88 -496h-172l34 194h-346l-34 -194h-172l92 516q18 100 67.5 142t148.5 42h16q-1 3 1 21l5 26q5 30 18.5 41.5t43.5 11.5h37l54 68h182l-80 -69q41 -8 32 -56l-4 -26q-1 -8 -4 -17zM393 739l-3 -13q-2 -11 1 -15.5t14 -4.5h128
q11 0 15 3.5t6 15.5l2 13q2 12 -0.5 16t-14.5 4h-127q-11 0 -15 -3.5t-6 -15.5zM258 474l-25 -140h346l24 134q8 45 -9 65.5t-62 20.5h-180q-45 0 -65.5 -17.5t-28.5 -62.5z" />
    <glyph glyph-name="Atilde.ss01" horiz-adv-x="789" 
d="M385 798l-10 -56h-92l14 78q7 48 57 48h108q24 0 34.5 -5t22.5 -22l25 -33q8 -8 19 -8h17q11 0 14 12l9 56h92l-13 -78q-5 -26 -18.5 -37t-39.5 -11h-107q-23 0 -34.5 5.5t-22.5 21.5l-26 33q-8 8 -19 8h-17q-12 0 -13 -12zM310 700h302q99 0 142.5 -52.5t25.5 -151.5
l-88 -496h-172l34 194h-346l-34 -194h-172l92 516q18 100 67.5 142t148.5 42zM258 474l-25 -140h346l24 134q8 45 -9 65.5t-62 20.5h-180q-45 0 -65.5 -17.5t-28.5 -62.5z" />
    <glyph glyph-name="I.ss01" horiz-adv-x="576" 
d="M625 700l-24 -133h-172l-77 -434h173l-24 -133h-520l24 133h173l76 434h-173l24 133h520z" />
    <glyph glyph-name="Iacute.ss01" horiz-adv-x="576" 
d="M410 868h178l-144 -126h-138zM625 700l-24 -133h-172l-77 -434h173l-24 -133h-520l24 133h173l76 434h-173l24 133h520z" />
    <glyph glyph-name="Icircumflex.ss01" horiz-adv-x="576" 
d="M464 742l-74 62l-97 -62h-124l146 126h158l102 -126h-111zM625 700l-24 -133h-172l-77 -434h173l-24 -133h-520l24 133h173l76 434h-173l24 133h520z" />
    <glyph glyph-name="Idieresis.ss01" horiz-adv-x="576" 
d="M223 852h124l-17 -102h-124zM435 852h124l-17 -102h-124zM625 700l-24 -133h-172l-77 -434h173l-24 -133h-520l24 133h173l76 434h-173l24 133h520z" />
    <glyph glyph-name="Idotaccent.ss01" horiz-adv-x="576" 
d="M309 852h165l-17 -102h-165zM625 700l-24 -133h-172l-77 -434h173l-24 -133h-520l24 133h173l76 434h-173l24 133h520z" />
    <glyph glyph-name="Igrave.ss01" horiz-adv-x="576" 
d="M369 868l60 -126h-120l-100 126h160zM625 700l-24 -133h-172l-77 -434h173l-24 -133h-520l24 133h173l76 434h-173l24 133h520z" />
    <glyph glyph-name="Imacron.ss01" horiz-adv-x="576" 
d="M187 846h408l-14 -80h-408zM625 700l-24 -133h-172l-77 -434h173l-24 -133h-520l24 133h173l76 434h-173l24 133h520z" />
    <glyph glyph-name="Iogonek.ss01" horiz-adv-x="576" 
d="M625 700l-24 -133h-172l-77 -434h173l-24 -133h-122l-12 -8q-20 -12 -22 -29l-2 -10q-3 -25 21 -25h124l-15 -88h-164q-42 0 -58 20.5t-11 63.5l2 16q5 41 26 60h-287l24 133h173l76 434h-173l24 133h520z" />
    <glyph glyph-name="Itilde.ss01" horiz-adv-x="576" 
d="M279 798l-10 -56h-92l14 78q7 48 57 48h108q24 0 34.5 -5t22.5 -22l25 -33q8 -8 19 -8h17q11 0 14 12l9 56h92l-13 -78q-5 -26 -18.5 -37t-39.5 -11h-107q-23 0 -34.5 5.5t-22.5 21.5l-26 33q-8 8 -19 8h-17q-12 0 -13 -12zM625 700l-24 -133h-172l-77 -434h173l-24 -133
h-520l24 133h173l76 434h-173l24 133h520z" />
    <glyph glyph-name="R.ss01" horiz-adv-x="766" 
d="M133 700h503q75 0 108.5 -40.5t20.5 -117.5l-22 -126q-16 -98 -84 -121q56 -37 40 -126l-30 -169h-172l33 182q6 33 -7 47.5t-46 14.5h-253l-43 -244h-172zM536 572h-254l-36 -204h260q33 0 47 12.5t20 45.5l15 84q12 62 -52 62z" />
    <glyph glyph-name="Racute.ss01" horiz-adv-x="766" 
d="M505 868h178l-144 -126h-138zM133 700h503q75 0 108.5 -40.5t20.5 -117.5l-22 -126q-16 -98 -84 -121q56 -37 40 -126l-30 -169h-172l33 182q6 33 -7 47.5t-46 14.5h-253l-43 -244h-172zM536 572h-254l-36 -204h260q33 0 47 12.5t20 45.5l15 84q12 62 -52 62z" />
    <glyph glyph-name="Rcaron.ss01" horiz-adv-x="766" 
d="M692 868l-146 -126h-158l-102 126h111l74 -62l97 62h124zM133 700h503q75 0 108.5 -40.5t20.5 -117.5l-22 -126q-16 -98 -84 -121q56 -37 40 -126l-30 -169h-172l33 182q6 33 -7 47.5t-46 14.5h-253l-43 -244h-172zM536 572h-254l-36 -204h260q33 0 47 12.5t20 45.5
l15 84q12 62 -52 62z" />
    <glyph glyph-name="Rcommaaccent.ss01" horiz-adv-x="766" 
d="M133 700h503q75 0 108.5 -40.5t20.5 -117.5l-22 -126q-16 -98 -84 -121q56 -37 40 -126l-30 -169h-172l33 182q6 33 -7 47.5t-46 14.5h-253l-43 -244h-172zM536 572h-254l-36 -204h260q33 0 47 12.5t20 45.5l15 84q12 62 -52 62zM287 -126h-49l16 96h156l-6 -36
q-4 -30 -12 -47q-6 -12 -32 -43l-44 -58h-92z" />
    <glyph glyph-name="i.loclTRK" horiz-adv-x="282" 
d="M280 582h-165l17 102h165zM176 0h-164l94 532h165z" />
    <glyph glyph-name="uni0410.ss01" horiz-adv-x="789" 
d="M310 700h302q99 0 142.5 -52.5t25.5 -151.5l-88 -496h-172l34 194h-346l-34 -194h-172l92 516q18 100 67.5 142t148.5 42zM258 474l-25 -140h346l24 134q8 45 -9 65.5t-62 20.5h-180q-45 0 -65.5 -17.5t-28.5 -62.5z" />
    <glyph glyph-name="uni042F.ss01" horiz-adv-x="766" 
d="M274 700h512l-124 -700h-172l44 244h-258q-33 0 -48 -13t-20 -45l-34 -186h-172l32 179q20 106 97 128q-69 27 -51 131l20 114q13 78 54.5 113t119.5 35zM266 514l-15 -84q-6 -33 6 -47.5t45 -14.5h254l35 204h-258q-32 0 -47 -13t-20 -45z" />
    <glyph glyph-name="uni044F.ss01" horiz-adv-x="661" 
d="M198 532h455l-94 -532h-163l33 182h-204q-24 0 -34 -9t-15 -33l-25 -140h-156l26 145q14 82 75 95q-54 22 -40 103l14 80q11 59 40.5 84t87.5 25zM226 383l-11 -56q-4 -24 4 -33.5t32 -9.5h196l24 140h-198q-23 0 -33 -8.5t-14 -32.5z" />
    <glyph glyph-name="zero.tf" 
d="M465 0h-252q-99 0 -142.5 52.5t-25.5 151.5l56 312q18 100 67.5 142t148.5 42h252q99 0 142.5 -52.5t25.5 -151.5l-56 -312q-18 -100 -67.5 -142t-148.5 -42zM287 142h142q46 0 65.5 17t27.5 63l44 251q7 46 -9.5 65.5t-61.5 19.5h-143q-45 0 -65 -17t-27 -63l-44 -251
q-8 -46 8.5 -65.5t62.5 -19.5z" />
    <glyph glyph-name="one.tf" 
d="M556 700l-100 -566h231l-24 -134h-668l24 134h270l74 418l-245 -22l25 140l335 30h78z" />
    <glyph glyph-name="two.tf" 
d="M663 140l-25 -140h-629l41 237q14 75 49 104q36 30 118 42l288 41q31 4 43 15t19 41l6 27q14 59 -50 59h-188q-31 0 -43.5 -10.5t-17.5 -42.5l-5 -29h-160l12 76q13 77 50.5 108.5t115.5 31.5h325q77 0 111 -41t21 -120l-16 -98q-12 -74 -48 -104q-38 -30 -119 -42
l-289 -41q-33 -5 -45 -15.5t-17 -40.5l-10 -58h463z" />
    <glyph glyph-name="three.tf" 
d="M282 700h323q77 0 110.5 -41t20.5 -119l-11 -60q-9 -55 -30.5 -83.5t-61.5 -38.5q73 -31 57 -137l-14 -80q-13 -78 -50.5 -109.5t-115.5 -31.5h-343q-77 0 -110.5 41t-20.5 119l13 80h160l-8 -51q-5 -31 6 -45t42 -14h206q31 0 44.5 11t18.5 43l9 58q5 32 -6 45t-42 13
h-149l21 120h145q31 0 44 11.5t18 42.5l6 37q5 32 -6 45.5t-42 13.5h-186q-31 0 -44 -11t-18 -43l-8 -48h-160l16 91q13 78 50.5 109.5t115.5 31.5z" />
    <glyph glyph-name="four.tf" 
d="M597 274h135l-23 -127h-135l-26 -147h-160l26 147h-413l19 107l453 446h199zM487 557l-289 -283h238z" />
    <glyph glyph-name="five.tf" 
d="M509 0h-496l25 140h418q31 0 43 10.5t18 42.5l9 50q6 31 -5.5 45t-43.5 14h-410l70 398h606l-26 -140h-440l-20 -122h309q76 0 110 -41.5t21 -119.5l-23 -137q-13 -77 -50 -108.5t-115 -31.5z" />
    <glyph glyph-name="six.tf" 
d="M716 560h-366q-45 0 -64.5 -17t-27.5 -62l-13 -74q35 33 108 33h213q77 0 110.5 -41t20.5 -119l-24 -139q-13 -78 -50.5 -109.5t-115.5 -31.5h-340q-77 0 -110 41t-20 119l62 356q17 100 67 142t149 42h426zM477 308h-194q-29 0 -42.5 -9.5t-20.5 -34.5l-12 -72
q-5 -31 6 -44.5t43 -13.5h196q31 0 44 11t18 42l10 63q5 31 -6 44.5t-42 13.5z" />
    <glyph glyph-name="seven.tf" 
d="M93 554l26 146h668l-24 -132l-300 -273q-35 -32 -49 -61q-15 -28 -24 -80l-27 -154h-170l29 161q15 83 39 130q22 46 80 96l189 167h-437z" />
    <glyph glyph-name="eight.tf" 
d="M281 700h324q77 0 110.5 -41t20.5 -119l-11 -60q-9 -55 -30.5 -83.5t-61.5 -38.5q73 -31 57 -137l-14 -80q-13 -78 -50.5 -109.5t-115.5 -31.5h-344q-77 0 -110 41t-20 119l13 80q10 59 35 88.5t72 37.5q-69 32 -51 134l10 59q13 78 50.5 109.5t115.5 31.5zM275 520
l-9 -45q-6 -31 5.5 -44.5t43.5 -13.5h180q31 0 44.5 11t18.5 42l8 45q5 31 -6 44.5t-43 13.5h-181q-30 0 -42.5 -11t-18.5 -42zM516 180l12 66q5 31 -6 44.5t-42 13.5h-200q-31 0 -44 -11t-19 -43l-12 -65q-6 -31 5.5 -44.5t43.5 -13.5h200q31 0 44 11t18 42z" />
    <glyph glyph-name="nine.tf" 
d="M273 700h340q77 0 110.5 -41t20.5 -119l-63 -356q-17 -100 -67 -142t-149 -42h-427l25 140h366q44 0 64.5 17t28.5 62l12 69q-34 -34 -109 -34h-213q-77 0 -111 41t-20 119l26 145q14 78 51 109.5t115 31.5zM301 386h195q28 0 42.5 9.5t20.5 32.5l14 79q5 32 -6.5 45.5
t-42.5 13.5h-197q-31 0 -43.5 -11t-18.5 -43l-12 -67q-12 -59 48 -59z" />
    <glyph glyph-name="zero.subs" horiz-adv-x="477" 
d="M256 -100h-153q-125 0 -105 127l31 178q11 62 42.5 88.5t93.5 26.5h153q62 0 89 -32.5t15 -94.5l-32 -178q-11 -62 -42 -88.5t-92 -26.5zM156 3h75q22 0 31.5 8.5t13.5 30.5l22 135q4 22 -4 31t-29 9h-75q-22 0 -31.5 -8.5t-13.5 -30.5l-23 -135q-4 -22 4 -31t30 -9z" />
    <glyph glyph-name="one.subs" horiz-adv-x="441" 
d="M301 320l-57 -322h121l-18 -98h-384l18 98h142l38 214l-127 -12l18 102l193 18h56z" />
    <glyph glyph-name="two.subs" horiz-adv-x="477" 
d="M382 0l-18 -100h-388l25 143q8 47 30.5 66.5t74.5 26.5l164 21q24 1 30 26l3 20q2 14 -3 20t-20 6h-96q-15 0 -20.5 -5t-9.5 -21l-4 -20h-116l8 48q8 49 32 69t73 20h197q101 0 83 -102l-9 -53q-8 -47 -31 -66t-75 -25l-164 -21q-15 -2 -20.5 -7.5t-8.5 -20.5l-4 -25h267
z" />
    <glyph glyph-name="three.subs" horiz-adv-x="473" 
d="M142 320h196q99 0 83 -100l-6 -30q-11 -65 -58 -76q47 -18 37 -85l-7 -39q-9 -49 -33.5 -69.5t-73.5 -20.5h-208q-97 0 -82 100l9 52h116l-4 -30q-3 -16 2 -21.5t20 -5.5h107q16 0 22 5t9 20l4 26q3 15 -2.5 21t-21.5 6h-81l15 82h77q15 0 21 5.5t9 20.5l3 17
q3 16 -2 21.5t-21 5.5h-95q-15 0 -21 -5t-9 -21l-4 -26h-116l9 57q8 49 32.5 69.5t73.5 20.5z" />
    <glyph glyph-name="four.subs" horiz-adv-x="495" 
d="M353 71h79l-17 -91h-78l-14 -80h-116l14 80h-244l14 77l266 263h140zM261 209l-139 -138h115z" />
    <glyph glyph-name="five.subs" horiz-adv-x="456" 
d="M263 -100h-287l18 100h229q16 0 21.5 4.5t7.5 18.5l5 24q2 15 -3 20.5t-21 5.5h-226l43 247h357l-18 -100h-235l-10 -54h154q99 0 82 -101l-13 -76q-8 -49 -32 -69t-72 -20z" />
    <glyph glyph-name="six.subs" horiz-adv-x="474" 
d="M408 220h-220q-21 0 -30 -8t-13 -30l-6 -36q19 18 63 18h112q99 0 84 -100l-13 -75q-7 -48 -31.5 -68.5t-73.5 -20.5h-206q-98 0 -82 100l36 205q10 62 41 88.5t94 26.5h262zM253 79h-99q-27 0 -31 -22l-6 -35q-3 -15 2.5 -21t20.5 -6h100q15 0 21.5 5.5t8.5 20.5l5 29
q6 29 -22 29z" />
    <glyph glyph-name="seven.subs" horiz-adv-x="450" 
d="M17 213l20 107h395l-18 -97l-169 -159q-29 -29 -38 -75l-15 -89h-123l16 94q11 53 24 80q13 25 49 59l88 80h-229z" />
    <glyph glyph-name="eight.subs" horiz-adv-x="473" 
d="M142 320h197q97 0 82 -100l-5 -32q-10 -64 -57 -75q46 -21 34 -85l-6 -39q-8 -49 -32 -69t-73 -20h-209q-99 0 -82 101l7 39q6 36 21 54.5t44 23.5q-42 19 -31 82l5 31q8 50 32 69.5t73 19.5zM153 203l-4 -23q-2 -15 3 -21t21 -6h89q16 0 22.5 5.5t8.5 20.5l4 21
q6 28 -23 28h-92q-15 0 -21 -5.5t-8 -19.5zM271 17l5 32q3 15 -2.5 21t-20.5 6h-103q-15 0 -21.5 -5.5t-8.5 -20.5l-5 -30q-2 -15 3 -21.5t20 -6.5h103q15 0 21.5 5.5t8.5 19.5z" />
    <glyph glyph-name="nine.subs" horiz-adv-x="474" 
d="M137 320h207q48 0 69.5 -25.5t12.5 -74.5l-36 -205q-10 -62 -41 -88.5t-94 -26.5h-262l17 99h219q22 0 31 8t13 30l6 34q-19 -19 -63 -19h-115q-100 0 -82 101l14 78q9 49 32 69t72 20zM166 138h99q25 0 29 16l7 42q6 28 -24 28h-99q-15 0 -21.5 -5.5t-9.5 -21.5l-5 -31
q-4 -28 24 -28z" />
    <glyph glyph-name="zero.dnom" horiz-adv-x="477" 
d="M274 0h-153q-125 0 -105 127l31 178q11 62 42.5 88.5t93.5 26.5h153q62 0 89 -32.5t15 -94.5l-32 -178q-11 -62 -42 -88.5t-92 -26.5zM174 103h75q22 0 31.5 8.5t13.5 30.5l22 135q4 22 -4 31t-29 9h-75q-22 0 -31.5 -8.5t-13.5 -30.5l-23 -135q-4 -22 4 -31t30 -9z" />
    <glyph glyph-name="one.dnom" horiz-adv-x="441" 
d="M319 420l-57 -322h121l-18 -98h-384l18 98h142l38 214l-127 -12l18 102l193 18h56z" />
    <glyph glyph-name="two.dnom" horiz-adv-x="477" 
d="M400 100l-18 -100h-388l25 143q8 47 30.5 66.5t74.5 26.5l164 21q24 1 30 26l3 20q2 14 -3 20t-20 6h-96q-15 0 -20.5 -5t-9.5 -21l-4 -20h-116l8 48q8 49 32 69t73 20h197q101 0 83 -102l-9 -53q-8 -47 -31 -66t-75 -25l-164 -21q-15 -2 -20.5 -7.5t-8.5 -20.5l-4 -25
h267z" />
    <glyph glyph-name="three.dnom" horiz-adv-x="473" 
d="M160 420h196q99 0 83 -100l-6 -30q-11 -65 -58 -76q47 -18 37 -85l-7 -39q-9 -49 -33.5 -69.5t-73.5 -20.5h-208q-97 0 -82 100l9 52h116l-4 -30q-3 -16 2 -21.5t20 -5.5h107q16 0 22 5t9 20l4 26q3 15 -2.5 21t-21.5 6h-81l15 82h77q15 0 21 5.5t9 20.5l3 17
q3 16 -2 21.5t-21 5.5h-95q-15 0 -21 -5t-9 -21l-4 -26h-116l9 57q8 49 32.5 69.5t73.5 20.5z" />
    <glyph glyph-name="four.dnom" horiz-adv-x="495" 
d="M371 171h79l-17 -91h-78l-14 -80h-116l14 80h-244l14 77l266 263h140zM279 309l-139 -138h115z" />
    <glyph glyph-name="five.dnom" horiz-adv-x="456" 
d="M281 0h-287l18 100h229q16 0 21.5 4.5t7.5 18.5l5 24q2 15 -3 20.5t-21 5.5h-226l43 247h357l-18 -100h-235l-10 -54h154q99 0 82 -101l-13 -76q-8 -49 -32 -69t-72 -20z" />
    <glyph glyph-name="six.dnom" horiz-adv-x="474" 
d="M426 320h-220q-21 0 -30 -8t-13 -30l-6 -36q19 18 63 18h112q99 0 84 -100l-13 -75q-7 -48 -31.5 -68.5t-73.5 -20.5h-206q-98 0 -82 100l36 205q10 62 41 88.5t94 26.5h262zM271 179h-99q-27 0 -31 -22l-6 -35q-3 -15 2.5 -21t20.5 -6h100q15 0 21.5 5.5t8.5 20.5l5 29
q6 29 -22 29z" />
    <glyph glyph-name="seven.dnom" horiz-adv-x="450" 
d="M35 313l20 107h395l-18 -97l-169 -159q-29 -29 -38 -75l-15 -89h-123l16 94q11 53 24 80q13 25 49 59l88 80h-229z" />
    <glyph glyph-name="eight.dnom" horiz-adv-x="473" 
d="M160 420h197q97 0 82 -100l-5 -32q-10 -64 -57 -75q46 -21 34 -85l-6 -39q-8 -49 -32 -69t-73 -20h-209q-99 0 -82 101l7 39q6 36 21 54.5t44 23.5q-42 19 -31 82l5 31q8 50 32 69.5t73 19.5zM171 303l-4 -23q-2 -15 3 -21t21 -6h89q16 0 22.5 5.5t8.5 20.5l4 21
q6 28 -23 28h-92q-15 0 -21 -5.5t-8 -19.5zM289 117l5 32q3 15 -2.5 21t-20.5 6h-103q-15 0 -21.5 -5.5t-8.5 -20.5l-5 -30q-2 -15 3 -21.5t20 -6.5h103q15 0 21.5 5.5t8.5 19.5z" />
    <glyph glyph-name="nine.dnom" horiz-adv-x="474" 
d="M155 420h207q48 0 69.5 -25.5t12.5 -74.5l-36 -205q-10 -62 -41 -88.5t-94 -26.5h-262l17 99h219q22 0 31 8t13 30l6 34q-19 -19 -63 -19h-115q-100 0 -82 101l14 78q9 49 32 69t72 20zM184 238h99q25 0 29 16l7 42q6 28 -24 28h-99q-15 0 -21.5 -5.5t-9.5 -21.5l-5 -31
q-4 -28 24 -28z" />
    <glyph glyph-name="zero.numr" horiz-adv-x="477" 
d="M323 280h-153q-125 0 -105 127l31 178q11 62 42.5 88.5t93.5 26.5h153q62 0 89 -32.5t15 -94.5l-32 -178q-11 -62 -42 -88.5t-92 -26.5zM223 383h75q22 0 31.5 8.5t13.5 30.5l22 135q4 22 -4 31t-29 9h-75q-22 0 -31.5 -8.5t-13.5 -30.5l-23 -135q-4 -22 4 -31t30 -9z
" />
    <glyph glyph-name="one.numr" horiz-adv-x="441" 
d="M368 700l-57 -322h121l-18 -98h-384l18 98h142l38 214l-127 -12l18 102l193 18h56z" />
    <glyph glyph-name="two.numr" horiz-adv-x="477" 
d="M449 380l-18 -100h-388l25 143q8 47 30.5 66.5t74.5 26.5l164 21q24 1 30 26l3 20q2 14 -3 20t-20 6h-96q-15 0 -20.5 -5t-9.5 -21l-4 -20h-116l8 48q8 49 32 69t73 20h197q101 0 83 -102l-9 -53q-8 -47 -31 -66t-75 -25l-164 -21q-15 -2 -20.5 -7.5t-8.5 -20.5l-4 -25
h267z" />
    <glyph glyph-name="three.numr" horiz-adv-x="473" 
d="M209 700h196q99 0 83 -100l-6 -30q-11 -65 -58 -76q47 -18 37 -85l-7 -39q-9 -49 -33.5 -69.5t-73.5 -20.5h-208q-97 0 -82 100l9 52h116l-4 -30q-3 -16 2 -21.5t20 -5.5h107q16 0 22 5t9 20l4 26q3 15 -2.5 21t-21.5 6h-81l15 82h77q15 0 21 5.5t9 20.5l3 17
q3 16 -2 21.5t-21 5.5h-95q-15 0 -21 -5t-9 -21l-4 -26h-116l9 57q8 49 32.5 69.5t73.5 20.5z" />
    <glyph glyph-name="four.numr" horiz-adv-x="495" 
d="M420 451h79l-17 -91h-78l-14 -80h-116l14 80h-244l14 77l266 263h140zM328 589l-139 -138h115z" />
    <glyph glyph-name="five.numr" horiz-adv-x="456" 
d="M330 280h-287l18 100h229q16 0 21.5 4.5t7.5 18.5l5 24q2 15 -3 20.5t-21 5.5h-226l43 247h357l-18 -100h-235l-10 -54h154q99 0 82 -101l-13 -76q-8 -49 -32 -69t-72 -20z" />
    <glyph glyph-name="six.numr" horiz-adv-x="474" 
d="M475 600h-220q-21 0 -30 -8t-13 -30l-6 -36q20 18 63 18h112q99 0 84 -100l-13 -75q-7 -48 -31.5 -68.5t-73.5 -20.5h-206q-98 0 -82 100l36 205q10 62 41 88.5t94 26.5h262zM320 459h-99q-25 0 -31 -22l-6 -35q-3 -15 2.5 -21t20.5 -6h100q15 0 21.5 5.5t8.5 20.5l5 29
q6 29 -22 29z" />
    <glyph glyph-name="seven.numr" horiz-adv-x="450" 
d="M84 593l20 107h395l-18 -97l-169 -159q-29 -29 -38 -75l-15 -89h-123l16 94q11 53 24 80q13 25 49 59l88 80h-229z" />
    <glyph glyph-name="eight.numr" horiz-adv-x="473" 
d="M209 700h197q97 0 82 -100l-5 -32q-11 -64 -57 -75q46 -21 34 -85l-6 -39q-8 -49 -32 -69t-73 -20h-209q-99 0 -82 101l7 39q6 36 21 54.5t44 23.5q-42 19 -31 82l5 31q8 50 32 69.5t73 19.5zM220 583l-4 -23q-2 -15 3 -21t21 -6h89q16 0 22.5 5.5t8.5 20.5l4 21
q6 28 -23 28h-92q-15 0 -21 -5.5t-8 -19.5zM338 397l5 32q3 15 -2.5 21t-20.5 6h-103q-15 0 -21.5 -5.5t-8.5 -20.5l-5 -30q-2 -15 3 -21.5t20 -6.5h103q15 0 21.5 5.5t8.5 19.5z" />
    <glyph glyph-name="nine.numr" horiz-adv-x="474" 
d="M204 700h207q48 0 69.5 -25.5t12.5 -74.5l-36 -205q-10 -62 -41 -88.5t-94 -26.5h-262l17 99h219q22 0 31 8t13 30l6 34q-19 -19 -63 -19h-115q-100 0 -82 101l14 78q9 49 32 69t72 20zM233 518h99q25 0 29 16l7 42q6 28 -24 28h-99q-15 0 -21.5 -5.5t-9.5 -21.5l-5 -31
q-4 -28 24 -28z" />
    <glyph glyph-name="zero.sups" horiz-adv-x="477" 
d="M341 380h-153q-125 0 -105 127l31 178q11 62 42.5 88.5t93.5 26.5h153q62 0 89 -32.5t15 -94.5l-32 -178q-11 -62 -42 -88.5t-92 -26.5zM241 483h75q22 0 31.5 8.5t13.5 30.5l22 135q4 22 -4 31t-29 9h-75q-22 0 -31.5 -8.5t-13.5 -30.5l-23 -135q-4 -22 4 -31t30 -9z
" />
    <glyph glyph-name="one.sups" horiz-adv-x="441" 
d="M386 800l-57 -322h121l-18 -98h-384l18 98h142l38 214l-127 -12l18 102l193 18h56z" />
    <glyph glyph-name="two.sups" horiz-adv-x="477" 
d="M467 480l-18 -100h-388l25 143q8 47 30.5 66.5t74.5 26.5l164 21q24 1 30 26l3 20q2 14 -3 20t-20 6h-96q-15 0 -20.5 -5t-9.5 -21l-4 -20h-116l8 48q8 49 32 69t73 20h197q101 0 83 -102l-9 -53q-8 -47 -31 -66t-75 -25l-164 -21q-15 -2 -20.5 -7.5t-8.5 -20.5l-4 -25
h267z" />
    <glyph glyph-name="three.sups" horiz-adv-x="473" 
d="M227 800h196q99 0 83 -100l-6 -30q-11 -65 -58 -76q47 -18 37 -85l-7 -39q-9 -49 -33.5 -69.5t-73.5 -20.5h-208q-97 0 -82 100l9 52h116l-4 -30q-3 -16 2 -21.5t20 -5.5h107q16 0 22 5t9 20l4 26q3 15 -2.5 21t-21.5 6h-81l15 82h77q15 0 21 5.5t9 20.5l3 17
q3 16 -2 21.5t-21 5.5h-95q-15 0 -21 -5t-9 -21l-4 -26h-116l9 57q8 49 32.5 69.5t73.5 20.5z" />
    <glyph glyph-name="four.sups" horiz-adv-x="495" 
d="M438 551h79l-17 -91h-78l-14 -80h-116l14 80h-244l14 77l266 263h140zM346 689l-139 -138h115z" />
    <glyph glyph-name="five.sups" horiz-adv-x="456" 
d="M348 380h-287l18 100h229q16 0 21.5 4.5t7.5 18.5l5 24q2 15 -3 20.5t-21 5.5h-226l43 247h357l-18 -100h-235l-10 -54h154q99 0 82 -101l-13 -76q-8 -49 -32 -69t-72 -20z" />
    <glyph glyph-name="six.sups" horiz-adv-x="474" 
d="M493 700h-220q-21 0 -30 -8t-13 -30l-6 -36q20 18 63 18h112q99 0 84 -100l-13 -75q-7 -48 -31.5 -68.5t-73.5 -20.5h-206q-98 0 -82 100l36 205q10 62 41 88.5t94 26.5h262zM338 559h-99q-25 0 -31 -22l-6 -35q-3 -15 2.5 -21t20.5 -6h100q15 0 21.5 5.5t8.5 20.5l5 29
q6 29 -22 29z" />
    <glyph glyph-name="seven.sups" horiz-adv-x="450" 
d="M102 693l20 107h395l-18 -97l-169 -159q-29 -29 -38 -75l-15 -89h-123l16 94q11 53 24 80q13 25 49 59l88 80h-229z" />
    <glyph glyph-name="eight.sups" horiz-adv-x="473" 
d="M227 800h197q97 0 82 -100l-5 -32q-11 -64 -57 -75q46 -21 34 -85l-6 -39q-8 -49 -32 -69t-73 -20h-209q-99 0 -82 101l7 39q6 36 21 54.5t44 23.5q-42 19 -31 82l5 31q8 50 32 69.5t73 19.5zM238 683l-4 -23q-2 -15 3 -21t21 -6h89q16 0 22.5 5.5t8.5 20.5l4 21
q6 28 -23 28h-92q-15 0 -21 -5.5t-8 -19.5zM356 497l5 32q3 15 -2.5 21t-20.5 6h-103q-15 0 -21.5 -5.5t-8.5 -20.5l-5 -30q-2 -15 3 -21.5t20 -6.5h103q15 0 21.5 5.5t8.5 19.5z" />
    <glyph glyph-name="nine.sups" horiz-adv-x="474" 
d="M222 800h207q48 0 69.5 -25.5t12.5 -74.5l-36 -205q-10 -62 -41 -88.5t-94 -26.5h-262l17 99h219q22 0 31 8t13 30l6 34q-19 -19 -63 -19h-115q-100 0 -82 101l14 78q9 49 32 69t72 20zM251 618h99q25 0 29 16l7 42q6 28 -24 28h-99q-15 0 -21.5 -5.5t-9.5 -21.5l-5 -31
q-4 -28 24 -28z" />
    <glyph glyph-name="numbersign.numr" horiz-adv-x="477" 
d="M488 606l-13 -74h-62l-14 -84h64l-14 -74h-61l-15 -94h-88l15 94h-82l-15 -94h-87l15 94h-64l14 74h61l14 84h-63l13 74h61l15 94h87l-15 -94h82l15 94h88l-15 -94h64zM229 448h82l14 84h-82z" />
    <glyph glyph-name="numbersign.tf" 
d="M734 530l-18 -102h-113l-24 -156h113l-18 -102h-111l-27 -170h-123l27 170h-155l-27 -170h-122l27 170h-115l18 102h113l24 156h-112l18 102h110l27 170h122l-27 -170h155l27 170h123l-27 -170h115zM301 272h155l24 156h-155z" />
    <glyph glyph-name="cent.numr" horiz-adv-x="477" 
d="M355 700h43q114 0 95 -115l-6 -31h-116l4 16q7 34 -29 34h-94q-18 0 -25.5 -6.5t-10.5 -25.5l-16 -87q-4 -19 2.5 -26.5t25.5 -7.5h94q19 0 26 6.5t10 25.5l4 21h116l-8 -46q-10 -58 -36.5 -80.5t-84.5 -22.5h-55l-11 -60h-77l10 60h-45q-116 0 -95 115l24 126
q11 59 37 81.5t84 22.5h56l11 60h78z" />
    <glyph glyph-name="dollar.numr" horiz-adv-x="477" 
d="M353 700h54q99 0 82 -99l-5 -29h-115l2 12q2 15 -3 21t-21 6h-95q-15 0 -21.5 -5t-8.5 -21l-2 -9q-3 -15 2 -21t20 -7l144 -15q51 -5 71 -29t11 -71l-11 -63q-9 -49 -33.5 -69.5t-72.5 -20.5h-72l-10 -60h-77l10 60h-61q-49 0 -70 25.5t-13 73.5l7 35h116l-4 -18
q-2 -15 3 -21t20 -6h110q15 0 21 5.5t9 20.5l4 17q3 14 -2.5 20t-21.5 8l-142 15q-51 5 -71.5 28t-11.5 71l9 56q9 49 33.5 69.5t72.5 20.5h66l11 60h77z" />
    <glyph glyph-name="Euro.numr" horiz-adv-x="489" 
d="M251 700h147q61 0 88.5 -32.5t16.5 -94.5l-9 -47h-116l7 40q3 22 -5 31t-30 9h-73q-21 0 -30 -8t-14 -30l-2 -13h109l-10 -48h-108l-6 -34h109l-10 -48h-107l-2 -11q-4 -22 4 -31t29 -9h75q22 0 31 8t13 31l8 45h116l-11 -63q-11 -62 -42.5 -88.5t-93.5 -26.5h-147
q-61 0 -88 32.5t-17 93.5l3 19h-44l8 48h45l6 34h-45l9 48h45l5 30q11 62 42.5 88.5t93.5 26.5z" />
    <glyph glyph-name="florin.numr" horiz-adv-x="429" 
d="M452 597h-65q-21 0 -31.5 -8.5t-16.5 -30.5l-18 -65h101l-14 -78h-109l-31 -110q-18 -64 -51.5 -92.5t-92.5 -28.5h-104l18 103h66q21 0 31 8.5t17 31.5l25 88h-105l16 78h111l24 86q18 65 51 93t93 28h103z" />
    <glyph glyph-name="sterling.numr" horiz-adv-x="489" 
d="M255 700h141q62 0 88.5 -33t15.5 -94l-6 -37h-116l5 30q7 40 -33 40h-73q-19 0 -28 -8.5t-13 -30.5l-7 -39h104l-11 -65h-104l-14 -84h121q29 0 30 26l6 39h117l-13 -73q-8 -49 -33 -70t-74 -21h-337l18 99h44l15 84h-51l12 65h51l10 57q11 62 42 88.5t93 26.5z" />
    <glyph glyph-name="yen.numr" horiz-adv-x="477" 
d="M394 700h137l-171 -223h113l-9 -54h-137l-7 -37h137l-9 -54h-138l-9 -52h-121l9 52h-137l10 54h137l7 37h-138l10 54h113l-92 223h130l55 -158z" />
    <glyph glyph-name="cent.tf" 
d="M509 700h80q183 0 152 -184l-9 -47h-160l5 27q7 40 -7 56t-54 16h-175q-38 0 -53.5 -13.5t-23.5 -53.5l-30 -167q-7 -40 7 -56t54 -16h175q39 0 54.5 14t22.5 53l8 39h160l-14 -73q-17 -94 -58 -129q-43 -36 -135 -36h-100l-18 -100h-107l18 100h-85q-184 0 -151 184
l39 221q16 92 59 129q42 36 134 36h105l17 100h107z" />
    <glyph glyph-name="dollar.tf" 
d="M504 700h100q155 0 129 -158l-7 -46h-160l2 15q4 31 -7.5 43.5t-42.5 12.5h-186q-30 0 -43.5 -12.5t-18.5 -43.5l-2 -13q-4 -31 3.5 -42t34.5 -14l261 -28q79 -9 111 -46t19 -112l-20 -114q-13 -78 -51 -110t-116 -32h-128l-18 -100h-107l18 100h-113q-155 0 -129 158
l9 58h160l-4 -27q-4 -31 7 -43.5t43 -12.5h210q31 0 44 12t18 44l5 31q5 31 -2.5 43t-35.5 15l-261 28q-80 9 -111.5 45t-18.5 111l17 96q13 78 51 110t116 32h117l18 100h107z" />
    <glyph glyph-name="Euro.tf" 
d="M349 700h232q99 0 142 -52.5t26 -151.5l-13 -72h-160l10 61q8 46 -8.5 65.5t-62.5 19.5h-128q-46 0 -65.5 -17t-27.5 -63l-6 -35h204l-13 -71h-204l-12 -68h204l-13 -71h-204l-5 -30q-7 -46 9.5 -65.5t61.5 -19.5h129q45 0 65 17t28 63l13 73h160l-18 -99
q-18 -100 -67.5 -142t-148.5 -42h-232q-99 0 -142.5 52.5t-25.5 151.5l7 41h-72l13 71h72l12 68h-72l13 71h72l11 61q18 100 67.5 142t148.5 42z" />
    <glyph glyph-name="florin.tf" 
d="M741 558h-121q-44 0 -65.5 -18t-35.5 -64l-37 -131h202l-20 -110h-213l-57 -201q-28 -104 -80 -149t-148 -45h-179l25 142h121q45 0 66.5 18t34.5 64l48 171h-206l20 110h217l46 161q30 104 81.5 149t147.5 45h179z" />
    <glyph glyph-name="sterling.tf" 
d="M347 700h222q99 0 142.5 -52.5t25.5 -151.5l-10 -56h-160l8 45q8 45 -9 65t-62 20h-125q-42 0 -61 -17.5t-26 -62.5l-15 -86h194l-17 -94h-194l-31 -174h231q31 0 44.5 11.5t18.5 42.5l12 66h160l-20 -112q-13 -77 -52.5 -110.5t-117.5 -33.5h-538l25 136h71l31 174h-82
l17 94h82l20 112q18 100 67.5 142t148.5 42z" />
    <glyph glyph-name="yen.tf" 
d="M618 700h189l-303 -380h206l-14 -78h-242l-13 -74h241l-13 -78h-241l-16 -90h-166l16 90h-241l13 78h241l13 74h-240l14 78h204l-167 380h179l117 -298z" />
    <glyph glyph-name="percent.numr" horiz-adv-x="542" 
d="M222 503h-81q-64 0 -54 67l12 71q5 32 21.5 45.5t48.5 13.5h81q65 0 55 -67l-12 -70q-6 -32 -22.5 -46t-48.5 -14zM151 280h-67l384 420h68zM170 561h41q16 0 20 18l8 45q5 18 -16 18h-41q-20 0 -21 -19l-8 -44q-5 -18 17 -18zM450 280h-81q-66 0 -54 67l12 70
q5 32 21.5 46t48.5 14h81q65 0 55 -67l-13 -71q-5 -32 -21.5 -45.5t-48.5 -13.5zM398 338h40q11 0 15 4t6 14l8 44q4 19 -16 19h-41q-20 0 -21 -19l-9 -44q-3 -18 18 -18z" />
    <glyph glyph-name="perthousand.numr" horiz-adv-x="776" 
d="M222 503h-81q-64 0 -54 67l12 71q5 32 21.5 45.5t48.5 13.5h81q65 0 55 -67l-12 -70q-6 -32 -22.5 -46t-48.5 -14zM151 280h-67l384 420h68zM170 561h41q16 0 20 18l8 45q5 18 -16 18h-41q-20 0 -21 -19l-8 -44q-5 -18 17 -18zM450 280h-81q-66 0 -54 67l12 70
q5 32 21.5 46t48.5 14h81q65 0 55 -67l-13 -71q-5 -32 -21.5 -45.5t-48.5 -13.5zM684 280h-81q-66 0 -54 67l12 70q5 32 21.5 46t48.5 14h81q65 0 55 -67l-13 -71q-5 -32 -21.5 -45.5t-48.5 -13.5zM398 338h40q11 0 15 4t6 14l8 44q4 19 -16 19h-41q-20 0 -21 -19l-9 -44
q-3 -18 18 -18zM632 338h40q11 0 15 4t6 14l8 44q4 19 -16 19h-41q-20 0 -21 -19l-9 -44q-3 -18 18 -18z" />
    <glyph glyph-name="percent.tf" horiz-adv-x="860" 
d="M168 0h-98l652 700h98zM436 589l-20 -116q-9 -53 -36.5 -76t-80.5 -23h-132q-53 0 -76.5 29t-13.5 82l20 116q9 54 36 76.5t81 22.5h132q53 0 76.5 -28.5t13.5 -82.5zM206 456h76q23 0 33.5 9t14.5 31l14 79q4 23 -4.5 33t-32.5 10h-76q-23 0 -33.5 -8.5t-14.5 -31.5
l-14 -79q-7 -43 37 -43zM676 0h-132q-53 0 -77 29t-14 82l20 116q10 54 37 76.5t80 22.5h132q53 0 76.5 -28.5t14.5 -82.5l-21 -116q-9 -53 -36 -76t-80 -23zM582 82h76q24 0 34 8.5t14 31.5l14 79q4 23 -4.5 33t-31.5 10h-77q-23 0 -33 -8.5t-14 -31.5l-15 -79
q-7 -43 37 -43z" />
    <glyph glyph-name="perthousand.tf" horiz-adv-x="1250" 
d="M168 0h-98l652 700h98zM436 589l-20 -116q-9 -53 -36.5 -76t-80.5 -23h-132q-53 0 -76.5 29t-13.5 82l20 116q9 54 36 76.5t81 22.5h132q53 0 76.5 -28.5t13.5 -82.5zM206 456h76q23 0 33.5 9t14.5 31l14 79q4 23 -4.5 33t-32.5 10h-76q-23 0 -33.5 -8.5t-14.5 -31.5
l-14 -79q-7 -43 37 -43zM676 0h-132q-53 0 -77 29t-14 82l20 116q10 54 37 76.5t80 22.5h132q53 0 76.5 -28.5t14.5 -82.5l-21 -116q-9 -53 -36 -76t-80 -23zM1066 0h-132q-53 0 -77 29t-14 82l20 116q10 54 37 76.5t80 22.5h132q53 0 76.5 -28.5t14.5 -82.5l-21 -116
q-9 -53 -36 -76t-80 -23zM582 82h76q24 0 34 8.5t14 31.5l14 79q4 23 -4.5 33t-31.5 10h-77q-23 0 -33 -8.5t-14 -31.5l-15 -79q-7 -43 37 -43zM972 82h76q24 0 34 8.5t14 31.5l14 79q4 23 -4.5 33t-31.5 10h-77q-23 0 -33 -8.5t-14 -31.5l-15 -79q-7 -43 37 -43z" />
    <glyph glyph-name="brevecombcy" horiz-adv-x="0" 
d="M-73 574h-242q-76 0 -63 76l9 50h110l-6 -30q-4 -28 24 -28h115q27 0 31 28l6 30h110l-9 -54q-7 -38 -27 -55t-58 -17z" />
    <glyph glyph-name="ringacutecomb" horiz-adv-x="384" 
d="M438 700l-80 -69q41 -8 32 -56l-4 -26q-5 -30 -18.5 -41.5t-43.5 -11.5h-178q-57 0 -48 57l5 26q5 30 18.5 41.5t43.5 11.5h37l54 68h182zM325 557l2 13q2 12 -0.5 16t-14.5 4h-127q-11 0 -15 -3.5t-6 -15.5l-3 -13q-2 -11 1 -15.5t14 -4.5h128q11 0 15 3.5t6 15.5z" />
    </font>
</defs>
</svg>
