<?xml version="1.0" standalone="no"?>
<!DOCTYPE svg PUBLIC "-//W3C//DTD SVG 1.1//EN" "http://www.w3.org/Graphics/SVG/1.1/DTD/svg11.dtd" >
<svg xmlns="http://www.w3.org/2000/svg" xmlns:xlink="http://www.w3.org/1999/xlink" version="1.1">
<metadata>
Created by FontForge 20170731 at Thu Jun 30 17:45:14 2016
 By Aleksey,,,
@ 2016 Richard Miller
</metadata>
<defs>
<font id="TacticSansExd-BlkIt" horiz-adv-x="864" >
  <font-face 
    font-family="TacticSansExd-BlkIt"
    font-weight="400"
    font-style="italic"
    font-stretch="expanded"
    units-per-em="1000"
    panose-1="0 0 9 5 0 0 0 0 0 0"
    ascent="814"
    descent="-186"
    x-height="536"
    cap-height="700"
    bbox="-908 -232 1567 864"
    underline-thickness="50"
    underline-position="-200"
    slope="-10"
    unicode-range="U+0020-FB02"
  />
<missing-glyph horiz-adv-x="720" 
d="M-38 0l124 700h700l-124 -700h-700zM273 350l-199 -169l88 -107l199 169l139 -169l126 107l-139 169l199 169l-88 107l-199 -169l-139 169l-126 -107z" />
    <glyph glyph-name="ellipsis" unicode="&#x2e;&#x2e;&#x2e;" horiz-adv-x="1110" 
d="M242 0h-242l41 226h241zM628 0h-242l41 226h241zM1014 0h-242l41 226h241z" />
    <glyph glyph-name="blackbox.liga" unicode="[&#x2b;]" horiz-adv-x="966" 
d="M142 0v700h700v-700h-700z" />
    <glyph glyph-name="checkbox.liga" unicode="[]" horiz-adv-x="966" 
d="M142 0v700h700v-700h-700zM743 604h-502v-508h502v508z" />
    <glyph glyph-name="checkround.liga" unicode="&#x28;&#x29;" horiz-adv-x="911" 
d="M720 95q-105 -105 -256 -105q-152 0 -255 105q-105 103 -105 255q0 151 105 256q104 104 255 104q150 0 256 -104q104 -106 104 -256q0 -151 -104 -255zM279 163q75 -77 185 -77q109 0 186 77q75 76 75 187t-75 188q-76 76 -186 76t-185 -76q-76 -76 -76 -188
q0 -111 76 -187z" />
    <glyph glyph-name="checkstar.liga" unicode="&#x7b;&#x7d;" horiz-adv-x="939" 
d="M395 437l92 283l92 -283h297l-240 -174l91 -283l-240 175l-240 -175l91 283l-240 174h297zM526 364l-39 120l-40 -120h-125l102 -73l-39 -120l102 74l101 -74l-39 120l102 73h-125z" />
    <glyph glyph-name="blackround.liga" unicode="&#x28;&#x2b;&#x29;" horiz-adv-x="911" 
d="M720 95q-105 -105 -256 -105q-152 0 -255 105q-105 103 -105 255q0 151 105 256q104 104 255 104q150 0 256 -104q104 -106 104 -256q0 -151 -104 -255z" />
    <glyph glyph-name="filledstar.liga" unicode="&#x7b;&#x2b;&#x7d;" horiz-adv-x="939" 
d="M395 437l92 283l92 -283h297l-240 -174l91 -283l-240 175l-240 -175l91 283l-240 174h297z" />
    <glyph glyph-name="ff.liga" unicode="ff" horiz-adv-x="1108" 
d="M1146 552h-201q-25 0 -35 -9t-14 -34l-7 -39h243l-29 -158h-242l-55 -312h-210l56 312h-287l-55 -312h-210l56 312h-137l29 158h136l14 80q14 82 54.5 116t121.5 34h270l-26 -148h-169q-25 0 -35 -9t-14 -34l-7 -39h287l14 80q14 82 54.5 116t121.5 34h302z" />
    <glyph glyph-name=".notdef" horiz-adv-x="720" 
d="M-38 0l124 700h700l-124 -700h-700zM273 350l-199 -169l88 -107l199 169l139 -169l126 107l-139 169l199 169l-88 107l-199 -169l-139 169l-126 -107z" />
    <glyph glyph-name=".null" horiz-adv-x="0" 
 />
    <glyph glyph-name="nonmarkingreturn" horiz-adv-x="333" 
 />
    <glyph glyph-name="space" unicode=" " horiz-adv-x="300" 
 />
    <glyph glyph-name="exclam" unicode="!" horiz-adv-x="338" 
d="M87 248l39 452h239l-121 -452h-157zM243 0h-242l34 196h242z" />
    <glyph glyph-name="quotedbl" unicode="&#x22;" horiz-adv-x="516" 
d="M61 336l63 364h174l-64 -364h-173zM307 336l63 364h174l-64 -364h-173z" />
    <glyph glyph-name="numbersign" unicode="#" 
d="M846 493l-22 -124h-137l-20 -118h136l-22 -124h-136l-23 -127h-155l23 127h-165l-23 -127h-155l23 127h-138l22 124h138l20 118h-136l22 124h136l23 127h155l-23 -127h165l23 127h155l-23 -127h137zM347 251h165l20 118h-165z" />
    <glyph glyph-name="dollar" unicode="$" 
d="M575 700h143q161 0 136 -166l-8 -49h-206l3 20q3 25 -5.5 34.5t-33.5 9.5h-247q-25 0 -35.5 -9.5t-14.5 -34.5l-2 -13q-4 -25 3 -33.5t30 -10.5l345 -25q83 -7 116.5 -46.5t19.5 -119.5l-18 -107q-14 -82 -54.5 -116t-122.5 -34h-171l-18 -100h-136l18 100h-157
q-81 0 -115.5 42t-20.5 124l10 59h206l-5 -29q-4 -25 4.5 -34.5t34.5 -9.5h271q24 0 34.5 9.5t15.5 34.5l4 25q4 25 -3 34.5t-30 11.5l-345 24q-83 7 -117 46.5t-19 118.5l16 94q14 82 54.5 116t122.5 34h161l18 100h136z" />
    <glyph glyph-name="percent" unicode="%" horiz-adv-x="972" 
d="M464 510l-18 -108q-9 -54 -36.5 -77t-81.5 -23h-178q-53 0 -76 28.5t-14 81.5l18 108q9 54 36.5 77t81.5 23h178q108 0 90 -110zM200 0h-124l710 620h125zM203 399h98q19 0 27 7t11 25l10 59q4 19 -2.5 26t-25.5 7h-98q-18 0 -26 -6.5t-12 -25.5l-10 -59q-6 -33 28 -33z
M791 0h-178q-53 0 -76.5 28.5t-14.5 81.5l19 108q9 54 36.5 77t81.5 23h178q108 0 90 -110l-19 -108q-9 -54 -36.5 -77t-80.5 -23zM666 97h98q18 0 26 7t11 25l11 59q3 19 -3.5 26t-24.5 7h-99q-18 0 -26 -6.5t-11 -25.5l-11 -59q-6 -33 29 -33z" />
    <glyph glyph-name="ampersand" unicode="&#x26;" horiz-adv-x="966" 
d="M354 421h626l-22 -128h-108l-25 -144q-14 -83 -53.5 -116t-121.5 -33h-492q-81 0 -116 43t-21 125l11 65q11 66 40 96.5t86 35.5q-67 34 -49 136l9 51q14 82 53.5 115t121.5 33h431q164 0 138 -168l-8 -47h-206l3 19q4 25 -4.5 35t-33.5 10h-240q-25 0 -34.5 -8.5
t-14.5 -34.5l-7 -39q-4 -25 4.5 -35.5t32.5 -10.5zM627 194l17 99h-346q-25 0 -35.5 -9t-14.5 -34l-9 -53q-4 -26 5 -36t34 -10h300q24 0 34 9t15 34z" />
    <glyph glyph-name="quotesingle" unicode="'" horiz-adv-x="270" 
d="M61 336l63 364h174l-64 -364h-173z" />
    <glyph glyph-name="parenleft" unicode="(" horiz-adv-x="512" 
d="M423 -100h-176q-124 0 -181.5 69.5t-35.5 194.5l71 400q22 125 87.5 180.5t189.5 55.5h203l-27 -159h-164q-47 0 -73 -22t-34 -69l-70 -393q-8 -47 13 -72.5t68 -25.5h157z" />
    <glyph glyph-name="parenright" unicode=")" horiz-adv-x="512" 
d="M118 800h176q124 0 181.5 -69.5t35.5 -194.5l-71 -400q-22 -125 -87.5 -180.5t-189.5 -55.5h-203l27 159h164q47 0 73 22t34 69l70 393q8 47 -13 72.5t-68 25.5h-157z" />
    <glyph glyph-name="asterisk" unicode="*" horiz-adv-x="479" 
d="M465 592l17 -119l-127 -7l65 -108l-108 -53l-45 119l-84 -96l-83 86l99 80l-117 50l56 106l107 -69l11 126l118 -20l-33 -123z" />
    <glyph glyph-name="plus" unicode="+" 
d="M555 437h282l-30 -174h-283l-39 -221h-187l39 221h-282l30 174h284l39 221h186z" />
    <glyph glyph-name="comma" unicode="," horiz-adv-x="338" 
d="M115 -160h-140l94 160h-68l40 226h242l-18 -98q-15 -84 -61 -151z" />
    <glyph glyph-name="hyphen" unicode="-" horiz-adv-x="516" 
d="M35 263l30 174h444l-30 -174h-444z" />
    <glyph glyph-name="period" unicode="." horiz-adv-x="338" 
d="M242 0h-242l41 226h241z" />
    <glyph glyph-name="slash" unicode="/" horiz-adv-x="536" 
d="M-63 -100l546 900h144l-545 -900h-145z" />
    <glyph glyph-name="zero" unicode="0" 
d="M578 0h-368q-103 0 -148 54t-26 158l53 296q19 104 70.5 148t154.5 44h368q103 0 148.5 -54t26.5 -158l-53 -296q-19 -104 -71 -148t-155 -44zM311 177h216q35 0 50.5 13.5t21.5 49.5l38 218q6 35 -7 50t-49 15h-215q-36 0 -51 -13.5t-21 -49.5l-38 -218q-6 -35 7 -50
t48 -15z" />
    <glyph glyph-name="one" unicode="1" horiz-adv-x="804" 
d="M608 700l-94 -533h247l-31 -167h-752l31 167h290l61 349l-264 -21l30 175l381 30h101z" />
    <glyph glyph-name="two" unicode="2" 
d="M789 170l-30 -170h-761l43 244q13 79 52 112q38 32 124 41l373 35q24 2 34 11t15 33l5 22q10 46 -39 46h-249q-25 0 -34 -8.5t-14 -34.5l-6 -30h-206l13 81q13 81 52.5 114.5t123.5 33.5h441q81 0 116 -43t22 -125l-15 -95q-14 -81 -52 -112q-39 -33 -125 -42l-374 -35
q-25 -2 -34.5 -11t-14.5 -33l-6 -34h546z" />
    <glyph glyph-name="three" unicode="3" 
d="M279 700h439q81 0 116 -43t22 -125l-9 -51q-10 -57 -32.5 -86.5t-63.5 -39.5q77 -32 59 -141l-11 -65q-13 -81 -53 -115t-122 -34h-459q-165 0 -138 168l14 85h206l-8 -48q-4 -25 4.5 -35.5t33.5 -10.5h267q24 0 34.5 9t15.5 34l6 41q4 25 -4 35t-33 10h-221l24 138h215
q25 0 34.5 8.5t14.5 34.5l5 26q4 25 -4 35.5t-34 10.5h-247q-25 0 -34.5 -8.5t-14.5 -34.5l-8 -43h-206l17 97q14 82 53.5 115t121.5 33z" />
    <glyph glyph-name="four" unicode="4" horiz-adv-x="894" 
d="M717 288h155l-29 -158h-154l-23 -130h-209l23 130h-479l24 133l515 437h250zM551 530l-285 -242h242z" />
    <glyph glyph-name="five" unicode="5" horiz-adv-x="834" 
d="M593 0h-591l31 170h482q25 0 34.5 8.5t14.5 34.5l5 27q4 25 -4.5 35.5t-33.5 10.5h-478l74 414h708l-31 -170h-494l-14 -86h355q81 0 116 -43t22 -125l-22 -128q-13 -81 -52.5 -114.5t-121.5 -33.5z" />
    <glyph glyph-name="six" unicode="6" 
d="M833 530h-466q-36 0 -51.5 -13.5t-21.5 -49.5l-10 -58q33 33 108 33h289q81 0 116 -43t21 -125l-21 -125q-14 -83 -53.5 -116t-121.5 -33h-456q-81 0 -116 43t-21 125l59 340q18 104 70.5 148t155.5 44h550zM562 295h-255q-24 0 -34.5 -7.5t-14.5 -28.5l-10 -55
q-4 -25 5 -35t34 -10h255q25 0 35 9t14 34l8 48q4 25 -4 35t-33 10z" />
    <glyph glyph-name="seven" unicode="7" horiz-adv-x="824" 
d="M70 517l32 183h772l-29 -163l-323 -256q-34 -27 -49 -53.5t-24 -74.5l-27 -153h-218l28 160q16 92 43 141q25 46 92 96l161 120h-458z" />
    <glyph glyph-name="eight" unicode="8" 
d="M279 700h439q81 0 116 -43t22 -125l-9 -51q-10 -57 -32.5 -86.5t-63.5 -39.5q77 -32 59 -141l-11 -65q-13 -81 -53 -115t-122 -34h-460q-164 0 -137 168l11 65q10 61 35.5 91.5t74.5 38.5q-71 32 -53 138l9 51q13 81 53 114.5t122 33.5zM310 502l-7 -35q-5 -25 3.5 -35.5
t34.5 -10.5h239q24 0 34.5 9t15.5 34l6 36q4 25 -4.5 35t-33.5 10h-240q-24 0 -33.5 -9t-14.5 -34zM592 198l9 50q4 25 -4 35t-33 10h-259q-25 0 -35 -8.5t-15 -34.5l-9 -49q-4 -25 4.5 -35t33.5 -10h259q25 0 35 8.5t14 33.5z" />
    <glyph glyph-name="nine" unicode="9" 
d="M271 700h456q81 0 116 -43t21 -125l-60 -340q-18 -104 -70 -148t-155 -44h-551l30 168h466q35 0 51 13.5t22 49.5l10 53q-34 -32 -108 -32h-289q-81 0 -116.5 43t-20.5 125l23 132q14 82 53.5 115t121.5 33zM635 443l9 50q4 25 -5 35t-34 10h-256q-25 0 -34.5 -8.5
t-14.5 -34.5l-9 -50q-4 -25 4.5 -35.5t33.5 -10.5h255q24 0 35 9.5t16 34.5z" />
    <glyph glyph-name="colon" unicode=":" horiz-adv-x="338" 
d="M301 332h-242l37 204h241zM242 0h-241l36 204h242z" />
    <glyph glyph-name="semicolon" unicode=";" horiz-adv-x="338" 
d="M301 332h-242l37 204h242zM115 -160h-140l94 160h-69l37 204h242l-13 -76q-14 -80 -62 -151z" />
    <glyph glyph-name="less" unicode="&#x3c;" 
d="M88 447l791 226l-34 -193l-503 -132l455 -145l-32 -176l-707 246z" />
    <glyph glyph-name="equal" unicode="=" 
d="M79 399l29 166h752l-29 -166h-752zM33 135l29 166h752l-29 -166h-752z" />
    <glyph glyph-name="greater" unicode="&#x3e;" 
d="M96 497l32 176l707 -246l-30 -174l-791 -226l34 193l503 132z" />
    <glyph glyph-name="question" unicode="?" horiz-adv-x="808" 
d="M471 224h-200l14 73q12 64 37 89q24 24 97 38l140 22q42 8 46 40l3 14q4 23 -4.5 32.5t-31.5 9.5h-250q-22 0 -31.5 -8.5t-13.5 -31.5l-8 -42h-206l15 92q13 81 53 114.5t122 33.5h436q166 0 137 -167l-10 -64q-12 -70 -49 -104t-120 -50l-131 -19q-20 -4 -28.5 -12.5
t-11.5 -28.5zM453 0h-243l31 172h243z" />
    <glyph glyph-name="at" unicode="@" horiz-adv-x="1001" 
d="M304 700h518q103 0 149.5 -56t27.5 -160l-32 -187q-13 -70 -47 -98.5t-103 -28.5h-89q-73 0 -94 48q-43 -33 -66 -40q-26 -9 -77 -9h-138q-127 0 -104 127l21 115q11 65 43.5 92.5t96.5 27.5h137q47 0 71 -8q23 -8 49 -35l18 41h121l-39 -227q-6 -32 22 -32h18
q24 0 33 7.5t13 30.5l31 176q11 63 -11 89.5t-84 26.5h-471q-62 0 -87 -21q-26 -23 -36 -85l-50 -278q-10 -63 12 -89.5t84 -26.5h627l-18 -100h-642q-103 0 -149.5 56t-27.5 160l52 296q20 104 69 146q50 42 152 42zM607 294l15 11l16 90l-11 12q-15 15 -51 15h-127
q-20 0 -28 -7.5t-12 -27.5l-12 -71q-4 -21 2 -29.5t27 -8.5h128q34 0 53 16z" />
    <glyph glyph-name="A" unicode="A" horiz-adv-x="960" 
d="M915 0h-238l-32 113h-370l-72 -113h-254l482 700h251zM531 517l-159 -251h230z" />
    <glyph glyph-name="B" unicode="B" horiz-adv-x="900" 
d="M123 700h630q79 0 114 -42.5t21 -123.5l-8 -51q-10 -55 -31 -85t-60 -41q81 -29 63 -142l-11 -65q-13 -81 -53.5 -115.5t-122.5 -34.5h-667zM622 539h-306l-20 -116h310q24 0 34 9t15 34l5 28q10 45 -38 45zM629 204l8 42q4 25 -4.5 35.5t-33.5 10.5h-326l-23 -131h330
q24 0 34 9t15 34z" />
    <glyph glyph-name="C" unicode="C" horiz-adv-x="905" 
d="M628 0h-424q-103 0 -148 54t-26 158l52 296q19 104 71 148t155 44h424q103 0 148 -54t26 -158l-13 -79h-215l9 45q6 35 -6.5 50.5t-48.5 15.5h-263q-36 0 -51.5 -13.5t-22.5 -48.5l-38 -212q-6 -35 6.5 -50.5t48.5 -15.5h263q36 0 51.5 13.5t22.5 48.5l9 56h214l-18 -106
q-19 -104 -71 -148t-155 -44z" />
    <glyph glyph-name="D" unicode="D" horiz-adv-x="934" 
d="M610 0h-610l124 700h582q120 0 180 -71q60 -72 38 -193l-36 -200q-22 -123 -89 -179.5t-189 -56.5zM314 517l-59 -334h326q41 0 62 18t28 59l30 173q15 84 -69 84h-318z" />
    <glyph glyph-name="E" unicode="E" horiz-adv-x="812" 
d="M854 700l-30 -171h-508l-18 -99h468l-25 -146h-469l-20 -113h519l-31 -171h-740l124 700h730z" />
    <glyph glyph-name="F" unicode="F" horiz-adv-x="780" 
d="M844 700l-32 -180h-498l-20 -116h458l-29 -164h-458l-43 -240h-222l124 700h720z" />
    <glyph glyph-name="G" unicode="G" horiz-adv-x="935" 
d="M656 0h-452q-102 0 -147.5 55t-26.5 157l53 296q19 104 70.5 148t154.5 44h452q103 0 148 -54t27 -158l-8 -46h-223l3 18q6 36 -6.5 51t-48.5 15h-283q-36 0 -51.5 -13t-21.5 -49l-41 -236q-7 -35 6 -50.5t48 -15.5h291q36 0 51 13.5t22 49.5l6 28h-213l24 141h427
l-35 -202q-18 -104 -70.5 -148t-155.5 -44z" />
    <glyph glyph-name="H" unicode="H" horiz-adv-x="922" 
d="M684 458l43 242h222l-124 -700h-222l47 266h-382l-47 -266h-222l124 700h222l-43 -242h382z" />
    <glyph glyph-name="I" unicode="I" horiz-adv-x="330" 
d="M5 0l124 700h225l-124 -700h-225z" />
    <glyph glyph-name="J" unicode="J" horiz-adv-x="837" 
d="M554 0h-366q-103 0 -148 54t-26 158l15 84h214l-9 -50q-7 -35 6 -50.5t49 -15.5h205q36 0 51.5 13.5t21.5 48.5l81 458h222l-90 -508q-19 -104 -71 -148t-155 -44z" />
    <glyph glyph-name="K" unicode="K" horiz-adv-x="908" 
d="M659 700h316l-440 -342l320 -358h-296l-280 338l-60 -338h-222l124 700h222l-56 -314z" />
    <glyph glyph-name="L" unicode="L" horiz-adv-x="750" 
d="M346 700l-90 -509h469l-35 -191h-690l124 700h222z" />
    <glyph glyph-name="M" unicode="M" horiz-adv-x="1050" 
d="M525 321l352 379h201l-124 -700h-209l68 382l-258 -273h-117l-161 273l-68 -382h-209l124 700h182z" />
    <glyph glyph-name="N" unicode="N" horiz-adv-x="942" 
d="M680 268l76 432h214l-124 -700h-180l-374 442l-78 -442h-214l124 700h189z" />
    <glyph glyph-name="O" unicode="O" horiz-adv-x="935" 
d="M656 0h-452q-103 0 -148 54t-26 158l52 296q19 104 71 148t155 44h452q103 0 148 -54t26 -158l-52 -296q-19 -104 -71 -148t-155 -44zM313 183h283q36 0 51.5 13.5t21.5 49.5l37 204q6 36 -6.5 51.5t-48.5 15.5h-283q-36 0 -51.5 -13.5t-21.5 -49.5l-37 -204
q-6 -36 6.5 -51.5t48.5 -15.5z" />
    <glyph glyph-name="P" unicode="P" horiz-adv-x="878" 
d="M222 0h-222l124 700h614q191 0 158 -192l-24 -136q-17 -97 -61 -134q-46 -38 -141 -38h-412zM316 533l-30 -174h311q30 0 42.5 11t17.5 42l12 66q5 31 -5.5 43t-41.5 12h-306z" />
    <glyph glyph-name="Q" unicode="Q" horiz-adv-x="935" 
d="M308 700h452q103 0 148 -54t26 -158l-52 -296q-16 -87 -54 -131t-108 -56l94 -145h-220l-85 140h-305q-103 0 -148 54t-26 158l52 296q19 104 71 148t155 44zM295 454l-37 -204q-6 -36 6.5 -51.5t48.5 -15.5h283q36 0 51.5 13.5t21.5 49.5l37 204q6 36 -6.5 51.5
t-48.5 15.5h-283q-36 0 -51.5 -13.5t-21.5 -49.5z" />
    <glyph glyph-name="R" unicode="R" horiz-adv-x="897" 
d="M124 700h614q191 0 158 -192l-16 -95q-16 -92 -57 -130t-128 -42l134 -241h-235l-121 225h-210l-41 -225h-222zM624 541h-306l-28 -162h310q31 0 43.5 11t17.5 42l10 54q5 31 -5.5 43t-41.5 12z" />
    <glyph glyph-name="S" unicode="S" horiz-adv-x="915" 
d="M22 166l9 59h215l-5 -29q-4 -24 4.5 -34t33.5 -10h312q24 0 34.5 9.5t15.5 34.5l4 25q4 25 -3 34.5t-30 11.5l-393 24q-83 6 -117 46t-20 119l16 94q15 82 55.5 116t122.5 34h496q160 0 135 -166l-7 -49h-214l3 20q3 25 -5.5 34.5t-33.5 9.5h-288q-24 0 -34.5 -9.5
t-14.5 -34.5l-2 -13q-4 -25 2.5 -33.5t29.5 -10.5l393 -25q83 -6 117 -46t20 -120l-19 -107q-14 -82 -54.5 -116t-121.5 -34h-520q-81 0 -115.5 42t-20.5 124z" />
    <glyph glyph-name="T" unicode="T" horiz-adv-x="818" 
d="M88 700h794l-34 -191h-286l-90 -509h-222l90 509h-286z" />
    <glyph glyph-name="U" unicode="U" horiz-adv-x="912" 
d="M629 0h-422q-103 0 -148 54t-26 158l86 488h222l-79 -448q-6 -35 6.5 -50.5t48.5 -15.5h253q36 0 51.5 13.5t21.5 48.5l80 452h222l-90 -508q-19 -104 -71 -148t-155 -44z" />
    <glyph glyph-name="V" unicode="V" horiz-adv-x="934" 
d="M454 232l309 468h249l-488 -700h-209l-241 700h236z" />
    <glyph glyph-name="W" unicode="W" horiz-adv-x="1292" 
d="M892 271l233 429h245l-411 -700h-194l-97 416l-242 -416h-188l-164 700h234l82 -427l243 427h164z" />
    <glyph glyph-name="X" unicode="X" horiz-adv-x="910" 
d="M237 0h-283l369 357l-235 343h261l137 -205l204 205h284l-357 -343l243 -357h-261l-145 219z" />
    <glyph glyph-name="Y" unicode="Y" horiz-adv-x="892" 
d="M706 700h270l-421 -445l-46 -255h-222l45 254l-264 446h256l145 -267z" />
    <glyph glyph-name="Z" unicode="Z" horiz-adv-x="882" 
d="M800 0h-814l27 149l514 368h-429l32 183h794l-26 -149l-514 -368h449z" />
    <glyph glyph-name="bracketleft" unicode="[" horiz-adv-x="492" 
d="M398 -100h-420l158 900h420l-27 -159h-235l-103 -582h235z" />
    <glyph glyph-name="backslash" unicode="\" horiz-adv-x="536" 
d="M95 800h130l244 -900h-129z" />
    <glyph glyph-name="bracketright" unicode="]" horiz-adv-x="492" 
d="M123 800h420l-158 -900h-420l27 159h235l103 582h-235z" />
    <glyph glyph-name="asciicircum" unicode="^" 
d="M592 700l228 -420h-199l-133 255l-223 -255h-217l377 420h167z" />
    <glyph glyph-name="underscore" unicode="_" horiz-adv-x="788" 
d="M-78 -175l23 135h788l-23 -135h-788z" />
    <glyph glyph-name="grave" unicode="`" horiz-adv-x="376" 
d="M408 572h-159l-119 128h210z" />
    <glyph glyph-name="a" unicode="a" horiz-adv-x="799" 
d="M260 536h354q190 0 156 -190l-61 -346h-176l-6 54q-44 -33 -81 -44q-33 -10 -104 -10h-217q-61 0 -91.5 36.5t-18.5 98.5l10 56q12 63 46 92t96 29h388l6 33q5 31 -5 43t-41 12h-186q-25 0 -35.5 -9t-14.5 -34l-2 -14h-202l7 43q13 81 54.5 115.5t123.5 34.5zM262 123
h170q40 0 69 21l28 20l5 28l4 22h-264q-22 0 -30.5 -7.5t-12.5 -29.5l-3 -15q-3 -22 4 -30.5t30 -8.5z" />
    <glyph glyph-name="b" unicode="b" horiz-adv-x="812" 
d="M469 536h163q95 0 133.5 -46.5t22.5 -143.5l-31 -172q-16 -96 -62 -135t-142 -39h-171q-72 0 -108 11q-34 10 -73 49l-27 -60h-175l124 700h209l-37 -209q39 28 75 37q37 8 99 8zM555 213l19 107q5 31 -5 43t-41 12h-155q-49 0 -80 -22l-26 -20l-23 -131l19 -19
q22 -22 75 -22h157q31 0 43 10.5t17 41.5z" />
    <glyph glyph-name="c" unicode="c" horiz-adv-x="776" 
d="M518 0h-335q-191 0 -158 192l30 172q17 98 62 134q46 38 141 38h335q189 0 158 -192l-6 -39h-201l2 15q4 31 -6 43t-41 12h-181q-31 0 -43.5 -10.5t-17.5 -41.5l-19 -107q-5 -31 5.5 -43t41.5 -12h181q31 0 43.5 10.5t17.5 41.5l4 23h201l-11 -64q-16 -96 -62 -134
t-141 -38z" />
    <glyph glyph-name="d" unicode="d" horiz-adv-x="812" 
d="M596 490l37 210h209l-124 -700h-175l-5 60q-48 -38 -86 -49t-108 -11h-164q-95 0 -133 46.5t-22 143.5l30 172q16 96 62.5 135t142.5 39h171q64 0 101 -8q31 -9 64 -38zM284 161h155q49 0 80 22l26 20l24 131l-20 19q-22 22 -75 22h-157q-30 0 -42.5 -10.5t-17.5 -41.5
l-19 -107q-5 -31 5 -43t41 -12z" />
    <glyph glyph-name="e" unicode="e" horiz-adv-x="794" 
d="M259 536h355q95 0 133 -46.5t22 -142.5l-18 -108h-508l-6 -33q-5 -31 4.5 -43t40.5 -12h209q24 0 34.5 9t15.5 34l2 10h202l-10 -53q-15 -83 -55 -117t-121 -34h-379q-188 0 -155 190l30 172q16 96 62 135t142 39zM263 355l-2 -14h306l2 12q5 31 -4.5 42.5t-40.5 11.5
h-200q-30 0 -43 -11t-18 -41z" />
    <glyph glyph-name="f" unicode="f" horiz-adv-x="612" 
d="M650 548h-202q-24 0 -34 -9t-15 -34l-6 -35h243l-28 -158h-243l-55 -312h-210l55 312h-135l28 158h135l14 80q15 82 55.5 116t121.5 34h303z" />
    <glyph glyph-name="g" unicode="g" horiz-adv-x="813" 
d="M614 476l27 60h176l-89 -501q-19 -104 -72.5 -149.5t-156.5 -45.5h-514l26 148h434q36 0 53 14t23 50l7 41q-43 -30 -75 -37q-35 -9 -99 -9h-164q-96 0 -133.5 46t-20.5 142l21 125q17 97 64 136.5t143 39.5h170q72 0 108 -11q33 -10 72 -49zM528 216l26 19l11 64l8 45
l-19 19q-22 22 -75 22h-156q-31 0 -43.5 -11t-17.5 -42l-15 -84q-5 -31 4.5 -42.5t40.5 -11.5h155q50 0 81 22z" />
    <glyph glyph-name="h" unicode="h" horiz-adv-x="807" 
d="M476 536h144q192 0 157 -192l-60 -344h-209l55 315q6 31 -4.5 43t-41.5 12h-145q-49 0 -80 -22l-26 -19l-58 -329h-209l124 700h209l-38 -215q43 33 79 42q34 9 103 9z" />
    <glyph glyph-name="i" unicode="i" horiz-adv-x="313" 
d="M317 576h-212l22 124h212zM215 0h-212l95 536h212z" />
    <glyph glyph-name="j" unicode="j" horiz-adv-x="353" 
d="M357 576h-212l22 124h212zM77 -160h-214l27 153h110q25 0 35.5 9t14.5 34l88 500h213l-97 -546q-14 -82 -54.5 -116t-122.5 -34z" />
    <glyph glyph-name="k" unicode="k" horiz-adv-x="807" 
d="M549 536h306l-358 -269l270 -267h-287l-228 248l-44 -248h-210l124 700h210l-72 -407z" />
    <glyph glyph-name="l" unicode="l" horiz-adv-x="313" 
d="M215 0h-212l124 700h212z" />
    <glyph glyph-name="m" unicode="m" horiz-adv-x="1268" 
d="M956 536h132q184 0 150 -192l-60 -344h-210l56 315q5 31 -5 43t-41 12h-120q-50 0 -81 -22l-26 -19l-58 -329h-209l55 315q6 31 -4.5 43t-41.5 12h-120q-53 0 -81 -22l-25 -19l-59 -329h-209l95 536h175l6 -60q52 39 87 49q39 11 109 11h133q113 0 143 -69q56 44 94 57
q39 12 115 12z" />
    <glyph glyph-name="n" unicode="n" horiz-adv-x="807" 
d="M471 536h149q192 0 157 -192l-60 -344h-209l55 315q6 31 -4.5 43t-41.5 12h-144q-53 0 -81 -22l-25 -19l-59 -329h-209l95 536h175l6 -60q52 39 87 49q39 11 109 11z" />
    <glyph glyph-name="o" unicode="o" horiz-adv-x="804" 
d="M546 0h-363q-191 0 -158 192l30 172q17 98 62 134q46 38 141 38h363q191 0 158 -192l-30 -172q-17 -97 -61 -134q-47 -38 -142 -38zM285 161h201q31 0 43.5 10.5t17.5 41.5l19 107q5 31 -5.5 43t-41.5 12h-201q-31 0 -43.5 -10.5t-17.5 -41.5l-19 -107q-5 -31 5.5 -43
t41.5 -12z" />
    <glyph glyph-name="p" unicode="p" horiz-adv-x="812" 
d="M469 536h163q95 0 133.5 -46.5t22.5 -143.5l-31 -172q-16 -96 -62 -135t-142 -39h-171q-66 0 -100 9q-34 7 -66 36l-36 -205h-209l123 696h175l6 -60q50 40 86 50q34 10 108 10zM555 213l19 107q5 31 -5 43t-41 12h-155q-49 0 -80 -22l-26 -20l-23 -131l19 -19
q22 -22 75 -22h157q31 0 43 10.5t17 41.5z" />
    <glyph glyph-name="q" unicode="q" horiz-adv-x="812" 
d="M611 476l27 60h176l-124 -696h-209l36 205q-41 -29 -74 -36q-35 -9 -99 -9h-164q-95 0 -133 46.5t-22 143.5l30 172q16 96 62.5 135t142.5 39h171q71 0 109 -11q34 -10 71 -49zM519 183l26 19l24 132l-20 19q-22 22 -75 22h-157q-30 0 -42.5 -10.5t-17.5 -41.5l-19 -107
q-5 -31 5 -43t41 -12h155q49 0 80 22z" />
    <glyph glyph-name="r" unicode="r" horiz-adv-x="548" 
d="M461 536h123l-34 -187h-181q-52 0 -80 -22l-26 -19l-55 -308h-209l95 536h151l7 -71q56 45 96 59q38 12 113 12z" />
    <glyph glyph-name="s" unicode="s" horiz-adv-x="784" 
d="M14 134l8 46h201l-5 -29q-3 -16 2 -21.5t21 -5.5h244q16 0 22 5.5t9 21.5l4 22q2 15 -3 20.5t-21 7.5l-327 22q-60 4 -88 37t-18 93l11 62q21 121 142 121h431q59 0 88.5 -36t19.5 -97l-6 -40h-201l4 22q3 15 -2.5 21t-21.5 6h-220q-16 0 -22 -5.5t-8 -21.5l-2 -10
q-2 -15 3 -20.5t20 -6.5l328 -22q60 -5 88.5 -39t17.5 -92l-13 -74q-22 -121 -143 -121h-455q-59 0 -88.5 36.5t-19.5 97.5z" />
    <glyph glyph-name="t" unicode="t" horiz-adv-x="632" 
d="M629 378h-252l-31 -172q-4 -25 4.5 -35t34.5 -10h206l-29 -161h-297q-165 0 -135 164l38 214h-136l28 158h136l61 120h169l-21 -120h252z" />
    <glyph glyph-name="u" unicode="u" horiz-adv-x="807" 
d="M599 536h209l-95 -536h-175l-6 60q-52 -39 -87 -49q-39 -11 -109 -11h-149q-191 0 -157 192l60 344h209l-55 -315q-6 -31 4.5 -43t41.5 -12h144q53 0 81 22l25 19z" />
    <glyph glyph-name="v" unicode="v" horiz-adv-x="798" 
d="M382 216l220 320h245l-403 -536h-185l-212 536h227z" />
    <glyph glyph-name="w" unicode="w" horiz-adv-x="1100" 
d="M747 234l169 302h230l-335 -536h-182l-75 306l-181 -306h-179l-144 536h214l64 -302l181 302h161z" />
    <glyph glyph-name="x" unicode="x" horiz-adv-x="793" 
d="M224 0h-278l304 274l-199 262h258l102 -142l148 142h278l-292 -262l206 -274h-257l-111 155z" />
    <glyph glyph-name="y" unicode="y" horiz-adv-x="798" 
d="M379 205l223 331h245l-409 -543q-71 -96 -126 -125q-53 -28 -167 -28h-165l29 161h154q33 0 49.5 6t33.5 26l-199 503h227z" />
    <glyph glyph-name="z" unicode="z" horiz-adv-x="768" 
d="M688 0h-704l22 122l406 261h-339l27 153h684l-22 -122l-406 -261h359z" />
    <glyph glyph-name="braceleft" unicode="{" horiz-adv-x="586" 
d="M389 575l-19 -111q-17 -90 -85 -117q58 -33 43 -121l-17 -98q-6 -36 7.5 -52.5t50.5 -16.5h156l-28 -159h-192q-107 0 -153.5 56t-27.5 164l20 116q8 42 -35 42h-83l25 144h87q40 0 46 40l25 138q19 108 73 154t161 46h212l-27 -159h-163q-36 0 -52.5 -15t-23.5 -51z" />
    <glyph glyph-name="bar" unicode="|" horiz-adv-x="282" 
d="M-7 -100l158 900h166l-158 -900h-166z" />
    <glyph glyph-name="braceright" unicode="}" horiz-adv-x="586" 
d="M506 422h83l-25 -144h-87q-40 0 -46 -40l-25 -138q-19 -108 -73 -154t-161 -46h-212l27 159h163q36 0 52.5 15t23.5 51l19 111q17 90 85 117q-58 33 -43 121l17 98q6 36 -7.5 52.5t-50.5 16.5h-156l28 159h192q107 0 153.5 -56t27.5 -164l-20 -116q-7 -42 35 -42z" />
    <glyph glyph-name="asciitilde" unicode="~" 
d="M467 448l113 -115q11 -11 25 -11h21q15 0 18 16l29 166h176l-37 -210q-10 -53 -36 -75.5t-79 -22.5h-142q-52 0 -79 11q-25 10 -50 46l-113 114q-11 11 -25 11h-21q-15 0 -18 -16l-30 -166h-176l38 210q9 53 35 75.5t79 22.5h143q56 0 80 -10t49 -46z" />
    <glyph glyph-name="exclamdown" unicode="&#xa1;" horiz-adv-x="338" 
d="M124 700h242l-34 -196h-242zM280 452l-39 -452h-239l121 452h157z" />
    <glyph glyph-name="cent" unicode="&#xa2;" 
d="M579 700h123q192 0 158 -192l-8 -50h-206l4 23q5 31 -5.5 43t-41.5 12h-244q-30 0 -42.5 -11t-17.5 -41l-24 -135q-6 -31 4.5 -43t41.5 -12h245q30 0 42 11t18 41l5 31h206l-13 -75q-18 -96 -62 -134q-46 -38 -140 -38h-144l-18 -100h-135l18 100h-129q-192 0 -158 192
l37 206q16 97 62 135q43 37 139 37h149l18 100h135z" />
    <glyph glyph-name="sterling" unicode="&#xa3;" horiz-adv-x="892" 
d="M363 700h348q103 0 148 -54.5t26 -157.5l-11 -61h-206l9 47q7 35 -6.5 50t-49.5 15h-211q-30 0 -44 -13.5t-20 -49.5l-11 -61h255l-20 -113h-255l-24 -133h290q24 0 34.5 9t15.5 34l11 62h206l-22 -122q-14 -81 -56 -116.5t-123 -35.5h-682l30 169h82l24 133h-92l19 113
h93l17 93q19 104 70.5 148t154.5 44z" />
    <glyph glyph-name="currency" unicode="&#xa4;" 
d="M778 421l-28 -162q-6 -33 -16 -55l75 -91l-102 -87l-67 82q-38 -15 -85 -15h-288q-47 0 -82 18l-100 -85l-83 101l110 94q-3 27 3 58l28 162q6 33 16 55l-75 91l101 87l68 -82q36 15 85 15h287q49 0 83 -18l100 85l83 -101l-110 -94q3 -27 -3 -58zM342 249h177
q34 0 49.5 13.5t21.5 47.5l13 77q6 34 -6.5 49t-46.5 15h-176q-34 0 -49.5 -13.5t-21.5 -47.5l-13 -77q-6 -34 6 -49t46 -15z" />
    <glyph glyph-name="yen" unicode="&#xa5;" 
d="M666 700h258l-328 -370h233l-16 -92h-280l-10 -60h279l-16 -92h-280l-15 -86h-214l15 86h-278l16 92h279l10 60h-278l16 92h232l-197 370h245l118 -261z" />
    <glyph glyph-name="brokenbar" unicode="&#xa6;" horiz-adv-x="282" 
d="M93 466l59 334h166l-59 -334h-166zM-6 -100l59 334h166l-59 -334h-166z" />
    <glyph glyph-name="section" unicode="&#xa7;" horiz-adv-x="1052" 
d="M464 553l443 -33q150 -12 124 -159l-13 -68q-14 -73 -44 -104t-92 -35q0 -6 -4 -31l-13 -74q-14 -83 -53 -116t-121 -33h-429q-81 0 -116.5 43t-22.5 125l8 50h214l-4 -25q-4 -25 4.5 -35.5t33.5 -10.5h223q23 0 33 9t15 33l2 14q4 23 -3.5 32.5t-31.5 11.5l-443 33
q-149 12 -124 160l13 67q14 74 44 104.5t92 34.5l4 32l13 74q15 82 54 115t120 33h430q81 0 116 -42.5t22 -124.5l-8 -51h-214l4 26q4 25 -4.5 35t-33.5 10h-223q-24 0 -33.5 -8.5t-14.5 -32.5l-2 -15q-4 -23 3.5 -32.5t31.5 -11.5zM305 323l452 -33q9 -1 29 -4q10 8 14 27
l5 28q3 19 -3.5 26.5t-26.5 9.5l-451 33q-7 1 -18 2.5t-12 1.5q-9 -9 -13 -27l-5 -28q-3 -18 3.5 -26t25.5 -10z" />
    <glyph glyph-name="dieresis" unicode="&#xa8;" horiz-adv-x="464" 
d="M264 576h-161l20 116h161zM499 576h-161l20 116h161z" />
    <glyph glyph-name="copyright" unicode="&#xa9;" horiz-adv-x="987" 
d="M703 0h-390q-104 0 -166 61.5t-62 166.5v244q0 105 62 166.5t166 61.5h390q104 0 166 -61.5t62 -166.5v-244q0 -105 -62 -166.5t-166 -61.5zM327 63h362q85 0 130 44.5t45 130.5v224q0 86 -45 130.5t-130 44.5h-362q-85 0 -130 -44.5t-45 -130.5v-224q0 -86 45 -130.5
t130 -44.5zM665 128h-314q-68 0 -101 32.5t-33 101.5v176q0 69 33 101.5t101 32.5h314q68 0 101 -32.5t33 -101.5v-54h-148v27q0 22 -8 30.5t-30 8.5h-204q-22 0 -31 -8.5t-9 -30.5v-122q0 -22 9 -30.5t31 -8.5h204q22 0 30 8.5t8 30.5v32h148v-59q0 -69 -33 -101.5
t-101 -32.5z" />
    <glyph glyph-name="ordfeminine" unicode="&#xaa;" horiz-adv-x="481" 
d="M206 700h213q114 0 94 -113l-37 -209h-109l-4 32q-30 -22 -47 -26q-20 -6 -62 -6h-132q-36 0 -54.5 22t-11.5 59l6 34q12 74 86 74h232l3 18q3 17 -2.5 23.5t-23.5 6.5h-110q-14 0 -20 -5t-8 -19l-2 -8h-125l5 25q9 50 34 71t75 21zM206 453h103q20 0 38 12l16 12l5 29
h-153q-13 0 -18 -4.5t-6 -16.5l-2 -10q-4 -22 17 -22z" />
    <glyph glyph-name="guillemotleft" unicode="&#xab;" horiz-adv-x="1028" 
d="M71 422l475 176l-30 -167l-256 -81l226 -92l-28 -156l-409 196zM567 422l475 176l-30 -167l-256 -81l226 -92l-28 -156l-409 196z" />
    <glyph glyph-name="logicalnot" unicode="&#xac;" 
d="M618 263h-563l31 174h752l-60 -339h-189z" />
    <glyph glyph-name="uni00AD" unicode="&#xad;" horiz-adv-x="516" 
d="M35 263l30 174h444l-30 -174h-444z" />
    <glyph glyph-name="registered" unicode="&#xae;" horiz-adv-x="393" 
d="M193 700h105q111 0 111 -111v-92q0 -111 -111 -111h-105q-111 0 -111 111v92q0 111 111 111zM364 499v88q0 40 -15.5 55.5t-54.5 15.5h-97q-39 0 -55 -15.5t-16 -55.5v-88q0 -38 16 -54.5t55 -16.5h97q39 0 54.5 16t15.5 55zM323 580v-21q0 -36 -31 -40l38 -54h-54
l-31 48h-25v-48h-49v155h112q22 0 31 -9.5t9 -30.5zM265 583h-45v-34h45q10 0 10 9v15q0 10 -10 10z" />
    <glyph glyph-name="overscore" unicode="&#xaf;" horiz-adv-x="520" 
d="M561 589h-456l17 95h456z" />
    <glyph glyph-name="degree" unicode="&#xb0;" horiz-adv-x="436" 
d="M299 340h-118q-59 0 -90 38t-20 96l19 110q21 116 136 116h118q59 0 89.5 -37.5t20.5 -96.5l-19 -110q-20 -116 -136 -116zM221 446h58q22 0 32.5 9t14.5 31l11 67q4 23 -4 32t-30 9h-58q-22 0 -32 -9t-14 -31l-11 -67q-4 -22 3.5 -31.5t29.5 -9.5z" />
    <glyph glyph-name="plusminus" unicode="&#xb1;" 
d="M601 692l-29 -161h283l-28 -158h-282l-29 -161h-187l29 161h-283l28 158h282l29 161h187zM763 8h-752l27 158h752z" />
    <glyph glyph-name="uni00B2" unicode="&#xb2;" horiz-adv-x="540" 
d="M520 391l-20 -111h-463l25 147q9 48 33 69t76 26l219 18q20 1 24 23l3 16q5 21 -19 21h-138q-12 0 -17 -4.5t-8 -17.5l-4 -20h-137l8 51q8 50 32.5 70.5t75.5 20.5h267q104 0 86 -105l-9 -51q-9 -49 -33 -69.5t-77 -25.5l-218 -18q-20 -1 -24 -23l-3 -17h321z" />
    <glyph glyph-name="uni00B3" unicode="&#xb3;" horiz-adv-x="537" 
d="M206 700h267q102 0 84 -102l-4 -28q-12 -68 -61 -78q50 -17 38 -85l-6 -35q-8 -51 -33 -71.5t-76 -20.5h-279q-100 0 -83 102l8 54h137l-4 -28q-2 -13 2 -18t17 -5h149q14 0 19 4.5t7 17.5l3 19q4 23 -20 23h-127l16 88h123q13 0 18 4.5t7 17.5l2 13q2 14 -2 18.5
t-17 4.5h-137q-13 0 -18.5 -4.5t-7.5 -17.5l-4 -24h-136l10 59q8 51 32.5 71.5t75.5 20.5z" />
    <glyph glyph-name="acute" unicode="&#xb4;" horiz-adv-x="376" 
d="M441 700l-162 -128h-181l112 128h231z" />
    <glyph glyph-name="paragraph" unicode="&#xb6;" horiz-adv-x="908" 
d="M56 416l20 112q17 98 62 134q46 38 141 38h617l-124 -700h-190l94 533h-110l-94 -533h-190l41 224h-109q-191 0 -158 192z" />
    <glyph glyph-name="middot" unicode="&#xb7;" horiz-adv-x="338" 
d="M284 237h-242l41 226h241z" />
    <glyph glyph-name="cedilla" unicode="&#xb8;" horiz-adv-x="320" 
d="M180 -160h-212l11 60h157q8 0 11 8l1 8q3 9 -8 9h-111l5 28l33 67h75l-21 -42h79q58 0 47 -57l-5 -28q-5 -30 -19 -41.5t-43 -11.5z" />
    <glyph glyph-name="uni00B9" unicode="&#xb9;" horiz-adv-x="502" 
d="M407 700l-55 -310h149l-20 -110h-456l20 110h165l33 188l-149 -12l20 116l225 18h68z" />
    <glyph glyph-name="ordmasculine" unicode="&#xba;" horiz-adv-x="482" 
d="M375 378h-218q-115 0 -95 116l17 101q10 57 38.5 81t86.5 24h218q113 0 94 -115l-17 -101q-10 -58 -38 -82t-86 -24zM219 480h118q18 0 25.5 6t10.5 23l10 59q3 18 -2 24.5t-23 6.5h-118q-17 0 -24.5 -6.5t-10.5 -23.5l-11 -59q-3 -17 2.5 -23.5t22.5 -6.5z" />
    <glyph glyph-name="guillemotright" unicode="&#xbb;" horiz-adv-x="1028" 
d="M75 442l28 156l409 -196l-22 -124l-475 -176l30 167l256 81zM571 442l28 156l409 -196l-22 -124l-475 -176l30 167l256 81z" />
    <glyph glyph-name="onequarter" unicode="&#xbc;" horiz-adv-x="1194" 
d="M352 390h149l-20 -110h-456l20 110h165l33 188l-149 -12l20 116l225 18h68zM250 0l709 700h128l-709 -700h-128zM1063 177h92l-19 -104h-91l-13 -73h-137l13 73h-282l16 87l300 260h164zM949 304l-149 -127h126z" />
    <glyph glyph-name="onehalf" unicode="&#xbd;" horiz-adv-x="1301" 
d="M351 390h149l-20 -110h-456l20 110h165l33 188l-149 -12l20 116l225 18h68zM250 0l709 700h128l-709 -700h-128zM922 420h267q104 0 86 -105l-9 -51q-9 -49 -33 -69.5t-77 -25.5l-218 -18q-20 -1 -24 -23l-3 -17h321l-20 -111h-463l25 147q9 48 33 69t76 26l219 18
q20 1 24 23l3 16q5 21 -19 21h-138q-12 0 -17 -4.5t-8 -17.5l-4 -20h-137l8 51q8 50 32.5 70.5t75.5 20.5z" />
    <glyph glyph-name="threequarters" unicode="&#xbe;" horiz-adv-x="1209" 
d="M530 407l-6 -35q-8 -51 -33 -71.5t-76 -20.5h-279q-100 0 -83 102l8 54h137l-4 -28q-2 -13 2 -18t17 -5h149q14 0 19 4.5t7 17.5l3 19q4 23 -20 23h-127l16 88h123q13 0 18 4.5t7 17.5l2 13q2 14 -2 18.5t-17 4.5h-137q-13 0 -18.5 -4.5t-7.5 -17.5l-4 -24h-136l10 59
q8 51 32.5 71.5t75.5 20.5h267q102 0 84 -102l-4 -28q-12 -68 -61 -78q50 -17 38 -85zM263 0l709 700h128l-709 -700h-128zM1078 177h92l-19 -104h-91l-13 -73h-137l13 73h-282l16 87l300 260h164zM964 304l-149 -127h126z" />
    <glyph glyph-name="questiondown" unicode="&#xbf;" horiz-adv-x="808" 
d="M384 700h243l-31 -172h-243zM366 476h200l-14 -73q-12 -64 -37 -89q-24 -24 -97 -38l-140 -22q-42 -8 -46 -40l-3 -14q-4 -23 4.5 -32.5t31.5 -9.5h250q22 0 31.5 8.5t13.5 31.5l8 42h206l-15 -92q-13 -81 -53 -114.5t-122 -33.5h-436q-166 0 -137 167l10 64
q12 70 49 104t120 50l131 19q20 4 28.5 12.5t11.5 28.5z" />
    <glyph glyph-name="Agrave" unicode="&#xc0;" horiz-adv-x="960" 
d="M575 864l68 -128h-159l-119 128h210zM915 0h-238l-32 113h-370l-72 -113h-254l482 700h251zM531 517l-159 -251h230z" />
    <glyph glyph-name="Aacute" unicode="&#xc1;" horiz-adv-x="960" 
d="M586 864h231l-162 -128h-181zM915 0h-238l-32 113h-370l-72 -113h-254l482 700h251zM531 517l-159 -251h230z" />
    <glyph glyph-name="Acircumflex" unicode="&#xc2;" horiz-adv-x="960" 
d="M655 736l-76 52l-94 -52h-157l154 128h206l110 -128h-143zM915 0h-238l-32 113h-370l-72 -113h-254l482 700h251zM531 517l-159 -251h230z" />
    <glyph glyph-name="Atilde" unicode="&#xc3;" horiz-adv-x="960" 
d="M471 789l-9 -53h-116l13 80q11 48 58 48h148q23 0 34.5 -5.5t21.5 -21.5l20 -28q4 -6 14 -6h14q7 0 9 8l9 53h117l-14 -80q-9 -48 -57 -48h-149q-24 0 -34.5 5t-21.5 22l-20 28q-5 6 -13 6h-14q-8 0 -10 -8zM915 0h-238l-32 113h-370l-72 -113h-254l482 700h251zM531 517
l-159 -251h230z" />
    <glyph glyph-name="Adieresis" unicode="&#xc4;" horiz-adv-x="960" 
d="M386 856h161l-20 -116h-161zM621 856h161l-20 -116h-161zM915 0h-238l-32 113h-370l-72 -113h-254l482 700h251zM531 517l-159 -251h230z" />
    <glyph glyph-name="Aring" unicode="&#xc5;" horiz-adv-x="960" 
d="M671 726h-215q-58 0 -47 57l4 28q5 29 19 41t44 12h215q57 0 48 -57l-5 -28q-5 -29 -19 -41t-44 -12zM486 801l-2 -12q-2 -11 0.5 -14.5t13.5 -3.5h143q11 0 14.5 3t5.5 15l3 12q2 11 -1 14.5t-13 3.5h-144q-11 0 -14.5 -3t-5.5 -15zM915 0h-238l-32 113h-370l-72 -113
h-254l482 700h251zM531 517l-159 -251h230z" />
    <glyph glyph-name="AE" unicode="&#xc6;" horiz-adv-x="1284" 
d="M1327 700l-31 -169h-551l30 -102h463l-25 -143h-396l35 -117h391l-30 -169h-550l-27 108h-364l-69 -108h-253l482 700h895zM532 517l-162 -255h226z" />
    <glyph glyph-name="Ccedilla" unicode="&#xc7;" horiz-adv-x="905" 
d="M308 700h424q103 0 148 -54t26 -158l-13 -79h-215l9 45q6 35 -6.5 50.5t-48.5 15.5h-263q-36 0 -51.5 -13.5t-22.5 -48.5l-38 -212q-6 -35 6.5 -50.5t48.5 -15.5h263q36 0 51.5 13.5t22.5 48.5l9 56h214l-18 -106q-19 -104 -71 -148t-155 -44h-201l-11 -22h79
q57 0 47 -57l-5 -28q-5 -30 -19 -41.5t-43 -11.5h-212l11 60h157q8 0 11 8l1 8q3 9 -8 9h-111l5 28l23 47h-148q-103 0 -148 54t-26 158l52 296q19 104 71 148t155 44z" />
    <glyph glyph-name="Egrave" unicode="&#xc8;" horiz-adv-x="812" 
d="M501 864l68 -128h-159l-119 128h210zM854 700l-30 -171h-508l-18 -99h468l-25 -146h-469l-20 -113h519l-31 -171h-740l124 700h730z" />
    <glyph glyph-name="Eacute" unicode="&#xc9;" horiz-adv-x="812" 
d="M512 864h231l-162 -128h-181zM854 700l-30 -171h-508l-18 -99h468l-25 -146h-469l-20 -113h519l-31 -171h-740l124 700h730z" />
    <glyph glyph-name="Ecircumflex" unicode="&#xca;" horiz-adv-x="812" 
d="M581 736l-76 52l-94 -52h-157l154 128h206l110 -128h-143zM854 700l-30 -171h-508l-18 -99h468l-25 -146h-469l-20 -113h519l-31 -171h-740l124 700h730z" />
    <glyph glyph-name="Edieresis" unicode="&#xcb;" horiz-adv-x="812" 
d="M312 856h161l-20 -116h-161zM547 856h161l-20 -116h-161zM854 700l-30 -171h-508l-18 -99h468l-25 -146h-469l-20 -113h519l-31 -171h-740l124 700h730z" />
    <glyph glyph-name="Igrave" unicode="&#xcc;" horiz-adv-x="330" 
d="M327 736h-159l-119 128h210zM5 0l124 700h225l-124 -700h-225z" />
    <glyph glyph-name="Iacute" unicode="&#xcd;" horiz-adv-x="330" 
d="M501 864l-162 -128h-181l112 128h231zM5 0l124 700h225l-124 -700h-225z" />
    <glyph glyph-name="Icircumflex" unicode="&#xce;" horiz-adv-x="330" 
d="M169 736h-157l154 128h206l110 -128h-143l-76 52zM5 0l124 700h225l-124 -700h-225z" />
    <glyph glyph-name="Idieresis" unicode="&#xcf;" horiz-adv-x="330" 
d="M211 740h-161l20 116h161zM446 740h-161l20 116h161zM5 0l124 700h225l-124 -700h-225z" />
    <glyph glyph-name="Eth" unicode="&#xd0;" horiz-adv-x="994" 
d="M184 700h582q120 0 180 -71q60 -72 38 -193l-36 -200q-22 -123 -89 -179.5t-189 -56.5h-610l51 289h-83l21 122h84zM731 260l30 173q15 84 -69 84h-318l-19 -106h232l-21 -122h-232l-19 -106h326q41 0 62 18t28 59z" />
    <glyph glyph-name="Ntilde" unicode="&#xd1;" horiz-adv-x="942" 
d="M448 789l-9 -53h-116l13 80q10 48 58 48h148q23 0 34.5 -5.5t21.5 -21.5l20 -28q4 -6 14 -6h14q7 0 9 8l9 53h117l-14 -80q-9 -48 -57 -48h-149q-24 0 -34.5 5t-21.5 22l-20 28q-5 6 -13 6h-14q-8 0 -10 -8zM680 268l76 432h214l-124 -700h-180l-374 442l-78 -442h-214
l124 700h189z" />
    <glyph glyph-name="Ograve" unicode="&#xd2;" horiz-adv-x="935" 
d="M630 736h-159l-119 128h210zM656 0h-452q-103 0 -148 54t-26 158l52 296q19 104 71 148t155 44h452q103 0 148 -54t26 -158l-52 -296q-19 -104 -71 -148t-155 -44zM313 183h283q36 0 51.5 13.5t21.5 49.5l37 204q6 36 -6.5 51.5t-48.5 15.5h-283q-36 0 -51.5 -13.5
t-21.5 -49.5l-37 -204q-6 -36 6.5 -51.5t48.5 -15.5z" />
    <glyph glyph-name="Oacute" unicode="&#xd3;" horiz-adv-x="935" 
d="M804 864l-162 -128h-181l112 128h231zM656 0h-452q-103 0 -148 54t-26 158l52 296q19 104 71 148t155 44h452q103 0 148 -54t26 -158l-52 -296q-19 -104 -71 -148t-155 -44zM313 183h283q36 0 51.5 13.5t21.5 49.5l37 204q6 36 -6.5 51.5t-48.5 15.5h-283
q-36 0 -51.5 -13.5t-21.5 -49.5l-37 -204q-6 -36 6.5 -51.5t48.5 -15.5z" />
    <glyph glyph-name="Ocircumflex" unicode="&#xd4;" horiz-adv-x="935" 
d="M472 736h-157l154 128h206l110 -128h-143l-76 52zM656 0h-452q-103 0 -148 54t-26 158l52 296q19 104 71 148t155 44h452q103 0 148 -54t26 -158l-52 -296q-19 -104 -71 -148t-155 -44zM313 183h283q36 0 51.5 13.5t21.5 49.5l37 204q6 36 -6.5 51.5t-48.5 15.5h-283
q-36 0 -51.5 -13.5t-21.5 -49.5l-37 -204q-6 -36 6.5 -51.5t48.5 -15.5z" />
    <glyph glyph-name="Otilde" unicode="&#xd5;" horiz-adv-x="935" 
d="M449 736h-116l13 80q10 48 58 48h148q23 0 34.5 -5.5t21.5 -21.5l20 -28q4 -6 14 -6h14q7 0 9 8l9 53h117l-14 -80q-9 -48 -57 -48h-149q-24 0 -34.5 5t-21.5 22l-20 28q-5 6 -13 6h-14q-8 0 -10 -8zM656 0h-452q-103 0 -148 54t-26 158l52 296q19 104 71 148t155 44h452
q103 0 148 -54t26 -158l-52 -296q-19 -104 -71 -148t-155 -44zM313 183h283q36 0 51.5 13.5t21.5 49.5l37 204q6 36 -6.5 51.5t-48.5 15.5h-283q-36 0 -51.5 -13.5t-21.5 -49.5l-37 -204q-6 -36 6.5 -51.5t48.5 -15.5z" />
    <glyph glyph-name="Odieresis" unicode="&#xd6;" horiz-adv-x="935" 
d="M514 740h-161l20 116h161zM749 740h-161l20 116h161zM656 0h-452q-103 0 -148 54t-26 158l52 296q19 104 71 148t155 44h452q103 0 148 -54t26 -158l-52 -296q-19 -104 -71 -148t-155 -44zM313 183h283q36 0 51.5 13.5t21.5 49.5l37 204q6 36 -6.5 51.5t-48.5 15.5h-283
q-36 0 -51.5 -13.5t-21.5 -49.5l-37 -204q-6 -36 6.5 -51.5t48.5 -15.5z" />
    <glyph glyph-name="multiply" unicode="&#xd7;" 
d="M751 670l98 -138l-268 -190l200 -192l-126 -120l-218 209l-295 -209l-98 138l268 191l-200 192l126 119l218 -209z" />
    <glyph glyph-name="Oslash" unicode="&#xd8;" horiz-adv-x="935" 
d="M866 730h142l-105 -88q49 -58 30 -162l-51 -288q-19 -104 -71 -148t-155 -44h-444q-34 0 -68 8l-46 -38h-142l105 88q-49 58 -30 162l51 288q19 104 71 148t155 44h444q34 0 68 -8zM286 462l-39 -220q-3 -22 -2 -31l376 314h-262q-35 0 -51 -13.5t-22 -49.5zM678 238
l39 220q3 22 2 31l-376 -314h262q35 0 51 13.5t22 49.5z" />
    <glyph glyph-name="Ugrave" unicode="&#xd9;" horiz-adv-x="912" 
d="M618 736h-159l-119 128h210zM629 0h-422q-103 0 -148 54t-26 158l86 488h222l-79 -448q-6 -35 6.5 -50.5t48.5 -15.5h253q36 0 51.5 13.5t21.5 48.5l80 452h222l-90 -508q-19 -104 -71 -148t-155 -44z" />
    <glyph glyph-name="Uacute" unicode="&#xda;" horiz-adv-x="912" 
d="M792 864l-162 -128h-181l112 128h231zM629 0h-422q-103 0 -148 54t-26 158l86 488h222l-79 -448q-6 -35 6.5 -50.5t48.5 -15.5h253q36 0 51.5 13.5t21.5 48.5l80 452h222l-90 -508q-19 -104 -71 -148t-155 -44z" />
    <glyph glyph-name="Ucircumflex" unicode="&#xdb;" horiz-adv-x="912" 
d="M460 736h-157l154 128h206l110 -128h-143l-76 52zM629 0h-422q-103 0 -148 54t-26 158l86 488h222l-79 -448q-6 -35 6.5 -50.5t48.5 -15.5h253q36 0 51.5 13.5t21.5 48.5l80 452h222l-90 -508q-19 -104 -71 -148t-155 -44z" />
    <glyph glyph-name="Udieresis" unicode="&#xdc;" horiz-adv-x="912" 
d="M502 740h-161l20 116h161zM737 740h-161l20 116h161zM629 0h-422q-103 0 -148 54t-26 158l86 488h222l-79 -448q-6 -35 6.5 -50.5t48.5 -15.5h253q36 0 51.5 13.5t21.5 48.5l80 452h222l-90 -508q-19 -104 -71 -148t-155 -44z" />
    <glyph glyph-name="Yacute" unicode="&#xdd;" horiz-adv-x="892" 
d="M543 864h231l-162 -128h-181zM706 700h270l-421 -445l-46 -255h-222l45 254l-264 446h256l145 -267z" />
    <glyph glyph-name="Thorn" unicode="&#xde;" horiz-adv-x="878" 
d="M330 610h393q190 0 157 -192l-23 -136q-17 -97 -61 -134q-47 -38 -142 -38h-413l-19 -110h-222l124 700h222zM641 322l12 66q6 30 -5 42.5t-42 12.5h-306l-30 -174h311q30 0 42.5 11t17.5 42z" />
    <glyph glyph-name="germandbls" unicode="&#xdf;" horiz-adv-x="815" 
d="M273 700h396q164 0 137 -167l-8 -51q-10 -56 -31.5 -85.5t-59.5 -39.5q81 -29 63 -142l-10 -66q-14 -81 -54.5 -115t-122.5 -34h-249l27 152h145q25 0 36 9t15 34l9 53q5 24 -4 34.5t-34 10.5h-142l23 129h126q24 0 34 9t15 34l7 38q5 25 -3.5 35t-33.5 10h-205
q-25 0 -36 -9t-15 -34l-89 -505h-209l96 551q14 83 53.5 116t123.5 33z" />
    <glyph glyph-name="agrave" unicode="&#xe0;" horiz-adv-x="799" 
d="M472 700l68 -128h-159l-119 128h210zM260 536h354q190 0 156 -190l-61 -346h-176l-6 54q-44 -33 -81 -44q-33 -10 -104 -10h-217q-61 0 -91.5 36.5t-18.5 98.5l10 56q12 63 46 92t96 29h388l6 33q5 31 -5 43t-41 12h-186q-25 0 -35.5 -9t-14.5 -34l-2 -14h-202l7 43
q13 81 54.5 115.5t123.5 34.5zM262 123h170q40 0 69 21l28 20l5 28l4 22h-264q-22 0 -30.5 -7.5t-12.5 -29.5l-3 -15q-3 -22 4 -30.5t30 -8.5z" />
    <glyph glyph-name="aacute" unicode="&#xe1;" horiz-adv-x="799" 
d="M483 700h231l-162 -128h-181zM260 536h354q190 0 156 -190l-61 -346h-176l-6 54q-44 -33 -81 -44q-33 -10 -104 -10h-217q-61 0 -91.5 36.5t-18.5 98.5l10 56q12 63 46 92t96 29h388l6 33q5 31 -5 43t-41 12h-186q-25 0 -35.5 -9t-14.5 -34l-2 -14h-202l7 43
q13 81 54.5 115.5t123.5 34.5zM262 123h170q40 0 69 21l28 20l5 28l4 22h-264q-22 0 -30.5 -7.5t-12.5 -29.5l-3 -15q-3 -22 4 -30.5t30 -8.5z" />
    <glyph glyph-name="acircumflex" unicode="&#xe2;" horiz-adv-x="799" 
d="M552 572l-76 52l-94 -52h-157l154 128h206l110 -128h-143zM260 536h354q190 0 156 -190l-61 -346h-176l-6 54q-44 -33 -81 -44q-33 -10 -104 -10h-217q-61 0 -91.5 36.5t-18.5 98.5l10 56q12 63 46 92t96 29h388l6 33q5 31 -5 43t-41 12h-186q-25 0 -35.5 -9t-14.5 -34
l-2 -14h-202l7 43q13 81 54.5 115.5t123.5 34.5zM262 123h170q40 0 69 21l28 20l5 28l4 22h-264q-22 0 -30.5 -7.5t-12.5 -29.5l-3 -15q-3 -22 4 -30.5t30 -8.5z" />
    <glyph glyph-name="atilde" unicode="&#xe3;" horiz-adv-x="799" 
d="M368 625l-9 -53h-116l13 80q10 48 58 48h148q23 0 34.5 -5.5t21.5 -21.5l20 -28q4 -6 14 -6h14q7 0 9 8l9 53h117l-14 -80q-9 -48 -57 -48h-149q-24 0 -34.5 5t-21.5 22l-20 28q-5 6 -13 6h-14q-8 0 -10 -8zM260 536h354q190 0 156 -190l-61 -346h-176l-6 54
q-44 -33 -81 -44q-33 -10 -104 -10h-217q-61 0 -91.5 36.5t-18.5 98.5l10 56q12 63 46 92t96 29h388l6 33q5 31 -5 43t-41 12h-186q-25 0 -35.5 -9t-14.5 -34l-2 -14h-202l7 43q13 81 54.5 115.5t123.5 34.5zM262 123h170q40 0 69 21l28 20l5 28l4 22h-264q-22 0 -30.5 -7.5
t-12.5 -29.5l-3 -15q-3 -22 4 -30.5t30 -8.5z" />
    <glyph glyph-name="adieresis" unicode="&#xe4;" horiz-adv-x="799" 
d="M283 692h161l-20 -116h-161zM518 692h161l-20 -116h-161zM260 536h354q190 0 156 -190l-61 -346h-176l-6 54q-44 -33 -81 -44q-33 -10 -104 -10h-217q-61 0 -91.5 36.5t-18.5 98.5l10 56q12 63 46 92t96 29h388l6 33q5 31 -5 43t-41 12h-186q-25 0 -35.5 -9t-14.5 -34
l-2 -14h-202l7 43q13 81 54.5 115.5t123.5 34.5zM262 123h170q40 0 69 21l28 20l5 28l4 22h-264q-22 0 -30.5 -7.5t-12.5 -29.5l-3 -15q-3 -22 4 -30.5t30 -8.5z" />
    <glyph glyph-name="aring" unicode="&#xe5;" horiz-adv-x="799" 
d="M568 562h-215q-57 0 -47 57l4 28q5 29 19 41t44 12h215q57 0 48 -57l-5 -28q-5 -29 -19 -41t-44 -12zM383 637l-2 -12q-2 -11 0.5 -14.5t13.5 -3.5h143q11 0 14.5 3t5.5 15l3 12q2 11 -1 14.5t-13 3.5h-144q-11 0 -14.5 -3t-5.5 -15zM260 536h354q190 0 156 -190
l-61 -346h-176l-6 54q-44 -33 -81 -44q-33 -10 -104 -10h-217q-61 0 -91.5 36.5t-18.5 98.5l10 56q12 63 46 92t96 29h388l6 33q5 31 -5 43t-41 12h-186q-25 0 -35.5 -9t-14.5 -34l-2 -14h-202l7 43q13 81 54.5 115.5t123.5 34.5zM262 123h170q40 0 69 21l28 20l5 28l4 22
h-264q-22 0 -30.5 -7.5t-12.5 -29.5l-3 -15q-3 -22 4 -30.5t30 -8.5z" />
    <glyph glyph-name="ae" unicode="&#xe6;" horiz-adv-x="1303" 
d="M809 536h314q189 0 155 -190l-19 -107h-508l-6 -33q-5 -31 5 -43t41 -12h210q24 0 34.5 9t15.5 34l2 10h201l-10 -54q-15 -82 -55.5 -116t-121.5 -34h-350q-98 0 -136 50q-45 -32 -78 -41q-35 -9 -102 -9h-275q-62 0 -92.5 36.5t-18.5 98.5l11 56q12 63 46 92t95 29h388
l6 33q5 31 -5 43t-41 12h-186q-25 0 -35.5 -9.5t-14.5 -33.5l-2 -14h-202l7 43q13 81 54.5 115.5t123.5 34.5h314q78 0 111 -41q38 41 124 41zM772 355l-3 -14h308l2 12q5 31 -5 42.5t-41 11.5h-200q-31 0 -43.5 -10.5t-17.5 -41.5zM501 144l28 20l9 50h-264
q-22 0 -30.5 -7.5t-12.5 -29.5l-3 -15q-3 -22 4 -30.5t30 -8.5h170q40 0 69 21z" />
    <glyph glyph-name="ccedilla" unicode="&#xe7;" horiz-adv-x="776" 
d="M258 536h335q189 0 158 -192l-6 -39h-201l2 15q4 31 -6 43t-41 12h-181q-31 0 -43.5 -10.5t-17.5 -41.5l-19 -107q-5 -31 5.5 -43t41.5 -12h181q31 0 43.5 10.5t17.5 41.5l4 23h201l-11 -64q-16 -96 -62 -134t-141 -38h-156l-11 -22h79q58 0 47 -57l-5 -28
q-5 -30 -19 -41.5t-43 -11.5h-212l11 60h157q8 0 11 8l1 8q3 9 -8 9h-111l5 28l23 47h-104q-191 0 -158 192l30 172q17 98 62 134q46 38 141 38z" />
    <glyph glyph-name="egrave" unicode="&#xe8;" horiz-adv-x="794" 
d="M463 700l68 -128h-159l-119 128h210zM259 536h355q95 0 133 -46.5t22 -142.5l-18 -108h-508l-6 -33q-5 -31 4.5 -43t40.5 -12h209q24 0 34.5 9t15.5 34l2 10h202l-10 -53q-15 -83 -55 -117t-121 -34h-379q-188 0 -155 190l30 172q16 96 62 135t142 39zM263 355l-2 -14
h306l2 12q5 31 -4.5 42.5t-40.5 11.5h-200q-30 0 -43 -11t-18 -41z" />
    <glyph glyph-name="eacute" unicode="&#xe9;" horiz-adv-x="794" 
d="M474 700h231l-162 -128h-181zM259 536h355q95 0 133 -46.5t22 -142.5l-18 -108h-508l-6 -33q-5 -31 4.5 -43t40.5 -12h209q24 0 34.5 9t15.5 34l2 10h202l-10 -53q-15 -83 -55 -117t-121 -34h-379q-188 0 -155 190l30 172q16 96 62 135t142 39zM263 355l-2 -14h306l2 12
q5 31 -4.5 42.5t-40.5 11.5h-200q-30 0 -43 -11t-18 -41z" />
    <glyph glyph-name="ecircumflex" unicode="&#xea;" horiz-adv-x="794" 
d="M543 572l-76 52l-94 -52h-157l154 128h206l110 -128h-143zM259 536h355q95 0 133 -46.5t22 -142.5l-18 -108h-508l-6 -33q-5 -31 4.5 -43t40.5 -12h209q24 0 34.5 9t15.5 34l2 10h202l-10 -53q-15 -83 -55 -117t-121 -34h-379q-188 0 -155 190l30 172q16 96 62 135
t142 39zM263 355l-2 -14h306l2 12q5 31 -4.5 42.5t-40.5 11.5h-200q-30 0 -43 -11t-18 -41z" />
    <glyph glyph-name="edieresis" unicode="&#xeb;" horiz-adv-x="794" 
d="M274 692h161l-20 -116h-161zM509 692h161l-20 -116h-161zM259 536h355q95 0 133 -46.5t22 -142.5l-18 -108h-508l-6 -33q-5 -31 4.5 -43t40.5 -12h209q24 0 34.5 9t15.5 34l2 10h202l-10 -53q-15 -83 -55 -117t-121 -34h-379q-188 0 -155 190l30 172q16 96 62 135t142 39
zM263 355l-2 -14h306l2 12q5 31 -4.5 42.5t-40.5 11.5h-200q-30 0 -43 -11t-18 -41z" />
    <glyph glyph-name="igrave" unicode="&#xec;" horiz-adv-x="313" 
d="M290 572h-159l-119 128h210zM215 0h-212l95 536h212z" />
    <glyph glyph-name="iacute" unicode="&#xed;" horiz-adv-x="313" 
d="M464 700l-162 -128h-181l112 128h231zM215 0h-212l95 536h212z" />
    <glyph glyph-name="icircumflex" unicode="&#xee;" horiz-adv-x="313" 
d="M132 572h-157l154 128h206l110 -128h-143l-76 52zM215 0h-212l95 536h212z" />
    <glyph glyph-name="idieresis" unicode="&#xef;" horiz-adv-x="313" 
d="M174 576h-161l20 116h161zM409 576h-161l20 116h161zM215 0h-212l95 536h212z" />
    <glyph glyph-name="eth" unicode="&#xf0;" horiz-adv-x="804" 
d="M557 700h73q103 0 148 -54.5t27 -158.5l-60 -338q-14 -82 -53.5 -115.5t-120.5 -33.5h-412q-82 0 -118 43t-21 124l23 128q14 82 54 115.5t121 33.5h256q83 0 108 -37l13 77q7 36 -6 51t-49 15h-107l-45 -54h-120l45 54h-145l26 150h244l50 60h119zM272 148h222
q24 0 34.5 9t15.5 34l13 75q2 21 -6.5 29t-32.5 8h-221q-25 0 -36 -9t-15 -34l-11 -67q-4 -25 4 -35t33 -10z" />
    <glyph glyph-name="ntilde" unicode="&#xf1;" horiz-adv-x="807" 
d="M365 625l-9 -53h-116l13 80q11 48 58 48h148q23 0 34.5 -5.5t21.5 -21.5l20 -28q5 -6 14 -6h14q7 0 9 8l9 53h117l-14 -80q-9 -48 -57 -48h-149q-24 0 -34.5 5t-21.5 22l-20 28q-4 6 -13 6h-14q-8 0 -10 -8zM471 536h149q192 0 157 -192l-60 -344h-209l55 315
q6 31 -4.5 43t-41.5 12h-144q-53 0 -81 -22l-25 -19l-59 -329h-209l95 536h175l6 -60q52 39 87 49q39 11 109 11z" />
    <glyph glyph-name="ograve" unicode="&#xf2;" horiz-adv-x="804" 
d="M536 572h-159l-119 128h210zM546 0h-363q-191 0 -158 192l30 172q17 98 62 134q46 38 141 38h363q191 0 158 -192l-30 -172q-17 -97 -61 -134q-47 -38 -142 -38zM285 161h201q31 0 43.5 10.5t17.5 41.5l19 107q5 31 -5.5 43t-41.5 12h-201q-31 0 -43.5 -10.5t-17.5 -41.5
l-19 -107q-5 -31 5.5 -43t41.5 -12z" />
    <glyph glyph-name="oacute" unicode="&#xf3;" horiz-adv-x="804" 
d="M710 700l-162 -128h-181l112 128h231zM546 0h-363q-191 0 -158 192l30 172q17 98 62 134q46 38 141 38h363q191 0 158 -192l-30 -172q-17 -97 -61 -134q-47 -38 -142 -38zM285 161h201q31 0 43.5 10.5t17.5 41.5l19 107q5 31 -5.5 43t-41.5 12h-201q-31 0 -43.5 -10.5
t-17.5 -41.5l-19 -107q-5 -31 5.5 -43t41.5 -12z" />
    <glyph glyph-name="ocircumflex" unicode="&#xf4;" horiz-adv-x="804" 
d="M378 572h-157l154 128h206l110 -128h-143l-76 52zM546 0h-363q-191 0 -158 192l30 172q17 98 62 134q46 38 141 38h363q191 0 158 -192l-30 -172q-17 -97 -61 -134q-47 -38 -142 -38zM285 161h201q31 0 43.5 10.5t17.5 41.5l19 107q5 31 -5.5 43t-41.5 12h-201
q-31 0 -43.5 -10.5t-17.5 -41.5l-19 -107q-5 -31 5.5 -43t41.5 -12z" />
    <glyph glyph-name="otilde" unicode="&#xf5;" horiz-adv-x="804" 
d="M355 572h-116l13 80q10 48 58 48h148q23 0 34.5 -5.5t21.5 -21.5l20 -28q4 -6 14 -6h14q7 0 9 8l9 53h117l-14 -80q-9 -48 -57 -48h-149q-24 0 -34.5 5t-21.5 22l-20 28q-5 6 -13 6h-14q-8 0 -10 -8zM546 0h-363q-191 0 -158 192l30 172q17 98 62 134q46 38 141 38h363
q191 0 158 -192l-30 -172q-17 -97 -61 -134q-47 -38 -142 -38zM285 161h201q31 0 43.5 10.5t17.5 41.5l19 107q5 31 -5.5 43t-41.5 12h-201q-31 0 -43.5 -10.5t-17.5 -41.5l-19 -107q-5 -31 5.5 -43t41.5 -12z" />
    <glyph glyph-name="odieresis" unicode="&#xf6;" horiz-adv-x="804" 
d="M420 576h-161l20 116h161zM655 576h-161l20 116h161zM546 0h-363q-191 0 -158 192l30 172q17 98 62 134q46 38 141 38h363q191 0 158 -192l-30 -172q-17 -97 -61 -134q-47 -38 -142 -38zM285 161h201q31 0 43.5 10.5t17.5 41.5l19 107q5 31 -5.5 43t-41.5 12h-201
q-31 0 -43.5 -10.5t-17.5 -41.5l-19 -107q-5 -31 5.5 -43t41.5 -12z" />
    <glyph glyph-name="divide" unicode="&#xf7;" 
d="M597 520h-242l30 164h242zM55 263l30 174h752l-30 -174h-752zM508 16h-242l30 164h242z" />
    <glyph glyph-name="oslash" unicode="&#xf8;" horiz-adv-x="804" 
d="M716 568h133l-97 -76q44 -47 27 -148l-30 -172q-17 -97 -61 -134q-47 -38 -142 -38h-363q-33 0 -50 4l-45 -36h-133l97 76q-44 47 -27 148l30 172q17 98 62 134q46 38 141 38h363q33 0 50 -4zM236 339l-25 -139q-3 -15 -1 -31l282 222h-196q-31 0 -43 -10.5t-17 -41.5z
M568 197l25 139q3 15 1 31l-282 -222h196q31 0 43 10.5t17 41.5z" />
    <glyph glyph-name="ugrave" unicode="&#xf9;" horiz-adv-x="807" 
d="M469 700l68 -128h-159l-119 128h210zM599 536h209l-95 -536h-175l-6 60q-52 -39 -87 -49q-39 -11 -109 -11h-149q-191 0 -157 192l60 344h209l-55 -315q-6 -31 4.5 -43t41.5 -12h144q53 0 81 22l25 19z" />
    <glyph glyph-name="uacute" unicode="&#xfa;" horiz-adv-x="807" 
d="M480 700h231l-162 -128h-181zM599 536h209l-95 -536h-175l-6 60q-52 -39 -87 -49q-39 -11 -109 -11h-149q-191 0 -157 192l60 344h209l-55 -315q-6 -31 4.5 -43t41.5 -12h144q53 0 81 22l25 19z" />
    <glyph glyph-name="ucircumflex" unicode="&#xfb;" horiz-adv-x="807" 
d="M549 572l-76 52l-94 -52h-157l154 128h206l110 -128h-143zM599 536h209l-95 -536h-175l-6 60q-52 -39 -87 -49q-39 -11 -109 -11h-149q-191 0 -157 192l60 344h209l-55 -315q-6 -31 4.5 -43t41.5 -12h144q53 0 81 22l25 19z" />
    <glyph glyph-name="udieresis" unicode="&#xfc;" horiz-adv-x="807" 
d="M280 692h161l-20 -116h-161zM515 692h161l-20 -116h-161zM599 536h209l-95 -536h-175l-6 60q-52 -39 -87 -49q-39 -11 -109 -11h-149q-191 0 -157 192l60 344h209l-55 -315q-6 -31 4.5 -43t41.5 -12h144q53 0 81 22l25 19z" />
    <glyph glyph-name="yacute" unicode="&#xfd;" horiz-adv-x="798" 
d="M466 700h231l-162 -128h-181zM379 205l223 331h245l-409 -543q-71 -96 -126 -125q-53 -28 -167 -28h-165l29 161h154q33 0 49.5 6t33.5 26l-199 503h227z" />
    <glyph glyph-name="thorn" unicode="&#xfe;" horiz-adv-x="812" 
d="M469 536h163q95 0 133.5 -46.5t22.5 -143.5l-31 -172q-16 -96 -62 -135t-142 -39h-171q-67 0 -100 9q-33 7 -66 37l-36 -206h-209l152 860h209l-37 -209q39 28 75 37q37 8 99 8zM555 213l19 107q5 31 -5 43t-41 12h-155q-49 0 -80 -22l-26 -20l-23 -131l19 -19
q22 -22 75 -22h157q31 0 43 10.5t17 41.5z" />
    <glyph glyph-name="ydieresis" unicode="&#xff;" horiz-adv-x="798" 
d="M266 692h161l-20 -116h-161zM501 692h161l-20 -116h-161zM379 205l223 331h245l-409 -543q-71 -96 -126 -125q-53 -28 -167 -28h-165l29 161h154q33 0 49.5 6t33.5 26l-199 503h227z" />
    <glyph glyph-name="Amacron" unicode="&#x100;" horiz-adv-x="960" 
d="M355 848h456l-17 -95h-456zM915 0h-238l-32 113h-370l-72 -113h-254l482 700h251zM531 517l-159 -251h230z" />
    <glyph glyph-name="amacron" unicode="&#x101;" horiz-adv-x="799" 
d="M252 684h456l-17 -95h-456zM260 536h354q190 0 156 -190l-61 -346h-176l-6 54q-44 -33 -81 -44q-33 -10 -104 -10h-217q-61 0 -91.5 36.5t-18.5 98.5l10 56q12 63 46 92t96 29h388l6 33q5 31 -5 43t-41 12h-186q-25 0 -35.5 -9t-14.5 -34l-2 -14h-202l7 43
q13 81 54.5 115.5t123.5 34.5zM262 123h170q40 0 69 21l28 20l5 28l4 22h-264q-22 0 -30.5 -7.5t-12.5 -29.5l-3 -15q-3 -22 4 -30.5t30 -8.5z" />
    <glyph glyph-name="Abreve" unicode="&#x102;" horiz-adv-x="960" 
d="M710 736h-292q-78 0 -64 77l9 51h140l-4 -24q-4 -25 22 -25h112q24 0 28 25l4 24h140l-9 -55q-6 -39 -26.5 -56t-59.5 -17zM915 0h-238l-32 113h-370l-72 -113h-254l482 700h251zM531 517l-159 -251h230z" />
    <glyph glyph-name="abreve" unicode="&#x103;" horiz-adv-x="799" 
d="M607 572h-292q-78 0 -64 77l9 51h140l-4 -24q-4 -25 22 -25h112q24 0 28 25l4 24h140l-9 -55q-6 -39 -26.5 -56t-59.5 -17zM260 536h354q190 0 156 -190l-61 -346h-176l-6 54q-44 -33 -81 -44q-33 -10 -104 -10h-217q-61 0 -91.5 36.5t-18.5 98.5l10 56q12 63 46 92
t96 29h388l6 33q5 31 -5 43t-41 12h-186q-25 0 -35.5 -9t-14.5 -34l-2 -14h-202l7 43q13 81 54.5 115.5t123.5 34.5zM262 123h170q40 0 69 21l28 20l5 28l4 22h-264q-22 0 -30.5 -7.5t-12.5 -29.5l-3 -15q-3 -22 4 -30.5t30 -8.5z" />
    <glyph glyph-name="Aogonek" unicode="&#x104;" horiz-adv-x="960" 
d="M704 -28l-1 -7q-1 -19 16 -19h160l-19 -106h-217q-43 0 -59.5 20.5t-11.5 65.5l2 16q4 31 17 50t46 42l26 15l-18 64h-370l-72 -113h-254l482 700h251l233 -700h-185l-10 -6q-15 -10 -16 -22zM531 517l-159 -251h230z" />
    <glyph glyph-name="aogonek" unicode="&#x105;" horiz-adv-x="798" 
d="M601 -28v-7q-1 -19 15 -19h96l-19 -106h-153q-42 0 -58.5 21t-11.5 65l2 16q4 31 16 49.5t42 39.5l-3 23q-44 -33 -81 -44q-33 -10 -104 -10h-217q-61 0 -91.5 36.5t-18.5 98.5l10 56q12 63 46 92t96 29h388l6 33q5 31 -5 43t-41 12h-186q-25 0 -35.5 -9t-14.5 -34
l-2 -14h-202l7 43q13 81 54.5 115.5t123.5 34.5h354q190 0 156 -190l-61 -346h-82l-9 -6q-15 -10 -17 -22zM262 123h170q40 0 69 21l28 20l5 28l4 22h-264q-22 0 -30.5 -7.5t-12.5 -29.5l-3 -15q-3 -22 4 -30.5t30 -8.5z" />
    <glyph glyph-name="Cacute" unicode="&#x106;" horiz-adv-x="905" 
d="M789 864l-162 -128h-181l112 128h231zM628 0h-424q-103 0 -148 54t-26 158l52 296q19 104 71 148t155 44h424q103 0 148 -54t26 -158l-13 -79h-215l9 45q6 35 -6.5 50.5t-48.5 15.5h-263q-36 0 -51.5 -13.5t-22.5 -48.5l-38 -212q-6 -35 6.5 -50.5t48.5 -15.5h263
q36 0 51.5 13.5t22.5 48.5l9 56h214l-18 -106q-19 -104 -71 -148t-155 -44z" />
    <glyph glyph-name="cacute" unicode="&#x107;" horiz-adv-x="776" 
d="M696 700l-162 -128h-181l112 128h231zM518 0h-335q-191 0 -158 192l30 172q17 98 62 134q46 38 141 38h335q189 0 158 -192l-6 -39h-201l2 15q4 31 -6 43t-41 12h-181q-31 0 -43.5 -10.5t-17.5 -41.5l-19 -107q-5 -31 5.5 -43t41.5 -12h181q31 0 43.5 10.5t17.5 41.5
l4 23h201l-11 -64q-16 -96 -62 -134t-141 -38z" />
    <glyph glyph-name="Ccircumflex" unicode="&#x108;" horiz-adv-x="905" 
d="M457 736h-157l154 128h206l110 -128h-143l-76 52zM628 0h-424q-103 0 -148 54t-26 158l52 296q19 104 71 148t155 44h424q103 0 148 -54t26 -158l-13 -79h-215l9 45q6 35 -6.5 50.5t-48.5 15.5h-263q-36 0 -51.5 -13.5t-22.5 -48.5l-38 -212q-6 -35 6.5 -50.5t48.5 -15.5
h263q36 0 51.5 13.5t22.5 48.5l9 56h214l-18 -106q-19 -104 -71 -148t-155 -44z" />
    <glyph glyph-name="ccircumflex" unicode="&#x109;" horiz-adv-x="776" 
d="M364 572h-157l154 128h206l110 -128h-143l-76 52zM518 0h-335q-191 0 -158 192l30 172q17 98 62 134q46 38 141 38h335q189 0 158 -192l-6 -39h-201l2 15q4 31 -6 43t-41 12h-181q-31 0 -43.5 -10.5t-17.5 -41.5l-19 -107q-5 -31 5.5 -43t41.5 -12h181q31 0 43.5 10.5
t17.5 41.5l4 23h201l-11 -64q-16 -96 -62 -134t-141 -38z" />
    <glyph glyph-name="Cdotaccent" unicode="&#x10a;" horiz-adv-x="905" 
d="M643 740h-213l20 116h212zM628 0h-424q-103 0 -148 54t-26 158l52 296q19 104 71 148t155 44h424q103 0 148 -54t26 -158l-13 -79h-215l9 45q6 35 -6.5 50.5t-48.5 15.5h-263q-36 0 -51.5 -13.5t-22.5 -48.5l-38 -212q-6 -35 6.5 -50.5t48.5 -15.5h263q36 0 51.5 13.5
t22.5 48.5l9 56h214l-18 -106q-19 -104 -71 -148t-155 -44z" />
    <glyph glyph-name="cdotaccent" unicode="&#x10b;" horiz-adv-x="776" 
d="M550 576h-213l20 116h212zM518 0h-335q-191 0 -158 192l30 172q17 98 62 134q46 38 141 38h335q189 0 158 -192l-6 -39h-201l2 15q4 31 -6 43t-41 12h-181q-31 0 -43.5 -10.5t-17.5 -41.5l-19 -107q-5 -31 5.5 -43t41.5 -12h181q31 0 43.5 10.5t17.5 41.5l4 23h201
l-11 -64q-16 -96 -62 -134t-141 -38z" />
    <glyph glyph-name="Ccaron" unicode="&#x10c;" horiz-adv-x="905" 
d="M635 864h157l-154 -128h-206l-110 128h143l76 -52zM628 0h-424q-103 0 -148 54t-26 158l52 296q19 104 71 148t155 44h424q103 0 148 -54t26 -158l-13 -79h-215l9 45q6 35 -6.5 50.5t-48.5 15.5h-263q-36 0 -51.5 -13.5t-22.5 -48.5l-38 -212q-6 -35 6.5 -50.5
t48.5 -15.5h263q36 0 51.5 13.5t22.5 48.5l9 56h214l-18 -106q-19 -104 -71 -148t-155 -44z" />
    <glyph glyph-name="ccaron" unicode="&#x10d;" horiz-adv-x="776" 
d="M542 700h157l-154 -128h-206l-110 128h143l76 -52zM518 0h-335q-191 0 -158 192l30 172q17 98 62 134q46 38 141 38h335q189 0 158 -192l-6 -39h-201l2 15q4 31 -6 43t-41 12h-181q-31 0 -43.5 -10.5t-17.5 -41.5l-19 -107q-5 -31 5.5 -43t41.5 -12h181q31 0 43.5 10.5
t17.5 41.5l4 23h201l-11 -64q-16 -96 -62 -134t-141 -38z" />
    <glyph glyph-name="Dcaron" unicode="&#x10e;" horiz-adv-x="934" 
d="M649 864h157l-154 -128h-206l-110 128h143l76 -52zM610 0h-610l124 700h582q120 0 180 -71q60 -72 38 -193l-36 -200q-22 -123 -89 -179.5t-189 -56.5zM314 517l-59 -334h326q41 0 62 18t28 59l30 173q15 84 -69 84h-318z" />
    <glyph glyph-name="dcaron" unicode="&#x10f;" horiz-adv-x="1006" 
d="M596 490l37 210h209l-124 -700h-175l-5 60q-48 -38 -86 -49t-108 -11h-164q-95 0 -133 46.5t-22 143.5l30 172q16 96 62.5 135t142.5 39h171q64 0 101 -8q31 -9 64 -38zM861 568l23 132h194l-11 -64q-8 -39 -17 -57q-9 -20 -36 -56l-55 -75h-112l77 120h-63zM284 161h155
q49 0 80 22l26 20l24 131l-20 19q-22 22 -75 22h-157q-30 0 -42.5 -10.5t-17.5 -41.5l-19 -107q-5 -31 5 -43t41 -12z" />
    <glyph glyph-name="Dcroat" unicode="&#x110;" horiz-adv-x="994" 
d="M184 700h582q120 0 180 -71q60 -72 38 -193l-36 -200q-22 -123 -89 -179.5t-189 -56.5h-610l51 289h-83l21 122h84zM731 260l30 173q15 84 -69 84h-318l-19 -106h232l-21 -122h-232l-19 -106h326q41 0 62 18t28 59z" />
    <glyph glyph-name="dslash" unicode="&#x111;" horiz-adv-x="854" 
d="M834 656h74l-16 -88h-73l-101 -568h-175l-5 60q-48 -38 -86 -49t-108 -11h-164q-95 0 -133 46.5t-22 143.5l30 172q16 96 62.5 135t142.5 39h171q64 0 101 -8q31 -9 64 -38l14 78h-208l16 88h207l8 44h209zM284 161h155q49 0 80 22l26 20l24 131l-20 19q-22 22 -75 22
h-157q-30 0 -42.5 -10.5t-17.5 -41.5l-19 -107q-5 -31 5 -43t41 -12z" />
    <glyph glyph-name="Emacron" unicode="&#x112;" horiz-adv-x="812" 
d="M281 848h456l-17 -95h-456zM854 700l-30 -171h-508l-18 -99h468l-25 -146h-469l-20 -113h519l-31 -171h-740l124 700h730z" />
    <glyph glyph-name="emacron" unicode="&#x113;" horiz-adv-x="794" 
d="M243 684h456l-17 -95h-456zM259 536h355q95 0 133 -46.5t22 -142.5l-18 -108h-508l-6 -33q-5 -31 4.5 -43t40.5 -12h209q24 0 34.5 9t15.5 34l2 10h202l-10 -53q-15 -83 -55 -117t-121 -34h-379q-188 0 -155 190l30 172q16 96 62 135t142 39zM263 355l-2 -14h306l2 12
q5 31 -4.5 42.5t-40.5 11.5h-200q-30 0 -43 -11t-18 -41z" />
    <glyph glyph-name="Ebreve" unicode="&#x114;" horiz-adv-x="812" 
d="M636 736h-292q-78 0 -64 77l9 51h140l-4 -24q-4 -25 22 -25h112q24 0 28 25l4 24h140l-9 -55q-6 -39 -26.5 -56t-59.5 -17zM854 700l-30 -171h-508l-18 -99h468l-25 -146h-469l-20 -113h519l-31 -171h-740l124 700h730z" />
    <glyph glyph-name="ebreve" unicode="&#x115;" horiz-adv-x="794" 
d="M598 572h-292q-78 0 -64 77l9 51h140l-4 -24q-4 -25 22 -25h112q24 0 28 25l4 24h140l-9 -55q-6 -39 -26.5 -56t-59.5 -17zM259 536h355q95 0 133 -46.5t22 -142.5l-18 -108h-508l-6 -33q-5 -31 4.5 -43t40.5 -12h209q24 0 34.5 9t15.5 34l2 10h202l-10 -53
q-15 -83 -55 -117t-121 -34h-379q-188 0 -155 190l30 172q16 96 62 135t142 39zM263 355l-2 -14h306l2 12q5 31 -4.5 42.5t-40.5 11.5h-200q-30 0 -43 -11t-18 -41z" />
    <glyph glyph-name="Edotaccent" unicode="&#x116;" horiz-adv-x="812" 
d="M404 856h212l-19 -116h-213zM854 700l-30 -171h-508l-18 -99h468l-25 -146h-469l-20 -113h519l-31 -171h-740l124 700h730z" />
    <glyph glyph-name="edotaccent" unicode="&#x117;" horiz-adv-x="794" 
d="M366 692h212l-19 -116h-213zM259 536h355q95 0 133 -46.5t22 -142.5l-18 -108h-508l-6 -33q-5 -31 4.5 -43t40.5 -12h209q24 0 34.5 9t15.5 34l2 10h202l-10 -53q-15 -83 -55 -117t-121 -34h-379q-188 0 -155 190l30 172q16 96 62 135t142 39zM263 355l-2 -14h306l2 12
q5 31 -4.5 42.5t-40.5 11.5h-200q-30 0 -43 -11t-18 -41z" />
    <glyph glyph-name="Eogonek" unicode="&#x118;" horiz-adv-x="812" 
d="M854 700l-30 -171h-508l-18 -99h468l-25 -146h-469l-20 -113h519l-31 -171h-171l-10 -6q-15 -10 -16 -22l-1 -7q-1 -19 16 -19h160l-19 -106h-217q-43 0 -59.5 20.5t-11.5 65.5l2 16q5 38 23 58h-436l124 700h730z" />
    <glyph glyph-name="eogonek" unicode="&#x119;" horiz-adv-x="794" 
d="M259 536h355q95 0 133 -46.5t22 -142.5l-18 -108h-508l-6 -33q-5 -31 4.5 -43t40.5 -12h209q24 0 34.5 9t15.5 34l2 10h202l-10 -53q-15 -83 -55 -117t-121 -34h-74l-10 -6q-15 -10 -16 -22l-1 -7q-1 -19 16 -19h160l-19 -106h-217q-43 0 -59.5 20.5t-11.5 65.5l2 16
q5 38 23 58h-172q-188 0 -155 190l30 172q16 96 62 135t142 39zM263 355l-2 -14h306l2 12q5 31 -4.5 42.5t-40.5 11.5h-200q-30 0 -43 -11t-18 -41z" />
    <glyph glyph-name="Ecaron" unicode="&#x11a;" horiz-adv-x="812" 
d="M746 864l-154 -128h-206l-110 128h143l76 -52l94 52h157zM854 700l-30 -171h-508l-18 -99h468l-25 -146h-469l-20 -113h519l-31 -171h-740l124 700h730z" />
    <glyph glyph-name="ecaron" unicode="&#x11b;" horiz-adv-x="794" 
d="M708 700l-154 -128h-206l-110 128h143l76 -52l94 52h157zM259 536h355q95 0 133 -46.5t22 -142.5l-18 -108h-508l-6 -33q-5 -31 4.5 -43t40.5 -12h209q24 0 34.5 9t15.5 34l2 10h202l-10 -53q-15 -83 -55 -117t-121 -34h-379q-188 0 -155 190l30 172q16 96 62 135t142 39
zM263 355l-2 -14h306l2 12q5 31 -4.5 42.5t-40.5 11.5h-200q-30 0 -43 -11t-18 -41z" />
    <glyph glyph-name="Gcircumflex" unicode="&#x11c;" horiz-adv-x="935" 
d="M457 736h-157l154 128h206l110 -128h-143l-76 52zM656 0h-452q-102 0 -147.5 55t-26.5 157l53 296q19 104 70.5 148t154.5 44h452q103 0 148 -54t27 -158l-8 -46h-223l3 18q6 36 -6.5 51t-48.5 15h-283q-36 0 -51.5 -13t-21.5 -49l-41 -236q-7 -35 6 -50.5t48 -15.5h291
q36 0 51 13.5t22 49.5l6 28h-213l24 141h427l-35 -202q-18 -104 -70.5 -148t-155.5 -44z" />
    <glyph glyph-name="gcircumflex" unicode="&#x11d;" horiz-adv-x="813" 
d="M543 572l-76 52l-94 -52h-157l154 128h206l110 -128h-143zM614 476l27 60h176l-89 -501q-19 -104 -72.5 -149.5t-156.5 -45.5h-514l26 148h434q36 0 53 14t23 50l7 41q-43 -30 -75 -37q-35 -9 -99 -9h-164q-96 0 -133.5 46t-20.5 142l21 125q17 97 64 136.5t143 39.5h170
q72 0 108 -11q33 -10 72 -49zM528 216l26 19l11 64l8 45l-19 19q-22 22 -75 22h-156q-31 0 -43.5 -11t-17.5 -42l-15 -84q-5 -31 4.5 -42.5t40.5 -11.5h155q50 0 81 22z" />
    <glyph glyph-name="Gbreve" unicode="&#x11e;" horiz-adv-x="935" 
d="M682 736h-292q-78 0 -64 77l9 51h140l-4 -24q-4 -25 22 -25h112q24 0 28 25l4 24h140l-9 -55q-6 -39 -26.5 -56t-59.5 -17zM656 0h-452q-102 0 -147.5 55t-26.5 157l53 296q19 104 70.5 148t154.5 44h452q103 0 148 -54t27 -158l-8 -46h-223l3 18q6 36 -6.5 51t-48.5 15
h-283q-36 0 -51.5 -13t-21.5 -49l-41 -236q-7 -35 6 -50.5t48 -15.5h291q36 0 51 13.5t22 49.5l6 28h-213l24 141h427l-35 -202q-18 -104 -70.5 -148t-155.5 -44z" />
    <glyph glyph-name="gbreve" unicode="&#x11f;" horiz-adv-x="813" 
d="M598 572h-292q-78 0 -64 77l9 51h140l-4 -24q-4 -25 22 -25h112q24 0 28 25l4 24h140l-9 -55q-6 -39 -26.5 -56t-59.5 -17zM614 476l27 60h176l-89 -501q-19 -104 -72.5 -149.5t-156.5 -45.5h-514l26 148h434q36 0 53 14t23 50l7 41q-43 -30 -75 -37q-35 -9 -99 -9h-164
q-96 0 -133.5 46t-20.5 142l21 125q17 97 64 136.5t143 39.5h170q72 0 108 -11q33 -10 72 -49zM528 216l26 19l11 64l8 45l-19 19q-22 22 -75 22h-156q-31 0 -43.5 -11t-17.5 -42l-15 -84q-5 -31 4.5 -42.5t40.5 -11.5h155q50 0 81 22z" />
    <glyph glyph-name="Gdotaccent" unicode="&#x120;" horiz-adv-x="935" 
d="M643 740h-213l20 116h212zM656 0h-452q-102 0 -147.5 55t-26.5 157l53 296q19 104 70.5 148t154.5 44h452q103 0 148 -54t27 -158l-8 -46h-223l3 18q6 36 -6.5 51t-48.5 15h-283q-36 0 -51.5 -13t-21.5 -49l-41 -236q-7 -35 6 -50.5t48 -15.5h291q36 0 51 13.5t22 49.5
l6 28h-213l24 141h427l-35 -202q-18 -104 -70.5 -148t-155.5 -44z" />
    <glyph glyph-name="gdotaccent" unicode="&#x121;" horiz-adv-x="813" 
d="M366 692h212l-19 -116h-213zM614 476l27 60h176l-89 -501q-19 -104 -72.5 -149.5t-156.5 -45.5h-514l26 148h434q36 0 53 14t23 50l7 41q-43 -30 -75 -37q-35 -9 -99 -9h-164q-96 0 -133.5 46t-20.5 142l21 125q17 97 64 136.5t143 39.5h170q72 0 108 -11q33 -10 72 -49z
M528 216l26 19l11 64l8 45l-19 19q-22 22 -75 22h-156q-31 0 -43.5 -11t-17.5 -42l-15 -84q-5 -31 4.5 -42.5t40.5 -11.5h155q50 0 81 22z" />
    <glyph glyph-name="Gcommaaccent" unicode="&#x122;" horiz-adv-x="935" 
d="M656 0h-452q-102 0 -147.5 55t-26.5 157l53 296q19 104 70.5 148t154.5 44h452q103 0 148 -54t27 -158l-8 -46h-223l3 18q6 36 -6.5 51t-48.5 15h-283q-36 0 -51.5 -13t-21.5 -49l-41 -236q-7 -35 6 -50.5t48 -15.5h291q36 0 51 13.5t22 49.5l6 28h-213l24 141h427
l-35 -202q-18 -104 -70.5 -148t-155.5 -44zM417 -232h-111l71 94h-63l19 108h194l-6 -36q-8 -39 -16 -57q-11 -18 -39 -51z" />
    <glyph glyph-name="gcommaaccent" unicode="&#x123;" horiz-adv-x="813" 
d="M510 680h57l-19 -108h-188l6 36q8 38 16 56q9 18 37 52l48 58h111zM614 476l27 60h176l-89 -501q-19 -104 -72.5 -149.5t-156.5 -45.5h-514l26 148h434q36 0 53 14t23 50l7 41q-43 -30 -75 -37q-35 -9 -99 -9h-164q-96 0 -133.5 46t-20.5 142l21 125q17 97 64 136.5
t143 39.5h170q72 0 108 -11q33 -10 72 -49zM528 216l26 19l11 64l8 45l-19 19q-22 22 -75 22h-156q-31 0 -43.5 -11t-17.5 -42l-15 -84q-5 -31 4.5 -42.5t40.5 -11.5h155q50 0 81 22z" />
    <glyph glyph-name="Hcircumflex" unicode="&#x124;" horiz-adv-x="922" 
d="M635 736l-76 52l-94 -52h-157l154 128h206l110 -128h-143zM684 458l43 242h222l-124 -700h-222l47 266h-382l-47 -266h-222l124 700h222l-43 -242h382z" />
    <glyph glyph-name="hcircumflex" unicode="&#x125;" horiz-adv-x="807" 
d="M325 736l-76 52l-94 -52h-157l154 128h206l110 -128h-143zM476 536h144q192 0 157 -192l-60 -344h-209l55 315q6 31 -4.5 43t-41.5 12h-145q-49 0 -80 -22l-26 -19l-58 -329h-209l124 700h209l-38 -215q43 33 79 42q34 9 103 9z" />
    <glyph glyph-name="Hbar" unicode="&#x126;" horiz-adv-x="1042" 
d="M997 632h85l-19 -109h-85l-93 -523h-222l47 266h-382l-47 -266h-222l93 523h-83l19 109h83l12 68h222l-12 -68h382l12 68h222zM362 458h382l12 65h-382z" />
    <glyph glyph-name="hbar" unicode="&#x127;" horiz-adv-x="848" 
d="M520 536h144q191 0 157 -192l-60 -344h-209l55 315q6 31 -4.5 43t-41.5 12h-145q-49 0 -80 -22l-26 -19l-58 -329h-209l101 568h-77l16 88h76l8 44h209l-8 -44h205l-16 -88h-204l-15 -83q43 33 79 42q35 9 103 9z" />
    <glyph glyph-name="Itilde" unicode="&#x128;" horiz-adv-x="330" 
d="M146 736h-116l13 80q11 48 58 48h148q23 0 34.5 -5.5t21.5 -21.5l20 -28q4 -6 14 -6h14q7 0 9 8l9 53h117l-14 -80q-9 -48 -57 -48h-149q-24 0 -34.5 5t-21.5 22l-20 28q-4 6 -13 6h-14q-8 0 -10 -8zM5 0l124 700h225l-124 -700h-225z" />
    <glyph glyph-name="itilde" unicode="&#x129;" horiz-adv-x="313" 
d="M109 572h-116l13 80q11 48 58 48h148q23 0 34.5 -5.5t21.5 -21.5l20 -28q4 -6 14 -6h14q7 0 9 8l9 53h117l-14 -80q-9 -48 -57 -48h-149q-24 0 -34.5 5t-21.5 22l-20 28q-5 6 -13 6h-14q-8 0 -10 -8zM215 0h-212l95 536h212z" />
    <glyph glyph-name="Imacron" unicode="&#x12a;" horiz-adv-x="330" 
d="M478 753h-456l17 95h456zM5 0l124 700h225l-124 -700h-225z" />
    <glyph glyph-name="imacron" unicode="&#x12b;" horiz-adv-x="313" 
d="M441 589h-456l17 95h456zM215 0h-212l95 536h212z" />
    <glyph glyph-name="Ibreve" unicode="&#x12c;" horiz-adv-x="330" 
d="M394 736h-292q-78 0 -64 77l9 51h140l-4 -24q-4 -25 22 -25h112q24 0 28 25l4 24h140l-9 -55q-6 -39 -26.5 -56t-59.5 -17zM5 0l124 700h225l-124 -700h-225z" />
    <glyph glyph-name="ibreve" unicode="&#x12d;" horiz-adv-x="313" 
d="M357 572h-292q-78 0 -64 77l9 51h140l-4 -24q-4 -25 22 -25h112q24 0 28 25l4 24h140l-9 -55q-6 -39 -26.5 -56t-59.5 -17zM215 0h-212l95 536h212z" />
    <glyph glyph-name="Iogonek" unicode="&#x12e;" horiz-adv-x="330" 
d="M58 -28l-1 -7q-1 -19 16 -19h160l-19 -106h-217q-43 0 -59.5 20.5t-11.5 65.5l2 16q4 31 17 50t46 42l22 13l116 653h225l-124 -700h-146l-10 -6q-15 -10 -16 -22z" />
    <glyph glyph-name="iogonek" unicode="&#x12f;" horiz-adv-x="313" 
d="M105 576l20 116h212l-19 -116h-213zM44 -28l-1 -7q-1 -19 16 -19h160l-19 -106h-217q-43 0 -59.5 20.5t-11.5 65.5l2 16q4 31 17 50t46 42l36 21l85 481h212l-95 -536h-145l-10 -6q-15 -10 -16 -22z" />
    <glyph glyph-name="Idot" unicode="&#x130;" horiz-adv-x="330" 
d="M361 740h-225l20 116h225zM5 0l124 700h225l-124 -700h-225z" />
    <glyph glyph-name="dotlessi" unicode="&#x131;" horiz-adv-x="313" 
d="M215 0h-212l95 536h212z" />
    <glyph glyph-name="IJ" unicode="&#x132;" horiz-adv-x="1167" 
d="M5 0l124 700h225l-124 -700h-225zM884 0h-366q-103 0 -148 54t-26 158l15 84h214l-9 -50q-7 -35 6 -50.5t49 -15.5h205q36 0 51.5 13.5t21.5 48.5l81 458h222l-90 -508q-19 -104 -71 -148t-155 -44z" />
    <glyph glyph-name="ij" unicode="&#x133;" horiz-adv-x="692" 
d="M317 576h-212l22 124h212zM696 576h-212l22 124h212zM215 0h-212l95 536h212zM416 -160h-214l27 153h110q25 0 35.5 9t14.5 34l88 500h213l-97 -546q-14 -82 -54.5 -116t-122.5 -34z" />
    <glyph glyph-name="Jcircumflex" unicode="&#x134;" horiz-adv-x="837" 
d="M687 736h-157l154 128h206l110 -128h-143l-76 52zM554 0h-366q-103 0 -148 54t-26 158l15 84h214l-9 -50q-7 -35 6 -50.5t49 -15.5h205q36 0 51.5 13.5t21.5 48.5l81 458h222l-90 -508q-19 -104 -71 -148t-155 -44z" />
    <glyph glyph-name="jcircumflex" unicode="&#x135;" horiz-adv-x="353" 
d="M172 572h-157l154 128h206l110 -128h-143l-76 52zM77 -160h-213l27 153h109q25 0 35.5 9t14.5 34l88 500h212l-96 -546q-15 -82 -55.5 -116t-121.5 -34z" />
    <glyph glyph-name="Kcommaaccent" unicode="&#x136;" horiz-adv-x="908" 
d="M659 700h316l-440 -342l320 -358h-296l-280 338l-60 -338h-222l124 700h222l-56 -314zM330 -138h-63l19 108h194l-6 -36q-8 -39 -16 -57q-10 -18 -39 -51l-49 -58h-111z" />
    <glyph glyph-name="kcommaaccent" unicode="&#x137;" horiz-adv-x="807" 
d="M549 536h306l-358 -269l270 -267h-287l-228 248l-44 -248h-210l124 700h210l-72 -407zM279 -138h-63l19 108h194l-6 -36q-8 -39 -16 -57q-11 -18 -39 -51l-49 -58h-111z" />
    <glyph glyph-name="Lacute" unicode="&#x139;" horiz-adv-x="750" 
d="M264 864h231l-162 -128h-181zM346 700l-90 -509h469l-35 -191h-690l124 700h222z" />
    <glyph glyph-name="lacute" unicode="&#x13a;" horiz-adv-x="313" 
d="M493 864l-162 -128h-181l112 128h231zM215 0h-212l124 700h212z" />
    <glyph glyph-name="Lcommaaccent" unicode="&#x13b;" horiz-adv-x="750" 
d="M346 700l-90 -509h469l-35 -191h-690l124 700h222zM271 -138h-63l19 108h194l-6 -36q-8 -39 -16 -57q-11 -18 -39 -51l-49 -58h-111z" />
    <glyph glyph-name="lcommaaccent" unicode="&#x13c;" horiz-adv-x="313" 
d="M215 0h-212l124 700h212zM93 -232h-111l71 94h-63l19 108h194l-6 -36q-8 -39 -16 -57q-11 -18 -39 -51z" />
    <glyph glyph-name="Lcaron" unicode="&#x13d;" horiz-adv-x="750" 
d="M346 700l-90 -509h469l-35 -191h-690l124 700h222zM576 523l-55 -75h-112l77 120h-63l23 132h194l-11 -64q-8 -39 -17 -57q-9 -20 -36 -56z" />
    <glyph glyph-name="lcaron" unicode="&#x13e;" horiz-adv-x="505" 
d="M215 0h-212l124 700h212zM450 448h-112l77 120h-64l24 132h194l-12 -64q-6 -36 -16 -57q-9 -20 -36 -56z" />
    <glyph glyph-name="Ldot" unicode="&#x13f;" horiz-adv-x="750" 
d="M346 700l-90 -509h469l-35 -191h-690l124 700h222zM425 534h241l-40 -226h-242z" />
    <glyph glyph-name="ldot" unicode="&#x140;" horiz-adv-x="567" 
d="M215 0h-212l124 700h212zM554 270h-242l41 226h241z" />
    <glyph glyph-name="Lslash" unicode="&#x141;" horiz-adv-x="810" 
d="M341 333l-25 -142h469l-35 -191h-690l53 300l-86 -12l22 124l86 12l49 276h222l-43 -243l302 43l-22 -124z" />
    <glyph glyph-name="lslash" unicode="&#x142;" horiz-adv-x="392" 
d="M333 439l78 13l-22 -124l-78 -12l-56 -316h-212l50 281l-79 -13l22 124l79 13l52 295h212z" />
    <glyph glyph-name="Nacute" unicode="&#x143;" horiz-adv-x="942" 
d="M563 864h231l-162 -128h-181zM680 268l76 432h214l-124 -700h-180l-374 442l-78 -442h-214l124 700h189z" />
    <glyph glyph-name="nacute" unicode="&#x144;" horiz-adv-x="807" 
d="M480 700h231l-162 -128h-181zM471 536h149q192 0 157 -192l-60 -344h-209l55 315q6 31 -4.5 43t-41.5 12h-144q-53 0 -81 -22l-25 -19l-59 -329h-209l95 536h175l6 -60q52 39 87 49q39 11 109 11z" />
    <glyph glyph-name="Ncommaaccent" unicode="&#x145;" horiz-adv-x="942" 
d="M680 268l76 432h214l-124 -700h-180l-374 442l-78 -442h-214l124 700h189zM380 -138h-63l19 108h194l-6 -36q-8 -39 -16 -57q-10 -18 -39 -51l-49 -58h-111z" />
    <glyph glyph-name="ncommaaccent" unicode="&#x146;" horiz-adv-x="807" 
d="M471 536h149q192 0 157 -192l-60 -344h-209l55 315q6 31 -4.5 43t-41.5 12h-144q-53 0 -81 -22l-25 -19l-59 -329h-209l95 536h175l6 -60q52 39 87 49q39 11 109 11zM300 -138h-63l19 108h194l-6 -36q-8 -39 -16 -57q-10 -18 -39 -51l-49 -58h-111z" />
    <glyph glyph-name="Ncaron" unicode="&#x147;" horiz-adv-x="942" 
d="M797 864l-154 -128h-206l-110 128h143l76 -52l94 52h157zM680 268l76 432h214l-124 -700h-180l-374 442l-78 -442h-214l124 700h189z" />
    <glyph glyph-name="ncaron" unicode="&#x148;" horiz-adv-x="807" 
d="M714 700l-154 -128h-206l-110 128h143l76 -52l94 52h157zM471 536h149q192 0 157 -192l-60 -344h-209l55 315q6 31 -4.5 43t-41.5 12h-144q-53 0 -81 -22l-25 -19l-59 -329h-209l95 536h175l6 -60q52 39 87 49q39 11 109 11z" />
    <glyph glyph-name="Eng" unicode="&#x14a;" horiz-adv-x="942" 
d="M680 268l76 432h214l-119 -676q-17 -99 -67 -141.5t-149 -42.5h-187l27 151h104q30 0 42 8.5t17 33.5l-346 409l-78 -442h-214l124 700h189z" />
    <glyph glyph-name="eng" unicode="&#x14b;" horiz-adv-x="807" 
d="M471 536h149q192 0 157 -192l-62 -354q-14 -82 -54.5 -116t-121.5 -34h-183l27 153h81q26 0 36 9t14 34l49 279q6 31 -4.5 43t-41.5 12h-144q-53 0 -81 -22l-25 -19l-59 -329h-209l95 536h175l6 -60q52 39 87 49q39 11 109 11z" />
    <glyph glyph-name="Omacron" unicode="&#x14c;" horiz-adv-x="935" 
d="M781 753h-456l17 95h456zM656 0h-452q-103 0 -148 54t-26 158l52 296q19 104 71 148t155 44h452q103 0 148 -54t26 -158l-52 -296q-19 -104 -71 -148t-155 -44zM313 183h283q36 0 51.5 13.5t21.5 49.5l37 204q6 36 -6.5 51.5t-48.5 15.5h-283q-36 0 -51.5 -13.5
t-21.5 -49.5l-37 -204q-6 -36 6.5 -51.5t48.5 -15.5z" />
    <glyph glyph-name="omacron" unicode="&#x14d;" horiz-adv-x="804" 
d="M687 589h-456l17 95h456zM546 0h-363q-191 0 -158 192l30 172q17 98 62 134q46 38 141 38h363q191 0 158 -192l-30 -172q-17 -97 -61 -134q-47 -38 -142 -38zM285 161h201q31 0 43.5 10.5t17.5 41.5l19 107q5 31 -5.5 43t-41.5 12h-201q-31 0 -43.5 -10.5t-17.5 -41.5
l-19 -107q-5 -31 5.5 -43t41.5 -12z" />
    <glyph glyph-name="Obreve" unicode="&#x14e;" horiz-adv-x="935" 
d="M697 736h-292q-78 0 -64 77l9 51h140l-4 -24q-4 -25 22 -25h112q24 0 28 25l4 24h140l-9 -55q-6 -39 -26.5 -56t-59.5 -17zM656 0h-452q-103 0 -148 54t-26 158l52 296q19 104 71 148t155 44h452q103 0 148 -54t26 -158l-52 -296q-19 -104 -71 -148t-155 -44zM313 183
h283q36 0 51.5 13.5t21.5 49.5l37 204q6 36 -6.5 51.5t-48.5 15.5h-283q-36 0 -51.5 -13.5t-21.5 -49.5l-37 -204q-6 -36 6.5 -51.5t48.5 -15.5z" />
    <glyph glyph-name="obreve" unicode="&#x14f;" horiz-adv-x="804" 
d="M603 572h-292q-78 0 -64 77l9 51h140l-4 -24q-4 -25 22 -25h112q24 0 28 25l4 24h140l-9 -55q-6 -39 -26.5 -56t-59.5 -17zM546 0h-363q-191 0 -158 192l30 172q17 98 62 134q46 38 141 38h363q191 0 158 -192l-30 -172q-17 -97 -61 -134q-47 -38 -142 -38zM285 161h201
q31 0 43.5 10.5t17.5 41.5l19 107q5 31 -5.5 43t-41.5 12h-201q-31 0 -43.5 -10.5t-17.5 -41.5l-19 -107q-5 -31 5.5 -43t41.5 -12z" />
    <glyph glyph-name="Ohungarumlaut" unicode="&#x150;" horiz-adv-x="935" 
d="M640 864l-134 -128h-174l92 128h216zM902 864l-135 -128h-174l92 128h217zM656 0h-452q-103 0 -148 54t-26 158l52 296q19 104 71 148t155 44h452q103 0 148 -54t26 -158l-52 -296q-19 -104 -71 -148t-155 -44zM313 183h283q36 0 51.5 13.5t21.5 49.5l37 204
q6 36 -6.5 51.5t-48.5 15.5h-283q-36 0 -51.5 -13.5t-21.5 -49.5l-37 -204q-6 -36 6.5 -51.5t48.5 -15.5z" />
    <glyph glyph-name="ohungarumlaut" unicode="&#x151;" horiz-adv-x="804" 
d="M546 700l-134 -128h-174l92 128h216zM808 700l-135 -128h-174l92 128h217zM546 0h-363q-191 0 -158 192l30 172q17 98 62 134q46 38 141 38h363q191 0 158 -192l-30 -172q-17 -97 -61 -134q-47 -38 -142 -38zM285 161h201q31 0 43.5 10.5t17.5 41.5l19 107q5 31 -5.5 43
t-41.5 12h-201q-31 0 -43.5 -10.5t-17.5 -41.5l-19 -107q-5 -31 5.5 -43t41.5 -12z" />
    <glyph glyph-name="OE" unicode="&#x152;" horiz-adv-x="1428" 
d="M1471 700l-31 -171h-507l-18 -99h468l-26 -146h-468l-20 -113h518l-30 -171h-1153q-102 0 -147.5 55t-26.5 157l53 296q19 104 70.5 148t154.5 44h1163zM314 183h335l59 334h-339q-36 0 -51.5 -13t-22.5 -49l-36 -205q-7 -36 6 -51.5t49 -15.5z" />
    <glyph glyph-name="oe" unicode="&#x153;" horiz-adv-x="1313" 
d="M819 536h314q189 0 155 -190l-19 -107h-508l-6 -33q-5 -31 5 -43t41 -12h210q24 0 34.5 9t15.5 34l2 10h201l-10 -54q-15 -82 -55.5 -116t-121.5 -34h-338q-83 0 -114 43q-42 -43 -126 -43h-321q-95 0 -132.5 45t-21.5 142l30 172q17 96 65 136.5t144 40.5h321
q82 0 112 -39q38 39 123 39zM782 355l-3 -14h308l2 12q5 31 -5 42.5t-41 11.5h-200q-31 0 -43.5 -10.5t-17.5 -41.5zM547 215l19 107q5 31 -4 42t-40 11h-203q-31 0 -44 -11t-18 -42l-19 -107q-5 -31 4 -42.5t40 -11.5h203q31 0 44 11.5t18 42.5z" />
    <glyph glyph-name="Racute" unicode="&#x154;" horiz-adv-x="897" 
d="M548 864h231l-162 -128h-181zM124 700h614q191 0 158 -192l-16 -95q-16 -92 -57 -130t-128 -42l134 -241h-235l-121 225h-210l-41 -225h-222zM624 541h-306l-28 -162h310q31 0 43.5 11t17.5 42l10 54q5 31 -5.5 43t-41.5 12z" />
    <glyph glyph-name="racute" unicode="&#x155;" horiz-adv-x="548" 
d="M356 700h231l-162 -128h-181zM245 536l7 -71q56 45 96 59q38 12 113 12h123l-34 -187h-181q-52 0 -80 -22l-26 -19l-55 -308h-209l95 536h151z" />
    <glyph glyph-name="Rcommaaccent" unicode="&#x156;" horiz-adv-x="897" 
d="M124 700h614q191 0 158 -192l-16 -95q-16 -92 -57 -130t-128 -42l134 -241h-235l-121 225h-210l-41 -225h-222zM624 541h-306l-28 -162h310q31 0 43.5 11t17.5 42l10 54q5 31 -5.5 43t-41.5 12zM351 -138h-63l19 108h194l-6 -36q-8 -39 -16 -57q-11 -18 -39 -51l-49 -58
h-111z" />
    <glyph glyph-name="rcommaaccent" unicode="&#x157;" horiz-adv-x="548" 
d="M461 536h123l-34 -187h-181q-52 0 -80 -22l-26 -19l-55 -308h-209l95 536h151l7 -71q56 45 96 59q38 12 113 12zM47 -138h-63l19 108h194l-6 -36q-8 -39 -16 -57q-11 -18 -39 -51l-49 -58h-111z" />
    <glyph glyph-name="Rcaron" unicode="&#x158;" horiz-adv-x="897" 
d="M782 864l-154 -128h-206l-110 128h143l76 -52l94 52h157zM124 700h614q191 0 158 -192l-16 -95q-16 -92 -57 -130t-128 -42l134 -241h-235l-121 225h-210l-41 -225h-222zM624 541h-306l-28 -162h310q31 0 43.5 11t17.5 42l10 54q5 31 -5.5 43t-41.5 12z" />
    <glyph glyph-name="rcaron" unicode="&#x159;" horiz-adv-x="548" 
d="M590 700l-154 -128h-206l-110 128h143l76 -52l94 52h157zM245 536l7 -71q56 45 96 59q38 12 113 12h123l-34 -187h-181q-52 0 -80 -22l-26 -19l-55 -308h-209l95 536h151z" />
    <glyph glyph-name="Sacute" unicode="&#x15a;" horiz-adv-x="915" 
d="M794 864l-162 -128h-181l112 128h231zM22 166l9 59h215l-5 -29q-4 -24 4.5 -34t33.5 -10h312q24 0 34.5 9.5t15.5 34.5l4 25q4 25 -3 34.5t-30 11.5l-393 24q-83 6 -117 46t-20 119l16 94q15 82 55.5 116t122.5 34h496q160 0 135 -166l-7 -49h-214l3 20q3 25 -5.5 34.5
t-33.5 9.5h-288q-24 0 -34.5 -9.5t-14.5 -34.5l-2 -13q-4 -25 2.5 -33.5t29.5 -10.5l393 -25q83 -6 117 -46t20 -120l-19 -107q-14 -82 -54.5 -116t-121.5 -34h-520q-81 0 -115.5 42t-20.5 124z" />
    <glyph glyph-name="sacute" unicode="&#x15b;" horiz-adv-x="784" 
d="M714 700l-162 -128h-181l112 128h231zM14 134l8 46h201l-5 -29q-3 -16 2 -21.5t21 -5.5h244q16 0 22 5.5t9 21.5l4 22q2 15 -3 20.5t-21 7.5l-327 22q-60 4 -88 37t-18 93l11 62q21 121 142 121h431q59 0 88.5 -36t19.5 -97l-6 -40h-201l4 22q3 15 -2.5 21t-21.5 6h-220
q-16 0 -22 -5.5t-8 -21.5l-2 -10q-2 -15 3 -20.5t20 -6.5l328 -22q60 -5 88.5 -39t17.5 -92l-13 -74q-22 -121 -143 -121h-455q-59 0 -88.5 36.5t-19.5 97.5z" />
    <glyph glyph-name="Scircumflex" unicode="&#x15c;" horiz-adv-x="915" 
d="M462 736h-157l154 128h206l110 -128h-143l-76 52zM22 166l9 59h215l-5 -29q-4 -24 4.5 -34t33.5 -10h312q24 0 34.5 9.5t15.5 34.5l4 25q4 25 -3 34.5t-30 11.5l-393 24q-83 6 -117 46t-20 119l16 94q15 82 55.5 116t122.5 34h496q160 0 135 -166l-7 -49h-214l3 20
q3 25 -5.5 34.5t-33.5 9.5h-288q-24 0 -34.5 -9.5t-14.5 -34.5l-2 -13q-4 -25 2.5 -33.5t29.5 -10.5l393 -25q83 -6 117 -46t20 -120l-19 -107q-14 -82 -54.5 -116t-121.5 -34h-520q-81 0 -115.5 42t-20.5 124z" />
    <glyph glyph-name="scircumflex" unicode="&#x15d;" horiz-adv-x="784" 
d="M382 572h-157l154 128h206l110 -128h-143l-76 52zM14 134l8 46h201l-5 -29q-3 -16 2 -21.5t21 -5.5h244q16 0 22 5.5t9 21.5l4 22q2 15 -3 20.5t-21 7.5l-327 22q-60 4 -88 37t-18 93l11 62q21 121 142 121h431q59 0 88.5 -36t19.5 -97l-6 -40h-201l4 22q3 15 -2.5 21
t-21.5 6h-220q-16 0 -22 -5.5t-8 -21.5l-2 -10q-2 -15 3 -20.5t20 -6.5l328 -22q60 -5 88.5 -39t17.5 -92l-13 -74q-22 -121 -143 -121h-455q-59 0 -88.5 36.5t-19.5 97.5z" />
    <glyph glyph-name="Scedilla" unicode="&#x15e;" horiz-adv-x="915" 
d="M276 700h496q160 0 135 -166l-7 -49h-214l3 20q3 25 -5.5 34.5t-33.5 9.5h-288q-24 0 -34.5 -9.5t-14.5 -34.5l-2 -13q-4 -25 2.5 -33.5t29.5 -10.5l393 -25q83 -6 117 -46t20 -120l-19 -107q-14 -82 -54.5 -116t-121.5 -34h-246l-11 -22h79q58 0 47 -57l-5 -28
q-5 -30 -19 -41.5t-43 -11.5h-212l11 60h157q8 0 11 8l1 8q3 9 -8 9h-111l5 28l23 47h-199q-81 0 -115.5 42t-20.5 124l9 59h215l-5 -29q-4 -24 4.5 -34t33.5 -10h312q24 0 34.5 9.5t15.5 34.5l4 25q4 25 -3 34.5t-30 11.5l-393 24q-83 6 -117 46t-20 119l16 94
q15 82 55.5 116t122.5 34z" />
    <glyph glyph-name="scedilla" unicode="&#x15f;" horiz-adv-x="784" 
d="M216 536h431q59 0 88.5 -36t19.5 -97l-6 -40h-201l4 22q3 15 -2.5 21t-21.5 6h-220q-16 0 -22 -5.5t-8 -21.5l-2 -10q-2 -15 3 -20.5t20 -6.5l328 -22q60 -5 88.5 -39t17.5 -92l-13 -74q-22 -121 -143 -121h-224l-11 -22h79q58 0 47 -57l-5 -28q-5 -30 -19 -41.5
t-43 -11.5h-212l11 60h157q8 0 11 8l1 8q3 9 -8 9h-111l5 28l23 47h-156q-59 0 -88.5 36.5t-19.5 97.5l8 46h201l-5 -29q-3 -16 2 -21.5t21 -5.5h244q16 0 22 5.5t9 21.5l4 22q2 15 -3 20.5t-21 7.5l-327 22q-60 4 -88 37t-18 93l11 62q21 121 142 121z" />
    <glyph glyph-name="Scaron" unicode="&#x160;" horiz-adv-x="915" 
d="M640 864h157l-154 -128h-206l-110 128h143l76 -52zM22 166l9 59h215l-5 -29q-4 -24 4.5 -34t33.5 -10h312q24 0 34.5 9.5t15.5 34.5l4 25q4 25 -3 34.5t-30 11.5l-393 24q-83 6 -117 46t-20 119l16 94q15 82 55.5 116t122.5 34h496q160 0 135 -166l-7 -49h-214l3 20
q3 25 -5.5 34.5t-33.5 9.5h-288q-24 0 -34.5 -9.5t-14.5 -34.5l-2 -13q-4 -25 2.5 -33.5t29.5 -10.5l393 -25q83 -6 117 -46t20 -120l-19 -107q-14 -82 -54.5 -116t-121.5 -34h-520q-81 0 -115.5 42t-20.5 124z" />
    <glyph glyph-name="scaron" unicode="&#x161;" horiz-adv-x="784" 
d="M560 700h157l-154 -128h-206l-110 128h143l76 -52zM14 134l8 46h201l-5 -29q-3 -16 2 -21.5t21 -5.5h244q16 0 22 5.5t9 21.5l4 22q2 15 -3 20.5t-21 7.5l-327 22q-60 4 -88 37t-18 93l11 62q21 121 142 121h431q59 0 88.5 -36t19.5 -97l-6 -40h-201l4 22q3 15 -2.5 21
t-21.5 6h-220q-16 0 -22 -5.5t-8 -21.5l-2 -10q-2 -15 3 -20.5t20 -6.5l328 -22q60 -5 88.5 -39t17.5 -92l-13 -74q-22 -121 -143 -121h-455q-59 0 -88.5 36.5t-19.5 97.5z" />
    <glyph glyph-name="uni0162" unicode="&#x162;" horiz-adv-x="818" 
d="M562 509l-90 -509h-89l-11 -22h79q57 0 47 -57l-5 -28q-5 -30 -19 -41.5t-43 -11.5h-212l11 60h157q8 0 11 8l1 8q3 9 -8 9h-111l5 28l23 47h-58l90 509h-286l34 191h794l-34 -191h-286z" />
    <glyph glyph-name="uni0163" unicode="&#x163;" horiz-adv-x="632" 
d="M629 378h-252l-31 -172q-4 -25 4.5 -35t34.5 -10h206l-29 -161h-233l-11 -22h79q57 0 47 -57l-5 -28q-5 -30 -19 -41.5t-43 -11.5h-212l11 60h157q8 0 11 8l1 8q3 9 -8 9h-111l5 28l23 47q-153 6 -124 164l38 214h-136l28 158h136l61 120h169l-21 -120h252z" />
    <glyph glyph-name="Tcaron" unicode="&#x164;" horiz-adv-x="818" 
d="M748 864l-154 -128h-206l-110 128h143l76 -52l94 52h157zM88 700h794l-34 -191h-286l-90 -509h-222l90 509h-286z" />
    <glyph glyph-name="tcaron" unicode="&#x165;" horiz-adv-x="658" 
d="M484 664l19 108h194l-6 -36q-8 -38 -16 -55q-9 -19 -37 -53l-48 -58h-117l69 94h-58zM257 656h169l-21 -120h252l-28 -158h-252l-31 -172q-4 -25 4.5 -35t34.5 -10h206l-29 -161h-297q-165 0 -135 164l38 214h-136l28 158h136z" />
    <glyph glyph-name="Tbar" unicode="&#x166;" horiz-adv-x="820" 
d="M882 700l-34 -191h-286l-26 -145h189l-22 -124h-189l-42 -240h-222l42 240h-185l22 124h185l26 145h-286l34 191h794z" />
    <glyph glyph-name="tbar" unicode="&#x167;" horiz-adv-x="632" 
d="M656 536l-26 -151h-252l-11 -60h252l-19 -107h-251l-4 -21q-4 -25 3 -33.5t32 -8.5h209l-27 -155h-297q-165 0 -135 164l9 54h-136l19 107h136l11 60h-136l26 151h136l62 120h168l-21 -120h252z" />
    <glyph glyph-name="Utilde" unicode="&#x168;" horiz-adv-x="912" 
d="M437 736h-116l13 80q10 48 58 48h148q23 0 34.5 -5.5t21.5 -21.5l20 -28q4 -6 14 -6h14q7 0 9 8l9 53h117l-14 -80q-9 -48 -57 -48h-149q-24 0 -34.5 5t-21.5 22l-20 28q-5 6 -13 6h-14q-8 0 -10 -8zM629 0h-422q-103 0 -148 54t-26 158l86 488h222l-79 -448
q-6 -35 6.5 -50.5t48.5 -15.5h253q36 0 51.5 13.5t21.5 48.5l80 452h222l-90 -508q-19 -104 -71 -148t-155 -44z" />
    <glyph glyph-name="utilde" unicode="&#x169;" horiz-adv-x="807" 
d="M365 625l-9 -53h-116l13 80q11 48 58 48h148q23 0 34.5 -5.5t21.5 -21.5l20 -28q5 -6 14 -6h14q7 0 9 8l9 53h117l-14 -80q-9 -48 -57 -48h-149q-24 0 -34.5 5t-21.5 22l-20 28q-4 6 -13 6h-14q-8 0 -10 -8zM599 536h209l-95 -536h-175l-6 60q-52 -39 -87 -49
q-39 -11 -109 -11h-149q-191 0 -157 192l60 344h209l-55 -315q-6 -31 4.5 -43t41.5 -12h144q53 0 81 22l25 19z" />
    <glyph glyph-name="Umacron" unicode="&#x16a;" horiz-adv-x="912" 
d="M769 753h-456l17 95h456zM629 0h-422q-103 0 -148 54t-26 158l86 488h222l-79 -448q-6 -35 6.5 -50.5t48.5 -15.5h253q36 0 51.5 13.5t21.5 48.5l80 452h222l-90 -508q-19 -104 -71 -148t-155 -44z" />
    <glyph glyph-name="umacron" unicode="&#x16b;" horiz-adv-x="807" 
d="M249 684h456l-17 -95h-456zM599 536h209l-95 -536h-175l-6 60q-52 -39 -87 -49q-39 -11 -109 -11h-149q-191 0 -157 192l60 344h209l-55 -315q-6 -31 4.5 -43t41.5 -12h144q53 0 81 22l25 19z" />
    <glyph glyph-name="Ubreve" unicode="&#x16c;" horiz-adv-x="912" 
d="M685 736h-292q-78 0 -64 77l9 51h140l-4 -24q-4 -25 22 -25h112q24 0 28 25l4 24h140l-9 -55q-6 -39 -26.5 -56t-59.5 -17zM629 0h-422q-103 0 -148 54t-26 158l86 488h222l-79 -448q-6 -35 6.5 -50.5t48.5 -15.5h253q36 0 51.5 13.5t21.5 48.5l80 452h222l-90 -508
q-19 -104 -71 -148t-155 -44z" />
    <glyph glyph-name="ubreve" unicode="&#x16d;" horiz-adv-x="807" 
d="M604 572h-292q-78 0 -64 77l9 51h140l-4 -24q-4 -25 22 -25h112q24 0 28 25l4 24h140l-9 -55q-6 -39 -26.5 -56t-59.5 -17zM599 536h209l-95 -536h-175l-6 60q-52 -39 -87 -49q-39 -11 -109 -11h-149q-191 0 -157 192l60 344h209l-55 -315q-6 -31 4.5 -43t41.5 -12h144
q53 0 81 22l25 19z" />
    <glyph glyph-name="Uring" unicode="&#x16e;" horiz-adv-x="912" 
d="M384 783l4 28q5 29 19 41t44 12h215q57 0 48 -57l-5 -28q-5 -29 -19 -41t-44 -12h-215q-58 0 -47 57zM461 801l-2 -12q-2 -11 0.5 -14.5t13.5 -3.5h143q11 0 14.5 3t5.5 15l3 12q2 11 -1 14.5t-13 3.5h-144q-11 0 -14.5 -3t-5.5 -15zM629 0h-422q-103 0 -148 54t-26 158
l86 488h222l-79 -448q-6 -35 6.5 -50.5t48.5 -15.5h253q36 0 51.5 13.5t21.5 48.5l80 452h222l-90 -508q-19 -104 -71 -148t-155 -44z" />
    <glyph glyph-name="uring" unicode="&#x16f;" horiz-adv-x="807" 
d="M565 562h-215q-58 0 -47 57l4 28q5 29 19 41t44 12h215q57 0 48 -57l-5 -28q-5 -29 -19 -41t-44 -12zM380 637l-2 -12q-2 -11 0.5 -14.5t13.5 -3.5h143q11 0 14.5 3t5.5 15l3 12q2 11 -1 14.5t-13 3.5h-144q-11 0 -14.5 -3t-5.5 -15zM599 536h209l-95 -536h-175l-6 60
q-52 -39 -87 -49q-39 -11 -109 -11h-149q-191 0 -157 192l60 344h209l-55 -315q-6 -31 4.5 -43t41.5 -12h144q53 0 81 22l25 19z" />
    <glyph glyph-name="Uhungarumlaut" unicode="&#x170;" horiz-adv-x="912" 
d="M628 864l-134 -128h-174l92 128h216zM890 864l-135 -128h-174l92 128h217zM629 0h-422q-103 0 -148 54t-26 158l86 488h222l-79 -448q-6 -35 6.5 -50.5t48.5 -15.5h253q36 0 51.5 13.5t21.5 48.5l80 452h222l-90 -508q-19 -104 -71 -148t-155 -44z" />
    <glyph glyph-name="uhungarumlaut" unicode="&#x171;" horiz-adv-x="807" 
d="M331 700h216l-134 -128h-174zM809 700l-135 -128h-174l92 128h217zM540 207l59 329h209l-95 -536h-175l-6 60q-52 -39 -87 -49q-39 -11 -109 -11h-149q-191 0 -157 192l60 344h209l-55 -315q-6 -31 4.5 -43t41.5 -12h144q53 0 81 22z" />
    <glyph glyph-name="Uogonek" unicode="&#x172;" horiz-adv-x="912" 
d="M643 248l80 452h222l-90 -508q-19 -104 -71 -148t-155 -44h-108l-10 -6q-15 -10 -16 -22l-1 -7q-1 -19 16 -19h160l-19 -106h-217q-43 0 -59.5 20.5t-11.5 65.5l2 16q5 38 23 58h-181q-103 0 -148 54t-26 158l86 488h222l-79 -448q-6 -35 6.5 -50.5t48.5 -15.5h253
q36 0 51.5 13.5t21.5 48.5z" />
    <glyph glyph-name="uogonek" unicode="&#x173;" horiz-adv-x="807" 
d="M609 -28l-1 -7q-1 -19 15 -19h92l-19 -106h-149q-42 0 -58.5 21t-11.5 65l2 16q4 30 15.5 48.5t40.5 39.5l-3 30q-52 -39 -87 -49q-39 -11 -109 -11h-149q-191 0 -157 192l60 344h209l-55 -315q-6 -31 4.5 -43t41.5 -12h144q53 0 81 22l25 19l59 329h209l-95 -536h-81
l-7 -5q-16 -10 -16 -23z" />
    <glyph glyph-name="Wcircumflex" unicode="&#x174;" horiz-adv-x="1292" 
d="M814 736l-76 52l-94 -52h-157l154 128h206l110 -128h-143zM892 271l233 429h245l-411 -700h-194l-97 416l-242 -416h-188l-164 700h234l82 -427l243 427h164z" />
    <glyph glyph-name="wcircumflex" unicode="&#x175;" horiz-adv-x="1100" 
d="M685 572l-76 52l-94 -52h-157l154 128h206l110 -128h-143zM747 234l169 302h230l-335 -536h-182l-75 306l-181 -306h-179l-144 536h214l64 -302l181 302h161z" />
    <glyph glyph-name="Ycircumflex" unicode="&#x176;" horiz-adv-x="892" 
d="M612 736l-76 52l-94 -52h-157l154 128h206l110 -128h-143zM706 700h270l-421 -445l-46 -255h-222l45 254l-264 446h256l145 -267z" />
    <glyph glyph-name="ycircumflex" unicode="&#x177;" horiz-adv-x="798" 
d="M535 572l-76 52l-94 -52h-157l154 128h206l110 -128h-143zM379 205l223 331h245l-409 -543q-71 -96 -126 -125q-53 -28 -167 -28h-165l29 161h154q33 0 49.5 6t33.5 26l-199 503h227z" />
    <glyph glyph-name="Ydieresis" unicode="&#x178;" horiz-adv-x="892" 
d="M343 856h161l-20 -116h-161zM578 856h161l-20 -116h-161zM706 700h270l-421 -445l-46 -255h-222l45 254l-264 446h256l145 -267z" />
    <glyph glyph-name="Zacute" unicode="&#x179;" horiz-adv-x="882" 
d="M777 864l-162 -128h-181l112 128h231zM800 0h-814l27 149l514 368h-429l32 183h794l-26 -149l-514 -368h449z" />
    <glyph glyph-name="zacute" unicode="&#x17a;" horiz-adv-x="768" 
d="M692 700l-162 -128h-181l112 128h231zM688 0h-704l22 122l406 261h-339l27 153h684l-22 -122l-406 -261h359z" />
    <glyph glyph-name="Zdotaccent" unicode="&#x17b;" horiz-adv-x="882" 
d="M631 740h-213l20 116h212zM800 0h-814l27 149l514 368h-429l32 183h794l-26 -149l-514 -368h449z" />
    <glyph glyph-name="zdotaccent" unicode="&#x17c;" horiz-adv-x="768" 
d="M546 576h-213l20 116h212zM688 0h-704l22 122l406 261h-339l27 153h684l-22 -122l-406 -261h359z" />
    <glyph glyph-name="Zcaron" unicode="&#x17d;" horiz-adv-x="882" 
d="M623 864h157l-154 -128h-206l-110 128h143l76 -52zM800 0h-814l27 149l514 368h-429l32 183h794l-26 -149l-514 -368h449z" />
    <glyph glyph-name="zcaron" unicode="&#x17e;" horiz-adv-x="768" 
d="M538 700h157l-154 -128h-206l-110 128h143l76 -52zM688 0h-704l22 122l406 261h-339l27 153h684l-22 -122l-406 -261h359z" />
    <glyph glyph-name="florin" unicode="&#x192;" horiz-adv-x="784" 
d="M793 523h-160q-35 0 -51.5 -13.5t-27.5 -50.5l-28 -101h218l-24 -136h-232l-51 -180q-30 -108 -84 -155t-153 -47h-240l32 177h160q35 0 51.5 13.5t27.5 50.5l40 141h-223l24 136h237l39 140q30 108 83.5 155t152.5 47h240z" />
    <glyph glyph-name="Aringacute" unicode="&#x1fa;" horiz-adv-x="960" 
d="M915 0h-238l-32 113h-370l-72 -113h-254l461 670q-19 12 -13 49l4 28q5 29 19 41t44 12h39l50 64h224l-79 -66q37 -7 28 -55l-4 -28q-8 -38 -29 -47zM474 737l-2 -12q-2 -11 0.5 -14.5t13.5 -3.5h143q11 0 14.5 3t5.5 15l2 12q2 11 -0.5 14.5t-13.5 3.5h-143
q-11 0 -14.5 -3t-5.5 -15zM531 517l-159 -251h230z" />
    <glyph glyph-name="aringacute" unicode="&#x1fb;" horiz-adv-x="799" 
d="M615 536q189 0 155 -190l-61 -346h-176l-6 54q-44 -33 -81 -44q-33 -10 -104 -10h-217q-61 0 -91.5 36.5t-18.5 98.5l10 56q12 63 46 92t96 29h388l6 33q5 31 -5 43t-41 12h-186q-25 0 -35.5 -9t-14.5 -34l-2 -14h-202l7 43q13 81 54.5 115.5t123.5 34.5h32q0 1 2 19
l4 28q5 29 19 41t44 12h39l50 64h224l-79 -66q37 -7 28 -55l-4 -28q-1 -5 -4 -15zM371 573l-2 -12q-2 -11 0.5 -14.5t13.5 -3.5h143q11 0 14.5 3t5.5 15l2 12q2 11 -0.5 14.5t-13.5 3.5h-143q-11 0 -14.5 -3t-5.5 -15zM262 123h170q40 0 69 21l28 20l5 28l4 22h-264
q-22 0 -30.5 -7.5t-12.5 -29.5l-3 -15q-3 -22 4 -30.5t30 -8.5z" />
    <glyph glyph-name="AEacute" unicode="&#x1fc;" horiz-adv-x="1284" 
d="M760 864h231l-162 -128h-181zM1327 700l-31 -169h-551l30 -102h463l-25 -143h-396l35 -117h391l-30 -169h-550l-27 108h-364l-69 -108h-253l482 700h895zM532 517l-162 -255h226z" />
    <glyph glyph-name="aeacute" unicode="&#x1fd;" horiz-adv-x="1303" 
d="M728 700h231l-162 -128h-181zM809 536h314q189 0 155 -190l-19 -107h-508l-6 -33q-5 -31 5 -43t41 -12h210q24 0 34.5 9t15.5 34l2 10h201l-10 -54q-15 -82 -55.5 -116t-121.5 -34h-350q-98 0 -136 50q-45 -32 -78 -41q-35 -9 -102 -9h-275q-62 0 -92.5 36.5t-18.5 98.5
l11 56q12 63 46 92t95 29h388l6 33q5 31 -5 43t-41 12h-186q-25 0 -35.5 -9.5t-14.5 -33.5l-2 -14h-202l7 43q13 81 54.5 115.5t123.5 34.5h314q78 0 111 -41q38 41 124 41zM772 355l-3 -14h308l2 12q5 31 -5 42.5t-41 11.5h-200q-31 0 -43.5 -10.5t-17.5 -41.5zM501 144
l28 20l9 50h-264q-22 0 -30.5 -7.5t-12.5 -29.5l-3 -15q-3 -22 4 -30.5t30 -8.5h170q40 0 69 21z" />
    <glyph glyph-name="Oslashacute" unicode="&#x1fe;" horiz-adv-x="935" 
d="M573 864h231l-162 -128h-181zM866 730h142l-105 -88q49 -58 30 -162l-51 -288q-19 -104 -71 -148t-155 -44h-444q-34 0 -68 8l-46 -38h-142l105 88q-49 58 -30 162l51 288q19 104 71 148t155 44h444q34 0 68 -8zM286 462l-39 -220q-3 -22 -2 -31l376 314h-262
q-35 0 -51 -13.5t-22 -49.5zM678 238l39 220q3 22 2 31l-376 -314h262q35 0 51 13.5t22 49.5z" />
    <glyph glyph-name="oslashacute" unicode="&#x1ff;" horiz-adv-x="804" 
d="M479 700h231l-162 -128h-181zM716 568h133l-97 -76q44 -47 27 -148l-30 -172q-17 -97 -61 -134q-47 -38 -142 -38h-363q-33 0 -50 4l-45 -36h-133l97 76q-44 47 -27 148l30 172q17 98 62 134q46 38 141 38h363q33 0 50 -4zM236 339l-25 -139q-3 -15 -1 -31l282 222h-196
q-31 0 -43 -10.5t-17 -41.5zM568 197l25 139q3 15 1 31l-282 -222h196q31 0 43 10.5t17 41.5z" />
    <glyph glyph-name="Scommaaccent" unicode="&#x218;" horiz-adv-x="915" 
d="M22 166l9 59h215l-5 -29q-4 -24 4.5 -34t33.5 -10h312q24 0 34.5 9.5t15.5 34.5l4 25q4 25 -3 34.5t-30 11.5l-393 24q-83 6 -117 46t-20 119l16 94q15 82 55.5 116t122.5 34h496q160 0 135 -166l-7 -49h-214l3 20q3 25 -5.5 34.5t-33.5 9.5h-288q-24 0 -34.5 -9.5
t-14.5 -34.5l-2 -13q-4 -25 2.5 -33.5t29.5 -10.5l393 -25q83 -6 117 -46t20 -120l-19 -107q-14 -82 -54.5 -116t-121.5 -34h-520q-81 0 -115.5 42t-20.5 124zM394 -232h-111l71 94h-63l19 108h194l-6 -36q-8 -39 -16 -57q-10 -18 -39 -51z" />
    <glyph glyph-name="scommaaccent" unicode="&#x219;" horiz-adv-x="784" 
d="M14 134l8 46h201l-5 -29q-3 -16 2 -21.5t21 -5.5h244q16 0 22 5.5t9 21.5l4 22q2 15 -3 20.5t-21 7.5l-327 22q-60 4 -88 37t-18 93l11 62q21 121 142 121h431q59 0 88.5 -36t19.5 -97l-6 -40h-201l4 22q3 15 -2.5 21t-21.5 6h-220q-16 0 -22 -5.5t-8 -21.5l-2 -10
q-2 -15 3 -20.5t20 -6.5l328 -22q60 -5 88.5 -39t17.5 -92l-13 -74q-22 -121 -143 -121h-455q-59 0 -88.5 36.5t-19.5 97.5zM315 -232h-111l71 94h-63l19 108h194l-6 -36q-8 -39 -16 -57q-11 -18 -39 -51z" />
    <glyph glyph-name="uni021A" unicode="&#x21a;" horiz-adv-x="818" 
d="M88 700h794l-34 -191h-286l-90 -509h-222l90 509h-286zM305 -138h-63l19 108h194l-6 -36q-8 -39 -16 -57q-11 -18 -39 -51l-49 -58h-111z" />
    <glyph glyph-name="uni021B" unicode="&#x21b;" horiz-adv-x="632" 
d="M629 378h-252l-31 -172q-4 -25 4.5 -35t34.5 -10h206l-29 -161h-297q-165 0 -135 164l38 214h-136l28 158h136l61 120h169l-21 -120h252zM251 -138h-63l19 108h194l-6 -36q-8 -39 -16 -57q-11 -18 -39 -51l-49 -58h-111z" />
    <glyph glyph-name="uni0237" unicode="&#x237;" horiz-adv-x="353" 
d="M77 -160h-213l27 153h109q25 0 35.5 9t14.5 34l88 500h212l-96 -546q-15 -82 -55.5 -116t-121.5 -34z" />
    <glyph glyph-name="circumflex" unicode="&#x2c6;" horiz-adv-x="534" 
d="M259 572h-157l154 128h206l110 -128h-143l-76 52z" />
    <glyph glyph-name="caron" unicode="&#x2c7;" horiz-adv-x="553" 
d="M437 700h157l-154 -128h-206l-110 128h143l76 -52z" />
    <glyph glyph-name="breve" unicode="&#x2d8;" horiz-adv-x="506" 
d="M471 572h-292q-78 0 -64 77l9 51h140l-4 -24q-4 -25 22 -25h112q24 0 28 25l4 24h140l-9 -55q-6 -39 -26.5 -56t-59.5 -17z" />
    <glyph glyph-name="dotaccent" unicode="&#x2d9;" horiz-adv-x="302" 
d="M316 576h-213l20 116h212z" />
    <glyph glyph-name="ring" unicode="&#x2da;" horiz-adv-x="382" 
d="M107 619l4 28q5 29 19 41t44 12h215q57 0 48 -57l-5 -28q-5 -29 -19 -41t-44 -12h-215q-58 0 -47 57zM184 637l-2 -12q-2 -11 0.5 -14.5t13.5 -3.5h143q11 0 14.5 3t5.5 15l3 12q2 11 -1 14.5t-13 3.5h-144q-11 0 -14.5 -3t-5.5 -15z" />
    <glyph glyph-name="ogonek" unicode="&#x2db;" horiz-adv-x="370" 
d="M169 14l-32 -20q-15 -10 -16 -22l-1 -7q-1 -19 16 -19h160l-19 -106h-217q-43 0 -59.5 20.5t-11.5 65.5l2 16q4 31 17 50t46 42l41 24z" />
    <glyph glyph-name="tilde" unicode="&#x2dc;" horiz-adv-x="506" 
d="M218 572h-116l13 80q11 48 58 48h148q23 0 34.5 -5.5t21.5 -21.5l20 -28q4 -6 14 -6h14q7 0 9 8l9 53h117l-14 -80q-9 -48 -57 -48h-149q-24 0 -34.5 5t-21.5 22l-20 28q-4 6 -13 6h-14q-8 0 -10 -8z" />
    <glyph glyph-name="hungarumlaut" unicode="&#x2dd;" horiz-adv-x="596" 
d="M399 700l-134 -128h-174l92 128h216zM661 700l-135 -128h-174l92 128h217z" />
    <glyph glyph-name="gravecomb" unicode="&#x300;" horiz-adv-x="0" 
d="M-278 572h-159l-119 128h210z" />
    <glyph glyph-name="acutecomb" unicode="&#x301;" horiz-adv-x="0" 
d="M33 700l-162 -128h-181l112 128h231z" />
    <glyph glyph-name="uni0302" unicode="&#x302;" horiz-adv-x="0" 
d="M-307 572h-157l154 128h206l110 -128h-143l-76 52z" />
    <glyph glyph-name="tildecomb" unicode="&#x303;" horiz-adv-x="0" 
d="M-314 572h-116l13 80q11 48 58 48h148q23 0 34.5 -5.5t21.5 -21.5l20 -28q5 -6 14 -6h14q7 0 9 8l9 53h117l-14 -80q-9 -48 -57 -48h-149q-24 0 -34.5 5t-21.5 22l-20 28q-4 6 -13 6h-14q-8 0 -10 -8z" />
    <glyph glyph-name="uni0304" unicode="&#x304;" horiz-adv-x="0" 
d="M9 589h-456l17 95h456z" />
    <glyph glyph-name="uni0306" unicode="&#x306;" horiz-adv-x="0" 
d="M-67 572h-292q-78 0 -64 77l9 51h140l-4 -24q-4 -25 22 -25h112q24 0 28 25l4 24h140l-9 -55q-6 -39 -26.5 -56t-59.5 -17z" />
    <glyph glyph-name="uni0307" unicode="&#x307;" horiz-adv-x="0" 
d="M8 576h-213l20 116h212z" />
    <glyph glyph-name="uni0308" unicode="&#x308;" horiz-adv-x="0" 
d="M-228 576h-161l20 116h161zM7 576h-161l20 116h161z" />
    <glyph glyph-name="uni030A" unicode="&#x30a;" horiz-adv-x="0" 
d="M-307 619l4 28q5 29 19 41t44 12h215q57 0 48 -57l-5 -28q-5 -29 -19 -41t-44 -12h-215q-57 0 -47 57zM-230 637l-2 -12q-2 -11 0.5 -14.5t13.5 -3.5h143q11 0 14.5 3t5.5 15l3 12q2 11 -1 14.5t-13 3.5h-144q-11 0 -14.5 -3t-5.5 -15z" />
    <glyph glyph-name="uni030B" unicode="&#x30b;" horiz-adv-x="0" 
d="M-221 700l-134 -128h-174l92 128h216zM41 700l-135 -128h-174l92 128h217z" />
    <glyph glyph-name="uni030C" unicode="&#x30c;" horiz-adv-x="0" 
d="M-129 700h157l-154 -128h-206l-110 128h143l76 -52z" />
    <glyph glyph-name="uni0312" unicode="&#x312;" horiz-adv-x="0" 
d="M-76 774h111l-68 -94h57l-19 -108h-188l6 36q8 38 16 56q9 18 37 52z" />
    <glyph glyph-name="uni0326" unicode="&#x326;" horiz-adv-x="0" 
d="M-210 -232h-111l71 94h-63l19 108h194l-6 -36q-8 -40 -17 -57q-8 -17 -38 -51z" />
    <glyph glyph-name="uni0327" unicode="&#x327;" horiz-adv-x="0" 
d="M-172 -160h-212l11 60h157q8 0 11 8l1 8q3 9 -8 9h-111l5 28l33 67h75l-21 -42h79q58 0 47 -57l-5 -28q-5 -30 -19 -41.5t-43 -11.5z" />
    <glyph glyph-name="uni0328" unicode="&#x328;" horiz-adv-x="0" 
d="M-231 14l-32 -20q-15 -10 -16 -22l-1 -7q-1 -19 16 -19h160l-19 -106h-217q-43 0 -59.5 20.5t-11.5 65.5l2 16q4 31 17 50t46 42l41 24z" />
    <glyph glyph-name="uni0335" unicode="&#x335;" horiz-adv-x="0" 
d="M-476 292l22 124h440l-22 -124h-440z" />
    <glyph glyph-name="uni0336" unicode="&#x336;" horiz-adv-x="0" 
d="M-908 292l22 124h872l-22 -124h-872z" />
    <glyph glyph-name="uni0337" unicode="&#x337;" horiz-adv-x="0" 
d="M-478 288l22 124l452 60l-22 -124z" />
    <glyph glyph-name="uni0338" unicode="&#x338;" horiz-adv-x="0" 
d="M-701 -30l632 600h122l-632 -600h-122z" />
    <glyph glyph-name="uni0394" unicode="&#x394;" horiz-adv-x="962" 
d="M432 700h251l233 -700h-966zM532 518l-223 -351h322z" />
    <glyph glyph-name="uni03A9" unicode="&#x3a9;" horiz-adv-x="935" 
d="M308 700h452q100 0 146.5 -55.5t27.5 -156.5l-29 -158q-23 -135 -123 -163h106l-30 -167h-386l45 257h92q36 0 52 14t22 50l22 130q6 36 -6.5 51t-48.5 15h-283q-36 0 -51.5 -13.5t-21.5 -49.5l-23 -131q-6 -36 6.5 -51t48.5 -15h87l-45 -257h-387l31 167h117
q-104 33 -77 175l30 166q18 104 70.5 148t155.5 44z" />
    <glyph glyph-name="uni03BC" unicode="&#x3bc;" horiz-adv-x="846" 
d="M782 161h33l-28 -161h-123q-97 0 -120 65q-55 -43 -92 -53q-37 -12 -112 -12h-137l-29 -160h-203l123 696h209l-56 -315q-5 -31 5.5 -43t41.5 -12h144q49 0 80 22l27 19l58 329h209l-60 -339q-4 -21 2.5 -28.5t27.5 -7.5z" />
    <glyph glyph-name="pi" unicode="&#x3c0;" horiz-adv-x="904" 
d="M901 378h-96l-30 -172q-4 -25 4.5 -35t33.5 -10h50l-29 -161h-139q-164 0 -136 166l37 212h-259l-67 -378h-210l67 378h-96l29 158h870z" />
    <glyph glyph-name="uni0401" unicode="&#x401;" horiz-adv-x="812" 
d="M311 856h161l-20 -116h-161zM546 856h161l-20 -116h-161zM854 700l-30 -171h-508l-18 -99h468l-25 -146h-469l-20 -113h519l-31 -171h-740l124 700h730z" />
    <glyph glyph-name="uni0403" unicode="&#x403;" horiz-adv-x="750" 
d="M480 864h231l-162 -128h-181zM124 700h690l-33 -191h-468l-89 -509h-222z" />
    <glyph glyph-name="uni0405" unicode="&#x405;" horiz-adv-x="915" 
d="M22 166l9 59h215l-5 -29q-4 -24 4.5 -34t33.5 -10h312q24 0 34.5 9.5t15.5 34.5l4 25q4 25 -3 34.5t-30 11.5l-393 24q-83 6 -117 46t-20 119l16 94q15 82 55.5 116t122.5 34h496q160 0 135 -166l-7 -49h-214l3 20q3 25 -5.5 34.5t-33.5 9.5h-288q-24 0 -34.5 -9.5
t-14.5 -34.5l-2 -13q-4 -25 2.5 -33.5t29.5 -10.5l393 -25q83 -6 117 -46t20 -120l-19 -107q-14 -82 -54.5 -116t-121.5 -34h-520q-81 0 -115.5 42t-20.5 124z" />
    <glyph glyph-name="uni0406" unicode="&#x406;" horiz-adv-x="330" 
d="M5 0l124 700h225l-124 -700h-225z" />
    <glyph glyph-name="uni0407" unicode="&#x407;" horiz-adv-x="330" 
d="M211 740h-161l20 116h161zM446 740h-161l20 116h161zM5 0l124 700h225l-124 -700h-225z" />
    <glyph glyph-name="uni0408" unicode="&#x408;" horiz-adv-x="837" 
d="M554 0h-366q-103 0 -148 54t-26 158l15 84h214l-9 -50q-7 -35 6 -50.5t49 -15.5h205q36 0 51.5 13.5t21.5 48.5l81 458h222l-90 -508q-19 -104 -71 -148t-155 -44z" />
    <glyph glyph-name="uni040C" unicode="&#x40c;" horiz-adv-x="908" 
d="M558 864h231l-162 -128h-181zM659 700h316l-440 -342l320 -358h-296l-280 338l-60 -338h-222l124 700h222l-56 -314z" />
    <glyph glyph-name="uni040E" unicode="&#x40e;" horiz-adv-x="892" 
d="M681 736h-292q-78 0 -64 77l9 51h140l-4 -24q-4 -25 22 -25h112q24 0 28 25l4 24h140l-9 -55q-6 -39 -26.5 -56t-59.5 -17zM462 409l243 291h271l-627 -700h-271l232 255l-242 445h254z" />
    <glyph glyph-name="uni0410" unicode="&#x410;" horiz-adv-x="960" 
d="M915 0h-238l-32 113h-370l-72 -113h-254l482 700h251zM531 517l-159 -251h230z" />
    <glyph glyph-name="uni0411" unicode="&#x411;" horiz-adv-x="900" 
d="M667 0h-667l124 700h757l-29 -163h-534l-19 -106h428q164 0 136 -166l-20 -115q-14 -82 -54.5 -116t-121.5 -34zM274 292l-22 -131h330q24 0 34 9t15 34l7 42q4 25 -4.5 35.5t-33.5 10.5h-326z" />
    <glyph glyph-name="uni0412" unicode="&#x412;" horiz-adv-x="900" 
d="M123 700h630q79 0 114 -42.5t21 -123.5l-8 -51q-10 -55 -31 -85t-60 -41q81 -29 63 -142l-11 -65q-13 -81 -53.5 -115.5t-122.5 -34.5h-667zM622 539h-306l-20 -116h310q24 0 34 9t15 34l5 28q10 45 -38 45zM629 204l8 42q4 25 -4.5 35.5t-33.5 10.5h-326l-23 -131h330
q24 0 34 9t15 34z" />
    <glyph glyph-name="uni0413" unicode="&#x413;" horiz-adv-x="750" 
d="M124 700h690l-33 -191h-468l-89 -509h-222z" />
    <glyph glyph-name="uni0414" unicode="&#x414;" horiz-adv-x="1024" 
d="M984 700l-92 -517h105l-53 -303h-206l21 120h-588l-21 -120h-206l53 303h64q33 0 47.5 12.5t22.5 46.5l111 458h742zM422 509l-62 -248q-10 -42 -27 -78h337l58 326h-306z" />
    <glyph glyph-name="uni0415" unicode="&#x415;" horiz-adv-x="812" 
d="M854 700l-30 -171h-508l-18 -99h468l-25 -146h-469l-20 -113h519l-31 -171h-740l124 700h730z" />
    <glyph glyph-name="uni0416" unicode="&#x416;" horiz-adv-x="1497" 
d="M1251 700h316l-439 -342l319 -358h-296l-279 337l-60 -337h-222l59 331l-380 -331h-315l447 365l-319 335h297l278 -321l57 321h222l-55 -313z" />
    <glyph glyph-name="uni0417" unicode="&#x417;" horiz-adv-x="912" 
d="M272 700h500q81 0 116.5 -43t21.5 -125l-9 -51q-11 -58 -33.5 -87t-63.5 -39q78 -32 60 -142l-11 -65q-14 -82 -53.5 -115t-121.5 -33h-519q-82 0 -117 43t-21 126l16 94h214l-10 -56q-4 -25 5 -35.5t34 -10.5h312q24 0 33.5 9t14.5 34l7 37q4 25 -4.5 36t-34.5 11h-251
l25 139h246q24 0 34 9t15 34l4 23q5 25 -4 35.5t-35 10.5h-291q-24 0 -34 -8.5t-15 -33.5l-9 -52h-214l19 107q14 82 53.5 115t120.5 33z" />
    <glyph glyph-name="uni0418" unicode="&#x418;" horiz-adv-x="942" 
d="M267 296l515 404h188l-124 -700h-214l73 412l-525 -412h-180l124 700h214z" />
    <glyph glyph-name="uni0419" unicode="&#x419;" horiz-adv-x="942" 
d="M710 736h-292q-78 0 -64 77l9 51h140l-4 -24q-4 -25 22 -25h112q24 0 28 25l4 24h140l-9 -55q-6 -39 -26.5 -56t-59.5 -17zM267 296l515 404h188l-124 -700h-214l73 412l-525 -412h-180l124 700h214z" />
    <glyph glyph-name="uni041A" unicode="&#x41a;" horiz-adv-x="908" 
d="M659 700h316l-440 -342l320 -358h-296l-280 338l-60 -338h-222l124 700h222l-56 -314z" />
    <glyph glyph-name="uni041B" unicode="&#x41b;" horiz-adv-x="928" 
d="M84 0h-120l33 183h36q33 0 47.5 12t22.5 46l111 459h742l-124 -700h-222l90 509h-306l-77 -313q-26 -104 -80.5 -150t-152.5 -46z" />
    <glyph glyph-name="uni041C" unicode="&#x41c;" horiz-adv-x="1050" 
d="M525 321l352 379h201l-124 -700h-209l68 382l-258 -273h-117l-161 273l-68 -382h-209l124 700h182z" />
    <glyph glyph-name="uni041D" unicode="&#x41d;" horiz-adv-x="922" 
d="M684 458l43 242h222l-124 -700h-222l47 266h-382l-47 -266h-222l124 700h222l-43 -242h382z" />
    <glyph glyph-name="uni041E" unicode="&#x41e;" horiz-adv-x="935" 
d="M656 0h-452q-103 0 -148 54t-26 158l52 296q19 104 71 148t155 44h452q103 0 148 -54t26 -158l-52 -296q-19 -104 -71 -148t-155 -44zM313 183h283q36 0 51.5 13.5t21.5 49.5l37 204q6 36 -6.5 51.5t-48.5 15.5h-283q-36 0 -51.5 -13.5t-21.5 -49.5l-37 -204
q-6 -36 6.5 -51.5t48.5 -15.5z" />
    <glyph glyph-name="uni041F" unicode="&#x41f;" horiz-adv-x="922" 
d="M222 0h-222l124 700h826l-124 -700h-222l90 509h-382z" />
    <glyph glyph-name="uni0420" unicode="&#x420;" horiz-adv-x="878" 
d="M222 0h-222l124 700h614q191 0 158 -192l-24 -136q-17 -97 -61 -134q-46 -38 -141 -38h-412zM316 533l-30 -174h311q30 0 42.5 11t17.5 42l12 66q5 31 -5.5 43t-41.5 12h-306z" />
    <glyph glyph-name="uni0421" unicode="&#x421;" horiz-adv-x="905" 
d="M628 0h-424q-103 0 -148 54t-26 158l52 296q19 104 71 148t155 44h424q103 0 148 -54t26 -158l-13 -79h-215l9 45q6 35 -6.5 50.5t-48.5 15.5h-263q-36 0 -51.5 -13.5t-22.5 -48.5l-38 -212q-6 -35 6.5 -50.5t48.5 -15.5h263q36 0 51.5 13.5t22.5 48.5l9 56h214l-18 -106
q-19 -104 -71 -148t-155 -44z" />
    <glyph glyph-name="uni0422" unicode="&#x422;" horiz-adv-x="818" 
d="M88 700h794l-34 -191h-286l-90 -509h-222l90 509h-286z" />
    <glyph glyph-name="uni0423" unicode="&#x423;" horiz-adv-x="892" 
d="M462 409l243 291h271l-627 -700h-271l232 255l-242 445h254z" />
    <glyph glyph-name="uni0424" unicode="&#x424;" horiz-adv-x="1173" 
d="M758 658h233q103 0 148 -54t26 -158l-38 -212q-19 -104 -71 -148t-155 -44h-251l-15 -82h-206l15 82h-233q-103 0 -148 54t-26 158l38 212q19 104 71 148t155 44h251l15 82h206zM317 202h155l52 296h-160q-35 0 -50.5 -13.5t-22.5 -49.5l-29 -167q-7 -36 6 -51t49 -15z
M911 265l30 167q6 36 -7 51t-48 15h-156l-52 -296h160q36 0 51.5 13.5t21.5 49.5z" />
    <glyph glyph-name="uni0425" unicode="&#x425;" horiz-adv-x="910" 
d="M237 0h-283l369 357l-235 343h261l137 -205l204 205h284l-357 -343l243 -357h-261l-145 219z" />
    <glyph glyph-name="uni0426" unicode="&#x426;" horiz-adv-x="990" 
d="M725 0h-724l123 700h222l-89 -509h382l89 509h222l-89 -509h104l-56 -311h-206z" />
    <glyph glyph-name="uni0427" unicode="&#x427;" horiz-adv-x="886" 
d="M790 0h-222l37 204h-400q-191 0 -158 192l53 304h222l-44 -250q-5 -31 5.5 -43t41.5 -12h314l53 305h222z" />
    <glyph glyph-name="uni0428" unicode="&#x428;" horiz-adv-x="1346" 
d="M1250 0h-1250l124 700h222l-89 -509h292l89 509h222l-89 -509h292l89 509h222z" />
    <glyph glyph-name="uni0429" unicode="&#x429;" horiz-adv-x="1414" 
d="M1149 0h-1148l123 700h222l-89 -509h292l89 509h222l-89 -509h292l89 509h222l-89 -509h104l-56 -311h-206z" />
    <glyph glyph-name="uni042A" unicode="&#x42a;" horiz-adv-x="1060" 
d="M266 517h-210l32 183h432l-35 -200h400q191 0 157 -192l-23 -136q-17 -97 -61 -134q-47 -38 -142 -38h-642zM456 341l-29 -174h318q30 0 42.5 11t17.5 42l12 66q5 31 -5.5 43t-41.5 12h-314z" />
    <glyph glyph-name="uni042B" unicode="&#x42b;" horiz-adv-x="1208" 
d="M0 0l124 700h222l-35 -200h392q191 0 157 -192l-23 -136q-17 -97 -61 -134q-47 -38 -142 -38h-634zM883 0l124 700h225l-124 -700h-225zM588 341h-306l-29 -174h310q30 0 42.5 11t17.5 42l12 66q5 31 -5.5 43t-41.5 12z" />
    <glyph glyph-name="uni042C" unicode="&#x42c;" horiz-adv-x="878" 
d="M0 0l124 700h222l-35 -200h392q191 0 157 -192l-23 -136q-17 -97 -61 -134q-47 -38 -142 -38h-634zM588 341h-306l-29 -174h310q30 0 42.5 11t17.5 42l12 66q5 31 -5.5 43t-41.5 12z" />
    <glyph glyph-name="uni042D" unicode="&#x42d;" horiz-adv-x="922" 
d="M306 700h442q103 0 148 -54t26 -158l-53 -296q-19 -104 -70.5 -148t-154.5 -44h-442q-103 0 -148 54.5t-27 157.5l15 86h214l-11 -68q-7 -36 5.5 -51t48.5 -15h281q36 0 52 13.5t22 49.5l11 60h-299l24 135h299l8 48q6 36 -6.5 51t-47.5 15h-282q-35 0 -51.5 -14
t-22.5 -49l-11 -64h-214l18 99q19 104 71 148t155 44z" />
    <glyph glyph-name="uni042E" unicode="&#x42e;" horiz-adv-x="1366" 
d="M738 700h452q103 0 148 -54t26 -158l-52 -296q-19 -104 -71 -148t-155 -44h-452q-103 0 -148 54t-26 158l9 54h-200l-47 -266h-222l124 700h222l-43 -243h200l9 51q19 104 71 148t155 44zM1099 246l37 204q6 36 -6.5 51.5t-48.5 15.5h-283q-36 0 -51.5 -13.5t-21.5 -49.5
l-37 -204q-6 -36 6.5 -51.5t48.5 -15.5h283q36 0 51.5 13.5t21.5 49.5z" />
    <glyph glyph-name="uni042F" unicode="&#x42f;" horiz-adv-x="897" 
d="M292 700h633l-124 -700h-222l41 225h-195l-200 -225h-264l222 244q-140 23 -110 189l16 95q17 98 62 134q46 38 141 38zM341 379h306l28 162h-311q-30 0 -42 -11t-18 -42l-9 -54q-6 -31 4.5 -43t41.5 -12z" />
    <glyph glyph-name="uni0430" unicode="&#x430;" horiz-adv-x="799" 
d="M260 536h354q190 0 156 -190l-61 -346h-176l-6 54q-44 -33 -81 -44q-33 -10 -104 -10h-217q-61 0 -91.5 36.5t-18.5 98.5l10 56q12 63 46 92t96 29h388l6 33q5 31 -5 43t-41 12h-186q-25 0 -35.5 -9t-14.5 -34l-2 -14h-202l7 43q13 81 54.5 115.5t123.5 34.5zM262 123
h170q40 0 69 21l28 20l5 28l4 22h-264q-22 0 -30.5 -7.5t-12.5 -29.5l-3 -15q-3 -22 4 -30.5t30 -8.5z" />
    <glyph glyph-name="uni0431" unicode="&#x431;" horiz-adv-x="807" 
d="M787 551l-475 -22q-41 -3 -58.5 -19.5t-23.5 -56.5l-6 -46q30 48 121 48h283q166 0 142 -166l-18 -139q-12 -82 -51.5 -116t-120.5 -34h-412q-164 0 -142 166l45 325q15 102 65.5 146.5t156.5 49.5l518 23zM518 312h-221q-22 0 -32 -7.5t-14 -26.5l-12 -81q-3 -25 6 -35
t35 -10h221q25 0 34.5 9t12.5 34l10 72q4 25 -5.5 35t-34.5 10z" />
    <glyph glyph-name="uni0432" unicode="&#x432;" horiz-adv-x="793" 
d="M94 536h570q128 0 104 -127l-7 -38q-16 -82 -69 -98q64 -22 49 -108l-9 -49q-11 -63 -42.5 -89.5t-93.5 -26.5h-597l48 267h-1zM524 407h-243l-15 -81h246q19 0 27 7t11 26l3 15q3 19 -3.5 26t-25.5 7zM531 161l4 26q3 19 -3 26.5t-26 7.5h-259l-16 -92h261q19 0 27 6.5
t12 25.5z" />
    <glyph glyph-name="uni0433" unicode="&#x433;" horiz-adv-x="652" 
d="M208 0h-209l95 536h594l-29 -166h-385z" />
    <glyph glyph-name="uni0434" unicode="&#x434;" horiz-adv-x="904" 
d="M842 536l-66 -376h97l-50 -280h-193l21 120h-493l-21 -120h-193l49 280h60q27 0 39.5 10.5t19.5 38.5l79 327h651zM363 370l-34 -137q-11 -43 -26 -73h264l37 210h-241z" />
    <glyph glyph-name="uni0435" unicode="&#x435;" horiz-adv-x="794" 
d="M259 536h355q95 0 133 -46.5t22 -142.5l-18 -108h-508l-6 -33q-5 -31 4.5 -43t40.5 -12h209q24 0 34.5 9t15.5 34l2 10h202l-10 -53q-15 -83 -55 -117t-121 -34h-379q-188 0 -155 190l30 172q16 96 62 135t142 39zM263 355l-2 -14h306l2 12q5 31 -4.5 42.5t-40.5 11.5
h-200q-30 0 -43 -11t-18 -41z" />
    <glyph glyph-name="uni0436" unicode="&#x436;" horiz-adv-x="1317" 
d="M1056 536h306l-357 -269l270 -267h-288l-228 248l-44 -248h-209l43 244l-296 -244h-307l367 272l-264 264h287l221 -247l44 247h209l-43 -242z" />
    <glyph glyph-name="uni0437" unicode="&#x437;" horiz-adv-x="794" 
d="M209 536h460q128 0 104 -127l-7 -38q-16 -82 -74 -99q61 -22 46 -107l-9 -49q-11 -63 -42.5 -89.5t-93.5 -26.5h-475q-126 0 -105 128l13 74h202l-7 -38q-3 -19 3.5 -26t25.5 -7h240q19 0 27 7t11 26l4 21q4 19 -2.5 26.5t-25.5 7.5h-190l19 109h183q19 0 27.5 7t11.5 26
l2 11q3 18 -3 25.5t-25 7.5h-225q-19 0 -27 -6.5t-11 -25.5l-6 -33h-201l14 81q10 63 41.5 89t94.5 26z" />
    <glyph glyph-name="uni0438" unicode="&#x438;" horiz-adv-x="825" 
d="M243 242l407 294h176l-95 -536h-201l53 302l-417 -302h-167l95 536h201z" />
    <glyph glyph-name="uni0439" unicode="&#x439;" horiz-adv-x="825" 
d="M622 572h-292q-78 0 -64 77l9 51h140l-4 -24q-4 -25 22 -25h112q24 0 28 25l4 24h140l-9 -55q-6 -39 -26.5 -56t-59.5 -17zM243 242l407 294h176l-95 -536h-201l53 302l-417 -302h-167l95 536h201z" />
    <glyph glyph-name="uni043A" unicode="&#x43a;" horiz-adv-x="809" 
d="M549 536h306l-358 -269l270 -267h-287l-228 248l-44 -248h-210l96 536h209l-43 -242z" />
    <glyph glyph-name="uni043B" unicode="&#x43b;" horiz-adv-x="812" 
d="M76 0h-112l29 160h30q28 0 40.5 10.5t19.5 38.5l80 327h651l-96 -536h-209l66 370h-241l-49 -194q-24 -95 -72 -135.5t-137 -40.5z" />
    <glyph glyph-name="uni043C" unicode="&#x43c;" horiz-adv-x="911" 
d="M192 0h-193l95 536h175l178 -274l278 274h187l-95 -536h-193l49 277l-203 -194h-95l-134 194z" />
    <glyph glyph-name="uni043D" unicode="&#x43d;" horiz-adv-x="811" 
d="M571 357l32 179h209l-95 -536h-209l34 191h-300l-34 -191h-209l95 536h209l-32 -179h300z" />
    <glyph glyph-name="uni043E" unicode="&#x43e;" horiz-adv-x="804" 
d="M546 0h-363q-191 0 -158 192l30 172q17 98 62 134q46 38 141 38h363q191 0 158 -192l-30 -172q-17 -97 -61 -134q-47 -38 -142 -38zM285 161h201q31 0 43.5 10.5t17.5 41.5l19 107q5 31 -5.5 43t-41.5 12h-201q-31 0 -43.5 -10.5t-17.5 -41.5l-19 -107q-5 -31 5.5 -43
t41.5 -12z" />
    <glyph glyph-name="uni043F" unicode="&#x43f;" horiz-adv-x="811" 
d="M208 0h-209l95 536h718l-95 -536h-209l65 370h-299z" />
    <glyph glyph-name="uni0440" unicode="&#x440;" horiz-adv-x="812" 
d="M469 536h163q95 0 133.5 -46.5t22.5 -143.5l-31 -172q-16 -96 -62 -135t-142 -39h-171q-66 0 -100 9q-34 7 -66 36l-36 -205h-209l123 696h175l6 -60q50 40 86 50q34 10 108 10zM555 213l19 107q5 31 -5 43t-41 12h-155q-49 0 -80 -22l-26 -20l-23 -131l19 -19
q22 -22 75 -22h157q31 0 43 10.5t17 41.5z" />
    <glyph glyph-name="uni0441" unicode="&#x441;" horiz-adv-x="776" 
d="M518 0h-335q-191 0 -158 192l30 172q17 98 62 134q46 38 141 38h335q189 0 158 -192l-6 -39h-201l2 15q4 31 -6 43t-41 12h-181q-31 0 -43.5 -10.5t-17.5 -41.5l-19 -107q-5 -31 5.5 -43t41.5 -12h181q31 0 43.5 10.5t17.5 41.5l4 23h201l-11 -64q-16 -96 -62 -134
t-141 -38z" />
    <glyph glyph-name="uni0442" unicode="&#x442;" horiz-adv-x="710" 
d="M269 370h-239l30 166h686l-30 -166h-238l-66 -370h-209z" />
    <glyph glyph-name="uni0443" unicode="&#x443;" horiz-adv-x="798" 
d="M379 205l223 331h245l-409 -543q-71 -96 -126 -125q-53 -28 -167 -28h-165l29 161h154q33 0 49.5 6t33.5 26l-199 503h227z" />
    <glyph glyph-name="uni0444" unicode="&#x444;" horiz-adv-x="1124" 
d="M710 536h231q191 0 158 -192l-30 -172q-17 -97 -61 -134q-47 -38 -142 -38h-251l-28 -160h-201l28 160h-231q-191 0 -158 192l30 172q17 98 62 134q46 38 141 38h251l29 164h201zM282 143h158l44 250h-163q-31 0 -43.5 -11t-17.5 -42l-25 -141q-5 -31 5.5 -43.5
t41.5 -12.5zM864 196l25 141q5 31 -5.5 43.5t-41.5 12.5h-157l-44 -250h162q31 0 43.5 11t17.5 42z" />
    <glyph glyph-name="uni0445" unicode="&#x445;" horiz-adv-x="793" 
d="M224 0h-278l304 274l-199 262h258l102 -142l148 142h278l-292 -262l206 -274h-257l-111 155z" />
    <glyph glyph-name="uni0446" unicode="&#x446;" horiz-adv-x="872" 
d="M620 0h-620l94 536h209l-65 -370h300l65 370h209l-65 -370h95l-50 -286h-193z" />
    <glyph glyph-name="uni0447" unicode="&#x447;" horiz-adv-x="772" 
d="M72 536h209l-32 -175q-4 -25 4.5 -35t33.5 -10h239l38 220h210l-96 -536h-209l27 151h-326q-166 0 -138 166z" />
    <glyph glyph-name="uni0448" unicode="&#x448;" horiz-adv-x="1182" 
d="M1088 0h-1089l95 536h209l-66 -370h231l66 370h209l-65 -370h231l65 370h210z" />
    <glyph glyph-name="uni0449" unicode="&#x449;" horiz-adv-x="1252" 
d="M1000 0h-1000l94 536h209l-65 -370h235l65 370h209l-65 -370h235l65 370h210l-65 -370h95l-51 -286h-193z" />
    <glyph glyph-name="uni044A" unicode="&#x44a;" horiz-adv-x="904" 
d="M196 370h-166l30 166h375l-27 -148h331q161 0 133 -162l-14 -80q-14 -81 -53 -113.5t-119 -32.5h-556zM385 258l-21 -120h243q23 0 34 9t15 32l6 36q4 24 -4 33.5t-32 9.5h-241z" />
    <glyph glyph-name="uni044B" unicode="&#x44b;" horiz-adv-x="1085" 
d="M-1 0l95 536h209l-26 -148h330q163 0 134 -162l-14 -80q-14 -81 -53 -113.5t-120 -32.5h-555zM987 0h-212l95 536h212zM494 258h-240l-21 -120h242q23 0 34 9t15 32l6 36q4 24 -4 33.5t-32 9.5z" />
    <glyph glyph-name="uni044C" unicode="&#x44c;" horiz-adv-x="772" 
d="M-1 0l95 536h209l-26 -148h330q163 0 134 -162l-14 -80q-14 -81 -53 -113.5t-120 -32.5h-555zM494 258h-240l-21 -120h242q23 0 34 9t15 32l6 36q4 24 -4 33.5t-32 9.5z" />
    <glyph glyph-name="uni044D" unicode="&#x44d;" horiz-adv-x="796" 
d="M257 536h356q191 0 158 -192l-30 -172q-17 -96 -62 -134q-46 -38 -141 -38h-355q-192 0 -158 193l7 43h201l-6 -34q-6 -30 5 -43t42 -13h202q30 0 42 11t18 42l4 23h-224l17 102h226l2 11q5 30 -6 42.5t-42 12.5h-201q-30 0 -42.5 -11t-17.5 -41l-6 -33h-201l10 59
q17 98 61 135t141 37z" />
    <glyph glyph-name="uni044E" unicode="&#x44e;" horiz-adv-x="1164" 
d="M618 536h363q191 0 158 -192l-30 -172q-17 -97 -61 -134q-47 -38 -142 -38h-363q-191 0 -158 191h-143l-34 -191h-209l95 536h209l-32 -179h143l1 7q17 98 62 134q46 38 141 38zM907 213l19 107q5 31 -5.5 43t-41.5 12h-201q-31 0 -43.5 -10.5t-17.5 -41.5l-19 -107
q-5 -31 5.5 -43t41.5 -12h201q31 0 43.5 10.5t17.5 41.5z" />
    <glyph glyph-name="uni044F" unicode="&#x44f;" horiz-adv-x="792" 
d="M238 536h556l-96 -536h-209l30 169h-173l-145 -169h-237l165 188q-94 27 -72 154l9 48q14 81 53 113.5t119 32.5zM301 293h240l20 111h-244q-23 0 -32.5 -8.5t-14.5 -32.5l-5 -27q-4 -24 4 -33.5t32 -9.5z" />
    <glyph glyph-name="uni0451" unicode="&#x451;" horiz-adv-x="794" 
d="M274 692h161l-20 -116h-161zM509 692h161l-20 -116h-161zM259 536h355q95 0 133 -46.5t22 -142.5l-18 -108h-508l-6 -33q-5 -31 4.5 -43t40.5 -12h209q24 0 34.5 9t15.5 34l2 10h202l-10 -53q-15 -83 -55 -117t-121 -34h-379q-188 0 -155 190l30 172q16 96 62 135t142 39
zM263 355l-2 -14h306l2 12q5 31 -4.5 42.5t-40.5 11.5h-200q-30 0 -43 -11t-18 -41z" />
    <glyph glyph-name="uni0453" unicode="&#x453;" horiz-adv-x="652" 
d="M634 700l-162 -128h-181l112 128h231zM208 0h-209l95 536h594l-29 -166h-385z" />
    <glyph glyph-name="uni0455" unicode="&#x455;" horiz-adv-x="784" 
d="M14 134l8 46h201l-5 -29q-3 -16 2 -21.5t21 -5.5h244q16 0 22 5.5t9 21.5l4 22q2 15 -3 20.5t-21 7.5l-327 22q-60 4 -88 37t-18 93l11 62q21 121 142 121h431q59 0 88.5 -36t19.5 -97l-6 -40h-201l4 22q3 15 -2.5 21t-21.5 6h-220q-16 0 -22 -5.5t-8 -21.5l-2 -10
q-2 -15 3 -20.5t20 -6.5l328 -22q60 -5 88.5 -39t17.5 -92l-13 -74q-22 -121 -143 -121h-455q-59 0 -88.5 36.5t-19.5 97.5z" />
    <glyph glyph-name="uni0456" unicode="&#x456;" horiz-adv-x="313" 
d="M317 576h-212l22 124h212zM215 0h-212l95 536h212z" />
    <glyph glyph-name="uni0457" unicode="&#x457;" horiz-adv-x="313" 
d="M174 576h-161l20 116h161zM409 576h-161l20 116h161zM215 0h-212l95 536h212z" />
    <glyph glyph-name="uni0458" unicode="&#x458;" horiz-adv-x="353" 
d="M357 576h-212l22 124h212zM77 -160h-214l27 153h110q25 0 35.5 9t14.5 34l88 500h213l-97 -546q-14 -82 -54.5 -116t-122.5 -34z" />
    <glyph glyph-name="uni045C" unicode="&#x45c;" horiz-adv-x="809" 
d="M481 700h231l-162 -128h-181zM549 536h306l-358 -269l270 -267h-287l-228 248l-44 -248h-210l96 536h209l-43 -242z" />
    <glyph glyph-name="uni045E" unicode="&#x45e;" horiz-adv-x="798" 
d="M607 572h-292q-78 0 -64 77l9 51h140l-4 -24q-4 -25 22 -25h112q24 0 28 25l4 24h140l-9 -55q-6 -39 -26.5 -56t-59.5 -17zM379 205l223 331h245l-409 -543q-71 -96 -126 -125q-53 -28 -167 -28h-165l29 161h154q33 0 49.5 6t33.5 26l-199 503h227z" />
    <glyph glyph-name="uni0498" unicode="&#x498;" horiz-adv-x="912" 
d="M272 700h500q81 0 116.5 -43t21.5 -125l-9 -51q-11 -58 -33.5 -87t-63.5 -39q78 -32 60 -142l-11 -65q-14 -82 -53.5 -115t-121.5 -33h-247l-11 -22h79q57 0 47 -57l-5 -28q-5 -30 -19 -41.5t-43 -11.5h-212l11 60h157q8 0 11 8l1 8q3 9 -8 9h-111l5 28l23 47h-197
q-82 0 -117 43t-21 126l16 94h214l-10 -56q-4 -25 5 -35.5t34 -10.5h312q24 0 33.5 9t14.5 34l7 37q4 25 -4.5 36t-34.5 11h-251l25 139h246q24 0 34 9t15 34l4 23q5 25 -4 35.5t-35 10.5h-291q-24 0 -34 -8.5t-15 -33.5l-9 -52h-214l19 107q14 82 53.5 115t120.5 33z" />
    <glyph glyph-name="uni0499" unicode="&#x499;" horiz-adv-x="794" 
d="M209 536h460q128 0 104 -127l-7 -38q-16 -82 -74 -99q61 -22 46 -107l-9 -49q-11 -63 -42.5 -89.5t-93.5 -26.5h-221l-11 -22h79q58 0 47 -57l-5 -28q-5 -30 -19 -41.5t-43 -11.5h-212l11 60h157q8 0 11 8l1 8q3 9 -8 9h-111l5 28l23 47h-179q-126 0 -105 128l13 74h202
l-7 -38q-3 -19 3.5 -26t25.5 -7h240q19 0 27 7t11 26l4 21q4 19 -2.5 26.5t-25.5 7.5h-190l19 109h183q19 0 27.5 7t11.5 26l2 11q3 18 -3 25.5t-25 7.5h-225q-19 0 -27 -6.5t-11 -25.5l-6 -33h-201l14 81q10 63 41.5 89t94.5 26z" />
    <glyph glyph-name="uni04BB" unicode="&#x4bb;" horiz-adv-x="807" 
d="M476 536h144q192 0 157 -192l-60 -344h-209l55 315q6 31 -4.5 43t-41.5 12h-145q-49 0 -80 -22l-26 -19l-58 -329h-209l124 700h209l-38 -215q43 33 79 42q34 9 103 9z" />
    <glyph glyph-name="uni04C0" unicode="&#x4c0;" horiz-adv-x="330" 
d="M5 0l124 700h225l-124 -700h-225z" />
    <glyph glyph-name="uni04C1" unicode="&#x4c1;" horiz-adv-x="1497" 
d="M995 736h-292q-78 0 -64 77l9 51h140l-4 -24q-4 -25 22 -25h112q24 0 28 25l4 24h140l-9 -55q-6 -39 -26.5 -56t-59.5 -17zM1251 700h316l-439 -342l319 -358h-296l-279 337l-60 -337h-222l59 331l-380 -331h-315l447 365l-319 335h297l278 -321l57 321h222l-55 -313z
" />
    <glyph glyph-name="uni04C2" unicode="&#x4c2;" horiz-adv-x="1317" 
d="M876 572h-292q-78 0 -64 77l9 51h140l-4 -24q-4 -25 22 -25h112q24 0 28 25l4 24h140l-9 -55q-6 -39 -26.5 -56t-59.5 -17zM1056 536h306l-357 -269l270 -267h-288l-228 248l-44 -248h-209l43 244l-296 -244h-307l367 272l-264 264h287l221 -247l44 247h209l-43 -242z
" />
    <glyph glyph-name="uni04D0" unicode="&#x4d0;" horiz-adv-x="960" 
d="M727 736h-292q-78 0 -64 77l9 51h140l-4 -24q-4 -25 22 -25h112q24 0 28 25l4 24h140l-9 -55q-6 -39 -26.5 -56t-59.5 -17zM915 0h-238l-32 113h-370l-72 -113h-254l482 700h251zM531 517l-159 -251h230z" />
    <glyph glyph-name="uni04D1" unicode="&#x4d1;" horiz-adv-x="799" 
d="M617 572h-292q-78 0 -64 77l9 51h140l-4 -24q-4 -25 22 -25h112q24 0 28 25l4 24h140l-9 -55q-6 -39 -26.5 -56t-59.5 -17zM260 536h354q190 0 156 -190l-61 -346h-176l-6 54q-44 -33 -81 -44q-33 -10 -104 -10h-217q-61 0 -91.5 36.5t-18.5 98.5l10 56q12 63 46 92
t96 29h388l6 33q5 31 -5 43t-41 12h-186q-25 0 -35.5 -9t-14.5 -34l-2 -14h-202l7 43q13 81 54.5 115.5t123.5 34.5zM262 123h170q40 0 69 21l28 20l5 28l4 22h-264q-22 0 -30.5 -7.5t-12.5 -29.5l-3 -15q-3 -22 4 -30.5t30 -8.5z" />
    <glyph glyph-name="uni04D2" unicode="&#x4d2;" horiz-adv-x="960" 
d="M386 856h161l-20 -116h-161zM621 856h161l-20 -116h-161zM915 0h-238l-32 113h-370l-72 -113h-254l482 700h251zM531 517l-159 -251h230z" />
    <glyph glyph-name="uni04D3" unicode="&#x4d3;" horiz-adv-x="799" 
d="M276 692h161l-20 -116h-161zM511 692h161l-20 -116h-161zM260 536h354q190 0 156 -190l-61 -346h-176l-6 54q-44 -33 -81 -44q-33 -10 -104 -10h-217q-61 0 -91.5 36.5t-18.5 98.5l10 56q12 63 46 92t96 29h388l6 33q5 31 -5 43t-41 12h-186q-25 0 -35.5 -9t-14.5 -34
l-2 -14h-202l7 43q13 81 54.5 115.5t123.5 34.5zM262 123h170q40 0 69 21l28 20l5 28l4 22h-264q-22 0 -30.5 -7.5t-12.5 -29.5l-3 -15q-3 -22 4 -30.5t30 -8.5z" />
    <glyph glyph-name="uni04D4" unicode="&#x4d4;" horiz-adv-x="1284" 
d="M1327 700l-31 -169h-551l30 -102h463l-25 -143h-396l35 -117h391l-30 -169h-550l-27 108h-364l-69 -108h-253l482 700h895zM532 517l-162 -255h226z" />
    <glyph glyph-name="uni04D5" unicode="&#x4d5;" horiz-adv-x="1303" 
d="M809 536h314q189 0 155 -190l-19 -107h-508l-6 -33q-5 -31 5 -43t41 -12h210q24 0 34.5 9t15.5 34l2 10h201l-10 -54q-15 -82 -55.5 -116t-121.5 -34h-350q-98 0 -136 50q-45 -32 -78 -41q-35 -9 -102 -9h-275q-62 0 -92.5 36.5t-18.5 98.5l11 56q12 63 46 92t95 29h388
l6 33q5 31 -5 43t-41 12h-186q-25 0 -35.5 -9.5t-14.5 -33.5l-2 -14h-202l7 43q13 81 54.5 115.5t123.5 34.5h314q78 0 111 -41q38 41 124 41zM772 355l-3 -14h308l2 12q5 31 -5 42.5t-41 11.5h-200q-31 0 -43.5 -10.5t-17.5 -41.5zM501 144l28 20l9 50h-264
q-22 0 -30.5 -7.5t-12.5 -29.5l-3 -15q-3 -22 4 -30.5t30 -8.5h170q40 0 69 21z" />
    <glyph glyph-name="uni04D6" unicode="&#x4d6;" horiz-adv-x="812" 
d="M652 736h-292q-78 0 -64 77l9 51h140l-4 -24q-4 -25 22 -25h112q24 0 28 25l4 24h140l-9 -55q-6 -39 -26.5 -56t-59.5 -17zM854 700l-30 -171h-508l-18 -99h468l-25 -146h-469l-20 -113h519l-31 -171h-740l124 700h730z" />
    <glyph glyph-name="uni04D7" unicode="&#x4d7;" horiz-adv-x="794" 
d="M615 572h-292q-78 0 -64 77l9 51h140l-4 -24q-4 -25 22 -25h112q24 0 28 25l4 24h140l-9 -55q-6 -39 -26.5 -56t-59.5 -17zM259 536h355q95 0 133 -46.5t22 -142.5l-18 -108h-508l-6 -33q-5 -31 4.5 -43t40.5 -12h209q24 0 34.5 9t15.5 34l2 10h202l-10 -53
q-15 -83 -55 -117t-121 -34h-379q-188 0 -155 190l30 172q16 96 62 135t142 39zM263 355l-2 -14h306l2 12q5 31 -4.5 42.5t-40.5 11.5h-200q-30 0 -43 -11t-18 -41z" />
    <glyph glyph-name="uni04DC" unicode="&#x4dc;" horiz-adv-x="1497" 
d="M654 856h161l-20 -116h-161zM889 856h161l-20 -116h-161zM1251 700h316l-439 -342l319 -358h-296l-279 337l-60 -337h-222l59 331l-380 -331h-315l447 365l-319 335h297l278 -321l57 321h222l-55 -313z" />
    <glyph glyph-name="uni04DD" unicode="&#x4dd;" horiz-adv-x="1317" 
d="M535 692h161l-20 -116h-161zM770 692h161l-20 -116h-161zM1056 536h306l-357 -269l270 -267h-288l-228 248l-44 -248h-209l43 244l-296 -244h-307l367 272l-264 264h287l221 -247l44 247h209l-43 -242z" />
    <glyph glyph-name="uni04DE" unicode="&#x4de;" horiz-adv-x="912" 
d="M362 856h161l-20 -116h-161zM597 856h161l-20 -116h-161zM272 700h500q81 0 116.5 -43t21.5 -125l-9 -51q-11 -58 -33.5 -87t-63.5 -39q78 -32 60 -142l-11 -65q-14 -82 -53.5 -115t-121.5 -33h-519q-82 0 -117 43t-21 126l16 94h214l-10 -56q-4 -25 5 -35.5t34 -10.5
h312q24 0 33.5 9t14.5 34l7 37q4 25 -4.5 36t-34.5 11h-251l25 139h246q24 0 34 9t15 34l4 23q5 25 -4 35.5t-35 10.5h-291q-24 0 -34 -8.5t-15 -33.5l-9 -52h-214l19 107q14 82 53.5 115t120.5 33z" />
    <glyph glyph-name="uni04DF" unicode="&#x4df;" horiz-adv-x="794" 
d="M274 692h161l-20 -116h-161zM509 692h161l-20 -116h-161zM209 536h460q128 0 104 -127l-7 -38q-16 -82 -74 -99q61 -22 46 -107l-9 -49q-11 -63 -42.5 -89.5t-93.5 -26.5h-475q-126 0 -105 128l13 74h202l-7 -38q-3 -19 3.5 -26t25.5 -7h240q19 0 27 7t11 26l4 21
q4 19 -2.5 26.5t-25.5 7.5h-190l19 109h183q19 0 27.5 7t11.5 26l2 11q3 18 -3 25.5t-25 7.5h-225q-19 0 -27 -6.5t-11 -25.5l-6 -33h-201l14 81q10 63 41.5 89t94.5 26z" />
    <glyph glyph-name="uni04E2" unicode="&#x4e2;" horiz-adv-x="942" 
d="M338 848h456l-17 -95h-456zM267 296l515 404h188l-124 -700h-214l73 412l-525 -412h-180l124 700h214z" />
    <glyph glyph-name="uni04E3" unicode="&#x4e3;" horiz-adv-x="825" 
d="M250 684h456l-17 -95h-456zM243 242l407 294h176l-95 -536h-201l53 302l-417 -302h-167l95 536h201z" />
    <glyph glyph-name="uni04E4" unicode="&#x4e4;" horiz-adv-x="942" 
d="M369 856h161l-20 -116h-161zM604 856h161l-20 -116h-161zM267 296l515 404h188l-124 -700h-214l73 412l-525 -412h-180l124 700h214z" />
    <glyph glyph-name="uni04E5" unicode="&#x4e5;" horiz-adv-x="825" 
d="M281 692h161l-20 -116h-161zM516 692h161l-20 -116h-161zM243 242l407 294h176l-95 -536h-201l53 302l-417 -302h-167l95 536h201z" />
    <glyph glyph-name="uni04E6" unicode="&#x4e6;" horiz-adv-x="935" 
d="M514 740h-161l20 116h161zM749 740h-161l20 116h161zM656 0h-452q-103 0 -148 54t-26 158l52 296q19 104 71 148t155 44h452q103 0 148 -54t26 -158l-52 -296q-19 -104 -71 -148t-155 -44zM313 183h283q36 0 51.5 13.5t21.5 49.5l37 204q6 36 -6.5 51.5t-48.5 15.5h-283
q-36 0 -51.5 -13.5t-21.5 -49.5l-37 -204q-6 -36 6.5 -51.5t48.5 -15.5z" />
    <glyph glyph-name="uni04E7" unicode="&#x4e7;" horiz-adv-x="804" 
d="M420 576h-161l20 116h161zM655 576h-161l20 116h161zM546 0h-363q-191 0 -158 192l30 172q17 98 62 134q46 38 141 38h363q191 0 158 -192l-30 -172q-17 -97 -61 -134q-47 -38 -142 -38zM285 161h201q31 0 43.5 10.5t17.5 41.5l19 107q5 31 -5.5 43t-41.5 12h-201
q-31 0 -43.5 -10.5t-17.5 -41.5l-19 -107q-5 -31 5.5 -43t41.5 -12z" />
    <glyph glyph-name="uni04EC" unicode="&#x4ec;" horiz-adv-x="922" 
d="M367 856h161l-20 -116h-161zM602 856h161l-20 -116h-161zM306 700h442q103 0 148 -54t26 -158l-53 -296q-19 -104 -70.5 -148t-154.5 -44h-442q-103 0 -148 54.5t-27 157.5l15 86h214l-11 -68q-7 -36 5.5 -51t48.5 -15h281q36 0 52 13.5t22 49.5l11 60h-299l24 135h299
l8 48q6 36 -6.5 51t-47.5 15h-282q-35 0 -51.5 -14t-22.5 -49l-11 -64h-214l18 99q19 104 71 148t155 44z" />
    <glyph glyph-name="uni04ED" unicode="&#x4ed;" horiz-adv-x="796" 
d="M275 692h161l-20 -116h-161zM510 692h161l-20 -116h-161zM257 536h356q191 0 158 -192l-30 -172q-17 -96 -62 -134q-46 -38 -141 -38h-355q-192 0 -158 193l7 43h201l-6 -34q-6 -30 5 -43t42 -13h202q30 0 42 11t18 42l4 23h-224l17 102h226l2 11q5 30 -6 42.5t-42 12.5
h-201q-30 0 -42.5 -11t-17.5 -41l-6 -33h-201l10 59q17 98 61 135t141 37z" />
    <glyph glyph-name="uni04EE" unicode="&#x4ee;" horiz-adv-x="892" 
d="M309 848h456l-17 -95h-456zM462 409l243 291h271l-627 -700h-271l232 255l-242 445h254z" />
    <glyph glyph-name="uni04EF" unicode="&#x4ef;" horiz-adv-x="798" 
d="M235 684h456l-17 -95h-456zM379 205l223 331h245l-409 -543q-71 -96 -126 -125q-53 -28 -167 -28h-165l29 161h154q33 0 49.5 6t33.5 26l-199 503h227z" />
    <glyph glyph-name="uni04F0" unicode="&#x4f0;" horiz-adv-x="892" 
d="M340 856h161l-20 -116h-161zM575 856h161l-20 -116h-161zM462 409l243 291h271l-627 -700h-271l232 255l-242 445h254z" />
    <glyph glyph-name="uni04F1" unicode="&#x4f1;" horiz-adv-x="798" 
d="M266 692h161l-20 -116h-161zM501 692h161l-20 -116h-161zM379 205l223 331h245l-409 -543q-71 -96 -126 -125q-53 -28 -167 -28h-165l29 161h154q33 0 49.5 6t33.5 26l-199 503h227z" />
    <glyph glyph-name="uni04F2" unicode="&#x4f2;" horiz-adv-x="892" 
d="M391 864h216l-134 -128h-174zM869 864l-135 -128h-174l92 128h217zM462 409l243 291h271l-627 -700h-271l232 255l-242 445h254z" />
    <glyph glyph-name="uni04F3" unicode="&#x4f3;" horiz-adv-x="798" 
d="M317 700h216l-134 -128h-174zM795 700l-135 -128h-174l92 128h217zM379 205l223 331h245l-409 -543q-71 -96 -126 -125q-53 -28 -167 -28h-165l29 161h154q33 0 49.5 6t33.5 26l-199 503h227z" />
    <glyph glyph-name="uni04F4" unicode="&#x4f4;" horiz-adv-x="886" 
d="M489 740h-161l20 116h161zM724 740h-161l20 116h161zM790 0h-222l37 204h-400q-191 0 -158 192l53 304h222l-44 -250q-5 -31 5.5 -43t41.5 -12h314l53 305h222z" />
    <glyph glyph-name="uni04F5" unicode="&#x4f5;" horiz-adv-x="600" 
d="M264 576h-161l20 116h161zM499 576h-161l20 116h161zM72 536h209l-32 -175q-4 -25 4.5 -35t33.5 -10h239l38 220h210l-96 -536h-209l27 151h-326q-166 0 -138 166z" />
    <glyph glyph-name="uni04F8" unicode="&#x4f8;" horiz-adv-x="1208" 
d="M1089 740h-161l20 116h161zM1324 740h-161l20 116h161zM0 0l124 700h222l-35 -200h392q191 0 157 -192l-23 -136q-17 -97 -61 -134q-47 -38 -142 -38h-634zM883 0l124 700h225l-124 -700h-225zM588 341h-306l-29 -174h310q30 0 42.5 11t17.5 42l12 66q5 31 -5.5 43
t-41.5 12z" />
    <glyph glyph-name="uni04F9" unicode="&#x4f9;" horiz-adv-x="1085" 
d="M946 576h-161l20 116h161zM1181 576h-161l20 116h161zM-1 0l95 536h209l-26 -148h330q163 0 134 -162l-14 -80q-14 -81 -53 -113.5t-120 -32.5h-555zM987 0h-212l95 536h212zM494 258h-240l-21 -120h242q23 0 34 9t15 32l6 36q4 24 -4 33.5t-32 9.5z" />
    <glyph glyph-name="Wgrave" unicode="&#x1e80;" horiz-adv-x="1292" 
d="M734 864l68 -128h-159l-119 128h210zM892 271l233 429h245l-411 -700h-194l-97 416l-242 -416h-188l-164 700h234l82 -427l243 427h164z" />
    <glyph glyph-name="wgrave" unicode="&#x1e81;" horiz-adv-x="1100" 
d="M605 700l68 -128h-159l-119 128h210zM747 234l169 302h230l-335 -536h-182l-75 306l-181 -306h-179l-144 536h214l64 -302l181 302h161z" />
    <glyph glyph-name="Wacute" unicode="&#x1e82;" horiz-adv-x="1292" 
d="M745 864h231l-162 -128h-181zM892 271l233 429h245l-411 -700h-194l-97 416l-242 -416h-188l-164 700h234l82 -427l243 427h164z" />
    <glyph glyph-name="wacute" unicode="&#x1e83;" horiz-adv-x="1100" 
d="M616 700h231l-162 -128h-181zM747 234l169 302h230l-335 -536h-182l-75 306l-181 -306h-179l-144 536h214l64 -302l181 302h161z" />
    <glyph glyph-name="Wdieresis" unicode="&#x1e84;" horiz-adv-x="1292" 
d="M545 856h161l-20 -116h-161zM780 856h161l-20 -116h-161zM892 271l233 429h245l-411 -700h-194l-97 416l-242 -416h-188l-164 700h234l82 -427l243 427h164z" />
    <glyph glyph-name="wdieresis" unicode="&#x1e85;" horiz-adv-x="1100" 
d="M416 692h161l-20 -116h-161zM651 692h161l-20 -116h-161zM747 234l169 302h230l-335 -536h-182l-75 306l-181 -306h-179l-144 536h214l64 -302l181 302h161z" />
    <glyph glyph-name="uni1E9E" unicode="&#x1e9e;" horiz-adv-x="935" 
d="M311 700h618l-15 -91l-229 -176h75q81 0 116.5 -43t21.5 -125l-20 -117q-13 -81 -53 -114.5t-122 -33.5h-382l29 159h266q24 0 34 9t15 34l9 50q4 25 -4 35t-34 10h-241l19 110l153 116h-194q-36 0 -52 -13.5t-22 -49.5l-81 -460h-223l90 508q19 104 71 148t155 44z" />
    <glyph glyph-name="Ygrave" unicode="&#x1ef2;" horiz-adv-x="892" 
d="M532 864l68 -128h-159l-119 128h210zM706 700h270l-421 -445l-46 -255h-222l45 254l-264 446h256l145 -267z" />
    <glyph glyph-name="ygrave" unicode="&#x1ef3;" horiz-adv-x="798" 
d="M455 700l68 -128h-159l-119 128h210zM379 205l223 331h245l-409 -543q-71 -96 -126 -125q-53 -28 -167 -28h-165l29 161h154q33 0 49.5 6t33.5 26l-199 503h227z" />
    <glyph glyph-name="endash" unicode="&#x2013;" horiz-adv-x="760" 
d="M35 263l30 174h688l-30 -174h-688z" />
    <glyph glyph-name="emdash" unicode="&#x2014;" horiz-adv-x="1028" 
d="M35 263l30 174h956l-30 -174h-956z" />
    <glyph glyph-name="quoteleft" unicode="&#x2018;" horiz-adv-x="338" 
d="M223 700h140l-94 -160h68l-35 -204h-242l13 76q15 84 61 151z" />
    <glyph glyph-name="quoteright" unicode="&#x2019;" horiz-adv-x="338" 
d="M203 336h-140l94 160h-68l35 204h242l-13 -76q-15 -84 -61 -151z" />
    <glyph glyph-name="quotesinglbase" unicode="&#x201a;" horiz-adv-x="338" 
d="M116 -160h-140l94 160h-68l35 204h242l-13 -76q-15 -84 -61 -151z" />
    <glyph glyph-name="quotedblleft" unicode="&#x201c;" horiz-adv-x="652" 
d="M223 700h140l-94 -160h68l-35 -204h-242l13 76q15 84 61 151zM537 700h140l-94 -160h68l-35 -204h-242l13 76q15 84 61 151z" />
    <glyph glyph-name="quotedblright" unicode="&#x201d;" horiz-adv-x="652" 
d="M203 336h-140l94 160h-68l35 204h242l-13 -76q-15 -84 -61 -151zM517 336h-140l94 160h-68l35 204h242l-13 -76q-15 -84 -61 -151z" />
    <glyph glyph-name="quotedblbase" unicode="&#x201e;" horiz-adv-x="652" 
d="M116 -160h-140l94 160h-68l35 204h242l-13 -76q-15 -84 -61 -151zM430 -160h-140l94 160h-68l35 204h242l-13 -76q-15 -84 -61 -151z" />
    <glyph glyph-name="dagger" unicode="&#x2020;" horiz-adv-x="502" 
d="M372 585h152l-21 -118h-152l-37 -209h-130l37 209h-152l21 118h152l20 115h130z" />
    <glyph glyph-name="daggerdbl" unicode="&#x2021;" horiz-adv-x="502" 
d="M526 594l-20 -114h-152l-18 -106h151l-20 -114h-151l-19 -106h-131l19 106h-152l20 114h152l18 106h-151l20 114h151l19 106h131l-19 -106h152z" />
    <glyph glyph-name="bullet" unicode="&#x2022;" horiz-adv-x="460" 
d="M299 168h-161q-52 0 -74.5 27.5t-13.5 79.5l28 161q9 52 35.5 74t78.5 22h160q106 0 88 -107l-28 -161q-9 -51 -35 -73.5t-78 -22.5z" />
    <glyph glyph-name="perthousand" unicode="&#x2030;" horiz-adv-x="1404" 
d="M464 510l-18 -108q-9 -54 -36.5 -77t-81.5 -23h-178q-53 0 -76 28.5t-14 81.5l18 108q9 54 36.5 77t81.5 23h178q108 0 90 -110zM200 0h-124l710 620h125zM203 399h98q19 0 27 7t11 25l10 59q4 19 -2.5 26t-25.5 7h-98q-18 0 -26 -6.5t-12 -25.5l-10 -59q-6 -33 28 -33z
M791 0h-178q-53 0 -76.5 28.5t-14.5 81.5l19 108q9 54 36.5 77t81.5 23h178q108 0 90 -110l-19 -108q-9 -54 -36.5 -77t-80.5 -23zM1223 0h-178q-53 0 -76.5 28.5t-14.5 81.5l19 108q9 54 36.5 77t81.5 23h178q108 0 90 -110l-19 -108q-9 -54 -36.5 -77t-80.5 -23zM666 97
h98q18 0 26 7t11 25l11 59q3 19 -3.5 26t-24.5 7h-99q-18 0 -26 -6.5t-11 -25.5l-11 -59q-6 -33 29 -33zM1098 97h98q18 0 26 7t11 25l11 59q3 19 -3.5 26t-24.5 7h-99q-18 0 -26 -6.5t-11 -25.5l-11 -59q-6 -33 29 -33z" />
    <glyph glyph-name="guilsinglleft" unicode="&#x2039;" horiz-adv-x="532" 
d="M71 422l475 176l-30 -167l-256 -81l226 -92l-28 -156l-409 196z" />
    <glyph glyph-name="guilsinglright" unicode="&#x203a;" horiz-adv-x="532" 
d="M75 442l28 156l409 -196l-22 -124l-475 -176l30 167l256 81z" />
    <glyph glyph-name="fraction" unicode="&#x2044;" horiz-adv-x="255" 
d="M-149 0h-128l709 700h128z" />
    <glyph glyph-name="Euro" unicode="&#x20ac;" horiz-adv-x="892" 
d="M352 700h358q103 0 148 -54.5t27 -157.5l-14 -79h-206l11 65q7 35 -6 50t-49 15h-214q-35 0 -50.5 -13.5t-21.5 -49.5l-3 -17h266l-15 -83h-266l-9 -52h266l-15 -83h-265l-3 -15q-7 -35 6 -50t49 -15h213q36 0 51 13.5t22 49.5l13 74h206l-19 -106q-19 -104 -71 -148
t-155 -44h-358q-103 0 -148 54t-26 158l5 29h-82l15 83h82l9 52h-82l15 83h82l9 49q19 104 70.5 148t154.5 44z" />
    <glyph glyph-name="trademark" unicode="&#x2122;" horiz-adv-x="657" 
d="M367 700l-12 -68h-95l-29 -165h-78l29 165h-94l12 68h267zM525 578l114 122h70l-42 -233h-74l22 122l-81 -86h-41l-51 86l-22 -122h-73l42 233h65z" />
    <glyph glyph-name="minus" unicode="&#x2212;" 
d="M50 263l30 174h752l-30 -174h-752z" />
    <glyph glyph-name="approxequal" unicode="&#x2248;" 
d="M497 618l113 -115q11 -11 25 -11h21q15 0 18 16l29 166h176l-37 -210q-10 -53 -36 -75.5t-79 -22.5h-142q-52 0 -79 11q-25 10 -50 46l-113 114q-11 11 -25 11h-21q-15 0 -18 -16l-30 -166h-176l38 210q9 53 35 75.5t79 22.5h143q56 0 80 -10t49 -46zM437 278l113 -115
q11 -11 25 -11h21q15 0 18 16l29 166h176l-37 -210q-10 -53 -36 -75.5t-79 -22.5h-142q-52 0 -79 11q-25 10 -50 46l-113 114q-11 11 -25 11h-21q-15 0 -18 -16l-30 -166h-176l38 210q9 53 35 75.5t79 22.5h143q56 0 80 -10t49 -46z" />
    <glyph glyph-name="notequal" unicode="&#x2260;" 
d="M860 565l-29 -166h-273l-62 -98h318l-29 -166h-392l-67 -107h-162l67 107h-198l29 166h273l61 98h-317l29 166h392l67 107h161l-67 -107h199z" />
    <glyph glyph-name="lessequal" unicode="&#x2264;" 
d="M103 534l780 158l-32 -179l-483 -63l458 -77l-29 -167l-720 178zM762 8h-752l27 150h752z" />
    <glyph glyph-name="greaterequal" unicode="&#x2265;" 
d="M102 525l29 167l720 -178l-26 -150l-780 -158l32 179l481 64zM762 8h-752l27 150h752z" />
    <glyph glyph-name="fi" unicode="&#xfb01;" horiz-adv-x="925" 
d="M393 470h243l-28 -158h-243l-55 -312h-210l55 312h-135l28 158h135l14 80q15 82 55.5 116t121.5 34h303l-27 -152h-202q-24 0 -34 -9t-15 -34zM717 576l22 124h212l-22 -124h-212zM827 0h-212l95 536h212z" />
    <glyph glyph-name="fl" unicode="&#xfb02;" horiz-adv-x="925" 
d="M393 470h243l-28 -158h-243l-55 -312h-210l55 312h-135l28 158h135l14 80q15 82 55.5 116t121.5 34h303l-27 -152h-202q-24 0 -34 -9t-15 -34zM615 0l124 700h212l-124 -700h-212z" />
    <glyph glyph-name="null" horiz-adv-x="0" 
 />
    <glyph glyph-name="A.ss01" horiz-adv-x="924" 
d="M311 700h434q103 0 148.5 -54t26.5 -158l-87 -488h-222l30 167h-394l-30 -167h-222l91 508q19 104 70.5 148t154.5 44zM298 455l-21 -118h394l20 114q6 35 -6.5 50.5t-48.5 15.5h-265q-36 0 -51.5 -13.5t-21.5 -48.5z" />
    <glyph glyph-name="Aacute.ss01" horiz-adv-x="924" 
d="M567 864h231l-162 -128h-181zM311 700h434q103 0 148.5 -54t26.5 -158l-87 -488h-222l30 167h-394l-30 -167h-222l91 508q19 104 70.5 148t154.5 44zM298 455l-21 -118h394l20 114q6 35 -6.5 50.5t-48.5 15.5h-265q-36 0 -51.5 -13.5t-21.5 -48.5z" />
    <glyph glyph-name="Abreve.ss01" horiz-adv-x="924" 
d="M691 736h-292q-78 0 -64 77l9 51h140l-4 -24q-4 -25 22 -25h112q24 0 28 25l4 24h140l-9 -55q-6 -39 -26.5 -56t-59.5 -17zM311 700h434q103 0 148.5 -54t26.5 -158l-87 -488h-222l30 167h-394l-30 -167h-222l91 508q19 104 70.5 148t154.5 44zM298 455l-21 -118h394
l20 114q6 35 -6.5 50.5t-48.5 15.5h-265q-36 0 -51.5 -13.5t-21.5 -48.5z" />
    <glyph glyph-name="Acircumflex.ss01" horiz-adv-x="924" 
d="M636 736l-76 52l-94 -52h-157l154 128h206l110 -128h-143zM311 700h434q103 0 148.5 -54t26.5 -158l-87 -488h-222l30 167h-394l-30 -167h-222l91 508q19 104 70.5 148t154.5 44zM298 455l-21 -118h394l20 114q6 35 -6.5 50.5t-48.5 15.5h-265q-36 0 -51.5 -13.5
t-21.5 -48.5z" />
    <glyph glyph-name="Adieresis.ss01" horiz-adv-x="924" 
d="M367 856h161l-20 -116h-161zM602 856h161l-20 -116h-161zM311 700h434q103 0 148.5 -54t26.5 -158l-87 -488h-222l30 167h-394l-30 -167h-222l91 508q19 104 70.5 148t154.5 44zM298 455l-21 -118h394l20 114q6 35 -6.5 50.5t-48.5 15.5h-265q-36 0 -51.5 -13.5
t-21.5 -48.5z" />
    <glyph glyph-name="Agrave.ss01" horiz-adv-x="924" 
d="M556 864l68 -128h-159l-119 128h210zM311 700h434q103 0 148.5 -54t26.5 -158l-87 -488h-222l30 167h-394l-30 -167h-222l91 508q19 104 70.5 148t154.5 44zM298 455l-21 -118h394l20 114q6 35 -6.5 50.5t-48.5 15.5h-265q-36 0 -51.5 -13.5t-21.5 -48.5z" />
    <glyph glyph-name="Amacron.ss01" horiz-adv-x="924" 
d="M336 848h456l-17 -95h-456zM311 700h434q103 0 148.5 -54t26.5 -158l-87 -488h-222l30 167h-394l-30 -167h-222l91 508q19 104 70.5 148t154.5 44zM298 455l-21 -118h394l20 114q6 35 -6.5 50.5t-48.5 15.5h-265q-36 0 -51.5 -13.5t-21.5 -48.5z" />
    <glyph glyph-name="Aogonek.ss01" horiz-adv-x="924" 
d="M662 -28l-1 -7q-1 -19 16 -19h160l-19 -106h-217q-43 0 -59.5 20.5t-11.5 65.5l2 16q4 31 17 50t46 42l25 14l21 119h-394l-30 -167h-222l91 508q19 104 70.5 148t154.5 44h434q103 0 148.5 -54t26.5 -158l-87 -488h-145l-10 -6q-15 -10 -16 -22zM298 455l-21 -118h394
l20 114q6 35 -6.5 50.5t-48.5 15.5h-265q-36 0 -51.5 -13.5t-21.5 -48.5z" />
    <glyph glyph-name="Aring.ss01" horiz-adv-x="924" 
d="M652 726h-215q-57 0 -47 57l4 28q5 29 19 41t44 12h215q57 0 48 -57l-5 -28q-5 -29 -19 -41t-44 -12zM467 801l-2 -12q-2 -11 0.5 -14.5t13.5 -3.5h143q11 0 14.5 3t5.5 15l3 12q2 11 -1 14.5t-13 3.5h-144q-11 0 -14.5 -3t-5.5 -15zM311 700h434q103 0 148.5 -54
t26.5 -158l-87 -488h-222l30 167h-394l-30 -167h-222l91 508q19 104 70.5 148t154.5 44zM298 455l-21 -118h394l20 114q6 35 -6.5 50.5t-48.5 15.5h-265q-36 0 -51.5 -13.5t-21.5 -48.5z" />
    <glyph glyph-name="Aringacute.ss01" horiz-adv-x="924" 
d="M699 700h46q103 0 148.5 -54t26.5 -158l-87 -488h-222l30 167h-394l-30 -167h-222l91 508q19 104 70.5 148t154.5 44h65q0 1 2 19l4 28q5 29 19 41t44 12h39l50 64h224l-79 -66q37 -7 28 -55l-4 -28q-1 -5 -4 -15zM455 737l-2 -12q-2 -11 0.5 -14.5t13.5 -3.5h143
q11 0 14.5 3t5.5 15l2 12q2 11 -0.5 14.5t-13.5 3.5h-143q-11 0 -14.5 -3t-5.5 -15zM298 455l-21 -118h394l20 114q6 35 -6.5 50.5t-48.5 15.5h-265q-36 0 -51.5 -13.5t-21.5 -48.5z" />
    <glyph glyph-name="Atilde.ss01" horiz-adv-x="924" 
d="M452 789l-9 -53h-116l13 80q10 48 58 48h148q23 0 34.5 -5.5t21.5 -21.5l20 -28q4 -6 14 -6h14q7 0 9 8l9 53h117l-14 -80q-9 -48 -57 -48h-149q-24 0 -34.5 5t-21.5 22l-20 28q-5 6 -13 6h-14q-8 0 -10 -8zM311 700h434q103 0 148.5 -54t26.5 -158l-87 -488h-222l30 167
h-394l-30 -167h-222l91 508q19 104 70.5 148t154.5 44zM298 455l-21 -118h394l20 114q6 35 -6.5 50.5t-48.5 15.5h-265q-36 0 -51.5 -13.5t-21.5 -48.5z" />
    <glyph glyph-name="I.ss01" horiz-adv-x="666" 
d="M719 700l-30 -166h-196l-65 -368h197l-30 -166h-618l30 166h196l65 368h-197l30 166h618z" />
    <glyph glyph-name="Iacute.ss01" horiz-adv-x="666" 
d="M438 864h231l-162 -128h-181zM719 700l-30 -166h-196l-65 -368h197l-30 -166h-618l30 166h196l65 368h-197l30 166h618z" />
    <glyph glyph-name="Icircumflex.ss01" horiz-adv-x="666" 
d="M507 736l-76 52l-94 -52h-157l154 128h206l110 -128h-143zM719 700l-30 -166h-196l-65 -368h197l-30 -166h-618l30 166h196l65 368h-197l30 166h618z" />
    <glyph glyph-name="Idieresis.ss01" horiz-adv-x="666" 
d="M238 856h161l-20 -116h-161zM473 856h161l-20 -116h-161zM719 700l-30 -166h-196l-65 -368h197l-30 -166h-618l30 166h196l65 368h-197l30 166h618z" />
    <glyph glyph-name="Idotaccent.ss01" horiz-adv-x="666" 
d="M330 856h212l-19 -116h-213zM719 700l-30 -166h-196l-65 -368h197l-30 -166h-618l30 166h196l65 368h-197l30 166h618z" />
    <glyph glyph-name="Igrave.ss01" horiz-adv-x="666" 
d="M427 864l68 -128h-159l-119 128h210zM719 700l-30 -166h-196l-65 -368h197l-30 -166h-618l30 166h196l65 368h-197l30 166h618z" />
    <glyph glyph-name="Imacron.ss01" horiz-adv-x="666" 
d="M207 848h456l-17 -95h-456zM719 700l-30 -166h-196l-65 -368h197l-30 -166h-618l30 166h196l65 368h-197l30 166h618z" />
    <glyph glyph-name="Iogonek.ss01" horiz-adv-x="666" 
d="M719 700l-30 -166h-196l-65 -368h197l-30 -166h-158l-10 -6q-15 -10 -16 -22l-1 -7q-1 -19 16 -19h160l-19 -106h-217q-43 0 -59.5 20.5t-11.5 65.5l2 16q5 38 23 58h-327l30 166h196l65 368h-197l30 166h618z" />
    <glyph glyph-name="Itilde.ss01" horiz-adv-x="666" 
d="M323 789l-9 -53h-116l13 80q11 48 58 48h148q23 0 34.5 -5.5t21.5 -21.5l20 -28q4 -6 14 -6h14q7 0 9 8l9 53h117l-14 -80q-9 -48 -57 -48h-149q-24 0 -34.5 5t-21.5 22l-20 28q-4 6 -13 6h-14q-8 0 -10 -8zM719 700l-30 -166h-196l-65 -368h197l-30 -166h-618l30 166
h196l65 368h-197l30 166h618z" />
    <glyph glyph-name="R.ss01" horiz-adv-x="897" 
d="M124 700h642q80 0 115 -42.5t21 -123.5l-21 -121q-10 -52 -29.5 -81.5t-54.5 -42.5q55 -36 39 -129l-29 -160h-222l31 175q5 27 -5 38.5t-37 11.5h-312l-40 -225h-222zM630 541h-311l-29 -162h315q28 0 40 10t16 38l12 64q4 27 -6 38.5t-37 11.5z" />
    <glyph glyph-name="Racute.ss01" horiz-adv-x="897" 
d="M554 864h231l-162 -128h-181zM124 700h642q80 0 115 -42.5t21 -123.5l-21 -121q-10 -52 -29.5 -81.5t-54.5 -42.5q55 -36 39 -129l-29 -160h-222l31 175q5 27 -5 38.5t-37 11.5h-312l-40 -225h-222zM630 541h-311l-29 -162h315q28 0 40 10t16 38l12 64q4 27 -6 38.5
t-37 11.5z" />
    <glyph glyph-name="Rcaron.ss01" horiz-adv-x="897" 
d="M788 864l-154 -128h-206l-110 128h143l76 -52l94 52h157zM124 700h642q80 0 115 -42.5t21 -123.5l-21 -121q-10 -52 -29.5 -81.5t-54.5 -42.5q55 -36 39 -129l-29 -160h-222l31 175q5 27 -5 38.5t-37 11.5h-312l-40 -225h-222zM630 541h-311l-29 -162h315q28 0 40 10
t16 38l12 64q4 27 -6 38.5t-37 11.5z" />
    <glyph glyph-name="Rcommaaccent.ss01" horiz-adv-x="897" 
d="M124 700h642q80 0 115 -42.5t21 -123.5l-21 -121q-10 -52 -29.5 -81.5t-54.5 -42.5q55 -36 39 -129l-29 -160h-222l31 175q5 27 -5 38.5t-37 11.5h-312l-40 -225h-222zM630 541h-311l-29 -162h315q28 0 40 10t16 38l12 64q4 27 -6 38.5t-37 11.5zM345 -138h-63l19 108
h194l-6 -36q-8 -39 -16 -57q-11 -18 -39 -51l-49 -58h-111z" />
    <glyph glyph-name="i.loclTRK" horiz-adv-x="313" 
d="M318 576h-213l20 116h212zM215 0h-212l95 536h212z" />
    <glyph glyph-name="uni0410.ss01" horiz-adv-x="924" 
d="M311 700h434q103 0 148.5 -54t26.5 -158l-87 -488h-222l30 167h-394l-30 -167h-222l91 508q19 104 70.5 148t154.5 44zM298 455l-21 -118h394l20 114q6 35 -6.5 50.5t-48.5 15.5h-265q-36 0 -51.5 -13.5t-21.5 -48.5z" />
    <glyph glyph-name="uni042F.ss01" horiz-adv-x="897" 
d="M276 700h649l-124 -700h-222l40 225h-314q-27 0 -39 -10.5t-17 -37.5l-32 -177h-222l30 170q20 111 104 133q-76 25 -57 134l19 106q14 82 58.5 119.5t126.5 37.5zM305 493l-12 -64q-5 -27 4.5 -38.5t36.5 -11.5h312l29 162h-314q-27 0 -39 -10.5t-17 -37.5z" />
    <glyph glyph-name="uni044F.ss01" horiz-adv-x="784" 
d="M199 536h587l-96 -536h-209l30 169h-258q-19 0 -27 -7t-12 -27l-24 -135h-202l26 141q16 85 78 99q-56 23 -42 106l14 74q11 64 42 90t93 26zM264 372l-8 -45q-4 -19 2.5 -26.5t25.5 -7.5h249l20 111h-251q-19 0 -27 -6.5t-11 -25.5z" />
    <glyph glyph-name="zero.tf" 
d="M578 0h-368q-103 0 -148 54t-26 158l53 296q19 104 70.5 148t154.5 44h368q103 0 148.5 -54t26.5 -158l-53 -296q-19 -104 -71 -148t-155 -44zM311 177h216q35 0 50.5 13.5t21.5 49.5l38 218q6 35 -7 50t-49 15h-215q-36 0 -51 -13.5t-21 -49.5l-38 -218q-6 -35 7 -50
t48 -15z" />
    <glyph glyph-name="one.tf" 
d="M638 700l-94 -533h267l-31 -167h-792l31 167h310l61 349l-284 -21l30 175l401 30h101z" />
    <glyph glyph-name="two.tf" 
d="M789 170l-30 -170h-761l43 244q13 79 52 112q38 32 124 41l373 35q24 2 34 11t15 33l5 22q10 46 -39 46h-249q-25 0 -34 -8.5t-14 -34.5l-6 -30h-206l13 81q13 81 52.5 114.5t123.5 33.5h441q81 0 116 -43t22 -125l-15 -95q-14 -81 -52 -112q-39 -33 -125 -42l-374 -35
q-25 -2 -34.5 -11t-14.5 -33l-6 -34h546z" />
    <glyph glyph-name="three.tf" 
d="M279 700h439q81 0 116 -43t22 -125l-9 -51q-10 -57 -32.5 -86.5t-63.5 -39.5q77 -32 59 -141l-11 -65q-13 -81 -53 -115t-122 -34h-459q-165 0 -138 168l14 85h206l-8 -48q-4 -25 4.5 -35.5t33.5 -10.5h267q24 0 34.5 9t15.5 34l6 41q4 25 -4 35t-33 10h-221l24 138h215
q25 0 34.5 8.5t14.5 34.5l5 26q4 25 -4 35.5t-34 10.5h-247q-25 0 -34.5 -8.5t-14.5 -34.5l-8 -43h-206l17 97q14 82 53.5 115t121.5 33z" />
    <glyph glyph-name="four.tf" 
d="M702 288h150l-29 -158h-149l-23 -130h-209l23 130h-474l24 133l505 437h255zM537 532l-282 -244h238z" />
    <glyph glyph-name="five.tf" 
d="M622 0h-620l31 170h512q25 0 34 8.5t14 34.5l5 27q4 25 -4 35.5t-34 10.5h-507l74 414h737l-31 -170h-523l-14 -86h385q81 0 116 -43t21 -125l-21 -128q-14 -82 -53.5 -115t-121.5 -33z" />
    <glyph glyph-name="six.tf" 
d="M833 530h-466q-36 0 -51.5 -13.5t-21.5 -49.5l-10 -58q33 33 108 33h289q81 0 116 -43t21 -125l-21 -125q-14 -83 -53.5 -116t-121.5 -33h-456q-81 0 -116 43t-21 125l59 340q18 104 70.5 148t155.5 44h550zM562 295h-255q-24 0 -34.5 -7.5t-14.5 -28.5l-10 -55
q-4 -25 5 -35t34 -10h255q25 0 35 9t14 34l8 48q4 25 -4 35t-33 10z" />
    <glyph glyph-name="seven.tf" 
d="M80 517l32 183h792l-29 -163l-332 -256q-35 -27 -50 -53t-24 -75l-27 -153h-218l28 160q16 94 44 143q26 47 93 95l165 119h-474z" />
    <glyph glyph-name="eight.tf" 
d="M279 700h439q81 0 116 -43t22 -125l-9 -51q-10 -57 -32.5 -86.5t-63.5 -39.5q77 -32 59 -141l-11 -65q-13 -81 -53 -115t-122 -34h-460q-164 0 -137 168l11 65q10 61 35.5 91.5t74.5 38.5q-71 32 -53 138l9 51q13 81 53 114.5t122 33.5zM310 502l-7 -35q-5 -25 3.5 -35.5
t34.5 -10.5h239q24 0 34.5 9t15.5 34l6 36q4 25 -4.5 35t-33.5 10h-240q-24 0 -33.5 -9t-14.5 -34zM592 198l9 50q4 25 -4 35t-33 10h-259q-25 0 -35 -8.5t-15 -34.5l-9 -49q-4 -25 4.5 -35t33.5 -10h259q25 0 35 8.5t14 33.5z" />
    <glyph glyph-name="nine.tf" 
d="M271 700h456q81 0 116 -43t21 -125l-60 -340q-18 -104 -70 -148t-155 -44h-551l30 168h466q35 0 51 13.5t22 49.5l10 53q-34 -32 -108 -32h-289q-81 0 -116.5 43t-20.5 125l23 132q14 82 53.5 115t121.5 33zM635 443l9 50q4 25 -5 35t-34 10h-256q-25 0 -34.5 -8.5
t-14.5 -34.5l-9 -50q-4 -25 4.5 -35.5t33.5 -10.5h255q24 0 35 9.5t16 34.5z" />
    <glyph glyph-name="zero.subs" horiz-adv-x="540" 
d="M322 -100h-223q-63 0 -90.5 33t-16.5 96l30 173q11 63 43.5 90.5t95.5 27.5h223q63 0 90.5 -33t16.5 -97l-31 -172q-12 -64 -44 -91t-94 -27zM166 17h121q19 0 26.5 7t10.5 26l21 120q3 19 -3.5 26t-24.5 7h-121q-19 0 -26.5 -7t-10.5 -26l-21 -120q-3 -19 3.5 -26
t24.5 -7z" />
    <glyph glyph-name="one.subs" horiz-adv-x="502" 
d="M340 320l-55 -310h149l-20 -110h-456l20 110h165l33 188l-149 -12l20 116l225 18h68z" />
    <glyph glyph-name="two.subs" horiz-adv-x="540" 
d="M453 11l-20 -111h-463l25 147q9 48 33 69t76 26l219 18q20 1 24 23l3 16q4 21 -19 21h-138q-12 0 -17 -4.5t-8 -17.5l-4 -20h-137l8 51q8 50 32.5 70.5t75.5 20.5h267q104 0 86 -105l-9 -51q-9 -49 -33 -69.5t-77 -25.5l-218 -18q-20 -1 -24 -23l-3 -17h321z" />
    <glyph glyph-name="three.subs" horiz-adv-x="537" 
d="M139 320h267q102 0 84 -102l-4 -28q-12 -68 -61 -78q50 -17 38 -85l-6 -35q-8 -51 -33 -71.5t-76 -20.5h-279q-100 0 -83 102l8 54h137l-4 -28q-2 -13 2 -18t17 -5h149q14 0 19 4.5t7 17.5l3 19q4 23 -20 23h-127l16 88h123q13 0 18 4.5t7 17.5l2 13q2 14 -2 18.5
t-17 4.5h-137q-13 0 -18.5 -4.5t-7.5 -17.5l-4 -24h-136l10 59q8 51 32.5 71.5t75.5 20.5z" />
    <glyph glyph-name="four.subs" horiz-adv-x="556" 
d="M408 77h92l-19 -104h-91l-13 -73h-137l13 73h-282l16 87l300 260h164zM294 204l-149 -127h126z" />
    <glyph glyph-name="five.subs" horiz-adv-x="520" 
d="M329 -100h-358l20 111h286q13 0 18 4t7 16l3 15q2 12 -2.5 16.5t-17.5 4.5h-285l45 253h432l-20 -111h-290l-7 -41h205q102 0 84 -103l-12 -74q-9 -51 -33 -71t-75 -20z" />
    <glyph glyph-name="six.subs" horiz-adv-x="539" 
d="M475 209h-279q-18 0 -25.5 -7t-10.5 -26l-5 -28q19 18 63 18h164q103 0 85 -103l-11 -72q-9 -51 -33.5 -71t-75.5 -20h-275q-103 0 -85 103l35 199q11 64 43 91t96 27h334zM305 73h-141q-21 0 -26 -17l-5 -29q-5 -23 20 -23h141q24 0 25 22l4 24q3 13 -1 18t-17 5z" />
    <glyph glyph-name="seven.subs" horiz-adv-x="514" 
d="M32 320h468l-20 -108h1l-194 -153q-18 -14 -25.5 -28.5t-11.5 -39.5l-16 -91h-145l17 99q11 59 26 83q15 27 55 58l80 59h-256z" />
    <glyph glyph-name="eight.subs" horiz-adv-x="537" 
d="M140 320h265q100 0 85 -103l-5 -29q-6 -35 -20 -53t-41 -23q50 -18 38 -86l-5 -35q-9 -50 -33.5 -70.5t-74.5 -20.5h-278q-102 0 -85 104l6 34q7 38 22.5 56t46.5 22q-44 20 -34 84l4 29q8 51 33 71t76 20zM168 196l-4 -19q-4 -23 20 -23h130q22 0 27 22l3 19
q2 13 -2 17.5t-18 4.5h-132q-13 0 -18 -4.5t-6 -16.5zM320 24l5 26q3 22 -19 22h-145q-24 0 -25 -22l-4 -25q-2 -13 2 -17.5t17 -4.5h143q14 0 19 4t7 17z" />
    <glyph glyph-name="nine.subs" horiz-adv-x="539" 
d="M135 320h275q102 0 86 -103l-35 -199q-11 -64 -43.5 -91t-95.5 -27h-335l19 110h279q19 0 27 7t11 24l5 29q-19 -19 -64 -19h-165q-103 0 -85 104l13 74q9 51 33 71t75 20zM178 144h141q19 0 24 14l6 32q5 23 -20 23h-141q-13 0 -18.5 -4.5t-7.5 -17.5l-4 -24
q-3 -23 20 -23z" />
    <glyph glyph-name="zero.dnom" horiz-adv-x="540" 
d="M340 0h-223q-63 0 -90.5 33t-16.5 96l30 173q11 63 43.5 90.5t95.5 27.5h223q63 0 90.5 -33t16.5 -97l-31 -172q-12 -64 -44 -91t-94 -27zM184 117h121q19 0 26.5 7t10.5 26l21 120q3 19 -3.5 26t-24.5 7h-121q-19 0 -26.5 -7t-10.5 -26l-21 -120q-3 -19 3.5 -26t24.5 -7
z" />
    <glyph glyph-name="one.dnom" horiz-adv-x="502" 
d="M358 420l-55 -310h149l-20 -110h-456l20 110h165l33 188l-149 -12l20 116l225 18h68z" />
    <glyph glyph-name="two.dnom" horiz-adv-x="540" 
d="M471 111l-20 -111h-463l25 147q9 48 33 69t76 26l219 18q20 1 24 23l3 16q4 21 -19 21h-138q-12 0 -17 -4.5t-8 -17.5l-4 -20h-137l8 51q8 50 32.5 70.5t75.5 20.5h267q104 0 86 -105l-9 -51q-9 -49 -33 -69.5t-77 -25.5l-218 -18q-20 -1 -24 -23l-3 -17h321z" />
    <glyph glyph-name="three.dnom" horiz-adv-x="537" 
d="M157 420h267q102 0 84 -102l-4 -28q-12 -68 -61 -78q50 -17 38 -85l-6 -35q-8 -51 -33 -71.5t-76 -20.5h-279q-100 0 -83 102l8 54h137l-4 -28q-2 -13 2 -18t17 -5h149q14 0 19 4.5t7 17.5l3 19q4 23 -20 23h-127l16 88h123q13 0 18 4.5t7 17.5l2 13q2 14 -2 18.5
t-17 4.5h-137q-13 0 -18.5 -4.5t-7.5 -17.5l-4 -24h-136l10 59q8 51 32.5 71.5t75.5 20.5z" />
    <glyph glyph-name="four.dnom" horiz-adv-x="556" 
d="M426 177h92l-19 -104h-91l-13 -73h-137l13 73h-282l16 87l300 260h164zM312 304l-149 -127h126z" />
    <glyph glyph-name="five.dnom" horiz-adv-x="520" 
d="M347 0h-358l20 111h286q13 0 18 4t7 16l3 15q2 12 -2.5 16.5t-17.5 4.5h-285l45 253h432l-20 -111h-290l-7 -41h205q102 0 84 -103l-12 -74q-9 -51 -33 -71t-75 -20z" />
    <glyph glyph-name="six.dnom" horiz-adv-x="539" 
d="M493 309h-279q-18 0 -25.5 -7t-10.5 -26l-5 -28q19 18 63 18h164q103 0 85 -103l-11 -72q-9 -51 -33.5 -71t-75.5 -20h-275q-103 0 -85 103l35 199q11 64 43 91t96 27h334zM323 173h-141q-21 0 -26 -17l-5 -29q-5 -23 20 -23h141q24 0 25 22l4 24q3 13 -1 18t-17 5z" />
    <glyph glyph-name="seven.dnom" horiz-adv-x="514" 
d="M50 420h468l-20 -108h1l-194 -153q-18 -14 -25.5 -28.5t-11.5 -39.5l-16 -91h-145l17 99q11 59 26 83q15 27 55 58l80 59h-256z" />
    <glyph glyph-name="eight.dnom" horiz-adv-x="537" 
d="M158 420h265q100 0 85 -103l-5 -29q-6 -35 -20 -53t-41 -23q50 -18 38 -86l-5 -35q-9 -50 -33.5 -70.5t-74.5 -20.5h-278q-102 0 -85 104l6 34q7 38 22.5 56t46.5 22q-44 20 -34 84l4 29q8 51 33 71t76 20zM186 296l-4 -19q-4 -23 20 -23h130q22 0 27 22l3 19
q2 13 -2 17.5t-18 4.5h-132q-13 0 -18 -4.5t-6 -16.5zM338 124l5 26q3 22 -19 22h-145q-24 0 -25 -22l-4 -25q-2 -13 2 -17.5t17 -4.5h143q14 0 19 4t7 17z" />
    <glyph glyph-name="nine.dnom" horiz-adv-x="539" 
d="M153 420h275q102 0 86 -103l-35 -199q-11 -64 -43.5 -91t-95.5 -27h-335l19 110h279q19 0 27 7t11 24l5 29q-19 -19 -64 -19h-165q-103 0 -85 104l13 74q9 51 33 71t75 20zM196 244h141q19 0 24 14l6 32q5 23 -20 23h-141q-13 0 -18.5 -4.5t-7.5 -17.5l-4 -24
q-3 -23 20 -23z" />
    <glyph glyph-name="zero.numr" horiz-adv-x="540" 
d="M389 280h-223q-128 0 -107 129l30 173q11 63 43.5 90.5t95.5 27.5h223q63 0 90.5 -33t16.5 -97l-31 -172q-12 -64 -44 -91t-94 -27zM233 397h121q19 0 26.5 7t10.5 26l21 120q3 19 -3.5 26t-24.5 7h-121q-19 0 -26.5 -7t-10.5 -26l-21 -120q-3 -19 3.5 -26t24.5 -7z" />
    <glyph glyph-name="one.numr" horiz-adv-x="502" 
d="M407 700l-55 -310h149l-20 -110h-456l20 110h165l33 188l-149 -12l20 116l225 18h68z" />
    <glyph glyph-name="two.numr" horiz-adv-x="540" 
d="M520 391l-20 -111h-463l25 147q9 48 33 69t76 26l219 18q20 1 24 23l3 16q5 21 -19 21h-138q-12 0 -17 -4.5t-8 -17.5l-4 -20h-137l8 51q8 50 32.5 70.5t75.5 20.5h267q104 0 86 -105l-9 -51q-9 -49 -33 -69.5t-77 -25.5l-218 -18q-20 -1 -24 -23l-3 -17h321z" />
    <glyph glyph-name="three.numr" horiz-adv-x="537" 
d="M206 700h267q102 0 84 -102l-4 -28q-12 -68 -61 -78q50 -17 38 -85l-6 -35q-8 -51 -33 -71.5t-76 -20.5h-279q-100 0 -83 102l8 54h137l-4 -28q-2 -13 2 -18t17 -5h149q14 0 19 4.5t7 17.5l3 19q4 23 -20 23h-127l16 88h123q13 0 18 4.5t7 17.5l2 13q2 14 -2 18.5
t-17 4.5h-137q-13 0 -18.5 -4.5t-7.5 -17.5l-4 -24h-136l10 59q8 51 32.5 71.5t75.5 20.5z" />
    <glyph glyph-name="four.numr" horiz-adv-x="556" 
d="M475 457h92l-19 -104h-91l-13 -73h-137l13 73h-282l16 87l300 260h164zM361 584l-149 -127h126z" />
    <glyph glyph-name="five.numr" horiz-adv-x="520" 
d="M396 280h-358l20 111h286q13 0 18 4t7 16l3 15q2 12 -2.5 16.5t-17.5 4.5h-285l45 253h432l-20 -111h-290l-7 -41h205q102 0 84 -103l-12 -74q-9 -51 -33 -71t-75 -20z" />
    <glyph glyph-name="six.numr" horiz-adv-x="539" 
d="M542 589h-279q-18 0 -25.5 -7t-10.5 -26l-5 -28q20 18 63 18h164q103 0 85 -103l-11 -72q-9 -51 -33.5 -71t-75.5 -20h-275q-103 0 -85 103l35 199q11 64 43 91t96 27h334zM372 453h-141q-21 0 -26 -17l-5 -29q-5 -23 20 -23h141q24 0 25 22l4 24q3 13 -1 18t-17 5z" />
    <glyph glyph-name="seven.numr" horiz-adv-x="514" 
d="M99 700h468l-20 -108h1l-194 -153q-18 -14 -25.5 -28.5t-11.5 -39.5l-16 -91h-145l17 99q11 59 26 83q15 27 55 58l80 59h-256z" />
    <glyph glyph-name="eight.numr" horiz-adv-x="537" 
d="M207 700h265q100 0 85 -103l-5 -29q-6 -35 -20 -53t-41 -23q50 -18 38 -86l-5 -35q-9 -50 -33.5 -70.5t-74.5 -20.5h-278q-102 0 -85 104l6 34q7 38 22.5 56t46.5 22q-44 20 -34 84l4 29q8 51 33 71t76 20zM235 576l-4 -19q-4 -23 20 -23h130q22 0 27 22l3 19
q2 13 -2 17.5t-18 4.5h-132q-13 0 -18 -4.5t-6 -16.5zM387 404l5 26q3 22 -19 22h-145q-24 0 -25 -22l-4 -25q-2 -13 2 -17.5t17 -4.5h143q14 0 19 4t7 17z" />
    <glyph glyph-name="nine.numr" horiz-adv-x="539" 
d="M202 700h275q102 0 86 -103l-35 -199q-11 -64 -43.5 -91t-95.5 -27h-335l19 110h279q19 0 27 7t11 24l5 29q-19 -19 -64 -19h-165q-103 0 -85 104l13 74q9 51 33 71t75 20zM245 524h141q19 0 24 14l6 32q5 23 -20 23h-141q-13 0 -18.5 -4.5t-7.5 -17.5l-4 -24
q-3 -23 20 -23z" />
    <glyph glyph-name="zero.sups" horiz-adv-x="540" 
d="M407 380h-223q-128 0 -107 129l30 173q11 63 43.5 90.5t95.5 27.5h223q63 0 90.5 -33t16.5 -97l-31 -172q-12 -64 -44 -91t-94 -27zM251 497h121q19 0 26.5 7t10.5 26l21 120q3 19 -3.5 26t-24.5 7h-121q-19 0 -26.5 -7t-10.5 -26l-21 -120q-3 -19 3.5 -26t24.5 -7z" />
    <glyph glyph-name="one.sups" horiz-adv-x="502" 
d="M425 800l-55 -310h149l-20 -110h-456l20 110h165l33 188l-149 -12l20 116l225 18h68z" />
    <glyph glyph-name="two.sups" horiz-adv-x="540" 
d="M538 491l-20 -111h-463l25 147q9 48 33 69t76 26l219 18q20 1 24 23l3 16q5 21 -19 21h-138q-12 0 -17 -4.5t-8 -17.5l-4 -20h-137l8 51q8 50 32.5 70.5t75.5 20.5h267q104 0 86 -105l-9 -51q-9 -49 -33 -69.5t-77 -25.5l-218 -18q-20 -1 -24 -23l-3 -17h321z" />
    <glyph glyph-name="three.sups" horiz-adv-x="537" 
d="M224 800h267q102 0 84 -102l-4 -28q-12 -68 -61 -78q50 -17 38 -85l-6 -35q-8 -51 -33 -71.5t-76 -20.5h-279q-100 0 -83 102l8 54h137l-4 -28q-2 -13 2 -18t17 -5h149q14 0 19 4.5t7 17.5l3 19q4 23 -20 23h-127l16 88h123q13 0 18 4.5t7 17.5l2 13q2 14 -2 18.5
t-17 4.5h-137q-13 0 -18.5 -4.5t-7.5 -17.5l-4 -24h-136l10 59q8 51 32.5 71.5t75.5 20.5z" />
    <glyph glyph-name="four.sups" horiz-adv-x="556" 
d="M493 557h92l-19 -104h-91l-13 -73h-137l13 73h-282l16 87l300 260h164zM379 684l-149 -127h126z" />
    <glyph glyph-name="five.sups" horiz-adv-x="520" 
d="M414 380h-358l20 111h286q13 0 18 4t7 16l3 15q2 12 -2.5 16.5t-17.5 4.5h-285l45 253h432l-20 -111h-290l-7 -41h205q102 0 84 -103l-12 -74q-9 -51 -33 -71t-75 -20z" />
    <glyph glyph-name="six.sups" horiz-adv-x="539" 
d="M560 689h-279q-18 0 -25.5 -7t-10.5 -26l-5 -28q20 18 63 18h164q103 0 85 -103l-11 -72q-9 -51 -33.5 -71t-75.5 -20h-275q-103 0 -85 103l35 199q11 64 43 91t96 27h334zM390 553h-141q-21 0 -26 -17l-5 -29q-5 -23 20 -23h141q24 0 25 22l4 24q3 13 -1 18t-17 5z" />
    <glyph glyph-name="seven.sups" horiz-adv-x="514" 
d="M117 800h468l-20 -108h1l-194 -153q-18 -14 -25.5 -28.5t-11.5 -39.5l-16 -91h-145l17 99q11 59 26 83q15 27 55 58l80 59h-256z" />
    <glyph glyph-name="eight.sups" horiz-adv-x="537" 
d="M225 800h265q100 0 85 -103l-5 -29q-6 -35 -20 -53t-41 -23q50 -18 38 -86l-5 -35q-9 -50 -33.5 -70.5t-74.5 -20.5h-278q-102 0 -85 104l6 34q7 38 22.5 56t46.5 22q-44 20 -34 84l4 29q8 51 33 71t76 20zM253 676l-4 -19q-4 -23 20 -23h130q22 0 27 22l3 19
q2 13 -2 17.5t-18 4.5h-132q-13 0 -18 -4.5t-6 -16.5zM405 504l5 26q3 22 -19 22h-145q-24 0 -25 -22l-4 -25q-2 -13 2 -17.5t17 -4.5h143q14 0 19 4t7 17z" />
    <glyph glyph-name="nine.sups" horiz-adv-x="539" 
d="M220 800h275q102 0 86 -103l-35 -199q-11 -64 -43.5 -91t-95.5 -27h-335l19 110h279q19 0 27 7t11 24l5 29q-19 -19 -64 -19h-165q-103 0 -85 104l13 74q9 51 33 71t75 20zM263 624h141q19 0 24 14l6 32q5 23 -20 23h-141q-13 0 -18.5 -4.5t-7.5 -17.5l-4 -24
q-3 -23 20 -23z" />
    <glyph glyph-name="numbersign.numr" horiz-adv-x="539" 
d="M556 610l-15 -81h-81l-12 -78h82l-14 -81h-81l-14 -90h-101l14 90h-89l-14 -90h-101l14 90h-82l14 81h81l12 78h-82l15 81h80l14 90h101l-14 -90h89l14 90h101l-14 -90h83zM258 451h89l12 78h-89z" />
    <glyph glyph-name="numbersign.tf" 
d="M855 543l-22 -124h-138l-22 -138h138l-22 -124h-135l-25 -157h-155l25 157h-165l-25 -157h-155l25 157h-140l22 124h137l22 138h-137l22 124h134l25 157h155l-25 -157h165l25 157h155l-25 -157h141zM353 281h165l22 138h-165z" />
    <glyph glyph-name="cent.numr" horiz-adv-x="540" 
d="M392 700h72q118 0 97 -118l-6 -33h-137l3 15q3 15 -2.5 21t-21.5 6h-138q-15 0 -21 -5.5t-9 -20.5l-14 -79q-3 -16 2.5 -22t20.5 -6h139q15 0 21 5.5t9 21.5l3 20h137l-9 -49q-10 -60 -37 -83t-87 -23h-84l-11 -60h-89l11 60h-74q-119 0 -98 118l24 126q11 59 38.5 82.5
t85.5 23.5h85l11 60h90z" />
    <glyph glyph-name="dollar.numr" horiz-adv-x="539" 
d="M391 700h81q100 0 84 -102l-5 -31h-135l2 14q4 23 -20 23h-137q-24 0 -25 -22l-2 -9q-2 -12 2 -16.5t17 -6.5l199 -14q52 -4 72.5 -28.5t11.5 -74.5l-11 -60q-9 -51 -33.5 -72t-74.5 -21h-101l-10 -60h-89l10 60h-90q-50 0 -72 26t-12 76l6 35h137l-4 -18q-2 -13 2 -18
t17 -5h151q13 0 18 4.5t8 18.5l3 14q2 13 -2 17.5t-18 5.5l-198 13q-52 4 -73 28.5t-12 74.5l10 55q8 51 33 72t76 21h94l11 60h89z" />
    <glyph glyph-name="Euro.numr" horiz-adv-x="557" 
d="M253 700h216q63 0 90.5 -33.5t16.5 -96.5l-8 -50h-137l7 41q3 19 -3.5 26t-25.5 7h-120q-18 0 -25.5 -7t-10.5 -25l-1 -6h146l-10 -53h-146l-4 -26h146l-10 -53h-146l-1 -5q-7 -33 28 -33h121q18 0 25.5 6.5t11.5 25.5l8 46h136l-12 -66q-11 -63 -43 -90.5t-95 -27.5
h-217q-63 0 -90.5 33t-16.5 96l3 15h-48l9 53h48l5 26h-48l10 53h47l5 26q11 64 43 91t96 27z" />
    <glyph glyph-name="florin.numr" horiz-adv-x="490" 
d="M517 583h-98q-19 0 -27.5 -6.5t-12.5 -25.5l-15 -53h126l-16 -88h-134l-29 -103q-18 -66 -51.5 -94.5t-95.5 -28.5h-149l20 117h99q18 0 26 7t14 26l21 76h-129l17 88h137l22 79q18 66 51 94.5t95 28.5h149z" />
    <glyph glyph-name="sterling.numr" horiz-adv-x="555" 
d="M256 700h210q63 0 90.5 -33.5t16.5 -96.5l-7 -38h-136l5 29q4 18 -2.5 25.5t-24.5 7.5h-121q-27 0 -32 -32l-5 -29h140l-13 -74h-141l-12 -68h160q24 0 25 22l6 37h137l-13 -76q-9 -51 -34.5 -72.5t-76.5 -21.5h-409l19 111h45l12 68h-51l13 74h51l9 49q12 64 44 91
t95 27z" />
    <glyph glyph-name="yen.numr" horiz-adv-x="538" 
d="M426 700h172l-191 -219h133l-10 -59h-163l-5 -32h163l-11 -59h-163l-9 -51h-142l9 51h-162l10 59h163l5 32h-162l10 59h135l-114 219h162l60 -141z" />
    <glyph glyph-name="cent.tf" 
d="M579 700h123q192 0 158 -192l-8 -50h-206l4 23q5 31 -5.5 43t-41.5 12h-244q-30 0 -42.5 -11t-17.5 -41l-24 -135q-6 -31 4.5 -43t41.5 -12h245q30 0 42 11t18 41l5 31h206l-13 -75q-18 -96 -62 -134q-46 -38 -140 -38h-144l-18 -100h-135l18 100h-129q-192 0 -158 192
l37 206q16 97 62 135q43 37 139 37h149l18 100h135z" />
    <glyph glyph-name="dollar.tf" 
d="M575 700h143q161 0 136 -166l-8 -49h-206l3 20q3 25 -5.5 34.5t-33.5 9.5h-247q-25 0 -35.5 -9.5t-14.5 -34.5l-2 -13q-4 -25 3 -33.5t30 -10.5l345 -25q83 -7 116.5 -46.5t19.5 -119.5l-18 -107q-14 -82 -54.5 -116t-122.5 -34h-171l-18 -100h-136l18 100h-157
q-81 0 -115.5 42t-20.5 124l10 59h206l-5 -29q-4 -25 4.5 -34.5t34.5 -9.5h271q24 0 34.5 9.5t15.5 34.5l4 25q4 25 -3 34.5t-30 11.5l-345 24q-83 7 -117 46.5t-19 118.5l16 94q14 82 54.5 116t122.5 34h161l18 100h136z" />
    <glyph glyph-name="Euro.tf" 
d="M344 700h348q103 0 148 -54.5t27 -157.5l-14 -79h-206l11 65q7 35 -6 50t-49 15h-204q-35 0 -50.5 -13.5t-21.5 -49.5l-3 -17h256l-15 -83h-256l-9 -52h256l-15 -83h-255l-3 -15q-7 -35 6 -50t49 -15h203q36 0 51 13.5t22 49.5l13 74h206l-19 -106q-19 -104 -71 -148
t-155 -44h-348q-103 0 -148 54t-26 158l5 29h-64l15 83h64l9 52h-64l15 83h64l9 49q19 104 70.5 148t154.5 44z" />
    <glyph glyph-name="florin.tf" 
d="M853 523h-181q-35 0 -51 -13t-27 -50l-29 -102h239l-24 -136h-253l-51 -184q-28 -106 -80 -153q-52 -45 -153 -45h-263l32 177h181q36 0 51.5 13t25.5 50l40 142h-242l24 136h256l40 144q30 107 82 153q52 45 152 45h262z" />
    <glyph glyph-name="sterling.tf" 
d="M345 700h338q103 0 148 -54.5t26 -157.5l-11 -61h-206l9 47q7 35 -6.5 50t-49.5 15h-201q-30 0 -44.5 -13.5t-20.5 -49.5l-11 -61h246l-20 -113h-246l-23 -133h280q24 0 34.5 9t15.5 34l11 62h206l-22 -122q-14 -81 -56 -116.5t-123 -35.5h-654l30 169h64l23 133h-73
l19 113h74l17 93q19 104 71 148t155 44z" />
    <glyph glyph-name="yen.tf" 
d="M666 700h258l-328 -370h233l-16 -92h-280l-10 -60h279l-16 -92h-280l-15 -86h-214l15 86h-278l16 92h279l10 60h-278l16 92h232l-197 370h245l118 -261z" />
    <glyph glyph-name="percent.numr" horiz-adv-x="605" 
d="M255 503h-118q-65 0 -54 65l12 72q5 32 21.5 46t48.5 14h119q66 0 55 -66l-13 -72q-6 -32 -22.5 -45.5t-48.5 -13.5zM158 280h-78l445 420h78zM172 565h66q14 0 17 17l7 39q4 15 -13 15h-65q-16 0 -19 -15l-7 -40q-3 -16 14 -16zM517 280h-119q-66 0 -54 66l13 72
q5 32 21.5 45.5t48.5 13.5h119q66 0 54 -66l-13 -71q-5 -32 -21.5 -46t-48.5 -14zM434 343h65q9 0 12.5 3t5.5 12l7 41q4 15 -13 15h-66q-13 0 -18 -15l-7 -41q-4 -15 14 -15z" />
    <glyph glyph-name="perthousand.numr" horiz-adv-x="875" 
d="M255 503h-118q-65 0 -54 65l12 72q5 32 21.5 46t48.5 14h119q66 0 55 -66l-13 -72q-6 -32 -22.5 -45.5t-48.5 -13.5zM158 280h-78l445 420h78zM172 565h66q14 0 17 17l7 39q4 15 -13 15h-65q-16 0 -19 -15l-7 -40q-3 -16 14 -16zM517 280h-119q-66 0 -54 66l13 72
q5 32 21.5 45.5t48.5 13.5h119q66 0 54 -66l-13 -71q-5 -32 -21.5 -46t-48.5 -14zM788 280h-120q-64 0 -54 66l13 72q6 32 22 45.5t48 13.5h119q66 0 54 -66l-12 -71q-6 -32 -22 -46t-48 -14zM434 343h65q9 0 12.5 3t5.5 12l7 41q4 15 -13 15h-66q-13 0 -18 -15l-7 -41
q-4 -15 14 -15zM705 343h65q14 0 17 15l8 41q3 15 -14 15h-65q-16 0 -18 -15l-8 -41q-3 -15 15 -15z" />
    <glyph glyph-name="percent.tf" horiz-adv-x="972" 
d="M488 590l-20 -118q-10 -54 -37.5 -77t-80.5 -23h-188q-53 0 -76.5 28.5t-13.5 81.5l20 118q10 54 37.5 77t80.5 23h188q53 0 76.5 -28t13.5 -82zM193 0h-123l738 700h123zM215 469h108q19 0 27 7t11 25l12 69q4 19 -2.5 26t-25.5 7h-108q-18 0 -26 -6.5t-12 -25.5
l-12 -69q-6 -33 28 -33zM791 0h-188q-53 0 -76.5 28.5t-14.5 81.5l21 118q10 54 37.5 77t80.5 23h188q53 0 76.5 -28t13.5 -82l-21 -118q-10 -54 -37 -77t-80 -23zM656 97h108q18 0 26 7t11 25l13 69q3 19 -3.5 26t-24.5 7h-109q-18 0 -26 -6.5t-11 -25.5l-13 -69
q-6 -33 29 -33z" />
    <glyph glyph-name="perthousand.tf" horiz-adv-x="1414" 
d="M488 590l-20 -118q-10 -54 -37.5 -77t-80.5 -23h-188q-53 0 -76.5 28.5t-13.5 81.5l20 118q10 54 37.5 77t80.5 23h188q53 0 76.5 -28t13.5 -82zM193 0h-123l738 700h123zM215 469h108q19 0 27 7t11 25l12 69q4 19 -2.5 26t-25.5 7h-108q-18 0 -26 -6.5t-12 -25.5
l-12 -69q-6 -33 28 -33zM791 0h-188q-53 0 -76.5 28.5t-14.5 81.5l21 118q10 54 37.5 77t80.5 23h188q53 0 76.5 -28t13.5 -82l-21 -118q-10 -54 -37 -77t-80 -23zM1233 0h-188q-53 0 -76.5 28.5t-14.5 81.5l21 118q10 54 37.5 77t80.5 23h188q53 0 76.5 -28t13.5 -82
l-21 -118q-10 -54 -37 -77t-80 -23zM656 97h108q18 0 26 7t11 25l13 69q3 19 -3.5 26t-24.5 7h-109q-18 0 -26 -6.5t-11 -25.5l-13 -69q-6 -33 29 -33zM1098 97h108q18 0 26 7t11 25l13 69q3 19 -3.5 26t-24.5 7h-109q-18 0 -26 -6.5t-11 -25.5l-13 -69q-6 -33 29 -33z" />
    <glyph glyph-name="brevecombcy" horiz-adv-x="0" 
d="M-67 572h-292q-78 0 -64 77l9 51h140l-4 -24q-4 -25 22 -25h112q24 0 28 25l4 24h140l-9 -55q-6 -39 -26.5 -56t-59.5 -17z" />
    <glyph glyph-name="ringacutecomb" horiz-adv-x="414" 
d="M475 700l-79 -66q37 -7 28 -55l-4 -28q-5 -29 -19 -41t-44 -12h-215q-57 0 -47 57l4 28q5 29 19 41t44 12h39l50 64h224zM347 561l2 12q2 11 -0.5 14.5t-13.5 3.5h-143q-11 0 -14.5 -3t-5.5 -15l-2 -12q-2 -11 0.5 -14.5t13.5 -3.5h143q11 0 14.5 3t5.5 15z" />
    </font>
</defs>
</svg>
